<?xml version="1.0" encoding="utf-8"?>
<!-- Generator: Adobe Illustrator 18.1.0, SVG Export Plug-In . SVG Version: 6.00 Build 0)  -->
<svg version="1.1" id="Capa_1" xmlns="http://www.w3.org/2000/svg" xmlns:xlink="http://www.w3.org/1999/xlink" x="0px" y="0px"
	 viewBox="0 0 315.75 471.46" style="enable-background:new 0 0 315.75 471.46;" xml:space="preserve">
<style type="text/css">
	.st0{opacity:0.72;fill:#424242;}
	.st1{fill:#F5F5F5;}
	.st2{fill:#E0E0E0;}
	.st3{fill:#BDBDBD;}
	.st4{fill:#F57F17;}
	.st5{fill:#616161;}
	.st6{fill:#FDD835;}
	.st7{fill:#FFEE58;}
	.st8{fill:#1D1E1C;}
	.st9{fill:#BA68C8;}
	.st10{fill:#FEF8C5;}
	.st11{fill:#FEF077;}
	.st12{opacity:0.14;fill:#616261;}
	.st13{clip-path:url(#SVGID_2_);}
	.st14{fill:#A2704D;}
	.st15{fill:#8C5D3C;}
	.st16{fill:#1D1D1B;}
	.st17{fill:#EF6D3F;}
	.st18{fill:#DB572E;}
	.st19{opacity:0.3;fill:#F5F5F5;}
	.st20{fill:#5DACBD;}
	.st21{fill:#57A1AD;}
	.st22{fill:#EFE9B4;}
	.st23{fill:#F9F7E1;}
	.st24{fill:#6B432B;}
	.st25{opacity:0.2;fill:#FFFFFF;}
	.st26{fill:#B78767;}
	.st27{opacity:0.3;}
	.st28{fill:#D19384;}
	.st29{fill:#FFFFFF;}
	.st30{fill:#A03C50;}
	.st31{fill:#CB6272;}
	.st32{clip-path:url(#SVGID_4_);}
	.st33{fill:#8E24AA;}
	.st34{clip-path:url(#SVGID_6_);}
	.st35{fill:#4B2504;}
	.st36{fill:#8DCBCF;}
	.st37{clip-path:url(#SVGID_8_);}
	.st38{fill:#7FC4C7;}
	.st39{fill:#C6C5C3;}
	.st40{opacity:0.3;fill:#FFFFFF;enable-background:new    ;}
	.st41{fill:#1F140F;}
	.st42{fill:#7A3481;}
	.st43{clip-path:url(#SVGID_10_);fill:#692872;}
	.st44{fill:#D9A08C;}
	.st45{fill:#E1AC97;}
	.st46{clip-path:url(#SVGID_12_);fill:#692872;}
	.st47{clip-path:url(#SVGID_14_);fill:#692872;}
	.st48{clip-path:url(#SVGID_16_);fill:#692872;}
	.st49{clip-path:url(#SVGID_18_);fill:#D9A08C;}
	.st50{fill:#692872;}
	.st51{clip-path:url(#SVGID_20_);fill:#D9A08C;}
	.st52{clip-path:url(#SVGID_22_);fill:#D9A08C;}
	.st53{clip-path:url(#SVGID_24_);fill:#D9A08C;}
	.st54{fill:#D31876;}
	.st55{fill:#D38E82;}
	.st56{fill:#993B4E;}
	.st57{fill:#C05F6E;}
	.st58{clip-path:url(#SVGID_26_);}
	.st59{clip-path:url(#SVGID_28_);}
	.st60{clip-path:url(#SVGID_30_);fill:#692872;}
	.st61{clip-path:url(#SVGID_32_);fill:#692872;}
	.st62{clip-path:url(#SVGID_34_);fill:#692872;}
	.st63{clip-path:url(#SVGID_36_);fill:#692872;}
	.st64{clip-path:url(#SVGID_38_);fill:#D9A08C;}
	.st65{clip-path:url(#SVGID_40_);fill:#D9A08C;}
	.st66{clip-path:url(#SVGID_42_);fill:#D9A08C;}
	.st67{clip-path:url(#SVGID_44_);fill:#D9A08C;}
	.st68{clip-path:url(#SVGID_46_);}
	.st69{clip-path:url(#SVGID_48_);}
	.st70{clip-path:url(#SVGID_50_);fill:#692872;}
	.st71{clip-path:url(#SVGID_52_);fill:#692872;}
	.st72{clip-path:url(#SVGID_54_);fill:#692872;}
	.st73{clip-path:url(#SVGID_56_);fill:#692872;}
	.st74{clip-path:url(#SVGID_58_);fill:#D9A08C;}
	.st75{clip-path:url(#SVGID_60_);fill:#D9A08C;}
	.st76{clip-path:url(#SVGID_62_);fill:#D9A08C;}
	.st77{clip-path:url(#SVGID_64_);fill:#D9A08C;}
	.st78{fill:#1565C0;}
	.st79{clip-path:url(#SVGID_66_);}
	.st80{fill:#CA8C63;}
	.st81{fill:#B67655;}
	.st82{fill:#3C4C9B;}
	.st83{fill:#29398D;}
	.st84{fill:#DCAE8D;}
	.st85{fill:#7985C1;}
	.st86{fill:#925F36;}
	.st87{fill:#C89E7D;}
	.st88{fill:#7E4E24;}
	.st89{fill:#B71E1E;}
	.st90{opacity:0.3;fill:#FFFFFF;}
	.st91{fill:#98191B;}
	.st92{fill:#E67373;}
	.st93{fill:#701518;}
	.st94{opacity:0.8;fill:#D07475;}
	.st95{clip-path:url(#SVGID_68_);}
	.st96{clip-path:url(#SVGID_70_);}
	.st97{fill:#5D4037;}
	.st98{clip-path:url(#SVGID_72_);}
	.st99{fill:#C79B66;}
	.st100{fill:#7E665F;}
	.st101{fill:#DEC3A2;}
	.st102{fill:#96774D;}
	.st103{fill:#452F28;}
	.st104{fill:#CC9B6B;}
	.st105{fill:#F3B980;}
	.st106{fill:#B68A60;}
	.st107{fill:#1C1C1B;}
	.st108{fill:#FFD600;}
	.st109{fill:#F8B032;}
	.st110{fill:#916036;}
	.st111{fill:#FFEB85;}
	.st112{fill:#BD9E85;}
	.st113{fill:#6E4729;}
	.st114{fill:none;stroke:#E4332A;stroke-miterlimit:10;}
	.st115{fill:#F19004;}
	.st116{fill:#EFEFEF;}
	.st117{fill:#F7D4B2;}
	.st118{fill:#2F1D19;}
	.st119{fill:#1F1412;}
	.st120{fill:#5A4A48;}
	.st121{opacity:0.8;}
	.st122{fill:#DA9085;}
	.st123{fill:#E1F2FC;}
	.st124{fill:#848585;}
	.st125{fill:#CC6273;}
	.st126{fill:#B0B0B0;}
	.st127{fill:#A1877F;}
	.st128{fill:#A13D51;}
	.st129{fill:#E0A0AB;}
	.st130{clip-path:url(#SVGID_74_);}
	.st131{clip-path:url(#SVGID_76_);}
	.st132{clip-path:url(#SVGID_78_);}
</style>
<g>
	<defs>
		<rect id="SVGID_75_" x="0" y="0" width="315.75" height="471.46"/>
	</defs>
	<clipPath id="SVGID_2_">
		<use xlink:href="#SVGID_75_"  style="overflow:visible;"/>
	</clipPath>
	<g class="st13">
		<g>
			<g>
				<path class="st97" d="M173.35,395.97c-2.65,0.32-5.5,0.34-8.22,0.15c1.59,0.5,3.15,0.88,4.6,0.83
					C170.93,396.9,172.14,396.49,173.35,395.97z"/>
				<path class="st97" d="M180.65,393.75c-0.07-0.01-0.14,0-0.21-0.01c-0.21-0.02-0.33-0.14-0.41-0.29
					c-2.2,0.22-4.44,1.55-6.68,2.52c2.71-0.33,5.21-0.97,7.17-2.01C180.61,393.92,180.64,393.84,180.65,393.75z"/>
				<path class="st97" d="M156.75,394.23c-0.11,0-0.21-0.01-0.32-0.01c0.02,0.2,0.11,0.39,0.32,0.46c2.3,0.68,5.26,1.2,8.38,1.43
					c-2.64-0.84-5.35-2.03-7.78-2.37C157.28,394.02,157.08,394.23,156.75,394.23z"/>
				<path class="st97" d="M111.79,382.96c0,0.06-0.01,0.12-0.02,0.19c13.35,5.9,30.14,10.99,44.66,11.07
					c-0.02-0.28,0.12-0.57,0.46-0.54c0.15,0.01,0.31,0.05,0.46,0.07c0.11-0.39-0.09-0.87-0.6-0.87c-15.66,0-31.16-6.75-46-10.9
					c-0.35-0.09-0.59,0.45-0.25,0.61c0.25,0.12,0.51,0.23,0.76,0.34c0-0.01,0-0.03,0-0.04
					C111.31,382.58,111.81,382.65,111.79,382.96z"/>
				<path class="st97" d="M156.43,394.22c0.11,0,0.21,0.01,0.32,0.01c0.34,0,0.54-0.21,0.6-0.48c-0.15-0.02-0.31-0.05-0.46-0.07
					C156.55,393.65,156.41,393.94,156.43,394.22z"/>
				<path class="st97" d="M180.65,393.75c7.82,0.74,16.07-1.63,23.73-3.03c8.59-1.59,17.18-3.83,24.87-8.16
					c-0.06-0.21-0.11-0.42-0.18-0.62c-0.09-0.3,0.37-0.5,0.49-0.21c0.07,0.17,0.13,0.34,0.2,0.51c0.38-0.42-0.13-1.14-0.72-0.87
					c-14.69,6.98-32.44,10.65-48.61,11.34c-0.45,0.02-0.56,0.44-0.41,0.76c0.11-0.01,0.23-0.04,0.34-0.05
					C180.57,393.39,180.67,393.58,180.65,393.75z"/>
				<path class="st97" d="M180.44,393.74c0.07,0.01,0.14,0,0.21,0.01c0.02-0.17-0.08-0.35-0.28-0.35c-0.11,0.01-0.22,0.04-0.34,0.05
					C180.11,393.6,180.23,393.72,180.44,393.74z"/>
				<path class="st97" d="M185.4,439.22c0.05,0.24,0.09,0.5,0.13,0.74c4.55-0.73,8.83-1.83,12.47-3.31c0.38-0.16,0.36-0.8-0.11-0.79
					c-7.01,0.17-13.97,1.97-20.98,2.49c-8.97,0.67-17.36-0.79-26.09-2.67c-0.38-0.08-0.67,0.5-0.28,0.69
					c2.2,1.08,4.66,1.94,7.27,2.62c0.08-0.47,0.16-0.94,0.25-1.42c0.09-0.49,0.85-0.36,0.85,0.12c-0.01,0.52-0.05,1.05-0.07,1.57
					c7.95,1.89,17.28,2.06,25.75,0.84c-0.01-0.25-0.03-0.5-0.03-0.75C184.54,438.86,185.31,438.73,185.4,439.22z"/>
				<path class="st97" d="M101.12,578.35c0.09,0.02,0.18,0.05,0.27,0.07c-2.74-18.94-1.86-37.94-1.22-57.02
					c0.63-18.57,1.4-37.14,2.51-55.68c1.06-17.54,2.52-35.14,4.99-52.54c1.41-9.96,3.49-19.98,4.11-30.04
					c-0.17-0.08-0.35-0.15-0.52-0.23c-5.03,27.32-8,55.09-9.88,82.8c-1.33,19.6-1.94,39.27-2.58,58.91
					c-0.59,17.94-2.02,36.64,1.62,54.32C100.39,578.6,100.66,578.24,101.12,578.35z"/>
				<path class="st97" d="M111.79,382.96c0.02-0.32-0.48-0.38-0.53-0.08c0,0.02,0,0.03,0,0.04c0.17,0.07,0.35,0.15,0.52,0.23
					C111.78,383.08,111.79,383.02,111.79,382.96z"/>
				<path class="st97" d="M158.06,437.56c-0.09,0.48-0.17,0.95-0.25,1.42c0.34,0.1,0.68,0.19,1.03,0.27
					c0.02-0.52,0.06-1.05,0.07-1.57C158.91,437.2,158.14,437.07,158.06,437.56z"/>
				<path class="st97" d="M243.17,519.83c-0.69-18.63-1.37-37.28-2.62-55.88c-1.82-26.96-3.63-55.31-11.3-81.39
					c-7.68,4.33-16.27,6.58-24.87,8.16c-7.66,1.41-15.91,3.78-23.73,3.03c-0.01,0.09-0.04,0.17-0.13,0.21
					c-1.95,1.04-4.46,1.68-7.17,2.01c-1.21,0.52-2.42,0.93-3.62,0.98c-1.45,0.05-3.01-0.33-4.6-0.83c-3.12-0.24-6.08-0.75-8.38-1.43
					c-0.22-0.08-0.31-0.27-0.32-0.46c-14.52-0.08-31.31-5.17-44.66-11.07c-0.61,10.06-2.7,20.08-4.11,30.04
					c-2.47,17.4-3.93,34.99-4.99,52.54c-1.12,18.54-1.89,37.11-2.51,55.68c-0.64,19.08-1.52,38.07,1.22,57.02
					c0.03,0.2,0.05,0.39,0.07,0.58c0.05,0.3-0.14,0.51-0.35,0.6c8.71,3.27,17.74,5.9,26.87,7.61c7.72,1.44,15.54,4.24,23.39,4.59
					c0.72,0.04,0.87-0.76,0.51-1.21c-2.61-10.71-2.67-22.54-3.3-33.49c-0.78-13.56-0.72-27.13,0.07-40.67
					c0.84-14.35,3-28.51,5.1-42.71c1.67-11.32,4.69-22.98,5.1-34.47c-0.35-0.08-0.68-0.17-1.03-0.27c-2.62-0.68-5.08-1.54-7.27-2.62
					c-0.39-0.19-0.1-0.77,0.28-0.69c8.73,1.88,17.12,3.34,26.09,2.67c7.01-0.52,13.98-2.32,20.98-2.49
					c0.47-0.01,0.49,0.63,0.11,0.79c-3.63,1.48-7.92,2.58-12.47,3.31c4.61,25.71,9.25,51.99,10.59,78.13
					c0.76,14.68,0.75,29.39-0.22,44.06c-0.64,9.74-0.79,20.13-3.02,29.71c16.69-2.23,32.88-7.76,49.18-11.78
					C244.96,560.1,243.92,539.94,243.17,519.83z M112.62,490.87c-0.02,0.31-0.47,0.32-0.49,0c-0.92-19.78,2.78-39.94,5.52-59.46
					c0.05-0.39,0.69-0.29,0.66,0.09C116.66,451.34,113.92,470.99,112.62,490.87z M111.53,411.14c5.54-5.18,11.87-8.98,14.46-16.67
					c0.17-0.51,0.88-0.31,0.78,0.22c-0.75,3.97-3.51,7.47-6.27,10.24c-2.51,2.51-5.38,5.34-8.69,6.7
					C111.54,411.74,111.33,411.33,111.53,411.14z M112.07,497.84c0.05-0.37,0.64-0.27,0.63,0.09c-0.82,24.65-1.35,48.81-0.52,73.48
					c0.01,0.32-0.42,0.29-0.46,0C108.83,547.51,108.86,521.72,112.07,497.84z M222.27,405.87c-2.45-2.7-4.88-5.82-5.58-9.52
					c-0.1-0.53,0.61-0.73,0.77-0.22c2.59,7.69,8.92,11.48,14.46,16.67c0.2,0.19-0.01,0.59-0.27,0.49
					C228.12,411.85,224.82,408.68,222.27,405.87z M225.8,433.07c2.74,19.52,6.44,39.68,5.52,59.46c-0.01,0.32-0.46,0.31-0.48,0
					c-1.3-19.88-4.04-39.53-5.69-59.37C225.11,432.78,225.74,432.69,225.8,433.07z M231.73,573.07c-0.03,0.29-0.47,0.31-0.46,0
					c0.83-24.68,0.29-48.83-0.52-73.49c-0.02-0.36,0.58-0.46,0.63-0.09C234.59,523.38,234.62,549.17,231.73,573.07z"/>
				<path class="st97" d="M125.99,394.47c-2.59,7.7-8.92,11.49-14.46,16.67c-0.2,0.19,0.01,0.6,0.28,0.49
					c3.31-1.36,6.18-4.19,8.69-6.7c2.76-2.77,5.52-6.27,6.27-10.24C126.87,394.16,126.16,393.96,125.99,394.47z"/>
				<path class="st97" d="M117.66,431.42c-2.74,19.52-6.44,39.68-5.52,59.46c0.02,0.32,0.47,0.31,0.49,0
					c1.3-19.88,4.03-39.53,5.69-59.37C118.35,431.13,117.71,431.03,117.66,431.42z"/>
				<path class="st97" d="M229.25,382.55c7.67,26.09,9.48,54.43,11.3,81.39c1.25,18.61,1.93,37.25,2.62,55.88
					c0.74,20.11,1.78,40.27-1.11,60.24c0.09-0.02,0.18-0.05,0.27-0.07c0.46-0.11,0.73,0.25,0.71,0.62
					c3.64-17.71,2.17-36.38,1.62-54.32c-0.65-20.79-1.4-41.6-2.81-62.35c-1.11-16.43-2.46-32.99-5.03-49.27
					c-1.67-10.57-2.86-22.52-7.06-32.45c-0.04,0.05-0.09,0.1-0.15,0.14C229.49,382.42,229.37,382.49,229.25,382.55z"/>
				<path class="st97" d="M229.07,381.93c0.06,0.21,0.11,0.42,0.18,0.62c0.12-0.06,0.24-0.13,0.37-0.19
					c0.06-0.04,0.11-0.08,0.15-0.14c-0.07-0.16-0.13-0.34-0.2-0.51C229.44,381.43,228.98,381.63,229.07,381.93z"/>
				<path class="st97" d="M192.88,591.85c2.23-9.58,2.37-19.97,3.02-29.71c0.97-14.67,0.98-29.38,0.22-44.06
					c-1.35-26.14-5.98-52.42-10.59-78.13c-0.31,0.05-0.63,0.09-0.94,0.14c0.27,10.74,3.2,21.44,4.66,32.03
					c1.96,14.17,4.18,28.24,5.33,42.52c1.09,13.55,1.03,27.16,0.48,40.73c-0.49,12.01-0.6,25.14-3.47,36.87
					c0.12-0.14,0.29-0.25,0.51-0.28C192.36,591.93,192.62,591.89,192.88,591.85z"/>
				<path class="st97" d="M185.4,439.22c-0.09-0.49-0.85-0.36-0.84,0.12c0,0.25,0.03,0.5,0.03,0.75c0.31-0.05,0.63-0.09,0.94-0.14
					C185.48,439.72,185.44,439.46,185.4,439.22z"/>
				<path class="st97" d="M231.65,413.29c0.27,0.11,0.47-0.3,0.27-0.49c-5.54-5.19-11.87-8.98-14.46-16.67
					c-0.17-0.51-0.88-0.31-0.77,0.22c0.7,3.7,3.13,6.82,5.58,9.52C224.82,408.68,228.12,411.85,231.65,413.29z"/>
				<path class="st97" d="M231.32,492.53c0.93-19.78-2.78-39.94-5.52-59.46c-0.05-0.39-0.69-0.29-0.66,0.08
					c1.66,19.85,4.39,39.49,5.69,59.37C230.85,492.84,231.3,492.84,231.32,492.53z"/>
			</g>
			<path class="st100" d="M233.44,433.01c-0.15-0.41-0.79-0.48-0.91,0c-0.49,2.1,0.29,4.45,0.76,6.49
				c0.99,4.28,1.88,8.43,2.36,12.82c0.95,8.72,0.85,17.47,1.47,26.21c0.03,0.42,0.72,0.58,0.79,0.11
				C239.99,463.82,238.36,447.17,233.44,433.01z"/>
			<path class="st100" d="M229.78,397.62c-0.42-2.31-0.49-4.86-1.26-7.08c-0.11-0.33-0.58-0.35-0.68,0
				c-0.58,1.87-0.27,3.85,0.01,5.76c0.33,2.34,0.52,4.96,1.43,7.14c0.26,0.62,1.05,0.51,1.14-0.15
				C230.64,401.39,230.11,399.48,229.78,397.62z"/>
			<path class="st103" d="M180.44,392.69c-0.45,0.02-0.56,0.44-0.41,0.76c-2.2,0.22-4.44,1.55-6.68,2.52
				c-2.65,0.32-5.5,0.34-8.22,0.15c-2.64-0.84-5.35-2.03-7.78-2.37c0.11-0.39-0.09-0.87-0.6-0.87c-15.66,0-31.16-6.75-46-10.9
				c-0.35-0.09-0.59,0.45-0.25,0.61c0.25,0.12,0.51,0.23,0.76,0.34c-5.03,27.32-8,55.09-9.88,82.8c-1.33,19.6-1.94,39.27-2.58,58.91
				c-0.59,17.94-2.02,36.64,1.62,54.32c0,0.02,0.01,0.03,0.01,0.05c0.02,0.1,0.03,0.18,0.05,0.27c0.07,0.36,0.38,0.43,0.64,0.32
				c5.68,2.13,5.62,2.45,11.51,3.96c-2.22-24.93,0.02-72.83,0.08-80.68c0.12-16.07-1.37-32.43,2.38-47.87
				c0.73-3.01,2.73-30.98,5.83-37.7c5.86-12.72,33.15-14.98,40.23-16.28c0.46-0.08,0.88-0.07,1.28-0.02c1.5-0.34,3.12-0.5,4.94-0.42
				c12.42,0.54,25.07-5.21,36.05-10.57c0.25-0.12,0.48-0.26,0.72-0.39C196.21,391.34,188.15,392.37,180.44,392.69z"/>
			<g>
				<path class="st16" d="M111.19,382.89c-5.04,27.33-8,55.12-9.89,82.84c-1.33,19.61-1.94,39.28-2.58,58.92
					c-0.59,18.05-2.05,36.86,1.68,54.65c0.14,0.67,1.08,0.38,0.99-0.28c-2.84-19.13-1.94-38.33-1.29-57.6
					c0.63-18.57,1.4-37.13,2.52-55.68c1.06-17.54,2.52-35.12,4.98-52.52c1.42-10.03,3.52-20.12,4.12-30.25
					C111.73,382.66,111.24,382.58,111.19,382.89L111.19,382.89z"/>
			</g>
			<g>
				<path class="st16" d="M125.92,394.48c-2.59,7.7-8.91,11.49-14.45,16.68c-0.2,0.19,0.01,0.59,0.27,0.48
					c3.31-1.35,6.18-4.19,8.69-6.7c2.76-2.76,5.52-6.27,6.27-10.24C126.8,394.18,126.09,393.97,125.92,394.48L125.92,394.48z"/>
			</g>
			<path class="st103" d="M158.68,437.52c-0.04-0.11-0.07-0.23-0.11-0.34c-2.86-0.52-5.72-1.15-8.58-1.9
				c0.23,0.39,0.43,0.82,0.54,1.33c0.06,0.27,0.11,0.53,0.16,0.8c0.14,0.31,0.27,0.63,0.37,0.98c1.22,4.62,2.83,8.73,3.29,13.53
				l0.02,0.25c1.09,3.07,1.32,6.55,1.06,10.09c0.04,0.31,0.09,0.61,0.13,0.92c1.47-7.94,3-15.97,3.28-23.92
				c0.05,0.01,0.1,0.02,0.15,0.03C158.88,438.69,158.78,438.11,158.68,437.52z"/>
			<path class="st103" d="M201.53,463.46c0.37-6.22,0.31-12.34-0.43-18.52c-0.04-0.3-0.07-0.6-0.11-0.91c0-0.01,0-0.02-0.01-0.03
				c-0.49-2.26-1.2-4.84-1.71-7.47c-4.74,1.04-9.49,1.76-14.23,2.11c0.44,1.44,0.65,3.03,0.61,4.81c-0.02,0.92-0.29,1.66-0.68,2.28
				c0.89,8.84,3.07,17.66,4.28,26.4c1.7,12.31,3.6,24.54,4.82,36.9C194.83,493.74,200.62,478.75,201.53,463.46z"/>
			<path class="st103" d="M231.82,407.39c-4.03-1.53-7.82-3.83-10.97-6.69c-1.95-1.78-3.31-3.4-4.21-5.91
				c-0.04-0.11-0.07-0.21-0.11-0.32c-0.2,0.14-0.41,0.26-0.62,0.39c0.5,0.55,0.81,1.34,0.78,2.39c-0.02,0.54,0.03,1.08,0.11,1.62
				c0.04,0.04,0.09,0.07,0.13,0.11c0.67,0.52,1.15,1.32,1.31,2.12c0.67,0.84,1.34,1.7,2.01,2.59c3.19,4.25,7.63,7.59,12.48,10.15
				C232.73,411.52,232.72,409.52,231.82,407.39z"/>
			<g>
				<path class="st16" d="M150.46,436.37c12.88,6.33,34.33,5.63,47.46,0.29c0.39-0.15,0.37-0.79-0.1-0.78
					c-7.01,0.16-13.97,1.96-20.98,2.49c-8.97,0.67-17.36-0.79-26.09-2.67C150.36,435.61,150.07,436.18,150.46,436.37L150.46,436.37z
					"/>
			</g>
			<g>
				<path class="st16" d="M157.99,437.58c-4.67,26.01-9.08,52.43-10.72,78.85c-0.91,14.67-0.64,29.4,0.22,44.06
					c0.59,10.08,0.78,20.9,3.24,30.74c0.19,0.76,1.33,0.44,1.14-0.32c-2.68-10.8-2.73-22.74-3.37-33.8
					c-0.78-13.54-0.72-27.13,0.08-40.68c0.84-14.33,3-28.51,5.1-42.7c1.75-11.83,5-24.03,5.17-36.03
					C158.84,437.21,158.08,437.08,157.99,437.58L157.99,437.58z"/>
			</g>
			<g>
				<path class="st16" d="M112.55,490.88c1.3-19.88,4.04-39.52,5.69-59.36c0.03-0.39-0.61-0.47-0.66-0.08
					c-2.74,19.52-6.45,39.68-5.51,59.45C112.08,491.2,112.53,491.2,112.55,490.88L112.55,490.88z"/>
			</g>
			<g>
				<path class="st16" d="M229,381.93c7.83,26.27,9.65,54.84,11.48,82.03c1.26,18.6,1.93,37.24,2.62,55.88
					c0.76,20.31,1.82,40.66-1.18,60.83c-0.09,0.65,0.85,0.95,0.99,0.28c3.73-17.8,2.24-36.58,1.68-54.64
					c-0.64-20.79-1.4-41.59-2.81-62.34c-1.12-16.45-2.46-33.01-5.03-49.28c-1.7-10.76-2.89-22.94-7.26-32.97
					C229.37,381.44,228.91,381.64,229,381.93L229,381.93z"/>
			</g>
			<g>
				<path class="st16" d="M184.48,439.35c0.15,10.99,3.19,21.94,4.7,32.79c1.96,14.17,4.18,28.24,5.33,42.52
					c1.09,13.54,1.04,27.15,0.48,40.72c-0.5,12.12-0.6,25.37-3.54,37.18c-0.19,0.76,0.96,1.08,1.15,0.32
					c2.46-9.86,2.57-20.65,3.24-30.74c0.97-14.67,0.98-29.38,0.22-44.06c-1.36-26.39-6.07-52.9-10.72-78.85
					C185.24,438.73,184.48,438.86,184.48,439.35L184.48,439.35z"/>
			</g>
			<g>
				<path class="st16" d="M216.61,396.35c0.7,3.72,3.14,6.83,5.59,9.54c2.55,2.8,5.85,5.96,9.37,7.41c0.27,0.12,0.47-0.29,0.27-0.48
					c-5.54-5.19-11.87-8.98-14.45-16.68C217.22,395.63,216.51,395.83,216.61,396.35L216.61,396.35z"/>
			</g>
			<g>
				<path class="st16" d="M231.25,492.53c0.93-19.77-2.78-39.93-5.52-59.46c-0.05-0.37-0.69-0.29-0.66,0.1
					c1.66,19.84,4.39,39.47,5.69,59.36C230.78,492.86,231.23,492.86,231.25,492.53L231.25,492.53z"/>
			</g>
		</g>
		<g>
			<g>
				<g>
					<g>
						<path class="st104" d="M245.45,418.37c0.45-1.49,1.31-1.78,2.3-1.9c0.2-0.21,0.48-0.21,0.79-0.08
							c0.48-0.04,0.98-0.12,1.46-0.3c0.05-0.04,0.08-0.12,0.15-0.13c0.06-0.01,0.11,0,0.16,0c0.06-0.03,0.12-0.04,0.17-0.07
							c0.49-0.28,1.18,0.29,1.36,0.86c0.4,0.48,0.7,1.09,0.91,1.6c0.06,0.15,0.1,0.3,0.15,0.45c0.07,0.06,0.12,0.12,0.16,0.17
							c0.67,1.01,1.33,2.14,2.21,3c0.14,0.09,0.27,0.18,0.35,0.27c0.12,0.14,0.24,0.27,0.36,0.41c0.4,0.46,0.38,1.02,0.12,1.27
							c0.06,0.75-0.01,1.48-0.17,2.21c-0.16,2.84-1.1,5.67-1.82,8.39c-0.06,0.24-0.13,0.46-0.19,0.7c-0.09,0.59-0.15,1.19-0.28,1.77
							c-0.06,0.3-0.15,0.57-0.27,0.83c0.01,0.44-0.15,0.71-0.58,0.91c-0.25,0.3-0.58,0.55-0.98,0.75c-0.78,0.97-2.02,1.63-3.11,0.92
							c-1.62-1.06-1.27-3.28-0.48-4.73c0.15-0.28,0.36-0.37,0.59-0.36c0.33-0.89,0.78-1.74,1.33-2.56c0.35-0.53,0.73-1.14,1.17-1.64
							c0.38-0.79,0.78-1.54,1.3-2.29c-0.03-0.01-0.06-0.02-0.09-0.02c-0.17,0.48-0.58,0.86-1.24,1.13c-0.34,0.14-0.67,0.21-1,0.25
							c-0.1,0.06-0.21,0.13-0.36,0.17c-0.59,0.19-1.27,0.21-1.85-0.03c-1.4-0.58-1.73-2.05-1.27-3.36c0.07-0.19,0.25-0.28,0.44-0.31
							c0.33-0.96,0.71-1.9,0.91-2.93c0,0,0-0.01,0-0.01c-0.06,0.11-0.1,0.23-0.16,0.34c-0.48,0.93-1.71,0.01-2.1-0.45
							C244.66,422.14,244.93,420.1,245.45,418.37z"/>
						<path class="st105" d="M234.2,420.21c0-0.02-0.01-0.05-0.02-0.07c-0.07-0.53,0.04-1.09,0.43-1.43
							c0.27-0.63,0.64-1.27,1.05-1.89c0.26-2.71,2.19-5.01,3.8-7.12c0.61-0.8,1.22-1.79,1.86-2.77c0.47-1.77,1.19-3.49,1.76-5.21
							c0.11-0.34,0.22-0.68,0.33-1.01c0.23-1.41,0.54-2.82,0.77-4.21c0.36-2.14,0.39-4.91,1.26-7.03c0.22-2.93,0.32-5.94,0.46-8.94
							c-0.1-0.21-0.16-0.42-0.16-0.62c-0.18-6.94,0.2-13.76,0.12-20.62c-1.85-11.76-3.81-23.49-5.53-35.26
							c-0.24-1.18-0.48-2.36-0.72-3.54c-0.7-3.33-1.84-6.89-2.08-10.35c-0.23-0.75-0.44-1.5-0.69-2.25
							c-0.26-0.78-0.32-2.07,0.71-2.33c1.84-0.45,2.42-0.55,3.82-0.66c3.1-1.61,6.64-2.74,9.67-4.11c4.88-2.21,9.56-4.92,14.46-7.05
							c0.06-0.03,0.12-0.02,0.19-0.03c-0.02-0.17-0.03-0.34,0-0.5c0.03-0.17,0.07-0.33,0.1-0.5c0.19-0.95,1.04-1.08,1.83-0.7
							c0.92,0.44,1.76,1.44,1.88,2.48c0.16,1.39,0.86,2.56,0.57,3.99c-0.08,0.37-0.24,0.72-0.41,1.06c0.06,0.3,0.1,0.6,0.12,0.91
							c3.35,9.62,5.76,22.49,4.77,33.66c0.11,2.33,0.04,4.76,0.07,7.23c0.08,5.15,1.23,12.01-0.36,17.43
							c0.07,0.24,0.1,0.48,0.06,0.7c-0.12,0.75-0.28,1.49-0.42,2.23c-0.11,3.14-0.4,6.27-0.94,9.37c-0.24,1.38-0.3,3.65-0.97,5.25
							c0,0.05-0.01,0.09-0.01,0.14c0.15,0.23,0.25,0.46,0.22,0.63c-0.26,1.51-0.51,3.03-0.76,4.55c0.12,3.02-0.44,5.97-1.1,9
							c-0.15,0.7-0.3,1.42-0.44,2.14c-0.15,1.37-0.34,2.74-0.56,4.1c-0.07,0.43-0.12,0.89-0.17,1.35c0.28,1.3,0.26,2.67,0.17,4.02
							c-0.03,0.5-0.06,1.08-0.09,1.68c1.53,5.39,2.37,13.42-0.42,18.88c-0.34,1.79-0.9,3.49-1.92,4.99
							c-0.09,0.12-0.18,0.2-0.29,0.24c-0.49,1.31-1.02,2.6-1.71,3.84c-0.51,0.92-1.09,1.82-1.64,2.74c0,0.11,0,0.22-0.05,0.32
							c-0.71,1.59-1.16,3.35-2.17,4.8c-0.24,0.35-0.51,0.68-0.8,1c-0.43,1.42-1.85,2.23-3.15,3.17c-0.21,0.38-0.5,0.6-0.88,0.78
							c-0.06,0.39-0.27,0.68-0.65,0.75c-0.03,0.03-0.03,0.06-0.06,0.09c-0.39,0.34-0.89-0.15-1.15-0.48
							c-0.28-0.22-0.49-0.51-0.64-0.84c-0.26-0.35-0.37-0.77-0.25-1.18c0-0.07-0.02-0.14-0.01-0.2c0.01-0.2,0.08-0.31,0.17-0.4
							c-0.16-1.38,0.21-2.72,0.51-4.13c0.29-1.33,0.48-2.87,0.88-4.28c0.12-1.57,0.46-3.15,0.77-4.65c0.16-0.75,0.28-1.67,0.46-2.58
							c0.11-1.22,0.24-2.45,0.39-3.65c0.01-0.09,0.06-0.12,0.09-0.19c-1.39-1.52-2.58-3.21-3.7-4.94c-0.33-0.5-0.77-1.19-1.07-1.91
							c-0.52-0.12-1.04-0.33-1.49-0.53c-0.24-0.11-0.47-0.23-0.7-0.34c-0.58,0.19-1.16,0.39-1.79,0.54c-0.01,0-0.02,0.01-0.04,0.01
							c-1.03,0.52-2.05,1.06-3.07,1.61c-0.62,1.72-2.08,3.45-3.3,4.32c-1.07,0.77-2.86,1.87-4.21,1.79
							c-0.5-0.03-0.97-0.23-1.39-0.52C233.94,423.03,233.7,421.81,234.2,420.21z"/>
						<path class="st106" d="M249.56,369.51c-0.72,4.23-1.98,10.39-3.93,16.64c0.09-1.86,0.18-3.74,0.27-5.62
							c-0.1-0.21-0.16-0.42-0.16-0.62c-0.18-6.94,0.2-13.76,0.12-20.62c-1.85-11.76-3.81-23.49-5.53-35.26
							c-0.24-1.18-0.48-2.36-0.72-3.54c-0.7-3.33-1.84-6.89-2.08-10.35c-0.23-0.75-0.44-1.5-0.69-2.25
							c-0.06-0.19-0.12-0.42-0.14-0.66c8.08,9.18,12.72,25.6,14.54,37.61C252.47,352.99,250.93,361.41,249.56,369.51z"/>
					</g>
					<path class="st107" d="M233.94,422.96c0.02,0.02,0.04,0.02,0.06,0.03c0.31,0.35,0.75,0.61,1.22,0.77
						c1.03,0.36,2.8,0.05,3.4-0.09c2.07-0.47,3.49-1.95,4.89-3.47c0.47-0.51,0.96-1.01,1.46-1.48c-0.57,1.61-1.04,3.34-0.19,4.77
						c0.49,0.83,1.45,1.51,2.39,1.19c-0.36,0.7-0.7,1.4-1,2.15c-0.36,0.91-0.55,1.98-0.18,2.85c0.85,2.01,3.18,1.6,4.97,0.79
						c-0.11,0.19-0.2,0.38-0.32,0.57c-1.18,1.84-2.43,2.86-3.19,5.57c-0.41,1.47-0.12,3.86,1.59,4.35c1.29,0.37,3.02-0.41,4.04-1.54
						c-0.17,1.48-0.24,2.92-0.09,4.3c0.43,3.94,4.01,1.95,6.28-1.03c2.64-3.46,4.62-7.88,6.5-11.71c1.68-3.43,4.3-9.32,4.56-11.05
						c0.56-3.81,0.26-14.47,0.13-15.47c-0.22-1.75-0.86-3.52-0.62-5.32c2.31-17.47,5.59-37.11,5.94-57.9
						c0.26-15.1-2.96-35.09-6.36-50.3c-0.37,0.49-0.9,0.74-1.53,0.82c3.46,14.77,6.85,33.88,6.44,50.42
						c-0.5,19.96-2.49,35.71-5.26,55.38c-0.16,1.5-0.2,3.81,0.06,5.47c0.14,0.94,0.56,2.84,0.57,2.86
						c0.18,4.71,0.28,9.33-0.27,14.09c-0.21,1.79-2.99,7.52-4.42,10.71c-1.17,2.59-2.28,5.23-3.65,7.73
						c-0.64,1.17-5.95,9.69-7.69,5.45c-0.33-0.81,0.59-7.33,1.57-11.07c0.83-3.17,1.6-6.26,1.68-9.46c0.2-0.19,0.28-0.5,0.05-0.76
						c-0.01-0.02-0.03-0.03-0.04-0.05c-0.12-0.11-0.13-0.17-0.29-0.33c-1.82-2.03-3.57-3.92-4.75-6.48
						c-0.04-0.08-0.1-0.11-0.18-0.12c-1.06-1.2-3.91-0.07-5.17,0.5c-2.87,1.3-4.38,4.51-7.18,5.78c-0.65,0.29-1.33,0.5-2.03,0.66
						c-0.84,0.19-2.04,0.14-2.64-0.48c-0.11-0.12-0.2-0.25-0.26-0.41c-0.01-0.04-0.02-0.08-0.03-0.11
						c-0.92-3.01,5.5-11.9,6.89-14.06c1.67-2.61,3-5.08,2.96-7.89c0.05-0.4,0.07-1.14,0.1-1.3c2.25-14.74,2.71-22.96,1.86-36.63
						c-0.79-12.72-6.69-44.09-9.55-56.71c-0.06,0.04-0.13,0.08-0.2,0.12c-0.07,0.06-0.15,0.12-0.23,0.19
						c-0.07,0.06-0.17,0.11-0.28,0.14c-0.03,0.02-0.07,0.04-0.11,0.06c2.13,12.75,8.5,43.56,9.3,56.26
						c0.85,13.5-1.54,36.35-1.69,37.85c-1.13,5.76-6.01,11.03-8.56,16.34C233.83,418.18,231.7,421.18,233.94,422.96z M252.97,428.88
						c1.08-2.34,1.54-4.67,1.55-7.14c0.41,0.49,0.84,0.96,1.32,1.36c-0.05,4.85-1.88,10.23-2.62,15.23
						c-0.89,0.7-1.99,1.46-3.12,1.67c-1.7,0.33-2.36-1.43-1.91-3.04C248.99,434.11,251.65,431.74,252.97,428.88z M247.77,426
						c0.89-1.62,1.36-3.6,1.69-4.87c0.3-1.59,0.31-3.22,0.05-4.76c-0.02-0.11-0.1-0.15-0.2-0.16c0.88-0.28,1.75-0.39,2.16,0.03
						c0.72,1.87,1.65,3.81,2.93,5.39c-0.01,0.01-0.03,0.01-0.03,0.02c-0.64,2.83-1.58,5.53-3.01,8.1c-1.04,0.31-2.73,0.93-3.6,0.24
						C246.4,428.91,247.04,427.35,247.77,426z M245.38,420.8c0.21-1.01,0.67-1.92,0.64-2.94c0.31-0.22,0.62-0.43,0.96-0.62
						c0.35-0.2,1.2-0.63,2.09-0.94c-0.04,0.04-0.07,0.1-0.06,0.17c0.15,2.21-0.36,4.83-1,6.53c-0.14,0.37-0.35,0.72-0.53,1.07
						C245.76,425,245.15,421.88,245.38,420.8z"/>
				</g>
				<g>
					<g>
						<path class="st104" d="M92.68,418.37c-0.45-1.49-1.31-1.78-2.3-1.9c-0.2-0.21-0.48-0.21-0.79-0.08
							c-0.48-0.04-0.98-0.12-1.46-0.3c-0.05-0.04-0.08-0.12-0.15-0.13c-0.06-0.01-0.11,0-0.16,0c-0.06-0.03-0.12-0.04-0.17-0.07
							c-0.49-0.28-1.18,0.29-1.36,0.86c-0.4,0.48-0.7,1.09-0.91,1.6c-0.06,0.15-0.1,0.3-0.15,0.45c-0.07,0.06-0.12,0.12-0.16,0.17
							c-0.67,1.01-1.33,2.14-2.21,3c-0.14,0.09-0.27,0.18-0.35,0.27c-0.12,0.14-0.24,0.27-0.36,0.41c-0.4,0.46-0.38,1.02-0.12,1.27
							c-0.06,0.75,0.01,1.48,0.17,2.21c0.16,2.84,1.1,5.67,1.82,8.39c0.06,0.24,0.13,0.46,0.19,0.7c0.09,0.59,0.15,1.19,0.28,1.77
							c0.06,0.3,0.15,0.57,0.27,0.83c-0.01,0.44,0.15,0.71,0.58,0.91c0.25,0.3,0.58,0.55,0.98,0.75c0.78,0.97,2.02,1.63,3.11,0.92
							c1.62-1.06,1.27-3.28,0.48-4.73c-0.15-0.28-0.36-0.37-0.59-0.36c-0.33-0.89-0.78-1.74-1.33-2.56
							c-0.35-0.53-0.73-1.14-1.17-1.64c-0.38-0.79-0.78-1.54-1.3-2.29c0.03-0.01,0.06-0.02,0.09-0.02c0.17,0.48,0.58,0.86,1.24,1.13
							c0.34,0.14,0.67,0.21,1,0.25c0.1,0.06,0.21,0.13,0.36,0.17c0.59,0.19,1.27,0.21,1.85-0.03c1.4-0.58,1.73-2.05,1.27-3.36
							c-0.07-0.19-0.25-0.28-0.44-0.31c-0.33-0.96-0.71-1.9-0.91-2.93c0,0,0-0.01,0-0.01c0.06,0.11,0.1,0.23,0.16,0.34
							c0.48,0.93,1.71,0.01,2.1-0.45C93.47,422.14,93.2,420.1,92.68,418.37z"/>
						<path class="st105" d="M103.93,420.21c0-0.02,0.01-0.05,0.02-0.07c0.07-0.53-0.04-1.09-0.43-1.43
							c-0.27-0.63-0.64-1.27-1.05-1.89c-0.26-2.71-2.19-5.01-3.8-7.12c-0.61-0.8-1.22-1.79-1.86-2.77
							c-0.47-1.77-1.19-3.49-1.76-5.21c-0.11-0.34-0.22-0.68-0.33-1.01c-0.23-1.41-0.54-2.82-0.77-4.21
							c-0.36-2.14-0.39-4.91-1.26-7.03c-0.22-2.93-0.32-5.94-0.46-8.94c0.1-0.21,0.16-0.42,0.16-0.62
							c0.18-6.94-0.2-13.76-0.12-20.62c1.85-11.76,3.81-23.49,5.53-35.26c0.24-1.18,0.48-2.36,0.72-3.54
							c0.7-3.33,1.84-6.89,2.08-10.35c0.23-0.75,0.44-1.5,0.69-2.25c0.26-0.78,0.32-2.07-0.71-2.33c-1.84-0.45-2.42-0.55-3.82-0.66
							c-3.1-1.61-6.64-2.74-9.67-4.11c-4.88-2.21-9.56-4.92-14.46-7.05c-0.06-0.03-0.12-0.02-0.19-0.03c0.02-0.17,0.03-0.34,0-0.5
							c-0.03-0.17-0.07-0.33-0.1-0.5c-0.19-0.95-1.04-1.08-1.83-0.7c-0.92,0.44-1.76,1.44-1.88,2.48c-0.16,1.39-0.86,2.56-0.57,3.99
							c0.08,0.37,0.24,0.72,0.41,1.06c-0.06,0.3-0.1,0.6-0.12,0.91c-3.35,9.62-5.76,22.49-4.77,33.66
							c-0.11,2.33-0.04,4.76-0.07,7.23c-0.08,5.15-1.23,12.01,0.36,17.43c-0.07,0.24-0.1,0.48-0.06,0.7
							c0.12,0.75,0.28,1.49,0.42,2.23c0.11,3.14,0.4,6.27,0.94,9.37c0.24,1.38,0.3,3.65,0.97,5.25c0,0.05,0.01,0.09,0.01,0.14
							c-0.15,0.23-0.25,0.46-0.22,0.63c0.26,1.51,0.51,3.03,0.76,4.55c-0.12,3.02,0.44,5.97,1.1,9c0.15,0.7,0.3,1.42,0.44,2.14
							c0.15,1.37,0.34,2.74,0.56,4.1c0.07,0.43,0.12,0.89,0.17,1.35c-0.28,1.3-0.26,2.67-0.17,4.02c0.03,0.5,0.06,1.08,0.09,1.68
							c-1.53,5.39-2.37,13.42,0.42,18.88c0.34,1.79,0.9,3.49,1.92,4.99c0.09,0.12,0.18,0.2,0.29,0.24c0.49,1.31,1.02,2.6,1.71,3.84
							c0.51,0.92,1.09,1.82,1.64,2.74c0,0.11,0,0.22,0.05,0.32c0.71,1.59,1.16,3.35,2.17,4.8c0.24,0.35,0.51,0.68,0.8,1
							c0.43,1.42,1.85,2.23,3.15,3.17c0.21,0.38,0.5,0.6,0.88,0.78c0.06,0.39,0.27,0.68,0.65,0.75c0.03,0.03,0.03,0.06,0.06,0.09
							c0.39,0.34,0.89-0.15,1.15-0.48c0.28-0.22,0.49-0.51,0.64-0.84c0.26-0.35,0.37-0.77,0.25-1.18c0-0.07,0.02-0.14,0.01-0.2
							c-0.01-0.2-0.08-0.31-0.17-0.4c0.16-1.38-0.21-2.72-0.51-4.13c-0.29-1.33-0.48-2.87-0.88-4.28c-0.12-1.57-0.46-3.15-0.77-4.65
							c-0.16-0.75-0.28-1.67-0.46-2.58c-0.11-1.22-0.24-2.45-0.39-3.65c-0.01-0.09-0.06-0.12-0.09-0.19
							c1.39-1.52,2.58-3.21,3.7-4.94c0.33-0.5,0.77-1.19,1.07-1.91c0.52-0.12,1.04-0.33,1.49-0.53c0.24-0.11,0.47-0.23,0.7-0.34
							c0.58,0.19,1.16,0.39,1.79,0.54c0.01,0,0.02,0.01,0.04,0.01c1.03,0.52,2.05,1.06,3.07,1.61c0.62,1.72,2.08,3.45,3.3,4.32
							c1.07,0.77,2.86,1.87,4.21,1.79c0.5-0.03,0.97-0.23,1.39-0.52C104.19,423.03,104.43,421.81,103.93,420.21z"/>
						<path class="st106" d="M63.89,358.74c-0.07,0.24-0.1,0.48-0.06,0.7c0.12,0.75,0.28,1.49,0.42,2.23c0,0.05,0.01,0.11,0.01,0.16
							c1.46-22.59,3.99-45.25,14.11-65.37c-1.89-0.96-3.79-1.9-5.73-2.74c-0.06-0.03-0.12-0.02-0.19-0.03c0.02-0.17,0.03-0.34,0-0.5
							c-0.03-0.17-0.07-0.33-0.1-0.5c-0.19-0.95-1.04-1.08-1.83-0.7c-0.92,0.44-1.76,1.44-1.88,2.48c-0.16,1.39-0.86,2.56-0.57,3.99
							c0.08,0.37,0.24,0.72,0.41,1.06c-0.06,0.3-0.1,0.6-0.12,0.91c-3.35,9.62-5.76,22.49-4.77,33.66
							c-0.11,2.33-0.04,4.76-0.07,7.23C63.45,346.47,62.29,353.32,63.89,358.74z"/>
						<path class="st106" d="M88.58,369.51c0.72,4.23,1.98,10.39,3.93,16.64c-0.09-1.86-0.18-3.74-0.27-5.62
							c0.1-0.21,0.16-0.42,0.16-0.62c0.18-6.94-0.2-13.76-0.12-20.62c1.85-11.76,3.81-23.49,5.53-35.26
							c0.24-1.18,0.48-2.36,0.72-3.54c0.7-3.33,1.84-6.89,2.08-10.35c0.23-0.75,0.44-1.5,0.69-2.25c0.06-0.19,0.12-0.42,0.14-0.66
							c-8.08,9.18-12.72,25.6-14.54,37.61C85.66,352.99,87.2,361.41,88.58,369.51z"/>
					</g>
					<path class="st107" d="M103.22,415.93c-2.55-5.31-7.43-10.58-8.56-16.34c-0.15-1.5-2.54-24.34-1.69-37.85
						c0.8-12.7,7.17-43.51,9.3-56.26c-0.03-0.02-0.07-0.04-0.11-0.06c-0.11-0.03-0.21-0.08-0.28-0.14
						c-0.08-0.07-0.15-0.13-0.23-0.19c-0.06-0.04-0.13-0.08-0.2-0.12c-2.86,12.62-8.76,43.99-9.55,56.71
						c-0.85,13.66-0.39,21.89,1.86,36.63c0.02,0.16,0.04,0.9,0.1,1.3c-0.03,2.81,1.29,5.28,2.96,7.89
						c1.39,2.17,7.81,11.05,6.89,14.06c-0.01,0.04-0.02,0.08-0.03,0.11c-0.06,0.16-0.15,0.29-0.26,0.41
						c-0.6,0.62-1.8,0.67-2.64,0.48c-0.71-0.16-1.38-0.37-2.03-0.66c-2.79-1.27-4.31-4.48-7.18-5.78c-1.26-0.57-4.12-1.7-5.17-0.5
						c-0.07,0.01-0.14,0.04-0.18,0.12c-1.17,2.56-2.93,4.45-4.75,6.48c-0.17,0.15-0.18,0.22-0.29,0.33
						c-0.01,0.02-0.03,0.03-0.04,0.05c-0.23,0.26-0.15,0.57,0.05,0.76c0.08,3.2,0.85,6.3,1.68,9.46c0.98,3.74,1.9,10.26,1.57,11.07
						c-1.74,4.24-7.05-4.28-7.69-5.45c-1.37-2.5-2.49-5.14-3.65-7.73c-1.44-3.19-4.22-8.92-4.42-10.71
						c-0.55-4.76-0.45-9.38-0.27-14.09c0.01-0.02,0.42-1.92,0.57-2.86c0.26-1.66,0.22-3.97,0.06-5.47
						c-2.77-19.67-4.76-35.42-5.26-55.38c-0.41-16.54,2.98-35.65,6.44-50.42c-0.63-0.08-1.16-0.34-1.53-0.82
						c-3.4,15.22-6.61,35.21-6.36,50.3c0.35,20.78,3.63,40.42,5.94,57.9c0.24,1.81-0.4,3.58-0.62,5.32
						c-0.13,1-0.43,11.66,0.13,15.47c0.26,1.73,2.87,7.62,4.56,11.05c1.88,3.83,3.86,8.25,6.5,11.71c2.28,2.98,5.85,4.97,6.28,1.03
						c0.15-1.37,0.08-2.82-0.09-4.3c1.02,1.12,2.75,1.9,4.04,1.54c1.7-0.49,2-2.88,1.59-4.35c-0.76-2.71-2.01-3.72-3.19-5.57
						c-0.12-0.19-0.21-0.38-0.32-0.57c1.79,0.81,4.12,1.22,4.97-0.79c0.37-0.88,0.18-1.94-0.18-2.85c-0.29-0.74-0.64-1.45-1-2.15
						c0.94,0.32,1.89-0.37,2.39-1.19c0.85-1.43,0.38-3.16-0.19-4.77c0.51,0.46,0.99,0.96,1.46,1.48c1.4,1.52,2.83,3,4.89,3.47
						c0.61,0.14,2.37,0.45,3.4,0.09c0.47-0.16,0.9-0.43,1.22-0.77c0.02-0.01,0.04-0.01,0.06-0.03
						C106.44,421.18,104.3,418.18,103.22,415.93z M89.94,436.97c0.45,1.6-0.21,3.36-1.91,3.04c-1.13-0.22-2.23-0.97-3.12-1.67
						c-0.73-5-2.57-10.38-2.62-15.23c0.48-0.41,0.91-0.87,1.32-1.36c0.01,2.47,0.47,4.79,1.55,7.14
						C86.48,431.74,89.14,434.11,89.94,436.97z M90.35,430c-0.87,0.69-2.56,0.07-3.6-0.24c-1.43-2.57-2.37-5.26-3.01-8.1
						c0-0.02-0.02-0.01-0.03-0.02c1.28-1.58,2.21-3.52,2.93-5.39c0.41-0.42,1.28-0.3,2.16-0.03c-0.09,0.01-0.18,0.05-0.2,0.16
						c-0.26,1.53-0.25,3.16,0.05,4.76c0.34,1.27,0.81,3.25,1.69,4.87C91.09,427.35,91.73,428.91,90.35,430z M90.65,424.07
						c-0.18-0.36-0.39-0.7-0.53-1.07c-0.64-1.71-1.14-4.32-1-6.53c0-0.07-0.02-0.13-0.06-0.17c0.89,0.31,1.74,0.74,2.09,0.94
						c0.34,0.19,0.66,0.4,0.96,0.62c-0.03,1.02,0.44,1.93,0.64,2.94C92.98,421.88,92.37,425,90.65,424.07z"/>
				</g>
				<g>
					<path class="st108" d="M269.84,277.63c2.65-5.38-12.69-25.04-15.07-28.27c-6.13-8.29-14.78-15.45-23.55-20.64
						c-7.94-4.7-17.86-10.6-27.4-11.08c-0.69-1.26-1.39-2.53-2.09-3.74c-1.44-2.48-4.46-6.31-7.65-7.06
						c-0.49,0.15-0.97,0.31-1.46,0.45c-1.15,0.33-2.3,0.62-3.47,0.88c-0.01-0.1-0.01-0.19-0.02-0.29c-0.09-0.65-1.02-0.43-1.06,0.15
						c-0.01,0.13-0.01,0.26-0.02,0.38c-4.38,0.91-8.86,1.33-13.39,1.18c-6.01-0.2-12.3-1.14-18.43-2.86
						c-0.01-0.09-0.02-0.19-0.03-0.28c-0.02-0.12-0.22-0.12-0.23,0c-0.01,0.06-0.01,0.12-0.02,0.19c-1.26-0.36-2.51-0.76-3.76-1.19
						c0.28-0.24,0.1-0.71-0.29-0.63c-0.28,0.06-0.54,0.16-0.81,0.24c-5.15,1.45-8.63,5.76-11.54,10.16
						c-0.49,0.74-1.02,1.56-1.56,2.45c-10.21-0.46-21.1,6.03-29.68,11.1c-8.77,5.19-17.42,12.35-23.55,20.64
						c-2.38,3.23-17.72,22.88-15.07,28.27c0.08,0.17,0.18,0.33,0.3,0.47c0.03,0.11,0.06,0.22,0.1,0.32
						c-1.03,3.67-1.52,7.41-0.97,11.23c0,0.01,0,0.02,0,0.03c-0.4-0.3-0.9,0.06-0.86,0.47c0.01,0.11,0.05,0.22,0.15,0.32
						c9.07,9.1,23.22,13.71,35.48,15.83c-1.03,6.1,1.43,52.48,2.29,55.68c0.92,3.46,2.2,8.39,4.82,10.93
						c0.15,0.15,0.34,0.15,0.49,0.06c13.95,6.8,29.95,10.11,45.3,11.34c0.03,0,0.05-0.01,0.07-0.01c0.13,0.24,0.49,0.16,0.52-0.13
						l0.15-3.31c3.29,0.4,6.67-0.22,9.96-0.52c3.71-0.35,7.31-0.01,11,0.49h0c0.76,2.23,0.92,0.02,1.07,2.9l0.31-0.44
						c0.05,0.02,0.08,0.06,0.14,0.06c15.74,0.18,34.01-3.11,48.15-10.59c0.4,0.29,0.94,0.34,1.34-0.18
						c7.72-10.03,6.64-24.07,5.83-36.61c-0.03-0.07-0.06-0.13-0.07-0.23c-0.09-1.36-0.14-2.72-0.21-4.08
						c-0.02-0.05-0.05-0.08-0.05-0.15c-0.39-3.15-0.45-9.92-0.32-10.12c-0.23-2.86-0.35-8.95-0.26-9.11
						c-0.27-1.88-0.57-3.74-0.64-5.63c-0.02-0.54,0.59-1.13,1.16-1.37c-0.01-0.01-0.01-0.04-0.02-0.05
						c-0.15-0.11,2.59-0.77,12.57-3.4c4.97-1.31,17.23-4.99,23.63-11.42c0.1-0.1,0.14-0.21,0.15-0.32c0.05-0.06,0.09-0.13,0.1-0.22
						C272.09,285.86,271.5,281.39,269.84,277.63z M86.14,249.5c-3.07,4.04-18.88,23.53-15.25,28.53c0.09,0.13,0.05,0.27-0.03,0.38
						c0.68,1,1.59,1.96,2.64,2.85c-1.05-0.9-1.96-1.85-2.64-2.85c0.08-0.11,0.12-0.25,0.03-0.38
						C67.26,273.03,83.07,253.54,86.14,249.5c2.09-2.74,4.43-5.28,6.95-7.67C90.57,244.21,88.23,246.76,86.14,249.5z M132.86,378.85
						c6.02,1.53,12.16,2.76,18.33,3.55C145.02,381.61,138.88,380.38,132.86,378.85z M231.02,365.6c0.78-1.78,1.4-3.67,1.88-5.65
						C232.42,361.93,231.8,363.82,231.02,365.6z"/>
					<path class="st108" d="M156.26,382.59c-0.08-0.19-0.13-0.29-0.17-0.34C156.12,382.3,156.18,382.4,156.26,382.59
						C156.26,382.59,156.26,382.59,156.26,382.59z"/>
					<path class="st108" d="M178.64,380.88c-0.04-0.01-0.08-0.01-0.12-0.01C178.56,380.87,178.6,380.87,178.64,380.88
						c0.08,0.01,0.15,0,0.21-0.03C178.79,380.88,178.72,380.89,178.64,380.88z"/>
					<path class="st108" d="M179,380.31c-0.04-0.12-0.11-0.23-0.25-0.27C178.88,380.08,178.95,380.19,179,380.31
						c0.02,0.07,0.03,0.14,0.03,0.21C179.03,380.44,179.02,380.37,179,380.31z"/>
					<path class="st108" d="M192.16,206.78c-0.15,0.03-0.12,0.24,0,0.29c0.16,0.06,0.3,0.15,0.46,0.22c0.49-0.14,0.97-0.3,1.46-0.45
						C193.45,206.69,192.8,206.65,192.16,206.78z"/>
				</g>
				<path class="st108" d="M234.6,304c0.18,0.35,0.24,0.62,0.29,0.91c0.07-0.03,0.13-0.07,0.22-0.09
					c12.31-2.12,25.74-6.64,35.26-15.13c0.01-0.01,0.02-0.01,0.04-0.02c0-0.01,0-0.02,0-0.03c0.55-3.82,0.07-7.56-0.97-11.23
					c-1.13,3.55-6.98,6.34-9.52,7.97c-8.57,5.52-17.44,8.71-27.3,10.82c0.08,0.44,0.1,0.91,0.18,1.34c0.18,1.01,0.49,1.99,0.8,2.97
					C233.86,302.37,234.19,303.2,234.6,304z M266.4,285.13c0.05-0.67,0.82-0.88,1.18-0.33c0.5,0.73,0.79,1.99,0.44,2.81
					c-0.1,0.23-0.4,0.21-0.55,0.07C266.87,287.15,266.34,285.96,266.4,285.13z M261.35,288.02c0.05-0.15,0.21-0.22,0.34-0.14
					c0.85,0.5,1.89,2.73,1.23,3.6c-0.11,0.15-0.29,0.28-0.48,0.2C261.38,291.29,261.05,289.02,261.35,288.02z M255.74,292.13
					c-0.1-0.43,0.36-0.86,0.75-0.59c0.77,0.51,1.65,2.66,0.72,3.38c-0.38,0.29-0.74-0.08-0.91-0.42c-0.18-0.35-0.18-0.78-0.23-1.17
					C256.02,292.91,255.84,292.53,255.74,292.13z M249.47,294.44c0.2-0.21,0.55-0.11,0.63,0.17c0.21,0.75,0.49,1.58,0.58,2.36
					c0.06,0.6-0.74,0.83-1.11,0.46C248.8,296.67,248.68,295.23,249.47,294.44z M241.32,297.29c0.12-0.42,0.79-0.59,0.98-0.13
					c0.3,0.69,1.62,2.76,0.25,3.15C241.22,300.68,241.09,298.05,241.32,297.29z"/>
				<path class="st108" d="M201.54,217.62c10.21-0.46,21.1,6.03,29.68,11.1c8.77,5.19,17.42,12.35,23.55,20.64
					c2.38,3.23,17.72,22.88,15.07,28.27c-0.05-0.11-0.09-0.23-0.15-0.35c-0.14-0.3-0.61-0.09-0.52,0.22c0,0,0,0,0,0.01
					c-0.15,0.29-0.32,0.57-0.5,0.85c-0.08-0.11-0.12-0.25-0.03-0.38c3.62-5-12.18-24.49-15.25-28.53
					c-5.56-7.29-12.98-13.26-20.48-18.29c-8.44-5.66-20.27-12.54-30.69-12.39"/>
				<path class="st108" d="M259.92,286.39c-8.57,5.52-17.44,8.71-27.3,10.82c-0.04-0.23-0.09-0.46-0.18-0.68
					c-0.09-0.23-0.31-0.4-0.54-0.46c0.08-0.08,0.18-0.16,0.32-0.19c7.13-1.54,13.81-3.49,20.36-6.86
					c4.54-2.34,12.86-5.91,16.09-10.67c0.1,0.14,0.29,0.22,0.45,0.11c0.1-0.07,0.18-0.16,0.26-0.24c0.02,0.06,0.04,0.12,0.05,0.19
					C268.31,281.97,262.45,284.76,259.92,286.39z"/>
				<path class="st108" d="M269.12,278.47c-0.16,0.11-0.34,0.03-0.45-0.11c0.19-0.28,0.35-0.56,0.5-0.85
					c0.07,0.24,0.14,0.48,0.21,0.72C269.3,278.31,269.22,278.4,269.12,278.47z"/>
				<path class="st108" d="M269.54,278.1c0.05-0.22,0.09-0.44,0.1-0.67c0.01-0.19-0.26-0.26-0.35-0.1
					c-0.03,0.06-0.07,0.12-0.11,0.18c0,0,0,0,0-0.01c-0.1-0.31,0.38-0.52,0.52-0.22c0.05,0.11,0.09,0.23,0.15,0.35
					C269.75,277.8,269.66,277.96,269.54,278.1z"/>
				<path class="st108" d="M269.54,278.1c-0.03,0.11-0.06,0.22-0.1,0.32c-0.02-0.06-0.04-0.12-0.05-0.19
					C269.43,278.19,269.49,278.15,269.54,278.1z"/>
				<path class="st108" d="M269.18,277.51c0.03-0.06,0.08-0.12,0.11-0.18c0.09-0.17,0.36-0.09,0.35,0.1
					c-0.01,0.23-0.05,0.45-0.1,0.67c-0.04,0.05-0.1,0.09-0.15,0.14C269.32,277.99,269.25,277.75,269.18,277.51z"/>
				<path class="st108" d="M235.2,305.8c-0.04,0.1-0.08,0.25-0.12,0.44c-0.24-0.1-0.41-0.31-0.48-0.55
					c0.13,0.02,0.24,0.05,0.39,0.05c0.04,0,0.08-0.05,0.06-0.09c-0.08-0.28-0.11-0.52-0.16-0.75c0.07-0.03,0.13-0.07,0.22-0.09
					c12.31-2.12,25.74-6.64,35.26-15.13c0.01-0.01,0.02-0.01,0.04-0.02c-0.05,0.53,0.59,0.8,0.86,0.47
					c-0.01,0.11-0.05,0.22-0.15,0.32c-9.07,9.1-23.22,13.71-35.48,15.83c-0.04-0.21-0.07-0.37-0.12-0.49
					C235.45,305.65,235.26,305.65,235.2,305.8z"/>
				<path class="st108" d="M270.41,289.68c0.4-0.3,0.9,0.06,0.86,0.47C271,290.47,270.35,290.2,270.41,289.68z"/>
				<path class="st108" d="M232.2,302.37c-0.62-1.55-1.69-4.36-0.91-6c0.14-0.29,0.38-0.36,0.62-0.3c-0.38,0.41-0.03,1.3,0.68,1.14
					c0.01,0,0.02-0.01,0.03-0.01c0.08,0.44,0.1,0.91,0.18,1.34c0.18,1.01,0.49,1.99,0.8,2.97c0.27,0.85,0.6,1.68,1.01,2.48
					c0.18,0.35,0.24,0.62,0.29,0.91c-0.3,0.16-0.38,0.49-0.29,0.79C233.19,305.46,232.7,303.65,232.2,302.37z"/>
				<path class="st108" d="M232.44,296.53c0.09,0.22,0.14,0.45,0.18,0.68c-0.01,0-0.02,0.01-0.03,0.01
					c-0.7,0.15-1.06-0.73-0.68-1.14C232.13,296.13,232.35,296.3,232.44,296.53z"/>
				<path class="st108" d="M234.9,304.91c0.04,0.23,0.08,0.47,0.16,0.75c0.01,0.04-0.02,0.09-0.06,0.09
					c-0.14,0.01-0.26-0.02-0.39-0.05C234.51,305.39,234.6,305.07,234.9,304.91z"/>
				<path class="st108" d="M229.04,244.03c-0.98,17.68,1.58,34.39,2.35,51.93c0.01,0.17-0.21,0.17-0.27,0.04
					c-2.59-6.43-2.31-14.9-2.82-21.74c-0.76-10.12-1.76-20.27,0.29-30.29C228.65,243.71,229.06,243.77,229.04,244.03z"/>
				<path class="st108" d="M261.7,287.88c0.85,0.5,1.89,2.73,1.23,3.6c-0.11,0.15-0.29,0.28-0.48,0.2c-1.07-0.39-1.4-2.67-1.09-3.66
					C261.4,287.87,261.56,287.8,261.7,287.88z"/>
				<path class="st108" d="M256.5,291.54c0.77,0.51,1.65,2.66,0.72,3.38c-0.38,0.29-0.74-0.08-0.91-0.42
					c-0.18-0.35-0.18-0.78-0.23-1.17c-0.06-0.41-0.24-0.79-0.33-1.19C255.65,291.71,256.1,291.27,256.5,291.54z"/>
				<path class="st108" d="M250.1,294.61c0.21,0.75,0.49,1.58,0.58,2.36c0.06,0.6-0.74,0.83-1.11,0.46c-0.76-0.76-0.88-2.2-0.1-2.99
					C249.67,294.24,250.02,294.34,250.1,294.61z"/>
				<path class="st108" d="M242.3,297.16c0.3,0.69,1.62,2.76,0.25,3.15c-1.33,0.37-1.46-2.26-1.23-3.02
					C241.44,296.87,242.1,296.7,242.3,297.16z"/>
				<path class="st108" d="M235.08,306.25c0.04-0.19,0.08-0.34,0.12-0.44c0.06-0.15,0.25-0.15,0.31,0c0.04,0.11,0.08,0.28,0.12,0.49
					c-0.04,0.01-0.08,0.01-0.11,0.02C235.35,306.34,235.21,306.3,235.08,306.25z"/>
				<path class="st108" d="M228.59,243.97c0.05-0.26,0.46-0.2,0.45,0.06c-0.98,17.68,1.58,34.39,2.35,51.93
					c0.01,0.17-0.21,0.17-0.27,0.04c-2.59-6.43-2.31-14.9-2.82-21.74C227.54,264.15,226.54,253.99,228.59,243.97z"/>
				<path class="st109" d="M228.97,248.05c0.12-0.6,1.11-0.46,1.06,0.14c-0.16,2.09-0.31,4.17-0.46,6.24
					c1.96,4.99,1.98,10.43,2.08,15.76c0.16,8.5,3.21,17.24,2.15,25.59c-0.11,0.91-1.3,0.92-1.78,2.57c-0.1,0.34-0.57,0.32-0.67,0
					c-0.5-1.56-0.46-3.28-0.6-4.91c-0.17-2.03-2.7-21.78-2.8-22.29C226.51,263.65,227.44,255.48,228.97,248.05z"/>
				<path class="st16" d="M201.15,217.9c10.34-0.67,21.42,5.94,30.12,11.09c8.77,5.19,17.42,12.35,23.55,20.64
					c2.53,3.43,19.7,25.42,14.36,29.11c-0.28,0.19-0.69-0.2-0.48-0.49l0,0c3.62-5-12.18-24.49-15.25-28.53
					c-5.56-7.29-12.98-13.26-20.48-18.29c-8.74-5.86-21.14-13.06-31.82-12.37"/>
				<g>
					<path class="st16" d="M269.69,277.69c-0.21,4.03-6.95,7.18-9.72,8.97c-8.58,5.53-17.46,8.72-27.34,10.82
						c-0.85,0.18-1.21-1.15-0.36-1.33c7.13-1.54,13.81-3.49,20.36-6.86c4.86-2.5,14.06-6.42,16.7-11.7
						C269.43,277.43,269.7,277.5,269.69,277.69L269.69,277.69z"/>
				</g>
				<g>
					<path class="st16" d="M271.12,290.4c-9.09,9.13-23.31,13.73-35.6,15.85c-0.95,0.16-1.36-1.33-0.4-1.49
						c12.31-2.12,25.74-6.64,35.26-15.13C270.89,289.18,271.61,289.9,271.12,290.4L271.12,290.4z"/>
				</g>
				<g>
					<path class="st16" d="M235.04,306.01c-1.73,0.07-2.24-1.98-2.79-3.37c-0.62-1.55-1.69-4.36-0.91-6
						c0.26-0.56,0.97-0.31,1.16,0.16c0.25,0.63,0.23,1.36,0.35,2.02c0.18,1.01,0.49,1.99,0.8,2.97c0.27,0.85,0.6,1.68,1.01,2.48
						c0.33,0.63,0.27,1.03,0.45,1.66C235.12,305.97,235.08,306.01,235.04,306.01L235.04,306.01z"/>
				</g>
				<g>
					<path class="st16" d="M231.17,296.27c-2.59-6.43-2.31-14.9-2.82-21.74c-0.76-10.12-1.76-20.27,0.29-30.29
						c0.05-0.26,0.46-0.2,0.45,0.06c-0.98,17.68,1.58,34.39,2.35,51.93C231.45,296.4,231.23,296.4,231.17,296.27L231.17,296.27z"/>
				</g>
				<g>
					<path class="st16" d="M261.75,288.14c0.85,0.5,1.89,2.73,1.23,3.6c-0.11,0.15-0.29,0.28-0.48,0.2
						c-1.07-0.39-1.4-2.67-1.09-3.66C261.45,288.14,261.62,288.06,261.75,288.14L261.75,288.14z"/>
				</g>
				<g>
					<path class="st16" d="M256.55,291.81c0.77,0.51,1.65,2.66,0.72,3.38c-0.38,0.29-0.74-0.08-0.91-0.42
						c-0.18-0.35-0.18-0.78-0.23-1.17c-0.06-0.41-0.24-0.79-0.33-1.19C255.7,291.97,256.16,291.54,256.55,291.81L256.55,291.81z"/>
				</g>
				<g>
					<path class="st16" d="M250.15,294.88c0.21,0.75,0.49,1.58,0.58,2.36c0.06,0.6-0.74,0.83-1.11,0.46
						c-0.76-0.76-0.88-2.2-0.1-2.99C249.72,294.5,250.07,294.6,250.15,294.88L250.15,294.88z"/>
				</g>
				<g>
					<path class="st16" d="M242.35,297.42c0.3,0.69,1.62,2.76,0.25,3.15c-1.33,0.37-1.46-2.26-1.23-3.02
						C241.49,297.14,242.15,296.96,242.35,297.42L242.35,297.42z"/>
				</g>
				<g>
					<path class="st16" d="M267.81,288.37c-0.85-0.5-1.89-2.73-1.23-3.6c0.11-0.15,0.29-0.28,0.48-0.2c1.07,0.39,1.4,2.67,1.09,3.66
						C268.11,288.38,267.95,288.45,267.81,288.37L267.81,288.37z"/>
				</g>
				<path class="st16" d="M270.44,289.56c0-0.01,0-0.02,0-0.03c0.55-3.82,0.07-7.56-0.97-11.23c0.04-0.11,0.07-0.21,0.1-0.32
					c0.12-0.14,0.22-0.3,0.3-0.47c1.67,3.76,2.26,8.23,1.53,12.29c-0.02,0.1-0.06,0.17-0.1,0.22
					C271.33,289.62,270.83,289.25,270.44,289.56z"/>
				<g>
					<path class="st110" d="M110.58,378.91c0.09,1.13,0.32,2.15,0.6,3.23c0.03,0.13,0.06,0.24,0.08,0.34
						c14.62,4.13,30.71,10.68,46.1,10.73c-0.41-2.73-0.72-6.38-0.6-9.15c-15.21-1.23-31.41-4.34-45.26-11.04
						C111.22,374.81,110.42,377,110.58,378.91z"/>
					<path class="st3" d="M167.53,380.04c-3.27,0.3-6.75,1.07-10.03,0.68c-0.26,2.38-0.39,5.56-0.23,8
						c0.16,2.55,0.73,5.19,0.64,7.75c3.93,0.36,8.07,1.83,12.03,1.7c3.36-0.1,7.22-1.49,10.55-1.7c-0.15-2.35-0.06-4.87-0.18-7.24
						c-0.15-2.89-0.48-5.69-1.29-8.34C175.35,380.39,171.24,379.68,167.53,380.04z M173.67,384.52c0.02,0.06,0.02,0.12,0.02,0.18
						c0,0.02,0.02,0.03,0.03,0.05c0.31,2.56,1.05,5.72-0.11,8.16c0.16,0.15-0.51-0.02-0.7,0.11c-1.54,1.03-3.09,0.04-4.88-0.05
						c-1.32-0.07-4.77,0.7-5.58-0.62c-0.02-0.04-0.35-2.31-0.32-3.29c0.05-1.45,0.28-2.39,0.37-3.83c0.03-0.45,1.21-0.95,1.48-0.76
						c1.12-1.07,2.55-0.74,3.69-0.78C168.63,383.66,173.29,383.13,173.67,384.52z"/>
					<path class="st110" d="M229.95,376.18c-0.27-1.19-0.96-2.89-1.79-3.87c-13.95,7.4-32.55,11.16-48.15,11.08
						c0.31,1.39,0.6,3.36,0.67,4.31c0.11,1.74,0.18,3.52,0.17,5.3c15.98-0.74,34.42-4.2,48.93-11.06
						C229.73,380.22,230.35,377.92,229.95,376.18z"/>
					<path class="st110" d="M162.5,385.22c0,0,10.34-1.77,10.83-0.68c0.5,1.09,0.67,8.1,0.67,8.1h-11.29L162.5,385.22z"/>
				</g>
				<path class="st105" d="M155.26,223.4c0,0,8.27,4.67,16.85,26.61c0,0,5.23-17.56,16.57-25.74"/>
				<path class="st109" d="M177.43,319.01c-12.05-10.68-22.47-22.56-21.94-38.95c0.16-4.96,0.68-9.95,1.71-14.81
					c0.91-4.27,2.77-8.72,2.94-13.1c0.35-9.18-1.76-17.94-3.3-26.92c-0.02-0.12-0.02-0.24-0.03-0.36c-2.28-1.63-4.77-2.27-7.95-1.1
					c-1.72,0.63-6.96,1.98-8.06,3.74c-0.36,0.58-1.2,0.58-1.56,0c-0.04-0.07-0.08-0.13-0.13-0.2c-0.33-0.53-0.07-1.09,0.38-1.43
					c3.96-3.04,10.94-6.93,16.35-5.61c-0.12-0.36-0.2-0.75-0.19-1.19c0.05-1.44,0.23-2.84,0.49-4.23c0.02-0.88,0.01-1.76,0.07-2.65
					c0.04-0.57,0.21-1.08,0.48-1.53c-0.07-0.21-0.14-0.42-0.17-0.65c-0.05-0.07-0.09-0.14-0.13-0.21c-0.77-1.25-0.8-2.43-0.37-3.4
					c-0.02,0.01-0.06,0.02-0.06,0.05c-0.01,0.06-0.01,0.12-0.02,0.19c-1.26-0.36-2.51-0.76-3.76-1.19c0.28-0.24,0.1-0.71-0.29-0.63
					c-0.28,0.06-0.54,0.16-0.81,0.24c-5.15,1.45-8.63,5.76-11.54,10.16c-0.49,0.74-1.02,1.56-1.56,2.45
					c-10.21-0.46-21.1,6.03-29.68,11.1c-8.77,5.19-17.42,12.35-23.55,20.64c-2.38,3.23-17.72,22.88-15.07,28.27
					c-1.67,3.76-2.26,8.23-1.53,12.29c0.02,0.1,0.06,0.17,0.1,0.22c0.01,0.11,0.05,0.22,0.15,0.32
					c6.41,6.43,15.35,10.61,24.38,13.26c-3.09-1.26-7.82-3.37-9.53-4.5c-0.33-0.07-0.65-0.16-0.98-0.28l0,0
					c-0.21,0.16-0.59,0.14-0.8,0c-0.01-0.01-0.03-0.02-0.04-0.03c-0.18-0.11-0.3-0.28-0.35-0.47c-1.07-0.5-2.09-1.09-2.95-1.45
					c-0.47-0.2-0.48-1.05,0.13-0.99c1.62,0.15,3.01,0.99,4.6,1.23c0.82,0.12,1.68,0.17,2.28,0.61c3.17,0.77,6.21,2.01,9.53,2.35
					c2.65,0.27,5.76,0.38,8.39,1.19c0.44-0.03,0.87-0.06,1.3-0.03c0.05,0,0.09,0.03,0.13,0.04c0.58,0.01,1.15,0.02,1.73,0.03
					c1.5,0.02,1.5,2.33,0,2.32c-0.24,0-0.49-0.03-0.74-0.04c-0.02,0.57-0.28,1.14-0.87,1.57c-0.61,0.45-1.38,0.66-2.22,0.73
					c0.5,0.09,1.01,0.19,1.5,0.28c-1.03,6.1,1.43,52.48,2.29,55.68c0.92,3.46,2.2,8.39,4.82,10.93c0.15,0.15,0.34,0.15,0.49,0.06
					c13.95,6.8,29.95,10.11,45.3,11.34c0.03,0,0.05-0.01,0.07-0.01c0.13,0.24,0.49,0.16,0.52-0.13l0.15-3.31
					c3.29,0.4,6.67-0.21,9.96-0.52c3.71-0.35,8.12-1.87,11,0.49c0.09,0.08,0.02,0.32,0.11,0.3c0.49-0.13,0.03-1.04-0.16-1.51
					c-0.25-0.62-0.77-1.1-1.01-1.76c-0.7-1.98-0.21-4.2-0.21-6.44c0.01-4.29-0.02-9.1,0.49-13.9c0.12-1.09,0-2.19,0.08-3.27
					c0.32-4.5,1.19-8.54,2.91-12.73c0.89-2.17,1.68-4.19,1.75-6.24C182.58,331.4,182.45,323.45,177.43,319.01z M111.58,271.19
					c-0.1,0.51-0.88,0.38-0.89-0.12c-0.03-4.26-0.22-8.44-0.48-12.63c-0.8,5.14-0.64,10.53-0.65,15.66
					c-0.01,3.02-0.41,5.97-0.89,8.9c0.23,0.01,0.45,0.16,0.47,0.45c0.06,1.2-0.02,2.4-0.16,3.6c0.11,0.02,0.22,0.12,0.23,0.26
					c0.19,2.04-0.26,4.15-0.44,6.18c-0.14,1.63-0.1,3.35-0.6,4.91c-0.1,0.32-0.57,0.34-0.67,0c-0.25-0.89-0.27-1.81-0.2-2.73
					c-0.03,0.01-0.07,0.02-0.1,0.03c0,0.05,0,0.09,0,0.14c0.01,0.98-1.36,0.91-1.47,0c-1.06-8.35,1.99-17.1,2.15-25.59
					c0.1-5.33,0.12-10.77,2.08-15.76c-0.14-2.07-0.3-4.15-0.46-6.24c-0.05-0.61,0.94-0.74,1.06-0.14
					C112.09,255.53,113.02,263.69,111.58,271.19z"/>
				<path class="st105" d="M188.46,224.18l0.22-16.42c0,0-13.72,3.06-32.52-1.04c0,0-0.07,11.69-0.87,16.86"/>
				<path class="st111" d="M202.83,220.75c-0.76-1.2-1.5-2.43-2.16-3.68c-0.26-0.49-0.55-0.96-0.78-1.47
					c-0.13-0.28-0.5-1.05-0.49-0.64c0-0.36-0.46-0.57-0.72-0.3c-1.29,1.38,0.09,3.58,0.79,5.01c0.71,1.45,2.31,5.34,4.31,5.34
					C205.85,225.01,203.14,221.24,202.83,220.75z"/>
				<path class="st111" d="M224.72,263.93c0.06-2.86-0.02-5.73-0.34-8.57c-0.27-2.36-1.16-8.58-4.78-8.13
					c-0.5,0.06-0.75,0.68-0.27,0.98c3.52,2.22,3,7.85,3.06,11.53c0.04,2.2-1.07,7.18,0.65,8.92c0.24,0.24,0.71,0.28,0.95,0
					C225,267.49,224.7,265.36,224.72,263.93z"/>
				<path class="st111" d="M230,311.81c-0.2-4.98-0.78-10.26-3.64-14.45c-0.39-0.57-1.48-0.22-1.19,0.5
					c1.93,4.87,1.9,10.05,1.86,15.21c-0.04,5.49,0.24,10.96,0.38,16.44c0.22,8.08,0.59,17.32-1.97,25c-0.36,1.07,0.9,1.87,1.8,1.38
					c3.04-1.64,3.01-6.37,3.16-9.36c0.24-5.12,0.3-10.36,0.29-15.47C230.68,324.65,230.25,318.21,230,311.81z"/>
				<path class="st112" d="M226.1,375.2c-0.87-0.63-1.9,0.6-1.4,1.4l-0.01,0c0.31,0.68,0.76,1.25,1.01,1.97
					c0.27,0.79,0.24,1.63,0.47,2.43c0.29,0.98,1.88,1.1,2.1,0C228.67,379.07,227.72,376.37,226.1,375.2z"/>
				<path class="st109" d="M184.17,227.93c-1.13,1.55-2.14,3.18-3.13,4.81c3.66-1.42,7.93-2.52,11.52-1.41
					c2.46-0.16,4.9-0.13,7.24,0.24c1.56,0.25,4.71,1.24,7.73,1.89c0.34-0.18,0.69-0.32,1.03-0.48c-0.74-0.25-1.45-0.74-2.04-1.56
					c-0.15-0.01-0.3,0-0.46-0.02c-1.61-0.14-2.85-1.08-3.51-2.29c-0.45-0.45-0.92-1-1.39-1.62c-2.63-1.7-4.87-4.23-6.35-6.73
					c-0.67-1.13-0.76-2.27-0.48-3.28c-0.82-2.45-0.47-5.07,1.17-7.62c0.21-0.71,0.54-1.35,0.97-1.92c-0.77-0.52-1.57-0.91-2.38-1.1
					c-0.64-0.15-1.28-0.19-1.92-0.06c-0.15,0.03-0.12,0.24,0,0.29c0.16,0.06,0.3,0.15,0.46,0.22c-1.15,0.33-2.3,0.62-3.47,0.88
					c-0.01-0.1-0.01-0.19-0.02-0.29c-0.04-0.32-0.3-0.43-0.54-0.39c0.05,0.27,0.09,0.55,0.08,0.85c-0.03,1.19-0.05,2.38-0.07,3.58
					c-0.02,0.91-0.25,1.65-0.64,2.24c0.07,0.96,0.06,1.93-0.05,2.99c-0.05,0.46-0.16,0.86-0.31,1.23c0.37,1.94,0.59,3.92,0.74,5.92
					C188.53,226.8,186.26,228.1,184.17,227.93z"/>
				<path class="st109" d="M235.77,343.99c-1.26,4.14-1.41,9.29-2.68,12.57c-2.6,6.7-7.16,11.99-12.68,16.47
					c-5.54,4.49-12.44,6.87-19.37,8.14c-2.15,0.4-4.41,0.9-6.68,1.36c-0.01,0.03-0.02,0.06-0.03,0.09
					c11.77-1.35,23.82-4.52,33.82-9.81c0.4,0.29,0.94,0.34,1.34-0.18C235.6,364.68,236.2,354.22,235.77,343.99z"/>
				<path class="st109" d="M227.65,327.39c-0.25,0-0.25-0.39,0-0.39C227.9,327,227.9,327.39,227.65,327.39z"/>
				<path class="st113" d="M110.58,378.91c0.09,1.13,0.32,2.15,0.6,3.23c0.03,0.13,0.06,0.24,0.08,0.34
					c14.62,4.13,30.71,10.68,46.1,10.73c-0.41-2.73-0.72-6.38-0.6-9.15c-15.21-1.23-31.41-4.34-45.26-11.04
					C111.22,374.81,110.42,377,110.58,378.91z"/>
				<path class="st113" d="M162.5,385.22c0,0,10.34-1.77,10.83-0.68c0.5,1.09,0.67,8.1,0.67,8.1h-11.29L162.5,385.22z"/>
				<path class="st106" d="M180.85,212.66c1.09-1.47,2.37-2.22,3.72-2.42c0.62-0.47,1.22-0.97,1.8-1.5c0.35-0.32,0.72-0.57,1.1-0.77
					c-3.7,0.62-15.75,2.13-31.31-1.26c0,0-0.05,8.37-0.55,14.08C163.93,218.21,173.2,216.92,180.85,212.66z"/>
				<path class="st106" d="M173.16,239.68c-2.36-0.59-3.89-2.02-4.71-3.75c-1.39-0.61-2.72-1.19-3.97-1.67
					c2.36,3.85,4.98,8.95,7.63,15.74c0,0,1.41-4.7,4.33-10.37C175.48,239.93,174.39,239.98,173.16,239.68z"/>
				<path class="st114" d="M156.09,206.96"/>
				<g>
					<path class="st115" d="M158.5,250.8c1.35,0.8,3.92-0.14,3.71-1.96c-0.1-0.84-0.61-1.73-1.32-2.17
						c-0.43-0.27-0.9-0.36-1.37-0.49C158.02,246.3,157.13,249.99,158.5,250.8z"/>
					<path class="st115" d="M156.5,233.5c-1.72-1.6-5.5,3.81-2.11,4.59c1.68,0.39,3.73-0.02,3.65-2.2
						c-0.03-0.83-0.33-1.68-0.94-2.25c-0.11-0.1-0.22-0.16-0.33-0.23C156.75,233.52,156.61,233.6,156.5,233.5z"/>
					<path class="st115" d="M159.09,245.28c0.39-0.09,0.78,0,1.15,0.36c0.04-0.03,0.08-0.05,0.15-0.07c0.09-0.02,0.19,0.01,0.24,0.1
						c0.04,0.07,0.07,0.14,0.1,0.22c0.07,0.17-0.16,0.25-0.27,0.16c0.03,0.02,0.05,0.05,0.07,0.07c-0.05,0.19-0.26,0.27-0.43,0.18
						c-0.2-0.1-0.39-0.13-0.57-0.12c0.47,0.13,0.95,0.22,1.37,0.49c0.72,0.44,1.23,1.33,1.32,2.17c0.21,1.82-2.36,2.76-3.71,1.96
						c-1.38-0.81-0.49-4.5,1.02-4.63c-0.21-0.06-0.41-0.12-0.61-0.21c-0.18-0.08-0.18-0.35-0.06-0.48
						C158.93,245.4,159.01,245.34,159.09,245.28c-0.83,0.21-1.62,1.2-1.95,1.98c-0.67,1.57-0.73,3.86,1.01,4.73
						c2.14,1.06,5.25-0.44,5.3-2.96C163.49,247.27,160.93,243.83,159.09,245.28z"/>
					<path class="st115" d="M158.91,245.96c0.2,0.09,0.41,0.15,0.61,0.21c0.18-0.01,0.37,0.01,0.57,0.12
						c0.17,0.09,0.37,0.01,0.43-0.18c-0.02-0.02-0.05-0.05-0.07-0.07c0.11,0.09,0.34,0.01,0.27-0.16c-0.03-0.08-0.06-0.14-0.1-0.22
						c-0.05-0.08-0.15-0.12-0.24-0.1c-0.07,0.02-0.11,0.05-0.15,0.07c0.07,0.06,0.14,0.1,0.21,0.19c-0.14,0-0.27,0-0.41,0
						c0.09-0.09,0.14-0.14,0.21-0.19c-0.37-0.35-0.77-0.45-1.15-0.36c-0.08,0.06-0.16,0.12-0.24,0.21
						C158.73,245.62,158.73,245.88,158.91,245.96z"/>
					<path class="st115" d="M160.03,245.82c0.14,0,0.28,0,0.41,0c-0.07-0.08-0.14-0.12-0.21-0.19
						C160.18,245.68,160.12,245.73,160.03,245.82z"/>
					<path class="st115" d="M158.85,236.28c0.14-1.9-1.77-4.87-3.91-3.99c-0.14,0.06-0.15,0.19-0.09,0.3
						c0.77-0.27,1.5-0.13,1.9,0.71c0.02,0.04,0.02,0.07,0.01,0.1c0.11,0.07,0.22,0.14,0.33,0.23c0.62,0.57,0.91,1.42,0.94,2.25
						c0.08,2.18-1.97,2.59-3.65,2.2c-3.39-0.78,0.39-6.19,2.11-4.59c0.11,0.1,0.25,0.02,0.27-0.1c-0.56-0.36-1.17-0.44-1.82-0.68
						c-0.06-0.02-0.07-0.08-0.09-0.13c-2.24,0.79-4.87,5.11-1.18,6.45C155.95,239.87,158.65,239.02,158.85,236.28z"/>
					<path class="st115" d="M156.76,233.4c0-0.03,0-0.06-0.01-0.1c-0.4-0.84-1.13-0.99-1.9-0.71c0.02,0.05,0.03,0.11,0.09,0.13
						C155.59,232.96,156.2,233.04,156.76,233.4z"/>
				</g>
				<g>
					<path class="st16" d="M155.92,206.72c-0.43,2.78-0.44,5.63-0.64,8.44c-0.21,2.86-0.72,5.73-0.79,8.59
						c-0.01,0.44,0.63,0.52,0.74,0.1c1.35-5.23,1.71-11.8,0.92-17.13C156.14,206.6,155.94,206.6,155.92,206.72L155.92,206.72z"/>
				</g>
				<g>
					<path class="st16" d="M154.49,223.79c4.64,4.19,8.34,7.88,11.44,13.51c2.91,5.29,4.05,10.64,5.58,16.36
						c0.11,0.42,0.82,0.48,0.88,0c0.74-5.57-2.94-12.26-5.42-16.99c-2.41-4.58-6.85-12.21-12.43-13
						C154.49,223.67,154.43,223.74,154.49,223.79L154.49,223.79z"/>
				</g>
				<g>
					<path class="st16" d="M172.08,253.61c4.59-10.34,6.91-21.63,16.84-28.37c0.75-0.51,0.05-1.75-0.71-1.24
						c-8.47,5.76-16.37,18.96-16.4,29.53C171.81,253.68,172.02,253.75,172.08,253.61L172.08,253.61z"/>
				</g>
				<g>
					<path class="st16" d="M188.03,208.3c-0.2,2.86-0.21,5.75-0.34,8.62c-0.12,2.5-0.48,5.47,0.44,7.83c0.15,0.39,0.78,0.5,0.88,0
						c0.51-2.49,0.12-5.28,0.17-7.83c0.06-2.91,0.29-5.88-0.09-8.77C189,207.5,188.07,207.72,188.03,208.3L188.03,208.3z"/>
				</g>
				<g>
					<path class="st16" d="M132.68,232.67c7.47-2.95,13.81-7.44,22.07-8c0.8-0.06,0.79-1.2,0-1.27c-4.77-0.44-9.1,1.63-13.31,3.68
						c-3.02,1.47-6.94,2.42-8.96,5.32C132.4,232.53,132.54,232.73,132.68,232.67L132.68,232.67z"/>
				</g>
				<g>
					<path class="st16" d="M132.64,232.48c0.64,0,1.99-4.5,2.12-4.85c1.16-3.1,2.48-5.96,4.19-8.77c1.65-2.72,3.45-5.31,5.56-7.69
						c2.18-2.47,5.06-3.56,7.62-5.43c0.32-0.23,0.13-0.74-0.27-0.65c-5.61,1.19-9.29,5.77-12.36,10.4
						c-2.88,4.35-7.22,11.78-7.16,17.16c0,0.21,0.31,0.21,0.31,0c0-0.05,0-0.1,0-0.15C132.65,232.49,132.64,232.48,132.64,232.48
						L132.64,232.48z"/>
				</g>
				<g>
					<path class="st16" d="M188.44,224.65c3.18,1.02,6.39,1.86,9.52,3.07c3.54,1.37,6.31,3.31,9.43,5.41
						c0.57,0.38,1.02-0.42,0.67-0.89c-4.13-5.41-13.17-7.76-19.49-8.54C188.02,223.64,187.95,224.49,188.44,224.65L188.44,224.65z"
						/>
				</g>
				<g>
					<path class="st16" d="M204.61,219.39c-0.93-1.78-1.95-3.53-2.93-5.22c-1.72-2.97-5.72-7.91-9.57-7.12
						c-0.15,0.03-0.12,0.24,0,0.29c9.32,3.73,13.76,16.14,15.12,25.43c0.08,0.54,0.83,0.35,0.87-0.12c0.3-3.88-0.79-7.51-2.38-10.97
						C205.22,220.97,204.85,220.2,204.61,219.39z"/>
				</g>
				<g>
					<path class="st16" d="M160.72,245.88c-0.03-0.08-0.06-0.14-0.1-0.22c-0.05-0.08-0.15-0.12-0.24-0.1
						c-0.17,0.05-0.21,0.11-0.35,0.26c0.14,0,0.28,0,0.41,0c-1.21-1.52-2.79,0.23-3.31,1.44c-0.67,1.57-0.73,3.86,1.01,4.73
						c2.14,1.06,5.25-0.44,5.3-2.96c0.04-1.83-2.75-5.53-4.6-3.55c-0.12,0.13-0.12,0.4,0.06,0.48c0.65,0.29,1.37,0.32,1.99,0.7
						c0.72,0.44,1.23,1.33,1.32,2.17c0.21,1.82-2.36,2.76-3.71,1.96c-1.55-0.91-0.24-5.46,1.59-4.51c0.17,0.09,0.37,0.01,0.43-0.18
						c-0.02-0.02-0.05-0.05-0.07-0.07C160.56,246.13,160.79,246.05,160.72,245.88L160.72,245.88z"/>
				</g>
				<g>
					<path class="st16" d="M156.75,233.3c-1.57-3.28-8.05,3.93-3.09,5.74c2.29,0.83,4.99-0.02,5.19-2.76
						c0.14-1.9-1.77-4.87-3.91-3.99c-0.2,0.08-0.21,0.35,0,0.43c0.78,0.29,1.5,0.32,2.15,0.92c0.62,0.57,0.91,1.42,0.94,2.25
						c0.08,2.18-1.97,2.59-3.65,2.2c-3.39-0.78,0.39-6.19,2.11-4.59C156.64,233.63,156.83,233.47,156.75,233.3L156.75,233.3z"/>
				</g>
				<g>
					<path class="st16" d="M70.84,278.29c-3.62-5,12.18-24.49,15.25-28.53c5.56-7.29,12.98-13.26,20.48-18.29
						c8.74-5.86,21.14-13.06,31.82-12.37c0.73,0.05,0.72-1.11,0-1.16c-10.34-0.67-21.42,5.94-30.12,11.09
						c-8.77,5.19-17.42,12.35-23.55,20.64c-2.53,3.43-19.7,25.42-14.36,29.11C70.64,278.98,71.05,278.58,70.84,278.29L70.84,278.29z
						"/>
				</g>
				<g>
					<path class="st16" d="M69.84,277.74c0.21,4.03,6.95,7.18,9.72,8.97c8.58,5.53,17.46,8.72,27.34,10.82
						c0.85,0.18,1.21-1.15,0.36-1.33c-7.13-1.54-13.81-3.49-20.36-6.86c-4.86-2.5-14.06-6.42-16.7-11.7
						C70.11,277.47,69.83,277.54,69.84,277.74L69.84,277.74z"/>
				</g>
				<g>
					<path class="st16" d="M104.49,306.05c1.73,0.07,2.24-1.98,2.79-3.37c0.62-1.55,1.69-4.36,0.91-6
						c-0.26-0.56-0.97-0.31-1.16,0.16c-0.25,0.63-0.23,1.36-0.35,2.02c-0.18,1.01-0.49,1.99-0.8,2.97c-0.27,0.85-0.6,1.68-1.01,2.48
						c-0.33,0.63-0.27,1.03-0.45,1.66C104.41,306.01,104.45,306.05,104.49,306.05L104.49,306.05z"/>
				</g>
				<g>
					<path class="st16" d="M108.36,296.31c2.59-6.43,2.31-14.9,2.82-21.74c0.76-10.12,1.76-20.27-0.29-30.29
						c-0.05-0.26-0.46-0.2-0.45,0.06c0.98,17.68-1.58,34.39-2.35,51.93C108.08,296.44,108.3,296.45,108.36,296.31L108.36,296.31z"/>
				</g>
				<g>
					<path class="st16" d="M77.78,288.19c-0.85,0.5-1.89,2.73-1.23,3.6c0.11,0.15,0.29,0.28,0.48,0.2c1.07-0.39,1.4-2.67,1.09-3.66
						C78.08,288.18,77.92,288.1,77.78,288.19L77.78,288.19z"/>
				</g>
				<g>
					<path class="st16" d="M82.98,291.85c-0.77,0.51-1.65,2.66-0.72,3.38c0.38,0.29,0.74-0.08,0.91-0.42
						c0.18-0.35,0.18-0.78,0.23-1.17c0.06-0.41,0.24-0.79,0.33-1.19C83.83,292.02,83.38,291.58,82.98,291.85L82.98,291.85z"/>
				</g>
				<g>
					<path class="st16" d="M89.38,294.92c-0.21,0.75-0.49,1.58-0.58,2.36c-0.06,0.6,0.74,0.83,1.11,0.46
						c0.76-0.76,0.88-2.2,0.1-2.99C89.81,294.55,89.46,294.64,89.38,294.92L89.38,294.92z"/>
				</g>
				<g>
					<path class="st16" d="M97.18,297.47c-0.3,0.69-1.62,2.76-0.25,3.15c1.33,0.37,1.46-2.26,1.23-3.02
						C98.04,297.18,97.38,297.01,97.18,297.47L97.18,297.47z"/>
				</g>
				<g>
					<path class="st16" d="M229.86,280.9c1.05,13.47,2.39,26.77,2.97,40.29c0.64,15.03,4.82,37.59-5.03,50.01
						c-0.94,1.17,0.72,2.87,1.64,1.68c8.74-11.36,6.19-27.88,5.53-41.51c-0.79-16.14,0.82-35.14-4.58-50.54
						C230.3,280.55,229.84,280.57,229.86,280.9L229.86,280.9z"/>
				</g>
				<g>
					<path class="st16" d="M222.84,236.43c5.08,12.9,4.55,26.07,7.38,39.45c0.05,0.24-0.39-13.79-1.32-20.63
						c-0.71-5.17-1.07-15.66-5.88-18.96C222.93,236.23,222.8,236.33,222.84,236.43L222.84,236.43z"/>
				</g>
				<path class="st16" d="M156.74,383.3c-9.16-0.78-18.37-2.59-27.24-5.03c-5.88-1.62-11.76-4.64-17.78-5.59
					c0.2-0.45,0.3-0.96,0.19-1.33c-0.91-2.9-2.66-5.42-3.72-8.28c-0.49-1.31-0.87-2.65-1.24-3.99c-0.39-2.24-0.96-4.46-1.2-6.68
					c-0.71-6.66-0.3-13.56-0.54-20.19c-0.32-8.62-0.38-17.36-1.27-25.94c0.02,0,0.04,0.01,0.06,0.01c0.95,0.16,1.36-1.33,0.4-1.49
					c-12.31-2.12-25.74-6.64-35.26-15.13c-0.51-0.45-1.23,0.27-0.74,0.77c8.89,8.93,22.68,13.51,34.78,15.69
					c-0.27,0.23-0.5,0.58-0.5,0.82c0.01,8.33,0.65,16.68,0.86,25.01c0.2,8.11-0.52,16.76,0.78,24.77c0.01,0.08,0.06,0.11,0.07,0.16
					c0.34,2.37,1.07,5.02,1.92,7.39c0.38,1.07,0.86,2.09,1.36,3.1c0.53,1.49,1.16,2.94,1.96,4.16c0.22,0.52,0.44,1.04,0.61,1.58
					c0.02,0.08,0.06,0.11,0.09,0.17c-0.79,1.36-0.77,3.47-0.75,4.86c0.02,1.24,0.03,4.7,1.57,5.04c0.15,0.03,0.32-0.02,0.39-0.17
					c0.22-0.43,0.19-0.63,0.06-1.11c-0.28-1.08-0.51-2.1-0.6-3.23c-0.15-1.9,0.37-3.53,0.65-5.33c13.9,6.73,29.82,10.02,45.09,11.24
					C157.56,384.67,157.55,383.38,156.74,383.3z"/>
				<g>
					<path class="st16" d="M179.95,383.65c16.05,0.19,34.75-3.23,49.01-11.04c0.75-0.41,0.08-1.57-0.67-1.16
						c-14.19,7.77-32.53,10.59-48.34,11.26C179.36,382.74,179.36,383.64,179.95,383.65L179.95,383.65z"/>
				</g>
				<g>
					<path class="st16" d="M228.02,372.37c0.14,1.43,1.1,2.65,1.42,4.06c0.44,1.88-0.37,3.68-0.19,5.54
						c0.05,0.44,0.61,0.67,0.85,0.24c1.46-2.6,1.11-8.37-1.65-10.08C228.27,372.02,228,372.14,228.02,372.37L228.02,372.37z"/>
				</g>
				<g>
					<path class="st16" d="M180.81,393.86c7.88,0.8,16.21-1.62,23.94-3.04c8.73-1.6,17.46-3.88,25.24-8.36
						c0.65-0.36,0.08-1.31-0.57-0.99c-14.69,6.98-32.44,10.65-48.6,11.34C180.14,392.84,180.16,393.79,180.81,393.86L180.81,393.86z
						"/>
				</g>
				<g>
					<g>
						<path class="st16" d="M180.73,393.88c7.91,0.8,16.26-1.62,24.01-3.05c8.76-1.6,17.51-3.89,25.31-8.38
							c0.65-0.36,0.08-1.31-0.57-0.99c-14.73,7-32.53,10.68-48.75,11.37C180.06,392.86,180.08,393.81,180.73,393.88L180.73,393.88z"
							/>
					</g>
				</g>
				<g>
					<path class="st16" d="M71.72,288.42c0.85-0.5,1.89-2.73,1.23-3.6c-0.11-0.15-0.29-0.28-0.48-0.2c-1.07,0.39-1.4,2.67-1.09,3.66
						C71.42,288.42,71.59,288.5,71.72,288.42L71.72,288.42z"/>
				</g>
				<path class="st16" d="M69.1,289.6c0-0.01,0-0.02,0-0.03c-0.55-3.82-0.07-7.56,0.97-11.23c-0.04-0.11-0.07-0.21-0.1-0.32
					c-0.12-0.14-0.22-0.3-0.3-0.47c-1.67,3.76-2.26,8.23-1.53,12.29c0.02,0.1,0.06,0.17,0.1,0.22C68.2,289.66,68.7,289.3,69.1,289.6
					z"/>
				<g>
					<path class="st16" d="M110.53,382.58c16.25,6.19,37.16,11.64,55.09,11.64c1.01,0,1.01-1.35,0-1.35
						c-18.65,0-37.12-6.76-54.8-10.9C110.41,381.88,110.12,382.43,110.53,382.58L110.53,382.58z"/>
				</g>
				<path class="st3" d="M167.53,380.04c-3.27,0.3-6.75,1.07-10.03,0.68c-0.26,2.38-0.39,5.56-0.23,8c0.16,2.55,0.73,5.19,0.64,7.75
					c3.93,0.36,8.07,1.83,12.03,1.7c3.36-0.1,7.22-1.49,10.55-1.7c-0.15-2.35-0.06-4.87-0.18-7.24c-0.15-2.89-0.48-5.69-1.29-8.34
					C175.35,380.39,171.24,379.68,167.53,380.04z M173.67,384.52c0.02,0.06,0.02,0.12,0.02,0.18c0,0.02,0.02,0.03,0.03,0.05
					c0.31,2.56,1.05,5.72-0.11,8.16c0.16,0.15-0.51-0.02-0.7,0.11c-1.54,1.03-3.09,0.04-4.88-0.05c-1.32-0.07-4.77,0.7-5.58-0.62
					c-0.02-0.04-0.35-2.31-0.32-3.29c0.05-1.45,0.28-2.39,0.37-3.83c0.03-0.45,1.21-0.95,1.48-0.76c1.12-1.07,2.55-0.74,3.69-0.78
					C168.63,383.66,173.29,383.13,173.67,384.52z"/>
				<g>
					<path class="st16" d="M156.88,380.72c-0.61,5.08-0.58,11.19,0.9,16.12c0.1,0.33,0.53,0.24,0.56-0.07
						c0.19-2.71-0.46-5.53-0.64-8.25c-0.17-2.59,0.05-5.21-0.2-7.8C157.46,380.3,156.93,380.31,156.88,380.72L156.88,380.72z"/>
				</g>
				<g>
					<path class="st16" d="M157.62,380.26c-0.09,0-0.18,0-0.26,0.03c-0.48,0.18-0.37,0.82,0.12,0.87c3.29,0.4,6.67-0.22,9.96-0.52
						c3.76-0.36,7.41,0,11.15,0.5c0.48,0.06,0.55-0.71,0.11-0.84C171.75,378.22,164.23,380.04,157.62,380.26L157.62,380.26z"/>
				</g>
				<g>
					<path class="st16" d="M178.32,380.79c0.85,2.8,1.6,5.12,1.76,8.14c0.13,2.46-0.19,4.95,0,7.39c0.05,0.68,0.96,0.67,1.02,0
						c0.28-2.89,0.18-5.93-0.01-8.83c-0.13-1.91-0.31-6.11-2.37-7C178.52,380.4,178.24,380.53,178.32,380.79L178.32,380.79z"/>
				</g>
				<g>
					<path class="st16" d="M162.4,392.51c0.81,1.32,3.61,1.05,4.93,1.13c1.79,0.08,5.13,0.61,6.67-0.42c0.21-0.14,0.21-0.44,0-0.57
						c-1.47-0.97-4.29-0.31-5.99-0.33c-1.09-0.01-2.2-0.03-3.29-0.09c-0.83-0.05-1.55-0.34-2.28,0.13
						C162.39,392.38,162.36,392.45,162.4,392.51L162.4,392.51z"/>
				</g>
				<g>
					<path class="st16" d="M162.72,385.51c0.98,0.01,1.96-0.38,2.94-0.49c1.47-0.17,2.97-0.2,4.44-0.19c0.57,0,4.36,0.88,3.99-0.52
						c-0.37-1.39-5.04-0.86-5.99-0.84c-1.34,0.05-5.16,0-5.61,1.75C162.46,385.36,162.57,385.51,162.72,385.51L162.72,385.51z"/>
				</g>
				<path class="st116" d="M179.29,384.8c-0.26-1.05-0.5-2.44-1.23-3.28c-0.14-0.16-0.33-0.19-0.53-0.18
					c-0.37-0.26-0.88-0.34-1.32-0.4c-1.13-0.14-2.27-0.07-3.39-0.24c-0.54-0.08-0.79,0.69-0.23,0.84c0.88,0.25,1.76,0.29,2.67,0.35
					c0.5,0.03,1.06,0.21,1.6,0.29c0.11,0.91,0.51,1.83,0.74,2.72c0.31,1.21,0.39,2.51,0.81,3.68c0.21,0.59,1.14,0.7,1.3,0
					C179.97,387.34,179.6,386,179.29,384.8z"/>
				<g>
					<path class="st16" d="M158.1,397.53c6.37,1.91,16.64,2.56,22.68-0.67c0.26-0.14,0.14-0.58-0.15-0.57
						c-3.51,0.16-6.96,0.95-10.49,1.05c-4.01,0.13-7.93-0.46-11.91-0.82C157.66,396.47,157.58,397.37,158.1,397.53L158.1,397.53z"/>
				</g>
				<g>
					<path class="st16" d="M162.76,392.49c0.19-1.03-0.07-2.15,0-3.21c0.09-1.45,0.26-2.89,0.34-4.34c0.04-0.64-0.93-0.63-0.97,0
						c-0.09,1.45-0.3,2.89-0.35,4.34c-0.04,1.04-0.04,2.52,0.73,3.29C162.58,392.63,162.73,392.61,162.76,392.49L162.76,392.49z"/>
				</g>
				<g>
					<path class="st16" d="M173.91,392.98c1.36-2.47,0.55-5.78,0.23-8.44c-0.06-0.51-0.84-0.54-0.81,0c0.07,1.41,0.33,2.8,0.47,4.19
						c0.14,1.4-0.02,2.8-0.04,4.19C173.76,393.02,173.87,393.04,173.91,392.98L173.91,392.98z"/>
				</g>
				<path class="st117" d="M269.22,316.45c-0.61-5.76-0.96-12.19-3.49-17.47c-0.22-0.46-0.5,0.17-0.49,0.41
					c0.27,6.06,1.65,12.08,2.27,18.13c0.57,5.6,0.53,11.43,1.69,16.94c0.25,1.19,1.23,0.27,1.26-0.53
					C270.66,328.13,269.83,322.2,269.22,316.45z"/>
				<path class="st117" d="M271.46,362.43c-0.02-0.21-0.24-0.17-0.29,0c-3.2,10.52-4.46,22.35-6.48,33.18
					c-0.34,1.83,1.32,2.15,1.8,0.38C269.31,385.66,272.3,373.22,271.46,362.43z"/>
				<path class="st117" d="M266.87,413.73c-1.01,1.07-2.19,3.64-1.04,4.97c0.13,0.15,0.25,0.2,0.38,0.21c0,0.11,0,0.23-0.01,0.34
					c-0.06,1.31,1.23,1.12,1.43-0.02c0.27-1.53,0.41-3.13,0.39-4.69C268.01,413.91,267.54,413.02,266.87,413.73z"/>
				<path class="st117" d="M258.31,437.74c-0.11,0.79-0.52,1.22-1.12,1.73c-0.39,0.33-0.64,2.21,0.26,1.92
					c1.55-0.51,2.29-2.13,2.4-3.66C259.94,436.33,258.48,436.5,258.31,437.74z"/>
			</g>
			<g>
				<path class="st118" d="M102.9,105.41c0,0,1.12-73.81,46.38-75.29c0,0,27.55,5.78,56.02-3.29c0,0,12.92-3.56,20.24,4.86
					c4.4,5.06,12.33,10.55,17.66,26.63c3.54,10.66,5.72,25.9,5.76,49.06l-11.22,19.25l-125.97-6.72L102.9,105.41z"/>
				<path class="st119" d="M115.51,119.08c0.82-2.2,1.76-4.25,2.99-6.32c0.5-1.87,1.05-3.73,1.64-5.59
					c0.38-3.15,0.54-6.34,0.75-9.58c-0.32-1.9-0.69-3.79-1-5.71c-0.32-1.99,0.56-3.48,1.86-4.19c0.12-0.37,0.24-0.74,0.36-1.11
					c0.01-0.02,0.02-0.03,0.02-0.05c0.01-0.2,0.01-0.39,0.02-0.6c0.01-0.12,0.03-0.23,0.05-0.34c-0.72-3.02-1.18-6.1-1.41-9.27
					c-0.12-0.24-0.26-0.48-0.38-0.73c-0.51-1.1-0.93-2.19-1.25-3.28c-1.18-1.2-2.46-2.33-3.55-3.62c-1.59-1.89-3.19-4.11-4.35-6.45
					c-8.03,20.47-8.76,43.46-8.76,43.46l9.25,14.22l3.13,0.17C115.11,119.75,115.3,119.41,115.51,119.08z"/>
				<path class="st105" d="M256.8,119.64c-0.5-4.66-6.52-14.33-12.01-11.3c-0.16,0.09-0.08,0.33,0.09,0.33
					c0.07,0,0.13,0.02,0.2,0.02c-3.42,2.28-4.27,6.55-5.72,10.39c-0.18-0.62-0.89-1.31-1.04-1.89c-0.47-1.81-1.33-7.42-1.42-9.24
					c0-0.02-0.02-0.03-0.03-0.04c0.03-0.08,0.04-0.17,0.02-0.28c-1.26-5.23-2.31-10.4-3.02-15.74c-0.57-4.28-0.38-8.88-1.16-13.1
					c1.55-16.7-20.4-14.9-32.2-12.5c-6.14,0.48-12.13,1.76-18.31,1.53c-6-0.22-11.86-2.03-17.81-2.74
					c-9.22-1.1-19.83-2.45-28.56,1.48c-0.04,0.02-0.07,0.05-0.08,0.09c-5.21,1.66-9.52,5.61-12.06,10.68
					c-4.15,8.29-2.94,17.59-5.16,26.08c-0.38,1.43-0.73,4.56-0.54,4.39c0.01,0.03-0.02,1.28-0.44,0.69c0,0-0.9,5.21-1.41,7.09
					c-0.61,2.25-2.57,4.92-2.57,4.92c0.21-2.28-0.68-5.3-1.25-7.15c-0.75-2.45-1.84-5.11-4.02-6.47c-0.05-0.03-0.15-0.1-0.26-0.17
					c0.02-0.02,0.04-0.05,0.03-0.05c-2.44-2.45-6.72,0.03-9.05,1.73c-3.49,2.54-4.14,7.06-4.33,11.22
					c-0.37,8.37,5.9,16.55,14.31,14.21c0.09-0.02,0.71-0.12,0.78-0.16c-0.04-0.51,0.03-0.74,0-1.25c-0.08,0.03-0.15,0.04-0.23,0.07
					c0.4-1.83,0.19-6.84,0.06-9.86c0.28,3.14,0.54,6.35,0.81,9.58c-0.19,0.06-0.39,0.13-0.64,0.21c0.1,0.05,0.36,0,0.65-0.08
					c1.41,16.96,3.25,34.73,12.21,49.19c11.26,18.17,33.71,28.45,54.5,27.32c20.08-1.1,40.82-11.75,52.17-29.24
					c0.85-1.32,1.65-2.69,2.43-4.09c4.45-6.5,7.26-13.9,9.48-21.55c1.47-5.09,2.3-11.24,3.08-17.24c0.01-0.11,0.05-0.22,0.07-0.33
					C252.63,135.2,257.69,127.9,256.8,119.64z M244.52,130.76c-0.01,0.43-0.02,0.87-0.04,1.3
					C243.96,131.89,243.96,130.99,244.52,130.76z M107.66,107.2c-0.02,0.09-0.04,0.16-0.06,0.17
					C107.64,107.33,107.65,107.26,107.66,107.2z M242.84,126.85c-0.02-0.58,0.42-0.81,0.83-0.73c-0.05,3.45-0.28,6.96-0.68,10.48
					c-0.05,0.13-0.07,0.27-0.05,0.41c-0.34,2.86-0.78,5.74-1.36,8.58C242.59,139.24,243.02,132.88,242.84,126.85z"/>
				<path class="st117" d="M231.44,162.94l-0.03,0.03c-0.14-0.49-0.53-0.86-1.24-0.86c-2.16,0-2.96,4.05-3.52,5.57
					c-3.45,9.41-8.76,15.52-17.42,20.54c-1.49,0.86-0.47,3.54,1.2,2.85c7.22-2.97,12.67-8.69,16.41-15.42
					c1.26-2.27,2.08-4.67,2.96-7.1C230.39,166.92,231.9,164.71,231.44,162.94z"/>
				<path class="st117" d="M247.46,110.73c-0.41-0.17-0.87,0.42-0.6,0.78c1.85,2.44,4.49,4,5.01,7.28c0.17,1.07,2.03,0.82,1.89-0.26
					C253.36,115.36,250.42,111.92,247.46,110.73z"/>
				<path class="st117" d="M229.7,78.37c-0.29-1.71-1.47-3.22-2.78-4.28c-1.32-1.08-2.91-1.75-4.48-2.37
					c-1.08-0.43-2.97-1.44-4.1-0.96c-0.12,0.05-0.26,0.16-0.24,0.32c0.25,1.92,4.2,2.87,5.68,3.73c1.37,0.8,2.63,1.9,3.21,3.41
					c0.57,1.5-0.11,3.28,0.93,4.56c0.17,0.21,0.49,0.2,0.71,0.09C230.22,82.05,229.96,79.86,229.7,78.37z"/>
				<path class="st117" d="M182.13,134.81c-1.35-2.24-4.43-4.52-7.12-4.59c-0.9-0.02-1.03,1.09-0.42,1.55
					c0.95,0.71,2.09,1.18,3.07,1.88c1.03,0.74,1.82,1.63,2.64,2.58C181.17,137.24,182.8,135.93,182.13,134.81z"/>
				<path class="st120" d="M235.6,47.87c-1.98-5.7-6.51-9.85-11.68-12.71c-4.63-2.56-11.92-4.81-17.14-3.04
					c-0.75,0.25-0.94,1.58,0,1.72c5.25,0.75,9.86,0.7,14.82,3.04c5.34,2.52,9.08,6.76,11.44,12.08
					C233.69,50.4,236.12,49.36,235.6,47.87z"/>
				<path class="st120" d="M244.47,86.4c-0.21-1.9-0.07-3.91-0.51-5.76c-0.04-0.17-0.32-0.23-0.4-0.05
					c-0.76,1.75-0.36,3.96-0.2,5.81c0.22,2.52,0.58,5.12,1.81,7.36c0.15,0.27,0.52,0.08,0.47-0.2
					C245.19,91.19,244.74,88.81,244.47,86.4z"/>
				<path class="st106" d="M115.8,116.65c3.29,1.7,7.02,3.74,8.31,5.01c2.68,2.65,4.82,3.01,4.82,3.01
					c0.87-2.98,5.21-6.32,5.24-6.34c-0.14,0.01-0.11,0.01,0.03-0.02c4.64-2.27,12.76,6.3,15.21,2.73
					c1.21-0.21,15.39,3.72,15.08,5.68c0.57-0.48-0.09-2.52,0.67-2.93c3.42-1.86,8.05-2.92,11.95-3.23
					c4.46-0.36,10.28,1.35,14.68,1.71c0.41-0.35,16.83-5.12,22.38-5.24c1.15-0.17,13.22,4.9,14.87,5.89
					c0.54-0.37,5.23-3.89,9.06-6.62l-0.81-4.78c-3.91,1.29-8.16,2.17-12.28,2.44c-4.02,0.26-15.03-1.68-19.05-1.59
					c-2.2,0.05-12.77,4.01-16.28,3.89c-5.34-0.19-9.55-1.99-14.85-1.6c-3.76,2.4-38.28,0.74-43.02,0.28
					c-3.72-0.36-9.85-1.11-14.92-2.91L115.8,116.65z"/>
				<path class="st106" d="M198.12,203.66c-11.25,1.68-23.38,0.91-34.14-2.98c-14.12-5.11-33.99-15.62-38.07-31.3
					c-1.56-2.61-2.81-5.4-4.03-8.3c-1.84-2.82-3.36-5.83-4.51-8.47c-2.28-5.23-4.11-10.47-4.01-16.07
					c-0.17-0.46-0.36-0.92-0.51-1.39c-0.97-0.83-1.79-1.84-2.44-2.97c0,0.01,0,0.01,0,0.02c-0.19,0.06-0.39,0.13-0.64,0.21
					c0.1,0.05,0.36,0,0.65-0.08c1.41,16.96,3.25,34.73,12.21,49.19c11.26,18.17,33.71,28.45,54.5,27.32
					c7.85-0.43,15.78-2.35,23.23-5.54C199.59,203.43,198.84,203.55,198.12,203.66z"/>
				<path class="st106" d="M227.06,139.77c-0.44,0.13-10.6,2.01-14.12,1.47c-1.19-0.18-18.07-1.11-18.53-0.73
					c-0.15,0.12-1.89-2.92-4.44-1.48c0.88,1.47,1.12,4.24,4.24,5.75c10.47,2.96,20.1,1.6,29.88-0.69
					C226.49,143.14,226.96,140.36,227.06,139.77z"/>
				<path class="st106" d="M162.66,139.37c-0.44,0.13-10.6,2.01-14.12,1.47c-1.19-0.18-18.07-1.11-18.53-0.73
					c-0.15,0.12-1.89-2.92-4.44-1.48c0.88,1.47,1.12,4.24,4.24,5.75c10.47,2.96,20.1,1.6,29.88-0.69
					C162.09,142.74,162.56,139.96,162.66,139.37z"/>
				<path class="st106" d="M243.16,134.77c0.32,0.94,0.65,1.87,1.01,2.8c0.04-0.29,0.08-0.57,0.11-0.86
					c0.01-0.11,0.05-0.22,0.06-0.33c6.49-0.93,10.98-5.61,12.21-11.56c-2.89,1.31-5.97,2.14-9.51,2.24
					c-1.26,0.03-2.38-0.22-3.38-0.67C243.62,129.15,243.43,131.96,243.16,134.77z M244.52,130.76c-0.01,0.43-0.02,0.87-0.04,1.3
					C243.96,131.89,243.96,130.99,244.52,130.76z"/>
				<path class="st106" d="M109.77,132.41c-0.08,0.03-0.15,0.04-0.23,0.07c0.24-1.08,0.26-3.27,0.21-5.51
					c-1.47-1.02-3.02-1.89-4.57-2.79c0.05-0.19,0.02-0.39-0.14-0.56c-0.91-0.91-1.15-2.54-1.25-3.75c-0.05-0.59-0.07-1.18-0.07-1.77
					c0-0.23-0.22-1-0.2-0.84c-0.01-0.17-0.1-0.29-0.25-0.36c-0.03-0.13-0.1-0.25-0.26-0.27c-0.04-0.01-0.07,0-0.11,0
					c-0.01,0-0.02-0.02-0.03-0.02c-0.01,0-0.02,0.01-0.03,0.01c-1.57-0.13-2.1,1.19-2.12,2.67c-0.01,0.55,0.11,1.4,0.37,2.2
					c-2.29-1.7-4.3-3.55-6.02-5.71c-0.21,1.26-0.32,2.55-0.38,3.81c-0.37,8.37,5.9,16.55,14.31,14.21c0.09-0.02,0.71-0.12,0.78-0.16
					C109.74,133.16,109.81,132.92,109.77,132.41z"/>
				<path class="st106" d="M250.33,117.42c-0.18-0.56-1.13-0.5-1.08,0.15c0.01,0.14,0.02,0.28,0.03,0.42
					c-0.05-0.03-0.09-0.06-0.14-0.07c-0.15-0.25-0.33-0.46-0.57-0.59c-0.15-0.08-0.3-0.03-0.39,0.1c-0.33,0.47-0.32,1.16-0.29,1.82
					c0,0.35,0.02,0.7,0,1c-0.01,0.17-0.02,0.33-0.02,0.5c-0.21,1.1-0.95,2.02-0.89,3.16c0.01,0.24,0.21,0.37,0.43,0.33
					c0.38-0.06,0.69-0.23,0.95-0.46c0.03,0.09,0.03,0.19,0.09,0.27c0.07,0.12,0.19,0.15,0.32,0.13c0.8-0.13,1.14-0.93,1.23-1.9
					c0.28,0.06,0.59-0.05,0.7-0.41C251.16,120.43,250.77,118.8,250.33,117.42z"/>
				<g>
					<path class="st16" d="M131.76,109.75c1.45-0.13,2.72-1.22,3.95-1.95c1.72-1.03,3.34-2.26,5.06-3.26
						c0.72-0.41,0.17-1.47-0.57-1.29c-2.15,0.54-3.91,1.16-5.77,2.45c-1.21,0.84-2.7,2.04-3.08,3.53
						C131.3,109.49,131.5,109.77,131.76,109.75L131.76,109.75z"/>
				</g>
				<g>
					<path class="st16" d="M224.7,109.11c-0.27-1.53-1.72-2.84-2.86-3.76c-1.77-1.41-3.48-2.14-5.58-2.83
						c-0.74-0.24-1.28,0.81-0.62,1.26c1.66,1.12,3.23,2.44,4.85,3.62c1.15,0.84,2.36,1.96,3.79,2.2
						C224.55,109.65,224.74,109.35,224.7,109.11L224.7,109.11z"/>
				</g>
				<g>
					<path class="st16" d="M109.1,121.79c0.92,21.27,2.56,43.52,13.86,62.03c10.62,17.38,32.58,25.39,51.66,26.04
						c20.52,0.7,40.06-10.26,53.3-25.78c6.28-7.36,9.78-16.26,12.47-25.51c2.76-9.52,5.25-22.27,3.98-32.22
						c-0.13-0.97-1.57-1.04-1.53,0c0.51,17.62-3.64,37.69-13.2,52.42c-11.35,17.49-32.09,28.14-52.17,29.24
						c-20.79,1.14-43.24-9.15-54.5-27.32c-10.69-17.26-11.24-39.23-13.03-58.91C109.89,121.25,109.08,121.23,109.1,121.79
						L109.1,121.79z"/>
				</g>
				<g>
					<path class="st16" d="M107.97,106.17c-4.05-1.98-6.29-0.31-8.62,1.39c-3.49,2.54-4.88,7.04-5.06,11.2
						c-0.37,8.37,6.16,18.22,15.25,15.12c1.03-0.35,0.59-2.04-0.45-1.68c-7.12,2.47-11.76-3.35-13.2-9.75
						c-1.49-6.6,3.16-19.04,11.68-15.53C107.79,107.02,108.13,106.33,107.97,106.17L107.97,106.17z"/>
				</g>
				<g>
					<path class="st16" d="M102.43,115.45c-2.59,1.88-2.39,7.98,1.27,8.34c0.22,0.02,0.27-0.26,0.16-0.4
						c-1.13-1.42-2.59-2.72-2.04-4.79c0.24-0.89,1.27-2.12,0.84-3.08C102.63,115.44,102.5,115.4,102.43,115.45L102.43,115.45z"/>
				</g>
				<g>
					<path class="st16" d="M245.21,107.85c6,0.29,10.09,6.69,10.61,12.43c0.71,7.91-5.55,13.01-12.08,15.08
						c-0.69,0.22-0.61,1.43,0.18,1.36c8.69-0.81,14.13-9.41,13.21-17.9c-0.5-4.66-6.52-14.33-12.01-11.3
						C244.96,107.6,245.04,107.84,245.21,107.85L245.21,107.85z"/>
				</g>
				<g>
					<path class="st16" d="M249.39,117.15c0.26,1.07,0.68,1.94,0.75,3.09c0.07,1.32-0.53,2.29-0.72,3.52
						c-0.06,0.36,0.31,0.79,0.67,0.53c1.84-1.31,1.78-6.35-0.15-7.58C249.65,116.53,249.31,116.83,249.39,117.15L249.39,117.15z"/>
				</g>
				<g>
					<path class="st16" d="M177.06,128.75c4.8,1.14,8.55,3.43,9.08,9.04c0.53,5.61-5.28,8.54-9.06,11
						c-0.66,0.43-0.22,1.36,0.51,1.23c5.77-0.99,10.53-7.46,9.77-13.37c-0.65-5-5.5-8.92-10.3-8.15
						C176.93,128.53,176.94,128.72,177.06,128.75L177.06,128.75z"/>
				</g>
				<g>
					<path class="st16" d="M113.66,120.74c2.36-2.8,3.32-6.35,3.57-9.98c0.04-0.51-0.75-0.51-0.78,0c-0.17,3.44-1.08,6.94-3.07,9.77
						C113.27,120.69,113.53,120.89,113.66,120.74L113.66,120.74z"/>
				</g>
				<g>
					<path class="st16" d="M117.45,109.86c2.5-4.17,2.79-17.07,3.76-23.1c1.59-9.99,8.71-18.28,18.1-21.04
						c0.3-0.09,0.26-0.6-0.07-0.57c-6.88,0.71-11.61,5.64-15.23,11.35c-5.88,9.27-4.88,29.24-7.17,32.97
						c-0.19,0.31,0.01,0.71,0.22,0.39H117.45z"/>
				</g>
				<g>
					<path class="st16" d="M136.27,66.04c21.76-5.23,43.1,6.16,64.79-0.03c0.3-0.09,0.25-0.59-0.08-0.57
						c-6.2,0.47-12.23,1.77-18.48,1.55c-6-0.22-11.86-2.03-17.81-2.74c-9.22-1.1-19.83-2.45-28.56,1.48
						C135.97,65.82,136.1,66.08,136.27,66.04L136.27,66.04z"/>
				</g>
				<g>
					<path class="st16" d="M198.54,66.1c5.99,0.38,12.07-0.96,18.08-0.96c9.81,0,14.74,4.26,15.68,14.27
						c0.03,0.29,0.47,0.4,0.53,0.07c3.28-19.58-23.06-16.16-34.31-13.53C198.45,65.98,198.47,66.1,198.54,66.1L198.54,66.1z"/>
				</g>
				<g>
					<path class="st16" d="M232.44,76.48c-0.47,10.4,1.96,24.89,4.39,34.99c0.15,0.62,1.08,0.36,0.93-0.26
						c-1.26-5.23-2.87-14.81-3.58-20.15c-0.64-4.79-0.32-10.01-1.49-14.62C232.66,76.29,232.45,76.33,232.44,76.48L232.44,76.48z"/>
				</g>
				<g>
					<path class="st16" d="M237.94,110.99c-0.79,1.12-0.6,2.75-0.41,4.04c0.2,1.44,0.49,3.76,1.49,4.86
						c0.11,0.12,0.36,0.07,0.38-0.1c0.15-1.13-0.47-2.34-0.76-3.43c-0.47-1.81-0.41-3.49-0.5-5.32
						C238.13,110.94,238,110.91,237.94,110.99L237.94,110.99z"/>
				</g>
				<g>
					<path class="st16" d="M102.9,105.89c-0.26-4.92,1.54-10.53,2.11-15.47c1.05-8.96,3.3-17.49,6.28-25.96
						c6.66-18.89,21.43-32.43,41.3-33.41c0.35-0.02,0.45-0.56,0.09-0.65c-15.36-3.79-30.53,10.65-37.88,22.94
						c-4.93,8.23-7.42,18.09-9.66,27.36c-1.39,5.73-1.5,11.8-2.41,17.61c-0.43,2.78-0.98,5.09-0.37,7.85
						C102.46,106.65,102.93,106.39,102.9,105.89L102.9,105.89z"/>
				</g>
				<g>
					<path class="st16" d="M142.4,31.29c13.56-0.13,26.95,2.6,40.49,1.09c5.89-0.66,11.65-2.38,17.39-3.8
						c9.61-2.39,16.5-1.79,25.26,3.12c0.27,0.15,0.55-0.21,0.33-0.43c-8.55-8.74-20.92-5.32-31.32-2.62
						c-9.23,2.4-18.4,3.47-27.91,2.88c-8.19-0.51-16.13-2.61-24.27-0.48C142.23,31.08,142.26,31.29,142.4,31.29L142.4,31.29z"/>
				</g>
				<g>
					<path class="st16" d="M218.46,27.57c13.68,9.43,22.87,20.23,26.47,37.15c2.95,13.94,2.72,28.48,2.85,42.66
						c0.01,0.78,1.19,0.78,1.19,0c-0.24-28.34,0.27-67.23-30.44-79.99C218.43,27.35,218.37,27.51,218.46,27.57L218.46,27.57z"/>
				</g>
				<g>
					<path class="st16" d="M210.25,155.21c1.04,0,1.04-1.65,0-1.65C209.22,153.56,209.22,155.21,210.25,155.21L210.25,155.21z"/>
				</g>
				<g class="st121">
					<path class="st122" d="M128.64,128.66c-0.48,0.01-0.95,0.05-1.42,0.1c-3.92-0.44-7.98,0.4-10.97,2.31
						c-1.08,0.69-1.85,1.87-2.19,3.19c-0.88,1.15-0.53,2.78,0.34,3.73c0.1,0.2,0.18,0.41,0.31,0.6c2.14,3.16,6,3.87,9.15,4.15
						c1.08,0.1,2.52,0.16,4.06,0.08c0.38,0.34,0.83,0.61,1.43,0.69c4.74,0.58,12.27-0.66,12.67-7.93
						C142.36,129.44,133.01,127.68,128.64,128.66z"/>
					<path class="st122" d="M239.24,134.35c-0.77-1.09-1.65-2.02-2.61-2.82c0.06,0.01,0.13,0,0.2,0.01
						c0.37,0.04,0.39-0.79,0.08-0.97c-4.56-2.74-9.99-3.13-14.76-1.85c-0.26,0.07-0.56,0.17-0.88,0.3
						c-2.16,0.71-4.16,1.83-5.82,3.32c-1.13,1.02-1.54,4.07-0.44,5.5c0.38,0.5,0.81,0.86,1.22,1.26c2.17,4.7,6.93,4.87,10.21,4.94
						c4.09,0.09,9.82-0.62,12.8-5.75C239.85,137.23,239.97,135.38,239.24,134.35z"/>
				</g>
				<g>
					<path class="st123" d="M196.1,139.84c4.88,1.25,8.15,2.5,13.14,2.31c6.18-0.24,12.46-1.85,18.27-5.45
						c0.08,0.17,0.35,0.12,0.36-0.07c0.39-6.5,0.13-22.12,0.05-22.17c-0.03-0.02-5.75-2.2-9.69-2.31
						c-6.42-0.18-15.69-0.24-21.9,1.62c-0.32-0.08-6.63,2.36-6.69,2.77c-0.3,1.89,0.71,16.61,2.77,18.92
						C192.17,135.66,195.72,139.74,196.1,139.84z"/>
					<path class="st124" d="M125.32,119.65c0,0-7.61-5.13-13.21-7.49l-2.05-3.22c1.95,0.23,6.86,2.29,14.02,5.54L125.32,119.65z"/>
					<path class="st16" d="M124.62,120.14c0,0-6.32-3.97-12.49-7.37c-1.16-0.64-0.47-1.31-0.47-1.31c3.76,1.88,9.71,4.9,12.84,6.78
						C126.85,121.89,124.62,120.14,124.62,120.14z"/>
					<path class="st16" d="M124.9,113.76c-3.06-1.49-10.52-4.19-15.31-5.79l0.47,0.98c4.28,1.7,11.68,4.85,14.69,6.43
						C124.75,114.82,124.79,114.28,124.9,113.76z"/>
					<path class="st124" d="M227.92,121.6c0,0,4.88-5.83,14.51-8.9c0.33-0.1,1.22-2.78,1.22-2.78c-1.98-0.16-7.33,1.96-14.48,5.21
						L227.92,121.6z"/>
					<path class="st16" d="M228.62,120.79c0,0,6.63-4.08,13.06-7.52l0.1-1.1c-3.46,1.66-9.69,4.72-13.04,6.73
						C226.39,122.53,228.62,120.79,228.62,120.79z"/>
					<path class="st16" d="M228.34,114.4c3.37-1.64,11.12-3.95,15.26-5.01l-0.29,0.95c-3.91,1.25-11.63,4.01-14.82,5.68
						C228.48,115.47,228.44,114.93,228.34,114.4z"/>
					<path class="st124" d="M167.22,119.91c0,0,8.61-5.07,20.32-0.21l4.05-3.56c0,0-0.93-2.8-11.57-2.98
						c-10.63-0.18-15.66,1.87-15.66,1.87L167.22,119.91z"/>
					<path class="st123" d="M162.37,135.3c2.06-2.31,3.06-17.03,2.77-18.92c-0.06-0.41-6.37-2.84-6.69-2.77
						c-6.21-1.86-15.48-1.79-21.9-1.62c-3.94,0.11-9.66,2.29-9.69,2.31c-0.08,0.05-0.34,15.66,0.05,22.17
						c0.01,0.19,0.28,0.24,0.36,0.07c5.82,3.6,12.09,5.21,18.27,5.45c4.98,0.19,8.26-1.06,13.14-2.31
						C159.05,139.59,162.6,135.51,162.37,135.3z"/>
					<path class="st124" d="M166.81,114.32c-2.93-5.73-36.46-5.85-42.74-2.91c0,0-2.69,23.95,2.95,28.44
						c5.64,4.48,18.83,4.36,24.47,3.97c5.64-0.38,9-1.28,11.31-3.2C165.1,138.7,169.53,119.66,166.81,114.32z M162.29,122.44
						c-0.48,4.15-1.02,8.12-1.79,12.24c-0.22,1.2-0.73,2.33-1.7,3.1c-0.66,0.53-1.38,0.75-2.17,0.99c-0.87,0.26-1.71,0.52-2.6,0.69
						c-0.96,0.19-0.72,0.17-1.69,0.31c-1,0.15-2.3,0.64-3.31,0.68c-2.2,0.09-3.38,0-5.58-0.19c-3.48-0.3-7.99-0.51-11.08-2.29
						c-2.58-1.49-3.25-4.67-3.61-7.42c-0.54-4.16-0.84-13.57,0.26-15.46c0.61-1.04,1.84-1.35,3.22-1.51
						c3.44-0.41,7.06-0.14,10.52-0.12c3.95,0.02,6.29,0.08,10.23,0.28c2.63,0.13,5.12,0.5,7.33,1.95l0,0c0,0,0.01,0.01,0.01,0.01
						c0.12,0.08,0.24,0.14,0.35,0.23c0.02,0.02,0.03,0.04,0.06,0.06c0.9,0.65,1.46,1.66,1.59,2.76
						C162.46,119.84,162.43,121.22,162.29,122.44z"/>
					<path class="st16" d="M167.9,120.55c0-0.86-1.11-0.66-1.14,0.22c-0.14,4.32-2.08,15.34-2.7,17.09
						c-0.31,0.88-0.83,1.56-1.39,2.29c-0.6,0.78-1.96,1.16-2.88,1.37c-1.01,0.24-5.65,1.6-10.48,1.98
						c-2.73,0.22-8.53-0.35-9.77-0.51c-2.46-0.32-5.18-0.82-7.58-1.48c-0.46-0.13-0.92-0.26-1.38-0.4
						c-5.82-1.78-6.31-8.61-6.41-13.7c-0.1-4.88-0.21-14.51,0.48-15.45c1.05-1.43,6.41-1.93,9.36-1.89
						c3.65,0.04,7.34,0.01,10.99,0.13c6.67,0.21,14.68-0.38,20.37,3.26c1.02,0.65,1.39-0.31,0.41-1.01
						c-3.03-2.17-6.47-2.69-10.12-2.87c-5.18-0.26-8.77-0.34-13.96-0.36c-4.54-0.02-9.31-0.38-13.83,0.16
						c-1.82,0.22-3.43,0.62-4.24,1.99c-1.45,2.49-0.54,14.86-0.22,20.28c0.21,3.64,1.45,7.64,4.85,9.59
						c4.06,2.33,9.71,2.55,14.29,2.95c2.88,0.25,4.03,0.39,6.92,0.28c1.33-0.05,2.45-0.29,3.76-0.49c1.27-0.18,2.5-0.59,3.76-0.84
						c1.18-0.23,2.39-0.55,3.54-0.89c1.04-0.31,1.88-0.36,2.75-1.06c1.27-1.02,1.94-2.5,2.23-4.08
						C166.58,131.55,167.93,126.22,167.9,120.55z"/>
					<path class="st16" d="M162.59,118.63c-0.13-1.12-0.7-2.15-1.61-2.8c-0.02-0.02-0.03-0.04-0.06-0.06
						c-0.12-0.08-0.24-0.15-0.36-0.23c0,0-0.01-0.01-0.01-0.01l0,0c-2.24-1.46-4.77-1.84-7.44-1.98c-4-0.2-6.4-0.26-10.4-0.28
						c-3.51-0.02-7.18-0.29-10.67,0.12c-1.4,0.17-2.65,0.48-3.27,1.53c-1.12,1.92-0.82,11.46-0.27,15.68
						c0.36,2.79,1.04,6.02,3.66,7.53c3.13,1.8,7.71,2.01,11.24,2.32c2.22,0.19,3.08,0.14,5.31,0.05c1.03-0.04,2.74-0.34,3.76-0.49
						c0.98-0.14,0.95-0.23,1.92-0.42c0.91-0.18,1.52-0.38,2.4-0.65c0.8-0.24,1.53-0.46,2.2-1c0.98-0.79,1.49-1.93,1.72-3.15
						c0.78-4.18,1.33-8.21,1.82-12.42C162.68,121.14,162.72,119.74,162.59,118.63z M159.31,135.22c-0.24,0.68-0.62,1.23-1.06,1.8
						c-0.47,0.6-1.33,0.81-2.04,0.98c-0.78,0.18-4.11,1.17-7.84,1.47c-2.11,0.17-6.5-0.28-7.46-0.41c-1.9-0.25-3.79-0.62-5.64-1.13
						c-0.36-0.1-0.71-0.2-1.06-0.31c-4.49-1.38-4.64-6.64-4.72-10.56c-0.07-3.77-0.51-10.97,0.06-11.67c0.38-0.46,5.04-1,7.32-0.98
						c2.81,0.03,5.63,0.13,8.44,0.22c4.92,0.16,9.86-0.65,14.26,2.03c2.24,1.32,1.8,5.38,1.79,5.5
						C161.26,125.5,159.78,133.87,159.31,135.22z"/>
					<path class="st124" d="M191.98,140.76c2.31,1.92,5.67,2.82,11.31,3.2c5.64,0.38,18.83,0.51,24.47-3.97
						c5.64-4.48,2.95-28.44,2.95-28.44c-6.28-2.95-38.73-3.39-42.06,2.12C185.31,119.19,189.68,138.84,191.98,140.76z
						 M192.43,118.89c0.13-1.1,0.69-2.12,1.59-2.76c0.02-0.02,0.03-0.04,0.06-0.06c0.12-0.08,0.24-0.15,0.35-0.23
						c0,0,0.01-0.01,0.01-0.01l0,0c2.21-1.44,4.7-1.82,7.33-1.95c3.94-0.2,6.28-0.26,10.23-0.28c3.46-0.02,7.08-0.29,10.52,0.12
						c1.38,0.17,2.61,0.47,3.22,1.51c1.11,1.89,0.81,11.3,0.26,15.46c-0.36,2.75-1.03,5.93-3.61,7.42
						c-3.09,1.78-7.6,1.99-11.08,2.29c-2.19,0.19-3.38,0.27-5.58,0.19c-1.01-0.04-2.31-0.54-3.31-0.68
						c-0.96-0.14-0.73-0.12-1.69-0.31c-0.9-0.17-1.73-0.43-2.6-0.69c-0.79-0.24-1.5-0.45-2.17-0.99c-0.96-0.78-1.47-1.91-1.7-3.1
						c-0.77-4.12-1.32-8.09-1.79-12.24C192.35,121.37,192.31,119.99,192.43,118.89z"/>
					<path class="st16" d="M186.87,120.7c0-0.86,1.11-0.66,1.14,0.22c0.14,4.32,2.08,15.34,2.7,17.09c0.31,0.88,0.83,1.56,1.39,2.29
						c0.6,0.78,1.96,1.16,2.88,1.37c1.01,0.24,5.65,1.6,10.48,1.98c2.73,0.22,8.53-0.35,9.77-0.51c2.46-0.32,5.18-0.82,7.58-1.48
						c0.46-0.13,0.92-0.26,1.38-0.4c5.82-1.78,6.31-8.61,6.41-13.7c0.1-4.88,0.21-14.51-0.48-15.45c-1.05-1.43-6.41-1.93-9.36-1.89
						c-3.65,0.04-7.34,0.01-10.99,0.13c-6.67,0.21-14.68-0.38-20.37,3.26c-1.02,0.65-1.39-0.31-0.41-1.01
						c3.03-2.17,6.47-2.69,10.12-2.87c5.18-0.26,8.77-0.34,13.96-0.36c4.54-0.02,9.31-0.38,13.83,0.16
						c1.82,0.22,3.43,0.62,4.24,1.99c1.45,2.49,0.54,14.86,0.22,20.28c-0.21,3.64-1.45,7.64-4.85,9.59
						c-4.06,2.33-9.71,2.55-14.29,2.95c-2.88,0.25-4.03,0.39-6.92,0.28c-1.33-0.05-2.45-0.29-3.76-0.49
						c-1.27-0.18-2.5-0.59-3.76-0.84c-1.18-0.23-2.39-0.55-3.54-0.89c-1.04-0.31-1.88-0.36-2.75-1.06c-1.27-1.02-1.94-2.5-2.23-4.08
						C188.19,131.69,186.84,126.37,186.87,120.7z"/>
					<path class="st16" d="M192.23,122.53c0.48,4.21,1.03,8.23,1.82,12.42c0.23,1.21,0.74,2.36,1.72,3.15c0.67,0.54,1.4,0.76,2.2,1
						c0.88,0.27,1.49,0.47,2.4,0.65c0.97,0.19,0.94,0.28,1.92,0.42c1.02,0.15,2.73,0.45,3.76,0.49c2.23,0.09,3.09,0.14,5.31-0.05
						c3.53-0.31,8.11-0.52,11.24-2.32c2.62-1.51,3.3-4.73,3.66-7.53c0.55-4.22,0.85-13.76-0.27-15.68
						c-0.62-1.06-1.86-1.37-3.27-1.53c-3.49-0.42-7.16-0.14-10.67-0.12c-4,0.02-6.4,0.08-10.4,0.28c-2.67,0.13-5.19,0.51-7.44,1.98
						l0,0c0,0-0.01,0.01-0.01,0.01c-0.12,0.08-0.24,0.15-0.36,0.23c-0.02,0.02-0.03,0.04-0.06,0.06c-0.91,0.65-1.48,1.69-1.61,2.8
						C192.05,119.89,192.09,121.29,192.23,122.53z M193.4,122.31c0-0.12-0.45-4.18,1.79-5.5c4.4-2.68,9.34-1.88,14.26-2.03
						c2.81-0.09,5.63-0.18,8.44-0.22c2.28-0.03,6.94,0.52,7.32,0.98c0.57,0.7,0.13,7.9,0.06,11.67c-0.08,3.92-0.23,9.19-4.72,10.56
						c-0.35,0.11-0.71,0.21-1.06,0.31c-1.85,0.5-3.73,0.88-5.64,1.13c-0.96,0.12-5.35,0.57-7.46,0.41c-3.73-0.3-7.06-1.29-7.84-1.47
						c-0.71-0.17-1.57-0.38-2.04-0.98c-0.44-0.56-0.82-1.12-1.06-1.8C194.99,134.02,193.51,125.65,193.4,122.31z"/>
					<path class="st16" d="M167.22,114.46c5.88-1.31,12.76-1.27,18.92-0.4c0.27,0.04,1.4,0.27,2.03,0.33
						c0.4,0.04,0.73-0.5,1.36-0.86c-0.25-0.07-0.07-1.33-0.26-1.13c-0.84,0.91-1.68,0.67-2.31,0.56c-2.24-0.41-6.52-0.74-9.53-0.71
						c-1.82,0.02-6.68,0.18-9.22,0.89c-1.57,0.44-2.06-0.53-2.42-0.68c-0.89-0.39-0.61,0.88-0.61,0.88
						C166.22,113.9,166.37,114.65,167.22,114.46z"/>
					<path class="st16" d="M186.4,118.3c-5.79-1.58-13.38-0.48-13.38-0.48c-1.58,0.34-6.14,1.34-6.22,2.69
						c0.21,0.07,1.1,0.3,1.1,0.04c0-0.8,4.05-1.41,4.56-1.56c1.71-0.52,3.07-0.51,5.59-0.56c1.52-0.03,4.68,0.11,7.21,0.48
						c2.05,0.31,1.44,1.7,1.73,1.85c0.74,0.39,0.99,0,0.99,0C187.99,118.76,187.12,118.49,186.4,118.3z"/>
				</g>
				<g>
					<path class="st16" d="M145.63,122.77c-1.67,0.32-2.91,0.43-4.06,1.92c-1.77,2.35-1.46,5.76,1.57,6.83
						c2.39,0.85,6.14,0,7.08-2.56c0.83-2.56-1.56-5.66-3.96-6.19c-0.94-0.21-2.08,0-3.02,0.43"/>
					<path class="st29" d="M146.24,124.15c-1.43,0.37-4.28,2.44-1.66,4.26c4.4,3.04,6.24-3.47,1.9-4.38"/>
				</g>
				<g>
					<path class="st16" d="M208.96,122.77c-1.67,0.32-2.92,0.43-4.06,1.92c-1.77,2.35-1.46,5.76,1.56,6.83
						c2.4,0.85,6.14,0,7.09-2.56c0.83-2.56-1.57-5.66-3.96-6.19c-0.93-0.21-2.08,0-3.02,0.43"/>
					<path class="st29" d="M209.56,124.15c-1.43,0.37-4.28,2.44-1.66,4.26c4.4,3.04,6.24-3.47,1.9-4.38"/>
				</g>
				<g>
					<path class="st16" d="M107.56,106.92c2.24,2.16,3.79,4.37,4.47,7.41c0.47,2.11,0.13,4.82,1.16,6.7
						c0.11,0.2,0.37,0.13,0.44-0.06c0.87-2.28-0.3-6.22-0.99-8.45c-0.75-2.45-2.52-5.37-5.62-6.76c-0.24-0.11,0.41,0.39,0.6,0.57
						L107.56,106.92z"/>
				</g>
				<g>
					<path class="st16" d="M239.54,119.65c1.93-4.31,3.73-11.35,7.78-11.44c0.59-0.01-0.56-1.38-1.09-1.14
						c-4.83,2.17-5.62,7.69-7.46,12.25C238.6,119.77,239.34,120.09,239.54,119.65L239.54,119.65z"/>
				</g>
				<g>
					<path class="st125" d="M190.69,183.85c-17-18.77-40.36-8.37-40.36-8.37c4.85,12.48,15.72,12.22,21.89,13.06
						C181.13,189.75,190.69,183.85,190.69,183.85z"/>
					<path class="st126" d="M150.85,175.15c-3.83,1.43-3.71-19.16-3.71-19.16s15.68,2.48,21.04,1.86c0,0,34.66-0.83,35.69-1.34
						s0.06,21.14-13.19,26.52C190.69,183.02,176.02,165.77,150.85,175.15z"/>
					<path class="st125" d="M190.69,183.85c-17-18.77-40.36-8.37-40.36-8.37c4.85,12.48,15.72,12.22,21.89,13.06
						C181.13,189.75,190.69,183.85,190.69,183.85z"/>
					<path class="st127" d="M150.85,175.15c-3.83,1.43-3.71-19.16-3.71-19.16s15.68,2.48,21.04,1.86c0,0,34.66-0.83,35.69-1.34
						s0.06,21.14-13.19,26.52C190.69,183.02,176.02,165.77,150.85,175.15z"/>
					<path class="st128" d="M178.31,174.61c-0.28,0.07-0.57,0.1-0.86,0.12c-0.09-0.43-0.42-0.82-0.92-0.84
						c-0.12,0-0.24-0.01-0.36-0.02c-2.3-0.84-4.57-1.12-6.83-1.13c-1.58-0.24-3.17-0.45-4.77-0.56c-1.62-0.11-3.23,0.13-4.83,0.5
						c-3.21,0.13-6.32,0.72-9.08,2.27c-0.49,0.27-0.53,0.93-0.17,1.33c0.26,0.26,0.49,0.54,0.73,0.81c0,0.03,0,0.06,0,0.1
						c0.49,3.01,3.69,5.03,6.02,6.66c0.16,0.11,0.33,0.15,0.5,0.16c-0.26,0.69,0.75,1.19,1.22,0.54c1.42-1.93,4.31-3.18,6.32-4.4
						c3.58-2.17,7.38-3.69,11.51-4.36c0.02,0,0.02-0.01,0.04-0.02c0.59,0.01,1.2,0.01,1.77-0.12
						C179.27,175.49,178.99,174.43,178.31,174.61z"/>
					<path class="st129" d="M182.7,179.23c-0.47-0.21-0.93,0.22-0.7,0.7c0.43,0.89,1.48,1.46,2.06,2.27
						c0.24,0.33,0.73,1.7,1.35,1.26C186.83,182.42,183.53,179.61,182.7,179.23z"/>
					<g>
						<path class="st16" d="M146.8,155.94c8.33,3.04,19.23,2.28,28,2.42c9.92,0.17,19.74-0.22,29.56-1.77
							c0.46-0.07,0.34-0.81-0.11-0.81c-18.84-0.03-38.5,3.68-57.26-0.56C146.53,155.12,146.36,155.78,146.8,155.94L146.8,155.94z"/>
					</g>
					<g>
						<path class="st16" d="M146.66,155.46c-0.09,9.62,0.22,17.67,6.16,25.46c5.86,7.68,17.36,8.92,25.92,7.99
							c15.09-1.64,28.44-17,26-32.85c-0.09-0.59-1.05-0.45-1,0.14c1.12,15.26-8.66,27.36-22.66,31.16
							c-8.38,2.27-15.94,0.29-23.4-3.76c-10.44-5.66-9.27-18.1-10.43-28.14C147.21,155.08,146.66,155.06,146.66,155.46
							L146.66,155.46z"/>
					</g>
					<g>
						<path class="st16" d="M149.88,175.75c13.84-5.48,29.64-3.69,39.94,7.94c0.38,0.43,1.11-0.14,0.78-0.62
							c-3.78-5.5-11.67-10.3-18.22-10.92c-6.94-0.66-16.87-1.52-22.72,3.22C149.51,175.52,149.69,175.83,149.88,175.75
							L149.88,175.75z"/>
					</g>
				</g>
			</g>
		</g>
	</g>
</g>
</svg>
