<?xml version="1.0" encoding="utf-8"?>
<!-- Generator: Adobe Illustrator 17.0.0, SVG Export Plug-In . SVG Version: 6.00 Build 0)  -->
<!DOCTYPE svg PUBLIC "-//W3C//DTD SVG 1.1//EN" "http://www.w3.org/Graphics/SVG/1.1/DTD/svg11.dtd">
<svg version="1.1" id="Capa_1" xmlns="http://www.w3.org/2000/svg" xmlns:xlink="http://www.w3.org/1999/xlink" x="0px" y="0px"
	 width="236.6px" height="475.7px" viewBox="0 0 236.6 475.7" enable-background="new 0 0 236.6 475.7" xml:space="preserve">
<g>
	<ellipse opacity="0.2" fill="#1D1D1B" cx="135.2" cy="452.2" rx="88.2" ry="23.5"/>
	<g>
		<g>
			<path fill="#7F4F25" d="M199.5,442.9c-3.8-4.7-8.4-8.9-12.4-13.4c0.1-0.3-0.2-0.8-0.6-0.7c-5.4,0.8-10.9,2.2-16.3,3.2
				c-6,1.1-12,0.5-18.1,1.3c-5.9,0.7-10.3,4.3-15.2,7.4c-0.4,0.2,0.2-1.5-0.4-1.9c-7.7-4.7-17.9-5.4-26.7-6.4
				c-5.4-0.6-10.8-1.1-16.3-1.5c-1.4-0.1-6.4,0.2-8.8-0.6c0.1-0.2,0.1-0.3,0.2-0.5c0-0.1-0.1-0.2-0.1-0.1c-0.1,0.2-0.3,0.3-0.4,0.5
				c-0.3-0.1-0.5-0.3-0.7-0.5c-0.2-0.2-0.5,0-0.4,0.2c0.1,0.3,0.4,0.5,0.7,0.7c-3.9,4.4-8.1,8.5-12,13c-3.1,3.5-5.3,8-3.5,12.7
				c0,0.1,0.5,0.7,0.6,0.7c0.9,2.3,2.1,4.1,4.6,5.5c4.9,2.9,10.3,3.8,16.6,2.8c0.1,0,0.9,0.4,0.9,0.3c4.2-1.2,8.3-4.1,12.3-5.7
				c4.9-2,9.8-4.2,14.4-6.8c0.2-0.1,0.2-0.2,0.1-0.3c1.2-1.1,2.2-3.5,3.6-4.7c0.9,0.5,1.9,0.9,2.9,1.3c0,0,0.1,0.2,0.1,0.2
				c0,0-0.2-0.2-0.1-0.2c0.2,0.1,0.3,0.3,0.4,0.2c4-1.7,7.5-4.4,11.3-6.6c3.5,2,6.7,4.5,10.4,6c0.1,0.1,0.2,0.2,0.3,0.2
				c0,0,0.1,0,0.1-0.1c0,0,0.1,0,0.1-0.1c1-0.3,1.9-0.8,2.8-1.3c1.4,1.2,2.4,3.3,3.5,4.4c0,0.1,0,0.3,0.1,0.3
				c4.6,2.6,9.5,4.7,14.3,6.7c4,1.7,8.2,4.6,12.4,5.8c0,0.1,0.1,0.2,0.2,0.3c5.3,2.3,11.6-0.2,16.4-2.8c2.8-1.5,5.5-3.4,6.5-6.1
				c0.1,0,0.2-0.1,0.2-0.2C205.5,451.2,202.5,446.5,199.5,442.9z"/>
			<path fill="#C79B66" d="M209.4,277.9c0-0.3-0.4-0.3-0.4,0c0,0.3-0.1,0.5-0.1,0.8l0-0.7l-146.1,1.4c0-0.2,0-0.3-0.1-0.5
				c0-0.3-0.4-0.3-0.4,0c0,0.2,0,0.3,0,0.5l-0.1,0l0,1.2c-0.6,13.9,1.5,28.3,2.8,42.1c1.2,13.2,2.4,26.2,5,39.2
				c4.4,22.5,10.7,44.6,13.5,67.5c0.3,2.5,20.4,3,36.2,5.3c19.5,2.8,16.4,6.2,17.5,6c3.7-0.8,6.2-4.6,13-6c2.5-0.5,11.3-1,19.9-2.2
				c8.1-1.1,16.2-2.9,16.2-2.9c0.5,0.2,1.2,0.1,1.3-0.7c4.4-22.3,9.5-44.6,13.9-66.9c2.5-12.4,3.7-24.8,4.8-37.3
				C207.9,309.2,210.4,293.3,209.4,277.9z"/>
			<path fill="#B17F49" d="M62.6,279.9c84.3,28.1,146.3-1.1,146.3-1.1c-76.4,38-146.2,4.9-146.2,4.9L62.6,279.9z"/>
			<path fill="#683B11" d="M96.4,432.6c0,0-20.8,16.9-22.6,23c0,0-0.6,2.9,2,7.4c0,0-7-2.9-8-7.6c-0.4-2,1.7-8.3,4.3-11.9l12.8-13.1
				L96.4,432.6z"/>
			<path fill="#683B11" d="M145.1,436.4c0,0,7.7,5.5,10.7,7.2c3,1.7,19.7,9.8,23.8,12.7c4.1,2.9,8.3,2.4,8.3,2.4s2.1,2.5-1.2,6.9
				c0,0-1.8,1.7-12.4-3.3l-20.1-9.6c0,0-6.4-10.6-7.1-3.6l-10.9-6.2l1.1-1.8L145.1,436.4z"/>
			<g>
				<path fill="#A98066" d="M84.5,457.5c4.4,0.6,8.9-3.2,11.2-4.7c2-1.3-0.7-4.1-1.7-3.4c-3.8,3.3-5.8,4.7-8.8,6.3
					c-1,0.6-1.2,0.8-1.1,1.2C84.2,457.4,84.5,457.5,84.5,457.5z"/>
			</g>
			<path fill="#B17F49" d="M153.6,313c0,0-1.3,11.6-3.3,16.8c-2,5.2,0.9,25.5,1,37c0,11.4-0.9,48.8-5.5,69.3l-8.8,4.5l-0.3-1
				c0,0,8.5-76.9,7-100.9l-0.1-7.7C143.5,330.9,151.9,322.5,153.6,313z"/>
			<path fill="#B17F49" d="M62.2,280.6c-0.6,13.9,1.5,28.3,2.8,42.1c1.2,13.2,2.4,26.2,5,39.2c4.4,22.5,10.7,44.6,13.5,67.5
				c0.3,2.5-2.8,0,13,2.3c0,0-5.2-11.3-9.9-43.4c-1.1-7.7-5.8-36.6-2.8-77c0.5-6.6,5.5-14.2,8.9-20.7L62.2,280.6z"/>
			<g>
				<path fill="#1D1E1C" d="M62.2,279.2c-0.9,14.4,1.4,29.4,2.7,43.7c1.2,13.2,2.4,26.2,5,39.2c4.4,22.5,9.1,45,13.5,67.5
					c0.3,1.3,2.3,0.8,2-0.6c-4.4-21.9-9-43.7-13.5-65.5c-5.7-27.8-5.9-56.2-9.4-84.3C62.6,278.9,62.3,278.9,62.2,279.2L62.2,279.2z"
					/>
			</g>
			<g>
				<path fill="#1D1E1C" d="M208.9,278.2c-3.3,27.8-3.5,55.9-9,83.4c-4.5,22.3-9.7,44.5-14.2,66.8c-0.3,1.3,1.8,1.9,2,0.6
					c4.4-22.3,9.5-44.6,13.9-66.9c2.5-12.4,3.7-24.8,4.8-37.3c1.4-15.2,3.9-31.2,2.9-46.5C209.3,277.9,208.9,278,208.9,278.2
					L208.9,278.2z"/>
			</g>
			<g>
				<path fill="#1D1E1C" d="M137.2,439.2c7.1-35.5,4.7-72.4,7.9-108.4c0.1-1.3-2-1.3-2.1,0c-2.5,36.1-2,72.3-6.3,108.3
					C136.8,439.3,137.1,439.4,137.2,439.2L137.2,439.2z"/>
			</g>
			<g>
				<path fill="#1D1E1C" d="M83.4,429.7c1.4,3,14.6,2.8,17.2,3c11.8,1.1,24.5,1.9,35.4,6.9c0.7,0.3,1.3-0.6,0.6-1
					c-7.7-4.7-17.9-5.4-26.7-6.4c-5.4-0.6-10.8-1.1-16.3-1.5c-1.7-0.1-8.8,0.3-9.9-1.2C83.6,429.2,83.3,429.4,83.4,429.7L83.4,429.7
					z"/>
			</g>
			<g>
				<path fill="#1D1E1C" d="M137.4,441.1c6.5-3.3,11-6.5,18.7-7.1c4.9-0.4,9.7-0.1,14.6-1c5.5-0.9,10.8-2.5,16.2-3.4
					c0.7-0.1,0.4-1.1-0.3-1c-5.4,0.8-10.9,2.2-16.3,3.2c-6,1.1-12,0.5-18.1,1.3c-5.9,0.7-10.3,4.3-15.2,7.4
					C136.7,440.7,137,441.3,137.4,441.1L137.4,441.1z"/>
			</g>
			<g>
				<path fill="#1D1E1C" d="M143.5,330.9c2-0.1,4.4-4.8,5.3-6.2c4-6.4,6.1-13.7,6.4-21.2c0-0.3-0.5-0.4-0.6-0.1
					c-1.1,7.3-3.1,14.2-6.9,20.6c-1,1.8-4.4,4.6-4.5,6.6C143.2,330.8,143.4,330.9,143.5,330.9L143.5,330.9z"/>
			</g>
			<g>
				<path fill="#1D1E1C" d="M85.8,290.5c-2.8,8.5-6,15.5-13.3,21.1c-0.3,0.2-0.1,0.7,0.3,0.5c6.8-3.3,13.3-14,13.1-21.6
					C86,290.4,85.9,290.4,85.8,290.5L85.8,290.5z"/>
			</g>
			<g>
				<path fill="#1D1E1C" d="M189.6,287.9C189.6,287.9,189.6,287.9,189.6,287.9c-0.2-0.2-0.5-0.1-0.6,0.1c-0.8,3,1.5,6.9,3,9.3
					c2.4,3.9,4.7,7.6,8.4,10.3c0.4,0.3,0.9-0.3,0.5-0.7c-2.9-3.2-4.9-5.6-7.4-9.1c-1.3-1.8-2.3-3.9-3.1-6
					C190.3,291.2,189.8,288.1,189.6,287.9L189.6,287.9z"/>
			</g>
			<g>
				<path fill="#1D1E1C" d="M198.1,313.1c-1.6,19.2-3.3,37.7-7.2,56.6c-0.1,0.4,0.5,0.5,0.5,0.1C196,351.8,199.5,331.7,198.1,313.1
					C198.1,313,198.1,313,198.1,313.1L198.1,313.1z"/>
			</g>
			<g>
				<path fill="#1D1E1C" d="M83.5,311.2c-3.2,18.5-1.7,38.7,1,57.2c0,0.3,0.6,0.2,0.6-0.1C83,349,83.2,330.4,83.5,311.2
					C83.6,311.1,83.5,311.1,83.5,311.2L83.5,311.2z"/>
			</g>
			<g>
				<path fill="#1D1E1C" d="M180.6,426.7c1.3-1.8,1.5-4.3,1.9-6.4c0.8-4.3,2-8.6,3-12.9c2.2-9.6,4.3-19.3,5.3-29.2
					c0-0.5-0.7-0.6-0.8-0.1c-1.7,9.7-3.3,19.4-5.5,29c-1.4,6.2-1.9,13.6-4.2,19.4C180.1,426.8,180.5,426.9,180.6,426.7L180.6,426.7z
					"/>
			</g>
			<g>
				<path fill="#1D1E1C" d="M92.5,424.1c-0.8-7.8-1.9-15.7-2.8-23.5c-0.9-7.8-1.2-15.9-3-23.6c-0.1-0.3-0.5-0.2-0.5,0.1
					c0,15.3,3,32,5.9,47C92.2,424.4,92.5,424.3,92.5,424.1L92.5,424.1z"/>
			</g>
			<g>
				<path fill="#1D1E1C" d="M84.9,429.5c-4.1,4.7-8.7,9.1-12.8,13.9c-3.1,3.5-5.9,8.4-4.1,13.2c0.2,0.4,0.8,0.4,0.8-0.1
					c-0.7-6.9,2.9-11.4,7.5-16.1c2.9-3,7.8-6.4,8.7-10.7C85.1,429.5,85,429.5,84.9,429.5L84.9,429.5z"/>
			</g>
			<path fill="#1D1E1C" d="M123.7,446.8c-3-0.4-4.3,3.9-6.1,5.6c0,0,0,0,0,0c-4.3,1.8-8.4,3.9-12.6,5.8c-4.7,2.1-9.9,5.5-14.1,6.8
				c0,0-0.1,0-0.1,0c-5.2,1-9.9-0.1-14.5-2.5c-4.9-2.5-7.1-4.7-7.7-10.4c0-0.2-0.4-0.3-0.4-0.1c-1.5,4.9,1.7,8.1,5.6,10.3
				c4.9,2.9,9.1,4.3,17.3,3.4c3.5-0.4,8.5-4.3,12.5-6c4.9-2,9.8-4.2,14.4-6.8c0.2-0.1,0.3-0.2,0.6-0.5c1.6-1.5,2.4-4.9,4.9-5
				c0.5,0.3,0.5,0.6,0.6,0.9c0.1,0.3,0.1,0.7,0.3,1c0.2,0.3,0.6,0.2,0.7-0.1C125.2,448.7,124.7,446.9,123.7,446.8z"/>
			<g>
				<path fill="#1D1E1C" d="M125,449.5c4.1-1.7,7.7-4.5,11.5-6.7c0.3-0.2,0.1-0.8-0.3-0.6c-2.1,0.7-3.8,2.3-5.7,3.5
					c-1.9,1.1-4.3,1.9-5.8,3.5C124.6,449.3,124.8,449.5,125,449.5L125,449.5z"/>
			</g>
			<g>
				<path fill="#1D1E1C" d="M135.7,442.6c1.3,0.4,2.1-2.9,1.5-3.6c-0.1-0.1-0.2-0.2-0.4,0c-0.2,0.2-0.2,0.3-0.3,0.6
					c0,0.5-0.1,0.9-0.3,1.4c-0.1,0.3-0.2,0.6-0.4,0.8c-0.1,0.2-0.3,0.3-0.4,0.6C135.5,442.5,135.6,442.6,135.7,442.6L135.7,442.6z"
					/>
			</g>
			<g>
				<path fill="#1D1E1C" d="M121.4,448c1,0.6,2.1,1.2,3.2,1.6c0.4,0.1,0.6-0.5,0.2-0.6c-1.1-0.3-2.2-0.9-3.3-1.2
					C121.4,447.7,121.3,447.9,121.4,448L121.4,448z"/>
			</g>
			<g>
				<path fill="#1D1E1C" d="M186.7,429c0.9,3.9,5.1,7.1,7.8,9.8c4.9,4.9,9.1,9.7,8.4,17c0,0.5,0.6,0.5,0.8,0.1
					c1.9-4.8-1.1-9.5-4.1-13.2c-4-4.8-8.7-9.2-12.8-13.9C186.8,428.9,186.7,428.9,186.7,429L186.7,429z"/>
			</g>
			<g>
				<path fill="#1D1E1C" d="M203.2,451.5c-0.6,5.3-2.2,7.3-6.7,9.9c-4.9,2.7-9.9,4.1-15.5,3c-0.4-0.1-0.8,0.6-0.3,0.8
					c5.3,2.3,11.6-0.2,16.4-2.8c4.2-2.3,8.2-5.5,6.6-10.9C203.5,451.1,203.2,451.2,203.2,451.5L203.2,451.5z"/>
			</g>
			<g>
				<path fill="#1D1E1C" d="M181.5,464.6c-3.9-1.6-7.4-4-11.4-5.6c-5.4-2.3-10.6-5-16-7.3c-0.4-0.2-0.8,0.4-0.4,0.6
					c4.6,2.6,9.5,4.7,14.3,6.7c4.3,1.8,8.8,5,13.3,6C181.7,465.2,181.8,464.8,181.5,464.6L181.5,464.6z"/>
			</g>
			<g>
				<path fill="#1D1E1C" d="M154.1,451.7c-1.8-1.7-3.1-5.8-6.1-5.6c-0.4,0-0.4,0.7,0,0.6c2.7-0.2,4,3.8,5.7,5.3
					C154,452.3,154.4,452,154.1,451.7L154.1,451.7z"/>
			</g>
			<g>
				<path fill="#1D1E1C" d="M148.2,446.6c-0.9-0.9-1.7,1.4-1.5,2.1c0.1,0.3,0.6,0.4,0.7,0.1c0.2-0.3,0.2-0.7,0.3-1
					c0.1-0.4,0.3-0.5,0.5-0.7C148.3,446.9,148.3,446.7,148.2,446.6L148.2,446.6z"/>
			</g>
			<g>
				<path fill="#1D1E1C" d="M147,448.6c-1.3-1.5-3.5-2.3-5.2-3.3c-1.8-1-3.4-2.5-5.3-3.2c-0.4-0.1-0.6,0.4-0.3,0.6
					c3.6,2,6.9,4.6,10.7,6.1C147,449,147.1,448.7,147,448.6L147,448.6z"/>
			</g>
			<g>
				<path fill="#1D1E1C" d="M150.2,447.2c-1.1,0.4-2.2,0.9-3.3,1.2c-0.4,0.1-0.2,0.7,0.2,0.6c1.2-0.4,2.2-1,3.2-1.6
					C150.4,447.3,150.3,447.1,150.2,447.2L150.2,447.2z"/>
			</g>
			<g>
				<path fill="#1D1E1C" d="M69.5,452c1.4,2.4,4.1,3.8,6.5,5c2.6,1.3,5.9,3.1,8.8,3c0.3,0,0.4-0.4,0.1-0.5c-5-2.2-11.3-3.3-14.9-7.9
					C69.9,451.2,69.3,451.7,69.5,452L69.5,452z"/>
			</g>
			<g>
				<path fill="#1D1E1C" d="M93,456.9c9.8-4.1,19.1-10.3,28.3-15.5c0.2-0.1,0.1-0.5-0.2-0.4c-9.8,3.9-19.2,10.2-28.2,15.5
					C92.7,456.6,92.8,457,93,456.9L93,456.9z"/>
			</g>
			<g>
				<path fill="#1D1E1C" d="M151.3,441.2c4.2,1.9,8.1,4.5,12.1,6.6c5.5,2.8,11.1,5.3,16.3,8.8c0.4,0.3,0.8-0.4,0.4-0.7
					c-5-3.7-10.8-6-16.3-8.8c-4-2-8.1-5.1-12.4-6.1C151.2,440.9,151.1,441.1,151.3,441.2L151.3,441.2z"/>
			</g>
			<g>
				<path fill="#1D1E1C" d="M185.2,458.1c1.2,2.2,6,0,7.8-0.5c2.5-0.7,8.1-2.1,8.7-5.3c0-0.2-0.2-0.5-0.4-0.2
					c-2.1,2.5-4.6,3.6-7.7,4.6c-2.3,0.7-6,2.2-8.3,1.3C185.3,458,185.2,458.1,185.2,458.1L185.2,458.1z"/>
			</g>
			<path fill="#E0C0A2" d="M143,324.2c-2.2,1.2-3.3,2.7-4.1,4.4c-1.5,3.1-1.8,7-2.3,10.2c-0.6,3.8-0.3,23.6-0.9,35.6
				c-1.1,20.4-0.2,32.5-1.4,53.3c-0.1,1.7,1.8-2.4,2.3-8.7c1.7-19,1.3-26,2.9-45c0.8-9.2,1-33.9,0.9-36.1c-0.1-2.6,0.4-5.9,0.9-7.7
				c0.6-2,1.4-2.8,2.4-4.5C144.8,324.1,143.9,323.7,143,324.2z"/>
			<g>
				<path fill="#E0C0A2" d="M201.8,310.1c0.5,22.3-11.6,91.2-18.9,116.5c-0.2,0.6,0.9,0.4,0.9,0.4c8-27.5,21.5-90.5,20.9-117
					C204.7,308.3,201.8,309.2,201.8,310.1z"/>
			</g>
			<g>
				<path fill="#A98066" d="M190.9,440.9c1.9,3.1,4.4,9.3,5,12.5c0.3,1.3,5.3-1.3,4.9-2.6c-1.9-5.6-6.6-10.1-8.3-11.4
					c-0.6-0.5-1.5-0.6-1.9-0.2C190,439.5,190.9,440.9,190.9,440.9z"/>
			</g>
		</g>
		<path fill="#F8B032" d="M235.5,204.9c-5.1-27.8-30.6-52.2-55.5-63.6l0.1-0.7c-0.3,0-8-0.7-11.1,1.8c-0.6,0.5-1,1-1.2,1.7
			c-0.1,0-0.2,0.1-0.3,0.1c-4.5,4.2-10.2,8-15.2,11.6c-3.3,2.3-6.6,4.6-9.9,6.8c-1.4,0.9-3.5,2.7-5.3,3.2c0-0.2-0.1-0.3-0.3-0.4
			c-3.6-2-6.8-5.4-9.9-8.1c-5-4.3-9.9-8.7-14.9-13v0l0.5-0.5c-4.5-3.9-11.2-0.4-11.6-0.4l-2.3-0.6l0,0h0v0l0,0
			c-6.3,0.1-11.8,2.3-17.7,4.3c-8.5,2.9-15.4,2.3-22.9-2.1c-3.3-7-4.2-14.6-3.2-23.2c0,0,0-0.1,0-0.1c0.1-0.2,0.1-0.5-0.1-0.7
			c2.8-2.2,1.9-10.3-1.5-11.6c0,0,0,0,0,0c-0.1-0.1-0.2-0.2-0.4-0.2c-16.6,2.2-33.1,5.4-49.6,0.7c-0.2-0.1-0.4,0-0.5,0.2
			c-0.1-0.1-0.3-0.1-0.4,0c-3.1,2.3-2.6,9.5-0.3,12.1c0,0,0,0,0,0c0,0.2,0.1,0.4,0.3,0.4c-1.7,5.3-0.7,12.5-0.7,17.8
			c0.1,12.3,1.1,24.6,3.9,36.5c2.6,11.2,7.4,20.4,17,27.1c10.9,7.6,26.4,11.1,39.2,6.6c0.1,0,0.2-0.1,0.2-0.1
			c-7.9,26.9-4.6,48.5-3.1,54.3c0,0,0,0,0,0c0,0-0.1,0-0.1,0.1c-1.9,3.6-0.8,11.2,2,14.2c0.1,0.1,0.2,0.1,0.2,0.1
			c9.3,4.3,19.7,6.4,29.6,8.7c12.4,2.9,25.1,5.5,37.8,5.7c14.1,0.2,28.6-0.9,42.5-3.7c8-1.6,15.9-3.9,23.7-6.1
			c5.7-1.6,11.7-3.1,16.9-5.9c0.2-0.1,0.3-0.4,0.2-0.6c0.2-0.4,0.4-0.9,0.6-1.4c0.6-0.3,1.1-0.7,1.7-1c0,0,0.1,0.1,0.2,0
			c0.3-0.1,0.5-0.4,0.7-0.7c8.7-6.6,13.6-19.6,16.9-29.2C236.1,232.4,238,218.6,235.5,204.9z"/>
		<path fill="#FFE2B3" d="M50.1,109.6c0-0.7-0.3-1.4-0.4-2.1c-0.2-1.2,0-2.3-0.1-3.5c0-0.1-0.1-0.2-0.2-0.3c0-0.3-0.3-0.6-0.6-0.5
			c-14.4,4-27.5,4.4-42.3,1.4c-0.3-0.1-0.5,0.2-0.4,0.4c-0.3,0.7-0.2,1.6-0.2,2.3c0,1.1-0.2,2.1-0.5,3.2l-0.4,1
			c13.7,4.8,31.1,2.9,45.1-0.5L50.1,109.6C50.1,109.6,50.1,109.6,50.1,109.6z"/>
		<path fill="#F29313" d="M170.7,290.1c4.6-0.9,9.1-2,13.6-3.3l-0.2-0.2c-5.5-0.7-12.2,1.4-18,1.4c-6.1,0-8.3-2.6-13.8-4.1
			c-6.1-1.7-12-3.4-17.2-7.7c-5.3-4.4-14.7-10.4-20.9-13.7c-19.3-10.2-24.8-17.3-24.8-39.6c0-11.5-2.8-27.6-15.7-31.6
			c-5.9-1.8-12.8-1.8-19-2.1c-8.7-0.3-16.8-6.8-22.1-12.1c-9.8-10-6.3-21.3-8.1-35.5c-1.1-8.4-2.4-11.4-0.4-18.5
			c2.3-7.8-9.4-9.5-16.2-11.3c-1.7-0.5-3.5-1.1-5.4-1.6c0,0,0,0,0,0c-0.1-0.1-0.3-0.1-0.4,0c-3.1,2.3-2.6,9.5-0.3,12.1c0,0,0,0,0,0
			c0,0.2,0.1,0.4,0.3,0.4c-1.7,5.3-0.7,12.5-0.7,17.8c0.1,12.3,1.1,24.6,3.9,36.5c2.6,11.2,7.4,20.4,17,27.1
			c10.9,7.6,26.4,11.1,39.2,6.6c0.1,0,0.2-0.1,0.2-0.1c-7.9,26.9-4.6,48.5-3.1,54.3c0,0,0,0,0,0c0,0-0.1,0-0.1,0.1
			c-1.9,3.6-0.8,11.2,2,14.2c0.1,0.1,0.2,0.1,0.2,0.1c9.3,4.3,19.7,6.4,29.6,8.7c12.4,2.9,25.1,5.5,37.8,5.7
			C142.3,294,156.8,292.8,170.7,290.1z"/>
		<path fill="#F29313" d="M56.5,145.1c0,0,5.5,15,23,11.1s13.4-1.2,26.3-7.4s0,0,0,0l-6-5.9c0,0-11,2.2-26.9,6.6
			C65.2,150.3,62,147.9,56.5,145.1"/>
		<g>
			<path fill="#FCCC81" d="M198.9,158.8c18,17.9,28.6,32.8,33.8,53.3c0.2,0.6,1.1,0.7,0.9-0.3c-4.2-22.5-13.1-35.8-33.9-53.6
				C198.4,157.2,198.3,158.2,198.9,158.8z"/>
		</g>
		<g>
			<path fill="#FCCC81" d="M196,185.9c5.7,21.6,9.8,51.2,8.6,77.5c0,0.7,0.8,1.1,0.9,0.2c3.7-29,1.7-55.5-8.6-77.8
				C196.3,184.3,195.8,185.1,196,185.9z"/>
		</g>
		<path fill="#F29313" d="M207.1,201c0,0,11.7,47.7,21.9,48.8c0,0-1.2,3.9-6,14.2l0,0c0,0-8.8,11.8-11.7,11.4c-2.9-0.5,0,0,0,0
			s1.5-2.2,0.3-10c-1.2-7.8-0.4-0.5-0.4-0.5s4.8-49-10.5-83"/>
		<g>
			<g>
				<path fill="#1D1E1C" d="M31.6,83.7h-4.7c-2.9,2.6-4.3,8.5-2.1,11.3c0.1,0.1,0.3,0.1,0.3-0.1C25,93,25,91.1,25.4,89.3
					c0.6-2.3,1.9-3.8,3.3-5.5c1,0.6,2,1,2.9,1.1c0.5,0,0.6-0.6,0.2-0.9C31.7,83.8,31.6,83.8,31.6,83.7z"/>
				<path fill="#E6AF99" d="M45.7,93.8c1.9-2.9,1.8-6.2,1.4-9.4c0,0,0-0.1,0-0.1c0.2-10.4-2.4-21.2-3.3-31.5
					c-0.4-4.1-1.6-7.9-5.9-7.9c-5.1-0.4-5.7,10.6-5,17.8c-6-2.2-15.5-3.2-18.4,3c-3.5,0.1-5.6,2-6.5,4.7C1.1,72,0.9,79.2,3.4,84.8
					c0.5,1.1,1.1,2.2,2,3.2c0,0.1-0.1,0.1-0.1,0.2c0.3,4.2,1.6,8.9,4.5,12.1c0.9,1,2.2,1.8,3.7,2.3c0,0.5,0.1,0.9,0.1,1.4
					c0,0.5,0,1,0,1.5l-0.3,1c10.2,1.8,20.2,1.2,30.2-0.9l0.1-1.1c-0.6-2.2-1.4-4.3-1.3-6.7C43.7,96.6,44.8,95.2,45.7,93.8z"/>
			</g>
			<path fill="#D59D89" d="M30.2,62.5c0,0-0.2,2.4,0.9,3.8l3.4,2.9c0,0-1.4-4.3-1.6-6.5L30.2,62.5z"/>
			<path fill="#D59D89" d="M23.7,67.2c0,0-7.8,1.8-8.4,9c0,0-1.1-1-1.1-6c0,0-4.5,2.1-5.1,9.1c0,0-1.6-2.1-1.4-6.2
				c0,0-3.8,3.1-4.9,8.6c0,0,1.2,12,11.7,5.1c0,0,5-0.6,7.6-3.8c0,0,4.1-0.9,4.7-2C26.8,81.1,17.1,71.6,23.7,67.2z"/>
			<path fill="#D59D89" d="M21.1,71.5c0,0,3.9-0.1,11.8,9.6c0.6,0.7,0.5,3.3-1.3,3.2C31.6,84.3,19.7,79.5,21.1,71.5z"/>
			<path fill="#D59D89" d="M31.1,84.7c0,0-6.3,4-6.3,9.1c1.5,10.3-3.5,8.5-4.1,13.3c0,0-0.2,1.3-7.3-1l0.7-3.9c0,0-7.6-1.6-7.9-13.4
				c0,0,7.3,2.2,8.3-1.3c0,0,6.5-0.8,7.6-3.8c0,0,2.8-0.4,4.5-1.4L31.1,84.7z"/>
			<path fill="#D59D89" d="M37.5,45c0,0-3.8,10,1.7,28.1l-5.1-4.8C34.2,68.3,30.3,48.7,37.5,45z"/>
			<path fill="#1D1E1C" d="M43.7,104.5c-0.6-2.2-1.4-4.3-1.4-6.6c1.3-1.2,2.5-2.6,3.4-4c1.9-2.8,1.8-6.1,1.4-9.4c0,0,0-0.1,0-0.2
				c0.2-10.4-2.4-21.2-3.3-31.5c-0.4-4-1.6-7.9-5.8-7.9c-5.2-0.5-5.8,10.6-5.1,17.8c-6-2.2-15.5-3.2-18.4,3c-3.5,0.1-5.6,2-6.5,4.7
				C1.1,72,0.9,79.2,3.4,84.8C3.9,85.9,4.5,87,5.4,88c0,0.1-0.1,0.1-0.1,0.2c0.3,4.2,1.6,8.9,4.5,12.1c0.9,1,2.1,1.7,3.5,2.3
				c0.1,1,0.1,1.9-0.1,2.9l-0.4,0.9c10.5,2,20.9,1.4,31.3-0.9L43.7,104.5z M32.7,63.6c0.1,0,0.2,0,0.3,0c0.3,2,0.6,3.6,1,4.4
				c-1-0.6-2.1-1.1-3.2-1.5c-3.1-1.1-8.1-1.1-9.9,2.1c-2,3.6,1.2,9.4,5,13c-8,4.4-12.3-7.9-10.8-14.1C17.1,59.7,27.2,62.1,32.7,63.6
				z M14.2,66.5c-0.3,0.8-0.5,1.8-0.5,2.8c-0.3,4.9,1.5,9.3,4.7,12.9c0.7,0.8,1.8,1.4,3,1.6c-2.7,2.3-6.2,3.6-9.3,0.3
				c-1.9-1.9-3.1-4.9-3.7-7.5C7.3,71.7,9.7,67.8,14.2,66.5z M7.7,71.3C6.3,76.9,9.1,85.1,14.1,87c-1.4,1-2.7,1.6-4.6,1.7
				c-3.1,0.3-4.6-2.9-5.5-5.3C2,78.4,2.6,73.5,7.7,71.3z M14.2,105.6c0.2-0.8,0.3-1.7,0.4-2.7c2.5,0.7,5.3,0.7,7.4,0
				c0.4-0.1,0.3-0.7-0.1-0.7c-4.6-0.3-9,0.3-12.1-3.9c-2.1-2.7-2.6-6.4-3.4-9.6c0.7,0.5,1.5,0.9,2.4,0.9c2.5,0.1,5-0.5,6.5-2.4
				c2.3,0.4,5-0.4,7.8-3.3c0,0,0,0,0,0c1.4-0.1,2.7-0.7,3.7-1.6c0.3,0.3,0.7,0.5,1,0.8c-3.5,2.1-5.3,8.8-2.9,11.9
				c0.1,0.1,0.3,0.1,0.3-0.1C25,93,25,91.1,25.5,89.3c0.6-2.3,1.9-3.8,3.3-5.5c1,0.6,2,1,2.9,1.1c0.5,0,0.6-0.6,0.2-0.9
				c-4.4-3.4-10.2-7-10.1-13.4c0.1-4.6,7.2-3.3,9.7-2.5c4.3,1.4,7.1,5.4,10.4,8.3c0.3,0.3,0.8-0.1,0.6-0.4c-2.1-3-4.8-5.8-8-7.7
				c0.2,0,0.3-0.2,0.3-0.4c-0.9-4.5-3.2-22,4-21.9c5.2,2,4.6,12.8,5.1,17c0.7,6.6,1.5,13.2,2.3,19.9c-0.2,3.7,0.7,6.9-1.3,10.5
				c-1.7,3.1-5,4.5-7.3,7c-0.3,0.4,0.1,0.9,0.5,0.7c1.2-0.6,2.3-1.3,3.3-2.2c0,2,0.4,4.3,1.3,5.9C33,106.6,23.9,106.9,14.2,105.6z"
				/>
		</g>
		<g>
			<path fill="#F1C9BD" d="M38.8,48c1.7,2.7,1.5,8,1.5,11.4c0,0.9,2,1.4,2,0.5c0-3.8-0.6-11.6-3.2-12.6C38.4,47.1,38.2,47.4,38.8,48
				L38.8,48z"/>
		</g>
		<g>
			<path fill="#F1C9BD" d="M26.3,68.5c4.8,0.2,7.3,4.5,10.4,7.7c1.8,1.9,3.4,0.3,2.1-1.4c-2.1-3-5.8-6.9-12.4-6.9
				C25.5,67.8,25.4,68.4,26.3,68.5L26.3,68.5z"/>
		</g>
		<g>
			<path fill="#F1C9BD" d="M44.5,85.9c-0.4,6-5.1,9-8,10.2c-2.4,1,0.1,3.4,1.8,2c3.7-3.2,7.6-5,7.2-12.1C45.5,85,44.5,85,44.5,85.9
				L44.5,85.9z"/>
		</g>
		<path fill="#E6AF99" d="M165.8,137.7c-7,9.4-21.6,9-28.8,17.1c-4.1-3.3-8.1-7.3-12.6-10c-4.6-2.7-8.8-3.8-11.7-8.7
			C112.5,135.9,165.9,137.5,165.8,137.7z"/>
		<path fill="#FFE2B3" d="M180.1,140.7c-0.5-2.2-1-7.5-3.4-8.6c-0.1,0-6.2,1.8-7.7,3.1c-0.8,0.7-1.9,1.7-3.1,2.7
			c-0.1-0.2-0.2-0.3-0.2-0.3c-7,9.4-21.6,9-28.8,17.1c-4.1-3.3-8.1-7.3-12.6-10c-3.3-1.9-6.4-3-8.9-5.3c-0.2-0.2-0.5-0.5-0.7-0.7
			c-0.7-0.8-1.4-1.6-2.1-2.7c0,0-0.1,0.2-0.2,0.6c-0.9-0.8-1.9-1.6-2.7-2.2c-4.1-2.7-6.7-2.4-6.8-2.4c-2.4,1.1-2.9,6.4-3.4,8.6
			c-0.8,3.8-1.7,7.4-3.1,11c0,0.1,0,0.1,0.1,0.1c0,0.2,0.2,0.5,0.5,0.4c3.6-0.3,6.7-2.2,9.7-4c1.5-0.9,3.1-2.1,4.7-3.1
			c4.9,4.3,9.7,8.7,14.5,13.1c3.1,2.8,6.3,6.3,10.1,8.3c0.2,0.1,0.3,0.1,0.5,0.1c2.9,1.1,12.1-6.9,14.1-8.3
			c5.8-4,12.3-8.4,17.5-13.2c1.4,0.9,2.6,1.8,3.8,2.5c3.2,2,6.8,4.3,10.7,4.6c0.3,0,0.5-0.2,0.5-0.4c0.1,0,0.1,0,0.1-0.1
			C181.8,148.1,180.9,144.6,180.1,140.7z"/>
		<g>
			<path fill="#1D1E1C" d="M183.2,151.8c-1.4-3.6-2.3-7.2-3.1-11c-0.5-2.2-1-7.5-3.4-8.6c-0.2-0.1-0.4,0.1-0.3,0.3
				c1.7,3.6,2.7,7.1,3.6,11.1c0.5,2.1,0.8,7.2,3,8.3C183.1,151.9,183.2,151.8,183.2,151.8L183.2,151.8z"/>
		</g>
		<g>
			<path fill="#1D1E1C" d="M105.8,148.8c9.9,9.5,19,17.9,30.9,24.9c0.6,0.3,1.1-0.6,0.5-0.9c-11.8-6.9-21-15.4-30.7-24.7
				C106,147.6,105.3,148.3,105.8,148.8L105.8,148.8z"/>
		</g>
		<g>
			<path fill="#1D1E1C" d="M59.7,265.5c-3-16.8-2.5-37.7,4.9-60.9c0.2-0.5-0.5-1-0.7-0.4c-10.8,30.6-6.6,55.7-5.1,61.2
				c0.1,0.2,0.4,0.2,0.4-0.1L59.7,265.5z"/>
		</g>
		<g>
			<path fill="#1D1E1C" d="M58.7,265.7c11.8,7.4,26.4,10.5,39.9,13.2c15.6,3.2,31.1,5.3,47.1,3.6c12-1.3,24.2-4.2,36-6.8
				c9.8-2.1,21.2-4.9,29.9-10c0.5-0.3,0.1-1.1-0.5-0.8c-8.4,4.6-18.8,7.3-28,9.4c-12.3,2.8-25,5.5-37.4,7.1
				c-15.2,1.9-30-0.3-44.8-3.2c-14.3-2.8-28.7-6.4-41.6-13.3C58.6,264.6,58.2,265.4,58.7,265.7L58.7,265.7z"/>
		</g>
		<g>
			<path fill="#1D1E1C" d="M58.5,265.1c-1.9,3.6-0.8,11.2,2,14.2c0.2,0.2,0.6,0,0.5-0.3c-0.5-2.3-1.7-4.5-2.1-6.9
				c-0.4-2.3-0.2-4.5,0-6.8C58.9,264.9,58.6,264.9,58.5,265.1L58.5,265.1z"/>
		</g>
		<g>
			<path fill="#1D1E1C" d="M60.6,279.3c9.3,4.3,19.8,6.5,29.8,8.8c12.4,2.9,25.1,5.5,37.8,5.7c14.1,0.2,28.6-0.9,42.5-3.7
				c8-1.6,15.9-3.9,23.7-6.1c5.7-1.6,11.7-3.1,16.9-5.9c0.6-0.3,0.1-1.1-0.5-0.8c-11.9,5.7-26,8.4-38.8,11.4
				c-14.1,3.3-29.3,4-43.8,3.9c-22.5-0.1-46.2-6.7-67.4-14C60.5,278.6,60.3,279.1,60.6,279.3L60.6,279.3z"/>
		</g>
		<g>
			<path fill="#1D1E1C" d="M179.8,141.5c22.8,15.9,45.8,31.4,53.5,59.9c3.6,13.3,1.8,27-2.1,39.9c-4,13.5-10.5,24-19.8,34.4
				c-0.3,0.3,0.1,0.8,0.4,0.6c10.4-5.7,15.9-20.4,19.6-30.9c4.6-13.1,6.5-26.8,4-40.5c-5.1-27.8-30.6-52.2-55.5-63.6
				C179.8,141.3,179.7,141.5,179.8,141.5L179.8,141.5z"/>
		</g>
		<g>
			<path fill="#1D1E1C" d="M211.6,265.3c1.5-5.5,1.1-11.9,1.2-17.6c0.1-6.5,0-13-0.7-19.4c-1.7-16.7-4.2-34.2-12.9-48.8
				c-0.3-0.5-0.9-0.1-0.7,0.4c3.3,7.8,6.6,15.2,8.6,23.5c2,8.6,3.1,17.5,4,26.2c1.3,11.9-0.9,23.9,0.2,35.6
				C211.2,265.5,211.5,265.6,211.6,265.3L211.6,265.3z"/>
		</g>
		<g>
			<path fill="#1D1E1C" d="M211.7,265.2c0.2,2.1,0.3,4.1,0.1,6.2c-0.2,2-1.2,4.3-1.1,6.3c0,0.3,0.4,0.4,0.6,0.2
				c1.2-1.7,1.3-4.5,1.5-6.5c0.2-2,0.3-4.5-0.7-6.4C212,264.9,211.6,264.9,211.7,265.2L211.7,265.2z"/>
		</g>
		<g>
			<path fill="#1D1E1C" d="M63.3,272.7c-0.5,1-0.2,2.8,0.6,3.5c0.1,0.1,0.3,0.1,0.4-0.1c0.1-0.5,0-1-0.1-1.5
				c-0.1-0.6-0.1-1.3-0.3-1.8C63.8,272.5,63.4,272.4,63.3,272.7L63.3,272.7z"/>
		</g>
		<g>
			<path fill="#1D1E1C" d="M67.5,274.3c-0.4,0.4-0.4,1-0.4,1.5c0,0.6,0,1.3,0.5,1.7c0.1,0.1,0.3,0.1,0.3,0c0.2-0.5,0.1-0.9,0-1.4
				c-0.1-0.6,0-1.2-0.2-1.7C67.7,274.3,67.6,274.3,67.5,274.3L67.5,274.3z"/>
		</g>
		<g>
			<path fill="#1D1E1C" d="M71.8,276.2c-0.5,0.8-0.5,2.6,0.3,3.3c0.1,0.1,0.2,0.1,0.3,0c0.2-0.4,0.2-0.8,0.1-1.2
				c-0.1-0.6,0-1.3,0-1.9C72.4,276.1,72,275.9,71.8,276.2L71.8,276.2z"/>
		</g>
		<g>
			<path fill="#1D1E1C" d="M76.3,278.3c-0.2,0.9-0.2,1.8,0.4,2.5c0.1,0.1,0.3,0.2,0.4,0c0.3-0.8,0.5-1.8,0-2.6
				C76.9,277.9,76.4,277.9,76.3,278.3L76.3,278.3z"/>
		</g>
		<g>
			<path fill="#1D1E1C" d="M81.7,278.7c-0.4,0.4-0.4,1.1-0.4,1.7c0,0.6-0.1,1.4,0.5,1.8c0.1,0.1,0.3,0,0.3-0.1
				c0.3-0.5,0.1-1.1,0.1-1.7c0-0.6,0.1-1.2-0.3-1.7C81.9,278.7,81.8,278.7,81.7,278.7L81.7,278.7z"/>
		</g>
		<g>
			<path fill="#1D1E1C" d="M86.6,280.5c0,1-0.1,2.4,0.3,3.3c0.1,0.1,0.2,0.2,0.4,0.2c1,0,0.3-3.2-0.1-3.6
				C87.1,280,86.6,280.1,86.6,280.5L86.6,280.5z"/>
		</g>
		<g>
			<path fill="#1D1E1C" d="M91.5,281.5c-0.3,0.4-0.2,1.2-0.2,1.7c0.1,0.6,0.2,1.1,0.7,1.4c0.1,0.1,0.2,0,0.3-0.1
				c0.2-0.5,0.1-1,0-1.5c0-0.4,0-1.1-0.3-1.4C91.9,281.3,91.7,281.3,91.5,281.5L91.5,281.5z"/>
		</g>
		<g>
			<path fill="#1D1E1C" d="M102.4,284c-0.3,1.1-0.3,2.4,0.3,3.4c0.1,0.1,0.3,0.1,0.3,0c0.2-1.1,0.1-2.3-0.2-3.4
				C102.8,283.7,102.5,283.7,102.4,284L102.4,284z"/>
		</g>
		<g>
			<path fill="#1D1E1C" d="M96.8,282.4c-0.3,1.1-0.3,2.4,0.3,3.4c0.1,0.1,0.3,0.1,0.3,0c0.2-1.1,0.1-2.3-0.2-3.4
				C97.1,282.1,96.8,282.1,96.8,282.4L96.8,282.4z"/>
		</g>
		<g>
			<path fill="#1D1E1C" d="M108.2,284.6c-0.6,0.8-0.7,2.9,0.3,3.4c0.1,0.1,0.3,0,0.3-0.1c0.2-0.4,0.1-0.9,0-1.4
				c-0.1-0.6,0-1.2-0.1-1.7C108.7,284.6,108.4,284.5,108.2,284.6L108.2,284.6z"/>
		</g>
		<g>
			<path fill="#1D1E1C" d="M114,285.4c-0.4,0.5-0.4,1.1-0.3,1.7c0,0.5,0,1.3,0.5,1.6c0.1,0.1,0.2,0,0.3,0c0.4-0.4,0.2-0.9,0.2-1.3
				c-0.1-0.6,0-1.3-0.2-1.8C114.5,285.4,114.2,285.3,114,285.4L114,285.4z"/>
		</g>
		<g>
			<path fill="#1D1E1C" d="M119.6,286c-0.2,0.7-0.1,1.5-0.1,2.2c0,0.6,0,1.2,0.7,1.5c0.1,0.1,0.3,0,0.4-0.2c0.4-0.5,0.1-1.2,0.1-1.8
				c0-0.6,0-1.4-0.5-1.9C119.9,285.7,119.7,285.8,119.6,286L119.6,286z"/>
		</g>
		<g>
			<path fill="#1D1E1C" d="M125.8,286.6c-0.3,0.6-0.1,1.4,0,2c0.1,0.7,0,1.5,0.6,2.1c0.1,0.1,0.3,0.1,0.3,0c0.5-0.6,0.3-1.3,0.2-2.1
				c-0.1-0.7-0.1-1.6-0.6-2.1C126.3,286.4,125.9,286.4,125.8,286.6L125.8,286.6z"/>
		</g>
		<g>
			<path fill="#1D1E1C" d="M132.9,286.5c-0.3,0.5-0.4,1.3-0.4,1.9c0,0.4-0.3,1.6,0.3,1.8c1,0.3,0.5-3.2,0.4-3.7
				C133.2,286.4,133,286.4,132.9,286.5L132.9,286.5z"/>
		</g>
		<g>
			<path fill="#1D1E1C" d="M138.4,286.7c0,0.5-0.4,4.2,0.6,3.9c0.6-0.2,0.3-1.3,0.3-1.7c0-0.4-0.1-0.8-0.1-1.1
				c-0.1-0.5-0.3-0.8-0.6-1.2C138.6,286.6,138.4,286.6,138.4,286.7L138.4,286.7z"/>
		</g>
		<g>
			<path fill="#1D1E1C" d="M144.3,286.4c-0.2,0.5-0.2,1-0.2,1.5c0,0.6,0,1.4,0.2,2c0,0.1,0.2,0.3,0.3,0.3c0.1,0,0.2,0,0.3,0
				c0.2-0.1,0.3-0.2,0.4-0.5c0-0.6-0.1-1.3-0.1-1.9c0-0.5-0.1-1-0.3-1.5C144.7,286.2,144.4,286.2,144.3,286.4L144.3,286.4z"/>
		</g>
		<g>
			<path fill="#1D1E1C" d="M149.8,285.7c-0.2,0.7,0,1.5,0,2.2c0,0.2,0,1.7,0.5,1.5c0.7-0.3,0.6-1.3,0.6-1.9c0-0.6,0-1.7-0.6-2.1
				C150,285.4,149.8,285.5,149.8,285.7L149.8,285.7z"/>
		</g>
		<g>
			<path fill="#1D1E1C" d="M154.2,285.2c0,0.6,0.1,1.1,0.1,1.7c0,0.6-0.1,1.2,0,1.8c0.1,0.4,0.6,0.4,0.7,0.1c0.6-1,0.6-3.2-0.5-3.8
				C154.4,285,154.2,285.1,154.2,285.2L154.2,285.2z"/>
		</g>
		<g>
			<path fill="#1D1E1C" d="M159.5,284.6c0.1,0.7,0.1,1.3,0.1,2c0,0.5-0.1,1.5,0.4,1.8c0.1,0,0.2,0,0.2,0c0.5-0.4,0.4-1.4,0.3-2
				c0-0.7-0.1-1.5-0.6-2C159.8,284.3,159.5,284.3,159.5,284.6L159.5,284.6z"/>
		</g>
		<g>
			<path fill="#1D1E1C" d="M165.3,283.4c-0.3,0.5-0.1,1.3-0.1,1.9c0.1,0.6,0,1.4,0.4,1.8c0.1,0.1,0.2,0.1,0.3,0
				c0.4-0.4,0.2-1.2,0.1-1.7c-0.1-0.6-0.1-1.4-0.5-2C165.4,283.3,165.3,283.3,165.3,283.4L165.3,283.4z"/>
		</g>
		<g>
			<path fill="#1D1E1C" d="M169.9,282.8c-0.1,0.5,0,1.1,0,1.6c0,0.6-0.1,1.1,0,1.6c0.1,0.3,0.4,0.3,0.6,0.1c0.6-0.8,0.4-2.6-0.2-3.4
				C170.2,282.6,170,282.6,169.9,282.8L169.9,282.8z"/>
		</g>
		<g>
			<path fill="#1D1E1C" d="M174.5,281.6c0,1.1-0.1,2.3,0.1,3.4c0.1,0.6,1,0.4,1-0.1c0.1-1.1-0.1-2.4-0.8-3.3
				C174.7,281.4,174.5,281.4,174.5,281.6L174.5,281.6z"/>
		</g>
		<g>
			<path fill="#1D1E1C" d="M179,280.7c0,0.6,0.1,1.2,0.1,1.8c0,0.4,0,0.7,0,1.1c0,0.3,0.2,0.6,0.2,0.8c0.1,0.2,0.4,0.3,0.5,0.1
				c0.3-0.7,0.4-1.2,0.4-2c-0.1-0.7-0.1-1.4-0.6-2C179.3,280.2,179,280.4,179,280.7L179,280.7z"/>
		</g>
		<g>
			<path fill="#1D1E1C" d="M183.5,279.6c-0.2,0.6-0.1,1.4-0.1,2.1c0,0.6-0.1,1.5,0.5,1.8c0.1,0.1,0.2,0,0.3,0
				c0.5-0.4,0.2-1.2,0.2-1.8c0-0.7,0-1.6-0.4-2.1C183.9,279.3,183.6,279.3,183.5,279.6L183.5,279.6z"/>
		</g>
		<g>
			<path fill="#1D1E1C" d="M187.8,278.3c-0.1,0.6-0.1,1.1-0.1,1.8c0,0.5,0.1,1.1,0.5,1.4c0.1,0.1,0.2,0,0.3-0.1
				c0.2-0.4,0.1-0.7,0-1.2c-0.1-0.6-0.2-1.3-0.3-1.9C188.2,278.1,187.9,278.1,187.8,278.3L187.8,278.3z"/>
		</g>
		<g>
			<path fill="#1D1E1C" d="M191.9,277.5c-0.1,0.6-0.1,1.2-0.1,1.8c0,0.5-0.1,0.9,0.3,1.3c0.1,0.1,0.3,0.1,0.4,0
				c0.3-0.4,0.3-0.8,0.3-1.3c0-0.6,0-1.2-0.1-1.8C192.5,277.1,191.9,277.1,191.9,277.5L191.9,277.5z"/>
		</g>
		<g>
			<path fill="#1D1E1C" d="M196.2,276.2c-0.2,0.5-0.2,1-0.3,1.6c0,0.5-0.2,1.3,0.3,1.7c0.1,0.1,0.3,0.1,0.4,0
				c0.4-0.3,0.3-0.9,0.3-1.4c0-0.6-0.1-1.2-0.3-1.8C196.5,276,196.3,276,196.2,276.2L196.2,276.2z"/>
		</g>
		<g>
			<path fill="#1D1E1C" d="M200.2,274.8c-0.1,0.5,0,1-0.1,1.4c0,0.6-0.1,1.1,0.2,1.6c0.1,0.2,0.4,0.3,0.5,0.1
				c0.6-0.8,0.5-2.5-0.1-3.3C200.6,274.5,200.3,274.6,200.2,274.8L200.2,274.8z"/>
		</g>
		<g>
			<path fill="#1D1E1C" d="M204.3,273.8c-0.2,0.4-0.1,1.1-0.1,1.5c0,0.6-0.2,1.2,0.2,1.8c0.2,0.2,0.5,0.2,0.6-0.1
				c0.2-0.7,0.1-1.4,0.1-2.1c0-0.4-0.2-1.1-0.7-1.2C204.4,273.7,204.4,273.7,204.3,273.8L204.3,273.8z"/>
		</g>
		<g>
			<path fill="#1D1E1C" d="M208,272.1c-0.1,0.5-0.1,1-0.2,1.5c0,0.6-0.2,1.2,0,1.7c0.1,0.2,0.4,0.4,0.6,0.2c0.5-0.4,0.5-1.1,0.5-1.7
				c0-0.6,0-1.2-0.3-1.8C208.5,271.8,208.1,271.8,208,272.1L208,272.1z"/>
		</g>
		<g>
			<path fill="#1D1E1C" d="M213.9,275.3c0.5-0.3,0.9-0.9,0.9-1.5c0-0.1-0.1-0.2-0.3-0.1c-0.6,0.2-0.8,1-0.9,1.5
				C213.7,275.3,213.8,275.3,213.9,275.3L213.9,275.3z"/>
		</g>
		<g>
			<path fill="#1D1E1C" d="M2.4,122.1c-2,5.3-0.9,12.9-0.9,18.5c0.1,12.3,1.1,24.6,3.9,36.5c2.6,11.2,7.4,20.4,17,27.1
				c10.9,7.6,26.4,11.1,39.2,6.6c0.8-0.3,0.5-1.6-0.4-1.3c-13.3,4.6-28.4,0.3-39.6-7.5c-10.4-7.3-14.1-19.7-16.3-31.6
				c-2.1-11.2-2.6-22.6-2.6-34c0-4.7,0.8-9.8,0-14.5C2.6,121.9,2.4,122,2.4,122.1L2.4,122.1z"/>
		</g>
		<g>
			<path fill="#1D1E1C" d="M2.3,122.8c16.8,3.4,35.6,4.4,52.1-0.7c0.8-0.2,0.5-1.5-0.3-1.2c-17.3,5-34.1,2.6-51.6,1
				C1.8,121.7,1.7,122.7,2.3,122.8L2.3,122.8z"/>
		</g>
		<g>
			<path fill="#1D1E1C" d="M53.6,121.7c-2.4,11.1,0.2,26.6,10,33.7c0.5,0.4,1.1-0.4,0.7-0.9c-8.5-9.6-11-20.1-9.5-32.7
				C54.8,121.2,53.8,121.1,53.6,121.7L53.6,121.7z"/>
		</g>
		<g>
			<path fill="#1D1E1C" d="M56.5,145.1c5.5,4.1,11.2,5.8,18,5.1c8.3-0.9,15.5-5.7,24.1-5.9c0.9,0,0.9-1.4,0-1.4
				c-6.3,0.1-11.8,2.3-17.7,4.3c-8.9,3.1-16,2.3-24-2.7C56.5,144.1,56.2,144.8,56.5,145.1L56.5,145.1z"/>
		</g>
		<g>
			<path fill="#1D1E1C" d="M2.7,121.8c-1.6-3.9-1.7-7.2,0.1-11c0.2-0.4-0.2-1-0.7-0.7c-3.1,2.3-2.6,9.5-0.3,12.1
				C2.2,122.6,2.9,122.3,2.7,121.8L2.7,121.8z"/>
		</g>
		<g>
			<path fill="#1D1E1C" d="M2.8,110.8c14.8,6.1,34.9,3.6,50-0.4c0.6-0.2,0.5-1.2-0.2-1.1c-16.6,2.2-33.1,5.4-49.6,0.7
				C2.5,109.8,2.3,110.6,2.8,110.8L2.8,110.8z"/>
		</g>
		<g>
			<path fill="#1D1E1C" d="M52.7,110.1c1.4,1.7,2,3.2,2.2,5.4c0.1,1.9-0.7,3.4-0.9,5.2c0,0.3,0.3,0.5,0.6,0.3
				c2.8-2.2,2-10.3-1.5-11.6C52.7,109.3,52.5,109.8,52.7,110.1L52.7,110.1z"/>
		</g>
		<g>
			<path fill="#1D1E1C" d="M5.7,111.2c0.9-0.7,1-1.8,1.1-2.8c0.1-1.1,0.3-2.6-0.3-3.6c-0.1-0.1-0.3-0.1-0.4,0
				c-0.4,0.7-0.3,1.7-0.3,2.6c0,1.2-0.3,2.3-0.6,3.5C5.2,111.1,5.5,111.3,5.7,111.2L5.7,111.2z"/>
		</g>
		<g>
			<path fill="#1D1E1C" d="M6.3,105.3c14.4,4.1,28.6,2.9,42.8-0.9c0.7-0.2,0.4-1.2-0.3-1c-14.4,4-27.5,4.4-42.3,1.4
				C6,104.6,5.9,105.2,6.3,105.3L6.3,105.3z"/>
		</g>
		<g>
			<path fill="#1D1E1C" d="M49,104.2C49,104.2,49,104.2,49,104.2c0,0.2,0.4,0.2,0.3,0c0,0,0-0.1,0-0.1c0-0.1-0.1-0.1-0.1-0.1
				c0,0-0.1,0-0.1,0C48.9,103.9,48.8,104.1,49,104.2L49,104.2z"/>
		</g>
		<g>
			<path fill="#1D1E1C" d="M48.9,104c-0.5,1.2-0.4,2.5-0.3,3.7c0.1,0.9,0.3,1.9,1,2.5c0.2,0.1,0.4-0.1,0.4-0.3
				c0.1-0.8-0.3-1.6-0.4-2.4c-0.2-1.2,0-2.3-0.1-3.5C49.5,103.7,49,103.6,48.9,104L48.9,104z"/>
		</g>
		<g>
			<path fill="#1D1E1C" d="M6.6,105c2.3-0.6,4.7-0.1,6.9-0.3c0.2,0,0.3-0.3,0.1-0.4c-1.4-0.4-3-0.3-4.4-0.2c-0.9,0.1-1.9,0-2.8,0.4
				C6.1,104.6,6.3,105,6.6,105L6.6,105z"/>
		</g>
		<g>
			<path fill="#1D1E1C" d="M41.9,103.4c1-0.1,2.1-0.1,3.2-0.1c1.3,0,2.7,0.5,4,0.5c0.2,0,0.3-0.3,0.1-0.4c-0.9-0.7-2.6-0.6-3.7-0.7
				c-1.2-0.1-2.5-0.1-3.6,0.2C41.6,103,41.7,103.5,41.9,103.4L41.9,103.4z"/>
		</g>
		<g>
			<path fill="#1D1E1C" d="M7.8,115.5c-0.2,1.1-0.4,2.6,0.1,3.6c0.1,0.2,0.4,0.1,0.5-0.1c0.1-0.6,0-1.2,0-1.8c0-0.6-0.1-1.2-0.2-1.8
				C8.1,115.3,7.8,115.3,7.8,115.5L7.8,115.5z"/>
		</g>
		<g>
			<path fill="#1D1E1C" d="M17.1,116.9c-0.4,0.1-0.4,0.9-0.5,1.3c-0.1,0.6-0.2,1.5,0.2,2c0.1,0.2,0.3,0.1,0.4-0.1
				c0.2-0.6,0.1-1.2,0.1-1.8c0-0.4,0.2-1,0-1.3C17.2,116.9,17.1,116.9,17.1,116.9L17.1,116.9z"/>
		</g>
		<g>
			<path fill="#1D1E1C" d="M26.5,118.1c0,0.8-0.1,1.6,0.1,2.3c0.1,0.2,0.3,0.2,0.4,0c0.2-0.7,0.1-1.5,0.1-2.3
				C27.2,117.7,26.5,117.7,26.5,118.1L26.5,118.1z"/>
		</g>
		<g>
			<path fill="#1D1E1C" d="M47.6,115.5c0.3,0.6,0.5,1.3,0.5,2c0,0.5-0.1,1.1,0,1.6c0,0.2,0.3,0.2,0.4,0.1c0.7-1.2,0.4-3-0.6-3.9
				C47.8,115,47.5,115.3,47.6,115.5L47.6,115.5z"/>
		</g>
		<g>
			<path fill="#1D1E1C" d="M38.5,117.5c0,0.9-0.2,2,0.1,2.8c0.1,0.2,0.4,0.2,0.4,0c0.3-0.9,0.1-1.9,0.1-2.8
				C39.1,117.1,38.5,117.1,38.5,117.5L38.5,117.5z"/>
		</g>
		<path fill="#D59D89" d="M165.7,137.7c0,0-21.1,10.3-43.5,6.5c0,0-8.1-4.9-9.5-8.1C112.7,136.2,154.8,140.5,165.7,137.7z"/>
		<path fill="#FCCC81" d="M112.6,136.2c0.7,2.1-4.9,2.4-7.8,6.7c-3,4.4-7.9,8.5-7.9,8.5s3.9-12.3,3.8-14.7c-0.2-2.4,3.1-5.6,3.7-4.2
			L112.6,136.2z"/>
		<path fill="#FCCC81" d="M118.1,142.6c0,0-1.3,1.7-2.1,6.6c-0.8,4.8,0,0,0,0l-4.4-4.1c0,0,4.1-3.9,6.6-2.5"/>
		<path fill="#F29313" d="M167.9,144.7c1.2,0.7,2.4,1.4,3.2,2.2c2.5,2.6,5.8,2,6.5,3.5c-0.2,3.7,1.3,5.4,1.3,5.4
			c-2.1,0.3-6.6-2.2-10.8-7.4c0,0-0.8-0.9-2-2.1L167.9,144.7z"/>
		<path fill="#FCCC81" d="M166.1,146.3c-1.4-1.4-3.3-3-5.2-3.7c0,0,0.5-0.3,1.1-0.3c0.4,0,3.2,0.9,5.7,2.2L166.1,146.3z"/>
		<g>
			<path fill="#FEF9E3" d="M174.9,136.5c2.6,3.6,2.6,8.5,4,12.2c0.3,0.9,1.3,1,0.8-0.7c-1.1-3.8-0.6-8.7-3.3-12.4
				C175.3,134.2,173.8,135.1,174.9,136.5L174.9,136.5z"/>
		</g>
		<g>
			<path fill="#E6AF99" d="M203.7,65.2c-1.1-4.3-3.7-7.4-8.5-7.3c0,0.1-2.3,0.5-2.4,0.6c-1.7,2.1-1.3,3.2-2.3,5.6
				c-0.4,1-1.4,2.8-1.3,4c0,0.4-1.4-2.1-2.1-3.4c-0.4-0.9-3.3-8.4-3.3-8.4c-0.9-2.4-1.6-4.3-1.7-7c-0.1-3.5,0-7.7-1.7-10.9
				c-0.1-0.2,0-0.4,0.2-0.4c0.8-2.2-0.5-4.4-2-5.9c-1.3-1.3-2.7-1.9-4.2-2.8c-0.1,0-0.3-0.7-0.3-0.8c-0.7-1.4-4.4-1.8-10.1,1.3
				c-0.5,0.2-1.1,0.6-1.1,1c0,0.3-0.6,0.8-0.7-0.1c-0.7-4.5-7.2-1.7-9.5-1c-0.3,0.1-0.5-0.2-0.4-0.5c0-0.1,0.1-0.1,0.2-0.2
				c-4.5-3.4-9.1,2.3-13.8,2.2c-0.2,0-0.2-0.1-0.2-0.2c-1.6-0.5-2.8-1.8-4.5-2.1c-1.5-0.3-4.6,0.3-4.8,0.3c-1.9-0.3-3.2-1.3-5.3-0.8
				c-1.8,0.5-2.8,1.6-4.1,2.7c-0.2,0.1-0.4,0-0.3-0.2c0-0.1,0.1-0.2,0.1-0.3c0,0,0,0,0,0c-1.6-0.5-2.5-1.8-4.3-2
				c-2.1-0.2-4-0.4-5.1,1.8c-0.1,0.1-0.2,0.1-0.3,0c0,0,0,0,0,0c-1.4,0.3-2.8,0.3-4.1,1c-1.3,0.7-2.7,1.7-3.6,3
				c-1.3,1.8-2.4,6.1-2.6,6.2c-3.1,2.2-3.3,6.9-4.2,10.4c-0.3,1.2-1,3.5-1.6,4.5c-1.3,2.4-4,7.2-4,7.2c-0.3,0.8-0.7,1.7-0.9,2.5
				c-0.3,1.1-0.2,3.1-1.2,3.8c0,0.1-0.2,0-0.2,0.1c0,0.2-0.1,0.5-0.2,0.3c-0.9-1.7-1.8-3.9-2.2-5.7c-0.3-1.2-0.4-2.4-0.7-3.5l0,0
				c-0.3-1.3-0.8-2.2-1.6-2.6c-0.3-0.2-0.6-0.2-0.9-0.3c-4.4,0.1-8.1,4.6-8.8,8.9C72.3,72.1,76,77,81.7,77.9
				c0.2-2.9,0.9-2.7,0.7,0.3c0,0,0.1,12.1,0.9,18c1,7.6,2,17.7,6.5,24.1c11.4,16.1,37.9,20.8,56.3,19.8c14.9-0.8,33.7-4.7,40.8-20.1
				c7-15.4,5.8-44.9,5.9-42.5c0.1-0.1,1.8,0.4,2,0.4C200.3,77.3,205.3,71.3,203.7,65.2z"/>
			<path fill="#D59D89" d="M193.1,70.6c0,0,3.3,7.2,9,2.7c0,0-2.8,4.8-8.6,4.5L193.1,70.6z"/>
			<g>
				<path fill="#F1C9BD" d="M197,59.9c1.6,0.4,2.8,2.5,3.1,3.9c0.2,1.4,2,1.3,1.8-0.1c-0.4-2.5-2.4-4.7-5-4.9
					C195.5,58.8,195.8,59.6,197,59.9z"/>
			</g>
			<g>
				<path fill="#F1C9BD" d="M141.9,84.5c1.2,1.1,1.4,3.5,0.9,4.9c-0.4,1.3,1.2,2.1,1.6,0.8c0.8-2.4,0-5.2-2.2-6.6
					C141,82.8,140.9,83.6,141.9,84.5z"/>
			</g>
			<g>
				<path fill="#F1C9BD" d="M187.3,89.3c0.5,7-1.2,15.1-2.9,22.6c-2.8,12.1-11.5,20.3-22.9,23.5c-1.7,0.5-1.7,1.9,0,1.4
					c11-3.1,19.5-9,24.2-19.7c3.6-8.3,4.9-19.4,4.9-28.4c0-1.2-1.1-1.4-1.9-1.2C187.3,87.8,187.2,88.5,187.3,89.3z"/>
			</g>
			<path fill="#D59D89" d="M183.1,64.1c-0.1-0.5-0.2-1-0.4-1.3c-0.7-1.2-2.1-1.5-3.6-1.7c-3.8-0.5-7.9-0.2-11.8-0.1
				c-4.4,0-7.5,0.1-11.9,0.3c-3,0.1-5.8,0.6-8.3,2.3c0,0,0,0,0,0c0,0,0,0,0,0c-0.1,0-0.1,0.1-0.2,0.1c-0.1,0.1-0.2,0.1-0.2,0.2
				c-0.5,0.3-1.1,0.2-1.5,0.1c-1.9-0.4-4.2-0.6-6.7-0.6c-1.5,0-3.1,0.2-5.3,0.8c-1.3,0.4-1.8-0.4-2.1-0.6c-2.6-1.9-5.5-2.3-8.6-2.4
				c-4.4-0.2-7.5-0.3-11.9-0.3c-3.9,0-7.9-0.3-11.8,0.1c-1.6,0.2-2.9,0.5-3.6,1.7c-0.2,0.3-0.3,0.8-0.4,1.4
				c-4.3-1.8-11.2-3.8-11.6-3.7l1.2,0.8c0,0.5,0.2,1.5,0.6,1.9c0,0.2,0.1,0.5,0.3,0.6c3.7,1.9,7,4,8.9,5.2c0.1,0.1,0.2,0.2,0.3,0.2
				c0,3.8,0.3,8.2,0.5,10.8c0.2,3.1,1.2,6.5,4.1,8.2c3.5,2,8.3,2.2,12.2,2.5c2.5,0.2,3.4,0.3,5.9,0.2c1.1,0,2.1-0.3,3.2-0.4
				c1.1-0.2,2.1-0.5,3.2-0.7c1-0.2,2-0.5,3-0.8c0.9-0.3,1.6-0.3,2.3-0.9c1.1-0.9,1.7-2.1,1.9-3.5c0.9-4.8,2-9.3,2-14.1
				c0-0.7,0.9-1.2,1.3-1.3c1.5-0.4,2.6-0.4,4.8-0.5c1.3,0,2.6,0.1,4.8,0.4c0.2,0,0.4,0.1,0.5,0.1c0,0,0,0,0.1,0
				c0.8,0.3,0.8,0.9,0.8,1.2c0,0,0,0.1,0,0.1c0,4.8,1.1,9.4,2,14.1c0.3,1.3,0.8,2.6,1.9,3.5c0.7,0.6,1.5,0.6,2.3,0.9
				c1,0.3,2,0.6,3,0.8c1.1,0.2,2.1,0.6,3.2,0.7c1.1,0.2,2.1,0.4,3.2,0.4c2.5,0.1,3.4,0,5.9-0.2c3.9-0.3,8.7-0.5,12.2-2.5
				c2.9-1.7,4-5.1,4.1-8.2c0.2-2.7,0.5-7.4,0.5-11.3c1.9-1.2,4.7-2.9,7.9-4.6C191.5,64.2,187.1,62.6,183.1,64.1z M146.8,64.9
				c0,0-0.1,0.1-0.1,0.1c0,0,0,0,0,0C146.8,65,146.8,64.9,146.8,64.9z M131.3,65.2c0,0,0-0.1-0.1-0.1c-0.1-0.1-0.1-0.2-0.2-0.3
				c0.2,0.1,0.3,0.3,0.4,0.4C131.4,65.2,131.3,65.2,131.3,65.2z"/>
			<g>
				<path fill="#C6C5C4" d="M197.7,50.6c-0.4-1.1-4.5-7.1-2.4-7.9c0,0,0,0,0,0c0.1,0.2,0.5,0.2,0.5-0.1c-0.3-2.4-1.1-4.5-2.6-6.4
					c-1.9-2.3-1.3-5.8-0.8-8.4c0.1-0.1,0.2-0.2,0.1-0.3c-1.2-3.8-5.6-6.5-4.4-10.9c0.1,0,0.2-0.2,0.1-0.4c-1.3-1.5-3.4-2.2-5.1-3.1
					c-1.2-0.6-2.2-1.4-3-2.6c-0.6-0.9-0.7-1.9-1-2.8c0.1-0.1,0.1-0.2,0.1-0.3c-1.2-2.1-4.9-1.7-6.8-1.5c-1.8,0.1-3.9,0.5-5.9,0.6
					c-1.5-0.3-3.8-0.7-5.3-0.9c-0.4-0.2-1.2-0.4-1-0.2c-0.4-0.1-0.6-0.1-0.7-0.2c-4.2-5.3-13.5,1.1-17.7-5c-0.1-0.1-0.3,0-0.3,0.1
					c0,0.1,0.1,0.1,0.1,0.2c-0.4,1-2.8,2.5-4.2,3.3c-1.4,0.7-2-0.4-3.5-0.1c-2.5-1.1-5.3-0.5-7.9-0.4c-1.4,0.1-6.2,2.6-7,0.8
					c0-0.1-0.2,0-0.2,0.1c0.1,0.2-0.2-0.3-0.4-0.3c-5.2,1.7-9.8,1.8-15.1,0.6c-0.1-0.3-0.1-0.6-0.3-0.9c-0.1-0.2-0.4-0.1-0.4,0.1
					c0,0.2,0,0.4-0.1,0.6c0,0-0.1,0-0.1,0c-0.1,0-0.1,0.1-0.1,0.1c0,0,0.1,0,0.1,0.1c-0.7,6.1-9.2,6.7-12.6,11.2c-0.2,0-0.4,0-0.4,0
					c-0.5,1.2-0.9,2.5-1.4,3.7c-0.6,1.4-2.5,2.5-3.4,3.7c-1.4,1.8-0.8,4.5-1.9,6.4c-0.1,0-0.2,0-0.3,0.1c-0.8,1.6-0.8,3.4-0.8,5.2
					c-0.1,1-0.3,2-0.2,3.1c0.1,1.4,1.1,2.5-0.5,3.6c0,0,0,0,0,0c-0.1-0.3-0.5-0.1-0.5,0.1c-0.6,5.3-4,10.8-1.5,16.1
					c0.1,0.1,0.9-0.3,0.9-0.3l4.1,0.7c0,0,3.7,10.8,3.7,10.8c1-5.1,4.9-11,4.9-11c1.9-1.1,2.2-4.5,2.7-6.4c0.9-3.5,1.4-8.3,4.5-10.5
					c0.2-0.1,0.1-0.3,0-0.4c0.9-1.9,1.2-4,2.5-5.8c0.9-1.2,2.1-2.2,3.4-2.9c1.3-0.7,2.7-0.7,4.1-1c0,0,0,0,0,0
					c0.1,0.1,0.2,0.1,0.3,0c1.1-2.2,3-2.1,5.1-1.8c1.7,0.2,2.7,1.5,4.3,2c0,0,0,0,0,0c0,0.1-0.1,0.2-0.1,0.3
					c-0.1,0.2,0.1,0.4,0.3,0.2c1.4-1.1,2.4-2.3,4.1-2.7c2.1-0.6,3.7,0.8,5.6,1.1c0.2,0,0.3-0.2,0.2-0.3c-0.1-0.1-0.1-0.1-0.2-0.2
					c1.4,0.3,2.9-0.4,4.4-0.1c1.6,0.3,2.9,1.6,4.5,2.1c0,0.1,0.1,0.2,0.2,0.2c4.7,0.1,9.2-5.6,13.8-2.2c-0.1,0.1-0.1,0.1-0.2,0.2
					c-0.1,0.2,0.1,0.6,0.4,0.5c2.3-0.7,8.6-3.2,10.2,1c0.1,0.3,0.6,0.2,0.7-0.1c0,0,0,0,0,0c1.9-0.8,3.4-2,5.4-2.6
					c0.5-0.1,5.7-0.8,5.4,0.8c0,0.1,0.1,0.1,0.1,0c1.5,0.9,3,1.9,4.3,3.2c1.5,1.6,2.8,3.8,2,5.9c-0.2,0-0.3,0.2-0.2,0.4
					c1.8,3.2,1.6,7.3,1.7,10.9c0.1,3.3,1,5.3,2.1,8.3c0,0,0,0,0,0v0h0c0,0,0,0,0.1,0h0.3c0.4,1.4,1,3.3,2.3,5.5
					c1.3,2.4,1.8,3.6,2,4.3c0.6-1.8,2.5-7.3,4.6-9.8l4.1,0c0.1,0.1,0.3,0.1,0.4,0h0.2v-0.3h0C198.8,55.3,198.5,53,197.7,50.6z"/>
			</g>
			<g>
				<path fill="#B1B1B1" d="M100.1,29.5c2.9-4.8,0.8-9.2,2.6-11.3c2.8-3.5,1.9-13.3,0.6-13.6c-0.1-0.3-0.1-0.6-0.3-0.9
					c-0.1-0.2-0.4-0.1-0.4,0.1c0,0.2,0,0.4-0.1,0.6c0,0-0.1,0-0.1,0c-0.1,0-0.1,0.1-0.1,0.1c0,0,0.1,0,0.1,0.1
					c-0.7,6.1-9.2,6.7-12.6,11.2c-0.2,0-0.4,0-0.4,0c-0.5,1.2-0.9,2.5-1.4,3.7c-0.6,1.4-2.5,2.5-3.4,3.7c-1.4,1.8-0.8,4.5-1.9,6.4
					c-0.1,0-0.2,0-0.3,0.1c-0.8,1.6-0.8,3.4-0.8,5.2c-0.1,1-0.3,2-0.2,3.1c0.1,1.4,1.1,2.5-0.5,3.6c0,0,0,0,0,0
					c-0.1-0.3-0.5-0.1-0.5,0.1c-0.6,5.3-4,10.8-1.5,16.1c0.1,0.1,0.9-0.3,0.9-0.3l4.1,0.7c0,0,3.7,10.8,3.7,10.8
					c1-5.1,4.9-11,4.9-11c1.9-1.1,2.2-4.5,2.7-6.4c0.9-3.5,2.9-10.7,2.8-10.8C100.3,36.2,97.5,33.7,100.1,29.5z"/>
			</g>
			<path fill="#D59D89" d="M145.7,140.4c-18.4,1-44.9-3.7-56.3-19.8c-4.6-6.4-5.6-16.6-6.5-24.1c-0.8-6-0.9-18-0.9-18
				c0.1-3-0.5-3.2-0.7-0.3c-5.7-0.9-8.7-5.7-8.3-11.7c0.7-10.9,10.5-8.5,10.8-8.3c0.8,0.5,1.3,2.4,1.3,2.4c0.2,1.2,0.4,2.3,0.7,3.5
				c0.4,1.9,0.6,2.6,1.5,4.3c0.1,0.2,0.8-0.2,0.8,0.6c0,0.1-0.3,0.5-0.3,0.4c1-0.7,0.9-2.7,1.2-3.8c0.2-0.8,0.6-1.7,0.9-2.5
				c0,0,2.7-4.8,4-7.2c0.6-1.1,1.3-3.3,1.6-4.5c0.9-3.5,1.1-8.2,4.2-10.4c0,0-13.9,32.2-7.1,65.8
				C99.3,141.1,145.7,140.4,145.7,140.4z"/>
			<path fill="#C6C5C4" d="M198.5,77.2C198.5,77.2,198.5,77.1,198.5,77.2c-1.1,0.5-1.3,2.8-1.4,3.8c-0.2,2.5,0.5,4.9,1.6,7.1
				c-1.1,0.9-1.4,2.3-1.7,3.7c-0.7,2.6-3,3.7-4.7,5.5c-0.1,0.1,0-1.4,0.8-10.1c0.3-3.3,0.1-5.6,0.1-7.3
				C193.1,77.8,198.3,76.7,198.5,77.2z"/>
			<path fill="#B1B1B1" d="M83.7,99.8c-0.5-0.9-1.6-0.6-2.1-1.5c-0.7-1-1.6-3.2-1.9-4.4c-0.3-1.2-0.3-3-1.8-2.9
				c-0.1-2.6,0.1-5.1,0.4-7.6c0.3-2.1,0.5-4-0.1-5.9c0-0.1,3.1,0.2,3.9,0.6c1.1,0.5,0,8.6,0.1,9.9C82.8,96.4,83.7,99.9,83.7,99.8z"
				/>
			<g opacity="0.8">
				<path fill="#DA9085" d="M106.1,81c-0.4,0-0.8,0-1.2,0.1c-3.3-0.4-6.7,0.3-9.2,1.9c-0.9,0.6-1.6,1.6-1.8,2.7
					c-0.7,1-0.4,2.3,0.3,3.1c0.1,0.2,0.2,0.3,0.3,0.5c1.8,2.7,5,3.3,7.7,3.5c0.9,0.1,2.1,0.1,3.4,0.1c0.3,0.3,0.7,0.5,1.2,0.6
					c4,0.5,10.3-0.6,10.6-6.7C117.7,81.7,109.8,80.2,106.1,81z"/>
			</g>
			<g opacity="0.8">
				<path fill="#DA9085" d="M168.9,81.3c0.4,0,0.8,0,1.2,0.1c3.3-0.4,6.7,0.3,9.2,1.9c0.9,0.6,1.6,1.6,1.8,2.7
					c0.7,1,0.4,2.3-0.3,3.1c-0.1,0.2-0.2,0.3-0.3,0.5c-1.8,2.7-5,3.3-7.7,3.5c-0.9,0.1-2.1,0.1-3.4,0.1c-0.3,0.3-0.7,0.5-1.2,0.6
					c-4,0.5-10.3-0.6-10.6-6.7C157.4,82,165.3,80.5,168.9,81.3z"/>
			</g>
			<g>
				<path fill="#1D1E1C" d="M87.7,69.6c1.1-0.7,1.4-3.2,1.7-4.3c0.3-1,0.7-2.1,1.2-3c0.3-0.5-0.5-0.9-0.5-0.9
					c-1.4,1.9-2.5,6.8-2.2,7.8c0,0,0,0,0,0L87.7,69.6z"/>
			</g>
			<g>
				<path fill="#1D1E1C" d="M187.3,64.7c0.6,1.4,1.8,3.7,1.9,4.1c0.1,0.4,0.4,0.3,0.4,0c0-1.2-0.6-2.5-1.1-3.6
					c-0.6-1.4-0.9-2.7-2-3.7c-0.3-0.2-0.6,0.4-0.5,0.4C186,61.9,186.8,63.6,187.3,64.7z"/>
			</g>
			<g>
				<path fill="#D59D89" d="M106.3,54.5c1.3-0.2,2.4-1.1,3.4-1.8c1.5-0.9,2.9-2,4.4-3c0.6-0.4,0.1-1.3-0.5-1.1
					c-1.9,0.5-3.4,1.1-5,2.3c-1,0.8-2.3,1.8-2.6,3.1C105.9,54.3,106.1,54.6,106.3,54.5L106.3,54.5z"/>
			</g>
			<g>
				<path fill="#D59D89" d="M169.6,54.8c-0.2-1.3-1.5-2.5-2.5-3.2c-1.5-1.2-3.1-1.9-4.9-2.5c-0.7-0.2-1.1,0.7-0.5,1.1
					c1.5,1,2.8,2.1,4.3,3.1c1,0.7,2.1,1.7,3.3,1.9C169.5,55.2,169.7,55,169.6,54.8L169.6,54.8z"/>
			</g>
			<g>
				<path fill="#1D1E1C" d="M82.9,69.2c-2,8.9-1.4,18.3-0.5,27.3c0.9,8.2,2.2,17.3,6.6,24.5c9.5,15.7,35.4,20.4,52.1,20.6
					c16,0.2,34.7-3.2,44.3-17.2c4.6-6.7,5.7-15.4,7-23.2c1.7-10,2.4-20.4,1.5-30.5c0-0.5-0.7-0.5-0.8,0c-1.1,16.4,0,34.5-7.2,49.8
					c-7,14.9-25,18.9-40,19.7c-18.4,1-44.6-3.7-56-19.8c-4.6-6.4-5.5-16.3-6.5-23.9c-1.1-8.9-1.5-18.3,0.1-27.1
					C83.7,68.9,83,68.7,82.9,69.2L82.9,69.2z"/>
			</g>
			<g>
				<path fill="#1D1E1C" d="M193.4,58.7c5.5-2,9.4,2.1,9.8,7.5c0.5,6.2-3.1,10.9-8.7,11.5c-0.5,0.1-0.7,0.9-0.1,0.9
					c6.8,0.1,10-5.9,10.1-11.9c0.1-6.7-6.4-11.9-11.9-8.4C192.3,58.5,193.4,58.7,193.4,58.7z"/>
			</g>
			<g>
				<path fill="#1D1E1C" d="M79.4,63.7c-2.3,0.5-2.4,5.8-0.6,6.8c0.1,0.1,0.3,0,0.3-0.2c0-0.5-0.1-0.9-0.3-1.4
					c-0.2-0.6-0.2-1.3-0.2-1.9c0-1.2,0.5-2.1,1-3C79.7,63.9,79.6,63.7,79.4,63.7L79.4,63.7z"/>
			</g>
			<g>
				<path fill="#1D1E1C" d="M197.6,63.7c0.4,1.1,0.9,2,1,3.2c0.1,1.4-0.5,2.4-0.9,3.7c-0.1,0.4,0.4,0.8,0.7,0.6
					c2.2-1.4,2-6.6-0.4-7.8C197.8,63.2,197.5,63.4,197.6,63.7L197.6,63.7z"/>
			</g>
			<g>
				<path fill="#1D1E1C" d="M91.4,60.5c2.3-0.9,3.9-7.1,4.4-9.1c0.9-3.5,1-8.3,4.1-10.5c0.2-0.1,0.2-0.4,0-0.5
					c-4.3-2.1-5.5,18-9.3,19.6C90.5,60,91.4,60.5,91.4,60.5z"/>
			</g>
			<g>
				<path fill="#1D1E1C" d="M99.9,40.6c1-2,1.2-4.1,2.6-6c0.9-1.2,2.1-2.2,3.4-2.9c1.3-0.7,2.7-0.7,4.1-1c0.3-0.1,0.3-0.6,0-0.7
					c-2.8-0.7-5.8,1.3-7.6,3.2c-1.6,1.7-3.5,5-2.7,7.4C99.7,40.7,99.8,40.7,99.9,40.6L99.9,40.6z"/>
			</g>
			<g>
				<path fill="#1D1E1C" d="M110.2,30.6c1.1-2.2,3-2.1,5.1-1.8c1.7,0.2,2.7,1.5,4.3,2c0.2,0.1,0.4-0.2,0.3-0.4
					c-1.2-1.9-3.4-2.4-5.5-2.6c-1.7-0.1-5.1,0.3-4.5,2.7C109.9,30.7,110.1,30.8,110.2,30.6L110.2,30.6z"/>
			</g>
			<g>
				<path fill="#1D1E1C" d="M185.7,60.5c0.2-1.1-1.3-4.4-1.7-5.4c-1.1-2.4-1-4.7-1-7.3c-0.1-3,0-6.9-2-9.4c-0.2-0.3-0.6,0.1-0.5,0.4
					c1.8,3.2,1.7,7.3,1.7,10.9c0,4.7,2,7.9,3.1,11C185.3,60.6,185.7,60.5,185.7,60.5z"/>
			</g>
			<g>
				<path fill="#1D1E1C" d="M180.8,38.6c1.7-1.7,0.4-4.2-0.7-5.8c-1-1.4-3.6-4.2-5.6-3.8c-0.2,0-0.2,0.3-0.1,0.4
					c1.5,0.9,2.9,1.5,4.2,2.8c1.6,1.6,2.9,3.9,1.9,6.2C180.5,38.6,180.7,38.7,180.8,38.6L180.8,38.6z"/>
			</g>
			<g>
				<path fill="#1D1E1C" d="M174.4,29.1c1-1.4-2.1-1.7-2.8-1.8c-3-0.4-6.5,0.9-8.6,3.1c-0.3,0.3,0.1,0.6,0.4,0.5
					c1.9-0.8,3.5-2.1,5.5-2.6C169.4,28.1,174.6,27.4,174.4,29.1C174.3,29.1,174.3,29.1,174.4,29.1L174.4,29.1z"/>
			</g>
			<g>
				<path fill="#1D1E1C" d="M162.7,30.8c0-2.2-1.8-3.1-3.8-3.3c-1.8-0.2-5.5,0.1-6.5,1.9c-0.1,0.2,0.1,0.6,0.4,0.5
					c2.3-0.7,9.2-3.6,9.5,1C162.2,31.1,162.7,31.1,162.7,30.8L162.7,30.8z"/>
			</g>
			<g>
				<path fill="#1D1E1C" d="M153.2,29.3c-1.3-2.1-3.6-2.3-5.8-1.9c-2.8,0.5-6.3,1.9-8.7,3.5c-0.2,0.1-0.1,0.5,0.1,0.5
					c4.8,0.1,9.5-6.1,14.2-1.9C153.1,29.6,153.3,29.5,153.2,29.3L153.2,29.3z"/>
			</g>
			<g>
				<path fill="#1D1E1C" d="M119.8,31.2c1.4-1.1,2.4-2.3,4.1-2.7c2.1-0.6,3.7,0.8,5.6,1.1c0.2,0,0.3-0.2,0.2-0.3
					c-2.7-3.1-8.6-1.8-10.3,1.8C119.4,31.2,119.6,31.4,119.8,31.2L119.8,31.2z"/>
			</g>
			<g>
				<path fill="#1D1E1C" d="M129.3,29c1.5,0.4,3.1-0.3,4.7,0c1.6,0.3,2.9,1.6,4.5,2.1c0.4,0.1,0.7-0.5,0.3-0.7
					c-2.6-1.6-6.5-3.9-9.5-1.6C129.2,28.9,129.2,29,129.3,29L129.3,29z"/>
			</g>
			<path fill="#1D1E1C" d="M83.7,99.9c-0.5-0.9-1.4-1.6-1.9-2.5c-0.7-1-1.1-2.3-1.4-3.5c-0.3-1.2-0.5-3-2.1-2.9
				c-0.1-2.6,0.3-5,0.6-7.5c0.3-2.1,0.3-4-0.7-5.9c-0.1-0.2-0.3-0.1-0.3,0.1c1.1,4.6-1.5,9.2-0.1,13.5c0,0.1,0.1,0.1,0.1,0.1
				c1,0.7,1.2,1.3,1.4,2.4c0.2,1,0.6,2,1,2.9c0.6,1.4,1.6,3.1,3.1,3.6C83.6,100.3,83.8,100.1,83.7,99.9z"/>
			<g>
				<path fill="#1D1E1C" d="M198,77.3c-1,0.6-1.2,2.9-1.3,3.8c-0.2,2.6,0.5,4.9,1.6,7.2c0.2,0.3,0.7,0.1,0.6-0.2
					c-0.6-2.1-1.5-4-1.5-6.3C197.4,80.3,197.9,78.8,198,77.3C198.1,77.3,198,77.3,198,77.3L198,77.3z"/>
			</g>
			<g>
				<path fill="#1D1E1C" d="M198.5,88.1c-1.3,0.9-1.5,2.4-1.9,3.8c-0.7,2.6-3,3.7-4.7,5.5c-0.2,0.2,0.1,0.6,0.4,0.5
					c1.6-0.8,3.1-2.3,4.1-3.8c1.2-1.7,0.9-4.2,2.5-5.7C199,88.3,198.7,88,198.5,88.1L198.5,88.1z"/>
			</g>
			<g>
				<path fill="#1D1E1C" d="M79,57.2c-0.8-3.8-0.1-6.5,1.4-9.9c0.7-1.8,1.6-4.1,0.7-5.9c-0.1-0.3-0.5-0.1-0.5,0.1
					c-0.6,5.3-4.4,10.5-1.8,15.8C78.8,57.4,79,57.3,79,57.2L79,57.2z"/>
			</g>
			<g>
				<path fill="#1D1E1C" d="M81.1,41.8c1.7-0.4,1.8-1.5,1.4-3.1c-0.7-2.9,0.5-6.1,0.5-9c0-0.2-0.4-0.4-0.5-0.1
					c-0.8,1.6-0.8,3.4-0.8,5.2c-0.1,1-0.3,2-0.2,3.1c0.1,1.4,1.1,2.6-0.6,3.7C80.8,41.6,80.9,41.9,81.1,41.8L81.1,41.8z"/>
			</g>
			<g>
				<path fill="#1D1E1C" d="M82.8,29.8c2.1-1.6,1.4-4.9,3.1-6.9c2-2.4,4.1-3.6,3.9-7.1c0-0.2-0.3-0.3-0.4-0.1
					c-0.5,1.2-0.9,2.5-1.4,3.7c-0.6,1.4-2.5,2.5-3.4,3.7c-1.4,1.9-0.7,4.7-2,6.7C82.7,29.8,82.8,29.8,82.8,29.8L82.8,29.8z"/>
			</g>
			<g>
				<path fill="#1D1E1C" d="M90,15.7c3.3-2.5,7.1-3.8,10.4-6.2c1.9-1.3,3.7-3.6,2.6-6c-0.1-0.2-0.4-0.1-0.4,0.1
					C102.6,10.6,93.4,10.9,90,15.7C89.9,15.6,89.9,15.7,90,15.7L90,15.7z"/>
			</g>
			<g>
				<path fill="#1D1E1C" d="M102.4,4.4c2.2,1.6,5.5,1.7,8.1,1.8c2.5,0,6.1-0.1,8-2c0.1-0.1,0-0.4-0.2-0.3
					c-5.5,1.8-10.3,1.8-15.9,0.4C102.4,4.2,102.3,4.3,102.4,4.4L102.4,4.4z"/>
			</g>
			<g>
				<path fill="#1D1E1C" d="M119,4c0.5,1.6,2.3,1,3.2,0.7c1.2-0.3,2.3-0.8,3.5-1c2-0.3,4,0,6,0c0.2,0,0.2-0.4,0-0.5
					c-2.3-1.2-4.8-0.7-7.1-0.2c-1.1,0.2-4.7,2.9-5.6,1C119.1,3.8,119,3.9,119,4L119,4z"/>
			</g>
			<g>
				<path fill="#1D1E1C" d="M141.6,0.2c0.9,2.4,3.2,3.3,5.7,3.6c4.2,0.4,8.1-0.2,12,1.7c0.3,0.1,0.5-0.2,0.3-0.4
					c-4.2-5.3-13.5,1.1-17.7-5C141.8-0.1,141.5,0,141.6,0.2L141.6,0.2z"/>
			</g>
			<g>
				<path fill="#1D1E1C" d="M159.8,4.6c1.6,2.5,4.9,2.4,7.5,2.3C171.5,6.8,175,6,179,7.6c0.2,0.1,0.4-0.2,0.3-0.4
					c-1.2-2.1-4.9-1.7-6.8-1.5c-4,0.3-9.2,1.7-12.5-1.3C159.9,4.4,159.7,4.5,159.8,4.6L159.8,4.6z"/>
			</g>
			<g>
				<path fill="#1D1E1C" d="M178.7,7.1c0,5.4,5.4,7.1,9.3,9.4c0.2,0.1,0.4-0.2,0.3-0.4c-1.3-1.5-3.4-2.2-5.1-3.1
					c-1.2-0.6-2.2-1.4-3-2.6c-0.7-1-0.7-2.4-1.2-3.5C178.9,6.9,178.7,6.9,178.7,7.1L178.7,7.1z"/>
			</g>
			<g>
				<path fill="#1D1E1C" d="M188,16.4c-3.4,1.5,2.6,10,4,11.4c0.2,0.2,0.6,0,0.5-0.3c-1.3-3.8-5.7-6.5-4.4-11
					C188.2,16.4,188.1,16.3,188,16.4L188,16.4z"/>
			</g>
			<g>
				<path fill="#EEEEEE" d="M185.3,20.5c-2.3,3.1,1.7,8.6,3.2,9.1c0.8,0.3,1.1,0.1,0.9-0.5c-1.4-2.9-4.7-4.9-3.7-8.5
					C185.7,20.5,185.3,20.5,185.3,20.5L185.3,20.5z"/>
			</g>
			<g>
				<path fill="#1D1E1C" d="M192.1,27.4c-1.3,2.3-0.8,4.8-0.5,7.2c0.1,0.5,0.3,1,0.7,1.4c1.7,2.1,2.2,4.1,3.2,6.5
					c0.1,0.2,0.5,0.2,0.5-0.1c-0.3-2.4-1.1-4.5-2.6-6.4c-1.9-2.3-1.2-5.9-0.8-8.6C192.5,27.4,192.2,27.2,192.1,27.4L192.1,27.4z"/>
			</g>
			<g>
				<path fill="#EEEEEE" d="M189,35.3c1.6,0.7,2.9,2.5,3.4,4c0.8,2.5,0.6,4.7,0.2,5.3c-0.4,0.7-0.6,0.5-0.7,0.3
					c-0.6-1.4-0.4-2.9-0.6-4.5c-0.2-2-1.3-3.6-2.5-4.9C188.7,35.4,188.8,35.2,189,35.3L189,35.3z"/>
			</g>
			<g>
				<path fill="#EEEEEE" d="M193.7,47.8c1.5,0.8,1.9,2.8,2.2,4.2c0.6,2.5,0.6,4.1,0.2,4.7c-0.4,0.6-1.5,0.2-1.6,0.1
					c-0.5-1.4,0-2.7,0.2-4.2c0.2-1.4-0.2-3.2-1.2-4.5C193.5,47.9,193.6,47.8,193.7,47.8L193.7,47.8z"/>
			</g>
			<g>
				<path fill="#1D1E1C" d="M195.5,42.4c-0.2,0-0.3-0.1-0.5-0.1c-0.1,0-0.2,0-0.2,0.1c-0.9,1.3-0.4,2.9,0.2,4.2
					c1.7,3.8,3.6,6.5,2.5,11c-0.1,0.4,0.5,0.5,0.6,0.2c0.8-2.5,0.4-4.8-0.3-7.3c-0.4-1.2-4.8-7.4-2.2-7.9
					C195.6,42.5,195.6,42.4,195.5,42.4L195.5,42.4z"/>
			</g>
			<g>
				<path fill="#1D1E1C" d="M112,129.9c15.2,5.2,32.9,6.8,48.6,2.6c0.5-0.1,0.3-0.9-0.2-0.8c-16.6,2.9-32,2.6-48.3-2
					C111.9,129.7,111.9,129.9,112,129.9L112,129.9z"/>
			</g>
			<g>
				<path fill="#1D1E1C" d="M139.9,83c3.7-1.7,6,4.3,5.3,6.9c-0.9,3.5-5.1,4.9-8.3,4.4c-0.5-0.1-0.7,0.6-0.2,0.8
					c4.4,1.8,9.2-1.6,9.8-6.1c0.4-3.1-3.4-8.4-6.8-6.2C139.4,82.7,139.6,83.1,139.9,83L139.9,83z"/>
			</g>
			<g>
				<path fill="#1D1E1C" d="M141.3,0.5c-1.2,1.1-2.1,2.3-3.8,2.8c-1.9,0.6-3.5-0.5-5.4-0.7c-0.2,0-0.3,0.2-0.2,0.3
					c2.8,2.8,8.3,1.3,9.6-2.2C141.6,0.5,141.4,0.4,141.3,0.5L141.3,0.5z"/>
			</g>
			<g>
				<path fill="#E1F2FC" d="M152.8,84.1c4.2,1.1,6.9,2.1,11.2,2c5.3-0.2,10.6-1.6,15.6-4.6c0.1,0.1,0.3,0.1,0.3-0.1
					c0.3-5.5,0.1-18.8,0-18.9c0,0-4.9-1.9-8.3-2c-5.5-0.2-13.4-0.2-18.7,1.4c-0.3-0.1-5.6,2-5.7,2.4c-0.3,1.6,0.6,14.2,2.4,16.1
					C149.5,80.6,152.5,84,152.8,84.1z"/>
				<path fill="#C79B66" d="M96.5,68.1c0,0-6.7-5.6-11.4-7.7c-0.8-0.3-0.8-2.3-0.8-2.3c1.7,0.2,5.1,1.7,11.2,4.5L96.5,68.1z"/>
				<path fill="#1D1D1B" d="M95.9,67.4c0,0-4.7-3.4-10.7-6.4c-0.4-0.2-0.4-1-0.4-1s6.8,3.4,10.9,5.8C97.8,68.9,95.9,67.4,95.9,67.4z
					"/>
				<path fill="#1D1D1B" d="M96.1,61.9C92.2,60,83.6,57.5,83,57.6l1.4,1c0.5,0,8,2.9,11.6,4.8C96,62.8,96,62.4,96.1,61.9z"/>
				<path fill="#C79B66" d="M180,68.6c0,0,6.7-5.6,11.4-7.7c0.8-0.3,1.9-1.7,0.3-1.8c-1.7-0.1-4.6,1.2-10.7,4L180,68.6z"/>
				<path fill="#1D1D1B" d="M180.6,67.9c0,0,4.7-3.4,10.7-6.4c0.4-0.2,0.4-1,0.4-1s-6.8,3.4-10.9,5.8
					C178.7,69.4,180.6,67.9,180.6,67.9z"/>
				<path fill="#1D1D1B" d="M180.3,62.5c3.9-1.9,11.7-4.2,12.3-4.1l-0.6,0.7c-0.5,0-8,2.9-11.6,4.8
					C180.4,63.4,180.4,62.9,180.3,62.5z"/>
				<path fill="#C79B66" d="M132.2,67.2c0,0,3.4-4.4,13.4-0.2l3.5-3c0,0,0.6-2.3-8.5-2.5c-9.1-0.2-10.8,1.6-10.8,1.6L132.2,67.2z"/>
				<path fill="#E1F2FC" d="M128.1,80.3c1.8-2,2.6-14.5,2.4-16.1c-0.1-0.3-5.4-2.4-5.7-2.4c-5.3-1.6-13.2-1.5-18.7-1.4
					c-3.4,0.1-8.2,2-8.3,2c-0.1,0-0.3,13.3,0,18.9c0,0.2,0.2,0.2,0.3,0.1c5,3.1,10.3,4.4,15.6,4.6c4.2,0.2,7-0.9,11.2-2
					C125.2,84,128.3,80.5,128.1,80.3z"/>
				<path fill="#C79B66" d="M131.2,62.2c-2.8-4.7-30.4-4.7-35.7-2.2c0,0-2.3,20.4,2.5,24.2c4.8,3.8,16,3.7,20.8,3.4
					c4.8-0.3,7.7-1.1,9.6-2.7C130.4,83.2,134,66.9,131.2,62.2z M128,69.3c-0.4,3.5-0.9,6.9-1.5,10.4c-0.2,1-0.6,2-1.4,2.6
					c-0.6,0.5-1.2,0.6-1.8,0.8c-0.7,0.2-1.5,0.4-2.2,0.6c-0.8,0.2-0.6,0.1-1.4,0.3c-0.9,0.1-2,0.5-2.8,0.6c-1.9,0.1-2.9,0-4.8-0.2
					c-3-0.3-6.8-0.4-9.4-1.9c-2.2-1.3-2.8-4-3.1-6.3c-0.5-3.5-0.7-11.6,0.2-13.2c0.5-0.9,1.6-1.1,2.7-1.3c2.9-0.3,6-0.1,9-0.1
					c3.4,0,5.4,0.1,8.7,0.2c2.2,0.1,4.4,0.4,6.2,1.7l0,0c0,0,0,0,0,0c0.1,0.1,0.2,0.1,0.3,0.2c0,0,0,0,0,0.1
					c0.8,0.5,1.2,1.4,1.4,2.4C128.1,67.1,128.1,68.3,128,69.3z"/>
				<path fill="#1D1D1B" d="M132.8,67.7c0-0.7-0.9-0.6-1,0.2c-0.1,3.7-1.8,13.1-2.3,14.6c-0.3,0.8-0.7,1.3-1.2,2
					c-0.5,0.7-1.7,1-2.5,1.2c-0.9,0.2-4.8,1.4-8.9,1.7c-2.3,0.2-7.3-0.3-8.3-0.4c-2.1-0.3-4.4-0.7-6.5-1.3c-0.4-0.1-0.8-0.2-1.2-0.3
					c-5-1.5-5.4-7.3-5.5-11.7c-0.1-4.2-0.2-12.4,0.4-13.2c0.9-1.2,5.5-1.6,8-1.6c3.1,0,6.3,0,9.4,0.1c5.7,0.2,12.5-0.3,17.4,2.8
					c0.9,0.6,1.2-0.3,0.4-0.9c-2.6-1.9-5.5-2.3-8.6-2.4c-4.4-0.2-7.5-0.3-11.9-0.3c-3.9,0-7.9-0.3-11.8,0.1
					c-1.6,0.2-2.9,0.5-3.6,1.7c-1.2,2.1-0.5,12.7-0.2,17.3c0.2,3.1,1.2,6.5,4.1,8.2c3.5,2,8.3,2.2,12.2,2.5c2.5,0.2,3.4,0.3,5.9,0.2
					c1.1,0,2.1-0.3,3.2-0.4c1.1-0.2,2.1-0.5,3.2-0.7c1-0.2,2-0.5,3-0.8c0.9-0.3,1.6-0.3,2.3-0.9c1.1-0.9,1.7-2.1,1.9-3.5
					C131.7,77.1,132.8,72.6,132.8,67.7z"/>
				<path fill="#1D1D1B" d="M128.3,66.1c-0.1-1-0.6-1.8-1.4-2.4c0,0,0,0,0-0.1c-0.1-0.1-0.2-0.1-0.3-0.2c0,0,0,0,0,0l0,0
					c-1.9-1.2-4.1-1.6-6.3-1.7c-3.4-0.2-5.4-0.2-8.9-0.2c-3,0-6.1-0.2-9.1,0.1c-1.2,0.1-2.3,0.4-2.8,1.3c-1,1.6-0.7,9.8-0.2,13.4
					c0.3,2.4,0.9,5.1,3.1,6.4c2.7,1.5,6.6,1.7,9.6,2c1.9,0.2,2.6,0.1,4.5,0c0.9,0,2.3-0.3,3.2-0.4c0.8-0.1,0.8-0.2,1.6-0.4
					c0.8-0.2,1.3-0.3,2-0.6c0.7-0.2,1.3-0.4,1.9-0.9c0.8-0.7,1.3-1.6,1.5-2.7c0.7-3.6,1.1-7,1.5-10.6
					C128.3,68.2,128.4,67,128.3,66.1z M125.5,80.2c-0.2,0.6-0.5,1.1-0.9,1.5c-0.4,0.5-1.1,0.7-1.7,0.8c-0.7,0.2-3.5,1-6.7,1.3
					c-1.8,0.1-5.5-0.2-6.4-0.3c-1.6-0.2-3.2-0.5-4.8-1c-0.3-0.1-0.6-0.2-0.9-0.3c-3.8-1.2-4-5.7-4-9c-0.1-3.2-0.4-9.3,0.1-9.9
					c0.3-0.4,4.3-0.9,6.2-0.8c2.4,0,4.8,0.1,7.2,0.2c4.2,0.1,8.4-0.6,12.2,1.7c1.9,1.1,1.5,4.6,1.5,4.7
					C127.1,71.9,125.9,79.1,125.5,80.2z"/>
				<path fill="#C79B66" d="M149.3,84.9c2,1.6,4.8,2.4,9.6,2.7c4.8,0.3,16,0.4,20.8-3.4c4.8-3.8,2.5-24.2,2.5-24.2
					c-5.3-2.5-32.9-2.5-35.7,2.2C143.8,67,147.4,83.3,149.3,84.9z M149.7,66.3c0.1-0.9,0.6-1.8,1.4-2.4c0,0,0,0,0-0.1
					c0.1-0.1,0.2-0.1,0.3-0.2c0,0,0,0,0,0l0,0c1.9-1.2,4-1.5,6.2-1.7c3.4-0.2,5.4-0.2,8.7-0.2c2.9,0,6-0.2,9,0.1
					c1.2,0.1,2.2,0.4,2.7,1.3c0.9,1.6,0.7,9.6,0.2,13.2c-0.3,2.3-0.9,5.1-3.1,6.3c-2.6,1.5-6.5,1.7-9.4,1.9
					c-1.9,0.2-2.9,0.2-4.8,0.2c-0.9,0-2-0.5-2.8-0.6c-0.8-0.1-0.6-0.1-1.4-0.3c-0.8-0.1-1.5-0.4-2.2-0.6c-0.7-0.2-1.3-0.4-1.8-0.8
					c-0.8-0.7-1.3-1.6-1.4-2.6c-0.7-3.5-1.1-6.9-1.5-10.4C149.7,68.4,149.6,67.2,149.7,66.3z"/>
				<path fill="#1D1D1B" d="M145,67.8c0-0.7,0.9-0.6,1,0.2c0.1,3.7,1.8,13.1,2.3,14.6c0.3,0.8,0.7,1.3,1.2,2c0.5,0.7,1.7,1,2.5,1.2
					c0.9,0.2,4.8,1.4,8.9,1.7c2.3,0.2,7.3-0.3,8.3-0.4c2.1-0.3,4.4-0.7,6.5-1.3c0.4-0.1,0.8-0.2,1.2-0.3c5-1.5,5.4-7.3,5.5-11.7
					c0.1-4.2,0.2-12.4-0.4-13.2c-0.9-1.2-5.5-1.6-8-1.6c-3.1,0-6.3,0-9.4,0.1c-5.7,0.2-12.5-0.3-17.4,2.8c-0.9,0.6-1.2-0.3-0.4-0.9
					c2.6-1.9,5.5-2.3,8.6-2.4c4.4-0.2,7.5-0.3,11.9-0.3c3.9,0,7.9-0.3,11.8,0.1c1.6,0.2,2.9,0.5,3.6,1.7c1.2,2.1,0.5,12.7,0.2,17.3
					c-0.2,3.1-1.2,6.5-4.1,8.2c-3.5,2-8.3,2.2-12.2,2.5c-2.5,0.2-3.4,0.3-5.9,0.2c-1.1,0-2.1-0.3-3.2-0.4c-1.1-0.2-2.1-0.5-3.2-0.7
					c-1-0.2-2-0.5-3-0.8c-0.9-0.3-1.6-0.3-2.3-0.9c-1.1-0.9-1.7-2.1-1.9-3.5C146.1,77.2,145,72.6,145,67.8z"/>
				<path fill="#1D1D1B" d="M149.6,69.4c0.4,3.6,0.9,7,1.5,10.6c0.2,1,0.6,2,1.5,2.7c0.6,0.5,1.2,0.6,1.9,0.9c0.8,0.2,1.3,0.4,2,0.6
					c0.8,0.2,0.8,0.2,1.6,0.4c0.9,0.1,2.3,0.4,3.2,0.4c1.9,0.1,2.6,0.1,4.5,0c3-0.3,6.9-0.4,9.6-2c2.2-1.3,2.8-4,3.1-6.4
					c0.5-3.6,0.7-11.7-0.2-13.4c-0.5-0.9-1.6-1.2-2.8-1.3c-3-0.4-6.1-0.1-9.1-0.1c-3.4,0-5.5,0.1-8.9,0.2c-2.3,0.1-4.4,0.4-6.3,1.7
					l0,0c0,0,0,0,0,0c-0.1,0.1-0.2,0.1-0.3,0.2c0,0,0,0,0,0.1c-0.8,0.6-1.3,1.4-1.4,2.4C149.4,67.1,149.4,68.3,149.6,69.4z
					 M150.6,69.2c0-0.1-0.4-3.6,1.5-4.7c3.8-2.3,8-1.6,12.2-1.7c2.4-0.1,4.8-0.2,7.2-0.2c1.9,0,5.9,0.4,6.2,0.8
					c0.5,0.6,0.1,6.7,0.1,9.9c-0.1,3.3-0.2,7.8-4,9c-0.3,0.1-0.6,0.2-0.9,0.3c-1.6,0.4-3.2,0.8-4.8,1c-0.8,0.1-4.6,0.5-6.4,0.3
					c-3.2-0.3-6-1.1-6.7-1.3c-0.6-0.1-1.3-0.3-1.7-0.8c-0.4-0.5-0.7-1-0.9-1.5C151.9,79.2,150.6,72,150.6,69.2z"/>
				<g>
					<g>
						<path fill="#1D1E1C" d="M154.3,77.7c0,1.9,2.7,3.2,4.3,3.7c0.3,0.1,0.4-0.3,0.2-0.4c-1.5-0.7-3.6-1.6-4.1-3.3
							C154.6,77.5,154.3,77.5,154.3,77.7L154.3,77.7z"/>
					</g>
					<g>
						<path fill="#1D1E1C" d="M119,81.7c1.9-0.5,4-2.3,4.4-4.3c0-0.1-0.1-0.2-0.2-0.1c-0.6,0.7-1.2,1.5-1.8,2.3
							c-0.7,0.8-1.6,1.4-2.5,1.9C118.8,81.5,118.9,81.7,119,81.7L119,81.7z"/>
					</g>
				</g>
				<path fill="#1D1D1B" d="M132.2,62.5c5-1.1,6.9-1.1,12.2-0.4c0.2,0,1.2,0.2,1.7,0.3c0.3,0,0.6-0.4,1.2-0.7
					c-0.2-0.1-0.1-1.1-0.2-1c-0.7,0.8-1.4,0.6-2,0.5c-1.9-0.4-4.2-0.6-6.7-0.6c-1.5,0-3.1,0.2-5.3,0.8c-1.3,0.4-1.8-0.4-2.1-0.6
					c-0.8-0.3-0.5,0.8-0.5,0.8C131.3,62.1,131.5,62.7,132.2,62.5z"/>
				<path fill="#1D1D1B" d="M144.6,65.8c-4.9-1.3-10-0.4-10-0.4c-1.3,0.3-2.6,1.1-2.7,2.3c0.2,0.1,0.9,0.3,0.9,0
					c0-0.7,0.9-1.2,1.3-1.3c1.5-0.4,2.6-0.4,4.8-0.5c1.3,0,2.6,0.1,4.8,0.4c1.8,0.3,1.2,1.4,1.5,1.6c0.6,0.3,0.8,0,0.8,0
					C145.9,66.2,145.2,65.9,144.6,65.8z"/>
			</g>
			<g>
				<path fill="#1D1E1C" d="M189,67.9c0-0.4,0.1-0.8,0.2-1.1c0.3-1,0.6-1.9,1-2.8c1.1-2.5,1.1-4.7,2.4-5.6c0.5-0.4,1.3,0,0.8,0.3
					c-1.5,0.9-1.4,3.4-2.4,5.8c-0.4,1-1.5,3.2-1.4,4.3L189,67.9z"/>
			</g>
			<g>
				<path fill="#1D1E1C" d="M83.3,58.5c-5.5-2-9.4,2.1-9.8,7.5c-0.5,6.2,3.1,10.9,8.7,11.5c0.5,0.1,0.7,0.9,0.1,0.9
					c-6.8,0.1-10-5.9-10.1-11.9c-0.1-6.7,6.4-11.9,11.9-8.4L83.3,58.5z"/>
			</g>
			<g>
				<path fill="#1D1E1C" d="M83.3,58.5c1.1,0.8,1.6,3.3,2,5.2c0.4,1.9,1.4,4,2.2,5.8c0.1,0.2,0.4,0.1,0.4-0.1c0.2-2-1.2-3-1.8-5.9
					c-0.9-3.7-1.9-5.3-2-5.3C83.4,58,83.1,58.4,83.3,58.5z"/>
			</g>
			<g>
				<g>
					<g>
						<path fill="#1D1E1C" d="M107.5,99.9c6.2,5.9,19,9.5,26.6,4.2c0.2-0.2,0.1-0.6-0.2-0.5c-4.4,1-8.1,2.1-12.8,1.5
							c-5-0.6-9.2-3.1-13.3-5.7C107.5,99.3,107.2,99.7,107.5,99.9L107.5,99.9z"/>
					</g>
					<g>
						<path fill="#1D1E1C" d="M106.4,101c0.5-0.3,0.8-0.9,1.2-1.3c0.4-0.5,0.9-0.9,1.3-1.4c0.1-0.1,0-0.4-0.2-0.4
							c-0.8,0-1.3,0.4-1.7,1c-0.5,0.5-0.9,1.2-0.9,2C106.1,101.1,106.3,101.1,106.4,101L106.4,101z"/>
					</g>
				</g>
				<g>
					<path fill="#C6C5C4" d="M171.3,105.6c-4.6-0.6-7.3-1.6-10-4.7c-2.1-2.4-3.3-4.9-5.7-6.9c-2.8-2.3-7.2-3.7-10.1-1.4
						c-0.3,0.2-5.8,6.1-12.9,0.9c-2.9-3.5-8-2-11,0.6c-2.4,2.1-3.6,4.5-5.7,6.9c-2.7,3.1-5.4,4.2-10,4.7c-0.2,0,0.1,0.3,0.3,0.3
						c0,0,0.1,0,0.1,0c0.3,0.2,2.1,0.8,2.2,0.8c1.3,0.2,2.5,0.4,3.8,0.5c2.2,0.2,4.4,0.1,6.5-0.5c-0.1,0.7-0.5,1.2-0.8,1.8
						c-0.1,0.2,0,0.3,0.2,0.4c0,0,0,0,0,0c1.5,1.2,4,0,5.5-0.6c1.7-0.7,3.9-1.8,5.1-3.4c-0.1,0.7-0.5,1.3-0.7,2c0,0.1,0,0.2,0.1,0.3
						c0,0,0,0,0,0c0,0,0,0,0,0c0.1,0,0.1,0.1,0.2,0c3.3,0.6,8.3-1.8,10.1-4.7c1.8,2.9,6.8,5.3,10.1,4.7c0.1,0,0.1,0,0.2,0
						c0,0,0,0,0,0c0,0,0,0,0,0c0.1-0.1,0.1-0.2,0.1-0.3c-0.2-0.7-0.6-1.3-0.7-2c1.2,1.5,3.5,2.7,5.1,3.4c1.5,0.6,4,1.7,5.5,0.6
						c0,0,0,0,0,0c0.1-0.1,0.2-0.2,0.2-0.4c-0.3-0.6-0.7-1.2-0.8-1.8c2.1,0.6,4.3,0.6,6.5,0.5c1.3-0.1,2.5-0.3,3.8-0.5
						c0.1,0,1.8-0.6,2.2-0.8c0,0,0.1,0,0.1,0C171.2,105.9,171.5,105.6,171.3,105.6z"/>
					<g>
						<path fill="#1D1E1C" d="M132.6,93.3c-2.9-3.5-8-2-11,0.6c-2.4,2.1-3.6,4.6-5.7,6.9c-2.7,3.1-5.4,4.2-10,4.7
							c-0.2,0,0.1,0.3,0.3,0.3c2,0.1,7.7-1.3,10.4-4.2c3.9-4.3,8.9-12.5,15.8-8.1C132.6,93.6,132.7,93.4,132.6,93.3L132.6,93.3z"/>
					</g>
					<g>
						<path fill="#1D1E1C" d="M108.5,106.6c1.3,0.2,2.5,0.4,3.8,0.5c2.2,0.2,4.6,0.1,6.7-0.5c0.3-0.1,0.3-0.6-0.1-0.6
							c-2.2,0.2-4.4,0.4-6.6,0.3c-2-0.1-3.9-0.7-5.9-0.9c-0.2,0-0.3,0.2-0.2,0.3c0,0,0,0,0,0.1C106.3,105.9,108.5,106.6,108.5,106.6
							z"/>
					</g>
					<g>
						<path fill="#1D1E1C" d="M118.9,106.3c0,0.9-0.5,1.5-0.8,2.2c-0.2,0.3,0.3,0.6,0.6,0.4c0.7-0.5,1.2-2,0.6-2.7
							C119.2,106,118.9,106.1,118.9,106.3L118.9,106.3z"/>
					</g>
					<g>
						<path fill="#1D1E1C" d="M118.2,109c1.5,1.2,4,0,5.5-0.6c1.9-0.8,4.4-2.1,5.5-3.9c0.2-0.3-0.2-0.5-0.4-0.3
							c-3.3,2.5-6.3,4.6-10.6,4.6C118.2,108.7,118.1,108.9,118.2,109L118.2,109z"/>
					</g>
					<g>
						<path fill="#1D1E1C" d="M129,104.6c0,0.8-0.6,1.6-0.7,2.4c-0.1,0.3,0.3,0.5,0.5,0.3c0.6-0.6,1.2-2.2,0.6-3
							C129.2,104.1,129,104.4,129,104.6L129,104.6z"/>
					</g>
					<g>
						<path fill="#1D1E1C" d="M128.3,107.3c3.4,0.8,9-2,10.5-5.1c0.1-0.3-0.3-0.7-0.5-0.4c-2.6,3.2-6,4.7-10,5.4
							C128.3,107.2,128.3,107.3,128.3,107.3L128.3,107.3z"/>
					</g>
					<g>
						<path fill="#1D1E1C" d="M144.6,93.3c2.9-3.5,8-2,11,0.6c2.4,2.1,3.6,4.6,5.7,6.9c2.7,3.1,5.4,4.2,10,4.7
							c0.2,0-0.1,0.3-0.3,0.3c-2,0.1-7.7-1.3-10.4-4.2c-3.9-4.3-8.9-12.5-15.8-8.1C144.6,93.6,144.5,93.4,144.6,93.3L144.6,93.3z"/>
					</g>
					<g>
						<path fill="#1D1E1C" d="M168.7,106.6c-1.3,0.2-2.5,0.4-3.8,0.5c-2.2,0.2-4.6,0.1-6.7-0.5c-0.3-0.1-0.3-0.6,0.1-0.6
							c2.2,0.2,4.4,0.4,6.6,0.3c2-0.1,3.9-0.7,5.9-0.9c0.2,0,0.3,0.2,0.2,0.3c0,0,0,0,0,0.1C170.9,105.9,168.7,106.6,168.7,106.6z"
							/>
					</g>
					<g>
						<path fill="#1D1E1C" d="M158.3,106.3c0,0.9,0.5,1.5,0.8,2.2c0.2,0.3-0.3,0.6-0.6,0.4c-0.7-0.5-1.2-2-0.6-2.7
							C158.1,106,158.3,106.1,158.3,106.3L158.3,106.3z"/>
					</g>
					<g>
						<path fill="#1D1E1C" d="M159,109c-1.5,1.2-4,0-5.5-0.6c-1.9-0.8-4.4-2.1-5.5-3.9c-0.2-0.3,0.2-0.5,0.4-0.3
							c3.3,2.5,6.3,4.6,10.6,4.6C159,108.7,159.1,108.9,159,109L159,109z"/>
					</g>
					<g>
						<path fill="#1D1E1C" d="M148.3,104.6c0,0.8,0.6,1.6,0.7,2.4c0.1,0.3-0.3,0.5-0.5,0.3c-0.6-0.6-1.2-2.2-0.6-3
							C148,104.1,148.3,104.4,148.3,104.6L148.3,104.6z"/>
					</g>
					<g>
						<path fill="#1D1E1C" d="M148.9,107.3c-3.4,0.8-9-2-10.5-5.1c-0.1-0.3,0.3-0.7,0.5-0.4c2.6,3.2,6,4.7,10,5.4
							C149,107.2,149,107.3,148.9,107.3L148.9,107.3z"/>
					</g>
				</g>
			</g>
			<g>
				<path fill="#1D1E1C" d="M170.6,53.4c-0.3-1.3-1.7-2.4-2.7-3.1c-1.6-1.1-3.2-1.7-5.1-2.1c-0.7-0.2-1.1,0.8-0.5,1.1
					c1.5,0.9,3,1.9,4.5,2.9c1.1,0.7,2.2,1.6,3.5,1.7C170.5,53.9,170.7,53.6,170.6,53.4L170.6,53.4z"/>
			</g>
			<g>
				<path fill="#1D1E1C" d="M164.2,68.7c-1.5,0.3-2.6,0.4-3.6,1.7c-1.5,1.9-1.3,4.6,0.8,5.7c0.2,0.1,3.8-0.4,5.9-0.7
					c0.4-0.4,0.7-0.8,0.9-1.3c0.7-2.2-1.4-4.9-3.5-5.4c-0.8-0.2-1.8,0-2.7,0.4"/>
				<path fill="#FFFFFF" d="M164.8,69.7c-0.9,0.2-2.8,1.6-1.1,2.7c2.9,2,4.1-2.2,1.3-2.8"/>
				<g>
					<path fill="#1D1E1C" d="M160.1,77.4c1.5-0.5,2.8-1.1,4.5-1.2c1.5-0.1,2.8,0.3,4.2,0.4c0.2,0,0.2-0.2,0.2-0.3
						c-0.8-1.3-3.1-1.2-4.4-1.1c-1.5,0.1-3.8,0.5-4.6,2C159.9,77.3,160,77.4,160.1,77.4L160.1,77.4z"/>
				</g>
			</g>
			<g>
				<path fill="#1D1E1C" d="M108.2,53.4c0.3-1.3,1.7-2.4,2.7-3.1c1.6-1.1,3.2-1.7,5.1-2.1c0.7-0.2,1.1,0.8,0.5,1.1
					c-1.5,0.9-3,1.9-4.5,2.9c-1.1,0.7-2.2,1.6-3.5,1.7C108.3,53.8,108.1,53.6,108.2,53.4L108.2,53.4z"/>
			</g>
			<g>
				<path fill="#1D1E1C" d="M114.6,68.7c1.5,0.3,2.6,0.4,3.6,1.7c1.5,1.9,1.3,4.6-0.8,5.7c-0.2,0.1-3.8-0.4-5.9-0.7
					c-0.4-0.4-0.7-0.8-0.9-1.3c-0.7-2.2,1.4-4.9,3.5-5.4c0.8-0.2,1.8,0,2.7,0.4"/>
				<path fill="#FFFFFF" d="M115.8,69.6c-0.9,0.2-2.8,1.6-1.1,2.7c2.9,2,4.1-2.2,1.3-2.8"/>
				<g>
					<path fill="#1D1E1C" d="M118.8,77.1c-0.8-1.5-3.1-1.8-4.6-2c-1.3-0.1-3.6-0.2-4.4,1.1c-0.1,0.1,0,0.3,0.2,0.3
						c1.3-0.1,2.5-0.5,3.8-0.4c1.8,0,3.2,0.7,4.9,1.2C118.8,77.4,118.9,77.2,118.8,77.1L118.8,77.1z"/>
				</g>
			</g>
			<g>
				<path fill="#EEEEEE" d="M145.7,93.9c3.3-0.9,6.7,0.3,8.6,3.7c0.9,1.5,2.7,1,1.8-0.6c-2.7-4.8-8.4-5.8-10.9-3.7
					C144.6,93.9,145.1,94.1,145.7,93.9z"/>
			</g>
		</g>
		<g>
			<path fill="#1D1E1C" d="M96.5,151.9c2-1,2.4-5.6,2.9-7.5c1-4.2,1.9-8,3.8-11.9c0.1-0.2-0.1-0.4-0.3-0.3c-2.4,1.1-2.9,6.4-3.4,8.6
				c-0.8,3.8-1.7,7.4-3.1,11C96.4,151.8,96.5,151.9,96.5,151.9L96.5,151.9z"/>
		</g>
		<g>
			<path fill="#1D1E1C" d="M111.3,145c4.9,4.3,9.8,8.8,14.7,13.2c3.1,2.8,6.3,6.3,10.1,8.3c0.8,0.4,1.4-0.7,0.7-1.2
				c-3.6-2-6.8-5.4-9.9-8.1c-5-4.3-9.9-8.7-14.9-13C111.5,143.9,110.9,144.6,111.3,145L111.3,145z"/>
		</g>
		<g>
			<path fill="#1D1E1C" d="M112.4,136.2c1.4,4.2,5.5,6.4,9.2,8.2c5.9,2.8,9.6,9,15.6,11.4c0.3,0.1,0.6-0.4,0.3-0.6
				c-4.3-3.4-8.4-7.6-13.1-10.4c-4.6-2.7-8.8-3.8-11.7-8.7C112.6,135.9,112.3,136.1,112.4,136.2L112.4,136.2z"/>
		</g>
		<g>
			<path fill="#1D1E1C" d="M118.7,142.3c-2.6-1.1-5.6,1-7.7,2.2c-4.5,2.6-8.8,5.9-14.1,6.7c-0.6,0.1-0.4,1.1,0.1,1
				c3.6-0.3,6.7-2.2,9.7-4c3.5-2.1,7.7-5.8,12-5.7C118.8,142.6,118.8,142.4,118.7,142.3L118.7,142.3z"/>
		</g>
		<g>
			<path fill="#1D1E1C" d="M160.9,142.6c4-0.1,7.8,3.1,11,5.1c3.2,2,6.8,4.3,10.7,4.6c0.6,0,0.7-0.9,0.1-1c-4.9-0.8-9-3.6-13.2-6.2
				c-2.3-1.4-5.8-3.9-8.6-2.8C160.7,142.4,160.7,142.6,160.9,142.6L160.9,142.6z"/>
		</g>
		<g>
			<path fill="#1D1E1C" d="M136.4,166.6c2.7,1.5,12.2-6.8,14.2-8.2c5.9-4.1,12.5-8.4,17.7-13.3c0.5-0.5-0.3-1.2-0.8-0.8
				c-4.5,4.2-10.2,8-15.2,11.6c-3.3,2.3-6.6,4.6-9.9,6.8c-1.5,1-3.9,3.1-5.8,3.4C136.3,166,136.1,166.4,136.4,166.6L136.4,166.6z"/>
		</g>
		<g>
			<path fill="#1D1E1C" d="M137.3,173.6c8.2-2.2,15.8-8.6,22.5-13.7c4.5-3.4,10.3-6.9,13.7-11.4c0.3-0.4-0.3-0.8-0.6-0.5
				c-10.6,9.8-22.9,18.6-35.7,25.2C137,173.4,137.1,173.7,137.3,173.6L137.3,173.6z"/>
		</g>
		<g>
			<path fill="#1D1E1C" d="M165.8,137.7c-8.9,12-30.2,8.1-32.8,26c-0.1,0.5,0.5,0.6,0.7,0.2c1.8-4.8,3.2-8.9,7.6-11.9
				c3-2.1,6.7-3.2,10-4.5c5.8-2.3,11.7-3.9,14.7-9.6C166.2,137.7,165.9,137.5,165.8,137.7L165.8,137.7z"/>
		</g>
	</g>
</g>
</svg>
