<?xml version="1.0" encoding="utf-8"?>
<!-- Generator: Adobe Illustrator 18.1.0, SVG Export Plug-In . SVG Version: 6.00 Build 0)  -->
<svg version="1.1" id="general" xmlns="http://www.w3.org/2000/svg" xmlns:xlink="http://www.w3.org/1999/xlink" x="0px" y="0px"
	 viewBox="0 0 1500 800" enable-background="new 0 0 1500 800" xml:space="preserve">
<g>
	<g>
		<defs>
			<rect id="SVGID_6_" x="-1432.2" y="0" width="1280" height="800"/>
		</defs>
		<clipPath id="SVGID_2_">
			<use xlink:href="#SVGID_6_"  overflow="visible"/>
		</clipPath>
		<g opacity="0.31" clip-path="url(#SVGID_2_)">
			<g>
				<g>
					<path fill="#78AB44" d="M-299.6,702.7c14.1,5.7,28.2,11.4,42.3,17.2c33.7,13.7,67.5,27.3,101.2,41
						c41,16.6,81.9,33.2,122.9,49.8C2.1,825,37.4,839.3,72.7,853.6c11.6,4.7,23.3,9.4,34.9,14.2c5.2,2.1,11.2,5.6,16.7,6.8
						c0.2,0,0.5,0.2,0.7,0.3c1.8,0.7,2.6-2.2,0.8-2.9c-14.1-5.7-28.2-11.4-42.3-17.2c-33.7-13.7-67.5-27.3-101.2-41
						c-41-16.6-81.9-33.2-122.9-49.8c-35.3-14.3-70.6-28.6-105.8-42.9c-11.6-4.7-23.3-9.4-34.9-14.2c-5.2-2.1-11.2-5.6-16.7-6.8
						c-0.2,0-0.5-0.2-0.7-0.3C-300.6,699.1-301.3,702-299.6,702.7L-299.6,702.7z"/>
				</g>
			</g>
			<g>
				<g>
					<path fill="#78AB44" d="M-193.6,701.9c14.1,4.8,28.1,9.6,42.2,14.3c33.4,11.4,66.9,22.7,100.3,34.1
						c40.7,13.9,81.5,27.7,122.2,41.6c35,11.9,69.9,23.8,104.9,35.7c11.6,4,23.3,7.9,34.9,11.9c5.2,1.8,11.1,4.8,16.5,5.6
						c0.2,0,0.5,0.2,0.7,0.2c1.8,0.6,2.6-2.3,0.8-2.9c-14.1-4.8-28.1-9.6-42.2-14.3c-33.4-11.4-66.9-22.7-100.3-34.1
						c-40.7-13.9-81.5-27.7-122.2-41.6c-35-11.9-69.9-23.8-104.9-35.7c-11.6-4-23.3-7.9-34.9-11.9c-5.2-1.8-11.1-4.8-16.5-5.6
						c-0.2,0-0.5-0.2-0.7-0.2C-194.6,698.4-195.4,701.3-193.6,701.9L-193.6,701.9z"/>
				</g>
			</g>
			<g>
				<g>
					<path fill="#78AB44" d="M-100,701.3c18.5,6.6,37,13.3,55.5,19.9c29.5,10.6,59.1,21.2,88.6,31.8c6.8,2.5,13.7,4.9,20.5,7.4
						c1.8,0.7,2.6-2.2,0.8-2.9c-18.5-6.6-37-13.3-55.5-19.9c-29.5-10.6-59.1-21.2-88.6-31.8c-6.8-2.5-13.7-4.9-20.5-7.4
						C-101,697.7-101.8,700.6-100,701.3L-100,701.3z"/>
				</g>
			</g>
		</g>
	</g>
</g>
<g>
	<g>
		<defs>
			<rect id="SVGID_8_" y="0" width="1500" height="800"/>
		</defs>
		<clipPath id="SVGID_4_">
			<use xlink:href="#SVGID_8_"  overflow="visible"/>
		</clipPath>
		<rect x="-79.2" y="-6.6" clip-path="url(#SVGID_4_)" fill="#FFF59D" width="1580.6" height="866.2"/>
		<polygon clip-path="url(#SVGID_4_)" fill="#ACD47E" points="1510.2,906 -92.6,906 -89.3,697.4 1509.6,697.4 		"/>
		<rect x="-79.2" y="526.7" clip-path="url(#SVGID_4_)" fill="#FFEE8A" width="1588.8" height="172.3"/>
		<g opacity="0.31" clip-path="url(#SVGID_4_)">
			<g>
				<g>
					<path fill="#78AB44" d="M584.6,883.1c-0.4-20.5-0.8-41-1.2-61.5c-0.6-32.9-1.3-65.8-1.9-98.7c-0.1-7.6-0.3-15.1-0.4-22.7
						c0-1.9-3-1.9-3,0c0.4,20.5,0.8,41,1.2,61.5c0.6,32.9,1.3,65.8,1.9,98.7c0.1,7.6,0.3,15.1,0.4,22.7
						C581.6,885,584.6,885,584.6,883.1L584.6,883.1z"/>
				</g>
			</g>
			<g>
				<g>
					<path fill="#78AB44" d="M741.1,879.8c-9.8-20.2-19.7-40.5-29.5-60.7c-15.7-32.3-31.4-64.5-47-96.8c-3.6-7.4-7.2-14.8-10.8-22.3
						c-0.8-1.7-3.4-0.2-2.6,1.5c9.8,20.2,19.7,40.5,29.5,60.7c15.7,32.3,31.4,64.5,47,96.8c3.6,7.4,7.2,14.8,10.8,22.3
						C739.3,883.1,741.9,881.5,741.1,879.8L741.1,879.8z"/>
				</g>
			</g>
			<g>
				<g>
					<path fill="#78AB44" d="M724,701.7c21.3,20.6,42.6,41.2,63.9,61.8c33.8,32.7,67.6,65.4,101.5,98.1c7.8,7.5,15.5,15,23.3,22.5
						c1.4,1.3,3.5-0.8,2.1-2.1c-21.3-20.6-42.6-41.2-63.9-61.8c-33.8-32.7-67.6-65.4-101.5-98.1c-7.8-7.5-15.5-15-23.3-22.5
						C724.7,698.2,722.6,700.3,724,701.7L724,701.7z"/>
				</g>
			</g>
			<g>
				<g>
					<path fill="#78AB44" d="M1092.6,881.8c-9.6-6-19.1-12.1-28.7-18.1c-22.9-14.5-45.9-29.1-68.8-43.6
						c-27.9-17.7-55.8-35.4-83.8-53c-24-15.2-48-30.4-72.1-45.6c-7.9-5-15.8-10-23.8-15c-3.5-2.2-7.4-5.6-11.3-7.2
						c-0.2-0.1-0.3-0.2-0.5-0.3c-1.6-1-3.1,1.6-1.5,2.6c9.6,6,19.1,12.1,28.7,18.1c22.9,14.5,45.9,29.1,68.8,43.6
						c27.9,17.7,55.8,35.4,83.8,53c24,15.2,48,30.4,72.1,45.6c7.9,5,15.8,10,23.8,15c3.5,2.2,7.4,5.6,11.3,7.2
						c0.2,0.1,0.3,0.2,0.5,0.3C1092.7,885.4,1094.2,882.8,1092.6,881.8L1092.6,881.8z"/>
				</g>
			</g>
			<g>
				<g>
					<path fill="#78AB44" d="M906.2,702.5c12,6,23.9,12.1,35.9,18.1c28.7,14.5,57.5,29,86.2,43.4c34.8,17.5,69.5,35,104.3,52.6
						c30,15.1,60.1,30.3,90.1,45.4c9.9,5,19.7,9.9,29.6,14.9c4.5,2.3,9.3,5.5,14.1,7.1c0.2,0.1,0.4,0.2,0.7,0.3
						c1.7,0.9,3.2-1.7,1.5-2.6c-12-6-23.9-12.1-35.9-18.1c-28.7-14.5-57.5-29-86.2-43.4c-34.8-17.5-69.5-35-104.3-52.6
						c-30-15.1-60.1-30.3-90.1-45.4c-9.9-5-19.7-9.9-29.6-14.9c-4.5-2.3-9.3-5.5-14.1-7.1c-0.2-0.1-0.4-0.2-0.7-0.3
						C906,699,904.5,701.6,906.2,702.5L906.2,702.5z"/>
				</g>
			</g>
			<g>
				<g>
					<path fill="#78AB44" d="M1019.3,702.7c13.1,6,26.2,12,39.3,18.1c31.5,14.5,63,28.9,94.4,43.4c38.1,17.5,76.2,35,114.2,52.5
						c32.9,15.1,65.8,30.3,98.7,45.4c10.8,5,21.6,9.9,32.4,14.9c5,2.3,10.2,5.5,15.5,7.1c0.2,0.1,0.5,0.2,0.7,0.3
						c1.7,0.8,3.3-1.8,1.5-2.6c-13.1-6-26.2-12-39.3-18.1c-31.5-14.5-63-28.9-94.4-43.4c-38.1-17.5-76.2-35-114.2-52.5
						c-32.9-15.1-65.8-30.3-98.7-45.4c-10.8-5-21.6-9.9-32.4-14.9c-5-2.3-10.2-5.5-15.5-7.1c-0.2-0.1-0.5-0.2-0.7-0.3
						C1019.1,699.3,1017.6,701.9,1019.3,702.7L1019.3,702.7z"/>
				</g>
			</g>
			<g>
				<g>
					<path fill="#78AB44" d="M1133.9,701.9c13.2,6,26.3,12.1,39.5,18.1c31.6,14.5,63.2,29,94.8,43.6c38.2,17.6,76.5,35.1,114.7,52.7
						c33.1,15.2,66.1,30.4,99.2,45.6c10.9,5,21.8,10,32.7,15c5,2.3,10.3,5.5,15.6,7.2c0.2,0.1,0.5,0.2,0.7,0.3
						c1.7,0.8,3.3-1.8,1.5-2.6c-13.2-6-26.3-12.1-39.5-18.1c-31.6-14.5-63.2-29-94.8-43.6c-38.2-17.6-76.5-35.1-114.7-52.7
						c-33.1-15.2-66.1-30.4-99.2-45.6c-10.9-5-21.8-10-32.7-15c-5-2.3-10.3-5.5-15.6-7.2c-0.2-0.1-0.5-0.2-0.7-0.3
						C1133.6,698.5,1132.1,701.1,1133.9,701.9L1133.9,701.9z"/>
				</g>
			</g>
			<g>
				<g>
					<path fill="#78AB44" d="M1254.6,702.7c14.1,5.7,28.2,11.4,42.3,17.2c33.7,13.7,67.5,27.3,101.2,41
						c41,16.6,81.9,33.2,122.9,49.8c35.3,14.3,70.6,28.6,105.8,42.9c11.6,4.7,23.3,9.4,34.9,14.2c5.2,2.1,11.2,5.6,16.7,6.8
						c0.2,0,0.5,0.2,0.7,0.3c1.8,0.7,2.6-2.2,0.8-2.9c-14.1-5.7-28.2-11.4-42.3-17.2c-33.7-13.7-67.5-27.3-101.2-41
						c-41-16.6-81.9-33.2-122.9-49.8c-35.3-14.3-70.6-28.6-105.8-42.9c-11.6-4.7-23.3-9.4-34.9-14.2c-5.2-2.1-11.2-5.6-16.7-6.8
						c-0.2,0-0.5-0.2-0.7-0.3C1253.6,699.1,1252.8,702,1254.6,702.7L1254.6,702.7z"/>
				</g>
			</g>
			<g>
				<g>
					<path fill="#78AB44" d="M1360.6,701.9c14.1,4.8,28.1,9.6,42.2,14.3c33.4,11.4,66.9,22.7,100.3,34.1
						c40.7,13.9,81.5,27.7,122.2,41.6c35,11.9,69.9,23.8,104.9,35.7c11.6,4,23.3,7.9,34.9,11.9c5.2,1.8,11.1,4.8,16.5,5.6
						c0.2,0,0.5,0.2,0.7,0.2c1.8,0.6,2.6-2.3,0.8-2.9c-14.1-4.8-28.1-9.6-42.2-14.3c-33.4-11.4-66.9-22.7-100.3-34.1
						c-40.7-13.9-81.5-27.7-122.2-41.6c-35-11.9-69.9-23.8-104.9-35.7c-11.6-4-23.3-7.9-34.9-11.9c-5.2-1.8-11.1-4.8-16.5-5.6
						c-0.2,0-0.5-0.2-0.7-0.2C1359.5,698.4,1358.7,701.3,1360.6,701.9L1360.6,701.9z"/>
				</g>
			</g>
			<g>
				<g>
					<path fill="#78AB44" d="M1454.2,701.3c18.5,6.6,37,13.3,55.5,19.9c29.5,10.6,59.1,21.2,88.6,31.8c6.8,2.5,13.7,4.9,20.5,7.4
						c1.8,0.7,2.6-2.2,0.8-2.9c-18.5-6.6-37-13.3-55.5-19.9c-29.5-10.6-59.1-21.2-88.6-31.8c-6.8-2.5-13.7-4.9-20.5-7.4
						C1453.1,697.7,1452.3,700.6,1454.2,701.3L1454.2,701.3z"/>
				</g>
			</g>
			<g>
				<g>
					<path fill="#78AB44" d="M495.4,699.3c-11.9,20.6-23.8,41.2-35.7,61.8c-19,32.8-38,65.7-57,98.5c-4.4,7.6-8.7,15.1-13.1,22.7
						c-1,1.7,1.6,3.2,2.6,1.5c11.9-20.6,23.8-41.2,35.7-61.8c19-32.8,38-65.7,57-98.5c4.4-7.6,8.7-15.1,13.1-22.7
						C499,699.1,496.4,697.6,495.4,699.3L495.4,699.3z"/>
				</g>
			</g>
			<g>
				<g>
					<path fill="#78AB44" d="M201.4,884.2c24.3-20.5,48.5-41,72.8-61.5c38.4-32.4,76.8-64.8,115.2-97.3c8.9-7.5,17.8-15,26.7-22.5
						c1.5-1.2-0.7-3.4-2.1-2.1c-24.3,20.5-48.5,41-72.8,61.5c-38.4,32.4-76.8,64.8-115.2,97.3c-8.9,7.5-17.8,15-26.7,22.5
						C197.8,883.3,200,885.4,201.4,884.2L201.4,884.2z"/>
				</g>
			</g>
			<g>
				<g>
					<path fill="#78AB44" d="M330.3,699.6c-10.9,6-21.9,12-32.8,18.1c-26.4,14.5-52.9,29.1-79.3,43.6c-31.8,17.5-63.7,35-95.5,52.6
						C95.1,829,67.5,844.2,40,859.3c-9.1,5-18.2,10-27.4,15.1c-4.1,2.2-9.3,4.2-12.9,7.1c-0.2,0.1-0.4,0.2-0.6,0.3
						c-1.7,0.9-0.2,3.5,1.5,2.6c10.9-6,21.9-12,32.8-18.1c26.4-14.5,52.9-29.1,79.3-43.6c31.8-17.5,63.7-35,95.5-52.6
						c27.5-15.1,55.1-30.3,82.6-45.4c9.1-5,18.2-10,27.4-15.1c4.1-2.2,9.3-4.2,12.9-7.1c0.2-0.1,0.4-0.2,0.6-0.3
						C333.5,701.3,332,698.7,330.3,699.6L330.3,699.6z"/>
				</g>
			</g>
			<g>
				<g>
					<path fill="#78AB44" d="M229.2,698.8c-10.8,4.4-21.5,8.9-32.3,13.3c-25.9,10.7-51.7,21.4-77.6,32.1
						C88,757.2,56.8,770.1,25.5,783c-27.1,11.2-54.1,22.4-81.2,33.6c-8.9,3.7-17.9,7.4-26.8,11.1c-4.1,1.7-8.9,3.1-12.8,5.3
						c-0.2,0.1-0.4,0.2-0.6,0.2c-1.8,0.7-1,3.6,0.8,2.9c10.8-4.4,21.5-8.9,32.3-13.3c25.9-10.7,51.7-21.4,77.6-32.1
						c31.3-12.9,62.6-25.9,93.9-38.8c27.1-11.2,54.1-22.4,81.2-33.6c8.9-3.7,17.9-7.4,26.8-11.1c4.1-1.7,8.9-3.1,12.8-5.3
						c0.2-0.1,0.4-0.2,0.6-0.2C231.7,701,231,698.1,229.2,698.8L229.2,698.8z"/>
				</g>
			</g>
			<g>
				<g>
					<path fill="#78AB44" d="M91.4,698.9c-21.6,8.3-43.2,16.6-64.9,24.8C-7.9,737-42.4,750.2-76.8,763.4c-7.9,3-15.9,6.1-23.8,9.1
						c-1.8,0.7-1,3.6,0.8,2.9c21.6-8.3,43.2-16.6,64.9-24.8c34.5-13.2,68.9-26.4,103.4-39.6c7.9-3,15.9-6.1,23.8-9.1
						C94,701.1,93.2,698.2,91.4,698.9L91.4,698.9z"/>
				</g>
			</g>
			<g>
				<g>
					<path fill="#78AB44" d="M-84.4,730c14.2,0,28.5,0,42.7,0c38.4,0,76.8,0,115.2,0c56.9,0,113.8,0,170.8,0c69.4,0,138.9,0,208.3,0
						c75.8,0,151.6,0,227.4,0c77,0,154.1,0,231.1,0c71.3,0,142.7,0,214,0c60.5,0,121,0,181.5,0c43.5,0,87,0,130.5,0
						c20.5,0,41.1,0.4,61.7,0c0.9,0,1.8,0,2.7,0c1.9,0,1.9-3,0-3c-14.2,0-28.5,0-42.7,0c-38.4,0-76.8,0-115.2,0
						c-56.9,0-113.8,0-170.8,0c-69.4,0-138.9,0-208.3,0c-75.8,0-151.6,0-227.4,0c-77,0-154.1,0-231.1,0c-71.3,0-142.7,0-214,0
						c-60.5,0-121,0-181.5,0c-43.5,0-87,0-130.5,0c-20.5,0-41.1-0.4-61.7,0c-0.9,0-1.8,0-2.7,0C-86.4,727-86.4,730-84.4,730
						L-84.4,730z"/>
				</g>
			</g>
			<g>
				<g>
					<path fill="#78AB44" d="M-90.8,792.7c14.3,0,28.6,0,42.9,0c38.5,0,77.1,0,115.6,0c57.2,0,114.3,0,171.5,0
						c69.7,0,139.5,0,209.2,0c76.1,0,152.2,0,228.3,0c77.3,0,154.7,0,232,0c71.6,0,143.2,0,214.9,0c60.7,0,121.5,0,182.2,0
						c43.7,0,87.3,0,131,0c20.6,0,41.3,0.4,61.9,0c0.9,0,1.8,0,2.7,0c1.9,0,1.9-3,0-3c-14.3,0-28.6,0-42.9,0c-38.5,0-77.1,0-115.6,0
						c-57.2,0-114.3,0-171.5,0c-69.7,0-139.5,0-209.2,0c-76.1,0-152.2,0-228.3,0c-77.3,0-154.7,0-232,0c-71.6,0-143.2,0-214.9,0
						c-60.7,0-121.5,0-182.2,0c-43.7,0-87.3,0-131,0c-20.6,0-41.3-0.4-61.9,0c-0.9,0-1.8,0-2.7,0C-92.8,789.7-92.8,792.7-90.8,792.7
						L-90.8,792.7z"/>
				</g>
			</g>
		</g>
		<polygon opacity="8.000000e-002" clip-path="url(#SVGID_4_)" points="309.3,863.1 -79.2,863.1 -79.2,-9.6 306,-13 472.5,698.3 		
			"/>
		<polygon opacity="8.000000e-002" clip-path="url(#SVGID_4_)" points="1501.4,859.6 1346.9,859.6 1288.5,698.9 1458.2,0 1501.4,0 
					"/>
	</g>
	<g>
		<path opacity="0.42" fill="#5B8D25" d="M1186.9,743.8C1186.9,743.8,1187,743.8,1186.9,743.8c1.1-0.5,2.2-0.7,3.5-0.8
			c0.9,0,1.8-0.1,2.6-0.1c4.7-0.8,9.4-1.7,14-2.9c2.2-0.5,4-0.2,5.5,0.5c1.3-1.8,3.8-2.9,6.4-3.1l-0.4-0.5c-1.1-1.6-1.2-3.3-0.6-4.7
			c-1.5-4.7,4.5-8.4,9.3-7.1c1.1-0.8,2.4-1.5,4-1.7c7.3-1.1,16.1,0.1,23.5,0.3c29.6,0.5,59.3,1,88.9,1.5c2.2-1.5,5.2-2.1,7.9-0.7
			c0.1,0,0.1,0.1,0.2,0.1c1.8-0.6,3.8-0.5,5.7,0.5c1.8,1,3.6,1.9,5.4,2.9c1.2,0.6,2.1,1.4,2.6,2.3c3.1,2,6.1,4,9.2,6
			c2.3,1.5,2.7,3.5,2.1,5.3c0.2,0.2,0.5,0.3,0.7,0.5c2.3,1.6,2.6,4,1.6,6.1c1.3,0.7,2.5,1.5,3.8,2.2c4.5,2.5,4.4,7,0.8,9.8
			c-0.1,1.3-0.7,2.7-1.8,3.6c0,0.4,0,0.8,0,1.3c-0.4,2.7-3.5,5.6-7,5.2c-48-4.9-96.4-5.1-144.5-0.8c-1.4,0.1-2.8-0.3-4-1
			c-17.2,4.4-37.5-1.9-45.7-15.9C1178.1,748.4,1181.4,744.4,1186.9,743.8z"/>
		<g>
			<g>
				<g>
					<path fill="#025D60" d="M1333.6,728c-1.8-14.5-3.6-29-5.4-43.6c-1-7.6-1.9-15.3-2.9-22.9c-0.6-4.7-1.8-8.9-4.3-13.1
						c-2.6-4.2-6.4-7.8-11.3-8.8c-3.9-0.8-8.2-0.3-12.2-0.3c-11,0-22,0-33,0c-4.8,0-9.3-0.6-13.7,1.5c-9.6,4.6-11.8,14.5-13.2,24.1
						c-3,20.5-6.7,40.9-10.3,61.3c-0.7,3.8,5.1,5.4,5.8,1.6c2.9-16.4,5.7-32.9,8.4-49.3c1.4-8.9,1.1-21.8,7.4-28.8
						c1.9-2.1,4.4-3.8,7.2-4.4c1-0.2-1,0.1,0.1,0c1.1,0,2.2,0,3.3,0c9.7,0,19.4,0,29,0c4.6,0,9.2,0,13.8,0c4.7,0,8.6,0,11.9,3.9
						c2.3,2.7,3.7,6.1,4.6,9.5c0.2,0.8-0.1-1.1,0,0c0.1,0.7,0.2,1.5,0.3,2.2c0.9,7,1.7,14,2.6,21c1.9,15.3,3.8,30.6,5.7,45.9
						C1328.1,731.8,1334.1,731.9,1333.6,728L1333.6,728z"/>
				</g>
			</g>
			<g>
				<g>
					<path fill="#077D88" d="M1376.5,557.2c4.2,0.7,2.5,7.5,2.2,10.3c-0.7,6.4-1.6,12.7-2.5,19.1c-2.1,14.3-4.1,28.7-7.1,42.9
						c-1.1,5.2-2.6,10-5.3,14.6c-5.2,8.5-12.7,11.3-22.3,11.3c-14.8,0-29.6,0-44.3,0c-1,0-31.2,1-31.2-1c-0.1-3.9-6.1-3.9-6,0
						c0.2,10,20,7,26.6,7c17.3,0,34.6,0,51.9,0c8.9,0,17.2-0.4,24.2-6.5c5.7-5,9.5-12.3,11.3-19.5c3.9-15,5.7-30.7,7.9-46
						c1.2-8.1,2.3-16.2,3.2-24.3c0.5-5.4-0.1-12.5-6.8-13.6C1374.4,550.8,1372.7,556.6,1376.5,557.2L1376.5,557.2z"/>
				</g>
			</g>
			<path fill="none" stroke="#EBE540" stroke-width="0.25" stroke-miterlimit="10" d="M1259,752.4c0,0-1.2,1-3.5,0.4
				s-3.3-1.9-3.3-1.9s-1.1-0.8-1.3,1c-0.1,1.8-0.5,3.7-0.1,4.4c0.5,0.6,1.6,1.2,3.7,1.6s3.9,0.1,4.1-0.5S1259.8,752,1259,752.4z"/>
			<g>
				<polygon fill="#536C77" points="1324.4,680.7 1238.7,680.7 1239.3,676.2 1323.7,676.2 				"/>
				<polygon fill="#536C77" points="1367.3,706.5 1324.8,680.7 1324.1,676.2 1366.6,702 				"/>
				<polygon fill="#445962" points="1363.6,704.2 1324.8,680.7 1241.5,680.7 1264.1,704.2 				"/>
				<polygon fill="#758D99" points="1367.6,706.2 1264.4,706.2 1265.2,701.7 1366.8,701.7 				"/>
				<polygon fill="#758D99" points="1264.4,706.2 1238.7,680.7 1239.2,675.7 1264.8,701.7 				"/>
			</g>
			<g>
				<g>
					<path fill="#077D88" d="M1377.2,757.6c-2.2-16.2-4.4-32.5-6.6-48.7c-1.1-8.2-2.2-16.5-3.4-24.7c-0.7-5.4-2.9-10.4-6.4-14.7
						c-7.3-9.2-18-7.6-28.5-7.6c-12.1,0-24.3,0-36.4,0c-5,0-10.3-0.7-15,1c-11.2,4.2-15,14.5-16.7,25.4
						c-3.6,22.8-8.1,45.6-12.4,68.3c-0.7,3.8,5.1,5.4,5.8,1.6c3.6-18.7,7.2-37.5,10.4-56.3c1.7-10,1.5-23.9,10.2-30.7
						c1.5-1.1,3.1-2.1,4.9-2.7c0.6-0.2,2.9-0.7,2.4-0.7c-0.8,0.1,0.7,0,0.9,0c1.5,0,3,0,4.5,0c11,0,22,0,33,0c5.3,0,10.6,0,16,0
						c4.9,0,9.8-0.5,13.9,2.7c4.3,3.4,6.9,9,7.7,14.3c1.1,7.3,2,14.6,3,21.8c2.4,17.5,4.8,35,7.1,52.4
						C1371.9,763,1377.7,761.4,1377.2,757.6L1377.2,757.6z"/>
				</g>
			</g>
			<g>
				<g>
					<path fill="#025D60" d="M1339.1,575.3c-2.1,14.2-4.1,28.4-7.1,42.4c-2.2,9.9-7.3,20.9-17.9,23.9c-4.3,1.2-9,0.8-13.4,0.8
						c-4.6,0-9.2,0-13.8,0c-10.6,0-21.3,0-31.9,0c-6.4,0-12.9,0-19.3,0c-3.9,0-3.9,6,0,6c17.1,0,34.2,0,51.2,0
						c9.1,0,20,1.4,28.8-1.1c10.8-3.1,17.8-13.1,20.9-23.4c4.6-15,6-31.6,8.3-47.1C1345.4,573.1,1339.6,571.5,1339.1,575.3
						L1339.1,575.3z"/>
				</g>
			</g>
			<g>
				<path fill="#5C3F36" d="M1261.2,663.7h83.2c2.3,0,3-8.4,0.9-9.4l-36.3-11.1c-2.5-1.1-5.3-1.7-8-1.7l-74.1-5.1
					c-2.3,0-2.2,8.1-0.2,9.3l26.4,15.6C1255.5,662.9,1258.3,663.7,1261.2,663.7z"/>
				<path fill="#6C4B40" d="M1261.2,658.4h83.2c2.3,0,3-3.2,0.9-4.1L1309,638c-2.5-1.1-5.3-1.7-8-1.7h-73.2c-2.3,0-3.2,3.1-1.2,4.3
					l26.4,15.6C1255.5,657.6,1258.3,658.4,1261.2,658.4z"/>
				<ellipse fill="#4D332D" cx="1301.4" cy="639.9" rx="1.8" ry="1"/>
				<ellipse fill="#4D332D" cx="1241.5" cy="639.9" rx="1.8" ry="1"/>
				<ellipse fill="#4D332D" cx="1326.2" cy="652.3" rx="1.8" ry="1"/>
				<ellipse fill="#4D332D" cx="1262.8" cy="652.3" rx="1.8" ry="1"/>
			</g>
			<g>
				<g>
					<path fill="#077D88" d="M1243,589.9c-1.7,14.2-3.4,28.4-4.9,42.6c-1.4,13-5.5,28.1,0.5,40.5c3.5,7.3,10,12.4,17,16.2
						c3.1,1.7,7.4,4,11.1,3.8c3.8-0.3,3.9-6.3,0-6c-3.1,0.2-7-2.3-9.5-3.7c-6.1-3.5-11.6-8.1-14.1-14.9c-2.1-5.5-1.8-7.4-1.3-13.2
						c1.4-16.8,3.5-33.5,5.5-50.2c0.6-5,1.2-10,1.8-15C1249.4,586,1243.4,586.1,1243,589.9L1243,589.9z"/>
				</g>
			</g>
			<g>
				<g>
					<path fill="#0C8F9E" d="M1374.9,600.5c-0.4,0.9-3.3,2.8-5.8,2.8c-1,0-2-0.1-3-0.2c-3.7-0.3-7.4-0.6-11-0.9
						c-12.3-1.1-24.6-2.2-36.8-3.4c-21.7-2-43.4-4.3-65.1-6.2c-0.5,0-1.1-0.1-1.6-0.2c1.8,0.3-0.6-0.2-0.9-0.3
						c-1.4-0.4-2.9-0.7-4.3-1.1c-6.8-1.9-16.4-3.9-21.2-9.6c-2.5-2.9-6.7,1.3-4.2,4.2c4.5,5.3,12.7,7.7,19.1,9.7
						c3.8,1.2,7.8,2.5,11.7,3c7.3,1,14.7,1.4,22.1,2.1c27.3,2.6,54.7,5.3,82,7.7c8.4,0.7,20.8,3.7,25-6.2
						C1382.2,598.5,1376.4,597,1374.9,600.5L1374.9,600.5z"/>
				</g>
			</g>
			<g>
				<path fill="#5C3F36" d="M1374.3,600.5c1.1,1-4.9,5-21.1,3.2s-131.5-14-131.5-14s-8.3-1-13.5-2.5s-20.2-6.3-20.2-6.3
					s-1.1-3.6,3.4-3.1c5.2,0.6,57.2,8.2,61.8,9.3c4.1,1,12.2,1,18.4,2.5c3.9,1,8.7,2.5,12,2.9c4.5,0.6,75.1,8.5,77.8,8.7
					S1374.3,600.5,1374.3,600.5z"/>
				<path fill="#6C4B40" d="M1374.3,600.5c1.1,1-4.9,1.8-21.1,0s-131.5-14-131.5-14s-8.3-1-13.5-2.5s-20-4.9-20-4.9
					s-1.3-1.8,3.3-1.3c5.2,0.6,57.2,4.9,61.8,6.1c4.1,1,13.4,3.2,19.6,4.8c3.9,1,8.1,1.6,11.3,2.1c4.5,0.6,74.5,8.3,77.3,8.5
					S1374.3,600.5,1374.3,600.5z"/>
			</g>
			<g>
				<path fill="#5C3F36" d="M1335.7,579.9l45.2,10.4c1.4,0.3,2.8-0.6,3-2.1l5-34.8c0.2-1.4-0.8-2.7-2.3-2.8l-45.3-3.6
					c-1.3-0.1-2.4,0.8-2.7,2l-5,28.1C1333.6,578.4,1334.4,579.6,1335.7,579.9z"/>
				<path fill="#6C4B40" d="M1333.5,579.9l45.2,10.4c1.4,0.3,2.8-0.6,3-2.1l5-34.8c0.2-1.4-0.8-2.7-2.3-2.8l-45.3-3.6
					c-1.3-0.1-2.4,0.8-2.7,2l-5,28.1C1331.3,578.4,1332.2,579.6,1333.5,579.9z"/>
				<ellipse fill="#4D332D" cx="1375.2" cy="582.3" rx="1.3" ry="1.3"/>
				<ellipse fill="#4D332D" cx="1337.7" cy="576.1" rx="1.3" ry="1.3"/>
				<ellipse fill="#4D332D" cx="1380.5" cy="554.8" rx="1.3" ry="1.3"/>
				<ellipse fill="#4D332D" cx="1343.9" cy="551.4" rx="1.3" ry="1.3"/>
			</g>
		</g>
	</g>
</g>
</svg>
