<?xml version="1.0" encoding="utf-8"?>
<!-- Generator: Adobe Illustrator 18.1.0, SVG Export Plug-In . SVG Version: 6.00 Build 0)  -->
<svg version="1.1" id="Capa_1" xmlns="http://www.w3.org/2000/svg" xmlns:xlink="http://www.w3.org/1999/xlink" x="0px" y="0px"
	 viewBox="0 0 278.68 69.95" style="enable-background:new 0 0 278.68 69.95;" xml:space="preserve">
<style type="text/css">
	.st0{opacity:0.72;fill:#424242;}
	.st1{fill:#F5F5F5;}
	.st2{fill:#E0E0E0;}
	.st3{fill:#BDBDBD;}
	.st4{fill:#F57F17;}
	.st5{fill:#616161;}
	.st6{fill:#FDD835;}
	.st7{fill:#FFEE58;}
	.st8{fill:#1D1E1C;}
	.st9{fill:#BA68C8;}
	.st10{fill:#FEF8C5;}
	.st11{fill:#FEF077;}
	.st12{opacity:0.14;fill:#616261;}
	.st13{clip-path:url(#SVGID_2_);}
	.st14{fill:#A2704D;}
	.st15{fill:#8C5D3C;}
	.st16{fill:#1D1D1B;}
	.st17{fill:#EF6D3F;}
	.st18{fill:#DB572E;}
	.st19{opacity:0.3;fill:#F5F5F5;}
	.st20{fill:#5DACBD;}
	.st21{fill:#57A1AD;}
	.st22{fill:#EFE9B4;}
	.st23{fill:#F9F7E1;}
	.st24{fill:#6B432B;}
	.st25{opacity:0.2;fill:#FFFFFF;}
	.st26{fill:#B78767;}
	.st27{opacity:0.3;}
	.st28{fill:#D19384;}
	.st29{fill:#FFFFFF;}
	.st30{fill:#A03C50;}
	.st31{fill:#CB6272;}
	.st32{clip-path:url(#SVGID_4_);}
	.st33{fill:#8E24AA;}
	.st34{clip-path:url(#SVGID_6_);}
	.st35{fill:#4B2504;}
	.st36{fill:#8DCBCF;}
	.st37{clip-path:url(#SVGID_8_);}
	.st38{fill:#7FC4C7;}
	.st39{fill:#C6C5C3;}
	.st40{opacity:0.3;fill:#FFFFFF;enable-background:new    ;}
	.st41{fill:#1F140F;}
	.st42{fill:#7A3481;}
	.st43{clip-path:url(#SVGID_10_);fill:#692872;}
	.st44{fill:#D9A08C;}
	.st45{fill:#E1AC97;}
	.st46{clip-path:url(#SVGID_12_);fill:#692872;}
	.st47{clip-path:url(#SVGID_14_);fill:#692872;}
	.st48{clip-path:url(#SVGID_16_);fill:#692872;}
	.st49{clip-path:url(#SVGID_18_);fill:#D9A08C;}
	.st50{fill:#692872;}
	.st51{clip-path:url(#SVGID_20_);fill:#D9A08C;}
	.st52{clip-path:url(#SVGID_22_);fill:#D9A08C;}
	.st53{clip-path:url(#SVGID_24_);fill:#D9A08C;}
	.st54{fill:#D31876;}
	.st55{fill:#D38E82;}
	.st56{fill:#993B4E;}
	.st57{fill:#C05F6E;}
	.st58{clip-path:url(#SVGID_26_);}
	.st59{clip-path:url(#SVGID_28_);}
	.st60{clip-path:url(#SVGID_30_);fill:#692872;}
	.st61{clip-path:url(#SVGID_32_);fill:#692872;}
	.st62{clip-path:url(#SVGID_34_);fill:#692872;}
	.st63{clip-path:url(#SVGID_36_);fill:#692872;}
	.st64{clip-path:url(#SVGID_38_);fill:#D9A08C;}
	.st65{clip-path:url(#SVGID_40_);fill:#D9A08C;}
	.st66{clip-path:url(#SVGID_42_);fill:#D9A08C;}
	.st67{clip-path:url(#SVGID_44_);fill:#D9A08C;}
	.st68{clip-path:url(#SVGID_46_);}
	.st69{clip-path:url(#SVGID_48_);}
	.st70{clip-path:url(#SVGID_50_);fill:#692872;}
	.st71{clip-path:url(#SVGID_52_);fill:#692872;}
	.st72{clip-path:url(#SVGID_54_);fill:#692872;}
	.st73{clip-path:url(#SVGID_56_);fill:#692872;}
	.st74{clip-path:url(#SVGID_58_);fill:#D9A08C;}
	.st75{clip-path:url(#SVGID_60_);fill:#D9A08C;}
	.st76{clip-path:url(#SVGID_62_);fill:#D9A08C;}
	.st77{clip-path:url(#SVGID_64_);fill:#D9A08C;}
	.st78{fill:#1565C0;}
	.st79{clip-path:url(#SVGID_66_);}
	.st80{fill:#CA8C63;}
	.st81{fill:#B67655;}
	.st82{fill:#3C4C9B;}
	.st83{fill:#29398D;}
	.st84{fill:#DCAE8D;}
	.st85{fill:#7985C1;}
	.st86{fill:#925F36;}
	.st87{fill:#C89E7D;}
	.st88{fill:#7E4E24;}
	.st89{fill:#B71E1E;}
	.st90{opacity:0.3;fill:#FFFFFF;}
	.st91{fill:#98191B;}
	.st92{fill:#E67373;}
	.st93{fill:#701518;}
	.st94{opacity:0.8;fill:#D07475;}
	.st95{clip-path:url(#SVGID_68_);}
	.st96{clip-path:url(#SVGID_70_);}
	.st97{fill:#5D4037;}
	.st98{clip-path:url(#SVGID_72_);}
	.st99{fill:#C79B66;}
	.st100{fill:#7E665F;}
	.st101{fill:#DEC3A2;}
	.st102{fill:#96774D;}
	.st103{fill:#452F28;}
	.st104{fill:#CC9B6B;}
	.st105{fill:#F3B980;}
	.st106{fill:#B68A60;}
	.st107{fill:#1C1C1B;}
	.st108{fill:#FFD600;}
	.st109{fill:#F8B032;}
	.st110{fill:#916036;}
	.st111{fill:#FFEB85;}
	.st112{fill:#BD9E85;}
	.st113{fill:#6E4729;}
	.st114{fill:none;stroke:#E4332A;stroke-miterlimit:10;}
	.st115{fill:#F19004;}
	.st116{fill:#EFEFEF;}
	.st117{fill:#F7D4B2;}
	.st118{fill:#2F1D19;}
	.st119{fill:#1F1412;}
	.st120{fill:#5A4A48;}
	.st121{opacity:0.8;}
	.st122{fill:#DA9085;}
	.st123{fill:#E1F2FC;}
	.st124{fill:#848585;}
	.st125{fill:#CC6273;}
	.st126{fill:#B0B0B0;}
	.st127{fill:#A1877F;}
	.st128{fill:#A13D51;}
	.st129{fill:#E0A0AB;}
	.st130{clip-path:url(#SVGID_74_);}
	.st131{clip-path:url(#SVGID_76_);}
	.st132{clip-path:url(#SVGID_78_);}
</style>
<g>
	<rect y="12.66" class="st6" width="204" height="56"/>
	<polygon class="st7" points="203.86,12.66 0,67.62 0,12.66 	"/>
	<g>
		<g>
			<path class="st4" d="M28.18,32.43c0,0.31-0.07,0.6-0.21,0.85c-0.14,0.25-0.33,0.46-0.56,0.63c-0.23,0.17-0.49,0.32-0.77,0.44
				c-0.28,0.12-0.56,0.2-0.82,0.25c-0.03,1.87-0.1,3.68-0.21,5.42s-0.28,3.54-0.51,5.39h0.15c0.27,0,0.53,0.03,0.78,0.09
				c0.26,0.06,0.49,0.16,0.7,0.3c0.21,0.14,0.37,0.31,0.5,0.52c0.12,0.21,0.19,0.46,0.19,0.76c0,0.38-0.12,0.71-0.36,0.99
				c-0.24,0.28-0.56,0.52-0.94,0.72s-0.82,0.36-1.3,0.5c-0.48,0.13-0.96,0.24-1.44,0.31c-0.48,0.07-0.94,0.13-1.37,0.16
				c-0.43,0.03-0.78,0.05-1.04,0.05c-0.2,0-0.44-0.01-0.73-0.02c-0.29-0.02-0.56-0.07-0.82-0.15c-0.26-0.08-0.48-0.21-0.66-0.37
				s-0.27-0.39-0.27-0.67c0-0.35,0.07-0.66,0.21-0.93c0.14-0.27,0.33-0.52,0.56-0.73c0.23-0.21,0.49-0.39,0.78-0.52
				c0.29-0.13,0.58-0.23,0.88-0.3c0.12-0.91,0.22-1.82,0.32-2.72c0.1-0.9,0.17-1.82,0.2-2.75c0.03-0.94,0.07-1.88,0.1-2.8
				c0.03-0.92,0.07-1.84,0.1-2.77c-0.12,0.02-0.22,0.03-0.32,0.04c-0.1,0.01-0.19,0.01-0.27,0.01c-0.23,0-0.48-0.02-0.75-0.07
				s-0.51-0.14-0.75-0.26c-0.23-0.12-0.43-0.28-0.58-0.46c-0.16-0.18-0.24-0.41-0.24-0.7c0-0.56,0.24-1.03,0.71-1.39
				c0.47-0.36,1.04-0.65,1.69-0.85c0.65-0.2,1.32-0.34,2-0.41c0.68-0.07,1.23-0.11,1.64-0.11c0.23,0,0.54,0.02,0.92,0.05
				c0.38,0.03,0.76,0.11,1.13,0.22c0.37,0.12,0.7,0.27,0.97,0.47C28.04,31.81,28.18,32.08,28.18,32.43z"/>
			<path class="st4" d="M37.41,40.01c-0.23,0.02-0.43,0-0.6-0.06c-0.17-0.06-0.33-0.12-0.5-0.19c-0.15-0.07-0.3-0.13-0.45-0.19
				c-0.15-0.06-0.31-0.08-0.5-0.06c-0.33,0.02-0.63,0.11-0.88,0.27c-0.26,0.17-0.49,0.37-0.7,0.62c-0.21,0.25-0.39,0.53-0.53,0.83
				c-0.15,0.31-0.27,0.61-0.35,0.91c-0.05,0.2-0.09,0.5-0.11,0.91c-0.02,0.41-0.04,0.84-0.04,1.3c-0.02,0.48-0.02,0.94-0.02,1.37
				c0,0.43-0.02,0.77-0.05,1.02c-0.02,0.27-0.06,0.58-0.12,0.93s-0.17,0.69-0.31,1.01c-0.14,0.31-0.33,0.58-0.56,0.8
				c-0.23,0.22-0.53,0.32-0.9,0.32c-0.28,0-0.53-0.08-0.73-0.25c-0.21-0.17-0.38-0.39-0.52-0.66c-0.14-0.27-0.26-0.59-0.35-0.96
				c-0.09-0.36-0.16-0.74-0.21-1.12c-0.05-0.4-0.09-0.8-0.11-1.19c-0.02-0.4-0.04-0.77-0.05-1.13c-0.01-0.36-0.01-0.68,0-0.98
				c0.01-0.3,0.01-0.54,0.01-0.72c-0.02-0.58-0.05-1.16-0.09-1.75c-0.04-0.59-0.06-1.17-0.06-1.75c0-0.36,0.02-0.77,0.05-1.22
				c0.03-0.45,0.12-0.87,0.27-1.26c0.15-0.39,0.37-0.72,0.66-0.98c0.29-0.26,0.69-0.4,1.21-0.4c0.28,0,0.52,0.09,0.72,0.27
				c0.2,0.18,0.36,0.41,0.48,0.67c0.12,0.27,0.22,0.55,0.29,0.85c0.07,0.3,0.11,0.57,0.12,0.82c0.4-0.65,0.84-1.17,1.34-1.58
				c0.5-0.41,1.14-0.62,1.94-0.66c0.4-0.02,0.79,0.02,1.18,0.11c0.39,0.09,0.75,0.24,1.07,0.45s0.59,0.48,0.8,0.81
				c0.21,0.33,0.32,0.72,0.34,1.17c0.03,0.53-0.12,0.94-0.47,1.22C38.33,39.84,37.91,39.99,37.41,40.01z"/>
			<path class="st4" d="M56.58,45.8c0,0.3-0.01,0.69-0.04,1.17c-0.02,0.48-0.1,0.95-0.21,1.4c-0.12,0.46-0.3,0.85-0.55,1.18
				s-0.6,0.5-1.04,0.5c-0.61,0-1.09-0.2-1.42-0.6c-0.33-0.4-0.49-0.89-0.47-1.49c-0.53,0.46-1.13,0.83-1.8,1.09
				c-0.67,0.26-1.35,0.4-2.05,0.4c-0.48,0-0.94-0.12-1.37-0.35c-0.43-0.23-0.81-0.53-1.14-0.9c-0.33-0.36-0.6-0.77-0.8-1.23
				c-0.2-0.46-0.3-0.91-0.3-1.35c0-0.8,0.24-1.49,0.73-2.09c0.49-0.6,1.09-1.11,1.8-1.53c0.71-0.42,1.47-0.76,2.27-1.01
				s1.52-0.41,2.15-0.5c0-0.08,0-0.16,0.01-0.22c0.01-0.07,0.01-0.14,0.01-0.22c0-0.51-0.14-0.93-0.42-1.24s-0.68-0.47-1.19-0.47
				c-0.41,0-0.77,0.07-1.07,0.21c-0.3,0.14-0.58,0.3-0.85,0.47c-0.27,0.17-0.53,0.33-0.8,0.47c-0.27,0.14-0.56,0.21-0.89,0.21
				c-0.36,0-0.68-0.12-0.93-0.35c-0.26-0.23-0.39-0.53-0.39-0.9c0-0.55,0.16-1.04,0.48-1.49c0.32-0.45,0.73-0.82,1.22-1.13
				c0.49-0.31,1.02-0.55,1.59-0.72c0.57-0.17,1.1-0.26,1.58-0.26c0.45,0,0.89,0.05,1.34,0.16c0.45,0.11,0.87,0.27,1.27,0.5
				c0.4,0.22,0.76,0.5,1.08,0.82c0.32,0.32,0.58,0.7,0.78,1.13c0.3,0.61,0.54,1.26,0.72,1.95c0.18,0.69,0.32,1.39,0.42,2.11
				c0.1,0.72,0.17,1.44,0.2,2.16S56.58,45.12,56.58,45.8z M52.61,45.01l-0.07-1.69c-0.03,0-0.07,0-0.1-0.01s-0.07-0.01-0.1-0.01
				c-0.22,0-0.48,0.05-0.81,0.16c-0.32,0.11-0.63,0.26-0.93,0.45c-0.3,0.19-0.55,0.4-0.76,0.63c-0.21,0.23-0.31,0.47-0.31,0.72
				c0,0.23,0.08,0.39,0.25,0.47c0.17,0.08,0.36,0.12,0.57,0.12c0.36,0,0.75-0.09,1.17-0.29C51.93,45.37,52.29,45.19,52.61,45.01z"/>
			<path class="st4" d="M62.98,34.24c0,0.9-0.04,1.79-0.11,2.7c-0.07,0.9-0.11,1.81-0.11,2.72c0,1.18,0.04,2.35,0.11,3.53
				c0.07,1.18,0.11,2.36,0.11,3.55c0,0.3-0.02,0.63-0.05,1.01c-0.03,0.37-0.11,0.72-0.24,1.03c-0.12,0.31-0.31,0.58-0.56,0.8
				s-0.58,0.32-0.99,0.32c-0.4,0-0.74-0.2-1.03-0.58c-0.29-0.39-0.53-0.89-0.72-1.49c-0.19-0.6-0.35-1.28-0.47-2.03
				c-0.12-0.75-0.22-1.47-0.27-2.17s-0.1-1.35-0.12-1.94c-0.02-0.59-0.04-1.02-0.04-1.3c0-0.31,0.01-0.77,0.04-1.37
				s0.08-1.24,0.16-1.94c0.08-0.7,0.19-1.4,0.34-2.12c0.14-0.72,0.33-1.38,0.56-1.96c0.23-0.59,0.51-1.07,0.83-1.44
				c0.32-0.37,0.71-0.56,1.16-0.56c0.36,0,0.64,0.12,0.83,0.36c0.19,0.24,0.33,0.53,0.41,0.87c0.08,0.34,0.13,0.7,0.15,1.07
				C62.97,33.66,62.98,33.98,62.98,34.24z"/>
			<path class="st4" d="M75.67,40.41c0,0.23,0,0.48,0,0.73c0,0.26-0.01,0.5-0.02,0.73c-0.02,0.28-0.02,0.66-0.02,1.13
				s-0.02,0.98-0.05,1.53c-0.03,0.55-0.09,1.1-0.16,1.67c-0.07,0.56-0.19,1.08-0.36,1.54c-0.17,0.46-0.39,0.84-0.66,1.13
				c-0.27,0.29-0.62,0.44-1.03,0.46c-0.31,0.02-0.58-0.11-0.8-0.37c-0.22-0.26-0.39-0.61-0.53-1.03c-0.14-0.42-0.24-0.9-0.31-1.42
				c-0.07-0.52-0.12-1.03-0.15-1.52c-0.03-0.49-0.05-0.94-0.05-1.35c0-0.41,0-0.72,0-0.92c0-0.27,0-0.64,0-1.13
				c0-0.49,0.02-1.01,0.05-1.58c0.03-0.56,0.1-1.13,0.19-1.71c0.09-0.58,0.22-1.11,0.4-1.59c0.17-0.48,0.4-0.87,0.68-1.17
				c0.28-0.3,0.64-0.45,1.07-0.45c0.45,0,0.79,0.22,1.02,0.67c0.23,0.45,0.41,0.97,0.52,1.57c0.12,0.6,0.18,1.19,0.2,1.78
				C75.66,39.69,75.67,40.13,75.67,40.41z M75.47,31.96c0,0.23-0.06,0.44-0.19,0.62c-0.12,0.18-0.29,0.34-0.48,0.48
				c-0.2,0.14-0.41,0.25-0.65,0.32S73.7,33.5,73.5,33.5c-0.33,0-0.62-0.08-0.87-0.25c-0.25-0.17-0.37-0.42-0.37-0.77
				c0-0.25,0.06-0.47,0.19-0.66c0.12-0.19,0.28-0.35,0.46-0.47c0.18-0.12,0.39-0.22,0.62-0.29c0.23-0.07,0.46-0.1,0.67-0.1
				c0.31,0,0.6,0.07,0.87,0.22C75.33,31.33,75.47,31.59,75.47,31.96z"/>
			<path class="st4" d="M84.74,50c-0.28,0-0.51-0.13-0.67-0.39s-0.29-0.55-0.37-0.88c-0.08-0.33-0.14-0.67-0.16-1.01
				s-0.04-0.6-0.04-0.78c0-0.5,0.03-0.99,0.09-1.49c0.06-0.5,0.12-0.99,0.2-1.49s0.14-0.99,0.2-1.49c0.06-0.5,0.09-0.99,0.09-1.49
				c0-0.2-0.01-0.41-0.02-0.65s-0.05-0.45-0.11-0.66c-0.06-0.21-0.15-0.38-0.29-0.51c-0.13-0.13-0.31-0.2-0.52-0.2
				c-0.15,0-0.31,0.12-0.5,0.36c-0.18,0.24-0.35,0.51-0.51,0.82s-0.29,0.61-0.4,0.92c-0.11,0.31-0.16,0.53-0.16,0.68
				c0,0.36,0,0.73,0.01,1.11c0.01,0.37,0.01,0.75,0.01,1.13v1.44c-0.02,0.3-0.04,0.6-0.07,0.92c-0.03,0.32-0.08,0.62-0.15,0.92
				c-0.05,0.3-0.12,0.58-0.22,0.86c-0.1,0.27-0.23,0.51-0.39,0.72c-0.16,0.21-0.34,0.38-0.56,0.51s-0.47,0.2-0.77,0.2
				c-0.33,0-0.6-0.11-0.82-0.32c-0.22-0.21-0.39-0.49-0.52-0.83c-0.13-0.34-0.23-0.72-0.29-1.14c-0.06-0.42-0.1-0.84-0.12-1.24
				c-0.02-0.41-0.03-0.78-0.02-1.12c0.01-0.34,0.01-0.61,0.01-0.81v-1.17c0-0.63-0.01-1.25-0.04-1.86
				c-0.02-0.61-0.04-1.23-0.04-1.84c0-0.33,0-0.75,0.01-1.27c0.01-0.51,0.07-1.01,0.19-1.5c0.12-0.49,0.31-0.91,0.57-1.25
				c0.26-0.35,0.65-0.52,1.17-0.52c0.23,0,0.44,0.07,0.62,0.22c0.18,0.15,0.34,0.33,0.48,0.55c0.14,0.22,0.26,0.45,0.35,0.7
				c0.09,0.25,0.16,0.46,0.21,0.65c0.17-0.23,0.36-0.46,0.58-0.67c0.22-0.21,0.48-0.41,0.76-0.57c0.28-0.17,0.6-0.3,0.94-0.4
				c0.35-0.1,0.75-0.15,1.19-0.15c0.85,0,1.5,0.2,1.98,0.61s0.82,0.91,1.04,1.52s0.36,1.25,0.41,1.95c0.05,0.7,0.07,1.33,0.07,1.89
				c0,0.28-0.02,0.7-0.07,1.26s-0.13,1.17-0.24,1.84c-0.11,0.67-0.25,1.36-0.44,2.06c-0.18,0.7-0.4,1.35-0.65,1.93
				s-0.54,1.05-0.88,1.42C85.56,49.82,85.17,50,84.74,50z"/>
			<path class="st4" d="M97.1,35.63c0,0.48-0.16,0.84-0.48,1.07c-0.32,0.23-0.68,0.45-1.08,0.66c-0.4,0.21-0.76,0.45-1.08,0.73
				c-0.32,0.28-0.48,0.7-0.48,1.27c0,0.3,0.07,0.56,0.21,0.77c0.14,0.22,0.31,0.41,0.52,0.58c0.21,0.17,0.43,0.35,0.68,0.53
				c0.25,0.18,0.48,0.39,0.68,0.62s0.38,0.51,0.52,0.85s0.21,0.74,0.21,1.22c0,0.7-0.18,1.38-0.53,2.05
				c-0.36,0.67-0.81,1.27-1.37,1.79c-0.56,0.52-1.18,0.94-1.88,1.26c-0.7,0.31-1.38,0.47-2.06,0.47c-0.28,0-0.56-0.02-0.85-0.06
				c-0.28-0.04-0.53-0.12-0.76-0.24c-0.22-0.12-0.41-0.28-0.56-0.48s-0.22-0.48-0.22-0.81c0-0.46,0.09-0.82,0.27-1.08
				c0.18-0.26,0.41-0.46,0.7-0.61s0.58-0.26,0.91-0.35c0.32-0.08,0.63-0.19,0.91-0.31s0.51-0.29,0.7-0.48
				c0.18-0.2,0.27-0.48,0.27-0.84c0-0.35-0.14-0.71-0.41-1.08c-0.27-0.37-0.58-0.77-0.91-1.19s-0.63-0.87-0.91-1.35
				c-0.27-0.48-0.41-1.01-0.41-1.59c0-0.71,0.14-1.37,0.43-1.98c0.29-0.6,0.68-1.13,1.17-1.58c0.49-0.45,1.05-0.8,1.68-1.06
				c0.63-0.26,1.29-0.39,1.99-0.39c0.27,0,0.53,0.02,0.78,0.07c0.26,0.05,0.48,0.14,0.68,0.26c0.2,0.12,0.36,0.29,0.48,0.5
				C97.04,35.06,97.1,35.32,97.1,35.63z"/>
			<path class="st4" d="M104.14,50.2c-1.18,0-2.09-0.15-2.75-0.46c-0.65-0.31-1.14-0.74-1.47-1.31c-0.32-0.56-0.52-1.24-0.58-2.04
				c-0.07-0.8-0.1-1.68-0.1-2.66c0-0.78,0.02-1.56,0.07-2.35c0.05-0.79,0.12-1.63,0.22-2.52c-0.23,0-0.41,0-0.55,0.01
				c-0.13,0.01-0.24,0.01-0.32,0.01c-0.53,0-0.99-0.12-1.38-0.35s-0.58-0.59-0.58-1.07c0-0.3,0.11-0.56,0.34-0.8
				c0.22-0.23,0.51-0.43,0.86-0.6c0.35-0.17,0.72-0.3,1.13-0.4c0.41-0.1,0.79-0.17,1.16-0.2c0-0.46,0.03-0.98,0.1-1.54
				c0.07-0.56,0.19-1.09,0.36-1.58c0.17-0.49,0.41-0.9,0.71-1.23c0.3-0.33,0.68-0.5,1.14-0.5c0.26,0,0.5,0.08,0.71,0.24
				c0.21,0.16,0.38,0.36,0.51,0.6s0.23,0.51,0.3,0.81c0.07,0.3,0.1,0.59,0.1,0.87c0,0.33-0.02,0.67-0.07,1.02
				c-0.05,0.35-0.14,0.78-0.27,1.29c0.28-0.03,0.47-0.05,0.57-0.06c0.1-0.01,0.19-0.01,0.27-0.01c0.28,0,0.58,0.02,0.88,0.07
				c0.31,0.05,0.59,0.13,0.85,0.25c0.26,0.12,0.47,0.27,0.63,0.46c0.17,0.19,0.25,0.42,0.25,0.68c0,0.3-0.12,0.56-0.36,0.8
				c-0.24,0.23-0.54,0.43-0.91,0.6c-0.36,0.17-0.75,0.29-1.17,0.39c-0.41,0.09-0.8,0.15-1.17,0.19c-0.1,0.68-0.17,1.3-0.21,1.88
				c-0.04,0.57-0.09,1.15-0.14,1.73c-0.03,0.28-0.06,0.57-0.09,0.86c-0.02,0.29-0.04,0.58-0.04,0.88c0,0.22,0.01,0.47,0.02,0.76
				s0.07,0.57,0.17,0.83c0.1,0.27,0.26,0.49,0.47,0.68c0.22,0.19,0.51,0.29,0.89,0.29c0.23,0,0.47-0.02,0.72-0.06
				s0.5-0.06,0.75-0.06c0.43,0,0.74,0.15,0.93,0.45c0.19,0.3,0.29,0.68,0.29,1.14c0,0.35-0.1,0.65-0.31,0.91
				c-0.21,0.26-0.47,0.46-0.78,0.62c-0.31,0.16-0.67,0.28-1.06,0.36C104.86,50.16,104.49,50.2,104.14,50.2z"/>
			<path class="st4" d="M116.77,40.01c-0.23,0.02-0.43,0-0.6-0.06c-0.17-0.06-0.33-0.12-0.5-0.19c-0.15-0.07-0.3-0.13-0.45-0.19
				c-0.15-0.06-0.31-0.08-0.5-0.06c-0.33,0.02-0.63,0.11-0.88,0.27c-0.26,0.17-0.49,0.37-0.7,0.62c-0.21,0.25-0.39,0.53-0.53,0.83
				c-0.15,0.31-0.27,0.61-0.35,0.91c-0.05,0.2-0.09,0.5-0.11,0.91c-0.02,0.41-0.04,0.84-0.04,1.3c-0.02,0.48-0.02,0.94-0.02,1.37
				c0,0.43-0.02,0.77-0.05,1.02c-0.02,0.27-0.06,0.58-0.12,0.93s-0.17,0.69-0.31,1.01c-0.14,0.31-0.33,0.58-0.56,0.8
				c-0.23,0.22-0.53,0.32-0.9,0.32c-0.28,0-0.53-0.08-0.73-0.25c-0.21-0.17-0.38-0.39-0.52-0.66c-0.14-0.27-0.26-0.59-0.35-0.96
				c-0.09-0.36-0.16-0.74-0.21-1.12c-0.05-0.4-0.09-0.8-0.11-1.19c-0.02-0.4-0.04-0.77-0.05-1.13c-0.01-0.36-0.01-0.68,0-0.98
				c0.01-0.3,0.01-0.54,0.01-0.72c-0.02-0.58-0.05-1.16-0.09-1.75c-0.04-0.59-0.06-1.17-0.06-1.75c0-0.36,0.02-0.77,0.05-1.22
				c0.03-0.45,0.12-0.87,0.27-1.26c0.15-0.39,0.37-0.72,0.66-0.98c0.29-0.26,0.69-0.4,1.21-0.4c0.28,0,0.52,0.09,0.72,0.27
				c0.2,0.18,0.36,0.41,0.48,0.67c0.12,0.27,0.22,0.55,0.29,0.85c0.07,0.3,0.11,0.57,0.12,0.82c0.4-0.65,0.84-1.17,1.34-1.58
				c0.5-0.41,1.14-0.62,1.94-0.66c0.4-0.02,0.79,0.02,1.18,0.11c0.39,0.09,0.75,0.24,1.07,0.45s0.59,0.48,0.8,0.81
				c0.21,0.33,0.32,0.72,0.34,1.17c0.03,0.53-0.12,0.94-0.47,1.22C117.69,39.84,117.27,39.99,116.77,40.01z"/>
			<path class="st4" d="M130.03,42.2c0,0.91-0.09,1.81-0.27,2.71c-0.18,0.9-0.49,1.69-0.92,2.4c-0.43,0.7-1.01,1.27-1.73,1.7
				s-1.62,0.65-2.7,0.65c-1.06,0-1.95-0.21-2.66-0.63c-0.71-0.42-1.28-0.98-1.7-1.68c-0.42-0.7-0.72-1.48-0.89-2.36
				c-0.17-0.88-0.26-1.77-0.26-2.68c0-0.99,0.12-1.98,0.35-2.96c0.05-0.27,0.14-0.63,0.29-1.11c0.14-0.47,0.32-0.94,0.55-1.39
				c0.22-0.46,0.48-0.85,0.77-1.18c0.29-0.33,0.61-0.5,0.96-0.5c0.33,0,0.6,0.09,0.8,0.27c0.2,0.18,0.36,0.41,0.47,0.68
				c0.12,0.27,0.19,0.56,0.22,0.87c0.03,0.31,0.05,0.58,0.05,0.83c0,0.38-0.03,0.75-0.09,1.12c-0.06,0.36-0.12,0.73-0.19,1.09
				c-0.07,0.5-0.13,0.99-0.19,1.49s-0.09,0.99-0.09,1.49c0,0.25,0.01,0.53,0.04,0.83s0.09,0.6,0.19,0.88s0.24,0.52,0.42,0.71
				c0.18,0.19,0.44,0.29,0.77,0.29c0.43,0,0.77-0.12,1.03-0.35c0.26-0.23,0.45-0.52,0.57-0.87c0.12-0.35,0.2-0.72,0.24-1.12
				c0.03-0.4,0.05-0.76,0.05-1.09c0-0.73-0.05-1.45-0.15-2.15c-0.1-0.7-0.19-1.42-0.27-2.15c-0.02-0.08-0.02-0.2-0.02-0.35
				c0-0.25,0.04-0.5,0.12-0.75s0.2-0.47,0.35-0.67c0.15-0.2,0.33-0.36,0.55-0.48c0.22-0.12,0.46-0.19,0.72-0.19
				c0.36,0,0.69,0.13,0.97,0.39c0.28,0.26,0.52,0.59,0.71,0.99c0.19,0.41,0.35,0.86,0.47,1.37c0.12,0.51,0.22,1,0.3,1.49
				c0.07,0.49,0.12,0.95,0.15,1.38C130.02,41.61,130.03,41.95,130.03,42.2z"/>
			<path class="st4" d="M141.02,39.76c0,0.08-0.01,0.17-0.02,0.26c-0.02,0.09-0.04,0.18-0.07,0.26c-0.15,0.38-0.38,0.7-0.7,0.96
				s-0.69,0.39-1.12,0.39c-0.65,0-1.09-0.32-1.32-0.97c-0.03-0.08-0.05-0.18-0.05-0.29c0-0.11-0.01-0.22-0.02-0.34v-0.72
				c-0.03-0.23-0.09-0.41-0.17-0.55c-0.08-0.13-0.22-0.2-0.42-0.2c-0.28,0-0.55,0.18-0.81,0.53c-0.26,0.36-0.48,0.78-0.67,1.27
				c-0.19,0.49-0.34,0.99-0.46,1.5c-0.12,0.51-0.17,0.93-0.17,1.24c0,0.25,0.02,0.55,0.05,0.91c0.03,0.36,0.1,0.7,0.2,1.03
				c0.1,0.33,0.24,0.62,0.41,0.86c0.17,0.24,0.4,0.36,0.68,0.36s0.54-0.09,0.78-0.26c0.24-0.17,0.48-0.38,0.71-0.61
				c0.21-0.2,0.45-0.41,0.71-0.62s0.55-0.32,0.88-0.32c0.41,0,0.74,0.15,0.98,0.45s0.36,0.64,0.36,1.02c0,0.56-0.15,1.09-0.45,1.58
				c-0.3,0.49-0.67,0.91-1.12,1.27c-0.45,0.36-0.94,0.64-1.49,0.84s-1.07,0.31-1.57,0.31c-0.89,0-1.65-0.22-2.27-0.67
				c-0.62-0.45-1.12-1.01-1.5-1.7c-0.38-0.69-0.65-1.44-0.82-2.25c-0.17-0.81-0.25-1.58-0.25-2.31c0-0.84,0.12-1.76,0.35-2.75
				c0.23-0.99,0.59-1.9,1.07-2.75c0.48-0.85,1.1-1.55,1.85-2.11c0.75-0.56,1.65-0.85,2.7-0.85c0.65,0,1.21,0.14,1.68,0.42
				s0.86,0.65,1.17,1.11c0.31,0.46,0.54,0.97,0.7,1.53c0.16,0.56,0.24,1.12,0.24,1.67c0,0.08,0,0.17,0,0.25
				C141.05,39.59,141.04,39.68,141.02,39.76z"/>
			<path class="st4" d="M148.46,50.2c-1.18,0-2.09-0.15-2.75-0.46c-0.65-0.31-1.14-0.74-1.47-1.31c-0.32-0.56-0.52-1.24-0.58-2.04
				c-0.07-0.8-0.1-1.68-0.1-2.66c0-0.78,0.02-1.56,0.07-2.35c0.05-0.79,0.12-1.63,0.22-2.52c-0.23,0-0.41,0-0.55,0.01
				c-0.13,0.01-0.24,0.01-0.32,0.01c-0.53,0-0.99-0.12-1.38-0.35s-0.58-0.59-0.58-1.07c0-0.3,0.11-0.56,0.34-0.8
				c0.22-0.23,0.51-0.43,0.86-0.6c0.35-0.17,0.72-0.3,1.13-0.4c0.41-0.1,0.79-0.17,1.16-0.2c0-0.46,0.03-0.98,0.1-1.54
				c0.07-0.56,0.19-1.09,0.36-1.58c0.17-0.49,0.41-0.9,0.71-1.23c0.3-0.33,0.68-0.5,1.14-0.5c0.26,0,0.5,0.08,0.71,0.24
				c0.21,0.16,0.38,0.36,0.51,0.6s0.23,0.51,0.3,0.81c0.07,0.3,0.1,0.59,0.1,0.87c0,0.33-0.02,0.67-0.07,1.02
				c-0.05,0.35-0.14,0.78-0.27,1.29c0.28-0.03,0.47-0.05,0.57-0.06c0.1-0.01,0.19-0.01,0.27-0.01c0.28,0,0.58,0.02,0.88,0.07
				c0.31,0.05,0.59,0.13,0.85,0.25c0.26,0.12,0.47,0.27,0.63,0.46c0.17,0.19,0.25,0.42,0.25,0.68c0,0.3-0.12,0.56-0.36,0.8
				c-0.24,0.23-0.54,0.43-0.91,0.6c-0.36,0.17-0.75,0.29-1.17,0.39c-0.41,0.09-0.8,0.15-1.17,0.19c-0.1,0.68-0.17,1.3-0.21,1.88
				c-0.04,0.57-0.09,1.15-0.14,1.73c-0.03,0.28-0.06,0.57-0.09,0.86c-0.02,0.29-0.04,0.58-0.04,0.88c0,0.22,0.01,0.47,0.02,0.76
				s0.07,0.57,0.17,0.83c0.1,0.27,0.26,0.49,0.47,0.68c0.22,0.19,0.51,0.29,0.89,0.29c0.23,0,0.47-0.02,0.72-0.06
				s0.5-0.06,0.75-0.06c0.43,0,0.74,0.15,0.93,0.45c0.19,0.3,0.29,0.68,0.29,1.14c0,0.35-0.1,0.65-0.31,0.91
				c-0.21,0.26-0.47,0.46-0.78,0.62c-0.31,0.16-0.67,0.28-1.06,0.36C149.17,50.16,148.81,50.2,148.46,50.2z"/>
			<path class="st4" d="M156.77,40.41c0,0.23,0,0.48,0,0.73c0,0.26-0.01,0.5-0.02,0.73c-0.02,0.28-0.02,0.66-0.02,1.13
				s-0.02,0.98-0.05,1.53c-0.03,0.55-0.09,1.1-0.16,1.67c-0.07,0.56-0.19,1.08-0.36,1.54c-0.17,0.46-0.39,0.84-0.66,1.13
				c-0.27,0.29-0.62,0.44-1.03,0.46c-0.31,0.02-0.58-0.11-0.8-0.37c-0.22-0.26-0.39-0.61-0.53-1.03c-0.14-0.42-0.24-0.9-0.31-1.42
				c-0.07-0.52-0.12-1.03-0.15-1.52c-0.03-0.49-0.05-0.94-0.05-1.35c0-0.41,0-0.72,0-0.92c0-0.27,0-0.64,0-1.13
				c0-0.49,0.02-1.01,0.05-1.58c0.03-0.56,0.1-1.13,0.19-1.71c0.09-0.58,0.22-1.11,0.4-1.59c0.17-0.48,0.4-0.87,0.68-1.17
				c0.28-0.3,0.64-0.45,1.07-0.45c0.45,0,0.79,0.22,1.02,0.67c0.23,0.45,0.41,0.97,0.52,1.57c0.12,0.6,0.18,1.19,0.2,1.78
				C156.76,39.69,156.77,40.13,156.77,40.41z M156.57,31.96c0,0.23-0.06,0.44-0.19,0.62c-0.12,0.18-0.29,0.34-0.48,0.48
				c-0.2,0.14-0.41,0.25-0.65,0.32s-0.45,0.11-0.65,0.11c-0.33,0-0.62-0.08-0.87-0.25c-0.25-0.17-0.37-0.42-0.37-0.77
				c0-0.25,0.06-0.47,0.19-0.66c0.12-0.19,0.28-0.35,0.46-0.47c0.18-0.12,0.39-0.22,0.62-0.29c0.23-0.07,0.46-0.1,0.67-0.1
				c0.31,0,0.6,0.07,0.87,0.22C156.43,31.33,156.57,31.59,156.57,31.96z"/>
			<path class="st4" d="M169.5,40.41c-0.43,1.14-0.9,2.34-1.42,3.58c-0.51,1.24-1.07,2.4-1.67,3.48c-0.36,0.66-0.77,1.21-1.22,1.65
				c-0.45,0.44-0.96,0.66-1.54,0.66c-0.46,0-0.92-0.24-1.35-0.71c-0.44-0.47-0.85-1.04-1.22-1.69c-0.37-0.65-0.7-1.32-0.97-1.99
				c-0.27-0.67-0.48-1.21-0.61-1.6c-0.13-0.45-0.28-0.93-0.45-1.44c-0.17-0.51-0.31-1.04-0.45-1.57c-0.13-0.53-0.24-1.06-0.32-1.58
				c-0.08-0.52-0.12-1.02-0.12-1.48c0-0.65,0.12-1.18,0.35-1.59c0.23-0.41,0.69-0.62,1.37-0.62c0.26,0,0.51,0.08,0.72,0.24
				c0.22,0.16,0.41,0.38,0.6,0.66c0.18,0.28,0.36,0.61,0.52,0.98c0.17,0.37,0.32,0.78,0.47,1.23c0.15,0.43,0.29,0.88,0.42,1.34
				c0.13,0.46,0.27,0.91,0.4,1.34c0.13,0.43,0.27,0.85,0.41,1.26c0.14,0.41,0.33,0.81,0.56,1.21c0.12-0.3,0.25-0.64,0.4-1.02
				c0.15-0.38,0.31-0.79,0.48-1.22c0.17-0.43,0.36-0.87,0.56-1.33c0.2-0.46,0.41-0.9,0.65-1.33c0.45-0.89,0.92-1.66,1.43-2.29
				c0.51-0.63,1.01-0.94,1.5-0.94c0.46,0,0.79,0.14,0.99,0.42c0.2,0.28,0.3,0.65,0.3,1.09s-0.07,0.95-0.22,1.52
				C169.92,39.23,169.73,39.81,169.5,40.41z"/>
			<path class="st4" d="M176.14,50.03c-0.85,0-1.58-0.22-2.21-0.67s-1.16-1.02-1.59-1.72c-0.43-0.7-0.75-1.47-0.97-2.32
				c-0.22-0.85-0.32-1.69-0.32-2.52c0-0.88,0.11-1.79,0.32-2.72c0.22-0.94,0.55-1.79,0.99-2.56c0.45-0.77,1.02-1.4,1.72-1.89
				s1.52-0.73,2.49-0.73c0.93,0,1.72,0.25,2.37,0.76c0.65,0.51,1.18,1.14,1.58,1.89c0.4,0.75,0.68,1.58,0.85,2.47
				c0.17,0.9,0.22,1.74,0.17,2.54c-0.05,0.88-0.19,1.76-0.41,2.66c-0.22,0.89-0.55,1.7-0.98,2.41c-0.43,0.71-0.98,1.29-1.64,1.74
				C177.84,49.8,177.05,50.03,176.14,50.03z M176.39,38.79c-0.25,0-0.47,0.13-0.66,0.4c-0.19,0.27-0.35,0.59-0.47,0.97
				c-0.12,0.38-0.22,0.78-0.29,1.21c-0.07,0.42-0.1,0.79-0.1,1.11c0,0.4,0.04,0.83,0.11,1.29c0.07,0.46,0.18,0.89,0.31,1.28
				c0.13,0.39,0.29,0.71,0.48,0.97c0.19,0.26,0.41,0.39,0.66,0.39c0.26,0,0.49-0.12,0.68-0.37c0.19-0.25,0.34-0.56,0.46-0.94
				c0.12-0.38,0.2-0.8,0.25-1.25c0.05-0.46,0.07-0.88,0.07-1.28c0-0.36-0.03-0.77-0.1-1.21c-0.07-0.44-0.16-0.85-0.29-1.23
				c-0.12-0.38-0.28-0.7-0.47-0.94C176.86,38.92,176.64,38.79,176.39,38.79z"/>
		</g>
	</g>
	<g>
		<g>
			<path class="st8" d="M193.51,6.8c-8.91,2.45-4.53,12.82-3.9,20.3c0.97,11.63,0.91,22.64,2.65,34.19
				c0.71,4.71,1.53,8.64,7.17,8.66c5.84,0.02,16.17-2.58,22.11-2.72c9.97-0.24,11.71,1.39,16.1,1.39c4.11,0,13.29-2.94,19.85-3.19
				c4.65-0.18,12.97,1.42,17.34,0.25c4.79-1.27,3.94-5.06,3.53-9.47c-0.99-10.66-2.31-21.29-3.55-31.92
				c-0.51-4.37,0.19-13.26-2.17-17.13c-3.95-6.47-22.91-3.37-28.6-2.55c-5.31,0.76-10.18,2.57-15.38,2.34
				c-3.93-0.17-7.88-1.03-11.88-1.13C209.3,5.64,200.87,5.57,193.51,6.8c-1.03,0.17,0.29,2.25,1.32,2.08
				c7.8-1.3,15.93-1.8,23.83-1.41c4.05,0.2,8.81,2.15,12.64,1.94c2.13-0.12,5.61-1.77,7.76-2.29c7.63-1.82,16.82-2.46,24.71-1.36
				c8.33,1.16,6.32,0.96,7.9,5.82c3.03,9.27,2.53,21.38,3.61,31.07c0.54,4.85,4.56,19.41-1.19,21.3
				c-4.88,1.61-14.09-0.55-19.35-0.21c-4.93,0.32-9.66,1.08-14.51,1.74c-4.85,0.66-9.29-0.25-14.51-0.34
				c-7.18-0.12-13.86,1.08-20.92,1.68c-12.63,1.07-10.4-10.11-11.49-19.55c-0.8-6.94-7.69-35.85,1.53-38.38
				C195.83,8.61,194.52,6.52,193.51,6.8z"/>
		</g>
		<path class="st9" d="M194.61,8.1c-4.81,0.89-4.93,2.31-4.95,4.5c-0.14,13.75,4.93,51.69,4.93,51.69s-0.08,4.57,5.2,4.31
			c2.29-0.11,11.73-3.27,25.93-2.65c4.13,0.18,7.96,0,8.3,0.59c0.67,1.16,5.18,1.07,5.8,0c0.34-0.59,6.29-1.24,10.81-1.66
			c8.67-0.79,14.86,0.07,19.2,0.3c3.54,0.19,6.05-0.3,6.05-0.3s2.06-0.8,2.06-3.65c0-4.34-5.91-53.5-5.91-53.5s-1.48-3.31-7.33-2.78
			c-2.61,0.24-18.62-2.16-33.18,3.69c0,0-3.58-1.16-5.04-1.35C212.1,5.49,197.24,7.62,194.61,8.1z"/>
		<g>
			<path class="st10" d="M274.6,57.71c-0.01-0.07-0.02-0.14-0.03-0.21c0.22-0.28,0.37-0.61,0.34-1.05c0-0.34-0.01-0.69-0.01-1.03
				c0.16-1.53,0.17-2.13-0.01-3.93c-0.05-0.49-0.27-0.84-0.56-1.1c-0.1-0.6-0.21-1.2-0.36-1.84c-0.1-0.44-0.11-2.7-0.33-3.65
				c-0.24-1.05-0.54-2.06-0.86-3.04c-0.1-0.6-0.22-1.2-0.36-1.8c-0.54-4.36-1.73-15.95-1.91-17.64c-0.04-0.4-0.16-0.74-0.32-1.05
				c-0.01-0.18-0.03-0.37-0.09-0.57c-0.27-0.8-0.39-1.61-0.47-2.42c0.02-0.66,0.07-1.32,0.18-2c0.34-2.05,0.86-5.02,0-6.98
				c-0.66-1.51-2.91-1.08-4.22-0.38c-0.14,0.03-0.28,0.06-0.41,0.11c-0.77-0.36-1.74-0.68-2.99-0.99c-0.91-0.23-1.62,0.11-2.04,0.65
				c-6.88-2.76-17.26-1.55-23.09,1.04c-0.27,0.12-0.48,0.29-0.7,0.45c-0.39-0.13-0.8-0.15-1.21-0.07c-1.57-0.17-3.28,1.12-2.54,2.6
				c0.82,1.63,1.08,3.26,1.23,4.92c-0.03,0.13-0.08,0.25-0.09,0.4c-0.04,1.34,0.07,1.75,0.44,3.07c0.14,0.5,0.57,3.3,0.67,3.97
				c0.08,0.56,0.21,1.09,0.32,1.64c-0.13,0.26-0.22,0.53-0.22,0.84c-0.02,2.38,0.14,4.6,0.64,6.86c-0.04,1.36-0.12,2.73-0.11,4.11
				c0,0.21,0.02,0.43,0.04,0.64c0.06,3.18,0.63,6.36,1.59,9.42c0.1,1.64,0.34,3.3,0.3,4.92c-0.07,3.3-0.1,6.56,0.05,9.86
				c0.03,0.7,1.32,1,1.62,0.28c0.06-0.13,0.1-0.24,0.16-0.37c0.09-0.01,0.17,0,0.26-0.03c0.64-0.18,1.27-0.37,1.91-0.55
				c0.34,0.14,0.73,0.23,1.2,0.14c0.2-0.04,0.41-0.08,0.61-0.11c0,0,0,0,0,0c0.01,0,0.02-0.01,0.04-0.01
				c2.14-0.39,4.28-0.84,6.43-1.26c3.28,0,5.96,0.11,9.2-0.24c0.45,0.58,1.68,0.46,2.56,0.46c1.78,0,3.5-0.17,5.23-0.46
				c0.05,0,0.09,0,0.14,0l0-0.02c0.21-0.04,0.42-0.05,0.63-0.09c0.14-0.03,0.22-0.09,0.34-0.13c0.53,0.02,1.06,0.05,1.56,0.13
				c0.52,0.08,0.86,1.24,1.28,1.02c0.42,0.01,0.54-0.15,0.96-0.18c0.1,0.11,1.65-0.55,2.05-0.39c1.04,0.39,2.06-0.41,1.76-1.36
				C275.14,59.42,274.87,58.56,274.6,57.71z"/>
			<path class="st10" d="M236.78,59.52c0.02-0.1,0.06-0.19,0.05-0.31c0-0.1-0.02-0.19-0.02-0.29c0.09-0.2,0.15-0.41,0.12-0.67
				c-0.1-0.75-0.2-1.34-0.33-1.95c0.01-0.03,0.03-0.06,0.03-0.09c0.4-2.2,0.29-3.95-0.33-6.01c0.24-0.37,0.41-0.79,0.38-1.28
				c-0.09-1.42-0.28-2.33-0.65-3.71c-0.06-0.24-0.19-0.4-0.3-0.58c-0.88-4.89,0.41-9.77-0.69-14.65c-0.09-0.39-0.27-0.74-0.51-1.06
				c-0.08-0.75-0.13-1.54-0.17-2.33c0.22-1.69,0.12-3.45-0.26-5.07c-0.19-3.05-0.56-6.09-1.66-8.7c-0.11-0.27-0.28-0.49-0.45-0.68
				c-0.15-0.46-0.3-0.92-0.45-1.38c-0.12-0.36-0.37-0.61-0.68-0.76c-0.07-0.07-0.11-0.14-0.2-0.2c-0.23-0.15-0.46-0.3-0.69-0.45
				c-0.19-0.13-0.39-0.2-0.6-0.24c-0.44-0.23-0.89-0.47-1.33-0.7c-0.24-0.13-1.28-0.88-1.56-1.13c-0.09-0.08-0.18-0.14-0.27-0.21
				c0.13-0.81-0.2-1.62-1.28-1.96c-0.93-0.29-1.85-0.6-2.78-0.88c-0.39-0.12-0.75-0.16-1.09-0.14c-0.99-0.33-1.95-0.72-2.9-1.18
				c-0.22-0.11-0.43-0.17-0.63-0.22c-0.02-0.01-0.03-0.02-0.05-0.02c-0.75-0.34-1.47-0.26-2.02,0.05c-2.45-1.23-4.97-1.96-8.1-1.48
				c-0.04,0.01-0.06,0.02-0.09,0.03c-0.19-0.02-0.37-0.01-0.54,0.03c-0.16-0.02-0.33-0.04-0.49-0.05c-0.65-0.07-1.52,0.24-1.58,0.91
				c-0.02,0.24-0.04,0.48-0.06,0.72c-0.01,0.15,0.02,0.29,0.07,0.44c0,0.04-0.02,0.06-0.02,0.1c-0.01,0.55-0.02,1.11-0.02,1.66
				c-0.01,0.46-0.58,0.71-0.19,0.82c-0.02,0.29,0.12,0.81,0.17,1.1c-0.19,0.79,0.4,1.38,0.31,2.19c-0.01,0.05-0.02,0.09-0.03,0.14
				c0.01,0,0.01,0,0.02,0c-0.02,0.2-0.06,0.39-0.07,0.59c-0.01,0.17,0.06,0.31,0.09,0.46c-0.39,2.15-0.54,4.3,0.49,6.32
				c0.05,0.09,0.12,0.16,0.18,0.24c0,0.18-0.01,0.36,0,0.55c0,0.07-0.04,0.12-0.03,0.2c0.03,0.51,0.05,1.02,0.06,1.53
				c0.01,0.33,0.19,3.61,0.18,4.13c-0.03,1.78,0.27,3.18,0.96,4.76c0,0.02,0.01,0.03,0.01,0.05c-0.14,0.27-0.22,0.57-0.17,0.94
				c0.36,2.55,0.62,4.98,1.2,7.46c0,0.01,0,0.02,0,0.03c0,0,0,0,0,0c0.02,0.06,0.03,0.13,0.04,0.19c0.06,0.56,0.11,1.12,0.22,1.69
				c0.06,0.31,0.24,0.57,0.45,0.79c0.05,0.59,0.14,1.18,0.22,1.78c-0.02,0.12-0.07,0.22-0.06,0.35c0.08,1.3,0.18,2.56,0.48,3.81
				c-0.05,1.38,0.17,2.71,0.5,4.07c0,0-1.42,4.06-0.45,3.96c1.13-0.12,3.24-0.28,4.38-0.33c2,0.46,3.99,0.85,6.04,1.17
				c0.13,0.02,0.24,0.01,0.35,0c0.27,0.64,0.79,1.23,1.64,1.64c0.95,0.47,2.04,0.82,2.91,1.41c1.16,0.72,2.42,0.78,3.49,0.44
				c0.11,0.14,0.26,0.27,0.45,0.38c1.12,0.65,2.25,1.3,3.37,1.95c0.14,0.08,0.27,0.11,0.41,0.14c0.44,0.53,0.88,1.05,1.31,1.58
				c0.19,0.23,0.41,0.36,0.64,0.45c0.22,0.24,1.18,0.8,1.59,1.13c1.1,0.87,2.28-0.52,1.72-1.76
				C237.2,60.8,236.97,60.16,236.78,59.52z"/>
			<path class="st11" d="M233.67,60.82c-2.54-1.06-8.57-4.2-9.49-4.55c-3.53-1.36-7.25-1.98-11-2.72c-0.46-0.09-0.88-0.08-1.25,0
				c-0.33-0.06-0.63-0.06-0.91-0.03c-0.42-0.1-0.84-0.21-1.27-0.29c-0.44-0.09-0.3-0.45-0.67-0.34c0.78-4.7,0.38-9.56-1.74-13.74
				c-0.25-3.43-0.53-6.85-1.43-10.24c-0.08-0.29-0.21-0.53-0.36-0.75c0.1-1.53,0.05-3.05-0.28-4.57c-0.05-4.23,1.1-9.83-1.13-13.81
				c-0.44-0.79-1.26-0.09-2.19-0.19c-0.69-0.21-1.5-0.13-2.3,0.41c-0.43,0.29-3.05,0.26-3.75,0.17c-1.71-0.22-3.71,0.93-3.44,2.63
				c0.11,0.7,0.23,1.39,0.39,2.07c0.03,0.49,0.11,0.95,0.24,1.39c-0.14,2.69,0.15,5.35,0.94,8c0.06,0.21,0.16,0.39,0.26,0.55
				c-0.09,0.29-0.16,0.58-0.16,0.9c-0.04,3.03,0.01,6.01,0.53,9.01c0.08,0.8,0.21,1.6,0.43,2.38c-0.03,0.55-0.03,1.1-0.04,1.64
				c-0.1,2.42,0.23,4.7,0.99,7.04c-0.01,0.09-0.04,0.18-0.04,0.28c-0.11,1.87,0.02,3.65,0.45,5.39c0.02,0.44,0.04,0.88,0.07,1.32
				c0.03,0.37,0.16,0.71,0.33,1.01c-0.68,1.39-0.22,3.45,0.39,4.68c0.17,0.35,0.45,0.59,0.76,0.8c-0.07,0.46-0.1,0.93-0.18,1.39
				c0,0.02,0,0.04,0,0.06c-0.41,0.79-0.33,1.79-0.14,2.62c0.02,0.09,0.09,0.11,0.14,0.18c-0.05,0.41-0.12,0.81-0.21,1.22
				c-0.15,0.69,0.9,0.97,1.29,0.39c0.17-0.26,1.53-0.06,1.72-0.3c0.07-0.01,2.21,0.17,2.97-1.08c0.16-0.26,1.85-0.25,2.55-0.53
				c0.87-0.36,1.76-0.57,2.67-0.72c0.46,0.16,0.98,0.25,1.58,0.12c1.21-0.28,2.4-0.46,3.64-0.55c0.2-0.01,0.34-0.09,0.51-0.13
				c0.36,0.15,0.77,0.26,1.26,0.27c2.64,0.06,5.51,0.06,8.09-0.44c0.18-0.03,0.31-0.12,0.46-0.2c0.87,0.27,1.75,0.48,2.65,0.65
				c0.23,0.06,0.46,0.12,0.7,0.18c1.52,0.64,3.34,0.9,4.94,1.02C234.31,63.51,235.39,61.53,233.67,60.82z"/>
			<g>
				<path class="st8" d="M209.24,53.51c11.14-0.05,19.49,5.77,27.92,11.17c0.68,0.43,1.39-0.31,0.85-0.85
					c-3.95-3.92-9.58-6.73-15.06-8.68c-4.24-1.5-9.26-3.41-13.85-2.27C208.67,52.98,208.84,53.51,209.24,53.51L209.24,53.51z"/>
			</g>
			<g>
				<path class="st8" d="M209.36,53.01c1.4-7.51-1.77-15.54-2.55-23.08c-0.97-9.42-1.65-18.97-1.79-28.43
					c-0.01-0.71-1.22-0.62-1.24,0.07c-0.34,8.33,0.79,16.68,1.49,24.98c0.75,8.8,3.66,17.62,3.49,26.42
					C208.75,53.28,209.3,53.3,209.36,53.01L209.36,53.01z"/>
			</g>
			<g>
				<path class="st8" d="M204.67,1.61c10.12-0.57,20.18,3.56,26.97,9.97c0.7,0.66,2.02-0.36,1.36-1.05
					c-3.76-3.92-9.01-6.5-14.37-8.4c-3.94-1.39-10.09-3.18-14.16-1.38C203.99,0.97,204.06,1.65,204.67,1.61L204.67,1.61z"/>
			</g>
			<g>
				<path class="st8" d="M237.82,64.18c1.61-7.65-0.76-16.67-1.47-24.37c-0.89-9.58-0.65-19.71-3.39-29.04
					c-0.25-0.84-1.63-0.38-1.43,0.44c4.2,17.2,3.27,35.49,5.8,52.94C237.36,64.39,237.77,64.44,237.82,64.18L237.82,64.18z"/>
			</g>
			<g>
				<path class="st8" d="M197.99,66.23c13-3,25.44-4.63,38.59-1.43c1.07,0.26,1.41-1.21,0.35-1.48c-12.8-3.19-27.02-2.74-39.27,2.07
					C197.07,65.63,197.36,66.38,197.99,66.23L197.99,66.23z"/>
			</g>
			<g>
				<path class="st8" d="M197.74,65.78c1.67-6.41-0.91-14-1.74-20.46c-1.45-11.39-0.95-23.04-2.71-34.36
					c-0.11-0.74-1.29-0.66-1.31,0.08c-0.45,18.17,2.63,36.69,5.09,54.7C197.12,66.07,197.66,66.11,197.74,65.78L197.74,65.78z"/>
			</g>
			<g>
				<path class="st8" d="M193.26,11.33c1.56-0.97,3.83-1.04,5.67-1.14c1.53-0.08,3.64,0.25,5.01-0.44c0.19-0.09,0.19-0.35,0.03-0.47
					c-1.38-0.98-4.1-0.59-5.72-0.47c-2,0.15-4.34,0.39-5.84,1.69C191.9,10.95,192.68,11.7,193.26,11.33L193.26,11.33z"/>
			</g>
			<g>
				<path class="st8" d="M237.53,64.75c11.81-2.94,25.65-2.57,37.78-2.07c0.67,0.03,0.68-0.86,0.08-0.99
					c-6.77-1.49-13.89-0.98-20.79-0.56c-5.72,0.35-12.38,0.25-17.38,3.07C236.87,64.4,237.16,64.85,237.53,64.75L237.53,64.75z"/>
			</g>
			<g>
				<path class="st8" d="M232.62,11.48c11.47-3.81,25.04-3.18,36.89-1.73c0.69,0.08,1.06-0.74,0.41-1.02
					c-5.45-2.4-12.54-2-18.48-1.68c-6.54,0.36-13.47,0.7-19.19,3.78C231.84,11.05,232.17,11.63,232.62,11.48L232.62,11.48z"/>
			</g>
			<g>
				<path class="st8" d="M269.46,9.11c-1.44,17.6,5.25,34.94,4.85,52.5c-0.02,0.84,1.45,0.74,1.48-0.09
					c0.68-17.11-3.61-35.3-5.4-52.36C270.35,8.72,269.5,8.63,269.46,9.11L269.46,9.11z"/>
			</g>
			<g>
				<path class="st8" d="M242.18,19.4c1.91,0.06,3.69,0,5.55-0.37c1.81-0.35,2.25-1.04,4.13-0.4c1.47,0.5,3.49,0.05,4.99-0.07
					c2.55-0.2,4.99,0.22,7.35-0.75c0.33-0.14,0.38-0.62-0.05-0.68c-3.67-0.51-10.42,1.75-13.47-0.43c-0.29-0.21-0.64-0.16-0.9,0.05
					c-2.14,1.74-4.96,1.74-7.66,1.9C241.57,18.69,241.65,19.38,242.18,19.4L242.18,19.4z"/>
			</g>
			<g>
				<path class="st8" d="M242.27,23.78c0.36-0.08,3,0.04,3.46,0.07c1.76,0.14,3.44-0.72,5.32-0.59c3.8,0.27,8.76,0.21,12.24-1.27
					c0.32-0.14,0.37-0.59-0.05-0.65c-2.39-0.37-4.74,0.03-7.15,0.23c-2.44,0.21-4.83,0.06-7.25,0.25c-1.76,0.13-3.51,1.19-5.32,1.08
					c-0.94-0.06-1.05,0.03-1.46,0.67C241.99,23.69,242.14,23.81,242.27,23.78L242.27,23.78z"/>
			</g>
			<g>
				<path class="st8" d="M242.79,27.92c1.7-0.02,3.37,0.4,5.03,0.37c2.33-0.04,4.62-0.44,6.94-0.62c1.97-0.15,3.87-0.58,5.86-0.63
					c2.05-0.06,2.67,0.23,4.38-0.68c0.4-0.21,0.28-0.83-0.2-0.88c-3.48-0.34-6.73,0.21-10.14,0.79c-3.96,0.68-7.95,0.71-11.89,1.3
					C242.51,27.61,242.53,27.92,242.79,27.92L242.79,27.92z"/>
			</g>
			<g>
				<path class="st8" d="M242.83,32.9c1.68-0.28,3.24-0.99,4.88-1.26c2.3-0.37,4.62-0.39,6.94-0.62c1.97-0.2,3.91-0.12,5.88-0.42
					c2.03-0.31,2.58-0.7,4.43-0.1c0.43,0.14,0.42,0.77-0.04,0.9c-3.36,0.95-6.66,0.99-10.12,1.02c-4.01,0.04-7.95,0.71-11.93,0.83
					C242.61,33.26,242.57,32.95,242.83,32.9L242.83,32.9z"/>
			</g>
		</g>
		<path class="st12" d="M245.63,51.05c-12.43-8.59-19.66-32.63-22.82-45.57c-9.83-4.97-17.8-3.97-17.8-3.97l0.11,5.41
			c-5.33,0.37-9.28,0.96-10.52,1.19c-4.81,0.89-4.93,2.31-4.95,4.5c-0.14,13.75,4.93,51.69,4.93,51.69s-0.08,4.57,5.2,4.31
			c2.29-0.11,11.73-3.27,25.93-2.65c4.13,0.18,7.96,0,8.3,0.59c0.67,1.16,5.18,1.07,5.8,0c0.34-0.59,6.29-1.24,10.81-1.66
			c5.74-0.53,10.28-0.15,14.04-0.11C260.02,61.62,253.79,56.68,245.63,51.05z"/>
	</g>
</g>
</svg>
