<?xml version="1.0" encoding="utf-8"?>
<!-- Generator: Adobe Illustrator 18.1.0, SVG Export Plug-In . SVG Version: 6.00 Build 0)  -->
<svg version="1.1" id="Capa_1" xmlns="http://www.w3.org/2000/svg" xmlns:xlink="http://www.w3.org/1999/xlink" x="0px" y="0px"
	 viewBox="0 0 315.75 471.46" style="enable-background:new 0 0 315.75 471.46;" xml:space="preserve">
<style type="text/css">
	.st0{opacity:0.72;fill:#424242;}
	.st1{fill:#F5F5F5;}
	.st2{fill:#E0E0E0;}
	.st3{fill:#BDBDBD;}
	.st4{fill:#F57F17;}
	.st5{fill:#616161;}
	.st6{fill:#FDD835;}
	.st7{fill:#FFEE58;}
	.st8{fill:#1D1E1C;}
	.st9{fill:#BA68C8;}
	.st10{fill:#FEF8C5;}
	.st11{fill:#FEF077;}
	.st12{opacity:0.14;fill:#616261;}
	.st13{clip-path:url(#SVGID_2_);}
	.st14{fill:#A2704D;}
	.st15{fill:#8C5D3C;}
	.st16{fill:#1D1D1B;}
	.st17{fill:#EF6D3F;}
	.st18{fill:#DB572E;}
	.st19{opacity:0.3;fill:#F5F5F5;}
	.st20{fill:#5DACBD;}
	.st21{fill:#57A1AD;}
	.st22{fill:#EFE9B4;}
	.st23{fill:#F9F7E1;}
	.st24{fill:#6B432B;}
	.st25{opacity:0.2;fill:#FFFFFF;}
	.st26{fill:#B78767;}
	.st27{opacity:0.3;}
	.st28{fill:#D19384;}
	.st29{fill:#FFFFFF;}
	.st30{fill:#A03C50;}
	.st31{fill:#CB6272;}
	.st32{clip-path:url(#SVGID_4_);}
	.st33{fill:#8E24AA;}
	.st34{clip-path:url(#SVGID_6_);}
	.st35{fill:#4B2504;}
	.st36{fill:#8DCBCF;}
	.st37{clip-path:url(#SVGID_8_);}
	.st38{fill:#7FC4C7;}
	.st39{fill:#C6C5C3;}
	.st40{opacity:0.3;fill:#FFFFFF;enable-background:new    ;}
	.st41{fill:#1F140F;}
	.st42{fill:#7A3481;}
	.st43{clip-path:url(#SVGID_10_);fill:#692872;}
	.st44{fill:#D9A08C;}
	.st45{fill:#E1AC97;}
	.st46{clip-path:url(#SVGID_12_);fill:#692872;}
	.st47{clip-path:url(#SVGID_14_);fill:#692872;}
	.st48{clip-path:url(#SVGID_16_);fill:#692872;}
	.st49{clip-path:url(#SVGID_18_);fill:#D9A08C;}
	.st50{fill:#692872;}
	.st51{clip-path:url(#SVGID_20_);fill:#D9A08C;}
	.st52{clip-path:url(#SVGID_22_);fill:#D9A08C;}
	.st53{clip-path:url(#SVGID_24_);fill:#D9A08C;}
	.st54{fill:#D31876;}
	.st55{fill:#D38E82;}
	.st56{fill:#993B4E;}
	.st57{fill:#C05F6E;}
	.st58{clip-path:url(#SVGID_26_);}
	.st59{clip-path:url(#SVGID_28_);}
	.st60{clip-path:url(#SVGID_30_);fill:#692872;}
	.st61{clip-path:url(#SVGID_32_);fill:#692872;}
	.st62{clip-path:url(#SVGID_34_);fill:#692872;}
	.st63{clip-path:url(#SVGID_36_);fill:#692872;}
	.st64{clip-path:url(#SVGID_38_);fill:#D9A08C;}
	.st65{clip-path:url(#SVGID_40_);fill:#D9A08C;}
	.st66{clip-path:url(#SVGID_42_);fill:#D9A08C;}
	.st67{clip-path:url(#SVGID_44_);fill:#D9A08C;}
	.st68{clip-path:url(#SVGID_46_);}
	.st69{clip-path:url(#SVGID_48_);}
	.st70{clip-path:url(#SVGID_50_);fill:#692872;}
	.st71{clip-path:url(#SVGID_52_);fill:#692872;}
	.st72{clip-path:url(#SVGID_54_);fill:#692872;}
	.st73{clip-path:url(#SVGID_56_);fill:#692872;}
	.st74{clip-path:url(#SVGID_58_);fill:#D9A08C;}
	.st75{clip-path:url(#SVGID_60_);fill:#D9A08C;}
	.st76{clip-path:url(#SVGID_62_);fill:#D9A08C;}
	.st77{clip-path:url(#SVGID_64_);fill:#D9A08C;}
	.st78{fill:#1565C0;}
	.st79{clip-path:url(#SVGID_66_);}
	.st80{fill:#CA8C63;}
	.st81{fill:#B67655;}
	.st82{fill:#3C4C9B;}
	.st83{fill:#29398D;}
	.st84{fill:#DCAE8D;}
	.st85{fill:#7985C1;}
	.st86{fill:#925F36;}
	.st87{fill:#C89E7D;}
	.st88{fill:#7E4E24;}
	.st89{fill:#B71E1E;}
	.st90{opacity:0.3;fill:#FFFFFF;}
	.st91{fill:#98191B;}
	.st92{fill:#E67373;}
	.st93{fill:#701518;}
	.st94{opacity:0.8;fill:#D07475;}
	.st95{clip-path:url(#SVGID_68_);}
	.st96{clip-path:url(#SVGID_70_);}
	.st97{fill:#5D4037;}
	.st98{clip-path:url(#SVGID_72_);}
	.st99{fill:#C79B66;}
	.st100{fill:#7E665F;}
	.st101{fill:#DEC3A2;}
	.st102{fill:#96774D;}
	.st103{fill:#452F28;}
	.st104{fill:#CC9B6B;}
	.st105{fill:#F3B980;}
	.st106{fill:#B68A60;}
	.st107{fill:#1C1C1B;}
	.st108{fill:#FFD600;}
	.st109{fill:#F8B032;}
	.st110{fill:#916036;}
	.st111{fill:#FFEB85;}
	.st112{fill:#BD9E85;}
	.st113{fill:#6E4729;}
	.st114{fill:none;stroke:#E4332A;stroke-miterlimit:10;}
	.st115{fill:#F19004;}
	.st116{fill:#EFEFEF;}
	.st117{fill:#F7D4B2;}
	.st118{fill:#2F1D19;}
	.st119{fill:#1F1412;}
	.st120{fill:#5A4A48;}
	.st121{opacity:0.8;}
	.st122{fill:#DA9085;}
	.st123{fill:#E1F2FC;}
	.st124{fill:#848585;}
	.st125{fill:#CC6273;}
	.st126{fill:#B0B0B0;}
	.st127{fill:#A1877F;}
	.st128{fill:#A13D51;}
	.st129{fill:#E0A0AB;}
	.st130{clip-path:url(#SVGID_74_);}
	.st131{clip-path:url(#SVGID_76_);}
	.st132{clip-path:url(#SVGID_78_);}
</style>
<g>
	<defs>
		<rect id="SVGID_3_" x="0" y="0" width="315.75" height="471.46"/>
	</defs>
	<clipPath id="SVGID_2_">
		<use xlink:href="#SVGID_3_"  style="overflow:visible;"/>
	</clipPath>
	<g class="st13">
		<g id="Brzo_Izq._Atras_2_">
			<path class="st14" d="M238.02,290.88c0.54,0.25,1.69,0.9,2.22,1.17c15.02,7.43,24.81,18.74,29.52,34.65
				c2.65,8.96,2.64,18.84,0.12,27.88c-3.27,11.7-8.92,22.24-18.55,29.98c-0.46,0.37-1.74,1.15-2.68,1.87
				c-0.68-2.24-1.35-4.43-1.87-6.42c-2.27-8.72-4.59-17.69-5.13-26.72c-0.19-3.19-0.43-7.19-0.47-10.38
				c-0.08-6.8-1.53-8.58-8.05-10.62c-5.67-1.77-10.78-4.4-14.58-9.1c-7.63-9.42-7.62-21.64,0.47-30.57
				C224.4,286.67,232.31,287.06,238.02,290.88z"/>
			<path class="st15" d="M217.6,314.74c8.47,9.68,16.83,10.22,23.46,20.44c2.77,4.27,4.51,11.86,3.46,17.72
				c-0.44,2.45-1.85,6.67-1.85,6.67s-1.2-7.5-1.48-9.08c-0.62-3.49,0.49-8.64-1.67-13.71c-1.05-2.46-3.13-3.56-5.68-4.57
				c-0.69-0.27-0.96-0.26-1.91-0.49c-3.24-0.81-5.52-2.36-7.22-3.52c-4.64-3.16-6.98-6.71-9.39-10.37c-0.32-0.49-1.02-2.6-1.67-5.19
				c-0.37-1.48-0.76-4.62-0.49-4.82C213.96,307.24,215.87,312.77,217.6,314.74z"/>
			<path class="st15" d="M247.36,381.37c0,0,8.81-7.01,12.21-12.14c3.56-5.38,5.71-8.95,8.29-14.84c1.16-2.65,4.29-5.04,3.64-2.41
				c-1.77,7.17-4.38,13.59-8.4,19.76c-6.24,9.57-14.08,14.7-14.08,14.7L247.36,381.37z"/>
			<path class="st16" d="M240.9,290.79c-2.75-1.31-5.7-2.39-8.68-2.99c-5.41-1.09-11.73-0.07-16.98,8.91
				c-2.69,4.6-3.53,9.81-2.59,15.41c1.66,9.95,8.21,16.42,17.16,20.2c5.4,2.28,8.43,5.79,9.27,11.44
				c0.74,5.03,1.31,10.09,2.31,15.07c1.7,8.45,3.66,16.85,5.58,25.26c0.27,1.18,0.93,2.28,1.58,3.83c1.84-1.36,3.35-2.29,4.65-3.46
				c10.86-9.85,17.44-22.13,19.26-36.6C275.42,324.41,262.27,300.95,240.9,290.79z M269.12,354.64
				c-3.27,11.7-8.74,21.98-18.37,29.71c-0.46,0.37-0.93,0.71-1.87,1.43c-0.68-2.24-1.34-4.19-1.86-6.18
				c-2.27-8.72-4.28-17.49-4.83-26.52c-0.19-3.19-0.16-6.39-0.2-9.59c-0.08-6.8-2.09-9.67-8.61-11.71
				c-5.67-1.77-10.71-4.41-14.51-9.11c-7.34-9.07-7.33-20.29-0.12-29.08c7.7-7.99,14.44-4.46,19.45-2.09
				c0.54,0.25,1.08,0.49,1.61,0.75c15.02,7.43,24.46,19.48,29.17,35.39C271.63,336.6,271.64,345.6,269.12,354.64z"/>
		</g>
		<g id="Brazo_Der._Saludando_1_">
			<path class="st14" d="M10.31,228.05c1.35-0.34,5.62,2.84,9.14,5c0.67-1.82-0.3-2.17-1.11-3.27c-2.03-2.77-3.93-5.44-5.87-8.27
				c-1.08-1.58-2.41-4.08,0.25-5.74c1.05-0.31,2.25,0.67,2.9,1.23c2.76,2.42,5.53,4.73,8.27,7.16c0.85,0.76,0.33,1.6,2.22,0.8
				c-0.54-1.19-0.9-1.59-1.48-2.66c-1.7-3.12-3.57-6.29-5.19-9.45c-0.71-1.4-1.39-3.64,0.06-5.19c0.86-0.92,3.69,0.14,5.43,1.91
				c2.65,2.7,4.87,5.4,7.41,8.21c0.74,0.83,0.93,0.74,2.47,1.36c0.07-2.46-1.56-4.07-2.28-6.24c-0.69-2.08-2-4.27-1.3-6.73
				c1.48-1.3,3.02,0.22,3.77,1.17c3.44,4.37,6.6,9.16,9.95,13.6c1.21,1.6,2.32,3.24,3.58,4.81c1.63,2.04,1.37,1.33,3.33-0.37
				c1.77-1.54,3.7-2.96,5.68-4.2c1.28-0.8,4.71-0.94,6.05,0.49c1.22,1.3-0.17,3.76-0.86,4.94c-2.13,3.6-3.84,6.73-4.99,10.74
				c-1.11,3.86-1.82,6.8-3.16,11c0.76-0.34,1.27-0.42,1.73-0.62c16.99,15.56,35.36,28.56,56.92,36.73
				c5.73,2.17,11.34,4.76,16.73,7.68c5.91,3.2,9.95,8.59,11.33,15.36c1.93,9.53-8.88,23.14-20.13,22.11
				c-7.59-0.7-14.26-2.64-20.99-6.17c-17.51-9.2-31.44-21.89-43.97-36.93c-6.44-7.73-12.66-16.01-17.41-24.95
				c-0.43-0.8-1.2-1.8-1.85-2.47c-8.2-8.38-16.99-16.64-25.13-25.07C9.58,231.74,8.21,228.51,10.31,228.05z"/>
			<path class="st15" d="M135.4,322.97c-8.26-3.04-18.67-1.88-27.23-4.06c-10.83-2.76-19.48-8.82-28.15-15.63
				c-7.47-5.87-14.36-12.24-20.44-19.55c-6.71-8.06-11.4-16.94-16.69-25.91c-0.09-0.16-1.05-1.16-1.44-1.5
				c-0.94-0.82-2.01-0.88-3.09-1.35c-3.57-1.57-6.01-3.87-8.54-6.75c-4.08-4.64-8.54-8.39-13.45-12.08
				c-2.15-2.02-4.23-4.11-6.03-6.51c-0.43-0.58-1.29-0.1-0.97,0.57c1.36,2.91,3.26,5.35,5.35,7.63c0.09,0.15,0.2,0.29,0.37,0.41
				c0.02,0.01,0.03,0.03,0.05,0.04c2.84,3.03,6.02,5.79,8.82,8.95c4.25,4.8,7.85,9.52,13.35,12.3
				c7.79,15.65,23.41,33.29,24.46,34.44c8.17,8.91,17.13,17.12,27.41,24.04c2.81,1.89,5.89,3.6,9.08,5.25
				c2.08,1.09,4.34,2.05,6.32,3.01c5.14,2.5,18.83,5.95,26.35,1.67C133.99,325.82,137.24,323.65,135.4,322.97z"/>
			<g>
				<path class="st16" d="M131.46,290.99c-4.77-2.81-9.8-5.32-14.98-7.24c-16.46-6.11-31.58-14.57-45.51-25.16
					c-4.8-3.65-9.32-7.66-13.77-11.34c1.02-3.72,1.97-6.64,2.59-9.63c0.71-3.39,1.66-6.62,3.57-9.58c0.81-1.25,1.35-2.8,1.55-4.27
					c0.33-2.36-0.91-4.06-3.28-4.15c-1.78-0.07-3.79,0.37-5.35,1.21c-2.15,1.16-3.97,2.91-6.2,4.61c-1.03-1.49-2.05-3.04-3.16-4.53
					c-3.4-4.55-6.8-9.1-10.27-13.6c-0.71-0.92-1.62-1.76-2.58-2.41c-1.79-1.2-3.63-0.52-4.06,1.59c-0.25,1.22-0.07,2.58,0.15,3.84
					c0.2,1.12,0.71,2.19,1.33,4.01c-1.87-1.9-3.14-3.3-4.53-4.55c-1.13-1.02-2.34-2.02-3.68-2.72c-1.61-0.85-3.38-1.28-4.91,0.31
					c-1.49,1.54-1.19,3.22-0.3,4.91c1.21,2.3,2.46,4.59,3.66,6.9c0.38,0.74,0.69,1.51,1.03,2.27c-2.54-1.65-4.68-3.52-6.77-5.44
					c-1.24-1.14-2.63-1.74-4.19-0.95c-1.6,0.8-1.88,2.39-1.65,3.99c0.13,0.91,0.48,1.85,0.95,2.64c0.9,1.53,1.97,2.96,2.92,4.45
					c0.39,0.6,0.67,1.27,1.27,2.42c-1.6-0.67-2.54-1.29-3.53-1.41c-0.96-0.11-2.33-0.03-2.87,0.56c-0.55,0.59-0.64,2.04-0.32,2.89
					c0.53,1.4,1.38,2.76,2.38,3.88c4.27,4.77,8.57,9.51,13.01,14.12c3.36,3.49,6.84,6.89,10.49,10.08c1.36,1.19,2.51,2.37,3.42,3.94
					c8.71,15.07,19.14,28.78,32.02,40.57c9.83,9,20.22,17.14,32.34,22.93c6.44,3.08,13.1,4.75,20.22,4.54
					c11.16-0.33,20.58-10.53,20.01-21.64C142.03,301.04,138.21,294.96,131.46,290.99z M121.65,328.9c-7.59-0.7-14.58-2.37-21.31-5.9
					c-17.51-9.2-31.74-22.25-44.26-37.29c-6.44-7.73-12.4-15.86-17.15-24.8c-0.43-0.8-1.18-1.45-1.83-2.12
					c-8.2-8.38-16.45-16.7-24.59-25.13c-2.21-2.29-3.93-4.13-2.07-5.33c1.97-0.34,5.9,4.63,9.83,5.37c0.67-1.82-0.38-2.86-1.19-3.97
					c-2.03-2.77-4.14-5.48-6.08-8.31c-1.08-1.58-2.39-4.42-0.18-5.55c1.31,0.01,1.64,0.91,2.29,1.48c2.76,2.42,5.47,4.9,8.22,7.34
					c0.85,0.76,1.66,1.74,3.55,0.95c-0.54-1.19-0.98-2.33-1.56-3.4c-1.7-3.12-3.54-6.16-5.15-9.32c-0.71-1.4-1.77-3.02-0.32-4.57
					c0.86-0.92,2.96-0.41,4.71,1.37c2.65,2.7,5.11,5.59,7.65,8.41c0.74,0.83,1.27,2.1,3.06,1.31c0.07-2.46-1.54-4.36-2.26-6.52
					c-0.69-2.08-2.18-3.99-1.47-6.45c1.62-0.84,2.5,0.33,3.25,1.28c3.44,4.37,6.83,8.78,10.18,13.21c1.21,1.6,2.18,3.39,3.43,4.96
					c1.63,2.04,2.34,1.93,4.31,0.23c1.77-1.54,3.63-3.01,5.62-4.26c1.28-0.8,2.89-1.38,4.24,0.06c1.22,1.3,0.6,2.79-0.1,3.96
					c-2.13,3.6-3.57,7.44-4.72,11.45c-1.11,3.86-2.42,7.65-3.76,11.85c0.76-0.34,1.39-0.62,1.85-0.82
					c16.99,15.56,35.85,27.91,57.4,36.09c5.73,2.17,11.34,4.76,16.73,7.68c5.91,3.2,9.31,8.33,10.68,15.11
					C142.57,316.79,132.9,329.93,121.65,328.9z"/>
				<path class="st16" d="M41.81,242.37c0.9-2.1,1.44-4.35,2.35-6.43c0.91-2.08,2.2-4,3.37-6.07
					C43.37,231.15,40.88,236.45,41.81,242.37z"/>
			</g>
		</g>
		<g id="Piernas_Normal_2_">
			<path class="st17" d="M239.89,395.45c1.19,23.19,0.54,45.56-1.41,68.24c-0.87,10.12-1.77,20.26-4.86,29.91
				c-11.91,2.83-46.18,2.25-55.38-1.67c-0.59,1.21-1.95,3.43-2.18,4.7c-2.64,0.36-5.29,0.72-7.93,1.09
				c-14.78,2.09-29.49,1.75-44.17-1.07c-2.26-0.43-3.09-1.43-3.56-3.6c-4.82-22-8.9-44.11-10.22-66.64
				c-0.58-9.92-0.83-18.81-1.2-29.24c6.17,0.37,43.18-0.39,64.71-0.37C195.4,396.83,217.06,396.28,239.89,395.45z"/>
			<path class="st18" d="M190.24,426.99c-0.42,2.35-1.24,5.51-2.96,8.96c-2.05,4.13-4.56,7.05-6.42,8.89
				c-1.24,15.97-2.47,31.95-3.7,47.92c4.26,1.36,8.34,2.1,12.84,2.72c5.76,0.25,22.33,0.68,28.1,0.93
				c-9.57-2.28-13.94-2.3-17.48-5.62C184.57,475.72,189.51,459.67,190.24,426.99z"/>
			<path class="st18" d="M108.86,397.3c5.43,0.37,30.13-0.12,35.69,0c-6.05,2.35-16.92,9.39-18.38,15.54
				c-5.01,21.06,10.61,68.59,22.58,76.96c10.97,7.66,22.95,7.21,27.31,6.82c-7.86,2-18.77,3.85-31.76,3.31
				c-9.27-0.39-17.25-1.9-23.59-3.58c-3.93-14.28-7.57-31.25-9.76-50.51C108.85,427.28,108.32,411.69,108.86,397.3z"/>
			<path class="st16" d="M240.81,394.32l-132.92,2.15c0,0,0.65,30.04,1.72,43.25c1.46,17.96,5.21,35.6,8.86,53.24
				c0.69,3.35,2.33,4.94,5.47,5.42c0.47,0.07,0.93,0.19,1.4,0.21c1.61,0.09,2.15,1.02,2.34,2.54c0.7,5.7,2.45,11.1,5.13,16.16
				c0.79,1.5,0.61,2.55-0.21,3.9c-2.03,3.34-3.97,6.73-5.81,10.18c-0.94,1.77-1.75,3.65-2.28,5.57c-1.11,4,0.87,7.88,4.8,9.42
				c3.06,1.2,6.21,2.17,9.36,3.1c0.85,0.25,1.99,0.24,2.77-0.13c3.16-1.54,6.58-2.86,9.25-5.05c2.97-2.43,5.98-4.6,9.42-6.23
				c1.39-0.66,2.75-1.39,4.07-2.18c4.81-2.86,6.68-7.18,6.05-12.64c-0.18-1.52-0.55-3.03-0.94-4.52
				c-1.69-6.45-1.36-12.87-0.01-19.13c3.26-1.84,8.3,0,9.22-5.51c1.92,0.43,3.62,0.81,5.62,1.25c0.97,6.52,2.68,12.96,1.35,19.67
				c-0.62,3.13-1.27,6.27-1.64,9.43c-0.63,5.36,2,9.08,6.43,11.7c1.52,0.9,3.14,1.66,4.73,2.44c2.89,1.41,5.59,3.03,7.84,5.42
				c2.59,2.75,6.18,3.85,9.54,5.27c0.91,0.38,2.13,0.41,3.11,0.18c2.51-0.6,5.03-1.27,7.41-2.22c1.79-0.72,3.71-1.18,5.03-3.04
				c2.18-3.06,2.48-6.13,0.89-9.35c-1.99-4.03-4.18-7.96-6.3-11.92c-0.71-1.33-1.5-2.63-2.18-3.82c3.91-7.18,6.08-14.61,6.52-22.47
				c0.86-0.12,1.46-0.16,2.03-0.28c7.07-1.49,5.84,0.35,7.64-7.09c2.66-10.98,3.52-22.23,4.22-33.46
				c1.14-18.23,1.12-36.48,0.19-54.73c-0.06-1.16-0.12-2.35-0.1-3.52c-0.01-0.45,0-0.74,0-1.09
				C240.78,395.41,240.81,394.32,240.81,394.32z M168.46,523.71c0.54,4.46-1.25,7.85-4.9,10.28c-1.37,0.91-2.9,1.59-4.34,2.41
				c-3.58,2.05-7.15,4.02-10.3,6.83c-2.21,1.97-5.18,3.19-7.96,4.4c-1.17,0.51-2.84,0.67-3.87-0.8c-1.09-1.54-1.04-3.07,0-4.62
				c0.43-0.63,0.79-1.3,1.37-2.26c-3.34,1.46-3.62,2.02-3.76,6.85c-2.75-1.26-2.96-1.95-2.01-6.54c-1.83,1.56-1.83,1.56-1.68,5.33
				c-1.68-1.33-1.68-1.33-2.05-4.85c-0.58,0.78-1.01,1.36-1.54,2.09c-0.74-1.18,0.02-2.86-1.7-3.34c-0.21-0.06-0.27-1.36-0.08-1.99
				c1.8-5.95,5.13-11.13,8.5-16.27c0.18-0.28,0.78-0.29,1.38-0.49c-2.53-6.8-5.4-13.53-5.65-21.23c12.55,1.67,24.78,1.72,37.25,0.08
				c-0.1,1.21-0.1,2.12-0.25,3.01c-1.02,5.95-0.21,11.79,1.02,17.6C168.14,521.37,168.31,522.54,168.46,523.71z M218.6,520.53
				c0.61,0.39,1.38,0.61,1.65,1.09c2.69,4.98,5.37,9.97,7.86,15.06c0.51,1.04,1.74,2.75-0.78,3.59c-0.5,0.17-0.49,1.88-0.86,3.53
				c-0.49-1.42-0.76-2.2-1.23-3.59c-0.51,2.17-0.87,3.72-1.24,5.27c-1.42-1.73-0.15-4.16-2.69-5.45c0.26,2.67,1.63,5.65-2.2,7.23
				c0.56-3.25,0.18-5.94-3.37-7.13c0.55,0.95,1.2,1.86,1.62,2.86c1.19,2.8-0.39,4.98-3.42,4.8c-3.4-0.2-6.15-2.1-8.42-4.2
				c-3.9-3.61-8.48-5.96-13.04-8.42c-2.66-1.44-4.99-3.2-6.23-6.07c-1.03-2.37-0.99-4.8-0.43-7.31c1.2-5.44,2.19-10.92,1.64-16.53
				c-0.3-3.04-0.8-6.07-1.28-9.61c12.59,1.87,25.07,1.67,37.95,1.33C224.63,505.55,221.38,512.93,218.6,520.53z M238.48,463.69
				c-0.87,10.12-1.77,20.26-4.86,29.91c-11.91,2.83-46.18,2.25-55.38-1.67c0.34-5.81,0.65-11.71,1.03-17.61
				c0.57-8.87,1.21-17.73,1.77-26.59c0.08-1.32,0.23-2.43,1.26-3.51c4.56-4.77,6.72-10.74,7.94-17.22
				c-0.45,0.81-0.93,1.62-1.36,2.44c-2.48,4.71-4.6,9.62-8.3,13.6c-0.57,0.61-0.86,1.66-0.94,2.53c-0.73,8.38-1.45,16.75-2.03,25.14
				c-0.59,8.5-1.02,17.01-1.55,25.92c-2.64,0.36-5.29,0.72-7.93,1.09c-14.78,2.09-29.49,1.75-44.17-1.07
				c-2.26-0.43-3.09-1.43-3.56-3.6c-4.82-22-8.9-44.11-10.22-66.64c-0.54-9.18-0.72-18.39-1.03-27.98
				c7.98-0.15,41.71-0.29,62.45-0.64c22.65-0.39,51.75-0.86,67.45-1.18c0.05,0.35,0.05,0.6,0.08,0.85
				C240.21,419.84,240.37,441.78,238.48,463.69z"/>
			<path class="st16" d="M134.91,406.98c-0.24-0.2-0.48-0.4-0.72-0.6c-1.84,2.13-3.61,4.32-5.52,6.38c-2,2.16-4.09,4.25-6.21,6.28
				c-1.99,1.9-4.09,3.69-6.22,5.61c1.76,1.26,2.64,0.17,3.47-0.54C125.57,419.09,131.49,414.11,134.91,406.98z"/>
			<path class="st16" d="M229.74,419.96c-4.3-4.86-8.78-9.93-13.45-15.21C217.63,410.61,225.51,419.24,229.74,419.96z"/>
			<path class="st19" d="M235.37,401.27c-0.08-0.25-0.46-0.27-0.54,0c-1.46,5.6-0.83,11.57-0.93,17.33
				c-0.12,7.19-0.42,14.38-0.84,21.56c-0.8,13.73-3.1,27.84-2.97,41.56c0.01,1.58,2.41,1.97,2.8,0.38
				c3.13-12.86,3.29-27.3,3.68-40.5c0.2-6.71,0.24-13.42,0.19-20.12C236.72,414.84,237.39,407.64,235.37,401.27z"/>
			<path class="st19" d="M175.02,449.53c-0.05-0.18-0.27-0.15-0.33,0c-2.28,5.65-2.09,12.26-2.56,18.29
				c-0.54,6.95-1.49,14.1-0.82,21.05c0.12,1.25,2.04,1.74,2.35,0.32c1.43-6.52,1.39-13.32,1.68-19.97
				C175.61,462.81,176.73,455.77,175.02,449.53z"/>
		</g>
		<g>
			<path class="st14" d="M196.5,274.54c-8,2.73-16.7,3.74-24.76,2.89c-4.78-0.5-9.72-1.67-14.45-2.66
				c-1.82-0.38-2.56-2.15-2.57-4.22c-0.01-4.72-0.31-9.27-0.55-13.99c-0.11-2.17,1.71-3.66,3.35-4.31
				c3.38-1.35,6.81-2.57,10.36-3.21c6.8-1.22,13.75-0.91,20.5,0.69c1.03,0.24,2.51,0.84,3.53,1.1c3.25,0.84,4.51,3.15,4.59,6.24
				C196.63,262.61,196.5,268.64,196.5,274.54z"/>
			<path class="st20" d="M246.33,381.45c-3.12-12.65-6.29-25.29-7.94-38.24c-0.32-2.5-1.23-4.42-2.92-6.24
				c-3.52-3.78-5.91-8.25-7.46-13.19c-2.09-6.65-2.69-13.44-2.31-20.37c0.31-5.67,1.3-11.21,3.23-17.03
				c-6.49-1.43-17.33-3.94-24.49-5.53c-1.54-2.15-3.47-4.61-4.59-6.38c-9.73,5.93-33.91,7.39-47.81-0.9
				c-1.23,1.82-4.13,4.58-6.32,6.68c-6.65,1.54-18.11,4.81-22.78,5.92c0,0.64-0.09,1.02,0.01,1.33c2.82,8.58,3.49,17.41,2.76,26.34
				c-0.67,8.17-2.72,16.11-8.27,22.29c-3.54,3.94-4.79,8.23-5.25,13.12c-0.07,0.71-0.17,1.42-0.33,2.11
				c-2.58,11.19-5.17,22.38-7.76,33.57c-0.66,2.84-1.33,5.68-2.08,8.9c49.44,17.46,97.99,18.15,146.32-3.43
				C247.62,387.2,247.04,384.31,246.33,381.45z"/>
			<path class="st21" d="M179.69,406.69c-1.36-0.76-43.6-22.35-46.56-55.2c-2.37-12.23-2.05-43.47-2.17-46.14
				c-0.17-3.86-1.09-7.75-1.69-11.57c-0.52-3.3-0.46-6.94,7.63-11.21c0.33-0.18,0.32-0.7-0.09-0.68
				c-4.01,0.19-15.36,3.59-15.36,3.59s1.38,5.36,1.82,7.48c0.99,4.79,1.83,10.05,1.73,14.94c-0.2,9.12-1.61,18.9-7.78,26.8
				c-2.16,2.76-3.12,4.7-4.32,8.03c-1.65,4.58-2.07,10.31-2.84,15.07c-1.57,9.67-4.17,19.26-6.92,28.65
				c-1.11,3.79-1.73,7.29-1.73,7.29s3.28,2.02,7.16,3.21c22.85,7.04,32.73,8.4,53.48,10.37
				C163.57,407.45,181.22,407.55,179.69,406.69z"/>
			<path class="st22" d="M175.89,355.36c-2,2.71-5.56,4.67-10.8,5.66c-2.17-4.29-4.39-8.96-5.75-13.63
				c-1.76-6.01,1.34-12.63,6.68-15.89c3.76-2.29,8.1-2.04,12.04-0.58c4.37,1.63,7.34,4.84,9.07,9.03c2.06,4.98-0.51,10.74-5.58,12.7
				C180.34,353.13,177.59,354.26,175.89,355.36z"/>
			<path class="st23" d="M187.16,339.45c-2.15-4.06-5.58-7.54-10.02-8.99c-3.35-1.1-8.22-1.46-10.5,1.58
				c-0.02,0.03,0.02,0.08,0.05,0.06c7.17-2.88,15.38,0.46,18.87,8.28C186.04,341.45,187.73,340.52,187.16,339.45z"/>
			<path class="st23" d="M180.45,339.77c-0.2-1.27-1.51-2.26-2.63-2.72c-1.37-0.57-2.75-1.14-3.99-0.37
				c-0.14,0.09,0.21,0.49,0.39,0.49c1.06-0.03,2.36,0.81,3.29,1.34c0.87,0.49,0.92,1.4,1.63,2.03
				C179.76,341.08,180.57,340.53,180.45,339.77z"/>
			<path class="st15" d="M153.88,273.06c-0.32-6.45-0.3-12.51,0.74-18.65c1.1-0.93,2.37-1.86,3.83-2.72
				c6.21-3.67,16.93-3.91,20.75-3.83c4.69,0.62,3.83,5.31-1.61,5.8c-6,0.55-13.72,4.06-15.81,11.36
				c-1.48,5.19,7.14,12.71,15.19,12.97c-3.81-0.21-9.56-0.18-14.7-1.61C159.01,275.49,156.36,274.16,153.88,273.06z"/>
			<path class="st23" d="M170.46,353.33c-2.49-2.45-4.51-6.02-4.12-9.69c0.02-0.21-0.52-0.16-0.54,0.04
				c-0.48,3.47,0.04,9.35,3.86,10.93C170.38,354.91,171,353.86,170.46,353.33z"/>
			<path class="st16" d="M107.78,397.6c43.51,14,86.51,14.9,129.94-1.01c0.72-0.28,1.34-0.56,1.9-0.85
				c3.58-1.58,7.11-3.13,10.71-4.72c-0.67-2.72-1.2-5.02-1.82-7.29c-3.58-13.27-7.04-26.57-8.73-40.23
				c-0.45-3.61-1.69-6.46-4.09-9.13c-3.55-3.95-5.53-8.8-6.78-13.92c-2.08-8.55-2-17.15-0.41-25.75c0.57-3.11,1.41-6.17,2.14-9.28
				c-0.33-0.22-0.59-0.51-0.91-0.59c-6.68-1.53-13.34-3.17-20.07-4.48c-2.72-0.53-4.83-1.32-6.09-4.01
				c-0.95-2.01-2.18-4.02-5.48-4.14c0-5.25-0.06-10.09,0.02-14.92c0.05-3.48-1.53-6.1-4.74-7.56c-5.98-2.73-12.34-3.06-18.77-3.06
				c-5.89,0-11.51,1.17-16.84,3.69c-3.58,1.69-5.42,4.24-5.13,8.42c0.28,4,0.06,8.03,0.06,12.04c-0.67,0.47-1.47,0.83-1.97,1.44
				c-1.26,1.57-2.56,3.15-3.51,4.91c-0.89,1.66-2.08,2.2-3.87,2.56c-7.52,1.49-14.99,3.21-22.68,4.89c0.31,1.27,0.47,2.05,0.68,2.82
				c2.01,7.12,3.12,14.37,2.88,21.76c-0.29,9.02-1.72,17.93-7.69,25.02c-3.61,4.28-5.13,8.87-5.63,14.14
				c-0.1,1.06-0.28,2.11-0.46,3.16c-2.09,12.03-5.28,23.8-8.63,35.53c-0.67,2.35-1.2,4.73-1.82,7.23c2.38,1.03,4.42,1.91,6.59,2.85
				C107.06,397.31,107.33,397.45,107.78,397.6z M157.57,252.68c3.38-1.35,6.81-2.82,10.36-3.46c6.8-1.22,13.65-0.81,20.4,0.78
				c1.03,0.24,1.99,0.74,3.02,1.01c3.25,0.84,4.66,3.17,4.73,6.25c0.13,5.54,0.04,11.09,0.04,16.99c-8,2.73-15.94,3.74-24,2.89
				c-4.78-0.5-9.48-1.79-14.2-2.78c-1.82-0.38-2.68-1.4-2.69-3.48c-0.01-4.72-0.29-9.44-0.53-14.16
				C154.58,254.55,155.93,253.33,157.57,252.68z M152.04,273.58c13.9,8.29,38.08,6.83,47.81,0.9c1.47,2.31,2.95,4.63,4.49,7.05
				c-12.41,6.69-25.18,8.67-38.66,6.3c-4.89-0.86-9.78-1.75-14.03-4.58c-1.35-0.89-2.61-1.91-4.11-3.02
				C149.19,277.8,150.62,275.68,152.04,273.58z M149.21,283.58c2.49,2.64,6.07,3.6,9.54,4.42c8.28,1.97,16.69,1.81,25.07,1.09
				c4.1-0.35,8.25-0.92,12.17-2.1c3.44-1.03,6.58-3.03,9.78-4.57c1.46,7.61-11.95,38.96-22,50.73c-8.27-5.62-12.79-5.78-21.67-0.66
				c-10.78-15.13-18.04-31.67-20.93-50.23C144.36,281.3,146.8,281.03,149.21,283.58z M177.35,345.41c2.03-0.3,3.53-1.8,3.78-3.73
				c0.28-2.18-0.42-4.02-2.3-5.22c-3.66-2.35-10.18-1.1-11.9,3.78c-2.3,6.52,1.22,14.49,8.93,14.92c-2,2.71-5.42,4.54-10.67,5.54
				c-1.87-4.41-4.22-8.8-5.59-13.47c-1.76-6.01,1.26-12.31,6.6-15.56c3.76-2.29,7.68-2.1,11.62-0.64c4.37,1.63,7.27,4.89,9,9.07
				c2.06,4.98-0.36,10.18-5.43,12.14c-1.21,0.47-2.46,0.87-3.73,1.13c-3.7,0.77-6.8-0.65-8.73-3.92c-1.93-3.26-1.74-8.23,0.4-10.73
				c1.94-2.25,6.35-2.85,8.84-1.2c1.58,1.05,2.24,3.44,1.38,5.05c-0.82,1.54-2.66,2.03-4.62,1.19c-0.46-0.2-0.88-0.51-1.86-1.09
				C174.13,345.27,175.62,345.67,177.35,345.41z M102.02,393.83c0.75-3.22,1.42-6.06,2.08-8.9c2.59-11.19,5.18-22.38,7.76-33.57
				c0.16-0.69,0.26-1.4,0.33-2.11c0.46-4.89,1.71-9.18,5.25-13.12c5.55-6.18,7.6-14.11,8.27-22.29c0.73-8.93,0.07-17.76-2.76-26.34
				c-0.1-0.31-0.01-0.69-0.01-1.33c5.36-1.27,10.73-2.55,16.46-3.9c3.88,18.82,10.4,36.3,21.83,51.79c-2,3.17-3.62,6.55-3.51,10.51
				c0.09,3.26,0.88,6.31,2.37,9.21c1.34,2.62,2.67,5.25,4.21,8.29c0.79-0.04,1.99,0.13,3.05-0.17c4.04-1.15,7.66-3.09,10.74-6.02
				c0.81-0.77,1.8-1.57,2.85-1.84c7.2-1.9,11.02-11.19,5.29-17.65c-0.47-0.53-0.86-1.13-1.4-1.85
				c12.03-15.37,19.1-33.04,23.44-52.68c7.07,1.56,13.71,3.02,20.66,4.55c-1.93,5.81-2.92,11.36-3.23,17.03
				c-0.38,6.92,0.22,13.72,2.31,20.37c1.55,4.94,3.94,9.41,7.46,13.19c1.7,1.82,2.6,3.74,2.92,6.24
				c1.65,12.95,4.81,25.59,7.94,38.24c0.71,2.86,1.29,5.74,2.01,8.95C200.01,411.98,151.46,411.29,102.02,393.83z"/>
			<path class="st19" d="M247.34,388.38c-3.48-8.82-5.75-17.85-7.49-27.16c-1.56-8.32-2.42-17.47-6.49-25.01
				c-0.46-0.85-1.65-0.32-1.66,0.45c0,0,0,0,0,0c0,0,0,0,0,0.01c0,0.04-0.01,0.07,0,0.11c-0.25,8.92,2.09,18.33,3.83,27.03
				c1.8,9.01,4.04,17.85,7.65,26.33C244.18,392.48,248.29,390.79,247.34,388.38z"/>
		</g>
		<g id="Cabeza_2_">
			<g>
				<path class="st24" d="M261.01,110.6c-4.91-3.65-9.41-8.61-12.78-13.71c-6.37-9.63-15.14-13.74-26.31-15.75
					c-1.86-0.33-3.86-0.9-5.74-0.93c-5.55-0.08-11.06-0.97-15.93-3.52c-7.27-3.81-14.45-4.28-22.04-1.3
					c-6.05,2.37-12.59,2.21-18.9,0.93c-11.2-0.94-20.85,0.32-29.31,7.46c-4.13,3.75-9,6.64-14.78,6.25
					c-4.28-0.29-7.16,1.2-9.16,4.98c-0.99,1.87-1.79,3.87-2.46,5.88c-2.83,8.43-8.47,15.21-15.61,20.25
					c-3.39,3.4-5.28,7.35-5.61,12.06c1.98,6.65-0.79,10.21-6.64,12.64c-1.61,0.85-2.96,2.35-4.16,3.78
					c-3.72,4.44-7.79,5.78-12.9,4.01c-4.62-1.6-9.05-6.74-9.23-11.36c-0.11-2.96,1.97-5.24,3.59-7.43
					c2.32-4.59,2.69-9.56,1.97-14.82c-0.47-1.34-1.31-2.59-1.56-3.95c-0.43-2.29-0.75-4.65-0.69-6.97c0.06-2.06,1.14-3.82,2.98-5
					c4.74-3.03,6.34-7.73,6.93-12.98c0.48-4.35,0.67-8.76,1.53-13.04c1.18-5.86,2.88-11.69,7.85-15.66
					c4.31-3.44,9.69-5.57,15.01-6.3c5.62-0.77,11.01-1.07,16.67-1.3c8.93-0.35,17.76-1.8,26.31-4.45
					c5.62-1.74,11.58-3.15,17.41-3.89c5.78-0.74,11.7,0.25,17.23,2.04c8.14,2.63,16.38,2.01,24.64,1.3
					c5.65-0.49,10.48-1.56,16.12-2.22c4.16-0.49,8.96-0.07,12.97,1.11c5.71,1.68,11.65,2.89,17.6,2.96
					c5.8,0.07,11.25,0.12,17.04-0.19c10.31-0.54,19.15,3.85,24.64,12.41c7.6,11.85,12.24,24.91,10.56,39.27
					c-0.43,3.64-0.78,7.26-0.93,10.93c-0.12,3.01,0.16,5.81,1.48,8.52c4.63,9.49,3.84,18.49-1.48,27.05
					c-1.78,2.87-4.9,5.3-7.78,7.04c-4.13,2.49-10.51,0.26-11.11-3.33c-0.19-1.16,0.07-2.73,0.19-3.89c0.31-3.14,0.15-5.82-1.3-8.71
					c-1.41-2.81-1.9-6.13-0.37-8.89c0.46-0.83,1.38-2.33,1.85-3.15c2.88-5.02,2.02-10.19-2.41-13.89c-1.97-1.64-3.63-3.43-5.81-4.81
					C260.58,110.05,261.01,110.6,261.01,110.6z"/>
				<path class="st25" d="M290.43,127.2c-0.8-2.14-1.9-4.08-3.08-6.03c-1.19-1.96-3.58-4.36-3.95-6.63
					c-0.04-0.24-0.43-0.29-0.53-0.07c-1.59,3.63-1.88,5.64-0.1,9.37c2.81,5.88,3.28,10.48,3.24,16.93
					c-0.02,2.98,3.84,3.07,4.83,0.65C292.68,136.93,292.1,131.68,290.43,127.2z"/>
				<path class="st25" d="M253.23,56.32c-3.79-0.75-7.58,0.18-11.41,0.28c-4.78,0.13-9.87,0.07-14.55-0.86
					c-0.22-0.04-0.31,0.27-0.09,0.33c7.77,2.49,18.43,6.36,26.36,2.57C254.5,58.18,254.27,56.52,253.23,56.32z"/>
				<path class="st25" d="M277.79,70.74c-1.42-2.75-8.3-16.84-12.97-11.15c-0.21,0.25-0.01,0.59,0.31,0.53
					c4.63-0.82,10.5,18.55,11.47,21.87c2.06,7.06,1.62,15.08,4.28,21.76c0.65,1.64,2.77,1.7,3.41,0
					C287.88,94.04,282.28,79.45,277.79,70.74z"/>
				<path class="st14" d="M260.58,110.05c1.44,1.36,2.93,2.67,4.32,4.07c2.58,2.59,4.68,5.51,4.14,9.38
					c-0.25,1.81-0.86,3.72-1.83,5.25c-2.64,4.15-3.11,8.27-1.1,12.82c0.69,1.56,0.78,3.42,0.94,5.16c0.12,1.4-0.03,2.84-0.14,4.26
					c-0.4,5.47,8.21,10.96,12.94,7.36c2.26-1.72,4.75-3.21,6.69-5.23c1.57-1.63,3.14-1.53,4.83-1.03c4.99,1.5,9.01,4.45,11.08,9.29
					c5,11.69,0.73,25.64-13.31,29.98c-3.59,1.11-7.23,0.83-10.99-0.96c0.1-5.79-1.81-5.26-3.07,0.73
					c-6.38,30.43-24.52,51.16-52.87,63.18c-10.61,4.5-21.79,7.16-33.2,8.68c-5.5,0.73-11.08,1.42-16.61,1.35
					c-19.07-0.23-37.25-4.67-54.6-12.49c-9.37-4.23-17.62-10.13-25.02-17.28c-12.96-12.51-20.81-27.76-24.36-45.28
					c-0.91-2.8-0.73,1.05-4.57,1.94c-3.77,1.88-7.77,2.49-11.73,1.22c-7.17-2.31-12.57-6.84-14.36-14.41
					c-1.83-7.73-1.3-15.21,5.18-20.92c1.81-1.6,4.15-2.69,6.38-3.7c2.55-1.16,5.1-1.29,7.61,0.62c2.62,2,5.8,1.92,8.89,1.38
					c2.14-0.38,4.15-1.35,5.3-3.27c1.54-2.56,3.84-4.11,6.3-5.58c1.41-0.85,2.78-1.81,4-2.92c2.14-1.94,3.11-4.42,2.83-7.34
					c-0.12-1.3-0.19-2.6-0.26-3.9c-0.17-3.4,1.04-6.33,3.36-8.7c1.81-1.85,3.83-3.52,5.87-5.12c4.67-3.64,8.34-8.05,10.66-13.52
					c1.06-2.51,1.95-5.08,2.97-7.61c1.68-4.19,4.82-6.63,9.31-6.32c6.07,0.43,10.77-2.09,15.12-5.84c3.17-2.73,6.7-4.84,10.6-6.39
					c5.98-2.37,12.03-2.12,18.15-0.73c6.27,1.43,12.39,1.04,18.5-1.14c2.97-1.06,6.21-1.33,9.32-1.99c2.17-0.46,4.26-0.16,6.24,0.74
					c8.51,3.9,17.61,5.22,26.76,6.56c9.49,1.39,17.89,5.36,24.41,12.66c1.65,1.84,3.02,3.94,4.47,5.96
					c2.88,3.99,6.21,7.43,10.96,9.19L260.58,110.05z"/>
				<path class="st15" d="M137.14,80.28c-4.74,4.59-8.77,7.72-16.67,9.88c-1.39,0.38-2.16,0.12-4.21,0.31
					c-3.82-0.73-6.56,0.89-8.8,4.56c-0.3,0.49-3.59,10.26-6.87,15.45c-2.91,4.62-8.27,8.18-12.22,11.76
					c-0.08,0.08-0.17,0.16-0.25,0.24c-2.92,2.69-5.07,4.92-4.14,14.24c-0.06,1.85-1.34,4.58-1.73,5
					c-3.24,3.57-7.22,5.13-12.04,10.25c-4.2,3.15-5.8,2.9-7.22,3.09c-0.44,0.06-4.75-0.06-7.97-2.59
					c-3.48-2.04-10.17,0.09-13.21,3.4c-10.44,11.35-5.86,31.81,7.78,36.86c9.22,3.42,16.67,0.99,16.43-4.45
					c1.03,6.48,2.95,10.86,5.17,16.47c3.96,9.97,9.6,19.02,16.49,27.22c6.65,7.93,26.52,20.85,27.01,20.63
					c4.88,2.53,12.28,5.27,17.59,5.15c0.39-0.01-9.54-4.6-26.06-19.39c-7.82-7-14.2-16.15-19.02-25.44
					c-9.82-18.94-17.43-51.07-6.42-59.03c11.61-8.4,5.16-19.2,13.34-26.43c0.79-0.7,8.5-9.57,9.39-10.87
					c4.96-7.23,3.61-18.7,12.84-21.98c0.43-0.15,8.53-1.54,11.11-2.96c4.63-2.55,9.14-6.96,11.61-11.61
					C140.11,78.05,138.81,78.67,137.14,80.28z"/>
				<path class="st26" d="M301.54,160.32c-1.87-3.99-9.17-9.33-13.62-6.66c-0.86,0.52-0.6,1.69,0.26,2.01
					c2.33,0.88,4.36,1.1,6.32,2.85c1.56,1.4,2.68,3.24,4.39,4.45C300.62,164.2,302.27,161.89,301.54,160.32z"/>
				<g>
					<path class="st16" d="M306.3,168.57c-0.68-9.52-5.83-15.94-14.88-18.61c-0.49-0.15-0.99-0.29-1.43-0.41
						c0.07-0.42,0.06-0.55,0.11-0.65c0.19-0.43,0.39-0.86,0.61-1.28c3.55-6.89,4.49-13.77,0.85-21.08
						c-2.73-5.49-3.71-11.47-2.66-17.65c0.26-1.52,0.48-3.04,0.7-4.56c1.76-12.06-1.21-23.3-6.14-34.14
						c-2.07-4.55-4.84-8.71-8.36-12.3c-5.23-5.32-11.53-8.2-19.08-7.94c-3.79,0.13-7.57,0.6-11.35,0.63
						c-6.76,0.06-13.59-0.2-20.03-2.31c-9.08-2.98-18.09-3.02-27.31-1.1c-10.77,2.24-21.54,3.28-32.14-0.91
						c-0.33-0.13-0.7-0.13-1.04-0.22c-11.22-3.1-22.31-2.52-33.08,1.78c-10.43,4.16-21.17,5.69-32.32,5.34
						c-4.23-0.13-8.55,0.12-12.73,0.82c-11.84,1.98-20.36,8.02-23.3,20.33c-0.22,0.92-0.59,1.82-0.7,2.75
						c-0.51,4.22-1.05,8.45-1.39,12.69c-0.43,5.29-1.77,10-6.62,13.06c-2.12,1.34-2.98,3.6-3.43,6.01c-0.65,3.53,0.09,6.84,1.64,10
						c1.63,3.32,2.37,6.8,1.21,10.33c-0.68,2.08-1.94,4.01-3.16,5.86c-3.37,5.13-3.37,9.12,0.16,14.1c0.27,0.38,0.55,0.76,0.94,1.3
						c-0.86,0.34-1.6,0.66-2.36,0.92c-7.75,2.66-12.51,7.94-13.76,16.08c-0.39,2.55-0.32,5.21-0.15,7.8
						c0.6,9.03,8.13,17.72,16.98,19.67c4.85,1.07,9.37-0.25,13.88-2.3c0.3,0.44,0.46,0.61,0.55,0.82c0.14,0.32,0.26,0.66,0.35,1
						c7.29,28.44,24.78,48.46,51.22,60.43c21.4,9.68,43.99,13.6,67.53,11.08c12.9-1.38,25.49-4.08,37.46-9.1
						c28.14-11.81,46.74-32.02,53.96-62.07c0.16-0.67,0.48-1.3,0.74-1.96c0.84,0.2,1.53,0.33,2.2,0.52
						c6.66,1.82,12.52,0.47,17.94-3.9C304.66,183.94,306.89,176.86,306.3,168.57z M49.88,142.18c-0.11-2.96,1.55-5.15,3.17-7.34
						c3.4-4.58,3.84-9.55,1.97-14.82c-0.47-1.34-1.31-2.59-1.56-3.95c-0.43-2.29-0.75-4.65-0.69-6.97c0.06-2.06,1.14-3.82,2.98-5
						c4.74-3.03,6.34-7.73,6.93-12.98c0.48-4.35,0.67-8.76,1.53-13.04c1.18-5.86,3.28-11.33,8.25-15.3
						c4.31-3.44,9.24-5.34,14.55-6.07c5.62-0.77,11.3-1.24,16.96-1.46c8.93-0.35,17.57-1.9,26.12-4.55
						c5.62-1.74,11.45-3.02,17.28-3.76c5.78-0.74,11.64,0.27,17.16,2.06c8.14,2.63,16.37,2.18,24.62,1.47
						c5.65-0.49,11.26-1.49,16.89-2.15c4.16-0.49,8.29-0.04,12.29,1.14c5.71,1.68,11.49,2.86,17.44,2.93
						c5.8,0.07,11.62,0.17,17.41-0.14c10.31-0.54,18.28,3.49,23.77,12.05c7.6,11.85,11.92,24.66,10.23,39.02
						c-0.43,3.64-0.48,7.33-0.63,10.99c-0.12,3.01,0.46,5.9,1.79,8.61c4.63,9.49,2.89,18.42-2.44,26.97
						c-1.78,2.87-4.49,4.8-7.37,6.54c-4.13,2.49-8.75-0.75-9.35-4.35c-0.19-1.16-0.26-2.37-0.15-3.53c0.31-3.14-0.08-6.07-1.53-8.95
						c-1.41-2.81-1.1-5.76,0.42-8.52c0.46-0.83,1.04-1.58,1.51-2.41c2.88-5.02,2.04-10.75-2.39-14.45
						c-1.21-1.01-2.56-1.84-3.94-2.65c-1.12-0.63-1.63-0.96-1.95-1.18c-1.39-0.97-1.91-1.39-2.71-2.06
						c-3.81-3.34-6.84-7.33-9.68-11.63c-6.37-9.63-15.96-14.5-27.12-16.51c-1.86-0.33-3.76-0.62-5.64-0.64
						c-5.55-0.08-10.84-1.32-15.72-3.87c-7.27-3.81-14.64-4.29-22.24-1.31c-6.05,2.37-12.17,2.5-18.48,1.22
						c-11.21-2.28-21.15,0.49-29.6,8.17c-4.13,3.75-8.63,6.02-14.4,5.62c-4.28-0.29-7.54,1.82-9.54,5.61
						c-0.99,1.87-1.79,3.87-2.46,5.88c-2.83,8.43-8.38,14.68-15.52,19.73c-4.34,3.06-6.6,7.44-5.7,12.59
						c1.09,6.24-1.46,9.89-6.64,12.64c-1.61,0.85-2.96,2.35-4.16,3.78c-3.72,4.44-7.79,5.78-12.9,4.01
						C54.07,152.04,50.06,146.81,49.88,142.18z M289.16,191.37c-3.59,1.11-7.23,0.83-10.99-0.96c0.1-5.79,1.36-11.66-0.13-18.01
						c-1.02,6.64-1.68,12.75-2.93,18.74c-6.38,30.43-24.52,51.16-52.87,63.18c-10.61,4.5-21.79,7.16-33.2,8.68
						c-5.5,0.73-11.08,1.42-16.61,1.35c-19.07-0.23-37.25-4.67-54.6-12.49c-9.37-4.23-17.62-10.13-25.02-17.28
						c-12.96-12.51-20.81-27.76-24.36-45.28c-1.03-5.1-1.54-10.3-2.29-15.45c-0.17-1.14-0.36-2.28-0.86-3.4
						c-0.57,5.1-0.68,10.18-0.11,15.27c0.09,0.82,0.21,1.65,0.39,2.46c0.34,1.55-0.37,2.41-1.7,3.07
						c-3.77,1.88-7.77,2.49-11.73,1.22c-7.17-2.31-12.57-6.84-14.36-14.41c-1.83-7.73-1.3-15.21,5.18-20.92
						c1.81-1.6,4.15-2.69,6.38-3.7c2.55-1.16,5.1-1.29,7.61,0.62c2.62,2,5.8,1.92,8.89,1.38c2.14-0.38,4.15-1.35,5.3-3.27
						c1.54-2.56,3.84-4.11,6.3-5.58c1.41-0.85,2.78-1.81,4-2.92c2.14-1.94,3.11-4.42,2.83-7.34c-0.12-1.3-0.19-2.6-0.26-3.9
						c-0.17-3.4,1.04-6.33,3.36-8.7c1.81-1.85,3.83-3.52,5.87-5.12c4.67-3.64,8.34-8.05,10.66-13.52c1.06-2.51,1.95-5.08,2.97-7.61
						c1.68-4.19,4.82-6.63,9.31-6.32c6.07,0.43,10.77-2.09,15.12-5.84c3.17-2.73,6.7-4.84,10.6-6.39
						c5.98-2.37,12.03-2.12,18.15-0.73c6.27,1.43,12.39,1.04,18.5-1.14c2.97-1.06,6.21-1.33,9.32-1.99
						c2.17-0.46,4.26-0.16,6.24,0.74c8.51,3.9,17.61,5.22,26.76,6.56c9.49,1.39,17.89,5.36,24.41,12.66
						c1.65,1.84,3.02,3.94,4.47,5.96c2.45,3.4,5.1,6.42,8.79,8.32c1.33,0.77,2.77,1.57,3.88,2.48c0.01,0.01,0.02,0,0.03,0.01
						c0.83,0.77,1.65,1.54,2.45,2.34c2.58,2.59,4.68,5.51,4.14,9.38c-0.25,1.81-0.86,3.72-1.83,5.25c-2.63,4.15-3.11,8.27-1.1,12.82
						c0.69,1.56,0.78,3.42,0.94,5.16c0.12,1.4-0.03,2.84-0.14,4.26c-0.4,5.47,8.21,10.96,12.94,7.36c2.26-1.72,4.75-3.21,6.69-5.23
						c1.57-1.63,3.14-1.53,4.83-1.03c4.99,1.5,9.01,4.45,11.08,9.29C307.47,173.08,303.2,187.03,289.16,191.37z"/>
					<path class="st16" d="M179.85,170.11c-7.92-2.2-17.88,1.07-21.2,7.29c5-3.17,10.12-5.53,16.18-5.54
						c6.36-0.01,10.8,3.64,15.3,8.03C190.15,175.95,185.21,171.6,179.85,170.11z"/>
					<path class="st16" d="M289.33,161.82c0.57,3.18,1.75,6.53,1.59,9.81c-0.16,3.25-1.66,6.44-2.6,9.72
						C294.42,179.02,294.91,166.45,289.33,161.82z"/>
					<path class="st16" d="M52.64,162.87c-0.23-0.1-0.46-0.2-0.7-0.29c-0.61,0.74-1.38,1.4-1.79,2.23
						c-2.62,5.29-2.88,10.6,0.19,15.82c0.6,1.02,1.23,2.28,3.31,1.37C49.35,175.8,49.31,169.41,52.64,162.87z"/>
				</g>
			</g>
			<path class="st26" d="M271.87,180.04c-3.66,28.27-17.9,51.94-41.43,68.19c-0.15,0.11-0.02,0.33,0.15,0.25
				c25.29-12.75,43.45-40.08,45.16-68.44C275.9,177.49,272.18,177.64,271.87,180.04z"/>
			<path class="st26" d="M186.94,176.4c-3.25-3.74-10.09-5.92-14.87-4.44c-0.34,0.1-0.38,0.64,0,0.73c2.35,0.52,4.61,0.84,6.8,1.92
				c2.21,1.09,3.75,2.72,5.54,4.33C186.12,180.49,188.45,178.14,186.94,176.4z"/>
			<g class="st27">
				<path class="st28" d="M107.66,168.43c-6.38-0.51-17.29,0-18.09,5.45c-0.43,5.92,6.93,8.08,15.62,8.88
					c11.31,1.18,18.55-0.25,18.77-5.43C124.21,171.64,115.36,169.4,107.66,168.43z"/>
				<path class="st28" d="M259.07,169.66c-0.97-5.31-10.62-6.17-19.02-5.19c-8.84,1.04-16.41,3.96-16.05,8.4
					c0.49,6.17,8.69,7.51,19.02,6.42C252.4,178.3,260.06,175.09,259.07,169.66z"/>
			</g>
		</g>
		<g id="Ojos_abiertos_1_">
			<path class="st16" d="M120.53,155.51c4.97,0.04,8.31,3.35,8.31,8.21c-0.01,5.13-3.96,8.76-9.57,8.78
				c-4.95,0.02-8.89-3.64-8.86-8.21C110.44,159.39,114.97,155.46,120.53,155.51z M122.01,157.74c-2.63-0.16-4.74,1.33-4.95,3.51
				c-0.22,2.24,1.43,4.13,3.75,4.29c2.79,0.2,4.93-1.25,4.96-3.38C125.79,159.91,124.06,157.86,122.01,157.74z"/>
			<path class="st16" d="M224.55,153.38c5.03-0.01,8.39,3.17,8.46,8.01c0.08,5.32-3.93,9.04-9.7,8.97c-4.82-0.05-8.66-3.59-8.7-8.01
				C214.56,157.43,219.03,153.4,224.55,153.38z M225.32,163.41c2.76,0.06,4.53-1.22,4.61-3.32c0.09-2.46-1.71-4.48-3.99-4.48
				c-2.8,0-4.61,1.48-4.64,3.8C221.27,161.7,222.94,163.36,225.32,163.41z"/>
			<path class="st29" d="M122.01,157.74c2.05,0.13,3.78,2.17,3.75,4.42c-0.03,2.12-2.17,3.58-4.96,3.38
				c-2.31-0.17-3.96-2.06-3.75-4.29C117.27,159.07,119.38,157.57,122.01,157.74z"/>
			<path class="st29" d="M225.32,163.41c-2.38-0.05-4.05-1.71-4.02-4c0.03-2.33,1.84-3.81,4.64-3.8c2.28,0,4.08,2.02,3.99,4.48
				C229.85,162.19,228.08,163.46,225.32,163.41z"/>
		</g>
		<g id="Boca_3_2_">
			<path class="st30" d="M203.4,202.42c3.32,4.1,2.77,12.37-1.48,18.52c-15.37-3.36-28.18,2.24-39.52,12.35
				c-3.91-1.11-8.14-3.19-11.36-6.05c-2.3-2.04-4.1-4.94-4.45-8.03c-0.43-3.82,1.27-6.9,4.94-8.03c2.36-0.73,5.83-1.52,8.27-1.61
				c13.32-0.48,25.52-3.03,38.41-6.17C199.69,203.05,201.99,202.69,203.4,202.42z"/>
			<path class="st31" d="M164.25,233.42c6.74-8.05,25.74-15.76,36.06-11.49C196.95,231.39,172.78,237.98,164.25,233.42z"/>
			<path class="st16" d="M172.19,236.75c-7.88-0.12-14.92-2.45-21.17-7.19c-3.03-2.3-5.05-5.29-5.78-9.06
				c-0.98-5.07,1.35-9.33,6.27-10.84c2.8-0.86,5.77-1.47,8.68-1.59c13.53-0.53,26.74-2.95,39.83-6.24c4.49-1.13,6.4,0.33,6.9,5.29
				c0.82,8.18-2.34,14.79-8.2,20.25c-4.82,4.48-10.75,6.81-17.07,8.15C178.56,236.17,175.35,236.35,172.19,236.75z M203.03,203.08
				c-1.41,0.26-2.93,0.47-4.41,0.84c-12.89,3.15-25.87,5.7-39.19,6.18c-2.45,0.09-4.93,0.71-7.28,1.43
				c-3.67,1.13-5.27,3.84-4.84,7.65c0.35,3.09,1.81,5.62,4.1,7.65c3.23,2.86,6.96,4.78,10.87,5.88
				c11.34-10.11,23.73-15.92,39.1-12.56C205.64,214,206.36,207.18,203.03,203.08z M165.23,233.13c8.47,3.84,30.92-2.12,34.34-10.9
				C189.19,218.28,171.9,225.43,165.23,233.13z"/>
		</g>
		<g id="Boca_2_2_">
			<path class="st31" d="M164.13,233.82c7.89-11.45,33.12-15.44,40.34-9.77C199.11,230.66,174.44,236.85,164.13,233.82z"/>
			<path class="st30" d="M136.86,210.56c27.1-0.7,53.92-2.63,80.26-11.57c1.92,7.75-2.29,18.24-10.11,23.79
				c-2.88-0.78-5.52-2.01-8.39-2.32c-13.55-1.44-25.47,1.93-35.21,11.81c-1.08,1.09-2.18,1.59-3.8,1.12
				C146.97,232.82,134.6,215.33,136.86,210.56z"/>
			<path class="st16" d="M218.28,197.39c1.11,3.37,0.74,6.28,0.24,9.16c-1.21,6.97-5.08,12.38-10.24,16.99
				c-4.78,4.26-10.52,6.72-16.48,8.77c-10.86,3.75-22,4.59-33.22,2.41c-7.09-1.37-12.85-5.48-17.29-11.09
				c-2.32-2.93-4.04-6.35-5.83-9.67c-0.62-1.16-0.63-2.65-1.04-4.53c3.47-0.24,6.49-0.52,9.51-0.65c6.26-0.28,12.54-0.33,18.79-0.73
				c15.74-1.01,31.13-4.05,46.28-8.4C212.02,198.79,215.1,198.16,218.28,197.39z M136.86,210.56c-0.05,0.97-0.1,1.2-0.07,1.43
				c0.05,0.35,0.12,0.71,0.25,1.03c4.22,10.45,11.73,17.25,22.57,20.38c1.62,0.47,2.61-0.27,3.68-1.37
				c9.74-9.88,21.71-13.42,35.26-11.99c2.87,0.3,5.64,1.46,8.53,2.25c7.38-5.58,11.57-15.57,10.04-23.3
				C191.21,208.38,164.28,210.94,136.86,210.56z M164.54,233.63c10.31,2.63,34.2-3.19,39.56-9.46
				C196.96,218.92,172.51,222.64,164.54,233.63z"/>
		</g>
		<g id="Boca_1_2_">
			<path class="st30" d="M149.78,235.94c-8.66-7.98-13.09-18.63-14.46-30.67c27.58,2.49,54.41-3.76,80.4-11.22
				c4.23,8.69,2.46,27.58-6.53,35.48c-1.12-0.99-2.29-2.22-3.47-3.18c-5.85-4.78-12.68-5.62-19.77-4.57
				c-11.09,1.64-21.04,5.79-29.58,13.25c-0.95,0.83-2.52,2.29-3.35,3.27C153,238.3,150.75,236.84,149.78,235.94z"/>
			<path class="st31" d="M153.48,238.58c1.93-1.77,4.25-4.08,6.31-5.46c8.9-5.94,18.47-9.95,29.26-10.67
				c7.52-0.5,14.62,1.9,19.46,8.63c-1.05,1.05-2.16,2.38-3.35,3.27c-14.54,10.91-30.69,13.29-47.58,6.52
				C156.12,240.3,153.48,238.58,153.48,238.58z"/>
			<path class="st16" d="M218.9,198.3c-0.35-1.92-1.24-3.73-1.97-5.86c-2.7,0.53-5.01,0.91-7.29,1.43
				c-9.21,2.13-18.37,4.51-27.63,6.42c-15.23,3.13-30.62,4.8-46.21,3.74c-0.43-0.03-0.87,0.2-1.54,0.37
				c0.05,1.97-0.08,3.87,0.18,5.72c1.48,10.34,6.11,19.09,13.59,26.34c0.83,0.81,4.46,4.46,10.22,6.29
				c16.4,5.19,31.6,3.89,45.84-6.49C217.24,226.65,221.79,213.98,218.9,198.3z M204.85,234.14c-14.54,10.91-30.29,13.06-47.18,6.3
				c-0.48-0.19-2.58-1.31-3.58-1.91c1.41-1.45,4.69-4.38,5.73-5.09c8.9-5.94,18.53-9.98,29.32-10.7c7.52-0.5,14.05,1.51,18.89,8.24
				C206.98,232.04,206.03,233.25,204.85,234.14z M209.18,229.08c-1.12-0.99-2.23-2.03-3.41-2.99c-5.85-4.78-12.72-5.57-19.81-4.52
				c-11.09,1.64-21.18,5.77-29.73,13.22c-0.29,0.25-2.37,2.12-3.21,3.06c-0.89-0.6-2.52-1.85-2.83-2.14
				c-8.66-7.98-13.04-18.04-14.41-30.07c27.58,2.49,53.66-3.67,79.65-11.12C219.66,203.2,218.17,221.18,209.18,229.08z"/>
		</g>
		<g id="Cejas_2_">
			<path class="st16" d="M102.72,138.78c3.83-3.46,7.66-5.56,13.46-7.04c3.66-0.97,4.45,0.99,1.54,2.65
				c-4.38,2.05-9.32,4.51-13.56,6.66C102.29,142,101.71,139.64,102.72,138.78z"/>
			<path class="st16" d="M243.11,138.78c-3.83-3.46-7.66-5.56-13.46-7.04c-3.66-0.97-4.45,0.99-1.54,2.65
				c4.38,2.05,9.32,4.51,13.56,6.66C243.55,142,244.12,139.64,243.11,138.78z"/>
		</g>
	</g>
</g>
</svg>
