<?xml version="1.0" encoding="utf-8"?>
<!-- Generator: Adobe Illustrator 17.0.0, SVG Export Plug-In . SVG Version: 6.00 Build 0)  -->
<!DOCTYPE svg PUBLIC "-//W3C//DTD SVG 1.1//EN" "http://www.w3.org/Graphics/SVG/1.1/DTD/svg11.dtd">
<svg version="1.1" xmlns="http://www.w3.org/2000/svg" xmlns:xlink="http://www.w3.org/1999/xlink" x="0px" y="0px" width="100px"
	 height="100px" viewBox="0 0 100 100" enable-background="new 0 0 100 100" xml:space="preserve">
<g id="capa1">
</g>
<g id="personajes" display="none">
	<g display="inline">
		<defs>
			<rect id="SVGID_3_" x="0" y="0" width="100" height="100"/>
		</defs>
		<use xlink:href="#SVGID_3_"  overflow="visible" fill="#00897B"/>
		<clipPath id="SVGID_2_">
			<use xlink:href="#SVGID_3_"  overflow="visible"/>
		</clipPath>
		<g clip-path="url(#SVGID_2_)">
			<path fill-rule="evenodd" clip-rule="evenodd" fill="#1D1E1C" d="M29.1,181.1c1-0.5,2-0.7,3.1-0.6c0.7,0.1,0.9-0.1,0.9-0.9
				c0.1-2.5-1-4.7-1.4-7c-1.5-8.3-1.8-16.7-1.3-25.2c0.1-1.2,0.1-2.4-0.7-3.5c-0.8-1-1.2-2.4-0.7-3.7c0.1-0.3,0.1-0.5-0.2-0.6
				c-0.1-0.1-0.3-0.2-0.3-0.3c-0.3-1.6-1.6-1.7-2.8-2.1c-7.2-2.3-10.2-8.6-9.6-15.2c0.8-9.4,6.1-16,14-20.7c2.5-1.5,5.1-2.7,7.9-3.3
				c0.4-0.1,0.6-0.3,0.9-0.5c0.8-0.9,1.7-1.5,2.7-2c0.2-0.1,0.6-0.1,0.5-0.4c0-0.4-0.4-0.3-0.7-0.4c-2.3-0.7-4.5-1.7-6.6-2.9
				c-7.4-4.3-11.5-10.8-12.7-19.2c-0.2-1.3-0.4-2.5-0.5-3.8c-0.1-0.6-0.2-0.7-0.8-0.8c-2.6-0.1-4.7-1.7-5.4-3.9
				c-0.8-2.7,0-5.4,2.1-7c0.4-0.3,0.5-0.7,0.4-1.1c-0.3-1.2-0.8-2.3-1.4-3.4c-2.5-5.4-2.7-10.8,0.1-16c1.5-2.7,2.3-5.5,2.6-8.6
				c0.4-3.6,2.2-6.4,5-8.6c0.5-0.4,0.8-0.9,1.2-1.3c4.6-4.7,10-6.7,16.5-5.6c3,0.5,6.1,0.5,9.1,0.3c3.2-0.2,6.2,0.1,9.3,0.6
				c1.5,0.3,3.1,0.3,4.6,0.2c3.9-0.2,6.8,1.6,9.1,4.4c1.8,2.1,3.6,4,5.5,6c2.4,2.6,3.7,5.7,3.6,9.3c-0.1,2.7,0.3,5.2,1,7.8
				c0.4,1.3,0.6,2.8,0.9,4.1c0.3,1.4,0,2.8-0.7,4.1c-1.2,2.5-2.2,5.1-2.8,7.8c-0.1,0.5,0,0.8,0.3,1.2c1.6,2.1,1.7,4.3,0.7,6.6
				c-1,2.2-2.9,3.1-5.2,3.2c-0.6,0-0.6,0.3-0.7,0.8c-0.3,1.9-0.5,3.7-0.9,5.6C73.8,84.7,67.3,91,57.6,94.3c-0.4,0.1-0.8,0.3-1.3,0.4
				c1.1,0.8,2.1,1.7,2.9,2.7c0.3,0.4,0.7,0.3,1,0.4c9.6,3,16.9,8.7,20.4,18.3c1.8,4.9,1.9,10-0.8,14.7c-2.1,3.8-5.5,5.8-9.6,6.6
				c-1.3,0.3-1.8,1.1-2.4,1.9c-0.2,0.2,0,0.4,0.1,0.6c0.3,1.3,0.1,2.5-0.7,3.5c0,0-0.1-0.1-0.1-0.1c-0.3-0.7-0.1-1.5,0-2.2
				c0-0.2,0.4-0.7-0.3-0.7c-0.6,0.2-1.1,0.4-1.7,0.7c-0.2,0.1-0.4,0.2-0.6,0.2c-2.4,0.9-5,1.1-7.5,1.3c-0.5,0-0.9,0-1.4,0.2
				c-1.4,0.2-2.8,0.1-4.2,0.1c-2,0-2,0-2,2c-0.1,1,0.6,1,1.3,1c2.3,0.1,4.6-0.1,6.9-0.3c1.9-0.2,3.7-0.4,5.6-0.8
				c0.3-0.1,0.7-0.1,1,0.1c0.1,0.2,0.1,0.3,0.1,0.5c-0.9,0.9-2.2,0.8-3.3,1.1c-3.3,0.7-6.7,0.8-10.1,0.8c-3,0-5.9,0.3-8.9,0
				c-2.7-0.2-5.4-0.5-8-1.1c-2.3-0.6-2.3-0.6-2.6,1.8c-0.4,3.9-0.1,7.8,0.2,11.7c0.2,3.3,0.5,6.7,0.9,10c0.3,2.2,0.8,4.4,1.3,6.6
				c0.2,0.7,0.6,0.6,1,0.5c0.4,0,0.7,0,0.9,0.4c0.1,0.5-0.3,0.7-0.6,0.9c-0.2,0.2-0.6,0.4-0.5,0.8c0.1,0.1,0.2,0.3,0.2,0.5
				c0,0.1,0,0.2-0.1,0.3c-0.1,0.1-0.2,0.3-0.4,0.4c-0.6,0.4-0.2,0.6,0.2,0.8c0.2,0.2,0.3,0.4,0,0.6c-0.2,0.1-0.4,0.2-0.6,0.1
				c-1.4-0.5-2.8-0.2-4.3,0C29.4,181.5,29.1,181.4,29.1,181.1z"/>
			<path fill-rule="evenodd" clip-rule="evenodd" fill="#3E2723" d="M84.2,46.7C84,48.2,83,49.5,82.4,51c-0.7,1.7-1.2,3.4-1.6,5.2
				c-0.1,0.4-0.1,0.7-0.7,0.6c-0.3-0.1-0.6,0-0.8,0.2c-1.4,0.7-2.9,1-4.5,1.1c-1,0.1-1.2,0-1-1c0.2-1,0.7-2,0.7-3.1
				c0-1-0.2-2-0.6-2.9c-0.5-1.1-0.6-2.1-0.5-3.3c0.2-1.6-0.3-3-1.2-4.3c-0.9-1.3-1.3-2.8-1.3-4.4c0-1-0.3-1.1-1.2-0.9
				c-2.2,0.5-4.3,1.3-6.5,1.6c-1.6,0.2-3.2,0.2-4.8-0.2c-2.1-0.6-4.2-0.6-6.3,0c-1.6,0.5-3,0.3-4.6-0.4c-2.6-1.2-5.2-2.4-8.1-2.8
				c-1.7-0.3-3.4,0.3-5,0.5c-0.8,0.1-1.7,0.4-2.5,0.3c-3.4,0.2-5.1-0.7-5.6-4.8c-0.2-2.4-0.9-4.6-2-6.7c-0.8-1.5-1.2-3.1-0.6-4.8
				c3.7-4.7,8.5-7.2,14.4-7.9c1.9-0.2,3.7,0.3,5.5,0.5c2.5,0.3,5,0.4,7.5-0.1c1.7-0.4,3.3-0.1,5,0.2c3.1,0.4,6.3,1.2,9.5,1
				c0.8-0.1,1.6,0.1,2.4,0.4c0.1,0.5-0.5,1,0.2,1.4c0.9,0.3,1.6,0.8,2.3,1.5c1.5,1.6,3.1,3,4.5,4.6c0.2,0.5,0.4,1,1.1,0.5
				c0.1-0.1,0.1-0.1,0.2-0.2c0.3-0.4,0.8,0.2,1.1-0.1c1.6,1.5,3.1,3.1,4,5.1c-0.5,0.1-0.7-0.3-0.9-0.6c-0.5-0.6-1-1.1-1.7-1.4
				c-0.2-0.1-0.4-0.4-0.6-0.1c-0.2,0.3,0.1,0.5,0.3,0.7c0.4,0.4,0.9,0.7,1.3,1.1c1.3,1.7,2.2,3.7,2.7,5.7c0-0.3-0.3-0.8,0.1-1.1
				c0.4,0.4,0.2,1,0.2,1.4c0,1.7,0,3.5,0.2,5.2c-0.3,0.1-0.5-0.5-0.8-0.2c-0.3,0.3-0.2,0.7-0.1,1c0.3,1.8,1.1,3.4,1.7,5.1
				C83.8,45.2,84.1,45.9,84.2,46.7z"/>
			<path fill-rule="evenodd" clip-rule="evenodd" fill="#DDA47F" d="M26.8,65.1c-0.1,0-0.1,0.1,0,0.1c0.3,0.7,0,1.5,0.2,2.2
				c0,1.3,0.7,2.2,1.7,3c0.3,0.4-0.1,0.6-0.2,0.8c-0.6,1-0.5,1.8,0.6,2.2c2,0.9,4.1,1,6.3,0.8c0.7-0.1,1.3-0.4,1.8-0.9
				c0.5-0.4,0.8-0.9,0.6-1.6c-0.1-0.4-0.1-0.7,0.4-0.8c1.4-0.2,2.8-0.1,4.2-0.5c1.4-0.3,2.4-1,2.9-2.3c0.5-1,0.7-2.1,0.7-3.2
				c0-0.9-0.2-1.9,0.2-2.8c1.1-1,2.4-0.7,3.7-0.6c0.3,0,0.6,0.2,0.9,0.3c1.3,0.5,1.5,0.7,1.5,2.1c0,1.5,0,3,0.7,4.4
				c0.2,0.4,0.4,0.9,0.9,1.1c1.7,1.4,3.9,1.3,6,1.5c0.2,0.1,0.3,0.1,0.5,0.1c0.6-0.1,1,0.1,0.8,0.8c-0.2,0.9,0.2,1.4,1,1.7
				c1.9,0.9,3.9,0.8,6,0.6c0.8-0.1,1.5-0.5,2-1.1c0.8-0.7,0.7-1.6-0.3-2.1c-0.2-0.1-0.5-0.1-0.4-0.5c1.5-0.9,2.1-2.3,2.1-4
				c0.1-1.5,0.2-3,0.2-4.5c0.3-0.6,0.8-0.5,1.3-0.3c1.8,0.6,1.8,0.6,2.9-1c0.1-0.1,0.2-0.3,0.4-0.3c0.3,0.2,0.2,0.5,0.2,0.8
				c0,0.2,0,0.5,0,0.8c0.2-0.1,0.5-0.6,0.7-0.1c0.2,0.6,0.5,1.3-0.3,1.8c-0.6,0.3-0.4,1-0.6,1.5c-0.4,3.5-0.9,7-1.8,10.4
				c-0.1,0.5-2.3,6.3-3.3,7.3c-3.8,5.8-10.5,9-11.9,9.6c-1.5,0.8-3,1.3-4.7,1.5c-3.3,0.1-6.6,0.2-9.9-0.8c-4-1.2-7.7-2.8-11-5.2
				c-4.6-3.4-7.8-7.9-9.6-13.4c-0.4-1.3-1-2.6-1.3-3.9c-0.2-0.8-0.4-1.5-0.4-2.3c0.9,0,0.8,0.7,0.9,1.3c0.2-1.1-1-1.6-0.8-2.6
				c0-0.4,0-0.7,0.5-0.8c0.5-0.1,0.5-0.5,0.4-0.9c-0.2-0.6-0.1-1.3,0-1.9c0.1-0.5,0-0.9-0.5-1.2c-0.7-0.4-0.3-0.6,0.1-0.9
				c0.7-0.4,1.5-0.2,2.2-0.7c0.6,0.1,1,0.4,1.3,0.9C26.7,62.9,26.6,64,26.8,65.1z"/>
			<path fill-rule="evenodd" clip-rule="evenodd" fill="#DDA47F" d="M26.2,58.2c-1.4-0.3-2-1-1.5-2.5c0.3-0.9-0.2-2-0.5-2.9
				c-0.4-1-0.3-2,0.1-2.9c0.8-1.7,1-3.4,0.9-5.3c-0.1-1.6,0.3-3,1.7-4c0.7-0.6,1.3-1.3,1.6-2.2c0.2-0.2,0.5-0.1,0.7,0
				c2,0.7,3.9,0.5,5.8-0.4c0.6-0.3,1.2-0.5,1.8-0.6c2.1-0.2,4.2-0.1,6.2,0.8c1.4,0.8,2.7,1.7,4,2.5c1.5,0.9,3.2,1.1,4.9,0.2
				c1.7-0.9,3.5-0.9,5.3-0.1c2.2,1,4.4,1.2,6.7,0.2c0.9-0.4,1.9-0.7,2.8-1.2c0.1-0.1,0.2-0.1,0.3-0.2c0.9-0.3,1.9-1.1,2.8-0.9
				c1,0.3,0.6,1.7,0.9,2.5c0.4,1.3,1.3,2.3,1.8,3.5c0.4,0.8,0.5,1.7,0.4,2.6c-0.3,1.4-0.2,2.8,0.4,4.2c0.7,1.4,0.7,2.9,0.1,4.3
				c-0.3,0.7-0.4,1.4-0.4,2.1c0,0.4-0.3,0.5-0.6,0.6c-0.5,0.1-0.3-0.4-0.3-0.6c-0.2-1.6-0.6-2.2-2.3-2.4c-4.9-0.5-9.7-0.5-14.6-0.1
				c-1.6,0.1-1.7,0.4-1.9,1.9c0,0.3-0.1,0.6-0.1,1c-2.5-0.6-5-0.7-7.4,0.2c-0.3-0.2-0.2-0.4-0.2-0.6c-0.1-2.1-0.4-2.4-2.4-2.5
				c-4.5-0.3-8.9-0.3-13.4,0c-1.9,0.1-2.5,0.6-2.8,1.8C26.5,57.5,27.1,58.4,26.2,58.2z"/>
			<path fill-rule="evenodd" clip-rule="evenodd" fill="#E0DEDE" d="M76.3,109.6c2.2,2.9,4.1,5.9,4.5,9.6c0.3,2.7-0.7,5.1-2.5,7
				c-3.3,3.5-7.5,5.2-12.3,4.8c-0.4,0-0.8-0.1-1-0.5c-0.1-0.1-0.2-0.3-0.2-0.4c-0.2-0.2-0.3-0.4-0.3-0.7c0-0.6,0-1.1,0-1.6
				c1.2-2.7,2.4-5.4,4.1-7.8c0.3-0.4,0.5-0.9-0.2-1.1c-0.1-0.1-0.1-0.3-0.1-0.4c0.2-0.6-0.2-1.2-0.4-1.7c-1-1.9-1.6-4-2.7-5.9
				c-0.1-0.1-0.1-0.1-0.2-0.2c0,0.1,0,0.1,0.1,0.2c0,0.2,0.1,0.3,0.2,0.5c0.1,0.3,0.2,0.5,0.3,0.8c0.6,2.1,1,4.3,1.3,6.5
				c0.1,0.7,0.2,1.4-0.2,2.1c-0.3,1-1,1.7-1.5,2.6c-0.2,0.3-0.5,0.7-0.6,1c-0.4,1.1-0.9,1.8-2.2,2.1c-0.9,0.2-1.6,1.1-2.7,0.7
				c-0.4-0.4-0.2-0.9-0.2-1.1c0,0.1-0.1,0.4-0.3,0.7c-0.1,0.8-0.1,1.7-0.2,2.5c0.2,1.7,0.2,1.7-1.3,2.4c-1.2,0.6-2.3,1.3-3.3,2.1
				c-0.4,0.3-0.7,0.6-1.2,0.6c-0.6-0.2-0.6-0.7-0.6-1.3c0.4-1.7,1.3-3.1,2.7-4c0.1-0.1,0.3-0.2,0.4-0.3c0.2-0.2,0.6-0.4,0.4-0.8
				c-0.2-0.3-0.6-0.1-0.9,0.1c-1.3,0.6-2.2,1.6-3,2.8c-0.3-0.1-0.3-0.3-0.3-0.3c0,0.3,0.3,0.9,0.1,1.4c0,0.2-0.1,0.4-0.2,0.6
				c0,0.1-0.1,0.1,0,0.2c0.1-0.1,0.1-0.1,0.3-0.1c0.5,0.6,0.5,1.4,0.7,2.2c-0.4,1.7-0.8,3.4-1.1,5.2c-0.2,1.2-1.1,2-2,2.1
				c-0.2,0-0.4,0-0.5-0.2c0.2-6-1-12-0.7-18c0.1-2.6,0.3-5.2,0.4-7.7c0-0.5,0.2-1,0.4-1.4c1.2-2,2.4-3.9,3.5-5.9
				c1.6-1.6,3.4-1.1,5.3-0.6c0.1,0,0.3,0.1,0.4,0.1c0.6,0.2,1.2,0.8,1.9,0.6c0.7-0.2,0.4-1.2,0.8-1.6c0.4,0.1,0.7,0.4,0.7-0.4
				c0.3-2.5-0.3-4.8-1.4-7.1c-0.2-0.3-0.3-0.7-0.6-1.1c1,0,1.9,0.3,2.7,0.8c-0.5,0.9,0,1.5,0.8,1.8c1.7,0.9,3.4,1.7,5,2.8
				c4.4,2.9,7.7,6.7,9.6,11.7c0.4,1,0.4,1,1.1,1.6c0.2-0.3,0.1-0.6,0-0.9c-0.6-1.9-1.4-3.8-2.4-5.5
				C76.4,110.5,75.9,110.1,76.3,109.6z"/>
			<path fill-rule="evenodd" clip-rule="evenodd" fill="#E0DEDE" d="M44.3,108.5c1.4,2.1,2.9,4.1,3.9,6.4c0.4,1.1,0,2.1-0.1,3.1
				c-0.4,5.2-0.2,10.4,0.2,15.5c0.2,2.7,0.2,5.3,0.1,8c-1.2,0.3-2.6-0.6-2.7-2.2c-0.1-1.7-0.5-3.4-1-5.1c0-0.9,0.4-1.8,0.3-2.8
				c0.6-0.6,0.5,0.2,0.7,0.3c0-0.8-0.3-1.4-0.7-1.9c-0.8-1-1.9-1.7-3-2.4c-0.2-0.1-0.3-0.2-0.5-0.2c-0.3-0.1-0.7-0.2-0.8,0.2
				c-0.1,0.3,0.2,0.5,0.4,0.6c0.8,0.4,1.5,0.9,2.1,1.4c0.6,0.5,1.3,1,1.7,1.8c0,0.6,0.2,1.1-0.3,1.6c-0.5,0.3-0.7,0-1-0.3
				c-1-1.2-2.3-2-3.9-2c-0.3,0-0.6-0.1-0.8-0.5c0-0.1,0-0.1,0-0.2c0.2-0.4,0-0.8,0.1-1.1c0-1.2-0.1-2.4-0.5-3.6
				c0,0.2-0.1,0.3-0.1,0.5c-0.1,0.3,0.3,0.9-0.3,1c-0.5,0.1-1,0.3-1.5-0.1c-0.4-0.4-0.8-0.7-1.3-0.7c-1.1,0-1.5-0.7-1.8-1.6
				c-0.1-0.5-0.4-0.9-0.7-1.3c-1.7-1.9-1.6-4-1.1-6.3c0.3-1.7,0.7-3.3,1-5c0.1-0.2,0-0.4,0.1-0.6c0,0,0.1-0.1,0-0.1
				c-0.1,0.1-0.2,0.2-0.3,0.2c-1.2,2.2-1.9,4.6-2.6,7c0,0.3-0.1,0.7,0,1c0.1,0.3,0.1,0.5,0.2,0.8c-0.3,0.1-0.5-0.2-0.8-0.1
				c-0.2,0.5,0.1,0.8,0.3,1.2c0.9,2,2.2,3.8,2.8,5.9c0.2,0.5,0.6,0.7,1,0.9c0.2,0.5,0.2,1.1,0.1,1.7c0,0.2-0.1,0.4-0.3,0.5
				c-0.2,0.4-0.3,0.7-0.5,1.1c-0.2,0.2-0.6,0.3-0.9,0.3c-4.4,0.2-8.2-1.2-11.4-4.2c-2.6-2.5-3.7-5.6-3.1-9.2c0.1-1,0.4-2,0.9-2.9
				c1.4-3,3.2-5.8,5.5-8.1c0.9-0.3,1.5-1,2.2-1.6c3.2-2.7,6.9-4.4,10.7-6.1c0.2-0.1,0.4-0.1,0.6,0c-0.7,1.6-1.6,3.2-1.8,4.9
				c-0.1,0.9-0.2,1.8,0.1,2.6c0.1,0.3,0.2,0.5,0.5,0.5c0.3-0.2,0.5-0.1,0.6,0.2c0.4,0.9,1.2,0.9,2,0.7c1.7-0.5,3.4-0.1,5.2,0
				C43.9,108.3,44.1,108.4,44.3,108.5z"/>
			<path fill-rule="evenodd" clip-rule="evenodd" fill="#2F1D19" d="M23.6,20.9c-0.1,2.3,0.5,4.3,1.6,6.3c0.8,1.4,1.1,3,1.2,4.6
				c0.1,1.6,0.3,3.2,1.6,4.3c1.1,1,2.5,0.8,3.7,1c-1,0.4-2,0.2-3,0.1c-0.6-0.1-1.1-0.2-0.9,0.7c0.1,0.6-0.3,1.3-0.8,1.6
				c-2.1,1.3-2.8,3.3-2.7,5.7c0.1,1.4-0.2,2.7-0.8,3.9c-0.7,1.4-0.7,2.8-0.1,4.3c0.4,1,0.6,2,0.4,3c-0.1,0.6-0.4,0.9-1,0.6
				c-1.1-0.5-2.2-0.8-3.4-0.5c-0.4,0.1-0.6-0.2-0.7-0.6c-0.3-1.6-1-3-1.8-4.4c-1-1.8-1.3-3.8-1.3-5.8c-0.1-3.7,0.6-7.2,2.7-10.4
				c1.3-2,1.7-4.3,1.9-6.7C20.5,25.6,21.5,23.1,23.6,20.9z"/>
			<path fill-rule="evenodd" clip-rule="evenodd" fill="#5F3630" d="M60.7,56.1c0.7,0.3,1.4-0.1,2.1,0c1.2,0.2,2.4,0,3.6,0.1
				c0.4,0,0.8-0.1,1.1,0.1c0.6,0,1.1,0,1.7,0c0,1-0.8,0.5-1.2,0.7c-0.4,0-0.8,0-1.1-0.1c-0.7-0.2-1.5-0.1-2.2-0.1
				c-1.9,0.1-3.7-0.1-5.6,0.1c-0.9,0.2-1.9,0.1-2.9,0.2c-0.8,0.2-1.2,0.5-1.2,1.3c0,2.6-0.1,5.1,0,7.7c0.1,1.7,0.8,2.7,2.4,2.9
				c3.3,0.4,6.5,0.7,9.8,0.2c1.1-0.2,2-0.6,2.5-1.6c0.1-0.2,0.2-0.3,0.5-0.4c0.4,0.1,0.4,0.3,0.3,0.6c-0.2,1.2-0.9,2.1-2.1,2.2
				c-3.7,0.5-7.5,0.5-11.2,0c-2.5-0.4-3.2-1.3-3.3-3.9c0-1.4,0-2.8,0-4.2c0-0.8-0.3-1.3-1.1-1.5c-2.4-0.7-4.8-0.8-7.2-0.1
				c-0.5,0.1-0.7,0.4-0.8,0.9c-0.2,1.1-0.2,2.2-0.2,3.3c0,1.1-0.1,2.2-0.2,3.3c-0.1,0.8-0.6,1.1-1.2,1.5c-1.2,0.8-2.6,0.9-4,0.9
				c-2.9,0-5.7,0.3-8.6-0.1c-1.7-0.3-2.9-1.6-3.1-3.3c-0.2-2.4-0.2-4.7-0.2-7.1c0-0.6-0.1-1.3-0.2-1.9c0-0.8,0.4-1.2,1.1-1.4
				c1.3-0.3,2.7-0.4,4-0.4c3.7-0.1,7.4-0.1,11.1,0.1c1,0.1,1.3,0.4,1.3,1.4c0,2,0,1.9,1.9,1.4c2.2-0.6,4.5-0.7,6.7,0.3
				c0.6,0.3,0.7,0,0.6-0.5c0-0.1-0.1-0.3-0.1-0.4c-0.2-1.7,0.2-2.1,1.9-2.2c0.3,0,0.6,0,1,0C58,56,59.4,56.3,60.7,56.1z"/>
			<path fill-rule="evenodd" clip-rule="evenodd" fill="#CC8251" d="M23,70.8c1,1.9,1.5,3.9,2.3,5.8c2.4,5.9,6.5,10.3,12,13.3
				c2.7,1.5,5.6,2.6,8.7,3.4c1.2,0.3,2.5,0.7,3.8,0.5c1.7-0.2,3.4,0.2,5.1,0.2c-2.9,0.7-5.8,0.8-8.8,0.4c-6.6-0.9-12.2-3.8-16.7-8.7
				c-3.4-3.7-5.3-8.2-6.1-13.2C23.1,71.9,22.8,71.4,23,70.8z"/>
			<path fill-rule="evenodd" clip-rule="evenodd" fill="#E7A17C" d="M25.3,61c-0.1,0.6-0.9,0.7-1.1,0.6c-0.6-0.2-0.9,0.3-1.4,0.4
				c1.1,0.3,1.1,1,0.9,1.8c-0.1,0.6-0.1,1.1,0,1.7C24,66,24,66.7,23,66.6c-0.4,0-0.2,0.2-0.2,0.4c0.1,0.9,0.7,1.7,1,2.5
				c0.1,0.2,0.3,0.4,0,0.7c-0.1,0.1-0.3,0.1-0.4,0.1c-0.3-0.1-0.3-0.4-0.3-0.6c0.1-0.6-0.2-1-0.6-1.3c0-0.1,0-0.2,0-0.4
				c-0.2-1.1,0.1-2.2-0.4-3.2C22,64.7,22,64.6,22,64.4c0-0.1-0.1-0.2-0.1-0.4c-0.1,0.1-0.1,0.2-0.2,0.3l-0.1,0
				c-0.9,1.7-2.7,2-4.4,0.6c-0.3-0.2-0.4-0.5-0.7-0.7c-0.7-1.2-0.8-2.6-0.4-3.9c0.4-0.5,0.5-1.2,1-1.6c0.9-0.8,1.6-0.9,2.6-0.2
				c0.5,0.3,1,0.6,1.6,0.4c0.1,0.1,0.1,0.3,0.2,0.4c0.1,0.2,0.2,0.4,0.3,0.6c0.2,0.8,0.6,0.9,1.2,0.5c0.2-0.2,0.5-0.2,0.8-0.1
				c0.4,0.2,0.8,0.3,1.3,0.4C25.2,60.8,25.2,60.9,25.3,61z"/>
			<path fill-rule="evenodd" clip-rule="evenodd" fill="#FAF8F9" d="M76.3,109.6c0.6,1.6,1.8,3,2.3,4.6c0.3,0.9,0.6,1.7,0.9,2.6
				c0.1,0.4,0.2,0.7-0.2,0.9c-0.5,0.2-0.7-0.2-0.8-0.5c-0.6-1.1-1.1-2.2-1.5-3.3c-1.4-3.2-3.7-5.7-6.2-8c-2.2-1.9-4.8-3.3-7.5-4.6
				c-1.4-0.7-1.5-1.2-0.6-2.1C68.1,101.6,72.8,104.8,76.3,109.6z"/>
			<path fill-rule="evenodd" clip-rule="evenodd" fill="#E7A17C" d="M76.9,63.5c0.5-0.5,0.5-0.5,0.2-1.6c-0.2,0.1-0.2,0.2-0.2,0.4
				c0,0.2,0,0.5-0.3,0.4c-0.2,0-0.3-0.2-0.3-0.5c0.1-0.6,0.1-1.2,0.1-1.8c-0.1-0.1-0.1-0.3,0-0.5c0.1-0.4,0.5-0.2,0.7-0.4
				c0.4,0,0.8-0.2,1.2-0.5c1.8-1.2,2.3-1.1,3.8,0.3c1.2,2.2,0.7,5.3-1.2,6.7c-1.3,0.1-2.5,0.3-3.7-0.5c-0.1-0.4-0.2-0.8-0.2-1.3
				C76.7,64.1,76.7,63.8,76.9,63.5z"/>
			<path fill-rule="evenodd" clip-rule="evenodd" fill="#E88E7F" d="M69.4,70.5c0.9,0.3,1.8,0.5,1.5,1.8c-0.1,0.4-0.2,0.7-0.5,0.9
				c-2.2,1.9-4.6,1.5-7.1,1c-0.2,0-0.5-0.1-0.7-0.2c-1.8-0.6-2.1-1.1-1.6-2.9c-0.3-0.2-0.8,0.1-1.1-0.3c1.6,0,3.2,0,4.8,0
				C66.3,71.1,67.9,70.8,69.4,70.5z"/>
			<path fill-rule="evenodd" clip-rule="evenodd" fill="#E88E7F" d="M38.1,71c-0.1,0.2-0.4,0.2-0.2,0.5c0.6,0.9,0.1,1.5-0.6,2.1
				c-1.6,1.4-3.6,1.1-5.4,0.9c-0.9-0.1-1.9-0.3-2.8-0.7c-1.4-0.7-1.7-1.8-0.6-3c0.1-0.1,0.2-0.3,0.3-0.4c1.5,0.5,3,0.7,4.6,0.6
				C34.9,71,36.5,71,38.1,71z"/>
			<path fill-rule="evenodd" clip-rule="evenodd" fill="#DFDDDE" d="M42.8,105.5c0.2,0.3,0.3,0.6,0.6,1.1c-2.7-0.9-5.1-0.8-7.6,0.1
				c0.3-3.4,1.5-6.4,3.7-9c0.6,0,0.5,0.4,0.5,0.7c-0.1,2.3,0.7,4.2,2.1,6C42.4,104.9,42.5,105.3,42.8,105.5z"/>
			<path fill-rule="evenodd" clip-rule="evenodd" fill="#E7A07B" d="M49.8,95.3c1.4-0.1,2.8-0.2,4.1-0.3c0.4,0,0.5,0.1,0.7,0.5
				c0.2,0.7,0.1,1.5,0.2,2.2c0,0.4-0.4,0.4-0.6,0.5c-2.4,0.8-4.8,1-7.3,0.5c0.1-1.5,1.4-2.1,2.3-3C49.4,95.5,49.6,95.5,49.8,95.3z"
				/>
			<path fill-rule="evenodd" clip-rule="evenodd" fill="#CC8251" d="M66.5,39.8c-3,2.2-6.2,2.9-9.7,1.2c-1.7-0.8-3.3-0.7-5,0.1
				c-2,1-4.6,0.6-6.2-1c-0.6-0.6-1.3-0.8-2-1.2c-0.4-0.2-0.8-0.3-0.9-0.8c1.6,0.4,3.1,0.7,4.5,1.7c1.3,1,2.9,1,4.5,0.5
				c1.7-0.6,3.5-1,5.1-0.4C60.2,41.1,63.3,40.7,66.5,39.8z"/>
			<path fill-rule="evenodd" clip-rule="evenodd" fill="#DFDDDE" d="M58.1,97.4c0.4,0.3,0.6,0.7,0.8,1.1c-0.2,0.5-0.3,0.9-0.1,1.4
				c0.6,1.2,1.1,2.4,1.1,3.7c0,0.1,0.1,0.3,0.3,0.3c0.4-0.4,0-1.1,0.5-1.4c0.5,1.1,0.4,2.3,0.5,3.4c0,0.3-0.1,0.5-0.4,0.3
				c-2.1-1.1-4.3-0.8-6.5-0.3c0,0-0.1,0-0.1,0c0.3-0.6,0.7-1.1,1-1.7c0.4-0.8,1-1.5,1.5-2.3c0.6-1.1,1-2.2,1-3.5
				C57.7,98.1,57.5,97.6,58.1,97.4z"/>
			<path fill-rule="evenodd" clip-rule="evenodd" fill="#FD8F01" d="M45.8,101.7c-0.2,2.5-0.1,5-0.1,7.5c-1-1.3-1.9-2.7-2.6-4.2
				c-0.2-0.3-0.4-0.7-0.6-1c-0.9-1.1-1-2.4-0.9-3.8c0.1-0.7,0.4-0.7,1.3-0.1c0.7,0.4,1.4,0.7,2.1,1
				C45.4,101.3,45.8,101.3,45.8,101.7z"/>
			<path fill-rule="evenodd" clip-rule="evenodd" fill="#D97F4D" d="M49.8,95.3c-1,1.1-2.4,1.9-3,3.3c-1.1-0.1-2.1-0.5-3-0.9
				c-0.4-0.2-0.6-0.4-0.7-0.9c-0.3-2-0.3-2,1.7-1.8C46.4,95.2,48.1,95.2,49.8,95.3z"/>
			<path fill-rule="evenodd" clip-rule="evenodd" fill="#CC8251" d="M53.9,69.5c-1.2-0.3-1.5-1.4-1.7-2.4c-0.3-1.1-0.3-2.3-0.2-3.5
				c0.1-0.7-0.3-1-0.9-1.3c-1.6-0.6-3.2-0.7-4.8-0.1c-0.7,0.2-0.6-0.3-0.5-0.7c0-0.3,0.4-0.4,0.5-0.6c2.1-0.7,4.2-0.3,6.3,0.2
				c0.5,0.1,0.5,0.5,0.5,0.8c0,1.5,0.1,3,0,4.4C53,67.5,53.3,68.5,53.9,69.5z"/>
			<path fill-rule="evenodd" clip-rule="evenodd" fill="#BFBCBD" d="M58.1,97.4c-0.4,0.8-0.1,1.7-0.4,2.6c-0.5,1.6-1.3,3.1-2.6,4.3
				c0.4-1.5,1.1-3,0.8-4.6c-0.2-1.3-0.7-2.5-0.8-3.9c0-0.2,0-0.4-0.1-0.8C56.5,95.6,57.4,96.4,58.1,97.4z"/>
			<path fill-rule="evenodd" clip-rule="evenodd" fill="#BFBDBD" d="M42.8,105.5c-1.8-1.7-2.9-3.7-3-6.2c0-0.5,0.2-1.1-0.2-1.5
				c0.7-1,1.7-1.6,2.8-2.3c0.1,0.7,0.4,1.3,0,1.9c-1,2-1,4-0.2,6c0.1,0.2,0.2,0.4,0.1,0.6C42.4,104.6,42.6,105.1,42.8,105.5z"/>
			<path fill-rule="evenodd" clip-rule="evenodd" fill="#F8F6F7" d="M37.3,99.4c-4.5,1.9-8.8,4-12.4,7.4c-0.3,0.2-0.6,0.7-1.1,0.3
				c3.8-4.1,8.5-6.7,13.8-8.6C37.7,98.9,37.5,99.2,37.3,99.4z"/>
			<path fill-rule="evenodd" clip-rule="evenodd" fill="#FAB702" d="M51.3,99.6c1.2-0.3,2.4-0.4,3.5-1c0.2-0.1,0.4-0.1,0.5,0.2
				c0,0.4,0.2,0.8-0.3,1c-1.3,0.5-2.5,1.3-3.9,1.3c-1.4,0.4-2.8,0.1-4.3,0.2c-0.2,0-0.4,0-0.6-0.1c-0.5-0.8-0.4-1.3,0.5-1.7
				C48.3,99.8,49.8,99.7,51.3,99.6z"/>
			<path fill-rule="evenodd" clip-rule="evenodd" fill="#5E423A" d="M82.3,31.9c0,0.5,0,1,0,1.8c-0.8-1.6-1.1-3-1.8-4.3
				c-0.6-1.1-1.2-2.2-2.4-2.9c-0.2-0.1-0.4-0.4-0.5-0.6c-0.2-0.3-0.2-0.5,0.1-0.7c0.3-0.2,0.5-0.1,0.7,0c1.1,0.6,2,1.6,2.8,2.5
				C81.8,29,82.3,30.4,82.3,31.9z"/>
			<path fill-rule="evenodd" clip-rule="evenodd" fill="#5E4239" d="M84.2,46.7c-1-2.3-2.1-4.5-2.6-7c0-0.2-0.1-0.4-0.1-0.6
				c0-0.4-0.2-1,0.3-1.2c0.7-0.3,0.6,0.6,0.9,0.8c0.4,2.1,1.5,4,1.6,6.1C84.3,45.4,84.4,46,84.2,46.7z"/>
			<path fill-rule="evenodd" clip-rule="evenodd" fill="#CC8251" d="M36.6,37.3c-1.9,1.3-4,1.9-6.4,1.7c-0.7-0.1-1.2-0.5-1.9-0.6
				c-0.1-0.5,0.2-0.4,0.5-0.4c1.7,0.2,3.4-0.1,5-0.6C34.7,37.2,35.7,37.2,36.6,37.3z"/>
			<path fill-rule="evenodd" clip-rule="evenodd" fill="#40211C" d="M77.1,22.6c-0.3,0-0.3,1.2-0.7,0.2c-0.1,0.1-0.2,0.2-0.3,0.2
				c-1.8-2.5-4-4.6-6.3-6.6c-0.9-0.8-1.3-0.7-2,0.2c-0.8-0.6-0.4-1.1,0-1.7c3.3,0.8,5.4,3.3,7.5,5.7C75.9,21.2,76.5,21.9,77.1,22.6z
				"/>
			<path fill-rule="evenodd" clip-rule="evenodd" fill="#5B342E" d="M67.9,56.7c0.4-0.2,1.1,0.3,1.3-0.4c1.9,0.4,1.9,0.4,1.9,2.4
				c0,2.9-0.1,5.7-0.4,8.6c0,0.2,0,0.4-0.2,0.6c0-0.2,0-0.4-0.2-0.5C70,67,70,66.6,70.1,66.3c0.3-2.5,0.1-4.9,0.2-7.4
				c0-0.9-0.4-1.3-1.2-1.5C68.7,57.2,68.1,57.3,67.9,56.7z"/>
			<path fill-rule="evenodd" clip-rule="evenodd" fill="#F88D04" d="M46.7,99.6c-0.3,0.5-0.7,0.9-0.5,1.5c-0.3,0.4-0.7,0.1-1.1,0
				c-0.7-0.3-1.4-0.5-2-0.8c-0.4-0.3-0.7-0.6-1.1-0.8c-0.3-0.2-0.4-0.6-0.1-0.9c0.2-0.2,0.2-0.9,0.8-0.5c1.3,0.9,2.9,1.2,4.4,1.6
				C47,99.7,46.8,99.7,46.7,99.6z"/>
			<path fill-rule="evenodd" clip-rule="evenodd" fill="#F9F7F7" d="M60.7,102.5c0,0.4,0,0.8,0,1.3c0,0.3,0,0.6-0.4,0.7
				c-0.4,0.1-0.6-0.2-0.6-0.5c0-1.6-0.7-3-1.3-4.4c-0.2-0.4-0.1-0.9,0.5-1C59.8,99.7,60.5,101,60.7,102.5z"/>
			<path fill-rule="evenodd" clip-rule="evenodd" fill="#F4C1A5" d="M21.3,59c-0.3,0.5-0.6,0.5-1.1,0.3c-2.3-1.2-2.5-1.2-3.9,1.2
				c0,0,0,0.1-0.1,0.1c-0.1,0-0.1-0.1-0.2-0.1c0.1-1.1,0.7-1.9,1.4-2.7C18.6,56.7,20.3,57.3,21.3,59z"/>
			<path fill-rule="evenodd" clip-rule="evenodd" fill="#CC8251" d="M16.5,64.4c0.5,0,0.7,0.4,1,0.6c1.6,1.1,2.4,1,4.1-0.6
				c0,0.4-0.2,0.9-0.1,1.3c0.2,1.1-0.4,1.3-1.3,1.2C18.6,66.6,17.2,66.1,16.5,64.4z"/>
			<path fill-rule="evenodd" clip-rule="evenodd" fill="#CC8251" d="M25.3,61c-0.1,0-0.1,0-0.2,0c-0.4-0.2-0.9-0.1-1.3-0.4
				c-0.2,0-0.5,0-0.7,0.2c-1.1,0.7-1.5,0.5-1.6-0.8c0-0.1,0-0.3,0-0.4c0.6,0.5,1.1,0.7,1.7,0.1c0.2-0.2,0.4-0.2,0.6-0.1
				c0.7,0.3,1.5,0.5,2.2,0.7c0.6,0.2,0.6,0.7,0.6,1.2c0.1,0.1,0,0.2-0.1,0.2C26.1,61.4,25.7,61.2,25.3,61z"/>
			<path fill-rule="evenodd" clip-rule="evenodd" fill="#CC8251" d="M76.5,60.1c0,0.1,0,0.3,0,0.5c-0.2,0.2-0.3,0.5-0.4,0.7
				c-0.5,1.2-1.6,1.6-2.7,0.9c-0.5-0.3-1-0.4-1.6-0.1c0-0.3,0-0.6,0-1c0-0.3,0.1-0.5,0.4-0.6c0.3,0,0.6-0.3,1,0.1
				c1.1,1.1,1.7,1.1,2.8,0C76.2,60.4,76.3,60.2,76.5,60.1z"/>
			<path fill-rule="evenodd" clip-rule="evenodd" fill="#F4C1A6" d="M82.1,59.5c-0.1,0.1-0.2,0.1-0.4,0c-1.4-1.1-1.9-1.1-3.3,0
				c-0.4,0.3-0.7,0.8-1.3,0.2c0.1-0.3,0.2-0.5,0.4-0.8c0.6-0.9,1.3-1.5,2.4-1.4C81.1,57.6,81.6,58.5,82.1,59.5z"/>
			<path fill-rule="evenodd" clip-rule="evenodd" fill="#CC8251" d="M46.2,61c0.1,0.4-1,0.9,0,1.3c-0.1,1.7,0.3,3.4-0.4,5.1
				c-0.2,0.4-0.3,0.7-0.7,0.9c0.3-2.1,0.2-4.2,0.2-6.4C45.4,61.2,45.5,60.9,46.2,61z"/>
			<path fill-rule="evenodd" clip-rule="evenodd" fill="#5A342F" d="M20.6,57.1c2.1,0.5,3.8,1.1,5.6,1.8c0.4,0.1,0.5,0.5,0.3,0.8
				c-0.2,0.3-0.5,0.1-0.6,0C24.2,58.8,22.2,58.6,20.6,57.1z"/>
			<path fill-rule="evenodd" clip-rule="evenodd" fill="#1D1E1C" d="M42.8,98c-0.9,0.4-1,0.9-0.3,1.4c0.3,0.2,0.5,0.5,0.8,0.7
				c0.1,0.3,0.1,0.5-0.2,0.4c-0.3-0.2-0.6-0.4-0.9-0.7c-0.4,1.5,0.2,2.9,0.5,4.3c-0.1,0-0.2,0-0.3,0c-1-2.1-1.3-4.1-0.2-6.3
				c0.1-0.1,0.2-0.2,0.4-0.4C42.5,97.6,42.6,97.8,42.8,98z"/>
			<path fill-rule="evenodd" clip-rule="evenodd" fill="#5B342F" d="M76.2,58.4c0.2,0,0.6-0.1,0.6,0.3c0,0.3-0.2,0.5-0.5,0.5
				c-1.3,0.3-2.7,0.5-4,0.7c-0.2,0-0.4,0-0.5-0.3c0-0.3,0-0.5,0.4-0.5C73.5,58.8,74.9,58.6,76.2,58.4z"/>
			<path fill-rule="evenodd" clip-rule="evenodd" fill="#DBA182" d="M65.2,89.4c0.6-0.9,1.5-1.6,2.2-2.4c1.4-1.3,2.7-2.8,3.9-4.3
				c0.1,0.1,0.1,0.2,0,0.3C69.9,85.6,67.8,87.7,65.2,89.4z"/>
			<path fill-rule="evenodd" clip-rule="evenodd" fill="#CC8251" d="M77.1,65.6c1.2,0.3,2.5,0.1,3.7,0.5c-0.7,0.6-1.5,0.8-2.4,0.9
				C77,67.1,77,67,77.1,65.6z"/>
			<path fill-rule="evenodd" clip-rule="evenodd" fill="#D4AF55" d="M46.7,99.6c0.2,0,0.3,0,0.5,0c1.4,0,2.8,0,4.2,0
				C49.8,99.9,48.2,99.9,46.7,99.6z"/>
			<path fill-rule="evenodd" clip-rule="evenodd" fill="#51312D" d="M67.6,56.3c-1.6-0.1-3.2,0.3-4.7-0.2
				C64.4,56.1,66,55.9,67.6,56.3z"/>
			<path fill-rule="evenodd" clip-rule="evenodd" fill="#E7A07B" d="M22.2,64.8c0.8,1,0.3,2.2,0.4,3.3c-0.3-0.9-0.3-1.9-0.4-2.9
				C22,65.1,22,64.9,22.2,64.8z"/>
			<path fill-rule="evenodd" clip-rule="evenodd" fill="#391E1C" d="M75.6,60c-0.4,0.5-0.7,0.8-1.3,0.7c-0.1,0-0.2-0.3-0.2-0.3
				C74.5,60,74.9,59.9,75.6,60z"/>
			<path fill-rule="evenodd" clip-rule="evenodd" fill="#51312D" d="M60.7,56.1c-1.3,0.4-2.7,0.1-4.1,0.2
				C58,55.9,59.4,56.1,60.7,56.1z"/>
			<path fill-rule="evenodd" clip-rule="evenodd" fill="#1D1E1C" d="M22.2,64.8c0,0.1,0,0.3-0.1,0.4c-0.3-0.2-0.1-0.6-0.4-0.8
				c0-0.4-0.1-0.8,0.2-1.4C22,63.8,22.1,64.3,22.2,64.8z"/>
			<path fill-rule="evenodd" clip-rule="evenodd" fill="#1D1E1C" d="M76.9,63.5c0,0.3,0,0.6,0,0.9c-0.3,0.2-0.1,0.6-0.4,0.8
				c0-0.5,0-1,0-1.5C76.6,63.4,76.7,63.3,76.9,63.5z"/>
			<path fill-rule="evenodd" clip-rule="evenodd" fill="#1D1E1C" d="M26.2,58.2c0.7,0,0.3-0.7,0.6-0.9c0,0.3,0.1,0.6,0,0.9
				C26.6,58.6,26.4,58.6,26.2,58.2z"/>
			<path fill-rule="evenodd" clip-rule="evenodd" fill="#200F0F" d="M22.6,59.2c-0.1,0-0.2,0.2-0.2,0.1c-0.1-0.1-0.2-0.2-0.2-0.3
				c0,0,0.1-0.2,0.2-0.1C22.5,58.9,22.6,59,22.6,59.2z"/>
			<path fill-rule="evenodd" clip-rule="evenodd" fill="#F1B89A" d="M58.8,92.3c0.4,0,0.8,0,1.1,0c-0.2,0.1-0.3,0.1-0.5,0.2
				C59.2,92.5,59,92.6,58.8,92.3z"/>
			<path fill-rule="evenodd" clip-rule="evenodd" fill="#5F433A" d="M67.8,16.6c0.1-1,0.5-1.3,1.5-0.9c1.3,0.6,2.3,1.7,3.3,2.8
				c0.9,1,1.9,2,2.9,3c0.4,0.4,0.8,0.8,0.7,1.5l0,0c-0.6,0.4-1.1-0.1-1.5-0.4c-1.7-1.8-3.5-3.5-5.2-5.3C69,16.9,68.4,16.6,67.8,16.6
				z"/>
			<path fill-rule="evenodd" clip-rule="evenodd" fill="#40211C" d="M74.6,22.6c0.5,0.1,0.9,0.6,1.5,0.4
				C75.3,23.7,74.9,23.4,74.6,22.6z"/>
			<path fill-rule="evenodd" clip-rule="evenodd" fill="#1D1E1C" d="M49,67.6c-0.7-0.4-1.4-0.2-2.1,0.1c-0.2,0.1-0.5,0.4-0.7,0
				c-0.2-0.3,0.1-0.5,0.4-0.7c0.7-0.6,3.1-0.4,3.8,0.3c0.1,0.1,0.2,0.3,0.1,0.5c-0.2,0.2-0.4,0.1-0.6,0.1
				C49.5,67.9,49.2,67.8,49,67.6z"/>
			<path fill-rule="evenodd" clip-rule="evenodd" fill="#EBBA9F" d="M49,67.6c0.3,0.1,0.5,0.2,0.8,0.3c0.1,0.3,0.7,0.1,0.5,0.5
				c-0.1,0.3-0.4,0.3-0.7,0.3c-0.8,0.1-1.3-0.4-1.9-1C48.2,67.6,48.6,67.6,49,67.6z"/>
			<path fill-rule="evenodd" clip-rule="evenodd" fill="#1D1E1C" d="M61.3,75.5c-0.6-0.2-1.1-0.6-1.8-0.4c0.2,0.6,0.9,0.5,1.2,1
				c-0.4,0.3-9.9,7.5-23.4,2.5c0.8,1,1.8,1.3,2.7,1.6c4.3,1.4,8.6,1,12.9,0.1c2.5-0.5,6.5-2.5,8.6-4C62.2,75.9,61.7,75.6,61.3,75.5z
				"/>
			<path fill-rule="evenodd" clip-rule="evenodd" fill="#1D1E1C" d="M68.6,54c-1.7-0.3-3.2-0.8-4.7-1.5c-0.2-0.1-0.4-0.2-0.4-0.4
				c0-0.3,0.3-0.3,0.5-0.4c0.2-0.1,0.5-0.1,0.7-0.1c1.5,0.3,2.9,0.7,4.2,1.5c0.2,0.1,0.5,0.3,0.4,0.7C69.1,54.1,68.8,53.8,68.6,54z"
				/>
			<path fill-rule="evenodd" clip-rule="evenodd" fill="#1D1E1C" d="M33.7,51.5c0.4,0.1,0.6,0.1,0.8,0.2c0.2,0,0.4,0.1,0.4,0.3
				c0,0.2-0.1,0.3-0.3,0.4c-1.6,0.6-3.1,1.3-4.8,1.5c-0.2,0-0.5,0.1-0.6-0.2c-0.1-0.3,0.1-0.5,0.3-0.6C30.8,52.3,32.3,52,33.7,51.5z
				"/>
			<path fill-rule="evenodd" clip-rule="evenodd" fill="#1D1E1C" d="M36.1,56.6c2,0.2,4.1-0.1,6.2,0.2c0.9,0.2,1.3,0.7,1.3,1.5
				c0,2.6,0,5.3,0,7.9c0,1.9-1.1,2.9-3,3.2c-0.3,0-0.6,0.1-0.9,0.1c-3.1,0-6.2,0.6-9.3-0.1c-1.2-0.3-2-1-2.2-2.2
				c-0.5-2.9-0.3-5.9-0.3-8.9c0-1,0.9-1.3,1.7-1.5C31.8,56.5,33.9,56.8,36.1,56.6z"/>
			<path fill-rule="evenodd" clip-rule="evenodd" fill="#1D1E1C" d="M67.9,56.7c2.6,0.8,2.6,0.8,2.6,3.7c0,2.3,0.1,4.7-0.2,7
				c-0.8,2.4-2.9,2.5-4.8,2.5c-2.6,0-5.2,0-7.8-0.4c-1.9-0.3-2.9-1.5-2.9-3.3c0-2.5,0-5,0-7.6c0-1,0.3-1.6,1.4-1.7
				c1-0.2,1.9-0.1,2.9-0.2c1.9-0.2,3.8,0,5.7-0.1c0.7,0,1.5-0.1,2.2,0.1C67.2,56.7,67.6,56.7,67.9,56.7z"/>
			<path fill-rule="evenodd" clip-rule="evenodd" fill="#51312D" d="M64.8,56.7c-1.9,0-3.8,0-5.8,0c1.1-0.4,2.2-0.1,3.3-0.2
				c0.8-0.1,1.6,0,2.4,0C64.8,56.5,64.9,56.6,64.8,56.7C64.8,56.6,64.8,56.7,64.8,56.7z"/>
			<path fill-rule="evenodd" clip-rule="evenodd" fill="#5B342E" d="M64.8,56.7c0-0.1,0-0.1,0-0.2c0.7,0.1,1.4-0.2,2.1,0.2
				C66.2,56.7,65.5,56.7,64.8,56.7z"/>
			<path fill-rule="evenodd" clip-rule="evenodd" fill="#1D1E1C" d="M19.2,63.6c-1,0.1-1.3-0.4-1.5-1c-0.2-0.9,0-1.7,1.2-2.4
				C18.1,61.5,18.3,62.6,19.2,63.6z"/>
			<path fill-rule="evenodd" clip-rule="evenodd" fill="#E7A07B" d="M22.7,63.1c0.7,0.3,0.4,0.7,0.3,1.3
				C22.6,63.9,22.8,63.5,22.7,63.1L22.7,63.1z"/>
			<path fill-rule="evenodd" clip-rule="evenodd" fill="#E7A07B" d="M23.8,60.5c0.5,0,0.9,0.1,1.3,0.4
				C24.6,60.9,24.1,61.1,23.8,60.5z"/>
			<path fill-rule="evenodd" clip-rule="evenodd" fill="#E7A07B" d="M22.7,63.1c-0.1,0-0.3,0.2-0.4-0.1c0-0.1,0.1-0.2,0.1-0.2
				C22.7,62.7,22.7,62.9,22.7,63.1L22.7,63.1z"/>
			<path fill-rule="evenodd" clip-rule="evenodd" fill="#1D1E1C" d="M79.5,63.9c0.8-1.7,0.8-1.7,0.4-3.4c0.9,0.5,1.2,1.3,1,2.1
				C80.8,63.3,80.5,63.9,79.5,63.9z"/>
			<path fill-rule="evenodd" clip-rule="evenodd" fill="#C6E4E8" d="M36.1,57.5c1.8,0,3.7,0,5.5,0c1,0,1.5,0.3,1.4,1.4
				c-0.1,2.5-0.2,5-0.2,7.6c0,1.1-0.6,1.8-1.5,2.2c-0.5,0.2-1,0.4-1.4,0.4c-3.1,0-6.2,0.4-9.2-0.2c-1.1-0.2-1.8-0.9-1.9-2.1
				c-0.3-2.6-0.3-5.2-0.4-7.9c0-0.7,0.2-1.2,1.1-1.3C31.6,57.3,33.8,57.4,36.1,57.5z"/>
			<path fill-rule="evenodd" clip-rule="evenodd" fill="#C6E4E8" d="M61.8,57.5c2.4-0.1,4.9-0.2,7.3,0.2c0.7,0.1,1,0.5,0.9,1.1
				c-0.1,2.7-0.1,5.4-0.4,8.1c-0.1,1.1-0.8,1.7-2,2c-3.1,0.6-6.1,0.3-9.2,0.1c-2.1-0.1-2.8-1-2.8-3c-0.1-2.4-0.1-4.8-0.2-7.1
				c0-1,0.4-1.3,1.3-1.3C58.4,57.5,60.1,57.5,61.8,57.5z"/>
			<path fill-rule="evenodd" clip-rule="evenodd" fill="#1D1E1C" d="M37.9,61.2c0.7,1.1,0.7,2.1,0,2.9c-1,1-2.5,1.3-3.4,0.6
				c-0.9-0.7-1.1-2-0.4-3.1c0.6-1.1,1.7-1.1,2.8-1c0,0.4-0.4,0.4-0.6,0.6c-0.2,0.2-0.5,0.3-0.7,0.5c-0.3,0.3-0.5,0.7-0.2,1.2
				c0.2,0.5,0.7,0.6,1.2,0.6c0.5,0,0.8-0.3,0.9-0.8c0.1-0.3,0-0.7,0.1-1.1C37.5,61.4,37.6,61.1,37.9,61.2z"/>
			<path fill-rule="evenodd" clip-rule="evenodd" fill="#1D1E1C" d="M37.9,61.2c-0.1,0.2-0.2,0.3-0.2,0.5c-0.5-0.2-1-0.4-1.4-0.8
				c0.2-0.1,0.4-0.2,0.6-0.3C37.2,60.7,37.6,60.8,37.9,61.2z"/>
			<path fill-rule="evenodd" clip-rule="evenodd" fill="#1D1E1C" d="M64.8,62.9c0,1.4-1.1,2.5-2.4,2.5c-1.5,0-2.4-0.9-2.4-2.2
				c0-1.3,1.1-2.4,2.6-2.4C64,60.7,64.8,61.5,64.8,62.9z"/>
			<path fill-rule="evenodd" clip-rule="evenodd" fill="#FBFBFB" d="M36.2,60.9c0.7-0.1,1.1,0.2,1.4,0.8c0.1,0.7,0.3,1.5-0.6,1.9
				c-0.7,0.3-1.2,0.2-1.7-0.3C34.5,62.6,34.9,61.7,36.2,60.9z"/>
			<path fill-rule="evenodd" clip-rule="evenodd" fill="#FBFBFB" d="M64.2,62.8c0,0.9-0.5,1.3-1.4,1.2c-0.8,0-1.5-0.6-1.4-1.4
				c0.1-0.8,0.5-1.3,1.3-1.4C63.6,61.2,64.2,61.8,64.2,62.8z"/>
			<path fill-rule="evenodd" clip-rule="evenodd" fill="#F7C3A8" d="M58.8,92.3c-0.2-0.4,0.2-0.4,0.4-0.5c1.4-0.9,2.9-1.6,4.1-2.9
				c0.3-0.2,0.6-0.4,0.8-0.7c2.4-2.1,4.7-4.4,6.5-7.1c1-1.3,1.6-2.8,2.4-4.3c0.2-0.4,0.2-1.1,0.8-0.9c0.5,0.1,0.2,0.7,0.3,1.1
				c-0.4,1.7-1.2,3.2-2.1,4.7c-0.3,0.3-0.3,0.7-0.7,0.9c-1.7,2.5-3.9,4.6-6.2,6.6c-1.6,1.3-3.3,2.3-5.3,3
				C59.5,92.5,59.2,92.5,58.8,92.3z"/>
		</g>
	</g>
</g>
<g id="personajes_hover">
	<g>
		<defs>
			<rect id="SVGID_49_" x="0" y="0" width="100" height="100"/>
		</defs>
		<use xlink:href="#SVGID_49_"  overflow="visible" fill="#00897B"/>
		<clipPath id="SVGID_4_">
			<use xlink:href="#SVGID_49_"  overflow="visible"/>
		</clipPath>
		<g clip-path="url(#SVGID_4_)">
			<path fill-rule="evenodd" clip-rule="evenodd" fill="#1D1E1C" d="M29.1,181.1c1-0.5,2-0.7,3.1-0.6c0.7,0.1,0.9-0.1,0.9-0.9
				c0.1-2.5-1-4.7-1.4-7c-1.5-8.3-1.8-16.7-1.3-25.2c0.1-1.2,0.1-2.4-0.7-3.5c-0.8-1-1.2-2.4-0.7-3.7c0.1-0.3,0.1-0.5-0.2-0.6
				c-0.1-0.1-0.3-0.2-0.3-0.3c-0.3-1.6-1.6-1.7-2.8-2.1c-7.2-2.3-10.2-8.6-9.6-15.2c0.8-9.4,6.1-16,14-20.7c2.5-1.5,5.1-2.7,7.9-3.3
				c0.4-0.1,0.6-0.3,0.9-0.5c0.8-0.9,1.7-1.5,2.7-2c0.2-0.1,0.6-0.1,0.5-0.4c0-0.4-0.4-0.3-0.7-0.4c-2.3-0.7-4.5-1.7-6.6-2.9
				c-7.4-4.3-11.5-10.8-12.7-19.2c-0.2-1.3-0.4-2.5-0.5-3.8c-0.1-0.6-0.2-0.7-0.8-0.8c-2.6-0.1-4.7-1.7-5.4-3.9
				c-0.8-2.7,0-5.4,2.1-7c0.4-0.3,0.5-0.7,0.4-1.1c-0.3-1.2-0.8-2.3-1.4-3.4c-2.5-5.4-2.7-10.8,0.1-16c1.5-2.7,2.3-5.5,2.6-8.6
				c0.4-3.6,2.2-6.4,5-8.6c0.5-0.4,0.8-0.9,1.2-1.3c4.6-4.7,10-6.7,16.5-5.6c3,0.5,6.1,0.5,9.1,0.3c3.2-0.2,6.2,0.1,9.3,0.6
				c1.5,0.3,3.1,0.3,4.6,0.2c3.9-0.2,6.8,1.6,9.1,4.4c1.8,2.1,3.6,4,5.5,6c2.4,2.6,3.7,5.7,3.6,9.3c-0.1,2.7,0.3,5.2,1,7.8
				c0.4,1.3,0.6,2.8,0.9,4.1c0.3,1.4,0,2.8-0.7,4.1c-1.2,2.5-2.2,5.1-2.8,7.8c-0.1,0.5,0,0.8,0.3,1.2c1.6,2.1,1.7,4.3,0.7,6.6
				c-1,2.2-2.9,3.1-5.2,3.2c-0.6,0-0.6,0.3-0.7,0.8c-0.3,1.9-0.5,3.7-0.9,5.6C73.8,84.7,67.3,91,57.6,94.3c-0.4,0.1-0.8,0.3-1.3,0.4
				c1.1,0.8,2.1,1.7,2.9,2.7c0.3,0.4,0.7,0.3,1,0.4c9.6,3,16.9,8.7,20.4,18.3c1.8,4.9,1.9,10-0.8,14.7c-2.1,3.8-5.5,5.8-9.6,6.6
				c-1.3,0.3-1.8,1.1-2.4,1.9c-0.2,0.2,0,0.4,0.1,0.6c0.3,1.3,0.1,2.5-0.7,3.5c0,0-0.1-0.1-0.1-0.1c-0.3-0.7-0.1-1.5,0-2.2
				c0-0.2,0.4-0.7-0.3-0.7c-0.6,0.2-1.1,0.4-1.7,0.7c-0.2,0.1-0.4,0.2-0.6,0.2c-2.4,0.9-5,1.1-7.5,1.3c-0.5,0-0.9,0-1.4,0.2
				c-1.4,0.2-2.8,0.1-4.2,0.1c-2,0-2,0-2,2c-0.1,1,0.6,1,1.3,1c2.3,0.1,4.6-0.1,6.9-0.3c1.9-0.2,3.7-0.4,5.6-0.8
				c0.3-0.1,0.7-0.1,1,0.1c0.1,0.2,0.1,0.3,0.1,0.5c-0.9,0.9-2.2,0.8-3.3,1.1c-3.3,0.7-6.7,0.8-10.1,0.8c-3,0-5.9,0.3-8.9,0
				c-2.7-0.2-5.4-0.5-8-1.1c-2.3-0.6-2.3-0.6-2.6,1.8c-0.4,3.9-0.1,7.8,0.2,11.7c0.2,3.3,0.5,6.7,0.9,10c0.3,2.2,0.8,4.4,1.3,6.6
				c0.2,0.7,0.6,0.6,1,0.5c0.4,0,0.7,0,0.9,0.4c0.1,0.5-0.3,0.7-0.6,0.9c-0.2,0.2-0.6,0.4-0.5,0.8c0.1,0.1,0.2,0.3,0.2,0.5
				c0,0.1,0,0.2-0.1,0.3c-0.1,0.1-0.2,0.3-0.4,0.4c-0.6,0.4-0.2,0.6,0.2,0.8c0.2,0.2,0.3,0.4,0,0.6c-0.2,0.1-0.4,0.2-0.6,0.1
				c-1.4-0.5-2.8-0.2-4.3,0C29.4,181.5,29.1,181.4,29.1,181.1z"/>
			<path fill-rule="evenodd" clip-rule="evenodd" fill="#3E2723" d="M84.2,46.7C84,48.2,83,49.5,82.4,51c-0.7,1.7-1.2,3.4-1.6,5.2
				c-0.1,0.4-0.1,0.7-0.7,0.6c-0.3-0.1-0.6,0-0.8,0.2c-1.4,0.7-2.9,1-4.5,1.1c-1,0.1-1.2,0-1-1c0.2-1,0.7-2,0.7-3.1
				c0-1-0.2-2-0.6-2.9c-0.5-1.1-0.6-2.1-0.5-3.3c0.2-1.6-0.3-3-1.2-4.3c-0.9-1.3-1.3-2.8-1.3-4.4c0-1-0.3-1.1-1.2-0.9
				c-2.2,0.5-4.3,1.3-6.5,1.6c-1.6,0.2-3.2,0.2-4.8-0.2c-2.1-0.6-4.2-0.6-6.3,0c-1.6,0.5-3,0.3-4.6-0.4c-2.6-1.2-5.2-2.4-8.1-2.8
				c-1.7-0.3-3.4,0.3-5,0.5c-0.8,0.1-1.7,0.4-2.5,0.3c-3.4,0.2-5.1-0.7-5.6-4.8c-0.2-2.4-0.9-4.6-2-6.7c-0.8-1.5-1.2-3.1-0.6-4.8
				c3.7-4.7,8.5-7.2,14.4-7.9c1.9-0.2,3.7,0.3,5.5,0.5c2.5,0.3,5,0.4,7.5-0.1c1.7-0.4,3.3-0.1,5,0.2c3.1,0.4,6.3,1.2,9.5,1
				c0.8-0.1,1.6,0.1,2.4,0.4c0.1,0.5-0.5,1,0.2,1.4c0.9,0.3,1.6,0.8,2.3,1.5c1.5,1.6,3.1,3,4.5,4.6c0.2,0.5,0.4,1,1.1,0.5
				c0.1-0.1,0.1-0.1,0.2-0.2c0.3-0.4,0.8,0.2,1.1-0.1c1.6,1.5,3.1,3.1,4,5.1c-0.5,0.1-0.7-0.3-0.9-0.6c-0.5-0.6-1-1.1-1.7-1.4
				c-0.2-0.1-0.4-0.4-0.6-0.1c-0.2,0.3,0.1,0.5,0.3,0.7c0.4,0.4,0.9,0.7,1.3,1.1c1.3,1.7,2.2,3.7,2.7,5.7c0-0.3-0.3-0.8,0.1-1.1
				c0.4,0.4,0.2,1,0.2,1.4c0,1.7,0,3.5,0.2,5.2c-0.3,0.1-0.5-0.5-0.8-0.2c-0.3,0.3-0.2,0.7-0.1,1c0.3,1.8,1.1,3.4,1.7,5.1
				C83.8,45.2,84.1,45.9,84.2,46.7z"/>
			<path fill-rule="evenodd" clip-rule="evenodd" fill="#DDA47F" d="M26.8,65.1c-0.1,0-0.1,0.1,0,0.1c0.3,0.7,0,1.5,0.2,2.2
				c0,1.3,0.7,2.2,1.7,3c0.3,0.4-0.1,0.6-0.2,0.8c-0.6,1-0.5,1.8,0.6,2.2c2,0.9,4.1,1,6.3,0.8c0.7-0.1,1.3-0.4,1.8-0.9
				c0.5-0.4,0.8-0.9,0.6-1.6c-0.1-0.4-0.1-0.7,0.4-0.8c1.4-0.2,2.8-0.1,4.2-0.5c1.4-0.3,2.4-1,2.9-2.3c0.5-1,0.7-2.1,0.7-3.2
				c0-0.9-0.2-1.9,0.2-2.8c1.1-1,2.4-0.7,3.7-0.6c0.3,0,0.6,0.2,0.9,0.3c1.3,0.5,1.5,0.7,1.5,2.1c0,1.5,0,3,0.7,4.4
				c0.2,0.4,0.4,0.9,0.9,1.1c1.7,1.4,3.9,1.3,6,1.5c0.2,0.1,0.3,0.1,0.5,0.1c0.6-0.1,1,0.1,0.8,0.8c-0.2,0.9,0.2,1.4,1,1.7
				c1.9,0.9,3.9,0.8,6,0.6c0.8-0.1,1.5-0.5,2-1.1c0.8-0.7,0.7-1.6-0.3-2.1c-0.2-0.1-0.5-0.1-0.4-0.5c1.5-0.9,2.1-2.3,2.1-4
				c0.1-1.5,0.2-3,0.2-4.5c0.3-0.6,0.8-0.5,1.3-0.3c1.8,0.6,1.8,0.6,2.9-1c0.1-0.1,0.2-0.3,0.4-0.3c0.3,0.2,0.2,0.5,0.2,0.8
				c0,0.2,0,0.5,0,0.8c0.2-0.1,0.5-0.6,0.7-0.1c0.2,0.6,0.5,1.3-0.3,1.8c-0.6,0.3-0.4,1-0.6,1.5c-0.4,3.5-0.9,7-1.8,10.4
				c-0.1,0.5-2.3,6.3-3.3,7.3c-3.8,5.8-10.5,9-11.9,9.6c-1.5,0.8-3,1.3-4.7,1.5c-3.3,0.1-6.6,0.2-9.9-0.8c-4-1.2-7.7-2.8-11-5.2
				c-4.6-3.4-7.8-7.9-9.6-13.4c-0.4-1.3-1-2.6-1.3-3.9c-0.2-0.8-0.4-1.5-0.4-2.3c0.9,0,0.8,0.7,0.9,1.3c0.2-1.1-1-1.6-0.8-2.6
				c0-0.4,0-0.7,0.5-0.8c0.5-0.1,0.5-0.5,0.4-0.9c-0.2-0.6-0.1-1.3,0-1.9c0.1-0.5,0-0.9-0.5-1.2c-0.7-0.4-0.3-0.6,0.1-0.9
				c0.7-0.4,1.5-0.2,2.2-0.7c0.6,0.1,1,0.4,1.3,0.9C26.7,62.9,26.6,64,26.8,65.1z"/>
			<path fill-rule="evenodd" clip-rule="evenodd" fill="#DDA47F" d="M26.2,58.2c-1.4-0.3-2-1-1.5-2.5c0.3-0.9-0.2-2-0.5-2.9
				c-0.4-1-0.3-2,0.1-2.9c0.8-1.7,1-3.4,0.9-5.3c-0.1-1.6,0.3-3,1.7-4c0.7-0.6,1.3-1.3,1.6-2.2c0.2-0.2,0.5-0.1,0.7,0
				c2,0.7,3.9,0.5,5.8-0.4c0.6-0.3,1.2-0.5,1.8-0.6c2.1-0.2,4.2-0.1,6.2,0.8c1.4,0.8,2.7,1.7,4,2.5c1.5,0.9,3.2,1.1,4.9,0.2
				c1.7-0.9,3.5-0.9,5.3-0.1c2.2,1,4.4,1.2,6.7,0.2c0.9-0.4,1.9-0.7,2.8-1.2c0.1-0.1,0.2-0.1,0.3-0.2c0.9-0.3,1.9-1.1,2.8-0.9
				c1,0.3,0.6,1.7,0.9,2.5c0.4,1.3,1.3,2.3,1.8,3.5c0.4,0.8,0.5,1.7,0.4,2.6c-0.3,1.4-0.2,2.8,0.4,4.2c0.7,1.4,0.7,2.9,0.1,4.3
				c-0.3,0.7-0.4,1.4-0.4,2.1c0,0.4-0.3,0.5-0.6,0.6c-0.5,0.1-0.3-0.4-0.3-0.6c-0.2-1.6-0.6-2.2-2.3-2.4c-4.9-0.5-9.7-0.5-14.6-0.1
				c-1.6,0.1-1.7,0.4-1.9,1.9c0,0.3-0.1,0.6-0.1,1c-2.5-0.6-5-0.7-7.4,0.2c-0.3-0.2-0.2-0.4-0.2-0.6c-0.1-2.1-0.4-2.4-2.4-2.5
				c-4.5-0.3-8.9-0.3-13.4,0c-1.9,0.1-2.5,0.6-2.8,1.8C26.5,57.5,27.1,58.4,26.2,58.2z"/>
			<path fill-rule="evenodd" clip-rule="evenodd" fill="#E0DEDE" d="M76.3,109.6c2.2,2.9,4.1,5.9,4.5,9.6c0.3,2.7-0.7,5.1-2.5,7
				c-3.3,3.5-7.5,5.2-12.3,4.8c-0.4,0-0.8-0.1-1-0.5c-0.1-0.1-0.2-0.3-0.2-0.4c-0.2-0.2-0.3-0.4-0.3-0.7c0-0.6,0-1.1,0-1.6
				c1.2-2.7,2.4-5.4,4.1-7.8c0.3-0.4,0.5-0.9-0.2-1.1c-0.1-0.1-0.1-0.3-0.1-0.4c0.2-0.6-0.2-1.2-0.4-1.7c-1-1.9-1.6-4-2.7-5.9
				c-0.1-0.1-0.1-0.1-0.2-0.2c0,0.1,0,0.1,0.1,0.2c0,0.2,0.1,0.3,0.2,0.5c0.1,0.3,0.2,0.5,0.3,0.8c0.6,2.1,1,4.3,1.3,6.5
				c0.1,0.7,0.2,1.4-0.2,2.1c-0.3,1-1,1.7-1.5,2.6c-0.2,0.3-0.5,0.7-0.6,1c-0.4,1.1-0.9,1.8-2.2,2.1c-0.9,0.2-1.6,1.1-2.7,0.7
				c-0.4-0.4-0.2-0.9-0.2-1.1c0,0.1-0.1,0.4-0.3,0.7c-0.1,0.8-0.1,1.7-0.2,2.5c0.2,1.7,0.2,1.7-1.3,2.4c-1.2,0.6-2.3,1.3-3.3,2.1
				c-0.4,0.3-0.7,0.6-1.2,0.6c-0.6-0.2-0.6-0.7-0.6-1.3c0.4-1.7,1.3-3.1,2.7-4c0.1-0.1,0.3-0.2,0.4-0.3c0.2-0.2,0.6-0.4,0.4-0.8
				c-0.2-0.3-0.6-0.1-0.9,0.1c-1.3,0.6-2.2,1.6-3,2.8c-0.3-0.1-0.3-0.3-0.3-0.3c0,0.3,0.3,0.9,0.1,1.4c0,0.2-0.1,0.4-0.2,0.6
				c0,0.1-0.1,0.1,0,0.2c0.1-0.1,0.1-0.1,0.3-0.1c0.5,0.6,0.5,1.4,0.7,2.2c-0.4,1.7-0.8,3.4-1.1,5.2c-0.2,1.2-1.1,2-2,2.1
				c-0.2,0-0.4,0-0.5-0.2c0.2-6-1-12-0.7-18c0.1-2.6,0.3-5.2,0.4-7.7c0-0.5,0.2-1,0.4-1.4c1.2-2,2.4-3.9,3.5-5.9
				c1.6-1.6,3.4-1.1,5.3-0.6c0.1,0,0.3,0.1,0.4,0.1c0.6,0.2,1.2,0.8,1.9,0.6c0.7-0.2,0.4-1.2,0.8-1.6c0.4,0.1,0.7,0.4,0.7-0.4
				c0.3-2.5-0.3-4.8-1.4-7.1c-0.2-0.3-0.3-0.7-0.6-1.1c1,0,1.9,0.3,2.7,0.8c-0.5,0.9,0,1.5,0.8,1.8c1.7,0.9,3.4,1.7,5,2.8
				c4.4,2.9,7.7,6.7,9.6,11.7c0.4,1,0.4,1,1.1,1.6c0.2-0.3,0.1-0.6,0-0.9c-0.6-1.9-1.4-3.8-2.4-5.5
				C76.4,110.5,75.9,110.1,76.3,109.6z"/>
			<path fill-rule="evenodd" clip-rule="evenodd" fill="#E0DEDE" d="M44.3,108.5c1.4,2.1,2.9,4.1,3.9,6.4c0.4,1.1,0,2.1-0.1,3.1
				c-0.4,5.2-0.2,10.4,0.2,15.5c0.2,2.7,0.2,5.3,0.1,8c-1.2,0.3-2.6-0.6-2.7-2.2c-0.1-1.7-0.5-3.4-1-5.1c0-0.9,0.4-1.8,0.3-2.8
				c0.6-0.6,0.5,0.2,0.7,0.3c0-0.8-0.3-1.4-0.7-1.9c-0.8-1-1.9-1.7-3-2.4c-0.2-0.1-0.3-0.2-0.5-0.2c-0.3-0.1-0.7-0.2-0.8,0.2
				c-0.1,0.3,0.2,0.5,0.4,0.6c0.8,0.4,1.5,0.9,2.1,1.4c0.6,0.5,1.3,1,1.7,1.8c0,0.6,0.2,1.1-0.3,1.6c-0.5,0.3-0.7,0-1-0.3
				c-1-1.2-2.3-2-3.9-2c-0.3,0-0.6-0.1-0.8-0.5c0-0.1,0-0.1,0-0.2c0.2-0.4,0-0.8,0.1-1.1c0-1.2-0.1-2.4-0.5-3.6
				c0,0.2-0.1,0.3-0.1,0.5c-0.1,0.3,0.3,0.9-0.3,1c-0.5,0.1-1,0.3-1.5-0.1c-0.4-0.4-0.8-0.7-1.3-0.7c-1.1,0-1.5-0.7-1.8-1.6
				c-0.1-0.5-0.4-0.9-0.7-1.3c-1.7-1.9-1.6-4-1.1-6.3c0.3-1.7,0.7-3.3,1-5c0.1-0.2,0-0.4,0.1-0.6c0,0,0.1-0.1,0-0.1
				c-0.1,0.1-0.2,0.2-0.3,0.2c-1.2,2.2-1.9,4.6-2.6,7c0,0.3-0.1,0.7,0,1c0.1,0.3,0.1,0.5,0.2,0.8c-0.3,0.1-0.5-0.2-0.8-0.1
				c-0.2,0.5,0.1,0.8,0.3,1.2c0.9,2,2.2,3.8,2.8,5.9c0.2,0.5,0.6,0.7,1,0.9c0.2,0.5,0.2,1.1,0.1,1.7c0,0.2-0.1,0.4-0.3,0.5
				c-0.2,0.4-0.3,0.7-0.5,1.1c-0.2,0.2-0.6,0.3-0.9,0.3c-4.4,0.2-8.2-1.2-11.4-4.2c-2.6-2.5-3.7-5.6-3.1-9.2c0.1-1,0.4-2,0.9-2.9
				c1.4-3,3.2-5.8,5.5-8.1c0.9-0.3,1.5-1,2.2-1.6c3.2-2.7,6.9-4.4,10.7-6.1c0.2-0.1,0.4-0.1,0.6,0c-0.7,1.6-1.6,3.2-1.8,4.9
				c-0.1,0.9-0.2,1.8,0.1,2.6c0.1,0.3,0.2,0.5,0.5,0.5c0.3-0.2,0.5-0.1,0.6,0.2c0.4,0.9,1.2,0.9,2,0.7c1.7-0.5,3.4-0.1,5.2,0
				C43.9,108.3,44.1,108.4,44.3,108.5z"/>
			<path fill-rule="evenodd" clip-rule="evenodd" fill="#2F1D19" d="M23.6,20.9c-0.1,2.3,0.5,4.3,1.6,6.3c0.8,1.4,1.1,3,1.2,4.6
				c0.1,1.6,0.3,3.2,1.6,4.3c1.1,1,2.5,0.8,3.7,1c-1,0.4-2,0.2-3,0.1c-0.6-0.1-1.1-0.2-0.9,0.7c0.1,0.6-0.3,1.3-0.8,1.6
				c-2.1,1.3-2.8,3.3-2.7,5.7c0.1,1.4-0.2,2.7-0.8,3.9c-0.7,1.4-0.7,2.8-0.1,4.3c0.4,1,0.6,2,0.4,3c-0.1,0.6-0.4,0.9-1,0.6
				c-1.1-0.5-2.2-0.8-3.4-0.5c-0.4,0.1-0.6-0.2-0.7-0.6c-0.3-1.6-1-3-1.8-4.4c-1-1.8-1.3-3.8-1.3-5.8c-0.1-3.7,0.6-7.2,2.7-10.4
				c1.3-2,1.7-4.3,1.9-6.7C20.5,25.6,21.5,23.1,23.6,20.9z"/>
			<path fill-rule="evenodd" clip-rule="evenodd" fill="#5F3630" d="M60.7,56.1c0.7,0.3,1.4-0.1,2.1,0c1.2,0.2,2.4,0,3.6,0.1
				c0.4,0,0.8-0.1,1.1,0.1c0.6,0,1.1,0,1.7,0c0,1-0.8,0.5-1.2,0.7c-0.4,0-0.8,0-1.1-0.1c-0.7-0.2-1.5-0.1-2.2-0.1
				c-1.9,0.1-3.7-0.1-5.6,0.1c-0.9,0.2-1.9,0.1-2.9,0.2c-0.8,0.2-1.2,0.5-1.2,1.3c0,2.6-0.1,5.1,0,7.7c0.1,1.7,0.8,2.7,2.4,2.9
				c3.3,0.4,6.5,0.7,9.8,0.2c1.1-0.2,2-0.6,2.5-1.6c0.1-0.2,0.2-0.3,0.5-0.4c0.4,0.1,0.4,0.3,0.3,0.6c-0.2,1.2-0.9,2.1-2.1,2.2
				c-3.7,0.5-7.5,0.5-11.2,0c-2.5-0.4-3.2-1.3-3.3-3.9c0-1.4,0-2.8,0-4.2c0-0.8-0.3-1.3-1.1-1.5c-2.4-0.7-4.8-0.8-7.2-0.1
				c-0.5,0.1-0.7,0.4-0.8,0.9c-0.2,1.1-0.2,2.2-0.2,3.3c0,1.1-0.1,2.2-0.2,3.3c-0.1,0.8-0.6,1.1-1.2,1.5c-1.2,0.8-2.6,0.9-4,0.9
				c-2.9,0-5.7,0.3-8.6-0.1c-1.7-0.3-2.9-1.6-3.1-3.3c-0.2-2.4-0.2-4.7-0.2-7.1c0-0.6-0.1-1.3-0.2-1.9c0-0.8,0.4-1.2,1.1-1.4
				c1.3-0.3,2.7-0.4,4-0.4c3.7-0.1,7.4-0.1,11.1,0.1c1,0.1,1.3,0.4,1.3,1.4c0,2,0,1.9,1.9,1.4c2.2-0.6,4.5-0.7,6.7,0.3
				c0.6,0.3,0.7,0,0.6-0.5c0-0.1-0.1-0.3-0.1-0.4c-0.2-1.7,0.2-2.1,1.9-2.2c0.3,0,0.6,0,1,0C58,56,59.4,56.3,60.7,56.1z"/>
			<path fill-rule="evenodd" clip-rule="evenodd" fill="#CC8251" d="M23,70.8c1,1.9,1.5,3.9,2.3,5.8c2.4,5.9,6.5,10.3,12,13.3
				c2.7,1.5,5.6,2.6,8.7,3.4c1.2,0.3,2.5,0.7,3.8,0.5c1.7-0.2,3.4,0.2,5.1,0.2c-2.9,0.7-5.8,0.8-8.8,0.4c-6.6-0.9-12.2-3.8-16.7-8.7
				c-3.4-3.7-5.3-8.2-6.1-13.2C23.1,71.9,22.8,71.4,23,70.8z"/>
			<path fill-rule="evenodd" clip-rule="evenodd" fill="#E7A17C" d="M25.3,61c-0.1,0.6-0.9,0.7-1.1,0.6c-0.6-0.2-0.9,0.3-1.4,0.4
				c1.1,0.3,1.1,1,0.9,1.8c-0.1,0.6-0.1,1.1,0,1.7C24,66,24,66.7,23,66.6c-0.4,0-0.2,0.2-0.2,0.4c0.1,0.9,0.7,1.7,1,2.5
				c0.1,0.2,0.3,0.4,0,0.7c-0.1,0.1-0.3,0.1-0.4,0.1c-0.3-0.1-0.3-0.4-0.3-0.6c0.1-0.6-0.2-1-0.6-1.3c0-0.1,0-0.2,0-0.4
				c-0.2-1.1,0.1-2.2-0.4-3.2C22,64.7,22,64.6,22,64.4c0-0.1-0.1-0.2-0.1-0.4c-0.1,0.1-0.1,0.2-0.2,0.3l-0.1,0
				c-0.9,1.7-2.7,2-4.4,0.6c-0.3-0.2-0.4-0.5-0.7-0.7c-0.7-1.2-0.8-2.6-0.4-3.9c0.4-0.5,0.5-1.2,1-1.6c0.9-0.8,1.6-0.9,2.6-0.2
				c0.5,0.3,1,0.6,1.6,0.4c0.1,0.1,0.1,0.3,0.2,0.4c0.1,0.2,0.2,0.4,0.3,0.6c0.2,0.8,0.6,0.9,1.2,0.5c0.2-0.2,0.5-0.2,0.8-0.1
				c0.4,0.2,0.8,0.3,1.3,0.4C25.2,60.8,25.2,60.9,25.3,61z"/>
			<path fill-rule="evenodd" clip-rule="evenodd" fill="#FAF8F9" d="M76.3,109.6c0.6,1.6,1.8,3,2.3,4.6c0.3,0.9,0.6,1.7,0.9,2.6
				c0.1,0.4,0.2,0.7-0.2,0.9c-0.5,0.2-0.7-0.2-0.8-0.5c-0.6-1.1-1.1-2.2-1.5-3.3c-1.4-3.2-3.7-5.7-6.2-8c-2.2-1.9-4.8-3.3-7.5-4.6
				c-1.4-0.7-1.5-1.2-0.6-2.1C68.1,101.6,72.8,104.8,76.3,109.6z"/>
			<path fill-rule="evenodd" clip-rule="evenodd" fill="#E7A17C" d="M76.9,63.5c0.5-0.5,0.5-0.5,0.2-1.6c-0.2,0.1-0.2,0.2-0.2,0.4
				c0,0.2,0,0.5-0.3,0.4c-0.2,0-0.3-0.2-0.3-0.5c0.1-0.6,0.1-1.2,0.1-1.8c-0.1-0.1-0.1-0.3,0-0.5c0.1-0.4,0.5-0.2,0.7-0.4
				c0.4,0,0.8-0.2,1.2-0.5c1.8-1.2,2.3-1.1,3.8,0.3c1.2,2.2,0.7,5.3-1.2,6.7c-1.3,0.1-2.5,0.3-3.7-0.5c-0.1-0.4-0.2-0.8-0.2-1.3
				C76.7,64.1,76.7,63.8,76.9,63.5z"/>
			<path fill-rule="evenodd" clip-rule="evenodd" fill="#E88E7F" d="M69.4,70.5c0.9,0.3,1.8,0.5,1.5,1.8c-0.1,0.4-0.2,0.7-0.5,0.9
				c-2.2,1.9-4.6,1.5-7.1,1c-0.2,0-0.5-0.1-0.7-0.2c-1.8-0.6-2.1-1.1-1.6-2.9c-0.3-0.2-0.8,0.1-1.1-0.3c1.6,0,3.2,0,4.8,0
				C66.3,71.1,67.9,70.8,69.4,70.5z"/>
			<path fill-rule="evenodd" clip-rule="evenodd" fill="#E88E7F" d="M38.1,71c-0.1,0.2-0.4,0.2-0.2,0.5c0.6,0.9,0.1,1.5-0.6,2.1
				c-1.6,1.4-3.6,1.1-5.4,0.9c-0.9-0.1-1.9-0.3-2.8-0.7c-1.4-0.7-1.7-1.8-0.6-3c0.1-0.1,0.2-0.3,0.3-0.4c1.5,0.5,3,0.7,4.6,0.6
				C34.9,71,36.5,71,38.1,71z"/>
			<path fill-rule="evenodd" clip-rule="evenodd" fill="#DFDDDE" d="M42.8,105.5c0.2,0.3,0.3,0.6,0.6,1.1c-2.7-0.9-5.1-0.8-7.6,0.1
				c0.3-3.4,1.5-6.4,3.7-9c0.6,0,0.5,0.4,0.5,0.7c-0.1,2.3,0.7,4.2,2.1,6C42.4,104.9,42.5,105.3,42.8,105.5z"/>
			<path fill-rule="evenodd" clip-rule="evenodd" fill="#E7A07B" d="M49.8,95.3c1.4-0.1,2.8-0.2,4.1-0.3c0.4,0,0.5,0.1,0.7,0.5
				c0.2,0.7,0.1,1.5,0.2,2.2c0,0.4-0.4,0.4-0.6,0.5c-2.4,0.8-4.8,1-7.3,0.5c0.1-1.5,1.4-2.1,2.3-3C49.4,95.5,49.6,95.5,49.8,95.3z"
				/>
			<path fill-rule="evenodd" clip-rule="evenodd" fill="#CC8251" d="M66.5,39.8c-3,2.2-6.2,2.9-9.7,1.2c-1.7-0.8-3.3-0.7-5,0.1
				c-2,1-4.6,0.6-6.2-1c-0.6-0.6-1.3-0.8-2-1.2c-0.4-0.2-0.8-0.3-0.9-0.8c1.6,0.4,3.1,0.7,4.5,1.7c1.3,1,2.9,1,4.5,0.5
				c1.7-0.6,3.5-1,5.1-0.4C60.2,41.1,63.3,40.7,66.5,39.8z"/>
			<path fill-rule="evenodd" clip-rule="evenodd" fill="#DFDDDE" d="M58.1,97.4c0.4,0.3,0.6,0.7,0.8,1.1c-0.2,0.5-0.3,0.9-0.1,1.4
				c0.6,1.2,1.1,2.4,1.1,3.7c0,0.1,0.1,0.3,0.3,0.3c0.4-0.4,0-1.1,0.5-1.4c0.5,1.1,0.4,2.3,0.5,3.4c0,0.3-0.1,0.5-0.4,0.3
				c-2.1-1.1-4.3-0.8-6.5-0.3c0,0-0.1,0-0.1,0c0.3-0.6,0.7-1.1,1-1.7c0.4-0.8,1-1.5,1.5-2.3c0.6-1.1,1-2.2,1-3.5
				C57.7,98.1,57.5,97.6,58.1,97.4z"/>
			<path fill-rule="evenodd" clip-rule="evenodd" fill="#FD8F01" d="M45.8,101.7c-0.2,2.5-0.1,5-0.1,7.5c-1-1.3-1.9-2.7-2.6-4.2
				c-0.2-0.3-0.4-0.7-0.6-1c-0.9-1.1-1-2.4-0.9-3.8c0.1-0.7,0.4-0.7,1.3-0.1c0.7,0.4,1.4,0.7,2.1,1
				C45.4,101.3,45.8,101.3,45.8,101.7z"/>
			<path fill-rule="evenodd" clip-rule="evenodd" fill="#D97F4D" d="M49.8,95.3c-1,1.1-2.4,1.9-3,3.3c-1.1-0.1-2.1-0.5-3-0.9
				c-0.4-0.2-0.6-0.4-0.7-0.9c-0.3-2-0.3-2,1.7-1.8C46.4,95.2,48.1,95.2,49.8,95.3z"/>
			<path fill-rule="evenodd" clip-rule="evenodd" fill="#CC8251" d="M53.9,69.5c-1.2-0.3-1.5-1.4-1.7-2.4c-0.3-1.1-0.3-2.3-0.2-3.5
				c0.1-0.7-0.3-1-0.9-1.3c-1.6-0.6-3.2-0.7-4.8-0.1c-0.7,0.2-0.6-0.3-0.5-0.7c0-0.3,0.4-0.4,0.5-0.6c2.1-0.7,4.2-0.3,6.3,0.2
				c0.5,0.1,0.5,0.5,0.5,0.8c0,1.5,0.1,3,0,4.4C53,67.5,53.3,68.5,53.9,69.5z"/>
			<path fill-rule="evenodd" clip-rule="evenodd" fill="#BFBCBD" d="M58.1,97.4c-0.4,0.8-0.1,1.7-0.4,2.6c-0.5,1.6-1.3,3.1-2.6,4.3
				c0.4-1.5,1.1-3,0.8-4.6c-0.2-1.3-0.7-2.5-0.8-3.9c0-0.2,0-0.4-0.1-0.8C56.5,95.6,57.4,96.4,58.1,97.4z"/>
			<path fill-rule="evenodd" clip-rule="evenodd" fill="#BFBDBD" d="M42.8,105.5c-1.8-1.7-2.9-3.7-3-6.2c0-0.5,0.2-1.1-0.2-1.5
				c0.7-1,1.7-1.6,2.8-2.3c0.1,0.7,0.4,1.3,0,1.9c-1,2-1,4-0.2,6c0.1,0.2,0.2,0.4,0.1,0.6C42.4,104.6,42.6,105.1,42.8,105.5z"/>
			<path fill-rule="evenodd" clip-rule="evenodd" fill="#F8F6F7" d="M37.3,99.4c-4.5,1.9-8.8,4-12.4,7.4c-0.3,0.2-0.6,0.7-1.1,0.3
				c3.8-4.1,8.5-6.7,13.8-8.6C37.7,98.9,37.5,99.2,37.3,99.4z"/>
			<path fill-rule="evenodd" clip-rule="evenodd" fill="#FAB702" d="M51.3,99.6c1.2-0.3,2.4-0.4,3.5-1c0.2-0.1,0.4-0.1,0.5,0.2
				c0,0.4,0.2,0.8-0.3,1c-1.3,0.5-2.5,1.3-3.9,1.3c-1.4,0.4-2.8,0.1-4.3,0.2c-0.2,0-0.4,0-0.6-0.1c-0.5-0.8-0.4-1.3,0.5-1.7
				C48.3,99.8,49.8,99.7,51.3,99.6z"/>
			<path fill-rule="evenodd" clip-rule="evenodd" fill="#5E423A" d="M82.3,31.9c0,0.5,0,1,0,1.8c-0.8-1.6-1.1-3-1.8-4.3
				c-0.6-1.1-1.2-2.2-2.4-2.9c-0.2-0.1-0.4-0.4-0.5-0.6c-0.2-0.3-0.2-0.5,0.1-0.7c0.3-0.2,0.5-0.1,0.7,0c1.1,0.6,2,1.6,2.8,2.5
				C81.8,29,82.3,30.4,82.3,31.9z"/>
			<path fill-rule="evenodd" clip-rule="evenodd" fill="#5E4239" d="M84.2,46.7c-1-2.3-2.1-4.5-2.6-7c0-0.2-0.1-0.4-0.1-0.6
				c0-0.4-0.2-1,0.3-1.2c0.7-0.3,0.6,0.6,0.9,0.8c0.4,2.1,1.5,4,1.6,6.1C84.3,45.4,84.4,46,84.2,46.7z"/>
			<path fill-rule="evenodd" clip-rule="evenodd" fill="#CC8251" d="M36.6,37.3c-1.9,1.3-4,1.9-6.4,1.7c-0.7-0.1-1.2-0.5-1.9-0.6
				c-0.1-0.5,0.2-0.4,0.5-0.4c1.7,0.2,3.4-0.1,5-0.6C34.7,37.2,35.7,37.2,36.6,37.3z"/>
			<path fill-rule="evenodd" clip-rule="evenodd" fill="#40211C" d="M77.1,22.6c-0.3,0-0.3,1.2-0.7,0.2c-0.1,0.1-0.2,0.2-0.3,0.2
				c-1.8-2.5-4-4.6-6.3-6.6c-0.9-0.8-1.3-0.7-2,0.2c-0.8-0.6-0.4-1.1,0-1.7c3.3,0.8,5.4,3.3,7.5,5.7C75.9,21.2,76.5,21.9,77.1,22.6z
				"/>
			<path fill-rule="evenodd" clip-rule="evenodd" fill="#5B342E" d="M67.9,56.7c0.4-0.2,1.1,0.3,1.3-0.4c1.9,0.4,1.9,0.4,1.9,2.4
				c0,2.9-0.1,5.7-0.4,8.6c0,0.2,0,0.4-0.2,0.6c0-0.2,0-0.4-0.2-0.5C70,67,70,66.6,70.1,66.3c0.3-2.5,0.1-4.9,0.2-7.4
				c0-0.9-0.4-1.3-1.2-1.5C68.7,57.2,68.1,57.3,67.9,56.7z"/>
			<path fill-rule="evenodd" clip-rule="evenodd" fill="#F88D04" d="M46.7,99.6c-0.3,0.5-0.7,0.9-0.5,1.5c-0.3,0.4-0.7,0.1-1.1,0
				c-0.7-0.3-1.4-0.5-2-0.8c-0.4-0.3-0.7-0.6-1.1-0.8c-0.3-0.2-0.4-0.6-0.1-0.9c0.2-0.2,0.2-0.9,0.8-0.5c1.3,0.9,2.9,1.2,4.4,1.6
				C47,99.7,46.8,99.7,46.7,99.6z"/>
			<path fill-rule="evenodd" clip-rule="evenodd" fill="#F9F7F7" d="M60.7,102.5c0,0.4,0,0.8,0,1.3c0,0.3,0,0.6-0.4,0.7
				c-0.4,0.1-0.6-0.2-0.6-0.5c0-1.6-0.7-3-1.3-4.4c-0.2-0.4-0.1-0.9,0.5-1C59.8,99.7,60.5,101,60.7,102.5z"/>
			<path fill-rule="evenodd" clip-rule="evenodd" fill="#F4C1A5" d="M21.3,59c-0.3,0.5-0.6,0.5-1.1,0.3c-2.3-1.2-2.5-1.2-3.9,1.2
				c0,0,0,0.1-0.1,0.1c-0.1,0-0.1-0.1-0.2-0.1c0.1-1.1,0.7-1.9,1.4-2.7C18.6,56.7,20.3,57.3,21.3,59z"/>
			<path fill-rule="evenodd" clip-rule="evenodd" fill="#CC8251" d="M16.5,64.4c0.5,0,0.7,0.4,1,0.6c1.6,1.1,2.4,1,4.1-0.6
				c0,0.4-0.2,0.9-0.1,1.3c0.2,1.1-0.4,1.3-1.3,1.2C18.6,66.6,17.2,66.1,16.5,64.4z"/>
			<path fill-rule="evenodd" clip-rule="evenodd" fill="#CC8251" d="M25.3,61c-0.1,0-0.1,0-0.2,0c-0.4-0.2-0.9-0.1-1.3-0.4
				c-0.2,0-0.5,0-0.7,0.2c-1.1,0.7-1.5,0.5-1.6-0.8c0-0.1,0-0.3,0-0.4c0.6,0.5,1.1,0.7,1.7,0.1c0.2-0.2,0.4-0.2,0.6-0.1
				c0.7,0.3,1.5,0.5,2.2,0.7c0.6,0.2,0.6,0.7,0.6,1.2c0.1,0.1,0,0.2-0.1,0.2C26.1,61.4,25.7,61.2,25.3,61z"/>
			<path fill-rule="evenodd" clip-rule="evenodd" fill="#CC8251" d="M76.5,60.1c0,0.1,0,0.3,0,0.5c-0.2,0.2-0.3,0.5-0.4,0.7
				c-0.5,1.2-1.6,1.6-2.7,0.9c-0.5-0.3-1-0.4-1.6-0.1c0-0.3,0-0.6,0-1c0-0.3,0.1-0.5,0.4-0.6c0.3,0,0.6-0.3,1,0.1
				c1.1,1.1,1.7,1.1,2.8,0C76.2,60.4,76.3,60.2,76.5,60.1z"/>
			<path fill-rule="evenodd" clip-rule="evenodd" fill="#F4C1A6" d="M82.1,59.5c-0.1,0.1-0.2,0.1-0.4,0c-1.4-1.1-1.9-1.1-3.3,0
				c-0.4,0.3-0.7,0.8-1.3,0.2c0.1-0.3,0.2-0.5,0.4-0.8c0.6-0.9,1.3-1.5,2.4-1.4C81.1,57.6,81.6,58.5,82.1,59.5z"/>
			<path fill-rule="evenodd" clip-rule="evenodd" fill="#CC8251" d="M46.2,61c0.1,0.4-1,0.9,0,1.3c-0.1,1.7,0.3,3.4-0.4,5.1
				c-0.2,0.4-0.3,0.7-0.7,0.9c0.3-2.1,0.2-4.2,0.2-6.4C45.4,61.2,45.5,60.9,46.2,61z"/>
			<path fill-rule="evenodd" clip-rule="evenodd" fill="#5A342F" d="M20.6,57.1c2.1,0.5,3.8,1.1,5.6,1.8c0.4,0.1,0.5,0.5,0.3,0.8
				c-0.2,0.3-0.5,0.1-0.6,0C24.2,58.8,22.2,58.6,20.6,57.1z"/>
			<path fill-rule="evenodd" clip-rule="evenodd" fill="#1D1E1C" d="M42.8,98c-0.9,0.4-1,0.9-0.3,1.4c0.3,0.2,0.5,0.5,0.8,0.7
				c0.1,0.3,0.1,0.5-0.2,0.4c-0.3-0.2-0.6-0.4-0.9-0.7c-0.4,1.5,0.2,2.9,0.5,4.3c-0.1,0-0.2,0-0.3,0c-1-2.1-1.3-4.1-0.2-6.3
				c0.1-0.1,0.2-0.2,0.4-0.4C42.5,97.6,42.6,97.8,42.8,98z"/>
			<path fill-rule="evenodd" clip-rule="evenodd" fill="#5B342F" d="M76.2,58.4c0.2,0,0.6-0.1,0.6,0.3c0,0.3-0.2,0.5-0.5,0.5
				c-1.3,0.3-2.7,0.5-4,0.7c-0.2,0-0.4,0-0.5-0.3c0-0.3,0-0.5,0.4-0.5C73.5,58.8,74.9,58.6,76.2,58.4z"/>
			<path fill-rule="evenodd" clip-rule="evenodd" fill="#DBA182" d="M65.2,89.4c0.6-0.9,1.5-1.6,2.2-2.4c1.4-1.3,2.7-2.8,3.9-4.3
				c0.1,0.1,0.1,0.2,0,0.3C69.9,85.6,67.8,87.7,65.2,89.4z"/>
			<path fill-rule="evenodd" clip-rule="evenodd" fill="#CC8251" d="M77.1,65.6c1.2,0.3,2.5,0.1,3.7,0.5c-0.7,0.6-1.5,0.8-2.4,0.9
				C77,67.1,77,67,77.1,65.6z"/>
			<path fill-rule="evenodd" clip-rule="evenodd" fill="#D4AF55" d="M46.7,99.6c0.2,0,0.3,0,0.5,0c1.4,0,2.8,0,4.2,0
				C49.8,99.9,48.2,99.9,46.7,99.6z"/>
			<path fill-rule="evenodd" clip-rule="evenodd" fill="#51312D" d="M67.6,56.3c-1.6-0.1-3.2,0.3-4.7-0.2
				C64.4,56.1,66,55.9,67.6,56.3z"/>
			<path fill-rule="evenodd" clip-rule="evenodd" fill="#E7A07B" d="M22.2,64.8c0.8,1,0.3,2.2,0.4,3.3c-0.3-0.9-0.3-1.9-0.4-2.9
				C22,65.1,22,64.9,22.2,64.8z"/>
			<path fill-rule="evenodd" clip-rule="evenodd" fill="#391E1C" d="M75.6,60c-0.4,0.5-0.7,0.8-1.3,0.7c-0.1,0-0.2-0.3-0.2-0.3
				C74.5,60,74.9,59.9,75.6,60z"/>
			<path fill-rule="evenodd" clip-rule="evenodd" fill="#51312D" d="M60.7,56.1c-1.3,0.4-2.7,0.1-4.1,0.2
				C58,55.9,59.4,56.1,60.7,56.1z"/>
			<path fill-rule="evenodd" clip-rule="evenodd" fill="#1D1E1C" d="M22.2,64.8c0,0.1,0,0.3-0.1,0.4c-0.3-0.2-0.1-0.6-0.4-0.8
				c0-0.4-0.1-0.8,0.2-1.4C22,63.8,22.1,64.3,22.2,64.8z"/>
			<path fill-rule="evenodd" clip-rule="evenodd" fill="#1D1E1C" d="M76.9,63.5c0,0.3,0,0.6,0,0.9c-0.3,0.2-0.1,0.6-0.4,0.8
				c0-0.5,0-1,0-1.5C76.6,63.4,76.7,63.3,76.9,63.5z"/>
			<path fill-rule="evenodd" clip-rule="evenodd" fill="#1D1E1C" d="M26.2,58.2c0.7,0,0.3-0.7,0.6-0.9c0,0.3,0.1,0.6,0,0.9
				C26.6,58.6,26.4,58.6,26.2,58.2z"/>
			<path fill-rule="evenodd" clip-rule="evenodd" fill="#200F0F" d="M22.6,59.2c-0.1,0-0.2,0.2-0.2,0.1c-0.1-0.1-0.2-0.2-0.2-0.3
				c0,0,0.1-0.2,0.2-0.1C22.5,58.9,22.6,59,22.6,59.2z"/>
			<path fill-rule="evenodd" clip-rule="evenodd" fill="#F1B89A" d="M58.8,92.3c0.4,0,0.8,0,1.1,0c-0.2,0.1-0.3,0.1-0.5,0.2
				C59.2,92.5,59,92.6,58.8,92.3z"/>
			<path fill-rule="evenodd" clip-rule="evenodd" fill="#5F433A" d="M67.8,16.6c0.1-1,0.5-1.3,1.5-0.9c1.3,0.6,2.3,1.7,3.3,2.8
				c0.9,1,1.9,2,2.9,3c0.4,0.4,0.8,0.8,0.7,1.5l0,0c-0.6,0.4-1.1-0.1-1.5-0.4c-1.7-1.8-3.5-3.5-5.2-5.3C69,16.9,68.4,16.6,67.8,16.6
				z"/>
			<path fill-rule="evenodd" clip-rule="evenodd" fill="#40211C" d="M74.6,22.6c0.5,0.1,0.9,0.6,1.5,0.4
				C75.3,23.7,74.9,23.4,74.6,22.6z"/>
			<path fill-rule="evenodd" clip-rule="evenodd" fill="#1D1E1C" d="M49,67.6c-0.7-0.4-1.4-0.2-2.1,0.1c-0.2,0.1-0.5,0.4-0.7,0
				c-0.2-0.3,0.1-0.5,0.4-0.7c0.7-0.6,3.1-0.4,3.8,0.3c0.1,0.1,0.2,0.3,0.1,0.5c-0.2,0.2-0.4,0.1-0.6,0.1
				C49.5,67.9,49.2,67.8,49,67.6z"/>
			<path fill-rule="evenodd" clip-rule="evenodd" fill="#EBBA9F" d="M49,67.6c0.3,0.1,0.5,0.2,0.8,0.3c0.1,0.3,0.7,0.1,0.5,0.5
				c-0.1,0.3-0.4,0.3-0.7,0.3c-0.8,0.1-1.3-0.4-1.9-1C48.2,67.6,48.6,67.6,49,67.6z"/>
			<path fill-rule="evenodd" clip-rule="evenodd" fill="#1D1E1C" d="M68.6,54c-1.7-0.3-3.2-0.8-4.7-1.5c-0.2-0.1-0.4-0.2-0.4-0.4
				c0-0.3,0.3-0.3,0.5-0.4c0.2-0.1,0.5-0.1,0.7-0.1c1.5,0.3,2.9,0.7,4.2,1.5c0.2,0.1,0.5,0.3,0.4,0.7C69.1,54.1,68.8,53.8,68.6,54z"
				/>
			<path fill-rule="evenodd" clip-rule="evenodd" fill="#1D1E1C" d="M33.7,51.5c0.4,0.1,0.6,0.1,0.8,0.2c0.2,0,0.4,0.1,0.4,0.3
				c0,0.2-0.1,0.3-0.3,0.4c-1.6,0.6-3.1,1.3-4.8,1.5c-0.2,0-0.5,0.1-0.6-0.2c-0.1-0.3,0.1-0.5,0.3-0.6C30.8,52.3,32.3,52,33.7,51.5z
				"/>
			<path fill-rule="evenodd" clip-rule="evenodd" fill="#1D1E1C" d="M36.1,56.6c2,0.2,4.1-0.1,6.2,0.2c0.9,0.2,1.3,0.7,1.3,1.5
				c0,2.6,0,5.3,0,7.9c0,1.9-1.1,2.9-3,3.2c-0.3,0-0.6,0.1-0.9,0.1c-3.1,0-6.2,0.6-9.3-0.1c-1.2-0.3-2-1-2.2-2.2
				c-0.5-2.9-0.3-5.9-0.3-8.9c0-1,0.9-1.3,1.7-1.5C31.8,56.5,33.9,56.8,36.1,56.6z"/>
			<path fill-rule="evenodd" clip-rule="evenodd" fill="#1D1E1C" d="M67.9,56.7c2.6,0.8,2.6,0.8,2.6,3.7c0,2.3,0.1,4.7-0.2,7
				c-0.8,2.4-2.9,2.5-4.8,2.5c-2.6,0-5.2,0-7.8-0.4c-1.9-0.3-2.9-1.5-2.9-3.3c0-2.5,0-5,0-7.6c0-1,0.3-1.6,1.4-1.7
				c1-0.2,1.9-0.1,2.9-0.2c1.9-0.2,3.8,0,5.7-0.1c0.7,0,1.5-0.1,2.2,0.1C67.2,56.7,67.6,56.7,67.9,56.7z"/>
			<path fill-rule="evenodd" clip-rule="evenodd" fill="#51312D" d="M64.8,56.7c-1.9,0-3.8,0-5.8,0c1.1-0.4,2.2-0.1,3.3-0.2
				c0.8-0.1,1.6,0,2.4,0C64.8,56.5,64.9,56.6,64.8,56.7C64.8,56.6,64.8,56.7,64.8,56.7z"/>
			<path fill-rule="evenodd" clip-rule="evenodd" fill="#5B342E" d="M64.8,56.7c0-0.1,0-0.1,0-0.2c0.7,0.1,1.4-0.2,2.1,0.2
				C66.2,56.7,65.5,56.7,64.8,56.7z"/>
			<path fill-rule="evenodd" clip-rule="evenodd" fill="#1D1E1C" d="M19.2,63.6c-1,0.1-1.3-0.4-1.5-1c-0.2-0.9,0-1.7,1.2-2.4
				C18.1,61.5,18.3,62.6,19.2,63.6z"/>
			<path fill-rule="evenodd" clip-rule="evenodd" fill="#E7A07B" d="M22.7,63.1c0.7,0.3,0.4,0.7,0.3,1.3
				C22.6,63.9,22.8,63.5,22.7,63.1L22.7,63.1z"/>
			<path fill-rule="evenodd" clip-rule="evenodd" fill="#E7A07B" d="M23.8,60.5c0.5,0,0.9,0.1,1.3,0.4
				C24.6,60.9,24.1,61.1,23.8,60.5z"/>
			<path fill-rule="evenodd" clip-rule="evenodd" fill="#E7A07B" d="M22.7,63.1c-0.1,0-0.3,0.2-0.4-0.1c0-0.1,0.1-0.2,0.1-0.2
				C22.7,62.7,22.7,62.9,22.7,63.1L22.7,63.1z"/>
			<path fill-rule="evenodd" clip-rule="evenodd" fill="#1D1E1C" d="M79.5,63.9c0.8-1.7,0.8-1.7,0.4-3.4c0.9,0.5,1.2,1.3,1,2.1
				C80.8,63.3,80.5,63.9,79.5,63.9z"/>
			<path fill-rule="evenodd" clip-rule="evenodd" fill="#C6E4E8" d="M36.1,57.5c1.8,0,3.7,0,5.5,0c1,0,1.5,0.3,1.4,1.4
				c-0.1,2.5-0.2,5-0.2,7.6c0,1.1-0.6,1.8-1.5,2.2c-0.5,0.2-1,0.4-1.4,0.4c-3.1,0-6.2,0.4-9.2-0.2c-1.1-0.2-1.8-0.9-1.9-2.1
				c-0.3-2.6-0.3-5.2-0.4-7.9c0-0.7,0.2-1.2,1.1-1.3C31.6,57.3,33.8,57.4,36.1,57.5z"/>
			<path fill-rule="evenodd" clip-rule="evenodd" fill="#C6E4E8" d="M61.8,57.5c2.4-0.1,4.9-0.2,7.3,0.2c0.7,0.1,1,0.5,0.9,1.1
				c-0.1,2.7-0.1,5.4-0.4,8.1c-0.1,1.1-0.8,1.7-2,2c-3.1,0.6-6.1,0.3-9.2,0.1c-2.1-0.1-2.8-1-2.8-3c-0.1-2.4-0.1-4.8-0.2-7.1
				c0-1,0.4-1.3,1.3-1.3C58.4,57.5,60.1,57.5,61.8,57.5z"/>
			<path fill-rule="evenodd" clip-rule="evenodd" fill="#1D1E1C" d="M37.9,61.2c0.7,1.1,0.7,2.1,0,2.9c-1,1-2.5,1.3-3.4,0.6
				c-0.9-0.7-1.1-2-0.4-3.1c0.6-1.1,1.7-1.1,2.8-1c0,0.4-0.4,0.4-0.6,0.6c-0.2,0.2-0.5,0.3-0.7,0.5c-0.3,0.3-0.5,0.7-0.2,1.2
				c0.2,0.5,0.7,0.6,1.2,0.6c0.5,0,0.8-0.3,0.9-0.8c0.1-0.3,0-0.7,0.1-1.1C37.5,61.4,37.6,61.1,37.9,61.2z"/>
			<path fill-rule="evenodd" clip-rule="evenodd" fill="#1D1E1C" d="M37.9,61.2c-0.1,0.2-0.2,0.3-0.2,0.5c-0.5-0.2-1-0.4-1.4-0.8
				c0.2-0.1,0.4-0.2,0.6-0.3C37.2,60.7,37.6,60.8,37.9,61.2z"/>
			<path fill-rule="evenodd" clip-rule="evenodd" fill="#1D1E1C" d="M64.8,62.9c0,1.4-1.1,2.5-2.4,2.5c-1.5,0-2.4-0.9-2.4-2.2
				c0-1.3,1.1-2.4,2.6-2.4C64,60.7,64.8,61.5,64.8,62.9z"/>
			<path fill-rule="evenodd" clip-rule="evenodd" fill="#FBFBFB" d="M36.2,60.9c0.7-0.1,1.1,0.2,1.4,0.8c0.1,0.7,0.3,1.5-0.6,1.9
				c-0.7,0.3-1.2,0.2-1.7-0.3C34.5,62.6,34.9,61.7,36.2,60.9z"/>
			<path fill-rule="evenodd" clip-rule="evenodd" fill="#FBFBFB" d="M64.2,62.8c0,0.9-0.5,1.3-1.4,1.2c-0.8,0-1.5-0.6-1.4-1.4
				c0.1-0.8,0.5-1.3,1.3-1.4C63.6,61.2,64.2,61.8,64.2,62.8z"/>
			<path fill-rule="evenodd" clip-rule="evenodd" fill="#F7C3A8" d="M58.8,92.3c-0.2-0.4,0.2-0.4,0.4-0.5c1.4-0.9,2.9-1.6,4.1-2.9
				c0.3-0.2,0.6-0.4,0.8-0.7c2.4-2.1,4.7-4.4,6.5-7.1c1-1.3,1.6-2.8,2.4-4.3c0.2-0.4,0.2-1.1,0.8-0.9c0.5,0.1,0.2,0.7,0.3,1.1
				c-0.4,1.7-1.2,3.2-2.1,4.7c-0.3,0.3-0.3,0.7-0.7,0.9c-1.7,2.5-3.9,4.6-6.2,6.6c-1.6,1.3-3.3,2.3-5.3,3
				C59.5,92.5,59.2,92.5,58.8,92.3z"/>
			<g>
				<path fill="#A1877F" d="M62.6,77.8c0.7-0.7,0.8-2,0.2-2.7c-0.3-0.3-0.7-0.3-0.9,0c-0.8-0.2-1.8-0.1-2.5,0.1
					c-0.1,0.1-0.2,0.1-0.3,0.3c-0.6,0-1.2,0.1-1.8,0.3c-0.4,0-0.7,0.1-1.1,0.2c-0.1-0.1-0.3-0.2-0.5-0.2c-2.8,0.1-5.7,0.1-8.5,0.1
					c-0.1,0-0.2,0-0.3,0.1c-0.9,0-1.9-0.1-2.5-0.1c-0.6,0-1.1,0.1-1.7,0.1c-0.1,0-0.1-0.1-0.2-0.1c-0.6-0.1-1.1-0.1-1.7-0.1
					c-0.1,0-0.2,0-0.3,0.1c-0.2,0-0.4,0-0.6,0c-0.1,0-0.1,0-0.2,0c-0.2-0.1-0.5-0.2-0.7-0.3c-0.3-0.1-0.6,0.1-0.6,0.3
					c-0.1,0-0.2,0-0.3,0c-0.4-0.1-0.9-0.2-1.3-0.2c-0.5-0.1-0.8,0.4-0.6,0.8c0.1,0.3,0.3,0.5,0.4,0.8c-0.1,0.1-0.2,0.3-0.1,0.6
					c0,0.3,0.2,0.5,0.3,0.7c0,0.1,0,0.2,0.1,0.3c0.1,0.3,0.1,0.5,0.4,0.7c0.2,1.1,0.6,2.1,1.4,2.8c-0.2,0.3-0.1,0.7,0.2,0.9
					c0,0,0.1,0.1,0.1,0.1c0.3,0.1,0.6,0.1,0.8-0.1c0.1,0,0.2-0.1,0.3-0.2c1.5-0.5,3.1-0.8,4.6-1c0,0,0,0,0.1,0
					c0.9,0.1,1.8,0.3,2.7,0.4c0,0.2,0.2,0.4,0.4,0.4c2,0.6,3.8,1.7,5.6,2.6c0,0,0,0.1,0,0.1c0,0.3,0.2,0.5,0.5,0.6
					c0.1,0.4,0.6,0.7,1,0.4c0.1,0,0.2-0.1,0.2-0.1c0.3,0,0.5-0.1,0.7-0.1c0.4-0.2,0.9-0.4,1.3-0.7c0.2-0.1,0.3-0.2,0.5-0.3
					c0,0,0,0,0,0c2.6-1.2,5.3-4.4,4.9-7.4C62.5,77.9,62.6,77.9,62.6,77.8C62.6,77.8,62.6,77.8,62.6,77.8z"/>
				<path fill="#CA6372" d="M53.8,86.4c-0.5-0.8-1.3-1.2-2.1-1.6c0,0,0,0,0,0c-1.9-1.3-4.7-2.9-7.1-2.2c-0.1,0-0.1,0.1-0.2,0.1
					c-0.3,0-0.6,0-1,0.1c-0.8-0.2-1.6-0.2-2.4,0.3c-0.1,0.1-0.2,0.2-0.2,0.2c-0.2,0-0.4-0.1-0.5-0.1c-0.7-0.1-1,0.7-0.4,1.1
					c0.3,0.2,0.5,0.3,0.7,0.4c0,0.1,0.1,0.2,0.1,0.3c2.1,2.5,5.7,3.1,8.9,2.9c0.1,0.1,0.2,0.1,0.4,0.1v0c1.1-0.1,2.3-0.1,3.4-0.4
					C53.8,87.4,54.1,86.8,53.8,86.4z"/>
				<path fill="#A13D51" d="M43.5,86.5c0.5-1,1.7-1.8,2.6-2.2c0.6-0.3,1.3-0.7,2.1-0.8c0.1-0.1,0-0.3-0.1-0.4c-0.1,0-0.1,0-0.2-0.1
					c0-0.1-0.1-0.2-0.3-0.2c-0.5-0.1-1.1,0-1.7,0.2c-0.1-0.1-0.2-0.2-0.3-0.2c-0.5-0.2-1-0.2-1.5,0c0,0,0,0-0.1,0
					c-1.2-0.1-2.4,0.3-3.6,0.4c-0.2,0-0.3,0.1-0.4,0.2c-0.2,0-0.4,0.1-0.3,0.3c0,0,0.1,0.1,0.1,0.1c0,0.2,0.1,0.3,0.2,0.4
					c0.2,0.2,0.4,0.5,0.6,0.7c0,0.1,0.1,0.2,0.2,0.2c0.1,0.1,0.3,0.2,0.4,0.3c0.1,0.1,0.2,0.2,0.4,0.4c0.1,0.1,0.3,0.2,0.4,0.1
					c0.3,0.2,0.6,0.4,1,0.5C43.1,86.6,43.3,86.6,43.5,86.5z"/>
				<path fill="#D6808E" d="M52.6,86.4c-0.5-0.6-1-1.1-1.8-1.3c-0.3-0.1-0.5,0.4-0.1,0.5c0.6,0.2,1.1,0.7,1.6,1.1
					C52.5,86.9,52.7,86.6,52.6,86.4z"/>
				<g>
					<path fill="#1D1E1C" d="M36,75.8c9.2,0.2,18,0.6,27.1-0.5c0.3,0,0.3-0.5,0-0.5c-4.9,0.1-9.7,0.7-14.6,0.8
						c-2.5,0.1-5.1,0-7.7-0.1c-1.8-0.1-3.2-0.6-5-0.1C35.8,75.5,35.9,75.8,36,75.8L36,75.8z"/>
				</g>
				<g>
					<path fill="#1D1E1C" d="M35.9,75.6c0.8,6.5,3.7,12.3,12.3,12.6c7.8,0.3,15.2-3.7,15.2-12.9c0-0.3-0.4-0.3-0.5-0.1
						c-0.6,3.1-1,5.8-3.3,8.2c-2.9,3.2-7.3,4.2-11.4,4.2c-7.6,0-10.7-5.5-12.1-12C36.2,75.4,35.9,75.4,35.9,75.6L35.9,75.6z"/>
				</g>
				<g>
					<path fill="#1D1E1C" d="M39.6,83.6c2.5-0.7,4.7-1,7.3-0.5c2.3,0.4,5.8,1.9,7.2,3.9c0.2,0.3,0.8,0,0.6-0.3
						c-2.7-4-11.1-6.3-15.2-3.4C39.3,83.4,39.4,83.7,39.6,83.6L39.6,83.6z"/>
				</g>
			</g>
		</g>
	</g>
</g>
<g id="globo">
</g>
</svg>
