<?xml version="1.0" encoding="utf-8"?>
<!-- Generator: Adobe Illustrator 17.0.0, SVG Export Plug-In . SVG Version: 6.00 Build 0)  -->
<!DOCTYPE svg PUBLIC "-//W3C//DTD SVG 1.1//EN" "http://www.w3.org/Graphics/SVG/1.1/DTD/svg11.dtd">
<svg version="1.1" xmlns="http://www.w3.org/2000/svg" xmlns:xlink="http://www.w3.org/1999/xlink" x="0px" y="0px" width="100px"
	 height="100px" viewBox="0 0 100 100" enable-background="new 0 0 100 100" xml:space="preserve">
<g id="capa1">
</g>
<g id="personajes">
	<g>
		<defs>
			<rect id="SVGID_27_" x="0" y="-191" width="100" height="100"/>
		</defs>
		<use xlink:href="#SVGID_27_"  overflow="visible" fill="#8F4E99"/>
		<clipPath id="SVGID_2_">
			<use xlink:href="#SVGID_27_"  overflow="visible"/>
		</clipPath>
		<g clip-path="url(#SVGID_2_)">
			<g>
				<path fill="#FFFFFF" d="M47.7,58.9c0.1-8.3,0.2-16.6,0.1-24.8l-0.5,0.1c0,0-0.1,0-0.1,0c-3.6,2-8.5,2.3-12.4,0.8l-0.6-0.1
					c0.5,5.3,1.5,13.9,2.6,19.5c-0.2,0.1-0.4,0.2-0.6,0.4c0,0,0,0.1,0,0.1c-0.4,0.7-0.2,1.7,0,2.4c0.2,0.5,0.5,1.5,1.1,1.8
					c-1.9,1.5-3.4,4.1-4.6,6.2c-1.2,2-2.6,4-2.6,6.5c-0.1,4.6,3.5,6.2,7.7,4.8c0.1,0,4.3-3,6.7-5.2c1.6-1.5,3.3-2.6,4.5-4.7
					c0.5-0.3,1-1.5,1-1.5c0.7-1.2,0.3-2.8-0.1-4C49.4,60.3,48.8,59,47.7,58.9z"/>
				<path fill="#FFFFFF" d="M59.9,60.5c-0.4,1.2-1,3.3-0.4,4.5c0,0,0,0,0,0c0.5,2.3,2.8,4.1,4.5,5.6c2.4,2.2,4.8,4.6,7.7,6.2
					c0.1,0,0.1,0,0.2,0c4.2,1.4,7.4-1.2,7.4-4.7c0-2.5-1.7-5-2.9-7c-1.3-2.1-2.9-5.1-4.9-6.6c0.6-0.3,0.9-1.2,1.1-1.8
					c0.2-0.7,0.4-1.7,0-2.4c0,0,0-0.1,0-0.1c-0.2-0.2-0.4-0.3-0.6-0.4c1.1-5.7,2-19.4,2-19.4c-3.9,1.6-8.7,2.1-12.4,0.1
					c-0.1,0-0.1,0-0.1,0L61,34.2c0,8.3,0.8,15.7,0.9,24C60.9,58.4,60.2,59.6,59.9,60.5z"/>
				<path fill="#CA8C63" d="M51.1-7.7c0-0.1-0.1-0.2-0.2-0.2c-2.8,0.7-6.4,0.8-9.3,0.7c-2-0.1-10.4-1.6-10.4-1.6
					C31-8.8,30.8-8.9,30.7-9c-0.4-0.2-1-0.1-0.9,0.3c0.1,0.2,0.6,10.1,0.6,11.6c0.1,1.2,1.2,8.3,1.4,10.3c0.4,5.2,0.7,9,1.1,11.4
					c0.4,2.3,1.3,9.7,1.6,10.2C39,37.1,44.3,36,47,34.4c0.3-0.2,0.6-0.6,0.6-1c-0.1-0.6,0-1.1-0.1-1.6c-0.2-7.2,0-11.2,0.3-16.3
					c0-0.6-0.1-1.3-0.1-1.9C48,11.1,51.1-7.5,51.1-7.7z"/>
				<path fill="#B67655" d="M30.8,6.4c-0.4-1.5-0.5-12.6-0.8-12.8c-0.5-0.4,2.6,0.3,4.5,0.4C35.5-6,44.8-6,47.8-5.9
					c0.2,0-4,1.1-8.6,1.1c-1.4,10.4-0.3,40.8-0.3,40.8L35,35.3L30.8,6.4z"/>
				<path fill="#BDBCBC" d="M38.9,35.8c-1,0-3.3-0.4-3.9-0.6c-0.5-0.1-0.5,2.1-0.1,2.7c0,0.2,0,0.5,0.1,0.8c0.8,4.4,1.4,10.6,2,15.2
					c0.1,0.9,2.1,0.4,3.2,0.8c-0.1-2.7-0.8-8.8-0.8-11C39.4,43,39,38.9,38.9,35.8z"/>
				<path fill="#BDBCBC" d="M62.9,34.8c-0.3-0.1-1.9-0.8-2.1-0.9c0,0-0.1,1.6-0.1,2.2c0.2,6.9,0.4,16.1,1,22.8l1.3,0.8
					c0.5-1.4,0.4-4.5,0.3-6.3c0-2-0.5-5.2-0.6-8.3C62.8,43.7,63.1,34.8,62.9,34.8z"/>
				<path fill="#CA8C63" d="M56.1-6.8c0-0.1,0.1-0.2,0.3-0.1c2.8,0.7,7.2,0.4,10.1-0.1C68.8-7.5,76-9.1,76-9.1
					c0.2-0.1,0.4-0.1,0.5-0.2c0.4-0.2,0.6-0.1,0.5,0.3C77-8.9,77,1.8,76.9,3.3c-0.1,1.2-0.7,8.3-0.8,10.3c-0.4,5.1-1.1,8.8-1.2,11.5
					c-0.1,2.4-0.9,8.8-1.1,9.2c-3.7,2.3-9.7,1.3-12.7,0c-0.3-0.1-0.4-1.2-0.3-1.7c0.1-0.6-0.4-11.5-0.7-16.6
					C59.6,10,56-6.6,56.1-6.8z"/>
				<path fill="#B67655" d="M60.6,33.8C60.9,11.4,56-6.3,56.1-6.5c0-0.1,0.1-0.2,0.3-0.1C57.1-6.4,73-6.9,73.9-6.8
					c0.1,0-4.7,2.8-12.8,3.5c0,0,2.4,25.2,1.9,38.3L60.6,33.8z"/>
				<g>
					<path fill="#1D1E1C" d="M29.5-9c0,9.7,1.4,19.6,2.7,29.3c1.5,11.4,2.5,23.1,4.7,34.4c0.1,0.3,0.6,0.2,0.5-0.1
						C35.2,33.4,30.5,12.3,30.1-9C30.1-9.4,29.5-9.4,29.5-9L29.5-9z"/>
				</g>
				<g>
					<path fill="#1D1E1C" d="M55.8-7c2.3,11.4,4.1,22.6,4.5,34.3c0.4,10.5,0.6,21,1.1,31.5c0,0.2,0.3,0.2,0.3,0
						c0.4-5.5-0.2-11.1-0.5-16.5c-0.3-5.5-0.3-11-0.5-16.5C60.4,14.9,59.4,3.4,56.1-7C56-7.2,55.8-7.1,55.8-7L55.8-7z"/>
				</g>
				<g>
					<path fill="#1D1E1C" d="M76.8-9.8c0.3,21.3-3.7,42.6-5.3,63.8c0,0.3,0.5,0.4,0.5,0.1c1.9-11.4,2.4-23,3.6-34.5
						c1-9.7,2-19.6,1.7-29.4C77.4-10.2,76.8-10.2,76.8-9.8L76.8-9.8z"/>
				</g>
				<g>
					<path fill="#1D1E1C" d="M73.7,35.7c-4.4,1.7-8.4,1.3-12.8-0.1c-0.3-0.1-0.4,0.3-0.1,0.4c4.2,1.4,8.9,2.3,12.9-0.1
						C73.8,35.8,73.8,35.7,73.7,35.7L73.7,35.7z"/>
				</g>
				<g>
					<path fill="#1D1E1C" d="M62.8,38.2c-0.5,2.8-0.1,5.6,0.2,8.5c0.3,3.4,0.3,6.9,0.1,10.3c0,0.1,0.2,0.1,0.2,0
						c1-6.3-0.9-12.5-0.3-18.8C63,38.2,62.9,38.2,62.8,38.2L62.8,38.2z"/>
				</g>
				<g>
					<path fill="#1D1E1C" d="M74,34c-3.9,2-9,1.9-12.9-0.1c-0.2-0.1-0.4,0.2-0.2,0.3c3.8,2.1,9.4,2.2,13.2,0
						C74.3,34.1,74.2,33.9,74,34L74,34z"/>
				</g>
				<g>
					<path fill="#1D1E1C" d="M76.9,65.6c-1.5-0.6-4.7-0.6-6.2,1.9c-0.1,0.1,0.1,0.2,0.2,0.1c0.7-0.6,2.1-1.5,3.4-1.6
						c0.9-0.1,1.7-0.1,2.6-0.1C77,65.7,77,65.6,76.9,65.6L76.9,65.6z"/>
				</g>
				<g>
					<path fill="#1D1E1C" d="M74.8,62.6c-1.5-0.6-4.7-0.6-6.2,1.9c-0.1,0.1,0.1,0.2,0.2,0.1c0.7-0.6,2.1-1.5,3.4-1.6
						c0.9-0.1,1.7-0.1,2.6-0.1C74.9,62.8,74.9,62.6,74.8,62.6L74.8,62.6z"/>
				</g>
				<g>
					<path fill="#1D1E1C" d="M34.7,36.5c4.1,2.3,8.8,1.3,12.9-0.3c0.3-0.1,0.1-0.5-0.1-0.4c-4.4,1.6-8.3,2.1-12.8,0.5
						C34.6,36.4,34.6,36.5,34.7,36.5L34.7,36.5z"/>
				</g>
				<g>
					<path fill="#1D1E1C" d="M45.5,38.6c0.8,6.2-0.8,12.5,0.3,18.8c0,0.1,0.2,0.1,0.2,0c-0.3-3.5-0.3-6.8-0.3-10.3
						c0.1-2.9,0.5-5.6-0.1-8.5C45.6,38.5,45.5,38.5,45.5,38.6L45.5,38.6z"/>
				</g>
				<g>
					<path fill="#1D1E1C" d="M34.2,34.9c3.9,2.1,9.5,1.8,13.2-0.4c0.2-0.1,0-0.4-0.2-0.3c-3.8,2.1-9,2.4-12.9,0.5
						C34.2,34.6,34,34.8,34.2,34.9L34.2,34.9z"/>
				</g>
				<g>
					<path fill="#BDBCBC" d="M72,71.6c-0.3-0.6-5.6-4.8-6.9-6.3c-1.2-1.3-2.5-3.7-2.5-5.8l-0.8-0.7c-0.7-0.5-1.7,0.9-2.2,2.3
						c-0.5,1.5-1,3.3-0.2,4.6c1.2,1.7,4.4,5.1,6.1,6.3c1.8,1.1,3,2.2,4.4,3.7c0.7,0.7,2.8,1.2,3.7,1.2C73.7,74.4,72.5,72.4,72,71.6z
						"/>
				</g>
				<g>
					<path fill="#BDBCBC" d="M68.6,59.8c1.9-3.2-0.2-5.2-0.2-5.2c-0.7-0.5-1.5,0.7-2,0.9c1.6,1.4,1.1,3.1,0.2,4.6L68.6,59.8z"/>
				</g>
				<g>
					<path fill="#DCAE8D" d="M73.9-5.4c0.9,9.2-0.4,28.6-1.6,39.5c0,0.3,0.4,0.1,0.4,0.1c1.6-11.4,3.1-28,2.8-40
						C75.5-6.5,73.9-5.7,73.9-5.4z"/>
				</g>
				<g>
					<path fill="#1D1E1C" d="M61.6,58.6c-1.2,0.1-1.7,1.4-2.1,2.4c-0.4,1.1-0.9,3.4-0.2,4.5c0,0.1,0.2,0.1,0.2,0
						c0.1-0.4,0-0.9,0-1.3c0-0.8,0.1-1.6,0.2-2.4C60,60.4,60.6,59.5,61.6,58.6C61.6,58.6,61.6,58.6,61.6,58.6L61.6,58.6z"/>
				</g>
				<g>
					<path fill="#1D1E1C" d="M59.2,65.2c0.5,2.4,3,4.2,4.7,5.7c2.4,2.1,5,4.5,7.9,5.9c0.2,0.1,0.4-0.2,0.2-0.4
						C67.6,73,62.4,70,59.2,65.2C59.3,65.1,59.2,65.1,59.2,65.2L59.2,65.2z"/>
				</g>
				<g>
					<path fill="#1D1E1C" d="M71.6,58.5c2.3,2.3,3.9,5.4,5.5,8.2c1,1.8,1.7,3.5,1.8,5.5c0.2,4.1-3.8,5.2-7,4.1
						c-0.3-0.1-0.4,0.4-0.1,0.5c3.9,1.3,7.3-0.3,7.6-4.6c0.1-2.4-1.4-4.9-2.6-6.9c-1.4-2.4-2.8-5.4-5.1-7
						C71.6,58.3,71.5,58.5,71.6,58.5L71.6,58.5z"/>
				</g>
				<g>
					<path fill="#1D1E1C" d="M61.7,64.5c0.7,1.6,2.3,2.8,3.5,4c1.7,1.7,3.5,3.2,5.4,4.6c0.1,0.1,0.2-0.1,0.1-0.2
						C67.6,70.3,64.1,67.9,61.7,64.5C61.7,64.4,61.7,64.5,61.7,64.5L61.7,64.5z"/>
				</g>
				<g>
					<path fill="#1D1E1C" d="M78.6,68.9c-3.2-0.4-6.4,0.3-8.1,4c-0.1,0.1,0.1,0.3,0.2,0.2c2-3.5,4.8-4.2,7.9-3.8
						c0.1,0,0.1-0.3,0-0.3L78.6,68.9z"/>
				</g>
				<g>
					<path fill="#1D1E1C" d="M71.7,58.3c-1.6,0.4-2.8,1.3-4.5,1.5c-2.1,0.3-3.6-0.4-5.5-1.1c-0.2-0.1-0.3,0.2-0.2,0.3
						c1.3,1.5,3.9,1.5,5.7,1.4c1.4-0.1,4-0.5,4.6-2C71.8,58.3,71.7,58.2,71.7,58.3L71.7,58.3z"/>
				</g>
				<g>
					<path fill="#1D1E1C" d="M66.3,60.1c0.8,0.2,1.2-1.2,1.3-1.8c0.2-0.9,0-2.6-1-3c-0.1,0-0.3,0-0.2,0.2c0.1,0.4,0.4,0.7,0.5,1
						c0.2,0.5,0.2,1,0.2,1.5c0,0.4-0.2,0.9-0.4,1.2C66.6,59.6,66.4,59.8,66.3,60.1C66.2,60.1,66.2,60.1,66.3,60.1L66.3,60.1z"/>
				</g>
				<g>
					<path fill="#1D1E1C" d="M66.7,55.5c0.8-0.5,1.7-0.9,2.6-1.1c1.2-0.3,2.2,0.1,3.3,0c0.1,0,0.2-0.1,0.1-0.2
						c-1.5-1.5-5.1-0.2-6.3,1.1C66.4,55.4,66.5,55.6,66.7,55.5L66.7,55.5z"/>
				</g>
				<g>
					<path fill="#1D1E1C" d="M72.5,54.2c0,0.8,0.1,1.5-0.1,2.3c-0.1,0.4-0.3,0.8-0.5,1.2c-0.2,0.3-0.4,0.4-0.5,0.7
						c0,0.1,0,0.1,0.1,0.1c0.7-0.2,1.1-1.3,1.3-1.9c0.2-0.7,0.3-1.8-0.1-2.5C72.7,54.1,72.5,54.1,72.5,54.2L72.5,54.2z"/>
				</g>
				<g>
					<path fill="#BDBCBC" d="M33.9,69.5c0.3-0.5,4.7-6.8,6.6-9.1c-1.1-0.1-3.3-1.4-3.3-1.4c-0.4,0.7-2.1,1.4-3.4,4.2
						c-1.1,2.4-1.9,3-3.3,5.9c-0.8,3.3-0.4,5.5,0.1,6.2c1.8,2.4,3.8,1.8,3,1.8C33.3,76.4,31.8,72.7,33.9,69.5z"/>
				</g>
				<g>
					<path fill="#1D1E1C" d="M47.5,58.6c1.2,0.1,1.7,1.4,2.1,2.4c0.4,1.1,0.9,3.4,0.2,4.5c0,0.1-0.2,0.1-0.2,0c-0.1-0.4,0-0.9,0-1.3
						c0-0.8-0.1-1.6-0.2-2.4C49.1,60.5,48.6,59.5,47.5,58.6C47.5,58.7,47.5,58.6,47.5,58.6L47.5,58.6z"/>
				</g>
				<g>
					<path fill="#1D1E1C" d="M49.9,65.2c-0.5,2.4-3,4.2-4.7,5.7c-2.4,2.1-5,4.5-7.9,5.9c-0.2,0.1-0.4-0.2-0.2-0.4
						C41.6,73.1,46.7,70.1,49.9,65.2C49.8,65.1,49.9,65.2,49.9,65.2L49.9,65.2z"/>
				</g>
				<g>
					<path fill="#1D1E1C" d="M47.4,64.6c-0.7,1.6-2.3,2.8-3.5,4c-1.7,1.7-3.5,3.2-5.4,4.6c-0.1,0.1-0.2-0.1-0.1-0.2
						C41.5,70.4,45,67.9,47.4,64.6C47.4,64.5,47.5,64.5,47.4,64.6L47.4,64.6z"/>
				</g>
				<g>
					<path fill="#1D1E1C" d="M30.6,69c3.2-0.4,6.4,0.3,8.1,4c0.1,0.1-0.1,0.3-0.2,0.2c-2-3.5-4.8-4.2-7.9-3.8c-0.1,0-0.1-0.3,0-0.3
						L30.6,69z"/>
				</g>
				<g>
					<path fill="#1D1E1C" d="M50.7-6.2c-3,10.4-3.2,20-3.4,30.8c-0.1,5.5,0.2,11,0.1,16.5c-0.1,6-0.6,12,0,18c0,0.2,0.3,0.2,0.3,0
						c0.2-10.5,0.2-20.9,0.1-31.4c-0.1-12,1-22,3.1-33.8c0-0.2-0.1-0.3-0.1-0.2L50.7-6.2z"/>
				</g>
				<path fill="#BDBCBC" d="M40.2,54.8c0,0-1.8,2.2,0.3,5.6c0,0-2.5-0.6-3.5-1.4c0,0-1.5-2.4-0.6-4.2C36.4,54.7,39.3,54.2,40.2,54.8
					z"/>
				<g>
					<path fill="#1D1E1C" d="M43,60.5c-0.1-0.2-0.3-0.4-0.5-0.6c-0.3-0.3-0.4-0.8-0.5-1.2c-0.1-0.5-0.1-1,0-1.4
						c0.1-0.5,0.4-0.8,0.5-1.3c0-0.1-0.1-0.2-0.2-0.2c-1,0.5-1,2.1-0.9,3C41.6,59.4,42.2,60.8,43,60.5C43,60.6,43,60.5,43,60.5
						L43,60.5z"/>
				</g>
				<g>
					<path fill="#1D1E1C" d="M42.5,55.7c-1.2-1.3-4.9-2.5-6.3-0.9c-0.1,0.1,0,0.2,0.1,0.2c0.9,0,1.8-0.3,2.7-0.2
						c1.2,0.1,2.3,0.6,3.3,1.2C42.5,56,42.7,55.8,42.5,55.7L42.5,55.7z"/>
				</g>
				<g>
					<path fill="#1D1E1C" d="M36.4,54.9c0,0.8-0.1,1.5,0.1,2.3c0.1,0.4,0.3,0.8,0.5,1.2c0.2,0.3,0.4,0.4,0.5,0.7
						c0,0.1,0,0.1-0.1,0.1c-0.7-0.2-1.1-1.3-1.3-1.9c-0.2-0.7-0.3-1.8,0.1-2.5C36.2,54.8,36.4,54.8,36.4,54.9L36.4,54.9z"/>
				</g>
				<g>
					<path fill="#1D1E1C" d="M37.1,59.1c0.7,0.9,3.3,1.5,4.6,1.7c1.8,0.2,4.6,0,5.9-1.6c0.1-0.1,0-0.4-0.2-0.3
						c-1.8,0.7-3.2,1.3-5.2,1.3c-1,0-1.8-0.1-2.9-0.4c-1.2-0.3-2-0.9-2-0.8L37.1,59.1z"/>
				</g>
				<g>
					<path fill="#1D1E1C" d="M32.2,65.6c1.5-0.6,4.7-0.6,6.2,1.9c0.1,0.1-0.1,0.2-0.2,0.1c-0.7-0.6-2.1-1.5-3.4-1.6
						c-0.9-0.1-1.7-0.1-2.6-0.1C32.1,65.8,32.1,65.6,32.2,65.6L32.2,65.6z"/>
				</g>
				<g>
					<path fill="#1D1E1C" d="M34.3,62.7c1.5-0.6,4.7-0.6,6.2,1.9c0.1,0.1-0.1,0.2-0.2,0.1c-0.7-0.6-2.1-1.5-3.4-1.6
						c-0.9-0.1-1.7-0.1-2.6-0.1C34.2,62.8,34.2,62.7,34.3,62.7L34.3,62.7z"/>
				</g>
				<g>
					<path fill="#1D1E1C" d="M37.2,59c-2.3,2.3-3.6,5-5.2,7.8c-1,1.8-1.7,3.5-1.8,5.5c-0.2,4.1,3.8,5.2,7,4.1
						c0.3-0.1,0.4,0.4,0.1,0.5c-3.9,1.3-7.3-0.3-7.6-4.6c-0.1-2.4,1.4-4.9,2.6-6.9c1.4-2.4,2.5-5,4.8-6.6c0.1-0.1,0.1,0,0.1,0
						L37.2,59z"/>
				</g>
				<g>
					<path fill="#DCAE8D" d="M48.8-3.6c-2.1,9-2.6,27.9-2,37.3c0,0.3-0.4,0.3-0.4,0.3c-0.5-7-1.6-20.5,0.6-37.4
						C47-4.1,48.8-3.9,48.8-3.6z"/>
				</g>
			</g>
		</g>
	</g>
	<g>
		<defs>
			<rect id="SVGID_43_" x="0" y="0" width="100" height="100"/>
		</defs>
		<use xlink:href="#SVGID_43_"  overflow="visible" fill="#FAD53F"/>
		<clipPath id="SVGID_4_">
			<use xlink:href="#SVGID_43_"  overflow="visible"/>
		</clipPath>
		<g clip-path="url(#SVGID_4_)">
			<path fill="#62529C" d="M82.9,114c-1.9-3.7,2.4,1-0.2-2.6c-2-2.8-10.8-13.8-21.6-14c-0.3-0.3-0.8-0.2-0.8-0.6
				c-0.3-0.5-0.9-0.8-1.3-0.4c-0.1-0.1-0.4-0.1-0.5,0.1c-1.2,2.7-2.6,4.2-5.4,5.1c-6.2,2.1-9.6-0.5-11-5.1c-0.1-0.2-0.6-0.2-0.7,0
				c-0.6-0.2-1.2-0.1-1.5,0.4c0,0-0.1,0-0.1,0c-11.9,0.5-18.3,10-25.7,17.9c-0.2,0.2,0,0.5,0.2,0.6c2,1.7,4.7,3.9,6.8,5.9
				c2.3,2.2,4.8,4.5,7.3,6.6c-0.1,0.5-0.1,1.1-0.2,1.6c-0.4,2.9-0.4,6.4-0.4,9.3c-0.1,4.5-1.4,8.7-2.3,13.1
				c-0.7,3.5-2.3,6.7-2.4,10.4c0,0.2,0.1,0.3,0.3,0.4l0,0c0,0,0,0,0,0c0,0,0.1,0,0.1,0c4.9,0.1,9.3-1,14.2-0.1
				c3.5,0.6,7,0.2,10.4-0.3c3.5-0.4,7-1.7,10.4-2.7c5.2-1.5,11.3-1.5,16.6-2.5c0,0,0,0,0.1,0c0,0,0,0,0,0c0.1,0,0.2-0.1,0.2-0.2
				c0-0.1,0.1-0.2,0-0.3c-1.2-1.9-1.5-4.6-2-6.8c-0.7-3.4-1.3-6.9-1.8-10.3c-0.8-5.4-0.9-10.5-0.4-15.7c2.6-3.1,7.9-6.8,11.8-9
				C83.1,114.5,83.1,114.1,82.9,114z"/>
			<path fill="#603424" d="M42.6,90.6c0,0,0.2,4.8-0.8,6c-0.5,0.5,1.6,5.8,7.4,5.9c5.9,0.1,9.7-5.4,9.4-5.7
				c-0.3-0.3-1.2-1.1-1.2-1.6s0.4-5-0.2-5.3c-0.6-0.3-3.8,1.2-8.1,1.4C45,91.5,42.6,90.6,42.6,90.6z"/>
			<g>
				<path fill="#212120" d="M57.3,89.9c-0.8,1.1-0.3,3.3-0.3,4.6c0,1.1,0.5,2.1,1.6,2.3c0.1,0,0.3-0.1,0.2-0.2
					c-0.1-0.4-0.2-0.4-0.4-0.7c-0.7-0.7-0.5-1.6-0.5-2.5c-0.1-1.1,0.2-2.5-0.4-3.4C57.5,89.8,57.4,89.8,57.3,89.9L57.3,89.9z"/>
			</g>
			<g>
				<path fill="#212120" d="M42.3,90.7c-0.2,0.6-0.1,1.3-0.1,1.9c-0.1,0.8-0.1,1.6-0.2,2.5c-0.1,0.8-0.1,0.9-0.5,1.6
					c-0.1,0.1,0.2,0.3,0.4,0.3c1-0.6,1-1.9,1-3.2c0.1-0.9,0.3-2.3-0.2-3.1C42.6,90.5,42.3,90.5,42.3,90.7L42.3,90.7z"/>
			</g>
			<g>
				<path fill="#212120" d="M41.5,96.8c0.9,4,3.8,6,8.3,6c4.2,0,7.6-2.3,9.3-6.1c0.2-0.4-0.4-0.6-0.6-0.2c-1.2,2.7-2.6,4.2-5.4,5.1
					c-6.2,2.1-9.6-0.5-11-5.1c-0.1-0.2-0.8-0.2-0.7,0.1L41.5,96.8z"/>
			</g>
			<g>
				<path fill="#212120" d="M49.2,94.6c-0.7,0.3-0.4,1.4-0.1,1.9c0.1,0.2,0.4,0.2,0.5-0.1c0.2-0.5,0.3-1.2,0-1.7
					C49.6,94.5,49.3,94.5,49.2,94.6L49.2,94.6z"/>
			</g>
			<g>
				<path fill="#212120" d="M49.3,94.6c-0.7,0.3-0.4,1.4-0.1,1.9c0.1,0.2,0.4,0.2,0.5-0.1c0.2-0.5,0.3-1.2,0-1.7
					C49.6,94.6,49.4,94.6,49.3,94.6L49.3,94.6z"/>
			</g>
			<g>
				<g>
					<path fill="#4D332D" d="M62.8,25.1c0.1-0.1,0.1-0.2,0.2-0.3c0.2-0.3,0.1-0.8-0.1-1c-0.1-0.1-0.2-0.2-0.3-0.3
						c-0.3,0.4-0.7,0.9-1,1.3c0.4,0.2,0.8,0.2,1.2-0.1c0.6-0.4,0.6-1.4-0.2-1.6c-0.5-0.1-0.9-0.1-1.4,0.2c-0.5,0.3-0.6,1.2,0,1.5
						c0.2,0.1,0.6,0.2,0.7,0.3C62.1,25.3,62.5,25.4,62.8,25.1c0.5-0.3,0.5-0.8,0.5-1.4c0-1.1-1.6-1.1-1.7,0
						c-0.1,0.7,0.1,0.9,0.4,1.5c0.4,0.7,1.3,0.5,1.6-0.2c0.3-0.8,0.2-1.1-0.2-1.8c-0.5,0.3-1,0.6-1.5,0.9c0.1,0.2,0.2,0.3,0.4,0.5
						c0.3-0.4,0.6-0.8,1-1.3c-0.6-0.1-1.1-0.2-1.6-0.5c-0.2,0.5-0.4,1-0.7,1.6c2.1,0.4,3.8,2.1,5.6,3.3c2.2,1.4,4.4,2.1,3,5.1
						c-0.5,1,1,1.9,1.5,0.9c1.1-2.2,1.2-4.4-1-6c-1.3-0.9-2.7-1.5-3.9-2.4c-1.4-1-2.8-2.1-4.6-2.5c-0.9-0.2-1.6,1.1-0.7,1.6
						c0.7,0.4,1.3,0.5,2,0.6c0.6,0.1,1.5-0.6,1-1.3c-0.1-0.2-0.2-0.3-0.4-0.5c-0.7-0.9-2.1-0.1-1.5,0.9c0.5,0.7,0.3-0.3,0,0.5
						c0.5-0.1,1-0.1,1.6-0.2c-0.1-0.2-0.2-0.3-0.3-0.5c-0.2-0.2,0,0.8,0.1-0.1c-0.6,0-1.1,0-1.7,0c0,0.2,0,0.4,0,0.7
						c0.1-0.2,0.3-0.5,0.4-0.7c0,0,0,0-0.1,0c0.3,0,0.7,0.1,1,0.1c-0.3-0.3-0.7-0.3-1-0.5c0,0.5,0,1,0,1.5c0,0,0.1,0,0.1,0
						c-0.1-0.5-0.1-1-0.2-1.6c-0.1,0.1-0.2,0.1-0.2,0.1c0.3,0,0.6,0,0.9,0c0,0,0,0-0.1,0c-0.8-0.4-1.8,0.7-1,1.3
						c0.1,0.1,0.2,0.2,0.3,0.3c0-0.3-0.1-0.7-0.1-1c-0.1,0.1-0.1,0.2-0.2,0.3C60.8,25.2,62.3,26.1,62.8,25.1L62.8,25.1z"/>
				</g>
				<path fill="#603424" d="M87.2,51.9C87,51,86.9,49.7,86.4,49c-0.5-0.7-3.4-2.1-4-2L81,49.6c-0.4,0.3-0.9-2.8-1-3.4
					c-0.2-1.1-0.5-2.2-1-3.3c-0.5-1-1.2-2-1.5-3.1c-0.8-2.8-1.2-6.5-2.1-8.4c-1.4-2.8-1.8-4.7-5.5-5.9c-1.7-0.6-3.3-0.7-4.9-1.6
					c-3.9-2.1-5.3-1.8-9.8-2.4c-1.7-0.2-3.2-0.7-4.9-0.6c-1.6,0.1-3.3,0.6-4.9,1.3c-3.2,1.3-4.2,1-6.3,1.4c-1.6,0.3-3.2,0.5-4.7,0.9
					c-3,0.7-6,1.7-7.1,4.7c-1.2,3.4-1.5,5.3-2.2,7.8c-0.6,2.3-0.2,4.7-1,6.9c-0.3,0.9-1.4,1.6-1.8,2.4c-0.4,0.8,0,1.7-0.5,2.5
					c-0.4,0.6-0.7,1.2-1.5,1.4c-0.3-1.3-0.6-3.7-2.5-3.5c-1.6,0.2-3.2,1.7-4,3c-0.5,0.8-1,1.8-1.1,2.7c-0.5,4.8,3.4,9.5,8.5,7.3
					c0.2,0.9,0.3,2,0.3,2.9c0.1,2.9,3.2,9.3,3.4,9.2C24.4,72,29,79,29.4,79.5c1.5,2.3,3.3,3.3,5.3,5.2c7.2,7.2,20.5,9,28.6,3.4
					c5.4-3.7,8-6.9,11.7-13.2c1.2-2,1.8-5.6,2.5-7.9c0.7-2.4,1.6-6.2,1.6-6.2c1.7-0.4,5.2-0.7,6.5-2.2
					C87.1,56.8,87.8,54.2,87.2,51.9z"/>
				<g>
					<path fill="#2D1916" d="M72.8,27.1C72.7,27.1,72.7,27.1,72.8,27.1C72.7,27.1,72.7,27.1,72.8,27.1z"/>
					<path fill="#2D1916" d="M84.9,39.2c-0.2-0.7-1.2-3.6-1.5-4.4c-0.3-0.7-0.7-1.4-1-2.2c-0.2-0.5-0.4-3-1.9-5.8
						c-1.4-2.5-1.9-8.1-2.3-8.3c-0.1-0.3-0.2-0.6-0.4-0.9c-0.2-0.5-0.5-1-0.8-1.6c0,0-0.1,0-0.1-0.1c-0.5-1.3-1.3-2.9-2.5-3.6
						c-0.1-0.1-0.3-0.1-0.4-0.1c-0.2-0.1-0.3-0.2-0.5-0.3c-0.7-0.4-1.3-0.7-2-1c-0.1-0.1-0.1-0.1-0.2-0.2c-0.1-0.1-0.1-0.2-0.2-0.2
						c0,0-0.1-0.1-0.1-0.1c0-0.3-0.1-0.5-0.4-0.7c-0.2-0.1-0.4-0.3-0.6-0.4c-0.1-0.2-0.3-0.4-0.6-0.5c-0.1,0-0.2-0.1-0.4-0.1
						c0,0-0.1-0.1-0.1-0.1c-0.3-0.1-0.5-0.2-0.7-0.2c0,0,0-0.1,0-0.1c0-0.2-0.2-0.3-0.4-0.4c-0.5-0.1-0.9-0.2-1.4-0.3
						c-0.1,0-0.1,0-0.2,0c-0.7-0.2-1.4-0.3-2.1-0.5c-0.1,0-0.1,0-0.2,0c0,0-0.1,0-0.1,0C62.7,7,61.9,6.9,61,6.8
						c-0.4-0.1-0.9-0.1-1.3-0.2c-0.2,0-0.3,0-0.5,0.1c-2.4-0.1-4.8,0.1-7.2,0.3c-2.1-0.5-4.4-0.8-6.4,0.3c-0.1,0-0.1,0.1-0.2,0.2
						c-0.6,0.1-1.1,0.3-1.6,0.6c-0.1,0.1-0.2,0.2-0.2,0.3c-1.2,0.3-2.4,0.8-3.4,1.6c-0.1,0.1-0.2,0.2-0.2,0.2
						c-0.7,0.2-1.4,0.5-2.1,0.8c0,0-0.1,0-0.1,0c-0.1-0.1-0.2-0.1-0.3-0.1c-0.2,0-0.4,0.1-0.6,0.1c-0.4,0-0.9,0-1.3,0.1
						c0,0,0,0-0.1,0c-0.4,0.1-0.8,0.2-1.2,0.3c-0.1-0.1-0.3-0.1-0.4,0c-0.3,0.1-0.5,0.2-0.8,0.3c-0.1,0-0.2,0.1-0.2,0.2
						c-0.1,0-0.1,0.1-0.2,0.1c-1,0.3-1.8,0.7-2.5,1.5c-0.2,0.1-0.4,0.2-0.6,0.3c-0.3,0.5-0.7,0.9-1.1,1.3c-0.2,0.2-0.4,0.3-0.6,0.4
						c-0.1,0.2-0.2,0.5-0.1,0.8c-1,0.3-1.7,0.7-2.1,1.5c-0.1,0-0.1,0-0.2,0c-1.1,0.5-1.9,1.3-2.6,2.3c-0.6,0.4-1.2,0.8-1.4,1.7
						c-0.3,0-0.5,0.2-0.6,0.6c0,0.3-0.1,0.6-0.1,0.9c0,0-0.1,0.1-0.1,0.2c0,0,0,0,0,0.1c0,0,0,0,0,0c0,0.1,0,0.1,0,0.2
						c-0.1,0.1-0.2,0.2-0.2,0.3c-0.2,0.9-0.2,1.6-0.1,2.3c-0.2,1.3-0.3,2.2,0,3.5c0,0-0.2,0.3-0.2,0.4c0,0.2,0,0.4-0.1,0.5
						c-0.1,0.4-0.3,0.8-0.4,1.2c-0.2,0.6-0.3,1.2-0.5,1.9c-0.3,1.3-0.6,2.5-1,3.7c-0.4,1.3-0.2,2.6-0.4,4c-0.2,1.4-0.3,3.4,0.3,4.8
						c0.3,0.7,0.6,0.7,1,1.3c0.4,0.6,0.7,1.8,1.3,2.2c0.7,0.4,1.5-2.7,1.5-3.3c0-0.8,1.4-1.7,1.8-2.5c0.7-1.3,0.4-2.8,0.6-4.3
						c0.1-1.2,1.6-6.1,1.8-7.4c0.3-1.3,0.5-2.5,1.1-3.7c0.7-1.4,3-3.3,4.5-3.8c3.6-1.1,6.8-1.2,8-1.4c4.5-0.6,8.3-2.5,8.9-2.6
						c1.8-0.2,4,0,5.8,0.4c1.3,0.3,4.4,0.4,6.3,0.8c1.3,0.2,5,2.4,8.5,3.2c0.5,0.1,2.9,1.2,3.1,1.5c2.5,2.5,3.6,6.1,3.6,6.9
						c0.1,1.1,0.4,2.1,0.6,3.2c0.6,3.7,1.2,3.8,1.5,4.6c0.3,0.8,0.7,1.6,1.1,2.3c1,1.6,0.9,4.2,1.6,5.8c0,0,0.6-1.6,0.8-2.1
						c0.4-0.9,1.1-0.3,1.7-0.6c0.7-0.4,0.8-3.7,1.1-4.4C84.9,41.7,85,39.5,84.9,39.2z"/>
				</g>
				<path fill="#4F2918" d="M64,87.1c-0.3-0.1-1.5-0.1-1.8,0c-2.3,0.6-4.6,1.4-7,1.6c-2.3,0.2-4.6,0-6.8-0.2c-2.6-0.3-4.9-1.9-7.3-3
					c-6-2.7-9.9-7.6-12.8-13.6c-2.1-4.3-3.9-7.1-5.1-11.6C23,60,21,55.1,20.1,56.2c-0.4,0.4,0.6,1.9,0.8,2.3
					c-1.6-1.5-3.2-0.4-4.9-1.1c-1.2-0.5-1.7-1.5-2-2.6c-0.1-0.2-0.6-3.2-0.8-3.1c-0.5,0.2-0.6,1-0.6,1.6c0.1,1.2,0.3,2.4,0.9,3.4
					c-0.3-0.1-1-0.2-1.1,0.2c-0.2,0.5,0.3,0.5,0.5,0.8c1.3,1.6,3.1,2.1,5.1,2.5c1,0.2,2.4-0.7,3.1,0.3c0.8,1,0.6,3.9,1,5.2
					c4.7,16.2,16.6,23.2,18.8,24c1.1,0.4,5.2,1.5,6.2,1.6c3.1,1.2,10.3-0.4,11.1-0.8c1.5-0.7,4.5-1.2,5.4-2.6
					C63.6,87.7,64,87.1,64,87.1z M49.4,91.5c0.1-0.1,0.2-0.3,0.2-0.4c1,0.2,2,0.2,3,0.2C51.6,91.4,50.5,91.4,49.4,91.5z"/>
				<path fill="#4F2918" d="M18.9,55.8c-0.1-0.1-0.3-0.3-0.5-0.4c-0.1-0.3-0.2-0.6-0.4-0.9c0-0.1-0.1-0.2-0.2-0.2
					c0-0.1-0.1-0.2-0.1-0.2c0-0.2,0-0.5-0.1-0.7c0-0.4-0.6-0.4-0.7,0c0,0,0,0,0,0c-1.5,0.3-1.4,2.2-0.2,3c0.2,0.1,0.3,0.1,0.4-0.1
					c0.1,0.2,0.2,0.4,0.3,0.6c0.1,0.4,0.6,0.5,0.8,0.1c0.2-0.3,0.4-0.4,0.6-0.7C19,56.1,19,55.9,18.9,55.8z"/>
				<path fill="#4F2918" d="M54.2,54.4c-0.3-0.1-0.2-0.1-0.1-0.3c0-0.2-0.1-0.4-0.3-0.5c-2.5-0.8-5.8-0.6-7,2.1
					c-0.3,0.6,0.6,1,0.9,0.4c0.6-1.2,1.7-1.7,3-1.9c0.6-0.1,2.3-0.3,2.6,0.4c0.1,0.2,0.3,0.3,0.5,0.2c0.2-0.1,0.2-0.1,0.3-0.1
					C54.3,54.7,54.4,54.5,54.2,54.4z"/>
				<path fill="#4F2918" d="M71.5,44c-1-0.7-2.3-1-3.1-2c-0.5-0.6-1.5,0.1-1,0.7c0.8,1,2.2,1.5,3.3,2.2C71.4,45.5,72.2,44.5,71.5,44
					z"/>
				<path fill="#4F2918" d="M85.8,57.4c-1.5,0.8-4.1,0.7-5.1-0.9c-0.1-0.2-0.3-0.2-0.4-0.1c0,0-0.1-0.1-0.1-0.1
					c-0.4-0.3-0.8,0.3-0.5,0.6c0.1,0.1,0.2,0.2,0.3,0.2c0,0.1,0,0.1,0,0.2c0,0-0.1,0-0.1,0c-0.3,0-0.4,0.2-0.4,0.4
					c0,0.3,0.1,0.5,0.3,0.7c-0.3,0.5-0.6,0.9-0.7,1.5c-0.1,0.2,0.1,0.4,0.3,0.4c2.4,0.2,4.9-0.8,6.9-2.1
					C86.6,57.9,86.2,57.2,85.8,57.4z"/>
				<path fill="#4F2918" d="M83.7,53.9C83.8,53.8,83.8,53.8,83.7,53.9c0.1-0.2,0-0.3-0.1-0.3c-0.1-0.2-0.1-0.3-0.2-0.5
					c0,0,0-0.1,0-0.1c0-0.2-0.1-0.2-0.2-0.2c0,0,0,0,0,0c-0.2-0.2-0.5-0.1-0.5,0.1c0,0.2,0,0.3,0,0.5c-0.1,0-0.1,0.1-0.2,0.2
					c-0.2,0.5-0.2,1-0.2,1.5c0,0.1,0,0.1,0.1,0.2c0,0.3-0.1,0.6-0.1,1c0,0.2,0.3,0.5,0.5,0.3C83.5,55.8,83.9,54.8,83.7,53.9z"/>
				<path fill="#4F2918" d="M32.8,54.8c-0.6-0.4-1.4-0.7-2.2-0.8c-0.3-0.1-0.7-0.1-1-0.2c-0.8-0.1-1.6-0.1-2.2,0.2c0,0-0.1,0-0.1,0
					c-0.2,0-0.3,0.1-0.5,0.2c-0.4,0.2-0.8,0.4-1.1,0.8c-0.3,0.3-0.5,0.6-0.4,1c0,0.1,0.1,0.2,0.1,0.3c0.1,0.6,0.5,1,1.1,1.2
					c0.3,0.2,0.7,0.3,1.1,0.3c0.4,0,0.8,0,1.2,0c0.4,0.1,0.9,0.1,1.3,0.1c0.1,0,0.2,0,0.4,0c0.6,0,1.3-0.2,1.7-0.6
					C33.2,56.8,34,55.6,32.8,54.8z"/>
				<path fill="#4F2918" d="M75.7,54.5c-0.6-1.2-2.9-1.4-4.6-1c-1.5-0.2-3.3,0.2-3.3,1.7c-0.1,2.1,3.9,2.1,5.2,1.9
					c0.2,0,0.5-0.1,0.7-0.2C74.8,56.8,76.5,55.9,75.7,54.5z"/>
				<path fill="#1F0D09" d="M52.9,7.2c-1.7-0.2-5.9-0.5-6.1-0.4c-0.6,0.1-3,1.6-5.3,2.5c-0.2,0.1-3.1,1.7-3.7,1.7
					c-0.5,0.1-3.3,0.4-3.8,0.4c-1.1,0.1-2.1,0.5-2.8,1.4c-0.4,0.5-2.4,2.5-3.8,3.7c-1.3,1.1-2.6,2.1-4.1,2.9
					c-0.5,0.3-2.1,2.3-2.1,2.3c-0.3-0.1-1,3.5-1,3.6c-0.1,0.8,0,4.9,0,5.1c-0.1,1-0.7,2.7-0.9,3.8c0,0-1.6,3.5-1.3,5.6
					c0,0.3-0.1,5.1,0.1,6.5c0,0,0.4,0.6,1.3,1.8c0.1,0.4,0.6,1.1,0.6,1.5c0,0.5,0.7,0.6,0.9,0.3c0.6-0.8,0.9-1.5,0.7-2.2
					c0,0,0.1-0.1,0.1-0.1c1.2-2.1,1-1.4,1.9-3.1c0.1-0.1,0.1-0.3,0.1-0.4c0.3,0,0.7-0.2,0.7-0.6c0-0.6,0-1.2,0-1.8
					c0.1-0.5,0.1-1,0-1.5c0.2-0.8,0.4-1.6,0.5-2.5c0.4-1.4,0.8-2.8,1.1-4.2c0.1-0.1,0.1-0.2,0.2-0.3c0.2-0.8,0.4-1.5,0.6-2.3
					c0.1-0.3,0-0.5-0.2-0.6c0.3-0.6,0.6-1.2,1-1.8c0.1-0.2,0.3-0.4,0.4-0.5c0.2-0.3,0.4-0.5,0.6-0.8c1.3-0.6,2.6-1.3,3.9-2.1
					c0.6-0.1,1.2-0.3,1.8-0.4c0.6-0.2,0.4-1-0.1-1.1c-1.6-0.2-2.3-1-2.9-2.1c0-0.4,0.1-0.7,0.1-1.1c0.1-0.5-0.4-0.7-0.7-0.5
					c-0.1-0.7-0.1-1.3,0.2-2c0.1-0.1,0.1-0.1,0.2-0.2c0.1,0,0.1-0.1,0.2-0.2c0.3-0.5,0.8-0.6,1.3-0.8c0.2-0.1,0.6-0.3,0.7-0.5
					c0.1,0,0.3-0.1,0.3-0.2c0.1-0.2,0.2-0.9,0.1-1.3c0.1-0.1,0.3-0.3,0.4-0.4c0.2-0.1,0.4-0.3,0.6-0.4c1.5-0.8,3.5-0.3,4.1-1.7
					c1.3-0.2,2.7-0.6,3.6-1.3c0.1,0,0.1-0.1,0.2-0.1c0.6-0.3,1.4-0.7,2.1-1.2c1-0.4,2.1-0.7,3.2-0.9c0.1,0,0.1,0,0.1-0.1
					c1.6-0.2,3.3-0.3,4.9-0.6C53.4,7.8,53.4,7.2,52.9,7.2z"/>
				<path fill="#805D50" d="M72.1,72.2c0-0.3-0.5-0.4-0.6-0.1c-1.4,4.5-3.9,7-7.3,10.2c-0.2,0.2,0,0.5,0.2,0.4
					C68.2,81.4,72.2,76.4,72.1,72.2z"/>
				<path fill="#805D50" d="M85.5,50.3c-0.5-0.7-1.6-1.8-2.5-1.6c-0.4,0.1-0.5,0.5-0.2,0.7c0.3,0.3,0.6,0.4,0.9,0.6
					c0.4,0.3,0.6,0.6,0.9,1c0.4,0.6,0.5,1.4,0.8,2.1c0.1,0.3,0.6,0.3,0.7,0C86.4,52.2,86,51.1,85.5,50.3z"/>
				<path fill="#574745" d="M81.2,33.3c-0.2-1.1-0.7-4.4-0.7-4.5c0-0.5-0.3-0.9-0.6-1.3c-0.1-0.1-0.2-0.2-0.4-0.4
					c-2-2.8-2-5.9-3.2-9c-0.8-2-2.9-3.9-5.1-4.4c-0.1,0-0.2,0.1-0.1,0.2c0.6,0.9,1.5,1.4,2.4,2c1.8,1.3,2.4,3.6,2.7,5.7
					c0.4,2.2,0.7,4.8,2.6,6.3c0,0,0,0,0,0c1.1,1.4,1.1,3.9,1.3,5.5C80.3,34.1,81.3,33.9,81.2,33.3z"/>
				<g>
					<path fill="#212120" d="M47.2,56.3c0.2-0.1,0.3-0.1,0.5-0.3c0.6-0.6,1.1-1,2-1.1c0.9-0.2,1.8-0.1,2.6,0.3
						c0.7,0.3,0.9,0.7,1.7,0.7c0.3,0,0.4-0.2,0.4-0.5c-0.5-1.8-3.3-1.9-4.7-1.6c-1,0.2-2.6,1.2-2.5,2.3
						C47.1,56.2,47.2,56.3,47.2,56.3L47.2,56.3z"/>
				</g>
				<g>
					<path fill="#212120" d="M18.7,46.5c-1.1-0.9-3,0.2-4.1,0.8c-2.1,1.3-3,4.1-2.9,6.4c0,2.4,0.7,5.3,3,6.6c1.7,1,4.7,1.8,6.4,0.4
						c0.5-0.4,0.2-1.2-0.5-1.1c-4.1,0.5-7.1-0.7-7.6-5.3c-0.2-2.3,0.6-4.6,2.3-6.1c1-0.8,2.2-1,3.3-1.5
						C18.8,46.7,18.8,46.6,18.7,46.5L18.7,46.5z"/>
				</g>
				<g>
					<path fill="#212120" d="M17.1,52.3c-1.3,0.4-1.7,2.1-1.5,3.2c0.3,1.1,1.6,2.6,2.8,2.3c0.4-0.1,0.7-0.6,0.4-1
						c-0.6-0.7-1.5-0.8-1.9-1.6c-0.5-1,0.5-1.6,0.6-2.5C17.6,52.3,17.3,52.2,17.1,52.3L17.1,52.3z"/>
				</g>
				<g>
					<path fill="#212120" d="M20.1,56.1c0.6,10,4.4,19.5,11.3,27.2c6.1,6.8,14.8,10,23.8,8.2c17-3.4,22.5-19.8,24.9-35.3
						c0.1-0.5-0.5-0.7-0.8-0.5c0,0-0.1,0.1-0.1,0.1c-0.5,0.4,0.1,1.1,0.6,0.8c0,0,0.1,0,0.1-0.1c-0.3-0.2-0.5-0.3-0.8-0.5
						c-1.5,6.7-2.8,13.7-5.8,19.9c-3.4,7-9.6,12.3-17.2,14.2c-9.5,2.4-17.4-0.6-23.9-7.8c-3.4-3.8-7.3-9.6-8.5-14.5
						c-0.9-3.8-1.9-8.2-3-12C20.6,55.5,20.1,55.7,20.1,56.1L20.1,56.1z"/>
				</g>
				<g>
					<path fill="#212120" d="M82.8,47c-0.1-0.1-0.1-0.1-0.2-0.2c-0.1,0.2-0.2,0.4-0.2,0.6c3.6,0.5,4.8,4,4.5,7.2
						c-0.4,4.7-4.4,4.9-7.9,5.9c-0.5,0.2-0.3,0.9,0.1,1c4.9,0.8,9.4-2.7,9.2-7.8c-0.1-2.4-0.6-4.3-2.3-6c-0.9-0.9-2.7-1.6-3.8-0.9
						c-0.4,0.3,0.2,0.9,0.5,0.5c0-0.1,0.1-0.1,0.1-0.2C82.8,47,82.8,47,82.8,47L82.8,47z"/>
				</g>
				<g>
					<path fill="#212120" d="M82.8,52.1c-0.1,0.5,0.5,1.1,0.5,1.6c0.1,0.8-0.2,1.5-0.7,2.2c-0.2,0.3,0,0.9,0.5,0.8
						c1.1-0.3,1.6-1.4,1.6-2.5c0-1-0.4-2.2-1.5-2.4c-0.1,0-0.3,0-0.4,0.1C82.9,52,82.9,52,82.8,52.1L82.8,52.1z"/>
				</g>
				<g>
					<path fill="#212120" d="M18.2,46.6c0.9,1,1.4,2.2,1.7,3.6c0,0.2,0.2,0.4,0.4,0.3c0.9-0.2,1.7-0.7,1.9-1.7
						c0.2-0.7,0.1-1.5,0.4-2.2c0.2-0.7,0.8-1,1.1-1.6c0.1-0.2-0.1-0.4-0.4-0.4c-0.8,0.3-1.3,1.1-1.6,1.9c-0.5,1.2,0,2.7-1.6,3.2
						c0.2,0.1,0.3,0.1,0.5,0.2c-0.4-1.3-1.1-2.7-2.3-3.5C18.3,46.4,18.2,46.5,18.2,46.6L18.2,46.6z"/>
				</g>
				<g>
					<path fill="#212120" d="M23.4,45.3c2.3-2.3,1-5.3,2-8.2c1.1-3.4,1.5-8.4,4.7-10.5c3.9-2.6,8.2-2.5,12.6-3.2c4-0.6,6.3-3,10.8-2
						c3.7,0.8,7.6,0.5,10.9,2.4c3.4,1.9,7.4,1.6,9.7,5.2c2.2,3.5,2,7,3,10.7c0.5,1.9,2.1,3.2,2.4,5.3c0.3,1.9,0.4,3.1,1.2,4.9
						c0.1,0.3,0.5,0.1,0.4-0.2c-0.7-1.9-0.5-4.1-1.2-5.8c-0.9-2.3-2.4-4.1-2.7-6.7c-0.3-3.6-1.3-6.4-3.3-9.5c-1.9-3.1-5.3-2.7-8.4-4
						c-1.7-0.7-2.4-1.6-4.2-2c-2.1-0.5-4.3-0.1-6.5-0.6c-3.8-0.9-6.4-0.9-10,0.8c-4,1.9-8.9,1.3-13.2,2.8c-1.9,0.7-4.5,2.6-5,4.6
						c-0.6,2.5-0.8,4.9-1.8,7.3c-1,2.5-0.1,6-1.8,8.2C23,45.3,23.3,45.5,23.4,45.3L23.4,45.3z"/>
				</g>
				<g>
					<path fill="#212120" d="M82.6,46.8c-0.6-0.3-1.1,0.7-1.3,1.2c-0.3,0.6-0.6,1.4-0.6,2.1c0,0.3,0.4,0.5,0.5,0.1
						c0.1-0.5,0.4-0.9,0.5-1.4c0.1-0.3,0.4-1.5,0.8-1.5C82.8,47.2,82.8,46.9,82.6,46.8L82.6,46.8z"/>
				</g>
				<g>
					<path fill="#212120" d="M18.5,46.4c-0.1-2.1,0.3-4,0.1-6.1c-0.2-3,1.1-5,1.8-7.7c0.5-2.1,0.5-3.8,0.3-5.9
						c-0.3-5.3,2.9-6.7,6.5-9.3c1.7-1.2,2.9-3.2,4.5-4.5c2.2-2,5.2-1.2,7.7-2.1c2.1-0.7,3.8-1.9,5.8-2.9c3.4-1.7,5.7,0.1,9-0.1
						c2.9-0.1,5.6-1,8.4-0.6c1.8,0.2,6.5,1.4,7.7,2.8c0.8,0.9,1,1.4,2.2,1.9c3.5,1.6,4.2,4.6,5.8,7.8c0.9,1.8,0.5,4.1,1.3,5.9
						c1.1,2.3,2,4.2,2.5,6.8c0.3,1.8,1.3,3.5,1.9,5.2c1.1,3.3,0.2,6.4-0.2,9.7c0,0.2,0.3,0.2,0.3,0c0.4-2.4,1.2-4.4,1.4-6.9
						c0.2-2.3-1.4-5.2-2.3-7.2c-0.9-2.2-0.6-4.3-2-6.4c-1.7-2.6-1.4-5.9-2.8-8.7c-1-1.9-1.4-4.5-3.2-5.9c-0.7-0.6-1.5-0.7-2.3-1
						c-1.8-0.6-1.5-2-2.9-2.7c-2.3-1-4.8-1.5-7.2-2c-3.3-0.7-6.5,0.9-9.9,0.5c-2.6-0.3-4-0.9-6.6-0.2c-3,0.8-5.2,3-8.3,3.7
						c-1.9,0.4-4,0.1-5.7,1.3c-2.9,1.9-4.6,4.9-7.7,6.6c-4.2,2.4-4.7,5.5-4.5,10c0.2,3.8-2,6.9-2.2,10.7c-0.1,2.4-0.2,5.1,0.2,7.5
						C18.1,46.7,18.5,46.7,18.5,46.4L18.5,46.4z"/>
				</g>
				<path fill="#212120" d="M34.6,49.4c-0.9,0-1.6,0-2.4,0.7c-0.9,0.8-1.1,2.1-0.5,3c0.2,0.3,2.5,0.4,3.1,1.1
					c0.8-0.1,1.5-0.5,1.8-1.1c0.6-1.3-0.4-3.1-1.7-3.6c-0.5-0.2-1.1-0.2-1.7,0"/>
				<path fill="#FFFFFF" d="M34.8,50.6c-0.6,0.1-1.8,0.7-0.9,1.6c1.6,1.4,2.7-1,1-1.6"/>
				<path fill="#212120" d="M68.6,48.5c-0.9,0-1.6,0-2.4,0.7c-1.1,1.1-1.2,3,0.4,3.8c1.2-0.3,2.3,0,3.2,0c0.4-0.2,0.7-0.5,0.9-0.8
					c0.6-1.3-0.4-3.1-1.7-3.6c-0.5-0.2-1.1-0.2-1.7,0"/>
				<path fill="#FFFFFF" d="M68.8,49.6c-0.6,0.1-1.9,0.7-0.9,1.6c1.6,1.4,2.7-1,1-1.6"/>
				<g>
					<path fill="#212120" d="M73.3,44.7c-0.3-0.9-1.2-1.5-1.9-1.9c-1-0.6-2-0.9-3.1-1.1c-0.4-0.1-0.6,0.5-0.2,0.7
						c0.9,0.5,1.7,1,2.6,1.5c0.7,0.4,1.5,1,2.4,1.1C73.2,45,73.3,44.9,73.3,44.7L73.3,44.7z"/>
				</g>
				<g>
					<path fill="#1D1E1C" d="M65.9,53.6c0.9-0.3,1.7-0.6,2.7-0.7c0.9-0.1,1.7,0.2,2.6,0.3c0.1,0,0.1-0.1,0.1-0.2
						c-0.5-0.8-1.9-0.7-2.7-0.7c-0.9,0.1-2.3,0.3-2.8,1.2C65.7,53.6,65.8,53.7,65.9,53.6L65.9,53.6z"/>
				</g>
				<g>
					<path fill="#4F2918" d="M28.1,45.7c0.3-0.8,1.2-1.3,1.9-1.6c1.1-0.5,2-0.7,3.2-0.9c0.4,0,0.6,0.6,0.2,0.7
						c-1,0.4-1.9,0.9-2.9,1.3c-0.7,0.3-1.4,0.8-2.2,0.7C28.1,46,28.1,45.9,28.1,45.7L28.1,45.7z"/>
				</g>
				<g>
					<g>
						<path fill="#1D1E1C" d="M36,54.9c-0.4-1-1.7-1.3-2.6-1.6c-0.8-0.2-2.2-0.4-2.7,0.3c-0.1,0.1,0,0.2,0.1,0.2
							c0.8,0,1.5-0.1,2.3,0c1.1,0.2,1.9,0.7,2.8,1.1C36,55,36,54.9,36,54.9L36,54.9z"/>
					</g>
				</g>
				<g>
					<g>
						<path fill="#1D1E1C" d="M35.3,65.9c2.7,4.9,9.5,8.7,14.8,6.8c0.2-0.1,0.3-0.6,0.1-0.6c-2.8-0.1-5.1,0-7.7-1.1
							c-2.8-1.1-4.9-3.2-6.9-5.3C35.4,65.5,35.2,65.7,35.3,65.9L35.3,65.9z"/>
					</g>
					<g>
						<path fill="#1D1E1C" d="M34.5,66.4c0.4-0.1,0.6-0.4,0.9-0.6c0.3-0.2,0.6-0.4,0.9-0.6c0.1-0.1,0.1-0.2,0-0.3
							c-0.5-0.1-0.8,0-1.2,0.3c-0.4,0.2-0.7,0.6-0.8,1C34.3,66.3,34.4,66.4,34.5,66.4L34.5,66.4z"/>
					</g>
				</g>
				<g>
					<path fill="#1D1E1C" d="M28.2,44.9c0.3-0.8,1.2-1.3,1.9-1.6c1.1-0.5,2-0.7,3.2-0.9c0.4,0,0.6,0.6,0.2,0.7
						c-1,0.4-1.9,0.9-2.9,1.3c-0.7,0.3-1.4,0.8-2.2,0.7C28.2,45.2,28.2,45,28.2,44.9L28.2,44.9z"/>
				</g>
			</g>
			<g>
				<path fill="#212120" d="M39.8,96.8c-11.9,0.5-18.3,10-25.7,17.9c-0.2,0.3,0.1,0.7,0.4,0.5c4-3.5,7.2-8.1,10.5-11.1
					c4.7-4.3,9.3-6.1,14.9-6.6C40.3,97.5,40.2,96.8,39.8,96.8L39.8,96.8z"/>
			</g>
			<g>
				<path fill="#212120" d="M60.6,96.8c11.9,0.5,18.3,10,25.7,17.9c0.2,0.3-0.1,0.7-0.4,0.5c-4-3.5-7.2-8.1-10.5-11.1
					c-4.7-4.3-9.3-6.1-14.9-6.6C60.1,97.5,60.2,96.8,60.6,96.8L60.6,96.8z"/>
			</g>
			<g>
				<path fill="#212120" d="M41.7,96.5c-0.8-0.3-1.5-0.2-2,0.6c-0.4,0.8-0.3,1.8,0.2,2.5c0.1,0.2,0.5,0.1,0.4-0.2
					c-0.3-1-0.4-2.8,1.1-2.4C41.8,97.1,42,96.6,41.7,96.5L41.7,96.5z"/>
			</g>
			<g>
				<path fill="#212120" d="M59,96.5c0.2,0,0.5,0,0.7,0c0.3,0,0.3,0.2,0.3,0.4c0,0.3-0.1,0.5-0.2,0.8c-0.1,0.2-0.3,0.5-0.2,0.8
					c0,0.1,0.1,0.2,0.2,0.1c0.4-0.1,0.6-0.6,0.7-0.9c0.1-0.4,0.1-0.8,0-1.2C60.3,95.9,59.4,95.8,59,96.5
					C58.9,96.4,58.9,96.5,59,96.5L59,96.5z"/>
			</g>
		</g>
	</g>
</g>
<g id="personajes_hover">
	<g>
		<defs>
			<rect id="SVGID_47_" x="0" y="-191" width="100" height="100"/>
		</defs>
		<use xlink:href="#SVGID_47_"  overflow="visible" fill="#8F4E99"/>
		<clipPath id="SVGID_6_">
			<use xlink:href="#SVGID_47_"  overflow="visible"/>
		</clipPath>
		<g clip-path="url(#SVGID_6_)">
			<g>
				<path fill="#FFFFFF" d="M47.7,58.9c0.1-8.3,0.2-16.6,0.1-24.8l-0.5,0.1c0,0-0.1,0-0.1,0c-3.6,2-8.5,2.3-12.4,0.8l-0.6-0.1
					c0.5,5.3,1.5,13.9,2.6,19.5c-0.2,0.1-0.4,0.2-0.6,0.4c0,0,0,0.1,0,0.1c-0.4,0.7-0.2,1.7,0,2.4c0.2,0.5,0.5,1.5,1.1,1.8
					c-1.9,1.5-3.4,4.1-4.6,6.2c-1.2,2-2.6,4-2.6,6.5c-0.1,4.6,3.5,6.2,7.7,4.8c0.1,0,4.3-3,6.7-5.2c1.6-1.5,3.3-2.6,4.5-4.7
					c0.5-0.3,1-1.5,1-1.5c0.7-1.2,0.3-2.8-0.1-4C49.4,60.3,48.8,59,47.7,58.9z"/>
				<path fill="#FFFFFF" d="M59.9,60.5c-0.4,1.2-1,3.3-0.4,4.5c0,0,0,0,0,0c0.5,2.3,2.8,4.1,4.5,5.6c2.4,2.2,4.8,4.6,7.7,6.2
					c0.1,0,0.1,0,0.2,0c4.2,1.4,7.4-1.2,7.4-4.7c0-2.5-1.7-5-2.9-7c-1.3-2.1-2.9-5.1-4.9-6.6c0.6-0.3,0.9-1.2,1.1-1.8
					c0.2-0.7,0.4-1.7,0-2.4c0,0,0-0.1,0-0.1c-0.2-0.2-0.4-0.3-0.6-0.4c1.1-5.7,2-19.4,2-19.4c-3.9,1.6-8.7,2.1-12.4,0.1
					c-0.1,0-0.1,0-0.1,0L61,34.2c0,8.3,0.8,15.7,0.9,24C60.9,58.4,60.2,59.6,59.9,60.5z"/>
				<path fill="#CA8C63" d="M51.1-7.7c0-0.1-0.1-0.2-0.2-0.2c-2.8,0.7-6.4,0.8-9.3,0.7c-2-0.1-10.4-1.6-10.4-1.6
					C31-8.8,30.8-8.9,30.7-9c-0.4-0.2-1-0.1-0.9,0.3c0.1,0.2,0.6,10.1,0.6,11.6c0.1,1.2,1.2,8.3,1.4,10.3c0.4,5.2,0.7,9,1.1,11.4
					c0.4,2.3,1.3,9.7,1.6,10.2C39,37.1,44.3,36,47,34.4c0.3-0.2,0.6-0.6,0.6-1c-0.1-0.6,0-1.1-0.1-1.6c-0.2-7.2,0-11.2,0.3-16.3
					c0-0.6-0.1-1.3-0.1-1.9C48,11.1,51.1-7.5,51.1-7.7z"/>
				<path fill="#B67655" d="M30.8,6.4c-0.4-1.5-0.5-12.6-0.8-12.8c-0.5-0.4,2.6,0.3,4.5,0.4C35.5-6,44.8-6,47.8-5.9
					c0.2,0-4,1.1-8.6,1.1c-1.4,10.4-0.3,40.8-0.3,40.8L35,35.3L30.8,6.4z"/>
				<path fill="#BDBCBC" d="M38.9,35.8c-1,0-3.3-0.4-3.9-0.6c-0.5-0.1-0.5,2.1-0.1,2.7c0,0.2,0,0.5,0.1,0.8c0.8,4.4,1.4,10.6,2,15.2
					c0.1,0.9,2.1,0.4,3.2,0.8c-0.1-2.7-0.8-8.8-0.8-11C39.4,43,39,38.9,38.9,35.8z"/>
				<path fill="#BDBCBC" d="M62.9,34.8c-0.3-0.1-1.9-0.8-2.1-0.9c0,0-0.1,1.6-0.1,2.2c0.2,6.9,0.4,16.1,1,22.8l1.3,0.8
					c0.5-1.4,0.4-4.5,0.3-6.3c0-2-0.5-5.2-0.6-8.3C62.8,43.7,63.1,34.8,62.9,34.8z"/>
				<path fill="#CA8C63" d="M56.1-6.8c0-0.1,0.1-0.2,0.3-0.1c2.8,0.7,7.2,0.4,10.1-0.1C68.8-7.5,76-9.1,76-9.1
					c0.2-0.1,0.4-0.1,0.5-0.2c0.4-0.2,0.6-0.1,0.5,0.3C77-8.9,77,1.8,76.9,3.3c-0.1,1.2-0.7,8.3-0.8,10.3c-0.4,5.1-1.1,8.8-1.2,11.5
					c-0.1,2.4-0.9,8.8-1.1,9.2c-3.7,2.3-9.7,1.3-12.7,0c-0.3-0.1-0.4-1.2-0.3-1.7c0.1-0.6-0.4-11.5-0.7-16.6
					C59.6,10,56-6.6,56.1-6.8z"/>
				<path fill="#B67655" d="M60.6,33.8C60.9,11.4,56-6.3,56.1-6.5c0-0.1,0.1-0.2,0.3-0.1C57.1-6.4,73-6.9,73.9-6.8
					c0.1,0-4.7,2.8-12.8,3.5c0,0,2.4,25.2,1.9,38.3L60.6,33.8z"/>
				<g>
					<path fill="#1D1E1C" d="M29.5-9c0,9.7,1.4,19.6,2.7,29.3c1.5,11.4,2.5,23.1,4.7,34.4c0.1,0.3,0.6,0.2,0.5-0.1
						C35.2,33.4,30.5,12.3,30.1-9C30.1-9.4,29.5-9.4,29.5-9L29.5-9z"/>
				</g>
				<g>
					<path fill="#1D1E1C" d="M55.8-7c2.3,11.4,4.1,22.6,4.5,34.3c0.4,10.5,0.6,21,1.1,31.5c0,0.2,0.3,0.2,0.3,0
						c0.4-5.5-0.2-11.1-0.5-16.5c-0.3-5.5-0.3-11-0.5-16.5C60.4,14.9,59.4,3.4,56.1-7C56-7.2,55.8-7.1,55.8-7L55.8-7z"/>
				</g>
				<g>
					<path fill="#1D1E1C" d="M76.8-9.8c0.3,21.3-3.7,42.6-5.3,63.8c0,0.3,0.5,0.4,0.5,0.1c1.9-11.4,2.4-23,3.6-34.5
						c1-9.7,2-19.6,1.7-29.4C77.4-10.2,76.8-10.2,76.8-9.8L76.8-9.8z"/>
				</g>
				<g>
					<path fill="#1D1E1C" d="M73.7,35.7c-4.4,1.7-8.4,1.3-12.8-0.1c-0.3-0.1-0.4,0.3-0.1,0.4c4.2,1.4,8.9,2.3,12.9-0.1
						C73.8,35.8,73.8,35.7,73.7,35.7L73.7,35.7z"/>
				</g>
				<g>
					<path fill="#1D1E1C" d="M62.8,38.2c-0.5,2.8-0.1,5.6,0.2,8.5c0.3,3.4,0.3,6.9,0.1,10.3c0,0.1,0.2,0.1,0.2,0
						c1-6.3-0.9-12.5-0.3-18.8C63,38.2,62.9,38.2,62.8,38.2L62.8,38.2z"/>
				</g>
				<g>
					<path fill="#1D1E1C" d="M74,34c-3.9,2-9,1.9-12.9-0.1c-0.2-0.1-0.4,0.2-0.2,0.3c3.8,2.1,9.4,2.2,13.2,0
						C74.3,34.1,74.2,33.9,74,34L74,34z"/>
				</g>
				<g>
					<path fill="#1D1E1C" d="M76.9,65.6c-1.5-0.6-4.7-0.6-6.2,1.9c-0.1,0.1,0.1,0.2,0.2,0.1c0.7-0.6,2.1-1.5,3.4-1.6
						c0.9-0.1,1.7-0.1,2.6-0.1C77,65.7,77,65.6,76.9,65.6L76.9,65.6z"/>
				</g>
				<g>
					<path fill="#1D1E1C" d="M74.8,62.6c-1.5-0.6-4.7-0.6-6.2,1.9c-0.1,0.1,0.1,0.2,0.2,0.1c0.7-0.6,2.1-1.5,3.4-1.6
						c0.9-0.1,1.7-0.1,2.6-0.1C74.9,62.8,74.9,62.6,74.8,62.6L74.8,62.6z"/>
				</g>
				<g>
					<path fill="#1D1E1C" d="M34.7,36.5c4.1,2.3,8.8,1.3,12.9-0.3c0.3-0.1,0.1-0.5-0.1-0.4c-4.4,1.6-8.3,2.1-12.8,0.5
						C34.6,36.4,34.6,36.5,34.7,36.5L34.7,36.5z"/>
				</g>
				<g>
					<path fill="#1D1E1C" d="M45.5,38.6c0.8,6.2-0.8,12.5,0.3,18.8c0,0.1,0.2,0.1,0.2,0c-0.3-3.5-0.3-6.8-0.3-10.3
						c0.1-2.9,0.5-5.6-0.1-8.5C45.6,38.5,45.5,38.5,45.5,38.6L45.5,38.6z"/>
				</g>
				<g>
					<path fill="#1D1E1C" d="M34.2,34.9c3.9,2.1,9.5,1.8,13.2-0.4c0.2-0.1,0-0.4-0.2-0.3c-3.8,2.1-9,2.4-12.9,0.5
						C34.2,34.6,34,34.8,34.2,34.9L34.2,34.9z"/>
				</g>
				<g>
					<path fill="#BDBCBC" d="M72,71.6c-0.3-0.6-5.6-4.8-6.9-6.3c-1.2-1.3-2.5-3.7-2.5-5.8l-0.8-0.7c-0.7-0.5-1.7,0.9-2.2,2.3
						c-0.5,1.5-1,3.3-0.2,4.6c1.2,1.7,4.4,5.1,6.1,6.3c1.8,1.1,3,2.2,4.4,3.7c0.7,0.7,2.8,1.2,3.7,1.2C73.7,74.4,72.5,72.4,72,71.6z
						"/>
				</g>
				<g>
					<path fill="#BDBCBC" d="M68.6,59.8c1.9-3.2-0.2-5.2-0.2-5.2c-0.7-0.5-1.5,0.7-2,0.9c1.6,1.4,1.1,3.1,0.2,4.6L68.6,59.8z"/>
				</g>
				<g>
					<path fill="#DCAE8D" d="M73.9-5.4c0.9,9.2-0.4,28.6-1.6,39.5c0,0.3,0.4,0.1,0.4,0.1c1.6-11.4,3.1-28,2.8-40
						C75.5-6.5,73.9-5.7,73.9-5.4z"/>
				</g>
				<g>
					<path fill="#1D1E1C" d="M61.6,58.6c-1.2,0.1-1.7,1.4-2.1,2.4c-0.4,1.1-0.9,3.4-0.2,4.5c0,0.1,0.2,0.1,0.2,0
						c0.1-0.4,0-0.9,0-1.3c0-0.8,0.1-1.6,0.2-2.4C60,60.4,60.6,59.5,61.6,58.6C61.6,58.6,61.6,58.6,61.6,58.6L61.6,58.6z"/>
				</g>
				<g>
					<path fill="#1D1E1C" d="M59.2,65.2c0.5,2.4,3,4.2,4.7,5.7c2.4,2.1,5,4.5,7.9,5.9c0.2,0.1,0.4-0.2,0.2-0.4
						C67.6,73,62.4,70,59.2,65.2C59.3,65.1,59.2,65.1,59.2,65.2L59.2,65.2z"/>
				</g>
				<g>
					<path fill="#1D1E1C" d="M71.6,58.5c2.3,2.3,3.9,5.4,5.5,8.2c1,1.8,1.7,3.5,1.8,5.5c0.2,4.1-3.8,5.2-7,4.1
						c-0.3-0.1-0.4,0.4-0.1,0.5c3.9,1.3,7.3-0.3,7.6-4.6c0.1-2.4-1.4-4.9-2.6-6.9c-1.4-2.4-2.8-5.4-5.1-7
						C71.6,58.3,71.5,58.5,71.6,58.5L71.6,58.5z"/>
				</g>
				<g>
					<path fill="#1D1E1C" d="M61.7,64.5c0.7,1.6,2.3,2.8,3.5,4c1.7,1.7,3.5,3.2,5.4,4.6c0.1,0.1,0.2-0.1,0.1-0.2
						C67.6,70.3,64.1,67.9,61.7,64.5C61.7,64.4,61.7,64.5,61.7,64.5L61.7,64.5z"/>
				</g>
				<g>
					<path fill="#1D1E1C" d="M78.6,68.9c-3.2-0.4-6.4,0.3-8.1,4c-0.1,0.1,0.1,0.3,0.2,0.2c2-3.5,4.8-4.2,7.9-3.8
						c0.1,0,0.1-0.3,0-0.3L78.6,68.9z"/>
				</g>
				<g>
					<path fill="#1D1E1C" d="M71.7,58.3c-1.6,0.4-2.8,1.3-4.5,1.5c-2.1,0.3-3.6-0.4-5.5-1.1c-0.2-0.1-0.3,0.2-0.2,0.3
						c1.3,1.5,3.9,1.5,5.7,1.4c1.4-0.1,4-0.5,4.6-2C71.8,58.3,71.7,58.2,71.7,58.3L71.7,58.3z"/>
				</g>
				<g>
					<path fill="#1D1E1C" d="M66.3,60.1c0.8,0.2,1.2-1.2,1.3-1.8c0.2-0.9,0-2.6-1-3c-0.1,0-0.3,0-0.2,0.2c0.1,0.4,0.4,0.7,0.5,1
						c0.2,0.5,0.2,1,0.2,1.5c0,0.4-0.2,0.9-0.4,1.2C66.6,59.6,66.4,59.8,66.3,60.1C66.2,60.1,66.2,60.1,66.3,60.1L66.3,60.1z"/>
				</g>
				<g>
					<path fill="#1D1E1C" d="M66.7,55.5c0.8-0.5,1.7-0.9,2.6-1.1c1.2-0.3,2.2,0.1,3.3,0c0.1,0,0.2-0.1,0.1-0.2
						c-1.5-1.5-5.1-0.2-6.3,1.1C66.4,55.4,66.5,55.6,66.7,55.5L66.7,55.5z"/>
				</g>
				<g>
					<path fill="#1D1E1C" d="M72.5,54.2c0,0.8,0.1,1.5-0.1,2.3c-0.1,0.4-0.3,0.8-0.5,1.2c-0.2,0.3-0.4,0.4-0.5,0.7
						c0,0.1,0,0.1,0.1,0.1c0.7-0.2,1.1-1.3,1.3-1.9c0.2-0.7,0.3-1.8-0.1-2.5C72.7,54.1,72.5,54.1,72.5,54.2L72.5,54.2z"/>
				</g>
				<g>
					<path fill="#BDBCBC" d="M33.9,69.5c0.3-0.5,4.7-6.8,6.6-9.1c-1.1-0.1-3.3-1.4-3.3-1.4c-0.4,0.7-2.1,1.4-3.4,4.2
						c-1.1,2.4-1.9,3-3.3,5.9c-0.8,3.3-0.4,5.5,0.1,6.2c1.8,2.4,3.8,1.8,3,1.8C33.3,76.4,31.8,72.7,33.9,69.5z"/>
				</g>
				<g>
					<path fill="#1D1E1C" d="M47.5,58.6c1.2,0.1,1.7,1.4,2.1,2.4c0.4,1.1,0.9,3.4,0.2,4.5c0,0.1-0.2,0.1-0.2,0c-0.1-0.4,0-0.9,0-1.3
						c0-0.8-0.1-1.6-0.2-2.4C49.1,60.5,48.6,59.5,47.5,58.6C47.5,58.7,47.5,58.6,47.5,58.6L47.5,58.6z"/>
				</g>
				<g>
					<path fill="#1D1E1C" d="M49.9,65.2c-0.5,2.4-3,4.2-4.7,5.7c-2.4,2.1-5,4.5-7.9,5.9c-0.2,0.1-0.4-0.2-0.2-0.4
						C41.6,73.1,46.7,70.1,49.9,65.2C49.8,65.1,49.9,65.2,49.9,65.2L49.9,65.2z"/>
				</g>
				<g>
					<path fill="#1D1E1C" d="M47.4,64.6c-0.7,1.6-2.3,2.8-3.5,4c-1.7,1.7-3.5,3.2-5.4,4.6c-0.1,0.1-0.2-0.1-0.1-0.2
						C41.5,70.4,45,67.9,47.4,64.6C47.4,64.5,47.5,64.5,47.4,64.6L47.4,64.6z"/>
				</g>
				<g>
					<path fill="#1D1E1C" d="M30.6,69c3.2-0.4,6.4,0.3,8.1,4c0.1,0.1-0.1,0.3-0.2,0.2c-2-3.5-4.8-4.2-7.9-3.8c-0.1,0-0.1-0.3,0-0.3
						L30.6,69z"/>
				</g>
				<g>
					<path fill="#1D1E1C" d="M50.7-6.2c-3,10.4-3.2,20-3.4,30.8c-0.1,5.5,0.2,11,0.1,16.5c-0.1,6-0.6,12,0,18c0,0.2,0.3,0.2,0.3,0
						c0.2-10.5,0.2-20.9,0.1-31.4c-0.1-12,1-22,3.1-33.8c0-0.2-0.1-0.3-0.1-0.2L50.7-6.2z"/>
				</g>
				<path fill="#BDBCBC" d="M40.2,54.8c0,0-1.8,2.2,0.3,5.6c0,0-2.5-0.6-3.5-1.4c0,0-1.5-2.4-0.6-4.2C36.4,54.7,39.3,54.2,40.2,54.8
					z"/>
				<g>
					<path fill="#1D1E1C" d="M43,60.5c-0.1-0.2-0.3-0.4-0.5-0.6c-0.3-0.3-0.4-0.8-0.5-1.2c-0.1-0.5-0.1-1,0-1.4
						c0.1-0.5,0.4-0.8,0.5-1.3c0-0.1-0.1-0.2-0.2-0.2c-1,0.5-1,2.1-0.9,3C41.6,59.4,42.2,60.8,43,60.5C43,60.6,43,60.5,43,60.5
						L43,60.5z"/>
				</g>
				<g>
					<path fill="#1D1E1C" d="M42.5,55.7c-1.2-1.3-4.9-2.5-6.3-0.9c-0.1,0.1,0,0.2,0.1,0.2c0.9,0,1.8-0.3,2.7-0.2
						c1.2,0.1,2.3,0.6,3.3,1.2C42.5,56,42.7,55.8,42.5,55.7L42.5,55.7z"/>
				</g>
				<g>
					<path fill="#1D1E1C" d="M36.4,54.9c0,0.8-0.1,1.5,0.1,2.3c0.1,0.4,0.3,0.8,0.5,1.2c0.2,0.3,0.4,0.4,0.5,0.7
						c0,0.1,0,0.1-0.1,0.1c-0.7-0.2-1.1-1.3-1.3-1.9c-0.2-0.7-0.3-1.8,0.1-2.5C36.2,54.8,36.4,54.8,36.4,54.9L36.4,54.9z"/>
				</g>
				<g>
					<path fill="#1D1E1C" d="M37.1,59.1c0.7,0.9,3.3,1.5,4.6,1.7c1.8,0.2,4.6,0,5.9-1.6c0.1-0.1,0-0.4-0.2-0.3
						c-1.8,0.7-3.2,1.3-5.2,1.3c-1,0-1.8-0.1-2.9-0.4c-1.2-0.3-2-0.9-2-0.8L37.1,59.1z"/>
				</g>
				<g>
					<path fill="#1D1E1C" d="M32.2,65.6c1.5-0.6,4.7-0.6,6.2,1.9c0.1,0.1-0.1,0.2-0.2,0.1c-0.7-0.6-2.1-1.5-3.4-1.6
						c-0.9-0.1-1.7-0.1-2.6-0.1C32.1,65.8,32.1,65.6,32.2,65.6L32.2,65.6z"/>
				</g>
				<g>
					<path fill="#1D1E1C" d="M34.3,62.7c1.5-0.6,4.7-0.6,6.2,1.9c0.1,0.1-0.1,0.2-0.2,0.1c-0.7-0.6-2.1-1.5-3.4-1.6
						c-0.9-0.1-1.7-0.1-2.6-0.1C34.2,62.8,34.2,62.7,34.3,62.7L34.3,62.7z"/>
				</g>
				<g>
					<path fill="#1D1E1C" d="M37.2,59c-2.3,2.3-3.6,5-5.2,7.8c-1,1.8-1.7,3.5-1.8,5.5c-0.2,4.1,3.8,5.2,7,4.1
						c0.3-0.1,0.4,0.4,0.1,0.5c-3.9,1.3-7.3-0.3-7.6-4.6c-0.1-2.4,1.4-4.9,2.6-6.9c1.4-2.4,2.5-5,4.8-6.6c0.1-0.1,0.1,0,0.1,0
						L37.2,59z"/>
				</g>
				<g>
					<path fill="#DCAE8D" d="M48.8-3.6c-2.1,9-2.6,27.9-2,37.3c0,0.3-0.4,0.3-0.4,0.3c-0.5-7-1.6-20.5,0.6-37.4
						C47-4.1,48.8-3.9,48.8-3.6z"/>
				</g>
			</g>
		</g>
	</g>
	<g>
		<defs>
			<rect id="SVGID_87_" x="0" y="0" width="100" height="100"/>
		</defs>
		<use xlink:href="#SVGID_87_"  overflow="visible" fill="#FAD53F"/>
		<clipPath id="SVGID_8_">
			<use xlink:href="#SVGID_87_"  overflow="visible"/>
		</clipPath>
		<g clip-path="url(#SVGID_8_)">
			<path fill="#62529C" d="M82.9,114c-1.9-3.7,2.4,1-0.2-2.6c-2-2.8-10.8-13.8-21.6-14c-0.3-0.3-0.8-0.2-0.8-0.6
				c-0.3-0.5-0.9-0.8-1.3-0.4c-0.1-0.1-0.4-0.1-0.5,0.1c-1.2,2.7-2.6,4.2-5.4,5.1c-6.2,2.1-9.6-0.5-11-5.1c-0.1-0.2-0.6-0.2-0.7,0
				c-0.6-0.2-1.2-0.1-1.5,0.4c0,0-0.1,0-0.1,0c-11.9,0.5-18.3,10-25.7,17.9c-0.2,0.2,0,0.5,0.2,0.6c2,1.7,4.7,3.9,6.8,5.9
				c2.3,2.2,4.8,4.5,7.3,6.6c-0.1,0.5-0.1,1.1-0.2,1.6c-0.4,2.9-0.4,6.4-0.4,9.3c-0.1,4.5-1.4,8.7-2.3,13.1
				c-0.7,3.5-2.3,6.7-2.4,10.4c0,0.2,0.1,0.3,0.3,0.4l0,0c0,0,0,0,0,0c0,0,0.1,0,0.1,0c4.9,0.1,9.3-1,14.2-0.1
				c3.5,0.6,7,0.2,10.4-0.3c3.5-0.4,7-1.7,10.4-2.7c5.2-1.5,11.3-1.5,16.6-2.5c0,0,0,0,0.1,0c0,0,0,0,0,0c0.1,0,0.2-0.1,0.2-0.2
				c0-0.1,0.1-0.2,0-0.3c-1.2-1.9-1.5-4.6-2-6.8c-0.7-3.4-1.3-6.9-1.8-10.3c-0.8-5.4-0.9-10.5-0.4-15.7c2.6-3.1,7.9-6.8,11.8-9
				C83.1,114.5,83.1,114.1,82.9,114z"/>
			<path fill="#603424" d="M42.6,90.6c0,0,0.2,4.8-0.8,6c-0.5,0.5,1.6,5.8,7.4,5.9c5.9,0.1,9.7-5.4,9.4-5.7
				c-0.3-0.3-1.2-1.1-1.2-1.6s0.4-5-0.2-5.3c-0.6-0.3-3.8,1.2-8.1,1.4C45,91.5,42.6,90.6,42.6,90.6z"/>
			<g>
				<path fill="#212120" d="M57.3,89.9c-0.8,1.1-0.3,3.3-0.3,4.6c0,1.1,0.5,2.1,1.6,2.3c0.1,0,0.3-0.1,0.2-0.2
					c-0.1-0.4-0.2-0.4-0.4-0.7c-0.7-0.7-0.5-1.6-0.5-2.5c-0.1-1.1,0.2-2.5-0.4-3.4C57.5,89.8,57.4,89.8,57.3,89.9L57.3,89.9z"/>
			</g>
			<g>
				<path fill="#212120" d="M42.3,90.7c-0.2,0.6-0.1,1.3-0.1,1.9c-0.1,0.8-0.1,1.6-0.2,2.5c-0.1,0.8-0.1,0.9-0.5,1.6
					c-0.1,0.1,0.2,0.3,0.4,0.3c1-0.6,1-1.9,1-3.2c0.1-0.9,0.3-2.3-0.2-3.1C42.6,90.5,42.3,90.5,42.3,90.7L42.3,90.7z"/>
			</g>
			<g>
				<path fill="#212120" d="M41.5,96.8c0.9,4,3.8,6,8.3,6c4.2,0,7.6-2.3,9.3-6.1c0.2-0.4-0.4-0.6-0.6-0.2c-1.2,2.7-2.6,4.2-5.4,5.1
					c-6.2,2.1-9.6-0.5-11-5.1c-0.1-0.2-0.8-0.2-0.7,0.1L41.5,96.8z"/>
			</g>
			<g>
				<path fill="#212120" d="M49.2,94.6c-0.7,0.3-0.4,1.4-0.1,1.9c0.1,0.2,0.4,0.2,0.5-0.1c0.2-0.5,0.3-1.2,0-1.7
					C49.6,94.5,49.3,94.5,49.2,94.6L49.2,94.6z"/>
			</g>
			<g>
				<path fill="#212120" d="M49.3,94.6c-0.7,0.3-0.4,1.4-0.1,1.9c0.1,0.2,0.4,0.2,0.5-0.1c0.2-0.5,0.3-1.2,0-1.7
					C49.6,94.6,49.4,94.6,49.3,94.6L49.3,94.6z"/>
			</g>
			<g>
				<g>
					<path fill="#4D332D" d="M62.8,25.1c0.1-0.1,0.1-0.2,0.2-0.3c0.2-0.3,0.1-0.8-0.1-1c-0.1-0.1-0.2-0.2-0.3-0.3
						c-0.3,0.4-0.7,0.9-1,1.3c0.4,0.2,0.8,0.2,1.2-0.1c0.6-0.4,0.6-1.4-0.2-1.6c-0.5-0.1-0.9-0.1-1.4,0.2c-0.5,0.3-0.6,1.2,0,1.5
						c0.2,0.1,0.6,0.2,0.7,0.3C62.1,25.3,62.5,25.4,62.8,25.1c0.5-0.3,0.5-0.8,0.5-1.4c0-1.1-1.6-1.1-1.7,0
						c-0.1,0.7,0.1,0.9,0.4,1.5c0.4,0.7,1.3,0.5,1.6-0.2c0.3-0.8,0.2-1.1-0.2-1.8c-0.5,0.3-1,0.6-1.5,0.9c0.1,0.2,0.2,0.3,0.4,0.5
						c0.3-0.4,0.6-0.8,1-1.3c-0.6-0.1-1.1-0.2-1.6-0.5c-0.2,0.5-0.4,1-0.7,1.6c2.1,0.4,3.8,2.1,5.6,3.3c2.2,1.4,4.4,2.1,3,5.1
						c-0.5,1,1,1.9,1.5,0.9c1.1-2.2,1.2-4.4-1-6c-1.3-0.9-2.7-1.5-3.9-2.4c-1.4-1-2.8-2.1-4.6-2.5c-0.9-0.2-1.6,1.1-0.7,1.6
						c0.7,0.4,1.3,0.5,2,0.6c0.6,0.1,1.5-0.6,1-1.3c-0.1-0.2-0.2-0.3-0.4-0.5c-0.7-0.9-2.1-0.1-1.5,0.9c0.5,0.7,0.3-0.3,0,0.5
						c0.5-0.1,1-0.1,1.6-0.2c-0.1-0.2-0.2-0.3-0.3-0.5c-0.2-0.2,0,0.8,0.1-0.1c-0.6,0-1.1,0-1.7,0c0,0.2,0,0.4,0,0.7
						c0.1-0.2,0.3-0.5,0.4-0.7c0,0,0,0-0.1,0c0.3,0,0.7,0.1,1,0.1c-0.3-0.3-0.7-0.3-1-0.5c0,0.5,0,1,0,1.5c0,0,0.1,0,0.1,0
						c-0.1-0.5-0.1-1-0.2-1.6c-0.1,0.1-0.2,0.1-0.2,0.1c0.3,0,0.6,0,0.9,0c0,0,0,0-0.1,0c-0.8-0.4-1.8,0.7-1,1.3
						c0.1,0.1,0.2,0.2,0.3,0.3c0-0.3-0.1-0.7-0.1-1c-0.1,0.1-0.1,0.2-0.2,0.3C60.8,25.2,62.3,26.1,62.8,25.1L62.8,25.1z"/>
				</g>
				<path fill="#603424" d="M87.2,51.9C87,51,86.9,49.7,86.4,49c-0.5-0.7-3.4-2.1-4-2L81,49.6c-0.4,0.3-0.9-2.8-1-3.4
					c-0.2-1.1-0.5-2.2-1-3.3c-0.5-1-1.2-2-1.5-3.1c-0.8-2.8-1.2-6.5-2.1-8.4c-1.4-2.8-1.8-4.7-5.5-5.9c-1.7-0.6-3.3-0.7-4.9-1.6
					c-3.9-2.1-5.3-1.8-9.8-2.4c-1.7-0.2-3.2-0.7-4.9-0.6c-1.6,0.1-3.3,0.6-4.9,1.3c-3.2,1.3-4.2,1-6.3,1.4c-1.6,0.3-3.2,0.5-4.7,0.9
					c-3,0.7-6,1.7-7.1,4.7c-1.2,3.4-1.5,5.3-2.2,7.8c-0.6,2.3-0.2,4.7-1,6.9c-0.3,0.9-1.4,1.6-1.8,2.4c-0.4,0.8,0,1.7-0.5,2.5
					c-0.4,0.6-0.7,1.2-1.5,1.4c-0.3-1.3-0.6-3.7-2.5-3.5c-1.6,0.2-3.2,1.7-4,3c-0.5,0.8-1,1.8-1.1,2.7c-0.5,4.8,3.4,9.5,8.5,7.3
					c0.2,0.9,0.3,2,0.3,2.9c0.1,2.9,3.2,9.3,3.4,9.2C24.4,72,29,79,29.4,79.5c1.5,2.3,3.3,3.3,5.3,5.2c7.2,7.2,20.5,9,28.6,3.4
					c5.4-3.7,8-6.9,11.7-13.2c1.2-2,1.8-5.6,2.5-7.9c0.7-2.4,1.6-6.2,1.6-6.2c1.7-0.4,5.2-0.7,6.5-2.2
					C87.1,56.8,87.8,54.2,87.2,51.9z"/>
				<g>
					<path fill="#2D1916" d="M72.8,27.1C72.7,27.1,72.7,27.1,72.8,27.1C72.7,27.1,72.7,27.1,72.8,27.1z"/>
					<path fill="#2D1916" d="M84.9,39.2c-0.2-0.7-1.2-3.6-1.5-4.4c-0.3-0.7-0.7-1.4-1-2.2c-0.2-0.5-0.4-3-1.9-5.8
						c-1.4-2.5-1.9-8.1-2.3-8.3c-0.1-0.3-0.2-0.6-0.4-0.9c-0.2-0.5-0.5-1-0.8-1.6c0,0-0.1,0-0.1-0.1c-0.5-1.3-1.3-2.9-2.5-3.6
						c-0.1-0.1-0.3-0.1-0.4-0.1c-0.2-0.1-0.3-0.2-0.5-0.3c-0.7-0.4-1.3-0.7-2-1c-0.1-0.1-0.1-0.1-0.2-0.2c-0.1-0.1-0.1-0.2-0.2-0.2
						c0,0-0.1-0.1-0.1-0.1c0-0.3-0.1-0.5-0.4-0.7c-0.2-0.1-0.4-0.3-0.6-0.4c-0.1-0.2-0.3-0.4-0.6-0.5c-0.1,0-0.2-0.1-0.4-0.1
						c0,0-0.1-0.1-0.1-0.1c-0.3-0.1-0.5-0.2-0.7-0.2c0,0,0-0.1,0-0.1c0-0.2-0.2-0.3-0.4-0.4c-0.5-0.1-0.9-0.2-1.4-0.3
						c-0.1,0-0.1,0-0.2,0c-0.7-0.2-1.4-0.3-2.1-0.5c-0.1,0-0.1,0-0.2,0c0,0-0.1,0-0.1,0C62.7,7,61.9,6.9,61,6.8
						c-0.4-0.1-0.9-0.1-1.3-0.2c-0.2,0-0.3,0-0.5,0.1c-2.4-0.1-4.8,0.1-7.2,0.3c-2.1-0.5-4.4-0.8-6.4,0.3c-0.1,0-0.1,0.1-0.2,0.2
						c-0.6,0.1-1.1,0.3-1.6,0.6c-0.1,0.1-0.2,0.2-0.2,0.3c-1.2,0.3-2.4,0.8-3.4,1.6c-0.1,0.1-0.2,0.2-0.2,0.2
						c-0.7,0.2-1.4,0.5-2.1,0.8c0,0-0.1,0-0.1,0c-0.1-0.1-0.2-0.1-0.3-0.1c-0.2,0-0.4,0.1-0.6,0.1c-0.4,0-0.9,0-1.3,0.1
						c0,0,0,0-0.1,0c-0.4,0.1-0.8,0.2-1.2,0.3c-0.1-0.1-0.3-0.1-0.4,0c-0.3,0.1-0.5,0.2-0.8,0.3c-0.1,0-0.2,0.1-0.2,0.2
						c-0.1,0-0.1,0.1-0.2,0.1c-1,0.3-1.8,0.7-2.5,1.5c-0.2,0.1-0.4,0.2-0.6,0.3c-0.3,0.5-0.7,0.9-1.1,1.3c-0.2,0.2-0.4,0.3-0.6,0.4
						c-0.1,0.2-0.2,0.5-0.1,0.8c-1,0.3-1.7,0.7-2.1,1.5c-0.1,0-0.1,0-0.2,0c-1.1,0.5-1.9,1.3-2.6,2.3c-0.6,0.4-1.2,0.8-1.4,1.7
						c-0.3,0-0.5,0.2-0.6,0.6c0,0.3-0.1,0.6-0.1,0.9c0,0-0.1,0.1-0.1,0.2c0,0,0,0,0,0.1c0,0,0,0,0,0c0,0.1,0,0.1,0,0.2
						c-0.1,0.1-0.2,0.2-0.2,0.3c-0.2,0.9-0.2,1.6-0.1,2.3c-0.2,1.3-0.3,2.2,0,3.5c0,0-0.2,0.3-0.2,0.4c0,0.2,0,0.4-0.1,0.5
						c-0.1,0.4-0.3,0.8-0.4,1.2c-0.2,0.6-0.3,1.2-0.5,1.9c-0.3,1.3-0.6,2.5-1,3.7c-0.4,1.3-0.2,2.6-0.4,4c-0.2,1.4-0.3,3.4,0.3,4.8
						c0.3,0.7,0.6,0.7,1,1.3c0.4,0.6,0.7,1.8,1.3,2.2c0.7,0.4,1.5-2.7,1.5-3.3c0-0.8,1.4-1.7,1.8-2.5c0.7-1.3,0.4-2.8,0.6-4.3
						c0.1-1.2,1.6-6.1,1.8-7.4c0.3-1.3,0.5-2.5,1.1-3.7c0.7-1.4,3-3.3,4.5-3.8c3.6-1.1,6.8-1.2,8-1.4c4.5-0.6,8.3-2.5,8.9-2.6
						c1.8-0.2,4,0,5.8,0.4c1.3,0.3,4.4,0.4,6.3,0.8c1.3,0.2,5,2.4,8.5,3.2c0.5,0.1,2.9,1.2,3.1,1.5c2.5,2.5,3.6,6.1,3.6,6.9
						c0.1,1.1,0.4,2.1,0.6,3.2c0.6,3.7,1.2,3.8,1.5,4.6c0.3,0.8,0.7,1.6,1.1,2.3c1,1.6,0.9,4.2,1.6,5.8c0,0,0.6-1.6,0.8-2.1
						c0.4-0.9,1.1-0.3,1.7-0.6c0.7-0.4,0.8-3.7,1.1-4.4C84.9,41.7,85,39.5,84.9,39.2z"/>
				</g>
				<path fill="#4F2918" d="M64,87.1c-0.3-0.1-1.5-0.1-1.8,0c-2.3,0.6-4.6,1.4-7,1.6c-2.3,0.2-4.6,0-6.8-0.2c-2.6-0.3-4.9-1.9-7.3-3
					c-6-2.7-9.9-7.6-12.8-13.6c-2.1-4.3-3.9-7.1-5.1-11.6C23,60,21,55.1,20.1,56.2c-0.4,0.4,0.6,1.9,0.8,2.3
					c-1.6-1.5-3.2-0.4-4.9-1.1c-1.2-0.5-1.7-1.5-2-2.6c-0.1-0.2-0.6-3.2-0.8-3.1c-0.5,0.2-0.6,1-0.6,1.6c0.1,1.2,0.3,2.4,0.9,3.4
					c-0.3-0.1-1-0.2-1.1,0.2c-0.2,0.5,0.3,0.5,0.5,0.8c1.3,1.6,3.1,2.1,5.1,2.5c1,0.2,2.4-0.7,3.1,0.3c0.8,1,0.6,3.9,1,5.2
					c4.7,16.2,16.6,23.2,18.8,24c1.1,0.4,5.2,1.5,6.2,1.6c3.1,1.2,10.3-0.4,11.1-0.8c1.5-0.7,4.5-1.2,5.4-2.6
					C63.6,87.7,64,87.1,64,87.1z M49.4,91.5c0.1-0.1,0.2-0.3,0.2-0.4c1,0.2,2,0.2,3,0.2C51.6,91.4,50.5,91.4,49.4,91.5z"/>
				<path fill="#4F2918" d="M18.9,55.8c-0.1-0.1-0.3-0.3-0.5-0.4c-0.1-0.3-0.2-0.6-0.4-0.9c0-0.1-0.1-0.2-0.2-0.2
					c0-0.1-0.1-0.2-0.1-0.2c0-0.2,0-0.5-0.1-0.7c0-0.4-0.6-0.4-0.7,0c0,0,0,0,0,0c-1.5,0.3-1.4,2.2-0.2,3c0.2,0.1,0.3,0.1,0.4-0.1
					c0.1,0.2,0.2,0.4,0.3,0.6c0.1,0.4,0.6,0.5,0.8,0.1c0.2-0.3,0.4-0.4,0.6-0.7C19,56.1,19,55.9,18.9,55.8z"/>
				<path fill="#4F2918" d="M54.2,54.4c-0.3-0.1-0.2-0.1-0.1-0.3c0-0.2-0.1-0.4-0.3-0.5c-2.5-0.8-5.8-0.6-7,2.1
					c-0.3,0.6,0.6,1,0.9,0.4c0.6-1.2,1.7-1.7,3-1.9c0.6-0.1,2.3-0.3,2.6,0.4c0.1,0.2,0.3,0.3,0.5,0.2c0.2-0.1,0.2-0.1,0.3-0.1
					C54.3,54.7,54.4,54.5,54.2,54.4z"/>
				<path fill="#4F2918" d="M71.5,44c-1-0.7-2.3-1-3.1-2c-0.5-0.6-1.5,0.1-1,0.7c0.8,1,2.2,1.5,3.3,2.2C71.4,45.5,72.2,44.5,71.5,44
					z"/>
				<path fill="#4F2918" d="M85.8,57.4c-1.5,0.8-4.1,0.7-5.1-0.9c-0.1-0.2-0.3-0.2-0.4-0.1c0,0-0.1-0.1-0.1-0.1
					c-0.4-0.3-0.8,0.3-0.5,0.6c0.1,0.1,0.2,0.2,0.3,0.2c0,0.1,0,0.1,0,0.2c0,0-0.1,0-0.1,0c-0.3,0-0.4,0.2-0.4,0.4
					c0,0.3,0.1,0.5,0.3,0.7c-0.3,0.5-0.6,0.9-0.7,1.5c-0.1,0.2,0.1,0.4,0.3,0.4c2.4,0.2,4.9-0.8,6.9-2.1
					C86.6,57.9,86.2,57.2,85.8,57.4z"/>
				<path fill="#4F2918" d="M83.7,53.9C83.8,53.8,83.8,53.8,83.7,53.9c0.1-0.2,0-0.3-0.1-0.3c-0.1-0.2-0.1-0.3-0.2-0.5
					c0,0,0-0.1,0-0.1c0-0.2-0.1-0.2-0.2-0.2c0,0,0,0,0,0c-0.2-0.2-0.5-0.1-0.5,0.1c0,0.2,0,0.3,0,0.5c-0.1,0-0.1,0.1-0.2,0.2
					c-0.2,0.5-0.2,1-0.2,1.5c0,0.1,0,0.1,0.1,0.2c0,0.3-0.1,0.6-0.1,1c0,0.2,0.3,0.5,0.5,0.3C83.5,55.8,83.9,54.8,83.7,53.9z"/>
				<path fill="#4F2918" d="M32.8,54.8c-0.6-0.4-1.4-0.7-2.2-0.8c-0.3-0.1-0.7-0.1-1-0.2c-0.8-0.1-1.6-0.1-2.2,0.2c0,0-0.1,0-0.1,0
					c-0.2,0-0.3,0.1-0.5,0.2c-0.4,0.2-0.8,0.4-1.1,0.8c-0.3,0.3-0.5,0.6-0.4,1c0,0.1,0.1,0.2,0.1,0.3c0.1,0.6,0.5,1,1.1,1.2
					c0.3,0.2,0.7,0.3,1.1,0.3c0.4,0,0.8,0,1.2,0c0.4,0.1,0.9,0.1,1.3,0.1c0.1,0,0.2,0,0.4,0c0.6,0,1.3-0.2,1.7-0.6
					C33.2,56.8,34,55.6,32.8,54.8z"/>
				<path fill="#4F2918" d="M75.7,54.5c-0.6-1.2-2.9-1.4-4.6-1c-1.5-0.2-3.3,0.2-3.3,1.7c-0.1,2.1,3.9,2.1,5.2,1.9
					c0.2,0,0.5-0.1,0.7-0.2C74.8,56.8,76.5,55.9,75.7,54.5z"/>
				<path fill="#1F0D09" d="M52.9,7.2c-1.7-0.2-5.9-0.5-6.1-0.4c-0.6,0.1-3,1.6-5.3,2.5c-0.2,0.1-3.1,1.7-3.7,1.7
					c-0.5,0.1-3.3,0.4-3.8,0.4c-1.1,0.1-2.1,0.5-2.8,1.4c-0.4,0.5-2.4,2.5-3.8,3.7c-1.3,1.1-2.6,2.1-4.1,2.9
					c-0.5,0.3-2.1,2.3-2.1,2.3c-0.3-0.1-1,3.5-1,3.6c-0.1,0.8,0,4.9,0,5.1c-0.1,1-0.7,2.7-0.9,3.8c0,0-1.6,3.5-1.3,5.6
					c0,0.3-0.1,5.1,0.1,6.5c0,0,0.4,0.6,1.3,1.8c0.1,0.4,0.6,1.1,0.6,1.5c0,0.5,0.7,0.6,0.9,0.3c0.6-0.8,0.9-1.5,0.7-2.2
					c0,0,0.1-0.1,0.1-0.1c1.2-2.1,1-1.4,1.9-3.1c0.1-0.1,0.1-0.3,0.1-0.4c0.3,0,0.7-0.2,0.7-0.6c0-0.6,0-1.2,0-1.8
					c0.1-0.5,0.1-1,0-1.5c0.2-0.8,0.4-1.6,0.5-2.5c0.4-1.4,0.8-2.8,1.1-4.2c0.1-0.1,0.1-0.2,0.2-0.3c0.2-0.8,0.4-1.5,0.6-2.3
					c0.1-0.3,0-0.5-0.2-0.6c0.3-0.6,0.6-1.2,1-1.8c0.1-0.2,0.3-0.4,0.4-0.5c0.2-0.3,0.4-0.5,0.6-0.8c1.3-0.6,2.6-1.3,3.9-2.1
					c0.6-0.1,1.2-0.3,1.8-0.4c0.6-0.2,0.4-1-0.1-1.1c-1.6-0.2-2.3-1-2.9-2.1c0-0.4,0.1-0.7,0.1-1.1c0.1-0.5-0.4-0.7-0.7-0.5
					c-0.1-0.7-0.1-1.3,0.2-2c0.1-0.1,0.1-0.1,0.2-0.2c0.1,0,0.1-0.1,0.2-0.2c0.3-0.5,0.8-0.6,1.3-0.8c0.2-0.1,0.6-0.3,0.7-0.5
					c0.1,0,0.3-0.1,0.3-0.2c0.1-0.2,0.2-0.9,0.1-1.3c0.1-0.1,0.3-0.3,0.4-0.4c0.2-0.1,0.4-0.3,0.6-0.4c1.5-0.8,3.5-0.3,4.1-1.7
					c1.3-0.2,2.7-0.6,3.6-1.3c0.1,0,0.1-0.1,0.2-0.1c0.6-0.3,1.4-0.7,2.1-1.2c1-0.4,2.1-0.7,3.2-0.9c0.1,0,0.1,0,0.1-0.1
					c1.6-0.2,3.3-0.3,4.9-0.6C53.4,7.8,53.4,7.2,52.9,7.2z"/>
				<path fill="#805D50" d="M72.1,72.2c0-0.3-0.5-0.4-0.6-0.1c-1.4,4.5-3.9,7-7.3,10.2c-0.2,0.2,0,0.5,0.2,0.4
					C68.2,81.4,72.2,76.4,72.1,72.2z"/>
				<path fill="#805D50" d="M85.5,50.3c-0.5-0.7-1.6-1.8-2.5-1.6c-0.4,0.1-0.5,0.5-0.2,0.7c0.3,0.3,0.6,0.4,0.9,0.6
					c0.4,0.3,0.6,0.6,0.9,1c0.4,0.6,0.5,1.4,0.8,2.1c0.1,0.3,0.6,0.3,0.7,0C86.4,52.2,86,51.1,85.5,50.3z"/>
				<path fill="#574745" d="M81.2,33.3c-0.2-1.1-0.7-4.4-0.7-4.5c0-0.5-0.3-0.9-0.6-1.3c-0.1-0.1-0.2-0.2-0.4-0.4
					c-2-2.8-2-5.9-3.2-9c-0.8-2-2.9-3.9-5.1-4.4c-0.1,0-0.2,0.1-0.1,0.2c0.6,0.9,1.5,1.4,2.4,2c1.8,1.3,2.4,3.6,2.7,5.7
					c0.4,2.2,0.7,4.8,2.6,6.3c0,0,0,0,0,0c1.1,1.4,1.1,3.9,1.3,5.5C80.3,34.1,81.3,33.9,81.2,33.3z"/>
				<g>
					<path fill="#212120" d="M47.2,56.3c0.2-0.1,0.3-0.1,0.5-0.3c0.6-0.6,1.1-1,2-1.1c0.9-0.2,1.8-0.1,2.6,0.3
						c0.7,0.3,0.9,0.7,1.7,0.7c0.3,0,0.4-0.2,0.4-0.5c-0.5-1.8-3.3-1.9-4.7-1.6c-1,0.2-2.6,1.2-2.5,2.3
						C47.1,56.2,47.2,56.3,47.2,56.3L47.2,56.3z"/>
				</g>
				<g>
					<path fill="#212120" d="M18.7,46.5c-1.1-0.9-3,0.2-4.1,0.8c-2.1,1.3-3,4.1-2.9,6.4c0,2.4,0.7,5.3,3,6.6c1.7,1,4.7,1.8,6.4,0.4
						c0.5-0.4,0.2-1.2-0.5-1.1c-4.1,0.5-7.1-0.7-7.6-5.3c-0.2-2.3,0.6-4.6,2.3-6.1c1-0.8,2.2-1,3.3-1.5
						C18.8,46.7,18.8,46.6,18.7,46.5L18.7,46.5z"/>
				</g>
				<g>
					<path fill="#212120" d="M17.1,52.3c-1.3,0.4-1.7,2.1-1.5,3.2c0.3,1.1,1.6,2.6,2.8,2.3c0.4-0.1,0.7-0.6,0.4-1
						c-0.6-0.7-1.5-0.8-1.9-1.6c-0.5-1,0.5-1.6,0.6-2.5C17.6,52.3,17.3,52.2,17.1,52.3L17.1,52.3z"/>
				</g>
				<g>
					<path fill="#212120" d="M20.1,56.1c0.6,10,4.4,19.5,11.3,27.2c6.1,6.8,14.8,10,23.8,8.2c17-3.4,22.5-19.8,24.9-35.3
						c0.1-0.5-0.5-0.7-0.8-0.5c0,0-0.1,0.1-0.1,0.1c-0.5,0.4,0.1,1.1,0.6,0.8c0,0,0.1,0,0.1-0.1c-0.3-0.2-0.5-0.3-0.8-0.5
						c-1.5,6.7-2.8,13.7-5.8,19.9c-3.4,7-9.6,12.3-17.2,14.2c-9.5,2.4-17.4-0.6-23.9-7.8c-3.4-3.8-7.3-9.6-8.5-14.5
						c-0.9-3.8-1.9-8.2-3-12C20.6,55.5,20.1,55.7,20.1,56.1L20.1,56.1z"/>
				</g>
				<g>
					<path fill="#212120" d="M82.8,47c-0.1-0.1-0.1-0.1-0.2-0.2c-0.1,0.2-0.2,0.4-0.2,0.6c3.6,0.5,4.8,4,4.5,7.2
						c-0.4,4.7-4.4,4.9-7.9,5.9c-0.5,0.2-0.3,0.9,0.1,1c4.9,0.8,9.4-2.7,9.2-7.8c-0.1-2.4-0.6-4.3-2.3-6c-0.9-0.9-2.7-1.6-3.8-0.9
						c-0.4,0.3,0.2,0.9,0.5,0.5c0-0.1,0.1-0.1,0.1-0.2C82.8,47,82.8,47,82.8,47L82.8,47z"/>
				</g>
				<g>
					<path fill="#212120" d="M82.8,52.1c-0.1,0.5,0.5,1.1,0.5,1.6c0.1,0.8-0.2,1.5-0.7,2.2c-0.2,0.3,0,0.9,0.5,0.8
						c1.1-0.3,1.6-1.4,1.6-2.5c0-1-0.4-2.2-1.5-2.4c-0.1,0-0.3,0-0.4,0.1C82.9,52,82.9,52,82.8,52.1L82.8,52.1z"/>
				</g>
				<g>
					<path fill="#212120" d="M18.2,46.6c0.9,1,1.4,2.2,1.7,3.6c0,0.2,0.2,0.4,0.4,0.3c0.9-0.2,1.7-0.7,1.9-1.7
						c0.2-0.7,0.1-1.5,0.4-2.2c0.2-0.7,0.8-1,1.1-1.6c0.1-0.2-0.1-0.4-0.4-0.4c-0.8,0.3-1.3,1.1-1.6,1.9c-0.5,1.2,0,2.7-1.6,3.2
						c0.2,0.1,0.3,0.1,0.5,0.2c-0.4-1.3-1.1-2.7-2.3-3.5C18.3,46.4,18.2,46.5,18.2,46.6L18.2,46.6z"/>
				</g>
				<g>
					<path fill="#212120" d="M23.4,45.3c2.3-2.3,1-5.3,2-8.2c1.1-3.4,1.5-8.4,4.7-10.5c3.9-2.6,8.2-2.5,12.6-3.2c4-0.6,6.3-3,10.8-2
						c3.7,0.8,7.6,0.5,10.9,2.4c3.4,1.9,7.4,1.6,9.7,5.2c2.2,3.5,2,7,3,10.7c0.5,1.9,2.1,3.2,2.4,5.3c0.3,1.9,0.4,3.1,1.2,4.9
						c0.1,0.3,0.5,0.1,0.4-0.2c-0.7-1.9-0.5-4.1-1.2-5.8c-0.9-2.3-2.4-4.1-2.7-6.7c-0.3-3.6-1.3-6.4-3.3-9.5c-1.9-3.1-5.3-2.7-8.4-4
						c-1.7-0.7-2.4-1.6-4.2-2c-2.1-0.5-4.3-0.1-6.5-0.6c-3.8-0.9-6.4-0.9-10,0.8c-4,1.9-8.9,1.3-13.2,2.8c-1.9,0.7-4.5,2.6-5,4.6
						c-0.6,2.5-0.8,4.9-1.8,7.3c-1,2.5-0.1,6-1.8,8.2C23,45.3,23.3,45.5,23.4,45.3L23.4,45.3z"/>
				</g>
				<g>
					<path fill="#212120" d="M82.6,46.8c-0.6-0.3-1.1,0.7-1.3,1.2c-0.3,0.6-0.6,1.4-0.6,2.1c0,0.3,0.4,0.5,0.5,0.1
						c0.1-0.5,0.4-0.9,0.5-1.4c0.1-0.3,0.4-1.5,0.8-1.5C82.8,47.2,82.8,46.9,82.6,46.8L82.6,46.8z"/>
				</g>
				<g>
					<path fill="#212120" d="M18.5,46.4c-0.1-2.1,0.3-4,0.1-6.1c-0.2-3,1.1-5,1.8-7.7c0.5-2.1,0.5-3.8,0.3-5.9
						c-0.3-5.3,2.9-6.7,6.5-9.3c1.7-1.2,2.9-3.2,4.5-4.5c2.2-2,5.2-1.2,7.7-2.1c2.1-0.7,3.8-1.9,5.8-2.9c3.4-1.7,5.7,0.1,9-0.1
						c2.9-0.1,5.6-1,8.4-0.6c1.8,0.2,6.5,1.4,7.7,2.8c0.8,0.9,1,1.4,2.2,1.9c3.5,1.6,4.2,4.6,5.8,7.8c0.9,1.8,0.5,4.1,1.3,5.9
						c1.1,2.3,2,4.2,2.5,6.8c0.3,1.8,1.3,3.5,1.9,5.2c1.1,3.3,0.2,6.4-0.2,9.7c0,0.2,0.3,0.2,0.3,0c0.4-2.4,1.2-4.4,1.4-6.9
						c0.2-2.3-1.4-5.2-2.3-7.2c-0.9-2.2-0.6-4.3-2-6.4c-1.7-2.6-1.4-5.9-2.8-8.7c-1-1.9-1.4-4.5-3.2-5.9c-0.7-0.6-1.5-0.7-2.3-1
						c-1.8-0.6-1.5-2-2.9-2.7c-2.3-1-4.8-1.5-7.2-2c-3.3-0.7-6.5,0.9-9.9,0.5c-2.6-0.3-4-0.9-6.6-0.2c-3,0.8-5.2,3-8.3,3.7
						c-1.9,0.4-4,0.1-5.7,1.3c-2.9,1.9-4.6,4.9-7.7,6.6c-4.2,2.4-4.7,5.5-4.5,10c0.2,3.8-2,6.9-2.2,10.7c-0.1,2.4-0.2,5.1,0.2,7.5
						C18.1,46.7,18.5,46.7,18.5,46.4L18.5,46.4z"/>
				</g>
				<path fill="#212120" d="M34.6,49.4c-0.9,0-1.6,0-2.4,0.7c-0.9,0.8-1.1,2.1-0.5,3c0.2,0.3,2.5,0.4,3.1,1.1
					c0.8-0.1,1.5-0.5,1.8-1.1c0.6-1.3-0.4-3.1-1.7-3.6c-0.5-0.2-1.1-0.2-1.7,0"/>
				<path fill="#FFFFFF" d="M34.8,50.6c-0.6,0.1-1.8,0.7-0.9,1.6c1.6,1.4,2.7-1,1-1.6"/>
				<path fill="#212120" d="M68.6,48.5c-0.9,0-1.6,0-2.4,0.7c-1.1,1.1-1.2,3,0.4,3.8c1.2-0.3,2.3,0,3.2,0c0.4-0.2,0.7-0.5,0.9-0.8
					c0.6-1.3-0.4-3.1-1.7-3.6c-0.5-0.2-1.1-0.2-1.7,0"/>
				<path fill="#FFFFFF" d="M68.8,49.6c-0.6,0.1-1.9,0.7-0.9,1.6c1.6,1.4,2.7-1,1-1.6"/>
				<g>
					<path fill="#212120" d="M73.3,44.7c-0.3-0.9-1.2-1.5-1.9-1.9c-1-0.6-2-0.9-3.1-1.1c-0.4-0.1-0.6,0.5-0.2,0.7
						c0.9,0.5,1.7,1,2.6,1.5c0.7,0.4,1.5,1,2.4,1.1C73.2,45,73.3,44.9,73.3,44.7L73.3,44.7z"/>
				</g>
				<g>
					<path fill="#1D1E1C" d="M65.9,53.6c0.9-0.3,1.7-0.6,2.7-0.7c0.9-0.1,1.7,0.2,2.6,0.3c0.1,0,0.1-0.1,0.1-0.2
						c-0.5-0.8-1.9-0.7-2.7-0.7c-0.9,0.1-2.3,0.3-2.8,1.2C65.7,53.6,65.8,53.7,65.9,53.6L65.9,53.6z"/>
				</g>
				<g>
					<path fill="#4F2918" d="M28.1,45.7c0.3-0.8,1.2-1.3,1.9-1.6c1.1-0.5,2-0.7,3.2-0.9c0.4,0,0.6,0.6,0.2,0.7
						c-1,0.4-1.9,0.9-2.9,1.3c-0.7,0.3-1.4,0.8-2.2,0.7C28.1,46,28.1,45.9,28.1,45.7L28.1,45.7z"/>
				</g>
				<g>
					<g>
						<path fill="#1D1E1C" d="M36,54.9c-0.4-1-1.7-1.3-2.6-1.6c-0.8-0.2-2.2-0.4-2.7,0.3c-0.1,0.1,0,0.2,0.1,0.2
							c0.8,0,1.5-0.1,2.3,0c1.1,0.2,1.9,0.7,2.8,1.1C36,55,36,54.9,36,54.9L36,54.9z"/>
					</g>
				</g>
				<g>
					<path fill="#1D1E1C" d="M28.2,44.9c0.3-0.8,1.2-1.3,1.9-1.6c1.1-0.5,2-0.7,3.2-0.9c0.4,0,0.6,0.6,0.2,0.7
						c-1,0.4-1.9,0.9-2.9,1.3c-0.7,0.3-1.4,0.8-2.2,0.7C28.2,45.2,28.2,45,28.2,44.9L28.2,44.9z"/>
				</g>
				<g>
					<path fill="#A1877F" d="M36.9,66.4c0,0,14.4-0.3,17.8-0.9c3.4-0.6,11.2-2,11.2-2s0.4,5.9-2.5,10.1c-2.7,4-10.7,10.5-19.7,6
						c-7.6-3.8-6.9-12.9-6.9-12.9"/>
					<path fill="#CD6273" d="M38.7,75c0,0,2.7,3.7,6.1,5c5.6,2.1,11.8-0.2,12.3-0.7c0.5-0.5-4.2-4.1-7.8-5
						C42.1,72.6,38.7,75,38.7,75z"/>
					<path fill="#A23D51" d="M53.1,76.5c-0.2-0.2-0.4-0.3-0.7-0.4c0.1,0,0.2,0,0.3-0.1c0.1,0,0.1-0.1,0.1-0.2
						c-0.2-0.2-0.5-0.3-0.8-0.3c0-0.2-0.1-0.4-0.3-0.4c-0.3,0-0.7,0-1,0.1c-0.1-0.1-0.1-0.1-0.3-0.2c-0.4,0-0.7-0.1-1.1-0.1
						c0-0.2-0.1-0.4-0.4-0.4c-2.1-0.6-4.3-0.6-6.5-0.3c-0.7-0.1-1.6,0.1-1.9,0.1c-0.2,0-0.3,0.2-0.4,0.3c-0.2,0-0.3,0-0.5,0.1
						c0,0,0,0,0,0c-0.1,0-0.2,0-0.4,0c-0.6,0.1-0.6,1-0.1,1c-0.1,0.5,0.3,0.9,0.7,0.8c0.1,0,0.2,0.1,0.2,0.1c0,0,0.1,0.1,0.1,0.1
						c0,0.1,0.1,0.1,0.1,0.2c0,0,0.1,0,0.1,0.1c0.3,0.3,0.7,0.6,1.2,0.8c0,0.1,0.1,0.1,0.2,0.1c0,0.3,0.3,0.6,0.7,0.4
						c2.4-1.7,4.8-2.5,7.5-2.2c0,0,0,0,0,0c0.2,0.1,0.5,0.1,0.7,0.1c0.1,0,0.2,0,0.3,0C51.7,76.4,52.4,76.6,53.1,76.5
						C53.1,76.6,53.1,76.5,53.1,76.5z"/>
					<path fill="#C48489" d="M53.3,77.7c-0.4-0.1-0.6,0.6-0.2,0.7c0.4,0.1,0.7,0.5,1.1,0.6c0.1,0,0.2-0.1,0.2-0.2
						C54.4,78.1,53.7,77.8,53.3,77.7z"/>
					<g>
						<path fill="#212120" d="M36.8,66.6c2.4,0,7.5-0.3,10.1-0.5c6.4-0.4,12.9-0.4,19.2-2.3c0.7-0.2,0.4-1.3-0.3-1.1
							c-9.6,3-19.3,1.7-28.8,3.3C36.9,66,36.8,66.6,36.8,66.6z"/>
					</g>
					<g>
						<path fill="#212120" d="M36.6,66.3c-1.6,11,8,16.3,17,14.6c7.2-1.3,14.2-9.7,12.7-17.7c-0.1-0.6-1.1-0.3-0.9,0.3
							c1.5,7.3-4.6,14-10.6,16.3c-9,3.4-18.4-3.1-17.6-13.4C37.2,65.9,36.6,65.9,36.6,66.3L36.6,66.3z"/>
					</g>
					<g>
						<path fill="#212120" d="M38.2,75.2c6.4-2.1,13.6-0.6,18.5,4.2c0.4,0.4,1.1-0.3,0.7-0.8C53.3,74,43.6,71,38.1,75
							C38,75.1,38.1,75.2,38.2,75.2L38.2,75.2z"/>
					</g>
				</g>
			</g>
			<g>
				<path fill="#212120" d="M39.8,96.8c-11.9,0.5-18.3,10-25.7,17.9c-0.2,0.3,0.1,0.7,0.4,0.5c4-3.5,7.2-8.1,10.5-11.1
					c4.7-4.3,9.3-6.1,14.9-6.6C40.3,97.5,40.2,96.8,39.8,96.8L39.8,96.8z"/>
			</g>
			<g>
				<path fill="#212120" d="M60.6,96.8c11.9,0.5,18.3,10,25.7,17.9c0.2,0.3-0.1,0.7-0.4,0.5c-4-3.5-7.2-8.1-10.5-11.1
					c-4.7-4.3-9.3-6.1-14.9-6.6C60.1,97.5,60.2,96.8,60.6,96.8L60.6,96.8z"/>
			</g>
			<g>
				<path fill="#212120" d="M41.7,96.5c-0.8-0.3-1.5-0.2-2,0.6c-0.4,0.8-0.3,1.8,0.2,2.5c0.1,0.2,0.5,0.1,0.4-0.2
					c-0.3-1-0.4-2.8,1.1-2.4C41.8,97.1,42,96.6,41.7,96.5L41.7,96.5z"/>
			</g>
			<g>
				<path fill="#212120" d="M59,96.5c0.2,0,0.5,0,0.7,0c0.3,0,0.3,0.2,0.3,0.4c0,0.3-0.1,0.5-0.2,0.8c-0.1,0.2-0.3,0.5-0.2,0.8
					c0,0.1,0.1,0.2,0.2,0.1c0.4-0.1,0.6-0.6,0.7-0.9c0.1-0.4,0.1-0.8,0-1.2C60.3,95.9,59.4,95.8,59,96.5
					C58.9,96.4,58.9,96.5,59,96.5L59,96.5z"/>
			</g>
		</g>
	</g>
</g>
<g id="globo">
</g>
</svg>
