<?xml version="1.0" encoding="utf-8"?>
<!-- Generator: Adobe Illustrator 17.0.0, SVG Export Plug-In . SVG Version: 6.00 Build 0)  -->
<!DOCTYPE svg PUBLIC "-//W3C//DTD SVG 1.1//EN" "http://www.w3.org/Graphics/SVG/1.1/DTD/svg11.dtd">
<svg version="1.1" xmlns="http://www.w3.org/2000/svg" xmlns:xlink="http://www.w3.org/1999/xlink" x="0px" y="0px" width="100px"
	 height="100px" viewBox="0 0 100 100" enable-background="new 0 0 100 100" xml:space="preserve">
<g id="capa1">
</g>
<g id="personajes">
	<g>
		<defs>
			<rect id="SVGID_31_" x="0" y="-150.1" width="100" height="100"/>
		</defs>
		<use xlink:href="#SVGID_31_"  overflow="visible" fill="#9CC766"/>
		<clipPath id="SVGID_2_">
			<use xlink:href="#SVGID_31_"  overflow="visible"/>
		</clipPath>
		<g clip-path="url(#SVGID_2_)">
			<path fill="#C79B66" d="M92.2,24.2c0-0.2-0.2-0.2-0.3,0c0,0.2,0,0.3-0.1,0.5l0-0.4L6.8,25c0-0.1,0-0.2,0-0.3c0-0.2-0.2-0.2-0.3,0
				c0,0.1,0,0.2,0,0.3l0,0l0,0.7c-0.4,8.1,0.9,16.5,1.6,24.5c0.7,7.7,1.4,15.2,2.9,22.8c2.6,13.1,6.2,26,7.9,39.3
				c0.2,1.5,11.9,1.7,21.1,3.1c11.4,1.6,9.5,3.6,10.2,3.5c2.2-0.4,3.6-2.7,7.6-3.5c1.5-0.3,6.6-0.6,11.6-1.3
				c4.7-0.7,9.4-1.7,9.4-1.7c0.3,0.1,0.7,0,0.8-0.4C82.2,99,85.1,86,87.7,73c1.4-7.2,2.1-14.4,2.8-21.7
				C91.3,42.4,92.8,33.1,92.2,24.2z"/>
			<path fill="#F7A827" d="M107.2-18.3c-3-16.1-17.7-30.3-32.1-36.9c0,0-18.3,0.1-24.4-0.3c-5.6-0.4-22-2.7-22-2.7
				C13.2-52-2.7-38.6-8.2-22.6C-11-14.5-10.2-5.9-8,2.3c1.8,6.9,5.8,16.9,12.4,20.6c0,0,0.7,1.5,2.3,2.1c5.8,2.3,11.5,3.6,17,4.9
				c38.6,9,69.5-6.1,69.5-6.1c0,0.1,0.2-0.5,0.3-0.6c6-3.3,9.3-11.9,11.4-18C107.6-2.3,108.7-10.3,107.2-18.3z"/>
			<path fill="#B17F49" d="M6.7,25.3c49.1,16.4,85.2-0.7,85.2-0.7C47.4,46.8,6.8,27.5,6.8,27.5L6.7,25.3z"/>
			<path fill="#F29313" d="M27.3-52c0,0-10.9,5.6-9.5,21.5S21.4-19.9,20-0.2c-1.9,26.7,54.1,29.7,54.1,29.7l0,0
				c0,0-28.5,10.7-68.5-4.7c0,0-0.6-0.9-0.9-1.9c0,0-23-19.3-9.9-52c0,0,7.5-17.8,34-29.1c0.1,0,0.4,0.2,0.5,0.1L27.3-52z"/>
			<path fill="#F29313" d="M90.9-20.4c0,0,6.8,27.8,12.8,28.4c0,0,0,0.9-3.5,8.3c-9.6,20.2,0,0,0,0s-5.1,6.9-6.8,6.6
				c-1.7-0.3,0,0,0,0s1.1-1.8,0.4-6.4c-0.7-4.6,0,0,0,0s2.3-28.3-6.6-48.1"/>
			<path fill="#B17F49" d="M59.7,44.6c0,0-0.8,6.7-1.9,9.8c-1.2,3,0.5,14.9,0.6,21.5c0,6.7-0.5,28.4-3.2,40.3l-5.1,2.6l-0.2-0.6
				c0,0,4.9-44.8,4.1-58.8L53.8,55C53.8,55,58.7,50.2,59.7,44.6z"/>
			<path fill="#B17F49" d="M6.5,25.7c-0.4,8.1,0.9,16.5,1.6,24.5c0.7,7.7,1.4,15.2,2.9,22.8c2.6,13.1,6.2,26,7.9,39.3
				c0.2,1.5-1.6,0,7.6,1.3c0,0-3-6.6-5.8-25.3c-0.7-4.5-3.4-21.3-1.6-44.9c0.3-3.8,3.2-8.2,5.2-12.1L6.5,25.7z"/>
			<g>
				<path fill="#1D1E1C" d="M6.5,24.9C6,33.3,7.3,42.1,8.1,50.4c0.7,7.7,1.4,15.2,2.9,22.8c2.6,13.1,5.3,26.2,7.9,39.3
					c0.2,0.8,1.4,0.5,1.2-0.3c-2.6-12.7-5.2-25.4-7.9-38.2C8.9,57.8,8.8,41.3,6.8,24.9C6.8,24.8,6.5,24.8,6.5,24.9L6.5,24.9z"/>
			</g>
			<g>
				<path fill="#1D1E1C" d="M91.9,24.4c-1.9,16.2-2,32.5-5.3,48.6c-2.6,13-5.6,25.9-8.3,38.9c-0.2,0.8,1,1.1,1.2,0.3
					c2.6-13,5.5-25.9,8.1-38.9c1.4-7.2,2.1-14.4,2.8-21.7c0.8-8.9,2.3-18.2,1.7-27.1C92.2,24.2,91.9,24.2,91.9,24.4L91.9,24.4z"/>
			</g>
			<g>
				<path fill="#1D1E1C" d="M50.2,118.1c4.1-20.7,2.8-42.2,4.6-63.1c0.1-0.8-1.1-0.8-1.2,0C52.1,76,52.4,97,49.9,118
					C49.9,118.2,50.1,118.2,50.2,118.1L50.2,118.1z"/>
			</g>
			<g>
				<path fill="#1D1E1C" d="M53.8,55c1.2-0.1,2.6-2.8,3.1-3.6c2.3-3.7,3.5-8,3.7-12.3c0-0.2-0.3-0.2-0.3,0c-0.7,4.2-1.8,8.3-4,12
					c-0.6,1-2.6,2.7-2.6,3.8C53.7,55,53.8,55,53.8,55L53.8,55z"/>
			</g>
			<g>
				<path fill="#1D1E1C" d="M20.3,31.5c-1.6,4.9-3.5,9-7.7,12.3c-0.2,0.1,0,0.4,0.2,0.3C16.7,42.2,20.5,35.9,20.3,31.5
					C20.4,31.5,20.3,31.5,20.3,31.5L20.3,31.5z"/>
			</g>
			<g>
				<path fill="#1D1E1C" d="M80.7,30C80.7,30,80.7,30,80.7,30c-0.1-0.1-0.3-0.1-0.3,0.1c-0.4,1.7,0.9,4,1.7,5.4
					c1.4,2.3,2.7,4.4,4.9,6c0.2,0.2,0.5-0.2,0.3-0.4c-1.7-1.9-2.8-3.3-4.3-5.3c-0.8-1.1-1.3-2.2-1.8-3.5
					C81.1,31.9,80.8,30.1,80.7,30L80.7,30z"/>
			</g>
			<g>
				<path fill="#1D1E1C" d="M85.6,44.6c-0.9,11.2-1.9,22-4.2,33c0,0.2,0.3,0.3,0.3,0.1C84.4,67.2,86.4,55.5,85.6,44.6
					C85.6,44.6,85.6,44.6,85.6,44.6L85.6,44.6z"/>
			</g>
			<g>
				<path fill="#1D1E1C" d="M18.9,43.5c-1.8,10.8-1,22.5,0.6,33.3c0,0.2,0.3,0.1,0.3,0C18.6,65.6,18.7,54.8,18.9,43.5
					C18.9,43.5,18.9,43.5,18.9,43.5L18.9,43.5z"/>
			</g>
			<g>
				<path fill="#1D1E1C" d="M75.4,110.8c0.8-1.1,0.9-2.5,1.1-3.8c0.5-2.5,1.2-5,1.7-7.5c1.3-5.6,2.5-11.3,3.1-17
					c0-0.3-0.4-0.3-0.5-0.1c-1,5.7-1.9,11.3-3.2,16.9c-0.8,3.6-1.1,7.9-2.4,11.3C75.2,110.9,75.4,110.9,75.4,110.8L75.4,110.8z"/>
			</g>
			<g>
				<path fill="#1D1E1C" d="M24.1,109.3c-0.5-4.6-1.1-9.1-1.6-13.7c-0.5-4.6-0.7-9.2-1.7-13.7c0-0.2-0.3-0.1-0.3,0
					c0,8.9,1.7,18.6,3.4,27.4C23.9,109.5,24.2,109.4,24.1,109.3L24.1,109.3z"/>
			</g>
			<path fill="#E0C0A2" d="M53.6,51.1c-1.3,0.7-1.9,1.6-2.4,2.6c-0.9,1.8-1,4.1-1.3,6c-0.3,2.2-0.2,13.7-0.5,20.7
				c-0.6,11.9-0.1,18.9-0.8,31.1c-0.1,1,1-1.4,1.4-5c1-11.1,0.8-15.1,1.7-26.2c0.4-5.4,0.6-19.8,0.5-21c0-1.5,0.2-3.4,0.5-4.5
				c0.3-1.2,0.8-1.6,1.4-2.6C54.6,51,54.1,50.8,53.6,51.1z"/>
			<g>
				<path fill="#1D1E1C" d="M28.9-58.5C13.2-52.3-2.6-39-8.1-22.7C-10.9-14.6-10.1-6-8,2.2c1.8,6.9,5.2,16.8,11.8,20.5
					c0.2,0.1,0.4-0.2,0.3-0.3C-6.9,10.3-12.3-7.7-7-23.6c5.7-17.1,21.7-26,36-34.8C29-58.4,29-58.5,28.9-58.5L28.9-58.5z"/>
			</g>
			<g>
				<path fill="#1D1E1C" d="M4.7,16.7C5.4,10.1,4.5,3.4,5-3.2C5.7-13.8,8.2-23.3,12.3-33c0.1-0.3-0.3-0.5-0.4-0.2
					C6.8-24.6,5.6-14.6,4.4-4.8C3.9-1.1,3.9,2.7,3.9,6.5c0,3.3-0.3,7,0.6,10.2C4.6,16.8,4.7,16.8,4.7,16.7L4.7,16.7z"/>
			</g>
			<g>
				<path fill="#1D1E1C" d="M4.5,16.9c6.9,4.3,15.4,6.1,23.2,7.7c9.1,1.9,18.1,3.1,27.4,2.1c7-0.8,14.1-2.5,21-4
					c5.7-1.2,12.4-2.8,17.4-5.8c0.3-0.2,0-0.7-0.3-0.5c-4.9,2.7-10.9,4.2-16.3,5.5c-7.1,1.6-14.5,3.2-21.8,4.1
					c-8.8,1.1-17.4-0.2-26.1-1.9c-8.3-1.6-16.7-3.7-24.2-7.7C4.5,16.3,4.2,16.7,4.5,16.9L4.5,16.9z"/>
			</g>
			<g>
				<path fill="#1D1E1C" d="M4.4,16.5c-1.1,2.1-0.5,6.5,1.2,8.2c0.1,0.1,0.4,0,0.3-0.2c-0.3-1.4-1-2.6-1.2-4c-0.2-1.4-0.1-2.6,0-4
					C4.6,16.5,4.4,16.4,4.4,16.5L4.4,16.5z"/>
			</g>
			<g>
				<path fill="#1D1E1C" d="M5.6,24.8c5.4,2.5,11.5,3.8,17.3,5.1c7.2,1.7,14.6,3.2,22,3.3c8.2,0.1,16.7-0.5,24.7-2.1
					c4.6-0.9,9.2-2.3,13.8-3.5c3.3-0.9,6.8-1.8,9.8-3.4c0.3-0.2,0-0.6-0.3-0.5C86,27,77.8,28.6,70.4,30.3
					c-8.2,1.9-17.1,2.3-25.5,2.3C31.8,32.5,18,28.7,5.7,24.5C5.5,24.4,5.4,24.7,5.6,24.8L5.6,24.8z"/>
			</g>
			<g>
				<path fill="#1D1E1C" d="M75-55.3C88.2-46,101.6-37,106.1-20.4c2.1,7.7,1,15.7-1.2,23.2c-2.3,7.9-6.1,14-11.5,20
					c-0.2,0.2,0,0.5,0.3,0.3c6-3.3,9.3-11.9,11.4-18c2.7-7.6,3.8-15.6,2.3-23.6c-3-16.2-17.8-30.4-32.3-37
					C74.9-55.4,74.9-55.3,75-55.3L75-55.3z"/>
			</g>
			<g>
				<path fill="#1D1E1C" d="M93.4,16.7c0.9-3.2,0.6-6.9,0.7-10.2c0.1-3.8,0-7.6-0.4-11.3c-1-9.7-2.4-19.9-7.5-28.4
					c-0.2-0.3-0.5,0-0.4,0.2c1.9,4.5,3.8,8.9,5,13.7c1.2,5,1.8,10.2,2.3,15.2c0.7,6.9-0.5,13.9,0.1,20.7
					C93.2,16.8,93.4,16.8,93.4,16.7L93.4,16.7z"/>
			</g>
			<g>
				<path fill="#1D1E1C" d="M93.5,16.6c0.1,1.2,0.2,2.4,0.1,3.6c-0.1,1.2-0.7,2.5-0.6,3.7c0,0.2,0.2,0.2,0.4,0.1
					c0.7-1,0.7-2.6,0.9-3.8c0.1-1.2,0.2-2.6-0.4-3.7C93.7,16.4,93.5,16.5,93.5,16.6L93.5,16.6z"/>
			</g>
			<g>
				<path fill="#1D1E1C" d="M7.2,21c-0.3,0.6-0.1,1.6,0.3,2.1c0.1,0.1,0.2,0,0.2-0.1c0-0.3,0-0.6-0.1-0.9c-0.1-0.4,0-0.7-0.1-1.1
					C7.4,20.9,7.2,20.8,7.2,21L7.2,21z"/>
			</g>
			<g>
				<path fill="#1D1E1C" d="M9.6,21.9c-0.2,0.3-0.3,0.6-0.3,0.9c0,0.3,0,0.8,0.3,1c0.1,0,0.2,0.1,0.2,0c0.1-0.3,0-0.5,0-0.8
					c0-0.3,0-0.7-0.1-1C9.7,21.9,9.7,21.9,9.6,21.9L9.6,21.9z"/>
			</g>
			<g>
				<path fill="#1D1E1C" d="M12.1,23c-0.3,0.5-0.3,1.5,0.2,1.9c0,0,0.1,0,0.2,0c0.1-0.2,0.1-0.4,0.1-0.7c-0.1-0.4,0-0.7,0-1.1
					C12.5,23,12.2,22.9,12.1,23L12.1,23z"/>
			</g>
			<g>
				<path fill="#1D1E1C" d="M14.7,24.3c-0.1,0.5-0.1,1,0.2,1.4c0,0.1,0.2,0.1,0.2,0c0.2-0.4,0.3-1.1,0-1.5
					C15.1,24,14.8,24,14.7,24.3L14.7,24.3z"/>
			</g>
			<g>
				<path fill="#1D1E1C" d="M17.9,24.5c-0.2,0.3-0.2,0.6-0.2,1c0,0.4-0.1,0.8,0.3,1c0.1,0,0.2,0,0.2-0.1c0.2-0.3,0.1-0.7,0.1-1
					c0-0.3,0-0.7-0.2-1C18,24.5,17.9,24.5,17.9,24.5L17.9,24.5z"/>
			</g>
			<g>
				<path fill="#1D1E1C" d="M20.7,25.5c0,0.6-0.1,1.4,0.2,1.9c0,0.1,0.1,0.1,0.2,0.1c0.6,0,0.1-1.8,0-2.1
					C21,25.3,20.7,25.3,20.7,25.5L20.7,25.5z"/>
			</g>
			<g>
				<path fill="#1D1E1C" d="M23.6,26.1c-0.2,0.2-0.1,0.7-0.1,1c0,0.3,0.1,0.6,0.4,0.8c0.1,0,0.1,0,0.1-0.1c0.1-0.3,0-0.6,0-0.9
					c0-0.3,0-0.6-0.2-0.8C23.8,26,23.7,26,23.6,26.1L23.6,26.1z"/>
			</g>
			<g>
				<path fill="#1D1E1C" d="M29.9,27.5c-0.2,0.6-0.2,1.4,0.2,2c0,0.1,0.2,0.1,0.2,0c0.1-0.6,0.1-1.3-0.1-1.9
					C30.2,27.4,30,27.4,29.9,27.5L29.9,27.5z"/>
			</g>
			<g>
				<path fill="#1D1E1C" d="M26.6,26.6c-0.2,0.6-0.2,1.4,0.2,2c0,0.1,0.2,0.1,0.2,0c0.1-0.6,0.1-1.3-0.1-1.9
					C26.9,26.5,26.7,26.5,26.6,26.6L26.6,26.6z"/>
			</g>
			<g>
				<path fill="#1D1E1C" d="M33.3,27.9c-0.4,0.5-0.4,1.7,0.2,2c0.1,0,0.1,0,0.2-0.1c0.1-0.3,0-0.6,0-0.8c-0.1-0.3,0-0.7-0.1-1
					C33.6,27.9,33.4,27.8,33.3,27.9L33.3,27.9z"/>
			</g>
			<g>
				<path fill="#1D1E1C" d="M36.7,28.4c-0.2,0.3-0.2,0.7-0.2,1c0,0.3,0,0.8,0.3,0.9c0.1,0,0.1,0,0.2,0c0.2-0.2,0.1-0.5,0.1-0.8
					c0-0.4,0-0.7-0.1-1.1C36.9,28.4,36.8,28.3,36.7,28.4L36.7,28.4z"/>
			</g>
			<g>
				<path fill="#1D1E1C" d="M39.9,28.7c-0.1,0.4-0.1,0.9-0.1,1.3c0,0.4,0,0.7,0.4,0.9c0.1,0,0.2,0,0.2-0.1c0.2-0.3,0.1-0.7,0.1-1
					c0-0.4,0-0.8-0.3-1.1C40.1,28.6,40,28.6,39.9,28.7L39.9,28.7z"/>
			</g>
			<g>
				<path fill="#1D1E1C" d="M43.5,29.1c-0.2,0.3,0,0.8,0,1.2c0,0.4,0,0.9,0.4,1.2c0.1,0,0.1,0.1,0.2,0c0.3-0.4,0.2-0.8,0.1-1.2
					c0-0.4-0.1-0.9-0.4-1.2C43.8,29,43.6,29,43.5,29.1L43.5,29.1z"/>
			</g>
			<g>
				<path fill="#1D1E1C" d="M47.7,29c-0.2,0.3-0.2,0.8-0.2,1.1c0,0.3-0.2,0.9,0.2,1c0.6,0.2,0.3-1.8,0.2-2.1
					C47.8,29,47.7,28.9,47.7,29L47.7,29z"/>
			</g>
			<g>
				<path fill="#1D1E1C" d="M50.9,29.1c0,0.3-0.2,2.4,0.4,2.3c0.4-0.1,0.2-0.7,0.2-1c0-0.2,0-0.4-0.1-0.7c0-0.3-0.2-0.4-0.3-0.7
					C50.9,29,50.9,29.1,50.9,29.1L50.9,29.1z"/>
			</g>
			<g>
				<path fill="#1D1E1C" d="M54.3,29c-0.1,0.3-0.1,0.6-0.1,0.9c0,0.4,0,0.8,0.1,1.2c0,0.1,0.1,0.2,0.2,0.2c0.1,0,0.1,0,0.2,0
					c0.1,0,0.2-0.1,0.2-0.3c0-0.4-0.1-0.7-0.1-1.1c0-0.3,0-0.6-0.2-0.9C54.5,28.9,54.3,28.9,54.3,29L54.3,29z"/>
			</g>
			<g>
				<path fill="#1D1E1C" d="M57.5,28.5c-0.1,0.4,0,0.9,0,1.3c0,0.1,0,1,0.3,0.9c0.4-0.2,0.4-0.7,0.3-1.1c0-0.4,0-1-0.4-1.2
					C57.6,28.4,57.5,28.4,57.5,28.5L57.5,28.5z"/>
			</g>
			<g>
				<path fill="#1D1E1C" d="M60.1,28.3c0,0.3,0,0.7,0,1c0,0.4-0.1,0.7,0,1.1c0,0.2,0.3,0.2,0.4,0.1c0.3-0.6,0.3-1.8-0.3-2.2
					C60.1,28.1,60,28.2,60.1,28.3L60.1,28.3z"/>
			</g>
			<g>
				<path fill="#1D1E1C" d="M63.1,27.9c0,0.4,0.1,0.8,0.1,1.2c0,0.3-0.1,0.9,0.3,1c0,0,0.1,0,0.1,0c0.3-0.2,0.2-0.8,0.2-1.2
					c0-0.4,0-0.9-0.4-1.2C63.3,27.7,63.1,27.7,63.1,27.9L63.1,27.9z"/>
			</g>
			<g>
				<path fill="#1D1E1C" d="M66.5,27.2c-0.2,0.3-0.1,0.7,0,1.1c0,0.3,0,0.8,0.2,1c0,0,0.1,0,0.2,0c0.2-0.3,0.1-0.7,0.1-1
					c-0.1-0.4-0.1-0.8-0.3-1.2C66.6,27.2,66.5,27.2,66.5,27.2L66.5,27.2z"/>
			</g>
			<g>
				<path fill="#1D1E1C" d="M69.2,26.9c-0.1,0.3,0,0.6,0,0.9c0,0.3-0.1,0.6,0,1c0,0.2,0.2,0.2,0.3,0c0.3-0.5,0.2-1.5-0.1-2
					C69.4,26.8,69.2,26.8,69.2,26.9L69.2,26.9z"/>
			</g>
			<g>
				<path fill="#1D1E1C" d="M71.8,26.2c0,0.6-0.1,1.3,0.1,2c0.1,0.3,0.6,0.2,0.6-0.1c0-0.6-0.1-1.4-0.5-1.9
					C72,26.1,71.8,26.1,71.8,26.2L71.8,26.2z"/>
			</g>
			<g>
				<path fill="#1D1E1C" d="M74.4,25.6c0,0.3,0,0.7,0,1c0,0.2,0,0.4,0,0.6c0,0.2,0.1,0.3,0.1,0.5c0,0.1,0.2,0.1,0.3,0
					c0.2-0.4,0.2-0.7,0.2-1.1c0-0.4-0.1-0.8-0.3-1.1C74.6,25.4,74.4,25.5,74.4,25.6L74.4,25.6z"/>
			</g>
			<g>
				<path fill="#1D1E1C" d="M77.1,25C77,25.3,77,25.8,77,26.2c0,0.3-0.1,0.9,0.3,1.1c0.1,0,0.1,0,0.2,0c0.3-0.2,0.1-0.7,0.1-1
					c0-0.4,0-0.9-0.2-1.2C77.3,24.8,77.1,24.9,77.1,25L77.1,25z"/>
			</g>
			<g>
				<path fill="#1D1E1C" d="M79.6,24.3c-0.1,0.3-0.1,0.7,0,1c0,0.3,0,0.6,0.3,0.8c0.1,0,0.1,0,0.2,0c0.1-0.2,0.1-0.4,0-0.7
					c-0.1-0.4-0.1-0.7-0.2-1.1C79.8,24.1,79.6,24.1,79.6,24.3L79.6,24.3z"/>
			</g>
			<g>
				<path fill="#1D1E1C" d="M82,23.8c-0.1,0.3,0,0.7-0.1,1c0,0.3,0,0.5,0.2,0.8c0,0.1,0.2,0.1,0.2,0c0.2-0.2,0.2-0.5,0.2-0.8
					c0-0.3,0-0.7-0.1-1C82.3,23.6,82,23.6,82,23.8L82,23.8z"/>
			</g>
			<g>
				<path fill="#1D1E1C" d="M84.5,23c-0.1,0.3-0.1,0.6-0.2,0.9c0,0.3-0.1,0.8,0.1,1c0.1,0.1,0.2,0.1,0.2,0c0.2-0.2,0.2-0.5,0.2-0.8
					c0-0.4,0-0.7-0.2-1C84.7,22.9,84.5,22.9,84.5,23L84.5,23z"/>
			</g>
			<g>
				<path fill="#1D1E1C" d="M86.8,22.2c-0.1,0.3,0,0.6,0,0.8c0,0.3-0.1,0.7,0.1,0.9c0.1,0.1,0.2,0.1,0.3,0c0.3-0.4,0.3-1.5-0.1-1.9
					C87.1,22,86.8,22.1,86.8,22.2L86.8,22.2z"/>
			</g>
			<g>
				<path fill="#1D1E1C" d="M89.2,21.6c-0.1,0.2-0.1,0.6-0.1,0.9c0,0.4-0.1,0.7,0.1,1c0.1,0.1,0.3,0.1,0.4,0
					c0.1-0.4,0.1-0.8,0.1-1.2C89.7,22,89.6,21.6,89.2,21.6C89.3,21.6,89.2,21.6,89.2,21.6L89.2,21.6z"/>
			</g>
			<g>
				<path fill="#1D1E1C" d="M91.3,20.6c-0.1,0.3-0.1,0.6-0.1,0.9c0,0.3-0.1,0.7,0,1c0.1,0.1,0.2,0.2,0.3,0.1c0.3-0.3,0.3-0.6,0.3-1
					c0-0.3,0-0.7-0.2-1C91.6,20.5,91.4,20.5,91.3,20.6L91.3,20.6z"/>
			</g>
			<g>
				<path fill="#1D1E1C" d="M94.8,22.5c0.3-0.2,0.5-0.5,0.5-0.9c0-0.1-0.1-0.1-0.2-0.1c-0.3,0.1-0.5,0.6-0.5,0.9
					C94.6,22.5,94.7,22.5,94.8,22.5L94.8,22.5z"/>
			</g>
			<g>
				<path fill="#FCCC81" d="M84.6-30.1c3.3,12.6,5.7,29.8,5,45.2c0,0.4,0.5,0.7,0.6,0.1c2.2-16.9,1-32.3-5-45.3
					C84.7-31.1,84.5-30.6,84.6-30.1z"/>
			</g>
			<g>
				<path fill="#E0C0A2" d="M87.8,42.9c0.3,13-6.8,53.1-11,67.8c-0.1,0.4,0.5,0.2,0.5,0.2c4.7-16,12.5-52.7,12.2-68.1
					C89.5,41.9,87.8,42.4,87.8,42.9z"/>
			</g>
		</g>
	</g>
	<g>
		<defs>
			<rect id="SVGID_39_" x="0" y="0" width="100" height="100"/>
		</defs>
		<use xlink:href="#SVGID_39_"  overflow="visible" fill="#EE6F49"/>
		<clipPath id="SVGID_4_">
			<use xlink:href="#SVGID_39_"  overflow="visible"/>
		</clipPath>
		<g clip-path="url(#SVGID_4_)">
			<g>
				<path fill="#2F1D19" d="M16.6,46.3c0,0,0.5-35,22-35.7c0,0,13.1,2.7,26.5-1.6c0,0,6.1-1.7,9.6,2.3c2.1,2.4,5.8,5,8.4,12.6
					c1.7,5.1,2.7,12.3,2.7,23.2l-5.3,9.1l-59.7-3.2L16.6,46.3z"/>
				<path fill="#1F1412" d="M22.6,52.8c0.4-1,0.8-2,1.4-3c0.2-0.9,0.5-1.8,0.8-2.6c0.2-1.5,0.3-3,0.4-4.5c-0.1-0.9-0.3-1.8-0.5-2.7
					c-0.2-0.9,0.3-1.6,0.9-2c0.1-0.2,0.1-0.4,0.2-0.5c0,0,0,0,0,0c0-0.1,0-0.2,0-0.3c0-0.1,0-0.1,0-0.2c-0.3-1.4-0.6-2.9-0.7-4.4
					c-0.1-0.1-0.1-0.2-0.2-0.3c-0.2-0.5-0.4-1-0.6-1.6c-0.6-0.6-1.2-1.1-1.7-1.7c-0.8-0.9-1.5-1.9-2.1-3.1
					c-3.8,9.7-4.1,20.6-4.1,20.6l4.4,6.7l1.5,0.1C22.4,53.1,22.5,53,22.6,52.8z"/>
				<path fill="#1F1412" d="M85.8,46.1c-2.7,0-5.6,1-8.3,1.1c-0.2,0-0.5,0-0.7,0c-0.4,1.9-0.9,3.9-1,5.9c0,1.2-0.4,2.2-0.9,3
					l5.6,0.3l5.3-9.1C85.8,46.9,85.8,46.5,85.8,46.1z"/>
				<path fill="#F3B980" d="M89.5,53.1c-0.2-2.2-3.1-6.8-5.7-5.4c-0.1,0,0,0.2,0,0.2c0,0,0.1,0,0.1,0c-1.6,1.1-2,3.1-2.7,4.9
					c-0.1-0.3-0.4-0.6-0.5-0.9c-0.2-0.9-0.6-3.5-0.7-4.4c0,0,0,0,0,0c0,0,0-0.1,0-0.1c-0.6-2.5-1.1-4.9-1.4-7.5
					c-0.3-2-0.2-4.2-0.6-6.2c0.7-7.9-9.7-7.1-15.3-5.9c-2.9,0.2-5.7,0.8-8.7,0.7c-2.8-0.1-5.6-1-8.4-1.3c-4.4-0.5-9.4-1.2-13.5,0.7
					c0,0,0,0,0,0c-2.5,0.8-4.5,2.7-5.7,5.1c-2,3.9-1.4,8.3-2.4,12.4c-0.2,0.7-0.3,2.2-0.3,2.1c0,0,0,0.6-0.2,0.3
					c0,0-0.4,2.5-0.7,3.4c-0.3,1.1-1.2,2.3-1.2,2.3c0.1-1.1-0.3-2.5-0.6-3.4c-0.4-1.2-0.9-2.4-1.9-3.1c0,0-0.1,0-0.1-0.1
					c0,0,0,0,0,0c-1.2-1.2-3.2,0-4.3,0.8c-1.7,1.2-2,3.3-2.1,5.3c-0.2,4,2.8,7.8,6.8,6.7c0,0,0.3-0.1,0.4-0.1c0-0.2,0-0.4,0-0.6
					c0,0-0.1,0-0.1,0c0.2-0.9,0.1-3.2,0-4.7c0.1,1.5,0.3,3,0.4,4.5c-0.1,0-0.2,0.1-0.3,0.1c0,0,0.2,0,0.3,0c0.7,8,1.5,16.5,5.8,23.3
					c5.3,8.6,16,13.5,25.8,12.9c9.5-0.5,19.3-5.6,24.7-13.9c0.4-0.6,0.8-1.3,1.1-1.9c2.1-3.1,3.4-6.6,4.5-10.2
					c0.7-2.4,1.1-5.3,1.5-8.2c0-0.1,0-0.1,0-0.2C87.5,60.5,89.9,57,89.5,53.1z M83.7,58.3c0,0.2,0,0.4,0,0.6
					C83.4,58.9,83.4,58.5,83.7,58.3z M18.9,47.2C18.8,47.2,18.8,47.3,18.9,47.2C18.8,47.2,18.9,47.2,18.9,47.2z M82.9,56.5
					c0-0.3,0.2-0.4,0.4-0.3c0,1.6-0.1,3.3-0.3,5c0,0.1,0,0.1,0,0.2c-0.2,1.4-0.4,2.7-0.6,4.1C82.8,62.4,83,59.4,82.9,56.5z"/>
				<g>
					<path fill="#FFD600" d="M41.4,102.3C41.4,102.3,41.5,102.3,41.4,102.3c2.5,0.7,4.5,4.1,5.6,6.1c0.9,1.7,2.1,3.9,2.5,6
						c0.8-4.5,4-9.5,7.5-11.9c-0.3-1.1-0.2-2.4-0.1-3.5c0.1-1.3,0.1-2.6,0.2-3.9c-2.1,0.4-4.2,0.6-6.3,0.6c-2.8-0.1-5.8-0.5-8.7-1.4
						C42.2,96.8,42.1,99.8,41.4,102.3z"/>
					<path fill="#FFD600" d="M36.3,96.3c-1,1.1-1.9,2.4-2.6,3.6c-0.8,1.3-1.4,2.7-2,4.2c0,0.1-0.3,1.1-0.6,1.7c1-1,2.6-1.4,3.8-2
						c2-1,4-1.9,6.2-1.7c0-1.3,0.3-2.6,0.4-3.9c0.1-1.3,0.1-2.6,0.3-3.9c-0.6-0.2-1.2-0.4-1.8-0.6c0,0,0,0,0,0
						C38.7,94.6,37.4,95.1,36.3,96.3z"/>
					<path fill="#FFD600" d="M57.5,99c0,1.1,0.1,2.2,0,3.3c2.7,0.4,6.4,1.3,8.4,3.4c-0.8-4.2-2.8-9.4-6.8-11.1
						c-0.5,0.2-1.1,0.3-1.6,0.4C57.6,96.4,57.5,97.7,57.5,99z"/>
					<path fill="#FFD600" d="M41.9,94.2c0-0.1-0.1-0.1-0.1,0c0,0,0,0.1,0,0.1c0,0,0.1,0,0.1,0C41.9,94.3,41.9,94.3,41.9,94.2z"/>
					<path fill="#FFD600" d="M41.1,102.1c0,0,0.1,0,0.1,0c0.1,0,0.2,0.1,0.2,0.2c0.6-2.4,0.8-5.5,0.4-7.9c0,0-0.1,0-0.1,0
						c-0.2,1.3-0.2,2.6-0.3,3.9C41.3,99.5,41.1,100.8,41.1,102.1z"/>
					<path fill="#FFD600" d="M56.9,102.5C56.9,102.5,57,102.4,56.9,102.5c0.1-0.2,0.2-0.3,0.3-0.2c0.1,0,0.2,0,0.3,0
						c0.1-1.1,0-2.2,0-3.3c0-1.3,0.1-2.7,0-4c-0.2,0-0.3,0.1-0.5,0.1c-0.1,1.3-0.1,2.6-0.2,3.9C56.7,100.1,56.6,101.4,56.9,102.5z"
						/>
					<path fill="#FFD600" d="M57.5,94.9c0-0.3-0.5-0.2-0.5,0.1c0,0.1,0,0.1,0,0.2c0.2,0,0.3-0.1,0.5-0.1
						C57.5,95,57.5,94.9,57.5,94.9z"/>
					<path fill="#FFD600" d="M39.8,93.4c-0.1,0-0.3,0.1-0.4,0.1c0.2,0.1,0.3,0.1,0.5,0.2C40.1,93.6,40,93.4,39.8,93.4z"/>
					<path fill="#FFD600" d="M33.4,100.1c-0.2,0-0.4,0-0.5,0c-1.2,2-2.4,4.5-2.3,6.4c0,0.1,0.1,0.1,0.1,0c-0.1,0-0.1-0.1-0.1-0.1
						c0.1-0.2,0.3-0.4,0.4-0.5c0.3-0.6,0.6-1.6,0.6-1.7c0.5-1.5,1.2-2.8,2-4.2c0.8-1.3,1.6-2.5,2.6-3.6c1-1.2,2.4-1.7,3.6-2.6
						c0,0,0,0,0,0c-0.2-0.1-0.3-0.1-0.5-0.2c-2.4,0.7-4.1,2.7-5.5,4.8c-0.2,0.3-0.5,0.7-0.7,1.2c0.1,0,0.1,0,0.2,0
						C33.8,99.5,33.8,100.1,33.4,100.1z"/>
					<path fill="#FFD600" d="M65.9,105.7c0.2,0.2,0.4,0.4,0.5,0.6c0,0,0,0,0,0.1c0.1-1.7-0.4-3.4-1.1-5c-0.1,0-0.2,0-0.3-0.1
						c-0.1,0-0.1-0.2,0-0.2c0.1,0,0.1,0,0.2,0c-0.5-1.2-1.2-2.3-1.8-3.4c-0.7-1.2-2.1-3-3.6-3.3c-0.2,0.1-0.5,0.1-0.7,0.2
						C63.1,96.4,65.2,101.5,65.9,105.7z"/>
					<path fill="#FFD600" d="M58.9,94.4c-0.1,0-0.1,0.1,0,0.1c0.1,0,0.1,0.1,0.2,0.1c0.2-0.1,0.5-0.1,0.7-0.2
						C59.5,94.3,59.2,94.3,58.9,94.4z"/>
					<path fill="#FFD600" d="M1.2,127.9C1.2,127.9,1.2,127.9,1.2,127.9c0.1,0.1,0.1,0.3,0.2,0.4c0-0.1,0.1-0.1,0-0.2
						c-1.7-2.4,5.8-11.6,7.2-13.5c2.6-3.5,6.1-6.3,9.7-8.7c4-2.7,9.6-5.9,14.5-5.9c0.1-0.2,0.2-0.4,0.3-0.5
						c-4.8-0.2-10,2.9-14.1,5.3c-4.2,2.5-8.3,5.8-11.2,9.8c-1.1,1.5-8.4,10.8-7.1,13.4c0-0.1,0-0.1,0.1-0.2
						C1,127.6,1.2,127.7,1.2,127.9z"/>
					<path fill="#FFD600" d="M33.4,100.1c0.3,0,0.3-0.5,0-0.5c-0.1,0-0.1,0-0.2,0c-0.1,0.2-0.2,0.4-0.3,0.5
						C33.1,100.1,33.3,100.1,33.4,100.1z"/>
				</g>
				<g>
					<path fill="#F3B980" d="M141.3,73.1c0.2-0.8,2.9-6.2,1.5-6.9c-0.4,0.1-0.7,0.1-1.1,0.3c-0.3,0.2-0.6,0.5-0.9,0.8
						c-0.4,0.5-0.8,1-1.2,1.4c-0.1,0.2-0.2,0.4-0.3,0.6c-0.1,0.1-0.2,0-0.3-0.1c-0.3-0.9,0.2-2.4,0.3-3.3c0.1-0.4,0.1-0.9,0-1.3
						c-0.1-0.5-0.4-0.7-0.8-1c-0.9,0.4-1.4,1.4-1.7,2.3c-0.2,0.5-0.3,1.4-0.7,1.9c0,0,0,0,0,0c0,0-0.1,0.1-0.1,0.1c0,0-0.1,0-0.1,0
						c0,0,0,0,0-0.1c0,0,0,0,0,0c-0.4-0.9-0.2-2.1-0.1-3.1c0.1-0.5,0.5-2.1,0-2.4c0,0,0,0,0,0c-1.9-0.4-3.2,3.3-3.9,4.7
						c0,0-0.1,0-0.1,0c0,0,0-0.1,0-0.1c0,0-0.1,0-0.1-0.1c-0.2-0.7,0-1.6,0-2.3c0-1-0.1-2.2-1.1-2.6c0,0,0,0,0,0
						c-1.7,0.6-2.3,2.9-2.6,4.5c-0.2,0.8-0.3,1.7-0.4,2.5c0,0.2,0,0.3,0,0.5c0.3,0.2,0.5,0.5,0.7,0.7c0,0.1,0,0.2-0.1,0.2
						c-1-0.3-1.9-1-3-1.2c-0.6-0.1-1.8-0.4-2.3,0.3c-0.6,0.7-0.2,1.9,0.2,2.6c1,1.8,3.1,4.3,2.4,6.5c0,0,0,0.1,0,0.2
						c0,3.5-2.5,8.2-4.4,10.9c-2.5,3.6-5.5,6.8-8.9,9.4c-3.8,2.8-8,6.1-12.5,7.7c-1.7,0.6-4.4,1.8-6.3,1.5c0.8,2.5,0.1,5.9,0.3,8.5
						c0.3,3.7,1.2,7.1,2,10.7c6.3-0.9,13.6-4.8,18.9-8.3c5.7-3.8,10.4-8.8,14.1-14.7c3.4-5.6,6.1-11.6,8.3-17.8
						c1.5-4.3,2.5-9.1,4.5-13.2C141.4,73.3,141.3,73.2,141.3,73.1z M133.4,75.9c-1.1-1.9-2.2-3.5-4-4.7c-0.1-0.1,0-0.2,0.1-0.2
						c1.9,0.7,3.8,2.7,4.3,4.7C133.8,76,133.5,76.1,133.4,75.9z"/>
					<path fill="#F3B980" d="M93.3,107.8c0,0.1,0,0.1,0.1,0.2c1.9,0.3,4.7-0.9,6.3-1.5c4.5-1.6,8.7-4.8,12.5-7.7
						c3.5-2.6,6.5-5.7,8.9-9.4c1.9-2.8,4.4-7.4,4.4-10.9c0-0.1,0-0.1,0-0.2c-0.1,0.2-0.1,0.5-0.3,0.7c0,0.1-0.1,0-0.1,0
						c0-0.3,0-0.5-0.1-0.7c0,0-0.1,0.1-0.1,0.2c-1.6,8.5-7.4,15.6-14.1,20.6c-3.2,2.4-6.6,4.6-10.1,6.4c-2.5,1.3-5.2,1.4-7.9,2.3
						c-0.1,0-0.1,0.1,0,0.2c0.1,0,0.1,0,0.2,0c0,0,0-0.1,0-0.1C93.1,107.7,93.3,107.6,93.3,107.8z"/>
					<path fill="#F3B980" d="M142.2,72.1c-0.2,0.4-0.4,0.8-0.6,1.1c0,0,0,0.1-0.1,0.1c-2,4.1-3,8.9-4.5,13.2
						c-2.2,6.2-4.9,12.2-8.3,17.8c-3.6,5.9-8.4,10.9-14.1,14.7c-5.3,3.5-12.6,7.4-18.9,8.3c0,0.1,0.1,0.2,0.1,0.3
						c0.1,0.3-0.3,0.5-0.5,0.2c0-0.1-0.1-0.1-0.1-0.2c0,0.2,0.1,0.4,0.3,0.4c2.4-0.1,5.2-1.5,7.5-2.3c3.4-1.3,6.7-3,9.9-4.7
						c5.4-2.9,10.1-7.3,13.8-12.3c3.9-5.3,6.9-11.2,9.4-17.3c2.6-6.2,3.6-12.6,6-18.9C142.1,72.3,142.3,72,142.2,72.1z"/>
				</g>
				<path fill="#F8B032" d="M52.1,164.2c0.2-2.1,0.6-4,1.4-6c0.4-1,0.7-2,0.8-3c-0.2-1.8-0.6-3.7-1.3-5.5c-0.3-0.8-0.7-1.5-1.1-2.2
					c-6.7-3.7-10.6-10.7-10.4-18.5c0.1-2.4,0.3-4.7,0.8-7c0.4-2,1.3-4.1,1.4-6.2c0.2-4.3-0.8-8.5-1.6-12.8c0-0.1,0-0.1,0-0.2
					c-1.1-0.8-2.3-1.1-3.8-0.5c-0.8,0.3-3.3,0.9-3.8,1.8c-0.2,0.3-0.6,0.3-0.7,0c0,0,0-0.1-0.1-0.1c-0.2-0.3,0-0.5,0.2-0.7
					c1.9-1.4,5.2-3.3,7.7-2.7c-0.1-0.2-0.1-0.4-0.1-0.6c0-0.7,0.1-1.3,0.2-2c0-0.4,0-0.8,0-1.3c0-0.3,0.1-0.5,0.2-0.7
					c0-0.1-0.1-0.2-0.1-0.3c0,0,0-0.1-0.1-0.1c-0.4-0.6-0.4-1.2-0.2-1.6c0,0,0,0,0,0c0,0,0,0.1,0,0.1c-0.6-0.2-1.2-0.4-1.8-0.6
					c0.1-0.1,0-0.3-0.1-0.3c-0.1,0-0.3,0.1-0.4,0.1c-2.4,0.7-4.1,2.7-5.5,4.8c-0.2,0.3-0.5,0.7-0.7,1.2c-4.8-0.2-10,2.9-14.1,5.3
					c-4.2,2.5-8.3,5.8-11.2,9.8c-1.1,1.5-8.4,10.8-7.1,13.4c-0.8,1.8-1.1,3.9-0.7,5.8c0,0,0,0.1,0,0.1c0,0.1,0,0.1,0.1,0.2
					c3,3,7.3,5,11.6,6.3c-1.5-0.6-3.7-1.6-4.5-2.1c-0.2,0-0.3-0.1-0.5-0.1l0,0c-0.1,0.1-0.3,0.1-0.4,0c0,0,0,0,0,0
					c-0.1-0.1-0.1-0.1-0.2-0.2c-0.5-0.2-1-0.5-1.4-0.7c-0.2-0.1-0.2-0.5,0.1-0.5c0.8,0.1,1.4,0.5,2.2,0.6c0.4,0.1,0.8,0.1,1.1,0.3
					c1.5,0.4,2.9,1,4.5,1.1c1.3,0.1,2.7,0.2,4,0.6c0.2,0,0.4,0,0.6,0c0,0,0,0,0.1,0c0.3,0,0.5,0,0.8,0c0.7,0,0.7,1.1,0,1.1
					c-0.1,0-0.2,0-0.3,0c0,0.3-0.1,0.5-0.4,0.7c-0.3,0.2-0.7,0.3-1.1,0.3c0.2,0,0.5,0.1,0.7,0.1c-0.5,2.9,0.7,24.9,1.1,26.4
					c0.4,1.6,1,4,2.3,5.2c0.1,0.1,0.2,0.1,0.2,0c6.6,3.2,14.2,4.8,21.5,5.4c0,0,0,0,0,0c0.1,0.1,0.2,0.1,0.2-0.1l0.1-1.6
					c1.6,0.2,3.2-0.1,4.7-0.2c1.8-0.2,3.5,0,5.2,0.2c0,0.1,0,0.1,0.1,0.1c0-0.2-0.1-0.5-0.1-0.7c-0.2-0.2-0.4-0.5-0.5-0.8
					c-0.3-0.9-0.3-2-0.1-3.1c-0.5-2-0.3-4.4,0.2-6.6C52,165.3,52,164.8,52.1,164.2z M20.7,124.9c0,0.2-0.4,0.2-0.4-0.1
					c0-2-0.1-4-0.2-6c-0.4,2.4-0.3,5-0.3,7.4c0,1.4-0.2,2.8-0.4,4.2c0.1,0,0.2,0.1,0.2,0.2c0,0.6,0,1.1-0.1,1.7
					c0.1,0,0.1,0.1,0.1,0.1c0.1,1-0.1,2-0.2,2.9c-0.1,0.8,0,1.6-0.3,2.3c0,0.2-0.3,0.2-0.3,0c-0.2-0.8-0.1-1.6,0.1-2.4
					c0-0.1,0-0.2,0-0.3c-0.1,0.2-0.1,0.5-0.2,0.7c0,0.3,0,0.6,0,0.8c0,0.5-0.6,0.4-0.7,0c-0.5-4,0.9-8.1,1-12.1c0-2.5,0.1-5.1,1-7.5
					c-0.1-1-0.1-2-0.2-3c0-0.3,0.4-0.4,0.5-0.1C21,117.5,21.4,121.3,20.7,124.9z"/>
				<path fill="#F3B980" d="M57.1,102.6l0.1-7.8c0,0-6.5,1.5-15.4-0.5c0,0,0,5.5-0.4,8"/>
				<path fill="#F7D4B2" d="M77.5,73.6L77.5,73.6c-0.1-0.2-0.3-0.4-0.6-0.4c-1,0-1.4,1.9-1.7,2.6c-1.6,4.5-4.1,7.4-8.3,9.7
					c-0.7,0.4-0.2,1.7,0.6,1.4c3.4-1.4,6-4.1,7.8-7.3c0.6-1.1,1-2.2,1.4-3.4C77,75.5,77.7,74.4,77.5,73.6z"/>
				<path fill="#F7D4B2" d="M85.1,48.9c-0.2-0.1-0.4,0.2-0.3,0.4c0.9,1.2,2.1,1.9,2.4,3.4c0.1,0.5,1,0.4,0.9-0.1
					C87.9,51.1,86.5,49.4,85.1,48.9z"/>
				<path fill="#F7D4B2" d="M76.7,33.5c-0.1-0.8-0.7-1.5-1.3-2c-0.6-0.5-1.4-0.8-2.1-1.1c-0.5-0.2-1.4-0.7-1.9-0.5
					c-0.1,0-0.1,0.1-0.1,0.2c0.1,0.9,2,1.4,2.7,1.8c0.6,0.4,1.2,0.9,1.5,1.6c0.3,0.7-0.1,1.6,0.4,2.2c0.1,0.1,0.2,0.1,0.3,0
					C76.9,35.3,76.8,34.2,76.7,33.5z"/>
				<path fill="#F7D4B2" d="M54.1,60.3c-0.6-1.1-2.1-2.1-3.4-2.2c-0.4,0-0.5,0.5-0.2,0.7c0.5,0.3,1,0.6,1.5,0.9
					c0.5,0.3,0.9,0.8,1.2,1.2C53.7,61.4,54.5,60.8,54.1,60.3z"/>
				<path fill="#5A4A48" d="M79.5,19.1c-0.9-2.7-3.1-4.7-5.5-6c-2.2-1.2-5.6-2.3-8.1-1.4c-0.4,0.1-0.4,0.7,0,0.8
					c2.5,0.4,4.7,0.3,7,1.4c2.5,1.2,4.3,3.2,5.4,5.7C78.6,20.3,79.7,19.8,79.5,19.1z"/>
				<path fill="#5A4A48" d="M83.7,37.3c-0.1-0.9,0-1.9-0.2-2.7c0-0.1-0.2-0.1-0.2,0c-0.4,0.8-0.2,1.9-0.1,2.8
					c0.1,1.2,0.3,2.4,0.9,3.5c0.1,0.1,0.2,0,0.2-0.1C84,39.6,83.8,38.5,83.7,37.3z"/>
				<path fill="#FFEB85" d="M63.9,101c-0.4-0.6-0.7-1.1-1-1.7c-0.1-0.2-0.3-0.5-0.4-0.7c-0.1-0.1-0.2-0.5-0.2-0.3
					c0-0.2-0.2-0.3-0.3-0.1c-0.6,0.7,0,1.7,0.4,2.4c0.3,0.7,1.1,2.5,2,2.5C65.4,103,64.1,101.2,63.9,101z"/>
				<path fill="#F8B032" d="M55.1,104.4c-0.5,0.7-1,1.5-1.5,2.3c1.7-0.7,3.8-1.2,5.5-0.7c1.2-0.1,2.3-0.1,3.4,0.1
					c0.7,0.1,2.2,0.6,3.7,0.9c0.2-0.1,0.3-0.2,0.5-0.2c-0.4-0.1-0.7-0.3-1-0.7c-0.1,0-0.1,0-0.2,0c-0.8-0.1-1.4-0.5-1.7-1.1
					c-0.2-0.2-0.4-0.5-0.7-0.8c-1.2-0.8-2.3-2-3-3.2c-0.3-0.5-0.4-1.1-0.2-1.6c-0.4-1.2-0.2-2.4,0.6-3.6c0.1-0.3,0.3-0.6,0.5-0.9
					c-0.4-0.2-0.7-0.4-1.1-0.5c-0.3-0.1-0.6-0.1-0.9,0c-0.1,0-0.1,0.1,0,0.1c0.1,0,0.1,0.1,0.2,0.1c-0.5,0.2-1.1,0.3-1.6,0.4
					c0,0,0-0.1,0-0.1c0-0.2-0.1-0.2-0.3-0.2c0,0.1,0,0.3,0,0.4c0,0.6,0,1.1,0,1.7c0,0.4-0.1,0.8-0.3,1.1c0,0.5,0,0.9,0,1.4
					c0,0.2-0.1,0.4-0.1,0.6c0.2,0.9,0.3,1.9,0.4,2.8C57.2,103.9,56.1,104.5,55.1,104.4z"/>
				<path fill="#B68A60" d="M22.7,51.7c1.6,0.8,3.3,1.8,3.9,2.4c1.3,1.3,2.3,1.4,2.3,1.4c0.4-1.4,2.5-3,2.5-3c-0.1,0-0.1,0,0,0
					c2.2-1.1,6,3,7.2,1.3c0.6-0.1,7.3,1.8,7.1,2.7c0.3-0.2,0-1.2,0.3-1.4c1.6-0.9,3.8-1.4,5.7-1.5c2.1-0.2,4.9,0.6,7,0.8
					c0.2-0.2,8-2.4,10.6-2.5c0.5-0.1,6.3,2.3,7,2.8c0.3-0.2,2.5-1.8,4.3-3.1l-0.4-2.3c-1.9,0.6-3.9,1-5.8,1.2
					c-1.9,0.1-7.1-0.8-9-0.8c-1,0-6.1,1.9-7.7,1.8c-2.5-0.1-4.5-0.9-7-0.8c-1.8,1.1-18.1,0.3-20.4,0.1c-1.8-0.2-4.7-0.5-7.1-1.4
					L22.7,51.7z"/>
				<path fill="#B68A60" d="M61.7,92.9c-5.3,0.8-11.1,0.4-16.2-1.4c-6.7-2.4-16.1-7.4-18-14.8c-0.7-1.2-1.3-2.6-1.9-3.9
					c-0.9-1.3-1.6-2.8-2.1-4c-1.1-2.5-1.9-5-1.9-7.6c-0.1-0.2-0.2-0.4-0.2-0.7c-0.5-0.4-0.8-0.9-1.2-1.4c0,0,0,0,0,0
					c-0.1,0-0.2,0.1-0.3,0.1c0,0,0.2,0,0.3,0c0.7,8,1.5,16.5,5.8,23.3c5.3,8.6,16,13.5,25.8,12.9c3.7-0.2,7.5-1.1,11-2.6
					C62.4,92.8,62.1,92.8,61.7,92.9z"/>
				<path fill="#B68A60" d="M75.4,62.6c-0.2,0.1-5,1-6.7,0.7c-0.6-0.1-8.6-0.5-8.8-0.3c-0.1,0.1-0.9-1.4-2.1-0.7
					c0.4,0.7,0.5,2,2,2.7c5,1.4,9.5,0.8,14.2-0.3C75.2,64.2,75.4,62.9,75.4,62.6z"/>
				<path fill="#B68A60" d="M44.9,62.4c-0.2,0.1-5,1-6.7,0.7c-0.6-0.1-8.6-0.5-8.8-0.3c-0.1,0.1-0.9-1.4-2.1-0.7
					c0.4,0.7,0.5,2,2,2.7c5,1.4,9.5,0.8,14.2-0.3C44.6,64,44.9,62.7,44.9,62.4z"/>
				<path fill="#B68A60" d="M83.1,60.2c0.2,0.4,0.3,0.9,0.5,1.3c0-0.1,0-0.3,0.1-0.4c0-0.1,0-0.1,0-0.2c3.1-0.4,5.2-2.7,5.8-5.5
					c-1.4,0.6-2.8,1-4.5,1.1c-0.6,0-1.1-0.1-1.6-0.3C83.3,57.6,83.2,58.9,83.1,60.2z M83.7,58.3c0,0.2,0,0.4,0,0.6
					C83.4,58.9,83.4,58.5,83.7,58.3z"/>
				<path fill="#B68A60" d="M19.9,59.1c0,0-0.1,0-0.1,0c0.1-0.5,0.1-1.6,0.1-2.6c-0.7-0.5-1.4-0.9-2.2-1.3c0-0.1,0-0.2-0.1-0.3
					c-0.4-0.4-0.5-1.2-0.6-1.8c0-0.3,0-0.6,0-0.8c0-0.1-0.1-0.5-0.1-0.4c0-0.1,0-0.1-0.1-0.2c0-0.1,0-0.1-0.1-0.1c0,0,0,0-0.1,0
					c0,0,0,0,0,0c0,0,0,0,0,0c-0.7-0.1-1,0.6-1,1.3c0,0.3,0.1,0.7,0.2,1c-1.1-0.8-2-1.7-2.9-2.7c-0.1,0.6-0.2,1.2-0.2,1.8
					c-0.2,4,2.8,7.8,6.8,6.7c0,0,0.3-0.1,0.4-0.1C19.8,59.5,19.9,59.4,19.9,59.1z"/>
				<path fill="#B68A60" d="M105.9,105.7c3.4-2.8,6.7-5.6,10-8.7c1.2-1.2,2.3-2.6,3.6-3.9c0.6-1.1,1.3-2.3,1.9-3.4
					c1-2,1.7-3.8,1.8-5.7c-2.6,6-7.2,11.1-12.3,14.9c-3.2,2.4-6.6,4.6-10.1,6.4c-2.5,1.3-5.2,1.4-7.9,2.3c-0.1,0-0.1,0.1,0,0.2
					c0.1,0,0.1,0,0.2,0c-0.1,0.8-0.1,1.7-0.2,2.5C97.4,109.4,101.8,107.9,105.9,105.7z"/>
				<path fill="#B68A60" d="M53.5,97.2c0.5-0.7,1.1-1.1,1.8-1.1c0.3-0.2,0.6-0.5,0.9-0.7c0.2-0.2,0.3-0.3,0.5-0.4
					c-1.8,0.3-7.5,1-14.8-0.6c0,0,0,4-0.3,6.7C45.5,99.8,49.9,99.2,53.5,97.2z"/>
				<path fill="#B68A60" d="M86.4,52c-0.1-0.3-0.5-0.2-0.5,0.1c0,0.1,0,0.1,0,0.2c0,0,0,0-0.1,0c-0.1-0.1-0.2-0.2-0.3-0.3
					c-0.1,0-0.1,0-0.2,0c-0.2,0.2-0.2,0.5-0.1,0.9c0,0.2,0,0.3,0,0.5c0,0.1,0,0.2,0,0.2c-0.1,0.5-0.5,1-0.4,1.5
					c0,0.1,0.1,0.2,0.2,0.2c0.2,0,0.3-0.1,0.5-0.2c0,0,0,0.1,0,0.1c0,0.1,0.1,0.1,0.2,0.1c0.4-0.1,0.5-0.4,0.6-0.9
					c0.1,0,0.3,0,0.3-0.2C86.8,53.5,86.7,52.7,86.4,52z"/>
				<path fill="none" stroke="#E4332A" stroke-miterlimit="10" d="M41.8,94.5"/>
				<g>
					<path fill="#1D1D1B" d="M30.3,48.4c0.7-0.1,1.3-0.6,1.9-0.9c0.8-0.5,1.6-1.1,2.4-1.5c0.3-0.2,0.1-0.7-0.3-0.6
						c-1,0.3-1.9,0.6-2.7,1.2c-0.6,0.4-1.3,1-1.5,1.7C30.1,48.3,30.2,48.4,30.3,48.4L30.3,48.4z"/>
				</g>
				<g>
					<path fill="#1D1D1B" d="M74.3,48.1c-0.1-0.7-0.8-1.3-1.4-1.8c-0.8-0.7-1.6-1-2.6-1.3c-0.4-0.1-0.6,0.4-0.3,0.6
						c0.8,0.5,1.5,1.2,2.3,1.7c0.5,0.4,1.1,0.9,1.8,1C74.2,48.3,74.3,48.2,74.3,48.1L74.3,48.1z"/>
				</g>
				<g>
					<path fill="#1D1D1B" d="M19.5,54.1c0.4,10.1,1.2,20.6,6.6,29.4c5,8.2,15.4,12,24.5,12.3c9.7,0.3,19-4.9,25.3-12.2
						c3-3.5,4.6-7.7,5.9-12.1C83,67,84.2,61,83.6,56.3c-0.1-0.5-0.7-0.5-0.7,0c0.2,8.3-1.7,17.9-6.3,24.8
						c-5.4,8.3-15.2,13.3-24.7,13.9c-9.8,0.5-20.5-4.3-25.8-12.9c-5.1-8.2-5.3-18.6-6.2-27.9C19.9,53.8,19.5,53.8,19.5,54.1
						L19.5,54.1z"/>
				</g>
				<g>
					<path fill="#1D1D1B" d="M19,46.7c-1.9-0.9-3-0.1-4.1,0.7c-1.7,1.2-2.3,3.3-2.4,5.3c-0.2,4,2.9,8.6,7.2,7.2
						c0.5-0.2,0.3-1-0.2-0.8c-3.4,1.2-5.6-1.6-6.3-4.6c-0.7-3.1,1.5-9,5.5-7.4C18.9,47.1,19.1,46.8,19,46.7L19,46.7z"/>
				</g>
				<g>
					<path fill="#1D1D1B" d="M16.4,51.1C15.2,52,15.2,54.9,17,55c0.1,0,0.1-0.1,0.1-0.2c-0.5-0.7-1.2-1.3-1-2.3
						c0.1-0.4,0.6-1,0.4-1.5C16.5,51.1,16.4,51.1,16.4,51.1L16.4,51.1z"/>
				</g>
				<g>
					<path fill="#1D1D1B" d="M84,47.5c2.8,0.1,4.8,3.2,5,5.9c0.3,3.7-2.6,6.2-5.7,7.1c-0.3,0.1-0.3,0.7,0.1,0.6
						c4.1-0.4,6.7-4.5,6.3-8.5c-0.2-2.2-3.1-6.8-5.7-5.4C83.9,47.4,83.9,47.5,84,47.5L84,47.5z"/>
				</g>
				<g>
					<path fill="#1D1D1B" d="M86,51.9c0.1,0.5,0.3,0.9,0.4,1.5c0,0.6-0.2,1.1-0.3,1.7c0,0.2,0.1,0.4,0.3,0.3c0.9-0.6,0.8-3-0.1-3.6
						C86.1,51.6,86,51.7,86,51.9L86,51.9z"/>
				</g>
				<g>
					<path fill="#1D1D1B" d="M51.7,57.4c2.3,0.5,4.1,1.6,4.3,4.3c0.2,2.7-2.5,4-4.3,5.2c-0.3,0.2-0.1,0.6,0.2,0.6
						c2.7-0.5,5-3.5,4.6-6.3c-0.3-2.4-2.6-4.2-4.9-3.9C51.7,57.3,51.7,57.4,51.7,57.4L51.7,57.4z"/>
				</g>
				<g>
					<path fill="#1D1D1B" d="M21.7,53.6c1.1-1.3,1.6-3,1.7-4.7c0-0.2-0.4-0.2-0.4,0c-0.1,1.6-0.5,3.3-1.5,4.6
						C21.5,53.6,21.6,53.7,21.7,53.6L21.7,53.6z"/>
				</g>
				<g>
					<path fill="#1D1D1B" d="M23.5,48.4c1.2-2,1.3-8.1,1.8-10.9c0.8-4.7,4.1-8.7,8.6-10c0.1,0,0.1-0.3,0-0.3
						c-3.3,0.3-5.5,2.7-7.2,5.4c-2.8,4.4-2.3,13.9-3.4,15.6c-0.1,0.1,0,0.3,0.1,0.2H23.5z"/>
				</g>
				<g>
					<path fill="#1D1D1B" d="M32.4,27.7c10.3-2.5,20.4,2.9,30.7,0c0.1,0,0.1-0.3,0-0.3c-2.9,0.2-5.8,0.8-8.8,0.7
						c-2.8-0.1-5.6-1-8.4-1.3c-4.4-0.5-9.4-1.2-13.5,0.7C32.3,27.6,32.3,27.7,32.4,27.7L32.4,27.7z"/>
				</g>
				<g>
					<path fill="#1D1D1B" d="M61.9,27.7c2.8,0.2,5.7-0.5,8.6-0.5c4.7,0,7,2,7.4,6.8c0,0.1,0.2,0.2,0.2,0
						C79.7,24.8,67.2,26.4,61.9,27.7C61.9,27.7,61.9,27.7,61.9,27.7L61.9,27.7z"/>
				</g>
				<g>
					<path fill="#1D1D1B" d="M78,32.6c-0.2,4.9,0.9,11.8,2.1,16.6c0.1,0.3,0.5,0.2,0.4-0.1c-0.6-2.5-1.4-7-1.7-9.5
						c-0.3-2.3-0.1-4.7-0.7-6.9C78.1,32.5,78,32.6,78,32.6L78,32.6z"/>
				</g>
				<g>
					<path fill="#1D1D1B" d="M80.6,49c-0.4,0.5-0.3,1.3-0.2,1.9c0.1,0.7,0.2,1.8,0.7,2.3c0.1,0.1,0.2,0,0.2,0
						c0.1-0.5-0.2-1.1-0.4-1.6C80.7,50.7,80.7,49.9,80.6,49C80.7,49,80.6,48.9,80.6,49L80.6,49z"/>
				</g>
				<g>
					<path fill="#1D1D1B" d="M16.6,46.6c-0.1-2.3,0.7-5,1-7.3c0.5-4.2,1.6-8.3,3-12.3c3.2-8.9,10.2-15.4,19.6-15.8
						c0.2,0,0.2-0.3,0-0.3c-7.3-1.8-14.5,5-17.9,10.9c-2.3,3.9-3.5,8.6-4.6,13c-0.7,2.7-0.7,5.6-1.1,8.3c-0.2,1.3-0.5,2.4-0.2,3.7
						C16.4,46.9,16.6,46.8,16.6,46.6L16.6,46.6z"/>
				</g>
				<g>
					<path fill="#1D1D1B" d="M35.3,11.2c6.4-0.1,12.8,1.2,19.2,0.5c2.8-0.3,5.5-1.1,8.2-1.8c4.6-1.1,7.8-0.9,12,1.5
						c0.1,0.1,0.3-0.1,0.2-0.2C70.8,7.1,65,8.7,60,10c-4.4,1.1-8.7,1.6-13.2,1.4c-3.9-0.2-7.6-1.2-11.5-0.2
						C35.2,11.1,35.3,11.2,35.3,11.2L35.3,11.2z"/>
				</g>
				<g>
					<path fill="#1D1D1B" d="M71.4,9.5c6.5,4.5,10.8,9.6,12.5,17.6c1.4,6.6,1.3,13.5,1.4,20.2c0,0.4,0.6,0.4,0.6,0
						C85.7,33.8,85.9,15.4,71.4,9.5C71.3,9.4,71.3,9.4,71.4,9.5L71.4,9.5z"/>
				</g>
				<g>
					<path fill="#1D1D1B" d="M67.5,69.9c0.5,0,0.5-0.8,0-0.8C67,69.1,67,69.9,67.5,69.9L67.5,69.9z"/>
				</g>
				<g>
					<path fill="#1D1D1B" d="M41.7,94.3c-0.2,1.3-0.2,2.7-0.3,4c-0.1,1.4-0.3,2.7-0.4,4.1c0,0.2,0.3,0.2,0.4,0
						c0.6-2.5,0.8-5.6,0.4-8.1C41.8,94.3,41.7,94.3,41.7,94.3L41.7,94.3z"/>
				</g>
				<g>
					<path fill="#1D1D1B" d="M56.9,95.1c-0.1,1.4-0.1,2.7-0.2,4.1c-0.1,1.2-0.2,2.6,0.2,3.7c0.1,0.2,0.4,0.2,0.4,0
						c0.2-1.2,0.1-2.5,0.1-3.7c0-1.4,0.1-2.8,0-4.2C57.4,94.7,57,94.8,56.9,95.1L56.9,95.1z"/>
				</g>
				<g>
					<path fill="#1D1D1B" d="M30.7,106.5c0.3,0,0.9-2.1,1-2.3c0.5-1.5,1.2-2.8,2-4.2c0.8-1.3,1.6-2.5,2.6-3.6c1-1.2,2.4-1.7,3.6-2.6
						c0.2-0.1,0.1-0.4-0.1-0.3c-2.7,0.6-4.4,2.7-5.9,4.9c-1.4,2.1-3.4,5.6-3.4,8.1C30.5,106.7,30.7,106.7,30.7,106.5
						C30.7,106.6,30.7,106.6,30.7,106.5C30.7,106.5,30.7,106.5,30.7,106.5L30.7,106.5z"/>
				</g>
				<g>
					<path fill="#1D1D1B" d="M58.9,94.6c4.4,1.8,6.5,7.6,7.2,12c0,0.3,0.4,0.2,0.4-0.1c0.2-3.2-1.5-6.1-3-8.8
						c-0.8-1.4-2.7-3.7-4.5-3.4C58.8,94.5,58.8,94.6,58.9,94.6L58.9,94.6z"/>
				</g>
				<g>
					<path fill="#1D1D1B" d="M1.4,128.2c-1.7-2.4,5.8-11.6,7.2-13.5c2.6-3.5,6.1-6.3,9.7-8.7c4.1-2.8,10-6.2,15.1-5.9
						c0.3,0,0.3-0.5,0-0.5c-4.9-0.3-10.1,2.8-14.3,5.3c-4.2,2.5-8.3,5.8-11.2,9.8c-1.2,1.6-9.3,12-6.8,13.8
						C1.3,128.6,1.5,128.4,1.4,128.2L1.4,128.2z"/>
				</g>
				<g>
					<path fill="#1D1D1B" d="M92.9,107.9c1.9,0.6,5-0.8,6.9-1.4c4.5-1.6,8.7-4.8,12.5-7.7c3.5-2.6,6.5-5.7,8.9-9.4
						c1.9-2.8,4.4-7.4,4.4-10.9c0-0.4-0.5-0.4-0.6-0.1c-1.6,8.5-7.4,15.6-14.1,20.6c-3.2,2.4-6.6,4.6-10.1,6.4
						c-2.5,1.3-5.2,1.4-7.9,2.3C92.8,107.8,92.8,107.9,92.9,107.9L92.9,107.9z"/>
				</g>
				<g>
					<path fill="#1D1D1B" d="M141.7,72.1c-2.5,4.3-3,9.7-4.6,14.4c-2.2,6.2-4.9,12.2-8.3,17.8c-3.6,5.9-8.4,10.9-14.1,14.7
						c-5.3,3.5-12.8,7.5-19.1,8.3c-0.5,0.1-0.5,0.8,0,0.7c2.4-0.1,5.2-1.5,7.5-2.3c3.4-1.3,6.7-3,9.9-4.7
						c5.4-2.9,10.1-7.3,13.8-12.3c3.9-5.3,6.9-11.2,9.4-17.3c2.5-6.2,3.7-12.9,6.1-19.2c0.1-0.2-0.2-0.2-0.3,0L141.7,72.1z"/>
				</g>
				<g opacity="0.8">
					<path fill="#DA9085" d="M28.8,57.4c-0.2,0-0.5,0-0.7,0c-1.9-0.2-3.8,0.2-5.2,1.1c-0.5,0.3-0.9,0.9-1,1.5
						c-0.4,0.5-0.3,1.3,0.2,1.8c0,0.1,0.1,0.2,0.1,0.3c1,1.5,2.8,1.8,4.3,2c0.5,0,1.2,0.1,1.9,0c0.2,0.2,0.4,0.3,0.7,0.3
						c2.2,0.3,5.8-0.3,6-3.8C35.3,57.7,30.9,56.9,28.8,57.4z"/>
					<path fill="#DA9085" d="M81.2,60c-0.4-0.5-0.8-1-1.2-1.3c0,0,0.1,0,0.1,0c0.2,0,0.2-0.4,0-0.5c-2.2-1.3-4.7-1.5-7-0.9
						c-0.1,0-0.3,0.1-0.4,0.1c-1,0.3-2,0.9-2.8,1.6c-0.5,0.5-0.7,1.9-0.2,2.6c0.2,0.2,0.4,0.4,0.6,0.6c1,2.2,3.3,2.3,4.8,2.3
						c1.9,0,4.7-0.3,6.1-2.7C81.5,61.4,81.5,60.5,81.2,60z"/>
				</g>
				<g>
					<path fill="#E1F2FC" d="M60.8,62.6c2.3,0.6,3.9,1.2,6.2,1.1c2.9-0.1,5.9-0.9,8.7-2.6c0,0.1,0.2,0.1,0.2,0
						c0.2-3.1,0.1-10.5,0-10.5c0,0-2.7-1-4.6-1.1c-3-0.1-7.4-0.1-10.4,0.8c-0.2,0-3.1,1.1-3.2,1.3c-0.1,0.9,0.3,7.9,1.3,9
						C58.9,60.7,60.6,62.6,60.8,62.6z"/>
					<path fill="#848585" d="M27.2,53.1c0,0-3.6-2.4-6.3-3.5L20,48c0.9,0.1,3.3,1.1,6.6,2.6L27.2,53.1z"/>
					<path fill="#1D1D1B" d="M26.9,53.3c0,0-3-1.9-5.9-3.5c-0.5-0.3-0.2-0.6-0.2-0.6c1.8,0.9,4.6,2.3,6.1,3.2
						C27.9,54.1,26.9,53.3,26.9,53.3z"/>
					<path fill="#1D1D1B" d="M27,50.3c-1.5-0.7-5-2-7.3-2.7L20,48c2,0.8,5.5,2.3,7,3C27,50.8,27,50.5,27,50.3z"/>
					<path fill="#848585" d="M75.8,54c0,0,2.3-2.8,6.9-4.2c0.2,0,0.6-1.3,0.6-1.3c-0.9-0.1-3.5,0.9-6.9,2.5L75.8,54z"/>
					<path fill="#1D1D1B" d="M76.2,53.6c0,0,3.1-1.9,6.2-3.6l0-0.5c-1.6,0.8-4.6,2.2-6.2,3.2C75.1,54.4,76.2,53.6,76.2,53.6z"/>
					<path fill="#1D1D1B" d="M76,50.6c1.6-0.8,5.3-1.9,7.2-2.4l-0.1,0.4c-1.9,0.6-5.5,1.9-7,2.7C76.1,51.1,76.1,50.8,76,50.6z"/>
					<path fill="#848585" d="M47.1,53.2c0,0,4.1-2.4,9.6-0.1l1.9-1.7c0,0-0.4-1.3-5.5-1.4s-7.4,0.9-7.4,0.9L47.1,53.2z"/>
					<path fill="#E1F2FC" d="M44.8,60.5c1-1.1,1.5-8.1,1.3-9c0-0.2-3-1.3-3.2-1.3c-2.9-0.9-7.3-0.8-10.4-0.8
						c-1.9,0.1-4.6,1.1-4.6,1.1c0,0-0.2,7.4,0,10.5c0,0.1,0.1,0.1,0.2,0c2.8,1.7,5.7,2.5,8.7,2.6c2.4,0.1,3.9-0.5,6.2-1.1
						C43.2,62.5,44.9,60.6,44.8,60.5z"/>
					<path fill="#848585" d="M46.9,50.6c-1.4-2.7-17.3-2.8-20.2-1.4c0,0-1.3,11.3,1.4,13.5c2.7,2.1,8.9,2.1,11.6,1.9
						c2.7-0.2,4.3-0.6,5.4-1.5C46.1,62.1,48.2,53.1,46.9,50.6z M44.7,54.4c-0.2,2-0.5,3.8-0.8,5.8c-0.1,0.6-0.3,1.1-0.8,1.5
						c-0.3,0.3-0.7,0.4-1,0.5c-0.4,0.1-0.8,0.2-1.2,0.3c-0.5,0.1-0.3,0.1-0.8,0.1c-0.5,0.1-1.1,0.3-1.6,0.3c-1,0-1.6,0-2.6-0.1
						c-1.7-0.1-3.8-0.2-5.3-1.1c-1.2-0.7-1.5-2.2-1.7-3.5c-0.3-2-0.4-6.4,0.1-7.3c0.3-0.5,0.9-0.6,1.5-0.7c1.6-0.2,3.3-0.1,5-0.1
						c1.9,0,3,0,4.8,0.1c1.2,0.1,2.4,0.2,3.5,0.9l0,0c0,0,0,0,0,0c0.1,0,0.1,0.1,0.2,0.1c0,0,0,0,0,0c0.4,0.3,0.7,0.8,0.8,1.3
						C44.8,53.2,44.8,53.8,44.7,54.4z"/>
					<path fill="#1D1D1B" d="M47.4,53.5c0-0.4-0.5-0.3-0.5,0.1c-0.1,2-1,7.3-1.3,8.1c-0.1,0.4-0.4,0.7-0.7,1.1
						c-0.3,0.4-0.9,0.5-1.4,0.7c-0.5,0.1-2.7,0.8-5,0.9c-1.3,0.1-4-0.2-4.6-0.2c-1.2-0.2-2.5-0.4-3.6-0.7c-0.2-0.1-0.4-0.1-0.7-0.2
						c-2.8-0.8-3-4.1-3-6.5c0-2.3-0.1-6.9,0.2-7.3c0.5-0.7,3-0.9,4.4-0.9c1.7,0,3.5,0,5.2,0.1c3.2,0.1,7-0.2,9.7,1.5
						c0.5,0.3,0.7-0.1,0.2-0.5c-1.4-1-3.1-1.3-4.8-1.4c-2.5-0.1-4.2-0.2-6.6-0.2c-2.2,0-4.4-0.2-6.6,0.1c-0.9,0.1-1.6,0.3-2,0.9
						c-0.7,1.2-0.3,7-0.1,9.6c0.1,1.7,0.7,3.6,2.3,4.5c1.9,1.1,4.6,1.2,6.8,1.4c1.4,0.1,1.9,0.2,3.3,0.1c0.6,0,1.2-0.1,1.8-0.2
						c0.6-0.1,1.2-0.3,1.8-0.4c0.6-0.1,1.1-0.3,1.7-0.4c0.5-0.1,0.9-0.2,1.3-0.5c0.6-0.5,0.9-1.2,1.1-1.9
						C46.8,58.7,47.4,56.2,47.4,53.5z"/>
					<path fill="#1D1D1B" d="M44.9,52.6c-0.1-0.5-0.3-1-0.8-1.3c0,0,0,0,0,0c-0.1,0-0.1-0.1-0.2-0.1c0,0,0,0,0,0l0,0
						c-1.1-0.7-2.3-0.9-3.5-0.9c-1.9-0.1-3-0.1-4.9-0.1c-1.7,0-3.4-0.1-5.1,0.1c-0.7,0.1-1.3,0.2-1.5,0.7c-0.5,0.9-0.4,5.4-0.1,7.4
						c0.2,1.3,0.5,2.9,1.7,3.6c1.5,0.9,3.7,1,5.3,1.1c1.1,0.1,1.5,0.1,2.5,0c0.5,0,1.3-0.2,1.8-0.2c0.5-0.1,0.4-0.1,0.9-0.2
						c0.4-0.1,0.7-0.2,1.1-0.3c0.4-0.1,0.7-0.2,1-0.5c0.5-0.4,0.7-0.9,0.8-1.5c0.4-2,0.6-3.9,0.9-5.9C44.9,53.8,44.9,53.1,44.9,52.6
						z M43.3,60.5c-0.1,0.3-0.3,0.6-0.5,0.9c-0.2,0.3-0.6,0.4-1,0.5c-0.4,0.1-1.9,0.6-3.7,0.7c-1,0.1-3.1-0.1-3.5-0.2
						c-0.9-0.1-1.8-0.3-2.7-0.5c-0.2,0-0.3-0.1-0.5-0.1c-2.1-0.7-2.2-3.1-2.2-5c0-1.8-0.2-5.2,0-5.5c0.2-0.2,2.4-0.5,3.5-0.5
						c1.3,0,2.7,0.1,4,0.1c2.3,0.1,4.7-0.3,6.8,1c1.1,0.6,0.9,2.6,0.8,2.6C44.3,55.9,43.6,59.8,43.3,60.5z"/>
					<path fill="#848585" d="M58.8,63.1c1.1,0.9,2.7,1.3,5.4,1.5c2.7,0.2,8.9,0.2,11.6-1.9c2.7-2.1,1.4-13.5,1.4-13.5
						c-3-1.4-18.4-1.6-19.9,1C55.6,52.9,57.7,62.2,58.8,63.1z M59,52.7c0.1-0.5,0.3-1,0.8-1.3c0,0,0,0,0,0c0.1,0,0.1-0.1,0.2-0.1
						c0,0,0,0,0,0l0,0c1-0.7,2.2-0.9,3.5-0.9c1.9-0.1,3-0.1,4.8-0.1c1.6,0,3.4-0.1,5,0.1c0.7,0.1,1.2,0.2,1.5,0.7
						c0.5,0.9,0.4,5.4,0.1,7.3c-0.2,1.3-0.5,2.8-1.7,3.5c-1.5,0.8-3.6,0.9-5.3,1.1c-1,0.1-1.6,0.1-2.6,0.1c-0.5,0-1.1-0.3-1.6-0.3
						c-0.5-0.1-0.3-0.1-0.8-0.1c-0.4-0.1-0.8-0.2-1.2-0.3c-0.4-0.1-0.7-0.2-1-0.5c-0.5-0.4-0.7-0.9-0.8-1.5c-0.4-2-0.6-3.8-0.8-5.8
						C59,53.9,59,53.2,59,52.7z"/>
					<path fill="#1D1D1B" d="M56.4,53.6c0-0.4,0.5-0.3,0.5,0.1c0.1,2,1,7.3,1.3,8.1c0.1,0.4,0.4,0.7,0.7,1.1
						c0.3,0.4,0.9,0.5,1.4,0.7c0.5,0.1,2.7,0.8,5,0.9c1.3,0.1,4-0.2,4.6-0.2c1.2-0.2,2.5-0.4,3.6-0.7c0.2-0.1,0.4-0.1,0.7-0.2
						c2.8-0.8,3-4.1,3-6.5c0-2.3,0.1-6.9-0.2-7.3c-0.5-0.7-3-0.9-4.4-0.9c-1.7,0-3.5,0-5.2,0.1c-3.2,0.1-7-0.2-9.7,1.5
						c-0.5,0.3-0.7-0.1-0.2-0.5c1.4-1,3.1-1.3,4.8-1.4c2.5-0.1,4.2-0.2,6.6-0.2c2.2,0,4.4-0.2,6.6,0.1c0.9,0.1,1.6,0.3,2,0.9
						c0.7,1.2,0.3,7,0.1,9.6c-0.1,1.7-0.7,3.6-2.3,4.5c-1.9,1.1-4.6,1.2-6.8,1.4c-1.4,0.1-1.9,0.2-3.3,0.1c-0.6,0-1.2-0.1-1.8-0.2
						c-0.6-0.1-1.2-0.3-1.8-0.4c-0.6-0.1-1.1-0.3-1.7-0.4c-0.5-0.1-0.9-0.2-1.3-0.5c-0.6-0.5-0.9-1.2-1.1-1.9
						C57,58.8,56.4,56.3,56.4,53.6z"/>
					<path fill="#1D1D1B" d="M58.9,54.4c0.2,2,0.5,3.9,0.9,5.9c0.1,0.6,0.4,1.1,0.8,1.5c0.3,0.3,0.7,0.4,1,0.5
						c0.4,0.1,0.7,0.2,1.1,0.3c0.5,0.1,0.4,0.1,0.9,0.2c0.5,0.1,1.3,0.2,1.8,0.2c1.1,0,1.5,0.1,2.5,0c1.7-0.1,3.8-0.2,5.3-1.1
						c1.2-0.7,1.6-2.2,1.7-3.6c0.3-2,0.4-6.5-0.1-7.4c-0.3-0.5-0.9-0.6-1.5-0.7c-1.7-0.2-3.4-0.1-5.1-0.1c-1.9,0-3,0-4.9,0.1
						c-1.3,0.1-2.5,0.2-3.5,0.9l0,0c0,0,0,0,0,0c-0.1,0-0.1,0.1-0.2,0.1c0,0,0,0,0,0c-0.4,0.3-0.7,0.8-0.8,1.3
						C58.8,53.2,58.9,53.9,58.9,54.4z M59.5,54.3c0-0.1-0.2-2,0.8-2.6c2.1-1.3,4.4-0.9,6.8-1c1.3,0,2.7-0.1,4-0.1
						c1.1,0,3.3,0.2,3.5,0.5c0.3,0.3,0.1,3.7,0,5.5c0,1.9-0.1,4.4-2.2,5c-0.2,0.1-0.3,0.1-0.5,0.1c-0.9,0.2-1.8,0.4-2.7,0.5
						c-0.5,0.1-2.5,0.3-3.5,0.2c-1.8-0.1-3.3-0.6-3.7-0.7c-0.3-0.1-0.7-0.2-1-0.5c-0.2-0.3-0.4-0.5-0.5-0.9
						C60.2,59.9,59.5,55.9,59.5,54.3z"/>
					<path fill="#1D1D1B" d="M47.1,50.6c2.8-0.6,6-0.6,9-0.2c0.1,0,0.7,0.1,1,0.2c0.2,0,0.3-0.2,0.6-0.4c-0.1,0,0-0.6-0.1-0.5
						c-0.4,0.4-0.8,0.3-1.1,0.3c-1.1-0.2-3.1-0.4-4.5-0.3c-0.9,0-3.2,0.1-4.4,0.4c-0.7,0.2-1-0.2-1.1-0.3c-0.4-0.2-0.3,0.4-0.3,0.4
						C46.6,50.4,46.7,50.7,47.1,50.6z"/>
					<path fill="#1D1D1B" d="M56.2,52.4c-2.7-0.7-6.3-0.2-6.3-0.2c-0.7,0.2-2.9,0.6-2.9,1.3c0.1,0,0.5,0.1,0.5,0
						c0-0.4,1.9-0.7,2.2-0.7c0.8-0.2,1.5-0.2,2.6-0.3c0.7,0,2.2,0,3.4,0.2c1,0.1,0.7,0.8,0.8,0.9c0.4,0.2,0.5,0,0.5,0
						C56.9,52.7,56.5,52.5,56.2,52.4z"/>
				</g>
				<g>
					<path fill="#1D1D1B" d="M36.8,54.6c-0.8,0.2-1.4,0.2-1.9,0.9c-0.8,1.1-0.7,2.7,0.7,3.2c1.1,0.4,2.9,0,3.4-1.2
						c0.4-1.2-0.7-2.7-1.9-2.9c-0.4-0.1-1,0-1.4,0.2"/>
					<path fill="#FFFFFF" d="M37.1,55.2c-0.7,0.2-2,1.2-0.8,2c2.1,1.4,3-1.6,0.9-2.1"/>
				</g>
				<g>
					<path fill="#1D1D1B" d="M66.8,54.6c-0.8,0.2-1.4,0.2-1.9,0.9c-0.8,1.1-0.7,2.7,0.7,3.2c1.1,0.4,2.9,0,3.4-1.2
						c0.4-1.2-0.7-2.7-1.9-2.9c-0.4-0.1-1,0-1.4,0.2"/>
					<path fill="#FFFFFF" d="M67.1,55.2c-0.7,0.2-2,1.2-0.8,2c2.1,1.4,3-1.6,0.9-2.1"/>
				</g>
				<g>
					<path fill="#1D1D1B" d="M18.8,47.1c1.1,1,1.8,2.1,2.1,3.5c0.2,1,0.1,2.3,0.5,3.2c0.1,0.1,0.2,0.1,0.2,0c0.4-1.1-0.1-2.9-0.5-4
						c-0.4-1.2-1.2-2.5-2.7-3.2c-0.1-0.1,0.2,0.2,0.3,0.3L18.8,47.1z"/>
				</g>
				<g>
					<path fill="#1D1D1B" d="M81.3,53.1c0.9-2,1.8-5.4,3.7-5.4c0.3,0-0.3-0.7-0.5-0.5c-2.3,1-2.7,3.6-3.5,5.8
						C80.9,53.1,81.2,53.3,81.3,53.1L81.3,53.1z"/>
				</g>
				<g>
					<g>
						<path fill="#1D1E1C" d="M39.4,71.4c3.3,4.5,10.5,7.5,15.5,5c0.1-0.1,0.2-0.6,0-0.6c-2.7,0.3-5,0.6-7.8-0.1
							c-2.9-0.8-5.2-2.6-7.5-4.5C39.5,71,39.2,71.3,39.4,71.4L39.4,71.4z"/>
					</g>
					<g>
						<path fill="#1D1E1C" d="M38.7,72c0.3-0.1,0.6-0.5,0.8-0.7c0.3-0.3,0.6-0.5,0.9-0.7c0.1-0.1,0.1-0.2-0.1-0.3
							c-0.5-0.1-0.8,0.1-1.1,0.4c-0.3,0.3-0.7,0.7-0.7,1.1C38.4,72,38.6,72,38.7,72L38.7,72z"/>
					</g>
				</g>
			</g>
		</g>
	</g>
</g>
<g id="personajes_hover">
	<g>
		<defs>
			<rect id="SVGID_51_" x="0" y="-150.1" width="100" height="100"/>
		</defs>
		<use xlink:href="#SVGID_51_"  overflow="visible" fill="#9CC766"/>
		<clipPath id="SVGID_6_">
			<use xlink:href="#SVGID_51_"  overflow="visible"/>
		</clipPath>
		<g clip-path="url(#SVGID_6_)">
			<path fill="#C79B66" d="M92.2,24.2c0-0.2-0.2-0.2-0.3,0c0,0.2,0,0.3-0.1,0.5l0-0.4L6.8,25c0-0.1,0-0.2,0-0.3c0-0.2-0.2-0.2-0.3,0
				c0,0.1,0,0.2,0,0.3l0,0l0,0.7c-0.4,8.1,0.9,16.5,1.6,24.5c0.7,7.7,1.4,15.2,2.9,22.8c2.6,13.1,6.2,26,7.9,39.3
				c0.2,1.5,11.9,1.7,21.1,3.1c11.4,1.6,9.5,3.6,10.2,3.5c2.2-0.4,3.6-2.7,7.6-3.5c1.5-0.3,6.6-0.6,11.6-1.3
				c4.7-0.7,9.4-1.7,9.4-1.7c0.3,0.1,0.7,0,0.8-0.4C82.2,99,85.1,86,87.7,73c1.4-7.2,2.1-14.4,2.8-21.7
				C91.3,42.4,92.8,33.1,92.2,24.2z"/>
			<path fill="#F7A827" d="M107.2-18.3c-3-16.1-17.7-30.3-32.1-36.9c0,0-18.3,0.1-24.4-0.3c-5.6-0.4-22-2.7-22-2.7
				C13.2-52-2.7-38.6-8.2-22.6C-11-14.5-10.2-5.9-8,2.3c1.8,6.9,5.8,16.9,12.4,20.6c0,0,0.7,1.5,2.3,2.1c5.8,2.3,11.5,3.6,17,4.9
				c38.6,9,69.5-6.1,69.5-6.1c0,0.1,0.2-0.5,0.3-0.6c6-3.3,9.3-11.9,11.4-18C107.6-2.3,108.7-10.3,107.2-18.3z"/>
			<path fill="#B17F49" d="M6.7,25.3c49.1,16.4,85.2-0.7,85.2-0.7C47.4,46.8,6.8,27.5,6.8,27.5L6.7,25.3z"/>
			<path fill="#F29313" d="M27.3-52c0,0-10.9,5.6-9.5,21.5S21.4-19.9,20-0.2c-1.9,26.7,54.1,29.7,54.1,29.7l0,0
				c0,0-28.5,10.7-68.5-4.7c0,0-0.6-0.9-0.9-1.9c0,0-23-19.3-9.9-52c0,0,7.5-17.8,34-29.1c0.1,0,0.4,0.2,0.5,0.1L27.3-52z"/>
			<path fill="#F29313" d="M90.9-20.4c0,0,6.8,27.8,12.8,28.4c0,0,0,0.9-3.5,8.3c-9.6,20.2,0,0,0,0s-5.1,6.9-6.8,6.6
				c-1.7-0.3,0,0,0,0s1.1-1.8,0.4-6.4c-0.7-4.6,0,0,0,0s2.3-28.3-6.6-48.1"/>
			<path fill="#B17F49" d="M59.7,44.6c0,0-0.8,6.7-1.9,9.8c-1.2,3,0.5,14.9,0.6,21.5c0,6.7-0.5,28.4-3.2,40.3l-5.1,2.6l-0.2-0.6
				c0,0,4.9-44.8,4.1-58.8L53.8,55C53.8,55,58.7,50.2,59.7,44.6z"/>
			<path fill="#B17F49" d="M6.5,25.7c-0.4,8.1,0.9,16.5,1.6,24.5c0.7,7.7,1.4,15.2,2.9,22.8c2.6,13.1,6.2,26,7.9,39.3
				c0.2,1.5-1.6,0,7.6,1.3c0,0-3-6.6-5.8-25.3c-0.7-4.5-3.4-21.3-1.6-44.9c0.3-3.8,3.2-8.2,5.2-12.1L6.5,25.7z"/>
			<g>
				<path fill="#1D1E1C" d="M6.5,24.9C6,33.3,7.3,42.1,8.1,50.4c0.7,7.7,1.4,15.2,2.9,22.8c2.6,13.1,5.3,26.2,7.9,39.3
					c0.2,0.8,1.4,0.5,1.2-0.3c-2.6-12.7-5.2-25.4-7.9-38.2C8.9,57.8,8.8,41.3,6.8,24.9C6.8,24.8,6.5,24.8,6.5,24.9L6.5,24.9z"/>
			</g>
			<g>
				<path fill="#1D1E1C" d="M91.9,24.4c-1.9,16.2-2,32.5-5.3,48.6c-2.6,13-5.6,25.9-8.3,38.9c-0.2,0.8,1,1.1,1.2,0.3
					c2.6-13,5.5-25.9,8.1-38.9c1.4-7.2,2.1-14.4,2.8-21.7c0.8-8.9,2.3-18.2,1.7-27.1C92.2,24.2,91.9,24.2,91.9,24.4L91.9,24.4z"/>
			</g>
			<g>
				<path fill="#1D1E1C" d="M50.2,118.1c4.1-20.7,2.8-42.2,4.6-63.1c0.1-0.8-1.1-0.8-1.2,0C52.1,76,52.4,97,49.9,118
					C49.9,118.2,50.1,118.2,50.2,118.1L50.2,118.1z"/>
			</g>
			<g>
				<path fill="#1D1E1C" d="M53.8,55c1.2-0.1,2.6-2.8,3.1-3.6c2.3-3.7,3.5-8,3.7-12.3c0-0.2-0.3-0.2-0.3,0c-0.7,4.2-1.8,8.3-4,12
					c-0.6,1-2.6,2.7-2.6,3.8C53.7,55,53.8,55,53.8,55L53.8,55z"/>
			</g>
			<g>
				<path fill="#1D1E1C" d="M20.3,31.5c-1.6,4.9-3.5,9-7.7,12.3c-0.2,0.1,0,0.4,0.2,0.3C16.7,42.2,20.5,35.9,20.3,31.5
					C20.4,31.5,20.3,31.5,20.3,31.5L20.3,31.5z"/>
			</g>
			<g>
				<path fill="#1D1E1C" d="M80.7,30C80.7,30,80.7,30,80.7,30c-0.1-0.1-0.3-0.1-0.3,0.1c-0.4,1.7,0.9,4,1.7,5.4
					c1.4,2.3,2.7,4.4,4.9,6c0.2,0.2,0.5-0.2,0.3-0.4c-1.7-1.9-2.8-3.3-4.3-5.3c-0.8-1.1-1.3-2.2-1.8-3.5
					C81.1,31.9,80.8,30.1,80.7,30L80.7,30z"/>
			</g>
			<g>
				<path fill="#1D1E1C" d="M85.6,44.6c-0.9,11.2-1.9,22-4.2,33c0,0.2,0.3,0.3,0.3,0.1C84.4,67.2,86.4,55.5,85.6,44.6
					C85.6,44.6,85.6,44.6,85.6,44.6L85.6,44.6z"/>
			</g>
			<g>
				<path fill="#1D1E1C" d="M18.9,43.5c-1.8,10.8-1,22.5,0.6,33.3c0,0.2,0.3,0.1,0.3,0C18.6,65.6,18.7,54.8,18.9,43.5
					C18.9,43.5,18.9,43.5,18.9,43.5L18.9,43.5z"/>
			</g>
			<g>
				<path fill="#1D1E1C" d="M75.4,110.8c0.8-1.1,0.9-2.5,1.1-3.8c0.5-2.5,1.2-5,1.7-7.5c1.3-5.6,2.5-11.3,3.1-17
					c0-0.3-0.4-0.3-0.5-0.1c-1,5.7-1.9,11.3-3.2,16.9c-0.8,3.6-1.1,7.9-2.4,11.3C75.2,110.9,75.4,110.9,75.4,110.8L75.4,110.8z"/>
			</g>
			<g>
				<path fill="#1D1E1C" d="M24.1,109.3c-0.5-4.6-1.1-9.1-1.6-13.7c-0.5-4.6-0.7-9.2-1.7-13.7c0-0.2-0.3-0.1-0.3,0
					c0,8.9,1.7,18.6,3.4,27.4C23.9,109.5,24.2,109.4,24.1,109.3L24.1,109.3z"/>
			</g>
			<path fill="#E0C0A2" d="M53.6,51.1c-1.3,0.7-1.9,1.6-2.4,2.6c-0.9,1.8-1,4.1-1.3,6c-0.3,2.2-0.2,13.7-0.5,20.7
				c-0.6,11.9-0.1,18.9-0.8,31.1c-0.1,1,1-1.4,1.4-5c1-11.1,0.8-15.1,1.7-26.2c0.4-5.4,0.6-19.8,0.5-21c0-1.5,0.2-3.4,0.5-4.5
				c0.3-1.2,0.8-1.6,1.4-2.6C54.6,51,54.1,50.8,53.6,51.1z"/>
			<g>
				<path fill="#1D1E1C" d="M28.9-58.5C13.2-52.3-2.6-39-8.1-22.7C-10.9-14.6-10.1-6-8,2.2c1.8,6.9,5.2,16.8,11.8,20.5
					c0.2,0.1,0.4-0.2,0.3-0.3C-6.9,10.3-12.3-7.7-7-23.6c5.7-17.1,21.7-26,36-34.8C29-58.4,29-58.5,28.9-58.5L28.9-58.5z"/>
			</g>
			<g>
				<path fill="#1D1E1C" d="M4.7,16.7C5.4,10.1,4.5,3.4,5-3.2C5.7-13.8,8.2-23.3,12.3-33c0.1-0.3-0.3-0.5-0.4-0.2
					C6.8-24.6,5.6-14.6,4.4-4.8C3.9-1.1,3.9,2.7,3.9,6.5c0,3.3-0.3,7,0.6,10.2C4.6,16.8,4.7,16.8,4.7,16.7L4.7,16.7z"/>
			</g>
			<g>
				<path fill="#1D1E1C" d="M4.5,16.9c6.9,4.3,15.4,6.1,23.2,7.7c9.1,1.9,18.1,3.1,27.4,2.1c7-0.8,14.1-2.5,21-4
					c5.7-1.2,12.4-2.8,17.4-5.8c0.3-0.2,0-0.7-0.3-0.5c-4.9,2.7-10.9,4.2-16.3,5.5c-7.1,1.6-14.5,3.2-21.8,4.1
					c-8.8,1.1-17.4-0.2-26.1-1.9c-8.3-1.6-16.7-3.7-24.2-7.7C4.5,16.3,4.2,16.7,4.5,16.9L4.5,16.9z"/>
			</g>
			<g>
				<path fill="#1D1E1C" d="M4.4,16.5c-1.1,2.1-0.5,6.5,1.2,8.2c0.1,0.1,0.4,0,0.3-0.2c-0.3-1.4-1-2.6-1.2-4c-0.2-1.4-0.1-2.6,0-4
					C4.6,16.5,4.4,16.4,4.4,16.5L4.4,16.5z"/>
			</g>
			<g>
				<path fill="#1D1E1C" d="M5.6,24.8c5.4,2.5,11.5,3.8,17.3,5.1c7.2,1.7,14.6,3.2,22,3.3c8.2,0.1,16.7-0.5,24.7-2.1
					c4.6-0.9,9.2-2.3,13.8-3.5c3.3-0.9,6.8-1.8,9.8-3.4c0.3-0.2,0-0.6-0.3-0.5C86,27,77.8,28.6,70.4,30.3
					c-8.2,1.9-17.1,2.3-25.5,2.3C31.8,32.5,18,28.7,5.7,24.5C5.5,24.4,5.4,24.7,5.6,24.8L5.6,24.8z"/>
			</g>
			<g>
				<path fill="#1D1E1C" d="M75-55.3C88.2-46,101.6-37,106.1-20.4c2.1,7.7,1,15.7-1.2,23.2c-2.3,7.9-6.1,14-11.5,20
					c-0.2,0.2,0,0.5,0.3,0.3c6-3.3,9.3-11.9,11.4-18c2.7-7.6,3.8-15.6,2.3-23.6c-3-16.2-17.8-30.4-32.3-37
					C74.9-55.4,74.9-55.3,75-55.3L75-55.3z"/>
			</g>
			<g>
				<path fill="#1D1E1C" d="M93.4,16.7c0.9-3.2,0.6-6.9,0.7-10.2c0.1-3.8,0-7.6-0.4-11.3c-1-9.7-2.4-19.9-7.5-28.4
					c-0.2-0.3-0.5,0-0.4,0.2c1.9,4.5,3.8,8.9,5,13.7c1.2,5,1.8,10.2,2.3,15.2c0.7,6.9-0.5,13.9,0.1,20.7
					C93.2,16.8,93.4,16.8,93.4,16.7L93.4,16.7z"/>
			</g>
			<g>
				<path fill="#1D1E1C" d="M93.5,16.6c0.1,1.2,0.2,2.4,0.1,3.6c-0.1,1.2-0.7,2.5-0.6,3.7c0,0.2,0.2,0.2,0.4,0.1
					c0.7-1,0.7-2.6,0.9-3.8c0.1-1.2,0.2-2.6-0.4-3.7C93.7,16.4,93.5,16.5,93.5,16.6L93.5,16.6z"/>
			</g>
			<g>
				<path fill="#1D1E1C" d="M7.2,21c-0.3,0.6-0.1,1.6,0.3,2.1c0.1,0.1,0.2,0,0.2-0.1c0-0.3,0-0.6-0.1-0.9c-0.1-0.4,0-0.7-0.1-1.1
					C7.4,20.9,7.2,20.8,7.2,21L7.2,21z"/>
			</g>
			<g>
				<path fill="#1D1E1C" d="M9.6,21.9c-0.2,0.3-0.3,0.6-0.3,0.9c0,0.3,0,0.8,0.3,1c0.1,0,0.2,0.1,0.2,0c0.1-0.3,0-0.5,0-0.8
					c0-0.3,0-0.7-0.1-1C9.7,21.9,9.7,21.9,9.6,21.9L9.6,21.9z"/>
			</g>
			<g>
				<path fill="#1D1E1C" d="M12.1,23c-0.3,0.5-0.3,1.5,0.2,1.9c0,0,0.1,0,0.2,0c0.1-0.2,0.1-0.4,0.1-0.7c-0.1-0.4,0-0.7,0-1.1
					C12.5,23,12.2,22.9,12.1,23L12.1,23z"/>
			</g>
			<g>
				<path fill="#1D1E1C" d="M14.7,24.3c-0.1,0.5-0.1,1,0.2,1.4c0,0.1,0.2,0.1,0.2,0c0.2-0.4,0.3-1.1,0-1.5
					C15.1,24,14.8,24,14.7,24.3L14.7,24.3z"/>
			</g>
			<g>
				<path fill="#1D1E1C" d="M17.9,24.5c-0.2,0.3-0.2,0.6-0.2,1c0,0.4-0.1,0.8,0.3,1c0.1,0,0.2,0,0.2-0.1c0.2-0.3,0.1-0.7,0.1-1
					c0-0.3,0-0.7-0.2-1C18,24.5,17.9,24.5,17.9,24.5L17.9,24.5z"/>
			</g>
			<g>
				<path fill="#1D1E1C" d="M20.7,25.5c0,0.6-0.1,1.4,0.2,1.9c0,0.1,0.1,0.1,0.2,0.1c0.6,0,0.1-1.8,0-2.1
					C21,25.3,20.7,25.3,20.7,25.5L20.7,25.5z"/>
			</g>
			<g>
				<path fill="#1D1E1C" d="M23.6,26.1c-0.2,0.2-0.1,0.7-0.1,1c0,0.3,0.1,0.6,0.4,0.8c0.1,0,0.1,0,0.1-0.1c0.1-0.3,0-0.6,0-0.9
					c0-0.3,0-0.6-0.2-0.8C23.8,26,23.7,26,23.6,26.1L23.6,26.1z"/>
			</g>
			<g>
				<path fill="#1D1E1C" d="M29.9,27.5c-0.2,0.6-0.2,1.4,0.2,2c0,0.1,0.2,0.1,0.2,0c0.1-0.6,0.1-1.3-0.1-1.9
					C30.2,27.4,30,27.4,29.9,27.5L29.9,27.5z"/>
			</g>
			<g>
				<path fill="#1D1E1C" d="M26.6,26.6c-0.2,0.6-0.2,1.4,0.2,2c0,0.1,0.2,0.1,0.2,0c0.1-0.6,0.1-1.3-0.1-1.9
					C26.9,26.5,26.7,26.5,26.6,26.6L26.6,26.6z"/>
			</g>
			<g>
				<path fill="#1D1E1C" d="M33.3,27.9c-0.4,0.5-0.4,1.7,0.2,2c0.1,0,0.1,0,0.2-0.1c0.1-0.3,0-0.6,0-0.8c-0.1-0.3,0-0.7-0.1-1
					C33.6,27.9,33.4,27.8,33.3,27.9L33.3,27.9z"/>
			</g>
			<g>
				<path fill="#1D1E1C" d="M36.7,28.4c-0.2,0.3-0.2,0.7-0.2,1c0,0.3,0,0.8,0.3,0.9c0.1,0,0.1,0,0.2,0c0.2-0.2,0.1-0.5,0.1-0.8
					c0-0.4,0-0.7-0.1-1.1C36.9,28.4,36.8,28.3,36.7,28.4L36.7,28.4z"/>
			</g>
			<g>
				<path fill="#1D1E1C" d="M39.9,28.7c-0.1,0.4-0.1,0.9-0.1,1.3c0,0.4,0,0.7,0.4,0.9c0.1,0,0.2,0,0.2-0.1c0.2-0.3,0.1-0.7,0.1-1
					c0-0.4,0-0.8-0.3-1.1C40.1,28.6,40,28.6,39.9,28.7L39.9,28.7z"/>
			</g>
			<g>
				<path fill="#1D1E1C" d="M43.5,29.1c-0.2,0.3,0,0.8,0,1.2c0,0.4,0,0.9,0.4,1.2c0.1,0,0.1,0.1,0.2,0c0.3-0.4,0.2-0.8,0.1-1.2
					c0-0.4-0.1-0.9-0.4-1.2C43.8,29,43.6,29,43.5,29.1L43.5,29.1z"/>
			</g>
			<g>
				<path fill="#1D1E1C" d="M47.7,29c-0.2,0.3-0.2,0.8-0.2,1.1c0,0.3-0.2,0.9,0.2,1c0.6,0.2,0.3-1.8,0.2-2.1
					C47.8,29,47.7,28.9,47.7,29L47.7,29z"/>
			</g>
			<g>
				<path fill="#1D1E1C" d="M50.9,29.1c0,0.3-0.2,2.4,0.4,2.3c0.4-0.1,0.2-0.7,0.2-1c0-0.2,0-0.4-0.1-0.7c0-0.3-0.2-0.4-0.3-0.7
					C50.9,29,50.9,29.1,50.9,29.1L50.9,29.1z"/>
			</g>
			<g>
				<path fill="#1D1E1C" d="M54.3,29c-0.1,0.3-0.1,0.6-0.1,0.9c0,0.4,0,0.8,0.1,1.2c0,0.1,0.1,0.2,0.2,0.2c0.1,0,0.1,0,0.2,0
					c0.1,0,0.2-0.1,0.2-0.3c0-0.4-0.1-0.7-0.1-1.1c0-0.3,0-0.6-0.2-0.9C54.5,28.9,54.3,28.9,54.3,29L54.3,29z"/>
			</g>
			<g>
				<path fill="#1D1E1C" d="M57.5,28.5c-0.1,0.4,0,0.9,0,1.3c0,0.1,0,1,0.3,0.9c0.4-0.2,0.4-0.7,0.3-1.1c0-0.4,0-1-0.4-1.2
					C57.6,28.4,57.5,28.4,57.5,28.5L57.5,28.5z"/>
			</g>
			<g>
				<path fill="#1D1E1C" d="M60.1,28.3c0,0.3,0,0.7,0,1c0,0.4-0.1,0.7,0,1.1c0,0.2,0.3,0.2,0.4,0.1c0.3-0.6,0.3-1.8-0.3-2.2
					C60.1,28.1,60,28.2,60.1,28.3L60.1,28.3z"/>
			</g>
			<g>
				<path fill="#1D1E1C" d="M63.1,27.9c0,0.4,0.1,0.8,0.1,1.2c0,0.3-0.1,0.9,0.3,1c0,0,0.1,0,0.1,0c0.3-0.2,0.2-0.8,0.2-1.2
					c0-0.4,0-0.9-0.4-1.2C63.3,27.7,63.1,27.7,63.1,27.9L63.1,27.9z"/>
			</g>
			<g>
				<path fill="#1D1E1C" d="M66.5,27.2c-0.2,0.3-0.1,0.7,0,1.1c0,0.3,0,0.8,0.2,1c0,0,0.1,0,0.2,0c0.2-0.3,0.1-0.7,0.1-1
					c-0.1-0.4-0.1-0.8-0.3-1.2C66.6,27.2,66.5,27.2,66.5,27.2L66.5,27.2z"/>
			</g>
			<g>
				<path fill="#1D1E1C" d="M69.2,26.9c-0.1,0.3,0,0.6,0,0.9c0,0.3-0.1,0.6,0,1c0,0.2,0.2,0.2,0.3,0c0.3-0.5,0.2-1.5-0.1-2
					C69.4,26.8,69.2,26.8,69.2,26.9L69.2,26.9z"/>
			</g>
			<g>
				<path fill="#1D1E1C" d="M71.8,26.2c0,0.6-0.1,1.3,0.1,2c0.1,0.3,0.6,0.2,0.6-0.1c0-0.6-0.1-1.4-0.5-1.9
					C72,26.1,71.8,26.1,71.8,26.2L71.8,26.2z"/>
			</g>
			<g>
				<path fill="#1D1E1C" d="M74.4,25.6c0,0.3,0,0.7,0,1c0,0.2,0,0.4,0,0.6c0,0.2,0.1,0.3,0.1,0.5c0,0.1,0.2,0.1,0.3,0
					c0.2-0.4,0.2-0.7,0.2-1.1c0-0.4-0.1-0.8-0.3-1.1C74.6,25.4,74.4,25.5,74.4,25.6L74.4,25.6z"/>
			</g>
			<g>
				<path fill="#1D1E1C" d="M77.1,25C77,25.3,77,25.8,77,26.2c0,0.3-0.1,0.9,0.3,1.1c0.1,0,0.1,0,0.2,0c0.3-0.2,0.1-0.7,0.1-1
					c0-0.4,0-0.9-0.2-1.2C77.3,24.8,77.1,24.9,77.1,25L77.1,25z"/>
			</g>
			<g>
				<path fill="#1D1E1C" d="M79.6,24.3c-0.1,0.3-0.1,0.7,0,1c0,0.3,0,0.6,0.3,0.8c0.1,0,0.1,0,0.2,0c0.1-0.2,0.1-0.4,0-0.7
					c-0.1-0.4-0.1-0.7-0.2-1.1C79.8,24.1,79.6,24.1,79.6,24.3L79.6,24.3z"/>
			</g>
			<g>
				<path fill="#1D1E1C" d="M82,23.8c-0.1,0.3,0,0.7-0.1,1c0,0.3,0,0.5,0.2,0.8c0,0.1,0.2,0.1,0.2,0c0.2-0.2,0.2-0.5,0.2-0.8
					c0-0.3,0-0.7-0.1-1C82.3,23.6,82,23.6,82,23.8L82,23.8z"/>
			</g>
			<g>
				<path fill="#1D1E1C" d="M84.5,23c-0.1,0.3-0.1,0.6-0.2,0.9c0,0.3-0.1,0.8,0.1,1c0.1,0.1,0.2,0.1,0.2,0c0.2-0.2,0.2-0.5,0.2-0.8
					c0-0.4,0-0.7-0.2-1C84.7,22.9,84.5,22.9,84.5,23L84.5,23z"/>
			</g>
			<g>
				<path fill="#1D1E1C" d="M86.8,22.2c-0.1,0.3,0,0.6,0,0.8c0,0.3-0.1,0.7,0.1,0.9c0.1,0.1,0.2,0.1,0.3,0c0.3-0.4,0.3-1.5-0.1-1.9
					C87.1,22,86.8,22.1,86.8,22.2L86.8,22.2z"/>
			</g>
			<g>
				<path fill="#1D1E1C" d="M89.2,21.6c-0.1,0.2-0.1,0.6-0.1,0.9c0,0.4-0.1,0.7,0.1,1c0.1,0.1,0.3,0.1,0.4,0
					c0.1-0.4,0.1-0.8,0.1-1.2C89.7,22,89.6,21.6,89.2,21.6C89.3,21.6,89.2,21.6,89.2,21.6L89.2,21.6z"/>
			</g>
			<g>
				<path fill="#1D1E1C" d="M91.3,20.6c-0.1,0.3-0.1,0.6-0.1,0.9c0,0.3-0.1,0.7,0,1c0.1,0.1,0.2,0.2,0.3,0.1c0.3-0.3,0.3-0.6,0.3-1
					c0-0.3,0-0.7-0.2-1C91.6,20.5,91.4,20.5,91.3,20.6L91.3,20.6z"/>
			</g>
			<g>
				<path fill="#1D1E1C" d="M94.8,22.5c0.3-0.2,0.5-0.5,0.5-0.9c0-0.1-0.1-0.1-0.2-0.1c-0.3,0.1-0.5,0.6-0.5,0.9
					C94.6,22.5,94.7,22.5,94.8,22.5L94.8,22.5z"/>
			</g>
			<g>
				<path fill="#FCCC81" d="M84.6-30.1c3.3,12.6,5.7,29.8,5,45.2c0,0.4,0.5,0.7,0.6,0.1c2.2-16.9,1-32.3-5-45.3
					C84.7-31.1,84.5-30.6,84.6-30.1z"/>
			</g>
			<g>
				<path fill="#E0C0A2" d="M87.8,42.9c0.3,13-6.8,53.1-11,67.8c-0.1,0.4,0.5,0.2,0.5,0.2c4.7-16,12.5-52.7,12.2-68.1
					C89.5,41.9,87.8,42.4,87.8,42.9z"/>
			</g>
		</g>
	</g>
	<g>
		<defs>
			<rect id="SVGID_59_" x="0" y="0" width="100" height="100"/>
		</defs>
		<use xlink:href="#SVGID_59_"  overflow="visible" fill="#EE6F49"/>
		<clipPath id="SVGID_8_">
			<use xlink:href="#SVGID_59_"  overflow="visible"/>
		</clipPath>
		<g clip-path="url(#SVGID_8_)">
			<g>
				<path fill="#2F1D19" d="M16.6,46.3c0,0,0.5-35,22-35.7c0,0,13.1,2.7,26.5-1.6c0,0,6.1-1.7,9.6,2.3c2.1,2.4,5.8,5,8.4,12.6
					c1.7,5.1,2.7,12.3,2.7,23.2l-5.3,9.1l-59.7-3.2L16.6,46.3z"/>
				<path fill="#1F1412" d="M22.6,52.8c0.4-1,0.8-2,1.4-3c0.2-0.9,0.5-1.8,0.8-2.6c0.2-1.5,0.3-3,0.4-4.5c-0.1-0.9-0.3-1.8-0.5-2.7
					c-0.2-0.9,0.3-1.6,0.9-2c0.1-0.2,0.1-0.4,0.2-0.5c0,0,0,0,0,0c0-0.1,0-0.2,0-0.3c0-0.1,0-0.1,0-0.2c-0.3-1.4-0.6-2.9-0.7-4.4
					c-0.1-0.1-0.1-0.2-0.2-0.3c-0.2-0.5-0.4-1-0.6-1.6c-0.6-0.6-1.2-1.1-1.7-1.7c-0.8-0.9-1.5-1.9-2.1-3.1
					c-3.8,9.7-4.1,20.6-4.1,20.6l4.4,6.7l1.5,0.1C22.4,53.1,22.5,53,22.6,52.8z"/>
				<path fill="#1F1412" d="M85.8,46.1c-2.7,0-5.6,1-8.3,1.1c-0.2,0-0.5,0-0.7,0c-0.4,1.9-0.9,3.9-1,5.9c0,1.2-0.4,2.2-0.9,3
					l5.6,0.3l5.3-9.1C85.8,46.9,85.8,46.5,85.8,46.1z"/>
				<path fill="#F3B980" d="M89.5,53.1c-0.2-2.2-3.1-6.8-5.7-5.4c-0.1,0,0,0.2,0,0.2c0,0,0.1,0,0.1,0c-1.6,1.1-2,3.1-2.7,4.9
					c-0.1-0.3-0.4-0.6-0.5-0.9c-0.2-0.9-0.6-3.5-0.7-4.4c0,0,0,0,0,0c0,0,0-0.1,0-0.1c-0.6-2.5-1.1-4.9-1.4-7.5
					c-0.3-2-0.2-4.2-0.6-6.2c0.7-7.9-9.7-7.1-15.3-5.9c-2.9,0.2-5.7,0.8-8.7,0.7c-2.8-0.1-5.6-1-8.4-1.3c-4.4-0.5-9.4-1.2-13.5,0.7
					c0,0,0,0,0,0c-2.5,0.8-4.5,2.7-5.7,5.1c-2,3.9-1.4,8.3-2.4,12.4c-0.2,0.7-0.3,2.2-0.3,2.1c0,0,0,0.6-0.2,0.3
					c0,0-0.4,2.5-0.7,3.4c-0.3,1.1-1.2,2.3-1.2,2.3c0.1-1.1-0.3-2.5-0.6-3.4c-0.4-1.2-0.9-2.4-1.9-3.1c0,0-0.1,0-0.1-0.1
					c0,0,0,0,0,0c-1.2-1.2-3.2,0-4.3,0.8c-1.7,1.2-2,3.3-2.1,5.3c-0.2,4,2.8,7.8,6.8,6.7c0,0,0.3-0.1,0.4-0.1c0-0.2,0-0.4,0-0.6
					c0,0-0.1,0-0.1,0c0.2-0.9,0.1-3.2,0-4.7c0.1,1.5,0.3,3,0.4,4.5c-0.1,0-0.2,0.1-0.3,0.1c0,0,0.2,0,0.3,0c0.7,8,1.5,16.5,5.8,23.3
					c5.3,8.6,16,13.5,25.8,12.9c9.5-0.5,19.3-5.6,24.7-13.9c0.4-0.6,0.8-1.3,1.1-1.9c2.1-3.1,3.4-6.6,4.5-10.2
					c0.7-2.4,1.1-5.3,1.5-8.2c0-0.1,0-0.1,0-0.2C87.5,60.5,89.9,57,89.5,53.1z M83.7,58.3c0,0.2,0,0.4,0,0.6
					C83.4,58.9,83.4,58.5,83.7,58.3z M18.9,47.2C18.8,47.2,18.8,47.3,18.9,47.2C18.8,47.2,18.9,47.2,18.9,47.2z M82.9,56.5
					c0-0.3,0.2-0.4,0.4-0.3c0,1.6-0.1,3.3-0.3,5c0,0.1,0,0.1,0,0.2c-0.2,1.4-0.4,2.7-0.6,4.1C82.8,62.4,83,59.4,82.9,56.5z"/>
				<g>
					<path fill="#FFD600" d="M41.4,102.3C41.4,102.3,41.5,102.3,41.4,102.3c2.5,0.7,4.5,4.1,5.6,6.1c0.9,1.7,2.1,3.9,2.5,6
						c0.8-4.5,4-9.5,7.5-11.9c-0.3-1.1-0.2-2.4-0.1-3.5c0.1-1.3,0.1-2.6,0.2-3.9c-2.1,0.4-4.2,0.6-6.3,0.6c-2.8-0.1-5.8-0.5-8.7-1.4
						C42.2,96.8,42.1,99.8,41.4,102.3z"/>
					<path fill="#FFD600" d="M36.3,96.3c-1,1.1-1.9,2.4-2.6,3.6c-0.8,1.3-1.4,2.7-2,4.2c0,0.1-0.3,1.1-0.6,1.7c1-1,2.6-1.4,3.8-2
						c2-1,4-1.9,6.2-1.7c0-1.3,0.3-2.6,0.4-3.9c0.1-1.3,0.1-2.6,0.3-3.9c-0.6-0.2-1.2-0.4-1.8-0.6c0,0,0,0,0,0
						C38.7,94.6,37.4,95.1,36.3,96.3z"/>
					<path fill="#FFD600" d="M57.5,99c0,1.1,0.1,2.2,0,3.3c2.7,0.4,6.4,1.3,8.4,3.4c-0.8-4.2-2.8-9.4-6.8-11.1
						c-0.5,0.2-1.1,0.3-1.6,0.4C57.6,96.4,57.5,97.7,57.5,99z"/>
					<path fill="#FFD600" d="M41.9,94.2c0-0.1-0.1-0.1-0.1,0c0,0,0,0.1,0,0.1c0,0,0.1,0,0.1,0C41.9,94.3,41.9,94.3,41.9,94.2z"/>
					<path fill="#FFD600" d="M41.1,102.1c0,0,0.1,0,0.1,0c0.1,0,0.2,0.1,0.2,0.2c0.6-2.4,0.8-5.5,0.4-7.9c0,0-0.1,0-0.1,0
						c-0.2,1.3-0.2,2.6-0.3,3.9C41.3,99.5,41.1,100.8,41.1,102.1z"/>
					<path fill="#FFD600" d="M56.9,102.5C56.9,102.5,57,102.4,56.9,102.5c0.1-0.2,0.2-0.3,0.3-0.2c0.1,0,0.2,0,0.3,0
						c0.1-1.1,0-2.2,0-3.3c0-1.3,0.1-2.7,0-4c-0.2,0-0.3,0.1-0.5,0.1c-0.1,1.3-0.1,2.6-0.2,3.9C56.7,100.1,56.6,101.4,56.9,102.5z"
						/>
					<path fill="#FFD600" d="M57.5,94.9c0-0.3-0.5-0.2-0.5,0.1c0,0.1,0,0.1,0,0.2c0.2,0,0.3-0.1,0.5-0.1
						C57.5,95,57.5,94.9,57.5,94.9z"/>
					<path fill="#FFD600" d="M39.8,93.4c-0.1,0-0.3,0.1-0.4,0.1c0.2,0.1,0.3,0.1,0.5,0.2C40.1,93.6,40,93.4,39.8,93.4z"/>
					<path fill="#FFD600" d="M33.4,100.1c-0.2,0-0.4,0-0.5,0c-1.2,2-2.4,4.5-2.3,6.4c0,0.1,0.1,0.1,0.1,0c-0.1,0-0.1-0.1-0.1-0.1
						c0.1-0.2,0.3-0.4,0.4-0.5c0.3-0.6,0.6-1.6,0.6-1.7c0.5-1.5,1.2-2.8,2-4.2c0.8-1.3,1.6-2.5,2.6-3.6c1-1.2,2.4-1.7,3.6-2.6
						c0,0,0,0,0,0c-0.2-0.1-0.3-0.1-0.5-0.2c-2.4,0.7-4.1,2.7-5.5,4.8c-0.2,0.3-0.5,0.7-0.7,1.2c0.1,0,0.1,0,0.2,0
						C33.8,99.5,33.8,100.1,33.4,100.1z"/>
					<path fill="#FFD600" d="M65.9,105.7c0.2,0.2,0.4,0.4,0.5,0.6c0,0,0,0,0,0.1c0.1-1.7-0.4-3.4-1.1-5c-0.1,0-0.2,0-0.3-0.1
						c-0.1,0-0.1-0.2,0-0.2c0.1,0,0.1,0,0.2,0c-0.5-1.2-1.2-2.3-1.8-3.4c-0.7-1.2-2.1-3-3.6-3.3c-0.2,0.1-0.5,0.1-0.7,0.2
						C63.1,96.4,65.2,101.5,65.9,105.7z"/>
					<path fill="#FFD600" d="M58.9,94.4c-0.1,0-0.1,0.1,0,0.1c0.1,0,0.1,0.1,0.2,0.1c0.2-0.1,0.5-0.1,0.7-0.2
						C59.5,94.3,59.2,94.3,58.9,94.4z"/>
					<path fill="#FFD600" d="M1.2,127.9C1.2,127.9,1.2,127.9,1.2,127.9c0.1,0.1,0.1,0.3,0.2,0.4c0-0.1,0.1-0.1,0-0.2
						c-1.7-2.4,5.8-11.6,7.2-13.5c2.6-3.5,6.1-6.3,9.7-8.7c4-2.7,9.6-5.9,14.5-5.9c0.1-0.2,0.2-0.4,0.3-0.5
						c-4.8-0.2-10,2.9-14.1,5.3c-4.2,2.5-8.3,5.8-11.2,9.8c-1.1,1.5-8.4,10.8-7.1,13.4c0-0.1,0-0.1,0.1-0.2
						C1,127.6,1.2,127.7,1.2,127.9z"/>
					<path fill="#FFD600" d="M33.4,100.1c0.3,0,0.3-0.5,0-0.5c-0.1,0-0.1,0-0.2,0c-0.1,0.2-0.2,0.4-0.3,0.5
						C33.1,100.1,33.3,100.1,33.4,100.1z"/>
				</g>
				<g>
					<path fill="#F3B980" d="M141.3,73.1c0.2-0.8,2.9-6.2,1.5-6.9c-0.4,0.1-0.7,0.1-1.1,0.3c-0.3,0.2-0.6,0.5-0.9,0.8
						c-0.4,0.5-0.8,1-1.2,1.4c-0.1,0.2-0.2,0.4-0.3,0.6c-0.1,0.1-0.2,0-0.3-0.1c-0.3-0.9,0.2-2.4,0.3-3.3c0.1-0.4,0.1-0.9,0-1.3
						c-0.1-0.5-0.4-0.7-0.8-1c-0.9,0.4-1.4,1.4-1.7,2.3c-0.2,0.5-0.3,1.4-0.7,1.9c0,0,0,0,0,0c0,0-0.1,0.1-0.1,0.1c0,0-0.1,0-0.1,0
						c0,0,0,0,0-0.1c0,0,0,0,0,0c-0.4-0.9-0.2-2.1-0.1-3.1c0.1-0.5,0.5-2.1,0-2.4c0,0,0,0,0,0c-1.9-0.4-3.2,3.3-3.9,4.7
						c0,0-0.1,0-0.1,0c0,0,0-0.1,0-0.1c0,0-0.1,0-0.1-0.1c-0.2-0.7,0-1.6,0-2.3c0-1-0.1-2.2-1.1-2.6c0,0,0,0,0,0
						c-1.7,0.6-2.3,2.9-2.6,4.5c-0.2,0.8-0.3,1.7-0.4,2.5c0,0.2,0,0.3,0,0.5c0.3,0.2,0.5,0.5,0.7,0.7c0,0.1,0,0.2-0.1,0.2
						c-1-0.3-1.9-1-3-1.2c-0.6-0.1-1.8-0.4-2.3,0.3c-0.6,0.7-0.2,1.9,0.2,2.6c1,1.8,3.1,4.3,2.4,6.5c0,0,0,0.1,0,0.2
						c0,3.5-2.5,8.2-4.4,10.9c-2.5,3.6-5.5,6.8-8.9,9.4c-3.8,2.8-8,6.1-12.5,7.7c-1.7,0.6-4.4,1.8-6.3,1.5c0.8,2.5,0.1,5.9,0.3,8.5
						c0.3,3.7,1.2,7.1,2,10.7c6.3-0.9,13.6-4.8,18.9-8.3c5.7-3.8,10.4-8.8,14.1-14.7c3.4-5.6,6.1-11.6,8.3-17.8
						c1.5-4.3,2.5-9.1,4.5-13.2C141.4,73.3,141.3,73.2,141.3,73.1z M133.4,75.9c-1.1-1.9-2.2-3.5-4-4.7c-0.1-0.1,0-0.2,0.1-0.2
						c1.9,0.7,3.8,2.7,4.3,4.7C133.8,76,133.5,76.1,133.4,75.9z"/>
					<path fill="#F3B980" d="M93.3,107.8c0,0.1,0,0.1,0.1,0.2c1.9,0.3,4.7-0.9,6.3-1.5c4.5-1.6,8.7-4.8,12.5-7.7
						c3.5-2.6,6.5-5.7,8.9-9.4c1.9-2.8,4.4-7.4,4.4-10.9c0-0.1,0-0.1,0-0.2c-0.1,0.2-0.1,0.5-0.3,0.7c0,0.1-0.1,0-0.1,0
						c0-0.3,0-0.5-0.1-0.7c0,0-0.1,0.1-0.1,0.2c-1.6,8.5-7.4,15.6-14.1,20.6c-3.2,2.4-6.6,4.6-10.1,6.4c-2.5,1.3-5.2,1.4-7.9,2.3
						c-0.1,0-0.1,0.1,0,0.2c0.1,0,0.1,0,0.2,0c0,0,0-0.1,0-0.1C93.1,107.7,93.3,107.6,93.3,107.8z"/>
					<path fill="#F3B980" d="M142.2,72.1c-0.2,0.4-0.4,0.8-0.6,1.1c0,0,0,0.1-0.1,0.1c-2,4.1-3,8.9-4.5,13.2
						c-2.2,6.2-4.9,12.2-8.3,17.8c-3.6,5.9-8.4,10.9-14.1,14.7c-5.3,3.5-12.6,7.4-18.9,8.3c0,0.1,0.1,0.2,0.1,0.3
						c0.1,0.3-0.3,0.5-0.5,0.2c0-0.1-0.1-0.1-0.1-0.2c0,0.2,0.1,0.4,0.3,0.4c2.4-0.1,5.2-1.5,7.5-2.3c3.4-1.3,6.7-3,9.9-4.7
						c5.4-2.9,10.1-7.3,13.8-12.3c3.9-5.3,6.9-11.2,9.4-17.3c2.6-6.2,3.6-12.6,6-18.9C142.1,72.3,142.3,72,142.2,72.1z"/>
				</g>
				<path fill="#F8B032" d="M52.1,164.2c0.2-2.1,0.6-4,1.4-6c0.4-1,0.7-2,0.8-3c-0.2-1.8-0.6-3.7-1.3-5.5c-0.3-0.8-0.7-1.5-1.1-2.2
					c-6.7-3.7-10.6-10.7-10.4-18.5c0.1-2.4,0.3-4.7,0.8-7c0.4-2,1.3-4.1,1.4-6.2c0.2-4.3-0.8-8.5-1.6-12.8c0-0.1,0-0.1,0-0.2
					c-1.1-0.8-2.3-1.1-3.8-0.5c-0.8,0.3-3.3,0.9-3.8,1.8c-0.2,0.3-0.6,0.3-0.7,0c0,0,0-0.1-0.1-0.1c-0.2-0.3,0-0.5,0.2-0.7
					c1.9-1.4,5.2-3.3,7.7-2.7c-0.1-0.2-0.1-0.4-0.1-0.6c0-0.7,0.1-1.3,0.2-2c0-0.4,0-0.8,0-1.3c0-0.3,0.1-0.5,0.2-0.7
					c0-0.1-0.1-0.2-0.1-0.3c0,0,0-0.1-0.1-0.1c-0.4-0.6-0.4-1.2-0.2-1.6c0,0,0,0,0,0c0,0,0,0.1,0,0.1c-0.6-0.2-1.2-0.4-1.8-0.6
					c0.1-0.1,0-0.3-0.1-0.3c-0.1,0-0.3,0.1-0.4,0.1c-2.4,0.7-4.1,2.7-5.5,4.8c-0.2,0.3-0.5,0.7-0.7,1.2c-4.8-0.2-10,2.9-14.1,5.3
					c-4.2,2.5-8.3,5.8-11.2,9.8c-1.1,1.5-8.4,10.8-7.1,13.4c-0.8,1.8-1.1,3.9-0.7,5.8c0,0,0,0.1,0,0.1c0,0.1,0,0.1,0.1,0.2
					c3,3,7.3,5,11.6,6.3c-1.5-0.6-3.7-1.6-4.5-2.1c-0.2,0-0.3-0.1-0.5-0.1l0,0c-0.1,0.1-0.3,0.1-0.4,0c0,0,0,0,0,0
					c-0.1-0.1-0.1-0.1-0.2-0.2c-0.5-0.2-1-0.5-1.4-0.7c-0.2-0.1-0.2-0.5,0.1-0.5c0.8,0.1,1.4,0.5,2.2,0.6c0.4,0.1,0.8,0.1,1.1,0.3
					c1.5,0.4,2.9,1,4.5,1.1c1.3,0.1,2.7,0.2,4,0.6c0.2,0,0.4,0,0.6,0c0,0,0,0,0.1,0c0.3,0,0.5,0,0.8,0c0.7,0,0.7,1.1,0,1.1
					c-0.1,0-0.2,0-0.3,0c0,0.3-0.1,0.5-0.4,0.7c-0.3,0.2-0.7,0.3-1.1,0.3c0.2,0,0.5,0.1,0.7,0.1c-0.5,2.9,0.7,24.9,1.1,26.4
					c0.4,1.6,1,4,2.3,5.2c0.1,0.1,0.2,0.1,0.2,0c6.6,3.2,14.2,4.8,21.5,5.4c0,0,0,0,0,0c0.1,0.1,0.2,0.1,0.2-0.1l0.1-1.6
					c1.6,0.2,3.2-0.1,4.7-0.2c1.8-0.2,3.5,0,5.2,0.2c0,0.1,0,0.1,0.1,0.1c0-0.2-0.1-0.5-0.1-0.7c-0.2-0.2-0.4-0.5-0.5-0.8
					c-0.3-0.9-0.3-2-0.1-3.1c-0.5-2-0.3-4.4,0.2-6.6C52,165.3,52,164.8,52.1,164.2z M20.7,124.9c0,0.2-0.4,0.2-0.4-0.1
					c0-2-0.1-4-0.2-6c-0.4,2.4-0.3,5-0.3,7.4c0,1.4-0.2,2.8-0.4,4.2c0.1,0,0.2,0.1,0.2,0.2c0,0.6,0,1.1-0.1,1.7
					c0.1,0,0.1,0.1,0.1,0.1c0.1,1-0.1,2-0.2,2.9c-0.1,0.8,0,1.6-0.3,2.3c0,0.2-0.3,0.2-0.3,0c-0.2-0.8-0.1-1.6,0.1-2.4
					c0-0.1,0-0.2,0-0.3c-0.1,0.2-0.1,0.5-0.2,0.7c0,0.3,0,0.6,0,0.8c0,0.5-0.6,0.4-0.7,0c-0.5-4,0.9-8.1,1-12.1c0-2.5,0.1-5.1,1-7.5
					c-0.1-1-0.1-2-0.2-3c0-0.3,0.4-0.4,0.5-0.1C21,117.5,21.4,121.3,20.7,124.9z"/>
				<path fill="#F3B980" d="M57.1,102.6l0.1-7.8c0,0-6.5,1.5-15.4-0.5c0,0,0,5.5-0.4,8"/>
				<path fill="#F7D4B2" d="M77.5,73.6L77.5,73.6c-0.1-0.2-0.3-0.4-0.6-0.4c-1,0-1.4,1.9-1.7,2.6c-1.6,4.5-4.1,7.4-8.3,9.7
					c-0.7,0.4-0.2,1.7,0.6,1.4c3.4-1.4,6-4.1,7.8-7.3c0.6-1.1,1-2.2,1.4-3.4C77,75.5,77.7,74.4,77.5,73.6z"/>
				<path fill="#F7D4B2" d="M85.1,48.9c-0.2-0.1-0.4,0.2-0.3,0.4c0.9,1.2,2.1,1.9,2.4,3.4c0.1,0.5,1,0.4,0.9-0.1
					C87.9,51.1,86.5,49.4,85.1,48.9z"/>
				<path fill="#F7D4B2" d="M76.7,33.5c-0.1-0.8-0.7-1.5-1.3-2c-0.6-0.5-1.4-0.8-2.1-1.1c-0.5-0.2-1.4-0.7-1.9-0.5
					c-0.1,0-0.1,0.1-0.1,0.2c0.1,0.9,2,1.4,2.7,1.8c0.6,0.4,1.2,0.9,1.5,1.6c0.3,0.7-0.1,1.6,0.4,2.2c0.1,0.1,0.2,0.1,0.3,0
					C76.9,35.3,76.8,34.2,76.7,33.5z"/>
				<path fill="#F7D4B2" d="M54.1,60.3c-0.6-1.1-2.1-2.1-3.4-2.2c-0.4,0-0.5,0.5-0.2,0.7c0.5,0.3,1,0.6,1.5,0.9
					c0.5,0.3,0.9,0.8,1.2,1.2C53.7,61.4,54.5,60.8,54.1,60.3z"/>
				<path fill="#5A4A48" d="M79.5,19.1c-0.9-2.7-3.1-4.7-5.5-6c-2.2-1.2-5.6-2.3-8.1-1.4c-0.4,0.1-0.4,0.7,0,0.8
					c2.5,0.4,4.7,0.3,7,1.4c2.5,1.2,4.3,3.2,5.4,5.7C78.6,20.3,79.7,19.8,79.5,19.1z"/>
				<path fill="#5A4A48" d="M83.7,37.3c-0.1-0.9,0-1.9-0.2-2.7c0-0.1-0.2-0.1-0.2,0c-0.4,0.8-0.2,1.9-0.1,2.8
					c0.1,1.2,0.3,2.4,0.9,3.5c0.1,0.1,0.2,0,0.2-0.1C84,39.6,83.8,38.5,83.7,37.3z"/>
				<path fill="#FFEB85" d="M63.9,101c-0.4-0.6-0.7-1.1-1-1.7c-0.1-0.2-0.3-0.5-0.4-0.7c-0.1-0.1-0.2-0.5-0.2-0.3
					c0-0.2-0.2-0.3-0.3-0.1c-0.6,0.7,0,1.7,0.4,2.4c0.3,0.7,1.1,2.5,2,2.5C65.4,103,64.1,101.2,63.9,101z"/>
				<path fill="#F8B032" d="M55.1,104.4c-0.5,0.7-1,1.5-1.5,2.3c1.7-0.7,3.8-1.2,5.5-0.7c1.2-0.1,2.3-0.1,3.4,0.1
					c0.7,0.1,2.2,0.6,3.7,0.9c0.2-0.1,0.3-0.2,0.5-0.2c-0.4-0.1-0.7-0.3-1-0.7c-0.1,0-0.1,0-0.2,0c-0.8-0.1-1.4-0.5-1.7-1.1
					c-0.2-0.2-0.4-0.5-0.7-0.8c-1.2-0.8-2.3-2-3-3.2c-0.3-0.5-0.4-1.1-0.2-1.6c-0.4-1.2-0.2-2.4,0.6-3.6c0.1-0.3,0.3-0.6,0.5-0.9
					c-0.4-0.2-0.7-0.4-1.1-0.5c-0.3-0.1-0.6-0.1-0.9,0c-0.1,0-0.1,0.1,0,0.1c0.1,0,0.1,0.1,0.2,0.1c-0.5,0.2-1.1,0.3-1.6,0.4
					c0,0,0-0.1,0-0.1c0-0.2-0.1-0.2-0.3-0.2c0,0.1,0,0.3,0,0.4c0,0.6,0,1.1,0,1.7c0,0.4-0.1,0.8-0.3,1.1c0,0.5,0,0.9,0,1.4
					c0,0.2-0.1,0.4-0.1,0.6c0.2,0.9,0.3,1.9,0.4,2.8C57.2,103.9,56.1,104.5,55.1,104.4z"/>
				<path fill="#B68A60" d="M22.7,51.7c1.6,0.8,3.3,1.8,3.9,2.4c1.3,1.3,2.3,1.4,2.3,1.4c0.4-1.4,2.5-3,2.5-3c-0.1,0-0.1,0,0,0
					c2.2-1.1,6,3,7.2,1.3c0.6-0.1,7.3,1.8,7.1,2.7c0.3-0.2,0-1.2,0.3-1.4c1.6-0.9,3.8-1.4,5.7-1.5c2.1-0.2,4.9,0.6,7,0.8
					c0.2-0.2,8-2.4,10.6-2.5c0.5-0.1,6.3,2.3,7,2.8c0.3-0.2,2.5-1.8,4.3-3.1l-0.4-2.3c-1.9,0.6-3.9,1-5.8,1.2
					c-1.9,0.1-7.1-0.8-9-0.8c-1,0-6.1,1.9-7.7,1.8c-2.5-0.1-4.5-0.9-7-0.8c-1.8,1.1-18.1,0.3-20.4,0.1c-1.8-0.2-4.7-0.5-7.1-1.4
					L22.7,51.7z"/>
				<path fill="#B68A60" d="M61.7,92.9c-5.3,0.8-11.1,0.4-16.2-1.4c-6.7-2.4-16.1-7.4-18-14.8c-0.7-1.2-1.3-2.6-1.9-3.9
					c-0.9-1.3-1.6-2.8-2.1-4c-1.1-2.5-1.9-5-1.9-7.6c-0.1-0.2-0.2-0.4-0.2-0.7c-0.5-0.4-0.8-0.9-1.2-1.4c0,0,0,0,0,0
					c-0.1,0-0.2,0.1-0.3,0.1c0,0,0.2,0,0.3,0c0.7,8,1.5,16.5,5.8,23.3c5.3,8.6,16,13.5,25.8,12.9c3.7-0.2,7.5-1.1,11-2.6
					C62.4,92.8,62.1,92.8,61.7,92.9z"/>
				<path fill="#B68A60" d="M75.4,62.6c-0.2,0.1-5,1-6.7,0.7c-0.6-0.1-8.6-0.5-8.8-0.3c-0.1,0.1-0.9-1.4-2.1-0.7
					c0.4,0.7,0.5,2,2,2.7c5,1.4,9.5,0.8,14.2-0.3C75.2,64.2,75.4,62.9,75.4,62.6z"/>
				<path fill="#B68A60" d="M44.9,62.4c-0.2,0.1-5,1-6.7,0.7c-0.6-0.1-8.6-0.5-8.8-0.3c-0.1,0.1-0.9-1.4-2.1-0.7
					c0.4,0.7,0.5,2,2,2.7c5,1.4,9.5,0.8,14.2-0.3C44.6,64,44.9,62.7,44.9,62.4z"/>
				<path fill="#B68A60" d="M83.1,60.2c0.2,0.4,0.3,0.9,0.5,1.3c0-0.1,0-0.3,0.1-0.4c0-0.1,0-0.1,0-0.2c3.1-0.4,5.2-2.7,5.8-5.5
					c-1.4,0.6-2.8,1-4.5,1.1c-0.6,0-1.1-0.1-1.6-0.3C83.3,57.6,83.2,58.9,83.1,60.2z M83.7,58.3c0,0.2,0,0.4,0,0.6
					C83.4,58.9,83.4,58.5,83.7,58.3z"/>
				<path fill="#B68A60" d="M19.9,59.1c0,0-0.1,0-0.1,0c0.1-0.5,0.1-1.6,0.1-2.6c-0.7-0.5-1.4-0.9-2.2-1.3c0-0.1,0-0.2-0.1-0.3
					c-0.4-0.4-0.5-1.2-0.6-1.8c0-0.3,0-0.6,0-0.8c0-0.1-0.1-0.5-0.1-0.4c0-0.1,0-0.1-0.1-0.2c0-0.1,0-0.1-0.1-0.1c0,0,0,0-0.1,0
					c0,0,0,0,0,0c0,0,0,0,0,0c-0.7-0.1-1,0.6-1,1.3c0,0.3,0.1,0.7,0.2,1c-1.1-0.8-2-1.7-2.9-2.7c-0.1,0.6-0.2,1.2-0.2,1.8
					c-0.2,4,2.8,7.8,6.8,6.7c0,0,0.3-0.1,0.4-0.1C19.8,59.5,19.9,59.4,19.9,59.1z"/>
				<path fill="#B68A60" d="M105.9,105.7c3.4-2.8,6.7-5.6,10-8.7c1.2-1.2,2.3-2.6,3.6-3.9c0.6-1.1,1.3-2.3,1.9-3.4
					c1-2,1.7-3.8,1.8-5.7c-2.6,6-7.2,11.1-12.3,14.9c-3.2,2.4-6.6,4.6-10.1,6.4c-2.5,1.3-5.2,1.4-7.9,2.3c-0.1,0-0.1,0.1,0,0.2
					c0.1,0,0.1,0,0.2,0c-0.1,0.8-0.1,1.7-0.2,2.5C97.4,109.4,101.8,107.9,105.9,105.7z"/>
				<path fill="#B68A60" d="M53.5,97.2c0.5-0.7,1.1-1.1,1.8-1.1c0.3-0.2,0.6-0.5,0.9-0.7c0.2-0.2,0.3-0.3,0.5-0.4
					c-1.8,0.3-7.5,1-14.8-0.6c0,0,0,4-0.3,6.7C45.5,99.8,49.9,99.2,53.5,97.2z"/>
				<path fill="#B68A60" d="M86.4,52c-0.1-0.3-0.5-0.2-0.5,0.1c0,0.1,0,0.1,0,0.2c0,0,0,0-0.1,0c-0.1-0.1-0.2-0.2-0.3-0.3
					c-0.1,0-0.1,0-0.2,0c-0.2,0.2-0.2,0.5-0.1,0.9c0,0.2,0,0.3,0,0.5c0,0.1,0,0.2,0,0.2c-0.1,0.5-0.5,1-0.4,1.5
					c0,0.1,0.1,0.2,0.2,0.2c0.2,0,0.3-0.1,0.5-0.2c0,0,0,0.1,0,0.1c0,0.1,0.1,0.1,0.2,0.1c0.4-0.1,0.5-0.4,0.6-0.9
					c0.1,0,0.3,0,0.3-0.2C86.8,53.5,86.7,52.7,86.4,52z"/>
				<path fill="none" stroke="#E4332A" stroke-miterlimit="10" d="M41.8,94.5"/>
				<g>
					<path fill="#1D1D1B" d="M30.3,48.4c0.7-0.1,1.3-0.6,1.9-0.9c0.8-0.5,1.6-1.1,2.4-1.5c0.3-0.2,0.1-0.7-0.3-0.6
						c-1,0.3-1.9,0.6-2.7,1.2c-0.6,0.4-1.3,1-1.5,1.7C30.1,48.3,30.2,48.4,30.3,48.4L30.3,48.4z"/>
				</g>
				<g>
					<path fill="#1D1D1B" d="M74.3,48.1c-0.1-0.7-0.8-1.3-1.4-1.8c-0.8-0.7-1.6-1-2.6-1.3c-0.4-0.1-0.6,0.4-0.3,0.6
						c0.8,0.5,1.5,1.2,2.3,1.7c0.5,0.4,1.1,0.9,1.8,1C74.2,48.3,74.3,48.2,74.3,48.1L74.3,48.1z"/>
				</g>
				<g>
					<path fill="#1D1D1B" d="M19.5,54.1c0.4,10.1,1.2,20.6,6.6,29.4c5,8.2,15.4,12,24.5,12.3c9.7,0.3,19-4.9,25.3-12.2
						c3-3.5,4.6-7.7,5.9-12.1C83,67,84.2,61,83.6,56.3c-0.1-0.5-0.7-0.5-0.7,0c0.2,8.3-1.7,17.9-6.3,24.8
						c-5.4,8.3-15.2,13.3-24.7,13.9c-9.8,0.5-20.5-4.3-25.8-12.9c-5.1-8.2-5.3-18.6-6.2-27.9C19.9,53.8,19.5,53.8,19.5,54.1
						L19.5,54.1z"/>
				</g>
				<g>
					<path fill="#1D1D1B" d="M19,46.7c-1.9-0.9-3-0.1-4.1,0.7c-1.7,1.2-2.3,3.3-2.4,5.3c-0.2,4,2.9,8.6,7.2,7.2
						c0.5-0.2,0.3-1-0.2-0.8c-3.4,1.2-5.6-1.6-6.3-4.6c-0.7-3.1,1.5-9,5.5-7.4C18.9,47.1,19.1,46.8,19,46.7L19,46.7z"/>
				</g>
				<g>
					<path fill="#1D1D1B" d="M16.4,51.1C15.2,52,15.2,54.9,17,55c0.1,0,0.1-0.1,0.1-0.2c-0.5-0.7-1.2-1.3-1-2.3
						c0.1-0.4,0.6-1,0.4-1.5C16.5,51.1,16.4,51.1,16.4,51.1L16.4,51.1z"/>
				</g>
				<g>
					<path fill="#1D1D1B" d="M84,47.5c2.8,0.1,4.8,3.2,5,5.9c0.3,3.7-2.6,6.2-5.7,7.1c-0.3,0.1-0.3,0.7,0.1,0.6
						c4.1-0.4,6.7-4.5,6.3-8.5c-0.2-2.2-3.1-6.8-5.7-5.4C83.9,47.4,83.9,47.5,84,47.5L84,47.5z"/>
				</g>
				<g>
					<path fill="#1D1D1B" d="M86,51.9c0.1,0.5,0.3,0.9,0.4,1.5c0,0.6-0.2,1.1-0.3,1.7c0,0.2,0.1,0.4,0.3,0.3c0.9-0.6,0.8-3-0.1-3.6
						C86.1,51.6,86,51.7,86,51.9L86,51.9z"/>
				</g>
				<g>
					<path fill="#1D1D1B" d="M51.7,57.4c2.3,0.5,4.1,1.6,4.3,4.3c0.2,2.7-2.5,4-4.3,5.2c-0.3,0.2-0.1,0.6,0.2,0.6
						c2.7-0.5,5-3.5,4.6-6.3c-0.3-2.4-2.6-4.2-4.9-3.9C51.7,57.3,51.7,57.4,51.7,57.4L51.7,57.4z"/>
				</g>
				<g>
					<path fill="#1D1D1B" d="M21.7,53.6c1.1-1.3,1.6-3,1.7-4.7c0-0.2-0.4-0.2-0.4,0c-0.1,1.6-0.5,3.3-1.5,4.6
						C21.5,53.6,21.6,53.7,21.7,53.6L21.7,53.6z"/>
				</g>
				<g>
					<path fill="#1D1D1B" d="M23.5,48.4c1.2-2,1.3-8.1,1.8-10.9c0.8-4.7,4.1-8.7,8.6-10c0.1,0,0.1-0.3,0-0.3
						c-3.3,0.3-5.5,2.7-7.2,5.4c-2.8,4.4-2.3,13.9-3.4,15.6c-0.1,0.1,0,0.3,0.1,0.2H23.5z"/>
				</g>
				<g>
					<path fill="#1D1D1B" d="M32.4,27.7c10.3-2.5,20.4,2.9,30.7,0c0.1,0,0.1-0.3,0-0.3c-2.9,0.2-5.8,0.8-8.8,0.7
						c-2.8-0.1-5.6-1-8.4-1.3c-4.4-0.5-9.4-1.2-13.5,0.7C32.3,27.6,32.3,27.7,32.4,27.7L32.4,27.7z"/>
				</g>
				<g>
					<path fill="#1D1D1B" d="M61.9,27.7c2.8,0.2,5.7-0.5,8.6-0.5c4.7,0,7,2,7.4,6.8c0,0.1,0.2,0.2,0.2,0
						C79.7,24.8,67.2,26.4,61.9,27.7C61.9,27.7,61.9,27.7,61.9,27.7L61.9,27.7z"/>
				</g>
				<g>
					<path fill="#1D1D1B" d="M78,32.6c-0.2,4.9,0.9,11.8,2.1,16.6c0.1,0.3,0.5,0.2,0.4-0.1c-0.6-2.5-1.4-7-1.7-9.5
						c-0.3-2.3-0.1-4.7-0.7-6.9C78.1,32.5,78,32.6,78,32.6L78,32.6z"/>
				</g>
				<g>
					<path fill="#1D1D1B" d="M80.6,49c-0.4,0.5-0.3,1.3-0.2,1.9c0.1,0.7,0.2,1.8,0.7,2.3c0.1,0.1,0.2,0,0.2,0
						c0.1-0.5-0.2-1.1-0.4-1.6C80.7,50.7,80.7,49.9,80.6,49C80.7,49,80.6,48.9,80.6,49L80.6,49z"/>
				</g>
				<g>
					<path fill="#1D1D1B" d="M16.6,46.6c-0.1-2.3,0.7-5,1-7.3c0.5-4.2,1.6-8.3,3-12.3c3.2-8.9,10.2-15.4,19.6-15.8
						c0.2,0,0.2-0.3,0-0.3c-7.3-1.8-14.5,5-17.9,10.9c-2.3,3.9-3.5,8.6-4.6,13c-0.7,2.7-0.7,5.6-1.1,8.3c-0.2,1.3-0.5,2.4-0.2,3.7
						C16.4,46.9,16.6,46.8,16.6,46.6L16.6,46.6z"/>
				</g>
				<g>
					<path fill="#1D1D1B" d="M35.3,11.2c6.4-0.1,12.8,1.2,19.2,0.5c2.8-0.3,5.5-1.1,8.2-1.8c4.6-1.1,7.8-0.9,12,1.5
						c0.1,0.1,0.3-0.1,0.2-0.2C70.8,7.1,65,8.7,60,10c-4.4,1.1-8.7,1.6-13.2,1.4c-3.9-0.2-7.6-1.2-11.5-0.2
						C35.2,11.1,35.3,11.2,35.3,11.2L35.3,11.2z"/>
				</g>
				<g>
					<path fill="#1D1D1B" d="M71.4,9.5c6.5,4.5,10.8,9.6,12.5,17.6c1.4,6.6,1.3,13.5,1.4,20.2c0,0.4,0.6,0.4,0.6,0
						C85.7,33.8,85.9,15.4,71.4,9.5C71.3,9.4,71.3,9.4,71.4,9.5L71.4,9.5z"/>
				</g>
				<g>
					<path fill="#1D1D1B" d="M67.5,69.9c0.5,0,0.5-0.8,0-0.8C67,69.1,67,69.9,67.5,69.9L67.5,69.9z"/>
				</g>
				<g>
					<path fill="#1D1D1B" d="M41.7,94.3c-0.2,1.3-0.2,2.7-0.3,4c-0.1,1.4-0.3,2.7-0.4,4.1c0,0.2,0.3,0.2,0.4,0
						c0.6-2.5,0.8-5.6,0.4-8.1C41.8,94.3,41.7,94.3,41.7,94.3L41.7,94.3z"/>
				</g>
				<g>
					<path fill="#1D1D1B" d="M56.9,95.1c-0.1,1.4-0.1,2.7-0.2,4.1c-0.1,1.2-0.2,2.6,0.2,3.7c0.1,0.2,0.4,0.2,0.4,0
						c0.2-1.2,0.1-2.5,0.1-3.7c0-1.4,0.1-2.8,0-4.2C57.4,94.7,57,94.8,56.9,95.1L56.9,95.1z"/>
				</g>
				<g>
					<path fill="#1D1D1B" d="M30.7,106.5c0.3,0,0.9-2.1,1-2.3c0.5-1.5,1.2-2.8,2-4.2c0.8-1.3,1.6-2.5,2.6-3.6c1-1.2,2.4-1.7,3.6-2.6
						c0.2-0.1,0.1-0.4-0.1-0.3c-2.7,0.6-4.4,2.7-5.9,4.9c-1.4,2.1-3.4,5.6-3.4,8.1C30.5,106.7,30.7,106.7,30.7,106.5
						C30.7,106.6,30.7,106.6,30.7,106.5C30.7,106.5,30.7,106.5,30.7,106.5L30.7,106.5z"/>
				</g>
				<g>
					<path fill="#1D1D1B" d="M58.9,94.6c4.4,1.8,6.5,7.6,7.2,12c0,0.3,0.4,0.2,0.4-0.1c0.2-3.2-1.5-6.1-3-8.8
						c-0.8-1.4-2.7-3.7-4.5-3.4C58.8,94.5,58.8,94.6,58.9,94.6L58.9,94.6z"/>
				</g>
				<g>
					<path fill="#1D1D1B" d="M1.4,128.2c-1.7-2.4,5.8-11.6,7.2-13.5c2.6-3.5,6.1-6.3,9.7-8.7c4.1-2.8,10-6.2,15.1-5.9
						c0.3,0,0.3-0.5,0-0.5c-4.9-0.3-10.1,2.8-14.3,5.3c-4.2,2.5-8.3,5.8-11.2,9.8c-1.2,1.6-9.3,12-6.8,13.8
						C1.3,128.6,1.5,128.4,1.4,128.2L1.4,128.2z"/>
				</g>
				<g>
					<path fill="#1D1D1B" d="M92.9,107.9c1.9,0.6,5-0.8,6.9-1.4c4.5-1.6,8.7-4.8,12.5-7.7c3.5-2.6,6.5-5.7,8.9-9.4
						c1.9-2.8,4.4-7.4,4.4-10.9c0-0.4-0.5-0.4-0.6-0.1c-1.6,8.5-7.4,15.6-14.1,20.6c-3.2,2.4-6.6,4.6-10.1,6.4
						c-2.5,1.3-5.2,1.4-7.9,2.3C92.8,107.8,92.8,107.9,92.9,107.9L92.9,107.9z"/>
				</g>
				<g>
					<path fill="#1D1D1B" d="M141.7,72.1c-2.5,4.3-3,9.7-4.6,14.4c-2.2,6.2-4.9,12.2-8.3,17.8c-3.6,5.9-8.4,10.9-14.1,14.7
						c-5.3,3.5-12.8,7.5-19.1,8.3c-0.5,0.1-0.5,0.8,0,0.7c2.4-0.1,5.2-1.5,7.5-2.3c3.4-1.3,6.7-3,9.9-4.7
						c5.4-2.9,10.1-7.3,13.8-12.3c3.9-5.3,6.9-11.2,9.4-17.3c2.5-6.2,3.7-12.9,6.1-19.2c0.1-0.2-0.2-0.2-0.3,0L141.7,72.1z"/>
				</g>
				<g opacity="0.8">
					<path fill="#DA9085" d="M28.8,57.4c-0.2,0-0.5,0-0.7,0c-1.9-0.2-3.8,0.2-5.2,1.1c-0.5,0.3-0.9,0.9-1,1.5
						c-0.4,0.5-0.3,1.3,0.2,1.8c0,0.1,0.1,0.2,0.1,0.3c1,1.5,2.8,1.8,4.3,2c0.5,0,1.2,0.1,1.9,0c0.2,0.2,0.4,0.3,0.7,0.3
						c2.2,0.3,5.8-0.3,6-3.8C35.3,57.7,30.9,56.9,28.8,57.4z"/>
					<path fill="#DA9085" d="M81.2,60c-0.4-0.5-0.8-1-1.2-1.3c0,0,0.1,0,0.1,0c0.2,0,0.2-0.4,0-0.5c-2.2-1.3-4.7-1.5-7-0.9
						c-0.1,0-0.3,0.1-0.4,0.1c-1,0.3-2,0.9-2.8,1.6c-0.5,0.5-0.7,1.9-0.2,2.6c0.2,0.2,0.4,0.4,0.6,0.6c1,2.2,3.3,2.3,4.8,2.3
						c1.9,0,4.7-0.3,6.1-2.7C81.5,61.4,81.5,60.5,81.2,60z"/>
				</g>
				<g>
					<path fill="#E1F2FC" d="M60.8,62.6c2.3,0.6,3.9,1.2,6.2,1.1c2.9-0.1,5.9-0.9,8.7-2.6c0,0.1,0.2,0.1,0.2,0
						c0.2-3.1,0.1-10.5,0-10.5c0,0-2.7-1-4.6-1.1c-3-0.1-7.4-0.1-10.4,0.8c-0.2,0-3.1,1.1-3.2,1.3c-0.1,0.9,0.3,7.9,1.3,9
						C58.9,60.7,60.6,62.6,60.8,62.6z"/>
					<path fill="#848585" d="M27.2,53.1c0,0-3.6-2.4-6.3-3.5L20,48c0.9,0.1,3.3,1.1,6.6,2.6L27.2,53.1z"/>
					<path fill="#1D1D1B" d="M26.9,53.3c0,0-3-1.9-5.9-3.5c-0.5-0.3-0.2-0.6-0.2-0.6c1.8,0.9,4.6,2.3,6.1,3.2
						C27.9,54.1,26.9,53.3,26.9,53.3z"/>
					<path fill="#1D1D1B" d="M27,50.3c-1.5-0.7-5-2-7.3-2.7L20,48c2,0.8,5.5,2.3,7,3C27,50.8,27,50.5,27,50.3z"/>
					<path fill="#848585" d="M75.8,54c0,0,2.3-2.8,6.9-4.2c0.2,0,0.6-1.3,0.6-1.3c-0.9-0.1-3.5,0.9-6.9,2.5L75.8,54z"/>
					<path fill="#1D1D1B" d="M76.2,53.6c0,0,3.1-1.9,6.2-3.6l0-0.5c-1.6,0.8-4.6,2.2-6.2,3.2C75.1,54.4,76.2,53.6,76.2,53.6z"/>
					<path fill="#1D1D1B" d="M76,50.6c1.6-0.8,5.3-1.9,7.2-2.4l-0.1,0.4c-1.9,0.6-5.5,1.9-7,2.7C76.1,51.1,76.1,50.8,76,50.6z"/>
					<path fill="#848585" d="M47.1,53.2c0,0,4.1-2.4,9.6-0.1l1.9-1.7c0,0-0.4-1.3-5.5-1.4s-7.4,0.9-7.4,0.9L47.1,53.2z"/>
					<path fill="#E1F2FC" d="M44.8,60.5c1-1.1,1.5-8.1,1.3-9c0-0.2-3-1.3-3.2-1.3c-2.9-0.9-7.3-0.8-10.4-0.8
						c-1.9,0.1-4.6,1.1-4.6,1.1c0,0-0.2,7.4,0,10.5c0,0.1,0.1,0.1,0.2,0c2.8,1.7,5.7,2.5,8.7,2.6c2.4,0.1,3.9-0.5,6.2-1.1
						C43.2,62.5,44.9,60.6,44.8,60.5z"/>
					<path fill="#848585" d="M46.9,50.6c-1.4-2.7-17.3-2.8-20.2-1.4c0,0-1.3,11.3,1.4,13.5c2.7,2.1,8.9,2.1,11.6,1.9
						c2.7-0.2,4.3-0.6,5.4-1.5C46.1,62.1,48.2,53.1,46.9,50.6z M44.7,54.4c-0.2,2-0.5,3.8-0.8,5.8c-0.1,0.6-0.3,1.1-0.8,1.5
						c-0.3,0.3-0.7,0.4-1,0.5c-0.4,0.1-0.8,0.2-1.2,0.3c-0.5,0.1-0.3,0.1-0.8,0.1c-0.5,0.1-1.1,0.3-1.6,0.3c-1,0-1.6,0-2.6-0.1
						c-1.7-0.1-3.8-0.2-5.3-1.1c-1.2-0.7-1.5-2.2-1.7-3.5c-0.3-2-0.4-6.4,0.1-7.3c0.3-0.5,0.9-0.6,1.5-0.7c1.6-0.2,3.3-0.1,5-0.1
						c1.9,0,3,0,4.8,0.1c1.2,0.1,2.4,0.2,3.5,0.9l0,0c0,0,0,0,0,0c0.1,0,0.1,0.1,0.2,0.1c0,0,0,0,0,0c0.4,0.3,0.7,0.8,0.8,1.3
						C44.8,53.2,44.8,53.8,44.7,54.4z"/>
					<path fill="#1D1D1B" d="M47.4,53.5c0-0.4-0.5-0.3-0.5,0.1c-0.1,2-1,7.3-1.3,8.1c-0.1,0.4-0.4,0.7-0.7,1.1
						c-0.3,0.4-0.9,0.5-1.4,0.7c-0.5,0.1-2.7,0.8-5,0.9c-1.3,0.1-4-0.2-4.6-0.2c-1.2-0.2-2.5-0.4-3.6-0.7c-0.2-0.1-0.4-0.1-0.7-0.2
						c-2.8-0.8-3-4.1-3-6.5c0-2.3-0.1-6.9,0.2-7.3c0.5-0.7,3-0.9,4.4-0.9c1.7,0,3.5,0,5.2,0.1c3.2,0.1,7-0.2,9.7,1.5
						c0.5,0.3,0.7-0.1,0.2-0.5c-1.4-1-3.1-1.3-4.8-1.4c-2.5-0.1-4.2-0.2-6.6-0.2c-2.2,0-4.4-0.2-6.6,0.1c-0.9,0.1-1.6,0.3-2,0.9
						c-0.7,1.2-0.3,7-0.1,9.6c0.1,1.7,0.7,3.6,2.3,4.5c1.9,1.1,4.6,1.2,6.8,1.4c1.4,0.1,1.9,0.2,3.3,0.1c0.6,0,1.2-0.1,1.8-0.2
						c0.6-0.1,1.2-0.3,1.8-0.4c0.6-0.1,1.1-0.3,1.7-0.4c0.5-0.1,0.9-0.2,1.3-0.5c0.6-0.5,0.9-1.2,1.1-1.9
						C46.8,58.7,47.4,56.2,47.4,53.5z"/>
					<path fill="#1D1D1B" d="M44.9,52.6c-0.1-0.5-0.3-1-0.8-1.3c0,0,0,0,0,0c-0.1,0-0.1-0.1-0.2-0.1c0,0,0,0,0,0l0,0
						c-1.1-0.7-2.3-0.9-3.5-0.9c-1.9-0.1-3-0.1-4.9-0.1c-1.7,0-3.4-0.1-5.1,0.1c-0.7,0.1-1.3,0.2-1.5,0.7c-0.5,0.9-0.4,5.4-0.1,7.4
						c0.2,1.3,0.5,2.9,1.7,3.6c1.5,0.9,3.7,1,5.3,1.1c1.1,0.1,1.5,0.1,2.5,0c0.5,0,1.3-0.2,1.8-0.2c0.5-0.1,0.4-0.1,0.9-0.2
						c0.4-0.1,0.7-0.2,1.1-0.3c0.4-0.1,0.7-0.2,1-0.5c0.5-0.4,0.7-0.9,0.8-1.5c0.4-2,0.6-3.9,0.9-5.9C44.9,53.8,44.9,53.1,44.9,52.6
						z M43.3,60.5c-0.1,0.3-0.3,0.6-0.5,0.9c-0.2,0.3-0.6,0.4-1,0.5c-0.4,0.1-1.9,0.6-3.7,0.7c-1,0.1-3.1-0.1-3.5-0.2
						c-0.9-0.1-1.8-0.3-2.7-0.5c-0.2,0-0.3-0.1-0.5-0.1c-2.1-0.7-2.2-3.1-2.2-5c0-1.8-0.2-5.2,0-5.5c0.2-0.2,2.4-0.5,3.5-0.5
						c1.3,0,2.7,0.1,4,0.1c2.3,0.1,4.7-0.3,6.8,1c1.1,0.6,0.9,2.6,0.8,2.6C44.3,55.9,43.6,59.8,43.3,60.5z"/>
					<path fill="#848585" d="M58.8,63.1c1.1,0.9,2.7,1.3,5.4,1.5c2.7,0.2,8.9,0.2,11.6-1.9c2.7-2.1,1.4-13.5,1.4-13.5
						c-3-1.4-18.4-1.6-19.9,1C55.6,52.9,57.7,62.2,58.8,63.1z M59,52.7c0.1-0.5,0.3-1,0.8-1.3c0,0,0,0,0,0c0.1,0,0.1-0.1,0.2-0.1
						c0,0,0,0,0,0l0,0c1-0.7,2.2-0.9,3.5-0.9c1.9-0.1,3-0.1,4.8-0.1c1.6,0,3.4-0.1,5,0.1c0.7,0.1,1.2,0.2,1.5,0.7
						c0.5,0.9,0.4,5.4,0.1,7.3c-0.2,1.3-0.5,2.8-1.7,3.5c-1.5,0.8-3.6,0.9-5.3,1.1c-1,0.1-1.6,0.1-2.6,0.1c-0.5,0-1.1-0.3-1.6-0.3
						c-0.5-0.1-0.3-0.1-0.8-0.1c-0.4-0.1-0.8-0.2-1.2-0.3c-0.4-0.1-0.7-0.2-1-0.5c-0.5-0.4-0.7-0.9-0.8-1.5c-0.4-2-0.6-3.8-0.8-5.8
						C59,53.9,59,53.2,59,52.7z"/>
					<path fill="#1D1D1B" d="M56.4,53.6c0-0.4,0.5-0.3,0.5,0.1c0.1,2,1,7.3,1.3,8.1c0.1,0.4,0.4,0.7,0.7,1.1
						c0.3,0.4,0.9,0.5,1.4,0.7c0.5,0.1,2.7,0.8,5,0.9c1.3,0.1,4-0.2,4.6-0.2c1.2-0.2,2.5-0.4,3.6-0.7c0.2-0.1,0.4-0.1,0.7-0.2
						c2.8-0.8,3-4.1,3-6.5c0-2.3,0.1-6.9-0.2-7.3c-0.5-0.7-3-0.9-4.4-0.9c-1.7,0-3.5,0-5.2,0.1c-3.2,0.1-7-0.2-9.7,1.5
						c-0.5,0.3-0.7-0.1-0.2-0.5c1.4-1,3.1-1.3,4.8-1.4c2.5-0.1,4.2-0.2,6.6-0.2c2.2,0,4.4-0.2,6.6,0.1c0.9,0.1,1.6,0.3,2,0.9
						c0.7,1.2,0.3,7,0.1,9.6c-0.1,1.7-0.7,3.6-2.3,4.5c-1.9,1.1-4.6,1.2-6.8,1.4c-1.4,0.1-1.9,0.2-3.3,0.1c-0.6,0-1.2-0.1-1.8-0.2
						c-0.6-0.1-1.2-0.3-1.8-0.4c-0.6-0.1-1.1-0.3-1.7-0.4c-0.5-0.1-0.9-0.2-1.3-0.5c-0.6-0.5-0.9-1.2-1.1-1.9
						C57,58.8,56.4,56.3,56.4,53.6z"/>
					<path fill="#1D1D1B" d="M58.9,54.4c0.2,2,0.5,3.9,0.9,5.9c0.1,0.6,0.4,1.1,0.8,1.5c0.3,0.3,0.7,0.4,1,0.5
						c0.4,0.1,0.7,0.2,1.1,0.3c0.5,0.1,0.4,0.1,0.9,0.2c0.5,0.1,1.3,0.2,1.8,0.2c1.1,0,1.5,0.1,2.5,0c1.7-0.1,3.8-0.2,5.3-1.1
						c1.2-0.7,1.6-2.2,1.7-3.6c0.3-2,0.4-6.5-0.1-7.4c-0.3-0.5-0.9-0.6-1.5-0.7c-1.7-0.2-3.4-0.1-5.1-0.1c-1.9,0-3,0-4.9,0.1
						c-1.3,0.1-2.5,0.2-3.5,0.9l0,0c0,0,0,0,0,0c-0.1,0-0.1,0.1-0.2,0.1c0,0,0,0,0,0c-0.4,0.3-0.7,0.8-0.8,1.3
						C58.8,53.2,58.9,53.9,58.9,54.4z M59.5,54.3c0-0.1-0.2-2,0.8-2.6c2.1-1.3,4.4-0.9,6.8-1c1.3,0,2.7-0.1,4-0.1
						c1.1,0,3.3,0.2,3.5,0.5c0.3,0.3,0.1,3.7,0,5.5c0,1.9-0.1,4.4-2.2,5c-0.2,0.1-0.3,0.1-0.5,0.1c-0.9,0.2-1.8,0.4-2.7,0.5
						c-0.5,0.1-2.5,0.3-3.5,0.2c-1.8-0.1-3.3-0.6-3.7-0.7c-0.3-0.1-0.7-0.2-1-0.5c-0.2-0.3-0.4-0.5-0.5-0.9
						C60.2,59.9,59.5,55.9,59.5,54.3z"/>
					<path fill="#1D1D1B" d="M47.1,50.6c2.8-0.6,6-0.6,9-0.2c0.1,0,0.7,0.1,1,0.2c0.2,0,0.3-0.2,0.6-0.4c-0.1,0,0-0.6-0.1-0.5
						c-0.4,0.4-0.8,0.3-1.1,0.3c-1.1-0.2-3.1-0.4-4.5-0.3c-0.9,0-3.2,0.1-4.4,0.4c-0.7,0.2-1-0.2-1.1-0.3c-0.4-0.2-0.3,0.4-0.3,0.4
						C46.6,50.4,46.7,50.7,47.1,50.6z"/>
					<path fill="#1D1D1B" d="M56.2,52.4c-2.7-0.7-6.3-0.2-6.3-0.2c-0.7,0.2-2.9,0.6-2.9,1.3c0.1,0,0.5,0.1,0.5,0
						c0-0.4,1.9-0.7,2.2-0.7c0.8-0.2,1.5-0.2,2.6-0.3c0.7,0,2.2,0,3.4,0.2c1,0.1,0.7,0.8,0.8,0.9c0.4,0.2,0.5,0,0.5,0
						C56.9,52.7,56.5,52.5,56.2,52.4z"/>
				</g>
				<g>
					<path fill="#1D1D1B" d="M36.8,54.6c-0.8,0.2-1.4,0.2-1.9,0.9c-0.8,1.1-0.7,2.7,0.7,3.2c1.1,0.4,2.9,0,3.4-1.2
						c0.4-1.2-0.7-2.7-1.9-2.9c-0.4-0.1-1,0-1.4,0.2"/>
					<path fill="#FFFFFF" d="M37.1,55.2c-0.7,0.2-2,1.2-0.8,2c2.1,1.4,3-1.6,0.9-2.1"/>
				</g>
				<g>
					<path fill="#1D1D1B" d="M66.8,54.6c-0.8,0.2-1.4,0.2-1.9,0.9c-0.8,1.1-0.7,2.7,0.7,3.2c1.1,0.4,2.9,0,3.4-1.2
						c0.4-1.2-0.7-2.7-1.9-2.9c-0.4-0.1-1,0-1.4,0.2"/>
					<path fill="#FFFFFF" d="M67.1,55.2c-0.7,0.2-2,1.2-0.8,2c2.1,1.4,3-1.6,0.9-2.1"/>
				</g>
				<g>
					<path fill="#1D1D1B" d="M18.8,47.1c1.1,1,1.8,2.1,2.1,3.5c0.2,1,0.1,2.3,0.5,3.2c0.1,0.1,0.2,0.1,0.2,0c0.4-1.1-0.1-2.9-0.5-4
						c-0.4-1.2-1.2-2.5-2.7-3.2c-0.1-0.1,0.2,0.2,0.3,0.3L18.8,47.1z"/>
				</g>
				<g>
					<path fill="#1D1D1B" d="M81.3,53.1c0.9-2,1.8-5.4,3.7-5.4c0.3,0-0.3-0.7-0.5-0.5c-2.3,1-2.7,3.6-3.5,5.8
						C80.9,53.1,81.2,53.3,81.3,53.1L81.3,53.1z"/>
				</g>
				<g>
					<path fill="#CC6273" d="M58.2,83.5c-8.1-8.9-19.1-4-19.1-4c2.3,5.9,7.4,5.8,10.4,6.2C53.7,86.3,58.2,83.5,58.2,83.5z"/>
					<path fill="#B0B0B0" d="M39.3,79.4c-1.8,0.7-1.8-9.1-1.8-9.1s7.4,1.2,10,0.9c0,0,16.4-0.4,16.9-0.6c0.5-0.2,0,10-6.2,12.6
						C58.2,83.1,51.2,74.9,39.3,79.4z"/>
					<path fill="#CC6273" d="M58.2,83.5c-8.1-8.9-19.1-4-19.1-4c2.3,5.9,7.4,5.8,10.4,6.2C53.7,86.3,58.2,83.5,58.2,83.5z"/>
					<path fill="#A1877F" d="M39.3,79.4c-1.8,0.7-1.8-9.1-1.8-9.1s7.4,1.2,10,0.9c0,0,16.4-0.4,16.9-0.6c0.5-0.2,0,10-6.2,12.6
						C58.2,83.1,51.2,74.9,39.3,79.4z"/>
					<path fill="#A13D51" d="M52.3,79.1c-0.1,0-0.3,0-0.4,0.1c0-0.2-0.2-0.4-0.4-0.4c-0.1,0-0.1,0-0.2,0c-1.1-0.4-2.2-0.5-3.2-0.5
						c-0.7-0.1-1.5-0.2-2.3-0.3c-0.8-0.1-1.5,0.1-2.3,0.2c-1.5,0.1-3,0.3-4.3,1.1c-0.2,0.1-0.3,0.4-0.1,0.6c0.1,0.1,0.2,0.3,0.3,0.4
						c0,0,0,0,0,0c0.2,1.4,1.8,2.4,2.9,3.2c0.1,0.1,0.2,0.1,0.2,0.1c-0.1,0.3,0.4,0.6,0.6,0.3c0.7-0.9,2-1.5,3-2.1
						c1.7-1,3.5-1.7,5.5-2.1c0,0,0,0,0,0c0.3,0,0.6,0,0.8-0.1C52.8,79.5,52.7,79,52.3,79.1z"/>
					<path fill="#E0A0AB" d="M54.4,81.3c-0.2-0.1-0.4,0.1-0.3,0.3c0.2,0.4,0.7,0.7,1,1.1c0.1,0.2,0.3,0.8,0.6,0.6
						C56.4,82.8,54.8,81.5,54.4,81.3z"/>
					<g>
						<path fill="#1D1D1B" d="M37.4,70.3c3.9,1.4,9.1,1.1,13.3,1.1c4.7,0.1,9.4-0.1,14-0.8c0.2,0,0.2-0.4-0.1-0.4
							c-8.9,0-18.2,1.7-27.1-0.3C37.3,69.9,37.2,70.2,37.4,70.3L37.4,70.3z"/>
					</g>
					<g>
						<path fill="#1D1D1B" d="M37.3,70c0,4.6,0.1,8.4,2.9,12.1c2.8,3.6,8.2,4.2,12.3,3.8c7.1-0.8,13.5-8.1,12.3-15.6
							c0-0.3-0.5-0.2-0.5,0.1c0.5,7.2-4.1,13-10.7,14.8c-4,1.1-7.5,0.1-11.1-1.8c-4.9-2.7-4.4-8.6-4.9-13.3
							C37.6,69.9,37.3,69.9,37.3,70L37.3,70z"/>
					</g>
					<g>
						<path fill="#1D1D1B" d="M38.9,79.7c6.6-2.6,14-1.7,18.9,3.8c0.2,0.2,0.5-0.1,0.4-0.3c-1.8-2.6-5.5-4.9-8.6-5.2
							c-3.3-0.3-8-0.7-10.8,1.5C38.7,79.6,38.8,79.7,38.9,79.7L38.9,79.7z"/>
					</g>
				</g>
			</g>
		</g>
	</g>
</g>
<g id="globo">
</g>
</svg>
