<?xml version="1.0" encoding="utf-8"?>
<!-- Generator: Adobe Illustrator 17.0.0, SVG Export Plug-In . SVG Version: 6.00 Build 0)  -->
<!DOCTYPE svg PUBLIC "-//W3C//DTD SVG 1.1//EN" "http://www.w3.org/Graphics/SVG/1.1/DTD/svg11.dtd">
<svg version="1.1" xmlns="http://www.w3.org/2000/svg" xmlns:xlink="http://www.w3.org/1999/xlink" x="0px" y="0px" width="100px"
	 height="100px" viewBox="0 0 100 100" enable-background="new 0 0 100 100" xml:space="preserve">
<g id="capa1">
</g>
<g id="personajes">
	<g>
		<defs>
			<rect id="SVGID_3_" x="0" y="0" width="100" height="100"/>
		</defs>
		<use xlink:href="#SVGID_3_"  overflow="visible" fill="#549FD7"/>
		<clipPath id="SVGID_2_">
			<use xlink:href="#SVGID_3_"  overflow="visible"/>
		</clipPath>
		<g clip-path="url(#SVGID_2_)">
			<g>
				<g>
					<path fill="#4B2504" d="M22,131.1c2.7-4.3,4.3-8.7,5.2-13.7c0.1-0.4,0.1-0.4,0.1-0.8c-0.1,0-0.3,0-0.3-0.1
						c-6.2,7-13.3,12.5-22,15.8c3.5-3.4,5.5-8.8,6.4-12.2c0,0-0.6,0.9-1.2,1.4c-1.3,1.1-2.7,1.8-4.3,2.4c-0.2,0.1-0.9,0.2-1.3,0.3
						c0.3-0.6,0.7-1.4,0.9-1.8c2.7-4.7,5-9.6,6.4-14.8c1-3.5,2-7,2.3-10.7c0.5-6.8,0.8-13.5,0.9-20.2c0-0.7,0.1-1.5,0.3-2.2
						c0.3-1.4,0.6-2.9,0.9-4.4c0-0.2,0.3-0.6,0.4-0.9c4.5-8.1,65.5-12.9,64.6,4.4c0,0.5,0.1,0.8,0.1,1.1c0.2,2.9-0.1,6-0.6,8.8
						c-1,5.8-1.9,11.5-2.4,17.4c-0.5,6,0,11.9,2.3,17.6c0.4,1.1,1,2.5,1.4,3.6c-0.2,0-0.5-0.2-0.6-0.3c-0.5-0.3-1-0.6-1.5-0.9
						c-3.7-2.4-7-5.5-9.9-9c-0.6-0.6-1-0.8-1.1-1.9c0,1.6,0.1,2.3,0.1,3.6c-0.1,3.7-1.1,7.4-2.7,10.7c-2.2,4.7-5.5,8.6-9,12.3
						c-0.1,0.1-0.5,0.3-0.7,0.3c0.1-0.2,0.3-0.8,0.3-0.9c2.6-5.5,3.5-11,3.3-17.1c0-0.6,0.1-1.3,0.2-2c0.2-1.1,0.4-1.9,0.6-3
						c-0.3,0.2-0.2,0.3-0.3,0.6c-0.7,2.3-1.2,4.6-2,6.9c-2.2,6.7-5.7,12.7-11,17.4c-0.3,0.2-1.1,1-1.2,0.9c0,0,0.8-2.1,1-3
						c0.7-2.6,1.2-5,1.8-7.6c0.5-2.1,0.4-4.1,1.6-6.1c0,0,0.1-0.1,0.1-0.3c-0.1,0.2-0.2,0.3-0.3,0.5c-2.6,4.5-5.3,8.8-8.2,13
						c-1.3,1.9-2.5,3.8-3.3,6c0,0.4-0.4,0.4-0.5,0.1c-0.1-0.6-0.4-1.3-0.5-1.9c-1.6-7.5-1.8-15-0.6-22.5c0.2-1.3,0.6-2.4,1.2-3.6
						c0.5-0.9,1-2.5,0.9-2.4c-1.9,4.1-4.4,7.8-7.3,11.3c-3,3.7-6.5,7-10.7,9.3c-0.3,0.2-1.2,0.7-1.6,0.9
						C20.3,133.5,21.8,131.3,22,131.1z"/>
					<path fill="#1D1E1C" d="M81.4,74.7c0.2,2.9-0.1,5.8-0.6,8.7c-1,5.8-1.9,11.6-2.5,17.5c-0.5,6,0.1,11.9,2.3,17.6
						c0.4,1.1,0.9,2.1,1.3,3.3c-0.2,0-0.3-0.1-0.4-0.1c-0.5-0.3-1-0.6-1.5-1c-3.6-2.6-6.8-5.7-9.9-9c-0.6-0.6-1.1-1.2-1.2-2.3
						c0,1.6,0,2.9,0,4.2c-0.1,3.7-1.2,7.1-2.7,10.5c-2.2,4.7-5.3,8.7-8.9,12.4c-0.1,0.1-0.1,0.1-0.3,0.1c0.1-0.2,0.1-0.3,0.2-0.4
						c2.6-5.5,3.5-11.3,3.3-17.3c0-0.6,0.1-1.3,0.2-1.9c0.2-1.1,0.4-2.2,0.6-3.2c-0.3,0.2-0.3,0.5-0.4,0.7c-0.7,2.3-1.3,4.6-2.1,6.9
						c-2.2,6.7-5.6,12.6-10.9,17.4c-0.2,0.2-0.5,0.4-0.7,0.6c0.4-0.8,0.6-1.7,0.8-2.5c0.7-2.5,1.3-5.1,1.8-7.7
						c0.5-2.1,0.4-4.3,1.6-6.2c0,0,0-0.1-0.1-0.3c-0.1,0.2-0.3,0.4-0.4,0.6c-2.6,4.5-5.4,8.8-8.4,13c-1.3,1.9-2.6,3.9-3.4,6.1
						c0,0-0.1,0-0.2,0.1c-0.1-0.6-0.2-1.1-0.3-1.7c-1.6-7.5-1.7-15-0.6-22.6c0.2-1.3,0.5-2.5,1.2-3.7c0.5-0.9,0.8-1.8,1.1-2.7
						c-0.2,0-0.3,0.1-0.4,0.2c-1.9,4.1-4.5,7.8-7.3,11.3c-3,3.7-6.4,7-10.7,9.4c-0.3,0.2-0.7,0.4-1.1,0.6c0,0,0,0,0,0
						c0.5-0.6,0.9-1.2,1.2-1.9c0,0,0.1-0.1,0.1-0.1c2.7-4.3,4.5-9,5.4-14.1c0.1-0.4,0.1-0.7,0.1-1.1c-0.1,0-0.1-0.1-0.2-0.1
						c-6.2,6.9-13.2,12.6-21.8,16.1c3.4-4.1,5.8-8.5,6.4-13.8c-0.2,0.3-0.4,0.7-0.4,1.1c-0.1,0.8-0.6,1.4-1.2,1.9
						c-1.3,1.1-2.8,2-4.4,2.6c-0.2,0.1-0.5,0.1-0.9,0.2c0.3-0.6,0.5-1,0.8-1.4c2.7-4.7,5-9.7,6.5-14.9c1-3.5,2-7.1,2.3-10.7
						c0.5-6.1,1.5-18.7,0.8-23.7c-0.1,0-0.2,0-0.3,0c0,0.1,0,5.7,0,5.9c-0.2,4.4-0.4,8.8-0.7,13.3c-0.2,4.4-0.8,8.7-2,13
						c-1.5,5.4-3.4,10.7-6.2,15.5c-0.4,0.7-0.8,1.5-1.2,2.2c-0.3,0.5-0.5,1.1-0.8,1.8c2.6-0.6,4.6-1.7,6.5-3.1
						C9.6,126,7,129.5,4,133.1c0.5-0.1,0.7-0.2,1-0.3c2.8-1.1,5.4-2.3,7.9-3.9c4.3-2.7,8.3-5.8,11.8-9.5c0.6-0.7,1.3-1.3,2-2
						c0.1,0.5,0.1,0.8,0,1.2c-0.9,4.2-2.5,8.1-4.5,11.8c-0.6,0.9-1.2,1.9-1.8,2.8c-0.3,0.3-0.7,0.7-1,1c0.3,0.1,0.4,0.1,0.6,0
						c3.1-1.6,5.9-3.5,8.5-5.8c3.2-3,6-6.4,8.4-10.1c0.2-0.2,0.4-0.5,0.5-0.7c-0.5,4.5-0.9,8.9-0.7,13.4c0.2,4.5,1,8.8,2.5,13
						c0.3-1.7,1-3.1,1.9-4.5c0.4-0.7,0.9-1.5,1.4-2.2c2.3-3.4,4.6-6.9,6.8-10.3c0.1-0.1,0.2-0.3,0.3-0.4c-0.3,2.4-0.8,4.8-1.3,7.1
						c-0.4,1.5-0.8,3-1.2,4.5c-0.2,0.5-0.5,1.1-0.8,1.6c0,0,0,0.1,0,0.1c-0.1,0.1-0.2,0.3-0.3,0.4c0.5-0.1,0.8-0.3,1.1-0.5
						c3.5-3,6.5-6.3,8.7-10.4c1.5-2.7,2.6-5.6,3.7-8.5c0.1-0.3,0.2-0.6,0.4-0.9c0.1,0,0.2,0,0.2,0.1c-0.1,1.6-0.1,3.2-0.3,4.7
						c-0.2,1.6-0.4,3.2-0.8,4.8c-0.4,1.5-0.8,3.1-1.4,4.5c-0.6,1.5-1.4,2.9-2.1,4.3c4.3-3.4,7.7-7.5,10.3-12.3
						c2.4-4.4,3.9-9.1,3.6-14.2c0-0.1,0.1-0.2,0.2-0.3c2.2,2.5,4.5,4.9,7.2,7c1.6,1.2,3.2,2.3,4.9,3.5c0.3,0.2,0.6,0.3,1.1,0.5
						c-0.1-0.3-0.1-0.4-0.2-0.5c-2.6-5.3-3.9-10.9-4-16.7c0-4.6,0.7-9.1,1.3-13.5c0.4-2.9,1.1-5.8,1.5-8.7c0.5-2.9,0.9-9.3,0.3-12.2
						c-0.3,0-0.7,0.8-0.9,0.8C80.8,71.8,81.4,74.6,81.4,74.7z"/>
					<path fill="#1D1E1C" d="M18.3,89.5c0.7,6.1-0.6,11.8-2.7,17.4C17.3,101.3,18.3,95.5,18.3,89.5z"/>
				</g>
				<g>
					<path fill="#4B2504" d="M12.7,68.8c0,0.2-0.1,0.5-0.1,0.7c-0.6,4.8-1.6,9.4-3.3,14C8,87.1,6.6,90.8,5.7,94.5
						c-0.7,2.8-1.1,5.8-0.9,8.6c0.1,2.2,0.4,3.6,0.7,5.8c0,0.2,0.3,1.2,0.4,1.6c0.3-1.7,0.7-3.6,0.9-5.2c1.1-6,2.4-11.6,4.6-17.4
						c2.4-6.3,5.1-18.6,5.1-18.7C15.3,69.5,13.9,69,12.7,68.8z"/>
					<path fill="#1D1E1C" d="M11.2,87.6c-2,5.7-3.4,11.7-4.5,17.6c-0.3,1.6-0.5,3.1-0.8,4.9c-0.1-0.3-0.3-0.5-0.3-0.7
						c-0.2-2.2-0.5-4.4-0.6-6.5c-0.2-2.9,0.3-5.7,1-8.4c0.9-3.7,2.3-7.4,3.6-11c1.6-4.3,2.7-9.3,3.3-13.9c-0.2,0-0.3,0-0.5,0
						c-0.4,2.5-0.9,5.4-1.5,7.9c-0.9,3.8-2.4,7.3-3.6,11C5.4,93.7,4,99,4.6,104.6c0.3,2.5,0.7,5,1.1,7.5c0,0.2,0.2,0.4,0.4,0.8
						c0.1-1,0.1-1.7,0.2-2.4c0.1-0.8,0.2-1.5,0.4-2.2c1.2-7.3,3-14.5,5.5-21.5c0.9-2.6,1.7-5.2,2.5-7.9c0.1-0.2,1-3.6,1.1-4.4
						c0.2-1.3,0.6-2.9,0.9-4.2c-0.2,0-0.3,0-0.6,0C14.9,76.1,13.2,82.1,11.2,87.6z"/>
				</g>
				<g>
					<path fill="#4B2504" d="M84.1,69.2c0.3,6.6,0.4,13.1,0.1,19.8c0,0.3,0.1,1.3,0.1,1.7c0.3-1.6,0.9-3.7,1-5.3
						c0.3-2.9,0.6-5.8,0.7-8.7c0.4-5.6,0.3-7.5,0.3-8.1c0,0,0.2-1.3,0-1.3c-0.2,0-1.5-0.7-2.6-0.5C83.9,67,84,68.9,84.1,69.2z"/>
					<path fill="#1D1E1C" d="M86.2,68.5c-0.1,2.7-0.1,5.4-0.3,8.1c-0.2,2.9-0.5,5.9-0.8,8.8c-0.2,1.6-0.4,3.1-0.8,4.7
						c0-0.3,0-0.7,0-1c0.3-6.6,0.2-13.2-0.1-19.9c0-0.2,0-0.6-0.1-0.7c-0.2,0-0.3,0-0.5,0c0,0.6,0.1,1.4,0.1,1.9
						c0.1,3.3,0.2,6.7,0.2,10c0,3.9-0.2,7.7-0.4,11.6c0,1.2,0,2.5,0.2,3.7c1.9-9.1,2.6-18.4,2.8-27.6c-0.2,0-0.3,0-0.4,0
						C86.2,68.1,86.2,68.4,86.2,68.5z"/>
				</g>
			</g>
			<g>
				<g>
					<path fill="#7A3481" d="M56.2,101.7c0.1-0.6,0.5-1.4,0.9-1.9c0.5-0.8,1.4-1.3,2.3-1.4c1.1-0.1,2.4,0,3.5,0.6
						c1.7,1,3.3,1.9,4.7,3.5c0.4,0.4,1,1.1,1.2,1.6c3.1,5.5,6,11,8.2,17c0.4,1,0.7,2.1,1,3.2c0.1,0.1,0.1,0.3,0,0.5
						c0.2,0,0.4,0.2,0.6,0.4c0.4,0.6,0.8,1.2,1.1,1.9c0.3,0.6,0.2,0.9-0.6,1.4c-1.1,0.7-5.5,4-6.5,4.9c-0.7,0.6-1.1,0.7-1.7-0.1
						c-0.5-0.7-1-1.4-1.5-2.2c-0.4-0.6-0.5-0.8-0.2-1.2c-0.1-0.1-0.2-0.2-0.3-0.3c-0.2-0.4-0.5-0.9-0.6-1.1
						c-1.9-3.8-3.6-7.6-5.5-11.5c-1.2-2.6-2.4-4.8-4.4-6.9c-0.3-0.4-0.8-1-1.1-1.4C55.6,106.5,55.7,104.1,56.2,101.7z"/>
					<g>
						<defs>
							<path id="SVGID_7_" d="M56.2,101.7c0.1-0.6,0.5-1.4,0.9-1.9c0.5-0.8,1.4-1.3,2.3-1.4c1.1-0.1,2.4,0,3.5,0.6
								c1.7,1,3.3,1.9,4.7,3.5c0.4,0.4,1,1.1,1.2,1.6c3.1,5.5,6,11,8.2,17c0.4,1,0.7,2.1,1,3.2c0.1,0.1,0.1,0.3,0,0.5
								c0.2,0,0.4,0.2,0.6,0.4c0.4,0.6,0.8,1.2,1.1,1.9c0.3,0.6,0.2,0.9-0.6,1.4c-1.1,0.7-5.5,4-6.5,4.9c-0.7,0.6-1.1,0.7-1.7-0.1
								c-0.5-0.7-1-1.4-1.5-2.2c-0.4-0.6-0.5-0.8-0.2-1.2c-0.1-0.1-0.2-0.2-0.3-0.3c-0.2-0.4-0.5-0.9-0.6-1.1
								c-1.9-3.8-3.6-7.6-5.5-11.5c-1.2-2.6-2.4-4.8-4.4-6.9c-0.3-0.4-0.8-1-1.1-1.4C55.6,106.5,55.7,104.1,56.2,101.7z"/>
						</defs>
						<clipPath id="SVGID_4_">
							<use xlink:href="#SVGID_7_"  overflow="visible"/>
						</clipPath>
					</g>
				</g>
				<path fill="#1D1E1C" d="M57.7,109.6c2.3,2.5,3.8,5.5,5.3,8.6c1.8,3.7,3.6,7.5,5.4,11.2c0.2,0.4,0.1,0.9,0.3,1.3
					c0.6,1,1.2,2,2,2.9c0.4,0.6,0.9,0.7,1.5,0.5c0.4-0.3,0.7-0.6,1-0.9c-0.1,0.4-0.2,0.7-0.3,1.1c-0.3,1-0.6,1.9-1,2.9
					c-0.2,0.5-0.3,0.9,0.1,1.3c0.4,0.3,1,0.4,1.5,0.1c0.4-0.3,0.8-0.6,1.1-0.9c0.2-0.2,0.4-0.5,0.6-0.6c0.6-0.4,1.2-0.4,1.6,0.2
					c0.5,0.6,1.2,1.3,1.4,2.1c0.2,1,0.5,1.6,0.9,2.3c0.5,0.8,0.9,0.8,1.9,0.8c0.2,0,1,0.6,2.1,0.1c0.8-0.4,0.7-0.6,0.1-1.9
					c0,0-1.4-5.7-2.5-8.8c-0.3-1.1-0.7-2.1-1.2-3.1c0,0,0,0,0,0c0.3-0.2,0.6-0.4,0.7-0.6c0.1-0.6-0.9-2.7-1.8-3.7
					c-0.1-0.2-0.2-0.4-0.3-0.6c-1.3-4.5-3.3-8.8-5.4-12.9c-1.1-2-2.1-4.1-3.2-6.1c-1.6-3-4.3-4.9-7.3-6.2c-0.8-0.3-1.7-0.4-2.5-0.3
					c-2,0.2-3.4,1.9-3.7,4.2C55.4,104.9,55.7,107.5,57.7,109.6z M78.6,139.7c0.7,0.8,1.4,1.5,2,2.3C79.7,142,79.1,141.4,78.6,139.7z
					 M73.4,133.8c0.1-0.4,0.2-0.7,0.3-1.1c1.5-1.3,3.6-2.9,5.2-3.9c0,0,0.1,0,0.1-0.1c0.2,0.4,0.3,0.8,0.5,1.2
					c0.8,2.2,1.4,4.4,2.1,6.5c0.4,1.3,0.7,2.6,1.1,3.8c-0.7-1-1.2-2.2-1.7-3.3c0,0.9,1.2,3.1,2,4.5c0.1,0.2-0.7,0.6-1.1,0.6
					c-0.7,0-1-0.4-1.5-1c-0.2-0.3-0.5-0.5-0.7-0.8c-0.9-1.1-1.7-2.2-2.5-3.4c-0.7-1-1.5-1.1-2.4-0.3c-0.3,0.3-0.6,0.6-0.9,0.9
					c-0.3,0.3-0.6,0.6-1,0.7c-0.2,0.1-0.6,0-0.8-0.2c-0.1-0.1-0.1-0.5,0-0.7C72.6,136.2,73,135,73.4,133.8z M69.5,129.5
					c2.2-2.4,5-3.7,8-4.7c0.4-0.1,0.8,0,1,0.4c0.4,0.6,0.8,1.2,1.1,1.9c0.3,0.6,0.2,0.7-0.6,1.2c-0.3-0.9-0.5-1.7-1.4-2.2
					c0.4,0.8,0.8,1.6,1.2,2.4c-1.1,0.8-2.1,1.5-3.2,2.2l0,0c-1.1,0.9-2.1,1.8-3.2,2.7c-0.7,0.6-1.1,0.7-1.7-0.1
					c-0.5-0.7-1-1.4-1.5-2.2C68.9,130.2,68.9,130.2,69.5,129.5z M56.5,101.6c0.1-0.6,0.4-1.1,0.8-1.6c0.5-0.8,1.3-1.3,2.2-1.4
					c1.1-0.1,2.3-0.1,3.3,0.5c1.7,1,3.4,2.1,4.7,3.7c0.4,0.4,0.8,0.9,1,1.3c3.1,5.5,6.1,11.1,8.2,17c0.4,1,0.7,2,1,3
					c-3.3,1.1-6.2,2.9-8.8,5.3c-0.2-0.4-0.4-0.6-0.5-0.9c-1.9-3.8-3.7-7.7-5.6-11.5c-1.2-2.6-2.6-5.1-4.5-7.1
					c-0.3-0.4-0.6-0.8-0.9-1.2C55.9,106.5,56,104.1,56.5,101.6z"/>
			</g>
			<g>
				<g>
					<path fill="#7A3481" d="M45,101.7c-0.1-0.6-0.5-1.4-0.9-1.9c-0.5-0.8-1.4-1.3-2.3-1.4c-1.1-0.1-2.4,0-3.5,0.6
						c-1.7,1-3.3,1.9-4.7,3.5c-0.4,0.4-1,1.1-1.2,1.6c-3.1,5.5-6,11-8.2,17c-0.4,1-0.7,2.1-1,3.2c-0.1,0.1-0.1,0.3,0,0.5
						c-0.2,0-0.4,0.2-0.6,0.4c-0.4,0.6-0.8,1.2-1.1,1.9c-0.3,0.6-0.2,0.9,0.6,1.4c1.1,0.7,5.5,4,6.5,4.9c0.7,0.6,1.1,0.7,1.7-0.1
						c0.5-0.7,1-1.4,1.5-2.2c0.4-0.6,0.5-0.8,0.2-1.2c0.1-0.1,0.2-0.2,0.3-0.3c0.2-0.4,0.5-0.9,0.6-1.1c1.9-3.8,3.6-7.6,5.5-11.5
						c1.2-2.6,2.4-4.8,4.4-6.9c0.3-0.4,0.8-1,1.1-1.4C45.5,106.5,45.5,104.1,45,101.7z"/>
					<g>
						<defs>
							<path id="SVGID_9_" d="M45,101.7c-0.1-0.6-0.5-1.4-0.9-1.9c-0.5-0.8-1.4-1.3-2.3-1.4c-1.1-0.1-2.4,0-3.5,0.6
								c-1.7,1-3.3,1.9-4.7,3.5c-0.4,0.4-1,1.1-1.2,1.6c-3.1,5.5-6,11-8.2,17c-0.4,1-0.7,2.1-1,3.2c-0.1,0.1-0.1,0.3,0,0.5
								c-0.2,0-0.4,0.2-0.6,0.4c-0.4,0.6-0.8,1.2-1.1,1.9c-0.3,0.6-0.2,0.9,0.6,1.4c1.1,0.7,5.5,4,6.5,4.9c0.7,0.6,1.1,0.7,1.7-0.1
								c0.5-0.7,1-1.4,1.5-2.2c0.4-0.6,0.5-0.8,0.2-1.2c0.1-0.1,0.2-0.2,0.3-0.3c0.2-0.4,0.5-0.9,0.6-1.1c1.9-3.8,3.6-7.6,5.5-11.5
								c1.2-2.6,2.4-4.8,4.4-6.9c0.3-0.4,0.8-1,1.1-1.4C45.5,106.5,45.5,104.1,45,101.7z"/>
						</defs>
						<clipPath id="SVGID_6_">
							<use xlink:href="#SVGID_9_"  overflow="visible"/>
						</clipPath>
					</g>
				</g>
				<path d="M45.4,102.2c-0.3-2.3-1.7-3.9-3.7-4.2c-0.8-0.1-1.8,0-2.5,0.3c-3,1.3-5.7,3.2-7.3,6.2c-1.1,2-2.2,4.1-3.2,6.1
					c-2.2,4.2-4.1,8.4-5.4,12.9c-0.1,0.2-0.2,0.4-0.3,0.6c-0.9,1.1-2,3.1-1.8,3.7c0.1,0.2,0.4,0.4,0.7,0.6c0,0,0,0,0,0
					c-0.4,1-0.8,2.1-1.2,3.1c-1,3.1-2.5,8.8-2.5,8.8c-0.6,1.3-0.7,1.5,0.1,1.9c1,0.6,1.9-0.1,2.1-0.1c1,0.1,1.4,0,1.9-0.8
					c0.4-0.7,0.7-1.3,0.9-2.3c0.2-0.8,0.9-1.5,1.4-2.1c0.4-0.5,1.1-0.6,1.6-0.2c0.2,0.2,0.4,0.4,0.6,0.6c0.4,0.3,0.7,0.7,1.1,0.9
					c0.5,0.3,1.1,0.2,1.5-0.1c0.4-0.4,0.2-0.8,0.1-1.3c-0.4-0.9-0.7-1.9-1-2.9c-0.1-0.4-0.2-0.7-0.3-1.1c0.4,0.3,0.7,0.6,1,0.9
					c0.5,0.2,1,0.1,1.5-0.5c0.7-0.9,1.4-1.9,2-2.9c0.2-0.4,0.1-0.9,0.3-1.3c1.8-3.8,3.6-7.5,5.4-11.2c1.5-3,3-6,5.3-8.6
					C45.4,107.5,45.8,104.9,45.4,102.2z M20.5,142c0.7-0.7,1.3-1.5,2-2.3C22.1,141.4,21.5,142,20.5,142z M29,137.4
					c0.1,0.2,0.1,0.6,0,0.7c-0.2,0.2-0.6,0.3-0.8,0.2c-0.4-0.1-0.7-0.4-1-0.7c-0.3-0.3-0.6-0.6-0.9-0.9c-0.9-0.8-1.7-0.7-2.4,0.3
					c-0.8,1.1-1.6,2.3-2.5,3.4c-0.2,0.3-0.5,0.5-0.7,0.8c-0.5,0.6-0.8,1-1.5,1c-0.4,0-1.2-0.4-1.1-0.6c0.8-1.4,2-3.6,2-4.5
					c-0.5,1.1-1,2.3-1.7,3.3c0.4-1.3,0.7-2.6,1.1-3.8c0.7-2.2,1.3-4.4,2.1-6.5c0.1-0.4,0.3-0.8,0.5-1.2c0,0,0.1,0,0.1,0.1
					c1.7,1,3.8,2.6,5.2,3.9c0.1,0.4,0.2,0.8,0.3,1.1C28.2,135,28.6,136.2,29,137.4z M31.8,131.1c-0.4,0.7-0.9,1.5-1.5,2.2
					c-0.6,0.8-0.9,0.7-1.7,0.1c-1.1-0.9-2.1-1.8-3.2-2.7l0,0c-1-0.7-2.1-1.4-3.2-2.2c0.4-0.8,0.8-1.6,1.2-2.4
					c-0.9,0.5-1.1,1.4-1.4,2.2c-0.8-0.5-0.9-0.6-0.6-1.2c0.3-0.6,0.7-1.3,1.1-1.9c0.2-0.3,0.6-0.5,1-0.4c3,1.1,5.8,2.3,8,4.7
					C32.3,130.2,32.3,130.2,31.8,131.1z M43.6,108.6c-0.3,0.4-0.5,0.8-0.9,1.2c-2,2.1-3.3,4.6-4.5,7.1c-1.9,3.8-3.7,7.7-5.6,11.5
					c-0.1,0.3-0.3,0.5-0.5,0.9c-2.6-2.4-5.4-4.1-8.8-5.3c0.3-1.1,0.6-2.1,1-3c2.2-5.9,5.2-11.5,8.2-17c0.3-0.5,0.7-0.9,1-1.3
					c1.3-1.6,3-2.7,4.7-3.7c1-0.6,2.2-0.7,3.3-0.5c1,0.1,1.7,0.6,2.2,1.4c0.3,0.5,0.6,1.1,0.8,1.6C45.2,104.1,45.2,106.5,43.6,108.6
					z"/>
			</g>
			<g>
				<g>
					<path fill="#7A3481" d="M45,101.7c-0.1-0.6-0.5-1.4-0.9-1.9c-0.5-0.8-1.4-1.3-2.3-1.4c-1.1-0.1-2.4,0-3.5,0.6
						c-1.7,1-3.3,1.9-4.7,3.5c-0.4,0.4-1,1.1-1.2,1.6c-3.1,5.5-6,11-8.2,17c-0.4,1-0.7,2.1-1,3.2c-0.1,0.1-0.1,0.3,0,0.5
						c-0.2,0-0.4,0.2-0.6,0.4c-0.4,0.6-0.8,1.2-1.1,1.9c-0.3,0.6-0.2,0.9,0.6,1.4c1.1,0.7,5.5,4,6.5,4.9c0.7,0.6,1.1,0.7,1.7-0.1
						c0.5-0.7,1-1.4,1.5-2.2c0.4-0.6,0.5-0.8,0.2-1.2c0.1-0.1,0.2-0.2,0.3-0.3c0.2-0.4,0.5-0.9,0.6-1.1c1.9-3.8,3.6-7.6,5.5-11.5
						c1.2-2.6,2.4-4.8,4.4-6.9c0.3-0.4,0.8-1,1.1-1.4C45.5,106.5,45.5,104.1,45,101.7z"/>
					<g>
						<defs>
							<path id="SVGID_11_" d="M45,101.7c-0.1-0.6-0.5-1.4-0.9-1.9c-0.5-0.8-1.4-1.3-2.3-1.4c-1.1-0.1-2.4,0-3.5,0.6
								c-1.7,1-3.3,1.9-4.7,3.5c-0.4,0.4-1,1.1-1.2,1.6c-3.1,5.5-6,11-8.2,17c-0.4,1-0.7,2.1-1,3.2c-0.1,0.1-0.1,0.3,0,0.5
								c-0.2,0-0.4,0.2-0.6,0.4c-0.4,0.6-0.8,1.2-1.1,1.9c-0.3,0.6-0.2,0.9,0.6,1.4c1.1,0.7,5.5,4,6.5,4.9c0.7,0.6,1.1,0.7,1.7-0.1
								c0.5-0.7,1-1.4,1.5-2.2c0.4-0.6,0.5-0.8,0.2-1.2c0.1-0.1,0.2-0.2,0.3-0.3c0.2-0.4,0.5-0.9,0.6-1.1c1.9-3.8,3.6-7.6,5.5-11.5
								c1.2-2.6,2.4-4.8,4.4-6.9c0.3-0.4,0.8-1,1.1-1.4C45.5,106.5,45.5,104.1,45,101.7z"/>
						</defs>
						<clipPath id="SVGID_8_">
							<use xlink:href="#SVGID_11_"  overflow="visible"/>
						</clipPath>
					</g>
				</g>
				<path fill="#1D1E1C" d="M45.4,102.2c-0.3-2.3-1.7-3.9-3.7-4.2c-0.8-0.1-1.8,0-2.5,0.3c-3,1.3-5.7,3.2-7.3,6.2
					c-1.1,2-2.2,4.1-3.2,6.1c-2.2,4.2-4.1,8.4-5.4,12.9c-0.1,0.2-0.2,0.4-0.3,0.6c-0.9,1.1-2,3.1-1.8,3.7c0.1,0.2,0.4,0.4,0.7,0.6
					c0,0,0,0,0,0c-0.4,1-0.8,2.1-1.2,3.1c-1,3.1-2.5,8.8-2.5,8.8c-0.6,1.3-0.7,1.5,0.1,1.9c1,0.6,1.9-0.1,2.1-0.1
					c1,0.1,1.4,0,1.9-0.8c0.4-0.7,0.7-1.3,0.9-2.3c0.2-0.8,0.9-1.5,1.4-2.1c0.4-0.5,1.1-0.6,1.6-0.2c0.2,0.2,0.4,0.4,0.6,0.6
					c0.4,0.3,0.7,0.7,1.1,0.9c0.5,0.3,1.1,0.2,1.5-0.1c0.4-0.4,0.2-0.8,0.1-1.3c-0.4-0.9-0.7-1.9-1-2.9c-0.1-0.4-0.2-0.7-0.3-1.1
					c0.4,0.3,0.7,0.6,1,0.9c0.5,0.2,1,0.1,1.5-0.5c0.7-0.9,1.4-1.9,2-2.9c0.2-0.4,0.1-0.9,0.3-1.3c1.8-3.8,3.6-7.5,5.4-11.2
					c1.5-3,3-6,5.3-8.6C45.4,107.5,45.8,104.9,45.4,102.2z M20.5,142c0.7-0.7,1.3-1.5,2-2.3C22.1,141.4,21.5,142,20.5,142z
					 M29,137.4c0.1,0.2,0.1,0.6,0,0.7c-0.2,0.2-0.6,0.3-0.8,0.2c-0.4-0.1-0.7-0.4-1-0.7c-0.3-0.3-0.6-0.6-0.9-0.9
					c-0.9-0.8-1.7-0.7-2.4,0.3c-0.8,1.1-1.6,2.3-2.5,3.4c-0.2,0.3-0.5,0.5-0.7,0.8c-0.5,0.6-0.8,1-1.5,1c-0.4,0-1.2-0.4-1.1-0.6
					c0.8-1.4,2-3.6,2-4.5c-0.5,1.1-1,2.3-1.7,3.3c0.4-1.3,0.7-2.6,1.1-3.8c0.7-2.2,1.3-4.4,2.1-6.5c0.1-0.4,0.3-0.8,0.5-1.2
					c0,0,0.1,0,0.1,0.1c1.7,1,3.8,2.6,5.2,3.9c0.1,0.4,0.2,0.8,0.3,1.1C28.2,135,28.6,136.2,29,137.4z M31.8,131.1
					c-0.4,0.7-0.9,1.5-1.5,2.2c-0.6,0.8-0.9,0.7-1.7,0.1c-1.1-0.9-2.1-1.8-3.2-2.7l0,0c-1-0.7-2.1-1.4-3.2-2.2
					c0.4-0.8,0.8-1.6,1.2-2.4c-0.9,0.5-1.1,1.4-1.4,2.2c-0.8-0.5-0.9-0.6-0.6-1.2c0.3-0.6,0.7-1.3,1.1-1.9c0.2-0.3,0.6-0.5,1-0.4
					c3,1.1,5.8,2.3,8,4.7C32.3,130.2,32.3,130.2,31.8,131.1z M43.6,108.6c-0.3,0.4-0.5,0.8-0.9,1.2c-2,2.1-3.3,4.6-4.5,7.1
					c-1.9,3.8-3.7,7.7-5.6,11.5c-0.1,0.3-0.3,0.5-0.5,0.9c-2.6-2.4-5.4-4.1-8.8-5.3c0.3-1.1,0.6-2.1,1-3c2.2-5.9,5.2-11.5,8.2-17
					c0.3-0.5,0.7-0.9,1-1.3c1.3-1.6,3-2.7,4.7-3.7c1-0.6,2.2-0.7,3.3-0.5c1,0.1,1.7,0.6,2.2,1.4c0.3,0.5,0.6,1.1,0.8,1.6
					C45.2,104.1,45.2,106.5,43.6,108.6z"/>
			</g>
			<g>
				<g>
					<path fill="#7A3481" d="M44.3,90.8C47.5,91,54,90,57.2,90.7c1.6,0.4,2.1,1.9,1.7,4.1c-0.2,1.1-0.4,1.9-0.5,2l5.4,2.9
						c1.8,1.1,1.9,1.1,0.6,8l1.8,19.4c0,0.6-0.4,2.5-1.4,3.4l0,3.6c-6.5,2.3-21.9,2.3-28.2,0v-3.6c-1.5-1.3-1.4-3-1.3-3.8l1.6-15.8
						c-0.4-9.2-0.3-9.7,0.7-11.1l4.7-2.7c0.4-0.3,0.3-0.8,0.2-1.7C42.2,93,42.5,90.7,44.3,90.8z"/>
					<g>
						<defs>
							<path id="SVGID_13_" d="M44.3,90.8C47.5,91,54,90,57.2,90.7c1.6,0.4,2.1,1.9,1.7,4.1c-0.2,1.1-0.4,1.9-0.5,2l5.4,2.9
								c1.8,1.1,1.9,1.1,0.6,8l1.8,19.4c0,0.6-0.4,2.5-1.4,3.4l0,3.6c-6.5,2.3-21.9,2.3-28.2,0v-3.6c-1.5-1.3-1.4-3-1.3-3.8
								l1.6-15.8c-0.4-9.2-0.3-9.7,0.7-11.1l4.7-2.7c0.4-0.3,0.3-0.8,0.2-1.7C42.2,93,42.5,90.7,44.3,90.8z"/>
						</defs>
						<clipPath id="SVGID_10_">
							<use xlink:href="#SVGID_13_"  overflow="visible"/>
						</clipPath>
					</g>
				</g>
				<path fill="#1D1E1C" d="M57,90.4c0.3,0.1,0.5,0.2,0.7,0.4c1.4,0.8,1.8,1.8,1.5,3.3c-0.2,0.8-0.4,1.5-0.6,2.4
					c2.2,1.3,4.5,2.4,6.6,3.8c-0.1,0.1-0.1,0.2-0.2,0.3c-2.2-1.2-4.3-2.3-6.5-3.5c-0.2,0.4-0.4,0.6-0.5,0.8c-0.1,0-0.1,0-0.2-0.1
					c0.1-0.6,0.2-1.1,0.3-1.7c0.2-0.7,0.4-1.5,0.5-2.2c0.3-1.5,0-2.1-1.6-2.9c-0.2,0.6-0.2,1,0.2,1.5c-2.3,2.1-10,2.8-13.3,0.1
					c0.1-0.5,0.1-0.9,0.2-1.4c-1,0.1-1.4,0.6-1.5,1.2c-0.1,0.8-0.1,1.6-0.1,2.5c0.1,1,0.3,1.9,0.5,3c-0.8-0.6-0.8-0.6-1.4-0.3
					c-1.5,0.8-3,1.6-4.5,2.4c-0.4,0.2-0.7,0.4-1.1,0.4c0.8-0.9,2-1.4,3-2c1.1-0.6,2.2-1.2,3.3-1.8c-0.1-0.8-0.2-1.6-0.3-2.4
					c0-0.5,0-1.1,0-1.6c0.2-1.1,0.9-1.8,2-2.2c0-1,0-1.9,0-2.9c0-1.7,0.7-3,2-4c1.7-1.4,3.7-1.7,5.9-1.3c3.9,0.8,5.2,3.1,5,6.3
					C57,89.2,57,89.8,57,90.4z M44.7,92.7c3.3,1.7,9.1,1.4,11.7-0.1c0-1.7,0-3.3,0-5c0-2.1-1.1-3.5-3.1-4.3
					c-1.4-0.5-2.9-0.6-4.4-0.4c-2.3,0.3-4.3,2.4-4.4,4.8C44.6,89.3,44.7,91,44.7,92.7z"/>
				<path fill="#1D1E1C" d="M46.5,97.6c-0.5-1-0.6-1.9-0.4-2.8C46.4,95.6,46.6,96.5,46.5,97.6z"/>
				<path fill="#1D1E1C" d="M44.8,97.3c-0.7-0.8-1-1.8-0.8-2.9C44.3,95.4,44.5,96.4,44.8,97.3z"/>
				<path fill="#1D1E1C" d="M57.1,94.8c-0.2,0.9-0.3,1.8-0.5,2.7c-0.1,0-0.2,0-0.3,0c0.1-0.9,0.3-1.8,0.4-2.7
					C56.9,94.8,57,94.8,57.1,94.8z"/>
				<path fill="#1D1E1C" d="M48.3,95.5c0,0.7,0.1,1.5,0.1,2.4C47.9,97.1,47.8,96.4,48.3,95.5z"/>
				<path fill="#1D1E1C" d="M52.7,97.7c0.1-0.7,0.2-1.4,0.2-2.1C53.2,96.4,53.3,97.1,52.7,97.7z"/>
				<path fill="#1D1E1C" d="M50.5,97.9c-0.1-0.7-0.3-1.5,0-2.3C50.9,96.9,50.9,97.3,50.5,97.9z"/>
				<path fill="#1D1E1C" d="M54.8,95.9c0.4,0.6,0.3,1.1-0.1,1.7C54.7,97,54.8,96.4,54.8,95.9z"/>
				<g>
					<path fill="#E1AC97" d="M44.7,92.7c0-1.7-0.2-3.4-0.1-5c0-2.3,2-4.5,4.4-4.8c1.5-0.2,2.9-0.1,4.4,0.4c2,0.8,3,2.2,3.1,4.3
						c0,1.7,0,3.3,0,5C53.8,94.1,48.1,94.4,44.7,92.7z"/>
					<g>
						<defs>
							<path id="SVGID_15_" d="M44.7,92.7c0-1.7-0.2-3.4-0.1-5c0-2.3,2-4.5,4.4-4.8c1.5-0.2,2.9-0.1,4.4,0.4c2,0.8,3,2.2,3.1,4.3
								c0,1.7,0,3.3,0,5C53.8,94.1,48.1,94.4,44.7,92.7z"/>
						</defs>
						<clipPath id="SVGID_12_">
							<use xlink:href="#SVGID_15_"  overflow="visible"/>
						</clipPath>
						<path clip-path="url(#SVGID_12_)" fill="#D9A08C" d="M50.6,93.8c-1.7-2.7-2.9-7.5-1.3-10.4c0.3-0.5-0.2-1.3-0.8-1
							c-0.2,0.1-0.4,0.2-0.5,0.2c-0.2-0.1-0.4,0-0.6,0.1c-1.2,0.7-2.3,1.6-2.9,2.7c-0.3,0-0.6,0.2-0.6,0.5c-0.1,1.5-0.1,2.9,0,4.3
							c0,0.8,0.1,1.6,0.2,2.4c0,0.3,0.2,0.4,0.4,0.4c0.2,0.2,0.6,0.2,0.9,0c0.1,0,0.1,0,0.2,0c0.7,0.5,1.6,0.8,2.7,1.3
							c0,0,0.1,0,0.1,0c0,0,0.1,0.1,0.1,0.1c0.3,0.2,0.5,0.1,0.7,0c0.1,0,0.1,0,0.2,0C50,95,51,94.4,50.6,93.8z"/>
					</g>
				</g>
			</g>
			<path fill="#4B2504" d="M13.2,47.9c0,0.7,0.1,1.5,0.1,2.2c0,4,0.2,7.8,0.1,11.8c-0.1,2.3-0.6,5.3-0.9,7.6
				c1.2,0.2,2.6,0.7,3.8,0.5c0.6-3.6,1.3-8.1,1.8-11.7c0.5-3.4,0.8-6.7,1.1-10.1c0.1-0.6,0.1-1.7,0.1-2.3
				C17.4,46.5,15,47.4,13.2,47.9z"/>
			<g>
				<path fill="#E1AC97" d="M85.8,49.5c1.2-0.5,2.1-0.2,2.9,0.4c2,1.5,3.1,4.1,2.5,6.5c-0.4,1.4-1.3,3.2-2.1,3.9
					c-0.2-1-1-1.8-1.7-2.1c-0.4-0.2-0.6-0.3-1-0.1C86.3,55.2,86.1,52.3,85.8,49.5z"/>
				<g>
					<defs>
						<path id="SVGID_17_" d="M85.8,49.5c1.2-0.5,2.1-0.2,2.9,0.4c2,1.5,3.1,4.1,2.5,6.5c-0.4,1.4-1.3,3.2-2.1,3.9
							c-0.2-1-1-1.8-1.7-2.1c-0.4-0.2-0.6-0.3-1-0.1C86.3,55.2,86.1,52.3,85.8,49.5z"/>
					</defs>
					<clipPath id="SVGID_14_">
						<use xlink:href="#SVGID_17_"  overflow="visible"/>
					</clipPath>
					<path clip-path="url(#SVGID_14_)" fill="#D9A08C" d="M91.7,53.7C91.7,53.7,91.7,53.7,91.7,53.7L91.7,53.7c0-0.2,0-0.3,0-0.4
						c-0.2-1.4-2.4-1-2.4,0.3c0,0.3,0,0.6,0,0.9c-0.4,2.4-3.9,3.3-3.3,6.1c0.3,1.4,2.2,1.2,2.6,0.1c0.8-0.4,1.4-1.3,1.9-2
						c0.4-0.7,0.8-1.5,1-2.4C91.7,55.5,91.8,54.6,91.7,53.7z"/>
				</g>
			</g>
			<g>
				<path fill="#E1AC97" d="M13.1,51c0,2.8,0.1,5.9,0.1,8.7c-0.4-0.1-1-0.2-1.4-0.3c-1-0.4-2,1.3-2.1,2.2c-2.8-3-2.6-7.4-0.2-9.9
					C10.5,50.7,11.8,50.4,13.1,51z"/>
				<g>
					<defs>
						<path id="SVGID_19_" d="M13.1,51c0,2.8,0.1,5.9,0.1,8.7c-0.4-0.1-1-0.2-1.4-0.3c-1-0.4-2,1.3-2.1,2.2c-2.8-3-2.6-7.4-0.2-9.9
							C10.5,50.7,11.8,50.4,13.1,51z"/>
					</defs>
					<clipPath id="SVGID_16_">
						<use xlink:href="#SVGID_19_"  overflow="visible"/>
					</clipPath>
					<path clip-path="url(#SVGID_16_)" fill="#D9A08C" d="M12.5,59.3c-1.1-0.3-2-0.8-2.9-1.5C8.7,57,8.3,56,7.6,55.1
						c-0.1-0.1-0.3-0.2-0.3,0c-1,1.2-0.8,3-0.2,4.4c0.8,1.8,2.5,3,4.4,3.3C13.8,63.2,14.8,59.8,12.5,59.3z"/>
				</g>
			</g>
			<g>
				<path fill="#E1AC97" d="M50.7,90.7c-4.2-0.2-7.5-0.6-10.8-1.4c-7.1-1.6-12.6-5.6-17.2-10.9c-2.5-2.8-4.3-5.8-5.6-9.4
					c-0.2-0.4-0.2-1.3-0.1-1.8c0.8-5.7,1.6-11.3,2.4-17c0.1-1.1,0.2-2.4,0.2-3.5c0-0.7,0.3-1.1,0.9-1.4c3.8-1.6,7.3-3.4,10.8-5.5
					c4-2.4,7.7-5,11.1-8.3c1.4-1.3,3.1-2.3,5.1-2c0.2,0,0.7,0,0.8-0.1c1.5-0.5,3.2-0.2,4.5,0.6c1.1,0.6,2.1,1.6,3.1,2.4
					c1.4,1.1,2.8,2.5,4.2,3.5c5.9,4.4,12.2,7.2,19.6,8.5c0.7,0.1,1.2,0.7,1.3,1.3c0.4,1.7,0.9,3.3,1.1,5c0.6,4.9,1.1,9.5,1.5,14.5
					c0,0.5,0,1.5-0.1,2c-0.7,3-2.4,5.7-3.9,8.3c-2.1,3.5-5.5,5.8-8.6,8.2c-4.1,3.2-8.8,5-13.9,5.9C54.7,90.3,52.3,90.5,50.7,90.7z"
					/>
				<g>
					<defs>
						<path id="SVGID_21_" d="M50.7,90.7c-4.2-0.2-7.5-0.6-10.8-1.4c-7.1-1.6-12.6-5.6-17.2-10.9c-2.5-2.8-4.1-6.3-5.4-9.8
							c-0.2-0.4-0.1-1-0.1-1.4c0.8-5.7,1.5-11.3,2.3-17c0.1-1.1,0.2-2.3,0.2-3.4c0-0.7,0.2-1,0.9-1.3c3.8-1.6,7.4-3.4,10.9-5.5
							c4-2.4,7.8-5.2,11.2-8.4c1.4-1.3,3-2.1,5-1.7c0.2,0,0.4,0,0.5,0c1.5-0.5,3-0.2,4.4,0.5c1.1,0.6,2.2,1.5,3.2,2.3
							c1.4,1.1,2.6,2.3,4,3.4c5.9,4.4,12.5,7.5,19.8,8.8c0.7,0.1,1.1,0.4,1.3,1.1c0.4,1.7,0.9,3.3,1.1,5c0.6,4.9,1,9.9,1.5,14.8
							c0,0.5-0.1,1.1-0.2,1.6c-0.7,3-2.3,5.6-3.9,8.2c-2.1,3.5-5.2,6.1-8.4,8.5c-4.1,3.2-8.8,5-13.9,5.9
							C54.7,90.3,52.3,90.5,50.7,90.7z"/>
					</defs>
					<clipPath id="SVGID_18_">
						<use xlink:href="#SVGID_21_"  overflow="visible"/>
					</clipPath>
					<path clip-path="url(#SVGID_18_)" fill="#D9A08C" d="M45.8,29c-5.7,1-9.7,4.5-14.2,7.8c-2.4,1.7-4.8,3.3-7.2,5
						c-1.9,1.3-5.3,2.7-6.1,5c-1.5,4.8-1.9,8.5-1.7,12.6c-0.3,3.7-0.2,5.5,0.2,9.4c0.6,5.5,7.8,13.2,14.7,17.7
						c0,0-18.4-24.3-3.9-42.1c3.8-1.8,6.8-3.8,8-4.7c6.2-4.3,8.4-8.4,11.1-9C49,30.2,48,28.6,45.8,29z"/>
				</g>
			</g>
			<path fill="#D31876" d="M86.4,58.2c1.3-0.1,2.1,0.5,2.3,1.6c0.2,1.1-0.5,1.9-2.1,2.3C86.6,60.8,86.5,59.5,86.4,58.2z"/>
			<path fill="#D31876" d="M13.3,61.4c0,0.3,0,0.7-0.1,1.1c-0.1,0.3-0.3,0.6-0.5,0.7c-0.7,0.4-1.4,0.1-2-0.4
				c-0.6-0.5-0.9-1.1-0.6-1.9c0.3-0.7,0.7-1.3,1.5-1.4C12.7,59.3,13.4,60,13.3,61.4z"/>
			<path fill="#4B2504" d="M86.1,55.1c-0.2-2.3-0.4-4-0.6-6.3c0.5,0.1,0.9,0.1,1.5,0.2c1,0.1,1.2,0.2,2.1,0.3
				c-1.1-8.5-1.1-7.9-2.2-11.4c-1.5-4.6-4.1-8.5-7.2-12.2c-3.2-3.9-6.7-7.7-11.2-10.3c-4.4-2.5-9-3.9-14-3.4c-1.9,0.2-3.7,0.5-6,2.7
				c-2.6-1.4-5.5-2-8.4-1.9c-3,0.1-6,1.2-8.7,2.6c-2.2,1.2-4.4,2.8-6.3,4.4c-3.1,2.5-6.1,5-8.8,7.9c-3.7,3.9-4.7,8.7-4.8,13.9
				c0,1.6,0,3.2,0,4.8c0,1.2,0,2.5,0,3.7c0.5,0.1,1.2,0.1,1.7,0.2c0-0.8,0.1-1.6,0.1-2.5c10.3-3.3,14.2-5.4,20.4-9.4
				c3.3-2.1,6.5-4.7,9.4-7.4c1.3-1.2,2.5-1.6,4.2-1.5c0.4,0,0.8,0.1,1.1,0c2.2-0.6,4,0.1,5.8,1.4c1,0.8,2,1.6,3,2.5
				c3.6,3.1,7.4,5.6,11.7,7.6c5.2,2.5,13.8,4.2,12.3,4.1c0.3,1.5,0.7,2.9,0.9,4.3c0.4,2.8,0.7,5.8,1,8.6c0.3,3.4,0.7,6.8,1,10.2
				c0.7,0,1.6,0,2.4,0C86.5,63.9,86.4,59.5,86.1,55.1z"/>
			<path fill="#1D1E1C" d="M89.7,50c-0.2-0.2-0.4-0.6-0.4-0.9c-0.2-1.3-0.3-2.6-0.5-3.9c-0.5-3.3-1.2-6.6-2.6-9.7
				c-4-8.4-9.7-15.3-17.7-20.2c-3.7-2.3-7.8-3.6-12.2-3.5c-3,0.1-5.7,0.5-8,2.5c-3.4-1.7-7-1.9-10.7-1.3c-2.9,0.5-5.4,1.8-7.9,3.2
				c-4.1,2.4-7.5,5.6-11,8.7c-0.9,0.8-1.7,1.7-2.6,2.6c-3,3.1-4.6,6.9-4.9,11.2c-0.2,3.3-0.1,6.7-0.2,10c0,0.5,0,1,0,1.5
				c-3.5,1.3-4.7,5.6-3.6,8.4c0.5,1.4,1.4,2.6,2.4,3.8c0.9,1,1.8,1.7,3.2,1.1c0,0.4,0,0.7,0,1c-0.2,1.9-0.5,3.8-0.8,5.7
				c0.2,0,0.3,0,0.5,0c0-0.2,0.1-0.4,0.1-0.6c0.3-2.5,0.8-5.1,0.8-7.7c0.1-4-0.1-7.9-0.1-11.9c0-0.7,0-1.4,0-2.1
				c1.8-0.5,3.7-1.1,5.6-1.6c0,0.6,0.1,1.2,0,1.8c-0.4,3.4-0.7,6.8-1.1,10.3c-0.5,3.7-1.1,7.3-1.7,11c-0.1,0.4-0.2,0.9-0.3,1.3
				c0.2,0,0.3,0,0.6,0c0-0.1,0.1-0.3,0.1-0.4c0-0.2,0.2-0.4,0.3-0.8c0.2,0.4,0.3,0.7,0.4,0.9c1.8,4.4,4.1,8.3,7.6,11.5
				c4.7,4.4,10.1,7.3,16.3,8.7c4,0.9,8,1.2,12,0.7c4.2-0.4,8.3-1.3,12-3.1c6.4-3.1,11.9-7.4,15.4-13.7c0.1-0.2,1.1-1.9,1.2-2.2
				c0.5-1.3,1.1-2.7,1.8-4.2c0,0.3,0,0.5,0.1,0.8c0.2,0,0.3,0,0.5,0c-0.2-3.6-0.6-7.2-1-10.8c-0.3-2.8-0.6-5.6-1-8.4
				c-0.2-1.4-0.6-2.9-1-4.3c1.5,0.2,2.9,0.4,4.5,0c-0.2,0-0.4-0.1-0.5-0.1c-5.7-0.4-11.2-1.7-16.4-4.1c-4.3-2-8.2-4.5-11.8-7.6
				c-1-0.8-1.9-1.7-2.9-2.5c-1.7-1.3-3.6-2-5.8-1.4c-0.3,0.1-0.8,0-1.1,0c-1.7-0.1-3.2,0.4-4.5,1.5c-2.9,2.7-6,5.1-9.3,7.3
				c-6.2,4-12.8,7.2-19.9,9.4c-0.1,0-0.3,0.1-0.5,0.1v2.5c-0.5,0-0.9-0.1-1.4-0.1c0-1.2,0-2.4,0-3.6c0-1.6,0-3.1,0-4.7
				c0.1-5.2,1.3-10,5-14c2.7-2.9,5.6-5.5,8.7-8c2-1.6,4-3,6.2-4.2c2.7-1.4,5.5-2.4,8.5-2.5c2.9-0.1,5.7,0.2,8.4,1.6
				c0.2-0.2,0.4-0.3,0.7-0.5c1.6-1.2,3.3-1.7,5.3-1.9c5.1-0.5,9.7,0.8,14.1,3.3c4.5,2.5,8,6.1,11.3,10.1c3.1,3.7,5.5,7.8,7,12.3
				c1.1,3.5,1.8,7,2.1,10.7c0,0.1,0,0.1-0.1,0.2c-0.9-0.1-1.9-0.2-2.9-0.3c-0.1-0.6-0.2-1.3-0.3-2c-0.1,0-0.2,0-0.3,0
				c0,0.5,0,1,0.1,1.6c0.2,2.3,0.5,4.5,0.7,6.8c0.3,4.4,0.4,8.7,0.3,13.1c0.2,0,0.3,0,0.5,0c0-1.4,0.1-2.8,0.1-4.3c0-0.5,0-1,0-1.6
				c1.1-0.2,1.7-0.7,2.3-1.5c0.2-0.3,0.5-0.5,0.7-0.8C92.2,57.1,92.7,53.2,89.7,50z M19.7,46.9c0-0.7,0.2-1,0.9-1.3
				c3.8-1.6,7.4-3.4,10.9-5.5c4-2.4,7.8-5.2,11.2-8.4c1.4-1.3,3-2.1,5-1.7c0.2,0,0.4,0,0.5,0c1.5-0.5,3-0.2,4.4,0.5
				c1.1,0.6,2.2,1.5,3.2,2.3c1.4,1.1,2.6,2.3,4,3.4c5.9,4.4,12.5,7.5,19.8,8.8c0.7,0.1,1.1,0.4,1.3,1.1c0.4,1.7,0.9,3.3,1.1,5
				c0.6,4.9,1,9.9,1.5,14.8c0,0.5-0.1,1.1-0.2,1.6c-0.7,3-2.3,5.6-3.9,8.2c-2.1,3.5-5.2,6.1-8.4,8.5c-4.1,3.2-8.8,5-13.9,5.9
				c-4,0.7-9.8,1.3-17.2-0.5c-7-1.7-12.6-5.6-17.2-10.9c-2.5-2.8-4.1-6.3-5.4-9.8c-0.2-0.4-0.1-1-0.1-1.4c0.8-5.7,1.5-11.3,2.3-17
				C19.7,49.1,19.7,48,19.7,46.9z M13.1,62.5c-0.1,0.2-0.3,0.5-0.5,0.6c-0.7,0.4-1.3,0.1-1.9-0.4c-0.6-0.5-0.8-1.1-0.5-1.8
				c0.2-0.7,0.7-1.2,1.4-1.3c1.1-0.2,1.7,0.5,1.6,1.8C13.2,61.7,13.2,62.1,13.1,62.5z M13.1,51v8.5c-0.4-0.1-0.9-0.1-1.4-0.3
				c-1-0.4-1.5-1.3-1.7-2.2c-0.2-1,0-2,0.6-2.8c0.2-0.2,0.3-0.5,0.5-0.8c-2.2,1-2.2,4.5-0.2,6c-0.9,0.4-1.5,1.4-1.5,2.1
				c-2.8-3-2.6-7.2-0.2-9.7C10.5,50.7,11.8,50.4,13.1,51z M86.8,61.9c-0.1-1.2-0.1-2.4-0.2-3.5c1.2-0.1,1.9,0.5,2.1,1.5
				C88.8,60.9,88.2,61.6,86.8,61.9z M89.2,59.9c-0.1-1-0.6-1.7-1.6-1.9c1.2-0.9,1.9-2.5,1.6-4.1c-0.2-1-0.8-1.8-1.9-2.3
				c0.4,0.5,0.7,0.9,0.9,1.3c0.9,1.5,0.7,3.3-0.6,4.4c-0.2,0.2-0.6,0.3-1,0.5c-0.3-2.9-0.5-5.7-0.8-8.5c1.2-0.5,2.1-0.2,2.9,0.4
				c2,1.5,2.9,4.1,2.3,6.5C90.7,57.9,90,59.3,89.2,59.9z"/>
			<path fill="#1D1E1C" d="M78.1,41.6c-4.6-1-8.8-2.8-12.5-5.8c1,0.6,1.9,1.2,2.9,1.7c1,0.5,2.1,1.1,3.1,1.5c1,0.5,2.1,0.9,3.1,1.3
				C75.9,40.8,77,41.2,78.1,41.6z"/>
			<path fill="#1D1E1C" d="M29.6,36.1c3.3-3.1,6.3-6.6,10.9-8c-2,1.3-3.9,2.4-5.7,3.8c-1.8,1.4-3.4,2.9-5,4.4
				C29.7,36.2,29.7,36.1,29.6,36.1z"/>
			<path fill="#1D1E1C" d="M31.9,18.8c-4,2.3-7.1,5.6-10.3,9C22.7,25.1,28.9,19.8,31.9,18.8z"/>
			<path opacity="0.3" fill="#FFFFFF" d="M81.8,67.8c-3.6,6.5-7.7,11.7-13.7,16.1c-0.7,0.5-0.1,1.6,0.7,1.1
				c6.1-3.7,11.5-10.2,13.3-17.2C82.1,67.8,81.9,67.7,81.8,67.8z"/>
			<path opacity="0.3" fill="#FFFFFF" d="M89.6,51c-0.2-0.6-1.1-1-1.6-1.3c-0.4-0.2-1-0.6-1.4-0.4c-0.3,0.1-0.1,0.5,0.1,0.5
				c0.1,0,0.3,0.3,0.4,0.3c0.2,0.2,0.5,0.4,0.7,0.6c0.4,0.3,0.7,0.8,1.2,1C89.5,51.9,89.8,51.3,89.6,51z"/>
			<path opacity="0.3" fill="#FFFFFF" d="M12,51c-1-0.8-2.2,0.6-2.9,1.2c-0.1,0,0,0.1,0.1,0.1c0.6-0.5,1.7-1.2,2.5-0.8
				C12.1,51.8,12.3,51.3,12,51z"/>
			<path opacity="0.3" fill="#FFFFFF" d="M52.4,58.1c-0.1,0-0.3,0-0.4,0c-0.1,0-0.2,0.1-0.4,0.1c-0.1,0,0,0.1,0,0.1
				c0.2,0,0.4,0.2,0.5,0.3c0.1,0.1,0.2,0.3,0.4,0.4c0.2,0.1,0.5,0,0.5-0.3C52.9,58.4,52.7,58.2,52.4,58.1z"/>
			<g>
				<path fill="#D38E82" d="M30.4,59.3c-4.7,0.3-5.8,1.2-6.2,2.4c-0.3,2.8,2.5,3.7,6,3.6c2.2-0.1,7-0.5,7.2-3.3
					C37.5,59.6,34.5,59.3,30.4,59.3z"/>
				<path fill="#D38E82" d="M78,57.9c-2.2-0.9-4.5-1-7-0.6c-1,0.3-2.3,0.9-3.1,1.5c-0.5,0.4-0.6,1.6-0.2,2.2c1.3,1.7,4,2.1,5.6,2.1
					c1.7,0,4.5-0.1,5.9-2.1C79.5,60.5,79.6,58.6,78,57.9z"/>
			</g>
			<path fill="#1D1E1C" d="M52.2,61.7c0.1-0.4,0.2-0.6,0.2-0.8c0.2-0.3,0.4-0.6,0.5-0.9c0.5-1.1,0.1-1.9-1-2.2
				c-0.2,0-0.4-0.1-0.6-0.1c0.2-0.5,0.5-0.5,0.9-0.5c0.8,0.1,1.5,0.9,1.6,1.8C54,60.1,53.4,61.1,52.2,61.7z"/>
			<path id="boca_cerrada_1_" fill="#1D1E1C" d="M36.8,71.8c0.3-0.3,0.5-0.5,0.7-0.7c0.1,0,0.1,0,0.2,0c-0.2,0.7,0.3,1,0.8,1.2
				c1.7,0.9,3.5,1.3,5.3,1.6c2.5,0.4,5,0.5,7.6,0.4c4.8-0.2,9.3-1.5,13.5-3.9c0.4-0.2,0.4-0.6,0.6-1c0.3,0.2,0.5,0.4,0.8,0.6
				c-0.4,0.6-0.9,0.9-1.3,1.2c-2.7,1.6-5.6,2.7-8.6,3.3c-4.9,0.9-9.7,0.8-14.6-0.1c-1.3-0.3-2.6-0.7-3.8-1.5
				C37.6,72.5,37.3,72.2,36.8,71.8z"/>
			<g id="ojos_abiertos">
				<path fill="#1D1E1C" d="M67,58.6c-1.6,0-2.6-1-2.6-2.6c0-1.7,1.3-2.9,3-2.9c1.7,0,2.8,1.3,2.8,3C70.2,57.6,68.9,58.6,67,58.6z
					 M68.5,56.1c0.6,0,1-0.4,1-1c0-0.6-0.6-1.3-1.2-1.3c-0.6,0-1,0.4-1.1,0.9C67.2,55.4,67.7,56,68.5,56.1z"/>
				<path fill="#1D1E1C" d="M34.2,59.3c-1.6,0-2.5-1-2.6-2.6c-0.1-1.7,1.7-3,2.9-2.9c1.7,0.1,2.8,1.2,2.8,3
					C37.4,58.3,36.1,59.3,34.2,59.3z M36.6,55.8c0-0.7-0.5-1.3-1.1-1.4c-0.6,0-1.1,0.4-1.1,1c0,0.7,0.6,1.3,1.3,1.3
					C36.3,56.7,36.6,56.4,36.6,55.8z"/>
				<path fill="#FFFFFF" d="M68.5,56.1c-0.7,0-1.3-0.6-1.2-1.3c0-0.6,0.5-1,1.1-0.9c0.6,0,1.2,0.7,1.2,1.3
					C69.5,55.7,69.1,56.1,68.5,56.1z"/>
				<path fill="#FFFFFF" d="M36.6,55.8c0,0.6-0.3,0.9-0.9,0.9c-0.7,0-1.3-0.6-1.3-1.3c0-0.6,0.5-1.1,1.1-1
					C36.1,54.5,36.6,55.2,36.6,55.8z"/>
			</g>
			<g id="cejas_1_">
				<path fill="#1D1E1C" d="M71,47.8c-1.3-0.7-4.3-2.3-4.4-2.4C66,45,66.1,44.3,67,44.6c0.2,0.1,3.2,1.6,4.4,2.3
					C72.4,47.5,72,48.2,71,47.8z"/>
				<path fill="#1D1E1C" d="M32.3,46.6c-1.3,0.7-2.7,1.5-4.1,2.2C28.1,48.9,28,49,27.8,49c-0.2,0-0.4-0.1-0.5-0.2
					c-0.1-0.1-0.1-0.4,0-0.5c0.1-0.2,0.3-0.3,0.5-0.4c1.3-0.7,2.6-1.4,3.9-2.1C32.8,45.3,33.2,46,32.3,46.6z"/>
			</g>
		</g>
	</g>
</g>
<g id="personajes_hover">
	<g>
		<defs>
			<rect id="SVGID_63_" x="0" y="0" width="100" height="100"/>
		</defs>
		<use xlink:href="#SVGID_63_"  overflow="visible" fill="#549FD7"/>
		<clipPath id="SVGID_20_">
			<use xlink:href="#SVGID_63_"  overflow="visible"/>
		</clipPath>
		<g clip-path="url(#SVGID_20_)">
			<g>
				<g>
					<path fill="#4B2504" d="M22,131.1c2.7-4.3,4.3-8.7,5.2-13.7c0.1-0.4,0.1-0.4,0.1-0.8c-0.1,0-0.3,0-0.3-0.1
						c-6.2,7-13.3,12.5-22,15.8c3.5-3.4,5.5-8.8,6.4-12.2c0,0-0.6,0.9-1.2,1.4c-1.3,1.1-2.7,1.8-4.3,2.4c-0.2,0.1-0.9,0.2-1.3,0.3
						c0.3-0.6,0.7-1.4,0.9-1.8c2.7-4.7,5-9.6,6.4-14.8c1-3.5,2-7,2.3-10.7c0.5-6.8,0.8-13.5,0.9-20.2c0-0.7,0.1-1.5,0.3-2.2
						c0.3-1.4,0.6-2.9,0.9-4.4c0-0.2,0.3-0.6,0.4-0.9c4.5-8.1,65.5-12.9,64.6,4.4c0,0.5,0.1,0.8,0.1,1.1c0.2,2.9-0.1,6-0.6,8.8
						c-1,5.8-1.9,11.5-2.4,17.4c-0.5,6,0,11.9,2.3,17.6c0.4,1.1,1,2.5,1.4,3.6c-0.2,0-0.5-0.2-0.6-0.3c-0.5-0.3-1-0.6-1.5-0.9
						c-3.7-2.4-7-5.5-9.9-9c-0.6-0.6-1-0.8-1.1-1.9c0,1.6,0.1,2.3,0.1,3.6c-0.1,3.7-1.1,7.4-2.7,10.7c-2.2,4.7-5.5,8.6-9,12.3
						c-0.1,0.1-0.5,0.3-0.7,0.3c0.1-0.2,0.3-0.8,0.3-0.9c2.6-5.5,3.5-11,3.3-17.1c0-0.6,0.1-1.3,0.2-2c0.2-1.1,0.4-1.9,0.6-3
						c-0.3,0.2-0.2,0.3-0.3,0.6c-0.7,2.3-1.2,4.6-2,6.9c-2.2,6.7-5.7,12.7-11,17.4c-0.3,0.2-1.1,1-1.2,0.9c0,0,0.8-2.1,1-3
						c0.7-2.6,1.2-5,1.8-7.6c0.5-2.1,0.4-4.1,1.6-6.1c0,0,0.1-0.1,0.1-0.3c-0.1,0.2-0.2,0.3-0.3,0.5c-2.6,4.5-5.3,8.8-8.2,13
						c-1.3,1.9-2.5,3.8-3.3,6c0,0.4-0.4,0.4-0.5,0.1c-0.1-0.6-0.4-1.3-0.5-1.9c-1.6-7.5-1.8-15-0.6-22.5c0.2-1.3,0.6-2.4,1.2-3.6
						c0.5-0.9,1-2.5,0.9-2.4c-1.9,4.1-4.4,7.8-7.3,11.3c-3,3.7-6.5,7-10.7,9.3c-0.3,0.2-1.2,0.7-1.6,0.9
						C20.3,133.5,21.8,131.3,22,131.1z"/>
					<path fill="#1D1E1C" d="M81.4,74.7c0.2,2.9-0.1,5.8-0.6,8.7c-1,5.8-1.9,11.6-2.5,17.5c-0.5,6,0.1,11.9,2.3,17.6
						c0.4,1.1,0.9,2.1,1.3,3.3c-0.2,0-0.3-0.1-0.4-0.1c-0.5-0.3-1-0.6-1.5-1c-3.6-2.6-6.8-5.7-9.9-9c-0.6-0.6-1.1-1.2-1.2-2.3
						c0,1.6,0,2.9,0,4.2c-0.1,3.7-1.2,7.1-2.7,10.5c-2.2,4.7-5.3,8.7-8.9,12.4c-0.1,0.1-0.1,0.1-0.3,0.1c0.1-0.2,0.1-0.3,0.2-0.4
						c2.6-5.5,3.5-11.3,3.3-17.3c0-0.6,0.1-1.3,0.2-1.9c0.2-1.1,0.4-2.2,0.6-3.2c-0.3,0.2-0.3,0.5-0.4,0.7c-0.7,2.3-1.3,4.6-2.1,6.9
						c-2.2,6.7-5.6,12.6-10.9,17.4c-0.2,0.2-0.5,0.4-0.7,0.6c0.4-0.8,0.6-1.7,0.8-2.5c0.7-2.5,1.3-5.1,1.8-7.7
						c0.5-2.1,0.4-4.3,1.6-6.2c0,0,0-0.1-0.1-0.3c-0.1,0.2-0.3,0.4-0.4,0.6c-2.6,4.5-5.4,8.8-8.4,13c-1.3,1.9-2.6,3.9-3.4,6.1
						c0,0-0.1,0-0.2,0.1c-0.1-0.6-0.2-1.1-0.3-1.7c-1.6-7.5-1.7-15-0.6-22.6c0.2-1.3,0.5-2.5,1.2-3.7c0.5-0.9,0.8-1.8,1.1-2.7
						c-0.2,0-0.3,0.1-0.4,0.2c-1.9,4.1-4.5,7.8-7.3,11.3c-3,3.7-6.4,7-10.7,9.4c-0.3,0.2-0.7,0.4-1.1,0.6c0,0,0,0,0,0
						c0.5-0.6,0.9-1.2,1.2-1.9c0,0,0.1-0.1,0.1-0.1c2.7-4.3,4.5-9,5.4-14.1c0.1-0.4,0.1-0.7,0.1-1.1c-0.1,0-0.1-0.1-0.2-0.1
						c-6.2,6.9-13.2,12.6-21.8,16.1c3.4-4.1,5.8-8.5,6.4-13.8c-0.2,0.3-0.4,0.7-0.4,1.1c-0.1,0.8-0.6,1.4-1.2,1.9
						c-1.3,1.1-2.8,2-4.4,2.6c-0.2,0.1-0.5,0.1-0.9,0.2c0.3-0.6,0.5-1,0.8-1.4c2.7-4.7,5-9.7,6.5-14.9c1-3.5,2-7.1,2.3-10.7
						c0.5-6.1,1.5-18.7,0.8-23.7c-0.1,0-0.2,0-0.3,0c0,0.1,0,5.7,0,5.9c-0.2,4.4-0.4,8.8-0.7,13.3c-0.2,4.4-0.8,8.7-2,13
						c-1.5,5.4-3.4,10.7-6.2,15.5c-0.4,0.7-0.8,1.5-1.2,2.2c-0.3,0.5-0.5,1.1-0.8,1.8c2.6-0.6,4.6-1.7,6.5-3.1
						C9.6,126,7,129.5,4,133.1c0.5-0.1,0.7-0.2,1-0.3c2.8-1.1,5.4-2.3,7.9-3.9c4.3-2.7,8.3-5.8,11.8-9.5c0.6-0.7,1.3-1.3,2-2
						c0.1,0.5,0.1,0.8,0,1.2c-0.9,4.2-2.5,8.1-4.5,11.8c-0.6,0.9-1.2,1.9-1.8,2.8c-0.3,0.3-0.7,0.7-1,1c0.3,0.1,0.4,0.1,0.6,0
						c3.1-1.6,5.9-3.5,8.5-5.8c3.2-3,6-6.4,8.4-10.1c0.2-0.2,0.4-0.5,0.5-0.7c-0.5,4.5-0.9,8.9-0.7,13.4c0.2,4.5,1,8.8,2.5,13
						c0.3-1.7,1-3.1,1.9-4.5c0.4-0.7,0.9-1.5,1.4-2.2c2.3-3.4,4.6-6.9,6.8-10.3c0.1-0.1,0.2-0.3,0.3-0.4c-0.3,2.4-0.8,4.8-1.3,7.1
						c-0.4,1.5-0.8,3-1.2,4.5c-0.2,0.5-0.5,1.1-0.8,1.6c0,0,0,0.1,0,0.1c-0.1,0.1-0.2,0.3-0.3,0.4c0.5-0.1,0.8-0.3,1.1-0.5
						c3.5-3,6.5-6.3,8.7-10.4c1.5-2.7,2.6-5.6,3.7-8.5c0.1-0.3,0.2-0.6,0.4-0.9c0.1,0,0.2,0,0.2,0.1c-0.1,1.6-0.1,3.2-0.3,4.7
						c-0.2,1.6-0.4,3.2-0.8,4.8c-0.4,1.5-0.8,3.1-1.4,4.5c-0.6,1.5-1.4,2.9-2.1,4.3c4.3-3.4,7.7-7.5,10.3-12.3
						c2.4-4.4,3.9-9.1,3.6-14.2c0-0.1,0.1-0.2,0.2-0.3c2.2,2.5,4.5,4.9,7.2,7c1.6,1.2,3.2,2.3,4.9,3.5c0.3,0.2,0.6,0.3,1.1,0.5
						c-0.1-0.3-0.1-0.4-0.2-0.5c-2.6-5.3-3.9-10.9-4-16.7c0-4.6,0.7-9.1,1.3-13.5c0.4-2.9,1.1-5.8,1.5-8.7c0.5-2.9,0.9-9.3,0.3-12.2
						c-0.3,0-0.7,0.8-0.9,0.8C80.8,71.8,81.4,74.6,81.4,74.7z"/>
					<path fill="#1D1E1C" d="M18.3,89.5c0.7,6.1-0.6,11.8-2.7,17.4C17.3,101.3,18.3,95.5,18.3,89.5z"/>
				</g>
				<g>
					<path fill="#4B2504" d="M12.7,68.8c0,0.2-0.1,0.5-0.1,0.7c-0.6,4.8-1.6,9.4-3.3,14C8,87.1,6.6,90.8,5.7,94.5
						c-0.7,2.8-1.1,5.8-0.9,8.6c0.1,2.2,0.4,3.6,0.7,5.8c0,0.2,0.3,1.2,0.4,1.6c0.3-1.7,0.7-3.6,0.9-5.2c1.1-6,2.4-11.6,4.6-17.4
						c2.4-6.3,5.1-18.6,5.1-18.7C15.3,69.5,13.9,69,12.7,68.8z"/>
					<path fill="#1D1E1C" d="M11.2,87.6c-2,5.7-3.4,11.7-4.5,17.6c-0.3,1.6-0.5,3.1-0.8,4.9c-0.1-0.3-0.3-0.5-0.3-0.7
						c-0.2-2.2-0.5-4.4-0.6-6.5c-0.2-2.9,0.3-5.7,1-8.4c0.9-3.7,2.3-7.4,3.6-11c1.6-4.3,2.7-9.3,3.3-13.9c-0.2,0-0.3,0-0.5,0
						c-0.4,2.5-0.9,5.4-1.5,7.9c-0.9,3.8-2.4,7.3-3.6,11C5.4,93.7,4,99,4.6,104.6c0.3,2.5,0.7,5,1.1,7.5c0,0.2,0.2,0.4,0.4,0.8
						c0.1-1,0.1-1.7,0.2-2.4c0.1-0.8,0.2-1.5,0.4-2.2c1.2-7.3,3-14.5,5.5-21.5c0.9-2.6,1.7-5.2,2.5-7.9c0.1-0.2,1-3.6,1.1-4.4
						c0.2-1.3,0.6-2.9,0.9-4.2c-0.2,0-0.3,0-0.6,0C14.9,76.1,13.2,82.1,11.2,87.6z"/>
				</g>
				<g>
					<path fill="#4B2504" d="M84.1,69.2c0.3,6.6,0.4,13.1,0.1,19.8c0,0.3,0.1,1.3,0.1,1.7c0.3-1.6,0.9-3.7,1-5.3
						c0.3-2.9,0.6-5.8,0.7-8.7c0.4-5.6,0.3-7.5,0.3-8.1c0,0,0.2-1.3,0-1.3c-0.2,0-1.5-0.7-2.6-0.5C83.9,67,84,68.9,84.1,69.2z"/>
					<path fill="#1D1E1C" d="M86.2,68.5c-0.1,2.7-0.1,5.4-0.3,8.1c-0.2,2.9-0.5,5.9-0.8,8.8c-0.2,1.6-0.4,3.1-0.8,4.7
						c0-0.3,0-0.7,0-1c0.3-6.6,0.2-13.2-0.1-19.9c0-0.2,0-0.6-0.1-0.7c-0.2,0-0.3,0-0.5,0c0,0.6,0.1,1.4,0.1,1.9
						c0.1,3.3,0.2,6.7,0.2,10c0,3.9-0.2,7.7-0.4,11.6c0,1.2,0,2.5,0.2,3.7c1.9-9.1,2.6-18.4,2.8-27.6c-0.2,0-0.3,0-0.4,0
						C86.2,68.1,86.2,68.4,86.2,68.5z"/>
				</g>
			</g>
			<g>
				<g>
					<path fill="#7A3481" d="M56.2,101.7c0.1-0.6,0.5-1.4,0.9-1.9c0.5-0.8,1.4-1.3,2.3-1.4c1.1-0.1,2.4,0,3.5,0.6
						c1.7,1,3.3,1.9,4.7,3.5c0.4,0.4,1,1.1,1.2,1.6c3.1,5.5,6,11,8.2,17c0.4,1,0.7,2.1,1,3.2c0.1,0.1,0.1,0.3,0,0.5
						c0.2,0,0.4,0.2,0.6,0.4c0.4,0.6,0.8,1.2,1.1,1.9c0.3,0.6,0.2,0.9-0.6,1.4c-1.1,0.7-5.5,4-6.5,4.9c-0.7,0.6-1.1,0.7-1.7-0.1
						c-0.5-0.7-1-1.4-1.5-2.2c-0.4-0.6-0.5-0.8-0.2-1.2c-0.1-0.1-0.2-0.2-0.3-0.3c-0.2-0.4-0.5-0.9-0.6-1.1
						c-1.9-3.8-3.6-7.6-5.5-11.5c-1.2-2.6-2.4-4.8-4.4-6.9c-0.3-0.4-0.8-1-1.1-1.4C55.6,106.5,55.7,104.1,56.2,101.7z"/>
					<g>
						<defs>
							<path id="SVGID_67_" d="M56.2,101.7c0.1-0.6,0.5-1.4,0.9-1.9c0.5-0.8,1.4-1.3,2.3-1.4c1.1-0.1,2.4,0,3.5,0.6
								c1.7,1,3.3,1.9,4.7,3.5c0.4,0.4,1,1.1,1.2,1.6c3.1,5.5,6,11,8.2,17c0.4,1,0.7,2.1,1,3.2c0.1,0.1,0.1,0.3,0,0.5
								c0.2,0,0.4,0.2,0.6,0.4c0.4,0.6,0.8,1.2,1.1,1.9c0.3,0.6,0.2,0.9-0.6,1.4c-1.1,0.7-5.5,4-6.5,4.9c-0.7,0.6-1.1,0.7-1.7-0.1
								c-0.5-0.7-1-1.4-1.5-2.2c-0.4-0.6-0.5-0.8-0.2-1.2c-0.1-0.1-0.2-0.2-0.3-0.3c-0.2-0.4-0.5-0.9-0.6-1.1
								c-1.9-3.8-3.6-7.6-5.5-11.5c-1.2-2.6-2.4-4.8-4.4-6.9c-0.3-0.4-0.8-1-1.1-1.4C55.6,106.5,55.7,104.1,56.2,101.7z"/>
						</defs>
						<clipPath id="SVGID_22_">
							<use xlink:href="#SVGID_67_"  overflow="visible"/>
						</clipPath>
					</g>
				</g>
				<path fill="#1D1E1C" d="M57.7,109.6c2.3,2.5,3.8,5.5,5.3,8.6c1.8,3.7,3.6,7.5,5.4,11.2c0.2,0.4,0.1,0.9,0.3,1.3
					c0.6,1,1.2,2,2,2.9c0.4,0.6,0.9,0.7,1.5,0.5c0.4-0.3,0.7-0.6,1-0.9c-0.1,0.4-0.2,0.7-0.3,1.1c-0.3,1-0.6,1.9-1,2.9
					c-0.2,0.5-0.3,0.9,0.1,1.3c0.4,0.3,1,0.4,1.5,0.1c0.4-0.3,0.8-0.6,1.1-0.9c0.2-0.2,0.4-0.5,0.6-0.6c0.6-0.4,1.2-0.4,1.6,0.2
					c0.5,0.6,1.2,1.3,1.4,2.1c0.2,1,0.5,1.6,0.9,2.3c0.5,0.8,0.9,0.8,1.9,0.8c0.2,0,1,0.6,2.1,0.1c0.8-0.4,0.7-0.6,0.1-1.9
					c0,0-1.4-5.7-2.5-8.8c-0.3-1.1-0.7-2.1-1.2-3.1c0,0,0,0,0,0c0.3-0.2,0.6-0.4,0.7-0.6c0.1-0.6-0.9-2.7-1.8-3.7
					c-0.1-0.2-0.2-0.4-0.3-0.6c-1.3-4.5-3.3-8.8-5.4-12.9c-1.1-2-2.1-4.1-3.2-6.1c-1.6-3-4.3-4.9-7.3-6.2c-0.8-0.3-1.7-0.4-2.5-0.3
					c-2,0.2-3.4,1.9-3.7,4.2C55.4,104.9,55.7,107.5,57.7,109.6z M78.6,139.7c0.7,0.8,1.4,1.5,2,2.3C79.7,142,79.1,141.4,78.6,139.7z
					 M73.4,133.8c0.1-0.4,0.2-0.7,0.3-1.1c1.5-1.3,3.6-2.9,5.2-3.9c0,0,0.1,0,0.1-0.1c0.2,0.4,0.3,0.8,0.5,1.2
					c0.8,2.2,1.4,4.4,2.1,6.5c0.4,1.3,0.7,2.6,1.1,3.8c-0.7-1-1.2-2.2-1.7-3.3c0,0.9,1.2,3.1,2,4.5c0.1,0.2-0.7,0.6-1.1,0.6
					c-0.7,0-1-0.4-1.5-1c-0.2-0.3-0.5-0.5-0.7-0.8c-0.9-1.1-1.7-2.2-2.5-3.4c-0.7-1-1.5-1.1-2.4-0.3c-0.3,0.3-0.6,0.6-0.9,0.9
					c-0.3,0.3-0.6,0.6-1,0.7c-0.2,0.1-0.6,0-0.8-0.2c-0.1-0.1-0.1-0.5,0-0.7C72.6,136.2,73,135,73.4,133.8z M69.5,129.5
					c2.2-2.4,5-3.7,8-4.7c0.4-0.1,0.8,0,1,0.4c0.4,0.6,0.8,1.2,1.1,1.9c0.3,0.6,0.2,0.7-0.6,1.2c-0.3-0.9-0.5-1.7-1.4-2.2
					c0.4,0.8,0.8,1.6,1.2,2.4c-1.1,0.8-2.1,1.5-3.2,2.2l0,0c-1.1,0.9-2.1,1.8-3.2,2.7c-0.7,0.6-1.1,0.7-1.7-0.1
					c-0.5-0.7-1-1.4-1.5-2.2C68.9,130.2,68.9,130.2,69.5,129.5z M56.5,101.6c0.1-0.6,0.4-1.1,0.8-1.6c0.5-0.8,1.3-1.3,2.2-1.4
					c1.1-0.1,2.3-0.1,3.3,0.5c1.7,1,3.4,2.1,4.7,3.7c0.4,0.4,0.8,0.9,1,1.3c3.1,5.5,6.1,11.1,8.2,17c0.4,1,0.7,2,1,3
					c-3.3,1.1-6.2,2.9-8.8,5.3c-0.2-0.4-0.4-0.6-0.5-0.9c-1.9-3.8-3.7-7.7-5.6-11.5c-1.2-2.6-2.6-5.1-4.5-7.1
					c-0.3-0.4-0.6-0.8-0.9-1.2C55.9,106.5,56,104.1,56.5,101.6z"/>
			</g>
			<g>
				<g>
					<path fill="#7A3481" d="M45,101.7c-0.1-0.6-0.5-1.4-0.9-1.9c-0.5-0.8-1.4-1.3-2.3-1.4c-1.1-0.1-2.4,0-3.5,0.6
						c-1.7,1-3.3,1.9-4.7,3.5c-0.4,0.4-1,1.1-1.2,1.6c-3.1,5.5-6,11-8.2,17c-0.4,1-0.7,2.1-1,3.2c-0.1,0.1-0.1,0.3,0,0.5
						c-0.2,0-0.4,0.2-0.6,0.4c-0.4,0.6-0.8,1.2-1.1,1.9c-0.3,0.6-0.2,0.9,0.6,1.4c1.1,0.7,5.5,4,6.5,4.9c0.7,0.6,1.1,0.7,1.7-0.1
						c0.5-0.7,1-1.4,1.5-2.2c0.4-0.6,0.5-0.8,0.2-1.2c0.1-0.1,0.2-0.2,0.3-0.3c0.2-0.4,0.5-0.9,0.6-1.1c1.9-3.8,3.6-7.6,5.5-11.5
						c1.2-2.6,2.4-4.8,4.4-6.9c0.3-0.4,0.8-1,1.1-1.4C45.5,106.5,45.5,104.1,45,101.7z"/>
					<g>
						<defs>
							<path id="SVGID_69_" d="M45,101.7c-0.1-0.6-0.5-1.4-0.9-1.9c-0.5-0.8-1.4-1.3-2.3-1.4c-1.1-0.1-2.4,0-3.5,0.6
								c-1.7,1-3.3,1.9-4.7,3.5c-0.4,0.4-1,1.1-1.2,1.6c-3.1,5.5-6,11-8.2,17c-0.4,1-0.7,2.1-1,3.2c-0.1,0.1-0.1,0.3,0,0.5
								c-0.2,0-0.4,0.2-0.6,0.4c-0.4,0.6-0.8,1.2-1.1,1.9c-0.3,0.6-0.2,0.9,0.6,1.4c1.1,0.7,5.5,4,6.5,4.9c0.7,0.6,1.1,0.7,1.7-0.1
								c0.5-0.7,1-1.4,1.5-2.2c0.4-0.6,0.5-0.8,0.2-1.2c0.1-0.1,0.2-0.2,0.3-0.3c0.2-0.4,0.5-0.9,0.6-1.1c1.9-3.8,3.6-7.6,5.5-11.5
								c1.2-2.6,2.4-4.8,4.4-6.9c0.3-0.4,0.8-1,1.1-1.4C45.5,106.5,45.5,104.1,45,101.7z"/>
						</defs>
						<clipPath id="SVGID_24_">
							<use xlink:href="#SVGID_69_"  overflow="visible"/>
						</clipPath>
					</g>
				</g>
				<path d="M45.4,102.2c-0.3-2.3-1.7-3.9-3.7-4.2c-0.8-0.1-1.8,0-2.5,0.3c-3,1.3-5.7,3.2-7.3,6.2c-1.1,2-2.2,4.1-3.2,6.1
					c-2.2,4.2-4.1,8.4-5.4,12.9c-0.1,0.2-0.2,0.4-0.3,0.6c-0.9,1.1-2,3.1-1.8,3.7c0.1,0.2,0.4,0.4,0.7,0.6c0,0,0,0,0,0
					c-0.4,1-0.8,2.1-1.2,3.1c-1,3.1-2.5,8.8-2.5,8.8c-0.6,1.3-0.7,1.5,0.1,1.9c1,0.6,1.9-0.1,2.1-0.1c1,0.1,1.4,0,1.9-0.8
					c0.4-0.7,0.7-1.3,0.9-2.3c0.2-0.8,0.9-1.5,1.4-2.1c0.4-0.5,1.1-0.6,1.6-0.2c0.2,0.2,0.4,0.4,0.6,0.6c0.4,0.3,0.7,0.7,1.1,0.9
					c0.5,0.3,1.1,0.2,1.5-0.1c0.4-0.4,0.2-0.8,0.1-1.3c-0.4-0.9-0.7-1.9-1-2.9c-0.1-0.4-0.2-0.7-0.3-1.1c0.4,0.3,0.7,0.6,1,0.9
					c0.5,0.2,1,0.1,1.5-0.5c0.7-0.9,1.4-1.9,2-2.9c0.2-0.4,0.1-0.9,0.3-1.3c1.8-3.8,3.6-7.5,5.4-11.2c1.5-3,3-6,5.3-8.6
					C45.4,107.5,45.8,104.9,45.4,102.2z M20.5,142c0.7-0.7,1.3-1.5,2-2.3C22.1,141.4,21.5,142,20.5,142z M29,137.4
					c0.1,0.2,0.1,0.6,0,0.7c-0.2,0.2-0.6,0.3-0.8,0.2c-0.4-0.1-0.7-0.4-1-0.7c-0.3-0.3-0.6-0.6-0.9-0.9c-0.9-0.8-1.7-0.7-2.4,0.3
					c-0.8,1.1-1.6,2.3-2.5,3.4c-0.2,0.3-0.5,0.5-0.7,0.8c-0.5,0.6-0.8,1-1.5,1c-0.4,0-1.2-0.4-1.1-0.6c0.8-1.4,2-3.6,2-4.5
					c-0.5,1.1-1,2.3-1.7,3.3c0.4-1.3,0.7-2.6,1.1-3.8c0.7-2.2,1.3-4.4,2.1-6.5c0.1-0.4,0.3-0.8,0.5-1.2c0,0,0.1,0,0.1,0.1
					c1.7,1,3.8,2.6,5.2,3.9c0.1,0.4,0.2,0.8,0.3,1.1C28.2,135,28.6,136.2,29,137.4z M31.8,131.1c-0.4,0.7-0.9,1.5-1.5,2.2
					c-0.6,0.8-0.9,0.7-1.7,0.1c-1.1-0.9-2.1-1.8-3.2-2.7l0,0c-1-0.7-2.1-1.4-3.2-2.2c0.4-0.8,0.8-1.6,1.2-2.4
					c-0.9,0.5-1.1,1.4-1.4,2.2c-0.8-0.5-0.9-0.6-0.6-1.2c0.3-0.6,0.7-1.3,1.1-1.9c0.2-0.3,0.6-0.5,1-0.4c3,1.1,5.8,2.3,8,4.7
					C32.3,130.2,32.3,130.2,31.8,131.1z M43.6,108.6c-0.3,0.4-0.5,0.8-0.9,1.2c-2,2.1-3.3,4.6-4.5,7.1c-1.9,3.8-3.7,7.7-5.6,11.5
					c-0.1,0.3-0.3,0.5-0.5,0.9c-2.6-2.4-5.4-4.1-8.8-5.3c0.3-1.1,0.6-2.1,1-3c2.2-5.9,5.2-11.5,8.2-17c0.3-0.5,0.7-0.9,1-1.3
					c1.3-1.6,3-2.7,4.7-3.7c1-0.6,2.2-0.7,3.3-0.5c1,0.1,1.7,0.6,2.2,1.4c0.3,0.5,0.6,1.1,0.8,1.6C45.2,104.1,45.2,106.5,43.6,108.6
					z"/>
			</g>
			<g>
				<g>
					<path fill="#7A3481" d="M45,101.7c-0.1-0.6-0.5-1.4-0.9-1.9c-0.5-0.8-1.4-1.3-2.3-1.4c-1.1-0.1-2.4,0-3.5,0.6
						c-1.7,1-3.3,1.9-4.7,3.5c-0.4,0.4-1,1.1-1.2,1.6c-3.1,5.5-6,11-8.2,17c-0.4,1-0.7,2.1-1,3.2c-0.1,0.1-0.1,0.3,0,0.5
						c-0.2,0-0.4,0.2-0.6,0.4c-0.4,0.6-0.8,1.2-1.1,1.9c-0.3,0.6-0.2,0.9,0.6,1.4c1.1,0.7,5.5,4,6.5,4.9c0.7,0.6,1.1,0.7,1.7-0.1
						c0.5-0.7,1-1.4,1.5-2.2c0.4-0.6,0.5-0.8,0.2-1.2c0.1-0.1,0.2-0.2,0.3-0.3c0.2-0.4,0.5-0.9,0.6-1.1c1.9-3.8,3.6-7.6,5.5-11.5
						c1.2-2.6,2.4-4.8,4.4-6.9c0.3-0.4,0.8-1,1.1-1.4C45.5,106.5,45.5,104.1,45,101.7z"/>
					<g>
						<defs>
							<path id="SVGID_71_" d="M45,101.7c-0.1-0.6-0.5-1.4-0.9-1.9c-0.5-0.8-1.4-1.3-2.3-1.4c-1.1-0.1-2.4,0-3.5,0.6
								c-1.7,1-3.3,1.9-4.7,3.5c-0.4,0.4-1,1.1-1.2,1.6c-3.1,5.5-6,11-8.2,17c-0.4,1-0.7,2.1-1,3.2c-0.1,0.1-0.1,0.3,0,0.5
								c-0.2,0-0.4,0.2-0.6,0.4c-0.4,0.6-0.8,1.2-1.1,1.9c-0.3,0.6-0.2,0.9,0.6,1.4c1.1,0.7,5.5,4,6.5,4.9c0.7,0.6,1.1,0.7,1.7-0.1
								c0.5-0.7,1-1.4,1.5-2.2c0.4-0.6,0.5-0.8,0.2-1.2c0.1-0.1,0.2-0.2,0.3-0.3c0.2-0.4,0.5-0.9,0.6-1.1c1.9-3.8,3.6-7.6,5.5-11.5
								c1.2-2.6,2.4-4.8,4.4-6.9c0.3-0.4,0.8-1,1.1-1.4C45.5,106.5,45.5,104.1,45,101.7z"/>
						</defs>
						<clipPath id="SVGID_26_">
							<use xlink:href="#SVGID_71_"  overflow="visible"/>
						</clipPath>
					</g>
				</g>
				<path fill="#1D1E1C" d="M45.4,102.2c-0.3-2.3-1.7-3.9-3.7-4.2c-0.8-0.1-1.8,0-2.5,0.3c-3,1.3-5.7,3.2-7.3,6.2
					c-1.1,2-2.2,4.1-3.2,6.1c-2.2,4.2-4.1,8.4-5.4,12.9c-0.1,0.2-0.2,0.4-0.3,0.6c-0.9,1.1-2,3.1-1.8,3.7c0.1,0.2,0.4,0.4,0.7,0.6
					c0,0,0,0,0,0c-0.4,1-0.8,2.1-1.2,3.1c-1,3.1-2.5,8.8-2.5,8.8c-0.6,1.3-0.7,1.5,0.1,1.9c1,0.6,1.9-0.1,2.1-0.1
					c1,0.1,1.4,0,1.9-0.8c0.4-0.7,0.7-1.3,0.9-2.3c0.2-0.8,0.9-1.5,1.4-2.1c0.4-0.5,1.1-0.6,1.6-0.2c0.2,0.2,0.4,0.4,0.6,0.6
					c0.4,0.3,0.7,0.7,1.1,0.9c0.5,0.3,1.1,0.2,1.5-0.1c0.4-0.4,0.2-0.8,0.1-1.3c-0.4-0.9-0.7-1.9-1-2.9c-0.1-0.4-0.2-0.7-0.3-1.1
					c0.4,0.3,0.7,0.6,1,0.9c0.5,0.2,1,0.1,1.5-0.5c0.7-0.9,1.4-1.9,2-2.9c0.2-0.4,0.1-0.9,0.3-1.3c1.8-3.8,3.6-7.5,5.4-11.2
					c1.5-3,3-6,5.3-8.6C45.4,107.5,45.8,104.9,45.4,102.2z M20.5,142c0.7-0.7,1.3-1.5,2-2.3C22.1,141.4,21.5,142,20.5,142z
					 M29,137.4c0.1,0.2,0.1,0.6,0,0.7c-0.2,0.2-0.6,0.3-0.8,0.2c-0.4-0.1-0.7-0.4-1-0.7c-0.3-0.3-0.6-0.6-0.9-0.9
					c-0.9-0.8-1.7-0.7-2.4,0.3c-0.8,1.1-1.6,2.3-2.5,3.4c-0.2,0.3-0.5,0.5-0.7,0.8c-0.5,0.6-0.8,1-1.5,1c-0.4,0-1.2-0.4-1.1-0.6
					c0.8-1.4,2-3.6,2-4.5c-0.5,1.1-1,2.3-1.7,3.3c0.4-1.3,0.7-2.6,1.1-3.8c0.7-2.2,1.3-4.4,2.1-6.5c0.1-0.4,0.3-0.8,0.5-1.2
					c0,0,0.1,0,0.1,0.1c1.7,1,3.8,2.6,5.2,3.9c0.1,0.4,0.2,0.8,0.3,1.1C28.2,135,28.6,136.2,29,137.4z M31.8,131.1
					c-0.4,0.7-0.9,1.5-1.5,2.2c-0.6,0.8-0.9,0.7-1.7,0.1c-1.1-0.9-2.1-1.8-3.2-2.7l0,0c-1-0.7-2.1-1.4-3.2-2.2
					c0.4-0.8,0.8-1.6,1.2-2.4c-0.9,0.5-1.1,1.4-1.4,2.2c-0.8-0.5-0.9-0.6-0.6-1.2c0.3-0.6,0.7-1.3,1.1-1.9c0.2-0.3,0.6-0.5,1-0.4
					c3,1.1,5.8,2.3,8,4.7C32.3,130.2,32.3,130.2,31.8,131.1z M43.6,108.6c-0.3,0.4-0.5,0.8-0.9,1.2c-2,2.1-3.3,4.6-4.5,7.1
					c-1.9,3.8-3.7,7.7-5.6,11.5c-0.1,0.3-0.3,0.5-0.5,0.9c-2.6-2.4-5.4-4.1-8.8-5.3c0.3-1.1,0.6-2.1,1-3c2.2-5.9,5.2-11.5,8.2-17
					c0.3-0.5,0.7-0.9,1-1.3c1.3-1.6,3-2.7,4.7-3.7c1-0.6,2.2-0.7,3.3-0.5c1,0.1,1.7,0.6,2.2,1.4c0.3,0.5,0.6,1.1,0.8,1.6
					C45.2,104.1,45.2,106.5,43.6,108.6z"/>
			</g>
			<g>
				<g>
					<path fill="#7A3481" d="M44.3,90.8C47.5,91,54,90,57.2,90.7c1.6,0.4,2.1,1.9,1.7,4.1c-0.2,1.1-0.4,1.9-0.5,2l5.4,2.9
						c1.8,1.1,1.9,1.1,0.6,8l1.8,19.4c0,0.6-0.4,2.5-1.4,3.4l0,3.6c-6.5,2.3-21.9,2.3-28.2,0v-3.6c-1.5-1.3-1.4-3-1.3-3.8l1.6-15.8
						c-0.4-9.2-0.3-9.7,0.7-11.1l4.7-2.7c0.4-0.3,0.3-0.8,0.2-1.7C42.2,93,42.5,90.7,44.3,90.8z"/>
					<g>
						<defs>
							<path id="SVGID_73_" d="M44.3,90.8C47.5,91,54,90,57.2,90.7c1.6,0.4,2.1,1.9,1.7,4.1c-0.2,1.1-0.4,1.9-0.5,2l5.4,2.9
								c1.8,1.1,1.9,1.1,0.6,8l1.8,19.4c0,0.6-0.4,2.5-1.4,3.4l0,3.6c-6.5,2.3-21.9,2.3-28.2,0v-3.6c-1.5-1.3-1.4-3-1.3-3.8
								l1.6-15.8c-0.4-9.2-0.3-9.7,0.7-11.1l4.7-2.7c0.4-0.3,0.3-0.8,0.2-1.7C42.2,93,42.5,90.7,44.3,90.8z"/>
						</defs>
						<clipPath id="SVGID_28_">
							<use xlink:href="#SVGID_73_"  overflow="visible"/>
						</clipPath>
					</g>
				</g>
				<path fill="#1D1E1C" d="M57,90.4c0.3,0.1,0.5,0.2,0.7,0.4c1.4,0.8,1.8,1.8,1.5,3.3c-0.2,0.8-0.4,1.5-0.6,2.4
					c2.2,1.3,4.5,2.4,6.6,3.8c-0.1,0.1-0.1,0.2-0.2,0.3c-2.2-1.2-4.3-2.3-6.5-3.5c-0.2,0.4-0.4,0.6-0.5,0.8c-0.1,0-0.1,0-0.2-0.1
					c0.1-0.6,0.2-1.1,0.3-1.7c0.2-0.7,0.4-1.5,0.5-2.2c0.3-1.5,0-2.1-1.6-2.9c-0.2,0.6-0.2,1,0.2,1.5c-2.3,2.1-10,2.8-13.3,0.1
					c0.1-0.5,0.1-0.9,0.2-1.4c-1,0.1-1.4,0.6-1.5,1.2c-0.1,0.8-0.1,1.6-0.1,2.5c0.1,1,0.3,1.9,0.5,3c-0.8-0.6-0.8-0.6-1.4-0.3
					c-1.5,0.8-3,1.6-4.5,2.4c-0.4,0.2-0.7,0.4-1.1,0.4c0.8-0.9,2-1.4,3-2c1.1-0.6,2.2-1.2,3.3-1.8c-0.1-0.8-0.2-1.6-0.3-2.4
					c0-0.5,0-1.1,0-1.6c0.2-1.1,0.9-1.8,2-2.2c0-1,0-1.9,0-2.9c0-1.7,0.7-3,2-4c1.7-1.4,3.7-1.7,5.9-1.3c3.9,0.8,5.2,3.1,5,6.3
					C57,89.2,57,89.8,57,90.4z M44.7,92.7c3.3,1.7,9.1,1.4,11.7-0.1c0-1.7,0-3.3,0-5c0-2.1-1.1-3.5-3.1-4.3
					c-1.4-0.5-2.9-0.6-4.4-0.4c-2.3,0.3-4.3,2.4-4.4,4.8C44.6,89.3,44.7,91,44.7,92.7z"/>
				<path fill="#1D1E1C" d="M46.5,97.6c-0.5-1-0.6-1.9-0.4-2.8C46.4,95.6,46.6,96.5,46.5,97.6z"/>
				<path fill="#1D1E1C" d="M44.8,97.3c-0.7-0.8-1-1.8-0.8-2.9C44.3,95.4,44.5,96.4,44.8,97.3z"/>
				<path fill="#1D1E1C" d="M57.1,94.8c-0.2,0.9-0.3,1.8-0.5,2.7c-0.1,0-0.2,0-0.3,0c0.1-0.9,0.3-1.8,0.4-2.7
					C56.9,94.8,57,94.8,57.1,94.8z"/>
				<path fill="#1D1E1C" d="M48.3,95.5c0,0.7,0.1,1.5,0.1,2.4C47.9,97.1,47.8,96.4,48.3,95.5z"/>
				<path fill="#1D1E1C" d="M52.7,97.7c0.1-0.7,0.2-1.4,0.2-2.1C53.2,96.4,53.3,97.1,52.7,97.7z"/>
				<path fill="#1D1E1C" d="M50.5,97.9c-0.1-0.7-0.3-1.5,0-2.3C50.9,96.9,50.9,97.3,50.5,97.9z"/>
				<path fill="#1D1E1C" d="M54.8,95.9c0.4,0.6,0.3,1.1-0.1,1.7C54.7,97,54.8,96.4,54.8,95.9z"/>
				<g>
					<path fill="#E1AC97" d="M44.7,92.7c0-1.7-0.2-3.4-0.1-5c0-2.3,2-4.5,4.4-4.8c1.5-0.2,2.9-0.1,4.4,0.4c2,0.8,3,2.2,3.1,4.3
						c0,1.7,0,3.3,0,5C53.8,94.1,48.1,94.4,44.7,92.7z"/>
					<g>
						<defs>
							<path id="SVGID_75_" d="M44.7,92.7c0-1.7-0.2-3.4-0.1-5c0-2.3,2-4.5,4.4-4.8c1.5-0.2,2.9-0.1,4.4,0.4c2,0.8,3,2.2,3.1,4.3
								c0,1.7,0,3.3,0,5C53.8,94.1,48.1,94.4,44.7,92.7z"/>
						</defs>
						<clipPath id="SVGID_30_">
							<use xlink:href="#SVGID_75_"  overflow="visible"/>
						</clipPath>
						<path clip-path="url(#SVGID_30_)" fill="#D9A08C" d="M50.6,93.8c-1.7-2.7-2.9-7.5-1.3-10.4c0.3-0.5-0.2-1.3-0.8-1
							c-0.2,0.1-0.4,0.2-0.5,0.2c-0.2-0.1-0.4,0-0.6,0.1c-1.2,0.7-2.3,1.6-2.9,2.7c-0.3,0-0.6,0.2-0.6,0.5c-0.1,1.5-0.1,2.9,0,4.3
							c0,0.8,0.1,1.6,0.2,2.4c0,0.3,0.2,0.4,0.4,0.4c0.2,0.2,0.6,0.2,0.9,0c0.1,0,0.1,0,0.2,0c0.7,0.5,1.6,0.8,2.7,1.3
							c0,0,0.1,0,0.1,0c0,0,0.1,0.1,0.1,0.1c0.3,0.2,0.5,0.1,0.7,0c0.1,0,0.1,0,0.2,0C50,95,51,94.4,50.6,93.8z"/>
					</g>
				</g>
			</g>
			<path fill="#4B2504" d="M13.2,47.9c0,0.7,0.1,1.5,0.1,2.2c0,4,0.2,7.8,0.1,11.8c-0.1,2.3-0.6,5.3-0.9,7.6
				c1.2,0.2,2.6,0.7,3.8,0.5c0.6-3.6,1.3-8.1,1.8-11.7c0.5-3.4,0.8-6.7,1.1-10.1c0.1-0.6,0.1-1.7,0.1-2.3
				C17.4,46.5,15,47.4,13.2,47.9z"/>
			<g>
				<path fill="#E1AC97" d="M85.8,49.5c1.2-0.5,2.1-0.2,2.9,0.4c2,1.5,3.1,4.1,2.5,6.5c-0.4,1.4-1.3,3.2-2.1,3.9
					c-0.2-1-1-1.8-1.7-2.1c-0.4-0.2-0.6-0.3-1-0.1C86.3,55.2,86.1,52.3,85.8,49.5z"/>
				<g>
					<defs>
						<path id="SVGID_77_" d="M85.8,49.5c1.2-0.5,2.1-0.2,2.9,0.4c2,1.5,3.1,4.1,2.5,6.5c-0.4,1.4-1.3,3.2-2.1,3.9
							c-0.2-1-1-1.8-1.7-2.1c-0.4-0.2-0.6-0.3-1-0.1C86.3,55.2,86.1,52.3,85.8,49.5z"/>
					</defs>
					<clipPath id="SVGID_32_">
						<use xlink:href="#SVGID_77_"  overflow="visible"/>
					</clipPath>
					<path clip-path="url(#SVGID_32_)" fill="#D9A08C" d="M91.7,53.7C91.7,53.7,91.7,53.7,91.7,53.7L91.7,53.7c0-0.2,0-0.3,0-0.4
						c-0.2-1.4-2.4-1-2.4,0.3c0,0.3,0,0.6,0,0.9c-0.4,2.4-3.9,3.3-3.3,6.1c0.3,1.4,2.2,1.2,2.6,0.1c0.8-0.4,1.4-1.3,1.9-2
						c0.4-0.7,0.8-1.5,1-2.4C91.7,55.5,91.8,54.6,91.7,53.7z"/>
				</g>
			</g>
			<g>
				<path fill="#E1AC97" d="M13.1,51c0,2.8,0.1,5.9,0.1,8.7c-0.4-0.1-1-0.2-1.4-0.3c-1-0.4-2,1.3-2.1,2.2c-2.8-3-2.6-7.4-0.2-9.9
					C10.5,50.7,11.8,50.4,13.1,51z"/>
				<g>
					<defs>
						<path id="SVGID_79_" d="M13.1,51c0,2.8,0.1,5.9,0.1,8.7c-0.4-0.1-1-0.2-1.4-0.3c-1-0.4-2,1.3-2.1,2.2c-2.8-3-2.6-7.4-0.2-9.9
							C10.5,50.7,11.8,50.4,13.1,51z"/>
					</defs>
					<clipPath id="SVGID_34_">
						<use xlink:href="#SVGID_79_"  overflow="visible"/>
					</clipPath>
					<path clip-path="url(#SVGID_34_)" fill="#D9A08C" d="M12.5,59.3c-1.1-0.3-2-0.8-2.9-1.5C8.7,57,8.3,56,7.6,55.1
						c-0.1-0.1-0.3-0.2-0.3,0c-1,1.2-0.8,3-0.2,4.4c0.8,1.8,2.5,3,4.4,3.3C13.8,63.2,14.8,59.8,12.5,59.3z"/>
				</g>
			</g>
			<g>
				<path fill="#E1AC97" d="M50.7,90.7c-4.2-0.2-7.5-0.6-10.8-1.4c-7.1-1.6-12.6-5.6-17.2-10.9c-2.5-2.8-4.3-5.8-5.6-9.4
					c-0.2-0.4-0.2-1.3-0.1-1.8c0.8-5.7,1.6-11.3,2.4-17c0.1-1.1,0.2-2.4,0.2-3.5c0-0.7,0.3-1.1,0.9-1.4c3.8-1.6,7.3-3.4,10.8-5.5
					c4-2.4,7.7-5,11.1-8.3c1.4-1.3,3.1-2.3,5.1-2c0.2,0,0.7,0,0.8-0.1c1.5-0.5,3.2-0.2,4.5,0.6c1.1,0.6,2.1,1.6,3.1,2.4
					c1.4,1.1,2.8,2.5,4.2,3.5c5.9,4.4,12.2,7.2,19.6,8.5c0.7,0.1,1.2,0.7,1.3,1.3c0.4,1.7,0.9,3.3,1.1,5c0.6,4.9,1.1,9.5,1.5,14.5
					c0,0.5,0,1.5-0.1,2c-0.7,3-2.4,5.7-3.9,8.3c-2.1,3.5-5.5,5.8-8.6,8.2c-4.1,3.2-8.8,5-13.9,5.9C54.7,90.3,52.3,90.5,50.7,90.7z"
					/>
				<g>
					<defs>
						<path id="SVGID_81_" d="M50.7,90.7c-4.2-0.2-7.5-0.6-10.8-1.4c-7.1-1.6-12.6-5.6-17.2-10.9c-2.5-2.8-4.1-6.3-5.4-9.8
							c-0.2-0.4-0.1-1-0.1-1.4c0.8-5.7,1.5-11.3,2.3-17c0.1-1.1,0.2-2.3,0.2-3.4c0-0.7,0.2-1,0.9-1.3c3.8-1.6,7.4-3.4,10.9-5.5
							c4-2.4,7.8-5.2,11.2-8.4c1.4-1.3,3-2.1,5-1.7c0.2,0,0.4,0,0.5,0c1.5-0.5,3-0.2,4.4,0.5c1.1,0.6,2.2,1.5,3.2,2.3
							c1.4,1.1,2.6,2.3,4,3.4c5.9,4.4,12.5,7.5,19.8,8.8c0.7,0.1,1.1,0.4,1.3,1.1c0.4,1.7,0.9,3.3,1.1,5c0.6,4.9,1,9.9,1.5,14.8
							c0,0.5-0.1,1.1-0.2,1.6c-0.7,3-2.3,5.6-3.9,8.2c-2.1,3.5-5.2,6.1-8.4,8.5c-4.1,3.2-8.8,5-13.9,5.9
							C54.7,90.3,52.3,90.5,50.7,90.7z"/>
					</defs>
					<clipPath id="SVGID_36_">
						<use xlink:href="#SVGID_81_"  overflow="visible"/>
					</clipPath>
					<path clip-path="url(#SVGID_36_)" fill="#D9A08C" d="M45.8,29c-5.7,1-9.7,4.5-14.2,7.8c-2.4,1.7-4.8,3.3-7.2,5
						c-1.9,1.3-5.3,2.7-6.1,5c-1.5,4.8-1.9,8.5-1.7,12.6c-0.3,3.7-0.2,5.5,0.2,9.4c0.6,5.5,7.8,13.2,14.7,17.7
						c0,0-18.4-24.3-3.9-42.1c3.8-1.8,6.8-3.8,8-4.7c6.2-4.3,8.4-8.4,11.1-9C49,30.2,48,28.6,45.8,29z"/>
				</g>
			</g>
			<path fill="#D31876" d="M86.4,58.2c1.3-0.1,2.1,0.5,2.3,1.6c0.2,1.1-0.5,1.9-2.1,2.3C86.6,60.8,86.5,59.5,86.4,58.2z"/>
			<path fill="#D31876" d="M13.3,61.4c0,0.3,0,0.7-0.1,1.1c-0.1,0.3-0.3,0.6-0.5,0.7c-0.7,0.4-1.4,0.1-2-0.4
				c-0.6-0.5-0.9-1.1-0.6-1.9c0.3-0.7,0.7-1.3,1.5-1.4C12.7,59.3,13.4,60,13.3,61.4z"/>
			<path fill="#4B2504" d="M86.1,55.1c-0.2-2.3-0.4-4-0.6-6.3c0.5,0.1,0.9,0.1,1.5,0.2c1,0.1,1.2,0.2,2.1,0.3
				c-1.1-8.5-1.1-7.9-2.2-11.4c-1.5-4.6-4.1-8.5-7.2-12.2c-3.2-3.9-6.7-7.7-11.2-10.3c-4.4-2.5-9-3.9-14-3.4c-1.9,0.2-3.7,0.5-6,2.7
				c-2.6-1.4-5.5-2-8.4-1.9c-3,0.1-6,1.2-8.7,2.6c-2.2,1.2-4.4,2.8-6.3,4.4c-3.1,2.5-6.1,5-8.8,7.9c-3.7,3.9-4.7,8.7-4.8,13.9
				c0,1.6,0,3.2,0,4.8c0,1.2,0,2.5,0,3.7c0.5,0.1,1.2,0.1,1.7,0.2c0-0.8,0.1-1.6,0.1-2.5c10.3-3.3,14.2-5.4,20.4-9.4
				c3.3-2.1,6.5-4.7,9.4-7.4c1.3-1.2,2.5-1.6,4.2-1.5c0.4,0,0.8,0.1,1.1,0c2.2-0.6,4,0.1,5.8,1.4c1,0.8,2,1.6,3,2.5
				c3.6,3.1,7.4,5.6,11.7,7.6c5.2,2.5,13.8,4.2,12.3,4.1c0.3,1.5,0.7,2.9,0.9,4.3c0.4,2.8,0.7,5.8,1,8.6c0.3,3.4,0.7,6.8,1,10.2
				c0.7,0,1.6,0,2.4,0C86.5,63.9,86.4,59.5,86.1,55.1z"/>
			<path fill="#1D1E1C" d="M89.7,50c-0.2-0.2-0.4-0.6-0.4-0.9c-0.2-1.3-0.3-2.6-0.5-3.9c-0.5-3.3-1.2-6.6-2.6-9.7
				c-4-8.4-9.7-15.3-17.7-20.2c-3.7-2.3-7.8-3.6-12.2-3.5c-3,0.1-5.7,0.5-8,2.5c-3.4-1.7-7-1.9-10.7-1.3c-2.9,0.5-5.4,1.8-7.9,3.2
				c-4.1,2.4-7.5,5.6-11,8.7c-0.9,0.8-1.7,1.7-2.6,2.6c-3,3.1-4.6,6.9-4.9,11.2c-0.2,3.3-0.1,6.7-0.2,10c0,0.5,0,1,0,1.5
				c-3.5,1.3-4.7,5.6-3.6,8.4c0.5,1.4,1.4,2.6,2.4,3.8c0.9,1,1.8,1.7,3.2,1.1c0,0.4,0,0.7,0,1c-0.2,1.9-0.5,3.8-0.8,5.7
				c0.2,0,0.3,0,0.5,0c0-0.2,0.1-0.4,0.1-0.6c0.3-2.5,0.8-5.1,0.8-7.7c0.1-4-0.1-7.9-0.1-11.9c0-0.7,0-1.4,0-2.1
				c1.8-0.5,3.7-1.1,5.6-1.6c0,0.6,0.1,1.2,0,1.8c-0.4,3.4-0.7,6.8-1.1,10.3c-0.5,3.7-1.1,7.3-1.7,11c-0.1,0.4-0.2,0.9-0.3,1.3
				c0.2,0,0.3,0,0.6,0c0-0.1,0.1-0.3,0.1-0.4c0-0.2,0.2-0.4,0.3-0.8c0.2,0.4,0.3,0.7,0.4,0.9c1.8,4.4,4.1,8.3,7.6,11.5
				c4.7,4.4,10.1,7.3,16.3,8.7c4,0.9,8,1.2,12,0.7c4.2-0.4,8.3-1.3,12-3.1c6.4-3.1,11.9-7.4,15.4-13.7c0.1-0.2,1.1-1.9,1.2-2.2
				c0.5-1.3,1.1-2.7,1.8-4.2c0,0.3,0,0.5,0.1,0.8c0.2,0,0.3,0,0.5,0c-0.2-3.6-0.6-7.2-1-10.8c-0.3-2.8-0.6-5.6-1-8.4
				c-0.2-1.4-0.6-2.9-1-4.3c1.5,0.2,2.9,0.4,4.5,0c-0.2,0-0.4-0.1-0.5-0.1c-5.7-0.4-11.2-1.7-16.4-4.1c-4.3-2-8.2-4.5-11.8-7.6
				c-1-0.8-1.9-1.7-2.9-2.5c-1.7-1.3-3.6-2-5.8-1.4c-0.3,0.1-0.8,0-1.1,0c-1.7-0.1-3.2,0.4-4.5,1.5c-2.9,2.7-6,5.1-9.3,7.3
				c-6.2,4-12.8,7.2-19.9,9.4c-0.1,0-0.3,0.1-0.5,0.1v2.5c-0.5,0-0.9-0.1-1.4-0.1c0-1.2,0-2.4,0-3.6c0-1.6,0-3.1,0-4.7
				c0.1-5.2,1.3-10,5-14c2.7-2.9,5.6-5.5,8.7-8c2-1.6,4-3,6.2-4.2c2.7-1.4,5.5-2.4,8.5-2.5c2.9-0.1,5.7,0.2,8.4,1.6
				c0.2-0.2,0.4-0.3,0.7-0.5c1.6-1.2,3.3-1.7,5.3-1.9c5.1-0.5,9.7,0.8,14.1,3.3c4.5,2.5,8,6.1,11.3,10.1c3.1,3.7,5.5,7.8,7,12.3
				c1.1,3.5,1.8,7,2.1,10.7c0,0.1,0,0.1-0.1,0.2c-0.9-0.1-1.9-0.2-2.9-0.3c-0.1-0.6-0.2-1.3-0.3-2c-0.1,0-0.2,0-0.3,0
				c0,0.5,0,1,0.1,1.6c0.2,2.3,0.5,4.5,0.7,6.8c0.3,4.4,0.4,8.7,0.3,13.1c0.2,0,0.3,0,0.5,0c0-1.4,0.1-2.8,0.1-4.3c0-0.5,0-1,0-1.6
				c1.1-0.2,1.7-0.7,2.3-1.5c0.2-0.3,0.5-0.5,0.7-0.8C92.2,57.1,92.7,53.2,89.7,50z M19.7,46.9c0-0.7,0.2-1,0.9-1.3
				c3.8-1.6,7.4-3.4,10.9-5.5c4-2.4,7.8-5.2,11.2-8.4c1.4-1.3,3-2.1,5-1.7c0.2,0,0.4,0,0.5,0c1.5-0.5,3-0.2,4.4,0.5
				c1.1,0.6,2.2,1.5,3.2,2.3c1.4,1.1,2.6,2.3,4,3.4c5.9,4.4,12.5,7.5,19.8,8.8c0.7,0.1,1.1,0.4,1.3,1.1c0.4,1.7,0.9,3.3,1.1,5
				c0.6,4.9,1,9.9,1.5,14.8c0,0.5-0.1,1.1-0.2,1.6c-0.7,3-2.3,5.6-3.9,8.2c-2.1,3.5-5.2,6.1-8.4,8.5c-4.1,3.2-8.8,5-13.9,5.9
				c-4,0.7-9.8,1.3-17.2-0.5c-7-1.7-12.6-5.6-17.2-10.9c-2.5-2.8-4.1-6.3-5.4-9.8c-0.2-0.4-0.1-1-0.1-1.4c0.8-5.7,1.5-11.3,2.3-17
				C19.7,49.1,19.7,48,19.7,46.9z M13.1,62.5c-0.1,0.2-0.3,0.5-0.5,0.6c-0.7,0.4-1.3,0.1-1.9-0.4c-0.6-0.5-0.8-1.1-0.5-1.8
				c0.2-0.7,0.7-1.2,1.4-1.3c1.1-0.2,1.7,0.5,1.6,1.8C13.2,61.7,13.2,62.1,13.1,62.5z M13.1,51v8.5c-0.4-0.1-0.9-0.1-1.4-0.3
				c-1-0.4-1.5-1.3-1.7-2.2c-0.2-1,0-2,0.6-2.8c0.2-0.2,0.3-0.5,0.5-0.8c-2.2,1-2.2,4.5-0.2,6c-0.9,0.4-1.5,1.4-1.5,2.1
				c-2.8-3-2.6-7.2-0.2-9.7C10.5,50.7,11.8,50.4,13.1,51z M86.8,61.9c-0.1-1.2-0.1-2.4-0.2-3.5c1.2-0.1,1.9,0.5,2.1,1.5
				C88.8,60.9,88.2,61.6,86.8,61.9z M89.2,59.9c-0.1-1-0.6-1.7-1.6-1.9c1.2-0.9,1.9-2.5,1.6-4.1c-0.2-1-0.8-1.8-1.9-2.3
				c0.4,0.5,0.7,0.9,0.9,1.3c0.9,1.5,0.7,3.3-0.6,4.4c-0.2,0.2-0.6,0.3-1,0.5c-0.3-2.9-0.5-5.7-0.8-8.5c1.2-0.5,2.1-0.2,2.9,0.4
				c2,1.5,2.9,4.1,2.3,6.5C90.7,57.9,90,59.3,89.2,59.9z"/>
			<path fill="#1D1E1C" d="M78.1,41.6c-4.6-1-8.8-2.8-12.5-5.8c1,0.6,1.9,1.2,2.9,1.7c1,0.5,2.1,1.1,3.1,1.5c1,0.5,2.1,0.9,3.1,1.3
				C75.9,40.8,77,41.2,78.1,41.6z"/>
			<path fill="#1D1E1C" d="M29.6,36.1c3.3-3.1,6.3-6.6,10.9-8c-2,1.3-3.9,2.4-5.7,3.8c-1.8,1.4-3.4,2.9-5,4.4
				C29.7,36.2,29.7,36.1,29.6,36.1z"/>
			<path fill="#1D1E1C" d="M31.9,18.8c-4,2.3-7.1,5.6-10.3,9C22.7,25.1,28.9,19.8,31.9,18.8z"/>
			<path opacity="0.3" fill="#FFFFFF" d="M81.8,67.8c-3.6,6.5-7.7,11.7-13.7,16.1c-0.7,0.5-0.1,1.6,0.7,1.1
				c6.1-3.7,11.5-10.2,13.3-17.2C82.1,67.8,81.9,67.7,81.8,67.8z"/>
			<path opacity="0.3" fill="#FFFFFF" d="M89.6,51c-0.2-0.6-1.1-1-1.6-1.3c-0.4-0.2-1-0.6-1.4-0.4c-0.3,0.1-0.1,0.5,0.1,0.5
				c0.1,0,0.3,0.3,0.4,0.3c0.2,0.2,0.5,0.4,0.7,0.6c0.4,0.3,0.7,0.8,1.2,1C89.5,51.9,89.8,51.3,89.6,51z"/>
			<path opacity="0.3" fill="#FFFFFF" d="M12,51c-1-0.8-2.2,0.6-2.9,1.2c-0.1,0,0,0.1,0.1,0.1c0.6-0.5,1.7-1.2,2.5-0.8
				C12.1,51.8,12.3,51.3,12,51z"/>
			<path opacity="0.3" fill="#FFFFFF" d="M52.4,58.1c-0.1,0-0.3,0-0.4,0c-0.1,0-0.2,0.1-0.4,0.1c-0.1,0,0,0.1,0,0.1
				c0.2,0,0.4,0.2,0.5,0.3c0.1,0.1,0.2,0.3,0.4,0.4c0.2,0.1,0.5,0,0.5-0.3C52.9,58.4,52.7,58.2,52.4,58.1z"/>
			<g>
				<path fill="#D38E82" d="M30.4,59.3c-4.7,0.3-5.8,1.2-6.2,2.4c-0.3,2.8,2.5,3.7,6,3.6c2.2-0.1,7-0.5,7.2-3.3
					C37.5,59.6,34.5,59.3,30.4,59.3z"/>
				<path fill="#D38E82" d="M78,57.9c-2.2-0.9-4.5-1-7-0.6c-1,0.3-2.3,0.9-3.1,1.5c-0.5,0.4-0.6,1.6-0.2,2.2c1.3,1.7,4,2.1,5.6,2.1
					c1.7,0,4.5-0.1,5.9-2.1C79.5,60.5,79.6,58.6,78,57.9z"/>
			</g>
			<path fill="#1D1E1C" d="M52.2,61.7c0.1-0.4,0.2-0.6,0.2-0.8c0.2-0.3,0.4-0.6,0.5-0.9c0.5-1.1,0.1-1.9-1-2.2
				c-0.2,0-0.4-0.1-0.6-0.1c0.2-0.5,0.5-0.5,0.9-0.5c0.8,0.1,1.5,0.9,1.6,1.8C54,60.1,53.4,61.1,52.2,61.7z"/>
			<g id="ojos_abiertos_2_">
				<path fill="#1D1E1C" d="M67,58.6c-1.6,0-2.6-1-2.6-2.6c0-1.7,1.3-2.9,3-2.9c1.7,0,2.8,1.3,2.8,3C70.2,57.6,68.9,58.6,67,58.6z
					 M68.5,56.1c0.6,0,1-0.4,1-1c0-0.6-0.6-1.3-1.2-1.3c-0.6,0-1,0.4-1.1,0.9C67.2,55.4,67.7,56,68.5,56.1z"/>
				<path fill="#1D1E1C" d="M34.2,59.3c-1.6,0-2.5-1-2.6-2.6c-0.1-1.7,1.7-3,2.9-2.9c1.7,0.1,2.8,1.2,2.8,3
					C37.4,58.3,36.1,59.3,34.2,59.3z M36.6,55.8c0-0.7-0.5-1.3-1.1-1.4c-0.6,0-1.1,0.4-1.1,1c0,0.7,0.6,1.3,1.3,1.3
					C36.3,56.7,36.6,56.4,36.6,55.8z"/>
				<path fill="#FFFFFF" d="M68.5,56.1c-0.7,0-1.3-0.6-1.2-1.3c0-0.6,0.5-1,1.1-0.9c0.6,0,1.2,0.7,1.2,1.3
					C69.5,55.7,69.1,56.1,68.5,56.1z"/>
				<path fill="#FFFFFF" d="M36.6,55.8c0,0.6-0.3,0.9-0.9,0.9c-0.7,0-1.3-0.6-1.3-1.3c0-0.6,0.5-1.1,1.1-1
					C36.1,54.5,36.6,55.2,36.6,55.8z"/>
			</g>
			<g id="cejas_3_">
				<path fill="#1D1E1C" d="M71,47.8c-1.3-0.7-4.3-2.3-4.4-2.4C66,45,66.1,44.3,67,44.6c0.2,0.1,3.2,1.6,4.4,2.3
					C72.4,47.5,72,48.2,71,47.8z"/>
				<path fill="#1D1E1C" d="M32.3,46.6c-1.3,0.7-2.7,1.5-4.1,2.2C28.1,48.9,28,49,27.8,49c-0.2,0-0.4-0.1-0.5-0.2
					c-0.1-0.1-0.1-0.4,0-0.5c0.1-0.2,0.3-0.3,0.5-0.4c1.3-0.7,2.6-1.4,3.9-2.1C32.8,45.3,33.2,46,32.3,46.6z"/>
			</g>
			<g>
				<path fill="#A03C51" d="M53.5,83.8c-4.5,0.5-9.2-0.3-13.4-2.2c-4.7-2.2-5.7-6.7-7-11.2c0,0,0,0,0.1,0
					c11.3,0.7,23.4-0.2,34.3-3.5C70.3,76.6,62.3,82.8,53.5,83.8z"/>
				<g>
					<path fill="#CA6372" d="M62.8,80.1c-1.8-3.8-8.5-5.7-12.3-5.9c-4.6-0.3-11.2,0.2-14.3,4.2c0,0,2.9,4.7,13.4,5.6
						C58,84.7,62.8,80.3,62.8,80.1z"/>
				</g>
				<g>
					<path fill="#1D1E1C" d="M33.2,70.4c11.3,0.7,23.5-0.2,34.4-3.6c0.3-0.1,0.2-0.5-0.1-0.4c-4.9,1.2-9.7,2.3-14.7,2.9
						c-6.5,0.7-13,0.4-19.5,0.9C33,70.2,33,70.4,33.2,70.4L33.2,70.4z"/>
				</g>
				<g>
					<path fill="#1D1E1C" d="M32.9,70.4c0.9,4.5,2.1,8.4,6,11c4.6,3.1,11,3.3,16.2,2.7c8.6-1,15.7-8.6,13-17.5
						c-0.1-0.4-0.8-0.2-0.6,0.2c2.9,9.7-5.1,16-14,17c-4.5,0.5-9.2-0.3-13.4-2.2c-4.7-2.2-5.7-6.7-7-11.2
						C33.1,70.2,32.8,70.3,32.9,70.4L32.9,70.4z"/>
				</g>
				<g>
					<path fill="#1D1E1C" d="M36.3,78.6c6.7-5,20.7-6,26.1,1.8c0.2,0.2,0.5,0,0.4-0.2c-1.8-3.8-8.5-5.7-12.3-5.9
						c-4.6-0.3-11.2,0.2-14.3,4.2C36.1,78.5,36.2,78.7,36.3,78.6L36.3,78.6z"/>
				</g>
			</g>
		</g>
	</g>
</g>
<g id="globo">
</g>
</svg>
