<?xml version="1.0" encoding="utf-8"?>
<!-- Generator: Adobe Illustrator 17.0.0, SVG Export Plug-In . SVG Version: 6.00 Build 0)  -->
<!DOCTYPE svg PUBLIC "-//W3C//DTD SVG 1.1//EN" "http://www.w3.org/Graphics/SVG/1.1/DTD/svg11.dtd">
<svg version="1.1" xmlns="http://www.w3.org/2000/svg" xmlns:xlink="http://www.w3.org/1999/xlink" x="0px" y="0px" width="100px"
	 height="100px" viewBox="0 0 100 100" enable-background="new 0 0 100 100" xml:space="preserve">
<g id="capa1">
</g>
<g id="personajes">
	<g>
		<defs>
			<rect id="SVGID_23_" x="0" y="0" width="100" height="100"/>
		</defs>
		<use xlink:href="#SVGID_23_"  overflow="visible" fill="#5B6AB0"/>
		<clipPath id="SVGID_2_">
			<use xlink:href="#SVGID_23_"  overflow="visible"/>
		</clipPath>
		<g clip-path="url(#SVGID_2_)">
			<g id="Brazp_Izq._Normal">
				<path fill="#A2704D" d="M96,139.1c-0.4-1.3-0.9-2.6-1.4-3.9c-0.1,0,0.1,0,0,0.1c0,0.2,0.1,0.3,0.1,0.5c0.4,1.4,1,2.6,1.4,4
					c0.2,0.3,0.5,0.7,0.6,1c-0.4,0.8-1.7,1.2-2.4,0.4c-0.5-0.4-1-1.1-1.3-1.6c-1-1.5-2-3-3-4.6c-0.8-1.3-1.5-1.5-2.8-0.6
					c-0.5,0.4-1,1-1.5,1.4c-0.8,0.6-1.6,0.4-2-0.4c0.5-1.3,1-2.5,1.5-3.8c0.5-1.3,0.8-2.3,1.3-3.6c-0.1-0.1-0.4-0.5-0.6-0.7
					c-4.3-5.4-9.3-9.5-15.3-12.8c-1.7-1-3.4-2.1-5-3.2c-2.2-1.6-3.4-3.7-3.2-6.5c0.3-3.6,4-6.4,7.4-5.7c1.7,0.3,3.2,1,4.7,1.9
					c3.3,2,6.2,4.7,8.7,7.6c3.9,4.5,6.9,9.7,9.1,15.2c1.2,3,1.8,6.1,2.5,9.2c0.4,1.7,0.9,3.1,1.3,4.9c0.1,0.3,0,0.9,0.1,1.1
					C96.3,139.1,96.1,139.1,96,139.1z"/>
				<path fill="#1D1D1B" d="M86.3,128.2c-0.8-1-1.7-2-2.6-3c-4.1-4.3-8.7-8-13.9-10.8c-1.6-0.8-3.1-1.8-4.5-2.9
					c-1.9-1.4-3-3.4-3-5.9c-0.1-4.2,3.9-7.6,8-6.8c2.1,0.4,4.1,1.2,5.9,2.4c6.1,4.2,10.5,9.7,14,16.1c3,5.4,4.6,11.2,5.9,17.1
					c0.4,1.9,0.8,3.7,1.1,5.6c0.3,1.2-0.4,2-1.6,1.8c-0.7-0.1-1.3-0.3-2.1-0.2c-0.6,0.1-1.2-0.5-1.5-1.1c-0.4-1-0.9-2-1.1-3
					c-0.2-0.9-0.7-1.7-1.2-2.5c-0.5-0.7-1.1-0.8-1.8-0.4c-0.4,0.2-0.7,0.6-1,0.9c-0.5,0.5-1.1,0.9-1.8,1c-1.2,0-1.7-0.9-1.2-1.8
					c0.7-1.3,1.2-2.8,1.8-4.2C85.7,129.8,85.9,129.1,86.3,128.2z M96,139c0.1,0,0.1,0,0.2,0c0-0.3-0.1-0.5-0.1-0.8
					c-0.4-1.7-0.7-3.4-1.1-5.1c-0.7-3.1-1.3-6.2-2.5-9.2c-2.2-5.6-5.2-10.7-9.1-15.2c-2.6-3-5.4-5.6-8.7-7.6
					c-1.4-0.9-2.9-1.5-4.6-1.8c-3.4-0.6-6.7,1.6-7.2,5.1c-0.5,2.9,0.6,5.2,2.9,6.8c1.6,1.2,3.3,2.2,5,3.1
					c6.1,3.3,11.2,7.7,15.6,13.1c0.2,0.2,0.5,0.3,0.6,0.4c-0.5,1.3-1,2.6-1.5,3.9c-0.5,1.3-1.1,2.5-1.6,3.8c0.8,0.6,1.3,0.6,2,0
					c0.5-0.4,0.9-0.9,1.4-1.3c1.2-1,2.1-0.7,2.9,0.6c0.9,1.6,1.9,3.1,2.9,4.6c0.3,0.5,0.7,1,1.2,1.4c0.4,0.4,0.8,0.5,1.2,0.4
					c0.3,0,0.9-0.3,0.8-0.6c0-0.1-0.5-0.9-0.5-1.1c-0.5-1.4-1-2.4-1.4-3.8c-0.1-0.2,0-0.4,0-0.6c0.1,0,0.2,0,0.3-0.1
					C95.2,136.5,95.6,137.7,96,139z M93.8,141.2c-0.5-0.6-0.8-1-1.2-1.4c-0.3-0.4-0.6-0.9-0.9-1.3C92,140.3,92.5,140.9,93.8,141.2z"
					/>
			</g>
			<g id="Brazo_Der._Normal_2_">
				<path fill="#A2704D" d="M15.7,128.1c0.4,1,0.6,1.7,1,2.7c0.6,1.4,1.2,2.8,1.7,4.2c0.1,0.3,0.2,0.9,0,1c-0.2,0.2-0.9,0.4-1.1,0.3
					c-0.5-0.1-0.9-0.5-1.3-0.8c-0.4-0.3-0.8-0.7-1.2-1c-1.2-0.9-1.7-0.7-2.5,0.7c-0.9,1.5-1.9,3.1-2.8,4.6c-0.3,0.5-0.7,1.1-1.2,1.5
					c-0.4,0.3-1.3,0.3-2.1,0.1c-0.3-0.1-0.6-0.4-0.4-0.9c0.3-0.8,0.9-1.4,1.1-2.2c0.3-0.9,0.8-1.5,0.8-2.5c-0.7,1.6-1,2.7-1.8,3.9
					c0.3-1.5,0.6-3.4,0.9-4.9c0.6-2.6,1.2-5.4,1.9-8c1-3.6,2.6-6.8,4.4-10c2.2-4.1,5.4-7.7,8.6-11c2.5-2.5,5.3-4.8,8.6-6
					c0.8-0.3,1.6-0.4,2.4-0.5c2.8-0.4,4.9,1.1,6.2,3.4c1.3,2.3,1.1,4.6-0.3,6.8c-0.9,1.4-2.4,2.4-3.7,3.2c-1.7,1-3.4,1.9-5.1,2.9
					c-5.4,3.2-9.7,7.1-13.6,12C16.1,127.8,15.9,128,15.7,128.1z"/>
				<path fill="#1D1D1B" d="M16.1,128.4c0.4,1.1,0.7,2.1,1.1,3c0.4,1.1,0.9,2.2,1.4,3.3c0.2,0.5,0.5,1,0,1.5
					c-0.4,0.4-1.1,0.6-1.7,0.3c-0.5-0.3-1-0.7-1.4-1c-0.3-0.2-0.5-0.5-0.8-0.7c-0.7-0.5-1.5-0.3-1.9,0.3c-0.5,0.8-1,1.6-1.2,2.6
					c-0.2,1-0.6,1.9-1.1,2.8c-0.5,1.1-1,1.2-2.2,1c-0.2,0-0.4,0.1-0.7,0.1c-0.5,0-1.1,0.2-1.6,0.1c-0.7-0.1-1-0.7-0.9-1.4
					c0.8-3.8,1.6-7.6,2.5-11.3c1.4-5.6,3.7-10.9,7-15.7c3.2-4.8,7-9.1,11.9-12.3c1.9-1.3,4-2.1,6.3-2.2c4.1-0.3,7.3,3.3,7.3,6.7
					c0,2.5-1,4.5-3,6c-1.4,1-2.8,2-4.3,2.8c-5.7,3-10.7,7-15,11.8C17.3,126.9,16.7,127.7,16.1,128.4z M15.4,128
					c0.2-0.1,0.4-0.2,0.6-0.4c3.9-4.9,8.6-9,13.9-12.2c1.7-1,3.4-1.9,5-2.9c1.4-0.8,2.7-1.8,3.5-3.1c1.4-2.2,1.7-4.5,0.4-6.7
					c-1.3-2.3-3.4-3.6-6.2-3.3c-0.8,0.1-1.6,0.3-2.4,0.5c-3.4,1.2-6.1,3.4-8.6,5.9c-3.3,3.3-6.2,6.8-8.4,10.9
					c-1.8,3.2-3.4,6.5-4.4,10.1c-0.7,2.6-1.3,5.3-1.9,7.9c-0.4,1.5-0.7,3.1-1,4.6c0.8-1.3,0.9-2.8,1.7-4c0,1-0.3,1.9-0.6,2.9
					c-0.2,0.8-1.1,1.7-1.4,2.6c-0.1,0.3,0.9,0.6,1.3,0.6c0.9,0,1.2-0.5,1.7-1.3c0.2-0.3,0.5-0.7,0.7-1c0.9-1.4,1.8-2.8,2.6-4.2
					c0.7-1.2,1.7-1.4,2.8-0.5c0.4,0.3,0.7,0.7,1.1,1c0.4,0.3,0.8,0.6,1.3,0.8c0.3,0.1,0.7-0.1,0.9-0.3c0.1-0.1,0-0.6-0.1-0.8
					c-0.6-1.4-1.2-2.8-1.7-4.2C16.2,130,15.8,129,15.4,128z M8.7,141.2c1.1,0,1.8-0.8,2.2-2.9C10.1,139.4,9.4,140.3,8.7,141.2z"/>
			</g>
			<g>
				<path fill="#A2704D" d="M57.7,94.7c-2.6,0.9-5.5,1.2-8.1,0.9c-1.6-0.2-3.2-0.5-4.7-0.9c-0.6-0.1-0.8-0.7-0.8-1.4
					c0-1.5-0.1-3-0.2-4.6c0-0.7,0.6-1.2,1.1-1.4c1.1-0.4,2.2-0.8,3.4-1.1c2.2-0.4,4.5-0.3,6.7,0.2c0.3,0.1,0.8,0.3,1.2,0.4
					c1.1,0.3,1.5,1,1.5,2C57.8,90.8,57.7,92.8,57.7,94.7z"/>
				<path fill="#5DACBD" d="M74.1,129.7c-1-4.1-2.1-8.3-2.6-12.5c-0.1-0.8-0.4-1.4-1-2c-1.2-1.2-1.9-2.7-2.4-4.3
					c-0.7-2.2-0.9-4.4-0.8-6.7c0.1-1.9,0.4-3.7,1.1-5.6c-2.1-0.5-5.7-1.3-8-1.8c-0.5-0.7-1.1-1.5-1.5-2.1
					c-3.2,1.9-11.1,2.4-15.7-0.3c-0.4,0.6-1.4,1.5-2.1,2.2c-2.2,0.5-5.9,1.6-7.5,1.9c0,0.2,0,0.3,0,0.4c0.9,2.8,1.1,5.7,0.9,8.6
					c-0.2,2.7-0.9,5.3-2.7,7.3c-1.2,1.3-1.6,2.7-1.7,4.3c0,0.2-0.1,0.5-0.1,0.7c-0.8,3.7-1.7,7.3-2.5,11c-0.2,0.9-0.4,1.9-0.7,2.9
					c16.2,5.7,32.1,5.9,47.9-1.1C74.5,131.6,74.3,130.6,74.1,129.7z"/>
				<path fill="#57A1AD" d="M52.2,138c-0.4-0.2-14.3-7.3-15.2-18.1c-0.8-4-0.7-14.2-0.7-15.1c-0.1-1.3-0.4-2.5-0.6-3.8
					c-0.2-1.1-0.1-2.3,2.5-3.7c0.1-0.1,0.1-0.2,0-0.2c-1.3,0.1-5,1.2-5,1.2s0.5,1.8,0.6,2.4c0.3,1.6,0.6,3.3,0.6,4.9
					c-0.1,3-0.5,6.2-2.5,8.8c-0.7,0.9-1,1.5-1.4,2.6c-0.5,1.5-0.7,3.4-0.9,4.9c-0.5,3.2-1.4,6.3-2.3,9.4c-0.4,1.2-0.6,2.4-0.6,2.4
					s1.1,0.7,2.3,1.1c7.5,2.3,10.7,2.7,17.5,3.4C47,138.2,52.7,138.2,52.2,138z"/>
				<path fill="#8C5D3C" d="M43.8,94.2c-0.1-2.1-0.1-4.1,0.2-6.1c0.4-0.3,0.8-0.6,1.3-0.9c2-1.2,5.5-1.3,6.8-1.3
					c1.5,0.2,1.3,1.7-0.5,1.9c-2,0.2-4.5,1.3-5.2,3.7c-0.5,1.7,2.3,4.2,5,4.2c-1.2-0.1-3.1-0.1-4.8-0.5C45.5,95,44.6,94.6,43.8,94.2
					z"/>
				<path fill="#1D1D1B" d="M28.7,135c14.2,4.6,28.3,4.9,42.5-0.3c0.2-0.1,0.4-0.2,0.6-0.3c1.2-0.5,2.3-1,3.5-1.5
					c-0.2-0.9-0.4-1.6-0.6-2.4c-1.2-4.3-2.3-8.7-2.9-13.2c-0.1-1.2-0.6-2.1-1.3-3c-1.2-1.3-1.8-2.9-2.2-4.6
					c-0.7-2.8-0.7-5.6-0.1-8.4c0.2-1,0.5-2,0.7-3c-0.1-0.1-0.2-0.2-0.3-0.2c-2.2-0.5-4.4-1-6.6-1.5c-0.9-0.2-1.6-0.4-2-1.3
					c-0.3-0.7-0.7-1.3-1.8-1.4c0-1.7,0-3.3,0-4.9c0-1.1-0.5-2-1.6-2.5c-2-0.9-4-1-6.1-1c-1.9,0-3.8,0.4-5.5,1.2
					c-1.2,0.6-1.8,1.4-1.7,2.8c0.1,1.3,0,2.6,0,3.9c-0.2,0.2-0.5,0.3-0.6,0.5c-0.4,0.5-0.8,1-1.1,1.6c-0.3,0.5-0.7,0.7-1.3,0.8
					c-2.5,0.5-4.9,1.1-7.4,1.6c0.1,0.4,0.2,0.7,0.2,0.9c0.7,2.3,1,4.7,0.9,7.1c-0.1,3-0.6,5.9-2.5,8.2c-1.2,1.4-1.7,2.9-1.8,4.6
					c0,0.3-0.1,0.7-0.2,1c-0.7,3.9-1.7,7.8-2.8,11.6c-0.2,0.8-0.4,1.5-0.6,2.4c0.8,0.3,1.4,0.6,2.2,0.9
					C28.5,134.9,28.5,134.9,28.7,135z M45,87.5c1.1-0.4,2.2-0.9,3.4-1.1c2.2-0.4,4.5-0.3,6.7,0.3c0.3,0.1,0.7,0.2,1,0.3
					c1.1,0.3,1.5,1,1.5,2c0,1.8,0,3.6,0,5.6c-2.6,0.9-5.2,1.2-7.9,0.9c-1.6-0.2-3.1-0.6-4.7-0.9c-0.6-0.1-0.9-0.5-0.9-1.1
					c0-1.5-0.1-3.1-0.2-4.6C44,88.1,44.5,87.7,45,87.5z M43.2,94.4c4.6,2.7,12.5,2.2,15.7,0.3c0.5,0.8,1,1.5,1.5,2.3
					c-4.1,2.2-8.2,2.8-12.7,2.1c-1.6-0.3-3.2-0.6-4.6-1.5c-0.4-0.3-0.9-0.6-1.3-1C42.3,95.8,42.7,95.1,43.2,94.4z M42.3,97.7
					c0.8,0.9,2,1.2,3.1,1.4c2.7,0.6,5.5,0.6,8.2,0.4c1.3-0.1,2.7-0.3,4-0.7c1.1-0.3,2.2-1,3.2-1.5c0.5,2.5-3.9,12.8-7.2,16.6
					c-2.7-1.8-4.2-1.9-7.1-0.2c-3.5-5-5.9-10.4-6.9-16.4C40.7,96.9,41.5,96.8,42.3,97.7z M51.5,117.9c0.7-0.1,1.2-0.6,1.2-1.2
					c0.1-0.7-0.1-1.3-0.8-1.7c-1.2-0.8-3.3-0.4-3.9,1.2c-0.8,2.1,0.4,4.7,2.9,4.9c-0.7,0.9-1.8,1.5-3.5,1.8
					c-0.6-1.4-1.4-2.9-1.8-4.4c-0.6-2,0.4-4,2.2-5.1c1.2-0.8,2.5-0.7,3.8-0.2c1.4,0.5,2.4,1.6,2.9,3c0.7,1.6-0.1,3.3-1.8,4
					c-0.4,0.2-0.8,0.3-1.2,0.4c-1.2,0.3-2.2-0.2-2.9-1.3c-0.6-1.1-0.6-2.7,0.1-3.5c0.6-0.7,2.1-0.9,2.9-0.4c0.5,0.3,0.7,1.1,0.5,1.7
					c-0.3,0.5-0.9,0.7-1.5,0.4c-0.2-0.1-0.3-0.2-0.6-0.4C50.4,117.9,50.9,118,51.5,117.9z M26.8,133.8c0.2-1.1,0.5-2,0.7-2.9
					c0.8-3.7,1.7-7.3,2.5-11c0.1-0.2,0.1-0.5,0.1-0.7c0.1-1.6,0.6-3,1.7-4.3c1.8-2,2.5-4.6,2.7-7.3c0.2-2.9,0-5.8-0.9-8.6
					c0-0.1,0-0.2,0-0.4c1.8-0.4,3.5-0.8,5.4-1.3c1.3,6.2,3.4,11.9,7.1,17c-0.7,1-1.2,2.1-1.1,3.4c0,1.1,0.3,2.1,0.8,3
					c0.4,0.9,0.9,1.7,1.4,2.7c0.3,0,0.7,0,1-0.1c1.3-0.4,2.5-1,3.5-2c0.3-0.3,0.6-0.5,0.9-0.6c2.4-0.6,3.6-3.7,1.7-5.8
					c-0.2-0.2-0.3-0.4-0.5-0.6c3.9-5,6.3-10.8,7.7-17.2c2.3,0.5,4.5,1,6.8,1.5c-0.6,1.9-1,3.7-1.1,5.6c-0.1,2.3,0.1,4.5,0.8,6.7
					c0.5,1.6,1.3,3.1,2.4,4.3c0.6,0.6,0.9,1.2,1,2c0.5,4.2,1.6,8.4,2.6,12.5c0.2,0.9,0.4,1.9,0.7,2.9
					C58.9,139.7,43,139.5,26.8,133.8z"/>
			</g>
			<g id="Cabeza_1_">
				<g>
					<path fill="#6B432B" d="M78.9,41c-1.4-0.9-3.1-2.8-4.2-4.5c-2.1-3.2-5-4.5-8.6-5.2c-0.6-0.1-1.3-0.3-1.9-0.3
						c-1.8,0-3.6-0.3-5.2-1.2c-2.4-1.2-4.7-1.4-7.2-0.4c-2,0.8-4.1,0.7-6.2,0.3c-3.7-0.3-6.6,0.2-9.4,2.6c-1.4,1.2-3.2,2.1-5.1,1.9
						c-1.4-0.1-2.1,0.5-2.8,1.8c-0.3,0.6-0.5,1.2-0.7,1.9c-0.9,2.8-3.1,4.9-5.5,6.5c-1.1,1.1-1.6,2.4-1.7,3.9
						c0.3,2.2-0.3,3.5-2.2,4.3c-0.5,0.3-1,0.7-1.4,1.2c-1.2,1.5-2.6,2-4.2,1.4c-1.5-0.5-3.1-2.4-3.1-3.9c0-1,0.6-2.2,1.1-2.9
						c0.8-1.5,0.8-2.2,0.5-4c-0.2-0.4-0.5-1.3-0.6-1.7c-0.1-0.7-0.3-1.6-0.2-2.4c0-0.7,0.5-1.4,1.1-1.8c1.6-1,1.9-2.5,2.1-4.3
						c0.2-1.4,0.2-3.1,0.5-4.5c0.4-1.9,1.2-3.4,2.9-4.7c1.4-1.1,3.2-1.8,4.9-2.1c1.8-0.3,3.5-0.6,5.4-0.6c2.9-0.1,5.8-0.7,8.6-1.5
						c1.8-0.6,3.9-1.1,5.8-1.3c1.9-0.2,4,0.1,5.8,0.6c2.7,0.9,5.2,1,7.9,0.8c1.9-0.2,3.4-0.5,5.3-0.7c1.4-0.2,2.9,0,4.2,0.4
						c1.9,0.5,3.8,0.9,5.8,1c1.9,0,3.7,0,5.6-0.1c3.4-0.2,6.3,1.3,8.1,4.1c2.5,3.9,4,8.2,3.5,12.9c-0.1,1.2-0.3,2.4-0.3,3.6
						c0,1,0.1,1.9,0.5,2.8c1.5,3.1,1.3,6.1-0.5,8.9c-0.6,0.9-1.6,1.7-2.5,2.3c-1.4,0.8-3.4,0.1-3.6-1.1c-0.1-0.4,0-0.9,0.1-1.3
						c0.1-1,0.1-1.9-0.4-2.9c-0.5-0.9-0.6-2-0.1-2.9c0.1-0.3,0.5-0.8,0.6-1c0.9-1.6,0.7-3.3-0.8-4.5c-0.6-0.5-0.4-0.5-1.1-1L78.9,41
						z"/>
					<path opacity="0.2" fill="#FFFFFF" d="M88.5,46.4c-0.3-0.7-0.6-1.3-1-2c-0.4-0.6-1.2-1.4-1.3-2.2c0-0.1-0.1-0.1-0.2,0
						c-0.5,1.2-0.6,1.8,0,3.1c0.9,1.9,1.1,3.4,1.1,5.5c0,1,1.3,1,1.6,0.2C89.2,49.6,89,47.9,88.5,46.4z"/>
					<path opacity="0.2" fill="#FFFFFF" d="M76.3,23.2c-1.2-0.2-2.5,0.1-3.7,0.1c-1.6,0-3.2,0-4.8-0.3c-0.1,0-0.1,0.1,0,0.1
						c2.5,0.8,6,2.1,8.6,0.8C76.7,23.8,76.7,23.3,76.3,23.2z"/>
					<path opacity="0.2" fill="#FFFFFF" d="M84.4,28c-0.5-0.9-2.7-5.5-4.2-3.7c-0.1,0.1,0,0.2,0.1,0.2c1.5-0.3,3.4,6.1,3.8,7.2
						c0.7,2.3,0.5,4.9,1.4,7.1c0.2,0.5,0.9,0.6,1.1,0C87.7,35.6,85.8,30.8,84.4,28z"/>
					<path fill="#A2704D" d="M78.7,40.8c0.5,0.4,1.6,1.1,2.1,1.5c0.8,0.8,1.2,1.6,1,2.9c-0.1,0.6-0.4,1.2-0.7,1.7
						c-0.9,1.4-0.8,2.9-0.2,4.4c0.2,0.5,0.2,1.1,0.2,1.7c0,0.5-0.1,0.6-0.1,1c-0.1,1.8,2.2,3.6,3.7,2.4c0.7-0.6,1.7-1.2,2.3-1.8
						c0.5-0.5,1.6-0.4,2.2-0.2c1.6,0.5,2.8,1.8,3.5,3.3c1.6,3.8-0.1,8.6-4.7,10.1c-1.2,0.4-2.7,0.2-3.9-0.4c0-1.9,0.2-1.6-0.2,0.3
						c-2.1,10-8.5,16.8-17.8,20.7c-3.5,1.5-7.1,2.3-10.9,2.8c-1.8,0.2-3.8,0.5-5.6,0.4c-6.2-0.1-12.2-1.4-17.8-4
						c-3.1-1.4-5.9-3.4-8.3-5.8c-4.2-4.1-6.8-9-8-14.8c-0.3-0.9,0.1,0.3-1.1,0.6c-1.2,0.6-2.9,0.8-4.2,0.4c-2.3-0.8-4.2-2.5-4.8-5
						c-0.6-2.5-0.3-5.2,1.8-7.1c0.6-0.5,1.5-0.9,2.3-1.2c0.8-0.4,1.7-0.4,2.5,0.2c0.9,0.7,1.8,0.6,2.8,0.4c0.7-0.1,1.2-0.3,1.6-0.9
						c0.5-0.8,1.4-1.4,2.2-1.9c0.5-0.3,0.9-0.8,1.3-1.2c0.7-0.6,0.9-1,0.8-1.9c0-0.4,0-1.4,0-1.9c-0.1-1.1,0.3-1.7,1.1-2.5
						c0.6-0.6,1.5-1.4,2.2-1.9c1.5-1.2,2.4-2.2,3.1-4c0.3-0.8,0.9-2.2,1.2-3c0.5-1.4,1.7-2,3.2-1.9c2,0.1,3.3-0.9,4.7-2.1
						c1-0.9,2.3-1.6,3.6-2.1c2-0.8,4-0.7,6-0.3c2.1,0.5,4,0.5,6-0.2c1-0.3,2-0.6,3-0.8c0.7-0.2,1.7,0.1,2.3,0.4
						c2.8,1.3,5.9,1.8,8.9,2.2c3.1,0.5,5.5,1.6,7.6,4c0.5,0.6,1.1,1.5,1.6,2.1C76.2,39,77.2,40.3,78.7,40.8L78.7,40.8z"/>
					<path fill="#8C5D3C" d="M38.3,31.1c-1.6,1.5-2.9,2.5-5.5,3.2c-0.5,0.1-0.7,0-1.4,0.1c-1.2-0.2-2.1,0.3-2.9,1.5
						c-0.1,0.2-1.2,3.4-2.2,5.1c-1,1.5-2.7,2.7-4,3.9c0,0-0.1,0.1-0.1,0.1c-1,0.9-1.7,1.6-1.4,4.7c0,0.6-0.4,1.5-0.6,1.6
						c-1.1,1.2-2.4,1.7-3.9,3.4c-1.4,1-1.9,1-2.4,1c-0.1,0-1.6,0-2.6-0.8c-1.1-0.7-3.3,0-4.3,1.1c-3.4,3.7-1.9,10.4,2.5,12.1
						c3,1.1,5.5,0.3,5.4-1.5c0.3,2.1,1,3.6,1.7,5.4c1.3,3.3,3.1,6.2,5.4,8.9c2.2,2.6,8.7,6.8,8.8,6.8c1.6,0.8,4,1.7,5.8,1.7
						c0.1,0-3.1-1.5-8.5-6.3c-2.6-2.3-4.6-5.3-6.2-8.3c-3.2-6.2-5.7-16.7-2.1-19.3c3.8-2.7,1.7-6.3,4.4-8.7c0.3-0.2,2.8-3.1,3.1-3.6
						c1.6-2.4,1.2-6.1,4.2-7.2c0.1,0,2.8-0.5,3.6-1c1.5-0.8,3-2.3,3.8-3.8C39.3,30.4,38.9,30.6,38.3,31.1z"/>
					<path fill="#B78767" d="M92.1,57.3c-0.6-1.3-3-3.1-4.5-2.2c-0.3,0.2-0.2,0.6,0.1,0.7c0.8,0.3,1.4,0.4,2.1,0.9
						c0.5,0.5,0.9,1.1,1.4,1.5C91.8,58.6,92.4,57.8,92.1,57.3z"/>
					<g>
						<path fill="#1D1D1B" d="M93.7,60c-0.2-3.1-1.9-5.2-4.9-6.1c-0.2,0-0.3-0.1-0.5-0.1c0-0.1,0-0.2,0-0.2c0.1-0.1,0.1-0.3,0.2-0.4
							c1.2-2.3,1.5-4.5,0.3-6.9c-0.9-1.8-1.2-3.8-0.9-5.8c0.1-0.5,0.2-1,0.2-1.5c0.6-3.9-0.4-7.6-2-11.2c-0.7-1.5-1.6-2.9-2.7-4
							c-1.7-1.7-3.8-2.7-6.2-2.6c-1.2,0-2.5,0.2-3.7,0.2c-2.2,0-4.4-0.1-6.6-0.8c-3-1-5.9-1-8.9-0.4c-3.5,0.7-7.1,1.1-10.5-0.3
							c-0.1,0-0.2,0-0.3-0.1c-3.7-1-7.3-0.8-10.8,0.6c-3.4,1.4-6.9,1.9-10.6,1.7c-1.4,0-2.8,0-4.2,0.3c-3.9,0.6-6.7,2.6-7.6,6.7
							c-0.1,0.3-0.2,0.6-0.2,0.9c-0.2,1.4-0.3,2.8-0.5,4.2c-0.1,1.7-0.6,3.3-2.2,4.3c-0.7,0.4-1,1.2-1.1,2c-0.2,1.2,0,2.2,0.5,3.3
							c0.5,1.1,0.8,2.2,0.4,3.4c-0.2,0.7-0.6,1.3-1,1.9c-1.1,1.7-1.1,3,0.1,4.6c0.1,0.1,0.2,0.2,0.3,0.4c-0.3,0.1-0.5,0.2-0.8,0.3
							c-2.5,0.9-4.1,2.6-4.5,5.3c-0.1,0.8-0.1,1.7,0,2.6c0.2,3,2.7,5.8,5.6,6.4c1.6,0.4,3.1-0.1,4.5-0.8c0.1,0.1,0.2,0.2,0.2,0.3
							c0,0.1,0.1,0.2,0.1,0.3c2.4,9.3,8.1,15.9,16.8,19.8c7,3.2,14.4,4.5,22.1,3.6c4.2-0.5,8.3-1.3,12.3-3
							c9.2-3.9,15.3-10.5,17.7-20.3c0.1-0.2,0.2-0.4,0.2-0.6c0.3,0.1,0.5,0.1,0.7,0.2c2.2,0.6,4.1,0.2,5.9-1.3
							C93.2,65,93.9,62.7,93.7,60z M9.7,51.4c0-1,0.5-1.7,1-2.4c1.1-1.5,1.3-3.1,0.6-4.9c-0.2-0.4-0.4-0.8-0.5-1.3
							c-0.1-0.7-0.2-1.5-0.2-2.3c0-0.7,0.4-1.3,1-1.6c1.6-1,2.1-2.5,2.3-4.3c0.2-1.4,0.2-2.9,0.5-4.3c0.4-1.9,1.1-3.7,2.7-5
							c1.4-1.1,3-1.7,4.8-2c1.8-0.3,3.7-0.4,5.6-0.5c2.9-0.1,5.8-0.6,8.6-1.5c1.8-0.6,3.8-1,5.7-1.2c1.9-0.2,3.8,0.1,5.6,0.7
							c2.7,0.9,5.4,0.7,8.1,0.5c1.9-0.2,3.7-0.5,5.5-0.7c1.4-0.2,2.7,0,4,0.4c1.9,0.5,3.8,0.9,5.7,1c1.9,0,3.8,0.1,5.7,0
							c3.4-0.2,6,1.1,7.8,3.9c2.5,3.9,3.9,8.1,3.4,12.8c-0.1,1.2-0.2,2.4-0.2,3.6c0,1,0.2,1.9,0.6,2.8c1.5,3.1,0.9,6-0.8,8.8
							c-0.6,0.9-1.5,1.6-2.4,2.1c-1.4,0.8-2.9-0.2-3.1-1.4c-0.1-0.4-0.1-0.8,0-1.2c0.1-1,0-2-0.5-2.9c-0.5-0.9-0.4-1.9,0.1-2.8
							c0.1-0.3,0.3-0.5,0.5-0.8c0.9-1.6,0.7-3.5-0.8-4.7c-0.4-0.3-0.8-0.6-1.3-0.9C79.2,41.1,79,41,78.9,41
							c-0.5-0.3-0.6-0.5-0.9-0.7c-1.2-1.1-2.2-2.4-3.2-3.8c-2.1-3.2-5.2-4.7-8.9-5.4c-0.6-0.1-1.2-0.2-1.8-0.2
							c-1.8,0-3.6-0.4-5.1-1.3c-2.4-1.2-4.8-1.4-7.3-0.4c-2,0.8-4,0.8-6.1,0.4c-3.7-0.7-6.9,0.2-9.7,2.7c-1.4,1.2-2.8,2-4.7,1.8
							c-1.4-0.1-2.5,0.6-3.1,1.8c-0.3,0.6-0.6,1.3-0.8,1.9c-0.9,2.8-2.7,4.8-5.1,6.5c-1.4,1-2.2,2.4-1.9,4.1c0.4,2-0.5,3.2-2.2,4.1
							c-0.5,0.3-1,0.8-1.4,1.2c-1.2,1.5-2.6,1.9-4.2,1.3C11.1,54.6,9.8,52.9,9.7,51.4z M88.1,67.5c-1.2,0.4-2.4,0.3-3.6-0.3
							c0-1.9,0.4-3.8,0-5.9c-0.3,2.2-0.5,4.2-1,6.1c-2.1,10-8,16.8-17.3,20.7c-3.5,1.5-7.1,2.3-10.9,2.8c-1.8,0.2-3.6,0.5-5.4,0.4
							c-6.2-0.1-12.2-1.5-17.9-4.1c-3.1-1.4-5.8-3.3-8.2-5.7c-4.2-4.1-6.8-9.1-8-14.8c-0.3-1.7-0.5-3.4-0.7-5.1
							c-0.1-0.4-0.1-0.7-0.3-1.1c-0.2,1.7-0.2,3.3,0,5c0,0.3,0.1,0.5,0.1,0.8c0.1,0.5-0.1,0.8-0.6,1c-1.2,0.6-2.5,0.8-3.8,0.4
							c-2.3-0.8-4.1-2.2-4.7-4.7c-0.6-2.5-0.4-5,1.7-6.9c0.6-0.5,1.4-0.9,2.1-1.2c0.8-0.4,1.7-0.4,2.5,0.2c0.9,0.7,1.9,0.6,2.9,0.5
							c0.7-0.1,1.4-0.4,1.7-1.1c0.5-0.8,1.3-1.3,2.1-1.8c0.5-0.3,0.9-0.6,1.3-1c0.7-0.6,1-1.4,0.9-2.4c0-0.4-0.1-0.9-0.1-1.3
							c-0.1-1.1,0.3-2.1,1.1-2.8c0.6-0.6,1.3-1.2,1.9-1.7c1.5-1.2,2.7-2.6,3.5-4.4c0.3-0.8,0.6-1.7,1-2.5c0.5-1.4,1.6-2.2,3-2.1
							c2,0.1,3.5-0.7,5-1.9c1-0.9,2.2-1.6,3.5-2.1c2-0.8,3.9-0.7,5.9-0.2c2.1,0.5,4.1,0.3,6.1-0.4c1-0.3,2-0.4,3.1-0.7
							c0.7-0.2,1.4-0.1,2,0.2c2.8,1.3,5.8,1.7,8.8,2.1c3.1,0.5,5.9,1.8,8,4.1c0.5,0.6,1,1.3,1.5,2c0.8,1.1,1.7,2.1,2.9,2.7
							c0.4,0.3,0.9,0.5,1.3,0.8c0,0,0,0,0,0c0.3,0.3,0.5,0.5,0.8,0.8c0.8,0.8,1.5,1.8,1.4,3.1c-0.1,0.6-0.3,1.2-0.6,1.7
							c-0.9,1.4-1,2.7-0.4,4.2c0.2,0.5,0.3,1.1,0.3,1.7c0,0.5,0,0.9,0,1.4c-0.1,1.8,2.7,3.6,4.2,2.4c0.7-0.6,1.6-1.1,2.2-1.7
							c0.5-0.5,1-0.5,1.6-0.3c1.6,0.5,3,1.5,3.6,3C94.1,61.5,92.7,66,88.1,67.5z"/>
						<path fill="#1D1D1B" d="M88.1,57.8c0.2,1,0.6,2.1,0.5,3.2c-0.1,1.1-0.5,2.1-0.8,3.2C89.8,63.4,90,59.3,88.1,57.8z"/>
						<path fill="#1D1D1B" d="M10.6,58.1c-0.1,0-0.2-0.1-0.2-0.1c-0.2,0.2-0.5,0.5-0.6,0.7c-0.9,1.7-0.9,3.5,0.1,5.2
							c0.2,0.3,0.4,0.7,1.1,0.4C9.6,62.4,9.5,60.3,10.6,58.1z"/>
						<path fill="#1D1D1B" d="M52.3,60.5c-2.6-0.7-5.9,0.4-6.9,2.4c1.6-1,3.3-1.8,5.3-1.8c2.1,0,3.5,1.2,5,2.6
							C55.7,62.4,54,61,52.3,60.5z"/>
					</g>
				</g>
				<path fill="#B78767" d="M82.4,63.7c-1.2,9.3-5.9,17-13.6,22.3c-0.1,0,0,0.1,0,0.1C77.2,82,83.1,73,83.7,63.7
					C83.7,62.9,82.5,63,82.4,63.7z"/>
				<path fill="#B78767" d="M54.5,62.7c-1.1-1.2-3.3-1.9-4.9-1.5c-0.1,0-0.1,0.2,0,0.2c0.8,0.2,1.5,0.3,2.2,0.6
					c0.7,0.4,1.2,0.9,1.8,1.4C54.2,64,55,63.3,54.5,62.7z"/>
				<g opacity="0.3">
					<path fill="#D19384" d="M28.7,59.9c-2.1-0.2-5.7,0-5.9,1.8c-0.1,1.9,2.3,2.6,5.1,2.9c3.7,0.4,6.1-0.1,6.1-1.8
						C34.1,61,31.2,60.3,28.7,59.9z"/>
					<path fill="#D19384" d="M78.2,60.3c-0.3-1.7-3.5-2-6.2-1.7c-2.9,0.3-5.4,1.3-5.3,2.8c0.2,2,2.8,2.5,6.2,2.1
						C76,63.2,78.6,62.1,78.2,60.3z"/>
				</g>
			</g>
			<g id="Ojos_abiertos_2_">
				<path fill="#1D1D1B" d="M32.9,55.7c1.6,0,2.7,1.1,2.7,2.7c0,1.7-1.3,2.9-3.1,2.9c-1.6,0-2.9-1.2-2.9-2.7
					C29.6,57,31,55.7,32.9,55.7z M33.4,56.4c-0.9-0.1-1.6,0.4-1.6,1.1c-0.1,0.7,0.5,1.4,1.2,1.4c0.9,0.1,1.6-0.4,1.6-1.1
					C34.6,57.2,34,56.5,33.4,56.4z"/>
				<path fill="#1D1D1B" d="M66.9,55c1.6,0,2.7,1,2.8,2.6c0,1.7-1.3,3-3.2,2.9c-1.6,0-2.8-1.2-2.8-2.6C63.7,56.3,65.1,55,66.9,55z
					 M67.2,58.3c0.9,0,1.5-0.4,1.5-1.1c0-0.8-0.6-1.5-1.3-1.5c-0.9,0-1.5,0.5-1.5,1.2C65.9,57.7,66.4,58.3,67.2,58.3z"/>
				<path fill="#FFFFFF" d="M33.4,56.4c0.7,0,1.2,0.7,1.2,1.4c0,0.7-0.7,1.2-1.6,1.1c-0.8-0.1-1.3-0.7-1.2-1.4
					C31.8,56.9,32.5,56.4,33.4,56.4z"/>
				<path fill="#FFFFFF" d="M67.2,58.3c-0.8,0-1.3-0.6-1.3-1.3c0-0.8,0.6-1.2,1.5-1.2c0.7,0,1.3,0.7,1.3,1.5
					C68.7,57.9,68.1,58.3,67.2,58.3z"/>
			</g>
			<path id="Boca_4_1_" fill="#1D1D1B" d="M66.3,70.5c0.7,0.4,0.8,0.6,0.2,1c-0.7,0.5-1.4,0.9-2.1,1.2c-3.3,1.7-6.8,2.7-10.5,3
				c-4.4,0.4-8.7,0.2-13-0.9c-1.4-0.3-2.7-0.8-3.9-1.6c-0.5-0.3-0.9-0.7-1.4-1.1c0.3-0.3,0.5-0.5,0.7-0.7c0.1,0.1,0.2,0.1,0.2,0.1
				c-0.1,0.6,0.3,0.8,0.7,1.1c1.7,1.1,3.5,1.6,5.4,1.9c2.4,0.3,4.8,0.6,7.3,0.7c5.4,0.1,10.5-1.1,15.3-3.7
				C65.6,71.3,65.9,70.9,66.3,70.5z"/>
			<g id="Cejas_1_">
				<path fill="#1D1D1B" d="M27,50.2c1.3-1.1,2.5-1.8,4.4-2.3c1.2-0.3,1.5,0.3,0.5,0.9c-1.4,0.7-3.1,1.5-4.4,2.2
					C26.9,51.3,26.7,50.5,27,50.2z"/>
				<path fill="#1D1D1B" d="M73,50.2c-1.3-1.1-2.5-1.8-4.4-2.3c-1.2-0.3-1.5,0.3-0.5,0.9c1.4,0.7,3.1,1.5,4.4,2.2
					C73.2,51.3,73.3,50.5,73,50.2z"/>
			</g>
		</g>
	</g>
</g>
<g id="personajes_hover">
	<g>
		<defs>
			<rect id="SVGID_83_" x="0" y="0" width="100" height="100"/>
		</defs>
		<use xlink:href="#SVGID_83_"  overflow="visible" fill="#5B6AB0"/>
		<clipPath id="SVGID_4_">
			<use xlink:href="#SVGID_83_"  overflow="visible"/>
		</clipPath>
		<g clip-path="url(#SVGID_4_)">
			<g id="Brazp_Izq._Normal_1_">
				<path fill="#A2704D" d="M96,139.1c-0.4-1.3-0.9-2.6-1.4-3.9c-0.1,0,0.1,0,0,0.1c0,0.2,0.1,0.3,0.1,0.5c0.4,1.4,1,2.6,1.4,4
					c0.2,0.3,0.5,0.7,0.6,1c-0.4,0.8-1.7,1.2-2.4,0.4c-0.5-0.4-1-1.1-1.3-1.6c-1-1.5-2-3-3-4.6c-0.8-1.3-1.5-1.5-2.8-0.6
					c-0.5,0.4-1,1-1.5,1.4c-0.8,0.6-1.6,0.4-2-0.4c0.5-1.3,1-2.5,1.5-3.8c0.5-1.3,0.8-2.3,1.3-3.6c-0.1-0.1-0.4-0.5-0.6-0.7
					c-4.3-5.4-9.3-9.5-15.3-12.8c-1.7-1-3.4-2.1-5-3.2c-2.2-1.6-3.4-3.7-3.2-6.5c0.3-3.6,4-6.4,7.4-5.7c1.7,0.3,3.2,1,4.7,1.9
					c3.3,2,6.2,4.7,8.7,7.6c3.9,4.5,6.9,9.7,9.1,15.2c1.2,3,1.8,6.1,2.5,9.2c0.4,1.7,0.9,3.1,1.3,4.9c0.1,0.3,0,0.9,0.1,1.1
					C96.3,139.1,96.1,139.1,96,139.1z"/>
				<path fill="#1D1D1B" d="M86.3,128.2c-0.8-1-1.7-2-2.6-3c-4.1-4.3-8.7-8-13.9-10.8c-1.6-0.8-3.1-1.8-4.5-2.9
					c-1.9-1.4-3-3.4-3-5.9c-0.1-4.2,3.9-7.6,8-6.8c2.1,0.4,4.1,1.2,5.9,2.4c6.1,4.2,10.5,9.7,14,16.1c3,5.4,4.6,11.2,5.9,17.1
					c0.4,1.9,0.8,3.7,1.1,5.6c0.3,1.2-0.4,2-1.6,1.8c-0.7-0.1-1.3-0.3-2.1-0.2c-0.6,0.1-1.2-0.5-1.5-1.1c-0.4-1-0.9-2-1.1-3
					c-0.2-0.9-0.7-1.7-1.2-2.5c-0.5-0.7-1.1-0.8-1.8-0.4c-0.4,0.2-0.7,0.6-1,0.9c-0.5,0.5-1.1,0.9-1.8,1c-1.2,0-1.7-0.9-1.2-1.8
					c0.7-1.3,1.2-2.8,1.8-4.2C85.7,129.8,85.9,129.1,86.3,128.2z M96,139c0.1,0,0.1,0,0.2,0c0-0.3-0.1-0.5-0.1-0.8
					c-0.4-1.7-0.7-3.4-1.1-5.1c-0.7-3.1-1.3-6.2-2.5-9.2c-2.2-5.6-5.2-10.7-9.1-15.2c-2.6-3-5.4-5.6-8.7-7.6
					c-1.4-0.9-2.9-1.5-4.6-1.8c-3.4-0.6-6.7,1.6-7.2,5.1c-0.5,2.9,0.6,5.2,2.9,6.8c1.6,1.2,3.3,2.2,5,3.1
					c6.1,3.3,11.2,7.7,15.6,13.1c0.2,0.2,0.5,0.3,0.6,0.4c-0.5,1.3-1,2.6-1.5,3.9c-0.5,1.3-1.1,2.5-1.6,3.8c0.8,0.6,1.3,0.6,2,0
					c0.5-0.4,0.9-0.9,1.4-1.3c1.2-1,2.1-0.7,2.9,0.6c0.9,1.6,1.9,3.1,2.9,4.6c0.3,0.5,0.7,1,1.2,1.4c0.4,0.4,0.8,0.5,1.2,0.4
					c0.3,0,0.9-0.3,0.8-0.6c0-0.1-0.5-0.9-0.5-1.1c-0.5-1.4-1-2.4-1.4-3.8c-0.1-0.2,0-0.4,0-0.6c0.1,0,0.2,0,0.3-0.1
					C95.2,136.5,95.6,137.7,96,139z M93.8,141.2c-0.5-0.6-0.8-1-1.2-1.4c-0.3-0.4-0.6-0.9-0.9-1.3C92,140.3,92.5,140.9,93.8,141.2z"
					/>
			</g>
			<g id="Brazo_Der._Normal_1_">
				<path fill="#A2704D" d="M15.7,128.1c0.4,1,0.6,1.7,1,2.7c0.6,1.4,1.2,2.8,1.7,4.2c0.1,0.3,0.2,0.9,0,1c-0.2,0.2-0.9,0.4-1.1,0.3
					c-0.5-0.1-0.9-0.5-1.3-0.8c-0.4-0.3-0.8-0.7-1.2-1c-1.2-0.9-1.7-0.7-2.5,0.7c-0.9,1.5-1.9,3.1-2.8,4.6c-0.3,0.5-0.7,1.1-1.2,1.5
					c-0.4,0.3-1.3,0.3-2.1,0.1c-0.3-0.1-0.6-0.4-0.4-0.9c0.3-0.8,0.9-1.4,1.1-2.2c0.3-0.9,0.8-1.5,0.8-2.5c-0.7,1.6-1,2.7-1.8,3.9
					c0.3-1.5,0.6-3.4,0.9-4.9c0.6-2.6,1.2-5.4,1.9-8c1-3.6,2.6-6.8,4.4-10c2.2-4.1,5.4-7.7,8.6-11c2.5-2.5,5.3-4.8,8.6-6
					c0.8-0.3,1.6-0.4,2.4-0.5c2.8-0.4,4.9,1.1,6.2,3.4c1.3,2.3,1.1,4.6-0.3,6.8c-0.9,1.4-2.4,2.4-3.7,3.2c-1.7,1-3.4,1.9-5.1,2.9
					c-5.4,3.2-9.7,7.1-13.6,12C16.1,127.8,15.9,128,15.7,128.1z"/>
				<path fill="#1D1D1B" d="M16.1,128.4c0.4,1.1,0.7,2.1,1.1,3c0.4,1.1,0.9,2.2,1.4,3.3c0.2,0.5,0.5,1,0,1.5
					c-0.4,0.4-1.1,0.6-1.7,0.3c-0.5-0.3-1-0.7-1.4-1c-0.3-0.2-0.5-0.5-0.8-0.7c-0.7-0.5-1.5-0.3-1.9,0.3c-0.5,0.8-1,1.6-1.2,2.6
					c-0.2,1-0.6,1.9-1.1,2.8c-0.5,1.1-1,1.2-2.2,1c-0.2,0-0.4,0.1-0.7,0.1c-0.5,0-1.1,0.2-1.6,0.1c-0.7-0.1-1-0.7-0.9-1.4
					c0.8-3.8,1.6-7.6,2.5-11.3c1.4-5.6,3.7-10.9,7-15.7c3.2-4.8,7-9.1,11.9-12.3c1.9-1.3,4-2.1,6.3-2.2c4.1-0.3,7.3,3.3,7.3,6.7
					c0,2.5-1,4.5-3,6c-1.4,1-2.8,2-4.3,2.8c-5.7,3-10.7,7-15,11.8C17.3,126.9,16.7,127.7,16.1,128.4z M15.4,128
					c0.2-0.1,0.4-0.2,0.6-0.4c3.9-4.9,8.6-9,13.9-12.2c1.7-1,3.4-1.9,5-2.9c1.4-0.8,2.7-1.8,3.5-3.1c1.4-2.2,1.7-4.5,0.4-6.7
					c-1.3-2.3-3.4-3.6-6.2-3.3c-0.8,0.1-1.6,0.3-2.4,0.5c-3.4,1.2-6.1,3.4-8.6,5.9c-3.3,3.3-6.2,6.8-8.4,10.9
					c-1.8,3.2-3.4,6.5-4.4,10.1c-0.7,2.6-1.3,5.3-1.9,7.9c-0.4,1.5-0.7,3.1-1,4.6c0.8-1.3,0.9-2.8,1.7-4c0,1-0.3,1.9-0.6,2.9
					c-0.2,0.8-1.1,1.7-1.4,2.6c-0.1,0.3,0.9,0.6,1.3,0.6c0.9,0,1.2-0.5,1.7-1.3c0.2-0.3,0.5-0.7,0.7-1c0.9-1.4,1.8-2.8,2.6-4.2
					c0.7-1.2,1.7-1.4,2.8-0.5c0.4,0.3,0.7,0.7,1.1,1c0.4,0.3,0.8,0.6,1.3,0.8c0.3,0.1,0.7-0.1,0.9-0.3c0.1-0.1,0-0.6-0.1-0.8
					c-0.6-1.4-1.2-2.8-1.7-4.2C16.2,130,15.8,129,15.4,128z M8.7,141.2c1.1,0,1.8-0.8,2.2-2.9C10.1,139.4,9.4,140.3,8.7,141.2z"/>
			</g>
			<g>
				<path fill="#A2704D" d="M57.7,94.7c-2.6,0.9-5.5,1.2-8.1,0.9c-1.6-0.2-3.2-0.5-4.7-0.9c-0.6-0.1-0.8-0.7-0.8-1.4
					c0-1.5-0.1-3-0.2-4.6c0-0.7,0.6-1.2,1.1-1.4c1.1-0.4,2.2-0.8,3.4-1.1c2.2-0.4,4.5-0.3,6.7,0.2c0.3,0.1,0.8,0.3,1.2,0.4
					c1.1,0.3,1.5,1,1.5,2C57.8,90.8,57.7,92.8,57.7,94.7z"/>
				<path fill="#5DACBD" d="M74.1,129.7c-1-4.1-2.1-8.3-2.6-12.5c-0.1-0.8-0.4-1.4-1-2c-1.2-1.2-1.9-2.7-2.4-4.3
					c-0.7-2.2-0.9-4.4-0.8-6.7c0.1-1.9,0.4-3.7,1.1-5.6c-2.1-0.5-5.7-1.3-8-1.8c-0.5-0.7-1.1-1.5-1.5-2.1
					c-3.2,1.9-11.1,2.4-15.7-0.3c-0.4,0.6-1.4,1.5-2.1,2.2c-2.2,0.5-5.9,1.6-7.5,1.9c0,0.2,0,0.3,0,0.4c0.9,2.8,1.1,5.7,0.9,8.6
					c-0.2,2.7-0.9,5.3-2.7,7.3c-1.2,1.3-1.6,2.7-1.7,4.3c0,0.2-0.1,0.5-0.1,0.7c-0.8,3.7-1.7,7.3-2.5,11c-0.2,0.9-0.4,1.9-0.7,2.9
					c16.2,5.7,32.1,5.9,47.9-1.1C74.5,131.6,74.3,130.6,74.1,129.7z"/>
				<path fill="#57A1AD" d="M52.2,138c-0.4-0.2-14.3-7.3-15.2-18.1c-0.8-4-0.7-14.2-0.7-15.1c-0.1-1.3-0.4-2.5-0.6-3.8
					c-0.2-1.1-0.1-2.3,2.5-3.7c0.1-0.1,0.1-0.2,0-0.2c-1.3,0.1-5,1.2-5,1.2s0.5,1.8,0.6,2.4c0.3,1.6,0.6,3.3,0.6,4.9
					c-0.1,3-0.5,6.2-2.5,8.8c-0.7,0.9-1,1.5-1.4,2.6c-0.5,1.5-0.7,3.4-0.9,4.9c-0.5,3.2-1.4,6.3-2.3,9.4c-0.4,1.2-0.6,2.4-0.6,2.4
					s1.1,0.7,2.3,1.1c7.5,2.3,10.7,2.7,17.5,3.4C47,138.2,52.7,138.2,52.2,138z"/>
				<path fill="#8C5D3C" d="M43.8,94.2c-0.1-2.1-0.1-4.1,0.2-6.1c0.4-0.3,0.8-0.6,1.3-0.9c2-1.2,5.5-1.3,6.8-1.3
					c1.5,0.2,1.3,1.7-0.5,1.9c-2,0.2-4.5,1.3-5.2,3.7c-0.5,1.7,2.3,4.2,5,4.2c-1.2-0.1-3.1-0.1-4.8-0.5C45.5,95,44.6,94.6,43.8,94.2
					z"/>
				<path fill="#1D1D1B" d="M28.7,135c14.2,4.6,28.3,4.9,42.5-0.3c0.2-0.1,0.4-0.2,0.6-0.3c1.2-0.5,2.3-1,3.5-1.5
					c-0.2-0.9-0.4-1.6-0.6-2.4c-1.2-4.3-2.3-8.7-2.9-13.2c-0.1-1.2-0.6-2.1-1.3-3c-1.2-1.3-1.8-2.9-2.2-4.6
					c-0.7-2.8-0.7-5.6-0.1-8.4c0.2-1,0.5-2,0.7-3c-0.1-0.1-0.2-0.2-0.3-0.2c-2.2-0.5-4.4-1-6.6-1.5c-0.9-0.2-1.6-0.4-2-1.3
					c-0.3-0.7-0.7-1.3-1.8-1.4c0-1.7,0-3.3,0-4.9c0-1.1-0.5-2-1.6-2.5c-2-0.9-4-1-6.1-1c-1.9,0-3.8,0.4-5.5,1.2
					c-1.2,0.6-1.8,1.4-1.7,2.8c0.1,1.3,0,2.6,0,3.9c-0.2,0.2-0.5,0.3-0.6,0.5c-0.4,0.5-0.8,1-1.1,1.6c-0.3,0.5-0.7,0.7-1.3,0.8
					c-2.5,0.5-4.9,1.1-7.4,1.6c0.1,0.4,0.2,0.7,0.2,0.9c0.7,2.3,1,4.7,0.9,7.1c-0.1,3-0.6,5.9-2.5,8.2c-1.2,1.4-1.7,2.9-1.8,4.6
					c0,0.3-0.1,0.7-0.2,1c-0.7,3.9-1.7,7.8-2.8,11.6c-0.2,0.8-0.4,1.5-0.6,2.4c0.8,0.3,1.4,0.6,2.2,0.9
					C28.5,134.9,28.5,134.9,28.7,135z M45,87.5c1.1-0.4,2.2-0.9,3.4-1.1c2.2-0.4,4.5-0.3,6.7,0.3c0.3,0.1,0.7,0.2,1,0.3
					c1.1,0.3,1.5,1,1.5,2c0,1.8,0,3.6,0,5.6c-2.6,0.9-5.2,1.2-7.9,0.9c-1.6-0.2-3.1-0.6-4.7-0.9c-0.6-0.1-0.9-0.5-0.9-1.1
					c0-1.5-0.1-3.1-0.2-4.6C44,88.1,44.5,87.7,45,87.5z M43.2,94.4c4.6,2.7,12.5,2.2,15.7,0.3c0.5,0.8,1,1.5,1.5,2.3
					c-4.1,2.2-8.2,2.8-12.7,2.1c-1.6-0.3-3.2-0.6-4.6-1.5c-0.4-0.3-0.9-0.6-1.3-1C42.3,95.8,42.7,95.1,43.2,94.4z M42.3,97.7
					c0.8,0.9,2,1.2,3.1,1.4c2.7,0.6,5.5,0.6,8.2,0.4c1.3-0.1,2.7-0.3,4-0.7c1.1-0.3,2.2-1,3.2-1.5c0.5,2.5-3.9,12.8-7.2,16.6
					c-2.7-1.8-4.2-1.9-7.1-0.2c-3.5-5-5.9-10.4-6.9-16.4C40.7,96.9,41.5,96.8,42.3,97.7z M51.5,117.9c0.7-0.1,1.2-0.6,1.2-1.2
					c0.1-0.7-0.1-1.3-0.8-1.7c-1.2-0.8-3.3-0.4-3.9,1.2c-0.8,2.1,0.4,4.7,2.9,4.9c-0.7,0.9-1.8,1.5-3.5,1.8
					c-0.6-1.4-1.4-2.9-1.8-4.4c-0.6-2,0.4-4,2.2-5.1c1.2-0.8,2.5-0.7,3.8-0.2c1.4,0.5,2.4,1.6,2.9,3c0.7,1.6-0.1,3.3-1.8,4
					c-0.4,0.2-0.8,0.3-1.2,0.4c-1.2,0.3-2.2-0.2-2.9-1.3c-0.6-1.1-0.6-2.7,0.1-3.5c0.6-0.7,2.1-0.9,2.9-0.4c0.5,0.3,0.7,1.1,0.5,1.7
					c-0.3,0.5-0.9,0.7-1.5,0.4c-0.2-0.1-0.3-0.2-0.6-0.4C50.4,117.9,50.9,118,51.5,117.9z M26.8,133.8c0.2-1.1,0.5-2,0.7-2.9
					c0.8-3.7,1.7-7.3,2.5-11c0.1-0.2,0.1-0.5,0.1-0.7c0.1-1.6,0.6-3,1.7-4.3c1.8-2,2.5-4.6,2.7-7.3c0.2-2.9,0-5.8-0.9-8.6
					c0-0.1,0-0.2,0-0.4c1.8-0.4,3.5-0.8,5.4-1.3c1.3,6.2,3.4,11.9,7.1,17c-0.7,1-1.2,2.1-1.1,3.4c0,1.1,0.3,2.1,0.8,3
					c0.4,0.9,0.9,1.7,1.4,2.7c0.3,0,0.7,0,1-0.1c1.3-0.4,2.5-1,3.5-2c0.3-0.3,0.6-0.5,0.9-0.6c2.4-0.6,3.6-3.7,1.7-5.8
					c-0.2-0.2-0.3-0.4-0.5-0.6c3.9-5,6.3-10.8,7.7-17.2c2.3,0.5,4.5,1,6.8,1.5c-0.6,1.9-1,3.7-1.1,5.6c-0.1,2.3,0.1,4.5,0.8,6.7
					c0.5,1.6,1.3,3.1,2.4,4.3c0.6,0.6,0.9,1.2,1,2c0.5,4.2,1.6,8.4,2.6,12.5c0.2,0.9,0.4,1.9,0.7,2.9
					C58.9,139.7,43,139.5,26.8,133.8z"/>
			</g>
			<g id="Cabeza_2_">
				<g>
					<path fill="#6B432B" d="M78.9,41c-1.4-0.9-3.1-2.8-4.2-4.5c-2.1-3.2-5-4.5-8.6-5.2c-0.6-0.1-1.3-0.3-1.9-0.3
						c-1.8,0-3.6-0.3-5.2-1.2c-2.4-1.2-4.7-1.4-7.2-0.4c-2,0.8-4.1,0.7-6.2,0.3c-3.7-0.3-6.6,0.2-9.4,2.6c-1.4,1.2-3.2,2.1-5.1,1.9
						c-1.4-0.1-2.1,0.5-2.8,1.8c-0.3,0.6-0.5,1.2-0.7,1.9c-0.9,2.8-3.1,4.9-5.5,6.5c-1.1,1.1-1.6,2.4-1.7,3.9
						c0.3,2.2-0.3,3.5-2.2,4.3c-0.5,0.3-1,0.7-1.4,1.2c-1.2,1.5-2.6,2-4.2,1.4c-1.5-0.5-3.1-2.4-3.1-3.9c0-1,0.6-2.2,1.1-2.9
						c0.8-1.5,0.8-2.2,0.5-4c-0.2-0.4-0.5-1.3-0.6-1.7c-0.1-0.7-0.3-1.6-0.2-2.4c0-0.7,0.5-1.4,1.1-1.8c1.6-1,1.9-2.5,2.1-4.3
						c0.2-1.4,0.2-3.1,0.5-4.5c0.4-1.9,1.2-3.4,2.9-4.7c1.4-1.1,3.2-1.8,4.9-2.1c1.8-0.3,3.5-0.6,5.4-0.6c2.9-0.1,5.8-0.7,8.6-1.5
						c1.8-0.6,3.9-1.1,5.8-1.3c1.9-0.2,4,0.1,5.8,0.6c2.7,0.9,5.2,1,7.9,0.8c1.9-0.2,3.4-0.5,5.3-0.7c1.4-0.2,2.9,0,4.2,0.4
						c1.9,0.5,3.8,0.9,5.8,1c1.9,0,3.7,0,5.6-0.1c3.4-0.2,6.3,1.3,8.1,4.1c2.5,3.9,4,8.2,3.5,12.9c-0.1,1.2-0.3,2.4-0.3,3.6
						c0,1,0.1,1.9,0.5,2.8c1.5,3.1,1.3,6.1-0.5,8.9c-0.6,0.9-1.6,1.7-2.5,2.3c-1.4,0.8-3.4,0.1-3.6-1.1c-0.1-0.4,0-0.9,0.1-1.3
						c0.1-1,0.1-1.9-0.4-2.9c-0.5-0.9-0.6-2-0.1-2.9c0.1-0.3,0.5-0.8,0.6-1c0.9-1.6,0.7-3.3-0.8-4.5c-0.6-0.5-0.4-0.5-1.1-1L78.9,41
						z"/>
					<path opacity="0.2" fill="#FFFFFF" d="M88.5,46.4c-0.3-0.7-0.6-1.3-1-2c-0.4-0.6-1.2-1.4-1.3-2.2c0-0.1-0.1-0.1-0.2,0
						c-0.5,1.2-0.6,1.8,0,3.1c0.9,1.9,1.1,3.4,1.1,5.5c0,1,1.3,1,1.6,0.2C89.2,49.6,89,47.9,88.5,46.4z"/>
					<path opacity="0.2" fill="#FFFFFF" d="M76.3,23.2c-1.2-0.2-2.5,0.1-3.7,0.1c-1.6,0-3.2,0-4.8-0.3c-0.1,0-0.1,0.1,0,0.1
						c2.5,0.8,6,2.1,8.6,0.8C76.7,23.8,76.7,23.3,76.3,23.2z"/>
					<path opacity="0.2" fill="#FFFFFF" d="M84.4,28c-0.5-0.9-2.7-5.5-4.2-3.7c-0.1,0.1,0,0.2,0.1,0.2c1.5-0.3,3.4,6.1,3.8,7.2
						c0.7,2.3,0.5,4.9,1.4,7.1c0.2,0.5,0.9,0.6,1.1,0C87.7,35.6,85.8,30.8,84.4,28z"/>
					<path fill="#A2704D" d="M78.7,40.8c0.5,0.4,1.6,1.1,2.1,1.5c0.8,0.8,1.2,1.6,1,2.9c-0.1,0.6-0.4,1.2-0.7,1.7
						c-0.9,1.4-0.8,2.9-0.2,4.4c0.2,0.5,0.2,1.1,0.2,1.7c0,0.5-0.1,0.6-0.1,1c-0.1,1.8,2.2,3.6,3.7,2.4c0.7-0.6,1.7-1.2,2.3-1.8
						c0.5-0.5,1.6-0.4,2.2-0.2c1.6,0.5,2.8,1.8,3.5,3.3c1.6,3.8-0.1,8.6-4.7,10.1c-1.2,0.4-2.7,0.2-3.9-0.4c0-1.9,0.2-1.6-0.2,0.3
						c-2.1,10-8.5,16.8-17.8,20.7c-3.5,1.5-7.1,2.3-10.9,2.8c-1.8,0.2-3.8,0.5-5.6,0.4c-6.2-0.1-12.2-1.4-17.8-4
						c-3.1-1.4-5.9-3.4-8.3-5.8c-4.2-4.1-6.8-9-8-14.8c-0.3-0.9,0.1,0.3-1.1,0.6c-1.2,0.6-2.9,0.8-4.2,0.4c-2.3-0.8-4.2-2.5-4.8-5
						c-0.6-2.5-0.3-5.2,1.8-7.1c0.6-0.5,1.5-0.9,2.3-1.2c0.8-0.4,1.7-0.4,2.5,0.2c0.9,0.7,1.8,0.6,2.8,0.4c0.7-0.1,1.2-0.3,1.6-0.9
						c0.5-0.8,1.4-1.4,2.2-1.9c0.5-0.3,0.9-0.8,1.3-1.2c0.7-0.6,0.9-1,0.8-1.9c0-0.4,0-1.4,0-1.9c-0.1-1.1,0.3-1.7,1.1-2.5
						c0.6-0.6,1.5-1.4,2.2-1.9c1.5-1.2,2.4-2.2,3.1-4c0.3-0.8,0.9-2.2,1.2-3c0.5-1.4,1.7-2,3.2-1.9c2,0.1,3.3-0.9,4.7-2.1
						c1-0.9,2.3-1.6,3.6-2.1c2-0.8,4-0.7,6-0.3c2.1,0.5,4,0.5,6-0.2c1-0.3,2-0.6,3-0.8c0.7-0.2,1.7,0.1,2.3,0.4
						c2.8,1.3,5.9,1.8,8.9,2.2c3.1,0.5,5.5,1.6,7.6,4c0.5,0.6,1.1,1.5,1.6,2.1C76.2,39,77.2,40.3,78.7,40.8L78.7,40.8z"/>
					<path fill="#8C5D3C" d="M38.3,31.1c-1.6,1.5-2.9,2.5-5.5,3.2c-0.5,0.1-0.7,0-1.4,0.1c-1.2-0.2-2.1,0.3-2.9,1.5
						c-0.1,0.2-1.2,3.4-2.2,5.1c-1,1.5-2.7,2.7-4,3.9c0,0-0.1,0.1-0.1,0.1c-1,0.9-1.7,1.6-1.4,4.7c0,0.6-0.4,1.5-0.6,1.6
						c-1.1,1.2-2.4,1.7-3.9,3.4c-1.4,1-1.9,1-2.4,1c-0.1,0-1.6,0-2.6-0.8c-1.1-0.7-3.3,0-4.3,1.1c-3.4,3.7-1.9,10.4,2.5,12.1
						c3,1.1,5.5,0.3,5.4-1.5c0.3,2.1,1,3.6,1.7,5.4c1.3,3.3,3.1,6.2,5.4,8.9c2.2,2.6,8.7,6.8,8.8,6.8c1.6,0.8,4,1.7,5.8,1.7
						c0.1,0-3.1-1.5-8.5-6.3c-2.6-2.3-4.6-5.3-6.2-8.3c-3.2-6.2-5.7-16.7-2.1-19.3c3.8-2.7,1.7-6.3,4.4-8.7c0.3-0.2,2.8-3.1,3.1-3.6
						c1.6-2.4,1.2-6.1,4.2-7.2c0.1,0,2.8-0.5,3.6-1c1.5-0.8,3-2.3,3.8-3.8C39.3,30.4,38.9,30.6,38.3,31.1z"/>
					<path fill="#B78767" d="M92.1,57.3c-0.6-1.3-3-3.1-4.5-2.2c-0.3,0.2-0.2,0.6,0.1,0.7c0.8,0.3,1.4,0.4,2.1,0.9
						c0.5,0.5,0.9,1.1,1.4,1.5C91.8,58.6,92.4,57.8,92.1,57.3z"/>
					<g>
						<path fill="#1D1D1B" d="M93.7,60c-0.2-3.1-1.9-5.2-4.9-6.1c-0.2,0-0.3-0.1-0.5-0.1c0-0.1,0-0.2,0-0.2c0.1-0.1,0.1-0.3,0.2-0.4
							c1.2-2.3,1.5-4.5,0.3-6.9c-0.9-1.8-1.2-3.8-0.9-5.8c0.1-0.5,0.2-1,0.2-1.5c0.6-3.9-0.4-7.6-2-11.2c-0.7-1.5-1.6-2.9-2.7-4
							c-1.7-1.7-3.8-2.7-6.2-2.6c-1.2,0-2.5,0.2-3.7,0.2c-2.2,0-4.4-0.1-6.6-0.8c-3-1-5.9-1-8.9-0.4c-3.5,0.7-7.1,1.1-10.5-0.3
							c-0.1,0-0.2,0-0.3-0.1c-3.7-1-7.3-0.8-10.8,0.6c-3.4,1.4-6.9,1.9-10.6,1.7c-1.4,0-2.8,0-4.2,0.3c-3.9,0.6-6.7,2.6-7.6,6.7
							c-0.1,0.3-0.2,0.6-0.2,0.9c-0.2,1.4-0.3,2.8-0.5,4.2c-0.1,1.7-0.6,3.3-2.2,4.3c-0.7,0.4-1,1.2-1.1,2c-0.2,1.2,0,2.2,0.5,3.3
							c0.5,1.1,0.8,2.2,0.4,3.4c-0.2,0.7-0.6,1.3-1,1.9c-1.1,1.7-1.1,3,0.1,4.6c0.1,0.1,0.2,0.2,0.3,0.4c-0.3,0.1-0.5,0.2-0.8,0.3
							c-2.5,0.9-4.1,2.6-4.5,5.3c-0.1,0.8-0.1,1.7,0,2.6c0.2,3,2.7,5.8,5.6,6.4c1.6,0.4,3.1-0.1,4.5-0.8c0.1,0.1,0.2,0.2,0.2,0.3
							c0,0.1,0.1,0.2,0.1,0.3c2.4,9.3,8.1,15.9,16.8,19.8c7,3.2,14.4,4.5,22.1,3.6c4.2-0.5,8.3-1.3,12.3-3
							c9.2-3.9,15.3-10.5,17.7-20.3c0.1-0.2,0.2-0.4,0.2-0.6c0.3,0.1,0.5,0.1,0.7,0.2c2.2,0.6,4.1,0.2,5.9-1.3
							C93.2,65,93.9,62.7,93.7,60z M9.7,51.4c0-1,0.5-1.7,1-2.4c1.1-1.5,1.3-3.1,0.6-4.9c-0.2-0.4-0.4-0.8-0.5-1.3
							c-0.1-0.7-0.2-1.5-0.2-2.3c0-0.7,0.4-1.3,1-1.6c1.6-1,2.1-2.5,2.3-4.3c0.2-1.4,0.2-2.9,0.5-4.3c0.4-1.9,1.1-3.7,2.7-5
							c1.4-1.1,3-1.7,4.8-2c1.8-0.3,3.7-0.4,5.6-0.5c2.9-0.1,5.8-0.6,8.6-1.5c1.8-0.6,3.8-1,5.7-1.2c1.9-0.2,3.8,0.1,5.6,0.7
							c2.7,0.9,5.4,0.7,8.1,0.5c1.9-0.2,3.7-0.5,5.5-0.7c1.4-0.2,2.7,0,4,0.4c1.9,0.5,3.8,0.9,5.7,1c1.9,0,3.8,0.1,5.7,0
							c3.4-0.2,6,1.1,7.8,3.9c2.5,3.9,3.9,8.1,3.4,12.8c-0.1,1.2-0.2,2.4-0.2,3.6c0,1,0.2,1.9,0.6,2.8c1.5,3.1,0.9,6-0.8,8.8
							c-0.6,0.9-1.5,1.6-2.4,2.1c-1.4,0.8-2.9-0.2-3.1-1.4c-0.1-0.4-0.1-0.8,0-1.2c0.1-1,0-2-0.5-2.9c-0.5-0.9-0.4-1.9,0.1-2.8
							c0.1-0.3,0.3-0.5,0.5-0.8c0.9-1.6,0.7-3.5-0.8-4.7c-0.4-0.3-0.8-0.6-1.3-0.9C79.2,41.1,79,41,78.9,41
							c-0.5-0.3-0.6-0.5-0.9-0.7c-1.2-1.1-2.2-2.4-3.2-3.8c-2.1-3.2-5.2-4.7-8.9-5.4c-0.6-0.1-1.2-0.2-1.8-0.2
							c-1.8,0-3.6-0.4-5.1-1.3c-2.4-1.2-4.8-1.4-7.3-0.4c-2,0.8-4,0.8-6.1,0.4c-3.7-0.7-6.9,0.2-9.7,2.7c-1.4,1.2-2.8,2-4.7,1.8
							c-1.4-0.1-2.5,0.6-3.1,1.8c-0.3,0.6-0.6,1.3-0.8,1.9c-0.9,2.8-2.7,4.8-5.1,6.5c-1.4,1-2.2,2.4-1.9,4.1c0.4,2-0.5,3.2-2.2,4.1
							c-0.5,0.3-1,0.8-1.4,1.2c-1.2,1.5-2.6,1.9-4.2,1.3C11.1,54.6,9.8,52.9,9.7,51.4z M88.1,67.5c-1.2,0.4-2.4,0.3-3.6-0.3
							c0-1.9,0.4-3.8,0-5.9c-0.3,2.2-0.5,4.2-1,6.1c-2.1,10-8,16.8-17.3,20.7c-3.5,1.5-7.1,2.3-10.9,2.8c-1.8,0.2-3.6,0.5-5.4,0.4
							c-6.2-0.1-12.2-1.5-17.9-4.1c-3.1-1.4-5.8-3.3-8.2-5.7c-4.2-4.1-6.8-9.1-8-14.8c-0.3-1.7-0.5-3.4-0.7-5.1
							c-0.1-0.4-0.1-0.7-0.3-1.1c-0.2,1.7-0.2,3.3,0,5c0,0.3,0.1,0.5,0.1,0.8c0.1,0.5-0.1,0.8-0.6,1c-1.2,0.6-2.5,0.8-3.8,0.4
							c-2.3-0.8-4.1-2.2-4.7-4.7c-0.6-2.5-0.4-5,1.7-6.9c0.6-0.5,1.4-0.9,2.1-1.2c0.8-0.4,1.7-0.4,2.5,0.2c0.9,0.7,1.9,0.6,2.9,0.5
							c0.7-0.1,1.4-0.4,1.7-1.1c0.5-0.8,1.3-1.3,2.1-1.8c0.5-0.3,0.9-0.6,1.3-1c0.7-0.6,1-1.4,0.9-2.4c0-0.4-0.1-0.9-0.1-1.3
							c-0.1-1.1,0.3-2.1,1.1-2.8c0.6-0.6,1.3-1.2,1.9-1.7c1.5-1.2,2.7-2.6,3.5-4.4c0.3-0.8,0.6-1.7,1-2.5c0.5-1.4,1.6-2.2,3-2.1
							c2,0.1,3.5-0.7,5-1.9c1-0.9,2.2-1.6,3.5-2.1c2-0.8,3.9-0.7,5.9-0.2c2.1,0.5,4.1,0.3,6.1-0.4c1-0.3,2-0.4,3.1-0.7
							c0.7-0.2,1.4-0.1,2,0.2c2.8,1.3,5.8,1.7,8.8,2.1c3.1,0.5,5.9,1.8,8,4.1c0.5,0.6,1,1.3,1.5,2c0.8,1.1,1.7,2.1,2.9,2.7
							c0.4,0.3,0.9,0.5,1.3,0.8c0,0,0,0,0,0c0.3,0.3,0.5,0.5,0.8,0.8c0.8,0.8,1.5,1.8,1.4,3.1c-0.1,0.6-0.3,1.2-0.6,1.7
							c-0.9,1.4-1,2.7-0.4,4.2c0.2,0.5,0.3,1.1,0.3,1.7c0,0.5,0,0.9,0,1.4c-0.1,1.8,2.7,3.6,4.2,2.4c0.7-0.6,1.6-1.1,2.2-1.7
							c0.5-0.5,1-0.5,1.6-0.3c1.6,0.5,3,1.5,3.6,3C94.1,61.5,92.7,66,88.1,67.5z"/>
						<path fill="#1D1D1B" d="M88.1,57.8c0.2,1,0.6,2.1,0.5,3.2c-0.1,1.1-0.5,2.1-0.8,3.2C89.8,63.4,90,59.3,88.1,57.8z"/>
						<path fill="#1D1D1B" d="M10.6,58.1c-0.1,0-0.2-0.1-0.2-0.1c-0.2,0.2-0.5,0.5-0.6,0.7c-0.9,1.7-0.9,3.5,0.1,5.2
							c0.2,0.3,0.4,0.7,1.1,0.4C9.6,62.4,9.5,60.3,10.6,58.1z"/>
						<path fill="#1D1D1B" d="M52.3,60.5c-2.6-0.7-5.9,0.4-6.9,2.4c1.6-1,3.3-1.8,5.3-1.8c2.1,0,3.5,1.2,5,2.6
							C55.7,62.4,54,61,52.3,60.5z"/>
					</g>
				</g>
				<path fill="#B78767" d="M82.4,63.7c-1.2,9.3-5.9,17-13.6,22.3c-0.1,0,0,0.1,0,0.1C77.2,82,83.1,73,83.7,63.7
					C83.7,62.9,82.5,63,82.4,63.7z"/>
				<path fill="#B78767" d="M54.5,62.7c-1.1-1.2-3.3-1.9-4.9-1.5c-0.1,0-0.1,0.2,0,0.2c0.8,0.2,1.5,0.3,2.2,0.6
					c0.7,0.4,1.2,0.9,1.8,1.4C54.2,64,55,63.3,54.5,62.7z"/>
				<g opacity="0.3">
					<path fill="#D19384" d="M28.7,59.9c-2.1-0.2-5.7,0-5.9,1.8c-0.1,1.9,2.3,2.6,5.1,2.9c3.7,0.4,6.1-0.1,6.1-1.8
						C34.1,61,31.2,60.3,28.7,59.9z"/>
					<path fill="#D19384" d="M78.2,60.3c-0.3-1.7-3.5-2-6.2-1.7c-2.9,0.3-5.4,1.3-5.3,2.8c0.2,2,2.8,2.5,6.2,2.1
						C76,63.2,78.6,62.1,78.2,60.3z"/>
				</g>
			</g>
			<g id="Ojos_abiertos_1_">
				<path fill="#1D1D1B" d="M32.9,55.7c1.6,0,2.7,1.1,2.7,2.7c0,1.7-1.3,2.9-3.1,2.9c-1.6,0-2.9-1.2-2.9-2.7
					C29.6,57,31,55.7,32.9,55.7z M33.4,56.4c-0.9-0.1-1.6,0.4-1.6,1.1c-0.1,0.7,0.5,1.4,1.2,1.4c0.9,0.1,1.6-0.4,1.6-1.1
					C34.6,57.2,34,56.5,33.4,56.4z"/>
				<path fill="#1D1D1B" d="M66.9,55c1.6,0,2.7,1,2.8,2.6c0,1.7-1.3,3-3.2,2.9c-1.6,0-2.8-1.2-2.8-2.6C63.7,56.3,65.1,55,66.9,55z
					 M67.2,58.3c0.9,0,1.5-0.4,1.5-1.1c0-0.8-0.6-1.5-1.3-1.5c-0.9,0-1.5,0.5-1.5,1.2C65.9,57.7,66.4,58.3,67.2,58.3z"/>
				<path fill="#FFFFFF" d="M33.4,56.4c0.7,0,1.2,0.7,1.2,1.4c0,0.7-0.7,1.2-1.6,1.1c-0.8-0.1-1.3-0.7-1.2-1.4
					C31.8,56.9,32.5,56.4,33.4,56.4z"/>
				<path fill="#FFFFFF" d="M67.2,58.3c-0.8,0-1.3-0.6-1.3-1.3c0-0.8,0.6-1.2,1.5-1.2c0.7,0,1.3,0.7,1.3,1.5
					C68.7,57.9,68.1,58.3,67.2,58.3z"/>
			</g>
			<g id="Cejas_2_">
				<path fill="#1D1D1B" d="M27,50.2c1.3-1.1,2.5-1.8,4.4-2.3c1.2-0.3,1.5,0.3,0.5,0.9c-1.4,0.7-3.1,1.5-4.4,2.2
					C26.9,51.3,26.7,50.5,27,50.2z"/>
				<path fill="#1D1D1B" d="M73,50.2c-1.3-1.1-2.5-1.8-4.4-2.3c-1.2-0.3-1.5,0.3-0.5,0.9c1.4,0.7,3.1,1.5,4.4,2.2
					C73.2,51.3,73.3,50.5,73,50.2z"/>
			</g>
			<g id="Boca_1_2_">
				<path fill="#A03C50" d="M42.1,81.9c-3-2.7-4.5-6.4-5-10.5c9.5,0.9,18.7-1.3,27.6-3.8c1.5,3,0.8,9.5-2.2,12.2
					c-0.4-0.3-0.8-0.8-1.2-1.1c-2-1.6-4.3-1.9-6.8-1.6c-3.8,0.6-7.2,2-10.1,4.5c-0.3,0.3-0.9,0.8-1.1,1.1
					C43.2,82.7,42.4,82.2,42.1,81.9z"/>
				<path fill="#CB6272" d="M43.3,82.8c0.7-0.6,1.5-1.4,2.2-1.9c3.1-2,6.3-3.4,10-3.7c2.6-0.2,5,0.7,6.7,3c-0.4,0.4-0.7,0.8-1.1,1.1
					c-5,3.7-10.5,4.6-16.3,2.2C44.3,83.4,43.3,82.8,43.3,82.8z"/>
				<path fill="#1D1D1B" d="M65.8,69c-0.1-0.7-0.4-1.3-0.7-2c-0.9,0.2-1.7,0.3-2.5,0.5c-3.2,0.7-6.3,1.5-9.5,2.2
					c-5.2,1.1-10.5,1.6-15.8,1.3c-0.1,0-0.3,0.1-0.5,0.1c0,0.7,0,1.3,0.1,2c0.5,3.5,2.1,6.5,4.7,9c0.3,0.3,1.5,1.5,3.5,2.2
					c5.6,1.8,10.8,1.3,15.7-2.2C65.2,78.7,66.8,74.4,65.8,69z M61,81.3c-5,3.7-10.4,4.5-16.2,2.2c-0.2-0.1-0.9-0.4-1.2-0.7
					c0.5-0.5,1.6-1.5,2-1.7c3.1-2,6.4-3.4,10.1-3.7c2.6-0.2,4.8,0.5,6.5,2.8C61.7,80.5,61.4,81,61,81.3z M62.4,79.5
					c-0.4-0.3-0.8-0.7-1.2-1c-2-1.6-4.4-1.9-6.8-1.5c-3.8,0.6-7.3,2-10.2,4.5c-0.1,0.1-0.8,0.7-1.1,1c-0.3-0.2-0.9-0.6-1-0.7
					c-3-2.7-4.5-6.2-4.9-10.3c9.5,0.9,18.4-1.3,27.3-3.8C66,70.7,65.5,76.8,62.4,79.5z"/>
			</g>
		</g>
	</g>
</g>
<g id="globo">
</g>
</svg>
