<?xml version="1.0" encoding="utf-8"?>
<!-- Generator: Adobe Illustrator 17.0.0, SVG Export Plug-In . SVG Version: 6.00 Build 0)  -->
<!DOCTYPE svg PUBLIC "-//W3C//DTD SVG 1.1//EN" "http://www.w3.org/Graphics/SVG/1.1/DTD/svg11.dtd">
<svg version="1.1" xmlns="http://www.w3.org/2000/svg" xmlns:xlink="http://www.w3.org/1999/xlink" x="0px" y="0px" width="100px"
	 height="100px" viewBox="0 0 100 100" enable-background="new 0 0 100 100" xml:space="preserve">
<g id="capa1">
</g>
<g id="personajes">
	<g>
		<defs>
			<rect id="SVGID_25_" x="0" y="0" width="100" height="100"/>
		</defs>
		<use xlink:href="#SVGID_25_"  overflow="visible" fill="#6F57A1"/>
		<clipPath id="SVGID_2_">
			<use xlink:href="#SVGID_25_"  overflow="visible"/>
		</clipPath>
		<g clip-path="url(#SVGID_2_)">
			<path fill="#CA9566" d="M44.3,93.1c0-0.1,0.5-1.5,0.5-2.1c2.4,0.6,4.8,1,7.6,1c1.5,0,3.2-0.2,4.6-0.5c-0.2,0.7,0.1,2,0.2,2.7
				c0.1,0.6,0.3,1.7,0.7,2.3c-4,2.3-10.7,1.9-14.8-0.1C43.9,95.9,44.1,94,44.3,93.1z"/>
			<path fill="#C2344D" d="M42.5,96.3c0.1,0,0.2,0,0.3,0c0,0,0,0,0,0c0,0.1,0.1,0.1,0.2,0.1c3.2,3.1,11.4,2.6,14.9,0.6
				c0.1,0,0.1-0.1,0.1-0.1c0,0,0.1,0,0.1-0.1c0-0.1,0-0.1,0-0.2c0.1,0,0.2,0.1,0.3,0.1c0.4,0.1,0.7,0.3,1.1,0.5
				c0.3,0.1,0.5,0.3,0.8,0.4c0,0.1,0,0.2,0.1,0.3c-6.4,4.5-14.6,3.6-20.9-0.5c0.7-0.1,1.3-0.6,2-0.8C41.8,96.5,42.1,96.4,42.5,96.3z
				"/>
			<path fill="#98734D" d="M51.3,96.1c-0.1-0.2-0.1-0.4-0.2-0.6c-0.1-0.4-0.8-0.2-0.6,0.2c0.1,0.2,0.1,0.4,0.2,0.6
				C50.8,96.8,51.5,96.6,51.3,96.1z"/>
			<path fill="#D77989" d="M58.6,97.5c-0.4,0.3-0.8,0.6-1.2,0.8c-0.5,0.2-1.1,0.4-1.5,0.7c-0.1,0.1,0,0.3,0.1,0.3c1,0.3,3-0.4,3-1.6
				C59,97.6,58.7,97.4,58.6,97.5z"/>
			<path fill="#B21734" d="M56.2,98.5c0.1,0,0.1-0.1,0.2-0.1c0.3-0.3,0.5-0.6,0.8-0.9c-3.8,1.7-11.2,1.9-14.2-1
				c-0.1,0-0.1-0.1-0.2-0.1c0,0,0,0,0,0c-0.1,0-0.2,0-0.3,0c-0.3,0.1-0.7,0.2-1,0.3c-0.7,0.2-1.3,0.7-2,0.8c2.1,1.4,4.5,2.4,6.9,3
				C49.5,99.4,53.1,99.5,56.2,98.5z"/>
			<path fill="#98734D" d="M50.9,91.2c-1.9,0.1-4,0.2-5.8-0.3c-0.2-0.1-0.5,0.1-0.5,0.4c0,1.4-0.6,2.6-0.7,4
				c-0.2,0.3-0.5,0.6-0.7,0.9c-0.3,0.3,0.1,0.6,0.4,0.5c0,0.1,0.1,0.1,0.1,0.2c0.1,0.1,0.2,0.1,0.3,0.2c0.1,0,0.1,0,0.2,0
				c0.9,0.5,1.8,0.9,2.9,1.2c0.1,0,0.2,0,0.3,0c0.1,0,0.1,0,0.2,0c0.3,0,0.4-0.4,0.1-0.6c0-0.1-0.1-0.2-0.2-0.3
				c-0.2-0.1-0.4-0.2-0.6-0.4c0-0.1-0.1-0.2-0.1-0.2c0-0.1,0-0.3,0-0.4c0-0.7,0.4-1.5,0.8-1.9c0.3-0.4,0.6-0.7,1-1
				c0.8-0.5,1.7-0.9,2.7-1.3C51.5,92,51.5,91.2,50.9,91.2z"/>
			<path fill="#C2344D" d="M71.9,149.1c-3.4,0.8-4.5,1-6.7-1.4c0,0,0-0.1,0-0.1c-0.7-0.5-1.1-1.2-0.8-2.1c0,0,0,0,0,0
				c-0.1-0.1-0.2-0.2-0.2-0.3c-0.4-0.6-0.5-1.6,0.1-2.1c0,0,0,0,0,0c-0.2-0.3-0.3-0.6-0.3-1c-0.1-0.9,0.3-1.8,0.9-2.4c0,0,0,0,0,0
				c0.6-0.7,1.6-0.9,2.4-1.1c0.1,0,0.1,0,0.2,0c1.1-0.2,2.4,0.2,3.5,0.6c0.2-0.3,0.4-0.6,0.6-0.9c-0.9-5.1-1.3-10.3-2-15.5
				c0,0,0,0,0,0c0-0.2,0-0.4-0.1-0.6c0,0,0,0,0,0c-0.2-1.7-0.5-3.3-0.8-5c0-0.2,0.2-0.2,0.3-0.1c0.5,1.5,0.8,2.9,1.1,4.4
				c1.6-1.8,3.5-3.2,5.4-4.5c2.5-1.7,4.9-3.7,7.4-5.2c-3.8-2.4-5.9-6.5-9.6-9.1c-3.8-2.7-8.1-4.3-12.6-5.3c0.1,0.1,0.2,0.2,0.2,0.3
				c0,0.1,0,0.1-0.1,0.1c0,0,0,0-0.1,0c0,0,0,0,0,0.1c-7,5.8-15.4,4.7-21.2-0.4l0,0c-0.1,0-0.2-0.1-0.2-0.2c-4.5,1-8.8,2.6-12.6,5.3
				c-3.7,2.6-5.8,6.7-9.6,9.2c2.6,1.5,5,3.5,7.5,5.2c1.9,1.3,3.7,2.6,5.2,4.3c0.4-1.2,0.7-2.5,1.2-3.6c0-0.1,0.2-0.1,0.2,0.1
				c-0.2,1.4-0.5,2.8-0.8,4.2c-0.1,0.5-3.1,11.4-4.1,16.8c-1.3,6.8-1.9,13.8-4.5,20.3c1.3,0.9,2.9-0.5,4.3-0.2
				c0.3-0.3,0.6-0.6,1-0.9c2.3-1.9,5.9-3.8,8.8-1.7c0,0,3.2,1.3,4.7,2.1c0.3,0.2,0.6,0.3,1,0.5c2.7,0.1,5.4,0.2,8.1,0
				c3-0.2,5.9-0.7,8.8-1c0,0,0,0,0.1,0c1.5-0.8,3-1.5,4.7-2c0,0,0.1,0,0.1,0c4.1-1.7,7.5,0,10,3.1c0.8,0.2,1.6,0.3,2.4,0.3
				c0.8,0,1.5-0.3,2.2-0.5c-2.1-3-3.3-6.6-4.3-10.2C73,148.8,72.4,149,71.9,149.1z"/>
			<path fill="#B21734" d="M61.8,155c-1-0.2-2.1,0-3.1,0.1c-4.4,0.3-8.4-3.2-10.2-7.2c-0.6-1.2-1-2.5-1-3.8c0-1.1,0.2-2.2,0.4-3.3
				c-3.3,2.5-7.5,4.3-11.2,5.5c-0.2,0.1-0.3-0.2-0.1-0.3c2.7-1.2,5.3-2.4,7.8-4c1.5-0.9,2.8-2,4-3.1c0.9-3.9,1.5-7.9,1.6-11.9
				c0-0.4-0.1-0.9-0.1-1.3c-0.3-2.1-0.5-4.2-0.9-6.3c-0.6-2.9-1.9-5.7-2.4-8.6c-1.2-2.6-3.2-7.1-3.2-7.1c-0.3-1.1,1.5-2.7,2-2.8
				c0,0,0,0,0-0.1c-2.2-0.7-3.4-1.5-5.2-3c-0.1-0.1-0.9-0.6-0.8-0.6c0,0-0.7,0.1-0.7,0.1c-4.5,1-8.5,2.7-12.3,5.5
				c-3.7,2.6-5.8,6.7-9.6,9.2c2.6,1.5,5,3.5,7.5,5.2c2.3,1.6,3.9,2.3,5.6,4.5c0.2,0.3-0.2,1.4-0.4,1.9c-0.1,0.2-0.2,0.8-0.4,1.8
				c-1,3.8-2.3,9.7-3,13.3c-1.3,6.8-1.8,13.8-4.5,20.3c1.2,1.1,3.1-0.3,4.4,0c0.3-0.3,0.8-0.7,1.1-1c2.3-1.9,5.5-3.7,8.4-1.7
				c0,0,0.5,0.2,0.5,0.2c1.5,0.7,2.8,1.2,4.3,1.9c0.3,0.2,0.9,0.4,1.3,0.5c2.7,0.1,5.3,0.3,8,0.1c3-0.2,5.4-0.8,8.3-1
				c0,0,0.8-0.1,0.8-0.1c1.5-0.8,2.7-1.4,4.4-1.9C63.1,156,62.3,155.1,61.8,155z M35.4,101.6c-2,5.1-3.1,11-4.4,16.2
				c0,0.1-0.3,0-0.3,0c-0.2-0.1-0.1-0.5-0.1-0.7c1.3-5.2,2.1-10.5,4.1-15.5C35,101.1,35.7,101.1,35.4,101.6z"/>
			<g>
				<path fill="#1A1A19" d="M44.4,91.1c-0.4,0.2-0.4,1.5-0.5,2c-0.1,0.6-0.3,1.2-0.5,1.7c-0.2,0.5-0.6,1-0.6,1.5
					c0,0.1,0.1,0.3,0.3,0.2c1.1-0.4,1.4-2.5,1.7-3.5C44.7,92.9,45,90.7,44.4,91.1L44.4,91.1z"/>
			</g>
			<g>
				<path fill="#1A1A19" d="M57,91.6c-0.4,0.8-0.1,1.9,0,2.7c0.1,0.8,0.1,2.2,0.9,2.7c0.1,0.1,0.2,0,0.2-0.1
					c0.2-0.7-0.3-1.7-0.4-2.5c-0.1-0.9,0-2-0.3-2.8C57.3,91.5,57.1,91.4,57,91.6L57,91.6z"/>
			</g>
			<g>
				<path fill="#1A1A19" d="M51.2,95.4c0.1,0.4-0.1,0.7,0,1.1c0,0.2,0.2,0.3,0.4,0.2c0.4-0.4,0.3-1.1-0.1-1.4
					C51.3,95.2,51.2,95.3,51.2,95.4L51.2,95.4z"/>
			</g>
			<g>
				<path fill="#1A1A19" d="M42.8,96.3c3,3.3,11.6,2.8,15.1,0.8c0.4-0.2,0-0.9-0.4-0.6c-4.1,2.4-10.5,1.8-14.6-0.3
					C42.8,96.1,42.7,96.2,42.8,96.3L42.8,96.3z"/>
			</g>
			<g>
				<path fill="#1A1A19" d="M42.9,95.8c-1.1,0.3-2.8,0.4-3.6,1.4c-0.1,0.1,0,0.3,0.2,0.3c0.7-0.1,1.4-0.6,2-0.8
					c0.5-0.2,1-0.3,1.5-0.5C43.2,96.1,43.1,95.7,42.9,95.8L42.9,95.8z"/>
			</g>
			<g>
				<path fill="#1A1A19" d="M39.1,97.2c5.8,5.3,14.4,6.6,21.6,0.7c0.3-0.3-0.1-0.9-0.4-0.6c-6.3,5.4-14.7,4.4-21-0.3
					C39.2,96.8,39,97,39.1,97.2L39.1,97.2z"/>
			</g>
			<g>
				<path fill="#1A1A19" d="M57.9,96.5c0.1,0.1,0.3,0.1,0.5,0.2c0.3,0.1,0.6,0.2,1,0.4c0.3,0.1,0.6,0.3,0.8,0.4
					c0.2,0.1,0.3,0.3,0.6,0.2c0.1,0,0.1-0.1,0.1-0.1c0-0.4-0.9-0.7-1.3-0.9c-0.4-0.2-1.3-0.6-1.7-0.4C57.8,96.4,57.8,96.5,57.9,96.5
					L57.9,96.5z"/>
			</g>
			<g>
				<path fill="#1A1A19" d="M39.4,97c-4-0.3-8.2,2.1-11.5,4c-4.5,2.6-7,7.3-11.2,10.4c-0.3,0.2,0,0.7,0.3,0.5
					c3.9-2.5,5.9-6.6,9.6-9.2c3.8-2.8,8.3-4.4,12.9-5.4C39.6,97.2,39.6,97,39.4,97L39.4,97z"/>
			</g>
			<g>
				<path fill="#1A1A19" d="M60.5,97c4-0.3,8.2,2.1,11.5,4c4.6,2.6,7.1,7.3,11.2,10.3c0.3,0.2,0,0.7-0.3,0.5c-3.9-2.4-6-6.5-9.7-9.2
					c-3.9-2.8-8.3-4.4-12.9-5.4C60.3,97.2,60.3,97,60.5,97L60.5,97z"/>
			</g>
			<g>
				<path fill="#1A1A19" d="M63.5,99.8c3.1,4,3.6,8.7,4.7,13.5c0,0.2,0.3,0.1,0.3-0.1c-0.7-4.6-1.4-10.1-4.8-13.5
					C63.6,99.6,63.5,99.7,63.5,99.8L63.5,99.8z"/>
			</g>
			<g>
				<g>
					<path fill="#CA9466" d="M87.6,50.9c0-0.1,0-0.3,0-0.4c-0.1-0.5-0.4-1.2-0.7-1.7c-0.4-0.6-1-1.4-1.6-1.8c-0.6-0.4-1.1-0.7-2-0.7
						c-1.5,0-2.5,1.5-2.8,1.8c-0.4,0.3-1.1,1.4-1.2,1.7c-0.2,0.4-0.4-0.2-0.6-0.4c-0.1-0.2-0.6-1.3-0.7-1.6c-0.1-0.2-0.5-2-0.6-2.4
						c0-0.1,0.5-4,0.1-5c-0.1-0.2-0.4-0.9-0.6-1.2c0-0.1-1.6-2-1.6-2c-1-0.6-2-2.3-2.6-5.4c-0.3-0.1-0.8,0-1.1,0c-0.7,0-1.4,0-2,0
						c-1.6,0-3.1-0.4-4.7-0.3c-2,0.1-4.6,0.5-6.6,0.4c-3.7-0.2-7.7-1.4-10.5-0.8c-6.4,1.5-11.2,2.3-12.3,2.3c-0.2,0-4.8-0.5-6.4-1.7
						c-0.2-0.1,0,1,0,1c0.1,1.6-0.7,2.6-1.8,4.1c-0.9,1.2-1.8,2.7-2.1,4.2c-0.2,1.3-0.3,2.6-0.4,3.8c0.5,2.4,0.5,6.3-2.5,7.3
						c-0.6,0-1.6-2.2-1.7-2.3c-0.1-0.1-2-2.4-2.5-2.2c-1.3,0.5-4.2,2.3-3.5,7.2c0.4,3.2,3,5.5,6.3,5.5c0,0,0.3,0.1,0.5,0.1
						c1.6,7,3.3,13.5,7.6,19.8c5,7.3,13.9,12.3,23,11.6c7.2-0.5,12.8-3.5,17.2-7.9c1-1.1,2.2-2,3.1-3.2c1-1.1,1.8-2.3,2.6-3.5
						c0.8-1.3,1.5-2.6,2.1-3.9c0.6-1.3,1.2-2.7,1.7-4.1c0.5-1.6,0.9-3.2,1.3-4.8c0.1-0.5,0.2-0.9,0.3-1.4c0.3-1.3,0.7-4.5,0.7-4.3
						c0.5,0.1,1.8,0.2,2.4,0.1c0.6-0.1,1.6-0.6,2-1c2.9-2.7,2.6-5.5,2.6-5.8C87.9,51.8,87.6,51.3,87.6,50.9z"/>
					<path fill="#3E2723" d="M88.1,34.5c0-0.5,0-0.6-0.3-1.1c-0.1-0.2-0.3-0.3-0.5-0.3c0-0.5-0.1-0.9-0.5-1.3c0,0-0.1-0.1-0.1-0.1
						c0,0,0,0,0-0.1c0-0.5-0.1-0.9-0.4-1.3c0.2-0.1,0.2-0.3,0.1-0.5c-0.2-0.2-0.4-0.4-0.7-0.5c0,0-0.1-0.1-0.1-0.1
						c0,0-0.1-0.1-0.1-0.1c0,0,0,0,0-0.1c-0.3-0.3-0.6-0.6-0.9-1c-0.3-0.4-0.7-0.6-1.2-0.8c-1.2-1.4-2.1-2.9-2.9-4.7
						c-0.2-0.6-0.5-1.2-0.7-1.8c0.2-0.1,0.3-0.3,0.2-0.4c-0.5-1-1-1.9-1.5-2.9c0.1-0.1,0.2-0.2,0.2-0.4c-0.1-0.9-0.9-1.4-1.4-2.1
						c0,0,0,0-0.1-0.1c0,0,0-0.1,0-0.1c-1.3-2.3-5-3-7.4-2.6c-0.1,0-0.2,0.1-0.3,0.1c-0.3,0-0.5,0-0.7,0c0,0,0,0,0,0
						c-1.4-0.2-2.9,0.2-4.3,0.5c-0.1-0.1-0.2-0.2-0.3-0.1c-1.3,0.2-2.6,0.3-4,0.4c-0.3-0.1-0.6-0.1-0.9-0.1c0,0,0,0,0,0
						c-0.5-0.2-1.1-0.2-1.6-0.3c-0.2,0-0.5-0.1-0.7-0.1c-0.3-0.3-0.6-0.4-1-0.6c-0.4-0.2-0.8-0.6-1.2-0.9c-0.3-0.3-0.5-0.5-0.8-0.9
						c-0.1-0.2-0.2-0.3-0.3-0.5c0.2-0.3-0.2-0.6-0.4-0.3c0,0,0,0,0,0c-1.2-0.1-2.5,0.7-3.5,1.1c-0.6,0.3-1.1,0.7-1.6,1.1
						c-0.5,0.5-1.2,0.8-1.8,1.2c-0.5,0-0.8,0.1-1.2,0.2c-0.8,0.3-1.7,0.2-2.5,0.2c-0.2,0-0.3,0-0.5-0.1c0,0-0.1-0.1-0.1-0.1
						c-0.4-0.2-0.8-0.4-1.2-0.6c-0.4-0.5-1.1-0.9-1.6-1.2c-0.4-0.3-1-0.5-1.6-0.7c-0.3-0.1-0.6-0.3-0.9-0.3c-0.3,0-0.5,0.1-0.8,0.2
						c-1.2-0.2-2.6,0.8-3.5,1.4c-0.4,0.3-0.8,0.8-1.2,1.1c-0.9,0.7-1.5,1.7-2.3,2.5c-0.6,0.6-1.2,1.4-1.3,2.3c0,0,0,0.1,0,0.1
						c-0.5,0.7-1,1.3-1.4,1.9c-1.5,1.8-2.9,3.2-5,4.2c-0.9,0.4-2.3,0.3-3.4,0.4c-3,0.7-3.8,10-3.7,11.8c0.1,4.2,1.4,7.9,2.9,11.8
						c0.2-0.1,0.6-0.2,0.9-0.3c0.1,0,0.3,0.2,0.3,0.3c1,0,1.3,0.7,1.9,1.4c0.4,0.5,0.9,2.6,2.1,2.8c3.1-1.3,2.4-3.3,2.5-6.5
						c0-0.1,0-2.4,0-2.4c-0.1-1.1-0.3-2.7,0.4-3.5c3.5-4.4,3.8-8.1,3.9-8.1c3.8,1.9,8.1,1.6,12.2,0.8c2.4-0.5,4.1-1.5,6.6-1.5
						c3.4-0.5,6.8,0.6,10.3,0.8c2.8,0.2,5.7-0.5,8.5-0.2c0,0,3.5,0.1,3.5,0.1c0.4,0,2.2-0.3,2.5,0.1c0.2,0.2,0.7,2.2,0.9,2.9
						c0.1,0.5,0.3,1,0.6,1.4c0.3,0.4,0.6,0.9,1.1,1.1c1.7,0.8,2,2.9,2.1,3c0,0.1,0.2,2.3,0.2,2.4c0,0.2-0.1,0.3-0.1,0.5
						c-0.2,0.9,0.1,1.6,0.1,2.5c0,0.3,0,0.6,0.1,1c0.1,0.5,1.3,3.4,1.6,3.3c0.3,0,0.5-1,0.6-1.2c0.2-0.3,1.2-1.5,1.8-1.8
						c1-0.6,2.3-0.9,3.4-0.3c0.3,0.2,0.7,0.4,1,0.6c0.2,0.2,0.5,0.6,0.7,0.8c0.1,0.1,0.7,0.6,0.7,0.7c0.6-1.5,0.4-3.5,0.2-5.2
						c0.2-0.1,0.4-0.4,0.3-0.7c-0.5-1.8-0.5-3.2,0.1-5c0.4-1.1,0.2-2.1,0.1-3.1C88.1,34.8,88.1,34.7,88.1,34.5z"/>
					<path fill="#2E1C19" d="M88,45.6c0.1-0.3,0.2-0.7,0.1-1c0,0,0,0,0,0c0-0.1,0-0.2-0.1-0.3c-0.1-0.2-0.5-0.2-0.5,0.1
						c0,0.1,0,0.1,0,0.2c-0.1,0.1-0.1,0.1-0.1,0.2c0,0.2,0,0.3-0.1,0.5c-0.2,0.4-0.5,0.8-0.9,1c-0.2,0.1-0.4,0.1-0.6,0.2
						c-0.1,0-0.3,0-0.4,0c-0.2,0-0.2,0.2-0.2,0.3c0,0,0,0,0,0.1c0,0.1,0.1,0.2,0.1,0.2c0.1,0.1,0.3,0.2,0.5,0.2c0,0.2,0,0.3,0.2,0.4
						c0.3,0.1,0.4,0.3,0.6,0.5c0,0.2,0.3,0.3,0.4,0.3c0,0,0,0,0,0c0.1,0,0.2,0,0.3,0c0,0,0,0,0,0c0.4,0,0.6-0.4,0.4-0.7
						c-0.2-0.4,0-0.9,0.1-1.3c0-0.2,0.1-0.3,0.1-0.5C88,45.8,88,45.7,88,45.6C88,45.6,88,45.6,88,45.6z"/>
					<path fill="#3E2723" d="M28.4,18.1c0.1-0.2,0.1-0.4-0.1-0.5c0,0,0,0,0,0c0-0.2-0.3-0.3-0.4-0.1c0,0,0,0.1-0.1,0.1
						c0,0,0,0-0.1,0c-0.2,0.2-0.4,0.5-0.5,0.7c-0.8,1.1-1.6,2.2-2.6,3.1c-1,1-2.1,1.7-3.3,2.5c-0.4,0.3-0.2,0.9,0.3,0.8
						c1.2-0.3,2.3-1.6,3.2-2.4c1-0.9,1.9-2,2.7-3.1c0.1,0,0.2-0.1,0.3-0.2c0.1-0.2,0.2-0.4,0.3-0.6C28.2,18.3,28.3,18.2,28.4,18.1
						C28.3,18.1,28.3,18.1,28.4,18.1z"/>
					<path fill="#2E1C19" d="M27.6,35.7c0.7-1.1,2.1-3.8,0.9-4.9c-2.1-2.1-5.1-3.8-6.1-6.7c-0.1-0.2-0.3-0.4-0.6-0.3
						c-1.6,0.5-3.1-0.1-4.6,0.8c-0.9,0.6-1.5,1.8-2.2,2.6c0,0,0,0,0,0c-0.1,0.4-0.3,0.7-0.4,1.1c0.2,0.1,0.4,0.2,0.6,0
						c0.1-0.1,0.2-0.2,0.3-0.3c0,0,0,0,0,0c-0.2,0.3-0.5,0.5-0.8,0.9c-0.1,0.1-0.2,0.2-0.2,0.4c-0.2,3.2-1.4,6.4-0.9,9.7
						c0.5,3.2,1.7,6.2,3.2,9.1c0.2,0.3,0.6,0.4,0.9,0.1c0.1-0.1,0.2-0.2,0.3-0.4c0.1,0.1,0.2,0.2,0.4,0.3c0,0,0,0,0.1,0
						c1.2,1.3,2.6,2.2,3,4.1c0.1,0.5,0.7,0.7,1.1,0.4c2.3-1.4,3-3.3,2.7-6c-0.2-1.7-0.5-3.4-0.4-5.2C24.9,39.1,26.4,37.4,27.6,35.7z
						"/>
					<path fill="#98734D" d="M64.8,87.8c-0.2,0-0.5,0-0.7,0.1c0.3-0.2,0.5-0.4,0.7-0.6c0.1-0.1,0-0.2-0.1-0.1
						c-1.1,0.5-2.2,0.9-3.3,1.4c-0.9,0.2-1.7,0.6-2.6,0.9c-1.5,0.5-3,0.9-4.6,1.2c-0.3,0-0.6,0.1-0.9,0.1c-1.8-0.2-3.6-0.2-5.4-0.3
						c-0.5-0.1-1.2-0.2-1.9-0.3c-0.7-0.2-1.3-0.3-2-0.5c-0.1,0-0.2-0.1-0.3-0.1c-0.6-0.2-1.1-0.5-1.7-0.8c-2-1.3-3.9-3-5.9-4.3
						c-5.1-3.6-8.8-8.1-10.7-14.2c-0.8-2.7-1.2-4.8-2-7.5C23,61,22.3,59.6,22,58c-0.2-0.7-0.3-1.5-0.5-2.2c-0.1-0.3-0.2-1-0.6-1
						c-0.8,0-0.5,2-0.4,2.5c0.1,0.4-0.6,0-1.1,0c-0.5-0.1-1-0.1-1.5-0.3c-0.8-0.3-1.6-0.7-2.3-1.3c-0.3-0.3-1.2-1.5-1.3-0.6
						c0,0,0.7,2.3,1.2,3c1.7,2.7,4.9,2.7,5.2,2.6c0.2-0.1,0.7,0.3,0.4,0c0,0,0.4,1.4,0.5,2.1c0.7,3,1.8,5.6,2.7,8.6
						c0.8,2.6,1.8,5.5,3.5,7.6c0.3,0.4,0.6,0.8,1,1.1c0.8,1.9,2.4,3.5,4.1,4.8c0.1,0.1,0.2,0.2,0.3,0.3c0,0.1,0,0.1,0.1,0.1
						c1.1,1.2,2.4,2,3.8,2.7c0.4,0.4,0.8,0.8,1.3,1c1.2,1.1,3.2,1.5,4.8,1.9c0.3,0.1,0.5,0.2,0.8,0.4c1.8,0.2,3.6,0.7,5.4,1.2
						c1.3,0,2.6,0,3.8,0c0.4-0.1,0.9-0.2,1.3-0.2c-0.1-0.1-0.2-0.2-0.4-0.2c-0.5,0.1-1,0.2-1.5,0.3c0-0.1-0.1-0.1-0.2-0.2
						c0,0,0,0,0.1-0.1c0.3,0,0.7,0,1,0c0.2,0,0.3-0.2,0.3-0.4c0.2,0,0.4-0.1,0.6-0.1c0.5-0.1,1.1-0.3,1.6-0.4
						c1.2-0.2,2.3-0.4,3.4-0.7c0.2,0,0.2-0.2,0.1-0.3c0.4-0.1,0.7-0.3,1-0.5c0,0,0-0.1,0-0.1c-0.1,0-0.3,0-0.4,0
						c0.1,0,0.2-0.1,0.3-0.1c0.1,0,0.1,0,0.2,0c0,0,0.1-0.1,0.1-0.1c1.1-0.3,2.3-0.6,3.5-0.6c0.4,0,0.5-0.6,0.1-0.7c0,0,0,0-0.1,0
						c0.1-0.1,0.3-0.2,0.4-0.3C64.9,87.9,64.9,87.8,64.8,87.8z"/>
					<path fill="#98734D" d="M18.3,55c-0.3-0.8-0.6-1.7-0.4-2.5c0.1-0.2-0.2-0.4-0.3-0.3c-0.9,0.5-0.3,2.3-0.1,3
						C17.7,55.8,18.6,55.5,18.3,55z"/>
					<path fill="#CA9466" d="M24.1,51c-0.5,0.6-1.2,1-1.8,1.5c-0.3,0.2,0.1,0.7,0.4,0.5c0.7-0.5,1.3-0.9,1.9-1.5
						C24.9,51.1,24.4,50.6,24.1,51z"/>
					<path fill="#98734D" d="M72.3,44.8c-0.3-0.4-0.7-0.8-1.1-1.1c-0.7-0.8-1.8-1.4-2.7-1.8c-0.5-0.2-0.9,0.4-0.5,0.8
						c1.1,1,2.6,1.5,3.5,2.7C71.8,46,72.7,45.4,72.3,44.8z"/>
					<path fill="#98734D" d="M86.4,55.3c-0.9,0.3-1.7,0.4-2.6,0.5c-0.9,0-1.7-0.4-2.6-0.6c-0.3-0.1-0.2,3-0.2,3.7
						c0,0,1.9,0.5,3.2-0.2c0.6-0.3,2.8-2.7,2.8-2.9C86.9,55.4,86.7,55.2,86.4,55.3z"/>
					<path fill="#98734D" d="M84.7,51.9c0-0.3-0.5-0.3-0.6-0.1c-0.2,0.4-0.3,1-0.4,1.5c0,0.1,0.1,0.3,0.2,0.3c0.1,0,0.1,0.1,0.2,0
						c0.2,0,0.3-0.1,0.4-0.3C84.6,53,84.7,52.3,84.7,51.9z"/>
					<path fill="#DEBCA0" d="M76.5,64.5c-0.1-0.4-0.6-0.3-0.6,0.1c-0.1,3.1-1.3,5.4-2.8,8c-0.5,0.9-0.9,1.9-1.4,2.8
						c-0.6,1-1.5,1.8-2.1,2.8c-0.3,0.5,0.2,1.1,0.8,1c2.3-0.6,3.4-3.8,4.2-5.7C75.9,70.8,77.1,67.6,76.5,64.5z"/>
					<path fill="#DEBCA0" d="M85.8,48.5c-0.8-0.8-1.9-1.2-3-1c-0.4,0.1-0.3,0.6,0.1,0.6c0.7,0,1.5,0.5,2.1,0.9
						c0.3,0.3,0.6,0.6,0.8,1c0.2,0.3,0.1,0.7,0.2,1c0.1,0.4,0.7,0.5,0.8,0.1C87.3,50.2,86.5,49.1,85.8,48.5z"/>
					<path fill="#DEBCA0" d="M75.6,39.8c-0.3-0.6-0.8-1.2-1.3-1.7c-0.3-0.3-0.7,0.1-0.5,0.4c0.2,0.5,0.6,0.9,0.9,1.3
						c0.1,0.2,0.1,0.4,0.2,0.6c0-0.1,0,0.2,0,0.3c0,0.1,0.1,0.1,0.1,0.1C75.7,41.1,75.8,40.2,75.6,39.8z"/>
					<path fill="#DEBCA0" d="M52.8,60.2c-0.3-0.4-0.8-0.7-1.1-1.1c-0.4-0.4-0.6-0.9-1-1.3c-0.2-0.2-0.5,0-0.5,0.3
						c0.1,0.6,0.5,1.1,0.9,1.6c0.4,0.4,0.8,0.9,1.4,1C52.7,60.8,52.9,60.4,52.8,60.2z"/>
					<path fill="#65524F" d="M85.6,34c-0.4-3.4-3.3-5.4-4.4-8.5c-0.1-0.2-0.3-0.3-0.5-0.3c-0.3,0-0.7,0.1-1,0.2
						c-0.2,0.1-0.2,0.3,0,0.4c1,0.3,1,1.6,1.4,2.4c0.8,1.4,1.9,2.6,2.5,4.1c0.7,1.7,0.6,3.6,0.2,5.3c-0.2,1-0.8,1.7-0.4,2.7
						c0.1,0.2,0.3,0.2,0.4,0.2C86.1,40.2,85.8,35.5,85.6,34z"/>
					<path fill="#65524F" d="M75.8,15.8c-1.1-2.4-5.4-3-7.6-2c-0.3,0.1-0.2,0.6,0.1,0.6c1,0.3,2,0.1,3,0.1c1.6,0.1,2.5,1.3,3.9,1.9
						C75.6,16.6,76,16.2,75.8,15.8z"/>
					<path fill="#1A1A19" d="M35.6,53.3c-0.9,0.2-1.6,0.2-2.3,1c-1,1.3-0.8,3.1,0.9,3.7c1.3,0.5,3.4,0,3.9-1.4
						c0.5-1.4-0.9-3.1-2.2-3.3c-0.5-0.1-1.2,0-1.7,0.2"/>
					<path fill="#FFFFFF" d="M36.5,54c-0.5,0.1-1.5,0.8-0.6,1.4C37.4,56.4,38.1,54.3,36.5,54"/>
					<path fill="#1A1A19" d="M68.2,53.2c-0.9,0.2-1.6,0.2-2.3,1c-1,1.3-0.8,3.1,0.9,3.7c1.3,0.5,3.4,0,3.9-1.4
						c0.5-1.4-0.9-3.1-2.2-3.3c-0.5-0.1-1.2,0-1.7,0.2"/>
					<path fill="#FFFFFF" d="M69,54c-0.5,0.1-1.6,0.9-0.6,1.6C70.1,56.7,70.7,54.3,69,54"/>
					<g>
						<path fill="#1A1A19" d="M73.5,45c-0.1-0.8-0.9-1.6-1.5-2.1c-1-0.8-1.9-1.2-3.1-1.6c-0.4-0.1-0.7,0.4-0.4,0.7
							c0.9,0.6,1.8,1.4,2.6,2c0.6,0.5,1.3,1.1,2.1,1.2C73.4,45.3,73.5,45.1,73.5,45L73.5,45z"/>
					</g>
					<path fill="#98734D" d="M31.5,51c0.4-0.4,0.9-0.6,1.3-0.8c0.9-0.6,2.1-1,3.1-1.1c0.6-0.1,0.8,0.6,0.3,0.9
						c-1.3,0.8-2.9,0.8-4.1,1.8C31.7,52.3,31,51.5,31.5,51z"/>
					<g>
						<path fill="#1A1A19" d="M30.3,50.9c0.3-0.8,1.3-1.3,2-1.6c1.1-0.5,2.1-0.7,3.3-0.8c0.4,0,0.6,0.6,0.2,0.7c-1,0.4-2,0.9-3,1.3
							c-0.7,0.3-1.5,0.8-2.3,0.7C30.3,51.2,30.3,51,30.3,50.9L30.3,50.9z"/>
					</g>
					<g>
						<path fill="#1A1A19" d="M20,55.3c2.3,18.3,10.5,37.5,31.8,37.4c19-0.1,29.1-21.4,29.7-37.8c0-0.4-0.6-0.4-0.7,0
							c-1.8,16.9-9.9,35.6-29.1,37c-9.1,0.7-17.9-4.3-23-11.6c-5.3-7.7-6.4-16.1-8.6-25C20.2,55.1,20,55.1,20,55.3L20,55.3z"/>
					</g>
					<g>
						<path fill="#1A1A19" d="M17.7,47.6c-6.7,2.6-3.9,13.7,3.1,13.3c0.4,0,0.4-0.6,0-0.6c-3.3,0-5.4-2.2-6.1-5.3
							c-0.7-3.2,0.5-5.3,3.2-7C18,47.9,17.9,47.6,17.7,47.6L17.7,47.6z"/>
					</g>
					<g>
						<path fill="#1A1A19" d="M17.6,52.3c-1.1,0.5-0.7,2.9,0.4,3.3c0.1,0,0.2-0.1,0.2-0.2c-0.3-1-0.9-1.9-0.4-3
							C17.8,52.4,17.7,52.3,17.6,52.3L17.6,52.3z"/>
					</g>
					<g>
						<path fill="#1A1A19" d="M81,59c3.7,1.7,6.9-3,7.2-6.2c0.3-2.8-2.2-8.2-5.7-6.6c-0.2,0.1-0.1,0.4,0.1,0.4
							c7.2,0,5.7,12.9-1.5,12.1C81,58.7,80.9,58.9,81,59L81,59z"/>
					</g>
					<g>
						<path fill="#1A1A19" d="M84.4,51.4c0,0.1,0.1,0.3,0.2,0.4c0.1,0.2,0.1,0.4,0.1,0.7c0,0.4-0.2,0.9-0.2,1.3
							c0,0.2,0.3,0.4,0.4,0.2c0.3-0.4,0.4-1.2,0.3-1.7c-0.1-0.4-0.3-1.1-0.8-0.9C84.4,51.3,84.4,51.4,84.4,51.4L84.4,51.4z"/>
					</g>
					<g>
						<path fill="#1A1A19" d="M17.6,47.9c0.4,0.3,0.9,0.5,1.3,0.9c0.5,0.4,0.8,0.9,1.2,1.4c0.5,0.7,0.9,2,1.7,2.4
							c0.1,0.1,0.3,0,0.2-0.2c-0.1-0.5-0.5-1-0.8-1.5c-0.3-0.5-0.6-1-1-1.5c-0.6-0.7-1.5-1.8-2.6-1.8C17.6,47.7,17.5,47.8,17.6,47.9
							L17.6,47.9z"/>
					</g>
					<g>
						<path fill="#1A1A19" d="M22,52.5c3.6-0.3,3.6-7,2.5-9.3c-0.1-0.1-0.2-0.1-0.2,0.1c-0.2,3.2,1.1,7.1-2.3,9.1
							C21.8,52.4,21.9,52.5,22,52.5L22,52.5z"/>
					</g>
					<g>
						<path fill="#1A1A19" d="M24.9,45.3c0.1-1.5-0.1-2.9,0.2-4.4c0.3-1.5,1.5-2.8,2.4-4c1.2-1.5,2.2-3.4,1.3-5.3
							c-0.1-0.1-0.3-0.1-0.3,0.1c-0.1,3.6-2.4,5.2-3.8,8.2c-0.8,1.6-0.5,3.7-0.1,5.3C24.7,45.4,24.9,45.4,24.9,45.3L24.9,45.3z"/>
					</g>
					<g>
						<path fill="#1A1A19" d="M28.7,31.8c5.8,4.1,14.3,0.5,20.4-0.5c0.3,0,0.2-0.5-0.1-0.5c-2.8-0.3-5.3,1-8,1.5
							c-4,0.8-8.5,1.2-12.3-0.7C28.7,31.5,28.6,31.7,28.7,31.8L28.7,31.8z"/>
					</g>
					<g>
						<path fill="#1A1A19" d="M46.9,31.2c3.5,0.1,6.9,0.6,10.3,1c3.9,0.5,7.5-0.2,11.4-0.2c0.3,0,0.3-0.4,0.1-0.4
							c-3.2-0.9-6.8,0.2-10.1,0c-3.9-0.3-7.8-1.6-11.7-0.5C46.8,31,46.8,31.2,46.9,31.2L46.9,31.2z"/>
					</g>
					<g>
						<path fill="#1A1A19" d="M67.2,31.4c0.6,0.5,1.5,0.7,2.3,0.8c1,0.1,2.2,0.2,3.1-0.3c0.1-0.1,0.1-0.3,0-0.3
							c-0.7-0.2-1.6,0-2.3,0c-1,0-2-0.3-3-0.3C67.2,31.2,67.2,31.3,67.2,31.4L67.2,31.4z"/>
					</g>
					<g>
						<path fill="#1A1A19" d="M72.5,31.6c-0.3,0.7,0.2,2.8,0.5,3.5c0.4,0.8,0.9,1.4,1.5,2c0.9,0.9,1.7,1.6,2.4,2.6
							c0.2,0.2,0.5,0.1,0.4-0.2c-0.3-1.4-1.7-2.3-2.7-3.2c-1.4-1.3-1.1-2.9-1.7-4.6c-0.1-0.1-0.1-0.2-0.3-0.2c0,0-0.1,0-0.1,0
							C72.6,31.5,72.5,31.6,72.5,31.6L72.5,31.6z"/>
					</g>
					<g>
						<path fill="#1A1A19" d="M79.2,50.2c0.3-0.1,0.4-0.3,0.5-0.6c0.3-0.4,0.5-0.8,0.8-1.2c0.3-0.4,0.7-0.8,1.1-1.1
							c0.4-0.3,0.9-0.4,1.2-0.8c0.1-0.1,0-0.3-0.1-0.3c-0.9-0.2-1.9,1-2.4,1.6c-0.3,0.4-0.6,0.8-0.8,1.2
							C79.3,49.4,79,49.8,79.2,50.2C79.1,50.2,79.1,50.2,79.2,50.2L79.2,50.2z"/>
					</g>
					<g>
						<path fill="#1A1A19" d="M79.3,50.1c-0.3-1-0.8-1.9-1.2-2.9c-0.6-1.5-0.4-2.9-0.3-4.5c0.2-1.6,0.1-3-0.9-4.2
							c-0.1-0.2-0.4,0-0.3,0.2c0.4,1.1,0.7,2.1,0.6,3.3c0,1.3-0.4,2.5-0.2,3.8c0.2,1.6,1.1,3.3,2.1,4.5
							C79.1,50.4,79.3,50.2,79.3,50.1L79.3,50.1z"/>
					</g>
					<g>
						<path fill="#1A1A19" d="M16.9,48c-1.5-3.9-2.7-7.6-2.9-11.8C14,34.4,14.8,25,17.8,24.4c0.3-0.1,0.2-0.6-0.1-0.5
							c-2.9,0.6-3.6,7.1-3.9,9.1c-0.8,4.6,0.1,11.2,3,15.1C16.8,48.2,16.9,48.2,16.9,48L16.9,48z"/>
					</g>
					<g>
						<path fill="#1A1A19" d="M17,24.5c1.2-0.3,3,0,4.1-0.6c2.1-1,3.5-2.4,5-4.2c2.9-3.4,5.6-9.6,10.9-9.2c0.3,0,0.3-0.4,0.1-0.5
							c-3.3-0.7-6.2,2.5-8,4.8c-1.5,1.8-2.7,3.8-4.2,5.5c-1.6,1.9-3.3,3.2-6,3.3c-1.1,0-1,0.1-2,0.6C16.8,24.4,16.9,24.6,17,24.5
							L17,24.5z"/>
					</g>
					<g>
						<path fill="#1A1A19" d="M75.4,13.6c2.8,2,3.8,6,5.1,9c1.1,2.6,2.7,4.9,4.9,6.7c0.3,0.2,0.6-0.1,0.4-0.4
							c-1.1-1.3-2.3-2.5-3.3-3.9c-1.2-1.8-1.9-4-2.8-5.9c-1-2.2-1.7-4.6-4.2-5.6C75.4,13.5,75.3,13.6,75.4,13.6L75.4,13.6z"/>
					</g>
					<g>
						<path fill="#1A1A19" d="M84.3,27.7c2.7,3.7,3.7,6.8,3,11.4c-0.5,3.2,1.3,7-0.5,9.8c-0.2,0.4,0.3,0.7,0.6,0.3
							c0.9-1.2,0.9-2.4,0.9-3.9c-0.1-2.7-0.4-4.8-0.1-7.6C88.7,33.8,87.5,30.4,84.3,27.7C84.4,27.6,84.3,27.7,84.3,27.7L84.3,27.7z"
							/>
					</g>
					<g>
						<path fill="#1A1A19" d="M36.1,10.3c3.4,0.6,4.7,4,8.3,3.6c1.3-0.1,2.4-1,3.5-1.7c1.9-1.4,3.7-1.9,5.8-2.7
							c0.2-0.1,0.1-0.3,0-0.3c-2.8,0.1-4.7,1.4-6.8,3c-4.4,3.2-6.6-1.8-10.7-2.1C36,10,36,10.2,36.1,10.3L36.1,10.3z"/>
					</g>
					<g>
						<path fill="#1A1A19" d="M53.5,9.3c0.9,2.9,3,3.9,5.9,4C64.9,13.7,70.9,11,76,14c0.1,0.1,0.3-0.1,0.2-0.2
							c-5.6-5-19,3.7-22.3-4.6C53.8,8.9,53.4,9,53.5,9.3L53.5,9.3z"/>
					</g>
					<g>
						<path fill="#1A1A19" d="M51.3,57c0.3,1.8,2.7,2.1,3,3.9c0.3,2.3-2.5,3.3-4.2,3.3c-0.3,0-0.4,0.4-0.2,0.6
							c1.8,1.5,4.3-0.7,5-2.3c1.2-2.8-1.8-3.9-3.3-5.6C51.4,56.8,51.3,56.9,51.3,57L51.3,57z"/>
					</g>
					<path fill="#CA9466" d="M31.6,58.5c0,0,0.5-1,3.8-0.9C38.5,57.7,39,59,39,59"/>
					<path fill="#CA9466" d="M71.8,58.2c0,0-0.5-1-3.8-0.9c-3.2,0.1-3.6,1.3-3.6,1.3"/>
					<path fill="#1A1A19" d="M64.3,72.5c-0.1-0.4-0.1-0.7-0.2-1.1c-0.2-0.8-1.3-0.6-1.3,0.2c0,1.2-7.9,1.8-9.1,2
						c-4.3,0.6-8.7,1.4-13,0.5c-0.5-0.1-0.7,0.7-0.2,0.8c5.1,1.3,10.9,0.4,16.1-0.4c1.4-0.2,5-0.1,6.7-1.3
						C63.6,73.5,64.4,73.2,64.3,72.5z"/>
				</g>
				<path opacity="0.8" fill="#C67171" d="M29.5,58c-0.2,0-0.4,0-0.5,0c-1.5-0.2-3,0.2-4.1,0.9c-0.4,0.3-0.7,0.7-0.8,1.3
					c-0.3,0.5-0.2,1.1,0.1,1.5c0,0.1,0.1,0.2,0.1,0.2c0.8,1.2,2.3,1.5,3.5,1.6c0.4,0,1,0.1,1.5,0c0.1,0.1,0.3,0.2,0.5,0.3
					c1.8,0.2,4.6-0.3,4.8-3.1C34.7,58.3,31.2,57.7,29.5,58z"/>
				<path opacity="0.8" fill="#C67171" d="M77.1,60.4c-0.3-0.3-0.6-0.6-1-0.8c0,0,0,0,0.1,0c0.1,0,0.1-0.2,0-0.3
					c-1.7-0.8-3.8-0.9-5.6-0.6c-0.1,0-0.2,0.1-0.3,0.1c-0.8,0.2-1.6,0.5-2.2,1c-0.4,0.3-0.6,1.2-0.2,1.6c0.1,0.1,0.3,0.3,0.5,0.4
					c0.8,1.4,2.6,1.5,3.9,1.5c1.5,0,3.7-0.2,4.8-1.7C77.4,61.2,77.4,60.7,77.1,60.4z"/>
			</g>
		</g>
	</g>
</g>
<g id="personajes_hover">
	<g>
		<defs>
			<rect id="SVGID_85_" x="0" y="0" width="100" height="100"/>
		</defs>
		<use xlink:href="#SVGID_85_"  overflow="visible" fill="#6F57A1"/>
		<clipPath id="SVGID_4_">
			<use xlink:href="#SVGID_85_"  overflow="visible"/>
		</clipPath>
		<g clip-path="url(#SVGID_4_)">
			<path fill="#CA9566" d="M44.3,93.1c0-0.1,0.5-1.5,0.5-2.1c2.4,0.6,4.8,1,7.6,1c1.5,0,3.2-0.2,4.6-0.5c-0.2,0.7,0.1,2,0.2,2.7
				c0.1,0.6,0.3,1.7,0.7,2.3c-4,2.3-10.7,1.9-14.8-0.1C43.9,95.9,44.1,94,44.3,93.1z"/>
			<path fill="#C2344D" d="M42.5,96.3c0.1,0,0.2,0,0.3,0c0,0,0,0,0,0c0,0.1,0.1,0.1,0.2,0.1c3.2,3.1,11.4,2.6,14.9,0.6
				c0.1,0,0.1-0.1,0.1-0.1c0,0,0.1,0,0.1-0.1c0-0.1,0-0.1,0-0.2c0.1,0,0.2,0.1,0.3,0.1c0.4,0.1,0.7,0.3,1.1,0.5
				c0.3,0.1,0.5,0.3,0.8,0.4c0,0.1,0,0.2,0.1,0.3c-6.4,4.5-14.6,3.6-20.9-0.5c0.7-0.1,1.3-0.6,2-0.8C41.8,96.5,42.1,96.4,42.5,96.3z
				"/>
			<path fill="#98734D" d="M51.3,96.1c-0.1-0.2-0.1-0.4-0.2-0.6c-0.1-0.4-0.8-0.2-0.6,0.2c0.1,0.2,0.1,0.4,0.2,0.6
				C50.8,96.8,51.5,96.6,51.3,96.1z"/>
			<path fill="#D77989" d="M58.6,97.5c-0.4,0.3-0.8,0.6-1.2,0.8c-0.5,0.2-1.1,0.4-1.5,0.7c-0.1,0.1,0,0.3,0.1,0.3c1,0.3,3-0.4,3-1.6
				C59,97.6,58.7,97.4,58.6,97.5z"/>
			<path fill="#B21734" d="M56.2,98.5c0.1,0,0.1-0.1,0.2-0.1c0.3-0.3,0.5-0.6,0.8-0.9c-3.8,1.7-11.2,1.9-14.2-1
				c-0.1,0-0.1-0.1-0.2-0.1c0,0,0,0,0,0c-0.1,0-0.2,0-0.3,0c-0.3,0.1-0.7,0.2-1,0.3c-0.7,0.2-1.3,0.7-2,0.8c2.1,1.4,4.5,2.4,6.9,3
				C49.5,99.4,53.1,99.5,56.2,98.5z"/>
			<path fill="#98734D" d="M50.9,91.2c-1.9,0.1-4,0.2-5.8-0.3c-0.2-0.1-0.5,0.1-0.5,0.4c0,1.4-0.6,2.6-0.7,4
				c-0.2,0.3-0.5,0.6-0.7,0.9c-0.3,0.3,0.1,0.6,0.4,0.5c0,0.1,0.1,0.1,0.1,0.2c0.1,0.1,0.2,0.1,0.3,0.2c0.1,0,0.1,0,0.2,0
				c0.9,0.5,1.8,0.9,2.9,1.2c0.1,0,0.2,0,0.3,0c0.1,0,0.1,0,0.2,0c0.3,0,0.4-0.4,0.1-0.6c0-0.1-0.1-0.2-0.2-0.3
				c-0.2-0.1-0.4-0.2-0.6-0.4c0-0.1-0.1-0.2-0.1-0.2c0-0.1,0-0.3,0-0.4c0-0.7,0.4-1.5,0.8-1.9c0.3-0.4,0.6-0.7,1-1
				c0.8-0.5,1.7-0.9,2.7-1.3C51.5,92,51.5,91.2,50.9,91.2z"/>
			<path fill="#C2344D" d="M71.9,149.1c-3.4,0.8-4.5,1-6.7-1.4c0,0,0-0.1,0-0.1c-0.7-0.5-1.1-1.2-0.8-2.1c0,0,0,0,0,0
				c-0.1-0.1-0.2-0.2-0.2-0.3c-0.4-0.6-0.5-1.6,0.1-2.1c0,0,0,0,0,0c-0.2-0.3-0.3-0.6-0.3-1c-0.1-0.9,0.3-1.8,0.9-2.4c0,0,0,0,0,0
				c0.6-0.7,1.6-0.9,2.4-1.1c0.1,0,0.1,0,0.2,0c1.1-0.2,2.4,0.2,3.5,0.6c0.2-0.3,0.4-0.6,0.6-0.9c-0.9-5.1-1.3-10.3-2-15.5
				c0,0,0,0,0,0c0-0.2,0-0.4-0.1-0.6c0,0,0,0,0,0c-0.2-1.7-0.5-3.3-0.8-5c0-0.2,0.2-0.2,0.3-0.1c0.5,1.5,0.8,2.9,1.1,4.4
				c1.6-1.8,3.5-3.2,5.4-4.5c2.5-1.7,4.9-3.7,7.4-5.2c-3.8-2.4-5.9-6.5-9.6-9.1c-3.8-2.7-8.1-4.3-12.6-5.3c0.1,0.1,0.2,0.2,0.2,0.3
				c0,0.1,0,0.1-0.1,0.1c0,0,0,0-0.1,0c0,0,0,0,0,0.1c-7,5.8-15.4,4.7-21.2-0.4l0,0c-0.1,0-0.2-0.1-0.2-0.2c-4.5,1-8.8,2.6-12.6,5.3
				c-3.7,2.6-5.8,6.7-9.6,9.2c2.6,1.5,5,3.5,7.5,5.2c1.9,1.3,3.7,2.6,5.2,4.3c0.4-1.2,0.7-2.5,1.2-3.6c0-0.1,0.2-0.1,0.2,0.1
				c-0.2,1.4-0.5,2.8-0.8,4.2c-0.1,0.5-3.1,11.4-4.1,16.8c-1.3,6.8-1.9,13.8-4.5,20.3c1.3,0.9,2.9-0.5,4.3-0.2
				c0.3-0.3,0.6-0.6,1-0.9c2.3-1.9,5.9-3.8,8.8-1.7c0,0,3.2,1.3,4.7,2.1c0.3,0.2,0.6,0.3,1,0.5c2.7,0.1,5.4,0.2,8.1,0
				c3-0.2,5.9-0.7,8.8-1c0,0,0,0,0.1,0c1.5-0.8,3-1.5,4.7-2c0,0,0.1,0,0.1,0c4.1-1.7,7.5,0,10,3.1c0.8,0.2,1.6,0.3,2.4,0.3
				c0.8,0,1.5-0.3,2.2-0.5c-2.1-3-3.3-6.6-4.3-10.2C73,148.8,72.4,149,71.9,149.1z"/>
			<path fill="#B21734" d="M61.8,155c-1-0.2-2.1,0-3.1,0.1c-4.4,0.3-8.4-3.2-10.2-7.2c-0.6-1.2-1-2.5-1-3.8c0-1.1,0.2-2.2,0.4-3.3
				c-3.3,2.5-7.5,4.3-11.2,5.5c-0.2,0.1-0.3-0.2-0.1-0.3c2.7-1.2,5.3-2.4,7.8-4c1.5-0.9,2.8-2,4-3.1c0.9-3.9,1.5-7.9,1.6-11.9
				c0-0.4-0.1-0.9-0.1-1.3c-0.3-2.1-0.5-4.2-0.9-6.3c-0.6-2.9-1.9-5.7-2.4-8.6c-1.2-2.6-3.2-7.1-3.2-7.1c-0.3-1.1,1.5-2.7,2-2.8
				c0,0,0,0,0-0.1c-2.2-0.7-3.4-1.5-5.2-3c-0.1-0.1-0.9-0.6-0.8-0.6c0,0-0.7,0.1-0.7,0.1c-4.5,1-8.5,2.7-12.3,5.5
				c-3.7,2.6-5.8,6.7-9.6,9.2c2.6,1.5,5,3.5,7.5,5.2c2.3,1.6,3.9,2.3,5.6,4.5c0.2,0.3-0.2,1.4-0.4,1.9c-0.1,0.2-0.2,0.8-0.4,1.8
				c-1,3.8-2.3,9.7-3,13.3c-1.3,6.8-1.8,13.8-4.5,20.3c1.2,1.1,3.1-0.3,4.4,0c0.3-0.3,0.8-0.7,1.1-1c2.3-1.9,5.5-3.7,8.4-1.7
				c0,0,0.5,0.2,0.5,0.2c1.5,0.7,2.8,1.2,4.3,1.9c0.3,0.2,0.9,0.4,1.3,0.5c2.7,0.1,5.3,0.3,8,0.1c3-0.2,5.4-0.8,8.3-1
				c0,0,0.8-0.1,0.8-0.1c1.5-0.8,2.7-1.4,4.4-1.9C63.1,156,62.3,155.1,61.8,155z M35.4,101.6c-2,5.1-3.1,11-4.4,16.2
				c0,0.1-0.3,0-0.3,0c-0.2-0.1-0.1-0.5-0.1-0.7c1.3-5.2,2.1-10.5,4.1-15.5C35,101.1,35.7,101.1,35.4,101.6z"/>
			<g>
				<path fill="#1A1A19" d="M44.4,91.1c-0.4,0.2-0.4,1.5-0.5,2c-0.1,0.6-0.3,1.2-0.5,1.7c-0.2,0.5-0.6,1-0.6,1.5
					c0,0.1,0.1,0.3,0.3,0.2c1.1-0.4,1.4-2.5,1.7-3.5C44.7,92.9,45,90.7,44.4,91.1L44.4,91.1z"/>
			</g>
			<g>
				<path fill="#1A1A19" d="M57,91.6c-0.4,0.8-0.1,1.9,0,2.7c0.1,0.8,0.1,2.2,0.9,2.7c0.1,0.1,0.2,0,0.2-0.1
					c0.2-0.7-0.3-1.7-0.4-2.5c-0.1-0.9,0-2-0.3-2.8C57.3,91.5,57.1,91.4,57,91.6L57,91.6z"/>
			</g>
			<g>
				<path fill="#1A1A19" d="M51.2,95.4c0.1,0.4-0.1,0.7,0,1.1c0,0.2,0.2,0.3,0.4,0.2c0.4-0.4,0.3-1.1-0.1-1.4
					C51.3,95.2,51.2,95.3,51.2,95.4L51.2,95.4z"/>
			</g>
			<g>
				<path fill="#1A1A19" d="M42.8,96.3c3,3.3,11.6,2.8,15.1,0.8c0.4-0.2,0-0.9-0.4-0.6c-4.1,2.4-10.5,1.8-14.6-0.3
					C42.8,96.1,42.7,96.2,42.8,96.3L42.8,96.3z"/>
			</g>
			<g>
				<path fill="#1A1A19" d="M42.9,95.8c-1.1,0.3-2.8,0.4-3.6,1.4c-0.1,0.1,0,0.3,0.2,0.3c0.7-0.1,1.4-0.6,2-0.8
					c0.5-0.2,1-0.3,1.5-0.5C43.2,96.1,43.1,95.7,42.9,95.8L42.9,95.8z"/>
			</g>
			<g>
				<path fill="#1A1A19" d="M39.1,97.2c5.8,5.3,14.4,6.6,21.6,0.7c0.3-0.3-0.1-0.9-0.4-0.6c-6.3,5.4-14.7,4.4-21-0.3
					C39.2,96.8,39,97,39.1,97.2L39.1,97.2z"/>
			</g>
			<g>
				<path fill="#1A1A19" d="M57.9,96.5c0.1,0.1,0.3,0.1,0.5,0.2c0.3,0.1,0.6,0.2,1,0.4c0.3,0.1,0.6,0.3,0.8,0.4
					c0.2,0.1,0.3,0.3,0.6,0.2c0.1,0,0.1-0.1,0.1-0.1c0-0.4-0.9-0.7-1.3-0.9c-0.4-0.2-1.3-0.6-1.7-0.4C57.8,96.4,57.8,96.5,57.9,96.5
					L57.9,96.5z"/>
			</g>
			<g>
				<path fill="#1A1A19" d="M39.4,97c-4-0.3-8.2,2.1-11.5,4c-4.5,2.6-7,7.3-11.2,10.4c-0.3,0.2,0,0.7,0.3,0.5
					c3.9-2.5,5.9-6.6,9.6-9.2c3.8-2.8,8.3-4.4,12.9-5.4C39.6,97.2,39.6,97,39.4,97L39.4,97z"/>
			</g>
			<g>
				<path fill="#1A1A19" d="M60.5,97c4-0.3,8.2,2.1,11.5,4c4.6,2.6,7.1,7.3,11.2,10.3c0.3,0.2,0,0.7-0.3,0.5c-3.9-2.4-6-6.5-9.7-9.2
					c-3.9-2.8-8.3-4.4-12.9-5.4C60.3,97.2,60.3,97,60.5,97L60.5,97z"/>
			</g>
			<g>
				<path fill="#1A1A19" d="M63.5,99.8c3.1,4,3.6,8.7,4.7,13.5c0,0.2,0.3,0.1,0.3-0.1c-0.7-4.6-1.4-10.1-4.8-13.5
					C63.6,99.6,63.5,99.7,63.5,99.8L63.5,99.8z"/>
			</g>
			<g>
				<g>
					<path fill="#CA9466" d="M87.6,50.9c0-0.1,0-0.3,0-0.4c-0.1-0.5-0.4-1.2-0.7-1.7c-0.4-0.6-1-1.4-1.6-1.8c-0.6-0.4-1.1-0.7-2-0.7
						c-1.5,0-2.5,1.5-2.8,1.8c-0.4,0.3-1.1,1.4-1.2,1.7c-0.2,0.4-0.4-0.2-0.6-0.4c-0.1-0.2-0.6-1.3-0.7-1.6c-0.1-0.2-0.5-2-0.6-2.4
						c0-0.1,0.5-4,0.1-5c-0.1-0.2-0.4-0.9-0.6-1.2c0-0.1-1.6-2-1.6-2c-1-0.6-2-2.3-2.6-5.4c-0.3-0.1-0.8,0-1.1,0c-0.7,0-1.4,0-2,0
						c-1.6,0-3.1-0.4-4.7-0.3c-2,0.1-4.6,0.5-6.6,0.4c-3.7-0.2-7.7-1.4-10.5-0.8c-6.4,1.5-11.2,2.3-12.3,2.3c-0.2,0-4.8-0.5-6.4-1.7
						c-0.2-0.1,0,1,0,1c0.1,1.6-0.7,2.6-1.8,4.1c-0.9,1.2-1.8,2.7-2.1,4.2c-0.2,1.3-0.3,2.6-0.4,3.8c0.5,2.4,0.5,6.3-2.5,7.3
						c-0.6,0-1.6-2.2-1.7-2.3c-0.1-0.1-2-2.4-2.5-2.2c-1.3,0.5-4.2,2.3-3.5,7.2c0.4,3.2,3,5.5,6.3,5.5c0,0,0.3,0.1,0.5,0.1
						c1.6,7,3.3,13.5,7.6,19.8c5,7.3,13.9,12.3,23,11.6c7.2-0.5,12.8-3.5,17.2-7.9c1-1.1,2.2-2,3.1-3.2c1-1.1,1.8-2.3,2.6-3.5
						c0.8-1.3,1.5-2.6,2.1-3.9c0.6-1.3,1.2-2.7,1.7-4.1c0.5-1.6,0.9-3.2,1.3-4.8c0.1-0.5,0.2-0.9,0.3-1.4c0.3-1.3,0.7-4.5,0.7-4.3
						c0.5,0.1,1.8,0.2,2.4,0.1c0.6-0.1,1.6-0.6,2-1c2.9-2.7,2.6-5.5,2.6-5.8C87.9,51.8,87.6,51.3,87.6,50.9z"/>
					<path fill="#3E2723" d="M88.1,34.5c0-0.5,0-0.6-0.3-1.1c-0.1-0.2-0.3-0.3-0.5-0.3c0-0.5-0.1-0.9-0.5-1.3c0,0-0.1-0.1-0.1-0.1
						c0,0,0,0,0-0.1c0-0.5-0.1-0.9-0.4-1.3c0.2-0.1,0.2-0.3,0.1-0.5c-0.2-0.2-0.4-0.4-0.7-0.5c0,0-0.1-0.1-0.1-0.1
						c0,0-0.1-0.1-0.1-0.1c0,0,0,0,0-0.1c-0.3-0.3-0.6-0.6-0.9-1c-0.3-0.4-0.7-0.6-1.2-0.8c-1.2-1.4-2.1-2.9-2.9-4.7
						c-0.2-0.6-0.5-1.2-0.7-1.8c0.2-0.1,0.3-0.3,0.2-0.4c-0.5-1-1-1.9-1.5-2.9c0.1-0.1,0.2-0.2,0.2-0.4c-0.1-0.9-0.9-1.4-1.4-2.1
						c0,0,0,0-0.1-0.1c0,0,0-0.1,0-0.1c-1.3-2.3-5-3-7.4-2.6c-0.1,0-0.2,0.1-0.3,0.1c-0.3,0-0.5,0-0.7,0c0,0,0,0,0,0
						c-1.4-0.2-2.9,0.2-4.3,0.5c-0.1-0.1-0.2-0.2-0.3-0.1c-1.3,0.2-2.6,0.3-4,0.4c-0.3-0.1-0.6-0.1-0.9-0.1c0,0,0,0,0,0
						c-0.5-0.2-1.1-0.2-1.6-0.3c-0.2,0-0.5-0.1-0.7-0.1c-0.3-0.3-0.6-0.4-1-0.6c-0.4-0.2-0.8-0.6-1.2-0.9c-0.3-0.3-0.5-0.5-0.8-0.9
						c-0.1-0.2-0.2-0.3-0.3-0.5c0.2-0.3-0.2-0.6-0.4-0.3c0,0,0,0,0,0c-1.2-0.1-2.5,0.7-3.5,1.1c-0.6,0.3-1.1,0.7-1.6,1.1
						c-0.5,0.5-1.2,0.8-1.8,1.2c-0.5,0-0.8,0.1-1.2,0.2c-0.8,0.3-1.7,0.2-2.5,0.2c-0.2,0-0.3,0-0.5-0.1c0,0-0.1-0.1-0.1-0.1
						c-0.4-0.2-0.8-0.4-1.2-0.6c-0.4-0.5-1.1-0.9-1.6-1.2c-0.4-0.3-1-0.5-1.6-0.7c-0.3-0.1-0.6-0.3-0.9-0.3c-0.3,0-0.5,0.1-0.8,0.2
						c-1.2-0.2-2.6,0.8-3.5,1.4c-0.4,0.3-0.8,0.8-1.2,1.1c-0.9,0.7-1.5,1.7-2.3,2.5c-0.6,0.6-1.2,1.4-1.3,2.3c0,0,0,0.1,0,0.1
						c-0.5,0.7-1,1.3-1.4,1.9c-1.5,1.8-2.9,3.2-5,4.2c-0.9,0.4-2.3,0.3-3.4,0.4c-3,0.7-3.8,10-3.7,11.8c0.1,4.2,1.4,7.9,2.9,11.8
						c0.2-0.1,0.6-0.2,0.9-0.3c0.1,0,0.3,0.2,0.3,0.3c1,0,1.3,0.7,1.9,1.4c0.4,0.5,0.9,2.6,2.1,2.8c3.1-1.3,2.4-3.3,2.5-6.5
						c0-0.1,0-2.4,0-2.4c-0.1-1.1-0.3-2.7,0.4-3.5c3.5-4.4,3.8-8.1,3.9-8.1c3.8,1.9,8.1,1.6,12.2,0.8c2.4-0.5,4.1-1.5,6.6-1.5
						c3.4-0.5,6.8,0.6,10.3,0.8c2.8,0.2,5.7-0.5,8.5-0.2c0,0,3.5,0.1,3.5,0.1c0.4,0,2.2-0.3,2.5,0.1c0.2,0.2,0.7,2.2,0.9,2.9
						c0.1,0.5,0.3,1,0.6,1.4c0.3,0.4,0.6,0.9,1.1,1.1c1.7,0.8,2,2.9,2.1,3c0,0.1,0.2,2.3,0.2,2.4c0,0.2-0.1,0.3-0.1,0.5
						c-0.2,0.9,0.1,1.6,0.1,2.5c0,0.3,0,0.6,0.1,1c0.1,0.5,1.3,3.4,1.6,3.3c0.3,0,0.5-1,0.6-1.2c0.2-0.3,1.2-1.5,1.8-1.8
						c1-0.6,2.3-0.9,3.4-0.3c0.3,0.2,0.7,0.4,1,0.6c0.2,0.2,0.5,0.6,0.7,0.8c0.1,0.1,0.7,0.6,0.7,0.7c0.6-1.5,0.4-3.5,0.2-5.2
						c0.2-0.1,0.4-0.4,0.3-0.7c-0.5-1.8-0.5-3.2,0.1-5c0.4-1.1,0.2-2.1,0.1-3.1C88.1,34.8,88.1,34.7,88.1,34.5z"/>
					<path fill="#2E1C19" d="M88,45.6c0.1-0.3,0.2-0.7,0.1-1c0,0,0,0,0,0c0-0.1,0-0.2-0.1-0.3c-0.1-0.2-0.5-0.2-0.5,0.1
						c0,0.1,0,0.1,0,0.2c-0.1,0.1-0.1,0.1-0.1,0.2c0,0.2,0,0.3-0.1,0.5c-0.2,0.4-0.5,0.8-0.9,1c-0.2,0.1-0.4,0.1-0.6,0.2
						c-0.1,0-0.3,0-0.4,0c-0.2,0-0.2,0.2-0.2,0.3c0,0,0,0,0,0.1c0,0.1,0.1,0.2,0.1,0.2c0.1,0.1,0.3,0.2,0.5,0.2c0,0.2,0,0.3,0.2,0.4
						c0.3,0.1,0.4,0.3,0.6,0.5c0,0.2,0.3,0.3,0.4,0.3c0,0,0,0,0,0c0.1,0,0.2,0,0.3,0c0,0,0,0,0,0c0.4,0,0.6-0.4,0.4-0.7
						c-0.2-0.4,0-0.9,0.1-1.3c0-0.2,0.1-0.3,0.1-0.5C88,45.8,88,45.7,88,45.6C88,45.6,88,45.6,88,45.6z"/>
					<path fill="#3E2723" d="M28.4,18.1c0.1-0.2,0.1-0.4-0.1-0.5c0,0,0,0,0,0c0-0.2-0.3-0.3-0.4-0.1c0,0,0,0.1-0.1,0.1
						c0,0,0,0-0.1,0c-0.2,0.2-0.4,0.5-0.5,0.7c-0.8,1.1-1.6,2.2-2.6,3.1c-1,1-2.1,1.7-3.3,2.5c-0.4,0.3-0.2,0.9,0.3,0.8
						c1.2-0.3,2.3-1.6,3.2-2.4c1-0.9,1.9-2,2.7-3.1c0.1,0,0.2-0.1,0.3-0.2c0.1-0.2,0.2-0.4,0.3-0.6C28.2,18.3,28.3,18.2,28.4,18.1
						C28.3,18.1,28.3,18.1,28.4,18.1z"/>
					<path fill="#2E1C19" d="M27.6,35.7c0.7-1.1,2.1-3.8,0.9-4.9c-2.1-2.1-5.1-3.8-6.1-6.7c-0.1-0.2-0.3-0.4-0.6-0.3
						c-1.6,0.5-3.1-0.1-4.6,0.8c-0.9,0.6-1.5,1.8-2.2,2.6c0,0,0,0,0,0c-0.1,0.4-0.3,0.7-0.4,1.1c0.2,0.1,0.4,0.2,0.6,0
						c0.1-0.1,0.2-0.2,0.3-0.3c0,0,0,0,0,0c-0.2,0.3-0.5,0.5-0.8,0.9c-0.1,0.1-0.2,0.2-0.2,0.4c-0.2,3.2-1.4,6.4-0.9,9.7
						c0.5,3.2,1.7,6.2,3.2,9.1c0.2,0.3,0.6,0.4,0.9,0.1c0.1-0.1,0.2-0.2,0.3-0.4c0.1,0.1,0.2,0.2,0.4,0.3c0,0,0,0,0.1,0
						c1.2,1.3,2.6,2.2,3,4.1c0.1,0.5,0.7,0.7,1.1,0.4c2.3-1.4,3-3.3,2.7-6c-0.2-1.7-0.5-3.4-0.4-5.2C24.9,39.1,26.4,37.4,27.6,35.7z
						"/>
					<path fill="#98734D" d="M64.8,87.8c-0.2,0-0.5,0-0.7,0.1c0.3-0.2,0.5-0.4,0.7-0.6c0.1-0.1,0-0.2-0.1-0.1
						c-1.1,0.5-2.2,0.9-3.3,1.4c-0.9,0.2-1.7,0.6-2.6,0.9c-1.5,0.5-3,0.9-4.6,1.2c-0.3,0-0.6,0.1-0.9,0.1c-1.8-0.2-3.6-0.2-5.4-0.3
						c-0.5-0.1-1.2-0.2-1.9-0.3c-0.7-0.2-1.3-0.3-2-0.5c-0.1,0-0.2-0.1-0.3-0.1c-0.6-0.2-1.1-0.5-1.7-0.8c-2-1.3-3.9-3-5.9-4.3
						c-5.1-3.6-8.8-8.1-10.7-14.2c-0.8-2.7-1.2-4.8-2-7.5C23,61,22.3,59.6,22,58c-0.2-0.7-0.3-1.5-0.5-2.2c-0.1-0.3-0.2-1-0.6-1
						c-0.8,0-0.5,2-0.4,2.5c0.1,0.4-0.6,0-1.1,0c-0.5-0.1-1-0.1-1.5-0.3c-0.8-0.3-1.6-0.7-2.3-1.3c-0.3-0.3-1.2-1.5-1.3-0.6
						c0,0,0.7,2.3,1.2,3c1.7,2.7,4.9,2.7,5.2,2.6c0.2-0.1,0.7,0.3,0.4,0c0,0,0.4,1.4,0.5,2.1c0.7,3,1.8,5.6,2.7,8.6
						c0.8,2.6,1.8,5.5,3.5,7.6c0.3,0.4,0.6,0.8,1,1.1c0.8,1.9,2.4,3.5,4.1,4.8c0.1,0.1,0.2,0.2,0.3,0.3c0,0.1,0,0.1,0.1,0.1
						c1.1,1.2,2.4,2,3.8,2.7c0.4,0.4,0.8,0.8,1.3,1c1.2,1.1,3.2,1.5,4.8,1.9c0.3,0.1,0.5,0.2,0.8,0.4c1.8,0.2,3.6,0.7,5.4,1.2
						c1.3,0,2.6,0,3.8,0c0.4-0.1,0.9-0.2,1.3-0.2c-0.1-0.1-0.2-0.2-0.4-0.2c-0.5,0.1-1,0.2-1.5,0.3c0-0.1-0.1-0.1-0.2-0.2
						c0,0,0,0,0.1-0.1c0.3,0,0.7,0,1,0c0.2,0,0.3-0.2,0.3-0.4c0.2,0,0.4-0.1,0.6-0.1c0.5-0.1,1.1-0.3,1.6-0.4
						c1.2-0.2,2.3-0.4,3.4-0.7c0.2,0,0.2-0.2,0.1-0.3c0.4-0.1,0.7-0.3,1-0.5c0,0,0-0.1,0-0.1c-0.1,0-0.3,0-0.4,0
						c0.1,0,0.2-0.1,0.3-0.1c0.1,0,0.1,0,0.2,0c0,0,0.1-0.1,0.1-0.1c1.1-0.3,2.3-0.6,3.5-0.6c0.4,0,0.5-0.6,0.1-0.7c0,0,0,0-0.1,0
						c0.1-0.1,0.3-0.2,0.4-0.3C64.9,87.9,64.9,87.8,64.8,87.8z"/>
					<path fill="#98734D" d="M18.3,55c-0.3-0.8-0.6-1.7-0.4-2.5c0.1-0.2-0.2-0.4-0.3-0.3c-0.9,0.5-0.3,2.3-0.1,3
						C17.7,55.8,18.6,55.5,18.3,55z"/>
					<path fill="#CA9466" d="M24.1,51c-0.5,0.6-1.2,1-1.8,1.5c-0.3,0.2,0.1,0.7,0.4,0.5c0.7-0.5,1.3-0.9,1.9-1.5
						C24.9,51.1,24.4,50.6,24.1,51z"/>
					<path fill="#98734D" d="M72.3,44.8c-0.3-0.4-0.7-0.8-1.1-1.1c-0.7-0.8-1.8-1.4-2.7-1.8c-0.5-0.2-0.9,0.4-0.5,0.8
						c1.1,1,2.6,1.5,3.5,2.7C71.8,46,72.7,45.4,72.3,44.8z"/>
					<path fill="#98734D" d="M86.4,55.3c-0.9,0.3-1.7,0.4-2.6,0.5c-0.9,0-1.7-0.4-2.6-0.6c-0.3-0.1-0.2,3-0.2,3.7
						c0,0,1.9,0.5,3.2-0.2c0.6-0.3,2.8-2.7,2.8-2.9C86.9,55.4,86.7,55.2,86.4,55.3z"/>
					<path fill="#98734D" d="M84.7,51.9c0-0.3-0.5-0.3-0.6-0.1c-0.2,0.4-0.3,1-0.4,1.5c0,0.1,0.1,0.3,0.2,0.3c0.1,0,0.1,0.1,0.2,0
						c0.2,0,0.3-0.1,0.4-0.3C84.6,53,84.7,52.3,84.7,51.9z"/>
					<path fill="#DEBCA0" d="M76.5,64.5c-0.1-0.4-0.6-0.3-0.6,0.1c-0.1,3.1-1.3,5.4-2.8,8c-0.5,0.9-0.9,1.9-1.4,2.8
						c-0.6,1-1.5,1.8-2.1,2.8c-0.3,0.5,0.2,1.1,0.8,1c2.3-0.6,3.4-3.8,4.2-5.7C75.9,70.8,77.1,67.6,76.5,64.5z"/>
					<path fill="#DEBCA0" d="M85.8,48.5c-0.8-0.8-1.9-1.2-3-1c-0.4,0.1-0.3,0.6,0.1,0.6c0.7,0,1.5,0.5,2.1,0.9
						c0.3,0.3,0.6,0.6,0.8,1c0.2,0.3,0.1,0.7,0.2,1c0.1,0.4,0.7,0.5,0.8,0.1C87.3,50.2,86.5,49.1,85.8,48.5z"/>
					<path fill="#DEBCA0" d="M75.6,39.8c-0.3-0.6-0.8-1.2-1.3-1.7c-0.3-0.3-0.7,0.1-0.5,0.4c0.2,0.5,0.6,0.9,0.9,1.3
						c0.1,0.2,0.1,0.4,0.2,0.6c0-0.1,0,0.2,0,0.3c0,0.1,0.1,0.1,0.1,0.1C75.7,41.1,75.8,40.2,75.6,39.8z"/>
					<path fill="#DEBCA0" d="M52.8,60.2c-0.3-0.4-0.8-0.7-1.1-1.1c-0.4-0.4-0.6-0.9-1-1.3c-0.2-0.2-0.5,0-0.5,0.3
						c0.1,0.6,0.5,1.1,0.9,1.6c0.4,0.4,0.8,0.9,1.4,1C52.7,60.8,52.9,60.4,52.8,60.2z"/>
					<path fill="#65524F" d="M85.6,34c-0.4-3.4-3.3-5.4-4.4-8.5c-0.1-0.2-0.3-0.3-0.5-0.3c-0.3,0-0.7,0.1-1,0.2
						c-0.2,0.1-0.2,0.3,0,0.4c1,0.3,1,1.6,1.4,2.4c0.8,1.4,1.9,2.6,2.5,4.1c0.7,1.7,0.6,3.6,0.2,5.3c-0.2,1-0.8,1.7-0.4,2.7
						c0.1,0.2,0.3,0.2,0.4,0.2C86.1,40.2,85.8,35.5,85.6,34z"/>
					<path fill="#65524F" d="M75.8,15.8c-1.1-2.4-5.4-3-7.6-2c-0.3,0.1-0.2,0.6,0.1,0.6c1,0.3,2,0.1,3,0.1c1.6,0.1,2.5,1.3,3.9,1.9
						C75.6,16.6,76,16.2,75.8,15.8z"/>
					<path fill="#1A1A19" d="M35.6,53.3c-0.9,0.2-1.6,0.2-2.3,1c-1,1.3-0.8,3.1,0.9,3.7c1.3,0.5,3.4,0,3.9-1.4
						c0.5-1.4-0.9-3.1-2.2-3.3c-0.5-0.1-1.2,0-1.7,0.2"/>
					<path fill="#FFFFFF" d="M36.5,54c-0.5,0.1-1.5,0.8-0.6,1.4C37.4,56.4,38.1,54.3,36.5,54"/>
					<path fill="#1A1A19" d="M68.2,53.2c-0.9,0.2-1.6,0.2-2.3,1c-1,1.3-0.8,3.1,0.9,3.7c1.3,0.5,3.4,0,3.9-1.4
						c0.5-1.4-0.9-3.1-2.2-3.3c-0.5-0.1-1.2,0-1.7,0.2"/>
					<path fill="#FFFFFF" d="M69,54c-0.5,0.1-1.6,0.9-0.6,1.6C70.1,56.7,70.7,54.3,69,54"/>
					<g>
						<path fill="#1A1A19" d="M73.5,45c-0.1-0.8-0.9-1.6-1.5-2.1c-1-0.8-1.9-1.2-3.1-1.6c-0.4-0.1-0.7,0.4-0.4,0.7
							c0.9,0.6,1.8,1.4,2.6,2c0.6,0.5,1.3,1.1,2.1,1.2C73.4,45.3,73.5,45.1,73.5,45L73.5,45z"/>
					</g>
					<path fill="#98734D" d="M31.5,51c0.4-0.4,0.9-0.6,1.3-0.8c0.9-0.6,2.1-1,3.1-1.1c0.6-0.1,0.8,0.6,0.3,0.9
						c-1.3,0.8-2.9,0.8-4.1,1.8C31.7,52.3,31,51.5,31.5,51z"/>
					<g>
						<path fill="#1A1A19" d="M30.3,50.9c0.3-0.8,1.3-1.3,2-1.6c1.1-0.5,2.1-0.7,3.3-0.8c0.4,0,0.6,0.6,0.2,0.7c-1,0.4-2,0.9-3,1.3
							c-0.7,0.3-1.5,0.8-2.3,0.7C30.3,51.2,30.3,51,30.3,50.9L30.3,50.9z"/>
					</g>
					<g>
						<path fill="#1A1A19" d="M20,55.3c2.3,18.3,10.5,37.5,31.8,37.4c19-0.1,29.1-21.4,29.7-37.8c0-0.4-0.6-0.4-0.7,0
							c-1.8,16.9-9.9,35.6-29.1,37c-9.1,0.7-17.9-4.3-23-11.6c-5.3-7.7-6.4-16.1-8.6-25C20.2,55.1,20,55.1,20,55.3L20,55.3z"/>
					</g>
					<g>
						<path fill="#1A1A19" d="M17.7,47.6c-6.7,2.6-3.9,13.7,3.1,13.3c0.4,0,0.4-0.6,0-0.6c-3.3,0-5.4-2.2-6.1-5.3
							c-0.7-3.2,0.5-5.3,3.2-7C18,47.9,17.9,47.6,17.7,47.6L17.7,47.6z"/>
					</g>
					<g>
						<path fill="#1A1A19" d="M17.6,52.3c-1.1,0.5-0.7,2.9,0.4,3.3c0.1,0,0.2-0.1,0.2-0.2c-0.3-1-0.9-1.9-0.4-3
							C17.8,52.4,17.7,52.3,17.6,52.3L17.6,52.3z"/>
					</g>
					<g>
						<path fill="#1A1A19" d="M81,59c3.7,1.7,6.9-3,7.2-6.2c0.3-2.8-2.2-8.2-5.7-6.6c-0.2,0.1-0.1,0.4,0.1,0.4
							c7.2,0,5.7,12.9-1.5,12.1C81,58.7,80.9,58.9,81,59L81,59z"/>
					</g>
					<g>
						<path fill="#1A1A19" d="M84.4,51.4c0,0.1,0.1,0.3,0.2,0.4c0.1,0.2,0.1,0.4,0.1,0.7c0,0.4-0.2,0.9-0.2,1.3
							c0,0.2,0.3,0.4,0.4,0.2c0.3-0.4,0.4-1.2,0.3-1.7c-0.1-0.4-0.3-1.1-0.8-0.9C84.4,51.3,84.4,51.4,84.4,51.4L84.4,51.4z"/>
					</g>
					<g>
						<path fill="#1A1A19" d="M17.6,47.9c0.4,0.3,0.9,0.5,1.3,0.9c0.5,0.4,0.8,0.9,1.2,1.4c0.5,0.7,0.9,2,1.7,2.4
							c0.1,0.1,0.3,0,0.2-0.2c-0.1-0.5-0.5-1-0.8-1.5c-0.3-0.5-0.6-1-1-1.5c-0.6-0.7-1.5-1.8-2.6-1.8C17.6,47.7,17.5,47.8,17.6,47.9
							L17.6,47.9z"/>
					</g>
					<g>
						<path fill="#1A1A19" d="M22,52.5c3.6-0.3,3.6-7,2.5-9.3c-0.1-0.1-0.2-0.1-0.2,0.1c-0.2,3.2,1.1,7.1-2.3,9.1
							C21.8,52.4,21.9,52.5,22,52.5L22,52.5z"/>
					</g>
					<g>
						<path fill="#1A1A19" d="M24.9,45.3c0.1-1.5-0.1-2.9,0.2-4.4c0.3-1.5,1.5-2.8,2.4-4c1.2-1.5,2.2-3.4,1.3-5.3
							c-0.1-0.1-0.3-0.1-0.3,0.1c-0.1,3.6-2.4,5.2-3.8,8.2c-0.8,1.6-0.5,3.7-0.1,5.3C24.7,45.4,24.9,45.4,24.9,45.3L24.9,45.3z"/>
					</g>
					<g>
						<path fill="#1A1A19" d="M28.7,31.8c5.8,4.1,14.3,0.5,20.4-0.5c0.3,0,0.2-0.5-0.1-0.5c-2.8-0.3-5.3,1-8,1.5
							c-4,0.8-8.5,1.2-12.3-0.7C28.7,31.5,28.6,31.7,28.7,31.8L28.7,31.8z"/>
					</g>
					<g>
						<path fill="#1A1A19" d="M46.9,31.2c3.5,0.1,6.9,0.6,10.3,1c3.9,0.5,7.5-0.2,11.4-0.2c0.3,0,0.3-0.4,0.1-0.4
							c-3.2-0.9-6.8,0.2-10.1,0c-3.9-0.3-7.8-1.6-11.7-0.5C46.8,31,46.8,31.2,46.9,31.2L46.9,31.2z"/>
					</g>
					<g>
						<path fill="#1A1A19" d="M67.2,31.4c0.6,0.5,1.5,0.7,2.3,0.8c1,0.1,2.2,0.2,3.1-0.3c0.1-0.1,0.1-0.3,0-0.3
							c-0.7-0.2-1.6,0-2.3,0c-1,0-2-0.3-3-0.3C67.2,31.2,67.2,31.3,67.2,31.4L67.2,31.4z"/>
					</g>
					<g>
						<path fill="#1A1A19" d="M72.5,31.6c-0.3,0.7,0.2,2.8,0.5,3.5c0.4,0.8,0.9,1.4,1.5,2c0.9,0.9,1.7,1.6,2.4,2.6
							c0.2,0.2,0.5,0.1,0.4-0.2c-0.3-1.4-1.7-2.3-2.7-3.2c-1.4-1.3-1.1-2.9-1.7-4.6c-0.1-0.1-0.1-0.2-0.3-0.2c0,0-0.1,0-0.1,0
							C72.6,31.5,72.5,31.6,72.5,31.6L72.5,31.6z"/>
					</g>
					<g>
						<path fill="#1A1A19" d="M79.2,50.2c0.3-0.1,0.4-0.3,0.5-0.6c0.3-0.4,0.5-0.8,0.8-1.2c0.3-0.4,0.7-0.8,1.1-1.1
							c0.4-0.3,0.9-0.4,1.2-0.8c0.1-0.1,0-0.3-0.1-0.3c-0.9-0.2-1.9,1-2.4,1.6c-0.3,0.4-0.6,0.8-0.8,1.2
							C79.3,49.4,79,49.8,79.2,50.2C79.1,50.2,79.1,50.2,79.2,50.2L79.2,50.2z"/>
					</g>
					<g>
						<path fill="#1A1A19" d="M79.3,50.1c-0.3-1-0.8-1.9-1.2-2.9c-0.6-1.5-0.4-2.9-0.3-4.5c0.2-1.6,0.1-3-0.9-4.2
							c-0.1-0.2-0.4,0-0.3,0.2c0.4,1.1,0.7,2.1,0.6,3.3c0,1.3-0.4,2.5-0.2,3.8c0.2,1.6,1.1,3.3,2.1,4.5
							C79.1,50.4,79.3,50.2,79.3,50.1L79.3,50.1z"/>
					</g>
					<g>
						<path fill="#1A1A19" d="M16.9,48c-1.5-3.9-2.7-7.6-2.9-11.8C14,34.4,14.8,25,17.8,24.4c0.3-0.1,0.2-0.6-0.1-0.5
							c-2.9,0.6-3.6,7.1-3.9,9.1c-0.8,4.6,0.1,11.2,3,15.1C16.8,48.2,16.9,48.2,16.9,48L16.9,48z"/>
					</g>
					<g>
						<path fill="#1A1A19" d="M17,24.5c1.2-0.3,3,0,4.1-0.6c2.1-1,3.5-2.4,5-4.2c2.9-3.4,5.6-9.6,10.9-9.2c0.3,0,0.3-0.4,0.1-0.5
							c-3.3-0.7-6.2,2.5-8,4.8c-1.5,1.8-2.7,3.8-4.2,5.5c-1.6,1.9-3.3,3.2-6,3.3c-1.1,0-1,0.1-2,0.6C16.8,24.4,16.9,24.6,17,24.5
							L17,24.5z"/>
					</g>
					<g>
						<path fill="#1A1A19" d="M75.4,13.6c2.8,2,3.8,6,5.1,9c1.1,2.6,2.7,4.9,4.9,6.7c0.3,0.2,0.6-0.1,0.4-0.4
							c-1.1-1.3-2.3-2.5-3.3-3.9c-1.2-1.8-1.9-4-2.8-5.9c-1-2.2-1.7-4.6-4.2-5.6C75.4,13.5,75.3,13.6,75.4,13.6L75.4,13.6z"/>
					</g>
					<g>
						<path fill="#1A1A19" d="M84.3,27.7c2.7,3.7,3.7,6.8,3,11.4c-0.5,3.2,1.3,7-0.5,9.8c-0.2,0.4,0.3,0.7,0.6,0.3
							c0.9-1.2,0.9-2.4,0.9-3.9c-0.1-2.7-0.4-4.8-0.1-7.6C88.7,33.8,87.5,30.4,84.3,27.7C84.4,27.6,84.3,27.7,84.3,27.7L84.3,27.7z"
							/>
					</g>
					<g>
						<path fill="#1A1A19" d="M36.1,10.3c3.4,0.6,4.7,4,8.3,3.6c1.3-0.1,2.4-1,3.5-1.7c1.9-1.4,3.7-1.9,5.8-2.7
							c0.2-0.1,0.1-0.3,0-0.3c-2.8,0.1-4.7,1.4-6.8,3c-4.4,3.2-6.6-1.8-10.7-2.1C36,10,36,10.2,36.1,10.3L36.1,10.3z"/>
					</g>
					<g>
						<path fill="#1A1A19" d="M53.5,9.3c0.9,2.9,3,3.9,5.9,4C64.9,13.7,70.9,11,76,14c0.1,0.1,0.3-0.1,0.2-0.2
							c-5.6-5-19,3.7-22.3-4.6C53.8,8.9,53.4,9,53.5,9.3L53.5,9.3z"/>
					</g>
					<g>
						<path fill="#1A1A19" d="M51.3,57c0.3,1.8,2.7,2.1,3,3.9c0.3,2.3-2.5,3.3-4.2,3.3c-0.3,0-0.4,0.4-0.2,0.6
							c1.8,1.5,4.3-0.7,5-2.3c1.2-2.8-1.8-3.9-3.3-5.6C51.4,56.8,51.3,56.9,51.3,57L51.3,57z"/>
					</g>
					<path fill="#CA9466" d="M31.6,58.5c0,0,0.5-1,3.8-0.9C38.5,57.7,39,59,39,59"/>
					<path fill="#CA9466" d="M71.8,58.2c0,0-0.5-1-3.8-0.9c-3.2,0.1-3.6,1.3-3.6,1.3"/>
					<g>
						<path fill="#C15F6E" d="M39.4,78.9c2.1-2.3,8.1-3.2,10.9-3.2c3.8-0.1,7.4,2.4,10.2,4.7c-2.3,1.5-5.4,2.7-7.9,3.1
							C47.9,84.2,42.6,82.2,39.4,78.9z"/>
						<path fill="#A1877F" d="M60.5,80.4c-2.8-3.4-7.3-4.8-11.7-4.7c-2.5,0.1-7.7,1-9.5,3.2c-2-2.1-3.2-5.5-3.1-8.8
							c9.5,1.5,21-0.1,30.5-1.6C67.5,73.3,64.3,77.9,60.5,80.4z"/>
						<path fill="#D99BA5" d="M58.3,80.1c-0.2-0.3-0.5-0.6-0.8-0.8c-0.3-0.3-0.6-0.5-0.9-0.7c-0.2-0.2-0.4,0.1-0.3,0.3
							c0.2,0.3,0.4,0.6,0.7,0.8c0.2,0.3,0.5,0.6,0.8,0.8C58.1,80.6,58.4,80.4,58.3,80.1z"/>
						<path fill="#9A3C4E" d="M54.5,76.4c-0.1-0.1-0.2-0.1-0.4-0.1c0,0,0-0.1-0.1-0.1c-0.3-0.2-0.8-0.1-1.2,0c0,0,0,0-0.1,0
							c-0.2,0-0.4,0-0.6,0c-0.1-0.1-0.2-0.2-0.4-0.2c-3.7-0.3-7.7,0.4-11,2c-3.3,1.6,1.4,3.1,2.5,4c0.2,0.1,0.3,0.2,0.5,0.1
							c0,0.3,0.4,0.5,0.7,0.2c2-2.4,5.6-4.2,8.5-5.1c0.1,0,0.1-0.1,0.2-0.1c0.5-0.1,1,0,1.4-0.3C54.6,76.5,54.6,76.4,54.5,76.4z"/>
						<g>
							<path fill="#1A1A19" d="M36.3,70.5c9.6,1.6,20.7-0.1,30.3-1.6c0.4-0.1,0.3-0.8-0.1-0.7c-9.9,1.5-20.1,2.3-30.1,2
								C36.1,70.1,36.1,70.4,36.3,70.5L36.3,70.5z"/>
						</g>
						<g>
							<path fill="#1A1A19" d="M36.1,70.3c-0.7,2.9,1.2,6.7,2.8,9.1c2.5,3.6,8.6,4.6,12.5,4.6c7.5,0.1,17.5-7,15.3-15.4
								c-0.1-0.3-0.6-0.3-0.5,0.1c1.5,7.9-6.6,13.6-13.5,14.6c-7.9,1.1-16.7-4.2-16.3-12.9C36.5,70.2,36.2,70.1,36.1,70.3L36.1,70.3
								z"/>
						</g>
						<g>
							<path fill="#1A1A19" d="M39.8,79c2.1-2.3,7.7-2.9,10.6-3c4-0.1,7.2,2.2,10.1,4.5c0.2,0.2,0.5-0.1,0.3-0.3
								c-2.8-3.5-7.4-5-11.8-4.8c-2.5,0.1-7.9,1-9.5,3.3C39.3,79,39.6,79.2,39.8,79L39.8,79z"/>
						</g>
					</g>
				</g>
				<path opacity="0.8" fill="#C67171" d="M29.5,58c-0.2,0-0.4,0-0.5,0c-1.5-0.2-3,0.2-4.1,0.9c-0.4,0.3-0.7,0.7-0.8,1.3
					c-0.3,0.5-0.2,1.1,0.1,1.5c0,0.1,0.1,0.2,0.1,0.2c0.8,1.2,2.3,1.5,3.5,1.6c0.4,0,1,0.1,1.5,0c0.1,0.1,0.3,0.2,0.5,0.3
					c1.8,0.2,4.6-0.3,4.8-3.1C34.7,58.3,31.2,57.7,29.5,58z"/>
				<path opacity="0.8" fill="#C67171" d="M77.1,60.4c-0.3-0.3-0.6-0.6-1-0.8c0,0,0,0,0.1,0c0.1,0,0.1-0.2,0-0.3
					c-1.7-0.8-3.8-0.9-5.6-0.6c-0.1,0-0.2,0.1-0.3,0.1c-0.8,0.2-1.6,0.5-2.2,1c-0.4,0.3-0.6,1.2-0.2,1.6c0.1,0.1,0.3,0.3,0.5,0.4
					c0.8,1.4,2.6,1.5,3.9,1.5c1.5,0,3.7-0.2,4.8-1.7C77.4,61.2,77.4,60.7,77.1,60.4z"/>
			</g>
		</g>
	</g>
</g>
<g id="globo">
</g>
</svg>
