<?xml version="1.0" encoding="utf-8"?>
<!-- Generator: Adobe Illustrator 17.0.0, SVG Export Plug-In . SVG Version: 6.00 Build 0)  -->
<!DOCTYPE svg PUBLIC "-//W3C//DTD SVG 1.1//EN" "http://www.w3.org/Graphics/SVG/1.1/DTD/svg11.dtd">
<svg version="1.1" xmlns="http://www.w3.org/2000/svg" xmlns:xlink="http://www.w3.org/1999/xlink" x="0px" y="0px" width="100px"
	 height="100px" viewBox="0 0 100 100" enable-background="new 0 0 100 100" xml:space="preserve">
<g id="capa1">
</g>
<g id="personajes">
	<g>
		<defs>
			<rect id="SVGID_27_" x="0" y="0" width="100" height="100"/>
		</defs>
		<use xlink:href="#SVGID_27_"  overflow="visible" fill="#8F4E99"/>
		<clipPath id="SVGID_2_">
			<use xlink:href="#SVGID_27_"  overflow="visible"/>
		</clipPath>
		<g clip-path="url(#SVGID_2_)">
			<g>
				<path fill="#B71E1E" d="M80.6,113.5c-0.1-0.3-0.3-0.5-0.4-0.7c-0.2-0.3-0.2-0.8-0.3-1.1c0.1-1.2-0.7-2.2-1.6-2.9
					c-2.8-5-8.2-10.4-13.9-11.8c-0.4-0.6-1.8-1.5-2.8-1.5c-0.3-0.7-1.9-1-2.2-1.4c-0.3-0.4-1.5-0.2-1.5-0.2c-4.2,1.3-8,1.5-12.2,0
					c0,0,0,0,0,0c0.2,0-1.3,0.1-2,0.3c-1,0.3-1.7,0.7-2.1,0.9c-0.3,0.2-0.3,0.2-0.5,0.5c0,0-0.4,0.1-0.4,0.1
					c-0.6-0.4-1.5,0.6-1.8,1.1c-5.6,1.3-11.4,6.6-14.2,11.6c-1,0.7-1.6,1.6-1.5,2.9c-0.1,0.3-0.2,0.6-0.3,0.9
					c-0.1,0.3-0.2,0.6-0.4,0.9c0,0.1-0.1,0.1,0,0.2c-0.1,0.1-0.3,0.3-0.2,0.4c3.9,0.2,7.6,3.8,10.5,5.6c-0.5,1.4-1.2,3.1-0.9,4.7
					c0.4,1.7,1.4,2.9,2.8,3.5c0.1,0.1,0,0.7,0.4,1.4c0,0,0,0,0,0c-0.3,3-0.2,6.1-0.9,9c-0.6,2.3-1.7,4.1-2.2,6.5
					c0,0-0.8,1.4-0.7,1.4c-1,1.6-0.7,2.4-0.8,4.2c-0.1,0.3-0.3,1.1-0.4,1.4c-0.2,0.5-0.6,0.7-0.8,1.2c0,0-0.8,1.1-0.8,1.1
					c0,0.1,1.3,0.6,1.4,0.7c2.6,1.4,8.4,1.7,11.3,2c4.3,0.5,8.5,0.4,12.8,0.4c7.5-0.1,13-1,20.3-3c0.1,0,0-0.6-0.1-0.8
					c-0.1-0.4-0.7-0.8-0.9-1.2c-0.2-0.3-0.3-1-0.4-1.3c-0.2-1.8-0.4-3.7-1.3-5.3c0,0-0.1-0.3-0.1-0.4c-0.4-2.4-1.6-4.4-2.3-6.7
					c-0.8-2.9-0.6-8.6-1-8.8c0,0,0.6-0.9,0.4-1.7c1.4-0.6,2.4-1.8,2.9-3.5c0.4-1.5-0.4-3.2-0.9-4.7c2.8-2,6.4-5,10-5.8
					c0.1,0,0.6,0,0.6-0.1C80.8,113.6,80.6,113.5,80.6,113.5z"/>
			</g>
			<g>
				<path fill="#98191B" d="M52.3,156.7c-1-1.6-3.9-3-4.8-4c-3.6-3.3-4.9-4.3-5.8-12.6c-0.6-5.2,0.6-11.2,0-13.2
					c-3.9,0.3-5.4-0.2-6.9-2.7c-0.7-1.1-0.7-2.9-0.5-4.5c0.4-4,3.1-8.7,4.7-12.5c1.5-3.6,4.2-10.9,8.5-11.4h-0.5
					c-0.1-0.8-0.6-1.4-1.2-1.8c0,0-0.1,0-0.1,0c0,0,0,0,0,0c0.2,0-1.3,0.1-2,0.3c-1,0.3-1.7,0.7-2.1,0.9c-0.3,0.2-0.7,0.4-0.9,0.7
					c0,0,0-0.1-0.1-0.1c-0.6-0.4-1.6,0.5-2,1c-4.8,1.1-11.8,6.9-14.1,12.1c0,0,2.7-1.6,2.5-1.5c-2,1.4-2.5,3.1-2,4.5
					c0.1,0.4,0,2.1-0.2,2.5c3.2,1.3,5.2,3.2,7.9,4.9c-0.5,1.4-1.2,3.1-0.9,4.7c0.4,1.7,1.4,2.9,2.8,3.5c0.1,0.1,0,0.7,0.4,1.4
					c0,0,0,0,0,0c-0.3,3-0.2,6.1-0.9,9c-0.6,2.3-1.7,4.1-2.2,6.5c0,0-0.8,1.4-0.7,1.4c-1,1.6-0.7,2.4-0.8,4.2
					c-0.1,0.3-0.3,1.1-0.4,1.4c-0.2,0.5-0.6,0.7-0.8,1.2c0,0-0.8,1.1-0.8,1.1c0,0.1,1.3,0.6,1.4,0.7c2.6,1.4,8.4,1.7,11.3,2
					C44.8,156.8,48.5,156.8,52.3,156.7z"/>
			</g>
			<path fill="#E67373" d="M74.7,104.8c-2.6-3.2-6.1-5.6-8.9-6.7c-0.8-0.3-0.8,0.9-0.4,1c2.9,0.8,5.9,2.7,8.8,6
				C74.6,105.5,74.9,105,74.7,104.8z"/>
			<g>
				<path fill="#925F36" d="M90.4,53.5c-1.5-3.5-2.5-8.2-3.6-11.4c-1.3-3.9-2.8-7.7-4.7-11.4c-1.7-3.5-3.9-6.6-6.5-9.4
					c-2.5-2.7-5.1-5.9-8-8.2c-9.4-7.2-30-7.8-37.4,2.7C23.5,13.1,16,20.9,12,25.4c-6.7,7.5-7.5,19.3-5.9,28.8
					c1.6,9.4,4.5,16.4,8,21.7c3,4.6,8.2,8.2,10.6,10.4c2.5,2.3,6.8,8.8,11.7,10.9c0,0.4,2.4-1,2.9-1.1c0.9-0.2,1.5-0.5,2-0.7
					c1-0.4,1.5-1.4,2.6-1.4c4.5-0.2,9.3,1.7,15.5,0.8c0.7,1.4,1.9,2.7,3.2,4c-0.5,1.9,0.3,5.1,2.5,5.7c-0.9,2.8-1.1,6.9,1.3,8.8
					c0,0,0,0,0,0c0,0.1-0.2,1.4-0.2,1.5c-0.1,2.1,0.4,3.5,1.7,5.3c0,0,0,0,0,0c-1.5,1.6-0.6,4.9,1.2,6c0,0.3,0.4,3.2,2.5,4.4
					c-0.6,0.4-0.9,2.5-0.4,3.4c-1.1,1.1-0.8,2.5-0.6,4c0.3,1.4,0.8,2.9,1.3,4.2c0.5,1.8,0.2,3.2,0,5c0,0.1-0.2,0.5-0.1,0.5
					c0,0,0,0,0.1,0c0,0,0.1,0,0.1,0c0,0,0,0,0,0c1.7-1.7,2.1-4.9,2.3-7.1c0.3-2.3,0.6-5.5-1.3-7.3c0,0,0,0,0,0
					c0.5-0.7,0.1-1.9-0.3-2.6c0.4-0.6,0.5-1.4,0.5-2.1c0-0.6-0.2-1.1-0.5-1.6c0,0,0-0.1,0-0.1c0-0.1,0-0.1-0.1-0.2c0,0,0,0,0-0.1
					c0.4-1.7,0.3-3.6-0.2-5.3c2.2-1.6,3.1-4.2,2.2-6.3c0.1,0,0.1,0,0.2-0.1c4-3.5,2.4-7-0.2-10.5c-0.1-0.2-0.4-0.6-0.4-0.6
					c2.6-1,3.3-2.7,2.3-5.5c0.1,0,0.2-0.3,0.2-0.4c3.2-3.1,3.8-7.1,3.8-11.3c0-2.9,0.6-5.3,2.6-7.4c1.5-1.6,2-2.4,3.8-3.6
					C93.8,71.2,93.1,61.1,90.4,53.5z"/>
				<path fill="#C89E7D" d="M83.4,39.5c-1.6-6.1-4.8-11.6-8.7-16.5c-2.9-3.5-6.8-7.7-11.1-9.6c-0.4-0.2-0.5,0.3-0.1,0.4
					c4,1.8,7.2,6,10,9.3c4,4.8,7.9,10.7,9.5,16.8C83.1,40.3,83.5,39.9,83.4,39.5z"/>
				<g>
					<path fill="#C89E7D" d="M90.9,64c-0.5,2-0.5,4-1.3,5.9c-0.9,2-2.6,3.2-3.9,4.8c-0.2,0.3,0.1,0.7,0.4,0.5c3.8-2,6-7.1,5.2-11.2
						C91.2,63.8,90.9,63.8,90.9,64L90.9,64z"/>
				</g>
				<g>
					<path fill="#C89E7D" d="M76.8,96.1c3.2-2.5,2.7-7.3,2.7-11c0-0.2-0.2-0.2-0.3-0.1c-0.6,1.3-0.5,2.9-0.5,4.3
						c0,2.5-0.4,4.6-2.1,6.6C76.4,96,76.6,96.2,76.8,96.1L76.8,96.1z"/>
				</g>
				<g>
					<path fill="#C89E7D" d="M75,102.6c1.9-0.8,1.9-3.3,0.9-4.8c-0.1-0.2-0.4-0.1-0.4,0.1c0,0.7,0.3,1.4,0.3,2.1
						c0.1,1-0.4,1.7-1.1,2.3C74.7,102.5,74.9,102.7,75,102.6L75,102.6z"/>
				</g>
				<g>
					<path fill="#7E4E24" d="M69.4,125.8c-0.4,0.8,0.5,3.5,2.1,4.8c1-2.2-1.5-5.8-0.9-7c-2.5-3.6-1.7-3.9-1-4.3
						c-1.7-3.1,1.6-6.6,2.7-6.5c-0.1-2.8-4.5-8.2-1.7-12.8c-0.6-0.8-2.1-2.7-2.6-4.4c-0.7-2.1-3.3-4.6-6.2-5.8
						c-3.9-1.7-7.3,0.5-11.1-1.5c-4.4-2.4-9.7-6.8-12.3-11.1c-4.1-6.5-6.5-10.9-12.8-15.7C18.4,56,8.9,48.6,6.1,39.4
						c-0.7,4.9-0.5,10,0.2,14.6c1.6,9.4,3.9,16.5,7.4,21.9c3,4.6,9,8.6,11.5,10.9c2.5,2.3,6.5,8.6,11.4,10.7c0,0.4,1.5-0.4,2-0.6
						c0.8-0.8,2.2-1.3,2.8-1.5c1-0.4,1.8-0.9,3-0.9c4.5-0.2,9.1,1.1,15.3,0.1c0.7,1.4,1.9,2.7,3.2,4c-0.5,1.9,0.3,5.1,2.5,5.7
						c-0.9,2.8-1.1,6.9,1.3,8.8c0,0.1-0.2,1.4-0.2,1.5c-0.1,2.1,0.4,3.5,1.7,5.3C66.8,121.4,67.6,124.7,69.4,125.8z"/>
				</g>
				<g>
					<path fill="#1D1E1C" d="M26.2,19.4c-7.9,0.6-13,9.7-14.9,16.5c0,0.1,0.2,0.2,0.2,0.1c2.4-7.4,7-14,14.7-16.3
						C26.3,19.6,26.3,19.4,26.2,19.4L26.2,19.4z"/>
				</g>
				<g>
					<path fill="#1D1E1C" d="M61.1,15.8c7.7,4,11.8,10.3,15.2,18c0,0.1,0.2,0,0.2-0.1c-2.8-7.6-7.5-15.1-15.4-18.1
						C61.1,15.6,61.1,15.7,61.1,15.8L61.1,15.8z"/>
				</g>
				<g>
					<path fill="#1D1E1C" d="M35.8,27.7c-2.1-1.9-5.1-0.8-7.2,0.5c-0.1,0.1,0,0.2,0.1,0.1C30.9,27.1,33.5,26.3,35.8,27.7
						C35.8,27.8,35.8,27.7,35.8,27.7L35.8,27.7z"/>
				</g>
				<g>
					<path fill="#1D1E1C" d="M37.4,26.9c1.1-1,2.5-1.8,4.1-1.6c0.1,0,0.1-0.1,0-0.2C40,24.9,38.4,25.8,37.4,26.9
						C37.3,26.9,37.4,27,37.4,26.9L37.4,26.9z"/>
				</g>
				<path fill="#1D1E1C" d="M65.1,103.9c0,0.1-0.1,0.2-0.1,0.3c-0.6-0.5-1.2-1-1.7-1.8c-0.5-1-0.7-2.1-0.5-3.2
					c1.2,1.1,2.5,1.8,4,1.9C66.1,102.1,65.5,103.1,65.1,103.9z M67.7,112.1c0.9-1.5,2.3-2.5,2.7-4.2c0.6,1.5,1.3,3,1.7,4.6
					c-2.6,0.6-4,4.6-2.7,6.8c-0.3-0.1-0.5,0.1-0.7,0.3c0,0-0.1,0-0.2,0c-0.1,0.1-0.2,0.1-0.3,0.2c0,0,0,0,0,0
					C66.5,117.5,66.2,114.6,67.7,112.1z M69,125.7c-1.2-1.6-2.4-4.1-0.5-5.5c0,0.5,0.3,1.1,0.5,1.5c0.3,0.7,0.8,1.3,1.3,1.9
					c0,0,0,0-0.1,0C69.4,124.1,69.1,124.8,69,125.7z M73.1,133.4c2.3,3.1,1.2,8.6-0.4,12.3c0.2-1.3,0.1-2.6-0.2-3.9
					c-0.6-2.5-2.8-5.3-1.1-7.8c0,0,0,0,0.1,0C72.1,134.1,72.7,133.7,73.1,133.4z M72.8,133.1c-0.2,0.1-0.4,0.1-0.6,0.2
					c-0.2,0.1-0.4,0.1-0.6,0.1c-0.1-0.5-0.2-0.9-0.2-1.4c0-0.4,0.1-0.9,0.2-1.3c0,0,0.1,0,0.1,0c0.1,0,0.2,0,0.4,0c0,0,0,0,0.1,0
					l0,0c0.1,0,0.3,0,0.4,0c0,0,0,0,0,0c0.2,0.4,0.3,0.8,0.4,1.2C72.9,132.4,72.8,132.7,72.8,133.1z M72.9,128.5
					c0,0.7-0.4,1.3-0.4,2c-0.1,0-0.2,0-0.4,0c-0.2-0.2-0.5-0.4-0.7-0.6c-0.6-0.5-1-1.1-1.3-1.7c-0.7-1.4-0.8-3.1,0.4-4.3
					c0,0,0,0,0-0.1c0.8,1,1.6,1.9,2.1,3.1c0,0,0,0.1,0,0.1C72.8,127.4,72.9,127.9,72.9,128.5z M72.6,120.7c-0.5-1-1.6-2.1-2.7-1.2
					c-0.1,0,0,0.2,0,0.2c0.6,0.1,1.1-0.1,1.6,0.4c0.5,0.5,0.7,1.3,0.8,2c0.2,1.1,0.2,2.4,0,3.5c-0.5-0.8-1.3-1.6-1.8-2.3
					c-0.5-0.7-1-1.3-1.3-2c-0.2-0.4-0.4-0.8-0.3-1.2c0.1-0.3,0.4-0.3,0.5-0.5c0.1,0.1,0.3,0,0.3-0.2c-0.6-2.2-0.3-5.5,2.3-6.3
					c0,0.1,0.2,0.1,0.3,0.1c1.4,0.8,2.5,1.8,2.5,3.6C74.9,118.2,73.7,119.5,72.6,120.7z M74.7,114.3
					C74.7,114.3,74.7,114.3,74.7,114.3c-0.5-0.7-1.2-1.2-2.2-1.7c-0.7-4.5-4.3-7.8-1.9-12.5c0,0,0-0.1,0-0.1c0.5,0.5,1.1,1,1.8,1.4
					C75.3,105.2,79.6,110.2,74.7,114.3z M90.6,53.4c-1.7-5.3-2.5-8.2-3.6-11.4c-1.3-4-2.8-7.7-4.7-11.4c-1.7-3.5-3.9-6.6-6.5-9.5
					c-2.5-2.7-5.1-5.9-8.1-8.2c-9.4-7.2-30.1-7.8-37.5,2.7C23.4,12.9,16,20.7,12,25.1c-6.7,7.6-7.9,18.3-6.3,27.8
					c2.3,14.2,6.3,21.3,9.7,25c3.4,4.4,8.3,7.2,12,11.4c2.3,2.7,5.7,8,9.7,8.3c0.3,0,0.3-0.4,0.1-0.4c-4.1-1.5-6.9-5.6-9.7-8.7
					c-3.3-3.7-7.4-6.3-10.8-9.8c0,0,0,0,0,0c-0.7-0.9-3.2-4.1-4.5-6.4c-2.2-3.9-3.4-9.1-4.6-13.6C5,49.4,4.9,38.4,9.5,29.7
					c3.3-6.2,12.8-16,20.6-13.7c0.1,0.2,0.4,0.2,0.6,0c4.3-6,13.4-7.5,20.3-7.4c4.1,0.1,8.3,1.1,12,2.8c3.4,1.5,5.6,3.3,8.1,6.1
					c2.6,2.9,5.3,5.3,7.6,8.5c2.6,3.6,4.4,7.9,6.1,12c1.5,3.7,2.1,5.8,3.4,9.6c0.7,2,1.7,5.2,2.1,6.6c1.2,3.9,1.7,8.9,1.3,13.2
					c-0.5,5-3.4,7.2-7.2,10c-2.4,1.7-3.6,4-4,6.9c-0.2,1.6-0.1,3.3-0.2,5c-0.2,3.2-1.5,5.9-3.4,8.5c-0.4-1-0.9-2-1.7-3.2
					c-0.6-1-1.6-3.3-2.3-5.4c0,0.9,0.8,3.8,1.5,5c2.1,3.4,4.3,7.8,0.2,9.3c-0.1,0-0.1,0.1-0.2,0.1c-0.5-0.7-1.5-2.4-1.6-2.4
					c-2.5-1-4.9-5.9-4.9-5.9c-0.1,1.1,0.9,2.4,1.5,3.3c-0.8,0.5-1.7,1.3-2.4,2.3c-1.6-0.7-2.9-1.2-4.2-2.3c0,0,0-0.1-0.1-0.1
					c-0.1-0.1-0.2-0.2-0.3-0.3c-1.2-1.2-2.3-2.6-3.1-4c-0.1-0.2-0.5,0.1-0.4,0.2c0.7,1.4,2,3.1,3.4,4.5c-0.5,1.9,0.2,5.2,2.4,5.9
					c-0.9,2.8-1.1,6.6,1.4,8.5c0.2,0.2,0.4-0.1,0.3-0.3c-1.9-2.2-2.1-5.5-1.1-8.2c0,0,0.1-0.1,0.1-0.1c0.3-0.8,0.8-1.6,1.3-2.3
					c0.8-0.9,1.6-2.8,2.9-3.6c0.3,0.4,0.6,0.8,1,1.2c0,0-0.1,0-0.1,0.1c-1.8,2.6-1.2,5.1-0.2,7.6c0,0-0.1,0-0.1,0.1
					c-0.9,2.3-3.1,3.7-3.8,6.1c-0.6,2.3,0,4.4,1.3,6.3c0,0,0.1,0.1,0.1,0.1c-1.5,1.6-0.6,5.1,1.2,6.2c0,0.3,0.1,0.7,0.2,1
					c0.2,0.9,1,2.5,2.1,3.2c-0.4,0.9-0.6,2.3,0,3.1c-1.1,1.1-1,2.7-0.7,4.1c0.3,1.4,1,2.8,1.4,4.2c0.6,1.8,0.2,3.6,0,5.4
					c0,0.1,0.1,0.2,0.2,0.2c0,0,0,0,0.1,0c0,0,0.1,0,0.1,0c0,0,0,0,0,0c1.7-1.7,2.1-4.9,2.3-7.1c0.3-2.3,0.6-5.5-1.3-7.3
					c0,0,0,0,0,0c0.5-0.7,0.1-1.9-0.3-2.6c0.4-0.6,0.5-1.4,0.5-2.1c0-0.6-0.2-1.1-0.5-1.6c0,0,0-0.1,0-0.1c0-0.1,0-0.1-0.1-0.2
					c0,0,0,0,0-0.1c0.4-1.7,0.3-3.6-0.2-5.3c2.2-1.6,3.1-4.2,2.2-6.3c0.1,0,0.1,0,0.2-0.1c4-3.5,2.2-7.4-0.4-10.8c0,0,0,0,0,0
					c2.6-1,3.2-3.1,2.2-5.8c0.1,0,0.2,0,0.2-0.1c3.2-3.1,3.8-7.4,3.8-11.6c0-2.9,0.6-5.3,2.6-7.5c1.5-1.6,3.3-2.8,4.9-4.3
					C93.8,69.9,93.6,63,90.6,53.4z"/>
			</g>
			<g>
				<path fill="#1D1E1C" d="M45.3,94.4c3.6,2.1,9.1,1.9,12.7,0c0.3-0.2,0.1-0.7-0.2-0.5c-4.2,1.3-8.1,1.5-12.3,0
					C45.2,93.8,45,94.3,45.3,94.4L45.3,94.4z"/>
			</g>
			<path fill="#1D1E1C" d="M41.1,95.3c-0.9-0.1-2.6,1.1-2.7,1.6c0,0.2,0.1,0.3,0.2,0.2c0.3-0.2,0.5-0.4,0.7-0.6
				c0.9-0.7,1.7-0.7,1.9-0.8C41.4,95.7,41.3,95.3,41.1,95.3z"/>
			<g>
				<path fill="#1D1E1C" d="M41.4,97.1c-1.7,1.3-2.5,3.8-3.5,5.6c-0.1,0.1,0.1,0.3,0.2,0.2c1.4-1.6,1.8-4.1,3.5-5.5
					C41.8,97.2,41.6,97,41.4,97.1L41.4,97.1z"/>
			</g>
			<g>
				<path fill="#1D1E1C" d="M38.6,96.7c-0.3,0.5-0.1,1.3,0.1,1.8c0,0.2,0.3,0.1,0.3,0c0-0.5,0.1-1.3-0.2-1.8
					C38.8,96.6,38.7,96.6,38.6,96.7L38.6,96.7z"/>
			</g>
			<g>
				<path fill="#1D1E1C" d="M24.5,108.7c4.2-5.9,8.9-10.1,14.1-11.6c0.2-0.1,0.1-0.4-0.1-0.4c-5.6,1.3-11.5,6.8-14.2,11.7
					C24.2,108.7,24.4,108.8,24.5,108.7L24.5,108.7z"/>
			</g>
			<g>
				<path fill="#CA8C63" d="M58.4,92.5c0.1-0.9-0.1-3.3-0.1-3.3c-0.1-1.7-0.2-1.4-2.2-2c-1.8-0.5-3.5-0.4-5.3-0.3
					c-1.1,0.1-3.2,0-4.2,0.6c-1.6,1-1.8,3.4-1.9,5.1c0,0.4-0.6,1.1-0.6,1.7c0,0.5,4.2,2.1,5.7,2.3c1.5,0.2,3.2,0,4.6-0.4
					c0.7-0.2,4.2-1.5,4.7-1.9C59.5,94.1,58.5,92.5,58.4,92.5z"/>
				<g>
					<path fill="#1D1E1C" d="M58.3,89c-0.6,0.7-0.3,2-0.2,2.9c0.1,0.9,0.4,2.1,1.1,2.7c0.1,0.1,0.4-0.4,0.3-0.5
						c-0.2-0.1-0.5-0.9-0.6-1.6c-0.1-0.6-0.1-1.4-0.2-2c0-0.5,0-1-0.1-1.4C58.5,88.9,58.4,88.9,58.3,89L58.3,89z"/>
				</g>
				<g>
					<path fill="#1D1E1C" d="M43.7,94c-1.1,0.1-1.7,0.5-2.5,1.1c-0.3,0.2,0.1,0.7,0.4,0.4c1-0.9,1.2-0.8,2.4-1.1
						c0.2,0,0.1-0.3-0.1-0.3L43.7,94z"/>
				</g>
				<g>
					<path fill="#1D1E1C" d="M41.1,95.5c1.5,2.6,6.8,4.6,10.8,4.3c4-0.3,6.8-1.1,8.9-3.1c0.3-0.3-0.2-0.4-0.2-0.4
						c-4.8,4.7-15.2,3.8-19.2-1C41.3,95.2,41,95.3,41.1,95.5L41.1,95.5z"/>
				</g>
				<path fill="#B67655" d="M47.7,95.8c0,0-0.6-3.5,0.8-5.6l-3.6-1c0.6,2-0.7,5.4-0.9,5.2L47.7,95.8z"/>
				<g>
					<path fill="#1D1E1C" d="M44.6,89.5c-0.1,0.2,0,0.5,0,0.7c0,0.5-0.1,1.1-0.2,1.6c-0.2,0.8-0.4,1.6-0.8,2.3
						c-0.2,0.3,0.4,0.5,0.6,0.2c0.6-0.8,0.8-1.8,0.9-2.7c0.1-0.6,0.2-1.8-0.5-2.2C44.7,89.4,44.7,89.4,44.6,89.5L44.6,89.5z"/>
				</g>
				<g>
					<path fill="#1D1E1C" d="M43.8,94.5c4.6,3.3,11.1,3.2,15.7,0L59,93.9c-4.6,3.2-10.2,2.5-15,0C43.7,93.8,43.5,94.3,43.8,94.5
						L43.8,94.5z"/>
				</g>
			</g>
			<g>
				<path fill="#CA8C63" d="M86.4,57c-0.4-1.5-2.8-1.2-5.8-1.5c-0.7-0.1-1.5-0.7-2-0.8c-3.3-0.9-11.7-7.5-19.7-15.7
					c-0.1-0.1-3.1-3.5-4.8-4.4c-0.7-0.4-1.3-0.8-2-1.1c-0.2-0.1-0.4-0.2-0.5-0.3c0,0,0,0,0,0l0,0c-0.3-0.1-0.5-0.2-0.8-0.3
					c-0.5-0.2-0.9-0.2-1.2-0.2c-0.4-0.1-0.9-0.1-1.3-0.1c-2.6,0.2-5.9,4.5-6.8,3.3c-0.1-0.5-0.7-1-1.9-1.4c-1-0.4-3.3-1-4.4-0.6
					c-2.1,0.9-2.4,0-5.3,5.6c-1.5,2.8-2.9,6-5,9.7c-0.8,1.5-2.9,4.7-5,5.2c-1.7,0.4-3.6-1.8-4.5-0.6c-3.5,4.5-1.2,8.5,2.4,9.7
					c0.6,0.3,3.2,0.3,3.3-0.2c0.6,0.7,0.6,2.4,0.8,3.2c0.6,2.1,2.7,6.7,2.8,6.7C26.5,77.3,35.1,88,46.3,90c4.9,0.9,6.1,1.1,10.9,0
					c4.7-1.1,7.6-2.8,10.6-5.9c3.4-3.5,5.3-4.3,7.5-8.7c1.1-2.2,2.9-6.1,3.8-8.3c0.1-0.2,0.7-2.9,1.2-3.7c1.3,0.4,2.6,0,3.5-0.7
					C85.9,61,86.8,58.5,86.4,57z"/>
				<path fill="#1D1E1C" d="M36.7,55.3c-0.9,0.1-1.5,0.2-2.1,0.9c-0.9,1.2-0.8,2.9,0.7,3.5c1.2,0.5,3.2,0.1,3.7-1.2
					c0.5-1.3-0.8-2.9-2-3.2c-0.5-0.1-1.1,0-1.6,0.2"/>
				<path fill="#B67655" d="M41.5,35.8c-0.1-0.5-0.7-1-1.9-1.4c-1-0.4-3.3-1-4.4-0.6c-2.1,0.9-2.4,0-5.3,5.6c-1.5,2.8-2.9,6-5,9.7
					c-0.8,1.5-2.9,4.7-5,5.2c-1.7,0.4-3.6-1.8-4.5-0.6c-3.5,4.5-1.2,8.5,2.4,9.7c0.6,0.3,3.2,0.3,3.3-0.2c0.6,0.7,0.6,2.4,0.8,3.2
					c0.6,2.1,2.7,6.7,2.8,6.7c1.8,4.1,9.7,17.9,29.5,17.8c0,0-7.3-1.2-13-4.3c-4-2.2-8.6-6.9-11-10.3c-2.8-3.9-9.5-17.3-5.5-22.6
					c6.3-8.2,6.3-15.2,10.2-17.2C38,34.9,41.5,35.8,41.5,35.8z"/>
				<g>
					<path fill="#1D1E1C" d="M83.2,57.1c0.6,1,0.3,2.1-0.6,2.7c-0.2,0.1,0,0.4,0.2,0.3c1.3-0.4,1.6-2.4,0.6-3.2
						C83.3,56.8,83.2,57,83.2,57.1L83.2,57.1z"/>
				</g>
				<g>
					<path fill="#1D1E1C" d="M16.4,53.4c3.8,3.2,6.5-0.4,8.3-4c1.9-3.7,4.1-7.3,6.1-10.9c2.9-5,6.7-5,11.1-2.2
						c0.4,0.2,0.7-0.3,0.4-0.6c-2.2-2.4-6.8-3.6-9.5-1.3c-2.7,2.2-4.1,6.1-5.8,9.1c-1.9,3.4-5,13.2-10.5,9.5
						C16.5,53.1,16.3,53.3,16.4,53.4L16.4,53.4z"/>
				</g>
				<g>
					<path fill="#1D1E1C" d="M47,62.3c1-0.7,1.7-1.5,3-1.6c1.6,0,2.6,1.3,3.7,2.1c0.2,0.1,0.3-0.1,0.3-0.2c-0.6-1.2-2.2-2.3-3.5-2.4
						c-1.5-0.1-2.7,0.7-3.5,2C46.9,62.3,47,62.4,47,62.3L47,62.3z"/>
				</g>
				<path opacity="0.8" fill="#D07475" d="M32.2,59.6c-0.2,0-0.3,0-0.5,0c-1.3-0.2-2.7,0.1-3.8,0.8c-0.4,0.2-0.6,0.7-0.8,1.1
					c-0.3,0.4-0.2,1,0.1,1.3c0,0.1,0.1,0.1,0.1,0.2c0.7,1.1,2,1.4,3.1,1.5c0.4,0,0.9,0.1,1.4,0.1c0.1,0.1,0.3,0.2,0.5,0.3
					c1.6,0.2,4.2-0.2,4.4-2.7C36.9,59.9,33.7,59.2,32.2,59.6z"/>
				<path opacity="0.8" fill="#D07475" d="M72.2,61.9c-0.3-0.3-0.6-0.6-0.9-0.8c0,0,0,0,0.1,0c0.1,0,0.1-0.2,0-0.3
					c-1.6-0.8-3.4-0.9-5.1-0.6c-0.1,0-0.2,0-0.3,0.1c-0.7,0.2-1.4,0.5-2,0.9c-0.4,0.3-0.5,1.1-0.2,1.5c0.1,0.1,0.3,0.2,0.4,0.4
					c0.7,1.3,2.4,1.4,3.5,1.4c1.4,0.1,3.4-0.1,4.4-1.5C72.4,62.7,72.5,62.2,72.2,61.9z"/>
				<g>
					<path fill="#1D1E1C" d="M16.3,53.1c-2.7,1-3.2,4.7-2.5,7.1c0.8,3.3,4.9,4.3,7.7,3.5c0.3-0.1,0.2-0.5-0.1-0.5
						c-2.9,0.6-5.9-0.2-7.1-3.2c-0.8-2.1,0-5.5,2.2-6.5C16.7,53.4,16.6,53,16.3,53.1L16.3,53.1z"/>
				</g>
				<g>
					<path fill="#1D1E1C" d="M17.2,56.9c-1.1,0.6-0.6,2.7,0.4,3.1c0.1,0,0.2,0,0.2-0.1c0.3-0.3-0.4-0.7-0.5-0.9
						c-0.4-0.6-0.4-1.4,0.1-2C17.5,57,17.3,56.8,17.2,56.9L17.2,56.9z"/>
				</g>
				<path fill="#DCAE8D" d="M77.4,61.3c-1.8,10.5-6.5,21.1-15.1,25.4c-0.4,0.2-0.1,0.5,0.3,0.3c9.1-4.5,14.3-14.7,16.2-25.4
					C78.8,61.1,77.4,60.8,77.4,61.3z"/>
				<g>
					<path fill="#DCAE8D" d="M84.9,56.5c0.4,1,0.4,2.4,0,3c-0.6,0.9,0.3,1.3,0.6,0.6c0.6-1.2,0.3-2.8-0.1-3.7
						C85,55.7,84.6,55.9,84.9,56.5z"/>
				</g>
				<g>
					<path fill="#1D1E1C" d="M85.8,56.1c0.4,1.7,0.7,2.8-0.2,4.5c-0.6,1.1-1.6,1.7-2.7,2.2C82,63.1,81,63,80.1,63.2
						c-0.1,0-0.1,0.2,0,0.2c1.8,0.9,4.5-0.4,5.6-1.9c1-1.4,1.4-4.1,0.4-5.6c0,0-0.1,0-0.1,0L85.8,56.1z"/>
				</g>
				<g>
					<path fill="#1D1E1C" d="M42.3,36.6c2-2.1,3.9-3.3,7-3.5c3.4-0.2,5.8,2.7,8.2,4.8c3.2,2.9,6,6.3,9.2,9.2c6,5.3,14.3,10.9,22.7,9
						c0.2,0,0.1-0.3,0-0.3c-7.5-0.5-13.4-2.1-19.2-6.9c-4.1-3.3-7.6-7.1-11.3-10.8c-2.7-2.7-5.5-5.5-9.5-5.7c-2.9-0.2-6,1.4-7.2,4.1
						C42.1,36.6,42.2,36.7,42.3,36.6L42.3,36.6z"/>
				</g>
				<g>
					<g>
						<path fill="#1D1E1C" d="M70.1,51.7c-0.2-0.8-1-1.4-1.6-1.8c-1-0.7-1.9-1-3-1.3c-0.4-0.1-0.6,0.5-0.3,0.7
							c0.9,0.5,1.8,1.1,2.6,1.7c0.6,0.4,1.3,0.9,2,1C70,52,70.1,51.8,70.1,51.7L70.1,51.7z"/>
					</g>
					<g>
						<path fill="#1D1E1C" d="M63.8,55.4c-0.9,0.2-1.5,0.2-2.1,1c-0.9,1.1-0.8,2.7,0.5,3.3c0.1,0.1,2.2-0.2,3.5-0.4
							c0.2-0.2,0.4-0.5,0.5-0.8c0.4-1.3-0.8-2.9-2.1-3.2c-0.5-0.1-1.1,0-1.6,0.2"/>
						<path fill="#FFFFFF" d="M64.1,55.9c-0.6,0.1-1.7,0.9-0.6,1.6C65.2,58.7,65.9,56.2,64.1,55.9"/>
						<g>
							<path fill="#1D1E1C" d="M61.4,60.4c0.9-0.3,1.7-0.6,2.6-0.7c0.9-0.1,1.6,0.2,2.5,0.2c0.1,0,0.1-0.1,0.1-0.2
								c-0.5-0.8-1.8-0.7-2.6-0.6c-0.9,0.1-2.3,0.3-2.7,1.2C61.2,60.4,61.3,60.5,61.4,60.4L61.4,60.4z"/>
						</g>
					</g>
					<g>
						<g>
							<path fill="#1D1E1C" d="M30.1,51.7c0.2-0.8,1-1.4,1.6-1.8c1-0.7,1.9-1,3-1.3c0.4-0.1,0.6,0.5,0.3,0.7
								c-0.9,0.5-1.8,1.1-2.6,1.7c-0.6,0.4-1.3,0.9-2,1C30.1,52,30.1,51.8,30.1,51.7L30.1,51.7z"/>
						</g>
						<g>
							<path fill="#1D1E1C" d="M36.4,55.3c0.9,0.2,1.5,0.2,2.1,1c0.9,1.1,0.8,2.7-0.5,3.3c-0.1,0.1-2.2-0.2-3.5-0.4
								c-0.2-0.2-0.4-0.5-0.5-0.8c-0.4-1.3,0.8-2.9,2.1-3.2c0.5-0.1,1.1,0,1.6,0.2"/>
							<path fill="#FFFFFF" d="M37.1,55.9c-0.6,0.1-1.7,0.9-0.6,1.6C38.2,58.7,38.9,56.2,37.1,55.9"/>
							<g>
								<path fill="#1D1E1C" d="M38.9,60.3c-0.5-0.9-1.8-1.1-2.7-1.2c-0.7-0.1-2.1-0.1-2.6,0.6c0,0.1,0,0.2,0.1,0.2
									c0.8-0.1,1.5-0.3,2.2-0.3c1.1,0,1.9,0.4,2.9,0.7C38.9,60.4,38.9,60.4,38.9,60.3L38.9,60.3z"/>
							</g>
						</g>
					</g>
					<g>
						<g>
							<path fill="#1D1E1C" d="M37.1,70c3,3.6,9.7,6.4,14.1,4c0.1-0.1,0.1-0.3-0.1-0.3c-2.5,0.3-4.5,0.6-7,0
								c-2.7-0.6-4.8-2.2-6.8-3.9C37.2,69.6,37,69.8,37.1,70L37.1,70z"/>
						</g>
						<g>
							<path fill="#1D1E1C" d="M36.5,70.5c0.3-0.1,0.5-0.4,0.7-0.6c0.2-0.2,0.5-0.4,0.8-0.7c0.1-0.1,0-0.2-0.1-0.2
								c-0.4-0.1-0.7,0.1-1,0.4c-0.3,0.3-0.6,0.6-0.6,1C36.3,70.5,36.4,70.5,36.5,70.5L36.5,70.5z"/>
						</g>
					</g>
				</g>
				<g>
					<path fill="#1D1E1C" d="M20.6,58.9c-0.1,7.4,3.9,16,8.8,21.6c5.3,6,12.9,9.8,20.8,10.4C66.8,92,78.2,75.9,81.2,59
						c0.1-0.4-0.6-0.7-0.7-0.2c-1,5.9-3.5,12.6-6.5,17.8c-1.9,3.4-5,6.3-8,8.7c-4.7,3.6-9.7,4.8-15,4.9c-8.4,0.1-14.9-4.1-20.4-9.4
						c-5.4-5.2-9.2-14.4-9.5-21.9C21,58.6,20.6,58.6,20.6,58.9L20.6,58.9z"/>
				</g>
			</g>
		</g>
	</g>
</g>
<g id="personajes_hover">
	<g>
		<defs>
			<rect id="SVGID_47_" x="0" y="0" width="100" height="100"/>
		</defs>
		<use xlink:href="#SVGID_47_"  overflow="visible" fill="#8F4E99"/>
		<clipPath id="SVGID_4_">
			<use xlink:href="#SVGID_47_"  overflow="visible"/>
		</clipPath>
		<g clip-path="url(#SVGID_4_)">
			<g>
				<path fill="#B71E1E" d="M80.6,113.5c-0.1-0.3-0.3-0.5-0.4-0.7c-0.2-0.3-0.2-0.8-0.3-1.1c0.1-1.2-0.7-2.2-1.6-2.9
					c-2.8-5-8.2-10.4-13.9-11.8c-0.4-0.6-1.8-1.5-2.8-1.5c-0.3-0.7-1.9-1-2.2-1.4c-0.3-0.4-1.5-0.2-1.5-0.2c-4.2,1.3-8,1.5-12.2,0
					c0,0,0,0,0,0c0.2,0-1.3,0.1-2,0.3c-1,0.3-1.7,0.7-2.1,0.9c-0.3,0.2-0.3,0.2-0.5,0.5c0,0-0.4,0.1-0.4,0.1
					c-0.6-0.4-1.5,0.6-1.8,1.1c-5.6,1.3-11.4,6.6-14.2,11.6c-1,0.7-1.6,1.6-1.5,2.9c-0.1,0.3-0.2,0.6-0.3,0.9
					c-0.1,0.3-0.2,0.6-0.4,0.9c0,0.1-0.1,0.1,0,0.2c-0.1,0.1-0.3,0.3-0.2,0.4c3.9,0.2,7.6,3.8,10.5,5.6c-0.5,1.4-1.2,3.1-0.9,4.7
					c0.4,1.7,1.4,2.9,2.8,3.5c0.1,0.1,0,0.7,0.4,1.4c0,0,0,0,0,0c-0.3,3-0.2,6.1-0.9,9c-0.6,2.3-1.7,4.1-2.2,6.5
					c0,0-0.8,1.4-0.7,1.4c-1,1.6-0.7,2.4-0.8,4.2c-0.1,0.3-0.3,1.1-0.4,1.4c-0.2,0.5-0.6,0.7-0.8,1.2c0,0-0.8,1.1-0.8,1.1
					c0,0.1,1.3,0.6,1.4,0.7c2.6,1.4,8.4,1.7,11.3,2c4.3,0.5,8.5,0.4,12.8,0.4c7.5-0.1,13-1,20.3-3c0.1,0,0-0.6-0.1-0.8
					c-0.1-0.4-0.7-0.8-0.9-1.2c-0.2-0.3-0.3-1-0.4-1.3c-0.2-1.8-0.4-3.7-1.3-5.3c0,0-0.1-0.3-0.1-0.4c-0.4-2.4-1.6-4.4-2.3-6.7
					c-0.8-2.9-0.6-8.6-1-8.8c0,0,0.6-0.9,0.4-1.7c1.4-0.6,2.4-1.8,2.9-3.5c0.4-1.5-0.4-3.2-0.9-4.7c2.8-2,6.4-5,10-5.8
					c0.1,0,0.6,0,0.6-0.1C80.8,113.6,80.6,113.5,80.6,113.5z"/>
			</g>
			<g>
				<path fill="#98191B" d="M52.3,156.7c-1-1.6-3.9-3-4.8-4c-3.6-3.3-4.9-4.3-5.8-12.6c-0.6-5.2,0.6-11.2,0-13.2
					c-3.9,0.3-5.4-0.2-6.9-2.7c-0.7-1.1-0.7-2.9-0.5-4.5c0.4-4,3.1-8.7,4.7-12.5c1.5-3.6,4.2-10.9,8.5-11.4h-0.5
					c-0.1-0.8-0.6-1.4-1.2-1.8c0,0-0.1,0-0.1,0c0,0,0,0,0,0c0.2,0-1.3,0.1-2,0.3c-1,0.3-1.7,0.7-2.1,0.9c-0.3,0.2-0.7,0.4-0.9,0.7
					c0,0,0-0.1-0.1-0.1c-0.6-0.4-1.6,0.5-2,1c-4.8,1.1-11.8,6.9-14.1,12.1c0,0,2.7-1.6,2.5-1.5c-2,1.4-2.5,3.1-2,4.5
					c0.1,0.4,0,2.1-0.2,2.5c3.2,1.3,5.2,3.2,7.9,4.9c-0.5,1.4-1.2,3.1-0.9,4.7c0.4,1.7,1.4,2.9,2.8,3.5c0.1,0.1,0,0.7,0.4,1.4
					c0,0,0,0,0,0c-0.3,3-0.2,6.1-0.9,9c-0.6,2.3-1.7,4.1-2.2,6.5c0,0-0.8,1.4-0.7,1.4c-1,1.6-0.7,2.4-0.8,4.2
					c-0.1,0.3-0.3,1.1-0.4,1.4c-0.2,0.5-0.6,0.7-0.8,1.2c0,0-0.8,1.1-0.8,1.1c0,0.1,1.3,0.6,1.4,0.7c2.6,1.4,8.4,1.7,11.3,2
					C44.8,156.8,48.5,156.8,52.3,156.7z"/>
			</g>
			<path fill="#E67373" d="M74.7,104.8c-2.6-3.2-6.1-5.6-8.9-6.7c-0.8-0.3-0.8,0.9-0.4,1c2.9,0.8,5.9,2.7,8.8,6
				C74.6,105.5,74.9,105,74.7,104.8z"/>
			<g>
				<path fill="#925F36" d="M90.4,53.5c-1.5-3.5-2.5-8.2-3.6-11.4c-1.3-3.9-2.8-7.7-4.7-11.4c-1.7-3.5-3.9-6.6-6.5-9.4
					c-2.5-2.7-5.1-5.9-8-8.2c-9.4-7.2-30-7.8-37.4,2.7C23.5,13.1,16,20.9,12,25.4c-6.7,7.5-7.5,19.3-5.9,28.8
					c1.6,9.4,4.5,16.4,8,21.7c3,4.6,8.2,8.2,10.6,10.4c2.5,2.3,6.8,8.8,11.7,10.9c0,0.4,2.4-1,2.9-1.1c0.9-0.2,1.5-0.5,2-0.7
					c1-0.4,1.5-1.4,2.6-1.4c4.5-0.2,9.3,1.7,15.5,0.8c0.7,1.4,1.9,2.7,3.2,4c-0.5,1.9,0.3,5.1,2.5,5.7c-0.9,2.8-1.1,6.9,1.3,8.8
					c0,0,0,0,0,0c0,0.1-0.2,1.4-0.2,1.5c-0.1,2.1,0.4,3.5,1.7,5.3c0,0,0,0,0,0c-1.5,1.6-0.6,4.9,1.2,6c0,0.3,0.4,3.2,2.5,4.4
					c-0.6,0.4-0.9,2.5-0.4,3.4c-1.1,1.1-0.8,2.5-0.6,4c0.3,1.4,0.8,2.9,1.3,4.2c0.5,1.8,0.2,3.2,0,5c0,0.1-0.2,0.5-0.1,0.5
					c0,0,0,0,0.1,0c0,0,0.1,0,0.1,0c0,0,0,0,0,0c1.7-1.7,2.1-4.9,2.3-7.1c0.3-2.3,0.6-5.5-1.3-7.3c0,0,0,0,0,0
					c0.5-0.7,0.1-1.9-0.3-2.6c0.4-0.6,0.5-1.4,0.5-2.1c0-0.6-0.2-1.1-0.5-1.6c0,0,0-0.1,0-0.1c0-0.1,0-0.1-0.1-0.2c0,0,0,0,0-0.1
					c0.4-1.7,0.3-3.6-0.2-5.3c2.2-1.6,3.1-4.2,2.2-6.3c0.1,0,0.1,0,0.2-0.1c4-3.5,2.4-7-0.2-10.5c-0.1-0.2-0.4-0.6-0.4-0.6
					c2.6-1,3.3-2.7,2.3-5.5c0.1,0,0.2-0.3,0.2-0.4c3.2-3.1,3.8-7.1,3.8-11.3c0-2.9,0.6-5.3,2.6-7.4c1.5-1.6,2-2.4,3.8-3.6
					C93.8,71.2,93.1,61.1,90.4,53.5z"/>
				<path fill="#C89E7D" d="M83.4,39.5c-1.6-6.1-4.8-11.6-8.7-16.5c-2.9-3.5-6.8-7.7-11.1-9.6c-0.4-0.2-0.5,0.3-0.1,0.4
					c4,1.8,7.2,6,10,9.3c4,4.8,7.9,10.7,9.5,16.8C83.1,40.3,83.5,39.9,83.4,39.5z"/>
				<g>
					<path fill="#C89E7D" d="M90.9,64c-0.5,2-0.5,4-1.3,5.9c-0.9,2-2.6,3.2-3.9,4.8c-0.2,0.3,0.1,0.7,0.4,0.5c3.8-2,6-7.1,5.2-11.2
						C91.2,63.8,90.9,63.8,90.9,64L90.9,64z"/>
				</g>
				<g>
					<path fill="#C89E7D" d="M76.8,96.1c3.2-2.5,2.7-7.3,2.7-11c0-0.2-0.2-0.2-0.3-0.1c-0.6,1.3-0.5,2.9-0.5,4.3
						c0,2.5-0.4,4.6-2.1,6.6C76.4,96,76.6,96.2,76.8,96.1L76.8,96.1z"/>
				</g>
				<g>
					<path fill="#C89E7D" d="M75,102.6c1.9-0.8,1.9-3.3,0.9-4.8c-0.1-0.2-0.4-0.1-0.4,0.1c0,0.7,0.3,1.4,0.3,2.1
						c0.1,1-0.4,1.7-1.1,2.3C74.7,102.5,74.9,102.7,75,102.6L75,102.6z"/>
				</g>
				<g>
					<path fill="#7E4E24" d="M69.4,125.8c-0.4,0.8,0.5,3.5,2.1,4.8c1-2.2-1.5-5.8-0.9-7c-2.5-3.6-1.7-3.9-1-4.3
						c-1.7-3.1,1.6-6.6,2.7-6.5c-0.1-2.8-4.5-8.2-1.7-12.8c-0.6-0.8-2.1-2.7-2.6-4.4c-0.7-2.1-3.3-4.6-6.2-5.8
						c-3.9-1.7-7.3,0.5-11.1-1.5c-4.4-2.4-9.7-6.8-12.3-11.1c-4.1-6.5-6.5-10.9-12.8-15.7C18.4,56,8.9,48.6,6.1,39.4
						c-0.7,4.9-0.5,10,0.2,14.6c1.6,9.4,3.9,16.5,7.4,21.9c3,4.6,9,8.6,11.5,10.9c2.5,2.3,6.5,8.6,11.4,10.7c0,0.4,1.5-0.4,2-0.6
						c0.8-0.8,2.2-1.3,2.8-1.5c1-0.4,1.8-0.9,3-0.9c4.5-0.2,9.1,1.1,15.3,0.1c0.7,1.4,1.9,2.7,3.2,4c-0.5,1.9,0.3,5.1,2.5,5.7
						c-0.9,2.8-1.1,6.9,1.3,8.8c0,0.1-0.2,1.4-0.2,1.5c-0.1,2.1,0.4,3.5,1.7,5.3C66.8,121.4,67.6,124.7,69.4,125.8z"/>
				</g>
				<g>
					<path fill="#1D1E1C" d="M26.2,19.4c-7.9,0.6-13,9.7-14.9,16.5c0,0.1,0.2,0.2,0.2,0.1c2.4-7.4,7-14,14.7-16.3
						C26.3,19.6,26.3,19.4,26.2,19.4L26.2,19.4z"/>
				</g>
				<g>
					<path fill="#1D1E1C" d="M61.1,15.8c7.7,4,11.8,10.3,15.2,18c0,0.1,0.2,0,0.2-0.1c-2.8-7.6-7.5-15.1-15.4-18.1
						C61.1,15.6,61.1,15.7,61.1,15.8L61.1,15.8z"/>
				</g>
				<g>
					<path fill="#1D1E1C" d="M35.8,27.7c-2.1-1.9-5.1-0.8-7.2,0.5c-0.1,0.1,0,0.2,0.1,0.1C30.9,27.1,33.5,26.3,35.8,27.7
						C35.8,27.8,35.8,27.7,35.8,27.7L35.8,27.7z"/>
				</g>
				<g>
					<path fill="#1D1E1C" d="M37.4,26.9c1.1-1,2.5-1.8,4.1-1.6c0.1,0,0.1-0.1,0-0.2C40,24.9,38.4,25.8,37.4,26.9
						C37.3,26.9,37.4,27,37.4,26.9L37.4,26.9z"/>
				</g>
				<path fill="#1D1E1C" d="M65.1,103.9c0,0.1-0.1,0.2-0.1,0.3c-0.6-0.5-1.2-1-1.7-1.8c-0.5-1-0.7-2.1-0.5-3.2
					c1.2,1.1,2.5,1.8,4,1.9C66.1,102.1,65.5,103.1,65.1,103.9z M67.7,112.1c0.9-1.5,2.3-2.5,2.7-4.2c0.6,1.5,1.3,3,1.7,4.6
					c-2.6,0.6-4,4.6-2.7,6.8c-0.3-0.1-0.5,0.1-0.7,0.3c0,0-0.1,0-0.2,0c-0.1,0.1-0.2,0.1-0.3,0.2c0,0,0,0,0,0
					C66.5,117.5,66.2,114.6,67.7,112.1z M69,125.7c-1.2-1.6-2.4-4.1-0.5-5.5c0,0.5,0.3,1.1,0.5,1.5c0.3,0.7,0.8,1.3,1.3,1.9
					c0,0,0,0-0.1,0C69.4,124.1,69.1,124.8,69,125.7z M73.1,133.4c2.3,3.1,1.2,8.6-0.4,12.3c0.2-1.3,0.1-2.6-0.2-3.9
					c-0.6-2.5-2.8-5.3-1.1-7.8c0,0,0,0,0.1,0C72.1,134.1,72.7,133.7,73.1,133.4z M72.8,133.1c-0.2,0.1-0.4,0.1-0.6,0.2
					c-0.2,0.1-0.4,0.1-0.6,0.1c-0.1-0.5-0.2-0.9-0.2-1.4c0-0.4,0.1-0.9,0.2-1.3c0,0,0.1,0,0.1,0c0.1,0,0.2,0,0.4,0c0,0,0,0,0.1,0
					l0,0c0.1,0,0.3,0,0.4,0c0,0,0,0,0,0c0.2,0.4,0.3,0.8,0.4,1.2C72.9,132.4,72.8,132.7,72.8,133.1z M72.9,128.5
					c0,0.7-0.4,1.3-0.4,2c-0.1,0-0.2,0-0.4,0c-0.2-0.2-0.5-0.4-0.7-0.6c-0.6-0.5-1-1.1-1.3-1.7c-0.7-1.4-0.8-3.1,0.4-4.3
					c0,0,0,0,0-0.1c0.8,1,1.6,1.9,2.1,3.1c0,0,0,0.1,0,0.1C72.8,127.4,72.9,127.9,72.9,128.5z M72.6,120.7c-0.5-1-1.6-2.1-2.7-1.2
					c-0.1,0,0,0.2,0,0.2c0.6,0.1,1.1-0.1,1.6,0.4c0.5,0.5,0.7,1.3,0.8,2c0.2,1.1,0.2,2.4,0,3.5c-0.5-0.8-1.3-1.6-1.8-2.3
					c-0.5-0.7-1-1.3-1.3-2c-0.2-0.4-0.4-0.8-0.3-1.2c0.1-0.3,0.4-0.3,0.5-0.5c0.1,0.1,0.3,0,0.3-0.2c-0.6-2.2-0.3-5.5,2.3-6.3
					c0,0.1,0.2,0.1,0.3,0.1c1.4,0.8,2.5,1.8,2.5,3.6C74.9,118.2,73.7,119.5,72.6,120.7z M74.7,114.3
					C74.7,114.3,74.7,114.3,74.7,114.3c-0.5-0.7-1.2-1.2-2.2-1.7c-0.7-4.5-4.3-7.8-1.9-12.5c0,0,0-0.1,0-0.1c0.5,0.5,1.1,1,1.8,1.4
					C75.3,105.2,79.6,110.2,74.7,114.3z M90.6,53.4c-1.7-5.3-2.5-8.2-3.6-11.4c-1.3-4-2.8-7.7-4.7-11.4c-1.7-3.5-3.9-6.6-6.5-9.5
					c-2.5-2.7-5.1-5.9-8.1-8.2c-9.4-7.2-30.1-7.8-37.5,2.7C23.4,12.9,16,20.7,12,25.1c-6.7,7.6-7.9,18.3-6.3,27.8
					c2.3,14.2,6.3,21.3,9.7,25c3.4,4.4,8.3,7.2,12,11.4c2.3,2.7,5.7,8,9.7,8.3c0.3,0,0.3-0.4,0.1-0.4c-4.1-1.5-6.9-5.6-9.7-8.7
					c-3.3-3.7-7.4-6.3-10.8-9.8c0,0,0,0,0,0c-0.7-0.9-3.2-4.1-4.5-6.4c-2.2-3.9-3.4-9.1-4.6-13.6C5,49.4,4.9,38.4,9.5,29.7
					c3.3-6.2,12.8-16,20.6-13.7c0.1,0.2,0.4,0.2,0.6,0c4.3-6,13.4-7.5,20.3-7.4c4.1,0.1,8.3,1.1,12,2.8c3.4,1.5,5.6,3.3,8.1,6.1
					c2.6,2.9,5.3,5.3,7.6,8.5c2.6,3.6,4.4,7.9,6.1,12c1.5,3.7,2.1,5.8,3.4,9.6c0.7,2,1.7,5.2,2.1,6.6c1.2,3.9,1.7,8.9,1.3,13.2
					c-0.5,5-3.4,7.2-7.2,10c-2.4,1.7-3.6,4-4,6.9c-0.2,1.6-0.1,3.3-0.2,5c-0.2,3.2-1.5,5.9-3.4,8.5c-0.4-1-0.9-2-1.7-3.2
					c-0.6-1-1.6-3.3-2.3-5.4c0,0.9,0.8,3.8,1.5,5c2.1,3.4,4.3,7.8,0.2,9.3c-0.1,0-0.1,0.1-0.2,0.1c-0.5-0.7-1.5-2.4-1.6-2.4
					c-2.5-1-4.9-5.9-4.9-5.9c-0.1,1.1,0.9,2.4,1.5,3.3c-0.8,0.5-1.7,1.3-2.4,2.3c-1.6-0.7-2.9-1.2-4.2-2.3c0,0,0-0.1-0.1-0.1
					c-0.1-0.1-0.2-0.2-0.3-0.3c-1.2-1.2-2.3-2.6-3.1-4c-0.1-0.2-0.5,0.1-0.4,0.2c0.7,1.4,2,3.1,3.4,4.5c-0.5,1.9,0.2,5.2,2.4,5.9
					c-0.9,2.8-1.1,6.6,1.4,8.5c0.2,0.2,0.4-0.1,0.3-0.3c-1.9-2.2-2.1-5.5-1.1-8.2c0,0,0.1-0.1,0.1-0.1c0.3-0.8,0.8-1.6,1.3-2.3
					c0.8-0.9,1.6-2.8,2.9-3.6c0.3,0.4,0.6,0.8,1,1.2c0,0-0.1,0-0.1,0.1c-1.8,2.6-1.2,5.1-0.2,7.6c0,0-0.1,0-0.1,0.1
					c-0.9,2.3-3.1,3.7-3.8,6.1c-0.6,2.3,0,4.4,1.3,6.3c0,0,0.1,0.1,0.1,0.1c-1.5,1.6-0.6,5.1,1.2,6.2c0,0.3,0.1,0.7,0.2,1
					c0.2,0.9,1,2.5,2.1,3.2c-0.4,0.9-0.6,2.3,0,3.1c-1.1,1.1-1,2.7-0.7,4.1c0.3,1.4,1,2.8,1.4,4.2c0.6,1.8,0.2,3.6,0,5.4
					c0,0.1,0.1,0.2,0.2,0.2c0,0,0,0,0.1,0c0,0,0.1,0,0.1,0c0,0,0,0,0,0c1.7-1.7,2.1-4.9,2.3-7.1c0.3-2.3,0.6-5.5-1.3-7.3
					c0,0,0,0,0,0c0.5-0.7,0.1-1.9-0.3-2.6c0.4-0.6,0.5-1.4,0.5-2.1c0-0.6-0.2-1.1-0.5-1.6c0,0,0-0.1,0-0.1c0-0.1,0-0.1-0.1-0.2
					c0,0,0,0,0-0.1c0.4-1.7,0.3-3.6-0.2-5.3c2.2-1.6,3.1-4.2,2.2-6.3c0.1,0,0.1,0,0.2-0.1c4-3.5,2.2-7.4-0.4-10.8c0,0,0,0,0,0
					c2.6-1,3.2-3.1,2.2-5.8c0.1,0,0.2,0,0.2-0.1c3.2-3.1,3.8-7.4,3.8-11.6c0-2.9,0.6-5.3,2.6-7.5c1.5-1.6,3.3-2.8,4.9-4.3
					C93.8,69.9,93.6,63,90.6,53.4z"/>
			</g>
			<g>
				<path fill="#1D1E1C" d="M45.3,94.4c3.6,2.1,9.1,1.9,12.7,0c0.3-0.2,0.1-0.7-0.2-0.5c-4.2,1.3-8.1,1.5-12.3,0
					C45.2,93.8,45,94.3,45.3,94.4L45.3,94.4z"/>
			</g>
			<path fill="#1D1E1C" d="M41.1,95.3c-0.9-0.1-2.6,1.1-2.7,1.6c0,0.2,0.1,0.3,0.2,0.2c0.3-0.2,0.5-0.4,0.7-0.6
				c0.9-0.7,1.7-0.7,1.9-0.8C41.4,95.7,41.3,95.3,41.1,95.3z"/>
			<g>
				<path fill="#1D1E1C" d="M41.4,97.1c-1.7,1.3-2.5,3.8-3.5,5.6c-0.1,0.1,0.1,0.3,0.2,0.2c1.4-1.6,1.8-4.1,3.5-5.5
					C41.8,97.2,41.6,97,41.4,97.1L41.4,97.1z"/>
			</g>
			<g>
				<path fill="#1D1E1C" d="M38.6,96.7c-0.3,0.5-0.1,1.3,0.1,1.8c0,0.2,0.3,0.1,0.3,0c0-0.5,0.1-1.3-0.2-1.8
					C38.8,96.6,38.7,96.6,38.6,96.7L38.6,96.7z"/>
			</g>
			<g>
				<path fill="#1D1E1C" d="M24.5,108.7c4.2-5.9,8.9-10.1,14.1-11.6c0.2-0.1,0.1-0.4-0.1-0.4c-5.6,1.3-11.5,6.8-14.2,11.7
					C24.2,108.7,24.4,108.8,24.5,108.7L24.5,108.7z"/>
			</g>
			<g>
				<path fill="#CA8C63" d="M58.4,92.5c0.1-0.9-0.1-3.3-0.1-3.3c-0.1-1.7-0.2-1.4-2.2-2c-1.8-0.5-3.5-0.4-5.3-0.3
					c-1.1,0.1-3.2,0-4.2,0.6c-1.6,1-1.8,3.4-1.9,5.1c0,0.4-0.6,1.1-0.6,1.7c0,0.5,4.2,2.1,5.7,2.3c1.5,0.2,3.2,0,4.6-0.4
					c0.7-0.2,4.2-1.5,4.7-1.9C59.5,94.1,58.5,92.5,58.4,92.5z"/>
				<g>
					<path fill="#1D1E1C" d="M58.3,89c-0.6,0.7-0.3,2-0.2,2.9c0.1,0.9,0.4,2.1,1.1,2.7c0.1,0.1,0.4-0.4,0.3-0.5
						c-0.2-0.1-0.5-0.9-0.6-1.6c-0.1-0.6-0.1-1.4-0.2-2c0-0.5,0-1-0.1-1.4C58.5,88.9,58.4,88.9,58.3,89L58.3,89z"/>
				</g>
				<g>
					<path fill="#1D1E1C" d="M43.7,94c-1.1,0.1-1.7,0.5-2.5,1.1c-0.3,0.2,0.1,0.7,0.4,0.4c1-0.9,1.2-0.8,2.4-1.1
						c0.2,0,0.1-0.3-0.1-0.3L43.7,94z"/>
				</g>
				<g>
					<path fill="#1D1E1C" d="M41.1,95.5c1.5,2.6,6.8,4.6,10.8,4.3c4-0.3,6.8-1.1,8.9-3.1c0.3-0.3-0.2-0.4-0.2-0.4
						c-4.8,4.7-15.2,3.8-19.2-1C41.3,95.2,41,95.3,41.1,95.5L41.1,95.5z"/>
				</g>
				<path fill="#B67655" d="M47.7,95.8c0,0-0.6-3.5,0.8-5.6l-3.6-1c0.6,2-0.7,5.4-0.9,5.2L47.7,95.8z"/>
				<g>
					<path fill="#1D1E1C" d="M44.6,89.5c-0.1,0.2,0,0.5,0,0.7c0,0.5-0.1,1.1-0.2,1.6c-0.2,0.8-0.4,1.6-0.8,2.3
						c-0.2,0.3,0.4,0.5,0.6,0.2c0.6-0.8,0.8-1.8,0.9-2.7c0.1-0.6,0.2-1.8-0.5-2.2C44.7,89.4,44.7,89.4,44.6,89.5L44.6,89.5z"/>
				</g>
				<g>
					<path fill="#1D1E1C" d="M43.8,94.5c4.6,3.3,11.1,3.2,15.7,0L59,93.9c-4.6,3.2-10.2,2.5-15,0C43.7,93.8,43.5,94.3,43.8,94.5
						L43.8,94.5z"/>
				</g>
			</g>
			<g>
				<path fill="#CA8C63" d="M86.4,57c-0.4-1.5-2.8-1.2-5.8-1.5c-0.7-0.1-1.5-0.7-2-0.8c-3.3-0.9-11.7-7.5-19.7-15.7
					c-0.1-0.1-3.1-3.5-4.8-4.4c-0.7-0.4-1.3-0.8-2-1.1c-0.2-0.1-0.4-0.2-0.5-0.3c0,0,0,0,0,0l0,0c-0.3-0.1-0.5-0.2-0.8-0.3
					c-0.5-0.2-0.9-0.2-1.2-0.2c-0.4-0.1-0.9-0.1-1.3-0.1c-2.6,0.2-5.9,4.5-6.8,3.3c-0.1-0.5-0.7-1-1.9-1.4c-1-0.4-3.3-1-4.4-0.6
					c-2.1,0.9-2.4,0-5.3,5.6c-1.5,2.8-2.9,6-5,9.7c-0.8,1.5-2.9,4.7-5,5.2c-1.7,0.4-3.6-1.8-4.5-0.6c-3.5,4.5-1.2,8.5,2.4,9.7
					c0.6,0.3,3.2,0.3,3.3-0.2c0.6,0.7,0.6,2.4,0.8,3.2c0.6,2.1,2.7,6.7,2.8,6.7C26.5,77.3,35.1,88,46.3,90c4.9,0.9,6.1,1.1,10.9,0
					c4.7-1.1,7.6-2.8,10.6-5.9c3.4-3.5,5.3-4.3,7.5-8.7c1.1-2.2,2.9-6.1,3.8-8.3c0.1-0.2,0.7-2.9,1.2-3.7c1.3,0.4,2.6,0,3.5-0.7
					C85.9,61,86.8,58.5,86.4,57z"/>
				<path fill="#1D1E1C" d="M36.7,55.3c-0.9,0.1-1.5,0.2-2.1,0.9c-0.9,1.2-0.8,2.9,0.7,3.5c1.2,0.5,3.2,0.1,3.7-1.2
					c0.5-1.3-0.8-2.9-2-3.2c-0.5-0.1-1.1,0-1.6,0.2"/>
				<path fill="#B67655" d="M41.5,35.8c-0.1-0.5-0.7-1-1.9-1.4c-1-0.4-3.3-1-4.4-0.6c-2.1,0.9-2.4,0-5.3,5.6c-1.5,2.8-2.9,6-5,9.7
					c-0.8,1.5-2.9,4.7-5,5.2c-1.7,0.4-3.6-1.8-4.5-0.6c-3.5,4.5-1.2,8.5,2.4,9.7c0.6,0.3,3.2,0.3,3.3-0.2c0.6,0.7,0.6,2.4,0.8,3.2
					c0.6,2.1,2.7,6.7,2.8,6.7c1.8,4.1,9.7,17.9,29.5,17.8c0,0-7.3-1.2-13-4.3c-4-2.2-8.6-6.9-11-10.3c-2.8-3.9-9.5-17.3-5.5-22.6
					c6.3-8.2,6.3-15.2,10.2-17.2C38,34.9,41.5,35.8,41.5,35.8z"/>
				<g>
					<path fill="#1D1E1C" d="M83.2,57.1c0.6,1,0.3,2.1-0.6,2.7c-0.2,0.1,0,0.4,0.2,0.3c1.3-0.4,1.6-2.4,0.6-3.2
						C83.3,56.8,83.2,57,83.2,57.1L83.2,57.1z"/>
				</g>
				<g>
					<path fill="#1D1E1C" d="M16.4,53.4c3.8,3.2,6.5-0.4,8.3-4c1.9-3.7,4.1-7.3,6.1-10.9c2.9-5,6.7-5,11.1-2.2
						c0.4,0.2,0.7-0.3,0.4-0.6c-2.2-2.4-6.8-3.6-9.5-1.3c-2.7,2.2-4.1,6.1-5.8,9.1c-1.9,3.4-5,13.2-10.5,9.5
						C16.5,53.1,16.3,53.3,16.4,53.4L16.4,53.4z"/>
				</g>
				<g>
					<path fill="#1D1E1C" d="M47,62.3c1-0.7,1.7-1.5,3-1.6c1.6,0,2.6,1.3,3.7,2.1c0.2,0.1,0.3-0.1,0.3-0.2c-0.6-1.2-2.2-2.3-3.5-2.4
						c-1.5-0.1-2.7,0.7-3.5,2C46.9,62.3,47,62.4,47,62.3L47,62.3z"/>
				</g>
				<path opacity="0.8" fill="#D07475" d="M32.2,59.6c-0.2,0-0.3,0-0.5,0c-1.3-0.2-2.7,0.1-3.8,0.8c-0.4,0.2-0.6,0.7-0.8,1.1
					c-0.3,0.4-0.2,1,0.1,1.3c0,0.1,0.1,0.1,0.1,0.2c0.7,1.1,2,1.4,3.1,1.5c0.4,0,0.9,0.1,1.4,0.1c0.1,0.1,0.3,0.2,0.5,0.3
					c1.6,0.2,4.2-0.2,4.4-2.7C36.9,59.9,33.7,59.2,32.2,59.6z"/>
				<path opacity="0.8" fill="#D07475" d="M72.2,61.9c-0.3-0.3-0.6-0.6-0.9-0.8c0,0,0,0,0.1,0c0.1,0,0.1-0.2,0-0.3
					c-1.6-0.8-3.4-0.9-5.1-0.6c-0.1,0-0.2,0-0.3,0.1c-0.7,0.2-1.4,0.5-2,0.9c-0.4,0.3-0.5,1.1-0.2,1.5c0.1,0.1,0.3,0.2,0.4,0.4
					c0.7,1.3,2.4,1.4,3.5,1.4c1.4,0.1,3.4-0.1,4.4-1.5C72.4,62.7,72.5,62.2,72.2,61.9z"/>
				<g>
					<path fill="#1D1E1C" d="M16.3,53.1c-2.7,1-3.2,4.7-2.5,7.1c0.8,3.3,4.9,4.3,7.7,3.5c0.3-0.1,0.2-0.5-0.1-0.5
						c-2.9,0.6-5.9-0.2-7.1-3.2c-0.8-2.1,0-5.5,2.2-6.5C16.7,53.4,16.6,53,16.3,53.1L16.3,53.1z"/>
				</g>
				<g>
					<path fill="#1D1E1C" d="M17.2,56.9c-1.1,0.6-0.6,2.7,0.4,3.1c0.1,0,0.2,0,0.2-0.1c0.3-0.3-0.4-0.7-0.5-0.9
						c-0.4-0.6-0.4-1.4,0.1-2C17.5,57,17.3,56.8,17.2,56.9L17.2,56.9z"/>
				</g>
				<path fill="#DCAE8D" d="M77.4,61.3c-1.8,10.5-6.5,21.1-15.1,25.4c-0.4,0.2-0.1,0.5,0.3,0.3c9.1-4.5,14.3-14.7,16.2-25.4
					C78.8,61.1,77.4,60.8,77.4,61.3z"/>
				<g>
					<path fill="#DCAE8D" d="M84.9,56.5c0.4,1,0.4,2.4,0,3c-0.6,0.9,0.3,1.3,0.6,0.6c0.6-1.2,0.3-2.8-0.1-3.7
						C85,55.7,84.6,55.9,84.9,56.5z"/>
				</g>
				<g>
					<path fill="#1D1E1C" d="M85.8,56.1c0.4,1.7,0.7,2.8-0.2,4.5c-0.6,1.1-1.6,1.7-2.7,2.2C82,63.1,81,63,80.1,63.2
						c-0.1,0-0.1,0.2,0,0.2c1.8,0.9,4.5-0.4,5.6-1.9c1-1.4,1.4-4.1,0.4-5.6c0,0-0.1,0-0.1,0L85.8,56.1z"/>
				</g>
				<g>
					<path fill="#1D1E1C" d="M42.3,36.6c2-2.1,3.9-3.3,7-3.5c3.4-0.2,5.8,2.7,8.2,4.8c3.2,2.9,6,6.3,9.2,9.2c6,5.3,14.3,10.9,22.7,9
						c0.2,0,0.1-0.3,0-0.3c-7.5-0.5-13.4-2.1-19.2-6.9c-4.1-3.3-7.6-7.1-11.3-10.8c-2.7-2.7-5.5-5.5-9.5-5.7c-2.9-0.2-6,1.4-7.2,4.1
						C42.1,36.6,42.2,36.7,42.3,36.6L42.3,36.6z"/>
				</g>
				<g>
					<g>
						<path fill="#1D1E1C" d="M70.1,51.7c-0.2-0.8-1-1.4-1.6-1.8c-1-0.7-1.9-1-3-1.3c-0.4-0.1-0.6,0.5-0.3,0.7
							c0.9,0.5,1.8,1.1,2.6,1.7c0.6,0.4,1.3,0.9,2,1C70,52,70.1,51.8,70.1,51.7L70.1,51.7z"/>
					</g>
					<g>
						<path fill="#1D1E1C" d="M63.8,55.4c-0.9,0.2-1.5,0.2-2.1,1c-0.9,1.1-0.8,2.7,0.5,3.3c0.1,0.1,2.2-0.2,3.5-0.4
							c0.2-0.2,0.4-0.5,0.5-0.8c0.4-1.3-0.8-2.9-2.1-3.2c-0.5-0.1-1.1,0-1.6,0.2"/>
						<path fill="#FFFFFF" d="M64.1,55.9c-0.6,0.1-1.7,0.9-0.6,1.6C65.2,58.7,65.9,56.2,64.1,55.9"/>
						<g>
							<path fill="#1D1E1C" d="M61.4,60.4c0.9-0.3,1.7-0.6,2.6-0.7c0.9-0.1,1.6,0.2,2.5,0.2c0.1,0,0.1-0.1,0.1-0.2
								c-0.5-0.8-1.8-0.7-2.6-0.6c-0.9,0.1-2.3,0.3-2.7,1.2C61.2,60.4,61.3,60.5,61.4,60.4L61.4,60.4z"/>
						</g>
					</g>
					<g>
						<g>
							<path fill="#1D1E1C" d="M30.1,51.7c0.2-0.8,1-1.4,1.6-1.8c1-0.7,1.9-1,3-1.3c0.4-0.1,0.6,0.5,0.3,0.7
								c-0.9,0.5-1.8,1.1-2.6,1.7c-0.6,0.4-1.3,0.9-2,1C30.1,52,30.1,51.8,30.1,51.7L30.1,51.7z"/>
						</g>
						<g>
							<path fill="#1D1E1C" d="M36.4,55.3c0.9,0.2,1.5,0.2,2.1,1c0.9,1.1,0.8,2.7-0.5,3.3c-0.1,0.1-2.2-0.2-3.5-0.4
								c-0.2-0.2-0.4-0.5-0.5-0.8c-0.4-1.3,0.8-2.9,2.1-3.2c0.5-0.1,1.1,0,1.6,0.2"/>
							<path fill="#FFFFFF" d="M37.1,55.9c-0.6,0.1-1.7,0.9-0.6,1.6C38.2,58.7,38.9,56.2,37.1,55.9"/>
							<g>
								<path fill="#1D1E1C" d="M38.9,60.3c-0.5-0.9-1.8-1.1-2.7-1.2c-0.7-0.1-2.1-0.1-2.6,0.6c0,0.1,0,0.2,0.1,0.2
									c0.8-0.1,1.5-0.3,2.2-0.3c1.1,0,1.9,0.4,2.9,0.7C38.9,60.4,38.9,60.4,38.9,60.3L38.9,60.3z"/>
							</g>
						</g>
					</g>
				</g>
				<g>
					<path fill="#1D1E1C" d="M20.6,58.9c-0.1,7.4,3.9,16,8.8,21.6c5.3,6,12.9,9.8,20.8,10.4C66.8,92,78.2,75.9,81.2,59
						c0.1-0.4-0.6-0.7-0.7-0.2c-1,5.9-3.5,12.6-6.5,17.8c-1.9,3.4-5,6.3-8,8.7c-4.7,3.6-9.7,4.8-15,4.9c-8.4,0.1-14.9-4.1-20.4-9.4
						c-5.4-5.2-9.2-14.4-9.5-21.9C21,58.6,20.6,58.6,20.6,58.9L20.6,58.9z"/>
				</g>
				<g>
					<path fill="#A03C51" d="M64,66.6c-2.2,0-8.3,2.7-13.2,3.3c-6.9,0.9-14.3,0.7-14.2,1.1c0.4,3.3,2.1,5.6,3.3,7.3
						c1.9,2.5,4.6,3.8,7.4,4.6c2.4,0.7,10.1,1.2,15.3-5c0.9-1.1,1.5-4.1,1.7-5.2C64.5,71.2,64.6,66.6,64,66.6z"/>
					<path fill="#CA6372" d="M54.6,76.6c-3.2,0.5-6.5,2-7.3,5.3c-0.1,0.2-0.1,0.5,0.1,0.6c1.7,0.7,6.9,0.1,8.3-0.2
						c4-0.9,6.6-4.3,6.6-4.3S58.4,75.9,54.6,76.6z"/>
					<g>
						<path fill="#1D1E1C" d="M36.6,71c4.7,0,9.3-0.2,14-0.8c4.7-0.6,9-2.3,13.6-3.3c0.3-0.1,0.2-0.6-0.1-0.5
							c-4.2,0.7-8.1,2.4-12.3,3.1c-3.1,0.5-6.4,0.7-9.5,1c-1.9,0.2-3.8-0.2-5.6,0.3C36.4,70.9,36.5,71,36.6,71L36.6,71z"/>
					</g>
					<path fill="#B9586B" d="M50.7,78.1c0,0,3.1,1.5,3.7,4.9c0,0-5.8,0.4-7.1-0.2C47.3,82.9,47,79.2,50.7,78.1z"/>
					<path fill="#E89BAE" d="M58.9,77.9c0,0,2.7,0.4,1.6,0.7c-0.7,0.2-0.9,1-1.2,0.5c-0.2-0.3-0.3-0.7-0.4-0.8
						C58.8,78.1,58.6,77.8,58.9,77.9z"/>
					<g>
						<path fill="#1D1E1C" d="M36.4,71.1c1.5,8.2,7.8,12.7,16,12.2c3.7-0.2,7.1-1.9,9.6-4.6c2.9-3.1,2.7-8.2,2.3-12.1
							c0-0.1-0.1-0.1-0.1,0c-0.3,3.9,0.2,7.5-1.9,11c-2.2,3.7-7,5-11,5.3c-7.9,0.4-12.8-4.8-14.6-11.9
							C36.7,70.8,36.3,70.9,36.4,71.1L36.4,71.1z"/>
					</g>
					<g>
						<path fill="#1D1E1C" d="M62.4,78c-4.1-3.3-14.9-1.7-15.3,4.7c0,0.3,0.4,0.3,0.4,0c0.9-6.3,10.4-6.3,14.8-4.5
							C62.4,78.2,62.5,78.1,62.4,78L62.4,78z"/>
					</g>
				</g>
			</g>
		</g>
	</g>
</g>
<g id="globo">
</g>
</svg>
