<?xml version="1.0" encoding="utf-8"?>
<!-- Generator: Adobe Illustrator 17.0.0, SVG Export Plug-In . SVG Version: 6.00 Build 0)  -->
<!DOCTYPE svg PUBLIC "-//W3C//DTD SVG 1.1//EN" "http://www.w3.org/Graphics/SVG/1.1/DTD/svg11.dtd">
<svg version="1.1" xmlns="http://www.w3.org/2000/svg" xmlns:xlink="http://www.w3.org/1999/xlink" x="0px" y="0px" width="100px"
	 height="100px" viewBox="0 0 100 100" enable-background="new 0 0 100 100" xml:space="preserve">
<g id="capa1">
</g>
<g id="personajes">
	<g>
		<defs>
			<rect id="SVGID_29_" x="0" y="0" width="100" height="100"/>
		</defs>
		<use xlink:href="#SVGID_29_"  overflow="visible" fill="#67B86A"/>
		<clipPath id="SVGID_2_">
			<use xlink:href="#SVGID_29_"  overflow="visible"/>
		</clipPath>
		<g clip-path="url(#SVGID_2_)">
			<g>
				<path fill="#B57021" d="M95.4,89.6c-1.4-0.8-5.5-1.9-7.1-5.2c-3.7-7.7-2.9-12.7-3.1-15.4c0-0.1-0.6-3-1-4.3
					c-0.2-0.9-0.4-2-0.9-2.7c0-0.1-0.1-0.1-0.1,0l-68.3,2c-0.1-0.1-0.2,0-0.2,0.1c1.2,7.2-0.9,9.9-0.9,10c-2.3,5.7-6,10.6-8.4,16.2
					C4,93.5,3.5,98.9,5.6,102c0,0.1,0.2,0.2,0.2,0.1c1.3-2,3.1-3.2,5-4.3c-0.4,2-2.3,3.5-2.9,5.4c-0.7,2-0.8,3.9-0.8,6
					c0.1,5.3-0.1,10.4-3.1,15c-0.1,0.1,0,0.3,0.2,0.3c0,0-0.1,0-0.1,0c-0.1,0-0.1,0.2,0,0.1c4.4-0.4,8.1-2.5,11.3-5.5
					c0.5-0.5-0.4,4.7,2.2,7.9c0,0,5.8-13.4,6-11.1c0.1,1.1-0.9,4.7-0.9,4.7c0,0.2,0.2,0.2,0.3,0.1c0,0,42.8-8.2,50.2-9.6
					c-0.1,2,1.7,4.7,3.3,5.9c0.1,0.1,0.2,0.1,0.3,0c0.1,0.4,0.7,0.4,0.7-0.1c0-1.5,0.5-2.8,0.4-4.3c0-0.5-0.1-0.9-0.1-1.4
					c0.1-0.9,0.2-3.2,0.1-4.1c1.2,0.6,2,2,2.9,2.4c0.1,0,0.2,0,0.3,0.1l1.6,0.5c0,0,1.1,0.9,1.1,0.7c1.4-6.1-3-11-3.4-16.9
					c5.1,0.9,12-0.1,14.9-4.2C95.4,90,95.5,89.6,95.4,89.6z"/>
				<g>
					<path fill="#FD9D90" d="M89.8,188.7c0-0.1,0-0.1-0.1-0.2c-4.6-3.7-7.3-14-9.3-21.8c-1-4-1.7-9.3-2.9-13.5
						c-0.6-2.3-3.6-8.7-4.4-11c-0.1-0.1-1.7-5.3-1.7-5.4c-0.7-1.2-0.7-3-0.8-4.3c0-0.6-0.1-1.2,0-1.9c0.1-0.9-0.6-1.9-0.3-2.7
						c0.1-0.2,0.2-0.4,0.4-0.6c0.7-1,1.3-2.2,1.5-3.4c0.1-1,0-1.9-0.2-2.9c-0.2-0.9-0.5-1.7-0.8-2.5c-0.8-2.4-1.6-4.7-2.2-7.1
						c-0.1-0.5-0.2-1.1,0-1.6c0.1-0.4,0.4-0.7,0.6-1c0.4-0.4,0.7-0.8,1.1-1.2c0.6-0.6,1.4-0.9,2-1.5c0.7-0.6,1.3-1.4,1.9-2.1
						c-0.3-0.4-0.7-0.6-1.1-0.9c-2.4-1.3-4.9-2.5-7.4-3.6c-0.5-0.2-1.1-0.5-1.6-0.3c-0.4,0.1-0.7,0.3-0.9,0.6
						c-0.6,0.5-1.3,1.1-1.9,1.6c-1,0.8-2,1.7-2.8,2.7c-0.4,0.5-0.7,1-1.1,1.4c-0.4,0.5-1,1-1.5,1.4c-0.8,0.7-1.4,1.6-2.1,2.4
						c-0.6,0.7-1.2,1.6-1.6,2.4c-0.4,0.9-0.6,2-1.2,2.8c0,0.1-0.2,0.1-0.2,0c-1-1.7-2.1-3.5-3.2-5.1c-1.1-1.6-2.1-3.6-3.4-5
						c-2.2-2.4-5.3-4.8-8.6-5.4c-1.9,1-3.8,1.5-5.3,2.3c-1.6,0.9-3.2,1.7-4.7,2.5c0.8,1.1,4.7,4.9,5.4,6c0.5,0.7,0.2,4.2-0.1,5.1
						c-4.3,13.2,1.2,16.4,1.6,16.6c0.9,4.2-1.1,9.3-3.3,12.8c0,0,0,0,0,0c-0.1,0.2-0.1,0.4-0.2,0.6c-0.1,0.8-0.3,1.7-0.5,2.5
						c-0.8,3.2-1.6,6.9-2.5,10.1c-0.9,3.5-3,6.7-3.3,10.3c-0.9,3.4-4.6,4.4-5.7,7.7c-1.6,4.9-3.1,9.1-6.2,13c-0.1,0-0.3,0.3-0.3,0.4
						c0,0.1,0.4,0.4,0.4,0.4c8.9,2.9,14.1,4.1,22.2,5.6c0.1,0,3.5,0.5,3.5,0.4c4,0,6.9-0.3,10.9-0.3c5.6,0,11.2,0.4,16.9,0
						c8.4-0.5,17.3-3.2,25.2-6.1C90.1,189,90,188.7,89.8,188.7z"/>
					<path fill="#F78480" d="M39.8,130.8c0,0-5.1,0.6-6-7.3c-1.6-14.1,3.2-24.4,2.2-24.7c-1.4,1-3.8,1.5-5.3,2.3
						c-1.6,0.9-3.4,1.9-5,2.7c0.8,1.1,4.9,4.9,5.7,6c0.5,0.7-1,4.8-1.4,5.7c-3.6,8.8-0.3,12,0,12.1c0.1,2.2-0.7,5-0.5,6.1
						c-0.3,2.9-2,7.9-2.3,8.7c0,0-1.4,3.1-1.4,3.1c-0.8,3.3-2.3,4.8-3.1,8.1c-0.9,3.5-2.2,8.6-2.5,12.2c-0.8,4.3-1.8,6.4-2.9,9.8
						c-1.6,4.9-3.1,8.9-6.2,12.8c-0.1,0-0.3,0.3-0.3,0.4c0,0.1,0.4,0.4,0.4,0.4c4.8,2.3,9.7,2.6,14.3,4.2c3.4,1.2,7.3-48.9,7.3-48.9
						s0.3,0.8,1.8-5.7c0.9-3.9-0.2-7-0.2-7s1.7,0.4,2.2,0.3C38.4,132.2,39.8,130.8,39.8,130.8z"/>
					<path fill="#FAA9A0" d="M63.7,96.4c-2-0.3-4.8-1.3-6.7-0.6c-0.1,0-0.3,0.7-0.3,0.8c0.1,0.3,0.2,0.2,0.5,0.4c0,0,0.1,0,0.1,0.1
						c-0.1,0.4-0.4,0.8-0.6,1.2c-2.6,3.3-5.2,8-5.5,12.4c-0.9-2.8-1.6-5.2-3.2-7.6c-1.1-1.7-3-4-5.1-5.1c-0.1-0.1-0.1-0.1-0.2-0.2
						c0.1-0.1,0.2-0.2,0.4-0.3c0.2-0.2,0.7-0.6,0.6-1c0-0.1-0.1-0.6-0.2-0.6c-2.1-0.1-3.3-0.2-5.3,0.2c-2.2,0.4-4,0.8-4.7,1.3
						c-0.1,0.1,0.2,0.5,0.3,0.5c7.8,3.7,14.5,10.3,17.3,16.6c0,0,0.3,0.1,0.3,0.1c0,0,2.2-6.1,6.3-9.4c2.9-2.3,5.5-6.2,9.1-7.6
						C67.2,97.5,65.2,96.6,63.7,96.4z"/>
					<path fill="#DBB595" d="M56.8,91.2c0-0.1-0.3,2.9-0.1,4.7c0.1,0.8,1.3,1.5,1.3,1.5c-4.2,4.7-6.6,10.9-6.7,13.4
						c-0.9-2.8-1.9-5.1-3.5-7.6c-1.1-1.8-2.9-4.4-5-5.4c0.1-0.1,0.3-0.2,0.4-0.3c0.2-0.2,0.7-0.6,0.6-1c0.3-0.9,0.4-2,0.4-2.9
						c0.1-0.9,0-1.8-0.5-2.6C43.7,90.9,57,92.1,56.8,91.2z"/>
					<path opacity="0.2" fill="#F3F3F3" d="M91.5,90.3c-2.3-1.3-3.4-3.6-4.5-5.9c-0.7-1.5-1.4-3-1.9-4.5c-0.5-1.6-0.2-3.3-0.2-4.9
						c0-0.9-1.3,1.8-1.4,2.5c-0.1,1.6-0.2,1,0.1,2.5c0.3,1.6,1.1,3.1,1.7,4.6c1.1,2.7,1.8,4.5,4.3,6C90.4,90.8,92.2,90.7,91.5,90.3z
						"/>
					<path opacity="0.2" fill="#F3F3F3" d="M82.4,104.1c-1.6-2.7-2.9-5.8-3.2-8.9c-0.1-0.9-0.9,1.1-0.9,1.8c0.2,3.4,0.5,3.5,2.3,6.4
						C81,104.1,82.7,104.7,82.4,104.1z"/>
					<path opacity="0.2" fill="#F3F3F3" d="M74.4,68.6c-1.1,3.6-1.9,4.7-3.6,8.1c-1.8,3.5-6.8,7.8-6.9,7.9c-0.4,0.6-1.7,1.8-1.2,1.4
						c3-1.8,6.9-4.8,8.9-8.1c2.2-3.8,2.9-7.8,4.1-12C76.1,65,74.7,67.9,74.4,68.6z"/>
				</g>
			</g>
			<g>
				<path fill="#DBB595" d="M86.6,55.3c-0.2-2.4-2.1-5.9-4.7-5.4c0,0,0,0,0,0c-0.6-0.2-1,0-1.6,0.2c-1.8,0.7-3-0.4-4.1-1.7
					c-0.6-0.7-1.2-1.4-1.9-1.9c-0.6-0.4-1.3-0.5-2-0.6c-2.3-0.5-4.7-0.2-7.1,0.1c-3,0.4-5.7,0.5-8.7,0.2c-1.8-0.2-3.6-0.6-5.3-0.8
					c-3.2-1-5.9-1.9-8.6-4.6c-2.2-2.1-3.9-4.7-6.1-6.8c-2.2-2.1-6.2-3.1-8.3-0.4c-3-0.6-4.7,2.2-5.5,4.8c-1.8,6,0.2,11.3-7.1,14.1
					c0,0,0,0,0,0c-2.9,0.4-3.6,4.3-3.7,6.7c-0.1,3.7,3.1,6.2,7.9,6.1C24,79.5,36,92.6,51.6,92.2c15.3-0.5,25.1-14.3,27.8-28.5
					c0.1,0.1,1.8-0.2,2-0.2C85.1,62.5,86.9,59.1,86.6,55.3z"/>
				<path fill="#D19F79" d="M72.6,45.9c-2.3-0.5-4.7-0.2-7.1,0.1c-3,0.4-5.7,0.5-8.7,0.2c-1.8-0.2-3.6-0.6-5.3-0.8
					c-3.2-1-5.9-1.9-8.6-4.6c-2.2-2.1-3.9-4.7-6.1-6.8c-2.2-2.1-6.2-3.1-8.3-0.4c-3-0.6-4.7,2.2-5.5,4.8c-1.8,6,0.2,11.3-7.1,14.1
					c0,0,0,0,0,0c-2.9,0.4-3.6,4.3-3.7,6.7c-0.1,3.7,3.1,6.2,7.9,6.1c2.4,7.9,7.1,15.5,13.5,20.6c0,0-11.4-12.5-11.1-24.8
					c0.1-4.5,0.6-35.6,15.3-21.6C52.4,53.3,72.6,45.9,72.6,45.9z"/>
				<path fill="#F7CA12" d="M17.5,62.6C17.5,62.6,17.5,62.6,17.5,62.6c-0.5-0.1-0.9,0.5-0.6,0.9c0,0,0,0,0,0c0,0,0,0,0,0
					c0,0,0.1,0,0.1,0c0,0,0.1,0.1,0.1,0c1.2,0.4,1.7,2,1.8,3.2c0.1,1.9-1.3,4.5-3.1,5.1c-2.6,1-3.6-2.7-3.2-4.5
					c0.3-1.2,1.1-2.6,2-3.4c0.1-0.1-0.7-1.2-0.9-1.2c-2.6,0.9-3.7,4.3-3.6,6.7c0.1,2.7,2.6,5,5.3,4.9c2.8-0.1,4.9-3.5,5-6.1
					C20.5,66.4,20,63,17.5,62.6z"/>
				<path fill="#BA7520" d="M87.9,44.1C87.9,44.1,87.9,44.1,87.9,44.1c-0.3-1.7-1.1-2.9-2-4.3c-1.8-2.7-2.8-5.6-3.6-8.7
					c-0.5-2.2-1.5-4.1-2.8-5.8c0,0,0-0.1,0-0.1C73.6,16.7,61.1,15.1,51.8,14c-5.2-0.6-10.2,0.4-14.9,2.5c-5.4,2.5-9.2,6.7-14.1,9.9
					c0,0-0.1,0.1-0.1,0.1c-4.4-0.5-8,4.1-9.6,7.7c-1.1,2.4-1.4,5.1-1.6,7.7c-0.2,4.3,1.5,8.2,1.6,12.5c0,0.3,0.4-0.5,0.9-0.9
					c2.1-1.9,2.8-1.1,3.2-1.2c8.3-1.8,2.5-19,10.9-18.3c0.2,0,0.3-0.2,0.3-0.3C33.6,29,39,38,42,41.3c3.1,3.4,6.9,4.9,11.5,5.2
					c0,0,0.1,0,0.1,0c2.4,0.5,4.8,0.8,7.2,0.8c4.3,0,8.2-1.3,12.5-0.4c0.4,0.2,0.9,0.4,1.3,0.7c1.1,1,1.9,2.3,3.1,3.1
					c1.1,0.7,2.5,0.3,3.7-0.2c0.2-0.1,2.8,0.2,2.9,0.3c0.5,0.5,1.1,0.7,1.1,1.3c0,0.3,0.1,0.5,0.3,0.3C88,50.5,89,46.9,87.9,44.1z"
					/>
				<path fill="#B57021" d="M36.9,16.7c-5.4,2.5-9.2,6.7-14.1,9.9c0,0-0.1,0.1-0.1,0.1c-4.4-0.5-8,4.1-9.6,7.7
					c-1.1,2.4-1.4,5.1-1.6,7.7c-0.2,4.3,1.5,8.2,1.6,12.5c0,0.3,0.4-0.5,0.9-0.9c2.1-1.9,2.8-1.1,3.2-1.2c8.3-1.8,2.5-19,10.9-18.3
					c0.1,0-1.5-3.5-0.9-8.1C27.8,21.8,36.9,16.7,36.9,16.7z"/>
				<g opacity="0.8">
					<path fill="#D69685" d="M28.5,58.1c-0.2,0-0.4,0-0.6,0c-1.7-0.2-3.4,0.2-4.7,1c-0.5,0.3-0.8,0.8-0.9,1.4
						c-0.4,0.5-0.2,1.2,0.1,1.6c0,0.1,0.1,0.2,0.1,0.3c0.9,1.4,2.6,1.7,3.9,1.8c0.5,0,1.1,0.1,1.7,0c0.2,0.1,0.4,0.3,0.6,0.3
						c2,0.3,5.3-0.3,5.4-3.4C34.4,58.5,30.4,57.7,28.5,58.1z"/>
					<path fill="#D69685" d="M77,59.9c-0.4-0.4-0.8-0.8-1.2-1.1c0,0,0.1,0,0.1,0c0.2,0,0.2-0.3,0-0.4c-2.2-1.1-4.7-1.2-7-0.7
						c-0.1,0-0.3,0.1-0.4,0.1c-1,0.3-2,0.7-2.7,1.3c-0.5,0.4-0.7,1.6-0.2,2.2c0.2,0.2,0.4,0.3,0.6,0.5c1,1.9,3.3,1.9,4.8,2
						c1.9,0,4.6-0.2,6-2.3C77.3,61,77.4,60.3,77,59.9z"/>
				</g>
				<path fill="#1C1C1B" d="M35.5,55.1c-0.9,0.2-1.5,0.2-2.1,1c-0.9,1.2-0.7,2.9,0.8,3.4c1.2,0.4,3.1,0,3.6-1.3
					c0.4-1.3-0.8-2.8-2-3.1c-0.5-0.1-1.1,0-1.5,0.2"/>
				<path fill="#FFFFFF" d="M35.8,55.5c-0.6,0.1-1.8,1-0.7,1.7C36.9,58.5,37.7,55.8,35.8,55.5"/>
				<g>
					<path fill="#1C1C1B" d="M32,52c0.7,0.1,1.5-0.2,2.2-0.4c1-0.3,2-0.6,2.9-0.9c0.4-0.1,0.3-0.7-0.1-0.7c-1.1,0-2.1,0-3.2,0.4
						c-0.7,0.2-1.6,0.6-2,1.3C31.8,51.8,31.9,52,32,52L32,52z"/>
				</g>
				<g>
					<path fill="#1C1C1B" d="M69.8,52c-0.7,0.1-1.5-0.2-2.2-0.4c-1-0.3-2-0.6-2.9-0.9c-0.4-0.1-0.3-0.7,0.1-0.7c1.1,0,2.1,0,3.2,0.4
						c0.7,0.2,1.6,0.6,2,1.3C70,51.8,70,52,69.8,52L69.8,52z"/>
				</g>
				<path fill="#1C1C1B" d="M65.5,54.3c-0.9,0.2-1.5,0.2-2.1,1c-0.9,1.2-0.7,2.9,0.8,3.4c1.2,0.4,3.1,0,3.6-1.3
					c0.4-1.3-0.8-2.8-2-3.1c-0.5-0.1-1.1,0-1.5,0.2"/>
				<path fill="#FFFFFF" d="M66.1,54.9c-0.6,0.1-1.8,1-0.7,1.7C67.2,57.9,68,55.3,66.1,54.9"/>
				<g>
					<path fill="#1C1C1B" d="M18.4,59.6c2.4,16.5,15.5,33.1,33.2,32.6c17.7-0.5,28-18.9,28.5-35c0-0.2-0.3-0.2-0.3,0
						c-1,8-3.9,15.9-8.3,22.6c-4.8,7.4-12.5,11.1-21.2,11.3c-17,0.5-28.6-16.7-31.5-31.7C18.8,59.2,18.3,59.3,18.4,59.6L18.4,59.6z"
						/>
				</g>
				<g>
					<path fill="#1C1C1B" d="M15.7,52.3c-3,0.3-3.8,4.3-3.8,6.7c-0.1,3.7,3,6.5,6.7,6.3c0.3,0,0.3-0.5,0-0.5c-3.5-0.4-6-2.1-6.1-5.8
						c-0.1-2.5,0.9-5.5,3.3-6.5C15.8,52.5,15.8,52.3,15.7,52.3L15.7,52.3z"/>
				</g>
				<g>
					<path fill="#1C1C1B" d="M15.2,57.2c-0.5,0.5-0.6,1.4-0.5,2c0.1,0.7,0.7,1.4,1.5,1.3c0.1,0,0.1-0.2,0.1-0.2
						c-0.4-0.4-0.9-0.5-1-1.2c-0.1-0.6,0-1.1,0.3-1.6C15.6,57.3,15.4,57.1,15.2,57.2L15.2,57.2z"/>
				</g>
				<g>
					<path fill="#1C1C1B" d="M79.8,63c-0.3,0-0.4,0-0.6,0.2c-0.1,0.1,0,0.3,0,0.4c0.2,0.2,0.4,0.2,0.7,0.1
						C80.3,63.6,80.2,63,79.8,63L79.8,63z"/>
				</g>
				<g>
					<path fill="#1C1C1B" d="M80.9,50.5c3.8-0.9,5.2,2.8,5.2,5.8c0,3.2-2.6,5.8-5.7,6.5c-0.5,0.1-0.7,0.9-0.2,0.8
						c5.1-0.8,6.7-4.6,6.4-8.5c-0.2-2.7-2.6-6.9-5.8-4.9C80.7,50.4,80.8,50.6,80.9,50.5L80.9,50.5z"/>
				</g>
				<g>
					<path fill="#1C1C1B" d="M83,55c0.1,0.2,0.2,0.3,0.3,0.5c0.2,0.2,0.2,0.6,0.2,0.8c0,0.6-0.5,1.1-0.8,1.6c-0.1,0.1,0,0.3,0.2,0.2
						c0.7-0.3,1-1,1.1-1.7c0.1-0.6-0.1-1.6-0.9-1.7C83.1,54.8,83,54.9,83,55L83,55z"/>
				</g>
				<g>
					<path fill="#1C1C1B" d="M15.6,52.5c10.5,0,3.6-19.2,12.5-18.5c0.3,0,0.4-0.5,0.1-0.5c-3.1-0.6-4.8,2.2-5.5,4.7
						c-1.8,6,0.2,11.3-7.1,14.1C15.5,52.4,15.5,52.5,15.6,52.5L15.6,52.5z"/>
				</g>
				<g>
					<path fill="#1C1C1B" d="M28.2,33.9c5.3-5.1,10.8,4.1,13.8,7.4c3.1,3.4,6.9,4.9,11.5,5.2c0.2,0,0.2-0.2,0-0.3
						c-4.3-1.4-7.6-2-11-5.4c-2.2-2.1-3.9-4.7-6.1-6.8c-2.2-2.2-6.5-3.2-8.4-0.2C27.9,33.8,28.1,34,28.2,33.9L28.2,33.9z"/>
				</g>
				<g>
					<path fill="#1C1C1B" d="M49.3,45.4c3.8,1,7.6,1.7,11.6,1.8c4.5,0,8.6-1.5,13.2-0.2c0.2,0.1,0.4-0.3,0.2-0.4c-2.8-1.4-6-1-9-0.6
						c-3,0.4-5.7,0.5-8.7,0.2c-2.4-0.3-4.7-1-7.2-0.9C49.2,45.3,49.2,45.4,49.3,45.4L49.3,45.4z"/>
				</g>
				<g>
					<path fill="#1C1C1B" d="M71,46c1.3,0.6,2.6,0.5,3.7,1.5c1.1,1,1.9,2.3,3.1,3.1c1.2,0.8,3,0.2,4.2-0.5c0.1-0.1,0.1-0.3,0-0.3
						c-0.6-0.2-1,0-1.6,0.2c-1.8,0.7-3-0.4-4.1-1.7c-0.6-0.7-1.2-1.4-1.9-1.9c-0.9-0.7-2.1-0.5-3.2-0.8C70.9,45.7,70.8,45.9,71,46
						L71,46z"/>
				</g>
				<g>
					<path fill="#1C1C1B" d="M51.1,59.8c1.4-0.2,2.7-0.3,3.5,1.1c0.9,1.6-0.7,2.6-1.7,3.6c-0.2,0.2,0,0.4,0.2,0.4
						c1.8-0.5,2.8-2.6,2-4.3c-0.7-1.5-2.9-2-4.2-1C50.8,59.6,51,59.8,51.1,59.8L51.1,59.8z"/>
				</g>
				<g>
					<path fill="#1C1C1B" d="M58.1,95.3c0.2,0,0.3,0,0.5,0.1c0,0,0,0,0,0C58.4,95.3,58.3,95.3,58.1,95.3
						C58.1,95.3,58.1,95.3,58.1,95.3L58.1,95.3z"/>
				</g>
				<g>
					<path fill="#1C1C1B" d="M23,26.6c-4.5-0.6-8.2,4-9.8,7.7c-1.1,2.4-1.4,5.1-1.6,7.7c-0.2,4.3,1.5,8.2,1.6,12.5
						c0,0.3,0.4,0.3,0.5,0c0.6-4.5-1.5-9.2-1.3-13.9c0.3-5.7,4.1-13.6,10.7-13.7C23.1,26.9,23.1,26.6,23,26.6L23,26.6z"/>
				</g>
				<g>
					<path fill="#1C1C1B" d="M5.9,102.1C9.3,96.7,17,97,19.2,90.5c0-0.1-0.1-0.2-0.2-0.1c-1.7,3.6-4.3,5.4-8,6.8
						c-2.3,0.9-4.1,2.6-5.4,4.7C5.6,102.2,5.8,102.3,5.9,102.1L5.9,102.1z"/>
				</g>
				<g>
					<path fill="#1C1C1B" d="M11,97.4c-0.2,2.2-2.3,3.8-3,5.8c-0.7,2-0.8,3.9-0.8,6c0.1,5.4-0.1,10.5-3.1,15.1
						c-0.1,0.2,0.2,0.5,0.4,0.3c2.8-2.9,3.2-7.3,3.4-11.2c0.1-3-0.3-5.9,0.3-8.8c0.5-2.6,3.2-4.5,3.1-7.2C11.2,97.3,11,97.3,11,97.4
						L11,97.4z"/>
				</g>
				<g>
					<path fill="#1C1C1B" d="M13.9,73.9c-2.3,5.7-6,10.6-8.4,16.2c-1.4,3.4-1.9,8.8,0.2,12c0.1,0.1,0.2,0,0.2-0.1
						C4.4,96.1,5,91.5,8,86.1c2.3-4,4.6-7.8,6.3-12.1C14.4,73.8,14,73.6,13.9,73.9L13.9,73.9z"/>
				</g>
				<g>
					<path fill="#1C1C1B" d="M14.4,63.9c1.3,2.7,0.9,5.5,0.1,8.3c-0.1,0.3,0.4,0.4,0.4,0.1c0.8-2.7,1.4-6-0.3-8.5
						C14.5,63.7,14.3,63.8,14.4,63.9L14.4,63.9z"/>
				</g>
				<g>
					<path fill="#1C1C1B" d="M23,26.8c3.3-2,6.1-4.9,9.3-7.1c5.1-3.4,10.6-5.3,16.7-5.3c5.4-0.1,11.4,1.2,16.6,2.7
						c5.5,1.6,9.5,4.4,13.5,8.3c0.1,0.1,0.3,0,0.2-0.2C73.6,16.7,61.1,15.1,51.8,14c-5.2-0.6-10.2,0.4-14.9,2.5
						c-5.4,2.5-9.2,6.7-14.1,9.9C22.6,26.6,22.8,27,23,26.8L23,26.8z"/>
				</g>
				<g>
					<path fill="#1C1C1B" d="M76.3,22.4c3.5,3.6,4.8,6.9,6.1,11.7c1,3.7,3.5,6.7,5,10.2c0.1,0.3,0.5,0.1,0.4-0.2
						c-0.3-1.7-1.1-2.8-2-4.2c-1.8-2.7-2.8-5.6-3.6-8.7C81.4,27.5,79.3,24.6,76.3,22.4C76.3,22.2,76.3,22.3,76.3,22.4L76.3,22.4z"/>
				</g>
				<g>
					<path fill="#1C1C1B" d="M86.6,42.4c1.9,3.6,1.4,6.6-1.1,9.7c-0.2,0.2,0.1,0.5,0.3,0.3C88.5,50.1,89.4,45,86.6,42.4
						C86.6,42.3,86.6,42.4,86.6,42.4L86.6,42.4z"/>
				</g>
				<g>
					<path fill="#1C1C1B" d="M85,68.9c0.6,8,1.2,18.7,10.8,21c0.2,0.1,0.3-0.2,0.2-0.4c-3.5-1.9-6.2-3.8-8.1-7.5
						c-2.1-4.1-2-8.8-2.3-13.2C85.5,68.6,85,68.6,85,68.9L85,68.9z"/>
				</g>
				<g>
					<path fill="#1C1C1B" d="M83.4,61.8c-0.2,0.6,0.3,1.4,0.5,1.9c0.4,1.2,0.7,2.5,0.9,3.7c0.1,0.3,0.6,0.2,0.5-0.1
						c-0.2-1.2-0.5-2.3-0.9-3.5c-0.2-0.7-0.4-1.5-0.9-2.1C83.5,61.7,83.5,61.8,83.4,61.8L83.4,61.8z"/>
				</g>
				<g>
					<path fill="#1C1C1B" d="M95.9,89.6c-5.2,4-10.8,4.8-17.1,3.7c-0.3,0-0.4,0.3-0.1,0.4c5.1,1.8,14.1,0.9,17.4-4
						C96,89.6,95.9,89.6,95.9,89.6L95.9,89.6z"/>
				</g>
				<g>
					<path fill="#1C1C1B" d="M80.3,94.2c0,2.7,1,5,2,7.5c1.3,3.2,1.3,6,1.7,9.4c0,0.1,0.2,0.2,0.2,0c1.4-6.1-3-11-3.4-16.9
						C80.7,93.9,80.3,93.9,80.3,94.2L80.3,94.2z"/>
				</g>
				<g>
					<path fill="#1C1C1B" d="M17.5,62.7c2.1,0.6,2.5,3.2,2.4,5.1c-0.1,2.4-1.8,5.1-4.1,5.8C13,74.5,11,71.3,10.8,69
						c-0.1-2.3,1.4-4.4,3.1-5.7c0.2-0.2,0-0.5-0.2-0.4c-2.6,0.9-3.7,4.3-3.6,6.7c0.1,2.7,2.6,5,5.3,4.9c2.8-0.1,4.9-3.5,5-6.1
						c0.1-2.1-0.4-5.4-2.9-5.8C17.4,62.6,17.4,62.7,17.5,62.7L17.5,62.7z"/>
				</g>
				<g>
					<path fill="#1C1C1B" d="M16.9,63.5c1.4,0.3,1.9,2,1.9,3.2c0.1,1.9-1.3,4.5-3.1,5.1c-2.6,1-3.6-2.7-3.2-4.5
						c0.3-1.2,1.1-2.6,2-3.4c0.1-0.1,0-0.3-0.2-0.3c-1.7,0.6-2.5,3.5-2.6,5c-0.1,1.9,1.6,4.3,3.7,3.8c2.3-0.5,3.5-3.2,3.6-5.3
						C19.3,66,18.5,63.3,16.9,63.5C16.9,63.5,16.9,63.5,16.9,63.5L16.9,63.5z"/>
				</g>
				<g>
					<path fill="#1C1C1B" d="M17.5,62.6c-0.5-0.1-1,0.6-0.6,1c0.1,0.1,0.1,0,0.1-0.1c0-0.3-0.1-0.8,0.4-0.8
						C17.6,62.7,17.6,62.6,17.5,62.6L17.5,62.6z"/>
				</g>
				<g>
					<path fill="#1C1C1B" d="M21.7,28.3c-4.2,0.6-6.2,6-6.6,9.7c0,0.1,0.2,0.1,0.2,0c1-3.8,2.3-8.2,6.5-9.5
						C21.9,28.4,21.8,28.2,21.7,28.3L21.7,28.3z"/>
				</g>
				<g>
					<path fill="#1C1C1B" d="M63.5,18.6c4.8,2,8.7,3.8,12.8,7.1c0.1,0.1,0.2,0,0.1-0.1c-3.3-3.6-8.2-5.8-12.9-7.1
						C63.5,18.4,63.5,18.5,63.5,18.6L63.5,18.6z"/>
				</g>
				<g>
					<path fill="#1C1C1B" d="M34.1,30.6c2.2-1,4.8,2.5,6,3.8c1.6,1.7,3.2,3.4,5.1,4.7c0.1,0,0.1-0.1,0.1-0.1c-2.8-2.2-5-5-7.6-7.4
						C36.9,30.9,35.2,29.5,34.1,30.6C34.1,30.6,34.1,30.6,34.1,30.6L34.1,30.6z"/>
				</g>
				<g>
					<path fill="#1C1C1B" d="M16.7,75.8c0.1,3-2.4,5.4-4,7.6c-1.8,2.4-3.4,4.9-3.4,8c0,0.1,0.1,0.1,0.1,0c0.2-4.2,3.1-7.2,5.4-10.4
						C15.8,79.6,17.2,77.6,16.7,75.8C16.7,75.7,16.7,75.7,16.7,75.8L16.7,75.8z"/>
				</g>
				<path fill="#F7CA12" d="M81.4,60.6C81.4,60.6,81.4,60.6,81.4,60.6c0.5-0.1,0.9,0.5,0.6,0.9c0,0,0,0,0,0c0,0,0,0,0,0
					c0,0-0.1,0-0.1,0c0,0-0.1,0.1-0.1,0c-1.2,0.4-1.7,2-1.8,3.2c-0.1,1.9,1.3,4.5,3.1,5.1c2.6,1,3.6-2.7,3.2-4.5
					c-0.3-1.2-1.1-2.6-2-3.4c-0.1-0.1,0.7-1.2,0.9-1.2c2.6,0.9,3.7,4.3,3.6,6.7c-0.1,2.7-2.6,5-5.3,4.9c-2.8-0.1-4.9-3.5-5-6.1
					C78.4,64.4,78.9,61,81.4,60.6z"/>
				<g>
					<path fill="#1C1C1B" d="M81.5,60.7c-2.1,0.6-2.5,3.2-2.4,5.1c0.1,2.4,1.8,5.1,4.1,5.8c2.8,0.9,4.8-2.3,4.9-4.6
						c0.1-2.3-1.4-4.4-3.1-5.7c-0.2-0.2,0-0.5,0.2-0.4c2.6,0.9,3.7,4.3,3.6,6.7c-0.1,2.7-2.6,5-5.3,4.9c-2.8-0.1-4.9-3.5-5-6.1
						c-0.1-2.1,0.4-5.4,2.9-5.8C81.5,60.6,81.6,60.7,81.5,60.7L81.5,60.7z"/>
				</g>
				<g>
					<path fill="#1C1C1B" d="M82.1,61.5c-1.4,0.3-1.9,2-1.9,3.2c-0.1,1.9,1.3,4.5,3.1,5.1c2.6,1,3.6-2.7,3.2-4.5
						c-0.3-1.2-1.1-2.6-2-3.4c-0.1-0.1,0-0.3,0.2-0.3c1.7,0.6,2.5,3.5,2.6,5c0.1,1.9-1.6,4.3-3.7,3.8c-2.3-0.5-3.5-3.2-3.6-5.3
						C79.7,64,80.4,61.3,82.1,61.5C82.1,61.5,82.1,61.5,82.1,61.5L82.1,61.5z"/>
				</g>
				<path opacity="0.2" fill="#F3F3F3" d="M82.4,38.7c-1.4-1.9-1.8-3.9-2.5-6.1c-0.5-1.7-1.1-2.6-1.2-4.5c-0.1-1.1-0.9-2-0.6,2
					c0.1,1.4,0.9,4.7,1.4,6.5c0.6,1.8,1.8,3.2,2.9,4.7c1.6,2.1,2.2,2.1,2.4,5.8c0.1,1,0.3,2.1,0.5,1.3
					C86.3,44.6,84.6,41.7,82.4,38.7z"/>
				<path opacity="0.2" fill="#F3F3F3" d="M74,68.5c-1.1,3.7-1.9,4.7-3.6,8.1c-1.8,3.5-6.8,7.8-6.9,7.9c-0.4,0.6-1.7,1.8-1.2,1.4
					c3-1.8,6.9-4.8,8.9-8.1c2.2-3.8,2.9-7.8,4.1-12C75.7,64.8,74.2,67.8,74,68.5z"/>
				<path fill="#212120" d="M57.8,69.8c-1.6,1.1-3.2,1.6-5.7,1.5c-3.2-0.1-4.4-1.2-4.9-1.6c-0.6-0.4-0.9-0.1-0.6,0.2
					c1.6,1.6,4,1.9,5.7,1.9c2.8,0.1,4.4-0.3,6.3-1.9C58.9,69.6,58.1,69.6,57.8,69.8z"/>
			</g>
			<g>
				<path fill="#1C1C1B" d="M56.5,91.3c0.1,0.9,0.1,1.7,0,2.6c0,0.9-0.2,1.8,0.1,2.6c0,0.1,0.2,0.1,0.3,0c0.2-0.8,0.1-1.8,0.1-2.6
					c0-0.9,0-1.7-0.2-2.6C56.8,91.1,56.5,91.1,56.5,91.3L56.5,91.3z"/>
			</g>
			<g>
				<path fill="#1C1C1B" d="M57.3,97c0.2,0.2,0.6,0.3,0.8,0.2c0,0,0.1-0.1,0.1-0.1c-0.1-0.3-0.4-0.4-0.6-0.5
					c-0.3-0.1-0.5-0.4-0.8-0.4c-0.1,0-0.2,0.2-0.1,0.3C56.8,96.6,57,96.9,57.3,97z"/>
			</g>
			<g>
				<path fill="#1C1C1B" d="M43.7,91c0.2,1,0.3,1.9,0.2,2.9c-0.1,0.9-0.4,1.8-0.3,2.6c0,0.1,0.2,0.1,0.3,0c0.4-0.9,0.4-2,0.5-3
					C44.3,92.7,44.3,91.7,43.7,91C43.7,91,43.7,91,43.7,91L43.7,91z"/>
			</g>
			<g>
				<path fill="#1C1C1B" d="M43.6,96.4c-0.3,0.1-0.5,0.4-0.7,0.6c-0.2,0.2-0.3,0.1-0.4,0.5c0,0.1,0,0.2,0.1,0.2
					c0.4,0.1,0.3,0.1,0.6-0.1c0.2-0.2,0.7-0.6,0.6-1C43.8,96.4,43.7,96.4,43.6,96.4L43.6,96.4z"/>
			</g>
			<g>
				<path fill="#1C1C1B" d="M46.5,97.8c0.5,0.1,1,0.1,1.5,0.1c0.8,0.1,1.5,0.3,2.2,0.5c0.1,0,0.2-0.1,0.1-0.2
					C49.2,97.8,47.6,97.5,46.5,97.8C46.5,97.8,46.5,97.8,46.5,97.8L46.5,97.8z"/>
			</g>
			<g>
				<path fill="#1C1C1B" d="M51.1,98.5c1.5-0.4,2.9-0.8,4.5-0.5c0.2,0,0.2-0.2,0.1-0.2c-1.4-0.6-3.3,0-4.6,0.6
					C51,98.4,51,98.6,51.1,98.5L51.1,98.5z"/>
			</g>
			<g>
				<path fill="#1C1C1B" d="M58.8,96.4c-4.8,4.2-8.7,11.8-7.5,18.1c0,0.2,0.3,0.1,0.3,0c0-6.9,2.2-12.8,7.4-17.9
					C59,96.4,58.9,96.3,58.8,96.4L58.8,96.4z"/>
			</g>
			<g>
				<path fill="#1C1C1B" d="M56.7,95.7c3.5-0.6,7,0.7,10.3,1.7c0.1,0,0.3-0.2,0.2-0.3c-1.2-1-2.9-1.2-4.4-1.4
					c-2-0.3-4.1-0.9-6.1-0.2C56.6,95.6,56.5,95.8,56.7,95.7L56.7,95.7z"/>
			</g>
			<g>
				<path fill="#1C1C1B" d="M51.6,114.5c1.2-4,3.7-6.4,6.3-9.3c2.5-2.8,6.1-6,9.2-7.6c0.3-0.2,0.2-0.7-0.1-0.5
					c-3.7,2-6.8,4.9-9.4,7.8c-2.8,3-5.3,5.7-6.2,9.7C51.4,114.6,51.6,114.6,51.6,114.5L51.6,114.5z"/>
			</g>
			<g>
				<path fill="#1C1C1B" d="M75,103.4c-1.4-1.5-3.5-2.2-5.4-2.9c-1.7-0.7-3.2-1.4-4.8-1.9c-0.1,0.1-0.1,0.1-0.2,0.2
					c-0.1,0.1-0.2,0.1-0.3,0.2c1.5,0.6,2.9,1.2,4.4,1.9c2,0.9,4.1,1.5,5.8,3C74.8,104.2,75.3,103.7,75,103.4z"/>
			</g>
			<g>
				<path fill="#1C1C1B" d="M43.8,95.7c-3.5-0.6-7,0.7-10.3,1.7c-0.1,0-0.3-0.2-0.2-0.3c1.2-1,2.9-1.2,4.4-1.4
					c2-0.3,4.1-0.9,6.1-0.2C44,95.6,44,95.8,43.8,95.7L43.8,95.7z"/>
			</g>
			<g>
				<path fill="#1C1C1B" d="M51.2,114.5c-1.8-4-4.9-7.3-7.9-10.2c-2.7-2.6-6.7-5.1-9.9-6.7c-0.3-0.2-0.2-0.7,0.1-0.5
					c3.7,2,7.4,4.1,10.1,6.9c3.1,3.1,6.5,6.4,7.8,10.6C51.4,114.6,51.2,114.6,51.2,114.5L51.2,114.5z"/>
			</g>
			<g>
				<path fill="#1C1C1B" d="M36,98.7C36,98.7,35.9,98.7,36,98.7c-0.1,0-0.2-0.1-0.2-0.1c-1.6,0.6-3.1,1.2-4.8,1.9
					c-1.9,0.7-4,1.4-5.4,2.9c-0.3,0.3,0.2,0.8,0.5,0.5c1.7-1.5,3.8-2.1,5.8-3c1.5-0.7,3-1.4,4.5-2C36.2,98.8,36.1,98.7,36,98.7z"/>
			</g>
			<g>
				<path fill="#1C1C1B" d="M42.1,96.8c5.2,3.8,10.3,11.5,9.3,17.7c0,0.2-0.3,0.1-0.3,0c0-6.9-4-13.1-9.2-17.6
					C41.9,96.8,42.1,96.7,42.1,96.8L42.1,96.8z"/>
			</g>
		</g>
	</g>
</g>
<g id="personajes_hover">
	<g>
		<defs>
			<rect id="SVGID_49_" x="0" y="0" width="100" height="100"/>
		</defs>
		<use xlink:href="#SVGID_49_"  overflow="visible" fill="#67B86A"/>
		<clipPath id="SVGID_4_">
			<use xlink:href="#SVGID_49_"  overflow="visible"/>
		</clipPath>
		<g clip-path="url(#SVGID_4_)">
			<g>
				<path fill="#B57021" d="M95.4,89.6c-1.4-0.8-5.5-1.9-7.1-5.2c-3.7-7.7-2.9-12.7-3.1-15.4c0-0.1-0.6-3-1-4.3
					c-0.2-0.9-0.4-2-0.9-2.7c0-0.1-0.1-0.1-0.1,0l-68.3,2c-0.1-0.1-0.2,0-0.2,0.1c1.2,7.2-0.9,9.9-0.9,10c-2.3,5.7-6,10.6-8.4,16.2
					C4,93.5,3.5,98.9,5.6,102c0,0.1,0.2,0.2,0.2,0.1c1.3-2,3.1-3.2,5-4.3c-0.4,2-2.3,3.5-2.9,5.4c-0.7,2-0.8,3.9-0.8,6
					c0.1,5.3-0.1,10.4-3.1,15c-0.1,0.1,0,0.3,0.2,0.3c0,0-0.1,0-0.1,0c-0.1,0-0.1,0.2,0,0.1c4.4-0.4,8.1-2.5,11.3-5.5
					c0.5-0.5-0.4,4.7,2.2,7.9c0,0,5.8-13.4,6-11.1c0.1,1.1-0.9,4.7-0.9,4.7c0,0.2,0.2,0.2,0.3,0.1c0,0,42.8-8.2,50.2-9.6
					c-0.1,2,1.7,4.7,3.3,5.9c0.1,0.1,0.2,0.1,0.3,0c0.1,0.4,0.7,0.4,0.7-0.1c0-1.5,0.5-2.8,0.4-4.3c0-0.5-0.1-0.9-0.1-1.4
					c0.1-0.9,0.2-3.2,0.1-4.1c1.2,0.6,2,2,2.9,2.4c0.1,0,0.2,0,0.3,0.1l1.6,0.5c0,0,1.1,0.9,1.1,0.7c1.4-6.1-3-11-3.4-16.9
					c5.1,0.9,12-0.1,14.9-4.2C95.4,90,95.5,89.6,95.4,89.6z"/>
				<g>
					<path fill="#FD9D90" d="M89.8,188.7c0-0.1,0-0.1-0.1-0.2c-4.6-3.7-7.3-14-9.3-21.8c-1-4-1.7-9.3-2.9-13.5
						c-0.6-2.3-3.6-8.7-4.4-11c-0.1-0.1-1.7-5.3-1.7-5.4c-0.7-1.2-0.7-3-0.8-4.3c0-0.6-0.1-1.2,0-1.9c0.1-0.9-0.6-1.9-0.3-2.7
						c0.1-0.2,0.2-0.4,0.4-0.6c0.7-1,1.3-2.2,1.5-3.4c0.1-1,0-1.9-0.2-2.9c-0.2-0.9-0.5-1.7-0.8-2.5c-0.8-2.4-1.6-4.7-2.2-7.1
						c-0.1-0.5-0.2-1.1,0-1.6c0.1-0.4,0.4-0.7,0.6-1c0.4-0.4,0.7-0.8,1.1-1.2c0.6-0.6,1.4-0.9,2-1.5c0.7-0.6,1.3-1.4,1.9-2.1
						c-0.3-0.4-0.7-0.6-1.1-0.9c-2.4-1.3-4.9-2.5-7.4-3.6c-0.5-0.2-1.1-0.5-1.6-0.3c-0.4,0.1-0.7,0.3-0.9,0.6
						c-0.6,0.5-1.3,1.1-1.9,1.6c-1,0.8-2,1.7-2.8,2.7c-0.4,0.5-0.7,1-1.1,1.4c-0.4,0.5-1,1-1.5,1.4c-0.8,0.7-1.4,1.6-2.1,2.4
						c-0.6,0.7-1.2,1.6-1.6,2.4c-0.4,0.9-0.6,2-1.2,2.8c0,0.1-0.2,0.1-0.2,0c-1-1.7-2.1-3.5-3.2-5.1c-1.1-1.6-2.1-3.6-3.4-5
						c-2.2-2.4-5.3-4.8-8.6-5.4c-1.9,1-3.8,1.5-5.3,2.3c-1.6,0.9-3.2,1.7-4.7,2.5c0.8,1.1,4.7,4.9,5.4,6c0.5,0.7,0.2,4.2-0.1,5.1
						c-4.3,13.2,1.2,16.4,1.6,16.6c0.9,4.2-1.1,9.3-3.3,12.8c0,0,0,0,0,0c-0.1,0.2-0.1,0.4-0.2,0.6c-0.1,0.8-0.3,1.7-0.5,2.5
						c-0.8,3.2-1.6,6.9-2.5,10.1c-0.9,3.5-3,6.7-3.3,10.3c-0.9,3.4-4.6,4.4-5.7,7.7c-1.6,4.9-3.1,9.1-6.2,13c-0.1,0-0.3,0.3-0.3,0.4
						c0,0.1,0.4,0.4,0.4,0.4c8.9,2.9,14.1,4.1,22.2,5.6c0.1,0,3.5,0.5,3.5,0.4c4,0,6.9-0.3,10.9-0.3c5.6,0,11.2,0.4,16.9,0
						c8.4-0.5,17.3-3.2,25.2-6.1C90.1,189,90,188.7,89.8,188.7z"/>
					<path fill="#F78480" d="M39.8,130.8c0,0-5.1,0.6-6-7.3c-1.6-14.1,3.2-24.4,2.2-24.7c-1.4,1-3.8,1.5-5.3,2.3
						c-1.6,0.9-3.4,1.9-5,2.7c0.8,1.1,4.9,4.9,5.7,6c0.5,0.7-1,4.8-1.4,5.7c-3.6,8.8-0.3,12,0,12.1c0.1,2.2-0.7,5-0.5,6.1
						c-0.3,2.9-2,7.9-2.3,8.7c0,0-1.4,3.1-1.4,3.1c-0.8,3.3-2.3,4.8-3.1,8.1c-0.9,3.5-2.2,8.6-2.5,12.2c-0.8,4.3-1.8,6.4-2.9,9.8
						c-1.6,4.9-3.1,8.9-6.2,12.8c-0.1,0-0.3,0.3-0.3,0.4c0,0.1,0.4,0.4,0.4,0.4c4.8,2.3,9.7,2.6,14.3,4.2c3.4,1.2,7.3-48.9,7.3-48.9
						s0.3,0.8,1.8-5.7c0.9-3.9-0.2-7-0.2-7s1.7,0.4,2.2,0.3C38.4,132.2,39.8,130.8,39.8,130.8z"/>
					<path fill="#FAA9A0" d="M63.7,96.4c-2-0.3-4.8-1.3-6.7-0.6c-0.1,0-0.3,0.7-0.3,0.8c0.1,0.3,0.2,0.2,0.5,0.4c0,0,0.1,0,0.1,0.1
						c-0.1,0.4-0.4,0.8-0.6,1.2c-2.6,3.3-5.2,8-5.5,12.4c-0.9-2.8-1.6-5.2-3.2-7.6c-1.1-1.7-3-4-5.1-5.1c-0.1-0.1-0.1-0.1-0.2-0.2
						c0.1-0.1,0.2-0.2,0.4-0.3c0.2-0.2,0.7-0.6,0.6-1c0-0.1-0.1-0.6-0.2-0.6c-2.1-0.1-3.3-0.2-5.3,0.2c-2.2,0.4-4,0.8-4.7,1.3
						c-0.1,0.1,0.2,0.5,0.3,0.5c7.8,3.7,14.5,10.3,17.3,16.6c0,0,0.3,0.1,0.3,0.1c0,0,2.2-6.1,6.3-9.4c2.9-2.3,5.5-6.2,9.1-7.6
						C67.2,97.5,65.2,96.6,63.7,96.4z"/>
					<path fill="#DBB595" d="M56.8,91.2c0-0.1-0.3,2.9-0.1,4.7c0.1,0.8,1.3,1.5,1.3,1.5c-4.2,4.7-6.6,10.9-6.7,13.4
						c-0.9-2.8-1.9-5.1-3.5-7.6c-1.1-1.8-2.9-4.4-5-5.4c0.1-0.1,0.3-0.2,0.4-0.3c0.2-0.2,0.7-0.6,0.6-1c0.3-0.9,0.4-2,0.4-2.9
						c0.1-0.9,0-1.8-0.5-2.6C43.7,90.9,57,92.1,56.8,91.2z"/>
					<path opacity="0.2" fill="#F3F3F3" d="M91.5,90.3c-2.3-1.3-3.4-3.6-4.5-5.9c-0.7-1.5-1.4-3-1.9-4.5c-0.5-1.6-0.2-3.3-0.2-4.9
						c0-0.9-1.3,1.8-1.4,2.5c-0.1,1.6-0.2,1,0.1,2.5c0.3,1.6,1.1,3.1,1.7,4.6c1.1,2.7,1.8,4.5,4.3,6C90.4,90.8,92.2,90.7,91.5,90.3z
						"/>
					<path opacity="0.2" fill="#F3F3F3" d="M82.4,104.1c-1.6-2.7-2.9-5.8-3.2-8.9c-0.1-0.9-0.9,1.1-0.9,1.8c0.2,3.4,0.5,3.5,2.3,6.4
						C81,104.1,82.7,104.7,82.4,104.1z"/>
					<path opacity="0.2" fill="#F3F3F3" d="M74.4,68.6c-1.1,3.6-1.9,4.7-3.6,8.1c-1.8,3.5-6.8,7.8-6.9,7.9c-0.4,0.6-1.7,1.8-1.2,1.4
						c3-1.8,6.9-4.8,8.9-8.1c2.2-3.8,2.9-7.8,4.1-12C76.1,65,74.7,67.9,74.4,68.6z"/>
				</g>
			</g>
			<g>
				<path fill="#DBB595" d="M86.6,55.3c-0.2-2.4-2.1-5.9-4.7-5.4c0,0,0,0,0,0c-0.6-0.2-1,0-1.6,0.2c-1.8,0.7-3-0.4-4.1-1.7
					c-0.6-0.7-1.2-1.4-1.9-1.9c-0.6-0.4-1.3-0.5-2-0.6c-2.3-0.5-4.7-0.2-7.1,0.1c-3,0.4-5.7,0.5-8.7,0.2c-1.8-0.2-3.6-0.6-5.3-0.8
					c-3.2-1-5.9-1.9-8.6-4.6c-2.2-2.1-3.9-4.7-6.1-6.8c-2.2-2.1-6.2-3.1-8.3-0.4c-3-0.6-4.7,2.2-5.5,4.8c-1.8,6,0.2,11.3-7.1,14.1
					c0,0,0,0,0,0c-2.9,0.4-3.6,4.3-3.7,6.7c-0.1,3.7,3.1,6.2,7.9,6.1C24,79.5,36,92.6,51.6,92.2c15.3-0.5,25.1-14.3,27.8-28.5
					c0.1,0.1,1.8-0.2,2-0.2C85.1,62.5,86.9,59.1,86.6,55.3z"/>
				<path fill="#D19F79" d="M72.6,45.9c-2.3-0.5-4.7-0.2-7.1,0.1c-3,0.4-5.7,0.5-8.7,0.2c-1.8-0.2-3.6-0.6-5.3-0.8
					c-3.2-1-5.9-1.9-8.6-4.6c-2.2-2.1-3.9-4.7-6.1-6.8c-2.2-2.1-6.2-3.1-8.3-0.4c-3-0.6-4.7,2.2-5.5,4.8c-1.8,6,0.2,11.3-7.1,14.1
					c0,0,0,0,0,0c-2.9,0.4-3.6,4.3-3.7,6.7c-0.1,3.7,3.1,6.2,7.9,6.1c2.4,7.9,7.1,15.5,13.5,20.6c0,0-11.4-12.5-11.1-24.8
					c0.1-4.5,0.6-35.6,15.3-21.6C52.4,53.3,72.6,45.9,72.6,45.9z"/>
				<path fill="#F7CA12" d="M17.5,62.6C17.5,62.6,17.5,62.6,17.5,62.6c-0.5-0.1-0.9,0.5-0.6,0.9c0,0,0,0,0,0c0,0,0,0,0,0
					c0,0,0.1,0,0.1,0c0,0,0.1,0.1,0.1,0c1.2,0.4,1.7,2,1.8,3.2c0.1,1.9-1.3,4.5-3.1,5.1c-2.6,1-3.6-2.7-3.2-4.5
					c0.3-1.2,1.1-2.6,2-3.4c0.1-0.1-0.7-1.2-0.9-1.2c-2.6,0.9-3.7,4.3-3.6,6.7c0.1,2.7,2.6,5,5.3,4.9c2.8-0.1,4.9-3.5,5-6.1
					C20.5,66.4,20,63,17.5,62.6z"/>
				<path fill="#BA7520" d="M87.9,44.1C87.9,44.1,87.9,44.1,87.9,44.1c-0.3-1.7-1.1-2.9-2-4.3c-1.8-2.7-2.8-5.6-3.6-8.7
					c-0.5-2.2-1.5-4.1-2.8-5.8c0,0,0-0.1,0-0.1C73.6,16.7,61.1,15.1,51.8,14c-5.2-0.6-10.2,0.4-14.9,2.5c-5.4,2.5-9.2,6.7-14.1,9.9
					c0,0-0.1,0.1-0.1,0.1c-4.4-0.5-8,4.1-9.6,7.7c-1.1,2.4-1.4,5.1-1.6,7.7c-0.2,4.3,1.5,8.2,1.6,12.5c0,0.3,0.4-0.5,0.9-0.9
					c2.1-1.9,2.8-1.1,3.2-1.2c8.3-1.8,2.5-19,10.9-18.3c0.2,0,0.3-0.2,0.3-0.3C33.6,29,39,38,42,41.3c3.1,3.4,6.9,4.9,11.5,5.2
					c0,0,0.1,0,0.1,0c2.4,0.5,4.8,0.8,7.2,0.8c4.3,0,8.2-1.3,12.5-0.4c0.4,0.2,0.9,0.4,1.3,0.7c1.1,1,1.9,2.3,3.1,3.1
					c1.1,0.7,2.5,0.3,3.7-0.2c0.2-0.1,2.8,0.2,2.9,0.3c0.5,0.5,1.1,0.7,1.1,1.3c0,0.3,0.1,0.5,0.3,0.3C88,50.5,89,46.9,87.9,44.1z"
					/>
				<path fill="#B57021" d="M36.9,16.7c-5.4,2.5-9.2,6.7-14.1,9.9c0,0-0.1,0.1-0.1,0.1c-4.4-0.5-8,4.1-9.6,7.7
					c-1.1,2.4-1.4,5.1-1.6,7.7c-0.2,4.3,1.5,8.2,1.6,12.5c0,0.3,0.4-0.5,0.9-0.9c2.1-1.9,2.8-1.1,3.2-1.2c8.3-1.8,2.5-19,10.9-18.3
					c0.1,0-1.5-3.5-0.9-8.1C27.8,21.8,36.9,16.7,36.9,16.7z"/>
				<g opacity="0.8">
					<path fill="#D69685" d="M28.5,58.1c-0.2,0-0.4,0-0.6,0c-1.7-0.2-3.4,0.2-4.7,1c-0.5,0.3-0.8,0.8-0.9,1.4
						c-0.4,0.5-0.2,1.2,0.1,1.6c0,0.1,0.1,0.2,0.1,0.3c0.9,1.4,2.6,1.7,3.9,1.8c0.5,0,1.1,0.1,1.7,0c0.2,0.1,0.4,0.3,0.6,0.3
						c2,0.3,5.3-0.3,5.4-3.4C34.4,58.5,30.4,57.7,28.5,58.1z"/>
					<path fill="#D69685" d="M77,59.9c-0.4-0.4-0.8-0.8-1.2-1.1c0,0,0.1,0,0.1,0c0.2,0,0.2-0.3,0-0.4c-2.2-1.1-4.7-1.2-7-0.7
						c-0.1,0-0.3,0.1-0.4,0.1c-1,0.3-2,0.7-2.7,1.3c-0.5,0.4-0.7,1.6-0.2,2.2c0.2,0.2,0.4,0.3,0.6,0.5c1,1.9,3.3,1.9,4.8,2
						c1.9,0,4.6-0.2,6-2.3C77.3,61,77.4,60.3,77,59.9z"/>
				</g>
				<path fill="#1C1C1B" d="M35.5,55.1c-0.9,0.2-1.5,0.2-2.1,1c-0.9,1.2-0.7,2.9,0.8,3.4c1.2,0.4,3.1,0,3.6-1.3
					c0.4-1.3-0.8-2.8-2-3.1c-0.5-0.1-1.1,0-1.5,0.2"/>
				<path fill="#FFFFFF" d="M35.8,55.5c-0.6,0.1-1.8,1-0.7,1.7C36.9,58.5,37.7,55.8,35.8,55.5"/>
				<g>
					<path fill="#1C1C1B" d="M32,52c0.7,0.1,1.5-0.2,2.2-0.4c1-0.3,2-0.6,2.9-0.9c0.4-0.1,0.3-0.7-0.1-0.7c-1.1,0-2.1,0-3.2,0.4
						c-0.7,0.2-1.6,0.6-2,1.3C31.8,51.8,31.9,52,32,52L32,52z"/>
				</g>
				<g>
					<path fill="#1C1C1B" d="M69.8,52c-0.7,0.1-1.5-0.2-2.2-0.4c-1-0.3-2-0.6-2.9-0.9c-0.4-0.1-0.3-0.7,0.1-0.7c1.1,0,2.1,0,3.2,0.4
						c0.7,0.2,1.6,0.6,2,1.3C70,51.8,70,52,69.8,52L69.8,52z"/>
				</g>
				<path fill="#1C1C1B" d="M65.5,54.3c-0.9,0.2-1.5,0.2-2.1,1c-0.9,1.2-0.7,2.9,0.8,3.4c1.2,0.4,3.1,0,3.6-1.3
					c0.4-1.3-0.8-2.8-2-3.1c-0.5-0.1-1.1,0-1.5,0.2"/>
				<path fill="#FFFFFF" d="M66.1,54.9c-0.6,0.1-1.8,1-0.7,1.7C67.2,57.9,68,55.3,66.1,54.9"/>
				<g>
					<path fill="#1C1C1B" d="M18.4,59.6c2.4,16.5,15.5,33.1,33.2,32.6c17.7-0.5,28-18.9,28.5-35c0-0.2-0.3-0.2-0.3,0
						c-1,8-3.9,15.9-8.3,22.6c-4.8,7.4-12.5,11.1-21.2,11.3c-17,0.5-28.6-16.7-31.5-31.7C18.8,59.2,18.3,59.3,18.4,59.6L18.4,59.6z"
						/>
				</g>
				<g>
					<path fill="#1C1C1B" d="M15.7,52.3c-3,0.3-3.8,4.3-3.8,6.7c-0.1,3.7,3,6.5,6.7,6.3c0.3,0,0.3-0.5,0-0.5c-3.5-0.4-6-2.1-6.1-5.8
						c-0.1-2.5,0.9-5.5,3.3-6.5C15.8,52.5,15.8,52.3,15.7,52.3L15.7,52.3z"/>
				</g>
				<g>
					<path fill="#1C1C1B" d="M15.2,57.2c-0.5,0.5-0.6,1.4-0.5,2c0.1,0.7,0.7,1.4,1.5,1.3c0.1,0,0.1-0.2,0.1-0.2
						c-0.4-0.4-0.9-0.5-1-1.2c-0.1-0.6,0-1.1,0.3-1.6C15.6,57.3,15.4,57.1,15.2,57.2L15.2,57.2z"/>
				</g>
				<g>
					<path fill="#1C1C1B" d="M79.8,63c-0.3,0-0.4,0-0.6,0.2c-0.1,0.1,0,0.3,0,0.4c0.2,0.2,0.4,0.2,0.7,0.1
						C80.3,63.6,80.2,63,79.8,63L79.8,63z"/>
				</g>
				<g>
					<path fill="#1C1C1B" d="M80.9,50.5c3.8-0.9,5.2,2.8,5.2,5.8c0,3.2-2.6,5.8-5.7,6.5c-0.5,0.1-0.7,0.9-0.2,0.8
						c5.1-0.8,6.7-4.6,6.4-8.5c-0.2-2.7-2.6-6.9-5.8-4.9C80.7,50.4,80.8,50.6,80.9,50.5L80.9,50.5z"/>
				</g>
				<g>
					<path fill="#1C1C1B" d="M83,55c0.1,0.2,0.2,0.3,0.3,0.5c0.2,0.2,0.2,0.6,0.2,0.8c0,0.6-0.5,1.1-0.8,1.6c-0.1,0.1,0,0.3,0.2,0.2
						c0.7-0.3,1-1,1.1-1.7c0.1-0.6-0.1-1.6-0.9-1.7C83.1,54.8,83,54.9,83,55L83,55z"/>
				</g>
				<g>
					<path fill="#1C1C1B" d="M15.6,52.5c10.5,0,3.6-19.2,12.5-18.5c0.3,0,0.4-0.5,0.1-0.5c-3.1-0.6-4.8,2.2-5.5,4.7
						c-1.8,6,0.2,11.3-7.1,14.1C15.5,52.4,15.5,52.5,15.6,52.5L15.6,52.5z"/>
				</g>
				<g>
					<path fill="#1C1C1B" d="M28.2,33.9c5.3-5.1,10.8,4.1,13.8,7.4c3.1,3.4,6.9,4.9,11.5,5.2c0.2,0,0.2-0.2,0-0.3
						c-4.3-1.4-7.6-2-11-5.4c-2.2-2.1-3.9-4.7-6.1-6.8c-2.2-2.2-6.5-3.2-8.4-0.2C27.9,33.8,28.1,34,28.2,33.9L28.2,33.9z"/>
				</g>
				<g>
					<path fill="#1C1C1B" d="M49.3,45.4c3.8,1,7.6,1.7,11.6,1.8c4.5,0,8.6-1.5,13.2-0.2c0.2,0.1,0.4-0.3,0.2-0.4c-2.8-1.4-6-1-9-0.6
						c-3,0.4-5.7,0.5-8.7,0.2c-2.4-0.3-4.7-1-7.2-0.9C49.2,45.3,49.2,45.4,49.3,45.4L49.3,45.4z"/>
				</g>
				<g>
					<path fill="#1C1C1B" d="M71,46c1.3,0.6,2.6,0.5,3.7,1.5c1.1,1,1.9,2.3,3.1,3.1c1.2,0.8,3,0.2,4.2-0.5c0.1-0.1,0.1-0.3,0-0.3
						c-0.6-0.2-1,0-1.6,0.2c-1.8,0.7-3-0.4-4.1-1.7c-0.6-0.7-1.2-1.4-1.9-1.9c-0.9-0.7-2.1-0.5-3.2-0.8C70.9,45.7,70.8,45.9,71,46
						L71,46z"/>
				</g>
				<g>
					<path fill="#1C1C1B" d="M51.1,59.8c1.4-0.2,2.7-0.3,3.5,1.1c0.9,1.6-0.7,2.6-1.7,3.6c-0.2,0.2,0,0.4,0.2,0.4
						c1.8-0.5,2.8-2.6,2-4.3c-0.7-1.5-2.9-2-4.2-1C50.8,59.6,51,59.8,51.1,59.8L51.1,59.8z"/>
				</g>
				<g>
					<path fill="#1C1C1B" d="M58.1,95.3c0.2,0,0.3,0,0.5,0.1c0,0,0,0,0,0C58.4,95.3,58.3,95.3,58.1,95.3
						C58.1,95.3,58.1,95.3,58.1,95.3L58.1,95.3z"/>
				</g>
				<g>
					<path fill="#1C1C1B" d="M23,26.6c-4.5-0.6-8.2,4-9.8,7.7c-1.1,2.4-1.4,5.1-1.6,7.7c-0.2,4.3,1.5,8.2,1.6,12.5
						c0,0.3,0.4,0.3,0.5,0c0.6-4.5-1.5-9.2-1.3-13.9c0.3-5.7,4.1-13.6,10.7-13.7C23.1,26.9,23.1,26.6,23,26.6L23,26.6z"/>
				</g>
				<g>
					<path fill="#1C1C1B" d="M5.9,102.1C9.3,96.7,17,97,19.2,90.5c0-0.1-0.1-0.2-0.2-0.1c-1.7,3.6-4.3,5.4-8,6.8
						c-2.3,0.9-4.1,2.6-5.4,4.7C5.6,102.2,5.8,102.3,5.9,102.1L5.9,102.1z"/>
				</g>
				<g>
					<path fill="#1C1C1B" d="M11,97.4c-0.2,2.2-2.3,3.8-3,5.8c-0.7,2-0.8,3.9-0.8,6c0.1,5.4-0.1,10.5-3.1,15.1
						c-0.1,0.2,0.2,0.5,0.4,0.3c2.8-2.9,3.2-7.3,3.4-11.2c0.1-3-0.3-5.9,0.3-8.8c0.5-2.6,3.2-4.5,3.1-7.2C11.2,97.3,11,97.3,11,97.4
						L11,97.4z"/>
				</g>
				<g>
					<path fill="#1C1C1B" d="M13.9,73.9c-2.3,5.7-6,10.6-8.4,16.2c-1.4,3.4-1.9,8.8,0.2,12c0.1,0.1,0.2,0,0.2-0.1
						C4.4,96.1,5,91.5,8,86.1c2.3-4,4.6-7.8,6.3-12.1C14.4,73.8,14,73.6,13.9,73.9L13.9,73.9z"/>
				</g>
				<g>
					<path fill="#1C1C1B" d="M14.4,63.9c1.3,2.7,0.9,5.5,0.1,8.3c-0.1,0.3,0.4,0.4,0.4,0.1c0.8-2.7,1.4-6-0.3-8.5
						C14.5,63.7,14.3,63.8,14.4,63.9L14.4,63.9z"/>
				</g>
				<g>
					<path fill="#1C1C1B" d="M23,26.8c3.3-2,6.1-4.9,9.3-7.1c5.1-3.4,10.6-5.3,16.7-5.3c5.4-0.1,11.4,1.2,16.6,2.7
						c5.5,1.6,9.5,4.4,13.5,8.3c0.1,0.1,0.3,0,0.2-0.2C73.6,16.7,61.1,15.1,51.8,14c-5.2-0.6-10.2,0.4-14.9,2.5
						c-5.4,2.5-9.2,6.7-14.1,9.9C22.6,26.6,22.8,27,23,26.8L23,26.8z"/>
				</g>
				<g>
					<path fill="#1C1C1B" d="M76.3,22.4c3.5,3.6,4.8,6.9,6.1,11.7c1,3.7,3.5,6.7,5,10.2c0.1,0.3,0.5,0.1,0.4-0.2
						c-0.3-1.7-1.1-2.8-2-4.2c-1.8-2.7-2.8-5.6-3.6-8.7C81.4,27.5,79.3,24.6,76.3,22.4C76.3,22.2,76.3,22.3,76.3,22.4L76.3,22.4z"/>
				</g>
				<g>
					<path fill="#1C1C1B" d="M86.6,42.4c1.9,3.6,1.4,6.6-1.1,9.7c-0.2,0.2,0.1,0.5,0.3,0.3C88.5,50.1,89.4,45,86.6,42.4
						C86.6,42.3,86.6,42.4,86.6,42.4L86.6,42.4z"/>
				</g>
				<g>
					<path fill="#1C1C1B" d="M85,68.9c0.6,8,1.2,18.7,10.8,21c0.2,0.1,0.3-0.2,0.2-0.4c-3.5-1.9-6.2-3.8-8.1-7.5
						c-2.1-4.1-2-8.8-2.3-13.2C85.5,68.6,85,68.6,85,68.9L85,68.9z"/>
				</g>
				<g>
					<path fill="#1C1C1B" d="M83.4,61.8c-0.2,0.6,0.3,1.4,0.5,1.9c0.4,1.2,0.7,2.5,0.9,3.7c0.1,0.3,0.6,0.2,0.5-0.1
						c-0.2-1.2-0.5-2.3-0.9-3.5c-0.2-0.7-0.4-1.5-0.9-2.1C83.5,61.7,83.5,61.8,83.4,61.8L83.4,61.8z"/>
				</g>
				<g>
					<path fill="#1C1C1B" d="M95.9,89.6c-5.2,4-10.8,4.8-17.1,3.7c-0.3,0-0.4,0.3-0.1,0.4c5.1,1.8,14.1,0.9,17.4-4
						C96,89.6,95.9,89.6,95.9,89.6L95.9,89.6z"/>
				</g>
				<g>
					<path fill="#1C1C1B" d="M80.3,94.2c0,2.7,1,5,2,7.5c1.3,3.2,1.3,6,1.7,9.4c0,0.1,0.2,0.2,0.2,0c1.4-6.1-3-11-3.4-16.9
						C80.7,93.9,80.3,93.9,80.3,94.2L80.3,94.2z"/>
				</g>
				<g>
					<path fill="#1C1C1B" d="M17.5,62.7c2.1,0.6,2.5,3.2,2.4,5.1c-0.1,2.4-1.8,5.1-4.1,5.8C13,74.5,11,71.3,10.8,69
						c-0.1-2.3,1.4-4.4,3.1-5.7c0.2-0.2,0-0.5-0.2-0.4c-2.6,0.9-3.7,4.3-3.6,6.7c0.1,2.7,2.6,5,5.3,4.9c2.8-0.1,4.9-3.5,5-6.1
						c0.1-2.1-0.4-5.4-2.9-5.8C17.4,62.6,17.4,62.7,17.5,62.7L17.5,62.7z"/>
				</g>
				<g>
					<path fill="#1C1C1B" d="M16.9,63.5c1.4,0.3,1.9,2,1.9,3.2c0.1,1.9-1.3,4.5-3.1,5.1c-2.6,1-3.6-2.7-3.2-4.5
						c0.3-1.2,1.1-2.6,2-3.4c0.1-0.1,0-0.3-0.2-0.3c-1.7,0.6-2.5,3.5-2.6,5c-0.1,1.9,1.6,4.3,3.7,3.8c2.3-0.5,3.5-3.2,3.6-5.3
						C19.3,66,18.5,63.3,16.9,63.5C16.9,63.5,16.9,63.5,16.9,63.5L16.9,63.5z"/>
				</g>
				<g>
					<path fill="#1C1C1B" d="M17.5,62.6c-0.5-0.1-1,0.6-0.6,1c0.1,0.1,0.1,0,0.1-0.1c0-0.3-0.1-0.8,0.4-0.8
						C17.6,62.7,17.6,62.6,17.5,62.6L17.5,62.6z"/>
				</g>
				<g>
					<path fill="#1C1C1B" d="M21.7,28.3c-4.2,0.6-6.2,6-6.6,9.7c0,0.1,0.2,0.1,0.2,0c1-3.8,2.3-8.2,6.5-9.5
						C21.9,28.4,21.8,28.2,21.7,28.3L21.7,28.3z"/>
				</g>
				<g>
					<path fill="#1C1C1B" d="M63.5,18.6c4.8,2,8.7,3.8,12.8,7.1c0.1,0.1,0.2,0,0.1-0.1c-3.3-3.6-8.2-5.8-12.9-7.1
						C63.5,18.4,63.5,18.5,63.5,18.6L63.5,18.6z"/>
				</g>
				<g>
					<path fill="#1C1C1B" d="M34.1,30.6c2.2-1,4.8,2.5,6,3.8c1.6,1.7,3.2,3.4,5.1,4.7c0.1,0,0.1-0.1,0.1-0.1c-2.8-2.2-5-5-7.6-7.4
						C36.9,30.9,35.2,29.5,34.1,30.6C34.1,30.6,34.1,30.6,34.1,30.6L34.1,30.6z"/>
				</g>
				<g>
					<path fill="#1C1C1B" d="M16.7,75.8c0.1,3-2.4,5.4-4,7.6c-1.8,2.4-3.4,4.9-3.4,8c0,0.1,0.1,0.1,0.1,0c0.2-4.2,3.1-7.2,5.4-10.4
						C15.8,79.6,17.2,77.6,16.7,75.8C16.7,75.7,16.7,75.7,16.7,75.8L16.7,75.8z"/>
				</g>
				<path fill="#F7CA12" d="M81.4,60.6C81.4,60.6,81.4,60.6,81.4,60.6c0.5-0.1,0.9,0.5,0.6,0.9c0,0,0,0,0,0c0,0,0,0,0,0
					c0,0-0.1,0-0.1,0c0,0-0.1,0.1-0.1,0c-1.2,0.4-1.7,2-1.8,3.2c-0.1,1.9,1.3,4.5,3.1,5.1c2.6,1,3.6-2.7,3.2-4.5
					c-0.3-1.2-1.1-2.6-2-3.4c-0.1-0.1,0.7-1.2,0.9-1.2c2.6,0.9,3.7,4.3,3.6,6.7c-0.1,2.7-2.6,5-5.3,4.9c-2.8-0.1-4.9-3.5-5-6.1
					C78.4,64.4,78.9,61,81.4,60.6z"/>
				<g>
					<path fill="#1C1C1B" d="M81.5,60.7c-2.1,0.6-2.5,3.2-2.4,5.1c0.1,2.4,1.8,5.1,4.1,5.8c2.8,0.9,4.8-2.3,4.9-4.6
						c0.1-2.3-1.4-4.4-3.1-5.7c-0.2-0.2,0-0.5,0.2-0.4c2.6,0.9,3.7,4.3,3.6,6.7c-0.1,2.7-2.6,5-5.3,4.9c-2.8-0.1-4.9-3.5-5-6.1
						c-0.1-2.1,0.4-5.4,2.9-5.8C81.5,60.6,81.6,60.7,81.5,60.7L81.5,60.7z"/>
				</g>
				<g>
					<path fill="#1C1C1B" d="M82.1,61.5c-1.4,0.3-1.9,2-1.9,3.2c-0.1,1.9,1.3,4.5,3.1,5.1c2.6,1,3.6-2.7,3.2-4.5
						c-0.3-1.2-1.1-2.6-2-3.4c-0.1-0.1,0-0.3,0.2-0.3c1.7,0.6,2.5,3.5,2.6,5c0.1,1.9-1.6,4.3-3.7,3.8c-2.3-0.5-3.5-3.2-3.6-5.3
						C79.7,64,80.4,61.3,82.1,61.5C82.1,61.5,82.1,61.5,82.1,61.5L82.1,61.5z"/>
				</g>
				<path opacity="0.2" fill="#F3F3F3" d="M82.4,38.7c-1.4-1.9-1.8-3.9-2.5-6.1c-0.5-1.7-1.1-2.6-1.2-4.5c-0.1-1.1-0.9-2-0.6,2
					c0.1,1.4,0.9,4.7,1.4,6.5c0.6,1.8,1.8,3.2,2.9,4.7c1.6,2.1,2.2,2.1,2.4,5.8c0.1,1,0.3,2.1,0.5,1.3
					C86.3,44.6,84.6,41.7,82.4,38.7z"/>
				<path opacity="0.2" fill="#F3F3F3" d="M74,68.5c-1.1,3.7-1.9,4.7-3.6,8.1c-1.8,3.5-6.8,7.8-6.9,7.9c-0.4,0.6-1.7,1.8-1.2,1.4
					c3-1.8,6.9-4.8,8.9-8.1c2.2-3.8,2.9-7.8,4.1-12C75.7,64.8,74.2,67.8,74,68.5z"/>
				<g>
					<path fill="#9E3C50" d="M65.2,69c-4.2,0-8.4,0.6-12.6,1c-4.5,0.4-9,0.1-13.5,0c-0.1,0-0.2,0-0.2,0.1c0-0.1-0.2-0.1-0.2,0
						c-0.1,8.2,5.4,12.8,13.5,12.4c6.8-0.4,13.2-6.1,13.3-13.1c0,0,0,0,0-0.1C65.5,69.2,65.5,69,65.2,69z"/>
					<path fill="#C86273" d="M44.4,80.7C42.9,80,41.8,79,41,77.9c5.8-2.4,12.8-2.9,17.5,2c-1.6,0.9-3.4,1.6-5.2,2
						C50.3,82.5,47.1,81.9,44.4,80.7z"/>
					<g>
						<path fill="#1D1D1B" d="M39.1,70.6c8.8,0.3,17.3-0.2,26.1-0.9c0.4,0,0.4-0.6,0-0.6c-4.2,0-8.4,0.6-12.6,1
							c-4.5,0.4-9,0.1-13.5,0C38.8,70.1,38.8,70.6,39.1,70.6L39.1,70.6z"/>
					</g>
					<g>
						<path fill="#1D1D1B" d="M38.7,70.2c-0.1,8.2,5.4,12.8,13.5,12.4c6.8-0.4,13.2-6.1,13.3-13.1c0-0.4-0.6-0.4-0.6,0
							c0,6.7-5.5,11.2-11.6,12.4c-3,0.6-6.1,0-8.9-1.2c-4.3-1.9-5.2-6.3-5.5-10.5C38.9,70,38.7,70,38.7,70.2L38.7,70.2z"/>
					</g>
					<g>
						<path fill="#1D1D1B" d="M40.9,77.9c5.9-2.5,13.2-3,17.9,2.3c0.2,0.3,0.6-0.1,0.4-0.4C55,74.8,46.1,74.2,40.9,77.9
							C40.8,77.9,40.9,77.9,40.9,77.9L40.9,77.9z"/>
					</g>
				</g>
			</g>
			<g>
				<path fill="#1C1C1B" d="M56.5,91.3c0.1,0.9,0.1,1.7,0,2.6c0,0.9-0.2,1.8,0.1,2.6c0,0.1,0.2,0.1,0.3,0c0.2-0.8,0.1-1.8,0.1-2.6
					c0-0.9,0-1.7-0.2-2.6C56.8,91.1,56.5,91.1,56.5,91.3L56.5,91.3z"/>
			</g>
			<g>
				<path fill="#1C1C1B" d="M57.3,97c0.2,0.2,0.6,0.3,0.8,0.2c0,0,0.1-0.1,0.1-0.1c-0.1-0.3-0.4-0.4-0.6-0.5
					c-0.3-0.1-0.5-0.4-0.8-0.4c-0.1,0-0.2,0.2-0.1,0.3C56.8,96.6,57,96.9,57.3,97z"/>
			</g>
			<g>
				<path fill="#1C1C1B" d="M43.7,91c0.2,1,0.3,1.9,0.2,2.9c-0.1,0.9-0.4,1.8-0.3,2.6c0,0.1,0.2,0.1,0.3,0c0.4-0.9,0.4-2,0.5-3
					C44.3,92.7,44.3,91.7,43.7,91C43.7,91,43.7,91,43.7,91L43.7,91z"/>
			</g>
			<g>
				<path fill="#1C1C1B" d="M43.6,96.4c-0.3,0.1-0.5,0.4-0.7,0.6c-0.2,0.2-0.3,0.1-0.4,0.5c0,0.1,0,0.2,0.1,0.2
					c0.4,0.1,0.3,0.1,0.6-0.1c0.2-0.2,0.7-0.6,0.6-1C43.8,96.4,43.7,96.4,43.6,96.4L43.6,96.4z"/>
			</g>
			<g>
				<path fill="#1C1C1B" d="M46.5,97.8c0.5,0.1,1,0.1,1.5,0.1c0.8,0.1,1.5,0.3,2.2,0.5c0.1,0,0.2-0.1,0.1-0.2
					C49.2,97.8,47.6,97.5,46.5,97.8C46.5,97.8,46.5,97.8,46.5,97.8L46.5,97.8z"/>
			</g>
			<g>
				<path fill="#1C1C1B" d="M51.1,98.5c1.5-0.4,2.9-0.8,4.5-0.5c0.2,0,0.2-0.2,0.1-0.2c-1.4-0.6-3.3,0-4.6,0.6
					C51,98.4,51,98.6,51.1,98.5L51.1,98.5z"/>
			</g>
			<g>
				<path fill="#1C1C1B" d="M58.8,96.4c-4.8,4.2-8.7,11.8-7.5,18.1c0,0.2,0.3,0.1,0.3,0c0-6.9,2.2-12.8,7.4-17.9
					C59,96.4,58.9,96.3,58.8,96.4L58.8,96.4z"/>
			</g>
			<g>
				<path fill="#1C1C1B" d="M56.7,95.7c3.5-0.6,7,0.7,10.3,1.7c0.1,0,0.3-0.2,0.2-0.3c-1.2-1-2.9-1.2-4.4-1.4
					c-2-0.3-4.1-0.9-6.1-0.2C56.6,95.6,56.5,95.8,56.7,95.7L56.7,95.7z"/>
			</g>
			<g>
				<path fill="#1C1C1B" d="M51.6,114.5c1.2-4,3.7-6.4,6.3-9.3c2.5-2.8,6.1-6,9.2-7.6c0.3-0.2,0.2-0.7-0.1-0.5
					c-3.7,2-6.8,4.9-9.4,7.8c-2.8,3-5.3,5.7-6.2,9.7C51.4,114.6,51.6,114.6,51.6,114.5L51.6,114.5z"/>
			</g>
			<g>
				<path fill="#1C1C1B" d="M75,103.4c-1.4-1.5-3.5-2.2-5.4-2.9c-1.7-0.7-3.2-1.4-4.8-1.9c-0.1,0.1-0.1,0.1-0.2,0.2
					c-0.1,0.1-0.2,0.1-0.3,0.2c1.5,0.6,2.9,1.2,4.4,1.9c2,0.9,4.1,1.5,5.8,3C74.8,104.2,75.3,103.7,75,103.4z"/>
			</g>
			<g>
				<path fill="#1C1C1B" d="M43.8,95.7c-3.5-0.6-7,0.7-10.3,1.7c-0.1,0-0.3-0.2-0.2-0.3c1.2-1,2.9-1.2,4.4-1.4
					c2-0.3,4.1-0.9,6.1-0.2C44,95.6,44,95.8,43.8,95.7L43.8,95.7z"/>
			</g>
			<g>
				<path fill="#1C1C1B" d="M51.2,114.5c-1.8-4-4.9-7.3-7.9-10.2c-2.7-2.6-6.7-5.1-9.9-6.7c-0.3-0.2-0.2-0.7,0.1-0.5
					c3.7,2,7.4,4.1,10.1,6.9c3.1,3.1,6.5,6.4,7.8,10.6C51.4,114.6,51.2,114.6,51.2,114.5L51.2,114.5z"/>
			</g>
			<g>
				<path fill="#1C1C1B" d="M36,98.7C36,98.7,35.9,98.7,36,98.7c-0.1,0-0.2-0.1-0.2-0.1c-1.6,0.6-3.1,1.2-4.8,1.9
					c-1.9,0.7-4,1.4-5.4,2.9c-0.3,0.3,0.2,0.8,0.5,0.5c1.7-1.5,3.8-2.1,5.8-3c1.5-0.7,3-1.4,4.5-2C36.2,98.8,36.1,98.7,36,98.7z"/>
			</g>
			<g>
				<path fill="#1C1C1B" d="M42.1,96.8c5.2,3.8,10.3,11.5,9.3,17.7c0,0.2-0.3,0.1-0.3,0c0-6.9-4-13.1-9.2-17.6
					C41.9,96.8,42.1,96.7,42.1,96.8L42.1,96.8z"/>
			</g>
		</g>
	</g>
</g>
<g id="globo">
</g>
</svg>
