<?xml version="1.0" encoding="utf-8"?>
<!-- Generator: Adobe Illustrator 17.0.0, SVG Export Plug-In . SVG Version: 6.00 Build 0)  -->
<!DOCTYPE svg PUBLIC "-//W3C//DTD SVG 1.1//EN" "http://www.w3.org/Graphics/SVG/1.1/DTD/svg11.dtd">
<svg version="1.1" xmlns="http://www.w3.org/2000/svg" xmlns:xlink="http://www.w3.org/1999/xlink" x="0px" y="0px" width="100px"
	 height="100px" viewBox="0 0 100 100" enable-background="new 0 0 100 100" xml:space="preserve">
<g id="capa1">
</g>
<g id="personajes">
	<g>
		<defs>
			<rect id="SVGID_31_" x="0" y="0" width="100" height="100"/>
		</defs>
		<use xlink:href="#SVGID_31_"  overflow="visible" fill="#9CC766"/>
		<clipPath id="SVGID_2_">
			<use xlink:href="#SVGID_31_"  overflow="visible"/>
		</clipPath>
		<g clip-path="url(#SVGID_2_)">
			<path fill="#F7A827" d="M107.2,131.8c-3-16.1-17.7-30.3-32.1-36.9c0,0-18.3,0.1-24.4-0.3c-5.6-0.4-22-2.7-22-2.7
				c-15.5,6.3-31.4,19.7-36.9,35.7c-2.8,8.1-2,16.7,0.2,24.9c1.8,6.9,5.8,16.9,12.4,20.6c0,0,0.7,1.5,2.3,2.1
				c5.8,2.3,11.5,3.6,17,4.9c38.6,9,69.5-6.1,69.5-6.1c0,0.1,0.2-0.5,0.3-0.6c6-3.3,9.3-11.9,11.4-18
				C107.6,147.8,108.7,139.8,107.2,131.8z"/>
			<path fill="#E6AF99" d="M66.8,92.6c-4.1,5.5-12.6,5.2-16.8,9.9c-2.4-1.9-4.7-4.2-7.3-5.8c-2.6-1.6-5.1-2.2-6.8-5.1
				C35.8,91.5,66.8,92.5,66.8,92.6z"/>
			<path fill="#F29313" d="M27.3,98.1c0,0-10.9,5.6-9.5,21.5c1.5,16,3.6,10.6,2.2,30.3c-1.9,26.7,54.1,29.7,54.1,29.7l0,0
				c0,0-28.5,10.7-68.5-4.7c0,0-0.6-0.9-0.9-1.9c0,0-23-19.3-9.9-52c0,0,7.5-17.8,34-29.1c0.1,0,0.4,0.2,0.5,0.1L27.3,98.1z"/>
			<path fill="#D59D89" d="M66.8,92.6c0,0-12.3,6-25.3,3.8c0,0-4.7-2.8-5.5-4.7C35.9,91.6,60.4,94.2,66.8,92.6z"/>
			<path fill="#FFE2B3" d="M75.1,94.3c-0.3-1.3-0.6-4.3-2-5c-0.1,0-3.6,1.1-4.5,1.8c-0.5,0.4-1.1,1-1.8,1.6
				c-0.1-0.1-0.1-0.2-0.1-0.2c-4.1,5.5-12.6,5.2-16.8,9.9c-2.4-1.9-4.7-4.2-7.3-5.8c-1.9-1.1-3.7-1.8-5.2-3.1
				c-0.1-0.1-0.3-0.3-0.4-0.4c-0.4-0.4-0.8-0.9-1.2-1.6c0,0,0,0.1-0.1,0.4c-0.6-0.5-1.1-0.9-1.6-1.3c-2.4-1.6-3.9-1.4-4-1.4
				c-1.4,0.7-1.7,3.7-2,5c-0.5,2.2-1,4.3-1.8,6.4c0,0,0,0.1,0.1,0.1c0,0.1,0.1,0.3,0.3,0.3c2.1-0.2,3.9-1.3,5.7-2.3
				c0.9-0.5,1.8-1.2,2.7-1.8c2.8,2.5,5.6,5.1,8.4,7.6c1.8,1.6,3.7,3.7,5.8,4.9c0.1,0.1,0.2,0.1,0.3,0c1.7,0.7,7-4,8.2-4.8
				c3.4-2.3,7.2-4.9,10.2-7.7c0.8,0.5,1.5,1,2.2,1.5c1.9,1.2,3.9,2.5,6.2,2.7c0.2,0,0.3-0.1,0.3-0.3c0,0,0.1,0,0.1-0.1
				C76.1,98.6,75.6,96.6,75.1,94.3z"/>
			<path fill="#FCCC81" d="M35.9,91.6c0.4,1.2-2.8,1.4-4.6,3.9c-1.8,2.6-4.6,5-4.6,5s2.3-7.2,2.2-8.6c-0.1-1.4,1.8-3.3,2.2-2.5
				L35.9,91.6z"/>
			<path fill="#FCCC81" d="M39.1,95.4c0,0-0.8,1-1.2,3.8c-0.5,2.8,0,0,0,0l-2.5-2.4C35.3,96.8,37.7,94.6,39.1,95.4"/>
			<path fill="#F29313" d="M68.1,96.6c0.7,0.4,1.4,0.8,1.8,1.3c1.4,1.5,3.4,1.2,3.8,2.1c-0.1,2.1,0.7,3.1,0.7,3.1
				c-1.2,0.2-3.9-1.3-6.3-4.3c0,0-0.5-0.5-1.1-1.2L68.1,96.6z"/>
			<path fill="#FCCC81" d="M67,97.5c-0.8-0.8-1.9-1.8-3-2.1c0,0,0.3-0.2,0.6-0.2c0.2,0,1.9,0.5,3.3,1.3L67,97.5z"/>
			<g>
				<path fill="#1D1E1C" d="M39.4,95.3c-1.5-0.6-3.2,0.6-4.5,1.3c-2.6,1.5-5.1,3.4-8.2,3.9c-0.3,0.1-0.3,0.6,0.1,0.6
					c2.1-0.2,3.9-1.3,5.7-2.3c2-1.2,4.5-3.4,7-3.3C39.5,95.4,39.5,95.3,39.4,95.3L39.4,95.3z"/>
			</g>
			<g>
				<path fill="#1D1E1C" d="M26.5,100.8c1.2-0.6,1.4-3.2,1.7-4.3c0.6-2.5,1.1-4.7,2.2-6.9c0.1-0.1-0.1-0.2-0.2-0.2
					c-1.4,0.7-1.7,3.7-2,5C27.7,96.6,27.2,98.6,26.5,100.8C26.4,100.8,26.5,100.8,26.5,100.8L26.5,100.8z"/>
			</g>
			<g>
				<path fill="#1D1E1C" d="M63.9,95.4c2.3-0.1,4.6,1.8,6.4,3c1.9,1.2,3.9,2.5,6.2,2.7c0.3,0,0.4-0.5,0.1-0.6
					c-2.8-0.5-5.3-2.1-7.7-3.6c-1.3-0.8-3.4-2.3-5-1.6C63.8,95.3,63.9,95.4,63.9,95.4L63.9,95.4z"/>
			</g>
			<g>
				<path fill="#1D1E1C" d="M76.9,100.7c-0.8-2.1-1.3-4.2-1.8-6.4c-0.3-1.3-0.6-4.3-2-5c-0.1-0.1-0.2,0.1-0.2,0.2
					c1,2.1,1.6,4.1,2.1,6.4C75.3,97.2,75.5,100.1,76.9,100.7C76.9,100.8,76.9,100.8,76.9,100.7L76.9,100.7z"/>
			</g>
			<g>
				<path fill="#1D1E1C" d="M35.7,91.7c0.8,2.5,3.2,3.7,5.4,4.8c3.4,1.6,5.6,5.2,9,6.6c0.2,0.1,0.4-0.2,0.2-0.3
					c-2.5-1.9-4.9-4.4-7.6-6c-2.6-1.6-5.1-2.2-6.8-5.1C35.8,91.5,35.7,91.6,35.7,91.7L35.7,91.7z"/>
			</g>
			<g>
				<path fill="#1D1E1C" d="M66.8,92.6c-5.2,7-17.6,4.7-19.1,15.1c0,0.3,0.3,0.4,0.4,0.1c1.1-2.8,1.9-5.2,4.4-6.9
					c1.7-1.2,3.9-1.8,5.8-2.6c3.3-1.3,6.8-2.2,8.6-5.6C67,92.6,66.9,92.5,66.8,92.6L66.8,92.6z"/>
			</g>
			<g>
				<path fill="#1D1E1C" d="M35.1,96.8c2.9,2.5,5.7,5.1,8.5,7.7c1.8,1.6,3.7,3.7,5.8,4.9c0.4,0.2,0.8-0.4,0.4-0.7
					c-2.1-1.1-3.9-3.1-5.7-4.7c-2.9-2.5-5.7-5.1-8.6-7.6C35.2,96.2,34.8,96.6,35.1,96.8L35.1,96.8z"/>
			</g>
			<g>
				<path fill="#1D1E1C" d="M49.7,109.4c1.6,0.9,7.1-4,8.3-4.8c3.4-2.4,7.2-4.9,10.3-7.7c0.3-0.3-0.1-0.7-0.4-0.4
					c-2.6,2.4-5.9,4.6-8.8,6.7c-1.9,1.4-3.8,2.7-5.8,3.9c-0.9,0.6-2.3,1.8-3.4,2C49.6,109,49.5,109.3,49.7,109.4L49.7,109.4z"/>
			</g>
			<g>
				<path fill="#1D1E1C" d="M31.9,99c5.8,5.5,11,10.4,18,14.5c0.3,0.2,0.6-0.3,0.3-0.5c-6.8-4-12.2-9-17.9-14.4
					C32,98.3,31.6,98.7,31.9,99L31.9,99z"/>
			</g>
			<g>
				<path fill="#1D1E1C" d="M50.2,113.5c4.8-1.3,9.2-5,13.1-7.9c2.6-2,6-4,8-6.6c0.2-0.2-0.2-0.5-0.4-0.3
					c-6.1,5.7-13.3,10.8-20.7,14.7C50,113.3,50.1,113.5,50.2,113.5L50.2,113.5z"/>
			</g>
			<g>
				<path fill="#1D1E1C" d="M28.9,91.6c-15.7,6.2-31.4,19.5-37,35.7c-2.8,8.1-2,16.7,0.2,24.9c1.8,6.9,5.2,16.8,11.8,20.5
					c0.2,0.1,0.4-0.2,0.3-0.3c-11-12-16.4-30.1-11.1-45.9c5.7-17.1,21.7-26,36-34.8C29,91.7,29,91.6,28.9,91.6L28.9,91.6z"/>
			</g>
			<g>
				<path fill="#1D1E1C" d="M75,94.8c13.3,9.3,26.7,18.3,31.1,34.9c2.1,7.7,1,15.7-1.2,23.2c-2.3,7.9-6.1,14-11.5,20
					c-0.2,0.2,0,0.5,0.3,0.3c6-3.3,9.3-11.9,11.4-18c2.7-7.6,3.8-15.6,2.3-23.6c-3-16.2-17.8-30.4-32.3-37
					C74.9,94.7,74.9,94.8,75,94.8L75,94.8z"/>
			</g>
			<g>
				<path fill="#FEF9E3" d="M72.1,91.8c1.5,2.1,1.5,5,2.3,7.1c0.2,0.5,0.7,0.6,0.5-0.4c-0.6-2.2-0.3-5.1-1.9-7.2
					C72.3,90.5,71.5,91,72.1,91.8L72.1,91.8z"/>
			</g>
			<g>
				<path fill="#E6AF99" d="M89,50.1c-0.7-2.5-2.2-4.3-4.9-4.2c0,0.1-1.3,0.3-1.4,0.4c-1,1.2-0.7,1.9-1.3,3.3
					c-0.3,0.6-0.8,1.6-0.7,2.3c0,0.2-0.8-1.2-1.2-2c-0.2-0.5-1.9-4.9-1.9-4.9c-0.5-1.4-0.9-2.5-1-4.1c-0.1-2.1,0-4.5-1-6.3
					c-0.1-0.1,0-0.2,0.1-0.3c0.5-1.3-0.3-2.5-1.2-3.5c-0.7-0.8-1.6-1.1-2.4-1.6c0,0-0.2-0.4-0.2-0.5c-0.4-0.8-2.6-1-5.9,0.7
					c-0.3,0.1-0.6,0.4-0.6,0.6c0,0.2-0.4,0.5-0.4-0.1c-0.4-2.6-4.2-1-5.5-0.6c-0.2,0.1-0.3-0.1-0.2-0.3c0,0,0.1-0.1,0.1-0.1
					c-2.6-2-5.3,1.3-8,1.3c-0.1,0-0.1-0.1-0.1-0.1c-0.9-0.3-1.7-1-2.6-1.2c-0.9-0.2-2.7,0.2-2.8,0.1c-1.1-0.2-1.9-0.8-3.1-0.4
					c-1,0.3-1.6,1-2.4,1.6c-0.1,0.1-0.2,0-0.2-0.1c0-0.1,0.1-0.1,0.1-0.1c0,0,0,0,0,0c-0.9-0.3-1.5-1-2.5-1.2
					c-1.2-0.1-2.3-0.2-3,1.1c0,0.1-0.1,0.1-0.2,0c0,0,0,0,0,0c-0.8,0.2-1.6,0.2-2.4,0.6c-0.8,0.4-1.6,1-2.1,1.7
					c-0.7,1.1-1.4,3.6-1.5,3.6c-1.8,1.3-1.9,4-2.4,6c-0.2,0.7-0.6,2-0.9,2.6c-0.8,1.4-2.3,4.2-2.3,4.2c-0.2,0.4-0.4,1-0.5,1.4
					c-0.2,0.6-0.1,1.8-0.7,2.2c0,0.1-0.1,0-0.1,0.1c0,0.1-0.1,0.3-0.1,0.2c-0.5-1-1.1-2.2-1.3-3.3c-0.2-0.7-0.3-1.4-0.4-2.1l0,0
					c-0.2-0.7-0.5-1.3-1-1.5c-0.2-0.1-0.3-0.1-0.5-0.2c-2.6,0.1-4.7,2.7-5.1,5.2c-0.6,3.4,1.5,6.3,4.8,6.8c0.1-1.7,0.5-1.5,0.4,0.2
					c0,0,0.1,7,0.5,10.5c0.6,4.4,1.1,10.3,3.8,14c6.7,9.3,22,12.1,32.7,11.5c8.7-0.5,19.6-2.7,23.7-11.7c4.1-9,3.4-26.1,3.4-24.7
					c0,0,1.1,0.2,1.1,0.2C87,57.1,89.9,53.6,89,50.1z"/>
				<path fill="#D59D89" d="M82.8,53.2c0,0,1.9,4.2,5.2,1.5c0,0-1.6,2.8-5,2.6L82.8,53.2z"/>
				<g>
					<path fill="#F1C9BD" d="M85.1,47c0.9,0.2,1.6,1.4,1.8,2.3c0.1,0.8,1.2,0.7,1,0c-0.2-1.4-1.4-2.7-2.9-2.8
						C84.2,46.3,84.4,46.8,85.1,47z"/>
				</g>
				<g>
					<path fill="#F1C9BD" d="M53,61.3c0.7,0.6,0.8,2,0.5,2.8c-0.3,0.8,0.7,1.2,0.9,0.4c0.5-1.4,0-3.1-1.3-3.9
						C52.5,60.3,52.4,60.8,53,61.3z"/>
				</g>
				<g>
					<path fill="#F1C9BD" d="M79.4,64.1c0.3,4.1-0.7,8.8-1.7,13.1c-1.7,7-6.7,11.8-13.3,13.7c-1,0.3-1,1.1,0,0.8
						c6.4-1.8,11.4-5.3,14.1-11.5c2.1-4.8,2.8-11.3,2.8-16.5c0-0.7-0.6-0.8-1.1-0.7C79.4,63.2,79.4,63.6,79.4,64.1z"/>
				</g>
				<path fill="#D59D89" d="M77,49.4c-0.1-0.3-0.1-0.6-0.2-0.7c-0.4-0.7-1.2-0.9-2.1-1c-2.2-0.3-4.6-0.1-6.9-0.1
					c-2.6,0-4.4,0.1-6.9,0.2c-1.7,0.1-3.4,0.3-4.8,1.3c0,0,0,0,0,0c0,0,0,0,0,0c0,0-0.1,0-0.1,0.1c-0.1,0-0.1,0.1-0.1,0.1
					c-0.3,0.2-0.6,0.1-0.9,0c-1.1-0.2-2.4-0.3-3.9-0.3c-0.9,0-1.8,0.1-3.1,0.4c-0.8,0.2-1-0.3-1.2-0.3c-1.5-1.1-3.2-1.3-5-1.4
					c-2.6-0.1-4.3-0.2-6.9-0.2c-2.3,0-4.6-0.2-6.9,0.1c-0.9,0.1-1.7,0.3-2.1,1c-0.1,0.2-0.2,0.5-0.2,0.8c-2.5-1-6.5-2.2-6.8-2.1
					l0.7,0.5c0,0.3,0.1,0.9,0.4,1.1c0,0.1,0.1,0.3,0.2,0.4c2.2,1.1,4.1,2.3,5.2,3c0.1,0,0.1,0.1,0.2,0.1c0,2.2,0.2,4.8,0.3,6.3
					c0.1,1.8,0.7,3.8,2.4,4.8c2,1.2,4.8,1.3,7.1,1.5c1.4,0.1,2,0.2,3.4,0.1c0.7,0,1.2-0.1,1.9-0.2c0.6-0.1,1.2-0.3,1.9-0.4
					c0.6-0.1,1.2-0.3,1.8-0.4c0.5-0.2,0.9-0.2,1.4-0.5c0.6-0.5,1-1.2,1.1-2c0.5-2.8,1.2-5.4,1.2-8.2c0-0.4,0.5-0.7,0.8-0.8
					c0.8-0.3,1.5-0.3,2.8-0.3c0.8,0,1.5,0,2.8,0.2c0.1,0,0.2,0,0.3,0.1c0,0,0,0,0,0c0.5,0.2,0.4,0.5,0.5,0.7c0,0,0,0.1,0,0.1
					c0,2.8,0.7,5.4,1.2,8.2c0.1,0.8,0.5,1.5,1.1,2c0.4,0.3,0.9,0.4,1.4,0.5c0.6,0.2,1.2,0.3,1.8,0.4c0.6,0.1,1.2,0.3,1.9,0.4
					c0.7,0.1,1.2,0.2,1.9,0.2c1.4,0.1,2,0,3.4-0.1c2.3-0.2,5.1-0.3,7.1-1.5c1.7-1,2.3-2.9,2.4-4.8c0.1-1.6,0.3-4.3,0.3-6.6
					c1.1-0.7,2.7-1.7,4.6-2.7C81.9,49.5,79.3,48.5,77,49.4z M55.9,49.9C55.9,49.9,55.9,49.9,55.9,49.9
					C55.8,49.9,55.8,49.9,55.9,49.9C55.8,49.9,55.9,49.9,55.9,49.9z M46.8,50C46.8,50,46.8,50,46.8,50c-0.1-0.1-0.1-0.2-0.2-0.2
					C46.8,49.9,46.8,50,46.8,50C46.9,50,46.9,50,46.8,50z"/>
				<g>
					<path fill="#C6C5C4" d="M85.5,41.6c-0.2-0.7-2.6-4.1-1.4-4.6c0,0,0,0,0,0c0.1,0.1,0.3,0.1,0.3,0c-0.2-1.4-0.6-2.6-1.5-3.7
						c-1.1-1.3-0.7-3.3-0.5-4.9c0.1,0,0.1-0.1,0.1-0.2c-0.7-2.2-3.3-3.8-2.6-6.3c0.1,0,0.1-0.1,0.1-0.2c-0.8-0.9-2-1.3-3-1.8
						c-0.7-0.4-1.3-0.8-1.7-1.5c-0.3-0.5-0.4-1.1-0.6-1.7c0.1,0,0.1-0.1,0-0.2c-0.7-1.2-2.8-1-4-0.9c-1,0.1-2.2,0.3-3.4,0.3
						c-0.9-0.2-2.2-0.4-3.1-0.6c-0.3-0.1-0.7-0.2-0.6-0.1c-0.2,0-0.4-0.1-0.4-0.1c-2.4-3.1-7.9,0.6-10.3-2.9c0-0.1-0.2,0-0.1,0.1
						c0,0,0,0.1,0,0.1c-0.2,0.6-1.6,1.5-2.5,1.9c-0.8,0.4-1.2-0.3-2.1-0.1c-1.4-0.6-3.1-0.3-4.6-0.2c-0.8,0.1-3.6,1.5-4.1,0.5
						c0-0.1-0.1,0-0.1,0c0,0.1-0.1-0.2-0.2-0.2c-3,1-5.7,1.1-8.8,0.3c0-0.2-0.1-0.3-0.2-0.5c0-0.1-0.2,0-0.2,0.1c0,0.1,0,0.2,0,0.4
						c0,0,0,0,0,0c-0.1,0-0.1,0.1,0,0.1c0,0,0,0,0.1,0c-0.4,3.6-5.4,3.9-7.3,6.5c-0.1,0-0.2,0-0.2,0c-0.3,0.7-0.5,1.4-0.8,2.1
						c-0.4,0.8-1.4,1.4-2,2.2c-0.8,1-0.4,2.6-1.1,3.7c-0.1,0-0.1,0-0.2,0.1c-0.4,0.9-0.4,2-0.5,3c0,0.6-0.1,1.2-0.1,1.8
						c0.1,0.8,0.6,1.5-0.3,2.1c0,0,0,0,0,0c-0.1-0.2-0.3-0.1-0.3,0.1c-0.3,3.1-2.3,6.3-0.9,9.3c0,0.1,0.5-0.2,0.5-0.2l2.4,0.4
						c0,0,2.2,6.3,2.2,6.3c0.6-3,2.8-6.4,2.8-6.4c1.1-0.7,1.3-2.6,1.6-3.7c0.5-2,0.8-4.9,2.6-6.1c0.1-0.1,0.1-0.2,0-0.2
						c0.5-1.1,0.7-2.3,1.4-3.4c0.5-0.7,1.2-1.3,2-1.7c0.8-0.4,1.6-0.4,2.4-0.6c0,0,0,0,0,0c0,0.1,0.1,0.1,0.2,0
						c0.6-1.3,1.7-1.2,3-1.1c1,0.1,1.6,0.9,2.5,1.2c0,0,0,0,0,0c0,0-0.1,0.1-0.1,0.1c-0.1,0.1,0.1,0.2,0.2,0.1
						c0.8-0.6,1.4-1.3,2.4-1.6c1.2-0.3,2.2,0.4,3.3,0.6c0.1,0,0.2-0.1,0.1-0.2c0,0-0.1-0.1-0.1-0.1c0.8,0.2,1.7-0.2,2.6,0
						c1,0.2,1.7,0.9,2.6,1.2c0,0.1,0.1,0.1,0.1,0.1c2.7,0,5.4-3.3,8-1.3c0,0-0.1,0.1-0.1,0.1c-0.1,0.1,0.1,0.3,0.2,0.3
						c1.3-0.4,5-1.8,5.9,0.6c0.1,0.2,0.4,0.1,0.4,0c0,0,0,0,0,0c1.1-0.5,2-1.2,3.2-1.5c0.3-0.1,3.3-0.5,3.1,0.5c0,0,0,0.1,0.1,0
						c0.9,0.6,1.7,1.1,2.5,1.9c0.9,0.9,1.6,2.2,1.2,3.5c-0.1,0-0.2,0.1-0.1,0.3c1,1.9,0.9,4.3,1,6.3c0.1,1.9,0.6,3.1,1.2,4.8
						c0,0,0,0,0,0v0h0c0,0,0,0,0,0h0.2c0.2,0.8,0.6,1.9,1.3,3.2c0.8,1.4,1.1,2.1,1.2,2.5c0.4-1.1,1.4-4.2,2.6-5.7l2.4,0
						c0.1,0,0.1,0.1,0.2,0h0.1v-0.2h0C86.1,44.3,85.9,43,85.5,41.6z"/>
				</g>
				<g>
					<path fill="#B1B1B1" d="M28.7,29.3c1.7-2.8,0.5-5.3,1.5-6.6c1.6-2,1.1-7.7,0.3-7.9c0-0.2-0.1-0.3-0.2-0.5c0-0.1-0.2,0-0.2,0.1
						c0,0.1,0,0.2,0,0.4c0,0,0,0,0,0c-0.1,0-0.1,0.1,0,0.1c0,0,0,0,0.1,0c-0.4,3.6-5.4,3.9-7.3,6.5c-0.1,0-0.2,0-0.2,0
						c-0.3,0.7-0.5,1.4-0.8,2.1c-0.4,0.8-1.4,1.4-2,2.2c-0.8,1-0.4,2.6-1.1,3.7c-0.1,0-0.1,0-0.2,0.1c-0.4,0.9-0.4,2-0.5,3
						c0,0.6-0.1,1.2-0.1,1.8c0.1,0.8,0.6,1.5-0.3,2.1c0,0,0,0,0,0c-0.1-0.2-0.3-0.1-0.3,0.1c-0.3,3.1-2.3,6.3-0.9,9.3
						c0,0.1,0.5-0.2,0.5-0.2l2.4,0.4c0,0,2.2,6.3,2.2,6.3c0.6-3,2.8-6.4,2.8-6.4c1.1-0.7,1.3-2.6,1.6-3.7c0.5-2,1.7-6.2,1.6-6.3
						C28.8,33.2,27.2,31.8,28.7,29.3z"/>
				</g>
				<path fill="#D59D89" d="M55.2,93.8c-10.7,0.6-26.1-2.2-32.7-11.5c-2.7-3.7-3.2-9.6-3.8-14c-0.4-3.5-0.5-10.5-0.5-10.5
					c0.1-1.7-0.3-1.8-0.4-0.2c-3.3-0.5-5.1-3.3-4.8-6.8c0.4-6.3,6.1-4.9,6.3-4.8c0.5,0.3,0.7,1.4,0.7,1.4c0.1,0.7,0.3,1.4,0.4,2
					c0.2,1.1,0.3,1.5,0.9,2.5c0.1,0.1,0.5-0.1,0.4,0.3c0,0.1-0.2,0.3-0.2,0.3c0.6-0.4,0.5-1.6,0.7-2.2c0.1-0.5,0.3-1,0.5-1.4
					c0,0,1.6-2.8,2.3-4.2c0.3-0.6,0.7-1.9,0.9-2.6c0.5-2,0.6-4.8,2.4-6c0,0-8.1,18.7-4.1,38.3C28.3,94.2,55.2,93.8,55.2,93.8z"/>
				<path fill="#C6C5C4" d="M85.9,57C86,57.1,85.9,57,85.9,57c-0.6,0.3-0.7,1.6-0.8,2.2c-0.1,1.5,0.3,2.8,0.9,4.1
					c-0.7,0.5-0.8,1.3-1,2.1c-0.4,1.5-1.8,2.1-2.8,3.2c-0.1,0.1,0-0.8,0.4-5.9c0.2-1.9,0.1-3.3,0.1-4.3C82.8,57.4,85.8,56.7,85.9,57
					z"/>
				<path fill="#B1B1B1" d="M19.1,70.2c-0.3-0.5-0.9-0.3-1.2-0.9c-0.4-0.6-0.9-1.9-1.1-2.5c-0.2-0.7-0.1-1.7-1.1-1.7
					c0-1.5,0.1-3,0.3-4.4c0.2-1.2,0.3-2.3-0.1-3.4c0,0,1.8,0.1,2.3,0.4c0.6,0.3,0,5,0.1,5.8C18.6,68.2,19.2,70.2,19.1,70.2z"/>
				<g opacity="0.8">
					<path fill="#DA9085" d="M32.2,59.2c-0.2,0-0.5,0-0.7,0.1c-1.9-0.2-3.9,0.2-5.4,1.1c-0.5,0.3-0.9,0.9-1.1,1.6
						c-0.4,0.6-0.3,1.4,0.2,1.8c0,0.1,0.1,0.2,0.2,0.3c1,1.5,2.9,1.9,4.5,2c0.5,0,1.2,0.1,2,0c0.2,0.2,0.4,0.3,0.7,0.3
						c2.3,0.3,6-0.3,6.2-3.9C38.9,59.6,34.3,58.8,32.2,59.2z"/>
				</g>
				<g opacity="0.8">
					<path fill="#DA9085" d="M68.7,59.4c0.2,0,0.5,0,0.7,0.1c1.9-0.2,3.9,0.2,5.4,1.1c0.5,0.3,0.9,0.9,1.1,1.6
						c0.4,0.6,0.3,1.4-0.2,1.8c0,0.1-0.1,0.2-0.2,0.3c-1,1.5-2.9,1.9-4.5,2c-0.5,0-1.2,0.1-2,0c-0.2,0.2-0.4,0.3-0.7,0.3
						c-2.3,0.3-6-0.3-6.2-3.9C62,59.8,66.6,59,68.7,59.4z"/>
				</g>
				<g>
					<path fill="#1D1E1C" d="M21.5,52.6c0.6-0.4,0.8-1.8,1-2.5c0.2-0.6,0.4-1.2,0.7-1.8c0.2-0.3-0.3-0.5-0.3-0.5
						c-0.8,1.1-1.4,3.9-1.3,4.5c0,0,0,0,0,0L21.5,52.6z"/>
				</g>
				<g>
					<path fill="#1D1E1C" d="M79.4,49.8c0.4,0.8,1,2.2,1.1,2.4c0.1,0.2,0.3,0.2,0.3,0c0-0.7-0.3-1.4-0.6-2.1
						c-0.3-0.8-0.5-1.6-1.2-2.1c-0.2-0.1-0.3,0.2-0.3,0.2C78.7,48.1,79.1,49.1,79.4,49.8z"/>
				</g>
				<g>
					<path fill="#D59D89" d="M32.3,43.9c0.7-0.1,1.4-0.7,2-1.1c0.9-0.5,1.7-1.2,2.5-1.7c0.4-0.2,0.1-0.7-0.3-0.6
						c-1.1,0.3-2,0.7-2.9,1.3c-0.6,0.4-1.3,1.1-1.5,1.8C32.1,43.7,32.2,43.9,32.3,43.9L32.3,43.9z"/>
				</g>
				<g>
					<path fill="#D59D89" d="M69.2,44c-0.1-0.8-0.9-1.4-1.5-1.9c-0.9-0.7-1.8-1.1-2.8-1.4c-0.4-0.1-0.7,0.4-0.3,0.6
						c0.8,0.6,1.6,1.2,2.5,1.8c0.6,0.4,1.2,1,1.9,1.1C69.1,44.3,69.2,44.1,69.2,44L69.2,44z"/>
				</g>
				<g>
					<path fill="#1D1E1C" d="M18.7,52.4c-1.2,5.2-0.8,10.6-0.3,15.9c0.5,4.8,1.3,10.1,3.8,14.2c5.5,9.1,20.6,11.9,30.3,12
						c9.3,0.1,20.2-1.8,25.8-10c2.7-3.9,3.3-9,4.1-13.5c1-5.8,1.4-11.8,0.9-17.7c0-0.3-0.4-0.3-0.4,0c-0.6,9.5,0,20-4.2,29
						c-4.1,8.7-14.6,11-23.2,11.5c-10.7,0.6-25.9-2.2-32.6-11.5c-2.7-3.7-3.2-9.5-3.8-13.9c-0.7-5.2-0.9-10.6,0.1-15.8
						C19.2,52.2,18.7,52.1,18.7,52.4L18.7,52.4z"/>
				</g>
				<g>
					<path fill="#1D1E1C" d="M83,46.3c3.2-1.2,5.5,1.2,5.7,4.4c0.3,3.6-1.8,6.3-5.1,6.7c-0.3,0-0.4,0.5-0.1,0.5c4,0,5.8-3.5,5.9-6.9
						c0.1-3.9-3.7-6.9-6.9-4.9C82.4,46.2,83,46.3,83,46.3z"/>
				</g>
				<g>
					<path fill="#1D1E1C" d="M16.7,49.2c-1.3,0.3-1.4,3.4-0.3,4c0.1,0,0.2,0,0.2-0.1c0-0.3-0.1-0.5-0.2-0.8
						c-0.1-0.4-0.1-0.7-0.1-1.1c0-0.7,0.3-1.2,0.6-1.8C16.9,49.3,16.8,49.2,16.7,49.2L16.7,49.2z"/>
				</g>
				<g>
					<path fill="#1D1E1C" d="M85.4,49.2c0.2,0.6,0.5,1.2,0.6,1.9c0.1,0.8-0.3,1.4-0.6,2.2c-0.1,0.2,0.2,0.5,0.4,0.3
						c1.3-0.8,1.2-3.9-0.2-4.5C85.5,48.9,85.3,49,85.4,49.2L85.4,49.2z"/>
				</g>
				<g>
					<path fill="#1D1E1C" d="M23.7,47.3c1.3-0.5,2.2-4.1,2.5-5.3c0.5-2,0.6-4.8,2.4-6.1c0.1-0.1,0.1-0.2,0-0.3
						C26.1,34.4,25.4,46,23.2,47C23.1,47,23.7,47.3,23.7,47.3z"/>
				</g>
				<g>
					<path fill="#1D1E1C" d="M28.6,35.8c0.6-1.2,0.7-2.4,1.5-3.5c0.5-0.7,1.2-1.3,2-1.7c0.8-0.4,1.6-0.4,2.4-0.6
						c0.2,0,0.2-0.3,0-0.4c-1.6-0.4-3.4,0.7-4.4,1.9c-0.9,1-2,2.9-1.5,4.3C28.5,35.8,28.5,35.8,28.6,35.8L28.6,35.8z"/>
				</g>
				<g>
					<path fill="#1D1E1C" d="M34.6,29.9c0.6-1.3,1.7-1.2,3-1.1c1,0.1,1.6,0.9,2.5,1.2c0.1,0,0.2-0.1,0.2-0.2c-0.7-1.1-2-1.4-3.2-1.5
						c-1-0.1-2.9,0.2-2.6,1.6C34.4,30,34.5,30,34.6,29.9L34.6,29.9z"/>
				</g>
				<g>
					<path fill="#1D1E1C" d="M78.5,47.3c0.1-0.6-0.7-2.5-1-3.2c-0.6-1.4-0.6-2.8-0.6-4.3c-0.1-1.7,0-4-1.2-5.5
						c-0.1-0.2-0.4,0-0.3,0.2c1,1.9,1,4.3,1,6.3c0,2.7,1.1,4.6,1.8,6.4C78.2,47.4,78.5,47.3,78.5,47.3z"/>
				</g>
				<g>
					<path fill="#1D1E1C" d="M75.6,34.6c1-1,0.3-2.4-0.4-3.4c-0.6-0.8-2.1-2.5-3.2-2.2c-0.1,0-0.1,0.2,0,0.2
						c0.9,0.6,1.7,0.9,2.4,1.6c0.9,0.9,1.7,2.3,1.1,3.6C75.5,34.6,75.6,34.6,75.6,34.6L75.6,34.6z"/>
				</g>
				<g>
					<path fill="#1D1E1C" d="M71.9,29c0.6-0.8-1.2-1-1.6-1.1c-1.7-0.2-3.8,0.5-5,1.8c-0.2,0.2,0,0.4,0.2,0.3c1.1-0.5,2-1.2,3.2-1.5
						C69,28.5,72.1,28,71.9,29C71.8,29,71.9,29.1,71.9,29L71.9,29z"/>
				</g>
				<g>
					<path fill="#1D1E1C" d="M65.1,30c0-1.3-1.1-1.8-2.2-1.9c-1.1-0.1-3.2,0-3.8,1.1c-0.1,0.1,0.1,0.3,0.2,0.3
						c1.3-0.4,5.3-2.1,5.5,0.6C64.8,30.2,65.1,30.2,65.1,30L65.1,30z"/>
				</g>
				<g>
					<path fill="#1D1E1C" d="M59.6,29.2c-0.7-1.2-2.1-1.3-3.4-1.1c-1.6,0.3-3.7,1.1-5.1,2c-0.1,0.1-0.1,0.3,0.1,0.3
						c2.8,0,5.6-3.5,8.3-1.1C59.5,29.3,59.6,29.3,59.6,29.2L59.6,29.2z"/>
				</g>
				<g>
					<path fill="#1D1E1C" d="M40.2,30.3c0.8-0.6,1.4-1.3,2.4-1.6c1.2-0.3,2.2,0.4,3.3,0.6c0.1,0,0.2-0.1,0.1-0.2c-1.6-1.8-5-1.1-6,1
						C39.9,30.3,40.1,30.4,40.2,30.3L40.2,30.3z"/>
				</g>
				<g>
					<path fill="#1D1E1C" d="M45.7,29c0.9,0.3,1.8-0.2,2.7,0c1,0.2,1.7,0.9,2.6,1.2c0.3,0.1,0.4-0.3,0.2-0.4
						c-1.5-0.9-3.8-2.3-5.5-0.9C45.7,28.9,45.7,29,45.7,29L45.7,29z"/>
				</g>
				<path fill="#1D1E1C" d="M19.1,70.2c-0.3-0.5-0.8-0.9-1.1-1.4c-0.4-0.6-0.7-1.3-0.8-2C17,66.1,16.9,65,16,65.1
					c0-1.5,0.2-2.9,0.4-4.4c0.2-1.2,0.2-2.3-0.4-3.4c-0.1-0.1-0.2,0-0.2,0.1c0.6,2.6-0.8,5.3,0,7.9c0,0,0,0.1,0.1,0.1
					c0.6,0.4,0.7,0.7,0.8,1.4c0.1,0.6,0.3,1.1,0.6,1.7c0.3,0.8,0.9,1.8,1.8,2.1C19.1,70.5,19.2,70.3,19.1,70.2z"/>
				<g>
					<path fill="#1D1E1C" d="M85.6,57.1c-0.6,0.3-0.7,1.7-0.7,2.2c-0.1,1.5,0.3,2.9,0.9,4.2c0.1,0.2,0.4,0.1,0.3-0.1
						c-0.4-1.2-0.9-2.3-0.9-3.7C85.3,58.9,85.6,58,85.6,57.1C85.7,57.1,85.7,57.1,85.6,57.1L85.6,57.1z"/>
				</g>
				<g>
					<path fill="#1D1E1C" d="M85.9,63.4c-0.8,0.5-0.9,1.4-1.1,2.2c-0.4,1.5-1.8,2.1-2.8,3.2c-0.1,0.1,0,0.4,0.2,0.3
						c0.9-0.5,1.8-1.3,2.4-2.2c0.7-1,0.5-2.5,1.4-3.3C86.2,63.5,86.1,63.3,85.9,63.4L85.9,63.4z"/>
				</g>
				<g>
					<path fill="#1D1E1C" d="M16.4,45.4c-0.5-2.2,0-3.8,0.8-5.8c0.4-1,1-2.4,0.4-3.4c-0.1-0.2-0.3-0.1-0.3,0.1
						c-0.3,3.1-2.5,6.1-1,9.2C16.3,45.5,16.4,45.5,16.4,45.4L16.4,45.4z"/>
				</g>
				<g>
					<path fill="#1D1E1C" d="M17.6,36.4c1-0.2,1-0.9,0.8-1.8c-0.4-1.7,0.3-3.5,0.3-5.2c0-0.1-0.2-0.2-0.3-0.1c-0.4,0.9-0.4,2-0.5,3
						c0,0.6-0.1,1.2-0.1,1.8c0.1,0.8,0.7,1.5-0.3,2.1C17.5,36.3,17.5,36.5,17.6,36.4L17.6,36.4z"/>
				</g>
				<g>
					<path fill="#1D1E1C" d="M18.7,29.5c1.2-1,0.8-2.8,1.8-4c1.2-1.4,2.4-2.1,2.3-4.2c0-0.1-0.2-0.2-0.2-0.1
						c-0.3,0.7-0.5,1.4-0.8,2.1c-0.4,0.8-1.4,1.4-2,2.2C18.9,26.6,19.3,28.2,18.7,29.5C18.6,29.4,18.6,29.5,18.7,29.5L18.7,29.5z"/>
				</g>
				<g>
					<path fill="#1D1E1C" d="M22.8,21.2c1.9-1.4,4.1-2.2,6.1-3.6c1.1-0.8,2.1-2.1,1.5-3.5c0-0.1-0.2,0-0.2,0.1
						C30.2,18.3,24.8,18.5,22.8,21.2C22.8,21.2,22.8,21.3,22.8,21.2L22.8,21.2z"/>
				</g>
				<g>
					<path fill="#1D1E1C" d="M30,14.7c1.3,0.9,3.2,1,4.7,1c1.4,0,3.6-0.1,4.6-1.2c0.1-0.1,0-0.2-0.1-0.2
						C36.1,15.4,33.3,15.4,30,14.7C30,14.6,30,14.6,30,14.7L30,14.7z"/>
				</g>
				<g>
					<path fill="#1D1E1C" d="M39.7,14.4c0.3,0.9,1.4,0.6,1.9,0.4c0.7-0.2,1.3-0.5,2-0.6c1.2-0.2,2.3,0,3.5,0c0.1,0,0.1-0.3,0-0.3
						c-1.3-0.7-2.8-0.4-4.1-0.1C42.3,14,40.3,15.5,39.7,14.4C39.7,14.3,39.7,14.4,39.7,14.4L39.7,14.4z"/>
				</g>
				<g>
					<path fill="#1D1E1C" d="M52.8,12.2c0.5,1.4,1.9,1.9,3.3,2.1c2.4,0.2,4.7-0.1,7,1c0.2,0.1,0.3-0.1,0.2-0.2
						c-2.4-3.1-7.9,0.6-10.3-2.9C52.9,12.1,52.8,12.1,52.8,12.2L52.8,12.2z"/>
				</g>
				<g>
					<path fill="#1D1E1C" d="M63.4,14.8c0.9,1.5,2.8,1.4,4.3,1.4c2.5-0.1,4.5-0.5,6.8,0.4c0.1,0,0.2-0.1,0.2-0.2
						c-0.7-1.2-2.8-1-4-0.9c-2.3,0.1-5.4,1-7.3-0.8C63.5,14.7,63.4,14.7,63.4,14.8L63.4,14.8z"/>
				</g>
				<g>
					<path fill="#1D1E1C" d="M74.4,16.2c0,3.1,3.2,4.1,5.4,5.5c0.1,0.1,0.3-0.1,0.2-0.2c-0.8-0.9-2-1.3-3-1.8
						c-0.7-0.4-1.3-0.8-1.7-1.5c-0.4-0.6-0.4-1.4-0.7-2C74.5,16.1,74.4,16.2,74.4,16.2L74.4,16.2z"/>
				</g>
				<g>
					<path fill="#1D1E1C" d="M79.9,21.7c-2,0.9,1.5,5.8,2.3,6.6c0.1,0.1,0.3,0,0.3-0.2C81.7,25.9,79.1,24.3,79.9,21.7
						C79.9,21.7,79.9,21.6,79.9,21.7L79.9,21.7z"/>
				</g>
				<g>
					<path fill="#EEEEEE" d="M78.2,24c-1.3,1.8,1,5,1.9,5.3c0.5,0.2,0.7,0,0.5-0.3c-0.8-1.7-2.7-2.9-2.1-5
						C78.5,24.1,78.3,24,78.2,24L78.2,24z"/>
				</g>
				<g>
					<path fill="#1D1E1C" d="M82.2,28.1c-0.8,1.3-0.5,2.8-0.3,4.2c0,0.3,0.2,0.6,0.4,0.8c1,1.2,1.3,2.4,1.8,3.8
						c0.1,0.1,0.3,0.1,0.3,0c-0.2-1.4-0.6-2.6-1.5-3.7c-1.1-1.3-0.7-3.4-0.4-5C82.4,28,82.3,28,82.2,28.1L82.2,28.1z"/>
				</g>
				<g>
					<path fill="#EEEEEE" d="M80.4,32.6c0.9,0.4,1.7,1.5,2,2.3c0.5,1.5,0.3,2.7,0.1,3.1c-0.2,0.4-0.4,0.3-0.4,0.2
						c-0.4-0.8-0.2-1.7-0.3-2.6c-0.1-1.2-0.7-2.1-1.5-2.8C80.2,32.7,80.3,32.6,80.4,32.6L80.4,32.6z"/>
				</g>
				<g>
					<path fill="#EEEEEE" d="M83.2,40c0.9,0.4,1.1,1.6,1.3,2.5c0.3,1.4,0.3,2.4,0.1,2.7c-0.3,0.4-0.9,0.1-0.9,0
						c-0.3-0.8,0-1.5,0.1-2.4c0.1-0.8-0.1-1.9-0.7-2.6C83,40,83.1,39.9,83.2,40L83.2,40z"/>
				</g>
				<g>
					<path fill="#1D1E1C" d="M84.2,36.8c-0.1,0-0.2,0-0.3-0.1c-0.1,0-0.1,0-0.1,0.1c-0.6,0.8-0.2,1.7,0.1,2.5c1,2.2,2.1,3.8,1.4,6.4
						c-0.1,0.2,0.3,0.3,0.3,0.1c0.4-1.5,0.3-2.8-0.2-4.3C85.3,40.8,82.7,37.2,84.2,36.8C84.2,36.9,84.2,36.8,84.2,36.8L84.2,36.8z"
						/>
				</g>
				<g>
					<path fill="#1D1E1C" d="M35.6,87.7c8.9,3,19.1,3.9,28.3,1.5c0.3-0.1,0.2-0.5-0.1-0.5c-9.7,1.7-18.6,1.5-28.1-1.2
						C35.6,87.6,35.5,87.7,35.6,87.7L35.6,87.7z"/>
				</g>
				<g>
					<path fill="#1D1E1C" d="M51.8,60.4c2.1-1,3.5,2.5,3.1,4c-0.5,2.1-3,2.9-4.8,2.5c-0.3-0.1-0.4,0.3-0.1,0.4
						c2.5,1.1,5.3-0.9,5.7-3.6c0.2-1.8-2-4.9-3.9-3.6C51.6,60.3,51.7,60.4,51.8,60.4L51.8,60.4z"/>
				</g>
				<g>
					<path fill="#1D1E1C" d="M52.6,12.4c-0.7,0.7-1.2,1.3-2.2,1.6c-1.1,0.4-2.1-0.3-3.1-0.4c-0.1,0-0.2,0.1-0.1,0.2
						c1.6,1.6,4.8,0.7,5.6-1.3C52.9,12.4,52.7,12.4,52.6,12.4L52.6,12.4z"/>
				</g>
				<g>
					<path fill="#E1F2FC" d="M59.4,61.1c2.4,0.6,4,1.2,6.5,1.1c3.1-0.1,6.2-0.9,9.1-2.7c0,0.1,0.2,0.1,0.2,0c0.2-3.2,0.1-11,0-11
						c0,0-2.8-1.1-4.8-1.1c-3.2-0.1-7.8-0.1-10.9,0.8c-0.2,0-3.3,1.2-3.3,1.4c-0.1,0.9,0.3,8.2,1.4,9.4C57.4,59,59.2,61,59.4,61.1z"
						/>
					<path fill="#C79B66" d="M26.6,51.7c0,0-3.9-3.3-6.7-4.5c-0.5-0.2-0.5-1.4-0.5-1.4c1,0.1,3,1,6.5,2.6L26.6,51.7z"/>
					<path fill="#1D1D1B" d="M26.3,51.3c0,0-2.7-2-6.2-3.7c-0.2-0.1-0.2-0.6-0.2-0.6s4,2,6.4,3.4C27.4,52.2,26.3,51.3,26.3,51.3z"/>
					<path fill="#1D1D1B" d="M26.4,48.2c-2.3-1.1-7.3-2.6-7.6-2.5l0.8,0.6c0.3,0,4.6,1.7,6.7,2.8C26.3,48.7,26.3,48.4,26.4,48.2z"/>
					<path fill="#C79B66" d="M75.2,52c0,0,3.9-3.3,6.7-4.5c0.5-0.2,1.1-1,0.2-1.1c-1-0.1-2.7,0.7-6.2,2.3L75.2,52z"/>
					<path fill="#1D1D1B" d="M75.5,51.6c0,0,2.7-2,6.2-3.7c0.2-0.1,0.2-0.6,0.2-0.6s-4,2-6.4,3.4C74.4,52.5,75.5,51.6,75.5,51.6z"/>
					<path fill="#1D1D1B" d="M75.4,48.5c2.3-1.1,6.8-2.5,7.1-2.4l-0.3,0.4c-0.3,0-4.6,1.7-6.7,2.8C75.4,49,75.4,48.7,75.4,48.5z"/>
					<path fill="#C79B66" d="M47.4,51.2c0,0,2-2.5,7.8-0.1l2-1.8c0,0,0.3-1.4-4.9-1.5S46,48.8,46,48.8L47.4,51.2z"/>
					<path fill="#E1F2FC" d="M45,58.8c1-1.1,1.5-8.4,1.4-9.4c0-0.2-3.2-1.4-3.3-1.4c-3.1-0.9-7.7-0.9-10.9-0.8
						c-2,0.1-4.8,1.1-4.8,1.1c0,0-0.2,7.8,0,11c0,0.1,0.1,0.1,0.2,0c2.9,1.8,6,2.6,9.1,2.7c2.5,0.1,4.1-0.5,6.5-1.1
						C43.3,61,45.1,58.9,45,58.8z"/>
					<path fill="#C79B66" d="M46.8,48.3C45.1,45.6,29.1,45.5,26,47c0,0-1.3,11.9,1.5,14.1c2.8,2.2,9.3,2.2,12.1,2
						c2.8-0.2,4.5-0.6,5.6-1.6C46.3,60.5,48.4,51,46.8,48.3z M44.9,52.5c-0.2,2.1-0.5,4-0.9,6.1c-0.1,0.6-0.4,1.2-0.8,1.5
						c-0.3,0.3-0.7,0.4-1.1,0.5c-0.4,0.1-0.8,0.3-1.3,0.3C40.4,61,40.5,61,40,61.1c-0.5,0.1-1.1,0.3-1.6,0.3c-1.1,0-1.7,0-2.8-0.1
						c-1.7-0.1-4-0.3-5.5-1.1c-1.3-0.7-1.6-2.3-1.8-3.7c-0.3-2.1-0.4-6.7,0.1-7.7c0.3-0.5,0.9-0.7,1.6-0.8c1.7-0.2,3.5-0.1,5.2-0.1
						c2,0,3.1,0,5.1,0.1c1.3,0.1,2.5,0.2,3.6,1l0,0c0,0,0,0,0,0c0.1,0,0.1,0.1,0.2,0.1c0,0,0,0,0,0c0.4,0.3,0.7,0.8,0.8,1.4
						C45,51.2,45,51.9,44.9,52.5z"/>
					<path fill="#1D1D1B" d="M47.7,51.5c0-0.4-0.6-0.3-0.6,0.1c-0.1,2.1-1,7.6-1.3,8.5c-0.2,0.4-0.4,0.8-0.7,1.1
						c-0.3,0.4-1,0.6-1.4,0.7c-0.5,0.1-2.8,0.8-5.2,1c-1.4,0.1-4.2-0.2-4.8-0.3c-1.2-0.2-2.6-0.4-3.8-0.7c-0.2-0.1-0.5-0.1-0.7-0.2
						c-2.9-0.9-3.1-4.3-3.2-6.8c0-2.4-0.1-7.2,0.2-7.7c0.5-0.7,3.2-1,4.6-0.9c1.8,0,3.6,0,5.4,0.1c3.3,0.1,7.3-0.2,10.1,1.6
						c0.5,0.3,0.7-0.2,0.2-0.5c-1.5-1.1-3.2-1.3-5-1.4c-2.6-0.1-4.3-0.2-6.9-0.2c-2.3,0-4.6-0.2-6.9,0.1c-0.9,0.1-1.7,0.3-2.1,1
						c-0.7,1.2-0.3,7.4-0.1,10c0.1,1.8,0.7,3.8,2.4,4.8c2,1.2,4.8,1.3,7.1,1.5c1.4,0.1,2,0.2,3.4,0.1c0.7,0,1.2-0.1,1.9-0.2
						c0.6-0.1,1.2-0.3,1.9-0.4c0.6-0.1,1.2-0.3,1.8-0.4c0.5-0.2,0.9-0.2,1.4-0.5c0.6-0.5,1-1.2,1.1-2C47.1,57,47.7,54.3,47.7,51.5z"
						/>
					<path fill="#1D1D1B" d="M45.1,50.6c-0.1-0.6-0.3-1.1-0.8-1.4c0,0,0,0,0,0c-0.1,0-0.1-0.1-0.2-0.1c0,0,0,0,0,0l0,0
						c-1.1-0.7-2.4-0.9-3.7-1c-2-0.1-3.2-0.1-5.2-0.1c-1.7,0-3.6-0.1-5.3,0.1c-0.7,0.1-1.3,0.2-1.6,0.8c-0.6,1-0.4,5.7-0.1,7.8
						c0.2,1.4,0.5,3,1.8,3.7c1.6,0.9,3.8,1,5.6,1.2c1.1,0.1,1.5,0.1,2.6,0c0.5,0,1.4-0.2,1.9-0.2c0.5-0.1,0.5-0.1,1-0.2
						c0.5-0.1,0.8-0.2,1.2-0.3c0.4-0.1,0.8-0.2,1.1-0.5c0.5-0.4,0.7-1,0.9-1.6c0.4-2.1,0.7-4.1,0.9-6.2
						C45.1,51.8,45.1,51.1,45.1,50.6z M43.5,58.8c-0.1,0.3-0.3,0.6-0.5,0.9c-0.2,0.3-0.7,0.4-1,0.5c-0.4,0.1-2,0.6-3.9,0.7
						c-1,0.1-3.2-0.1-3.7-0.2c-0.9-0.1-1.9-0.3-2.8-0.6c-0.2,0-0.4-0.1-0.5-0.2c-2.2-0.7-2.3-3.3-2.3-5.2c0-1.9-0.3-5.4,0-5.8
						c0.2-0.2,2.5-0.5,3.6-0.5c1.4,0,2.8,0.1,4.2,0.1c2.4,0.1,4.9-0.3,7.1,1c1.1,0.7,0.9,2.7,0.9,2.7C44.4,54,43.7,58.1,43.5,58.8z"
						/>
					<path fill="#C79B66" d="M57.3,61.5c1.1,1,2.8,1.4,5.6,1.6c2.8,0.2,9.3,0.3,12.1-2c2.8-2.2,1.5-14.1,1.5-14.1
						c-3.1-1.5-19.1-1.4-20.8,1.3C54.1,51.1,56.2,60.6,57.3,61.5z M57.6,50.7c0.1-0.5,0.3-1,0.8-1.4c0,0,0,0,0,0
						c0.1,0,0.1-0.1,0.2-0.1c0,0,0,0,0,0l0,0c1.1-0.7,2.3-0.9,3.6-1c2-0.1,3.1-0.1,5.1-0.1c1.7,0,3.5-0.1,5.2,0.1
						c0.7,0.1,1.3,0.2,1.6,0.8c0.5,0.9,0.4,5.6,0.1,7.7c-0.2,1.4-0.5,2.9-1.8,3.7c-1.5,0.9-3.8,1-5.5,1.1c-1.1,0.1-1.7,0.1-2.8,0.1
						c-0.5,0-1.1-0.3-1.6-0.3C62,61,62.2,61,61.7,61c-0.4-0.1-0.9-0.2-1.3-0.3c-0.4-0.1-0.7-0.2-1.1-0.5c-0.5-0.4-0.7-0.9-0.8-1.5
						c-0.4-2-0.7-4-0.9-6.1C57.5,51.9,57.5,51.2,57.6,50.7z"/>
					<path fill="#1D1D1B" d="M54.8,51.6c0-0.4,0.6-0.3,0.6,0.1c0.1,2.1,1,7.6,1.3,8.5c0.2,0.4,0.4,0.8,0.7,1.1
						c0.3,0.4,1,0.6,1.4,0.7c0.5,0.1,2.8,0.8,5.2,1c1.4,0.1,4.2-0.2,4.8-0.3c1.2-0.2,2.6-0.4,3.8-0.7c0.2-0.1,0.5-0.1,0.7-0.2
						c2.9-0.9,3.1-4.3,3.2-6.8c0-2.4,0.1-7.2-0.2-7.7c-0.5-0.7-3.2-1-4.6-0.9c-1.8,0-3.6,0-5.4,0.1c-3.3,0.1-7.3-0.2-10.1,1.6
						c-0.5,0.3-0.7-0.2-0.2-0.5c1.5-1.1,3.2-1.3,5-1.4c2.6-0.1,4.3-0.2,6.9-0.2c2.3,0,4.6-0.2,6.9,0.1c0.9,0.1,1.7,0.3,2.1,1
						c0.7,1.2,0.3,7.4,0.1,10c-0.1,1.8-0.7,3.8-2.4,4.8c-2,1.2-4.8,1.3-7.1,1.5c-1.4,0.1-2,0.2-3.4,0.1c-0.7,0-1.2-0.1-1.9-0.2
						c-0.6-0.1-1.2-0.3-1.9-0.4c-0.6-0.1-1.2-0.3-1.8-0.4c-0.5-0.2-0.9-0.2-1.4-0.5c-0.6-0.5-1-1.2-1.1-2
						C55.5,57,54.8,54.4,54.8,51.6z"/>
					<path fill="#1D1D1B" d="M57.5,52.5c0.2,2.1,0.5,4.1,0.9,6.2c0.1,0.6,0.4,1.2,0.9,1.6c0.3,0.3,0.7,0.4,1.1,0.5
						c0.4,0.1,0.7,0.2,1.2,0.3c0.5,0.1,0.5,0.1,1,0.2c0.5,0.1,1.4,0.2,1.9,0.2c1.1,0,1.5,0.1,2.6,0c1.8-0.2,4-0.3,5.6-1.2
						c1.3-0.7,1.6-2.3,1.8-3.7c0.3-2.1,0.4-6.8-0.1-7.8c-0.3-0.5-0.9-0.7-1.6-0.8C70.9,47.8,69,48,67.3,48c-2,0-3.2,0-5.2,0.1
						c-1.3,0.1-2.6,0.3-3.7,1l0,0c0,0,0,0,0,0c-0.1,0-0.1,0.1-0.2,0.1c0,0,0,0,0,0c-0.5,0.3-0.7,0.8-0.8,1.4
						C57.4,51.2,57.4,51.9,57.5,52.5z M58.1,52.4c0-0.1-0.2-2.1,0.9-2.7c2.2-1.3,4.6-0.9,7.1-1c1.4,0,2.8-0.1,4.2-0.1
						c1.1,0,3.4,0.3,3.6,0.5c0.3,0.3,0.1,3.9,0,5.8c0,1.9-0.1,4.6-2.3,5.2c-0.2,0.1-0.4,0.1-0.5,0.2c-0.9,0.2-1.9,0.4-2.8,0.6
						c-0.5,0.1-2.7,0.3-3.7,0.2c-1.8-0.1-3.5-0.6-3.9-0.7c-0.4-0.1-0.8-0.2-1-0.5c-0.2-0.3-0.4-0.6-0.5-0.9
						C58.8,58.2,58.1,54,58.1,52.4z"/>
					<g>
						<g>
							<path fill="#1D1E1C" d="M60.2,57.3c0,1.1,1.6,1.9,2.5,2.2c0.1,0,0.3-0.2,0.1-0.3c-0.9-0.4-2.1-0.9-2.4-1.9
								C60.4,57.2,60.2,57.2,60.2,57.3L60.2,57.3z"/>
						</g>
						<g>
							<path fill="#1D1E1C" d="M39.7,59.7c1.1-0.3,2.3-1.3,2.6-2.5c0-0.1-0.1-0.1-0.1-0.1c-0.4,0.4-0.7,0.9-1,1.3
								c-0.4,0.5-0.9,0.8-1.5,1.1C39.6,59.6,39.6,59.7,39.7,59.7L39.7,59.7z"/>
						</g>
					</g>
					<path fill="#1D1D1B" d="M47.4,48.5c2.9-0.7,4-0.7,7.1-0.2c0.1,0,0.7,0.1,1,0.2c0.2,0,0.4-0.2,0.7-0.4c-0.1,0,0-0.7-0.1-0.6
						c-0.4,0.5-0.8,0.3-1.1,0.3c-1.1-0.2-2.4-0.3-3.9-0.3c-0.9,0-1.8,0.1-3.1,0.4c-0.8,0.2-1-0.3-1.2-0.3c-0.4-0.2-0.3,0.4-0.3,0.4
						C46.9,48.2,47,48.6,47.4,48.5z"/>
					<path fill="#1D1D1B" d="M54.6,50.4c-2.9-0.8-5.8-0.2-5.8-0.2c-0.8,0.2-1.5,0.7-1.6,1.3c0.1,0,0.5,0.1,0.5,0
						c0-0.4,0.5-0.7,0.8-0.8c0.8-0.3,1.5-0.3,2.8-0.3c0.8,0,1.5,0,2.8,0.2c1,0.2,0.7,0.8,0.9,0.9c0.4,0.2,0.5,0,0.5,0
						C55.4,50.6,54.9,50.5,54.6,50.4z"/>
				</g>
				<g>
					<path fill="#1D1E1C" d="M80.4,51.6c0-0.2,0.1-0.5,0.1-0.7c0.2-0.6,0.4-1.1,0.6-1.6c0.6-1.5,0.6-2.7,1.4-3.3
						c0.3-0.2,0.8,0,0.5,0.2c-0.9,0.5-0.8,1.9-1.4,3.3c-0.3,0.6-0.9,1.8-0.8,2.5L80.4,51.6z"/>
				</g>
				<g>
					<path fill="#1D1E1C" d="M18.9,46.2c-3.2-1.2-5.5,1.2-5.7,4.4c-0.3,3.6,1.8,6.3,5.1,6.7c0.3,0,0.4,0.5,0.1,0.5
						c-4,0-5.8-3.5-5.9-6.9c-0.1-3.9,3.7-6.9,6.9-4.9L18.9,46.2z"/>
				</g>
				<g>
					<path fill="#1D1E1C" d="M18.9,46.2c0.6,0.5,0.9,1.9,1.1,3c0.2,1.1,0.8,2.4,1.3,3.3c0.1,0.1,0.2,0.1,0.2-0.1
						c0.1-1.2-0.7-1.8-1-3.4c-0.5-2.2-1.1-3.1-1.2-3.1C19,45.8,18.8,46.1,18.9,46.2z"/>
				</g>
				<g>
					<g>
						<g>
							<path fill="#1D1E1C" d="M33,70.3c3.6,3.4,11,5.5,15.5,2.5c0.1-0.1,0-0.3-0.1-0.3c-2.6,0.6-4.7,1.2-7.4,0.9
								C38,73,35.6,71.5,33.2,70C33,69.9,32.8,70.1,33,70.3L33,70.3z"/>
						</g>
						<g>
							<path fill="#1D1E1C" d="M32.4,70.9c0.3-0.2,0.5-0.5,0.7-0.8c0.2-0.3,0.5-0.5,0.7-0.8c0.1-0.1,0-0.2-0.1-0.2
								c-0.5,0-0.7,0.2-1,0.6c-0.3,0.3-0.5,0.7-0.5,1.1C32.2,70.9,32.3,70.9,32.4,70.9L32.4,70.9z"/>
						</g>
					</g>
					<g>
						<path fill="#C6C5C4" d="M70.1,73.5c-2.7-0.3-4.2-0.9-5.8-2.7c-1.2-1.4-1.9-2.8-3.3-4c-1.6-1.4-4.2-2.2-5.9-0.8
							c-0.2,0.1-3.4,3.6-7.5,0.5c-1.7-2-4.6-1.2-6.4,0.3c-1.4,1.2-2.1,2.6-3.3,4c-1.6,1.8-3.1,2.4-5.8,2.7c-0.1,0,0.1,0.2,0.2,0.2
							c0,0,0.1,0,0.1,0c0.2,0.1,1.2,0.4,1.3,0.4c0.7,0.1,1.5,0.2,2.2,0.3c1.3,0.1,2.6,0.1,3.8-0.3c-0.1,0.4-0.3,0.7-0.5,1.1
							c-0.1,0.1,0,0.2,0.1,0.2c0,0,0,0,0,0c0.9,0.7,2.3,0,3.2-0.3c1-0.4,2.3-1.1,3-2c-0.1,0.4-0.3,0.8-0.4,1.2c0,0.1,0,0.1,0.1,0.2
							c0,0,0,0,0,0c0,0,0,0,0,0c0,0,0.1,0,0.1,0c1.9,0.4,4.8-1.1,5.9-2.7c1,1.7,4,3.1,5.9,2.7c0,0,0.1,0,0.1,0c0,0,0,0,0,0
							c0,0,0,0,0,0c0,0,0.1-0.1,0.1-0.2c-0.1-0.4-0.3-0.8-0.4-1.2c0.7,0.9,2,1.5,3,2c0.9,0.4,2.3,1,3.2,0.3c0,0,0,0,0,0
							c0.1,0,0.1-0.1,0.1-0.2c-0.2-0.4-0.4-0.7-0.5-1.1c1.2,0.3,2.5,0.4,3.8,0.3c0.7-0.1,1.5-0.2,2.2-0.3c0,0,1.1-0.4,1.3-0.4
							c0,0,0.1,0,0.1,0C70.1,73.7,70.3,73.5,70.1,73.5z"/>
						<g>
							<path fill="#1D1E1C" d="M47.6,66.4c-1.7-2-4.6-1.2-6.4,0.3c-1.4,1.2-2.1,2.6-3.3,4c-1.6,1.8-3.1,2.4-5.8,2.7
								c-0.1,0,0.1,0.2,0.2,0.2c1.2,0.1,4.5-0.7,6-2.5c2.3-2.5,5.2-7.3,9.2-4.7C47.6,66.6,47.7,66.5,47.6,66.4L47.6,66.4z"/>
						</g>
						<g>
							<path fill="#1D1E1C" d="M33.6,74.2c0.7,0.1,1.5,0.2,2.2,0.3c1.3,0.1,2.7,0.1,3.9-0.3c0.2-0.1,0.2-0.3-0.1-0.3
								c-1.3,0.1-2.5,0.2-3.8,0.2c-1.2-0.1-2.3-0.4-3.4-0.5c-0.1,0-0.1,0.1-0.1,0.2c0,0,0,0,0,0C32.3,73.7,33.6,74.2,33.6,74.2z"/>
						</g>
						<g>
							<path fill="#1D1E1C" d="M39.6,74c0,0.5-0.3,0.9-0.5,1.3c-0.1,0.2,0.2,0.3,0.3,0.2c0.4-0.3,0.7-1.2,0.4-1.6
								C39.8,73.8,39.6,73.9,39.6,74L39.6,74z"/>
						</g>
						<g>
							<path fill="#1D1E1C" d="M39.3,75.5c0.9,0.7,2.3,0,3.2-0.3c1.1-0.5,2.6-1.2,3.2-2.3c0.1-0.2-0.1-0.3-0.2-0.2
								c-1.9,1.5-3.7,2.6-6.1,2.7C39.2,75.4,39.2,75.5,39.3,75.5L39.3,75.5z"/>
						</g>
						<g>
							<path fill="#1D1E1C" d="M45.5,73c0,0.5-0.3,0.9-0.4,1.4c0,0.2,0.2,0.3,0.3,0.2c0.3-0.3,0.7-1.3,0.4-1.8
								C45.6,72.7,45.5,72.9,45.5,73L45.5,73z"/>
						</g>
						<g>
							<path fill="#1D1E1C" d="M45.1,74.5c2,0.5,5.3-1.1,6.1-3c0.1-0.2-0.1-0.4-0.3-0.2C49.4,73.2,47.5,74.1,45.1,74.5
								C45.1,74.5,45.1,74.5,45.1,74.5L45.1,74.5z"/>
						</g>
						<g>
							<path fill="#1D1E1C" d="M54.6,66.4c1.7-2,4.6-1.2,6.4,0.3c1.4,1.2,2.1,2.6,3.3,4c1.6,1.8,3.1,2.4,5.8,2.7
								c0.1,0-0.1,0.2-0.2,0.2c-1.2,0.1-4.5-0.7-6-2.5c-2.3-2.5-5.2-7.3-9.2-4.7C54.6,66.6,54.5,66.5,54.6,66.4L54.6,66.4z"/>
						</g>
						<g>
							<path fill="#1D1E1C" d="M68.6,74.2c-0.7,0.1-1.5,0.2-2.2,0.3c-1.3,0.1-2.7,0.1-3.9-0.3c-0.2-0.1-0.2-0.3,0.1-0.3
								c1.3,0.1,2.5,0.2,3.8,0.2c1.2-0.1,2.3-0.4,3.4-0.5c0.1,0,0.1,0.1,0.1,0.2c0,0,0,0,0,0C69.9,73.7,68.6,74.2,68.6,74.2z"/>
						</g>
						<g>
							<path fill="#1D1E1C" d="M62.6,74c0,0.5,0.3,0.9,0.5,1.3c0.1,0.2-0.2,0.3-0.3,0.2c-0.4-0.3-0.7-1.2-0.4-1.6
								C62.4,73.8,62.6,73.9,62.6,74L62.6,74z"/>
						</g>
						<g>
							<path fill="#1D1E1C" d="M63,75.5c-0.9,0.7-2.3,0-3.2-0.3c-1.1-0.5-2.6-1.2-3.2-2.3c-0.1-0.2,0.1-0.3,0.2-0.2
								c1.9,1.5,3.7,2.6,6.1,2.7C63,75.4,63,75.5,63,75.5L63,75.5z"/>
						</g>
						<g>
							<path fill="#1D1E1C" d="M56.7,73c0,0.5,0.3,0.9,0.4,1.4c0,0.2-0.2,0.3-0.3,0.2c-0.3-0.3-0.7-1.3-0.4-1.8
								C56.6,72.7,56.7,72.9,56.7,73L56.7,73z"/>
						</g>
						<g>
							<path fill="#1D1E1C" d="M57.1,74.5c-2,0.5-5.3-1.1-6.1-3c-0.1-0.2,0.1-0.4,0.3-0.2C52.8,73.2,54.7,74.1,57.1,74.5
								C57.1,74.5,57.1,74.5,57.1,74.5L57.1,74.5z"/>
						</g>
					</g>
				</g>
				<g>
					<path fill="#1D1E1C" d="M69.7,43.2c-0.2-0.8-1-1.4-1.6-1.8c-1-0.7-1.9-1-3-1.2c-0.4-0.1-0.6,0.4-0.3,0.7
						c0.9,0.5,1.7,1.1,2.6,1.7c0.6,0.4,1.3,0.9,2,1C69.7,43.5,69.8,43.3,69.7,43.2L69.7,43.2z"/>
				</g>
				<g>
					<path fill="#1D1E1C" d="M66,52.1c-0.9,0.2-1.5,0.2-2.1,1c-0.8,1.1-0.8,2.7,0.5,3.3c0.1,0.1,2.2-0.2,3.4-0.4
						c0.2-0.2,0.4-0.5,0.5-0.7c0.4-1.3-0.8-2.8-2-3.1c-0.5-0.1-1.1,0-1.6,0.2"/>
					<path fill="#FFFFFF" d="M66.4,52.7c-0.5,0.1-1.6,0.9-0.6,1.6C67.4,55.4,68.1,53,66.4,52.7"/>
					<g>
						<path fill="#1D1E1C" d="M63.6,57.1c0.9-0.3,1.6-0.6,2.6-0.7c0.9-0.1,1.6,0.2,2.5,0.2c0.1,0,0.1-0.1,0.1-0.2
							c-0.5-0.8-1.8-0.7-2.6-0.6c-0.9,0.1-2.2,0.3-2.7,1.1C63.5,57.1,63.5,57.2,63.6,57.1L63.6,57.1z"/>
					</g>
				</g>
				<g>
					<path fill="#1D1E1C" d="M33.4,43.2c0.2-0.8,1-1.4,1.6-1.8c1-0.7,1.9-1,3-1.2c0.4-0.1,0.6,0.4,0.3,0.7c-0.9,0.5-1.7,1.1-2.6,1.7
						c-0.6,0.4-1.3,0.9-2,1C33.5,43.4,33.4,43.3,33.4,43.2L33.4,43.2z"/>
				</g>
				<g>
					<path fill="#1D1E1C" d="M37.1,52.1c0.9,0.2,1.5,0.2,2.1,1c0.8,1.1,0.8,2.7-0.5,3.3c-0.1,0.1-2.2-0.2-3.4-0.4
						c-0.2-0.2-0.4-0.5-0.5-0.7c-0.4-1.3,0.8-2.8,2-3.1c0.5-0.1,1.1,0,1.6,0.2"/>
					<path fill="#FFFFFF" d="M37.8,52.6c-0.5,0.1-1.6,0.9-0.6,1.6C38.9,55.4,39.6,52.9,37.8,52.6"/>
					<g>
						<path fill="#1D1E1C" d="M39.6,57c-0.5-0.9-1.8-1.1-2.7-1.1c-0.7-0.1-2.1-0.1-2.6,0.6c0,0.1,0,0.2,0.1,0.2
							c0.7-0.1,1.4-0.3,2.2-0.3c1,0,1.9,0.4,2.8,0.7C39.6,57.1,39.6,57,39.6,57L39.6,57z"/>
					</g>
				</g>
				<g>
					<path fill="#EEEEEE" d="M55.2,66.8c1.9-0.5,3.9,0.2,5,2.2c0.5,0.9,1.5,0.6,1-0.3c-1.6-2.8-4.9-3.4-6.3-2.1
						C54.6,66.8,54.9,66.9,55.2,66.8z"/>
				</g>
			</g>
		</g>
	</g>
</g>
<g id="personajes_hover">
	<g>
		<defs>
			<rect id="SVGID_51_" x="0" y="0" width="100" height="100"/>
		</defs>
		<use xlink:href="#SVGID_51_"  overflow="visible" fill="#9CC766"/>
		<clipPath id="SVGID_4_">
			<use xlink:href="#SVGID_51_"  overflow="visible"/>
		</clipPath>
		<g clip-path="url(#SVGID_4_)">
			<path fill="#F7A827" d="M107.2,131.8c-3-16.1-17.7-30.3-32.1-36.9c0,0-18.3,0.1-24.4-0.3c-5.6-0.4-22-2.7-22-2.7
				c-15.5,6.3-31.4,19.7-36.9,35.7c-2.8,8.1-2,16.7,0.2,24.9c1.8,6.9,5.8,16.9,12.4,20.6c0,0,0.7,1.5,2.3,2.1
				c5.8,2.3,11.5,3.6,17,4.9c38.6,9,69.5-6.1,69.5-6.1c0,0.1,0.2-0.5,0.3-0.6c6-3.3,9.3-11.9,11.4-18
				C107.6,147.8,108.7,139.8,107.2,131.8z"/>
			<path fill="#E6AF99" d="M66.8,92.6c-4.1,5.5-12.6,5.2-16.8,9.9c-2.4-1.9-4.7-4.2-7.3-5.8c-2.6-1.6-5.1-2.2-6.8-5.1
				C35.8,91.5,66.8,92.5,66.8,92.6z"/>
			<path fill="#F29313" d="M27.3,98.1c0,0-10.9,5.6-9.5,21.5c1.5,16,3.6,10.6,2.2,30.3c-1.9,26.7,54.1,29.7,54.1,29.7l0,0
				c0,0-28.5,10.7-68.5-4.7c0,0-0.6-0.9-0.9-1.9c0,0-23-19.3-9.9-52c0,0,7.5-17.8,34-29.1c0.1,0,0.4,0.2,0.5,0.1L27.3,98.1z"/>
			<path fill="#D59D89" d="M66.8,92.6c0,0-12.3,6-25.3,3.8c0,0-4.7-2.8-5.5-4.7C35.9,91.6,60.4,94.2,66.8,92.6z"/>
			<path fill="#FFE2B3" d="M75.1,94.3c-0.3-1.3-0.6-4.3-2-5c-0.1,0-3.6,1.1-4.5,1.8c-0.5,0.4-1.1,1-1.8,1.6
				c-0.1-0.1-0.1-0.2-0.1-0.2c-4.1,5.5-12.6,5.2-16.8,9.9c-2.4-1.9-4.7-4.2-7.3-5.8c-1.9-1.1-3.7-1.8-5.2-3.1
				c-0.1-0.1-0.3-0.3-0.4-0.4c-0.4-0.4-0.8-0.9-1.2-1.6c0,0,0,0.1-0.1,0.4c-0.6-0.5-1.1-0.9-1.6-1.3c-2.4-1.6-3.9-1.4-4-1.4
				c-1.4,0.7-1.7,3.7-2,5c-0.5,2.2-1,4.3-1.8,6.4c0,0,0,0.1,0.1,0.1c0,0.1,0.1,0.3,0.3,0.3c2.1-0.2,3.9-1.3,5.7-2.3
				c0.9-0.5,1.8-1.2,2.7-1.8c2.8,2.5,5.6,5.1,8.4,7.6c1.8,1.6,3.7,3.7,5.8,4.9c0.1,0.1,0.2,0.1,0.3,0c1.7,0.7,7-4,8.2-4.8
				c3.4-2.3,7.2-4.9,10.2-7.7c0.8,0.5,1.5,1,2.2,1.5c1.9,1.2,3.9,2.5,6.2,2.7c0.2,0,0.3-0.1,0.3-0.3c0,0,0.1,0,0.1-0.1
				C76.1,98.6,75.6,96.6,75.1,94.3z"/>
			<path fill="#FCCC81" d="M35.9,91.6c0.4,1.2-2.8,1.4-4.6,3.9c-1.8,2.6-4.6,5-4.6,5s2.3-7.2,2.2-8.6c-0.1-1.4,1.8-3.3,2.2-2.5
				L35.9,91.6z"/>
			<path fill="#FCCC81" d="M39.1,95.4c0,0-0.8,1-1.2,3.8c-0.5,2.8,0,0,0,0l-2.5-2.4C35.3,96.8,37.7,94.6,39.1,95.4"/>
			<path fill="#F29313" d="M68.1,96.6c0.7,0.4,1.4,0.8,1.8,1.3c1.4,1.5,3.4,1.2,3.8,2.1c-0.1,2.1,0.7,3.1,0.7,3.1
				c-1.2,0.2-3.9-1.3-6.3-4.3c0,0-0.5-0.5-1.1-1.2L68.1,96.6z"/>
			<path fill="#FCCC81" d="M67,97.5c-0.8-0.8-1.9-1.8-3-2.1c0,0,0.3-0.2,0.6-0.2c0.2,0,1.9,0.5,3.3,1.3L67,97.5z"/>
			<g>
				<path fill="#1D1E1C" d="M39.4,95.3c-1.5-0.6-3.2,0.6-4.5,1.3c-2.6,1.5-5.1,3.4-8.2,3.9c-0.3,0.1-0.3,0.6,0.1,0.6
					c2.1-0.2,3.9-1.3,5.7-2.3c2-1.2,4.5-3.4,7-3.3C39.5,95.4,39.5,95.3,39.4,95.3L39.4,95.3z"/>
			</g>
			<g>
				<path fill="#1D1E1C" d="M26.5,100.8c1.2-0.6,1.4-3.2,1.7-4.3c0.6-2.5,1.1-4.7,2.2-6.9c0.1-0.1-0.1-0.2-0.2-0.2
					c-1.4,0.7-1.7,3.7-2,5C27.7,96.6,27.2,98.6,26.5,100.8C26.4,100.8,26.5,100.8,26.5,100.8L26.5,100.8z"/>
			</g>
			<g>
				<path fill="#1D1E1C" d="M63.9,95.4c2.3-0.1,4.6,1.8,6.4,3c1.9,1.2,3.9,2.5,6.2,2.7c0.3,0,0.4-0.5,0.1-0.6
					c-2.8-0.5-5.3-2.1-7.7-3.6c-1.3-0.8-3.4-2.3-5-1.6C63.8,95.3,63.9,95.4,63.9,95.4L63.9,95.4z"/>
			</g>
			<g>
				<path fill="#1D1E1C" d="M76.9,100.7c-0.8-2.1-1.3-4.2-1.8-6.4c-0.3-1.3-0.6-4.3-2-5c-0.1-0.1-0.2,0.1-0.2,0.2
					c1,2.1,1.6,4.1,2.1,6.4C75.3,97.2,75.5,100.1,76.9,100.7C76.9,100.8,76.9,100.8,76.9,100.7L76.9,100.7z"/>
			</g>
			<g>
				<path fill="#1D1E1C" d="M35.7,91.7c0.8,2.5,3.2,3.7,5.4,4.8c3.4,1.6,5.6,5.2,9,6.6c0.2,0.1,0.4-0.2,0.2-0.3
					c-2.5-1.9-4.9-4.4-7.6-6c-2.6-1.6-5.1-2.2-6.8-5.1C35.8,91.5,35.7,91.6,35.7,91.7L35.7,91.7z"/>
			</g>
			<g>
				<path fill="#1D1E1C" d="M66.8,92.6c-5.2,7-17.6,4.7-19.1,15.1c0,0.3,0.3,0.4,0.4,0.1c1.1-2.8,1.9-5.2,4.4-6.9
					c1.7-1.2,3.9-1.8,5.8-2.6c3.3-1.3,6.8-2.2,8.6-5.6C67,92.6,66.9,92.5,66.8,92.6L66.8,92.6z"/>
			</g>
			<g>
				<path fill="#1D1E1C" d="M35.1,96.8c2.9,2.5,5.7,5.1,8.5,7.7c1.8,1.6,3.7,3.7,5.8,4.9c0.4,0.2,0.8-0.4,0.4-0.7
					c-2.1-1.1-3.9-3.1-5.7-4.7c-2.9-2.5-5.7-5.1-8.6-7.6C35.2,96.2,34.8,96.6,35.1,96.8L35.1,96.8z"/>
			</g>
			<g>
				<path fill="#1D1E1C" d="M49.7,109.4c1.6,0.9,7.1-4,8.3-4.8c3.4-2.4,7.2-4.9,10.3-7.7c0.3-0.3-0.1-0.7-0.4-0.4
					c-2.6,2.4-5.9,4.6-8.8,6.7c-1.9,1.4-3.8,2.7-5.8,3.9c-0.9,0.6-2.3,1.8-3.4,2C49.6,109,49.5,109.3,49.7,109.4L49.7,109.4z"/>
			</g>
			<g>
				<path fill="#1D1E1C" d="M31.9,99c5.8,5.5,11,10.4,18,14.5c0.3,0.2,0.6-0.3,0.3-0.5c-6.8-4-12.2-9-17.9-14.4
					C32,98.3,31.6,98.7,31.9,99L31.9,99z"/>
			</g>
			<g>
				<path fill="#1D1E1C" d="M50.2,113.5c4.8-1.3,9.2-5,13.1-7.9c2.6-2,6-4,8-6.6c0.2-0.2-0.2-0.5-0.4-0.3
					c-6.1,5.7-13.3,10.8-20.7,14.7C50,113.3,50.1,113.5,50.2,113.5L50.2,113.5z"/>
			</g>
			<g>
				<path fill="#1D1E1C" d="M28.9,91.6c-15.7,6.2-31.4,19.5-37,35.7c-2.8,8.1-2,16.7,0.2,24.9c1.8,6.9,5.2,16.8,11.8,20.5
					c0.2,0.1,0.4-0.2,0.3-0.3c-11-12-16.4-30.1-11.1-45.9c5.7-17.1,21.7-26,36-34.8C29,91.7,29,91.6,28.9,91.6L28.9,91.6z"/>
			</g>
			<g>
				<path fill="#1D1E1C" d="M75,94.8c13.3,9.3,26.7,18.3,31.1,34.9c2.1,7.7,1,15.7-1.2,23.2c-2.3,7.9-6.1,14-11.5,20
					c-0.2,0.2,0,0.5,0.3,0.3c6-3.3,9.3-11.9,11.4-18c2.7-7.6,3.8-15.6,2.3-23.6c-3-16.2-17.8-30.4-32.3-37
					C74.9,94.7,74.9,94.8,75,94.8L75,94.8z"/>
			</g>
			<g>
				<path fill="#FEF9E3" d="M72.1,91.8c1.5,2.1,1.5,5,2.3,7.1c0.2,0.5,0.7,0.6,0.5-0.4c-0.6-2.2-0.3-5.1-1.9-7.2
					C72.3,90.5,71.5,91,72.1,91.8L72.1,91.8z"/>
			</g>
			<g>
				<path fill="#E6AF99" d="M89,50.1c-0.7-2.5-2.2-4.3-4.9-4.2c0,0.1-1.3,0.3-1.4,0.4c-1,1.2-0.7,1.9-1.3,3.3
					c-0.3,0.6-0.8,1.6-0.7,2.3c0,0.2-0.8-1.2-1.2-2c-0.2-0.5-1.9-4.9-1.9-4.9c-0.5-1.4-0.9-2.5-1-4.1c-0.1-2.1,0-4.5-1-6.3
					c-0.1-0.1,0-0.2,0.1-0.3c0.5-1.3-0.3-2.5-1.2-3.5c-0.7-0.8-1.6-1.1-2.4-1.6c0,0-0.2-0.4-0.2-0.5c-0.4-0.8-2.6-1-5.9,0.7
					c-0.3,0.1-0.6,0.4-0.6,0.6c0,0.2-0.4,0.5-0.4-0.1c-0.4-2.6-4.2-1-5.5-0.6c-0.2,0.1-0.3-0.1-0.2-0.3c0,0,0.1-0.1,0.1-0.1
					c-2.6-2-5.3,1.3-8,1.3c-0.1,0-0.1-0.1-0.1-0.1c-0.9-0.3-1.7-1-2.6-1.2c-0.9-0.2-2.7,0.2-2.8,0.1c-1.1-0.2-1.9-0.8-3.1-0.4
					c-1,0.3-1.6,1-2.4,1.6c-0.1,0.1-0.2,0-0.2-0.1c0-0.1,0.1-0.1,0.1-0.1c0,0,0,0,0,0c-0.9-0.3-1.5-1-2.5-1.2
					c-1.2-0.1-2.3-0.2-3,1.1c0,0.1-0.1,0.1-0.2,0c0,0,0,0,0,0c-0.8,0.2-1.6,0.2-2.4,0.6c-0.8,0.4-1.6,1-2.1,1.7
					c-0.7,1.1-1.4,3.6-1.5,3.6c-1.8,1.3-1.9,4-2.4,6c-0.2,0.7-0.6,2-0.9,2.6c-0.8,1.4-2.3,4.2-2.3,4.2c-0.2,0.4-0.4,1-0.5,1.4
					c-0.2,0.6-0.1,1.8-0.7,2.2c0,0.1-0.1,0-0.1,0.1c0,0.1-0.1,0.3-0.1,0.2c-0.5-1-1.1-2.2-1.3-3.3c-0.2-0.7-0.3-1.4-0.4-2.1l0,0
					c-0.2-0.7-0.5-1.3-1-1.5c-0.2-0.1-0.3-0.1-0.5-0.2c-2.6,0.1-4.7,2.7-5.1,5.2c-0.6,3.4,1.5,6.3,4.8,6.8c0.1-1.7,0.5-1.5,0.4,0.2
					c0,0,0.1,7,0.5,10.5c0.6,4.4,1.1,10.3,3.8,14c6.7,9.3,22,12.1,32.7,11.5c8.7-0.5,19.6-2.7,23.7-11.7c4.1-9,3.4-26.1,3.4-24.7
					c0,0,1.1,0.2,1.1,0.2C87,57.1,89.9,53.6,89,50.1z"/>
				<path fill="#D59D89" d="M82.8,53.2c0,0,1.9,4.2,5.2,1.5c0,0-1.6,2.8-5,2.6L82.8,53.2z"/>
				<g>
					<path fill="#F1C9BD" d="M85.1,47c0.9,0.2,1.6,1.4,1.8,2.3c0.1,0.8,1.2,0.7,1,0c-0.2-1.4-1.4-2.7-2.9-2.8
						C84.2,46.3,84.4,46.8,85.1,47z"/>
				</g>
				<g>
					<path fill="#F1C9BD" d="M79.4,64.1c0.3,4.1-0.7,8.8-1.7,13.1c-1.7,7-6.7,11.8-13.3,13.7c-1,0.3-1,1.1,0,0.8
						c6.4-1.8,11.4-5.3,14.1-11.5c2.1-4.8,2.8-11.3,2.8-16.5c0-0.7-0.6-0.8-1.1-0.7C79.4,63.2,79.4,63.6,79.4,64.1z"/>
				</g>
				<path fill="#D59D89" d="M77,49.4c-0.1-0.3-0.1-0.6-0.2-0.7c-0.4-0.7-1.2-0.9-2.1-1c-2.2-0.3-4.6-0.1-6.9-0.1
					c-2.6,0-4.4,0.1-6.9,0.2c-1.7,0.1-3.4,0.3-4.8,1.3c0,0,0,0,0,0c0,0,0,0,0,0c0,0-0.1,0-0.1,0.1c-0.1,0-0.1,0.1-0.1,0.1
					c-0.3,0.2-0.6,0.1-0.9,0c-1.1-0.2-2.4-0.3-3.9-0.3c-0.9,0-1.8,0.1-3.1,0.4c-0.8,0.2-1-0.3-1.2-0.3c-1.5-1.1-3.2-1.3-5-1.4
					c-2.6-0.1-4.3-0.2-6.9-0.2c-2.3,0-4.6-0.2-6.9,0.1c-0.9,0.1-1.7,0.3-2.1,1c-0.1,0.2-0.2,0.5-0.2,0.8c-2.5-1-6.5-2.2-6.8-2.1
					l0.7,0.5c0,0.3,0.1,0.9,0.4,1.1c0,0.1,0.1,0.3,0.2,0.4c2.2,1.1,4.1,2.3,5.2,3c0.1,0,0.1,0.1,0.2,0.1c0,2.2,0.2,4.8,0.3,6.3
					c0.1,1.8,0.7,3.8,2.4,4.8c2,1.2,4.8,1.3,7.1,1.5c1.4,0.1,2,0.2,3.4,0.1c0.7,0,1.2-0.1,1.9-0.2c0.6-0.1,1.2-0.3,1.9-0.4
					c0.6-0.1,1.2-0.3,1.8-0.4c0.5-0.2,0.9-0.2,1.4-0.5c0.6-0.5,1-1.2,1.1-2c0.5-2.8,1.2-5.4,1.2-8.2c0-0.4,0.5-0.7,0.8-0.8
					c0.8-0.3,1.5-0.3,2.8-0.3c0.8,0,1.5,0,2.8,0.2c0.1,0,0.2,0,0.3,0.1c0,0,0,0,0,0c0.5,0.2,0.4,0.5,0.5,0.7c0,0,0,0.1,0,0.1
					c0,2.8,0.7,5.4,1.2,8.2c0.1,0.8,0.5,1.5,1.1,2c0.4,0.3,0.9,0.4,1.4,0.5c0.6,0.2,1.2,0.3,1.8,0.4c0.6,0.1,1.2,0.3,1.9,0.4
					c0.7,0.1,1.2,0.2,1.9,0.2c1.4,0.1,2,0,3.4-0.1c2.3-0.2,5.1-0.3,7.1-1.5c1.7-1,2.3-2.9,2.4-4.8c0.1-1.6,0.3-4.3,0.3-6.6
					c1.1-0.7,2.7-1.7,4.6-2.7C81.9,49.5,79.3,48.5,77,49.4z M55.9,49.9C55.9,49.9,55.9,49.9,55.9,49.9
					C55.8,49.9,55.8,49.9,55.9,49.9C55.8,49.9,55.9,49.9,55.9,49.9z M46.8,50C46.8,50,46.8,50,46.8,50c-0.1-0.1-0.1-0.2-0.2-0.2
					C46.8,49.9,46.8,50,46.8,50C46.9,50,46.9,50,46.8,50z"/>
				<g>
					<path fill="#C6C5C4" d="M85.5,41.6c-0.2-0.7-2.6-4.1-1.4-4.6c0,0,0,0,0,0c0.1,0.1,0.3,0.1,0.3,0c-0.2-1.4-0.6-2.6-1.5-3.7
						c-1.1-1.3-0.7-3.3-0.5-4.9c0.1,0,0.1-0.1,0.1-0.2c-0.7-2.2-3.3-3.8-2.6-6.3c0.1,0,0.1-0.1,0.1-0.2c-0.8-0.9-2-1.3-3-1.8
						c-0.7-0.4-1.3-0.8-1.7-1.5c-0.3-0.5-0.4-1.1-0.6-1.7c0.1,0,0.1-0.1,0-0.2c-0.7-1.2-2.8-1-4-0.9c-1,0.1-2.2,0.3-3.4,0.3
						c-0.9-0.2-2.2-0.4-3.1-0.6c-0.3-0.1-0.7-0.2-0.6-0.1c-0.2,0-0.4-0.1-0.4-0.1c-2.4-3.1-7.9,0.6-10.3-2.9c0-0.1-0.2,0-0.1,0.1
						c0,0,0,0.1,0,0.1c-0.2,0.6-1.6,1.5-2.5,1.9c-0.8,0.4-1.2-0.3-2.1-0.1c-1.4-0.6-3.1-0.3-4.6-0.2c-0.8,0.1-3.6,1.5-4.1,0.5
						c0-0.1-0.1,0-0.1,0c0,0.1-0.1-0.2-0.2-0.2c-3,1-5.7,1.1-8.8,0.3c0-0.2-0.1-0.3-0.2-0.5c0-0.1-0.2,0-0.2,0.1c0,0.1,0,0.2,0,0.4
						c0,0,0,0,0,0c-0.1,0-0.1,0.1,0,0.1c0,0,0,0,0.1,0c-0.4,3.6-5.4,3.9-7.3,6.5c-0.1,0-0.2,0-0.2,0c-0.3,0.7-0.5,1.4-0.8,2.1
						c-0.4,0.8-1.4,1.4-2,2.2c-0.8,1-0.4,2.6-1.1,3.7c-0.1,0-0.1,0-0.2,0.1c-0.4,0.9-0.4,2-0.5,3c0,0.6-0.1,1.2-0.1,1.8
						c0.1,0.8,0.6,1.5-0.3,2.1c0,0,0,0,0,0c-0.1-0.2-0.3-0.1-0.3,0.1c-0.3,3.1-2.3,6.3-0.9,9.3c0,0.1,0.5-0.2,0.5-0.2l2.4,0.4
						c0,0,2.2,6.3,2.2,6.3c0.6-3,2.8-6.4,2.8-6.4c1.1-0.7,1.3-2.6,1.6-3.7c0.5-2,0.8-4.9,2.6-6.1c0.1-0.1,0.1-0.2,0-0.2
						c0.5-1.1,0.7-2.3,1.4-3.4c0.5-0.7,1.2-1.3,2-1.7c0.8-0.4,1.6-0.4,2.4-0.6c0,0,0,0,0,0c0,0.1,0.1,0.1,0.2,0
						c0.6-1.3,1.7-1.2,3-1.1c1,0.1,1.6,0.9,2.5,1.2c0,0,0,0,0,0c0,0-0.1,0.1-0.1,0.1c-0.1,0.1,0.1,0.2,0.2,0.1
						c0.8-0.6,1.4-1.3,2.4-1.6c1.2-0.3,2.2,0.4,3.3,0.6c0.1,0,0.2-0.1,0.1-0.2c0,0-0.1-0.1-0.1-0.1c0.8,0.2,1.7-0.2,2.6,0
						c1,0.2,1.7,0.9,2.6,1.2c0,0.1,0.1,0.1,0.1,0.1c2.7,0,5.4-3.3,8-1.3c0,0-0.1,0.1-0.1,0.1c-0.1,0.1,0.1,0.3,0.2,0.3
						c1.3-0.4,5-1.8,5.9,0.6c0.1,0.2,0.4,0.1,0.4,0c0,0,0,0,0,0c1.1-0.5,2-1.2,3.2-1.5c0.3-0.1,3.3-0.5,3.1,0.5c0,0,0,0.1,0.1,0
						c0.9,0.6,1.7,1.1,2.5,1.9c0.9,0.9,1.6,2.2,1.2,3.5c-0.1,0-0.2,0.1-0.1,0.3c1,1.9,0.9,4.3,1,6.3c0.1,1.9,0.6,3.1,1.2,4.8
						c0,0,0,0,0,0v0h0c0,0,0,0,0,0h0.2c0.2,0.8,0.6,1.9,1.3,3.2c0.8,1.4,1.1,2.1,1.2,2.5c0.4-1.1,1.4-4.2,2.6-5.7l2.4,0
						c0.1,0,0.1,0.1,0.2,0h0.1v-0.2h0C86.1,44.3,85.9,43,85.5,41.6z"/>
				</g>
				<g>
					<path fill="#B1B1B1" d="M28.7,29.3c1.7-2.8,0.5-5.3,1.5-6.6c1.6-2,1.1-7.7,0.3-7.9c0-0.2-0.1-0.3-0.2-0.5c0-0.1-0.2,0-0.2,0.1
						c0,0.1,0,0.2,0,0.4c0,0,0,0,0,0c-0.1,0-0.1,0.1,0,0.1c0,0,0,0,0.1,0c-0.4,3.6-5.4,3.9-7.3,6.5c-0.1,0-0.2,0-0.2,0
						c-0.3,0.7-0.5,1.4-0.8,2.1c-0.4,0.8-1.4,1.4-2,2.2c-0.8,1-0.4,2.6-1.1,3.7c-0.1,0-0.1,0-0.2,0.1c-0.4,0.9-0.4,2-0.5,3
						c0,0.6-0.1,1.2-0.1,1.8c0.1,0.8,0.6,1.5-0.3,2.1c0,0,0,0,0,0c-0.1-0.2-0.3-0.1-0.3,0.1c-0.3,3.1-2.3,6.3-0.9,9.3
						c0,0.1,0.5-0.2,0.5-0.2l2.4,0.4c0,0,2.2,6.3,2.2,6.3c0.6-3,2.8-6.4,2.8-6.4c1.1-0.7,1.3-2.6,1.6-3.7c0.5-2,1.7-6.2,1.6-6.3
						C28.8,33.2,27.2,31.8,28.7,29.3z"/>
				</g>
				<path fill="#D59D89" d="M55.2,93.8c-10.7,0.6-26.1-2.2-32.7-11.5c-2.7-3.7-3.2-9.6-3.8-14c-0.4-3.5-0.5-10.5-0.5-10.5
					c0.1-1.7-0.3-1.8-0.4-0.2c-3.3-0.5-5.1-3.3-4.8-6.8c0.4-6.3,6.1-4.9,6.3-4.8c0.5,0.3,0.7,1.4,0.7,1.4c0.1,0.7,0.3,1.4,0.4,2
					c0.2,1.1,0.3,1.5,0.9,2.5c0.1,0.1,0.5-0.1,0.4,0.3c0,0.1-0.2,0.3-0.2,0.3c0.6-0.4,0.5-1.6,0.7-2.2c0.1-0.5,0.3-1,0.5-1.4
					c0,0,1.6-2.8,2.3-4.2c0.3-0.6,0.7-1.9,0.9-2.6c0.5-2,0.6-4.8,2.4-6c0,0-8.1,18.7-4.1,38.3C28.3,94.2,55.2,93.8,55.2,93.8z"/>
				<path fill="#C6C5C4" d="M85.9,57C86,57.1,85.9,57,85.9,57c-0.6,0.3-0.7,1.6-0.8,2.2c-0.1,1.5,0.3,2.8,0.9,4.1
					c-0.7,0.5-0.8,1.3-1,2.1c-0.4,1.5-1.8,2.1-2.8,3.2c-0.1,0.1,0-0.8,0.4-5.9c0.2-1.9,0.1-3.3,0.1-4.3C82.8,57.4,85.8,56.7,85.9,57
					z"/>
				<path fill="#B1B1B1" d="M19.1,70.2c-0.3-0.5-0.9-0.3-1.2-0.9c-0.4-0.6-0.9-1.9-1.1-2.5c-0.2-0.7-0.1-1.7-1.1-1.7
					c0-1.5,0.1-3,0.3-4.4c0.2-1.2,0.3-2.3-0.1-3.4c0,0,1.8,0.1,2.3,0.4c0.6,0.3,0,5,0.1,5.8C18.6,68.2,19.2,70.2,19.1,70.2z"/>
				<g opacity="0.8">
					<path fill="#DA9085" d="M32.2,59.2c-0.2,0-0.5,0-0.7,0.1c-1.9-0.2-3.9,0.2-5.4,1.1c-0.5,0.3-0.9,0.9-1.1,1.6
						c-0.4,0.6-0.3,1.4,0.2,1.8c0,0.1,0.1,0.2,0.2,0.3c1,1.5,2.9,1.9,4.5,2c0.5,0,1.2,0.1,2,0c0.2,0.2,0.4,0.3,0.7,0.3
						c2.3,0.3,6-0.3,6.2-3.9C38.9,59.6,34.3,58.8,32.2,59.2z"/>
				</g>
				<g opacity="0.8">
					<path fill="#DA9085" d="M68.7,59.4c0.2,0,0.5,0,0.7,0.1c1.9-0.2,3.9,0.2,5.4,1.1c0.5,0.3,0.9,0.9,1.1,1.6
						c0.4,0.6,0.3,1.4-0.2,1.8c0,0.1-0.1,0.2-0.2,0.3c-1,1.5-2.9,1.9-4.5,2c-0.5,0-1.2,0.1-2,0c-0.2,0.2-0.4,0.3-0.7,0.3
						c-2.3,0.3-6-0.3-6.2-3.9C62,59.8,66.6,59,68.7,59.4z"/>
				</g>
				<g>
					<path fill="#1D1E1C" d="M21.5,52.6c0.6-0.4,0.8-1.8,1-2.5c0.2-0.6,0.4-1.2,0.7-1.8c0.2-0.3-0.3-0.5-0.3-0.5
						c-0.8,1.1-1.4,3.9-1.3,4.5c0,0,0,0,0,0L21.5,52.6z"/>
				</g>
				<g>
					<path fill="#1D1E1C" d="M79.4,49.8c0.4,0.8,1,2.2,1.1,2.4c0.1,0.2,0.3,0.2,0.3,0c0-0.7-0.3-1.4-0.6-2.1
						c-0.3-0.8-0.5-1.6-1.2-2.1c-0.2-0.1-0.3,0.2-0.3,0.2C78.7,48.1,79.1,49.1,79.4,49.8z"/>
				</g>
				<g>
					<path fill="#D59D89" d="M32.3,43.9c0.7-0.1,1.4-0.7,2-1.1c0.9-0.5,1.7-1.2,2.5-1.7c0.4-0.2,0.1-0.7-0.3-0.6
						c-1.1,0.3-2,0.7-2.9,1.3c-0.6,0.4-1.3,1.1-1.5,1.8C32.1,43.7,32.2,43.9,32.3,43.9L32.3,43.9z"/>
				</g>
				<g>
					<path fill="#D59D89" d="M69.2,44c-0.1-0.8-0.9-1.4-1.5-1.9c-0.9-0.7-1.8-1.1-2.8-1.4c-0.4-0.1-0.7,0.4-0.3,0.6
						c0.8,0.6,1.6,1.2,2.5,1.8c0.6,0.4,1.2,1,1.9,1.1C69.1,44.3,69.2,44.1,69.2,44L69.2,44z"/>
				</g>
				<g>
					<path fill="#1D1E1C" d="M18.7,52.4c-1.2,5.2-0.8,10.6-0.3,15.9c0.5,4.8,1.3,10.1,3.8,14.2c5.5,9.1,20.6,11.9,30.3,12
						c9.3,0.1,20.2-1.8,25.8-10c2.7-3.9,3.3-9,4.1-13.5c1-5.8,1.4-11.8,0.9-17.7c0-0.3-0.4-0.3-0.4,0c-0.6,9.5,0,20-4.2,29
						c-4.1,8.7-14.6,11-23.2,11.5c-10.7,0.6-25.9-2.2-32.6-11.5c-2.7-3.7-3.2-9.5-3.8-13.9c-0.7-5.2-0.9-10.6,0.1-15.8
						C19.2,52.2,18.7,52.1,18.7,52.4L18.7,52.4z"/>
				</g>
				<g>
					<path fill="#1D1E1C" d="M83,46.3c3.2-1.2,5.5,1.2,5.7,4.4c0.3,3.6-1.8,6.3-5.1,6.7c-0.3,0-0.4,0.5-0.1,0.5c4,0,5.8-3.5,5.9-6.9
						c0.1-3.9-3.7-6.9-6.9-4.9C82.4,46.2,83,46.3,83,46.3z"/>
				</g>
				<g>
					<path fill="#1D1E1C" d="M16.7,49.2c-1.3,0.3-1.4,3.4-0.3,4c0.1,0,0.2,0,0.2-0.1c0-0.3-0.1-0.5-0.2-0.8
						c-0.1-0.4-0.1-0.7-0.1-1.1c0-0.7,0.3-1.2,0.6-1.8C16.9,49.3,16.8,49.2,16.7,49.2L16.7,49.2z"/>
				</g>
				<g>
					<path fill="#1D1E1C" d="M85.4,49.2c0.2,0.6,0.5,1.2,0.6,1.9c0.1,0.8-0.3,1.4-0.6,2.2c-0.1,0.2,0.2,0.5,0.4,0.3
						c1.3-0.8,1.2-3.9-0.2-4.5C85.5,48.9,85.3,49,85.4,49.2L85.4,49.2z"/>
				</g>
				<g>
					<path fill="#1D1E1C" d="M23.7,47.3c1.3-0.5,2.2-4.1,2.5-5.3c0.5-2,0.6-4.8,2.4-6.1c0.1-0.1,0.1-0.2,0-0.3
						C26.1,34.4,25.4,46,23.2,47C23.1,47,23.7,47.3,23.7,47.3z"/>
				</g>
				<g>
					<path fill="#1D1E1C" d="M28.6,35.8c0.6-1.2,0.7-2.4,1.5-3.5c0.5-0.7,1.2-1.3,2-1.7c0.8-0.4,1.6-0.4,2.4-0.6
						c0.2,0,0.2-0.3,0-0.4c-1.6-0.4-3.4,0.7-4.4,1.9c-0.9,1-2,2.9-1.5,4.3C28.5,35.8,28.5,35.8,28.6,35.8L28.6,35.8z"/>
				</g>
				<g>
					<path fill="#1D1E1C" d="M34.6,29.9c0.6-1.3,1.7-1.2,3-1.1c1,0.1,1.6,0.9,2.5,1.2c0.1,0,0.2-0.1,0.2-0.2c-0.7-1.1-2-1.4-3.2-1.5
						c-1-0.1-2.9,0.2-2.6,1.6C34.4,30,34.5,30,34.6,29.9L34.6,29.9z"/>
				</g>
				<g>
					<path fill="#1D1E1C" d="M78.5,47.3c0.1-0.6-0.7-2.5-1-3.2c-0.6-1.4-0.6-2.8-0.6-4.3c-0.1-1.7,0-4-1.2-5.5
						c-0.1-0.2-0.4,0-0.3,0.2c1,1.9,1,4.3,1,6.3c0,2.7,1.1,4.6,1.8,6.4C78.2,47.4,78.5,47.3,78.5,47.3z"/>
				</g>
				<g>
					<path fill="#1D1E1C" d="M75.6,34.6c1-1,0.3-2.4-0.4-3.4c-0.6-0.8-2.1-2.5-3.2-2.2c-0.1,0-0.1,0.2,0,0.2
						c0.9,0.6,1.7,0.9,2.4,1.6c0.9,0.9,1.7,2.3,1.1,3.6C75.5,34.6,75.6,34.6,75.6,34.6L75.6,34.6z"/>
				</g>
				<g>
					<path fill="#1D1E1C" d="M71.9,29c0.6-0.8-1.2-1-1.6-1.1c-1.7-0.2-3.8,0.5-5,1.8c-0.2,0.2,0,0.4,0.2,0.3c1.1-0.5,2-1.2,3.2-1.5
						C69,28.5,72.1,28,71.9,29C71.8,29,71.9,29.1,71.9,29L71.9,29z"/>
				</g>
				<g>
					<path fill="#1D1E1C" d="M65.1,30c0-1.3-1.1-1.8-2.2-1.9c-1.1-0.1-3.2,0-3.8,1.1c-0.1,0.1,0.1,0.3,0.2,0.3
						c1.3-0.4,5.3-2.1,5.5,0.6C64.8,30.2,65.1,30.2,65.1,30L65.1,30z"/>
				</g>
				<g>
					<path fill="#1D1E1C" d="M59.6,29.2c-0.7-1.2-2.1-1.3-3.4-1.1c-1.6,0.3-3.7,1.1-5.1,2c-0.1,0.1-0.1,0.3,0.1,0.3
						c2.8,0,5.6-3.5,8.3-1.1C59.5,29.3,59.6,29.3,59.6,29.2L59.6,29.2z"/>
				</g>
				<g>
					<path fill="#1D1E1C" d="M40.2,30.3c0.8-0.6,1.4-1.3,2.4-1.6c1.2-0.3,2.2,0.4,3.3,0.6c0.1,0,0.2-0.1,0.1-0.2c-1.6-1.8-5-1.1-6,1
						C39.9,30.3,40.1,30.4,40.2,30.3L40.2,30.3z"/>
				</g>
				<g>
					<path fill="#1D1E1C" d="M45.7,29c0.9,0.3,1.8-0.2,2.7,0c1,0.2,1.7,0.9,2.6,1.2c0.3,0.1,0.4-0.3,0.2-0.4
						c-1.5-0.9-3.8-2.3-5.5-0.9C45.7,28.9,45.7,29,45.7,29L45.7,29z"/>
				</g>
				<path fill="#1D1E1C" d="M19.1,70.2c-0.3-0.5-0.8-0.9-1.1-1.4c-0.4-0.6-0.7-1.3-0.8-2C17,66.1,16.9,65,16,65.1
					c0-1.5,0.2-2.9,0.4-4.4c0.2-1.2,0.2-2.3-0.4-3.4c-0.1-0.1-0.2,0-0.2,0.1c0.6,2.6-0.8,5.3,0,7.9c0,0,0,0.1,0.1,0.1
					c0.6,0.4,0.7,0.7,0.8,1.4c0.1,0.6,0.3,1.1,0.6,1.7c0.3,0.8,0.9,1.8,1.8,2.1C19.1,70.5,19.2,70.3,19.1,70.2z"/>
				<g>
					<path fill="#1D1E1C" d="M85.6,57.1c-0.6,0.3-0.7,1.7-0.7,2.2c-0.1,1.5,0.3,2.9,0.9,4.2c0.1,0.2,0.4,0.1,0.3-0.1
						c-0.4-1.2-0.9-2.3-0.9-3.7C85.3,58.9,85.6,58,85.6,57.1C85.7,57.1,85.7,57.1,85.6,57.1L85.6,57.1z"/>
				</g>
				<g>
					<path fill="#1D1E1C" d="M85.9,63.4c-0.8,0.5-0.9,1.4-1.1,2.2c-0.4,1.5-1.8,2.1-2.8,3.2c-0.1,0.1,0,0.4,0.2,0.3
						c0.9-0.5,1.8-1.3,2.4-2.2c0.7-1,0.5-2.5,1.4-3.3C86.2,63.5,86.1,63.3,85.9,63.4L85.9,63.4z"/>
				</g>
				<g>
					<path fill="#1D1E1C" d="M16.4,45.4c-0.5-2.2,0-3.8,0.8-5.8c0.4-1,1-2.4,0.4-3.4c-0.1-0.2-0.3-0.1-0.3,0.1
						c-0.3,3.1-2.5,6.1-1,9.2C16.3,45.5,16.4,45.5,16.4,45.4L16.4,45.4z"/>
				</g>
				<g>
					<path fill="#1D1E1C" d="M17.6,36.4c1-0.2,1-0.9,0.8-1.8c-0.4-1.7,0.3-3.5,0.3-5.2c0-0.1-0.2-0.2-0.3-0.1c-0.4,0.9-0.4,2-0.5,3
						c0,0.6-0.1,1.2-0.1,1.8c0.1,0.8,0.7,1.5-0.3,2.1C17.5,36.3,17.5,36.5,17.6,36.4L17.6,36.4z"/>
				</g>
				<g>
					<path fill="#1D1E1C" d="M18.7,29.5c1.2-1,0.8-2.8,1.8-4c1.2-1.4,2.4-2.1,2.3-4.2c0-0.1-0.2-0.2-0.2-0.1
						c-0.3,0.7-0.5,1.4-0.8,2.1c-0.4,0.8-1.4,1.4-2,2.2C18.9,26.6,19.3,28.2,18.7,29.5C18.6,29.4,18.6,29.5,18.7,29.5L18.7,29.5z"/>
				</g>
				<g>
					<path fill="#1D1E1C" d="M22.8,21.2c1.9-1.4,4.1-2.2,6.1-3.6c1.1-0.8,2.1-2.1,1.5-3.5c0-0.1-0.2,0-0.2,0.1
						C30.2,18.3,24.8,18.5,22.8,21.2C22.8,21.2,22.8,21.3,22.8,21.2L22.8,21.2z"/>
				</g>
				<g>
					<path fill="#1D1E1C" d="M30,14.7c1.3,0.9,3.2,1,4.7,1c1.4,0,3.6-0.1,4.6-1.2c0.1-0.1,0-0.2-0.1-0.2
						C36.1,15.4,33.3,15.4,30,14.7C30,14.6,30,14.6,30,14.7L30,14.7z"/>
				</g>
				<g>
					<path fill="#1D1E1C" d="M39.7,14.4c0.3,0.9,1.4,0.6,1.9,0.4c0.7-0.2,1.3-0.5,2-0.6c1.2-0.2,2.3,0,3.5,0c0.1,0,0.1-0.3,0-0.3
						c-1.3-0.7-2.8-0.4-4.1-0.1C42.3,14,40.3,15.5,39.7,14.4C39.7,14.3,39.7,14.4,39.7,14.4L39.7,14.4z"/>
				</g>
				<g>
					<path fill="#1D1E1C" d="M52.8,12.2c0.5,1.4,1.9,1.9,3.3,2.1c2.4,0.2,4.7-0.1,7,1c0.2,0.1,0.3-0.1,0.2-0.2
						c-2.4-3.1-7.9,0.6-10.3-2.9C52.9,12.1,52.8,12.1,52.8,12.2L52.8,12.2z"/>
				</g>
				<g>
					<path fill="#1D1E1C" d="M63.4,14.8c0.9,1.5,2.8,1.4,4.3,1.4c2.5-0.1,4.5-0.5,6.8,0.4c0.1,0,0.2-0.1,0.2-0.2
						c-0.7-1.2-2.8-1-4-0.9c-2.3,0.1-5.4,1-7.3-0.8C63.5,14.7,63.4,14.7,63.4,14.8L63.4,14.8z"/>
				</g>
				<g>
					<path fill="#1D1E1C" d="M74.4,16.2c0,3.1,3.2,4.1,5.4,5.5c0.1,0.1,0.3-0.1,0.2-0.2c-0.8-0.9-2-1.3-3-1.8
						c-0.7-0.4-1.3-0.8-1.7-1.5c-0.4-0.6-0.4-1.4-0.7-2C74.5,16.1,74.4,16.2,74.4,16.2L74.4,16.2z"/>
				</g>
				<g>
					<path fill="#1D1E1C" d="M79.9,21.7c-2,0.9,1.5,5.8,2.3,6.6c0.1,0.1,0.3,0,0.3-0.2C81.7,25.9,79.1,24.3,79.9,21.7
						C79.9,21.7,79.9,21.6,79.9,21.7L79.9,21.7z"/>
				</g>
				<g>
					<path fill="#EEEEEE" d="M78.2,24c-1.3,1.8,1,5,1.9,5.3c0.5,0.2,0.7,0,0.5-0.3c-0.8-1.7-2.7-2.9-2.1-5
						C78.5,24.1,78.3,24,78.2,24L78.2,24z"/>
				</g>
				<g>
					<path fill="#1D1E1C" d="M82.2,28.1c-0.8,1.3-0.5,2.8-0.3,4.2c0,0.3,0.2,0.6,0.4,0.8c1,1.2,1.3,2.4,1.8,3.8
						c0.1,0.1,0.3,0.1,0.3,0c-0.2-1.4-0.6-2.6-1.5-3.7c-1.1-1.3-0.7-3.4-0.4-5C82.4,28,82.3,28,82.2,28.1L82.2,28.1z"/>
				</g>
				<g>
					<path fill="#EEEEEE" d="M80.4,32.6c0.9,0.4,1.7,1.5,2,2.3c0.5,1.5,0.3,2.7,0.1,3.1c-0.2,0.4-0.4,0.3-0.4,0.2
						c-0.4-0.8-0.2-1.7-0.3-2.6c-0.1-1.2-0.7-2.1-1.5-2.8C80.2,32.7,80.3,32.6,80.4,32.6L80.4,32.6z"/>
				</g>
				<g>
					<path fill="#EEEEEE" d="M83.2,40c0.9,0.4,1.1,1.6,1.3,2.5c0.3,1.4,0.3,2.4,0.1,2.7c-0.3,0.4-0.9,0.1-0.9,0
						c-0.3-0.8,0-1.5,0.1-2.4c0.1-0.8-0.1-1.9-0.7-2.6C83,40,83.1,39.9,83.2,40L83.2,40z"/>
				</g>
				<g>
					<path fill="#1D1E1C" d="M84.2,36.8c-0.1,0-0.2,0-0.3-0.1c-0.1,0-0.1,0-0.1,0.1c-0.6,0.8-0.2,1.7,0.1,2.5c1,2.2,2.1,3.8,1.4,6.4
						c-0.1,0.2,0.3,0.3,0.3,0.1c0.4-1.5,0.3-2.8-0.2-4.3C85.3,40.8,82.7,37.2,84.2,36.8C84.2,36.9,84.2,36.8,84.2,36.8L84.2,36.8z"
						/>
				</g>
				<g>
					<path fill="#1D1E1C" d="M35.6,87.7c8.9,3,19.1,3.9,28.3,1.5c0.3-0.1,0.2-0.5-0.1-0.5c-9.7,1.7-18.6,1.5-28.1-1.2
						C35.6,87.6,35.5,87.7,35.6,87.7L35.6,87.7z"/>
				</g>
				<g>
					<path fill="#1D1E1C" d="M52.6,12.4c-0.7,0.7-1.2,1.3-2.2,1.6c-1.1,0.4-2.1-0.3-3.1-0.4c-0.1,0-0.2,0.1-0.1,0.2
						c1.6,1.6,4.8,0.7,5.6-1.3C52.9,12.4,52.7,12.4,52.6,12.4L52.6,12.4z"/>
				</g>
				<g>
					<path fill="#E1F2FC" d="M59.4,61.1c2.4,0.6,4,1.2,6.5,1.1c3.1-0.1,6.2-0.9,9.1-2.7c0,0.1,0.2,0.1,0.2,0c0.2-3.2,0.1-11,0-11
						c0,0-2.8-1.1-4.8-1.1c-3.2-0.1-7.8-0.1-10.9,0.8c-0.2,0-3.3,1.2-3.3,1.4c-0.1,0.9,0.3,8.2,1.4,9.4C57.4,59,59.2,61,59.4,61.1z"
						/>
					<path fill="#C79B66" d="M26.6,51.7c0,0-3.9-3.3-6.7-4.5c-0.5-0.2-0.5-1.4-0.5-1.4c1,0.1,3,1,6.5,2.6L26.6,51.7z"/>
					<path fill="#1D1D1B" d="M26.3,51.3c0,0-2.7-2-6.2-3.7c-0.2-0.1-0.2-0.6-0.2-0.6s4,2,6.4,3.4C27.4,52.2,26.3,51.3,26.3,51.3z"/>
					<path fill="#1D1D1B" d="M26.4,48.2c-2.3-1.1-7.3-2.6-7.6-2.5l0.8,0.6c0.3,0,4.6,1.7,6.7,2.8C26.3,48.7,26.3,48.4,26.4,48.2z"/>
					<path fill="#C79B66" d="M75.2,52c0,0,3.9-3.3,6.7-4.5c0.5-0.2,1.1-1,0.2-1.1c-1-0.1-2.7,0.7-6.2,2.3L75.2,52z"/>
					<path fill="#1D1D1B" d="M75.5,51.6c0,0,2.7-2,6.2-3.7c0.2-0.1,0.2-0.6,0.2-0.6s-4,2-6.4,3.4C74.4,52.5,75.5,51.6,75.5,51.6z"/>
					<path fill="#1D1D1B" d="M75.4,48.5c2.3-1.1,6.8-2.5,7.1-2.4l-0.3,0.4c-0.3,0-4.6,1.7-6.7,2.8C75.4,49,75.4,48.7,75.4,48.5z"/>
					<path fill="#C79B66" d="M47.4,51.2c0,0,2-2.5,7.8-0.1l2-1.8c0,0,0.3-1.4-4.9-1.5S46,48.8,46,48.8L47.4,51.2z"/>
					<path fill="#E1F2FC" d="M45,58.8c1-1.1,1.5-8.4,1.4-9.4c0-0.2-3.2-1.4-3.3-1.4c-3.1-0.9-7.7-0.9-10.9-0.8
						c-2,0.1-4.8,1.1-4.8,1.1c0,0-0.2,7.8,0,11c0,0.1,0.1,0.1,0.2,0c2.9,1.8,6,2.6,9.1,2.7c2.5,0.1,4.1-0.5,6.5-1.1
						C43.3,61,45.1,58.9,45,58.8z"/>
					<path fill="#C79B66" d="M46.8,48.3C45.1,45.6,29.1,45.5,26,47c0,0-1.3,11.9,1.5,14.1c2.8,2.2,9.3,2.2,12.1,2
						c2.8-0.2,4.5-0.6,5.6-1.6C46.3,60.5,48.4,51,46.8,48.3z M44.9,52.5c-0.2,2.1-0.5,4-0.9,6.1c-0.1,0.6-0.4,1.2-0.8,1.5
						c-0.3,0.3-0.7,0.4-1.1,0.5c-0.4,0.1-0.8,0.3-1.3,0.3C40.4,61,40.5,61,40,61.1c-0.5,0.1-1.1,0.3-1.6,0.3c-1.1,0-1.7,0-2.8-0.1
						c-1.7-0.1-4-0.3-5.5-1.1c-1.3-0.7-1.6-2.3-1.8-3.7c-0.3-2.1-0.4-6.7,0.1-7.7c0.3-0.5,0.9-0.7,1.6-0.8c1.7-0.2,3.5-0.1,5.2-0.1
						c2,0,3.1,0,5.1,0.1c1.3,0.1,2.5,0.2,3.6,1l0,0c0,0,0,0,0,0c0.1,0,0.1,0.1,0.2,0.1c0,0,0,0,0,0c0.4,0.3,0.7,0.8,0.8,1.4
						C45,51.2,45,51.9,44.9,52.5z"/>
					<path fill="#1D1D1B" d="M47.7,51.5c0-0.4-0.6-0.3-0.6,0.1c-0.1,2.1-1,7.6-1.3,8.5c-0.2,0.4-0.4,0.8-0.7,1.1
						c-0.3,0.4-1,0.6-1.4,0.7c-0.5,0.1-2.8,0.8-5.2,1c-1.4,0.1-4.2-0.2-4.8-0.3c-1.2-0.2-2.6-0.4-3.8-0.7c-0.2-0.1-0.5-0.1-0.7-0.2
						c-2.9-0.9-3.1-4.3-3.2-6.8c0-2.4-0.1-7.2,0.2-7.7c0.5-0.7,3.2-1,4.6-0.9c1.8,0,3.6,0,5.4,0.1c3.3,0.1,7.3-0.2,10.1,1.6
						c0.5,0.3,0.7-0.2,0.2-0.5c-1.5-1.1-3.2-1.3-5-1.4c-2.6-0.1-4.3-0.2-6.9-0.2c-2.3,0-4.6-0.2-6.9,0.1c-0.9,0.1-1.7,0.3-2.1,1
						c-0.7,1.2-0.3,7.4-0.1,10c0.1,1.8,0.7,3.8,2.4,4.8c2,1.2,4.8,1.3,7.1,1.5c1.4,0.1,2,0.2,3.4,0.1c0.7,0,1.2-0.1,1.9-0.2
						c0.6-0.1,1.2-0.3,1.9-0.4c0.6-0.1,1.2-0.3,1.8-0.4c0.5-0.2,0.9-0.2,1.4-0.5c0.6-0.5,1-1.2,1.1-2C47.1,57,47.7,54.3,47.7,51.5z"
						/>
					<path fill="#1D1D1B" d="M45.1,50.6c-0.1-0.6-0.3-1.1-0.8-1.4c0,0,0,0,0,0c-0.1,0-0.1-0.1-0.2-0.1c0,0,0,0,0,0l0,0
						c-1.1-0.7-2.4-0.9-3.7-1c-2-0.1-3.2-0.1-5.2-0.1c-1.7,0-3.6-0.1-5.3,0.1c-0.7,0.1-1.3,0.2-1.6,0.8c-0.6,1-0.4,5.7-0.1,7.8
						c0.2,1.4,0.5,3,1.8,3.7c1.6,0.9,3.8,1,5.6,1.2c1.1,0.1,1.5,0.1,2.6,0c0.5,0,1.4-0.2,1.9-0.2c0.5-0.1,0.5-0.1,1-0.2
						c0.5-0.1,0.8-0.2,1.2-0.3c0.4-0.1,0.8-0.2,1.1-0.5c0.5-0.4,0.7-1,0.9-1.6c0.4-2.1,0.7-4.1,0.9-6.2
						C45.1,51.8,45.1,51.1,45.1,50.6z M43.5,58.8c-0.1,0.3-0.3,0.6-0.5,0.9c-0.2,0.3-0.7,0.4-1,0.5c-0.4,0.1-2,0.6-3.9,0.7
						c-1,0.1-3.2-0.1-3.7-0.2c-0.9-0.1-1.9-0.3-2.8-0.6c-0.2,0-0.4-0.1-0.5-0.2c-2.2-0.7-2.3-3.3-2.3-5.2c0-1.9-0.3-5.4,0-5.8
						c0.2-0.2,2.5-0.5,3.6-0.5c1.4,0,2.8,0.1,4.2,0.1c2.4,0.1,4.9-0.3,7.1,1c1.1,0.7,0.9,2.7,0.9,2.7C44.4,54,43.7,58.1,43.5,58.8z"
						/>
					<path fill="#C79B66" d="M57.3,61.5c1.1,1,2.8,1.4,5.6,1.6c2.8,0.2,9.3,0.3,12.1-2c2.8-2.2,1.5-14.1,1.5-14.1
						c-3.1-1.5-19.1-1.4-20.8,1.3C54.1,51.1,56.2,60.6,57.3,61.5z M57.6,50.7c0.1-0.5,0.3-1,0.8-1.4c0,0,0,0,0,0
						c0.1,0,0.1-0.1,0.2-0.1c0,0,0,0,0,0l0,0c1.1-0.7,2.3-0.9,3.6-1c2-0.1,3.1-0.1,5.1-0.1c1.7,0,3.5-0.1,5.2,0.1
						c0.7,0.1,1.3,0.2,1.6,0.8c0.5,0.9,0.4,5.6,0.1,7.7c-0.2,1.4-0.5,2.9-1.8,3.7c-1.5,0.9-3.8,1-5.5,1.1c-1.1,0.1-1.7,0.1-2.8,0.1
						c-0.5,0-1.1-0.3-1.6-0.3C62,61,62.2,61,61.7,61c-0.4-0.1-0.9-0.2-1.3-0.3c-0.4-0.1-0.7-0.2-1.1-0.5c-0.5-0.4-0.7-0.9-0.8-1.5
						c-0.4-2-0.7-4-0.9-6.1C57.5,51.9,57.5,51.2,57.6,50.7z"/>
					<path fill="#1D1D1B" d="M54.8,51.6c0-0.4,0.6-0.3,0.6,0.1c0.1,2.1,1,7.6,1.3,8.5c0.2,0.4,0.4,0.8,0.7,1.1
						c0.3,0.4,1,0.6,1.4,0.7c0.5,0.1,2.8,0.8,5.2,1c1.4,0.1,4.2-0.2,4.8-0.3c1.2-0.2,2.6-0.4,3.8-0.7c0.2-0.1,0.5-0.1,0.7-0.2
						c2.9-0.9,3.1-4.3,3.2-6.8c0-2.4,0.1-7.2-0.2-7.7c-0.5-0.7-3.2-1-4.6-0.9c-1.8,0-3.6,0-5.4,0.1c-3.3,0.1-7.3-0.2-10.1,1.6
						c-0.5,0.3-0.7-0.2-0.2-0.5c1.5-1.1,3.2-1.3,5-1.4c2.6-0.1,4.3-0.2,6.9-0.2c2.3,0,4.6-0.2,6.9,0.1c0.9,0.1,1.7,0.3,2.1,1
						c0.7,1.2,0.3,7.4,0.1,10c-0.1,1.8-0.7,3.8-2.4,4.8c-2,1.2-4.8,1.3-7.1,1.5c-1.4,0.1-2,0.2-3.4,0.1c-0.7,0-1.2-0.1-1.9-0.2
						c-0.6-0.1-1.2-0.3-1.9-0.4c-0.6-0.1-1.2-0.3-1.8-0.4c-0.5-0.2-0.9-0.2-1.4-0.5c-0.6-0.5-1-1.2-1.1-2
						C55.5,57,54.8,54.4,54.8,51.6z"/>
					<path fill="#1D1D1B" d="M57.5,52.5c0.2,2.1,0.5,4.1,0.9,6.2c0.1,0.6,0.4,1.2,0.9,1.6c0.3,0.3,0.7,0.4,1.1,0.5
						c0.4,0.1,0.7,0.2,1.2,0.3c0.5,0.1,0.5,0.1,1,0.2c0.5,0.1,1.4,0.2,1.9,0.2c1.1,0,1.5,0.1,2.6,0c1.8-0.2,4-0.3,5.6-1.2
						c1.3-0.7,1.6-2.3,1.8-3.7c0.3-2.1,0.4-6.8-0.1-7.8c-0.3-0.5-0.9-0.7-1.6-0.8C70.9,47.8,69,48,67.3,48c-2,0-3.2,0-5.2,0.1
						c-1.3,0.1-2.6,0.3-3.7,1l0,0c0,0,0,0,0,0c-0.1,0-0.1,0.1-0.2,0.1c0,0,0,0,0,0c-0.5,0.3-0.7,0.8-0.8,1.4
						C57.4,51.2,57.4,51.9,57.5,52.5z M58.1,52.4c0-0.1-0.2-2.1,0.9-2.7c2.2-1.3,4.6-0.9,7.1-1c1.4,0,2.8-0.1,4.2-0.1
						c1.1,0,3.4,0.3,3.6,0.5c0.3,0.3,0.1,3.9,0,5.8c0,1.9-0.1,4.6-2.3,5.2c-0.2,0.1-0.4,0.1-0.5,0.2c-0.9,0.2-1.9,0.4-2.8,0.6
						c-0.5,0.1-2.7,0.3-3.7,0.2c-1.8-0.1-3.5-0.6-3.9-0.7c-0.4-0.1-0.8-0.2-1-0.5c-0.2-0.3-0.4-0.6-0.5-0.9
						C58.8,58.2,58.1,54,58.1,52.4z"/>
					<g>
						<g>
							<path fill="#1D1E1C" d="M60.2,57.3c0,1.1,1.6,1.9,2.5,2.2c0.1,0,0.3-0.2,0.1-0.3c-0.9-0.4-2.1-0.9-2.4-1.9
								C60.4,57.2,60.2,57.2,60.2,57.3L60.2,57.3z"/>
						</g>
						<g>
							<path fill="#1D1E1C" d="M39.7,59.7c1.1-0.3,2.3-1.3,2.6-2.5c0-0.1-0.1-0.1-0.1-0.1c-0.4,0.4-0.7,0.9-1,1.3
								c-0.4,0.5-0.9,0.8-1.5,1.1C39.6,59.6,39.6,59.7,39.7,59.7L39.7,59.7z"/>
						</g>
					</g>
					<path fill="#1D1D1B" d="M47.4,48.5c2.9-0.7,4-0.7,7.1-0.2c0.1,0,0.7,0.1,1,0.2c0.2,0,0.4-0.2,0.7-0.4c-0.1,0,0-0.7-0.1-0.6
						c-0.4,0.5-0.8,0.3-1.1,0.3c-1.1-0.2-2.4-0.3-3.9-0.3c-0.9,0-1.8,0.1-3.1,0.4c-0.8,0.2-1-0.3-1.2-0.3c-0.4-0.2-0.3,0.4-0.3,0.4
						C46.9,48.2,47,48.6,47.4,48.5z"/>
					<path fill="#1D1D1B" d="M54.6,50.4c-2.9-0.8-5.8-0.2-5.8-0.2c-0.8,0.2-1.5,0.7-1.6,1.3c0.1,0,0.5,0.1,0.5,0
						c0-0.4,0.5-0.7,0.8-0.8c0.8-0.3,1.5-0.3,2.8-0.3c0.8,0,1.5,0,2.8,0.2c1,0.2,0.7,0.8,0.9,0.9c0.4,0.2,0.5,0,0.5,0
						C55.4,50.6,54.9,50.5,54.6,50.4z"/>
				</g>
				<g>
					<path fill="#1D1E1C" d="M80.4,51.6c0-0.2,0.1-0.5,0.1-0.7c0.2-0.6,0.4-1.1,0.6-1.6c0.6-1.5,0.6-2.7,1.4-3.3
						c0.3-0.2,0.8,0,0.5,0.2c-0.9,0.5-0.8,1.9-1.4,3.3c-0.3,0.6-0.9,1.8-0.8,2.5L80.4,51.6z"/>
				</g>
				<g>
					<path fill="#1D1E1C" d="M18.9,46.2c-3.2-1.2-5.5,1.2-5.7,4.4c-0.3,3.6,1.8,6.3,5.1,6.7c0.3,0,0.4,0.5,0.1,0.5
						c-4,0-5.8-3.5-5.9-6.9c-0.1-3.9,3.7-6.9,6.9-4.9L18.9,46.2z"/>
				</g>
				<g>
					<path fill="#1D1E1C" d="M18.9,46.2c0.6,0.5,0.9,1.9,1.1,3c0.2,1.1,0.8,2.4,1.3,3.3c0.1,0.1,0.2,0.1,0.2-0.1
						c0.1-1.2-0.7-1.8-1-3.4c-0.5-2.2-1.1-3.1-1.2-3.1C19,45.8,18.8,46.1,18.9,46.2z"/>
				</g>
				<g>
					<path fill="#1D1E1C" d="M69.7,43.2c-0.2-0.8-1-1.4-1.6-1.8c-1-0.7-1.9-1-3-1.2c-0.4-0.1-0.6,0.4-0.3,0.7
						c0.9,0.5,1.7,1.1,2.6,1.7c0.6,0.4,1.3,0.9,2,1C69.7,43.5,69.8,43.3,69.7,43.2L69.7,43.2z"/>
				</g>
				<g>
					<path fill="#1D1E1C" d="M66,52.1c-0.9,0.2-1.5,0.2-2.1,1c-0.8,1.1-0.8,2.7,0.5,3.3c0.1,0.1,2.2-0.2,3.4-0.4
						c0.2-0.2,0.4-0.5,0.5-0.7c0.4-1.3-0.8-2.8-2-3.1c-0.5-0.1-1.1,0-1.6,0.2"/>
					<path fill="#FFFFFF" d="M66.4,52.7c-0.5,0.1-1.6,0.9-0.6,1.6C67.4,55.4,68.1,53,66.4,52.7"/>
					<g>
						<path fill="#1D1E1C" d="M63.6,57.1c0.9-0.3,1.6-0.6,2.6-0.7c0.9-0.1,1.6,0.2,2.5,0.2c0.1,0,0.1-0.1,0.1-0.2
							c-0.5-0.8-1.8-0.7-2.6-0.6c-0.9,0.1-2.2,0.3-2.7,1.1C63.5,57.1,63.5,57.2,63.6,57.1L63.6,57.1z"/>
					</g>
				</g>
				<g>
					<path fill="#1D1E1C" d="M33.4,43.2c0.2-0.8,1-1.4,1.6-1.8c1-0.7,1.9-1,3-1.2c0.4-0.1,0.6,0.4,0.3,0.7c-0.9,0.5-1.7,1.1-2.6,1.7
						c-0.6,0.4-1.3,0.9-2,1C33.5,43.4,33.4,43.3,33.4,43.2L33.4,43.2z"/>
				</g>
				<g>
					<path fill="#1D1E1C" d="M37.1,52.1c0.9,0.2,1.5,0.2,2.1,1c0.8,1.1,0.8,2.7-0.5,3.3c-0.1,0.1-2.2-0.2-3.4-0.4
						c-0.2-0.2-0.4-0.5-0.5-0.7c-0.4-1.3,0.8-2.8,2-3.1c0.5-0.1,1.1,0,1.6,0.2"/>
					<path fill="#FFFFFF" d="M37.8,52.6c-0.5,0.1-1.6,0.9-0.6,1.6C38.9,55.4,39.6,52.9,37.8,52.6"/>
					<g>
						<path fill="#1D1E1C" d="M39.6,57c-0.5-0.9-1.8-1.1-2.7-1.1c-0.7-0.1-2.1-0.1-2.6,0.6c0,0.1,0,0.2,0.1,0.2
							c0.7-0.1,1.4-0.3,2.2-0.3c1,0,1.9,0.4,2.8,0.7C39.6,57.1,39.6,57,39.6,57L39.6,57z"/>
					</g>
				</g>
				<g>
					<g>
						<path fill="#F1C9BD" d="M53,61.3c0.7,0.6,0.8,2,0.5,2.8c-0.3,0.8,0.7,1.2,0.9,0.4c0.5-1.4,0-3.1-1.3-3.9
							C52.5,60.3,52.4,60.8,53,61.3z"/>
					</g>
					<g>
						<path fill="#757575" d="M37.8,75.5c0.2,7.9,7.6,9.9,14.4,10.1c5.9,0.1,11.2-4,12.2-9.9c0-0.2-6.8-3.3-13.5-3.3
							C44.3,72.4,37.8,75.4,37.8,75.5L37.8,75.5z"/>
					</g>
					<path fill="#C6C5C4" d="M50,67.4c1.7,0.7,3.4,0.1,4.6-1.2c0,0,0,0,0.1,0c3.7-2.3,6.8,1.2,8.5,4.1c1.4,2.4,2.6,4.3,4.8,5.9
						c-1.1-0.2-2.1-0.3-3.2-0.6c-1.2-0.3-2.4-0.9-3.6-1.4c-0.2-0.1-0.3,0.2-0.2,0.3c0.2,0.2,0.4,0.3,0.7,0.4c-0.2,0.4-0.1,1,0.2,1.4
						c-2.3-0.2-3.9-1.4-5.7-2.9c-0.1-0.1-0.3,0-0.2,0.2c0.2,0.3,0.4,0.5,0.6,0.8c0,0,0,0,0,0c-0.3,0.4,0,1.1,0.3,1.4
						c-2.3-0.4-4.3-1.3-5.8-3.1c-0.1-0.1-0.3,0-0.3,0.1c-1.5,1.8-3.4,2.7-5.7,3.1c0.3-0.3,0.6-1,0.3-1.4c0,0,0,0,0,0
						c0.2-0.2,0.4-0.5,0.6-0.8c0.1-0.2-0.1-0.3-0.2-0.2c-1.7,1.5-3.4,2.7-5.7,2.9c0.3-0.4,0.4-1,0.2-1.4c0.2-0.1,0.5-0.3,0.7-0.4
						c0.2-0.1,0-0.4-0.2-0.3c-1.2,0.6-2.3,1.1-3.6,1.4c-1,0.3-2.1,0.4-3.2,0.6c1.9-1.4,3.1-3.1,4.3-5.2c1.7-3,4.9-7.4,9-4.9
						C47.3,66.4,49.7,67.3,50,67.4z"/>
					<g>
						<path fill="#CA6372" d="M57.7,83.9c-3.4-4.3-13-5.6-17.5-2.6c-0.1,0.1,0,0.2,0.1,0.2c0,0,3.7,3.3,8.2,3.8
							C55.9,86.1,57.8,84,57.7,83.9z"/>
					</g>
					<path fill="#A03C51" d="M49.3,80.4c0,0-4.6,0.7-5,3.7c0,0-3.1-1-4.1-2.8C40.1,81.3,46.5,79.5,49.3,80.4z"/>
					<path fill="#E89BAE" d="M53.6,82c0,0,3,1.5,2.4,2c-0.4,0.3-1.6,0.8-1.7,0.1c-0.1-0.6-0.4-1-0.6-1.3
						C53.5,82.5,53.1,81.9,53.6,82z"/>
					<g>
						<path fill="#EEEEEE" d="M55.2,66.6c1.9-0.5,3.9,0.2,5,2.2c0.5,0.9,1.5,0.6,1-0.3c-1.6-2.8-4.9-3.4-6.3-2.1
							C54.6,66.6,54.9,66.7,55.2,66.6z"/>
					</g>
					<g>
						<path fill="#1D1E1C" d="M47.3,66.2c-1.7-2-4.6-1.2-6.4,0.3c-1.4,1.2-2.3,2.7-3.2,4.3c-1.2,2.1-2.9,3.7-4.3,5.6
							c-0.1,0.1,0.1,0.3,0.2,0.2c2.2-1.5,3.4-3.2,4.7-5.5c1.7-3,4.9-7.4,9-4.9C47.3,66.3,47.4,66.2,47.3,66.2L47.3,66.2z"/>
					</g>
					<g>
						<path fill="#1D1E1C" d="M33.8,76.6c0,0,1.2,0,1.2,0c0.7-0.1,1.5-0.3,2.2-0.5c1.3-0.3,2.5-0.8,3.6-1.6c0.2-0.1,0-0.4-0.2-0.3
							c-1.2,0.6-2.3,1.1-3.6,1.4c-1.1,0.3-2.3,0.4-3.4,0.7c-0.1,0-0.1,0.1-0.1,0.2c0,0,0,0,0,0C33.7,76.7,33.8,76.7,33.8,76.6
							L33.8,76.6z"/>
					</g>
					<g>
						<path fill="#1D1E1C" d="M39.9,75c0,0.5-0.2,0.9-0.4,1.3c-0.1,0.2,0.2,0.3,0.3,0.2c0.4-0.3,0.6-1.2,0.3-1.6
							C40.1,74.9,39.9,74.9,39.9,75L39.9,75z"/>
					</g>
					<g>
						<path fill="#1D1E1C" d="M39.6,76.6c0.9,0.6,2.3-0.1,3.2-0.5c1.1-0.5,2.5-1.3,3.1-2.4c0.1-0.2-0.1-0.3-0.2-0.2
							c-1.8,1.6-3.5,2.8-6,3C39.6,76.5,39.6,76.6,39.6,76.6L39.6,76.6z"/>
					</g>
					<g>
						<path fill="#1D1E1C" d="M45.2,74.5c0,0.4-0.3,0.8-0.4,1.2c0,0.1,0.1,0.2,0.2,0.1c0.3-0.3,0.6-1,0.3-1.4
							C45.3,74.4,45.2,74.4,45.2,74.5L45.2,74.5z"/>
					</g>
					<g>
						<path fill="#1D1E1C" d="M45,75.9c2,0.5,5.3-1.1,6.1-3c0.1-0.2-0.1-0.4-0.3-0.2C49.3,74.6,47.3,75.5,45,75.9
							C44.9,75.8,44.9,75.9,45,75.9L45,75.9z"/>
					</g>
					<g>
						<path fill="#1D1E1C" d="M54.6,66.2c3.7-2.3,6.8,1.2,8.5,4.1c1.5,2.5,2.7,4.6,5.1,6.2c0.1,0.1,0.3-0.1,0.2-0.2
							c-1.4-1.9-3.1-3.5-4.3-5.6c-0.9-1.6-1.8-3.1-3.2-4.3c-1.8-1.5-4.7-2.3-6.4-0.3C54.5,66.1,54.5,66.2,54.6,66.2L54.6,66.2z"/>
					</g>
					<g>
						<path fill="#1D1E1C" d="M68.1,76.5C68.2,76.5,68.2,76.5,68.1,76.5c0.1-0.1,0.1-0.2,0-0.2C67,76,65.8,76,64.7,75.7
							c-1.2-0.3-2.4-0.9-3.6-1.4c-0.2-0.1-0.3,0.2-0.2,0.3c1.1,0.8,2.3,1.2,3.6,1.6c0.7,0.2,1.5,0.3,2.2,0.5c0,0,1.3,0,1.2,0
							C68,76.6,68.1,76.6,68.1,76.5L68.1,76.5z"/>
					</g>
					<g>
						<path fill="#1D1E1C" d="M61.7,74.8c-0.3,0.4-0.1,1.3,0.3,1.6c0.1,0.1,0.4,0,0.3-0.2c-0.2-0.5-0.4-0.8-0.4-1.3
							C61.9,74.8,61.8,74.8,61.7,74.8L61.7,74.8z"/>
					</g>
					<g>
						<path fill="#1D1E1C" d="M62.2,76.4c-2.5-0.1-4.2-1.4-6-3c-0.1-0.1-0.3,0-0.2,0.2c0.6,1.1,2,1.9,3.1,2.4
							c0.8,0.4,2.3,1.1,3.2,0.5C62.3,76.5,62.3,76.4,62.2,76.4L62.2,76.4z"/>
					</g>
					<g>
						<path fill="#1D1E1C" d="M56.5,74.4c-0.3,0.4,0,1.1,0.3,1.4c0.1,0.1,0.3,0,0.2-0.1c-0.1-0.4-0.4-0.7-0.4-1.2
							C56.7,74.3,56.6,74.3,56.5,74.4L56.5,74.4z"/>
					</g>
					<g>
						<path fill="#1D1E1C" d="M56.9,75.7c-2.3-0.4-4.3-1.2-5.8-3.1c-0.1-0.2-0.4,0-0.3,0.2C51.6,74.7,54.9,76.3,56.9,75.7
							C56.9,75.8,56.9,75.7,56.9,75.7L56.9,75.7z"/>
					</g>
					<g>
						<path fill="#1D1E1C" d="M51.8,60.4c2.1-1,3.5,2.5,3.1,4c-0.5,2.1-3,2.9-4.8,2.5c-0.3-0.1-0.4,0.3-0.1,0.4
							c2.5,1.1,5.3-0.9,5.7-3.6c0.2-1.8-2-4.9-3.9-3.6C51.6,60.3,51.7,60.4,51.8,60.4L51.8,60.4z"/>
					</g>
					<g>
						<path fill="#1D1E1C" d="M37.8,75.7c0.2,7.9,7.6,9.9,14.4,10.1c5.9,0.1,11.2-4,12.2-9.9c0.1-0.3-0.4-0.4-0.5-0.1
							c-1.3,4.6-4.2,8.1-8.9,9.2c-2.7,0.6-5.7,0.1-8.4-0.4c-5-1-7.8-3.8-8.5-8.8C38.1,75.5,37.8,75.5,37.8,75.7L37.8,75.7z"/>
					</g>
					<g>
						<path fill="#1D1E1C" d="M40.2,81.5c5-2,13.5-1.8,17.2,2.7c0.3,0.3,0.7-0.1,0.5-0.5c-3.4-4.3-13.2-5.5-17.7-2.4
							C40,81.4,40.1,81.6,40.2,81.5L40.2,81.5z"/>
					</g>
				</g>
			</g>
		</g>
	</g>
</g>
<g id="globo">
</g>
</svg>
