<?xml version="1.0" encoding="utf-8"?>
<!-- Generator: Adobe Illustrator 17.0.0, SVG Export Plug-In . SVG Version: 6.00 Build 0)  -->
<!DOCTYPE svg PUBLIC "-//W3C//DTD SVG 1.1//EN" "http://www.w3.org/Graphics/SVG/1.1/DTD/svg11.dtd">
<svg version="1.1" xmlns="http://www.w3.org/2000/svg" xmlns:xlink="http://www.w3.org/1999/xlink" x="0px" y="0px" width="100px"
	 height="100px" viewBox="0 0 100 100" enable-background="new 0 0 100 100" xml:space="preserve">
<g id="capa1">
</g>
<g id="personajes">
	<g>
		<defs>
			<rect id="SVGID_33_" x="0" y="0" width="100" height="100"/>
		</defs>
		<use xlink:href="#SVGID_33_"  overflow="visible" fill="#D3DC5C"/>
		<clipPath id="SVGID_2_">
			<use xlink:href="#SVGID_33_"  overflow="visible"/>
		</clipPath>
		<g clip-path="url(#SVGID_2_)">
			<path fill="#8CC375" d="M72.4,132.8c0.6,3.3,2.5,10.4,4.5,13.5c-9.4-0.9-17.2,4.1-26.4,5.4c-4.9,0.7-9.7,0-14.3-1.8
				c-4.3-1.7-8.2-4.2-12.3-6.3c2.2-2.9,3-6.9,3.5-10.4c0.6-3.9,0.3-8.2,0.8-11.6c0,0,0.1-0.7,0.1-0.7c2.7-6.1,4.3-13.3,3.7-20
				c0.4-1.6,2-3.3,3.5-2.5c1.2,0.6,1.5,2,2,3.1c0.7,1.7,1.6,3.3,2.9,4.5c2.4,2.3,5.6,4.2,9,4c3.4,0.2,6.8-1.3,9.2-3.6
				c1.3-1.2,2.4-2.8,3-4.4c0.5-1.2,0.6-2.7,1.8-3.4c1.7-0.9,3.8,0.4,4,2.1c-0.6,6.7,0.5,14.4,3.2,20.5
				C71.2,124.1,71.6,129,72.4,132.8z"/>
			<path fill="#03BD62" d="M50,138.2c-0.1-0.1-0.2-0.2-0.3-0.3c-2.7,0.7-5.6,0.8-8,0c-0.2-0.1-0.1-0.3,0.1-0.3
				c0.2,0.1,0.5,0.1,0.7,0.1c0,0,0.1-0.1,0.1-0.1c2.1-0.1,4-0.2,6-0.7c0.1,0,0.3-0.1,0.4-0.1c-0.5-0.9-1-1.8-1.4-2.8
				c-0.6-1.3-1.3-2.7-1.4-4.1c-0.2-1.9,0.3-3.8,0.8-5.7c0.8-3.5,1.4-7,1.9-10.5c0.2-1.2,0.3-2.3,0.3-3.5c-3.2,0-6.2-1.8-8.5-4
				c-1.3-1.2-2.2-2.9-2.9-4.5c-0.5-1.2-0.7-2.5-2-3.1c-1.5-0.8-3.4,0.7-3.8,2.3c0.6,6.7-1,14.1-3.7,20.2c0,0-0.3,0.7-0.3,0.7
				c-0.5,3.4,0.2,7.7-0.4,11.6c-0.5,3.6-1.3,7.5-3.5,10.4c4.1,2.1,8,4.5,12.3,6.3c7.2,2.9,14.3,1.8,14.3,1.8S52.7,141.5,50,138.2z
				 M35.6,100.4c-0.2-0.2-0.4-0.5-0.7-0.7c-0.3-0.2-0.6-0.2-1-0.2c-0.2,0-0.2-0.3,0-0.3c0.8-0.3,1.8,0.2,2.2,0.8
				C36.3,100.3,35.8,100.6,35.6,100.4z"/>
			<path fill="#92623F" d="M67.4,100c0,0,0.1,0.5,0.1,1.5s-0.6,11.7,3.3,19.9c0,0,1.3,17.1-4.9,30.4c0,0,4.3,3.5,8.1,4.3
				c0,0,7.4-12,7-31.1C80.6,106.2,74.1,100.8,67.4,100z"/>
			<path fill="#714325" d="M67.5,101.5c0,0.9-0.6,11.7,3.3,19.9c0,0,1.3,17.1-4.9,30.4c0,0,3.8,3.1,7.4,4.1
				c-0.3-0.6-0.7-1.1-1.1-1.7c-1.2-2-1.3-4.5-1-6.9c0.3-2.3,1.1-4.6,1.3-6.9c0.2-1.8,0.2-3.7,0.1-5.5c-0.1-2.9-0.2-5.9-0.2-8.8
				c-0.1-1.9-0.1-3.8-0.5-5.6c-0.4-2-1.3-3.8-2-5.7c-1.7-4.7-1.4-9.8-2-14.7c-0.2,0-0.4-0.1-0.6-0.1C67.4,100,67.5,100.5,67.5,101.5
				z"/>
			<path fill="#92623F" d="M43.1,90.7c0,0,0.1,4.8-2.8,6.6c-2.9,1.8-3.7,1.8-3.7,1.8s2.3,11.3,13.1,10.8
				c10.8-0.5,13.1-10.4,13.2-10.8s-3.8-0.8-5-2.6c-1.2-1.8-1.8-5.8-1.8-5.8S51.5,92.2,43.1,90.7z"/>
			<path fill="#714325" d="M44.2,106.8c-1.3-1.4-2.9-4.6-1.9-6.9c2.6-5.9,14-9.2,14-9.2s-4.6,1.5-13,0c0,0,0.1,4.8-2.8,6.6
				c-2.9,1.8-4.2,1.8-4.2,1.8s2.8,11.3,13.6,10.7C50,109.8,45.9,108.6,44.2,106.8z"/>
			<path d="M32.2,99.8c-6.6,0.6-9.4,6.6-11.8,11.9c0,0.1,0.3,0.3,0.3,0.3c2.3-5.2,5.1-11,11.3-11.8C32.4,100.1,32.5,99.8,32.2,99.8z
				"/>
			<path fill="#D4A284" d="M60.6,99.9c-0.4-0.2-0.9-0.4-1.4-0.6c-0.4-0.2-0.7-0.5-1.1-0.8c0,0,0,0,0-0.1c0,0-0.1-0.1-0.1-0.1
				c-0.1,0-0.1,0-0.2,0c-0.1,0-0.1,0.2-0.1,0.3c0.1,0.4,0.7,0.8,1,1.1c0.4,0.3,1,0.7,1.6,0.7C60.7,100.5,61,100,60.6,99.9z"/>
			<path fill="#D4A284" d="M55.2,94.8C55.2,94.6,55,94.3,55,94c-0.1-0.3-0.1-0.6-0.1-0.9c0-0.2-0.3-0.3-0.4,0
				c-0.1,0.6-0.1,1.4,0.2,2C54.9,95.3,55.3,95.1,55.2,94.8z"/>
			<path fill="#D0E7C7" d="M66.9,100.5c-0.6-0.7-1.7-1.3-2.6-1.3c-0.3,0-0.3,0.4-0.1,0.4c0.4,0.1,0.8,0.3,1.2,0.5
				c0.4,0.2,0.6,0.6,0.9,0.9C66.6,101.4,67.1,100.9,66.9,100.5z"/>
			<g>
				<path fill="#66584D" d="M57.4,6.4c-0.5-0.3-1.2-0.5-1.8-0.7c-0.4-0.1-1.2-0.4-1.6-0.2C54,5.6,53.9,5.7,54,5.8
					c0.2,0.4,0.6,0.4,1,0.5c0.5,0.1,1,0.3,1.5,0.4c0.5,0.2,1,0.5,1.2,0.9c0.3,0.5,0.1,1.1,0.5,1.6c0.1,0.1,0.2,0.1,0.3,0
					C59.4,8.4,58.2,6.9,57.4,6.4z"/>
				<path fill="#66584D" d="M51.2,5.9c-0.5-0.3-1.1-0.1-1.6,0C49,6,48.3,6.3,48,6.9C47.9,7,48,7.1,48.1,7.1C49,6.7,50,6.1,51,6.3
					C51.2,6.3,51.4,6,51.2,5.9z"/>
				<g>
					<path fill="#212120" d="M51.2,6.8c1,0.6,2.2-0.5,1.8-1.6c-0.4-1.1-2-1.3-2.9-0.6c-0.3,0.2-0.1,0.8,0.3,0.7
						C51,5.2,51.7,5,52.2,5.2c0.4,0.1,0.5,0.7,0.3,1c-0.2,0.4-0.8,0.6-1.2,0.5C51.2,6.6,51.1,6.7,51.2,6.8L51.2,6.8z"/>
				</g>
				<path fill="#402E20" d="M27.4,79.7c-0.1-0.2-0.3-0.3-0.5-0.2c0,0-0.1,0-0.1,0c-0.1-0.1-0.1-0.1-0.3-0.1c-0.3,0-0.6-0.1-0.9-0.1
					c-0.1,0-0.1,0-0.2-0.1c-0.2,0-0.3,0-0.5,0c-0.1-0.1-0.3-0.1-0.4,0c0,0-0.1,0-0.1,0.1c-0.1,0-0.1,0-0.2,0c0,0-0.1,0-0.1,0l0,0
					c0,0,0,0,0,0c0,0,0,0,0,0c-0.1,0-0.2,0-0.3,0c-0.3,0.1-0.5,0.4-0.3,0.8c0,0,0,0,0,0c0,0.1,0,0.2,0,0.3c0.2,0.3,0.3,0.6,0.4,1
					c0,0.1,0.1,0.2,0.2,0.3c0,0,0,0,0,0c0,0.3,0.1,0.5,0.4,0.8c0,0,0,0,0,0c0,0.2,0,0.5-0.1,0.7c-0.1,0.1-0.1,0.3-0.1,0.5
					c0,0,0,0,0,0h0c0,0,0,0,0,0c0,0-0.1,0-0.1,0.1c-0.2,0.2-0.3,0.4-0.3,0.6c-0.2,0.3-0.4,0.5-0.6,0.8c-0.2,0.4,0.1,0.9,0.6,0.8
					c0.6-0.1,1.1-0.6,1.4-1.1c0.1,0,0.2-0.1,0.3-0.2c0.2-0.2,0.2-0.3,0.1-0.6c0,0,0,0,0,0c0.3-0.4,0.5-0.9,0.4-1.6
					c0-0.2-0.3-0.3-0.5-0.3c0,0-0.1,0-0.1,0.1c-0.1-0.3-0.2-0.6-0.3-0.9c0.2-0.3,0.5-0.6,0.5-0.8c0,0,0-0.1,0-0.1
					c0.1,0,0.2,0,0.2-0.1c0.1,0.1,0.2,0.2,0.4,0.2c0.2,0,0.4-0.1,0.6-0.1c0.1,0.1,0.2,0.1,0.4,0.2c0.2,0.2,0.6-0.1,0.6-0.3
					C28.1,80,27.8,79.8,27.4,79.7z"/>
				<path fill="#402E20" d="M24.6,74.1c-0.1-0.2-0.3-0.4-0.4-0.6c0-0.1-0.1-0.1-0.2-0.2c0,0,0-0.1,0-0.1c0-0.1-0.1-0.1-0.1-0.2
					c0-0.1-0.1-0.2-0.1-0.2c0.1-0.2,0.2-0.2,0.2-0.4c0-0.3-0.1-0.5-0.3-0.6c0-0.1,0-0.2,0-0.4c0-0.5-0.7-0.5-0.7,0
					c0,0.1,0,0.2,0,0.4c0,0,0,0.1,0,0.1c0,0.1,0,0.1,0,0.2c0,0,0,0.1,0,0.1c-0.1,0.2-0.3,0.3-0.4,0.6c0,0.2,0,0.4,0,0.6
					c-0.1,0.3-0.2,0.6-0.4,0.8c-0.1,0.2-0.1,0.3-0.2,0.5c0,0-0.1,0.1-0.1,0.1c-0.1,0-0.2,0-0.2,0.1c-0.2,0.2-0.4,0.3-0.5,0.5
					c-0.1,0.1-0.2,0.2-0.3,0.3c-0.1,0.1-0.1,0.2-0.1,0.4c0,0.1-0.1,0.1-0.1,0.2c-0.2,0.2-0.4,0.4-0.6,0.7c-0.1,0.1-0.1,0.2-0.1,0.3
					c0,0,0,0,0,0c0,0,0,0,0,0c-0.1,0.1-0.1,0.2-0.2,0.3c-0.1,0.2,0,0.5,0.1,0.6c0,0.1,0.1,0.3,0.1,0.3c0,0.3,0.3,0.6,0.6,0.5
					c0.5-0.1,0.8-0.3,1.1-0.7c0,0,0,0,0-0.1c0.4-0.2,0.7-0.4,0.9-0.8c0-0.1,0-0.1,0-0.2c0.1-0.1,0.2-0.3,0.3-0.4
					c0.1,0,0.1-0.1,0.2-0.2c0.2-0.3,0.3-0.6,0.4-0.9c0.2,0,0.4-0.1,0.4-0.4c0-0.1,0-0.2,0-0.3c0.2-0.1,0.3-0.2,0.3-0.4
					C24.6,74.7,24.8,74.4,24.6,74.1z"/>
				<path fill="#402E20" d="M77,78.8C77,78.8,77,78.8,77,78.8c-0.1-0.5-0.4-1-1-1.1c-0.1,0-0.1,0-0.2,0c-0.5-0.3-1-0.4-1.5-0.4
					c-0.2,0-0.4,0.1-0.4,0.2c0,0,0,0-0.1,0c-0.2,0.1-0.4,0.3-0.4,0.5c-0.1,0-0.2,0.1-0.3,0.1c-0.2,0.1-0.1,0.4,0.1,0.4
					c0.2,0.1,0.3,0,0.6-0.1c0.1,0,0.1-0.1,0.1-0.1c0,0,0.1-0.1,0.1-0.1c0,0,0.1,0,0.1,0c0,0.1,0.1,0.2,0.2,0.2
					c0.1,0.1,0.3,0.1,0.5,0.1c0.2,0.1,0.4,0.2,0.6,0.3c0,0,0.1,0,0.1,0c0,0.1,0,0.1,0,0.2c0,0,0,0,0,0c0,0.1,0,0.2,0,0.2
					c0,0,0,0.1,0,0.1c-0.2,0.1-0.3,0.4-0.1,0.6c0.1,0.1,0.1,0.2,0.1,0.3c-0.1,0.1-0.1,0.3-0.2,0.5c0,0.2,0.1,0.3,0.3,0.4
					c0.1,0.1,0.4,0.2,0.6,0.1c0.2-0.1,0.3-0.2,0.4-0.4c0.1,0,0.1-0.1,0.2-0.2c0.1-0.1,0.1-0.2,0.1-0.3c0-0.1,0.1-0.2,0.1-0.3
					c0-0.1,0.1-0.1,0.1-0.2c0,0,0,0,0,0C77.1,79.7,77.1,79.2,77,78.8z"/>
				<path fill="#92623F" d="M81.8,57c0-0.1,0-0.1-0.1-0.2c0-0.1-0.1-0.1-0.1-0.2c-0.2-0.1-0.3-0.2-0.5-0.2c0,0,0,0,0,0c0,0,0,0,0,0
					c-0.1,0-0.2,0-0.3,0c-0.5-0.1-1,0.3-1.4,0.3c0.2-1.8-6.6-10.3-10.1-10.8c-2.7-0.4-6-1-8.3-2.6c-2.2-1.6-4.9-1.5-7-3.3
					c-2.9-2.5-6.9-2.9-9.1,0.7c-0.6,1-5.1,3.5-6.4,5c-0.7,0.8-1.4,1.7-2.3,2.3c-2.2,1.5-4.9,1.2-7.2,2.7c-3.2,2.1-4.5,4.8-5.7,8.3
					c-0.2,0.5-0.2,0.9-0.5,1c-0.2-0.1-0.4-0.2-0.5-0.3c-0.1-0.1-0.1-0.3-0.2-0.4c0.1-0.1,0.1-0.2,0.1-0.4c0-0.9,0.7-1.7-0.2-2.5
					c-0.6-0.6-1.6-0.5-2.4-0.3c-0.1,0-0.2,0-0.3,0c0,0,0,0,0,0c0,0,0,0,0,0c-0.2,0-0.3,0.1-0.5,0.2c-0.1,0-0.1,0.1-0.1,0.2
					c0,0.1,0,0.1-0.1,0.2c-1.8,1.5-3.1,3.3-2.7,5.9c0.2,1.7,1,3.7,2.6,4.5c1.1,0.6,2.4,0.4,3.6,0.3c0-0.1,0-0.1,0-0.2c0,0,0,0,0.1,0
					c0.2,0,0.5-0.1,0.6-0.2c1.5,7.4,5.2,15.7,11.6,19.2c7.3,4.1,16.1,6.7,24.3,3.4c7.6-3.1,14.7-9.4,17.4-17.4
					c0.6-1.9,1.1-3.8,1.5-5.7l0.1,1.1c0.2,0.2,0.4-0.1,0.6-0.2c0,0,0,0,0.1,0c0,0.1,0,0.1,0,0.2c1.2,0.2,2-0.1,3.2-0.7
					c1.6-0.8,2.4-2.4,2.6-4.1C84.4,60.3,83.6,58.6,81.8,57z"/>
				<g>
					<g>
						<path fill="#B01D2B" d="M48.3,11.2C48.2,11.2,48.2,11.2,48.3,11.2c-1,0.4-0.2,1.6,0.5,1c0,0,0.1,0,0.1-0.1
							C49.2,11.8,48.8,11,48.3,11.2L48.3,11.2z"/>
					</g>
				</g>
				<path fill="#402E20" d="M80.7,74.5c-0.1-0.2-0.2-0.3-0.4-0.4c-0.2-0.1-0.5-0.1-0.7-0.2c0-0.1,0-0.2-0.1-0.3
					c-0.3-0.4-0.7-0.6-1.1-0.9c0,0,0,0-0.1,0c0-0.1,0-0.2-0.1-0.3c-0.1-0.2-0.3-0.4-0.4-0.5c0-0.2-0.1-0.4-0.2-0.6
					c-0.1-0.4-0.7-0.5-0.9-0.1c-0.2,0.5-0.3,1.1-0.5,1.6c0,0,0,0,0,0c0,0,0,0,0,0c0,0,0,0,0,0c-0.4,0.3-0.4,1.2,0.3,1.2
					c0.2,0,0.4-0.1,0.6-0.1c0,0,0.1,0,0.1,0c0,0.1,0.1,0.1,0.2,0.1c0,0.1,0.1,0.3,0.3,0.3c0.1,0.1,0.3,0.1,0.4,0.2
					c0,0.1,0,0.2,0,0.3c0.1,0.3,0.3,0.5,0.5,0.6c0,0,0,0.1,0.1,0.1c0.1,0.2,0.4,0.2,0.6,0.2c0.1,0,0.2,0.1,0.3,0
					c0.2,0,0.4-0.1,0.6-0.2c0.1-0.1,0.3-0.1,0.5-0.1C80.8,75.3,80.9,74.8,80.7,74.5z"/>
				<path fill="#402E20" d="M83.3,46.2c0,0-2.1-6.3-3-8.9c-0.9-2.6-1.5-5.8-3.5-7.8c-1.6-1.7-3.5-3-5.6-4.1c-1.9-1-3.6-1.9-5.3-3.2
					c-1.7-1.4-6.2-4.4-8.6-2.7c-1.4,1-2.8,1.5-4.2,1.8l0-0.3c-1.7,0.2-3.2,0.4-4.7,0.2c-0.3,0-0.5-0.1-0.8-0.1c0,0-0.1,0-0.1,0
					c-0.1,0-0.1,0-0.2,0c0,0-0.1,0-0.1,0c-1.4-0.4-3.1-1.7-4.5-2c-2.5-0.8-6.3,1.8-7.9,3c-1.7,1.3-3.4,2.2-5.3,3.2
					c-2.1,1.1-4,2.4-5.6,4.1c-1.9,2.1-1.4,5.4-2.3,8.1c-0.8,2.6-2.9,5.7-3.6,8.3c-1.7,7.2,1.5,9.5,1.4,10.7c0.4-0.2,1-0.2,1.4-0.1
					c0.5,0.1,0.8,0.2,1.2,0.6c0.4,0.4,0.5,1,0.4,1.5c-0.1,0.6-0.2,1.1-0.1,1.7c0,0.1,0,0.1,0,0.2c0,0,0,0,0,0c0.1,0,0.2,0,0.3,0
					c0,0,0.1-0.1,0.1-0.1c0.7-0.7,1.1-1.8,1.3-3c0-0.1,0-0.2,0-0.3c0,0,0,0,0,0c0,0,0-0.1,0-0.1c0,0,0-0.1,0-0.1
					c0-0.4,0.1-0.7,0.1-1c0.7-1,1.4-2,2.2-2.9c1.3-1.4,2.7-2.2,4.4-2.9c1.2-0.5,2.5-0.4,3.6-0.8c2.4-1,3.3-3.5,5.5-4.5
					c2-0.9,3.4-2,4.7-3.6c0.9-0.3,1.8-0.8,2.7-1.6c0.6-0.5,1.5-1.1,2.4-1.3c0.4,0,0.8,0,1.2,0.1c0.9,0.1,2,0.7,2.7,1.3
					c1.9,1.6,3.6,1.8,5.7,2.6c1.8,0.7,10.2,7.8,11.4,8.3c1.7,0.8,3.1,1.6,4.4,2.9c0.8,0.9,1.6,1.9,2.2,2.9c0,0.3,0,0.7,0.1,1
					c0,0,0,0.1,0,0.1c0,0,0,0.1,0,0.1c0,0,0,0,0,0c0,0.1,0,0.2,0,0.3c0.2,1.2,0.6,2.3,1.3,3c0,0,0.1,0.1,0.1,0.1c0.1,0,0.2,0,0.3,0
					c0,0,0,0,0,0c0-0.1,0-0.1,0-0.2c0.1-0.6,0-1.1-0.1-1.7c-0.1-0.5,0-1.1,0.4-1.5c0.3-0.4,0.7-0.5,1.2-0.6c0.4,0,1-0.1,1.4,0.1
					C81.8,55.7,85,53.4,83.3,46.2z"/>
				<path fill="#402E20" d="M59.8,13.1c0-0.1,0-0.1,0-0.2c0,0,0,0,0,0c0,0,0,0,0,0c0.2-1.1,0-2-0.3-3c-0.1,0.1-0.2,0.2-0.3,0.3
					c-0.1,0.1-0.1,0.1-0.2,0.1c0-0.1,0-0.2,0-0.2c0-0.1,0-0.1,0-0.2c0,0,0.1,0,0.1-0.1c0.2,0,0.4-0.2,0.4-0.5c0-0.1,0-0.1,0-0.2
					c0,0,0.1-0.1,0.1-0.2c0.1-0.2,0.1-0.4,0.1-0.6c0,0,0,0,0,0c0,0,0,0,0,0c0-0.3-0.1-0.6-0.2-0.9c-0.4-1.7-3-2.8-5.2-3.1
					c-0.1-0.1-0.2-0.2-0.3-0.2c-1.1-0.1-2,0.3-3.1,0.7c-0.1,0-0.2,0.1-0.4,0.1c0,0-0.1,0-0.1-0.1C49.9,5,49.4,5,48.8,5
					c-2.3,0-5,1-6.3,3c-0.8,0.8-1.3,1.8-1.1,2.6c-0.2,0.7-0.2,1.4,0.2,2c0,0.3,0,0.5,0.1,0.8c0,0.1,0.1,0.2,0.2,0.2
					c0,0.1,0,0.2,0.1,0.3c0,0,0,0,0,0c-0.3,0.3,0.2,0.8,0.5,0.5c0,0,0.1,0,0.1-0.1c0.1,0,0.2,0,0.2-0.1c0.1,0,0.1,0,0.2-0.1
					c1.1-0.2,2.1-0.1,3.1,0.3c0.1,0,0.1,0,0.2,0c0,0,0.1,0.1,0.1,0.1c0.6,0.3,1.1,0.6,1.7,0.9c0,0,0,0,0,0c0.1,0.3,0.4,0.5,0.8,0.6
					c0,0.1,0.1,0.2,0.2,0.2c0.2,0.1,0.3,0.1,0.5,0.2c0.1,0.1,0.2,0.3,0.4,0.2c0.7,0,1.4,0.2,2.1,0.3c0.2,0,0.4,0,0.5-0.2
					c0.5,0,1-0.1,1.5-0.3c0.8,0,1.6-0.1,2.4,0c1.6,0.1,2.5-0.8,3-2.1c0.2-0.3,0.4-0.6,0.5-1C59.9,13.4,59.9,13.2,59.8,13.1z"/>
				<path fill="#B01D2B" d="M49,16.6c-1.1-0.5-2.1-1.2-3.2-1.7c0-0.1-0.1-0.2-0.2-0.3c-0.2-0.1-0.5-0.1-0.7-0.2
					c-0.1,0-0.2-0.1-0.3-0.1c-0.1,0-0.1,0-0.2,0c-0.1,0-0.2,0-0.2,0c0,0-0.1,0-0.1,0c-0.1,0-0.1,0-0.2,0c-0.1,0-0.1,0-0.2,0
					c-0.1,0-0.1,0-0.1,0c0,0,0,0-0.1,0c-0.1,0-0.2,0-0.2,0.1c-0.2,0.1-0.4,0.1-0.5,0.2c-0.6,0.1-1.2,0.3-1.6,0.7c0,0,0,0,0,0
					c0,0,0,0,0,0c0,0,0,0,0,0c-0.3,0.2-0.5,0.3-0.8,0.5c-0.4,0.4-0.7,0.9-0.8,1.4c0,0.6,0.6,0.7,0.7,1.1c0,0.2,0.2,0.3,0.3,0.3
					c0,0,0,0.1,0.1,0.1c1.5-0.5,3.1-0.5,4.5,0.7c3.4,2.9,9.1,1.7,12.4-0.3c0.7-0.5,1.5-0.6,2.3-0.5c0.2-0.8,0-1.3-0.6-1.6
					c0,0-0.1-0.1-0.1-0.1c0,0-0.1,0-0.1,0l0,0c0,0,0,0,0,0c-0.2-0.1-0.5-0.2-0.7-0.2c-0.1,0-0.1,0-0.2-0.1c-0.1,0-0.1,0-0.2,0
					c-0.6-0.1-1.2,0-1.8,0.1c-1.2,0.1-2.3,0.5-3.5,0.6c0,0-0.1,0-0.2-0.1c-0.4-0.1-0.9-0.1-1.3-0.2C50.3,17,49.7,16.8,49,16.6"/>
				<polygon fill="#212120" points="50.7,87.2 50.7,87.2 50.7,87.2 				"/>
				<path fill="#D4A284" d="M75.5,69.3c0-0.2-0.1-0.3-0.2-0.3c0,0,0,0,0,0c-0.1-0.1-0.2-0.1-0.2,0.1c-0.2,0.1-0.3,0.5-0.4,0.7
					c-0.2,0.4-0.4,0.9-0.5,1.3c-0.2,0.4-0.3,0.8-0.5,1.2c-0.2,0.4-0.6,0.9-0.8,1.4c-0.5,0.8-1,1.5-1.5,2.4c-0.3,0.4-0.6,0.8-0.8,1.3
					c0,0,0,0.1-0.1,0.1c-0.2,0.3-0.4,0.5-0.5,0.9c-1.2,1.4-2.6,2.7-3.5,4.3c-0.1,0.1-0.1,0.2-0.1,0.3c-0.1,0.3,0.3,0.7,0.6,0.5
					c2.7-2.5,5.9-5.8,7.5-10c0.4-0.7,0.6-1.4,0.8-2c0.1-0.3,0.1-0.7,0.2-1.1C75.5,70.1,75.5,69.7,75.5,69.3z"/>
				<path fill="#8C8279" d="M79.7,40.8c0-0.2-0.2-0.2-0.3,0c-0.6,1.8,0,3.6,0.5,5.4c0.3,1,0.6,2,0.8,3c0.3,1.6-0.3,2.6-0.9,4
					c-0.2,0.4,0.4,0.8,0.8,0.6C85,51.2,79.8,44.1,79.7,40.8z"/>
				<path fill="#66584D" d="M58.7,12.1c-1.7,0.8-3.5,0.7-5.3,1.2c-0.2,0.1-0.2,0.4,0.1,0.4c1.9-0.1,4,0.1,5.4-1.4
					C59,12.2,58.9,12,58.7,12.1z"/>
				<path fill="#714325" d="M62.3,87.7c-0.4,0.1-0.7,0.2-1.1,0.3c0,0,0.1,0,0.1,0c0,0,0.1,0.1,0,0.1c-0.2,0-0.4,0.1-0.6,0.1
					c-0.6,0.2-1.4,0.5-2.1,0.7c0,0,0,0,0,0c-0.6,0.2-1.3,0.3-1.9,0.4c0,0,0,0,0,0l-0.1,0c-0.4,0.1-0.7,0.2-1.1,0.2c0,0,0,0-0.1,0
					c-0.4,0-0.8,0.1-1.2,0.1c-0.6,0-1.3,0.1-1.9,0.1c-0.5,0-1,0-1.5,0c-1.8-0.3-3.7-0.5-5.6-0.8c-0.7,0-1.4-0.2-2-0.4
					c-0.3-0.1-0.7-0.3-1-0.5c-0.2-0.1-0.4-0.1-0.7-0.2c0,0,0,0,0,0c-0.6-0.2-1.3-0.4-1.9-0.6c-0.9-0.3-1.8-0.6-2.6-1.1
					c-0.4-0.2-0.7-0.4-1-0.6c-1.3-1.3-3-2.4-4.4-3.7c-0.5-0.5-0.9-1-1.3-1.5c-0.2-0.5-0.6-0.9-0.8-1.2c-0.2-0.3-0.4-0.6-0.7-0.8
					c0-0.1,0-0.2-0.1-0.3c-0.5-0.9-1.2-1.5-1.7-2.5c-0.8-1.5-1-3.3-1.7-4.7c-1.5-2.9-2-5.6-2.8-8.7c-0.1-0.3-0.5-0.2-0.5,0.1
					c0.2,1.4,0.2,2.9,0.3,4.4c0,0-0.1,0-0.1,0c0.1-0.5-0.2-1-0.8-0.9c-0.8,0.1-2.1-0.2-3.2-0.7c-0.3-0.3-0.5-0.5-0.8-0.8
					c-0.1-0.2-0.2-0.4-0.3-0.5c-0.2-0.4-0.4-0.9-0.6-1.3c0-0.2-0.1-0.4-0.2-0.4c-0.1-0.3-0.2-0.6-0.2-0.9c0-0.1-0.1-0.1-0.1,0
					c0,0.1,0,0.3,0,0.4c0,0-0.1,0-0.1,0.1c0,0.1,0,0.2,0,0.3c0,0,0,0,0,0.1c0,0,0,0,0,0c-0.1,0-0.1,0.1-0.1,0.2
					c-0.5,1.6,0.6,3.1,2.1,4.1c0,0,0,0.1,0,0.1c0,0.3,0.3,0.4,0.5,0.6c0.4,0.2,0.8,0.4,1.2,0.4c0,0,0.1,0,0.1,0
					c0.2,0.1,0.5,0.2,0.7,0.2c0.5,0.1,0.9,0.2,1.4,0.1c0.1,0,0.2-0.1,0.2-0.1c0.2,0.1,0.3,0.1,0.5,0.1c0.2,1,0.4,1.9,0.9,2.8
					c0.7,1.3,0.8,2.8,1.4,4.2c0.7,1.6,1.6,3,2.5,4.4c0.1,0.1,0.2,0.2,0.2,0.2c0.1,0.4,0.4,0.7,0.7,1c0.2,0.2,0.5,0.5,0.7,0.6
					c0.6,0.9,1.4,1.8,2.2,2.6c1.2,1.1,2.6,2.5,4.2,3.1c0.3,0.3,0.6,0.5,0.8,0.7c0.3,0.3,0.6,0.5,1,0.7c0.6,0.4,1.2,0.7,1.8,1
					c1.3,0.6,3.4,1.6,4.8,1.1c0.2,0.1,0.3,0.1,0.4,0.2c0.6,0.2,1.3,0.5,1.9,0.3c0,0,0,0,0,0c0.4,0.1,0.8,0.2,1.2,0.2
					c0,0,0.1,0,0.1-0.1c1.1,0.2,2.2,0.2,3.2,0.1c0.9,0.1,2,0.2,2.9-0.1c0.3,0,0.5-0.1,0.7-0.1c0.3,0,0.6-0.1,0.9-0.1
					c0.6,0,1.2-0.2,1.8-0.4c0.3-0.1,0.5-0.1,0.8-0.2c0.7-0.1,1.5-0.3,2-0.8c0.1,0,0.3-0.1,0.4-0.1c0.7-0.2,1.8-0.5,2.1-1.2
					C62.6,87.8,62.5,87.7,62.3,87.7z"/>
				<path fill="#714325" d="M77.7,66.8c0,0,0.1,0,0.1,0c-0.1-0.5,0.2-1,0.7-0.9c0.8,0.1,2-0.2,3-0.7c0.3-0.3,0.5-0.5,0.8-0.8
					c0.1-0.2,0.2-0.4,0.3-0.5c0.2-0.4,0.3-0.9,0.6-1.3c0-0.2,0.1-0.4,0.2-0.4c0.1-0.3,0.2-0.6,0.2-0.9c0-0.1,0.1-0.1,0.1,0
					c0,0.1,0,0.3,0,0.4c0,0,0.1,0,0.1,0.1c0,0.1,0,0.2,0,0.3c0,0,0,0,0,0.1c0,0,0,0,0,0c0,0,0.1,0.1,0.1,0.2
					c-0.3,3.9-2.2,4.6-2.4,4.7c-0.3,0.2-0.7,0.4-1.1,0.4c0,0-0.1,0-0.1,0c-0.2,0.1-0.4,0.2-0.6,0.2c-0.4,0.1-0.9,0.2-1.3,0.1
					c-0.1,0-0.2-0.1-0.2-0.1"/>
				<path fill="#352214" d="M53.8,21l0-0.3c-1.7,0.2-3.2,0.4-4.7,0.2c-0.3,0-0.5-0.1-0.8-0.1c0,0-0.1,0-0.1,0c-0.1,0-0.1,0-0.2,0
					c0,0-0.1,0-0.1,0c-1.4-0.4-3.1-1.7-4.5-2c-2.5-0.8-6.3,1.8-7.9,3C33.7,23.1,32,24,30.1,25c-2.1,1.1-4.2,2.2-5.6,4.1
					c-3,4.4-1.7,4.6-2.9,8.2c-1.1,3.4-1.5,3.2-3,8.1c-2,7.1,1,9.4,0.9,10.6c0.1,0,0.7,0,0.9,0c0,0.1,0.1,0.2,0.5,0.2
					c0.2,0,0.4,0.1,0.6,0.2c0.1,0.1,0.1,0.1,0.2,0.2c0.4,0.4,0.5,1,0.4,1.5c-0.1,0.6-0.2,1.1-0.1,1.7c0,0.1,0,0.1,0,0.2c0,0,0,0,0,0
					c0.1,0,0.2,0,0.3,0c0,0,0,0,0,0c0,0,0,0,0,0c0,0.1,0,0.1,0,0.2c0,0,0,0,0,0c0.1,0,0.2,0,0.3,0c0,0,0.1-0.1,0.1-0.1
					c0.7-0.7,1.1-1.8,1.3-3c0-0.1,0-0.2,0-0.3c0,0,0,0,0,0c0,0,0-0.1,0-0.1c0,0,0-0.1,0-0.1c0-0.4,0.1-0.7,0.1-1c0.7-1,2.2-2,3-2.9
					c1.3-1.4,2.7-2.2,4.4-2.9c1.2-0.5,2.5-0.4,3.6-0.8c2.4-1,3.3-3.5,5.5-4.5c0.1,0,0.2-0.1,0.3-0.1c-1.5-0.9-2.4-2.2-1.5-4
					c0.8-1.7-3.5-3.9-3.4-5.9c0.1-2.2,1.4-4.1,2.7-5.7c2-2.4,4.2-4.1,7.1-5.3c2.2-0.9,4.4-1.4,6.6-2.1c-0.5,0-1,0-1.4,0
					C52.8,21.1,53.8,21,53.8,21z"/>
				<path fill="#352214" d="M56.8,8.6c-2,1.3-5.6,1.2-7.2,0.6c-0.1,0-0.1-0.1-0.1-0.1C49.3,9,49.2,9,49.1,8.9
					c-0.1-0.1-0.2-0.2-0.3-0.3c0,0.1,0,0.3-0.1,0.4c-0.2,0.1-0.3,0.3-0.3,0.6c0.1,0.5,0.3,1,0.7,1.4c0.6,1,1.6,1.4,2.8,1.4
					c2.2,0,5.4-0.3,7-2.1c0,0,0-0.1,0-0.1C58.3,9.5,57.6,9,56.8,8.6z"/>
				<path fill="#352214" d="M59.8,13.1c0-0.1,0-0.1,0-0.2c0,0,0,0,0,0c0,0,0,0,0,0c0.1-0.5,0.1-1,0-1.5c-0.9,1.2-2.5,1.9-4,2.2
					c-1.8,0.4-4.4,0.8-6.1-0.2c-1.3-0.8-2.1-2.4-2.2-3.9c-0.1-0.3-0.1-0.5-0.1-0.7c0-0.7,0.1-1.3,0.5-1.9c-0.1-0.7,0.3-1.3,0.9-1.8
					c0,0,0,0,0,0c-2.3,0-5,1-6.3,3c-0.8,0.8-1.3,1.8-1.1,2.6c-0.2,0.7-0.2,1.4,0.2,2c0,0.3,0,0.5,0.1,0.8c0,0.1,0.1,0.2,0.2,0.2
					c0,0.1,0,0.2,0.1,0.3c0,0,0,0,0,0c-0.3,0.3,0.2,0.8,0.5,0.5c0,0,0.1,0,0.1-0.1c0.1,0,0.2,0,0.2-0.1c0.1,0,0.1,0,0.2-0.1
					c1.1-0.2,2.1-0.1,3.1,0.3c0.1,0,0.1,0,0.2,0c0,0,0.1,0.1,0.1,0.1c0.6,0.3,1.1,0.6,1.7,0.9c0,0,0,0,0,0c0.1,0.3,0.4,0.5,0.8,0.6
					c0,0.1,0.1,0.2,0.2,0.2c0,0,0.1,0,0.1,0c0.3-0.2,0.6-0.3,0.9-0.3c0,0.1,0.1,0.2,0.2,0.2c1,0.5,2.5,0.9,3.4,0.1c0,0,0,0,0,0
					c1.4,0,2.9,0,4.2-0.2c0.7-0.4,1.2-1,1.5-1.8c0.2-0.3,0.4-0.6,0.5-1C59.9,13.4,59.9,13.2,59.8,13.1z"/>
				<path fill="#A1121E" d="M40.1,18.4c0,0.2,0.2,0.3,0.3,0.3c0,0,0,0.1,0.1,0.1c1.5-0.5,3.1-0.5,4.5,0.7c2,1.7,4.7,2,7.3,1.5
					c0.3-0.1,0.6-0.2,0.9-0.4c-2-0.6-3.7-1.6-4.4-2.6c-0.4-0.6-0.2-1.2,0.2-1.5h0c-1.1-0.5-2.1-1.2-3.2-1.7c0-0.1-0.1-0.2-0.2-0.3
					c-0.2-0.1-0.5-0.1-0.7-0.2c-0.1,0-0.2-0.1-0.3-0.1c-0.1,0-0.1,0-0.2,0c-0.1,0-0.2,0-0.2,0c0,0-0.1,0-0.1,0c-0.1,0-0.1,0-0.2,0
					c-0.1,0-0.1,0-0.2,0c-0.1,0-0.1,0-0.1,0c0,0,0,0-0.1,0c-0.1,0-0.2,0-0.2,0.1c-0.2,0.1-0.4,0.1-0.5,0.2c-0.6,0.1-1.2,0.3-1.6,0.7
					c0,0,0,0,0,0c0,0,0,0,0,0c0,0,0,0,0,0c-0.3,0.2-0.5,0.3-0.8,0.5c-0.4,0.4-0.7,0.9-0.8,1.4C39.4,17.9,40,18,40.1,18.4z"/>
				<path fill="#66584D" d="M79.6,74.4c-0.3-0.3-0.7-0.5-1-0.7c-0.2-0.1-0.4,0.1-0.3,0.3c0.2,0.3,0.5,0.6,0.9,0.8
					c0.3,0.2,0.5,0.5,0.9,0.5c0.1,0,0.2-0.1,0.1-0.2C80.2,74.7,79.9,74.6,79.6,74.4z"/>
				<path fill="#66584D" d="M76.5,78.7c0-0.2-0.4-0.1-0.3,0c0,0.3,0.1,0.6,0.1,0.9c0,0.3-0.1,0.6,0,0.9c0,0.1,0.1,0.1,0.2,0
					C76.8,80,76.6,79.2,76.5,78.7z"/>
				<path fill="#66584D" d="M25.6,83.6c0-0.1-0.2-0.1-0.3,0c-0.1,0.3-0.1,0.7-0.2,1c-0.1,0.2-0.1,0.3-0.2,0.4c-0.1,0.1,0,0.2,0,0.3
					c0,0.1,0.1,0.1,0.2,0.1c0.1-0.1,0.2-0.1,0.3-0.2c0.1-0.2,0.2-0.4,0.2-0.5C25.7,84.3,25.7,83.9,25.6,83.6z"/>
				<path fill="#66584D" d="M22.9,76c-0.2,0.4-0.5,0.7-0.8,0.9c-0.3,0.2-0.6,0.5-0.8,0.8c0,0.1,0,0.1,0.1,0.1
					c0.3-0.1,0.6-0.4,0.9-0.7c0.3-0.3,0.6-0.7,0.8-1C23.1,76,22.9,75.9,22.9,76z"/>
				<g>
					<path fill="#212120" d="M36.1,58.4c-0.8,0.1-1.3,0.2-1.8,0.9c-0.8,1-0.7,2.6,0.7,3c1.1,0.4,2.8,0,3.2-1.1
						c0.4-1.1-0.7-2.5-1.8-2.7c-0.4-0.1-0.9,0-1.4,0.2"/>
					<path fill="#FFFFFF" d="M36.4,59c-0.6,0.2-1.9,1.1-0.8,1.9c2,1.3,2.8-1.5,0.9-1.9"/>
				</g>
				<g>
					<path fill="#212120" d="M65.3,58.4c-0.8,0.1-1.3,0.2-1.8,0.9c-0.8,1-0.7,2.6,0.7,3c1.1,0.4,2.8,0,3.2-1.1
						c0.4-1.1-0.7-2.5-1.8-2.7c-0.4-0.1-0.9,0-1.4,0.2"/>
					<path fill="#FFFFFF" d="M65.6,59c-0.6,0.2-1.9,1.1-0.8,1.9c2,1.3,2.8-1.5,0.9-1.9"/>
				</g>
				<g>
					<path fill="#212120" d="M22.1,62.4c-0.4,8,3.7,17.9,10.1,23c6.4,5.1,15.2,6.9,23.1,5.7c8.1-1.2,15.2-7.7,19.4-14.4
						c2.3-3.7,3-7.7,3.8-11.9c0.2-1.1,0.1-1.6-0.1-1.6c-0.1,0-0.4,1.8-0.6,2.6c-0.5,1.8-1.1,4.2-1.9,6.3
						c-2.7,7.8-9.7,14.1-17.2,17.1c-8.1,3.3-16.8,0.7-24-3.4c-7.7-4.3-11.4-15.3-12.2-23.5C22.3,62.2,22.1,62.2,22.1,62.4z"/>
				</g>
				<g>
					<path fill="#212120" d="M19.6,56c-3,1-4.5,4.2-3.8,7.3c0.6,2.6,3.5,6.4,6.5,4.3c0.1-0.1,0.1-0.3-0.1-0.3
						c-1.2,0.2-2.2,0.3-3.4-0.3c-1.6-0.8-2.4-2.8-2.6-4.4c-0.4-3,1.2-4.8,3.4-6.4C19.8,56.1,19.7,56,19.6,56L19.6,56z"/>
				</g>
				<g>
					<path fill="#714325" d="M19.2,60.6c-0.3,0.3-0.7,0.7-0.6,1.1c-0.1,0.4-0.1,0.8,0,1.2c0,0.1,0,0.2,0.1,0.3c0,0,0,0,0,0
						c0.1,0.1,0.2,0.2,0.3,0.2c0.1,0,0.1,0,0.2,0c0.1,0,0.1-0.1,0.1-0.1c0-0.1,0-0.1,0-0.2c0-0.1,0-0.1,0-0.2c0,0,0-0.1,0-0.1
						c0,0,0-0.1,0-0.1c0.1-0.1,0.1-0.3,0.2-0.5c0.1-0.3,0.2-0.7,0.1-1.1c0,0,0.1-0.1,0.1-0.1C19.8,60.7,19.4,60.3,19.2,60.6z"/>
					<g>
						<path fill="#212120" d="M19.2,60.5c-1.1,0.4-0.9,2.1-0.3,2.9c0.2,0.2,0.5-0.1,0.4-0.3c-0.3-0.7-0.5-1.8,0.1-2.4
							C19.3,60.6,19.3,60.4,19.2,60.5L19.2,60.5z"/>
					</g>
				</g>
				<g>
					<path fill="#212120" d="M47.9,63c0.8-0.5,1.4-0.9,2.3-0.9c0.8,0,1.7,0.4,2.4,0.8c0.2,0.1,0.3-0.1,0.2-0.3
						C51.5,61.4,48.9,61.1,47.9,63C47.8,62.9,47.9,63,47.9,63L47.9,63z"/>
				</g>
				<g>
					<path fill="#212120" d="M19.6,56.2c0.2,0.2,0.5,0.1,0.8,0.1c0.8,0,1.5,0.1,1.8,1c0.2,0.5-0.1,1.1-0.2,1.6
						c-0.1,0.4,0,0.8,0.2,1.2c0.1,0.2,0.4,0.1,0.3-0.1c-0.2-0.7,0-1.3,0-2c0.1-0.5,0-1.1-0.4-1.5c-0.3-0.4-0.7-0.5-1.1-0.6
						c-0.4,0-1.1-0.1-1.5,0.1C19.5,56.1,19.5,56.1,19.6,56.2L19.6,56.2z"/>
				</g>
				<g>
					<path fill="#212120" d="M40.6,18.9c-1.6-2.8,0.9-4.4,3.3-4.5c2,0,3.5,1.5,5.2,2.2c1.2,0.5,2,0.7,3.3,0.7c1.1,0,7.9-2,6.8,1.3
						c-0.1,0.3,0.4,0.6,0.6,0.2c1-1.9-0.3-2.9-2.2-3.1c-1.4-0.2-2.9,0.4-4.2,0.7c-3,0.7-5.4-1.3-8-2.4c-2.9-1.2-8.8,2.7-5,4.9
						C40.5,19.1,40.6,19,40.6,18.9L40.6,18.9z"/>
				</g>
				<g>
					<path fill="#212120" d="M59.2,9.5c0.4,1.2,0.7,2.3,0.5,3.6c-0.2,1.3-1,1.9-1.7,2.9c-0.1,0.2,0.1,0.3,0.3,0.3
						c2.4-1,2.5-5.1,1-6.8C59.3,9.4,59.1,9.4,59.2,9.5L59.2,9.5z"/>
				</g>
				<g>
					<path fill="#212120" d="M42.1,14.4c-0.2-1.4-0.9-2.6-0.6-4.2c0.6-3.3,4.1-4.9,7.1-4.9c1.2,0,2-0.1,3.1-0.5
						C54,3.9,62,6.1,58.5,9.9c-0.3,0.4,0.2,0.8,0.5,0.5c1.2-0.9,1.3-3.3,0.1-4.4c-2.3-2-4.6-3.1-7.5-1.9c-1.9,0.8-4,0.4-6,0.9
						c-1.3,0.3-2.2,1.4-3.1,2.3c-2.2,2.5-1.5,4.4-0.6,7.1C41.9,14.5,42.1,14.5,42.1,14.4L42.1,14.4z"/>
				</g>
				<g>
					<path fill="#212120" d="M58.8,9.8c-1.8,1.2-3.5,1.8-5.7,2c-1.2,0.1-2.3-0.1-3.3-0.7c-2.2-1.2-0.7-3.1,0.6-3.5
						c0.5-0.2,0.4-0.1,0.9-0.3c0.1-0.1,0.1-0.2,0-0.3c-2.3-1.4-4.6,2.8-2.4,4.5c2.5,1.8,8.6,1.7,10.1-1.4C59.2,9.9,59,9.6,58.8,9.8
						L58.8,9.8z"/>
				</g>
				<g>
					<path fill="#212120" d="M43.1,9c-0.2,0.7-0.3,1.8,0.7,2c0.4,0.1,0.7,0,1.1-0.2c0.3-0.1,0.5-0.3,0.8-0.4
						c0.3-0.1,0.5-0.1,0.8-0.2c0.1,0,0.1-0.2,0-0.2c-0.5-0.3-1.3,0.2-1.7,0.5c-0.5,0.3-1.1,0.3-1.3-0.3C43.2,9.8,43.2,9.3,43.1,9
						C43.1,9,43.1,9,43.1,9L43.1,9z"/>
				</g>
				<g>
					<path fill="#212120" d="M67.9,30.6c1.2-0.8,1.8,1,2.3,1.7c0.4,0.6,0.8,1.1,1.3,1.6c1.2,0.9,2.2,1,3.5,0.4
						c0.2-0.1,0.1-0.5-0.2-0.4c-2.5,0.8-3.5-1-4.8-2.7c-0.6-0.8-1.3-1.3-2.2-0.6C67.7,30.5,67.8,30.7,67.9,30.6L67.9,30.6z"/>
				</g>
				<g>
					<path fill="#212120" d="M40.6,31.7c-1.7-1.1-2.6,1.2-2.9,2.5c-0.1,0.6-0.2,1.1-0.3,1.7c-0.3,1.3-1.5,0.8-2.4,1
						c-1.2,0.3-1.6,1.4-2,2.5c0,0.1,0.1,0.2,0.2,0.1c0.3-0.5,0.7-0.9,1.1-1.3c1.1-1.3,1.3-0.2,2.2-0.4c0.7-0.2,1.1-0.5,1.4-1.2
						c0.8-1.9-0.1-4.3,2.7-4.6C40.7,31.8,40.7,31.7,40.6,31.7L40.6,31.7z"/>
				</g>
				<g>
					<path fill="#212120" d="M23,70.8c-0.4,1-0.6,2-1.1,2.9c-0.4,0.9-1.3,1.7-1.9,2.5c-0.5,0.6-1.4,2.5-0.3,3.1
						c1,0.5,1.9-0.2,2.6-0.8c0.9-0.9,2.7-2.5,2.1-3.9c0-0.1-0.2-0.1-0.2,0c-0.6,1.1-0.9,2-1.7,3c-0.3,0.3-0.6,0.6-0.9,0.9
						c-0.7,0.8-1.3,0.5-1.7-0.7c0.1-0.4,0.3-0.8,0.6-1.1c0.6-0.9,1.4-1.6,1.9-2.5c0.5-0.9,0.8-2.1,0.9-3.1
						C23.3,70.7,23,70.7,23,70.8L23,70.8z"/>
				</g>
				<g>
					<path fill="#212120" d="M27.1,79.3c-0.8,0.1-1.7-0.6-2.5-0.3c-0.8,0.2-1.3,0.8-1.3,1.6c0,1,1.4,1.9,0.8,3
						c-0.4,0.7-1,1.4-1.1,2.2c-0.3,1.6,2.4,0.4,2.8-0.2c0.6-0.8,0.8-1.7,0.6-2.6c-0.1-0.5-1.2-1.8,0.1-1.9c0.8-0.1,1.4,0.3,2.1,0.6
						c0.1,0,0.2-0.1,0.1-0.1c-0.3-1-2.8-1.5-3.4-0.6c-0.3,0.5-0.1,0.9,0.2,1.4c0.4,0.7,0.5,1.4,0.2,2.2c-0.1,0.4-0.3,0.7-0.6,1
						c-0.1,0.1-1.7,1-1.6,0.3c0.2-1.2,1.6-2,1-3.3c-0.3-0.6-0.6-1.1-0.8-1.7c-0.7-2,1.8-1.3,2.5-1.2C26.6,79.7,27.1,79.8,27.1,79.3
						C27.2,79.3,27.2,79.3,27.1,79.3L27.1,79.3z"/>
				</g>
				<g>
					<path fill="#212120" d="M73.1,78.9c1-0.5,2.1-0.2,2,1.1c-0.1,0.5-0.2,1,0.2,1.5c0.3,0.3,0.9,0.3,1.2,0.2
						c0.4-0.1,0.6-0.5,0.7-0.9c0.3-0.8,0.3-2.2-0.3-2.8c-0.5-0.6-2.6-2-3.2-1c0,0.1,0,0.2,0.1,0.3c0.4,0.2,0.9,0.1,1.4,0.3
						c0.6,0.2,1.2,0.6,1.4,1.2c0.2,0.7,0.4,2.8-0.8,2.5c-0.5-0.1-0.2-1.4-0.3-1.8c0-0.3-0.2-0.6-0.4-0.8
						C74.6,78.3,73.4,78.1,73.1,78.9C73,78.9,73.1,78.9,73.1,78.9L73.1,78.9z"/>
				</g>
				<g>
					<path fill="#212120" d="M75.5,74.4c1.3-0.9,2,0.1,3,1c0.6,0.6,1.3,0.9,2.1,0.4c0.9-0.7,0.2-1.7-0.4-2.2c-0.4-0.4-1-0.7-1.4-1.1
						c-0.7-0.6-0.8-1.6-1.3-2.3c-0.3-0.4-0.8-0.1-0.6,0.3c0.6,1,0.9,2.1,1.8,2.8c0.5,0.4,1,0.7,1.4,1.1c0.7,0.7-0.2,1.3-0.8,0.9
						c-1.1-0.6-2.5-2.8-3.9-1.1C75.4,74.4,75.5,74.5,75.5,74.4L75.5,74.4z"/>
				</g>
				<path opacity="0.3" fill="#CF9182" d="M28.9,62.9c-0.1,0.1-0.2,0.1-0.2,0.2c-0.5,0.2-0.9,0.5-1.3,0.9c0,0,0,0,0,0
					c-0.1,0.1-0.2,0.3-0.3,0.5c0,0,0,0,0,0c0,0.1-0.3,1.1,0.5,1.8c0.7,0.6,2.5,0.7,3.4,0.7c0.8,0.1,1.7,0,2.4-0.2
					c1.6-0.1,3.2-0.4,3.8-1.7C38.4,62.2,30.7,61.9,28.9,62.9z"/>
				<path opacity="0.3" fill="#CF9182" d="M73.6,64.1c0-0.2-0.1-0.4-0.4-0.5c-0.1-0.1-0.2-0.2-0.5-0.3c-0.3-0.1-0.6-0.1-1-0.2
					c-0.5-0.3-1.1-0.5-1.8-0.5c-2.5-0.5-6,0.3-6.1,2.4c0,2.5,4,2.1,5.7,1.8c0.2,0,0.4-0.1,0.6-0.1c0.3,0,0.7,0,0.9-0.1
					c0.3-0.1,0.6-0.2,0.8-0.4c0.4-0.1,0.8-0.3,1.1-0.5c0.2-0.1,0.4-0.3,0.4-0.5C73.9,64.9,73.9,64.5,73.6,64.1z"/>
				<g>
					<path fill="#212120" d="M19.6,56.1c0.2-1.8-1.3-3.5-1.3-5.2c-0.1-4.2,0.5-3.8,0.9-6.4c0.4-2.7,1.7-4.4,2.4-6.7
						c0.4-1.4,0.3-3.1,0.9-4.6c1.1-2.8,2.1-4.2,5.4-6.5c1.5-1.1,5-2.1,6.5-3.3c2.1-1.8,4.2-3.2,6.8-4.1c1.9-0.6,4.2,1.8,6.2,2.1
						c3.7,0.4,6.6,0.7,9.8-1.6c2.4-1.7,6.8,1.3,8.5,2.7c1.6,1.3,3.4,2.2,5.2,3.2c2.1,1.1,3.9,2.4,5.5,4.1c1.9,2,2.6,5.1,3.4,7.7
						c0.8,2.6,1.7,5.8,2.4,8.4c1.6,6.7-0.7,8.5-0.9,11.3c0,0.4,0.6,0.4,0.6,0c0.3-2.9,2.9-2.6,0.9-11.3c-0.7-2.9-1.9-5.7-2.4-8.6
						c-0.7-4.3-3.1-8.1-6.7-10.6c-1.9-1.4-4.1-2.2-6.1-3.4c-2.2-1.3-3.7-2.9-6.1-3.7c-1.6-0.6-3.1-1.1-4.7-0.2
						c-3.2,2-8.8,3.2-12.1,0.3c-2.8-2.4-6.6,0.2-9,2c-3.5,2.6-12.3,5.4-13.7,9.9c-0.4,1.4-0.5,3.9-1.3,6.4c-0.9,2.8-2.4,5.6-2.6,7
						c-0.2,1.6-1.1,3.7-0.9,5.4c0.4,4.5,2.1,4.9,2.1,6C19.4,56.2,19.6,56.2,19.6,56.1L19.6,56.1z"/>
				</g>
				<g>
					<path fill="#714325" d="M80.9,60.9c0.3,0.3,0.7,0.7,0.6,1.1c0.1,0.4,0.1,0.8,0,1.2c0,0.1,0,0.2-0.1,0.3c0,0,0,0,0,0
						c-0.1,0.1-0.2,0.2-0.3,0.2c-0.1,0-0.1,0-0.2,0c-0.1,0-0.1-0.1-0.1-0.1c0-0.1,0-0.1,0-0.2c0-0.1,0-0.1,0-0.2c0,0,0-0.1,0-0.1
						c0,0,0-0.1,0-0.1c-0.1-0.1-0.1-0.3-0.2-0.5c-0.1-0.3-0.2-0.7-0.1-1.1c0,0-0.1-0.1-0.1-0.1C80.2,60.9,80.7,60.6,80.9,60.9z"/>
					<g>
						<path fill="#212120" d="M80.9,60.7c1.1,0.4,0.9,2.1,0.3,2.9c-0.2,0.2-0.5-0.1-0.4-0.3c0.3-0.7,0.5-1.8-0.1-2.4
							C80.7,60.9,80.8,60.7,80.9,60.7L80.9,60.7z"/>
					</g>
				</g>
				<path fill="#212120" d="M80.3,56.3c-1.9,0.2-1.5,2-1.8,2.8c-0.2,0.4-0.5-0.6-0.8-1.7c-0.1-0.3-0.2-0.5-0.3-0.8
					c0.1,0.1,0.2,0-0.2-0.9c-2.1-4.1-6.8-6.2-9.1-7.9c-1.7-1.3-2.8-2.8-3.8-3.1c-1.9-0.6-3.4-2.5-5.2-3.1c-2.2-0.8-3.6-0.7-5.5-2.3
					c-0.7-0.6-1.9-1.5-2.9-1.6c-2.1-0.3-5.7,1.5-6.9,3.4c-1.3,2.1-2.7,2.4-4.7,3.7c-2,1.3-2.2,3.1-4.6,4.1c-1.2,0.5-2.4,0.3-3.6,0.8
					c-1.7,0.7-3.1,1.6-4.3,2.9c-0.9,0.9-1.6,1.9-2.3,3c-0.6,0.9-0.8,4.6-1.9,4.7c0,0-0.1,0.1,0,0.1c0.8,0.1,0.9-0.5,1.1-1.2
					c1.2-3.4,2.5-6.2,5.7-8.2c2.3-1.5,5-1.1,7.1-2.7c0.8-0.6,1.5-1.5,2.3-2.3c1.4-1.5,3-1.5,4.4-2.6c0.9-0.7,1.1-1.6,1.9-2.3
					c2.9-2.4,6.1-3.1,9-0.7c2,1.7,4.7,1.7,6.9,3.2c2.3,1.6,7.9,6.1,10.5,7.1c2.1,0.8,4.1,3.4,5.4,5c0.1,0.6,0.7,2.2,0.9,3.1
					c0.4,1.2,0.8,1.7,1.1,1.9c0.8,0.5,0.3,0,0.5-3c0-0.3,0.6-0.8,1.5-0.9c1.1-0.2,3.4,3.1,3,5.8c-0.2,1.6-1,3.6-2.6,4.4
					c-1.1,0.6-2.2,0.4-3.4,0.3c-0.2,0-0.2,0.2-0.1,0.3c2.9,2.1,5.9-1.7,6.5-4.3C84.9,60.3,82.7,56.1,80.3,56.3z"/>
				<path fill="#212120" d="M56.4,69.4c-1.2,2.3-3.8,2.5-6,2.7c-0.8,0.1-4.5-0.3-5.4-2c-0.4-0.9-0.9-0.1-0.7,0.3
					c1.3,2.4,4.2,2.6,6,2.5c2.4-0.1,5.6-0.5,6.8-3.4C57.3,69,56.5,69.1,56.4,69.4z"/>
				<g>
					<path fill="#714325" d="M36,50.6c-0.5-0.4-1.5-0.1-2.1,0.1c-0.8,0.2-1.5,0.7-2.2,1.2c-0.4,0.3,0.2,1,0.6,0.6
						c0.5-0.5,1.1-0.8,1.8-1.1c0.4-0.1,0.8-0.2,1.2-0.3c0.3,0,0.5,0,0.7-0.1C36.2,50.9,36.1,50.7,36,50.6z"/>
					<g>
						<path fill="#212120" d="M32.9,52.4c0.6,0.1,1.3-0.2,2-0.3c0.9-0.2,1.7-0.5,2.6-0.7c0.4-0.1,0.3-0.6-0.1-0.6
							c-1,0-1.8,0-2.8,0.3c-0.6,0.2-1.4,0.5-1.8,1.1C32.7,52.3,32.7,52.4,32.9,52.4L32.9,52.4z"/>
					</g>
				</g>
				<g>
					<path fill="#714325" d="M66,51.3C66,51.4,66,51.4,66,51.3c0,0,0,0-0.1,0c-0.1-0.1-0.3-0.1-0.5-0.1c-0.4-0.1-0.9-0.1-1.3-0.2
						c-0.6-0.1-1.7-0.5-2.3-0.2c-0.2,0.1-0.3,0.5,0,0.7c0.5,0.3,1.4,0.3,1.9,0.4c0.7,0.1,1.4,0.2,2,0.1c0.2,0,0.3-0.1,0.3-0.3
						c0,0.2,0.1,0,0.1,0C66.3,51.5,66.2,51.3,66,51.3z"/>
					<g>
						<path fill="#212120" d="M67.6,51.3c-0.4-0.6-1.2-0.9-1.8-1c-1-0.3-1.8-0.3-2.8-0.2c-0.4,0-0.4,0.6,0,0.6
							c0.9,0.2,1.8,0.4,2.6,0.6c0.6,0.1,1.3,0.4,2,0.2C67.6,51.6,67.6,51.4,67.6,51.3L67.6,51.3z"/>
					</g>
				</g>
			</g>
			<path fill="#1A1A19" d="M51,109.5c-3,0.1-5.8-0.2-8.3-1.9c-2.4-1.5-4.2-3.9-5.1-6.6c-0.2-0.7-0.5-1.4-1-2c0,0,0.1,0.1,0.1,0.1
				c4.3,0,7-4.4,6.6-8.4c0-0.2-0.3-0.2-0.3,0c-0.1,2-0.7,4-2.1,5.5c-1.4,1.5-2.5,2-4.3,2.5c-0.2,0-0.2,0.2-0.1,0.3
				c-0.5-0.6-1.2-1-2.2-0.9c-1.6,0.1-2.7,1.8-2.5,3.3c0,0.1,0.2,0.5,0.2,0.4c-0.1-1.8,1.8-3.9,3.5-3c1.2,0.6,1.3,2.2,1.8,3.4
				c0.7,1.7,1.7,3.2,3,4.4c2.7,2.6,6.8,4.1,10.6,3.4C51.4,110,51.3,109.5,51,109.5z"/>
			<path fill="#1A1A19" d="M48.5,109.5c3,0.1,5.8-0.2,8.3-1.9c2.4-1.5,4.2-3.9,5.1-6.6c0.2-0.7,0.5-1.4,1-2c0,0-0.1,0.1-0.1,0.1
				c-4.3,0-7-4.4-6.6-8.4c0-0.2,0.3-0.2,0.3,0c0.1,2,0.7,4,2.1,5.5c1.4,1.5,2.5,2,4.3,2.5c0.2,0,0.2,0.2,0.1,0.3
				c0.5-0.6,1.2-1,2.2-0.9c1.6,0.1,2.7,1.8,2.5,3.3c0,0.1-0.2,0.1-0.2,0c0.1-1.8-1.8-3.6-3.6-2.7c-1.2,0.6-1.3,2.2-1.8,3.4
				c-0.7,1.7-1.7,3.2-3,4.4c-2.7,2.6-6.8,4.1-10.6,3.4C48.1,110,48.1,109.5,48.5,109.5z"/>
			<path fill="#1A1A19" d="M48.7,97.2c-1.6-0.2-3.3-0.2-5-0.2c-0.2,0-0.2,0.3,0,0.3c1.6,0.2,3.3,0.3,5,0.3
				C49,97.6,48.9,97.2,48.7,97.2z"/>
			<path fill="#1A1A19" d="M55.1,96.5c-1.2,0.2-2.5,0.5-3.7,0.8c-0.2,0.1-0.1,0.4,0.1,0.3c1.2-0.2,2.5-0.4,3.7-0.7
				C55.5,96.8,55.4,96.4,55.1,96.5z"/>
			<path d="M32.2,99.8c-6.6,0.6-10.1,6.4-11.8,11.9c0,0.1,0.3,0.3,0.3,0.2c1.5-5.5,5.1-11,11.3-11.8C32.4,100.1,32.5,99.8,32.2,99.8
				z"/>
			<path d="M67.6,99.8c6.6,0.6,10.1,6.4,11.8,11.9c0,0.1-0.3,0.3-0.3,0.2c-1.5-5.5-5.1-11-11.3-11.8C67.4,100.1,67.3,99.8,67.6,99.8
				z"/>
		</g>
	</g>
</g>
<g id="personajes_hover">
	<g>
		<defs>
			<rect id="SVGID_53_" x="0" y="0" width="100" height="100"/>
		</defs>
		<use xlink:href="#SVGID_53_"  overflow="visible" fill="#D3DC5C"/>
		<clipPath id="SVGID_4_">
			<use xlink:href="#SVGID_53_"  overflow="visible"/>
		</clipPath>
		<g clip-path="url(#SVGID_4_)">
			<path fill="#8CC375" d="M72.4,132.8c0.6,3.3,2.5,10.4,4.5,13.5c-9.4-0.9-17.2,4.1-26.4,5.4c-4.9,0.7-9.7,0-14.3-1.8
				c-4.3-1.7-8.2-4.2-12.3-6.3c2.2-2.9,3-6.9,3.5-10.4c0.6-3.9,0.3-8.2,0.8-11.6c0,0,0.1-0.7,0.1-0.7c2.7-6.1,4.3-13.3,3.7-20
				c0.4-1.6,2-3.3,3.5-2.5c1.2,0.6,1.5,2,2,3.1c0.7,1.7,1.6,3.3,2.9,4.5c2.4,2.3,5.6,4.2,9,4c3.4,0.2,6.8-1.3,9.2-3.6
				c1.3-1.2,2.4-2.8,3-4.4c0.5-1.2,0.6-2.7,1.8-3.4c1.7-0.9,3.8,0.4,4,2.1c-0.6,6.7,0.5,14.4,3.2,20.5
				C71.2,124.1,71.6,129,72.4,132.8z"/>
			<path fill="#03BD62" d="M50,138.2c-0.1-0.1-0.2-0.2-0.3-0.3c-2.7,0.7-5.6,0.8-8,0c-0.2-0.1-0.1-0.3,0.1-0.3
				c0.2,0.1,0.5,0.1,0.7,0.1c0,0,0.1-0.1,0.1-0.1c2.1-0.1,4-0.2,6-0.7c0.1,0,0.3-0.1,0.4-0.1c-0.5-0.9-1-1.8-1.4-2.8
				c-0.6-1.3-1.3-2.7-1.4-4.1c-0.2-1.9,0.3-3.8,0.8-5.7c0.8-3.5,1.4-7,1.9-10.5c0.2-1.2,0.3-2.3,0.3-3.5c-3.2,0-6.2-1.8-8.5-4
				c-1.3-1.2-2.2-2.9-2.9-4.5c-0.5-1.2-0.7-2.5-2-3.1c-1.5-0.8-3.4,0.7-3.8,2.3c0.6,6.7-1,14.1-3.7,20.2c0,0-0.3,0.7-0.3,0.7
				c-0.5,3.4,0.2,7.7-0.4,11.6c-0.5,3.6-1.3,7.5-3.5,10.4c4.1,2.1,8,4.5,12.3,6.3c7.2,2.9,14.3,1.8,14.3,1.8S52.7,141.5,50,138.2z
				 M35.6,100.4c-0.2-0.2-0.4-0.5-0.7-0.7c-0.3-0.2-0.6-0.2-1-0.2c-0.2,0-0.2-0.3,0-0.3c0.8-0.3,1.8,0.2,2.2,0.8
				C36.3,100.3,35.8,100.6,35.6,100.4z"/>
			<path fill="#92623F" d="M67.4,100c0,0,0.1,0.5,0.1,1.5s-0.6,11.7,3.3,19.9c0,0,1.3,17.1-4.9,30.4c0,0,4.3,3.5,8.1,4.3
				c0,0,7.4-12,7-31.1C80.6,106.2,74.1,100.8,67.4,100z"/>
			<path fill="#714325" d="M67.5,101.5c0,0.9-0.6,11.7,3.3,19.9c0,0,1.3,17.1-4.9,30.4c0,0,3.8,3.1,7.4,4.1
				c-0.3-0.6-0.7-1.1-1.1-1.7c-1.2-2-1.3-4.5-1-6.9c0.3-2.3,1.1-4.6,1.3-6.9c0.2-1.8,0.2-3.7,0.1-5.5c-0.1-2.9-0.2-5.9-0.2-8.8
				c-0.1-1.9-0.1-3.8-0.5-5.6c-0.4-2-1.3-3.8-2-5.7c-1.7-4.7-1.4-9.8-2-14.7c-0.2,0-0.4-0.1-0.6-0.1C67.4,100,67.5,100.5,67.5,101.5
				z"/>
			<path fill="#92623F" d="M43.1,90.7c0,0,0.1,4.8-2.8,6.6c-2.9,1.8-3.7,1.8-3.7,1.8s2.3,11.3,13.1,10.8
				c10.8-0.5,13.1-10.4,13.2-10.8s-3.8-0.8-5-2.6c-1.2-1.8-1.8-5.8-1.8-5.8S51.5,92.2,43.1,90.7z"/>
			<path fill="#714325" d="M44.2,106.8c-1.3-1.4-2.9-4.6-1.9-6.9c2.6-5.9,14-9.2,14-9.2s-4.6,1.5-13,0c0,0,0.1,4.8-2.8,6.6
				c-2.9,1.8-4.2,1.8-4.2,1.8s2.8,11.3,13.6,10.7C50,109.8,45.9,108.6,44.2,106.8z"/>
			<path d="M32.2,99.8c-6.6,0.6-9.4,6.6-11.8,11.9c0,0.1,0.3,0.3,0.3,0.3c2.3-5.2,5.1-11,11.3-11.8C32.4,100.1,32.5,99.8,32.2,99.8z
				"/>
			<path fill="#D4A284" d="M60.6,99.9c-0.4-0.2-0.9-0.4-1.4-0.6c-0.4-0.2-0.7-0.5-1.1-0.8c0,0,0,0,0-0.1c0,0-0.1-0.1-0.1-0.1
				c-0.1,0-0.1,0-0.2,0c-0.1,0-0.1,0.2-0.1,0.3c0.1,0.4,0.7,0.8,1,1.1c0.4,0.3,1,0.7,1.6,0.7C60.7,100.5,61,100,60.6,99.9z"/>
			<path fill="#D4A284" d="M55.2,94.8C55.2,94.6,55,94.3,55,94c-0.1-0.3-0.1-0.6-0.1-0.9c0-0.2-0.3-0.3-0.4,0
				c-0.1,0.6-0.1,1.4,0.2,2C54.9,95.3,55.3,95.1,55.2,94.8z"/>
			<path fill="#D0E7C7" d="M66.9,100.5c-0.6-0.7-1.7-1.3-2.6-1.3c-0.3,0-0.3,0.4-0.1,0.4c0.4,0.1,0.8,0.3,1.2,0.5
				c0.4,0.2,0.6,0.6,0.9,0.9C66.6,101.4,67.1,100.9,66.9,100.5z"/>
			<g>
				<path fill="#66584D" d="M57.4,6.4c-0.5-0.3-1.2-0.5-1.8-0.7c-0.4-0.1-1.2-0.4-1.6-0.2C54,5.6,53.9,5.7,54,5.8
					c0.2,0.4,0.6,0.4,1,0.5c0.5,0.1,1,0.3,1.5,0.4c0.5,0.2,1,0.5,1.2,0.9c0.3,0.5,0.1,1.1,0.5,1.6c0.1,0.1,0.2,0.1,0.3,0
					C59.4,8.4,58.2,6.9,57.4,6.4z"/>
				<path fill="#66584D" d="M51.2,5.9c-0.5-0.3-1.1-0.1-1.6,0C49,6,48.3,6.3,48,6.9C47.9,7,48,7.1,48.1,7.1C49,6.7,50,6.1,51,6.3
					C51.2,6.3,51.4,6,51.2,5.9z"/>
				<g>
					<path fill="#212120" d="M51.2,6.8c1,0.6,2.2-0.5,1.8-1.6c-0.4-1.1-2-1.3-2.9-0.6c-0.3,0.2-0.1,0.8,0.3,0.7
						C51,5.2,51.7,5,52.2,5.2c0.4,0.1,0.5,0.7,0.3,1c-0.2,0.4-0.8,0.6-1.2,0.5C51.2,6.6,51.1,6.7,51.2,6.8L51.2,6.8z"/>
				</g>
				<path fill="#402E20" d="M27.4,79.7c-0.1-0.2-0.3-0.3-0.5-0.2c0,0-0.1,0-0.1,0c-0.1-0.1-0.1-0.1-0.3-0.1c-0.3,0-0.6-0.1-0.9-0.1
					c-0.1,0-0.1,0-0.2-0.1c-0.2,0-0.3,0-0.5,0c-0.1-0.1-0.3-0.1-0.4,0c0,0-0.1,0-0.1,0.1c-0.1,0-0.1,0-0.2,0c0,0-0.1,0-0.1,0l0,0
					c0,0,0,0,0,0c0,0,0,0,0,0c-0.1,0-0.2,0-0.3,0c-0.3,0.1-0.5,0.4-0.3,0.8c0,0,0,0,0,0c0,0.1,0,0.2,0,0.3c0.2,0.3,0.3,0.6,0.4,1
					c0,0.1,0.1,0.2,0.2,0.3c0,0,0,0,0,0c0,0.3,0.1,0.5,0.4,0.8c0,0,0,0,0,0c0,0.2,0,0.5-0.1,0.7c-0.1,0.1-0.1,0.3-0.1,0.5
					c0,0,0,0,0,0h0c0,0,0,0,0,0c0,0-0.1,0-0.1,0.1c-0.2,0.2-0.3,0.4-0.3,0.6c-0.2,0.3-0.4,0.5-0.6,0.8c-0.2,0.4,0.1,0.9,0.6,0.8
					c0.6-0.1,1.1-0.6,1.4-1.1c0.1,0,0.2-0.1,0.3-0.2c0.2-0.2,0.2-0.3,0.1-0.6c0,0,0,0,0,0c0.3-0.4,0.5-0.9,0.4-1.6
					c0-0.2-0.3-0.3-0.5-0.3c0,0-0.1,0-0.1,0.1c-0.1-0.3-0.2-0.6-0.3-0.9c0.2-0.3,0.5-0.6,0.5-0.8c0,0,0-0.1,0-0.1
					c0.1,0,0.2,0,0.2-0.1c0.1,0.1,0.2,0.2,0.4,0.2c0.2,0,0.4-0.1,0.6-0.1c0.1,0.1,0.2,0.1,0.4,0.2c0.2,0.2,0.6-0.1,0.6-0.3
					C28.1,80,27.8,79.8,27.4,79.7z"/>
				<path fill="#402E20" d="M24.6,74.1c-0.1-0.2-0.3-0.4-0.4-0.6c0-0.1-0.1-0.1-0.2-0.2c0,0,0-0.1,0-0.1c0-0.1-0.1-0.1-0.1-0.2
					c0-0.1-0.1-0.2-0.1-0.2c0.1-0.2,0.2-0.2,0.2-0.4c0-0.3-0.1-0.5-0.3-0.6c0-0.1,0-0.2,0-0.4c0-0.5-0.7-0.5-0.7,0
					c0,0.1,0,0.2,0,0.4c0,0,0,0.1,0,0.1c0,0.1,0,0.1,0,0.2c0,0,0,0.1,0,0.1c-0.1,0.2-0.3,0.3-0.4,0.6c0,0.2,0,0.4,0,0.6
					c-0.1,0.3-0.2,0.6-0.4,0.8c-0.1,0.2-0.1,0.3-0.2,0.5c0,0-0.1,0.1-0.1,0.1c-0.1,0-0.2,0-0.2,0.1c-0.2,0.2-0.4,0.3-0.5,0.5
					c-0.1,0.1-0.2,0.2-0.3,0.3c-0.1,0.1-0.1,0.2-0.1,0.4c0,0.1-0.1,0.1-0.1,0.2c-0.2,0.2-0.4,0.4-0.6,0.7c-0.1,0.1-0.1,0.2-0.1,0.3
					c0,0,0,0,0,0c0,0,0,0,0,0c-0.1,0.1-0.1,0.2-0.2,0.3c-0.1,0.2,0,0.5,0.1,0.6c0,0.1,0.1,0.3,0.1,0.3c0,0.3,0.3,0.6,0.6,0.5
					c0.5-0.1,0.8-0.3,1.1-0.7c0,0,0,0,0-0.1c0.4-0.2,0.7-0.4,0.9-0.8c0-0.1,0-0.1,0-0.2c0.1-0.1,0.2-0.3,0.3-0.4
					c0.1,0,0.1-0.1,0.2-0.2c0.2-0.3,0.3-0.6,0.4-0.9c0.2,0,0.4-0.1,0.4-0.4c0-0.1,0-0.2,0-0.3c0.2-0.1,0.3-0.2,0.3-0.4
					C24.6,74.7,24.8,74.4,24.6,74.1z"/>
				<path fill="#402E20" d="M77,78.8C77,78.8,77,78.8,77,78.8c-0.1-0.5-0.4-1-1-1.1c-0.1,0-0.1,0-0.2,0c-0.5-0.3-1-0.4-1.5-0.4
					c-0.2,0-0.4,0.1-0.4,0.2c0,0,0,0-0.1,0c-0.2,0.1-0.4,0.3-0.4,0.5c-0.1,0-0.2,0.1-0.3,0.1c-0.2,0.1-0.1,0.4,0.1,0.4
					c0.2,0.1,0.3,0,0.6-0.1c0.1,0,0.1-0.1,0.1-0.1c0,0,0.1-0.1,0.1-0.1c0,0,0.1,0,0.1,0c0,0.1,0.1,0.2,0.2,0.2
					c0.1,0.1,0.3,0.1,0.5,0.1c0.2,0.1,0.4,0.2,0.6,0.3c0,0,0.1,0,0.1,0c0,0.1,0,0.1,0,0.2c0,0,0,0,0,0c0,0.1,0,0.2,0,0.2
					c0,0,0,0.1,0,0.1c-0.2,0.1-0.3,0.4-0.1,0.6c0.1,0.1,0.1,0.2,0.1,0.3c-0.1,0.1-0.1,0.3-0.2,0.5c0,0.2,0.1,0.3,0.3,0.4
					c0.1,0.1,0.4,0.2,0.6,0.1c0.2-0.1,0.3-0.2,0.4-0.4c0.1,0,0.1-0.1,0.2-0.2c0.1-0.1,0.1-0.2,0.1-0.3c0-0.1,0.1-0.2,0.1-0.3
					c0-0.1,0.1-0.1,0.1-0.2c0,0,0,0,0,0C77.1,79.7,77.1,79.2,77,78.8z"/>
				<path fill="#92623F" d="M81.8,57c0-0.1,0-0.1-0.1-0.2c0-0.1-0.1-0.1-0.1-0.2c-0.2-0.1-0.3-0.2-0.5-0.2c0,0,0,0,0,0c0,0,0,0,0,0
					c-0.1,0-0.2,0-0.3,0c-0.5-0.1-1,0.3-1.4,0.3c0.2-1.8-6.6-10.3-10.1-10.8c-2.7-0.4-6-1-8.3-2.6c-2.2-1.6-4.9-1.5-7-3.3
					c-2.9-2.5-6.9-2.9-9.1,0.7c-0.6,1-5.1,3.5-6.4,5c-0.7,0.8-1.4,1.7-2.3,2.3c-2.2,1.5-4.9,1.2-7.2,2.7c-3.2,2.1-4.5,4.8-5.7,8.3
					c-0.2,0.5-0.2,0.9-0.5,1c-0.2-0.1-0.4-0.2-0.5-0.3c-0.1-0.1-0.1-0.3-0.2-0.4c0.1-0.1,0.1-0.2,0.1-0.4c0-0.9,0.7-1.7-0.2-2.5
					c-0.6-0.6-1.6-0.5-2.4-0.3c-0.1,0-0.2,0-0.3,0c0,0,0,0,0,0c0,0,0,0,0,0c-0.2,0-0.3,0.1-0.5,0.2c-0.1,0-0.1,0.1-0.1,0.2
					c0,0.1,0,0.1-0.1,0.2c-1.8,1.5-3.1,3.3-2.7,5.9c0.2,1.7,1,3.7,2.6,4.5c1.1,0.6,2.4,0.4,3.6,0.3c0-0.1,0-0.1,0-0.2c0,0,0,0,0.1,0
					c0.2,0,0.5-0.1,0.6-0.2c1.5,7.4,5.2,15.7,11.6,19.2c7.3,4.1,16.1,6.7,24.3,3.4c7.6-3.1,14.7-9.4,17.4-17.4
					c0.6-1.9,1.1-3.8,1.5-5.7l0.1,1.1c0.2,0.2,0.4-0.1,0.6-0.2c0,0,0,0,0.1,0c0,0.1,0,0.1,0,0.2c1.2,0.2,2-0.1,3.2-0.7
					c1.6-0.8,2.4-2.4,2.6-4.1C84.4,60.3,83.6,58.6,81.8,57z"/>
				<g>
					<g>
						<path fill="#B01D2B" d="M48.3,11.2C48.2,11.2,48.2,11.2,48.3,11.2c-1,0.4-0.2,1.6,0.5,1c0,0,0.1,0,0.1-0.1
							C49.2,11.8,48.8,11,48.3,11.2L48.3,11.2z"/>
					</g>
				</g>
				<path fill="#402E20" d="M80.7,74.5c-0.1-0.2-0.2-0.3-0.4-0.4c-0.2-0.1-0.5-0.1-0.7-0.2c0-0.1,0-0.2-0.1-0.3
					c-0.3-0.4-0.7-0.6-1.1-0.9c0,0,0,0-0.1,0c0-0.1,0-0.2-0.1-0.3c-0.1-0.2-0.3-0.4-0.4-0.5c0-0.2-0.1-0.4-0.2-0.6
					c-0.1-0.4-0.7-0.5-0.9-0.1c-0.2,0.5-0.3,1.1-0.5,1.6c0,0,0,0,0,0c0,0,0,0,0,0c0,0,0,0,0,0c-0.4,0.3-0.4,1.2,0.3,1.2
					c0.2,0,0.4-0.1,0.6-0.1c0,0,0.1,0,0.1,0c0,0.1,0.1,0.1,0.2,0.1c0,0.1,0.1,0.3,0.3,0.3c0.1,0.1,0.3,0.1,0.4,0.2
					c0,0.1,0,0.2,0,0.3c0.1,0.3,0.3,0.5,0.5,0.6c0,0,0,0.1,0.1,0.1c0.1,0.2,0.4,0.2,0.6,0.2c0.1,0,0.2,0.1,0.3,0
					c0.2,0,0.4-0.1,0.6-0.2c0.1-0.1,0.3-0.1,0.5-0.1C80.8,75.3,80.9,74.8,80.7,74.5z"/>
				<path fill="#402E20" d="M83.3,46.2c0,0-2.1-6.3-3-8.9c-0.9-2.6-1.5-5.8-3.5-7.8c-1.6-1.7-3.5-3-5.6-4.1c-1.9-1-3.6-1.9-5.3-3.2
					c-1.7-1.4-6.2-4.4-8.6-2.7c-1.4,1-2.8,1.5-4.2,1.8l0-0.3c-1.7,0.2-3.2,0.4-4.7,0.2c-0.3,0-0.5-0.1-0.8-0.1c0,0-0.1,0-0.1,0
					c-0.1,0-0.1,0-0.2,0c0,0-0.1,0-0.1,0c-1.4-0.4-3.1-1.7-4.5-2c-2.5-0.8-6.3,1.8-7.9,3c-1.7,1.3-3.4,2.2-5.3,3.2
					c-2.1,1.1-4,2.4-5.6,4.1c-1.9,2.1-1.4,5.4-2.3,8.1c-0.8,2.6-2.9,5.7-3.6,8.3c-1.7,7.2,1.5,9.5,1.4,10.7c0.4-0.2,1-0.2,1.4-0.1
					c0.5,0.1,0.8,0.2,1.2,0.6c0.4,0.4,0.5,1,0.4,1.5c-0.1,0.6-0.2,1.1-0.1,1.7c0,0.1,0,0.1,0,0.2c0,0,0,0,0,0c0.1,0,0.2,0,0.3,0
					c0,0,0.1-0.1,0.1-0.1c0.7-0.7,1.1-1.8,1.3-3c0-0.1,0-0.2,0-0.3c0,0,0,0,0,0c0,0,0-0.1,0-0.1c0,0,0-0.1,0-0.1
					c0-0.4,0.1-0.7,0.1-1c0.7-1,1.4-2,2.2-2.9c1.3-1.4,2.7-2.2,4.4-2.9c1.2-0.5,2.5-0.4,3.6-0.8c2.4-1,3.3-3.5,5.5-4.5
					c2-0.9,3.4-2,4.7-3.6c0.9-0.3,1.8-0.8,2.7-1.6c0.6-0.5,1.5-1.1,2.4-1.3c0.4,0,0.8,0,1.2,0.1c0.9,0.1,2,0.7,2.7,1.3
					c1.9,1.6,3.6,1.8,5.7,2.6c1.8,0.7,10.2,7.8,11.4,8.3c1.7,0.8,3.1,1.6,4.4,2.9c0.8,0.9,1.6,1.9,2.2,2.9c0,0.3,0,0.7,0.1,1
					c0,0,0,0.1,0,0.1c0,0,0,0.1,0,0.1c0,0,0,0,0,0c0,0.1,0,0.2,0,0.3c0.2,1.2,0.6,2.3,1.3,3c0,0,0.1,0.1,0.1,0.1c0.1,0,0.2,0,0.3,0
					c0,0,0,0,0,0c0-0.1,0-0.1,0-0.2c0.1-0.6,0-1.1-0.1-1.7c-0.1-0.5,0-1.1,0.4-1.5c0.3-0.4,0.7-0.5,1.2-0.6c0.4,0,1-0.1,1.4,0.1
					C81.8,55.7,85,53.4,83.3,46.2z"/>
				<path fill="#402E20" d="M59.8,13.1c0-0.1,0-0.1,0-0.2c0,0,0,0,0,0c0,0,0,0,0,0c0.2-1.1,0-2-0.3-3c-0.1,0.1-0.2,0.2-0.3,0.3
					c-0.1,0.1-0.1,0.1-0.2,0.1c0-0.1,0-0.2,0-0.2c0-0.1,0-0.1,0-0.2c0,0,0.1,0,0.1-0.1c0.2,0,0.4-0.2,0.4-0.5c0-0.1,0-0.1,0-0.2
					c0,0,0.1-0.1,0.1-0.2c0.1-0.2,0.1-0.4,0.1-0.6c0,0,0,0,0,0c0,0,0,0,0,0c0-0.3-0.1-0.6-0.2-0.9c-0.4-1.7-3-2.8-5.2-3.1
					c-0.1-0.1-0.2-0.2-0.3-0.2c-1.1-0.1-2,0.3-3.1,0.7c-0.1,0-0.2,0.1-0.4,0.1c0,0-0.1,0-0.1-0.1C49.9,5,49.4,5,48.8,5
					c-2.3,0-5,1-6.3,3c-0.8,0.8-1.3,1.8-1.1,2.6c-0.2,0.7-0.2,1.4,0.2,2c0,0.3,0,0.5,0.1,0.8c0,0.1,0.1,0.2,0.2,0.2
					c0,0.1,0,0.2,0.1,0.3c0,0,0,0,0,0c-0.3,0.3,0.2,0.8,0.5,0.5c0,0,0.1,0,0.1-0.1c0.1,0,0.2,0,0.2-0.1c0.1,0,0.1,0,0.2-0.1
					c1.1-0.2,2.1-0.1,3.1,0.3c0.1,0,0.1,0,0.2,0c0,0,0.1,0.1,0.1,0.1c0.6,0.3,1.1,0.6,1.7,0.9c0,0,0,0,0,0c0.1,0.3,0.4,0.5,0.8,0.6
					c0,0.1,0.1,0.2,0.2,0.2c0.2,0.1,0.3,0.1,0.5,0.2c0.1,0.1,0.2,0.3,0.4,0.2c0.7,0,1.4,0.2,2.1,0.3c0.2,0,0.4,0,0.5-0.2
					c0.5,0,1-0.1,1.5-0.3c0.8,0,1.6-0.1,2.4,0c1.6,0.1,2.5-0.8,3-2.1c0.2-0.3,0.4-0.6,0.5-1C59.9,13.4,59.9,13.2,59.8,13.1z"/>
				<path fill="#B01D2B" d="M49,16.6c-1.1-0.5-2.1-1.2-3.2-1.7c0-0.1-0.1-0.2-0.2-0.3c-0.2-0.1-0.5-0.1-0.7-0.2
					c-0.1,0-0.2-0.1-0.3-0.1c-0.1,0-0.1,0-0.2,0c-0.1,0-0.2,0-0.2,0c0,0-0.1,0-0.1,0c-0.1,0-0.1,0-0.2,0c-0.1,0-0.1,0-0.2,0
					c-0.1,0-0.1,0-0.1,0c0,0,0,0-0.1,0c-0.1,0-0.2,0-0.2,0.1c-0.2,0.1-0.4,0.1-0.5,0.2c-0.6,0.1-1.2,0.3-1.6,0.7c0,0,0,0,0,0
					c0,0,0,0,0,0c0,0,0,0,0,0c-0.3,0.2-0.5,0.3-0.8,0.5c-0.4,0.4-0.7,0.9-0.8,1.4c0,0.6,0.6,0.7,0.7,1.1c0,0.2,0.2,0.3,0.3,0.3
					c0,0,0,0.1,0.1,0.1c1.5-0.5,3.1-0.5,4.5,0.7c3.4,2.9,9.1,1.7,12.4-0.3c0.7-0.5,1.5-0.6,2.3-0.5c0.2-0.8,0-1.3-0.6-1.6
					c0,0-0.1-0.1-0.1-0.1c0,0-0.1,0-0.1,0l0,0c0,0,0,0,0,0c-0.2-0.1-0.5-0.2-0.7-0.2c-0.1,0-0.1,0-0.2-0.1c-0.1,0-0.1,0-0.2,0
					c-0.6-0.1-1.2,0-1.8,0.1c-1.2,0.1-2.3,0.5-3.5,0.6c0,0-0.1,0-0.2-0.1c-0.4-0.1-0.9-0.1-1.3-0.2C50.3,17,49.7,16.8,49,16.6"/>
				<polygon fill="#212120" points="50.7,87.2 50.7,87.2 50.7,87.2 				"/>
				<path fill="#D4A284" d="M75.5,69.3c0-0.2-0.1-0.3-0.2-0.3c0,0,0,0,0,0c-0.1-0.1-0.2-0.1-0.2,0.1c-0.2,0.1-0.3,0.5-0.4,0.7
					c-0.2,0.4-0.4,0.9-0.5,1.3c-0.2,0.4-0.3,0.8-0.5,1.2c-0.2,0.4-0.6,0.9-0.8,1.4c-0.5,0.8-1,1.5-1.5,2.4c-0.3,0.4-0.6,0.8-0.8,1.3
					c0,0,0,0.1-0.1,0.1c-0.2,0.3-0.4,0.5-0.5,0.9c-1.2,1.4-2.6,2.7-3.5,4.3c-0.1,0.1-0.1,0.2-0.1,0.3c-0.1,0.3,0.3,0.7,0.6,0.5
					c2.7-2.5,5.9-5.8,7.5-10c0.4-0.7,0.6-1.4,0.8-2c0.1-0.3,0.1-0.7,0.2-1.1C75.5,70.1,75.5,69.7,75.5,69.3z"/>
				<path fill="#8C8279" d="M79.7,40.8c0-0.2-0.2-0.2-0.3,0c-0.6,1.8,0,3.6,0.5,5.4c0.3,1,0.6,2,0.8,3c0.3,1.6-0.3,2.6-0.9,4
					c-0.2,0.4,0.4,0.8,0.8,0.6C85,51.2,79.8,44.1,79.7,40.8z"/>
				<path fill="#66584D" d="M58.7,12.1c-1.7,0.8-3.5,0.7-5.3,1.2c-0.2,0.1-0.2,0.4,0.1,0.4c1.9-0.1,4,0.1,5.4-1.4
					C59,12.2,58.9,12,58.7,12.1z"/>
				<path fill="#714325" d="M62.3,87.7c-0.4,0.1-0.7,0.2-1.1,0.3c0,0,0.1,0,0.1,0c0,0,0.1,0.1,0,0.1c-0.2,0-0.4,0.1-0.6,0.1
					c-0.6,0.2-1.4,0.5-2.1,0.7c0,0,0,0,0,0c-0.6,0.2-1.3,0.3-1.9,0.4c0,0,0,0,0,0l-0.1,0c-0.4,0.1-0.7,0.2-1.1,0.2c0,0,0,0-0.1,0
					c-0.4,0-0.8,0.1-1.2,0.1c-0.6,0-1.3,0.1-1.9,0.1c-0.5,0-1,0-1.5,0c-1.8-0.3-3.7-0.5-5.6-0.8c-0.7,0-1.4-0.2-2-0.4
					c-0.3-0.1-0.7-0.3-1-0.5c-0.2-0.1-0.4-0.1-0.7-0.2c0,0,0,0,0,0c-0.6-0.2-1.3-0.4-1.9-0.6c-0.9-0.3-1.8-0.6-2.6-1.1
					c-0.4-0.2-0.7-0.4-1-0.6c-1.3-1.3-3-2.4-4.4-3.7c-0.5-0.5-0.9-1-1.3-1.5c-0.2-0.5-0.6-0.9-0.8-1.2c-0.2-0.3-0.4-0.6-0.7-0.8
					c0-0.1,0-0.2-0.1-0.3c-0.5-0.9-1.2-1.5-1.7-2.5c-0.8-1.5-1-3.3-1.7-4.7c-1.5-2.9-2-5.6-2.8-8.7c-0.1-0.3-0.5-0.2-0.5,0.1
					c0.2,1.4,0.2,2.9,0.3,4.4c0,0-0.1,0-0.1,0c0.1-0.5-0.2-1-0.8-0.9c-0.8,0.1-2.1-0.2-3.2-0.7c-0.3-0.3-0.5-0.5-0.8-0.8
					c-0.1-0.2-0.2-0.4-0.3-0.5c-0.2-0.4-0.4-0.9-0.6-1.3c0-0.2-0.1-0.4-0.2-0.4c-0.1-0.3-0.2-0.6-0.2-0.9c0-0.1-0.1-0.1-0.1,0
					c0,0.1,0,0.3,0,0.4c0,0-0.1,0-0.1,0.1c0,0.1,0,0.2,0,0.3c0,0,0,0,0,0.1c0,0,0,0,0,0c-0.1,0-0.1,0.1-0.1,0.2
					c-0.5,1.6,0.6,3.1,2.1,4.1c0,0,0,0.1,0,0.1c0,0.3,0.3,0.4,0.5,0.6c0.4,0.2,0.8,0.4,1.2,0.4c0,0,0.1,0,0.1,0
					c0.2,0.1,0.5,0.2,0.7,0.2c0.5,0.1,0.9,0.2,1.4,0.1c0.1,0,0.2-0.1,0.2-0.1c0.2,0.1,0.3,0.1,0.5,0.1c0.2,1,0.4,1.9,0.9,2.8
					c0.7,1.3,0.8,2.8,1.4,4.2c0.7,1.6,1.6,3,2.5,4.4c0.1,0.1,0.2,0.2,0.2,0.2c0.1,0.4,0.4,0.7,0.7,1c0.2,0.2,0.5,0.5,0.7,0.6
					c0.6,0.9,1.4,1.8,2.2,2.6c1.2,1.1,2.6,2.5,4.2,3.1c0.3,0.3,0.6,0.5,0.8,0.7c0.3,0.3,0.6,0.5,1,0.7c0.6,0.4,1.2,0.7,1.8,1
					c1.3,0.6,3.4,1.6,4.8,1.1c0.2,0.1,0.3,0.1,0.4,0.2c0.6,0.2,1.3,0.5,1.9,0.3c0,0,0,0,0,0c0.4,0.1,0.8,0.2,1.2,0.2
					c0,0,0.1,0,0.1-0.1c1.1,0.2,2.2,0.2,3.2,0.1c0.9,0.1,2,0.2,2.9-0.1c0.3,0,0.5-0.1,0.7-0.1c0.3,0,0.6-0.1,0.9-0.1
					c0.6,0,1.2-0.2,1.8-0.4c0.3-0.1,0.5-0.1,0.8-0.2c0.7-0.1,1.5-0.3,2-0.8c0.1,0,0.3-0.1,0.4-0.1c0.7-0.2,1.8-0.5,2.1-1.2
					C62.6,87.8,62.5,87.7,62.3,87.7z"/>
				<path fill="#714325" d="M77.7,66.8c0,0,0.1,0,0.1,0c-0.1-0.5,0.2-1,0.7-0.9c0.8,0.1,2-0.2,3-0.7c0.3-0.3,0.5-0.5,0.8-0.8
					c0.1-0.2,0.2-0.4,0.3-0.5c0.2-0.4,0.3-0.9,0.6-1.3c0-0.2,0.1-0.4,0.2-0.4c0.1-0.3,0.2-0.6,0.2-0.9c0-0.1,0.1-0.1,0.1,0
					c0,0.1,0,0.3,0,0.4c0,0,0.1,0,0.1,0.1c0,0.1,0,0.2,0,0.3c0,0,0,0,0,0.1c0,0,0,0,0,0c0,0,0.1,0.1,0.1,0.2
					c-0.3,3.9-2.2,4.6-2.4,4.7c-0.3,0.2-0.7,0.4-1.1,0.4c0,0-0.1,0-0.1,0c-0.2,0.1-0.4,0.2-0.6,0.2c-0.4,0.1-0.9,0.2-1.3,0.1
					c-0.1,0-0.2-0.1-0.2-0.1"/>
				<path fill="#352214" d="M53.8,21l0-0.3c-1.7,0.2-3.2,0.4-4.7,0.2c-0.3,0-0.5-0.1-0.8-0.1c0,0-0.1,0-0.1,0c-0.1,0-0.1,0-0.2,0
					c0,0-0.1,0-0.1,0c-1.4-0.4-3.1-1.7-4.5-2c-2.5-0.8-6.3,1.8-7.9,3C33.7,23.1,32,24,30.1,25c-2.1,1.1-4.2,2.2-5.6,4.1
					c-3,4.4-1.7,4.6-2.9,8.2c-1.1,3.4-1.5,3.2-3,8.1c-2,7.1,1,9.4,0.9,10.6c0.1,0,0.7,0,0.9,0c0,0.1,0.1,0.2,0.5,0.2
					c0.2,0,0.4,0.1,0.6,0.2c0.1,0.1,0.1,0.1,0.2,0.2c0.4,0.4,0.5,1,0.4,1.5c-0.1,0.6-0.2,1.1-0.1,1.7c0,0.1,0,0.1,0,0.2c0,0,0,0,0,0
					c0.1,0,0.2,0,0.3,0c0,0,0,0,0,0c0,0,0,0,0,0c0,0.1,0,0.1,0,0.2c0,0,0,0,0,0c0.1,0,0.2,0,0.3,0c0,0,0.1-0.1,0.1-0.1
					c0.7-0.7,1.1-1.8,1.3-3c0-0.1,0-0.2,0-0.3c0,0,0,0,0,0c0,0,0-0.1,0-0.1c0,0,0-0.1,0-0.1c0-0.4,0.1-0.7,0.1-1c0.7-1,2.2-2,3-2.9
					c1.3-1.4,2.7-2.2,4.4-2.9c1.2-0.5,2.5-0.4,3.6-0.8c2.4-1,3.3-3.5,5.5-4.5c0.1,0,0.2-0.1,0.3-0.1c-1.5-0.9-2.4-2.2-1.5-4
					c0.8-1.7-3.5-3.9-3.4-5.9c0.1-2.2,1.4-4.1,2.7-5.7c2-2.4,4.2-4.1,7.1-5.3c2.2-0.9,4.4-1.4,6.6-2.1c-0.5,0-1,0-1.4,0
					C52.8,21.1,53.8,21,53.8,21z"/>
				<path fill="#352214" d="M56.8,8.6c-2,1.3-5.6,1.2-7.2,0.6c-0.1,0-0.1-0.1-0.1-0.1C49.3,9,49.2,9,49.1,8.9
					c-0.1-0.1-0.2-0.2-0.3-0.3c0,0.1,0,0.3-0.1,0.4c-0.2,0.1-0.3,0.3-0.3,0.6c0.1,0.5,0.3,1,0.7,1.4c0.6,1,1.6,1.4,2.8,1.4
					c2.2,0,5.4-0.3,7-2.1c0,0,0-0.1,0-0.1C58.3,9.5,57.6,9,56.8,8.6z"/>
				<path fill="#352214" d="M59.8,13.1c0-0.1,0-0.1,0-0.2c0,0,0,0,0,0c0,0,0,0,0,0c0.1-0.5,0.1-1,0-1.5c-0.9,1.2-2.5,1.9-4,2.2
					c-1.8,0.4-4.4,0.8-6.1-0.2c-1.3-0.8-2.1-2.4-2.2-3.9c-0.1-0.3-0.1-0.5-0.1-0.7c0-0.7,0.1-1.3,0.5-1.9c-0.1-0.7,0.3-1.3,0.9-1.8
					c0,0,0,0,0,0c-2.3,0-5,1-6.3,3c-0.8,0.8-1.3,1.8-1.1,2.6c-0.2,0.7-0.2,1.4,0.2,2c0,0.3,0,0.5,0.1,0.8c0,0.1,0.1,0.2,0.2,0.2
					c0,0.1,0,0.2,0.1,0.3c0,0,0,0,0,0c-0.3,0.3,0.2,0.8,0.5,0.5c0,0,0.1,0,0.1-0.1c0.1,0,0.2,0,0.2-0.1c0.1,0,0.1,0,0.2-0.1
					c1.1-0.2,2.1-0.1,3.1,0.3c0.1,0,0.1,0,0.2,0c0,0,0.1,0.1,0.1,0.1c0.6,0.3,1.1,0.6,1.7,0.9c0,0,0,0,0,0c0.1,0.3,0.4,0.5,0.8,0.6
					c0,0.1,0.1,0.2,0.2,0.2c0,0,0.1,0,0.1,0c0.3-0.2,0.6-0.3,0.9-0.3c0,0.1,0.1,0.2,0.2,0.2c1,0.5,2.5,0.9,3.4,0.1c0,0,0,0,0,0
					c1.4,0,2.9,0,4.2-0.2c0.7-0.4,1.2-1,1.5-1.8c0.2-0.3,0.4-0.6,0.5-1C59.9,13.4,59.9,13.2,59.8,13.1z"/>
				<path fill="#A1121E" d="M40.1,18.4c0,0.2,0.2,0.3,0.3,0.3c0,0,0,0.1,0.1,0.1c1.5-0.5,3.1-0.5,4.5,0.7c2,1.7,4.7,2,7.3,1.5
					c0.3-0.1,0.6-0.2,0.9-0.4c-2-0.6-3.7-1.6-4.4-2.6c-0.4-0.6-0.2-1.2,0.2-1.5h0c-1.1-0.5-2.1-1.2-3.2-1.7c0-0.1-0.1-0.2-0.2-0.3
					c-0.2-0.1-0.5-0.1-0.7-0.2c-0.1,0-0.2-0.1-0.3-0.1c-0.1,0-0.1,0-0.2,0c-0.1,0-0.2,0-0.2,0c0,0-0.1,0-0.1,0c-0.1,0-0.1,0-0.2,0
					c-0.1,0-0.1,0-0.2,0c-0.1,0-0.1,0-0.1,0c0,0,0,0-0.1,0c-0.1,0-0.2,0-0.2,0.1c-0.2,0.1-0.4,0.1-0.5,0.2c-0.6,0.1-1.2,0.3-1.6,0.7
					c0,0,0,0,0,0c0,0,0,0,0,0c0,0,0,0,0,0c-0.3,0.2-0.5,0.3-0.8,0.5c-0.4,0.4-0.7,0.9-0.8,1.4C39.4,17.9,40,18,40.1,18.4z"/>
				<path fill="#66584D" d="M79.6,74.4c-0.3-0.3-0.7-0.5-1-0.7c-0.2-0.1-0.4,0.1-0.3,0.3c0.2,0.3,0.5,0.6,0.9,0.8
					c0.3,0.2,0.5,0.5,0.9,0.5c0.1,0,0.2-0.1,0.1-0.2C80.2,74.7,79.9,74.6,79.6,74.4z"/>
				<path fill="#66584D" d="M76.5,78.7c0-0.2-0.4-0.1-0.3,0c0,0.3,0.1,0.6,0.1,0.9c0,0.3-0.1,0.6,0,0.9c0,0.1,0.1,0.1,0.2,0
					C76.8,80,76.6,79.2,76.5,78.7z"/>
				<path fill="#66584D" d="M25.6,83.6c0-0.1-0.2-0.1-0.3,0c-0.1,0.3-0.1,0.7-0.2,1c-0.1,0.2-0.1,0.3-0.2,0.4c-0.1,0.1,0,0.2,0,0.3
					c0,0.1,0.1,0.1,0.2,0.1c0.1-0.1,0.2-0.1,0.3-0.2c0.1-0.2,0.2-0.4,0.2-0.5C25.7,84.3,25.7,83.9,25.6,83.6z"/>
				<path fill="#66584D" d="M22.9,76c-0.2,0.4-0.5,0.7-0.8,0.9c-0.3,0.2-0.6,0.5-0.8,0.8c0,0.1,0,0.1,0.1,0.1
					c0.3-0.1,0.6-0.4,0.9-0.7c0.3-0.3,0.6-0.7,0.8-1C23.1,76,22.9,75.9,22.9,76z"/>
				<g>
					<path fill="#212120" d="M36.1,58.4c-0.8,0.1-1.3,0.2-1.8,0.9c-0.8,1-0.7,2.6,0.7,3c1.1,0.4,2.8,0,3.2-1.1
						c0.4-1.1-0.7-2.5-1.8-2.7c-0.4-0.1-0.9,0-1.4,0.2"/>
					<path fill="#FFFFFF" d="M36.4,59c-0.6,0.2-1.9,1.1-0.8,1.9c2,1.3,2.8-1.5,0.9-1.9"/>
				</g>
				<g>
					<path fill="#212120" d="M65.3,58.4c-0.8,0.1-1.3,0.2-1.8,0.9c-0.8,1-0.7,2.6,0.7,3c1.1,0.4,2.8,0,3.2-1.1
						c0.4-1.1-0.7-2.5-1.8-2.7c-0.4-0.1-0.9,0-1.4,0.2"/>
					<path fill="#FFFFFF" d="M65.6,59c-0.6,0.2-1.9,1.1-0.8,1.9c2,1.3,2.8-1.5,0.9-1.9"/>
				</g>
				<g>
					<path fill="#212120" d="M22.1,62.4c-0.4,8,3.7,17.9,10.1,23c6.4,5.1,15.2,6.9,23.1,5.7c8.1-1.2,15.2-7.7,19.4-14.4
						c2.3-3.7,3-7.7,3.8-11.9c0.2-1.1,0.1-1.6-0.1-1.6c-0.1,0-0.4,1.8-0.6,2.6c-0.5,1.8-1.1,4.2-1.9,6.3
						c-2.7,7.8-9.7,14.1-17.2,17.1c-8.1,3.3-16.8,0.7-24-3.4c-7.7-4.3-11.4-15.3-12.2-23.5C22.3,62.2,22.1,62.2,22.1,62.4z"/>
				</g>
				<g>
					<path fill="#212120" d="M19.6,56c-3,1-4.5,4.2-3.8,7.3c0.6,2.6,3.5,6.4,6.5,4.3c0.1-0.1,0.1-0.3-0.1-0.3
						c-1.2,0.2-2.2,0.3-3.4-0.3c-1.6-0.8-2.4-2.8-2.6-4.4c-0.4-3,1.2-4.8,3.4-6.4C19.8,56.1,19.7,56,19.6,56L19.6,56z"/>
				</g>
				<g>
					<path fill="#714325" d="M19.2,60.6c-0.3,0.3-0.7,0.7-0.6,1.1c-0.1,0.4-0.1,0.8,0,1.2c0,0.1,0,0.2,0.1,0.3c0,0,0,0,0,0
						c0.1,0.1,0.2,0.2,0.3,0.2c0.1,0,0.1,0,0.2,0c0.1,0,0.1-0.1,0.1-0.1c0-0.1,0-0.1,0-0.2c0-0.1,0-0.1,0-0.2c0,0,0-0.1,0-0.1
						c0,0,0-0.1,0-0.1c0.1-0.1,0.1-0.3,0.2-0.5c0.1-0.3,0.2-0.7,0.1-1.1c0,0,0.1-0.1,0.1-0.1C19.8,60.7,19.4,60.3,19.2,60.6z"/>
					<g>
						<path fill="#212120" d="M19.2,60.5c-1.1,0.4-0.9,2.1-0.3,2.9c0.2,0.2,0.5-0.1,0.4-0.3c-0.3-0.7-0.5-1.8,0.1-2.4
							C19.3,60.6,19.3,60.4,19.2,60.5L19.2,60.5z"/>
					</g>
				</g>
				<g>
					<path fill="#212120" d="M47.9,63c0.8-0.5,1.4-0.9,2.3-0.9c0.8,0,1.7,0.4,2.4,0.8c0.2,0.1,0.3-0.1,0.2-0.3
						C51.5,61.4,48.9,61.1,47.9,63C47.8,62.9,47.9,63,47.9,63L47.9,63z"/>
				</g>
				<g>
					<path fill="#212120" d="M19.6,56.2c0.2,0.2,0.5,0.1,0.8,0.1c0.8,0,1.5,0.1,1.8,1c0.2,0.5-0.1,1.1-0.2,1.6
						c-0.1,0.4,0,0.8,0.2,1.2c0.1,0.2,0.4,0.1,0.3-0.1c-0.2-0.7,0-1.3,0-2c0.1-0.5,0-1.1-0.4-1.5c-0.3-0.4-0.7-0.5-1.1-0.6
						c-0.4,0-1.1-0.1-1.5,0.1C19.5,56.1,19.5,56.1,19.6,56.2L19.6,56.2z"/>
				</g>
				<g>
					<path fill="#212120" d="M40.6,18.9c-1.6-2.8,0.9-4.4,3.3-4.5c2,0,3.5,1.5,5.2,2.2c1.2,0.5,2,0.7,3.3,0.7c1.1,0,7.9-2,6.8,1.3
						c-0.1,0.3,0.4,0.6,0.6,0.2c1-1.9-0.3-2.9-2.2-3.1c-1.4-0.2-2.9,0.4-4.2,0.7c-3,0.7-5.4-1.3-8-2.4c-2.9-1.2-8.8,2.7-5,4.9
						C40.5,19.1,40.6,19,40.6,18.9L40.6,18.9z"/>
				</g>
				<g>
					<path fill="#212120" d="M59.2,9.5c0.4,1.2,0.7,2.3,0.5,3.6c-0.2,1.3-1,1.9-1.7,2.9c-0.1,0.2,0.1,0.3,0.3,0.3
						c2.4-1,2.5-5.1,1-6.8C59.3,9.4,59.1,9.4,59.2,9.5L59.2,9.5z"/>
				</g>
				<g>
					<path fill="#212120" d="M42.1,14.4c-0.2-1.4-0.9-2.6-0.6-4.2c0.6-3.3,4.1-4.9,7.1-4.9c1.2,0,2-0.1,3.1-0.5
						C54,3.9,62,6.1,58.5,9.9c-0.3,0.4,0.2,0.8,0.5,0.5c1.2-0.9,1.3-3.3,0.1-4.4c-2.3-2-4.6-3.1-7.5-1.9c-1.9,0.8-4,0.4-6,0.9
						c-1.3,0.3-2.2,1.4-3.1,2.3c-2.2,2.5-1.5,4.4-0.6,7.1C41.9,14.5,42.1,14.5,42.1,14.4L42.1,14.4z"/>
				</g>
				<g>
					<path fill="#212120" d="M58.8,9.8c-1.8,1.2-3.5,1.8-5.7,2c-1.2,0.1-2.3-0.1-3.3-0.7c-2.2-1.2-0.7-3.1,0.6-3.5
						c0.5-0.2,0.4-0.1,0.9-0.3c0.1-0.1,0.1-0.2,0-0.3c-2.3-1.4-4.6,2.8-2.4,4.5c2.5,1.8,8.6,1.7,10.1-1.4C59.2,9.9,59,9.6,58.8,9.8
						L58.8,9.8z"/>
				</g>
				<g>
					<path fill="#212120" d="M43.1,9c-0.2,0.7-0.3,1.8,0.7,2c0.4,0.1,0.7,0,1.1-0.2c0.3-0.1,0.5-0.3,0.8-0.4
						c0.3-0.1,0.5-0.1,0.8-0.2c0.1,0,0.1-0.2,0-0.2c-0.5-0.3-1.3,0.2-1.7,0.5c-0.5,0.3-1.1,0.3-1.3-0.3C43.2,9.8,43.2,9.3,43.1,9
						C43.1,9,43.1,9,43.1,9L43.1,9z"/>
				</g>
				<g>
					<path fill="#212120" d="M67.9,30.6c1.2-0.8,1.8,1,2.3,1.7c0.4,0.6,0.8,1.1,1.3,1.6c1.2,0.9,2.2,1,3.5,0.4
						c0.2-0.1,0.1-0.5-0.2-0.4c-2.5,0.8-3.5-1-4.8-2.7c-0.6-0.8-1.3-1.3-2.2-0.6C67.7,30.5,67.8,30.7,67.9,30.6L67.9,30.6z"/>
				</g>
				<g>
					<path fill="#212120" d="M40.6,31.7c-1.7-1.1-2.6,1.2-2.9,2.5c-0.1,0.6-0.2,1.1-0.3,1.7c-0.3,1.3-1.5,0.8-2.4,1
						c-1.2,0.3-1.6,1.4-2,2.5c0,0.1,0.1,0.2,0.2,0.1c0.3-0.5,0.7-0.9,1.1-1.3c1.1-1.3,1.3-0.2,2.2-0.4c0.7-0.2,1.1-0.5,1.4-1.2
						c0.8-1.9-0.1-4.3,2.7-4.6C40.7,31.8,40.7,31.7,40.6,31.7L40.6,31.7z"/>
				</g>
				<g>
					<path fill="#212120" d="M23,70.8c-0.4,1-0.6,2-1.1,2.9c-0.4,0.9-1.3,1.7-1.9,2.5c-0.5,0.6-1.4,2.5-0.3,3.1
						c1,0.5,1.9-0.2,2.6-0.8c0.9-0.9,2.7-2.5,2.1-3.9c0-0.1-0.2-0.1-0.2,0c-0.6,1.1-0.9,2-1.7,3c-0.3,0.3-0.6,0.6-0.9,0.9
						c-0.7,0.8-1.3,0.5-1.7-0.7c0.1-0.4,0.3-0.8,0.6-1.1c0.6-0.9,1.4-1.6,1.9-2.5c0.5-0.9,0.8-2.1,0.9-3.1
						C23.3,70.7,23,70.7,23,70.8L23,70.8z"/>
				</g>
				<g>
					<path fill="#212120" d="M27.1,79.3c-0.8,0.1-1.7-0.6-2.5-0.3c-0.8,0.2-1.3,0.8-1.3,1.6c0,1,1.4,1.9,0.8,3
						c-0.4,0.7-1,1.4-1.1,2.2c-0.3,1.6,2.4,0.4,2.8-0.2c0.6-0.8,0.8-1.7,0.6-2.6c-0.1-0.5-1.2-1.8,0.1-1.9c0.8-0.1,1.4,0.3,2.1,0.6
						c0.1,0,0.2-0.1,0.1-0.1c-0.3-1-2.8-1.5-3.4-0.6c-0.3,0.5-0.1,0.9,0.2,1.4c0.4,0.7,0.5,1.4,0.2,2.2c-0.1,0.4-0.3,0.7-0.6,1
						c-0.1,0.1-1.7,1-1.6,0.3c0.2-1.2,1.6-2,1-3.3c-0.3-0.6-0.6-1.1-0.8-1.7c-0.7-2,1.8-1.3,2.5-1.2C26.6,79.7,27.1,79.8,27.1,79.3
						C27.2,79.3,27.2,79.3,27.1,79.3L27.1,79.3z"/>
				</g>
				<g>
					<path fill="#212120" d="M73.1,78.9c1-0.5,2.1-0.2,2,1.1c-0.1,0.5-0.2,1,0.2,1.5c0.3,0.3,0.9,0.3,1.2,0.2
						c0.4-0.1,0.6-0.5,0.7-0.9c0.3-0.8,0.3-2.2-0.3-2.8c-0.5-0.6-2.6-2-3.2-1c0,0.1,0,0.2,0.1,0.3c0.4,0.2,0.9,0.1,1.4,0.3
						c0.6,0.2,1.2,0.6,1.4,1.2c0.2,0.7,0.4,2.8-0.8,2.5c-0.5-0.1-0.2-1.4-0.3-1.8c0-0.3-0.2-0.6-0.4-0.8
						C74.6,78.3,73.4,78.1,73.1,78.9C73,78.9,73.1,78.9,73.1,78.9L73.1,78.9z"/>
				</g>
				<g>
					<path fill="#212120" d="M75.5,74.4c1.3-0.9,2,0.1,3,1c0.6,0.6,1.3,0.9,2.1,0.4c0.9-0.7,0.2-1.7-0.4-2.2c-0.4-0.4-1-0.7-1.4-1.1
						c-0.7-0.6-0.8-1.6-1.3-2.3c-0.3-0.4-0.8-0.1-0.6,0.3c0.6,1,0.9,2.1,1.8,2.8c0.5,0.4,1,0.7,1.4,1.1c0.7,0.7-0.2,1.3-0.8,0.9
						c-1.1-0.6-2.5-2.8-3.9-1.1C75.4,74.4,75.5,74.5,75.5,74.4L75.5,74.4z"/>
				</g>
				<path opacity="0.3" fill="#CF9182" d="M28.9,62.9c-0.1,0.1-0.2,0.1-0.2,0.2c-0.5,0.2-0.9,0.5-1.3,0.9c0,0,0,0,0,0
					c-0.1,0.1-0.2,0.3-0.3,0.5c0,0,0,0,0,0c0,0.1-0.3,1.1,0.5,1.8c0.7,0.6,2.5,0.7,3.4,0.7c0.8,0.1,1.7,0,2.4-0.2
					c1.6-0.1,3.2-0.4,3.8-1.7C38.4,62.2,30.7,61.9,28.9,62.9z"/>
				<path opacity="0.3" fill="#CF9182" d="M73.6,64.1c0-0.2-0.1-0.4-0.4-0.5c-0.1-0.1-0.2-0.2-0.5-0.3c-0.3-0.1-0.6-0.1-1-0.2
					c-0.5-0.3-1.1-0.5-1.8-0.5c-2.5-0.5-6,0.3-6.1,2.4c0,2.5,4,2.1,5.7,1.8c0.2,0,0.4-0.1,0.6-0.1c0.3,0,0.7,0,0.9-0.1
					c0.3-0.1,0.6-0.2,0.8-0.4c0.4-0.1,0.8-0.3,1.1-0.5c0.2-0.1,0.4-0.3,0.4-0.5C73.9,64.9,73.9,64.5,73.6,64.1z"/>
				<g>
					<path fill="#212120" d="M19.6,56.1c0.2-1.8-1.3-3.5-1.3-5.2c-0.1-4.2,0.5-3.8,0.9-6.4c0.4-2.7,1.7-4.4,2.4-6.7
						c0.4-1.4,0.3-3.1,0.9-4.6c1.1-2.8,2.1-4.2,5.4-6.5c1.5-1.1,5-2.1,6.5-3.3c2.1-1.8,4.2-3.2,6.8-4.1c1.9-0.6,4.2,1.8,6.2,2.1
						c3.7,0.4,6.6,0.7,9.8-1.6c2.4-1.7,6.8,1.3,8.5,2.7c1.6,1.3,3.4,2.2,5.2,3.2c2.1,1.1,3.9,2.4,5.5,4.1c1.9,2,2.6,5.1,3.4,7.7
						c0.8,2.6,1.7,5.8,2.4,8.4c1.6,6.7-0.7,8.5-0.9,11.3c0,0.4,0.6,0.4,0.6,0c0.3-2.9,2.9-2.6,0.9-11.3c-0.7-2.9-1.9-5.7-2.4-8.6
						c-0.7-4.3-3.1-8.1-6.7-10.6c-1.9-1.4-4.1-2.2-6.1-3.4c-2.2-1.3-3.7-2.9-6.1-3.7c-1.6-0.6-3.1-1.1-4.7-0.2
						c-3.2,2-8.8,3.2-12.1,0.3c-2.8-2.4-6.6,0.2-9,2c-3.5,2.6-12.3,5.4-13.7,9.9c-0.4,1.4-0.5,3.9-1.3,6.4c-0.9,2.8-2.4,5.6-2.6,7
						c-0.2,1.6-1.1,3.7-0.9,5.4c0.4,4.5,2.1,4.9,2.1,6C19.4,56.2,19.6,56.2,19.6,56.1L19.6,56.1z"/>
				</g>
				<g>
					<path fill="#714325" d="M80.9,60.9c0.3,0.3,0.7,0.7,0.6,1.1c0.1,0.4,0.1,0.8,0,1.2c0,0.1,0,0.2-0.1,0.3c0,0,0,0,0,0
						c-0.1,0.1-0.2,0.2-0.3,0.2c-0.1,0-0.1,0-0.2,0c-0.1,0-0.1-0.1-0.1-0.1c0-0.1,0-0.1,0-0.2c0-0.1,0-0.1,0-0.2c0,0,0-0.1,0-0.1
						c0,0,0-0.1,0-0.1c-0.1-0.1-0.1-0.3-0.2-0.5c-0.1-0.3-0.2-0.7-0.1-1.1c0,0-0.1-0.1-0.1-0.1C80.2,60.9,80.7,60.6,80.9,60.9z"/>
					<g>
						<path fill="#212120" d="M80.9,60.7c1.1,0.4,0.9,2.1,0.3,2.9c-0.2,0.2-0.5-0.1-0.4-0.3c0.3-0.7,0.5-1.8-0.1-2.4
							C80.7,60.9,80.8,60.7,80.9,60.7L80.9,60.7z"/>
					</g>
				</g>
				<path fill="#212120" d="M80.3,56.3c-1.9,0.2-1.5,2-1.8,2.8c-0.2,0.4-0.5-0.6-0.8-1.7c-0.1-0.3-0.2-0.5-0.3-0.8
					c0.1,0.1,0.2,0-0.2-0.9c-2.1-4.1-6.8-6.2-9.1-7.9c-1.7-1.3-2.8-2.8-3.8-3.1c-1.9-0.6-3.4-2.5-5.2-3.1c-2.2-0.8-3.6-0.7-5.5-2.3
					c-0.7-0.6-1.9-1.5-2.9-1.6c-2.1-0.3-5.7,1.5-6.9,3.4c-1.3,2.1-2.7,2.4-4.7,3.7c-2,1.3-2.2,3.1-4.6,4.1c-1.2,0.5-2.4,0.3-3.6,0.8
					c-1.7,0.7-3.1,1.6-4.3,2.9c-0.9,0.9-1.6,1.9-2.3,3c-0.6,0.9-0.8,4.6-1.9,4.7c0,0-0.1,0.1,0,0.1c0.8,0.1,0.9-0.5,1.1-1.2
					c1.2-3.4,2.5-6.2,5.7-8.2c2.3-1.5,5-1.1,7.1-2.7c0.8-0.6,1.5-1.5,2.3-2.3c1.4-1.5,3-1.5,4.4-2.6c0.9-0.7,1.1-1.6,1.9-2.3
					c2.9-2.4,6.1-3.1,9-0.7c2,1.7,4.7,1.7,6.9,3.2c2.3,1.6,7.9,6.1,10.5,7.1c2.1,0.8,4.1,3.4,5.4,5c0.1,0.6,0.7,2.2,0.9,3.1
					c0.4,1.2,0.8,1.7,1.1,1.9c0.8,0.5,0.3,0,0.5-3c0-0.3,0.6-0.8,1.5-0.9c1.1-0.2,3.4,3.1,3,5.8c-0.2,1.6-1,3.6-2.6,4.4
					c-1.1,0.6-2.2,0.4-3.4,0.3c-0.2,0-0.2,0.2-0.1,0.3c2.9,2.1,5.9-1.7,6.5-4.3C84.9,60.3,82.7,56.1,80.3,56.3z"/>
				<g>
					<path fill="#714325" d="M36,50.6c-0.5-0.4-1.5-0.1-2.1,0.1c-0.8,0.2-1.5,0.7-2.2,1.2c-0.4,0.3,0.2,1,0.6,0.6
						c0.5-0.5,1.1-0.8,1.8-1.1c0.4-0.1,0.8-0.2,1.2-0.3c0.3,0,0.5,0,0.7-0.1C36.2,50.9,36.1,50.7,36,50.6z"/>
					<g>
						<path fill="#212120" d="M32.9,52.4c0.6,0.1,1.3-0.2,2-0.3c0.9-0.2,1.7-0.5,2.6-0.7c0.4-0.1,0.3-0.6-0.1-0.6
							c-1,0-1.8,0-2.8,0.3c-0.6,0.2-1.4,0.5-1.8,1.1C32.7,52.3,32.7,52.4,32.9,52.4L32.9,52.4z"/>
					</g>
				</g>
				<g>
					<path fill="#714325" d="M66,51.3C66,51.4,66,51.4,66,51.3c0,0,0,0-0.1,0c-0.1-0.1-0.3-0.1-0.5-0.1c-0.4-0.1-0.9-0.1-1.3-0.2
						c-0.6-0.1-1.7-0.5-2.3-0.2c-0.2,0.1-0.3,0.5,0,0.7c0.5,0.3,1.4,0.3,1.9,0.4c0.7,0.1,1.4,0.2,2,0.1c0.2,0,0.3-0.1,0.3-0.3
						c0,0.2,0.1,0,0.1,0C66.3,51.5,66.2,51.3,66,51.3z"/>
					<g>
						<path fill="#212120" d="M67.6,51.3c-0.4-0.6-1.2-0.9-1.8-1c-1-0.3-1.8-0.3-2.8-0.2c-0.4,0-0.4,0.6,0,0.6
							c0.9,0.2,1.8,0.4,2.6,0.6c0.6,0.1,1.3,0.4,2,0.2C67.6,51.6,67.6,51.4,67.6,51.3L67.6,51.3z"/>
					</g>
				</g>
				<g>
					<path fill="#99867E" d="M62.8,70.3c-4.3,1.9-21.2,0.3-24.7-0.5c-0.2,2.1,0.1,12,10.9,12.2C57.6,82.1,62.1,76,62.8,70.3z"/>
					<g>
						<path fill="#CA6273" d="M50.9,74.9c-3.6,0.3-6.6,1.7-9.1,4.1c0,0,0,0.1,0,0.1c0,0-0.1,0.1-0.1,0.1c0,0,0,0,0,0c0,0,0,0,0,0
							c1.1,1.2,2.5,2.2,4.2,2.5c3.3,0.7,7.3-0.1,10.5-1.6c1-0.5,2-1,2.9-1.7C57.1,76.4,54.6,74.5,50.9,74.9z"/>
						<path fill="#9F3D50" d="M52.4,74.7c-1.8,0-3.7,0.5-5.5,1.2c-0.1-0.1-0.3-0.1-0.5-0.1c-0.4,0.1-0.7,0.3-1.1,0.5
							c-0.4,0.3-0.8,0.5-1.2,0.8c-0.3,0.2-0.6,0.4-0.8,0.7c-0.1,0.1-0.1,0.1-0.2,0.2c-0.3,0.2-0.7,0.5-0.9,0.9
							c-0.2,0-0.5,0.2-0.5,0.4c0,0.1,0,0.1,0,0.2c0,0.2,0.2,0.2,0.3,0.3c0,0,0,0,0,0c0,0,0,0,0,0c0,0.1,0.1,0.2,0.2,0.3
							c0.9,1.3,2.5,1.8,4.3,2c0.3,0,0.7-0.3,0.7-0.5c-0.1-2.4,2.9-4.8,5.2-5.8C53.1,75.4,52.9,74.7,52.4,74.7z"/>
						<path fill="#D5808D" d="M56.2,77.2c-0.3-0.1-0.6-0.1-0.9,0c-0.3,0.1-0.2,0.5,0.1,0.5c0.4,0,0.6,0.3,1,0.4
							c0.2,0,0.6-0.1,0.6-0.3C56.9,77.4,56.6,77.3,56.2,77.2z"/>
						<g>
							<path fill="#212120" d="M42,79c2.4-2.3,5.3-3.6,8.7-3.9c3.6-0.3,6.1,1.6,8.1,3.7c0.2,0.2,0.6,0,0.5-0.2
								c-0.9-2.8-4.5-4-7.7-4.2c-3.7-0.2-7.5,2-9.8,4.5C41.8,79,41.9,79.1,42,79L42,79z"/>
						</g>
					</g>
					<g>
						<g>
							<path fill="#212120" d="M38.1,70c3.4,1.3,7.5,1.3,11,1.6c4.7,0.4,9.2,0,13.7-1.2c0.4-0.1,0.2-0.7-0.2-0.7
								c-4.6,0.5-8.7,1.3-13.4,1c-3.6-0.2-7.5-0.1-11-1C38,69.6,38,69.9,38.1,70L38.1,70z"/>
						</g>
						<g>
							<path fill="#212120" d="M38.1,69.8c-1,3.4,0.8,7.3,3.1,9.8c2.4,2.6,6.8,3.1,10.1,2.6c6.8-0.9,12.5-5.4,12-12.2
								c-0.1-0.9-0.8-0.7-0.7,0.2c0.3,5.7-3.8,9.4-9.5,10.9c-3.2,0.8-7.1,0.7-10-0.9c-3.4-1.8-4.9-6.8-4.5-10.4
								C38.5,69.6,38.1,69.6,38.1,69.8L38.1,69.8z"/>
						</g>
					</g>
				</g>
			</g>
			<path fill="#1A1A19" d="M51,109.5c-3,0.1-5.8-0.2-8.3-1.9c-2.4-1.5-4.2-3.9-5.1-6.6c-0.2-0.7-0.5-1.4-1-2c0,0,0.1,0.1,0.1,0.1
				c4.3,0,7-4.4,6.6-8.4c0-0.2-0.3-0.2-0.3,0c-0.1,2-0.7,4-2.1,5.5c-1.4,1.5-2.5,2-4.3,2.5c-0.2,0-0.2,0.2-0.1,0.3
				c-0.5-0.6-1.2-1-2.2-0.9c-1.6,0.1-2.7,1.8-2.5,3.3c0,0.1,0.2,0.5,0.2,0.4c-0.1-1.8,1.8-3.9,3.5-3c1.2,0.6,1.3,2.2,1.8,3.4
				c0.7,1.7,1.7,3.2,3,4.4c2.7,2.6,6.8,4.1,10.6,3.4C51.4,110,51.3,109.5,51,109.5z"/>
			<path fill="#1A1A19" d="M48.5,109.5c3,0.1,5.8-0.2,8.3-1.9c2.4-1.5,4.2-3.9,5.1-6.6c0.2-0.7,0.5-1.4,1-2c0,0-0.1,0.1-0.1,0.1
				c-4.3,0-7-4.4-6.6-8.4c0-0.2,0.3-0.2,0.3,0c0.1,2,0.7,4,2.1,5.5c1.4,1.5,2.5,2,4.3,2.5c0.2,0,0.2,0.2,0.1,0.3
				c0.5-0.6,1.2-1,2.2-0.9c1.6,0.1,2.7,1.8,2.5,3.3c0,0.1-0.2,0.1-0.2,0c0.1-1.8-1.8-3.6-3.6-2.7c-1.2,0.6-1.3,2.2-1.8,3.4
				c-0.7,1.7-1.7,3.2-3,4.4c-2.7,2.6-6.8,4.1-10.6,3.4C48.1,110,48.1,109.5,48.5,109.5z"/>
			<path fill="#1A1A19" d="M48.7,97.2c-1.6-0.2-3.3-0.2-5-0.2c-0.2,0-0.2,0.3,0,0.3c1.6,0.2,3.3,0.3,5,0.3
				C49,97.6,48.9,97.2,48.7,97.2z"/>
			<path fill="#1A1A19" d="M55.1,96.5c-1.2,0.2-2.5,0.5-3.7,0.8c-0.2,0.1-0.1,0.4,0.1,0.3c1.2-0.2,2.5-0.4,3.7-0.7
				C55.5,96.8,55.4,96.4,55.1,96.5z"/>
			<path d="M32.2,99.8c-6.6,0.6-10.1,6.4-11.8,11.9c0,0.1,0.3,0.3,0.3,0.2c1.5-5.5,5.1-11,11.3-11.8C32.4,100.1,32.5,99.8,32.2,99.8
				z"/>
			<path d="M67.6,99.8c6.6,0.6,10.1,6.4,11.8,11.9c0,0.1-0.3,0.3-0.3,0.2c-1.5-5.5-5.1-11-11.3-11.8C67.4,100.1,67.3,99.8,67.6,99.8
				z"/>
		</g>
	</g>
</g>
<g id="globo">
</g>
</svg>
