<?xml version="1.0" encoding="utf-8"?>
<!-- Generator: Adobe Illustrator 18.1.0, SVG Export Plug-In . SVG Version: 6.00 Build 0)  -->
<svg version="1.1" id="Capa_1" xmlns="http://www.w3.org/2000/svg" xmlns:xlink="http://www.w3.org/1999/xlink" x="0px" y="0px"
	 viewBox="0 0 302.48 451.06" style="enable-background:new 0 0 302.48 451.06;" xml:space="preserve">
<style type="text/css">
	.st0{opacity:0.72;fill:#424242;}
	.st1{fill:#F5F5F5;}
	.st2{fill:#E0E0E0;}
	.st3{fill:#BDBDBD;}
	.st4{fill:#F57F17;}
	.st5{fill:#616161;}
	.st6{fill:#FDD835;}
	.st7{fill:#FFEE58;}
	.st8{fill:#1D1E1C;}
	.st9{fill:#BA68C8;}
	.st10{fill:#FEF8C5;}
	.st11{fill:#FEF077;}
	.st12{opacity:0.14;fill:#616261;}
	.st13{clip-path:url(#SVGID_2_);}
	.st14{fill:#A2704D;}
	.st15{fill:#8C5D3C;}
	.st16{fill:#1D1D1B;}
	.st17{fill:#EF6D3F;}
	.st18{fill:#DB572E;}
	.st19{opacity:0.3;fill:#F5F5F5;}
	.st20{fill:#5DACBD;}
	.st21{fill:#57A1AD;}
	.st22{fill:#EFE9B4;}
	.st23{fill:#F9F7E1;}
	.st24{fill:#6B432B;}
	.st25{opacity:0.2;fill:#FFFFFF;}
	.st26{fill:#B78767;}
	.st27{opacity:0.3;}
	.st28{fill:#D19384;}
	.st29{fill:#FFFFFF;}
	.st30{fill:#A03C50;}
	.st31{fill:#CB6272;}
	.st32{clip-path:url(#SVGID_4_);}
	.st33{fill:#8E24AA;}
	.st34{clip-path:url(#SVGID_6_);}
	.st35{fill:#4B2504;}
	.st36{fill:#8DCBCF;}
	.st37{clip-path:url(#SVGID_8_);}
	.st38{fill:#7FC4C7;}
	.st39{fill:#C6C5C3;}
	.st40{opacity:0.3;fill:#FFFFFF;enable-background:new    ;}
	.st41{fill:#1F140F;}
	.st42{fill:#7A3481;}
	.st43{clip-path:url(#SVGID_10_);fill:#692872;}
	.st44{fill:#D9A08C;}
	.st45{fill:#E1AC97;}
	.st46{clip-path:url(#SVGID_12_);fill:#692872;}
	.st47{clip-path:url(#SVGID_14_);fill:#692872;}
	.st48{clip-path:url(#SVGID_16_);fill:#692872;}
	.st49{clip-path:url(#SVGID_18_);fill:#D9A08C;}
	.st50{fill:#692872;}
	.st51{clip-path:url(#SVGID_20_);fill:#D9A08C;}
	.st52{clip-path:url(#SVGID_22_);fill:#D9A08C;}
	.st53{clip-path:url(#SVGID_24_);fill:#D9A08C;}
	.st54{fill:#D31876;}
	.st55{fill:#D38E82;}
	.st56{fill:#993B4E;}
	.st57{fill:#C05F6E;}
	.st58{clip-path:url(#SVGID_26_);}
	.st59{clip-path:url(#SVGID_28_);}
	.st60{clip-path:url(#SVGID_30_);fill:#692872;}
	.st61{clip-path:url(#SVGID_32_);fill:#692872;}
	.st62{clip-path:url(#SVGID_34_);fill:#692872;}
	.st63{clip-path:url(#SVGID_36_);fill:#692872;}
	.st64{clip-path:url(#SVGID_38_);fill:#D9A08C;}
	.st65{clip-path:url(#SVGID_40_);fill:#D9A08C;}
	.st66{clip-path:url(#SVGID_42_);fill:#D9A08C;}
	.st67{clip-path:url(#SVGID_44_);fill:#D9A08C;}
	.st68{clip-path:url(#SVGID_46_);}
	.st69{clip-path:url(#SVGID_48_);}
	.st70{clip-path:url(#SVGID_50_);fill:#692872;}
	.st71{clip-path:url(#SVGID_52_);fill:#692872;}
	.st72{clip-path:url(#SVGID_54_);fill:#692872;}
	.st73{clip-path:url(#SVGID_56_);fill:#692872;}
	.st74{clip-path:url(#SVGID_58_);fill:#D9A08C;}
	.st75{clip-path:url(#SVGID_60_);fill:#D9A08C;}
	.st76{clip-path:url(#SVGID_62_);fill:#D9A08C;}
	.st77{clip-path:url(#SVGID_64_);fill:#D9A08C;}
	.st78{fill:#1565C0;}
	.st79{clip-path:url(#SVGID_66_);}
	.st80{fill:#CA8C63;}
	.st81{fill:#B67655;}
	.st82{fill:#3C4C9B;}
	.st83{fill:#29398D;}
	.st84{fill:#DCAE8D;}
	.st85{fill:#7985C1;}
	.st86{fill:#925F36;}
	.st87{fill:#C89E7D;}
	.st88{fill:#7E4E24;}
	.st89{fill:#B71E1E;}
	.st90{opacity:0.3;fill:#FFFFFF;}
	.st91{fill:#98191B;}
	.st92{fill:#E67373;}
	.st93{fill:#701518;}
	.st94{opacity:0.8;fill:#D07475;}
	.st95{clip-path:url(#SVGID_68_);}
	.st96{clip-path:url(#SVGID_70_);}
	.st97{fill:#5D4037;}
	.st98{clip-path:url(#SVGID_72_);}
	.st99{fill:#C79B66;}
	.st100{fill:#7E665F;}
	.st101{fill:#DEC3A2;}
	.st102{fill:#96774D;}
	.st103{fill:#452F28;}
	.st104{fill:#CC9B6B;}
	.st105{fill:#F3B980;}
	.st106{fill:#B68A60;}
	.st107{fill:#1C1C1B;}
	.st108{fill:#FFD600;}
	.st109{fill:#F8B032;}
	.st110{fill:#916036;}
	.st111{fill:#FFEB85;}
	.st112{fill:#BD9E85;}
	.st113{fill:#6E4729;}
	.st114{fill:none;stroke:#E4332A;stroke-miterlimit:10;}
	.st115{fill:#F19004;}
	.st116{fill:#EFEFEF;}
	.st117{fill:#F7D4B2;}
	.st118{fill:#2F1D19;}
	.st119{fill:#1F1412;}
	.st120{fill:#5A4A48;}
	.st121{opacity:0.8;}
	.st122{fill:#DA9085;}
	.st123{fill:#E1F2FC;}
	.st124{fill:#848585;}
	.st125{fill:#CC6273;}
	.st126{fill:#B0B0B0;}
	.st127{fill:#A1877F;}
	.st128{fill:#A13D51;}
	.st129{fill:#E0A0AB;}
	.st130{clip-path:url(#SVGID_74_);}
	.st131{clip-path:url(#SVGID_76_);}
	.st132{clip-path:url(#SVGID_78_);}
</style>
<g>
	<g>
		<defs>
			<rect id="SVGID_67_" x="7.34" y="-509.05" width="302.48" height="451.06"/>
		</defs>
		<clipPath id="SVGID_2_">
			<use xlink:href="#SVGID_67_"  style="overflow:visible;"/>
		</clipPath>
		<g class="st13">
			<g>
				<path class="st29" d="M151.5,24.63c0.3-17.92,0.34-35.85,0.28-53.78l-1.04,0.21c-0.09-0.03-0.19-0.03-0.3,0.03
					c-7.85,4.38-18.4,5.06-26.77,1.63l-1.39-0.2c1.06,11.42,3.33,30.07,5.73,42.31c-0.47,0.23-0.9,0.53-1.25,0.91
					c-0.07,0.07-0.08,0.16-0.07,0.24c-0.79,1.55-0.4,3.65,0.06,5.24c0.34,1.18,1.1,3.15,2.31,3.86c-4.2,3.25-7.32,8.96-10.05,13.41
					c-2.7,4.41-5.58,8.75-5.72,14.15c-0.26,9.96,7.59,13.43,16.63,10.38c0.13,0.07,9.35-6.52,14.45-11.26
					c3.57-3.33,7.14-5.72,9.68-10.13c0.98-0.62,2.06-3.29,2.08-3.32c1.43-2.5,0.75-6.14-0.16-8.66
					C155.24,27.63,153.8,25.01,151.5,24.63z"/>
				<path class="st29" d="M177.88,28.15c-0.9,2.53-2.19,7.22-0.76,9.73c0.02,0.03,0.05,0.02,0.07,0.03
					c1.19,4.98,6.15,8.79,9.72,12.11C192,54.77,197.4,60,203.54,63.36c0.15,0.08,0.3,0.04,0.43-0.03
					c9.04,3.05,15.96-2.65,15.96-10.11c0-5.41-3.64-10.83-6.34-15.24c-2.72-4.45-6.37-11.15-10.57-14.4
					c1.2-0.71,1.96-2.68,2.31-3.86c0.46-1.59,0.84-3.69,0.06-5.24c0.01-0.08,0-0.17-0.07-0.24c-0.36-0.38-0.78-0.68-1.25-0.91
					c2.4-12.24,4.34-42.11,4.34-42.11c-8.38,3.43-18.92,4.52-26.77,0.15c-0.11-0.06-0.21-0.06-0.3-0.03l-1.04-0.21
					c-0.06,17.93,1.76,34.09,2.05,52C180.03,23.52,178.6,26.14,177.88,28.15z"/>
				<path class="st3" d="M132.48-25.25c-2.2,0-7.08-0.85-8.53-1.23c-1.05-0.27-1.01,4.59-0.12,5.94c-0.01,0.53,0.02,1.09,0.13,1.69
					c1.82,9.54,2.95,23.01,4.37,32.93c0.27,1.89,4.58,0.93,6.92,1.73c-0.14-5.75-1.64-19.13-1.68-23.78
					C133.55-9.83,132.69-18.59,132.48-25.25z"/>
				<path class="st3" d="M184.55-27.58c-0.72-0.18-4.18-1.66-4.48-2c0,0-0.25,3.41-0.2,4.67c0.49,14.87,0.81,34.77,2.17,49.38
					l2.79,1.67c1-2.99,0.83-9.67,0.74-13.63c-0.11-4.25-1.05-11.21-1.2-18.01C184.3-8.24,184.87-27.57,184.55-27.58z"/>
				<g>
					<path class="st8" d="M112.11-122.4c-0.02,21.09,2.98,42.55,5.77,63.43c3.31,24.73,5.39,49.97,10.25,74.44
						c0.13,0.66,1.24,0.51,1.17-0.16c-4.88-45.77-15.04-91.54-15.92-137.71C113.37-123.22,112.11-123.23,112.11-122.4L112.11-122.4z
						"/>
				</g>
				<g>
					<path class="st8" d="M169.12-117.99c5.07,24.75,8.9,49.03,9.77,74.33c0.78,22.71,1.32,45.44,2.45,68.13
						c0.02,0.45,0.66,0.44,0.69,0c0.88-11.86-0.37-23.95-1.07-35.8c-0.7-11.92-0.65-23.83-1.06-35.76
						c-0.81-23.61-3.06-48.45-10.22-71.06C169.57-118.5,169.05-118.35,169.12-117.99L169.12-117.99z"/>
				</g>
				<g>
					<path class="st8" d="M214.6-124.17c0.64,46.18-8.02,92.24-11.4,138.16c-0.05,0.67,1.06,0.82,1.17,0.16
						c4.06-24.65,5.19-49.9,7.81-74.73c2.21-20.92,4.4-42.53,3.69-63.58C215.85-124.99,214.59-125,214.6-124.17L214.6-124.17z"/>
				</g>
				<g>
					<path class="st8" d="M184.33-20.05c-1.11,6.15-0.12,12.2,0.38,18.37c0.6,7.46,0.58,14.89,0.14,22.35
						c-0.01,0.22,0.35,0.27,0.38,0.05c2.06-13.63-1.97-27.18-0.65-40.74C184.59-20.15,184.35-20.19,184.33-20.05L184.33-20.05z"/>
				</g>
				<g>
					<path class="st8" d="M214.86,39.12c-3.34-1.32-10.2-1.33-13.41,4.05c-0.11,0.19,0.2,0.34,0.35,0.2
						c1.58-1.4,4.59-3.23,7.36-3.56c1.97-0.24,3.74-0.28,5.65-0.31C215.04,39.5,215.06,39.2,214.86,39.12L214.86,39.12z"/>
				</g>
				<g>
					<path class="st8" d="M210.27,32.72c-3.34-1.32-10.2-1.33-13.41,4.05c-0.11,0.19,0.2,0.34,0.35,0.2
						c1.58-1.4,4.59-3.23,7.36-3.56c1.97-0.24,3.74-0.28,5.65-0.31C210.45,33.1,210.47,32.8,210.27,32.72L210.27,32.72z"/>
				</g>
				<g>
					<path class="st8" d="M146.8-19.31c1.76,13.5-1.83,27.18,0.68,40.73c0.04,0.21,0.4,0.17,0.38-0.05
						c-0.69-7.48-0.76-14.83-0.59-22.34c0.14-6.22,1.1-12.23-0.22-18.38C147.02-19.48,146.78-19.45,146.8-19.31L146.8-19.31z"/>
				</g>
				<g>
					<path class="st3" d="M204.19,52.1c-0.66-1.2-12.1-10.42-14.86-13.57c-2.49-2.88-5.51-7.97-5.51-12.55l-1.79-1.51
						c-1.45-1.17-3.76,1.84-4.68,4.99c-1.05,3.15-2.25,7.23-0.42,9.98c2.49,3.67,9.49,11.05,13.16,13.54
						c3.8,2.36,6.4,4.66,9.55,7.94c1.44,1.57,6.16,2.58,7.95,2.64C207.77,58.25,205.18,53.9,204.19,52.1z"/>
				</g>
				<g>
					<path class="st3" d="M196.84,26.74c4.1-6.85-0.42-11.28-0.42-11.28c-1.45-1.17-3.26,1.55-4.39,1.94
						c3.37,2.97,2.39,6.81,0.45,9.93L196.84,26.74z"/>
				</g>
				<g>
					<path class="st8" d="M181.6,23.94c-2.53,0.29-3.79,3.11-4.57,5.21c-0.92,2.48-1.92,7.37-0.45,9.75
						c0.1,0.17,0.38,0.15,0.43-0.06c0.25-0.96,0.06-1.88,0.03-2.87c-0.06-1.73,0.18-3.46,0.54-5.14c0.61-2.85,1.8-4.96,4.1-6.74
						C181.73,24.06,181.68,23.93,181.6,23.94L181.6,23.94z"/>
				</g>
				<g>
					<path class="st8" d="M176.48,38.29c1.06,5.3,6.44,9.04,10.27,12.43c5.19,4.6,10.85,9.65,17.07,12.79
						c0.54,0.27,0.92-0.44,0.46-0.79c-9.69-7.41-20.93-13.96-27.59-24.52C176.61,38.1,176.46,38.17,176.48,38.29L176.48,38.29z"/>
				</g>
				<g>
					<path class="st8" d="M203.31,23.92c4.9,4.88,8.53,11.7,11.92,17.7c2.17,3.84,3.75,7.53,3.99,11.95
						c0.49,8.9-8.33,11.21-15.11,8.99c-0.65-0.21-0.92,0.81-0.28,1.02c8.46,2.77,15.84-0.71,16.41-10
						c0.32-5.29-3.09-10.53-5.57-14.87c-2.93-5.13-6.13-11.67-11.09-15.12C203.37,23.43,203.14,23.75,203.31,23.92L203.31,23.92z"/>
				</g>
				<g>
					<path class="st8" d="M181.84,36.9c1.5,3.43,4.91,6.11,7.49,8.73c3.58,3.62,7.58,6.95,11.73,9.9c0.23,0.16,0.52-0.21,0.3-0.39
						c-6.64-5.69-14.34-11.02-19.33-18.34C181.95,36.67,181.78,36.77,181.84,36.9L181.84,36.9z"/>
				</g>
				<g>
					<path class="st8" d="M218.4,46.39c-7.03-0.84-13.92,0.59-17.44,8.72c-0.14,0.32,0.31,0.66,0.48,0.37
						c4.38-7.57,10.32-9.04,17.11-8.3c0.14,0.02,0.11-0.56-0.02-0.55L218.4,46.39z"/>
				</g>
				<g>
					<path class="st8" d="M203.42,23.31c-3.36,0.76-6.1,2.76-9.73,3.2c-4.46,0.54-7.86-0.93-11.9-2.39
						c-0.38-0.14-0.59,0.37-0.36,0.63c2.81,3.19,8.35,3.33,12.26,3.06c2.96-0.21,8.58-1.19,9.92-4.25
						C203.66,23.42,203.57,23.28,203.42,23.31L203.42,23.31z"/>
				</g>
				<g>
					<path class="st8" d="M191.73,27.39c1.74,0.4,2.62-2.65,2.84-3.85c0.35-1.93-0.01-5.59-2.08-6.5c-0.25-0.11-0.54,0.07-0.47,0.36
						c0.21,0.84,0.79,1.46,1.12,2.27c0.42,1.03,0.48,2.16,0.41,3.25c-0.05,0.91-0.36,1.85-0.76,2.66c-0.3,0.61-0.87,0.98-1.15,1.59
						C191.61,27.27,191.64,27.37,191.73,27.39L191.73,27.39z"/>
				</g>
				<g>
					<path class="st8" d="M192.64,17.32c1.81-1.09,3.65-1.93,5.7-2.48c2.56-0.69,4.72,0.12,7.22-0.02c0.25-0.01,0.39-0.31,0.21-0.5
						c-3.19-3.19-11-0.46-13.54,2.46C191.97,17.06,192.29,17.53,192.64,17.32L192.64,17.32z"/>
				</g>
				<g>
					<path class="st8" d="M205.33,14.52c0.09,1.77,0.21,3.29-0.24,5.04c-0.24,0.93-0.66,1.79-1.15,2.6c-0.36,0.59-0.79,0.91-1,1.55
						c-0.05,0.16,0.11,0.29,0.26,0.26c1.57-0.39,2.33-2.81,2.75-4.17c0.49-1.6,0.73-3.91-0.18-5.4
						C205.65,14.21,205.31,14.28,205.33,14.52L205.33,14.52z"/>
				</g>
				<g>
					<path class="st3" d="M121.57,47.6c0.73-1.15,10.16-14.7,14.39-19.71c-2.41-0.2-7.17-3.04-7.17-3.04
						c-0.97,1.42-4.59,3.04-7.44,9.19c-2.41,5.2-4.01,6.56-7.08,12.68c-1.84,7.18-0.81,12,0.25,13.37c3.98,5.14,8.2,3.87,6.42,3.93
						C120.31,62.53,117.12,54.6,121.57,47.6z"/>
				</g>
				<g>
					<path class="st8" d="M151.2,24.04c2.53,0.29,3.79,3.11,4.57,5.21c0.92,2.48,1.92,7.37,0.45,9.75c-0.1,0.17-0.38,0.15-0.43-0.06
						c-0.25-0.96-0.06-1.88-0.03-2.87c0.06-1.73-0.18-3.46-0.54-5.14c-0.61-2.85-1.8-4.96-4.1-6.74
						C151.07,24.16,151.12,24.03,151.2,24.04L151.2,24.04z"/>
				</g>
				<g>
					<path class="st8" d="M156.32,38.39c-1.06,5.3-6.44,9.04-10.27,12.43c-5.19,4.6-10.85,9.65-17.07,12.79
						c-0.54,0.27-0.92-0.44-0.46-0.79c9.69-7.41,20.93-13.96,27.59-24.52C156.18,38.2,156.34,38.27,156.32,38.39L156.32,38.39z"/>
				</g>
				<g>
					<path class="st8" d="M150.96,37c-1.5,3.43-4.91,6.11-7.49,8.73c-3.58,3.62-7.58,6.95-11.73,9.9c-0.23,0.16-0.52-0.21-0.3-0.39
						c6.64-5.69,14.34-11.02,19.33-18.34C150.85,36.77,151.02,36.87,150.96,37L150.96,37z"/>
				</g>
				<g>
					<path class="st8" d="M114.4,46.49c7.03-0.84,13.92,0.59,17.44,8.72c0.14,0.32-0.31,0.66-0.48,0.37
						c-4.38-7.57-10.32-9.04-17.11-8.3c-0.14,0.02-0.11-0.56,0.02-0.55L114.4,46.49z"/>
				</g>
				<g>
					<path class="st8" d="M157.93-116.26c-6.5,22.51-6.94,43.33-7.31,66.63c-0.19,11.91,0.38,23.81,0.16,35.73
						c-0.25,12.92-1.35,26.09,0.03,38.97c0.05,0.44,0.69,0.46,0.69,0c0.38-22.64,0.35-45.3,0.22-67.95
						c-0.16-26.05,2.19-47.66,6.78-73.23c0.07-0.36-0.13-0.74-0.23-0.37L157.93-116.26z"/>
				</g>
				<path class="st3" d="M135.25,15.8c0,0-3.88,4.84,0.71,12.09c0,0-5.49-1.4-7.64-3.08c0,0-3.31-5.09-1.37-9.15
					C126.95,15.66,133.25,14.53,135.25,15.8z"/>
				<g>
					<path class="st8" d="M141.28,28.11c-0.24-0.5-0.65-0.78-0.99-1.22c-0.57-0.75-0.82-1.73-1.01-2.64
						c-0.21-1.02-0.11-2.1,0.11-3.1c0.23-1.04,0.97-1.79,1.19-2.8c0.06-0.29-0.21-0.48-0.47-0.36c-2.11,1-2.18,4.58-1.88,6.55
						c0.19,1.21,1.28,4.22,2.96,3.77C141.29,28.29,141.32,28.19,141.28,28.11L141.28,28.11z"/>
				</g>
				<g>
					<path class="st8" d="M140.37,17.73c-2.63-2.83-10.53-5.32-13.62-2.03c-0.17,0.19-0.05,0.49,0.21,0.5
						c1.96,0.05,3.83-0.6,5.85-0.44c2.54,0.2,4.95,1.28,7.14,2.51C140.3,18.47,140.64,18.01,140.37,17.73L140.37,17.73z"/>
				</g>
				<g>
					<path class="st8" d="M127.05,16.03c-0.09,1.77-0.21,3.29,0.24,5.04c0.24,0.93,0.66,1.79,1.15,2.6c0.36,0.59,0.79,0.91,1,1.55
						c0.05,0.16-0.11,0.29-0.26,0.26c-1.57-0.39-2.33-2.81-2.75-4.17c-0.49-1.6-0.73-3.91,0.18-5.4
						C126.72,15.72,127.06,15.79,127.05,16.03L127.05,16.03z"/>
				</g>
				<g>
					<path class="st8" d="M128.65,25.17c1.57,2.03,7.23,3.27,10.05,3.58c3.94,0.43,10.04-0.1,12.71-3.41
						c0.21-0.26,0.03-0.78-0.36-0.63c-3.92,1.53-6.84,2.88-11.21,2.81c-2.14-0.03-3.89-0.21-6.31-0.85
						c-2.52-0.67-4.37-1.95-4.31-1.81L128.65,25.17z"/>
				</g>
				<g>
					<path class="st8" d="M117.94,39.22c3.34-1.32,10.2-1.33,13.41,4.05c0.11,0.19-0.2,0.34-0.35,0.2c-1.58-1.4-4.59-3.23-7.36-3.56
						c-1.97-0.24-3.74-0.28-5.65-0.31C117.76,39.6,117.74,39.3,117.94,39.22L117.94,39.22z"/>
				</g>
				<g>
					<path class="st8" d="M122.53,32.82c3.34-1.32,10.2-1.33,13.41,4.05c0.11,0.19-0.2,0.34-0.35,0.2c-1.58-1.4-4.59-3.23-7.36-3.56
						c-1.97-0.24-3.74-0.28-5.65-0.31C122.35,33.2,122.33,32.9,122.53,32.82L122.53,32.82z"/>
				</g>
				<g>
					<path class="st8" d="M128.79,24.86c-4.9,4.88-7.83,10.87-11.23,16.86c-2.17,3.84-3.75,7.53-3.99,11.95
						c-0.49,8.9,8.33,11.21,15.11,8.99c0.65-0.21,0.92,0.81,0.28,1.02c-8.46,2.77-15.84-0.71-16.41-10
						c-0.32-5.29,3.09-10.53,5.57-14.87c2.93-5.13,5.43-10.83,10.39-14.29c0.21-0.15,0.13-0.02,0.28,0.01L128.79,24.86z"/>
				</g>
			</g>
		</g>
	</g>
</g>
<g>
	<defs>
		<rect id="SVGID_69_" x="0" y="0" width="302.48" height="451.06"/>
	</defs>
	<clipPath id="SVGID_4_">
		<use xlink:href="#SVGID_69_"  style="overflow:visible;"/>
	</clipPath>
	<g class="st32">
		<g>
			<path class="st80" d="M151.54,389.46c0-0.32-0.15-0.44-0.46-0.36c-6,1.53-13.91,1.7-20.12,1.48c-4.43-0.15-22.45-3.4-22.49-3.42
				c-0.39-0.16-0.78-0.31-1.17-0.47c-0.83-0.33-2.23-0.21-2,0.57c0.12,0.39,1.19,21.86,1.37,25.07c0.14,2.55,2.68,18.03,2.98,22.25
				c0.81,11.17,1.48,19.4,2.3,24.59c0.81,5.08,2.8,21.11,3.37,22.01c9.95,5.4,21.41,2.84,27.36-0.55c0.68-0.39,1.37-1.24,1.25-2.26
				c-0.15-1.21-0.01-2.39-0.28-3.57c-0.37-15.5,0.01-24.24,0.57-35.24c0.07-1.37-0.16-2.72-0.18-4.08
				C144.9,430.24,151.65,389.89,151.54,389.46z"/>
			<path class="st81" d="M107.68,419.95c-0.88-3.21-1.12-27.4-1.7-27.79c-1.18-0.78,5.64,0.54,9.84,0.87
				c1.97,0.16,22,0.15,28.67,0.39c0.45,0.02-8.75,2.43-18.59,2.43c-3.05,22.55-0.75,88.46-0.75,88.46l-8.55-1.74L107.68,419.95z"/>
			<path class="st80" d="M162.3,391.45c0-0.32,0.26-0.36,0.57-0.27c6,1.53,15.7,0.9,21.8-0.25c5.33-1,20.81-4.56,20.85-4.58
				c0.39-0.16,0.78-0.31,1.17-0.47c0.83-0.33,1.4-0.23,1.17,0.55c-0.12,0.39-0.3,23.64-0.47,26.85c-0.14,2.55-1.51,17.99-1.81,22.21
				c-0.8,11.09-2.3,19.14-2.51,24.82c-0.19,5.14-1.84,18.98-2.41,19.88c-7.99,5.07-21,2.74-27.46-0.06
				c-0.71-0.31-0.79-2.66-0.67-3.69c0.15-1.21-0.85-24.87-1.61-35.86C170.03,427.87,162.18,391.88,162.3,391.45z"/>
			<path class="st81" d="M172.21,479.47c0.53-48.68-10.02-86.95-9.91-87.38c0-0.32,0.26-0.36,0.57-0.27
				c1.62,0.41,36.15-0.62,38.16-0.49c0.18,0.01-10.12,6.09-27.82,7.48c0,0,5.24,54.67,4.13,83.03L172.21,479.47z"/>
			<g>
				<path class="st8" d="M104.77,386.65c-0.02,21.09,2.98,42.55,5.77,63.43c3.31,24.73,5.39,49.97,10.25,74.44
					c0.13,0.66,1.24,0.51,1.17-0.16c-4.88-45.77-15.04-91.54-15.92-137.71C106.03,385.82,104.78,385.82,104.77,386.65L104.77,386.65
					z"/>
			</g>
			<g>
				<path class="st8" d="M161.78,391.06c5.07,24.75,8.9,49.03,9.77,74.33c0.78,22.71,1.32,45.44,2.45,68.13
					c0.02,0.45,0.66,0.44,0.69,0c0.88-11.86-0.37-23.95-1.07-35.8c-0.7-11.92-0.65-23.83-1.06-35.76
					c-0.81-23.61-3.06-48.45-10.22-71.06C162.23,390.55,161.71,390.69,161.78,391.06L161.78,391.06z"/>
			</g>
			<g>
				<path class="st8" d="M207.27,384.88c0.64,46.18-8.02,92.24-11.4,138.16c-0.05,0.67,1.06,0.82,1.17,0.16
					c4.06-24.65,5.19-49.9,7.81-74.73c2.21-20.92,4.4-42.53,3.69-63.58C208.51,384.06,207.25,384.05,207.27,384.88L207.27,384.88z"
					/>
			</g>
			<path class="st82" d="M203.36,337.14c-2.52-5.09-3.47-11.42-4.73-11.13c-11.14,2.56-29.61,3.43-29.61,3.43s-7.96,2.06-13.81,2.2
				c-4.12,0.09-21.58,2.09-42.96-3.04c-1.11-0.27-4.01-1.31-4.45-1.47c-0.22-0.08-1.6-0.41-1.82-0.46
				c-1.95-0.45-7.88,23.24-8.55,27.6c-0.24,2.04-4.94,27.88-1.66,33.25c0.19,2.32,15.19,5.12,19.86,6.07
				c5.28,1.07,35.87-1.06,36.78-1.39c0.34,0.36,3.63-11.13,4.34-13.78c0.02,0.69,0.05,1.39,0.2,2.09c0.45,2.21,3.07,10.58,3.7,11.84
				c0.21,0.57,5.51,2.08,5.98,2.2c9.26,2.37,20.85-0.66,30.23-2.18c6.5-1.56,17.23-4.31,18.53-6.57
				C216.43,383.98,206.24,345.99,203.36,337.14z"/>
			<path class="st83" d="M128.41,334.62c27.56,1.17,39.05-4.8,39.05-4.8c-21.33,6.49-57.32-1.21-62.04-3.23c0,0-1.77,4.27-2.05,5.11
				c-2.83,8.26-3.54,14.34-5.87,22.77c-2.36,8.53-2.36,16.5-2.63,24.99c-0.1,0.41-0.14,0.82-0.14,1.17c0,0.88,0,1.76,0,2.64
				c0,2.2,1.26,4.43,2.43,4.95c0.33,0.57,0.76,1.01,1.29,1.22c4.14,1.7,8.1,2.13,12.11,2.56c1.54,0.21,5.01,1.51,6.51,1.91
				c0.2,0.05,8.92,0.6,8.92,0.6C122.9,367.06,127.33,352.08,128.41,334.62z"/>
			<g>
				<path class="st8" d="M105.25,326.67c-5,9.17-6.57,19.8-8.79,29.92c-2.17,9.92-3.82,21.61-1.13,31.51
					c0.17,0.61,1.05,0.35,0.94-0.26c-3.8-20.8,4.02-41.24,9.46-60.96C105.81,326.59,105.4,326.4,105.25,326.67L105.25,326.67z"/>
			</g>
			<g>
				<path class="st8" d="M95.93,388.4c16.56,8.24,38.38,7.14,56.23,4.67c0.61-0.08,0.46-1.09-0.14-1.06
					c-8.02,0.31-15.96,1.25-24,1.25c-11.08,0-21.27-2.43-31.83-5.47C95.83,387.69,95.59,388.23,95.93,388.4L95.93,388.4z"/>
			</g>
			<g>
				<path class="st8" d="M156.54,374.89c-0.99,2.67-1.35,5.61-2.06,8.37c-0.79,3.07-2.22,6.11-2.82,9.2
					c-0.08,0.43,0.43,0.63,0.68,0.29c1.67-2.22,2.24-5.53,2.96-8.16c0.82-3.03,1.8-6.47,1.67-9.63
					C156.96,374.69,156.62,374.65,156.54,374.89L156.54,374.89z"/>
			</g>
			<path class="st8" d="M209.76,356.98c-2.08-9.54-6.12-22.49-10.6-31.2c-0.15-0.29-0.65-0.09-0.53,0.22
				c6.78,18.31,13.97,40.92,16.47,60.36c0.07,0.55,0.93,0.58,0.89,0C215.18,376.34,211.89,366.77,209.76,356.98z"/>
			<g>
				<path class="st8" d="M113.62,330.69c-2.2,5.31-5.83,8.94-10.25,12.47c-0.17,0.14,0.05,0.36,0.22,0.28
					c2.65-1.17,4.82-3.47,6.67-5.63c1.62-1.89,3.49-4.5,3.53-7.1C113.79,330.61,113.66,330.61,113.62,330.69L113.62,330.69z"/>
			</g>
			<g>
				<path class="st8" d="M188.59,333.15c1.77,3.62,5.97,6.35,9.68,7.69c0.26,0.09,0.36-0.27,0.17-0.41
					c-1.51-1.12-3.31-1.85-4.91-2.85c-1.87-1.17-3.52-2.7-4.7-4.57C188.73,332.86,188.51,332.99,188.59,333.15L188.59,333.15z"/>
			</g>
			<path class="st83" d="M156.5,360.3c0,0,4.71,27.48,17.4,35.11c0,0-7.69,0.13-13.8-2.95l-3.18-15.6L156.5,360.3z"/>
			<g>
				<path class="st8" d="M156.41,375.24c-0.33,2.93,0.54,6.17,1.16,9.01c0.56,2.53,1.13,6.63,3.1,8.53c0.24,0.23,0.6,0,0.53-0.31
					c-0.63-2.84-2-5.59-2.68-8.48c-0.69-2.92-0.97-5.88-1.44-8.84C157.02,374.73,156.45,374.89,156.41,375.24L156.41,375.24z"/>
			</g>
			<g>
				<path class="st8" d="M160.1,392.46c5.87,4.57,18.05,3.41,24.78,2.78c5.29-0.5,10.51-2.22,15.69-3.32
					c5.65-1.2,10.52-1.53,15.29-5.03c0.62-0.45,0.07-1.47-0.62-1.05c-7.11,4.29-16.08,5.13-24.04,7.19
					c-8.49,2.2-22.54,3.52-30.75-1.03C160.17,391.85,159.83,392.25,160.1,392.46L160.1,392.46z"/>
			</g>
			<g>
				<path class="st8" d="M156.77,375.39c0.34-4.96,0.05-10.13-0.27-15.09c-0.02-0.25-0.36-0.25-0.39,0
					c-0.52,4.93-0.07,10.16,0.32,15.09C156.45,375.6,156.76,375.6,156.77,375.39L156.77,375.39z"/>
			</g>
			<g>
				<path class="st84" d="M200.98,394.52c1.85,19.92-0.85,62.04-3.52,85.48c-0.07,0.6,0.8,0.26,0.8,0.26
					c3.49-24.78,6.8-60.74,6.17-86.64C204.39,392.06,200.9,393.76,200.98,394.52z"/>
			</g>
			<g>
				<path class="st8" d="M150.59,392.79c-6.5,22.51-6.94,43.33-7.31,66.63c-0.19,11.91,0.38,23.81,0.16,35.73
					c-0.25,12.92-1.35,26.09,0.03,38.97c0.05,0.44,0.69,0.46,0.69,0c0.38-22.64,0.35-45.3,0.22-67.95
					c-0.16-26.05,2.19-47.66,6.78-73.23c0.07-0.36-0.13-0.74-0.23-0.37L150.59,392.79z"/>
			</g>
			<g>
				<path class="st84" d="M146.47,398.35c-4.46,19.5-5.65,60.5-4.32,80.87c0.04,0.61-0.84,0.67-0.84,0.67
					c-1.03-15.27-3.5-44.48,1.24-81.06C142.75,397.28,146.64,397.61,146.47,398.35z"/>
			</g>
			<g>
				<path class="st85" d="M201.73,346.52c4.41,12.41,5.4,24.64,6.9,37.73c0.23,1.98,3.23,1,3.01-0.99
					c-1.53-13.38-3.41-25.56-8.66-37.96c-0.72-1.7-2.02-1.1-1.44,0.66L201.73,346.52z"/>
			</g>
		</g>
		<g>
			<path class="st86" d="M240.55,108.38c-3.25-7.62-5.46-17.79-7.78-24.7c-2.86-8.53-6.11-16.61-10.12-24.69
				c-3.71-7.48-8.47-14.23-14.06-20.41c-5.35-5.92-11.05-12.85-17.4-17.69C170.9,5.38,126.22,4,110.15,26.62
				c-14.67-5.8-30.81,11.02-39.37,20.7c-14.45,16.33-16.19,41.82-12.76,62.32c3.41,20.32,9.74,35.57,17.25,47.1
				c6.45,9.89,17.68,17.68,23.03,22.5c5.47,4.92,14.78,18.96,25.38,23.59c0.02,0.91,5.19-2.09,6.35-2.33
				c1.86-0.39,3.38-0.08,4.54-0.57c2.14-0.9,3.45-2.57,5.95-2.7c9.76-0.47,19.8,2.4,33.17,0.32c1.6,3,4.06,5.84,6.88,8.65
				c-1.16,4.2,0.69,10.95,5.31,12.34c-2.01,6.02-2.3,14.9,2.92,19.06c0.06,0.05-0.06,0,0,0c-0.08,0.24-0.35,2.96-0.37,3.22
				c-0.25,4.55,0.77,7.51,3.74,11.51c0.05,0.07-0.06-0.04,0,0c-3.23,3.42-1.37,10.58,2.5,12.93c0.06,0.74,0.94,7.04,5.38,9.47
				c-1.35,0.96-1.89,5.4-0.78,7.3c-2.48,2.37-1.78,5.52-1.2,8.66c0.57,3.1,1.83,6.19,2.74,9.19c1.19,3.92,0.41,6.96,0,10.92
				c-0.03,0.3-0.42,1.16-0.17,1.16c0.05,0.01,0.09-0.01,0.14-0.03c0.06-0.02,0.12-0.04,0.17-0.07c0.01-0.01,0.03-0.01,0.04-0.02
				c3.59-3.58,4.5-10.64,5.02-15.35c0.54-4.89,1.28-11.94-2.74-15.74c-0.02-0.02-0.04-0.01-0.06-0.02c1.01-1.61,0.28-4.18-0.62-5.65
				c0.91-1.25,1.05-3.12,1.05-4.58c0-1.27-0.42-2.44-1.09-3.47c0.03-0.08,0.04-0.18,0.02-0.28c-0.03-0.15-0.09-0.3-0.13-0.45
				c0.03-0.05,0.08-0.08,0.1-0.14c0.91-3.64,0.74-7.78-0.36-11.37c4.85-3.52,6.8-9.17,4.75-13.56c0.14-0.02,0.29-0.07,0.42-0.18
				c8.58-7.6,5.19-15.2-0.41-22.68c-0.31-0.45-0.78-1.38-0.77-1.39c5.56-2.26,7.12-5.92,5.06-11.87c0.18,0.04,0.33-0.7,0.48-0.85
				c6.85-6.63,8.27-15.27,8.26-24.41c-0.01-6.25,1.23-11.47,5.61-16.1c3.27-3.47,4.4-5.19,8.32-7.81
				C247.8,146.62,246.32,124.81,240.55,108.38z"/>
			<path class="st87" d="M225.26,77.87c-3.56-13.22-10.3-25.2-18.83-35.77c-6.19-7.67-14.69-16.65-23.97-20.7
				c-0.93-0.41-1.11,0.55-0.19,0.95c8.7,3.79,15.67,12.97,21.6,20.07c8.73,10.45,17.05,23.16,20.61,36.39
				C224.74,79.8,225.52,78.86,225.26,77.87z"/>
			<g>
				<path class="st87" d="M241.58,130.96c-1.09,4.29-1.14,8.64-2.9,12.78c-1.86,4.39-5.53,6.96-8.53,10.43
					c-0.5,0.58,0.12,1.42,0.82,1.06c8.26-4.28,12.89-15.31,11.27-24.28C242.18,130.62,241.66,130.65,241.58,130.96L241.58,130.96z"
					/>
			</g>
			<g>
				<path class="st87" d="M210.95,200.54c6.84-5.5,5.82-15.91,5.89-23.85c0-0.35-0.53-0.53-0.69-0.19c-1.31,2.92-1.1,6.19-1.11,9.33
					c-0.02,5.5-0.84,9.97-4.6,14.2C210.14,200.38,210.6,200.82,210.95,200.54L210.95,200.54z"/>
			</g>
			<g>
				<path class="st87" d="M207.21,214.75c4.02-1.83,4.02-7.09,2.05-10.5c-0.22-0.39-0.86-0.23-0.85,0.23
					c0.05,1.58,0.57,3.07,0.7,4.64c0.17,2.1-0.97,3.61-2.33,5.08C206.49,214.5,206.85,214.92,207.21,214.75L207.21,214.75z"/>
			</g>
			<g>
				<path class="st87" d="M203.95,218.32c3.94,4.95,6.65,12.47,1.91,17.77c-0.79,0.88,0.51,2.19,1.3,1.3
					c5.02-5.63,1.92-14.69-2.81-19.47C204.08,217.65,203.73,218.04,203.95,218.32L203.95,218.32z"/>
			</g>
			<g>
				<path class="st87" d="M204.66,241.72c1.42,1.76,0.46,3.83-0.54,5.52c-0.71,1.2-2.27,2.42-2.49,3.8
					c-0.05,0.31,0.19,0.63,0.53,0.53c1.65-0.49,3-3.3,3.57-4.77c0.76-1.96,1.01-3.99-0.53-5.61
					C204.86,240.82,204.36,241.35,204.66,241.72L204.66,241.72z"/>
			</g>
			<g>
				<path class="st87" d="M198.42,253.21c2.4,2.05,1.32,4.83,2.08,7.45c0.07,0.24,0.41,0.23,0.47,0c0.76-2.56,0.21-6.41-2.18-7.94
					C198.5,252.54,198.16,252.98,198.42,253.21L198.42,253.21z"/>
			</g>
			<g>
				<path class="st87" d="M200.5,266.77c0.51,1.06,0.63,2.15,0.61,3.32c-0.02,0.97-0.25,1.95-0.09,2.9c0.03,0.2,0.37,0.25,0.45,0.06
					c0.84-1.94,0.51-4.74-0.5-6.55C200.8,266.19,200.35,266.46,200.5,266.77L200.5,266.77z"/>
			</g>
			<g>
				<path class="st88" d="M194.99,264.96c-0.78,1.77,1.14,7.51,4.61,10.29c2.15-4.8-3.29-12.47-1.97-15.15
					c-5.44-7.76-3.71-8.35-2.14-9.4c-3.61-6.75,3.38-14.36,5.77-14.1c-0.26-5.97-9.83-17.7-3.64-27.7c-1.39-1.63-4.48-5.87-5.68-9.5
					c-1.49-4.51-7.15-9.93-13.45-12.55c-8.39-3.67-15.73,1.05-24.13-3.15c-9.44-5.24-20.98-14.69-26.75-24.13
					c-8.92-14.16-14.16-23.6-27.8-34.09c-15.29-11.76-35.84-27.92-41.97-47.81c-1.61,10.65-1.18,21.73,0.48,31.65
					c3.41,20.32,8.53,35.82,16.05,47.35c6.45,9.89,19.52,18.72,24.87,23.54c5.47,4.92,14.17,18.59,24.76,23.22
					c0.02,0.91,5.17-2.99,6.33-3.24c1.85-0.39,3.38-0.08,4.54-0.57c2.14-0.9,3.45-2.57,5.95-2.7c9.76-0.47,19.8,2.4,33.17,0.32
					c1.6,3,4.06,5.84,6.88,8.65c-1.16,4.2,0.69,10.95,5.31,12.34c-2.01,6.02-2.3,14.9,2.92,19.06c-0.08,0.24-0.35,2.96-0.37,3.22
					c-0.25,4.55,0.77,7.51,3.74,11.51C189.27,255.44,191.12,262.61,194.99,264.96z"/>
			</g>
			<g>
				<path class="st8" d="M101.41,34.51c-17.02,1.33-28.22,21.04-32.18,35.68c-0.08,0.3,0.36,0.41,0.45,0.13
					c5.22-16.08,15.09-30.29,31.79-35.34C101.72,34.9,101.68,34.49,101.41,34.51L101.41,34.51z"/>
			</g>
			<g>
				<path class="st8" d="M177.09,26.57c16.7,8.58,25.67,22.28,33,39.07c0.11,0.24,0.52,0.07,0.43-0.18
					c-6.03-16.38-16.28-32.7-33.33-39.11C177.05,26.29,176.96,26.5,177.09,26.57L177.09,26.57z"/>
			</g>
			<g>
				<path class="st8" d="M122.15,52.47c-4.46-4.07-11.01-1.74-15.51,1.06c-0.2,0.12-0.02,0.43,0.18,0.31
					c4.68-2.71,10.37-4.45,15.27-1.3C122.14,52.56,122.18,52.5,122.15,52.47L122.15,52.47z"/>
			</g>
			<g>
				<path class="st8" d="M125.74,50.79c2.48-2.08,5.45-3.83,8.81-3.45c0.19,0.02,0.23-0.29,0.04-0.33c-3.37-0.68-6.78,1.2-8.99,3.64
					C125.52,50.75,125.64,50.87,125.74,50.79L125.74,50.79z"/>
			</g>
			<path class="st88" d="M201.26,282.43c0,0-2.64,0.99,0.77,10.64s-0.48,18.19-0.48,18.19s1.37-6.96-1.86-14.81
				c-3.23-7.86-2.84-13.08-0.25-13.73"/>
			<g>
				<path class="st87" d="M205.05,297.25c1.19-4.16,1.75-11.51-1.59-14.88c-0.34-0.35-0.88,0.01-0.78,0.45
					c0.44,2,1.39,3.87,1.88,5.88c0.68,2.84,0.49,5.65,0.3,8.52C204.85,297.33,205.02,297.35,205.05,297.25L205.05,297.25z"/>
			</g>
			<path class="st89" d="M199.57,275.01c0,0-1.37,5.11,0,7.76l3.36-1.89c0,0,0.28-4.82-0.8-5.63L199.57,275.01z"/>
			<path class="st8" d="M185.77,217.47c-0.09,0.21-0.17,0.44-0.26,0.66c-1.37-1.18-2.64-2.19-3.6-3.89c-1.18-2.1-1.45-4.57-1.1-6.92
				c2.56,2.32,5.5,3.98,8.73,4.17C187.91,213.53,186.51,215.72,185.77,217.47z M191.35,235.21c1.93-3.25,4.91-5.33,5.86-9.03
				c1.31,3.26,2.81,6.56,3.61,9.98c-5.56,1.24-8.69,9.96-5.81,14.63c-0.57-0.16-1.12,0.22-1.48,0.71c-0.1-0.03-0.22-0.03-0.34,0.02
				c-0.26,0.11-0.48,0.26-0.71,0.41c-0.01-0.01-0.01-0.02-0.01-0.03C188.75,246.88,188.1,240.67,191.35,235.21z M194.16,264.6
				c-2.58-3.49-5.12-8.99-1.06-11.91c-0.07,1.11,0.57,2.33,1.03,3.24c0.72,1.42,1.7,2.73,2.74,4.01c-0.04,0.01-0.07,0-0.11,0.02
				C195.06,261.14,194.32,262.8,194.16,264.6z M203.1,281.43c4.91,6.67,2.61,18.68-0.86,26.7c0.36-2.79,0.17-5.58-0.51-8.45
				c-1.27-5.38-6-11.57-2.29-16.96c0.05,0.01,0.07,0.05,0.13,0.05C200.8,282.81,202.12,282.11,203.1,281.43z M202.38,280.7
				c-0.44,0.17-0.88,0.31-1.34,0.43c-0.43,0.11-0.9,0.19-1.33,0.32c-0.24-1.01-0.43-1.95-0.41-3.02c0.02-0.95,0.3-1.86,0.41-2.79
				c0.06,0.06,0.14,0.11,0.25,0.11c0.25,0,0.51,0.02,0.76,0.03c0.04,0,0.09,0.01,0.13,0.01l0.01,0c0.3,0.01,0.61,0,0.91-0.02
				c0.01,0.03,0.01,0.07,0.04,0.1c0.47,0.81,0.73,1.64,0.8,2.57C202.66,279.22,202.38,279.94,202.38,280.7z M202.54,270.65
				c-0.01,1.49-0.85,2.87-0.89,4.31c-0.27-0.01-0.54-0.03-0.81-0.02c-0.46-0.48-1.01-0.78-1.59-1.26c-1.21-1.02-2.07-2.4-2.79-3.78
				c-1.61-3.07-1.66-6.67,0.84-9.25c0.03-0.03,0.03-0.08,0.05-0.12c1.73,2.11,3.52,4.18,4.47,6.63c0.03,0.07,0.06,0.12,0.1,0.17
				C202.33,268.38,202.55,269.44,202.54,270.65z M202.03,253.75c-1.07-2.15-3.5-4.53-5.8-2.59c-0.13,0.11-0.07,0.37,0.11,0.39
				c1.29,0.17,2.35-0.12,3.44,0.83c1.17,1.02,1.54,2.84,1.83,4.27c0.49,2.44,0.46,5.12,0.1,7.64c-1.17-1.78-2.9-3.5-3.97-4.92
				c-1.06-1.42-2.08-2.88-2.92-4.44c-0.42-0.78-0.84-1.74-0.66-2.64c0.11-0.56,0.9-0.69,1.17-1.17c0.31,0.12,0.72-0.1,0.61-0.5
				c-1.3-4.73-0.65-11.95,5.08-13.63c0.1,0.26,0.38,0.3,0.6,0.19c3.02,1.79,5.46,3.94,5.42,7.71
				C207.02,248.52,204.3,251.19,202.03,253.75z M206.55,240.03c-0.01,0.01-0.01,0.02-0.02,0.03c-1.01-1.47-2.56-2.71-4.66-3.61
				c-1.55-9.76-9.36-16.93-4.01-27.12c0.03-0.07,0.03-0.12,0.02-0.18c1.17,1.17,2.48,2.18,3.95,2.99
				C207.78,220.31,217.2,231.14,206.55,240.03z M240.93,108.09c-3.6-11.42-5.47-17.84-7.8-24.77c-2.87-8.56-6.13-16.65-10.14-24.76
				c-3.72-7.51-8.5-14.27-14.1-20.47c-5.36-5.94-11.08-12.88-17.45-17.74c-20.36-15.54-65.16-16.93-81.27,5.76
				c-14.71-5.82-30.89,11.05-39.48,20.76C56.2,63.25,53.67,86.43,57.02,107.01c5.01,30.8,13.61,46.08,20.92,54.07
				c7.38,9.43,18.01,15.7,25.97,24.78c5.08,5.8,12.36,17.38,20.92,18c0.59,0.04,0.62-0.79,0.13-0.97
				c-8.95-3.27-14.84-12.03-20.98-18.89c-7.18-8.03-16.07-13.73-23.5-21.24c-0.02-0.02-0.02-0.03-0.04-0.05
				c-1.62-2.05-6.88-8.86-9.7-13.93c-4.73-8.48-7.37-19.73-9.96-29.52c-5.24-19.82-5.44-43.59,4.53-62.45
				c7.14-13.51,27.71-34.7,44.69-29.63c0.3,0.37,0.97,0.49,1.33-0.02c9.24-13.05,29.09-16.31,43.97-16.07
				c8.85,0.14,17.96,2.49,26.02,6.08c7.39,3.29,12.17,7.24,17.55,13.2c5.6,6.2,11.57,11.54,16.45,18.42
				c5.57,7.86,9.5,17.02,13.14,25.89c3.27,7.98,4.54,12.67,7.3,20.85c1.47,4.36,3.69,11.24,4.63,14.4
				c2.52,8.43,3.75,19.28,2.75,28.52c-1.18,10.87-7.4,15.62-15.59,21.66c-5.13,3.78-7.71,8.72-8.61,14.95
				c-0.51,3.52-0.18,7.18-0.4,10.73c-0.43,7.04-3.22,12.77-7.32,18.34c-0.83-2.11-2.05-4.41-3.63-6.88
				c-1.4-2.19-3.55-7.08-4.93-11.6c-0.08,1.97,1.64,8.13,3.31,10.84c4.61,7.46,9.23,16.99,0.5,20.05c-0.18,0.06-0.29,0.17-0.36,0.3
				c-1.18-1.54-3.19-5.2-3.45-5.3c-5.52-2.21-10.7-12.77-10.7-12.77c-0.32,2.28,2.03,5.27,3.33,7.21c-1.67,1.01-3.58,2.87-5.29,4.93
				c-3.44-1.45-6.27-2.67-9.03-5.04c-0.04-0.07-0.1-0.11-0.17-0.15c-0.24-0.21-0.48-0.41-0.72-0.64c-2.66-2.55-4.91-5.54-6.69-8.74
				c-0.21-0.38-1.06,0.11-0.86,0.49c1.61,3.12,4.43,6.68,7.44,9.68c-1.16,4.21,0.52,11.32,5.16,12.72
				c-2.02,6.04-2.28,14.27,2.96,18.44c0.41,0.33,0.92-0.17,0.58-0.57c-4.17-4.87-4.64-11.89-2.37-17.79
				c0.09-0.08,0.14-0.18,0.12-0.29c0.71-1.77,1.66-3.44,2.85-4.91c1.63-2.02,3.44-5.97,6.26-7.79c0.64,0.92,1.33,1.79,2.1,2.59
				c-0.11-0.02-0.22,0-0.3,0.12c-3.82,5.68-2.5,11.03-0.4,16.44c-0.1,0.02-0.2,0.07-0.25,0.2c-1.99,5.01-6.68,7.92-8.17,13.19
				c-1.38,4.9-0.07,9.64,2.9,13.65c0.05,0.07,0.11,0.12,0.18,0.16c-3.24,3.43-1.31,11.14,2.57,13.5c0.06,0.74,0.19,1.48,0.38,2.21
				c0.49,1.88,2.25,5.51,4.48,6.87c-0.92,1.94-1.2,4.91-0.08,6.81c-2.48,2.38-2.08,5.83-1.5,8.98c0.57,3.1,2.08,5.98,3,8.99
				c1.19,3.93,0.45,7.8,0.04,11.76c-0.03,0.3,0.21,0.44,0.46,0.44c0.05,0.01,0.09-0.01,0.14-0.03c0.06-0.02,0.12-0.04,0.17-0.08
				c0.01-0.01,0.03-0.01,0.04-0.02c3.6-3.59,4.51-10.67,5.04-15.39c0.54-4.9,1.29-11.98-2.75-15.78c-0.02-0.02-0.04-0.01-0.06-0.02
				c1.01-1.61,0.28-4.19-0.62-5.67c0.91-1.25,1.05-3.13,1.05-4.6c0-1.28-0.42-2.45-1.09-3.48c0.03-0.08,0.04-0.18,0.02-0.29
				c-0.03-0.15-0.09-0.3-0.13-0.45c0.03-0.05,0.08-0.08,0.1-0.14c0.91-3.65,0.74-7.8-0.36-11.4c4.87-3.53,6.82-9.2,4.76-13.59
				c0.14-0.02,0.29-0.07,0.42-0.18c8.6-7.62,4.68-15.95-0.93-23.45c0.01,0,0.02,0,0.03-0.01c5.58-2.26,6.87-6.61,4.8-12.58
				c0.18,0.04,0.36,0.01,0.51-0.14c6.87-6.65,8.26-16.03,8.25-25.19c-0.01-6.27,1.24-11.5,5.62-16.15
				c3.28-3.48,7.25-5.98,10.67-9.24C247.75,143.75,247.49,128.93,240.93,108.09z"/>
		</g>
		<path class="st90" d="M231.65,159.03c0,0,0,0.01,0,0.01C231.61,159.08,231.63,159.05,231.65,159.03z"/>
		<g>
			<path class="st80" d="M117.17,271.15c-0.71-0.64-0.97-1.83-0.62-2.82l0.24-0.66l-0.63-0.31c-2.69-1.33-4.43-3.62-5.18-6.81
				c-0.6-2.57,0.45-5.55,1.37-8.17c0.18-0.5,0.35-1,0.51-1.48l0.21-0.64l-0.61-0.31c-3.04-1.53-6.02-3.25-8.91-4.91
				c-3.02-1.74-6.14-3.54-9.34-5.13l-1.01-0.51l-0.12,1.12c-0.2,1.83-1.61,6.36-1.84,8.2c-0.93,7.4-1.39,12.83,0,20.39
				c2.21,11.99,9.75,22.49,20.9,25.67l0.83,0.45l0.29-0.91c0.34-1.08,0.68-2.16,0.97-3.24c1.52-5.63,2.54-11.6,3.21-18.77l0.66-0.61
				L117.17,271.15z"/>
			<path class="st80" d="M267.87,83c-0.78-1.8-2.37-2.5-3.61-1.83c0.02-0.1,0.05-0.19,0.07-0.29c0.37-1.91,1.14-6.52-1.62-7.8
				c-2.11-0.69-3.89,0.86-4.85,2.15c-0.1,0.13-0.16,0.29-0.25,0.43c0.41-3.3,0.35-6.83-0.59-7.99c-1.71-2.08-4.28-0.68-5.42,0.95
				c-1.03,1.48-1.68,3.27-2.29,5.27c-0.34-2.36-1.31-4.13-3.29-3.88c-2.43,0.3-3.96,3.41-4.62,5.31c-1.29,3.67-2.26,9.59-2.41,11.4
				c-1.47-0.74-3.09-1.25-4.62-1.67c-1.78-0.49-3.78,0.44-4.62,1.72c-1.68,2.56,2.22,5.74,3.53,7.73
				c2.86,4.33,4.49,11.72,3.96,14.79c-3.58,23.73-14.82,60.59-38.17,79.02c-0.19-0.45-0.98-0.35-0.92,0.18
				c1.26,11.86,4.84,25.11,10.85,35.47c0.22,0.38,0.87,0.12,0.72-0.3c-0.51-1.4-1-2.8-1.48-4.19
				c32.07-25.83,46.28-73.05,52.71-108.26c3.7-8.14,5.15-14.17,5.71-16.14C267.88,91.06,269.43,86.59,267.87,83z"/>
			<path class="st89" d="M191.9,244.14c0.07,0,0.15-0.03,0.21-0.1c2.99-3.17,5.43-6.88,8.28-10.19c2.91-3.39,6.15-6.46,9.18-9.73
				c0.18-0.19,0.15-0.41,0.02-0.55c-4.26-11.72-7.43-23.09-10.55-35.15c-0.04-0.15-0.14-0.23-0.26-0.29
				c-0.09-0.09-0.24-0.14-0.37-0.07c-0.07,0.04-0.13,0.09-0.2,0.14c-0.01,0.01-0.03,0.02-0.04,0.03c-1.53,0.97-2.82,2.3-4.21,3.44
				c-1.7,1.39-3.39,2.69-5.12,4c-1.05-1.08-4.29,0.31-4.79,1.61c-0.82-0.49-1.64-0.25-2.52-0.2c-1.02,0.06-2.56,1.13-3.23,1.94
				c-1.4-0.48-1.81-0.26-3.1,0.46c-0.87-0.58-3.62-2.67-4.39-2.11c-0.3-0.64-0.41-0.59-0.9-1.12c-0.74-0.81-2.33-2.1-3.51-1.62
				c-0.2,0.08-0.3,0.32-0.13,0.49c0.32,0.33,0.7,0.46,1.1,0.68c-9.07,2.84-18.15,3.41-27.14,0.03c0.01,0,0.02-0.01,0.03-0.01
				c0.52-0.07,0.5-0.93,0-1.02c-2.07-0.38-2.2,0.23-3.07,2.27c-0.02-0.02-5.41,1.34-5.3,2.79c-2.63-0.38-6.21,1.05-7,2.21
				c-12.06,2.74-24.63,14.34-30.57,25c-2.12,1.59-3.68,3.73-3.38,6.43c-0.22,0.68-0.41,1.38-0.69,2.04
				c-0.3,0.71-0.74,1.36-1.08,2.06c-0.07,0.14-0.04,0.28,0.03,0.4c-0.11,0.19-0.06,0.46,0.2,0.58c7.99,3.34,14.96,8.2,22.65,12.08
				c-1.03,3.11-2.68,6.78-1.91,10.08c0.83,3.55,2.83,5.97,5.6,7.34c-0.46,1.26-0.12,2.89,0.93,3.76c0.02,0.01,0.04,0.01,0.06,0.02
				c-0.06,0.05-0.1,0.13-0.11,0.23c-0.6,6.42-1.53,12.58-3.2,18.8c-1.36,5.06-3.52,9.98-4.44,15.13c-0.01,0.07,0.01,0.14,0.04,0.21
				c-2.06,3.44-2.62,7.78-2.96,11.73c-0.22,0.71-0.29,1.8-0.62,2.47c-0.53,1.08-1.76,3.52-1.67,3.64c0.01,0.01-0.79,1.81-0.68,1.84
				c5.9,3.01,15.07,3.95,21.56,4.75c9.23,1.13,16.85,1.55,26.16,1.45c16.74-0.19,37.92-9.34,50.6-10.08c0,0-0.42-0.47-0.86-1.32
				c-0.33-0.64-0.6-1.3-0.8-1.97c-0.34-3.98-0.89-8.38-2.98-11.86c0.03-0.06,0.05-0.13,0.04-0.21c-0.92-5.14-3-10.12-4.45-15.13
				c-1.78-6.18-2.61-12.41-3.2-18.8c-0.01-0.1-0.05-0.18-0.11-0.23c0.02-0.01,0.04-0.01,0.06-0.02c1.06-0.87,1.39-2.49,0.93-3.76
				c2.77-1.37,4.77-3.79,5.6-7.34c0.82-3.53-1.12-7.49-2.12-10.73c-0.62-2.03-1.19-4.08-1.76-6.14c0.06-0.03,0.11-0.08,0.11-0.15
				C191.88,244.27,191.89,244.21,191.9,244.14z"/>
			<g>
				<g>
					<path class="st91" d="M177.37,269.95c-1.62-0.07-3.86-1.62-5.27-0.49c-1.26,0.98-1.6,3.46,0.01,3.81
						c1.33,0.28,1.26-0.91,2.1-1.47c0.56-0.42,2.38,0.12,3.09-0.02c1.12-0.19,5.91-0.42,6.42-1.71
						C182.22,270.33,178.87,270.01,177.37,269.95z"/>
				</g>
			</g>
			<g>
				<path class="st81" d="M116.16,267.36c-3.5-1.19-3.87-3.17-4.84-7.3c-0.77-3.3,0.37-6.67,1.41-9.78
					c-6.2-3.13-10.44-6.48-16.62-9.59c-2.09,9.7-9.69,41.86,16.04,54.09c0.13-0.45,1.48-1.81,1.6-2.27
					c1.68-6.22,3.02-20.66,3.01-20.68C116.5,270.31,115.96,268.51,116.16,267.36z"/>
			</g>
			<g>
				<path class="st91" d="M154.93,331.73c-2.15-3.42-8.37-6.44-10.49-8.56c-7.87-7.08-10.56-9.31-12.58-27.31
					c-1.25-11.16,1.31-24.16,0-28.52c-8.52,0.63-11.8-0.42-14.95-5.93c-1.57-2.36-1.57-6.29-1.18-9.83
					c0.79-8.65,6.69-18.88,10.23-27.14c3.15-7.87,9.05-23.6,18.49-24.78h-1.18c-0.24-1.7-1.2-2.98-2.54-3.94
					c-0.09-0.03-0.18-0.06-0.27-0.09c0.01,0,0.02-0.01,0.03-0.01c0.52-0.07-1.75,1.03-3.27,1.44c-2.25,0.6-3.09,0.99-4,1.43
					c-0.74,0.35-1.25,0.19-1.68,0.9c-0.02-0.09-1.99,0.31-2.08,0.25c-1.34-0.96-3.55,1.07-4.34,2.23
					c-10.42,2.37-25.16,14.01-30.02,25.21c0,0,5.29-2.42,5.05-2.25c-4.42,2.97-5.41,6.73-4.43,9.69c0.27,0.83-0.02,4.59-0.49,5.37
					c7.01,2.71,11.25,6.93,17.06,10.57c-1.03,3.11-2.68,6.78-1.91,10.08c0.88,3.76,3.08,6.25,6.12,7.56
					c0.29,0.13,0.04,1.44,0.78,3.1c-0.06,0.05,0,0-0.01,0.1c-0.6,6.42-0.37,13.17-2.05,19.39c-1.36,5.06-3.78,8.84-4.7,13.99
					c-0.01,0.07-1.63,3.07-1.6,3.13c-2.06,3.44-1.41,5.1-1.76,9.04c-0.22,0.71-0.55,2.41-0.88,3.08c-0.53,1.08-1.32,1.54-1.64,2.7
					c-0.01,0.03-1.66,2.35-1.66,2.38c-0.09,0.19,2.79,1.35,3.03,1.48c5.54,3.04,18.2,3.6,24.39,4.35
					C138.59,331.84,146.71,331.82,154.93,331.73z"/>
			</g>
			<path class="st92" d="M186.77,235.34c-0.34-1.59-1.13-1.52-0.95,0.11c0.73,6.54,1.73,9.14,2.14,14.04
				c0.14,1.63,2.49,1.45,2.15-0.16C189.3,245.44,187.96,240.85,186.77,235.34z"/>
			<path class="st92" d="M191.31,299.27c-3.33-6.49-4.58-14.23-4.95-21.7c-0.07-1.37-0.66-1.39-0.78,0.03
				c-0.59,6.92,0.39,16.16,5.14,22.52C191.44,301.09,192.22,301.05,191.31,299.27z"/>
			<g>
				<path class="st80" d="M197.27,325.98c0.07-0.02,0.13-0.04,0.2-0.06C197.38,325.94,197.32,325.96,197.27,325.98z"/>
				<path class="st80" d="M196.08,322.71c0,0-0.02-0.05-0.05-0.12C196.05,322.63,196.06,322.65,196.08,322.71z"/>
				<path class="st80" d="M166.91,329.94c0,0,26.53-2.85,30.28-3.94c0,0-0.47-1.69-1.11-3.29L166.91,329.94z"/>
				<path class="st80" d="M197.19,326c0,0,0.03-0.01,0.08-0.02C197.24,325.99,197.22,325.99,197.19,326z"/>
				<path class="st80" d="M198.75,325.54c0.03-0.01,0.04-0.01,0.06-0.02C198.79,325.53,198.78,325.54,198.75,325.54z"/>
				<path class="st80" d="M197.47,325.92c0.03-0.01,0.06-0.02,0.09-0.03C197.53,325.9,197.5,325.91,197.47,325.92z"/>
				<path class="st80" d="M198.81,325.53C198.86,325.51,198.86,325.51,198.81,325.53L198.81,325.53z"/>
				<path class="st80" d="M198.74,325.55L198.74,325.55L198.74,325.55z"/>
				<path class="st80" d="M197.56,325.89c0.65-0.19,1.02-0.3,1.19-0.35C198.5,325.62,197.94,325.78,197.56,325.89z"/>
			</g>
			<path class="st84" d="M245.36,94.67c-0.69-0.34-0.77,0.09-0.33,0.47c1.77,1.52,2.11,4.43,2.51,6.44c0.2,0.99,1.53,0.55,1.33-0.44
				C248.34,98.49,246.91,95.44,245.36,94.67z"/>
			<path class="st84" d="M266.66,82.43c-0.71-0.73-1.83-1.01-1.11-0.3c1.2,1.18,0.45,5.24,0.16,6.64c-0.33,1.57-0.81,3.1-1.28,4.63
				c-0.3,0.97,1.4,2.11,1.69,1.14C267.02,91.63,268.86,84.71,266.66,82.43z"/>
			<path class="st84" d="M263.46,75.56c-0.15-1-1.42-1.9-1.27-0.91c0.61,4.12-1.23,9.93-2.48,13.81c-0.31,0.97,1.19,2.2,1.5,1.24
				C262.56,85.5,264.12,80.02,263.46,75.56z"/>
			<path class="st84" d="M256.12,68.36c-0.3-0.96-1.21-0.82-0.89,0.14c1.34,4-1.08,11.94-2.04,16.78c-0.2,0.99,1.57,1.84,1.77,0.85
				C255.96,81.06,257.73,73.47,256.12,68.36z"/>
			<path class="st84" d="M247.82,72.11c-0.34-0.95-1.34-1.15-1-0.2c1.29,3.61-0.61,8.12-1.14,11.79c-0.14,0.99,1.64,1.45,1.79,0.45
				C248.03,80.21,249.21,75.98,247.82,72.11z"/>
			<path class="st84" d="M242.01,90.65c-2.25-2.2-5.47-4.24-8.68-4.51c-1.01-0.09-1.4,0.96-0.39,1.05c2.77,0.24,5.53,2.62,7.44,4.49
				C241.1,92.39,242.74,91.36,242.01,90.65z"/>
			<path class="st84" d="M255.57,113.1c-3.45,21.42-8.56,42.6-19.29,62.75c-0.48,0.9,0.2,1.26,0.69,0.38
				c9.88-17.94,16.66-41.23,20.13-62.75C257.25,112.48,255.73,112.1,255.57,113.1z"/>
			<path class="st93" d="M207.54,219.58l1.67,4.09c0,0,1.89-4.18,0.61-6.15s0,0,0,0L207.54,219.58z"/>
			<g>
				<path class="st91" d="M174.03,201.07c0.5,1.22,3.32-1.6,4.18-0.47c0.71,0.93-0.55,3.11-0.55,3.11c1.64-0.82,3.35-5.64,6.27-4.5
					c0.83,0.33,2.79-0.74,3.46-0.9c2.75-0.79,4.17,1.92,6.14-0.24c1.57-1.97,4.3-0.67,6.27-2.05l-0.73-7.69
					c-0.04,0-2.27,1.24-2.32,1.24c-0.9,0.74-1.75,1.54-2.65,2.27c-1.7,1.39-3.39,2.69-5.12,4c-1.05-1.08-4.29,0.31-4.79,1.61
					c-0.82-0.49-1.64-0.25-2.52-0.2c-1.02,0.06-2.56,1.13-3.23,1.94c-1.4-0.48-1.81-0.26-3.1,0.46c-0.72-0.48-4.44-2.4-5.55-2.58
					C169.83,197.3,173.93,200.81,174.03,201.07z"/>
			</g>
			<path class="st81" d="M199.8,196.02c0,0,8.87-5.26,18.98-20.4c13.57-20.33,16.78-52.53,16.78-52.53s-10.41,44.27-36.49,65.91l0,0
				L199.8,196.02z"/>
			<path class="st91" d="M191.42,243.88c0,0,1.38-10.48,2.17-12.22c0.79-1.75,0,0,0,0s4.52-10.6,12.46-15.97l3.08,8.48l0,0
				C209.14,224.17,192.92,239.26,191.42,243.88"/>
			<path class="st81" d="M206.06,215.68c0,0,8.26-4.54,14.95-9.55l-13.37,13.48L206.06,215.68z"/>
			<g>
				<path class="st81" d="M240,102.14c-0.66-3.67-4.7-10.1-8.5-11.02c2.9,2.76,3.76,6,4.98,9.75c2.75,8.47,0.39,15.26,0.39,15.26
					C238.18,112.85,240.65,105.81,240,102.14z"/>
			</g>
			<path class="st81" d="M242.19,90.04c0,0,1.31-13.56,2.03-17.14c0.71-3.58,0,0,0,0s-2.53,0.55-4.89,14.81L242.19,90.04z"/>
			<path class="st93" d="M92.51,243.1c0,0-2.7-3.83-2.62-4.69l3.44,0.99L92.51,243.1z"/>
			<g>
				<path class="st8" d="M89.34,239.1c0.32,0.81,0.63,1.38,1.14,2.07c0.82,1.11,1.2,1.52,2.04,1.93c0.35,0.17,0.79-0.3,0.45-0.58
					c-1.27-1.05-2.1-2.76-3.06-4.12c-0.22-0.31-0.81-0.13-0.65,0.27L89.34,239.1z"/>
			</g>
			<g>
				<path class="st8" d="M117.46,233.27c-2.17,5.39-3.43,11.16-5.14,16.71c-1,3.24-2.95,7.2-2.12,10.73
					c1.33,5.7,5.68,8.51,11.4,8.68c0.75,0.02,0.71-1.06,0-1.14c-18.4-1.96-4.88-24-3.79-34.94
					C117.84,233.1,117.53,233.1,117.46,233.27L117.46,233.27z"/>
			</g>
			<g>
				<path class="st8" d="M126.57,269.57c1.55,0.28,3.52-0.07,4.98-0.63c0.2-0.08,0.17-0.37-0.05-0.38
					c-0.76-0.05-1.55,0.11-2.29,0.26c-0.88,0.18-1.77,0.26-2.64,0.45C126.42,269.31,126.42,269.54,126.57,269.57L126.57,269.57z"/>
			</g>
			<g>
				<path class="st8" d="M130.83,199.47c-1.42-1.01-5.41,0.58-6.04,2.79c-0.09,0.33,0.17,0.65,0.47,0.47
					c0.56-0.34,0.98-0.88,1.49-1.27c1.87-1.41,3.91-1.31,4.3-1.41c0.33-0.09,0.07-0.11-0.18-0.29L130.83,199.47z"/>
			</g>
			<g>
				<path class="st8" d="M93.79,234.5c-0.01-0.03-0.2,0.31,0.58,0.47c1.28,0.26,2.51,0.73,3.72,1.19c3.34,1.29,6.24,3.37,9.14,5.42
					c0.28,0.2,0.59-0.23,0.36-0.46c-2.4-2.33-5.36-4.14-8.44-5.42c-0.99-0.41-4.66-2.39-5.71-1.5c-0.1,0.09-0.05,0.27,0.08,0.3
					c0.07,0.02,0.15,0.03,0.22,0.05C93.78,234.55,93.8,234.53,93.79,234.5L93.79,234.5z"/>
			</g>
			<g>
				<path class="st8" d="M91,233.48c-0.23,0.68-0.41,1.39-0.69,2.05c-0.3,0.71-0.74,1.36-1.08,2.06c-0.17,0.35,0.18,0.74,0.54,0.54
					c1.57-0.86,2.02-2.87,2.06-4.54C91.83,233.1,91.14,233.04,91,233.48L91,233.48z"/>
			</g>
			<g>
				<path class="st8" d="M89.46,238.56c8.08,3.37,15.11,8.31,22.9,12.21c0.3,0.15,0.65-0.24,0.37-0.48
					c-3.73-3.32-8.12-6.02-12.54-8.33c-3.2-1.66-6.84-4.5-10.62-4.18C89.1,237.82,89.05,238.39,89.46,238.56L89.46,238.56z"/>
			</g>
			<g>
				<path class="st8" d="M131.18,202.69c-3.69,2.78-5.35,8.21-7.53,12.13c-0.16,0.3,0.25,0.65,0.48,0.37
					c2.98-3.56,3.92-8.84,7.54-11.86C132.03,203.03,131.55,202.41,131.18,202.69L131.18,202.69z"/>
			</g>
			<g>
				<path class="st8" d="M125.12,201.91c-0.56,1.16-0.15,2.72,0.18,3.9c0.1,0.37,0.63,0.28,0.65-0.09c0.05-1.18,0.19-2.73-0.36-3.81
					C125.5,201.73,125.21,201.73,125.12,201.91L125.12,201.91z"/>
			</g>
			<g>
				<path class="st8" d="M91.49,233.85c0.96-2.09,1.16-3.99,2.97-5.62c1.58-1.42,3.71-2.15,5.51-3.25c0.34-0.21,0.12-0.78-0.27-0.65
					c-3.91,1.32-9.48,4.47-8.68,9.46C91.05,234,91.4,234.05,91.49,233.85L91.49,233.85z"/>
			</g>
			<g>
				<path class="st8" d="M94.64,227.85c9.05-10.55,17.36-19.69,30.57-25.02c0.48-0.19,0.31-0.9-0.22-0.78
					c-12.23,2.75-25.01,14.64-30.85,25.41C93.97,227.77,94.39,228.13,94.64,227.85L94.64,227.85z"/>
			</g>
			<g>
				<path class="st8" d="M115.97,267.65c-0.7,1.3-0.41,3.2,0.76,4.16c0.29,0.24,0.76,0.02,0.66-0.38c-0.15-0.58-0.44-1.11-0.63-1.67
					c-0.21-0.6-0.28-1.34-0.24-1.96C116.54,267.51,116.1,267.4,115.97,267.65L115.97,267.65z"/>
			</g>
			<g>
				<path class="st8" d="M116.68,272.07c-0.6,6.42-1.53,12.58-3.2,18.8c-1.36,5.06-3.52,9.98-4.44,15.13
					c-0.06,0.36,0.46,0.64,0.63,0.27c4.56-10.05,8.47-23.08,7.68-34.2C117.31,271.64,116.72,271.65,116.68,272.07L116.68,272.07z"/>
			</g>
			<g>
				<path class="st8" d="M110.66,304.05c-3.56,3.77-4.18,9.48-4.6,14.44c-0.04,0.42,0.58,0.46,0.7,0.09
					c1.48-4.75,0.93-10.02,4.46-13.98C111.55,304.23,111.01,303.68,110.66,304.05L110.66,304.05z"/>
			</g>
			<g>
				<path class="st8" d="M106.45,316.33c-0.11,1.31-0.62,2.51-1.19,3.68c-0.53,1.08-1.95,4.7-2.86,5.68c-0.31,0.34,0.6,1.2,0.91,0.8
					c0.83-1.06,2.48-5.25,2.98-6.5c0.46-1.16,0.93-2.48,0.47-3.71C106.7,316.11,106.46,316.14,106.45,316.33L106.45,316.33z"/>
			</g>
			<g>
				<path class="st8" d="M117.21,303.56c1.78,2.04,3.92,3.76,6.32,5.03c0.44,0.23,0.79-0.39,0.38-0.66
					c-2.22-1.48-4.15-3.32-6.33-4.85C117.28,302.87,116.99,303.31,117.21,303.56L117.21,303.56z"/>
			</g>
			<g>
				<path class="st8" d="M116.91,271.85c0.67,0.44,1.46,0.76,2.26,0.81c0.19,0.01,0.28-0.29,0.1-0.37c-0.71-0.32-1.48-0.4-2.16-0.79
					C116.89,271.39,116.7,271.71,116.91,271.85L116.91,271.85z"/>
			</g>
			<g>
				<path class="st8" d="M93.17,239.25c-6.87,19.35-3.21,49.22,19.18,56.07c0.64,0.2,1.1-0.88,0.45-1.08
					c-10.33-3.17-18.4-12.21-20.77-25.05c-1.79-9.69-0.22-23.09,1.96-29.83C94.15,238.89,93.32,238.83,93.17,239.25L93.17,239.25z"
					/>
			</g>
			<g>
				<path class="st8" d="M188.41,233.92c2.17,5.39,3.43,11.16,5.14,16.71c1,3.24,2.95,7.2,2.12,10.73c-1.33,5.7-5.68,8.51-11.4,8.68
					c-0.75,0.02-0.71-1.06,0-1.14c18.4-1.96,4.88-24,3.79-34.94C188.04,233.74,188.34,233.74,188.41,233.92L188.41,233.92z"/>
			</g>
			<g>
				<path class="st8" d="M179.31,270.21c-1.55,0.28-3.52-0.07-4.98-0.63c-0.2-0.08-0.17-0.37,0.05-0.38
					c0.76-0.05,1.55,0.11,2.29,0.26c0.88,0.18,1.77,0.26,2.64,0.45C179.45,269.95,179.46,270.19,179.31,270.21L179.31,270.21z"/>
			</g>
			<g>
				<path class="st8" d="M189.36,268.44c0.04,0.57-0.04,1.17-0.17,1.73c-0.15,0.66-0.53,1.25-0.7,1.91
					c-0.1,0.41,0.36,0.62,0.66,0.38c1.17-0.96,1.46-2.86,0.76-4.16C189.77,268.04,189.34,268.15,189.36,268.44L189.36,268.44z"/>
			</g>
			<g>
				<path class="st8" d="M188.53,272.72c-0.78,11.12,3.13,24.15,7.68,34.2c0.17,0.38,0.69,0.09,0.63-0.27
					c-0.92-5.14-3-10.12-4.44-15.13c-1.78-6.18-2.61-12.41-3.2-18.8C189.16,272.29,188.56,272.28,188.53,272.72L188.53,272.72z"/>
			</g>
			<g>
				<path class="st8" d="M194.66,305.25c3.53,3.96,2.97,9.22,4.46,13.98c0.12,0.37,0.74,0.32,0.7-0.09
					c-0.42-4.96-1.04-10.67-4.6-14.44C194.87,304.32,194.33,304.87,194.66,305.25L194.66,305.25z"/>
			</g>
			<g>
				<path class="st8" d="M199.11,316.93c-0.4,0.99-0.19,2.02,0.13,3.01c0.4,1.23,0.66,1.03,1.44,2.07c0.31,0.42,0.68,0.6,0.74,0
					c0.02-0.25-0.39-0.47-0.83-1.32c-0.61-1.18-1.02-2.4-1.15-3.72C199.41,316.78,199.18,316.76,199.11,316.93L199.11,316.93z"/>
			</g>
			<g>
				<path class="st8" d="M188.3,303.72c-2.18,1.53-4.11,3.37-6.33,4.85c-0.41,0.27-0.05,0.89,0.38,0.66
					c2.39-1.27,4.54-2.99,6.32-5.03C188.88,303.96,188.6,303.51,188.3,303.72L188.3,303.72z"/>
			</g>
			<g>
				<path class="st8" d="M188.77,272.15c-0.69,0.38-1.46,0.47-2.16,0.79c-0.18,0.08-0.09,0.38,0.1,0.37
					c0.8-0.06,1.59-0.37,2.26-0.81C189.18,272.35,188.99,272.03,188.77,272.15L188.77,272.15z"/>
			</g>
			<g>
				<path class="st8" d="M103.11,326.54c5.93,3.08,13.83,3.64,20.39,4.44c9.23,1.13,16.43,1.99,25.74,1.88
					c16.74-0.19,44.94-11.1,51.89-10.47c0.26,0.02,0.53-0.62,0.21-0.61c-11.47,0.23-34.98,9.34-51.09,9.97
					c-15.85,0.62-36.45-2.01-46.74-6.22C103.02,325.33,103.11,326.54,103.11,326.54z"/>
			</g>
			<g>
				<path class="st8" d="M192.14,244.04c2.99-3.17,5.43-6.88,8.28-10.19c2.91-3.39,6.15-6.46,9.18-9.73
					c0.38-0.41-0.19-0.96-0.61-0.61c-6.44,5.43-13.31,12.68-17.35,20.14C191.47,243.97,191.89,244.31,192.14,244.04L192.14,244.04z"
					/>
			</g>
			<g>
				<path class="st8" d="M209.68,223.71c-4.28-11.77-7.47-23.18-10.6-35.3c-0.14-0.53-1.03-0.43-0.97,0.13
					c1.26,11.86,4.84,25.11,10.85,35.47C209.18,224.39,209.84,224.14,209.68,223.71L209.68,223.71z"/>
			</g>
			<g>
				<path class="st8" d="M198.46,188.06c-1.64,0.98-2.98,2.4-4.45,3.6c-1.81,1.48-3.9,2.55-5.72,3.99c-0.33,0.26,0.03,0.82,0.41,0.7
					c1.84-0.6,3.48-1.87,4.98-3.06c1.82-1.44,3.82-2.94,5.19-4.83C199.04,188.22,198.7,187.92,198.46,188.06L198.46,188.06z"/>
			</g>
			<g>
				<path class="st8" d="M191.9,244.34c0.38-4.34,1.44-8.26,2.4-12.49c0.11-0.47-0.56-0.65-0.71-0.2c-1.3,3.84-3.19,8.65-2.05,12.73
					C191.6,244.6,191.89,244.54,191.9,244.34L191.9,244.34z"/>
			</g>
			<path class="st8" d="M179.29,198.5c-1.7-0.8-3.15-0.36-4.44,0.73c-0.25,0.21-0.05,1.02,0.24,0.96c0.82-0.15,0.86-0.75,1.67-0.97
				c0.95-0.25,1.2,0.06,2.12,0C179.17,199.2,179.56,198.62,179.29,198.5z"/>
			<g>
				<path class="st8" d="M177.67,203.72c0.78-0.53,1.22-1.43,1.54-2.3c0.22-0.61,0.89-2.47,0.09-2.92
					c-0.75-0.43-0.96,0.62-1.01,1.16c-0.13,1.34-0.66,2.53-0.92,3.83C177.32,203.64,177.5,203.83,177.67,203.72L177.67,203.72z"/>
			</g>
			<g>
				<path class="st8" d="M178.78,199.45c1.02-0.39,1.68-1.23,2.83-1.39c0.99-0.14,1.99,0.3,2.92-0.04c0.34-0.13,0.35-0.6,0.08-0.8
					c-0.86-0.66-2.44-0.62-3.46-0.4c-1.15,0.24-2.41,1.08-2.83,2.2C178.2,199.3,178.5,199.56,178.78,199.45L178.78,199.45z"/>
			</g>
			<g>
				<path class="st8" d="M184.06,197.71c-0.22,1.09-1.16,1.95-1.91,2.7c-0.78,0.77-1.56,1.56-2.22,2.44
					c-0.32,0.42,0.34,0.86,0.7,0.54c0.99-0.89,2.02-1.71,2.91-2.7c0.7-0.78,1.68-1.85,1.42-2.98
					C184.86,197.27,184.15,197.25,184.06,197.71L184.06,197.71z"/>
			</g>
			<g>
				<path class="st8" d="M184.7,197.7c0.25-0.12,0.4-0.34,0.6-0.52c0.27-0.25,0.61-0.45,0.94-0.62c0.72-0.37,1.56-0.33,2.34-0.41
					c0.24-0.03,0.4-0.25,0.28-0.48c-0.97-1.82-5.51,0.26-4.61,1.91C184.33,197.75,184.54,197.77,184.7,197.7L184.7,197.7z"/>
			</g>
			<g>
				<path class="st8" d="M188.76,195.68c-0.91,0.31-1.57,1.35-1.95,2.18c-0.16,0.36,0.27,0.77,0.58,0.45
					c0.61-0.64,1.28-1.44,1.69-2.22C189.19,195.89,189.01,195.6,188.76,195.68L188.76,195.68z"/>
			</g>
			<g>
				<path class="st8" d="M246.24,94.73c1.74,1.63,2.36,3.72,3.16,5.91c0.12,0.33,0.69,0.31,0.65-0.09
					c-0.18-1.94-1.36-5.72-3.51-6.33C246.25,94.13,246.02,94.52,246.24,94.73L246.24,94.73z"/>
			</g>
			<path class="st8" d="M266.62,95.13c1.23-4.03,2.78-8.51,1.22-12.09c-0.78-1.8-2.37-2.5-3.61-1.83c0.02-0.1,0.05-0.19,0.07-0.29
				c0.37-1.91,1.14-6.52-1.62-7.8c-2.11-0.69-3.89,0.86-4.85,2.15c-0.1,0.13-0.16,0.29-0.25,0.43c0.41-3.3,0.35-6.83-0.59-7.99
				c-1.71-2.08-4.28-0.68-5.42,0.95c-1.03,1.48-1.68,3.27-2.29,5.27c-0.34-2.36-1.31-4.13-3.29-3.88c-2.43,0.3-3.96,3.41-4.62,5.31
				c-1.29,3.67-2.26,9.59-2.41,11.4c-1.47-0.74-3.09-1.25-4.62-1.67c-1.78-0.49-3.78,0.44-4.62,1.72c-1.68,2.56,2.22,5.74,3.53,7.73
				c2.86,4.33,4.49,11.72,3.96,14.79c-3.59,23.81-14.9,60.84-38.4,79.21c-0.21,0.16,0.02,0.55,0.26,0.45
				c6.78-2.82,11.6-9.94,15.77-15.7c4.96-6.86,8.9-15.06,12.12-22.89c3.02-7.32,5.54-14.87,7.8-22.45
				c1.66-5.58,3.17-14.11,3.78-18.07c0.6-3.64-0.37-7.27-1.75-10.68c-0.73-1.82-1.43-3.63-2.4-5.34c-0.96-1.69-4.48-4.55-3.82-6.21
				c1.51-3.51,9.32,1.06,11.72,3.23c0.35,0.32,0.88-0.08,0.66-0.51c-0.7-1.31-1.75-2.27-2.96-3.03c0.78-3.02,0.87-4.06,1.34-6.72
				c0.46-2.65,2.38-9.01,4.82-9.16c3.59,0.25,1.67,9.33,1.31,12.67c-0.02,0.19,0.37,0.32,0.45,0.12c0.18-0.45,2.39-8.29,3.01-10.58
				c0.45-1.64,0.84-3.06,1.7-4.47c0.76-1.25,2-1.27,2.61-1.08c1.62,0.59,1.43,4.28,1.16,6.45c-0.47,3.7-1.47,7.51-1.46,11.23
				c0,0.24,0.37,0.37,0.48,0.13c0.21-0.47,2.02-7.47,2.49-8.37c0.43-0.83,2.13-4.1,4.54-2.8c0.77,0.42,0.74,1.47,0.76,2.14
				c0.06,1.81-0.35,3.64-0.73,5.39c-0.35,1.63-1.52,6.63-1.27,7.39c0,0,0.18,0.4,0.43,0.14c0.66-0.69,1.97-5.87,2.32-7.43
				c1.3-1.06,2.55,0.06,3.05,1.83c0.39,1.38,0.18,3.06-0.02,4.44c-0.26,1.83-0.8,3.6-1.25,5.39c-0.96,3.87-3.61,12.72-5.98,17
				c-2.07,8.46-3.63,15.71-5.38,23.21c-2.36,10.1-5.75,19.72-9.62,29.34c-8.51,21.13-21.48,39.81-37.7,55.68
				c-0.43,0.42,0.2,1,0.64,0.64c32.41-25.74,46.74-73.27,53.2-108.66C264.61,103.13,266.05,97.09,266.62,95.13z"/>
			<g>
				<path class="st8" d="M209.83,223.84c0.33-1.23,0.59-2.45,0.73-3.71c0.11-0.99,0.32-2.4-0.3-3.24c-0.09-0.12-0.26-0.11-0.31,0.04
					c-0.28,0.84-0.06,1.84-0.12,2.73c-0.08,1.34-0.36,2.7-0.61,4.01C209.13,224.07,209.72,224.24,209.83,223.84L209.83,223.84z"/>
			</g>
			<g>
				<path class="st8" d="M196.08,322.71c0.11,0.81,0.28,1.58,0.57,2.31c0.22,0.57,0.5,1.41,1.3,1.52c0.11,0.02,0.26-0.08,0.25-0.19
					c-0.03-0.58-0.54-0.99-0.78-1.48c-0.36-0.74-0.56-1.59-0.77-2.41C196.6,322.22,196.04,322.44,196.08,322.71L196.08,322.71z"/>
			</g>
			<g>
				<path class="st8" d="M194.13,197.16c-0.23,5.24,1.58,10.83,3.99,15.43c0.11,0.21,0.41,0.03,0.32-0.19
					c-2.12-4.84-3.39-10.06-4.14-15.27C194.28,197.03,194.13,197.06,194.13,197.16L194.13,197.16z"/>
			</g>
			<g>
				<path class="st80" d="M168.42,193.14c0.14-1.95-0.29-7.09-0.29-7.09c-0.26-3.58-0.5-3.12-4.77-4.41
					c-3.81-1.15-7.59-0.93-11.5-0.55c-2.38,0.23-6.99-0.05-9.1,1.23c-3.56,2.15-3.82,7.47-4.17,11.15c-0.08,0.83-1.38,2.44-1.38,3.6
					c0.01,1.02,9.16,4.5,12.43,5.03c3.2,0.51,7-0.04,10.05-0.89c1.5-0.42,9.04-3.17,10.11-4.14
					C170.63,196.63,168.45,193.22,168.42,193.14z"/>
				<g>
					<path class="st8" d="M168.2,185.54c-1.22,1.44-0.69,4.38-0.48,6.22c0.22,2.02,0.91,4.63,2.3,5.92c0.2,0.19,0.85-0.84,0.57-0.98
						c-0.54-0.26-1.04-1.89-1.36-3.56c-0.24-1.31-0.25-3.08-0.36-4.42c-0.08-1.02-0.01-2.1-0.32-3.07
						C168.49,185.47,168.33,185.39,168.2,185.54L168.2,185.54z"/>
				</g>
				<g>
					<path class="st8" d="M136.5,196.56c-2.28,0.24-3.63,1.13-5.36,2.45c-0.68,0.52,0.14,1.42,0.78,0.84
						c2.09-1.91,2.62-1.77,5.21-2.3c0.5-0.1,0.22-0.54-0.2-0.58L136.5,196.56z"/>
				</g>
				<g>
					<path class="st8" d="M170.59,196.7c1.54,0,3.84,0.98,5.05,2.52c0.53,0.68-0.18,1.47-0.73,0.81c-0.94-1.13-2.94-2.33-4.58-2.45
						c-0.51-0.04-0.69-0.58-0.26-0.62L170.59,196.7z"/>
				</g>
				<g>
					<path class="st8" d="M130.88,199.76c3.27,5.59,14.73,9.88,23.32,9.33c10.04-0.64,16.46-2.95,21.43-8.93
						c0.39-0.47-0.29-1.17-0.65-0.69c-9.46,12.51-34.29,10.87-43.45-0.09C131.22,199.01,130.67,199.33,130.88,199.76L130.88,199.76z
						"/>
				</g>
				<path class="st81" d="M145.15,200.28c0,0-1.37-7.5,1.75-12.02l-7.79-2.08c1.28,4.23-1.48,11.71-1.99,11.37L145.15,200.28z"/>
				<g>
					<path class="st8" d="M138.55,186.69c-0.12,0.53,0.03,1.02,0.08,1.56c0.09,1.12-0.18,2.28-0.4,3.37
						c-0.36,1.78-0.84,3.55-1.81,5.08c-0.44,0.7,0.93,1.09,1.39,0.52c1.34-1.65,1.72-3.99,2.01-5.95c0.18-1.21,0.4-3.91-1.03-4.66
						C138.71,186.55,138.57,186.6,138.55,186.69L138.55,186.69z"/>
				</g>
				<g>
					<path class="st8" d="M136.62,197.45c9.94,7.04,24.14,6.88,34.1,0.1l-0.99-1.27c-10.07,6.84-22.11,5.49-32.46,0.05
						C136.61,195.98,136.03,197.03,136.62,197.45L136.62,197.45z"/>
				</g>
			</g>
			<path class="st8" d="M198.53,325.53c-7.39,1.44-24.13,3.65-29.83,4.05c-1.14,0.08-4.7,1.23-4.7,1.23
				c7.72-0.64,27.34-2.85,35.11-4.38C199.49,326.35,198.9,325.46,198.53,325.53z"/>
		</g>
		<g>
			<path class="st80" d="M228.92,115.69c-0.82-3.14-6.15-2.64-12.52-3.24c-1.42-0.13-3.23-1.47-4.33-1.78
				c-7.2-2.02-25.38-16.26-42.73-33.93c-0.3-0.24-6.73-7.59-10.32-9.5c-1.42-0.93-2.87-1.74-4.33-2.41c-0.39-0.2-0.78-0.4-1.18-0.58
				c0,0,0,0-0.01,0l0,0c-0.55-0.25-1.11-0.51-1.68-0.72c-1.05-0.4-1.92-0.51-2.63-0.41c-0.97-0.14-1.92-0.2-2.86-0.14
				c-5.59,0.36-12.69,9.79-14.67,7.07c-0.29-1.19-1.49-2.1-4.17-3.12c-2.17-0.82-7.22-2.24-9.5-1.26
				c-4.47,1.94-5.15-0.02-11.47,12.07c-3.18,6.08-6.31,12.89-10.73,21.04c-1.78,3.28-6.2,10.09-10.88,11.34
				c-3.61,0.96-7.69-3.92-9.67-1.36c-7.58,9.83-2.59,18.48,5.19,20.94c1.22,0.65,6.83,0.7,7.09-0.51c1.21,1.56,1.27,5.09,1.84,6.96
				c1.38,4.51,5.95,14.54,5.98,14.56c3.82,8.98,22.59,32.17,46.7,36.53c10.52,1.91,13.2,2.36,23.6,0
				c10.19-2.31,16.41-6.09,22.93-12.76c7.34-7.51,11.48-9.4,16.17-18.85c2.38-4.8,6.19-13.14,8.32-17.98
				c0.23-0.51,1.51-6.28,2.52-8.09c2.84,0.86,5.71,0.08,7.65-1.42C227.95,124.43,229.79,119.04,228.92,115.69z"/>
			<path class="st81" d="M131.67,69.73c-0.29-1.19-1.49-2.1-4.17-3.12c-2.17-0.82-7.22-2.24-9.5-1.26
				c-4.47,1.94-5.15-0.02-11.47,12.07c-3.18,6.08-6.31,12.89-10.73,21.04c-1.78,3.28-6.2,10.09-10.88,11.34
				c-3.61,0.96-7.69-3.92-9.67-1.36c-7.58,9.83-2.59,18.48,5.19,20.94c1.22,0.65,6.83,0.7,7.09-0.51c1.21,1.56,1.27,5.09,1.84,6.96
				c1.38,4.51,5.95,14.54,5.98,14.56c3.82,8.98,20.99,38.8,63.81,38.64c0,0-15.88-2.62-28.26-9.27c-8.74-4.7-18.57-14.91-23.87-22.3
				c-6.07-8.47-20.67-37.55-11.95-48.88c13.65-17.74,13.72-33.02,22.15-37.23C124.18,67.86,131.67,69.73,131.67,69.73z"/>
			<g>
				<path class="st8" d="M222.11,115.98c1.24,2.15,0.74,4.48-1.32,5.88c-0.39,0.26-0.07,0.85,0.36,0.71
					c2.74-0.86,3.53-5.1,1.39-6.97C222.28,115.37,221.95,115.7,222.11,115.98L222.11,115.98z"/>
			</g>
			<g>
				<path class="st8" d="M77.37,108c8.33,6.85,14.11-0.76,18.08-8.57c4.08-8.04,8.81-15.71,13.26-23.55
					c6.2-10.92,14.42-10.86,24.12-4.73c0.76,0.48,1.56-0.56,0.96-1.2c-4.72-5.11-14.77-7.78-20.67-2.9
					c-5.86,4.86-8.88,13.29-12.63,19.76c-4.22,7.29-10.93,28.66-22.67,20.63C77.48,107.21,77.05,107.73,77.37,108L77.37,108z"/>
			</g>
			<g>
				<path class="st8" d="M77.07,107.15c-5.91,2.08-6.87,10.08-5.49,15.41c1.83,7.04,10.55,9.37,16.75,7.67
					c0.68-0.18,0.41-1.19-0.27-1.05c-6.24,1.26-12.78-0.5-15.27-6.93c-1.78-4.59,0.04-12,4.7-14.05
					C78.07,107.94,77.67,106.94,77.07,107.15L77.07,107.15z"/>
			</g>
			<g>
				<path class="st8" d="M79.01,115.41c-2.32,1.39-1.27,5.84,0.96,6.78c0.15,0.06,0.37,0,0.48-0.12c0.54-0.59-0.8-1.45-1.07-1.9
					c-0.8-1.34-0.81-3.02,0.11-4.26C79.71,115.61,79.31,115.23,79.01,115.41L79.01,115.41z"/>
			</g>
			<path class="st84" d="M209.39,124.99c-3.93,22.72-14.09,45.63-32.68,54.94c-0.91,0.45-0.31,1.09,0.6,0.64
				c19.79-9.82,31.04-31.83,35.03-54.91C212.51,124.66,209.56,123.99,209.39,124.99z"/>
			<g>
				<path class="st84" d="M225.6,114.62c0.81,2.07,0.88,5.14-0.04,6.54c-1.23,1.87,0.64,2.71,1.38,1.34
					c1.36-2.53,0.59-6.06-0.3-8.08C226.01,112.98,225.06,113.25,225.6,114.62z"/>
			</g>
			<g>
				<path class="st8" d="M227.68,113.68c0.83,3.79,1.42,6.17-0.41,9.78c-1.22,2.42-3.51,3.78-5.94,4.75c-2,0.8-4.08,0.5-6.13,0.88
					c-0.23,0.04-0.29,0.4-0.08,0.51c3.82,1.87,9.85-0.88,12.18-4.16c2.19-3.09,3.02-8.91,0.97-12.23c-0.06-0.09-0.21-0.02-0.21,0.08
					L227.68,113.68z"/>
			</g>
			<g>
				<path class="st8" d="M133.38,71.62c4.37-4.62,8.52-7.23,15.11-7.54c7.39-0.35,12.64,5.86,17.66,10.38
					c6.99,6.31,12.92,13.69,19.95,19.97c12.9,11.53,30.9,23.62,49.22,19.39c0.36-0.08,0.28-0.61-0.07-0.63
					c-16.22-0.99-28.95-4.53-41.62-14.86c-8.85-7.21-16.4-15.45-24.5-23.46c-5.94-5.87-11.9-11.98-20.6-12.43
					c-6.38-0.33-13.1,2.97-15.53,8.94C132.9,71.6,133.22,71.78,133.38,71.62L133.38,71.62z"/>
			</g>
			<g>
				<path class="st8" d="M86.35,119.89c-0.11,16.1,8.37,34.75,18.99,46.7c11.51,12.95,27.96,21.22,44.97,22.43
					c36.11,2.56,60.99-32.35,67.31-68.93c0.17-0.97-1.32-1.43-1.49-0.44c-2.18,12.87-7.58,27.26-14.04,38.6
					c-4.14,7.26-10.74,13.74-17.34,18.78c-10.07,7.69-21.07,10.35-32.47,10.53c-18.25,0.29-32.23-8.81-44.24-20.26
					c-11.77-11.23-20.01-31.23-20.63-47.38C87.38,119.24,86.35,119.21,86.35,119.89L86.35,119.89z"/>
			</g>
			<g>
				<g>
					<path class="st8" d="M111.01,101.09c1.64,0,3.17-1.06,4.61-1.74c2.03-0.95,3.97-2.13,6-3.05c0.84-0.38,0.33-1.59-0.51-1.46
						c-2.46,0.38-4.49,0.88-6.7,2.1c-1.43,0.79-3.23,1.95-3.79,3.56C110.52,100.76,110.72,101.09,111.01,101.09L111.01,101.09z"/>
				</g>
				<g>
					<path class="st8" d="M185.91,101.09c-1.64,0-3.17-1.06-4.61-1.74c-2.03-0.95-3.97-2.13-6-3.05c-0.84-0.38-0.33-1.59,0.51-1.46
						c2.46,0.38,4.49,0.88,6.7,2.1c1.43,0.79,3.23,1.95,3.79,3.56C186.4,100.76,186.2,101.09,185.91,101.09L185.91,101.09z"/>
				</g>
				<g>
					<path class="st8" d="M144.33,127.73c2.11-1.54,3.61-3.38,6.44-3.49c3.51-0.14,5.59,2.65,8.12,4.47
						c0.35,0.25,0.72-0.22,0.55-0.55c-1.33-2.61-4.8-4.9-7.77-5.05c-3.34-0.17-5.87,1.57-7.56,4.4
						C144.02,127.64,144.19,127.83,144.33,127.73L144.33,127.73z"/>
				</g>
				<path class="st94" d="M115.83,123.1c-0.36,0.01-0.71,0.04-1.06,0.08c-2.91-0.34-5.93,0.31-8.15,1.78
					c-0.8,0.53-1.37,1.45-1.63,2.46c-0.66,0.89-0.4,2.14,0.25,2.88c0.07,0.16,0.14,0.32,0.23,0.46c1.59,2.44,4.46,2.99,6.8,3.21
					c0.8,0.07,1.87,0.12,3.01,0.06c0.28,0.26,0.62,0.47,1.06,0.53c3.52,0.45,9.12-0.51,9.41-6.12
					C126.02,123.7,119.07,122.34,115.83,123.1z"/>
				<path class="st94" d="M195.62,125.98c-0.57-0.65-1.23-1.19-1.94-1.66c0.05,0,0.1,0,0.15,0.01c0.27,0.03,0.29-0.47,0.06-0.57
					c-3.39-1.62-7.42-1.85-10.96-1.1c-0.19,0.04-0.42,0.1-0.66,0.18c-1.6,0.42-3.09,1.08-4.32,1.96c-0.84,0.6-1.14,2.4-0.33,3.25
					c0.28,0.29,0.6,0.51,0.91,0.74c1.61,2.78,5.15,2.88,7.59,2.92c3.04,0.05,7.3-0.36,9.51-3.39
					C196.08,127.67,196.16,126.58,195.62,125.98z"/>
				<g>
					<path class="st8" d="M109.41,121.08c2.87-0.29,5.64-0.88,8.54-0.83c3.42,0.06,6.11,1.59,9.32,2.37
						c0.31,0.08,0.58-0.32,0.32-0.56c-4.46-4.15-13.09-3.96-18.34-1.6C108.95,120.59,109.09,121.11,109.41,121.08L109.41,121.08z"/>
				</g>
				<g>
					<path class="st8" d="M190.16,120.46c-5.25-2.36-13.89-2.54-18.34,1.6c-0.25,0.24,0.01,0.63,0.32,0.56
						c3.24-0.78,5.9-2.12,9.32-2.37c2.88-0.21,5.69,0.54,8.54,0.83C190.32,121.11,190.46,120.59,190.16,120.46L190.16,120.46z"/>
				</g>
				<g>
					<path class="st8" d="M127.69,122.2c-0.21-0.65-0.56-1.22-0.99-1.75c-0.51-0.64-1.17-1.41-1.89-1.79
						c-0.32-0.17-0.67,0.17-0.49,0.49c0.68,1.26,2.11,1.97,2.74,3.32C127.22,122.83,127.81,122.57,127.69,122.2L127.69,122.2z"/>
				</g>
				<g>
					<path class="st8" d="M172.35,122.37c1.01-0.99,1.86-2.15,2.87-3.15c0.28-0.27-0.09-0.76-0.42-0.54
						c-1.2,0.79-2.48,1.85-3.11,3.19C171.5,122.28,171.99,122.71,172.35,122.37L172.35,122.37z"/>
				</g>
				<g>
					<path class="st29" d="M181.18,140.79c-0.01-0.01-0.02-0.01-0.03-0.02c-0.1-0.25-0.36-0.49-0.69-0.41
						c-25.47,6.28-39.29,4.09-59.19,1.87c-0.04,0-0.06,0.02-0.09,0.03c-0.03,0.01-0.05,0.01-0.07,0.02
						c-0.03,0.02-0.04,0.05-0.06,0.09c-0.01,0.02-0.03,0.03-0.04,0.06c-1.46,7.33,4.78,16.43,10.74,20.56
						c7.54,5.22,14.83,6.46,23.85,6.03c7.49-0.36,14.3-2.52,19.63-7.91C180.24,156.03,184.45,147.51,181.18,140.79z"/>
					<g>
						<g>
							<path class="st8" d="M121.31,142.68c9.07,2.56,19.96,2.97,29.34,2.59c9.93-0.4,20.5-1.71,30.18-3.93
								c0.54-0.12,0.31-0.95-0.23-0.83c-19.69,4.5-39.35,4.34-59.24,1.79C121.13,142.27,121.1,142.62,121.31,142.68L121.31,142.68z"
								/>
						</g>
					</g>
					<g>
						<g>
							<path class="st8" d="M121.17,142.44c-1.59,7.68,4.72,16.99,10.78,21.24c7.02,4.92,15.67,6.31,24.05,5.73
								c6.79-0.47,13.41-2.24,18.4-7.11c5.38-5.25,10.41-14.05,6.79-21.48c-0.11-0.22-0.44-0.06-0.39,0.16
								c2.09,8.15-1.99,16.59-8.35,21.85c-4.98,4.13-11.37,5.45-17.68,5.76c-15.27,0.74-33.89-8.31-33.24-26.1
								C121.56,142.28,121.21,142.22,121.17,142.44L121.17,142.44z"/>
						</g>
					</g>
					<g>
						<g>
							<path class="st8" d="M120.14,143c0.46-0.06,0.81-0.2,1.17-0.5c0.36-0.3,0.81-0.7,0.91-1.18c0.03-0.15-0.12-0.26-0.25-0.19
								c-0.35,0.18-0.57,0.56-0.84,0.84c-0.3,0.32-0.66,0.66-1.02,0.9C120.05,142.9,120.06,143.01,120.14,143L120.14,143z"/>
						</g>
					</g>
					<g>
						<g>
							<path class="st8" d="M179.73,139.41c-0.09,0.57,0.43,1.08,0.83,1.41c0.5,0.41,1.05,0.71,1.65,0.94
								c0.26,0.1,0.4-0.29,0.18-0.43c-0.45-0.29-0.92-0.57-1.33-0.91c-0.39-0.32-0.6-0.77-0.95-1.11
								C180,139.2,179.76,139.24,179.73,139.41L179.73,139.41z"/>
						</g>
					</g>
					<g>
						<path class="st8" d="M123.79,154.65c1.45,3.74,9.75,3.71,13.88,3.43c0.38-0.03,0.53-0.45,0.1-0.52
							c-2.13-0.31-4.29-0.36-6.44-0.62c-2.99-0.36-4.72-1.08-6.87-2.58C124.17,154.17,123.68,154.37,123.79,154.65L123.79,154.65z"
							/>
					</g>
					<g>
						<path class="st8" d="M126.14,157.82c2.18,0.38,4.62,0.54,6.7-0.14c0.31-0.1,0.23-0.48-0.09-0.52
							c-2.09-0.28-4.17,0.15-6.31-0.11C125.74,156.95,125.42,157.7,126.14,157.82L126.14,157.82z"/>
					</g>
					<g>
						<path class="st8" d="M180.82,153.44c-1.45,3.74-9.75,3.71-13.88,3.43c-0.38-0.03-0.53-0.45-0.1-0.52
							c2.13-0.31,4.29-0.36,6.44-0.62c2.99-0.36,4.72-1.08,6.87-2.58C180.44,152.96,180.93,153.16,180.82,153.44L180.82,153.44z"/>
					</g>
					<g>
						<path class="st8" d="M178.47,156.61c-2.18,0.38-4.62,0.54-6.7-0.14c-0.31-0.1-0.23-0.48,0.09-0.52
							c2.09-0.28,4.17,0.15,6.31-0.11C178.88,155.75,179.19,156.49,178.47,156.61L178.47,156.61z"/>
					</g>
					<g>
						<g>
							<path class="st8" d="M141.37,157.64c6.15,0.48,12.29-0.76,18.45-0.64c0.1,0,0.1-0.15,0-0.16
								c-6.14-0.63-12.29,0.84-18.45,0.58C141.23,157.42,141.23,157.63,141.37,157.64L141.37,157.64z"/>
						</g>
					</g>
				</g>
			</g>
		</g>
	</g>
</g>
</svg>
