<?xml version="1.0" encoding="utf-8"?>
<!-- Generator: Adobe Illustrator 18.1.0, SVG Export Plug-In . SVG Version: 6.00 Build 0)  -->
<svg version="1.0" id="Capa_1_copia" xmlns="http://www.w3.org/2000/svg" xmlns:xlink="http://www.w3.org/1999/xlink" x="0px"
	 y="0px" viewBox="0 0 85 90.9" enable-background="new 0 0 85 90.9" xml:space="preserve">
<rect x="-425" fill="#575756" width="1280" height="35"/>
<g>
	<rect x="-85" y="35" fill="#F9C91E" width="85" height="56"/>
</g>
<g>
	<rect y="34.9" fill="#CD1626" width="85" height="56"/>
	<g>
		<path fill="#FEF9C5" d="M61.8,82.1c0,0,0-0.1,0-0.1c0.2-0.1,0.3-0.3,0.3-0.6c0-0.2,0.1-0.4,0.1-0.6c0.3-0.9,0.4-1.2,0.5-2.3
			c0-0.3,0-0.5-0.2-0.7c0-0.4,0-0.7,0-1.1c0-0.3-0.1-0.5-0.2-0.6c0,0,0,0,0,0c0,0,0-0.1,0-0.1c0.3-0.4,0.5-0.9,0.5-1.4
			c0-0.6,0-1.3-0.1-1.9c0-0.4,0-0.7,0-1.1c0.2-2.6,0.5-5.2,0.4-7.8c0.5-0.8,0.6-1.7,0.7-2.8c0-0.2,0-0.5,0-0.7c0-0.1,0-0.2,0-0.3
			c0-0.5,0-1,0-1.5c0.1-0.4,0.2-0.8,0.3-1.2c0.4-1.2,0.8-2.4,0.6-3.7c-0.2-1-1.1-1.4-1.9-1.1c-0.1,0-0.2,0-0.2,0
			c-0.4-0.3-0.8-0.6-1.5-0.9c-0.5-0.2-0.9-0.1-1.2,0.2c-3.3-2.4-9-2.8-12.5-2c-0.2,0-0.3,0.1-0.4,0.2c-0.2-0.1-0.4-0.2-0.6-0.2
			c-0.8-0.3-1.9,0.3-1.7,1.2c0.2,1,0.2,2,0.1,3c0,0.1-0.1,0.1-0.1,0.2c-0.2,0.8-0.2,1-0.1,1.8c0,0.3,0.2,0.5,0.4,0.7
			c0,0.3,0,0.6,0,0.9c-0.3,0.1-0.4,0.4-0.5,0.8c0,0.3,0,0.7,0,1c-0.1,0.1-0.2,0.3-0.2,0.5c-0.3,1.4-0.5,2.7-0.5,4.1
			c-0.2,0.8-0.4,1.6-0.6,2.4c0,0.1,0,0.3-0.1,0.4c-0.4,1.9-0.4,3.8-0.3,5.7c-0.1,1-0.2,2-0.4,2.9c-0.4,1.9-0.9,3.8-1.2,5.8
			c-0.1,0.4,0.6,0.7,0.8,0.3c0-0.1,0.1-0.1,0.1-0.2c0,0,0.1,0,0.1,0c0.4,0,0.7-0.1,1.1-0.1c0.2,0.1,0.4,0.2,0.6,0.2
			c0.1,0,0.2,0,0.3,0l0,0c0,0,0,0,0,0c1.2,0,2.4,0,3.6,0c1.8,0.4,3.5,0.5,5.3,0.6c0.2,0.4,0.5,0.7,1,0.8c1,0.2,1.9,0.3,2.9,0.3
			c0,0,0,0,0.1,0l0,0c0.1,0,0.2,0,0.3,0c0.1,0,0.1,0,0.2,0c0.3,0.1,0.6,0.1,0.8,0.3c0.3,0.1,0.5,0.1,0.8,0c0.2,0.1,0.4,0.1,0.7,0.1
			c0,0.1,0.1,0.1,0.2,0.2c0.2,0.1,0.4,0.3,0.6,0.4c0.5,0.3,1.2,0,1.1-0.6C61.9,83.2,61.8,82.6,61.8,82.1z"/>
		<path fill="#FEF9C5" d="M41.4,78.9c0-0.1,0.1-0.1,0.1-0.2c0-0.1,0-0.1,0-0.2c0.1-0.1,0.1-0.2,0.1-0.4c0-0.5,0.1-0.8,0.1-1.2
			c0,0,0,0,0-0.1c0.5-1.2,0.6-2.3,0.6-3.6c0.2-0.2,0.3-0.4,0.4-0.7c0.1-0.8,0.1-1.4,0.1-2.2c0-0.1-0.1-0.3-0.1-0.4
			c0.1-3,1.4-5.7,1.4-8.7c0-0.2-0.1-0.5-0.1-0.7c0.1-0.4,0.1-0.9,0.2-1.4c0.3-1,0.5-2,0.5-3c0.3-1.8,0.4-3.6,0.2-5.3
			c0-0.2-0.1-0.3-0.2-0.5c0-0.3,0-0.6-0.1-0.9c0-0.2-0.1-0.4-0.3-0.5c0,0,0-0.1-0.1-0.1c-0.1-0.1-0.2-0.2-0.3-0.3
			c-0.1-0.1-0.2-0.2-0.3-0.2c-0.2-0.2-0.4-0.4-0.6-0.6c-0.1-0.1-0.2-0.1-0.4-0.2c0,0-0.1-0.1-0.1-0.1c0-0.2-0.1-0.4-0.2-0.6
			c0-0.1-0.1-0.1-0.1-0.2c0.2-0.5,0.1-1-0.4-1.3c-0.5-0.3-0.9-0.6-1.4-0.8c-0.2-0.1-0.4-0.2-0.6-0.2c-0.5-0.3-1-0.6-1.4-1
			c-0.1-0.1-0.2-0.1-0.3-0.2c0,0,0,0,0,0c-0.4-0.3-0.8-0.3-1.1-0.2c-1.2-1-2.4-1.7-4.1-1.8c0,0,0,0-0.1,0c-0.1,0-0.2,0-0.3,0
			c-0.1,0-0.2-0.1-0.3-0.1c-0.3-0.1-0.8,0-1,0.4c0,0.1-0.1,0.3-0.1,0.4c0,0.1,0,0.2,0,0.3c0,0,0,0,0,0.1c-0.1,0.3-0.1,0.6-0.2,1
			c-0.1,0.3,0.1,0.5,0.3,0.6c0,0.2-0.1,0.3-0.1,0.5c-0.2,0.4-0.4,0.9-0.5,1.4c0,0,0,0.1,0,0.1c0,0,0,0,0,0c0,0.1-0.1,0.2-0.1,0.3
			c0,0.1,0,0.2,0,0.3c-0.5,1.2-0.8,2.5-0.5,3.8c0,0.1,0,0.1,0.1,0.2c0,0.1,0,0.2-0.1,0.3c0,0,0,0.1,0,0.1c0,0.3-0.1,0.6-0.2,0.9
			c0,0.2,0,0.4,0.1,0.5c0,0.1,0,0.2,0,0.3c0,0,0,0,0,0l0,0c0,0.1,0,0.2,0,0.3c0,0,0,0.1,0,0.1c0,0,0,0.1,0,0.1c0,0.1,0,0.3,0,0.4
			c-0.2,0.2-0.4,0.4-0.5,0.7c-0.2,1-0.2,1.9-0.1,2.9c0,0,0,0,0,0c-0.1,0.1-0.2,0.3-0.2,0.5c-0.1,1.5-0.3,3-0.3,4.5c0,0,0,0,0,0l0,0
			c0,0,0,0.1,0,0.1c0,0.3-0.1,0.7-0.1,1c0,0.2,0.1,0.4,0.1,0.5c0,0.4-0.1,0.7-0.1,1.1c0,0.1-0.1,0.1-0.1,0.2
			c-0.1,0.8-0.2,1.5-0.2,2.3c-0.2,0.8-0.2,1.6-0.2,2.4L28,70.6c0,0.2,0,0.4,0.1,0.5c-0.1,0.1-0.2,0.1-0.3,0.2
			c-0.4,0.2-0.4,0.9,0.1,0.9c0.6,0.1,1.2,0.2,1.8,0.2c1,0.5,2,0.9,3.1,1.4c0.1,0,0.1,0,0.2,0c0.1,0.4,0.3,0.8,0.7,1.1
			c0.5,0.4,1,0.7,1.4,1.1c0.5,0.6,1.2,0.7,1.8,0.6c0,0.1,0.1,0.2,0.2,0.3c0.5,0.5,1,1,1.6,1.5c0.1,0.1,0.1,0.1,0.2,0.1
			c0.2,0.4,0.3,0.7,0.5,1.1c0.1,0.2,0.2,0.3,0.3,0.3c0.1,0.2,0.2,0.3,0.4,0.6c0.5,0.6,1.6,0.2,1.5-0.6
			C41.4,79.7,41.4,79.3,41.4,78.9z"/>
		<path fill="#FEF27B" d="M39.6,79.4c-1.2-0.9-2.5-1.8-3.8-2.5c0,0,0,0,0,0l0,0c0,0-0.1-0.1-0.1-0.1c0-0.4-0.1-0.8-0.6-1.1
			c-1.7-1.2-3.6-2-5.5-2.8c-0.2-0.1-0.5-0.1-0.7-0.1c-0.2-0.1-0.3-0.1-0.5-0.1c-0.2-0.1-0.4-0.2-0.6-0.3c-0.2-0.1-0.4-0.1-0.7-0.1
			c1-2.7,1.7-5.7,1.1-8.4c0.3-2,0.6-4.1,0.5-6.2c0-0.2,0-0.3-0.1-0.5c0.2-0.9,0.4-1.8,0.4-2.7c0.5-2.5,1.7-5,1-7.5
			c-0.1-0.5-0.6-0.9-1.1-1c-0.3-0.2-0.8-0.2-1.3,0c-0.3,0.1-1.7-0.2-2-0.3c-0.9-0.3-2.1,0.1-2.2,1.2c0,0.4,0,0.8,0,1.3
			c0,0.3-0.1,0.6,0,0.8c-0.4,1.6-0.6,3.1-0.5,4.8c0,0.1,0,0.2,0.1,0.3c-0.1,0.2-0.2,0.3-0.2,0.5c-0.4,1.8-0.7,3.5-0.8,5.3
			c-0.1,0.5-0.1,1-0.1,1.4c-0.1,0.3-0.2,0.6-0.2,1c-0.3,1.4-0.5,2.8-0.3,4.2c0,0.1,0,0.1-0.1,0.2c-0.3,1.1-0.4,2.1-0.4,3.2
			c0,0.3-0.1,0.5-0.1,0.8c0,0.2,0,0.4,0.1,0.6c-0.5,0.7-0.5,2-0.4,2.8c0,0.2,0.2,0.4,0.3,0.6c-0.1,0.3-0.2,0.5-0.3,0.8c0,0,0,0,0,0
			c-0.3,0.4-0.4,1-0.4,1.5c0,0.1,0,0.1,0.1,0.1c-0.1,0.2-0.2,0.5-0.3,0.7c-0.2,0.4,0.4,0.7,0.6,0.4c0.1-0.1,0.3-0.2,0.4-0.4
			c0,0,0.1,0,0.1,0c0,0,0,0,0,0c0.5,0.7,1.6,0.7,2.1,0c0.1-0.1,0.3-0.2,0.4-0.2c0.3,0.2,0.6,0.3,1,0.2c0.5-0.1,1-0.1,1.5-0.1
			c0.2,0.1,0.5,0.3,0.8,0.2c0.7,0,1.3,0,2,0.1c0.1,0,0.2,0,0.3,0c0.2,0.1,0.4,0.2,0.6,0.3c1.4,0.3,2.9,0.6,4.4,0.6
			c0.1,0,0.2,0,0.3-0.1c0.4,0.3,0.9,0.5,1.3,0.7c0.1,0.1,0.2,0.1,0.4,0.2c0.7,0.5,1.7,0.9,2.5,1.1C39.6,81,40.4,80,39.6,79.4z"/>
		<g>
			<path d="M27.4,72.4c6,1.2,9.7,5.6,13.5,9.7c0.3,0.3,0.8,0,0.6-0.4c-1.6-2.7-4.3-5-7-6.8c-2.1-1.4-4.5-3-7.1-2.9
				C27.2,72,27.2,72.3,27.4,72.4L27.4,72.4z"/>
		</g>
		<g>
			<path d="M27.5,72.1c1.7-4.2,1-9.3,1.5-13.8c0.6-5.6,1.4-11.3,2.5-16.9c0.1-0.4-0.6-0.5-0.7-0.1c-1.2,4.8-1.6,9.9-2.3,14.8
				c-0.7,5.2-0.2,10.7-1.4,15.9C27.2,72.2,27.5,72.2,27.5,72.1L27.5,72.1z"/>
		</g>
		<g>
			<path d="M31.3,41.4c5.5,0.8,10.3,4.3,13.2,8.9c0.3,0.5,1.1,0,0.9-0.5c-1.5-2.7-4-4.8-6.6-6.5c-1.9-1.3-5-3-7.4-2.4
				C31,41,31,41.4,31.3,41.4L31.3,41.4z"/>
		</g>
		<g>
			<path d="M41.4,81.8c1.8-4.3,1.6-9.8,2.2-14.4c0.7-5.7,2.1-11.6,1.7-17.4c0-0.5-0.8-0.4-0.8,0.1c0.1,10.5-2.6,21.2-3.4,31.7
				C41.1,81.9,41.3,81.9,41.4,81.8L41.4,81.8z"/>
		</g>
		<g>
			<path d="M19.8,78.6c7.3-0.3,14.1,0.1,20.8,3.5c0.5,0.3,0.9-0.6,0.4-0.8c-6.4-3.3-14.1-4.6-21.2-3.2
				C19.4,78.1,19.5,78.6,19.8,78.6L19.8,78.6z"/>
		</g>
		<g>
			<path d="M19.8,78.3c1.7-3.6,1.2-8.3,1.6-12.2c0.6-6.8,2.3-13.6,2.8-20.4c0-0.4-0.6-0.5-0.7-0.1c-2.5,10.6-3.1,21.8-4,32.6
				C19.4,78.4,19.7,78.4,19.8,78.3L19.8,78.3z"/>
		</g>
		<g>
			<path d="M24,45.9c1-0.4,2.2-0.2,3.2,0c0.8,0.1,1.9,0.6,2.7,0.3c0.1,0,0.1-0.2,0.1-0.3c-0.6-0.7-2.1-0.8-3-0.9
				c-1.1-0.1-2.4-0.3-3.3,0.3C23.4,45.5,23.7,46,24,45.9L24,45.9z"/>
		</g>
		<g>
			<path d="M41.1,82.1c6.7-0.4,14,1.4,20.4,3c0.4,0.1,0.5-0.4,0.2-0.6c-3.4-1.6-7.3-2.1-11-2.6c-3.1-0.4-6.6-1.2-9.7-0.1
				C40.8,81.8,40.9,82.1,41.1,82.1L41.1,82.1z"/>
		</g>
		<g>
			<path d="M45,50.3c6.6-1,13.8,0.9,19.9,3.1c0.4,0.1,0.7-0.3,0.3-0.6c-2.6-2-6.4-2.6-9.7-3c-3.5-0.5-7.3-1.1-10.7,0.1
				C44.7,50,44.8,50.4,45,50.3L45,50.3z"/>
		</g>
		<g>
			<path d="M65,53.1c-2.9,10.2-1.5,21.1-3.8,31.3c-0.1,0.5,0.7,0.6,0.8,0.1c2.5-9.9,2.4-21.1,3.5-31.3C65.5,52.9,65.1,52.8,65,53.1
				L65,53.1z"/>
		</g>
		<g>
			<path d="M49.2,56c1,0.2,2,0.4,3,0.4c1,0,1.3-0.4,2.3,0.2c0.7,0.5,1.9,0.4,2.7,0.5c1.4,0.2,2.6,0.7,4,0.4c0.2,0,0.3-0.3,0.1-0.4
				c-1.9-0.7-5.8-0.1-7.1-1.8c-0.1-0.2-0.3-0.2-0.5-0.1c-1.4,0.8-2.9,0.5-4.3,0.3C48.9,55.6,48.9,56,49.2,56L49.2,56z"/>
		</g>
		<g>
			<path d="M48.7,58.6c0.2,0,1.6,0.4,1.8,0.4c0.9,0.3,1.9,0,2.9,0.3c2,0.6,4.7,1.1,6.7,0.6c0.2,0,0.3-0.3,0.1-0.4
				C59,59,57.6,59,56.3,58.9c-1.3-0.2-2.6-0.5-3.9-0.7c-1-0.1-2,0.3-3,0c-0.5-0.1-0.6-0.1-0.9,0.2C48.5,58.5,48.6,58.6,48.7,58.6
				L48.7,58.6z"/>
		</g>
		<g>
			<path d="M48.5,61.1c0.9,0.2,1.7,0.6,2.6,0.8c1.2,0.2,2.5,0.3,3.8,0.4c1.1,0.1,2.1,0.1,3.2,0.3c1.1,0.2,1.4,0.4,2.4,0.1
				c0.2-0.1,0.3-0.5,0-0.5c-1.8-0.6-3.6-0.6-5.5-0.7c-2.2,0-4.3-0.5-6.5-0.6C48.3,60.9,48.3,61.1,48.5,61.1L48.5,61.1z"/>
		</g>
	</g>
</g>
<g>
	<g>
		<path fill="#F5F5F5" d="M18.7,22.2c0,0.2,0,0.3,0,0.6s-0.1,0.4-0.2,0.6s-0.2,0.4-0.3,0.5s-0.3,0.2-0.5,0.2c-0.3,0-0.5-0.1-0.7-0.3
			s-0.2-0.5-0.3-0.8s-0.1-0.6-0.1-0.9s0-0.5,0-0.7c-0.6,0.1-1.1,0.2-1.7,0.2c0,0.2,0,0.4-0.1,0.7s-0.1,0.5-0.2,0.8s-0.2,0.5-0.4,0.6
			S13.8,24,13.5,24c-0.2,0-0.3-0.1-0.4-0.2s-0.2-0.3-0.2-0.5s-0.1-0.4-0.1-0.6s0-0.4,0-0.5c0-0.4,0-0.9,0.1-1.3s0.2-0.9,0.2-1.3
			c0-0.2,0.1-0.5,0.2-0.8s0.2-0.6,0.3-0.9s0.2-0.6,0.4-1s0.3-0.6,0.5-0.8s0.4-0.5,0.7-0.6s0.5-0.2,0.8-0.2c0.3,0,0.6,0.1,0.8,0.2
			s0.4,0.3,0.6,0.5s0.3,0.5,0.4,0.7s0.2,0.6,0.3,0.8s0.1,0.6,0.2,0.8s0.1,0.5,0.1,0.7c0.1,0.5,0.2,1,0.3,1.5S18.7,21.7,18.7,22.2z
			 M16.4,19.4c0-0.1,0-0.2,0-0.5s0-0.4-0.1-0.6s-0.1-0.4-0.2-0.6s-0.2-0.3-0.3-0.3c-0.1,0-0.2,0.1-0.2,0.2s-0.1,0.2-0.2,0.4
			s-0.1,0.3-0.1,0.5s-0.1,0.4-0.1,0.6s-0.1,0.3-0.1,0.5s0,0.2,0,0.3c0.5,0,0.9-0.1,1.4-0.2V19.4z"/>
		<path fill="#F5F5F5" d="M25.2,20.5c0,0.3,0,0.7-0.1,1.1s-0.2,0.8-0.4,1.1s-0.4,0.6-0.7,0.9S23.4,24,22.9,24c-0.1,0-0.2,0-0.3,0
			s-0.2,0-0.3-0.1S22,23.8,22,23.7s-0.2-0.2-0.2-0.3l-0.1,1.7c0,0.2,0,0.4,0,0.6s0,0.5-0.1,0.7s-0.2,0.4-0.3,0.6s-0.3,0.2-0.6,0.2
			c-0.1,0-0.3-0.1-0.4-0.2s-0.2-0.3-0.2-0.6s-0.1-0.5-0.1-0.8s-0.1-0.6-0.1-0.8s0-0.5,0-0.7s0-0.4,0-0.5c0-0.5,0-1,0-1.6s0-1,0-1.6
			c0-0.1,0-0.2,0-0.4s0-0.4,0-0.7s0-0.5,0.1-0.7s0.1-0.5,0.2-0.7s0.2-0.4,0.3-0.5s0.2-0.2,0.4-0.2c0.1,0,0.2,0,0.3,0.1
			s0.2,0.1,0.2,0.2s0.1,0.2,0.1,0.3s0.1,0.2,0.1,0.3c0.2-0.3,0.5-0.5,0.8-0.6s0.7-0.2,1-0.2c0.4,0,0.7,0.1,0.9,0.3s0.4,0.5,0.6,0.8
			s0.2,0.6,0.3,1S25.2,20.2,25.2,20.5z M23.5,20.4c0-0.1,0-0.2,0-0.4s-0.1-0.2-0.1-0.3s-0.1-0.2-0.2-0.3s-0.2-0.1-0.4-0.1
			c-0.2,0-0.4,0.1-0.6,0.2s-0.4,0.3-0.5,0.4c0,0.1-0.1,0.2-0.1,0.3s0,0.2,0,0.3c0,0.1,0,0.1,0,0.2s0,0.2,0,0.3s0,0.2,0,0.3
			s0,0.2,0.1,0.2c0,0.1,0.1,0.1,0.2,0.2s0.2,0.1,0.3,0.2s0.2,0.1,0.3,0.1s0.2,0,0.3,0c0.2,0,0.3-0.1,0.4-0.2s0.2-0.3,0.2-0.4
			s0.1-0.3,0.1-0.5S23.5,20.5,23.5,20.4z"/>
		<path fill="#F5F5F5" d="M30.3,19.6c-0.1,0-0.2,0-0.3,0s-0.2-0.1-0.2-0.1c-0.1,0-0.1-0.1-0.2-0.1s-0.1,0-0.2,0
			c-0.2,0-0.3,0.1-0.4,0.1s-0.2,0.2-0.3,0.3s-0.2,0.2-0.3,0.4s-0.1,0.3-0.2,0.4c0,0.1,0,0.2-0.1,0.4s0,0.4,0,0.6c0,0.2,0,0.4,0,0.6
			s0,0.4,0,0.5c0,0.1,0,0.3-0.1,0.4s-0.1,0.3-0.1,0.5s-0.2,0.3-0.3,0.4s-0.2,0.2-0.4,0.2c-0.1,0-0.2,0-0.3-0.1s-0.2-0.2-0.2-0.3
			s-0.1-0.3-0.2-0.5s-0.1-0.3-0.1-0.5c0-0.2,0-0.4-0.1-0.6s0-0.4,0-0.5s0-0.3,0-0.5s0-0.3,0-0.3c0-0.3,0-0.5,0-0.8s0-0.6,0-0.8
			c0-0.2,0-0.4,0-0.6s0.1-0.4,0.1-0.6s0.2-0.3,0.3-0.5s0.3-0.2,0.6-0.2c0.1,0,0.2,0,0.3,0.1s0.2,0.2,0.2,0.3s0.1,0.3,0.1,0.4
			s0.1,0.3,0.1,0.4c0.2-0.3,0.4-0.6,0.6-0.7s0.5-0.3,0.9-0.3c0.2,0,0.4,0,0.6,0.1s0.4,0.1,0.5,0.2s0.3,0.2,0.4,0.4s0.2,0.3,0.2,0.6
			c0,0.2-0.1,0.4-0.2,0.6S30.5,19.6,30.3,19.6z"/>
		<path fill="#F5F5F5" d="M36.6,21.9c0,0.3-0.1,0.5-0.3,0.8s-0.4,0.5-0.6,0.7s-0.5,0.4-0.8,0.5S34.3,24,34.1,24
			c-0.4,0-0.8-0.1-1.1-0.3s-0.6-0.5-0.8-0.8s-0.4-0.7-0.5-1.1s-0.2-0.8-0.2-1.1c0-0.4,0.1-0.8,0.2-1.3s0.3-0.9,0.5-1.2
			s0.5-0.7,0.8-0.9s0.7-0.4,1.2-0.4c0.3,0,0.5,0,0.8,0.1s0.5,0.2,0.6,0.4s0.3,0.4,0.4,0.6s0.2,0.5,0.2,0.8c0,0.4-0.1,0.7-0.2,1
			s-0.4,0.6-0.6,0.8s-0.6,0.4-0.9,0.6s-0.7,0.2-1,0.2c0,0.2,0.1,0.4,0.3,0.5s0.3,0.2,0.5,0.2c0.2,0,0.3,0,0.5-0.1s0.3-0.2,0.4-0.3
			s0.3-0.2,0.4-0.3s0.3-0.1,0.4-0.1c0.2,0,0.3,0.1,0.4,0.2S36.6,21.7,36.6,21.9z M34.7,19c0-0.1,0-0.2-0.1-0.3s-0.1-0.2-0.3-0.2
			c-0.2,0-0.3,0-0.4,0.1s-0.2,0.2-0.3,0.3s-0.1,0.3-0.2,0.4s-0.1,0.3-0.1,0.4c0.1,0,0.2-0.1,0.4-0.1s0.3-0.1,0.4-0.2
			s0.3-0.2,0.4-0.3S34.7,19.1,34.7,19z"/>
		<path fill="#F5F5F5" d="M40.7,24.3c-0.1,0-0.2-0.1-0.3-0.2s-0.1-0.3-0.2-0.4s-0.1-0.3-0.1-0.5s0-0.3,0-0.4c0-0.2,0-0.5,0-0.7
			s0.1-0.5,0.1-0.7s0.1-0.5,0.1-0.7s0-0.5,0-0.7c0-0.1,0-0.2,0-0.3s0-0.2-0.1-0.3s-0.1-0.2-0.1-0.2s-0.1-0.1-0.2-0.1
			c-0.1,0-0.1,0.1-0.2,0.2s-0.2,0.2-0.2,0.4s-0.1,0.3-0.2,0.4s-0.1,0.3-0.1,0.3c0,0.2,0,0.3,0,0.5s0,0.4,0,0.5v0.7
			c0,0.1,0,0.3,0,0.4s0,0.3-0.1,0.4c0,0.1-0.1,0.3-0.1,0.4s-0.1,0.2-0.2,0.3s-0.2,0.2-0.3,0.2s-0.2,0.1-0.4,0.1
			c-0.2,0-0.3-0.1-0.4-0.2s-0.2-0.2-0.2-0.4s-0.1-0.3-0.1-0.5s0-0.4-0.1-0.6s0-0.4,0-0.5s0-0.3,0-0.4v-0.6c0-0.3,0-0.6,0-0.9
			s0-0.6,0-0.9c0-0.2,0-0.4,0-0.6s0-0.5,0.1-0.7s0.1-0.4,0.3-0.6s0.3-0.2,0.6-0.2c0.1,0,0.2,0,0.3,0.1s0.2,0.2,0.2,0.3
			s0.1,0.2,0.2,0.3S39,18,39.1,18c0.1-0.1,0.2-0.2,0.3-0.3s0.2-0.2,0.4-0.3s0.3-0.1,0.4-0.2s0.4-0.1,0.6-0.1c0.4,0,0.7,0.1,0.9,0.3
			s0.4,0.4,0.5,0.7s0.2,0.6,0.2,0.9s0,0.6,0,0.9c0,0.1,0,0.3,0,0.6s-0.1,0.6-0.1,0.9s-0.1,0.6-0.2,1s-0.2,0.6-0.3,0.9
			s-0.3,0.5-0.4,0.7S40.9,24.3,40.7,24.3z"/>
		<path fill="#F5F5F5" d="M48.4,16.2c0,0.6,0,1.1-0.1,1.7s-0.1,1.1-0.1,1.7c0,0.5,0,0.9,0,1.4s0,0.9,0,1.4c0,0.1,0,0.3,0,0.5
			s0,0.3-0.1,0.5s-0.1,0.3-0.2,0.4s-0.2,0.2-0.4,0.2c-0.2,0-0.4-0.1-0.6-0.3s-0.2-0.4-0.3-0.6c-0.1,0.3-0.4,0.5-0.6,0.7
			s-0.6,0.3-0.9,0.3c-0.4,0-0.7-0.1-0.9-0.4s-0.5-0.5-0.6-0.9s-0.3-0.7-0.4-1.1s-0.1-0.7-0.1-1c0-0.2,0-0.4,0-0.7s0.1-0.5,0.1-0.8
			s0.1-0.5,0.2-0.8s0.2-0.5,0.4-0.7s0.3-0.4,0.5-0.5s0.4-0.2,0.7-0.2c0.3,0,0.6,0.1,0.8,0.2s0.5,0.4,0.6,0.6l0.1-1.9
			c0-0.1,0-0.3,0-0.5s0-0.4,0.1-0.6s0.1-0.3,0.2-0.5s0.3-0.2,0.5-0.2c0.2,0,0.4,0.1,0.5,0.2s0.2,0.2,0.3,0.4s0.1,0.3,0.1,0.5
			S48.4,16.1,48.4,16.2z M46.5,21.4c0-0.2,0-0.4,0-0.5s0-0.3,0-0.5c0-0.1-0.1-0.2-0.2-0.3s-0.1-0.2-0.2-0.3s-0.2-0.2-0.3-0.3
			s-0.2-0.1-0.4-0.1c-0.1,0-0.3,0-0.3,0.1s-0.1,0.2-0.2,0.3s-0.1,0.3-0.1,0.4s0,0.3,0,0.4c0,0.1,0,0.2,0,0.4s0,0.4,0.1,0.6
			s0.1,0.4,0.2,0.5s0.2,0.2,0.3,0.2c0.1,0,0.2,0,0.3-0.1s0.2-0.1,0.3-0.2s0.2-0.1,0.3-0.2S46.4,21.6,46.5,21.4L46.5,21.4z"/>
		<path fill="#F5F5F5" d="M51.6,19.8c0,0.1,0,0.2,0,0.3s0,0.2,0,0.3c0,0.1,0,0.3,0,0.5s0,0.5,0,0.7s0,0.5-0.1,0.8s-0.1,0.5-0.2,0.7
			s-0.2,0.4-0.3,0.5S50.7,24,50.5,24c-0.1,0-0.3-0.1-0.4-0.2s-0.2-0.3-0.3-0.5s-0.1-0.4-0.1-0.7s-0.1-0.5-0.1-0.7s0-0.4,0-0.6
			s0-0.3,0-0.4c0-0.1,0-0.3,0-0.5s0-0.5,0-0.7s0-0.5,0.1-0.8s0.1-0.5,0.2-0.8s0.2-0.4,0.3-0.6s0.3-0.2,0.5-0.2
			c0.2,0,0.4,0.1,0.5,0.3s0.2,0.5,0.2,0.7s0.1,0.6,0.1,0.8S51.6,19.6,51.6,19.8z M51.5,15.8c0,0.1,0,0.2-0.1,0.3s-0.1,0.2-0.2,0.2
			s-0.2,0.1-0.3,0.2s-0.2,0.1-0.3,0.1c-0.2,0-0.3,0-0.4-0.1S50,16.2,50,16c0-0.1,0-0.2,0.1-0.3s0.1-0.2,0.2-0.2s0.2-0.1,0.3-0.1
			s0.2,0,0.3,0c0.1,0,0.3,0,0.4,0.1S51.5,15.6,51.5,15.8z"/>
		<path fill="#F5F5F5" d="M58,22.9c0,0.2-0.1,0.3-0.2,0.4s-0.3,0.2-0.5,0.3s-0.4,0.2-0.7,0.2s-0.5,0.1-0.8,0.2s-0.5,0.1-0.7,0.1
			s-0.4,0-0.5,0s-0.3,0-0.6,0s-0.5,0-0.7-0.1s-0.4-0.1-0.6-0.2s-0.3-0.3-0.3-0.5c0-0.2,0.1-0.3,0.2-0.6s0.2-0.5,0.4-0.7
			s0.4-0.5,0.6-0.8s0.4-0.5,0.6-0.8s0.4-0.5,0.6-0.7s0.3-0.4,0.4-0.5c-0.1,0-0.2,0.1-0.4,0.1s-0.3,0.1-0.5,0.1s-0.4,0.1-0.5,0.1
			s-0.3,0-0.4,0c-0.1,0-0.2,0-0.3-0.1s-0.2-0.1-0.3-0.1s-0.2-0.1-0.3-0.2s-0.1-0.2-0.1-0.3c0-0.1,0.1-0.3,0.2-0.4s0.3-0.2,0.5-0.3
			s0.4-0.2,0.7-0.3s0.5-0.1,0.7-0.2s0.5-0.1,0.7-0.1s0.4,0,0.5,0c0.1,0,0.3,0,0.5,0s0.4,0.1,0.6,0.2s0.4,0.2,0.5,0.3
			s0.2,0.3,0.2,0.5c0,0.1,0,0.1,0,0.2s0,0.1,0,0.2c0,0.1-0.1,0.2-0.2,0.4s-0.3,0.4-0.4,0.7s-0.4,0.5-0.6,0.8s-0.4,0.6-0.6,0.8
			s-0.4,0.5-0.5,0.7S55,22.6,55,22.7c0.3-0.1,0.6-0.2,1-0.2s0.7-0.1,1-0.1c0.1,0,0.2,0,0.3,0s0.2,0,0.4,0.1s0.2,0.1,0.3,0.2
			S58,22.7,58,22.9z"/>
		<path fill="#F5F5F5" d="M63.6,22.3c0,0.1,0,0.3,0,0.6s0,0.4-0.1,0.7s-0.1,0.4-0.3,0.6s-0.3,0.2-0.5,0.2c-0.3,0-0.5-0.1-0.7-0.3
			s-0.2-0.4-0.2-0.7c-0.2,0.2-0.5,0.4-0.8,0.5S60.4,24,60,24c-0.2,0-0.4-0.1-0.6-0.2s-0.4-0.2-0.5-0.4s-0.3-0.4-0.4-0.6
			s-0.1-0.4-0.1-0.6c0-0.4,0.1-0.7,0.3-1s0.5-0.5,0.8-0.7s0.7-0.4,1.1-0.5s0.7-0.2,1-0.2c0,0,0-0.1,0-0.1s0-0.1,0-0.1
			c0-0.2-0.1-0.4-0.2-0.6s-0.3-0.2-0.6-0.2c-0.2,0-0.4,0-0.5,0.1S60.1,19,60,19.1s-0.2,0.2-0.4,0.2s-0.3,0.1-0.4,0.1
			c-0.2,0-0.3-0.1-0.4-0.2s-0.2-0.2-0.2-0.4c0-0.3,0.1-0.5,0.2-0.7s0.3-0.4,0.6-0.5s0.5-0.3,0.8-0.3s0.5-0.1,0.7-0.1
			c0.2,0,0.4,0,0.6,0.1s0.4,0.1,0.6,0.2s0.4,0.2,0.5,0.4s0.3,0.3,0.4,0.5c0.1,0.3,0.3,0.6,0.3,0.9s0.2,0.7,0.2,1s0.1,0.7,0.1,1
			S63.6,22,63.6,22.3z M61.7,21.9l0-0.8c0,0,0,0,0,0s0,0,0,0c-0.1,0-0.2,0-0.4,0.1s-0.3,0.1-0.4,0.2s-0.3,0.2-0.4,0.3
			s-0.1,0.2-0.1,0.3c0,0.1,0,0.2,0.1,0.2s0.2,0.1,0.3,0.1c0.2,0,0.4,0,0.6-0.1S61.6,22,61.7,21.9z"/>
		<path fill="#F5F5F5" d="M66.9,21c0,0.4,0,0.8,0,1.2s-0.1,0.9-0.1,1.4s-0.2,0.9-0.3,1.3s-0.4,0.7-0.7,1c-0.2,0.1-0.3,0.3-0.6,0.5
			s-0.4,0.3-0.7,0.5S64,27,63.8,27.1s-0.5,0.1-0.7,0.1c-0.2,0-0.4-0.1-0.6-0.2s-0.2-0.3-0.2-0.6c0-0.2,0.1-0.4,0.2-0.6
			s0.3-0.2,0.5-0.3s0.4-0.2,0.6-0.3s0.4-0.3,0.6-0.5s0.4-0.5,0.5-0.9S65,23,65,22.3c0-0.4,0-0.8,0-1.2s0-0.8-0.1-1.2
			c0-0.2,0-0.5,0-0.7s0-0.5,0-0.7c0-0.1,0-0.3,0.1-0.4s0.1-0.3,0.2-0.4s0.2-0.2,0.3-0.3s0.3-0.1,0.4-0.1c0.2,0,0.4,0.1,0.5,0.2
			s0.2,0.3,0.3,0.6s0.1,0.5,0.2,0.8s0.1,0.6,0.1,0.8s0,0.5,0,0.7S66.9,20.9,66.9,21z M66.7,15.9c0,0.1,0,0.2-0.1,0.3
			s-0.1,0.2-0.2,0.2s-0.2,0.1-0.3,0.1s-0.2,0.1-0.3,0.1c-0.2,0-0.3,0-0.4-0.1s-0.2-0.2-0.2-0.4c0-0.1,0-0.2,0.1-0.3s0.1-0.2,0.2-0.2
			s0.2-0.1,0.3-0.1s0.2,0,0.3,0c0.1,0,0.3,0,0.4,0.1S66.7,15.7,66.7,15.9z"/>
		<path fill="#F5F5F5" d="M73.1,21.9c0,0.3-0.1,0.5-0.3,0.8s-0.4,0.5-0.6,0.7s-0.5,0.4-0.8,0.5S70.9,24,70.6,24
			c-0.4,0-0.8-0.1-1.1-0.3s-0.6-0.5-0.8-0.8s-0.4-0.7-0.5-1.1S68,21.1,68,20.7c0-0.4,0.1-0.8,0.2-1.3s0.3-0.9,0.5-1.2
			s0.5-0.7,0.8-0.9s0.7-0.4,1.2-0.4c0.3,0,0.5,0,0.8,0.1s0.5,0.2,0.6,0.4s0.3,0.4,0.4,0.6s0.2,0.5,0.2,0.8c0,0.4-0.1,0.7-0.2,1
			s-0.4,0.6-0.6,0.8S71.3,21,71,21.2s-0.7,0.2-1,0.2c0,0.2,0.1,0.4,0.3,0.5s0.3,0.2,0.5,0.2c0.2,0,0.3,0,0.5-0.1s0.3-0.2,0.4-0.3
			s0.3-0.2,0.4-0.3s0.3-0.1,0.4-0.1c0.2,0,0.3,0.1,0.4,0.2S73.1,21.7,73.1,21.9z M71.2,19c0-0.1,0-0.2-0.1-0.3s-0.1-0.2-0.3-0.2
			c-0.2,0-0.3,0-0.4,0.1s-0.2,0.2-0.3,0.3S70,19.3,70,19.4s-0.1,0.3-0.1,0.4c0.1,0,0.2-0.1,0.4-0.1s0.3-0.1,0.4-0.2s0.3-0.2,0.4-0.3
			S71.2,19.1,71.2,19z"/>
	</g>
</g>
<rect y="6" fill="#3E3E3D" width="1" height="24"/>
<rect x="85" y="6" fill="#3E3E3D" width="1" height="24"/>
<g>
	<defs>
		<circle id="SVGID_98_" cx="26" cy="-99.1" r="35.7"/>
	</defs>
	<use xlink:href="#SVGID_98_"  overflow="visible" fill="#E74F1B"/>
	<clipPath id="SVGID_1_">
		<use xlink:href="#SVGID_98_"  overflow="visible"/>
	</clipPath>
	<g clip-path="url(#SVGID_1_)">
		<g>
			<g>
				<path fill="#C6C5C4" d="M80.3,1.1c-0.1-1.3-0.3-2.6-0.3-4c-0.1-1.7,0.2-3.3,0.2-5C80-8,79.8-8.3,79.6-8.5
					c-0.3-0.3-0.6-0.6-0.9-1c-0.5-0.5-1.1-1-1.4-1.6c0,0.3,0,0.5,0,0.8c-0.1,2.7-0.5,5.5-0.3,8.1c0.1,2,0.5,4,0.7,6
					c0.4-0.5,0.9-1,1.3-1.4C79.4,2,79.8,1.4,80.3,1.1z M77.7-0.9c-0.2-2.5-0.3-5.1,0-7.6c0-0.1,0.1-0.1,0.1,0
					C77.9-6,77.8-3.4,77.7-0.9C77.7-0.8,77.7-0.8,77.7-0.9z"/>
				<path fill="#C6C5C4" d="M79.5,8.6c0.4,0.4,1.1,0.8,1.4,1.3c0-2.4-0.1-4.8-0.4-7.1c0-0.4-0.1-0.9-0.1-1.3C80,2,79.5,2.4,79.1,2.8
					c-0.4,0.4-0.9,0.9-1.4,1.3c0.1,0.6,0.1,1.2,0.2,1.9c0,0.3,0,0.6,0,0.9C78.3,7.5,78.9,8.1,79.5,8.6z"/>
				<path fill="#C6C5C4" d="M79.8,32.3c0.5,0,1-0.1,1.5,0c0-2.4-0.1-4.8-0.2-7.2c-0.1-0.9-0.1-1.9-0.2-2.8c0,0,0-0.1,0.1-0.1
					c0-0.8,0-1.7-0.1-2.5c0-3.1,0-6.3,0-9.4c0,0,0,0-0.1,0c-0.3-0.1-0.5-0.4-0.8-0.6c-0.4-0.3-0.7-0.6-1.1-1c-0.4-0.4-0.7-0.7-1-1.2
					c0.2,4.4-0.2,8.7-0.1,13.1c0.1,3.9,0.2,7.8,0.2,11.7C78.7,32.3,79.2,32.3,79.8,32.3z"/>
				<path fill="#C6C5C4" d="M81.3,32.5c-0.5,0.1-1,0.1-1.5,0.1c-0.6,0-1.1,0-1.7-0.2c0,1.2,0,2.4,0,3.6c-0.1,4.9-0.5,9.8-0.5,14.7
					c0.6,0.4,1.2,0.7,2,0.7c0.7,0,1.3-0.3,2-0.5c-0.4-4.9-0.4-9.9-0.3-14.8C81.3,34.9,81.3,33.7,81.3,32.5z M78.1,50.3
					c-0.2-2.3,0.1-4.6,0.4-6.9c0-0.1,0.2-0.1,0.2,0C78.6,45.7,78.2,48,78.1,50.3C78.2,50.4,78.1,50.4,78.1,50.3z M80.3,50.9
					c-0.4,0.2-0.8,0.2-1.2,0.1c-0.2-0.1-0.7-0.2-0.7-0.5c0,0,0,0,0,0c0.1,0,0.2,0.1,0.3,0.2c0.2,0.1,0.4,0.1,0.6,0.2
					C79.7,50.9,80,50.9,80.3,50.9C80.3,50.9,80.3,50.9,80.3,50.9z"/>
				<path fill="#C6C5C4" d="M81.5,51.2c0-0.1,0-0.2,0-0.3c-0.6,0.3-1.3,0.5-2,0.5c-0.8,0-1.4-0.3-2-0.7c0,0,0,0.1,0,0.1
					c0,0.2-0.3,0.2-0.3,0c0,0,0,0,0,0c0,0,0,0.1,0,0.1c1.2,1.3,2.9,1,4.3,0.4C81.6,51.3,81.5,51.3,81.5,51.2z"/>
				<path fill="#C6C5C4" d="M81.8,50.9c0,0.1,0,0.2,0,0.3c0,0,0,0,0,0C81.9,51.2,81.9,51,81.8,50.9z"/>
				<path fill="#C6C5C4" d="M77.5,50.7C77.5,50.7,77.5,50.7,77.5,50.7c0.1-4.9,0.5-9.8,0.6-14.7c0-1.2,0-2.4,0-3.6
					c-0.1,0-0.2,0-0.2-0.1c-0.1,0-0.1-0.2,0-0.2c0.1,0,0.1,0,0.2,0c0-3.9-0.1-7.8-0.2-11.7c-0.1-4.4,0.3-8.7,0.1-13.1
					c-0.1-0.2-0.2-0.4-0.3-0.6c0-0.1,0.2-0.2,0.2-0.1c0,0,0,0,0,0c0-0.3,0-0.6,0-0.9c0-0.6-0.1-1.2-0.2-1.9c0,0-0.1,0.1-0.1,0.1
					c-0.1,0-0.2-0.1-0.1-0.1c0.1-0.1,0.1-0.1,0.2-0.2c-0.3-2-0.6-4-0.7-6c-0.2-2.7,0.3-5.5,0.3-8.1c0-0.3,0-0.5,0-0.8
					c0,0,0-0.1-0.1-0.1c0,0,0-0.1,0.1-0.1c0-1.2,0-2.3-0.1-3.5c-0.1,0-0.1,0-0.2,0c0,0-0.1-0.1,0-0.1c0.1-0.1,0.1-0.1,0.2-0.2
					c-0.2-3.3-0.6-6.6-0.6-9.8c0-2,0-3.9,0.1-5.9c-0.1-0.1-0.2-0.2-0.2-0.2c-0.1,1.7-0.1,3.3-0.2,5c-0.3,5.1,0.7,10.4,0.7,15.6
					c0,4.8-0.3,9.2,0.4,14c0.8,5.6,0.2,11.2,0.3,16.9c0,4.8,0.3,9.6,0.2,14.4c-0.1,5.3-0.7,10.6-0.5,15.9
					C77.3,50.7,77.4,50.7,77.5,50.7z"/>
				<path fill="#C6C5C4" d="M77.5,50.9C77.5,50.8,77.6,50.8,77.5,50.9c0-0.1,0-0.1-0.1-0.1c-0.1-0.1-0.2,0-0.2,0.1c0,0,0,0,0,0
					C77.3,51,77.5,51,77.5,50.9z"/>
				<path fill="#C6C5C4" d="M79.5-57.4c0,0.4,0,0.8,0,1.1c0,0,0,0,0,0c0,0,0,0.1,0,0.1c0,0,0,0,0,0c0,0.6,0,1.2,0,1.8c0,0,0,0,0,0
					c0,0,0,0.1,0,0.1c0,0,0,0,0,0c0,0.3,0,0.6,0,0.9c0.1,0,0.1,0.1,0.1,0.2c0,0.1-0.1,0.1-0.1,0.2c0,2.3,0,4.6,0,6.9c0,0,0,0,0,0.1
					c0,0.1,0,0.1,0,0.2c0,1.5,0,3.1,0,4.6c0,1.7-0.1,3.4-0.1,5c0.1-0.1,0.2-0.1,0.3-0.2c0.1-0.1,0.3,0.1,0.2,0.2
					c-0.1,0.2-0.3,0.4-0.5,0.6c-0.1,2.3-0.1,4.5-0.1,6.8c0.1,0.1,0.3,0.3,0.3,0.5c0,0.1-0.1,0.1-0.1,0.1c-0.1,0-0.1,0-0.2-0.1
					c0,1.3,0,2.6,0.1,3.9c0.1,2.3,0.5,4.6,0.7,6.9c0,0,0,0,0,0c0.1,0,0.1,0.1,0.1,0.1c0,0.1-0.1,0.1-0.1,0.2c0,0.2,0,0.4,0.1,0.6
					c0.2,2.7,0,5.4,0.1,8.1c0,0.1,0,0.1,0,0.2c0.1,0.2,0.2,0.4,0.3,0.5c0,0.1-0.1,0.1-0.1,0.1c0,0-0.1-0.1-0.1-0.1
					c0,1.7-0.3,3.3-0.2,5c0.1,1.3,0.2,2.6,0.3,4c0,0,0.1-0.1,0.1-0.1c0.1,0,0.2,0,0.1,0.1c-0.1,0.1-0.1,0.2-0.2,0.4
					c0,0.4,0.1,0.9,0.1,1.3c0.2,2.3,0.3,4.7,0.4,7.1c0,0,0.1,0.1,0.1,0.1c0,0.1,0,0.2-0.1,0.2c0,3.1,0,6.3,0,9.4
					c0,0.8,0,1.7,0.1,2.5c0,0,0,0,0,0c0.2,1.7,0.4,3.5,0.2,5.3c0,0,0,0,0,0c0-0.8-0.1-1.6-0.1-2.4c0.1,2.4,0.2,4.8,0.2,7.2
					c0.1,0,0.1,0,0.2,0c0.1,0,0.1,0.2,0,0.2c-0.1,0-0.2,0-0.2,0.1c0,1.2,0,2.4,0,3.5c-0.1,4.9-0.2,9.9,0.3,14.8c0,0,0,0,0,0
					c0.1,0,0.2,0,0.2,0c0-4.6-0.4-9.2-0.2-13.8c0.2-5.6-0.1-10.9-0.3-16.5C81.1,15.9,80.8,10.9,81,6c0.1-2.4-0.3-4.9-0.5-7.3
					c-0.2-2.2,0-4.3,0.1-6.5c0.1-4.5,0.1-8.9-0.5-13.4c-0.8-6,0.1-11.9-0.1-17.9c-0.2-5.4,0.3-10.9,0-16.3
					c-0.4-4.9-0.9-10.3-0.2-15.1c0-0.1-0.1-0.1-0.1,0C78.7-66.1,79.5-61.8,79.5-57.4z"/>
				<path fill="#C6C5C4" d="M81.6,51.3c0.1,0,0.2,0,0.2-0.1c0,0,0,0,0,0C81.7,51.3,81.7,51.3,81.6,51.3z"/>
				<path fill="#C6C5C4" d="M81.8,50.9c-0.1-0.1-0.1-0.1-0.2,0c0,0,0,0,0,0c0,0.1,0,0.2,0,0.3c0,0.1,0,0.1,0.1,0.1
					c0,0,0.1,0,0.1-0.1c0,0,0,0,0,0c0,0,0,0,0,0C81.8,51.1,81.8,51,81.8,50.9z"/>
				<path fill="#C6C5C4" d="M79.1,2.8C79.5,2.4,80,2,80.4,1.5c0-0.1,0-0.3,0-0.4C79.8,1.4,79.4,2,79,2.4c-0.4,0.5-0.9,0.9-1.3,1.4
					c0,0.1,0,0.2,0,0.2C78.2,3.7,78.7,3.2,79.1,2.8z"/>
				<path fill="#C6C5C4" d="M77.5,4c-0.1,0.1,0,0.2,0.1,0.1c0,0,0.1-0.1,0.1-0.1c0-0.1,0-0.2,0-0.2C77.6,3.9,77.6,4,77.5,4z"/>
				<path fill="#C6C5C4" d="M80.6,1.1c0-0.1,0-0.2-0.1-0.1c-0.1,0-0.1,0.1-0.1,0.1c0,0.1,0,0.3,0,0.4C80.5,1.4,80.6,1.2,80.6,1.1z"
					/>
				<path fill="#C6C5C4" d="M79,8.6c0.3,0.3,0.7,0.7,1.1,1c0.2,0.2,0.5,0.5,0.8,0.6c0,0,0.1,0,0.1,0c0-0.1,0-0.2,0-0.3
					c-0.3-0.5-1-0.9-1.4-1.3c-0.6-0.5-1.2-1.1-1.5-1.9c0,0.2,0,0.4,0,0.7C78.3,7.9,78.6,8.2,79,8.6z"/>
				<path fill="#C6C5C4" d="M78,6.8c-0.1-0.1-0.3,0-0.2,0.1c0.1,0.2,0.2,0.4,0.3,0.6C78,7.2,78,7,78,6.8C78,6.8,78,6.8,78,6.8z"/>
				<path fill="#C6C5C4" d="M81,10c0,0,0-0.1-0.1-0.1c0,0.1,0,0.2,0,0.3C81,10.2,81,10.1,81,10z"/>
				<path fill="#C6C5C4" d="M79.8,32.6c0.5,0,1,0,1.5-0.1c0-0.1,0-0.2,0-0.3c-0.5-0.1-1,0-1.5,0c-0.6,0-1.1,0-1.7-0.1
					c0,0.1,0,0.1,0,0.2C78.7,32.6,79.2,32.6,79.8,32.6z"/>
				<path fill="#C6C5C4" d="M77.9,32.2c-0.1,0-0.1,0.1,0,0.2c0.1,0,0.2,0,0.2,0.1c0-0.1,0-0.1,0-0.2C78,32.2,78,32.2,77.9,32.2z"/>
				<path fill="#C6C5C4" d="M81.5,32.5c0.1,0,0.1-0.2,0-0.2c-0.1,0-0.1,0-0.2,0c0,0.1,0,0.2,0,0.3C81.4,32.5,81.4,32.5,81.5,32.5z"
					/>
				<path fill="#C6C5C4" d="M78.7,43.4c0-0.1-0.2-0.1-0.2,0c-0.3,2.3-0.6,4.6-0.4,6.9c0,0,0.1,0.1,0.1,0
					C78.2,48,78.6,45.7,78.7,43.4z"/>
				<path fill="#C6C5C4" d="M80.9,22.2c0.1,0.9,0.1,1.9,0.2,2.8C81,24,81,23.1,80.9,22.2C80.9,22.1,80.9,22.1,80.9,22.2z"/>
				<path fill="#C6C5C4" d="M81.2,27.4C81.2,27.4,81.2,27.4,81.2,27.4c0.3-1.7,0-3.5-0.2-5.3c0,0,0,0,0,0c0,1,0.1,1.9,0.1,2.9
					C81.1,25.8,81.2,26.6,81.2,27.4z"/>
				<path fill="#C6C5C4" d="M79.4,50.9c-0.2,0-0.4-0.1-0.6-0.2c-0.1-0.1-0.2-0.1-0.3-0.2c0,0,0,0,0,0c0,0.3,0.4,0.4,0.7,0.5
					c0.4,0.1,0.8,0.1,1.2-0.1c0,0,0-0.1,0-0.1C80,50.9,79.7,50.9,79.4,50.9z"/>
			</g>
			<g>
				<path fill="#949493" d="M79.7,47.9L79.7,47.9c-0.2-5.2,0.3-10.6,0.4-15.9c0.1-4.8-0.1-9.6-0.2-14.4c0-5.7,0.5-11.3-0.2-16.9
					c-0.6-4.8-0.3-9.2-0.3-14c0-5.2-0.9-10.4-0.6-15.5c0.1-1.7,0.2-3.3,0.2-5c0,0-0.1-0.1-0.1-0.1c-0.1-0.1,0-0.2,0.1-0.2
					c0-0.7,0-1.4,0.1-2.2c0,0,0,0-0.1,0c0,0,0,0,0-0.1c0,0,0.1,0,0.1-0.1c0-2.5,0-5.1,0-7.6c0-2.4,0.1-4.8,0.2-7.2c0,0,0,0,0,0
					c0.2-3.3,0.4-6.6,0.3-9.9c-0.1-2.6-0.3-5.3-0.2-7.9c0.1-2.3,0.3-4.5,0.1-6.7l0.3-8c0.4-3.6-0.6-7.1-0.6-10.7
					c0-1.8,0-2.9-0.1-4.7c-0.1,0-0.7-0.2-0.7-0.2c-0.3,0.4-0.3,0.1-0.2,0.7c0.2,2.1,0,4.3-0.1,6.4c-0.1,3.6,0.9,7.1,0.5,10.7l-0.4,8
					c0.2,2.3,0,4.5-0.2,6.7c-0.2,2.6,0,5.3,0.1,7.9c0.1,3.3-0.2,6.6-0.4,9.9c0,0,0,0,0,0c-0.2,2.4-0.3,4.8-0.3,7.2
					c0,2.5,0,5.1-0.1,7.6c0,0-0.1,0-0.1,0.1c0,0,0,0.1,0,0.1c0,0,0,0,0.1,0c0,0.7-0.1,1.4-0.1,2.2c-0.1,0-0.2,0.1-0.1,0.2
					c0,0,0,0.1,0.1,0.1c-0.1,1.7-0.1,3.3-0.3,5c-0.4,5.1,0.5,10.4,0.5,15.6c0,4.8-0.4,9.2,0.2,14c0.7,5.7,0.1,11.2,0.1,16.9
					c0,4.8,0.2,9.6,0,14.4c-0.2,5.3-0.7,10.6-0.6,15.9c0,0,0,0,0,0l0,0c0,0,0,0.1,0,0.1c1.1,1.3,2.7,1,4,0.4c0.1,0,0.1,0,0.2-0.1
					c0.1-0.1,0.1-0.2,0-0.3c0-0.4,0-0.9,0-1.3c-0.6-0.1-1.1-0.3-1.6-0.8C79.7,48,79.7,48,79.7,47.9z"/>
			</g>
			<g>
				<path fill="#1D1D1B" d="M77.3,50.6c1.2,1.3,3,0.9,4.5,0.3c0.2-0.1,0-0.5-0.2-0.4c-0.7,0.3-1.3,0.5-2,0.5
					c-0.8,0.1-1.4-0.3-2.1-0.7C77.4,50.3,77.2,50.5,77.3,50.6L77.3,50.6z"/>
			</g>
			<g>
				<path fill="#1D1D1B" d="M79.6-70.7c-0.9,4.3-0.1,8.6-0.1,12.9c0,5.4,0.1,10.7,0,16.1c0,5.6-0.5,11.3-0.2,16.8
					c0.2,2.6,0.6,5.2,0.8,7.8c0.2,2.7,0,5.4,0.1,8.1c0,1.9-0.3,3.8-0.2,5.7c0.1,1.9,0.3,3.8,0.5,5.7C81.1,8,80.9,13.7,81,19.3
					c0.1,5.5,0.5,10.9,0.3,16.5c-0.1,5-0.2,10.1,0.3,15.1c0,0.2,0.3,0.2,0.3,0c0-4.7-0.4-9.4-0.2-14c0.2-5.6-0.1-10.9-0.3-16.5
					c-0.2-4.8-0.5-9.8-0.3-14.6c0.1-2.4-0.3-4.9-0.5-7.3c-0.2-2.2,0-4.3,0.1-6.5c0.1-4.5,0.1-8.9-0.5-13.4c-0.8-6,0.1-11.9-0.1-17.9
					c-0.2-5.4,0.3-10.9,0-16.3c-0.4-4.9-0.9-10.3-0.2-15.1C79.8-70.8,79.6-70.8,79.6-70.7L79.6-70.7z"/>
			</g>
			<g>
				<path fill="#1D1D1B" d="M77.7,3.8c0.6-0.4,1-0.9,1.5-1.4c0.5-0.5,1.2-1.1,1.5-1.7c0-0.1,0-0.2-0.1-0.1c-0.6,0.3-1,0.9-1.4,1.4
					c-0.5,0.5-1.1,1.1-1.5,1.6C77.5,3.8,77.6,3.9,77.7,3.8L77.7,3.8z"/>
			</g>
			<g>
				<path fill="#1D1D1B" d="M77.8,6.5C78,7.2,78.5,7.8,79,8.3c0.3,0.3,0.7,0.7,1.1,1c0.2,0.2,0.5,0.5,0.8,0.6c0.1,0,0.2-0.1,0.1-0.2
					c-0.3-0.5-1-1-1.5-1.4C79,7.8,78.3,7.2,78,6.4C78,6.3,77.7,6.4,77.8,6.5L77.8,6.5z"/>
			</g>
			<g>
				<path fill="#1D1D1B" d="M77.9,32.1c0.6,0.2,1.3,0.2,1.9,0.2c0.5,0,1.2,0.1,1.7-0.2c0.1,0,0.1-0.2,0-0.2c-0.5-0.1-1.1,0-1.7,0
					c-0.6,0-1.3,0-1.9-0.1C77.8,31.9,77.8,32,77.9,32.1L77.9,32.1z"/>
			</g>
			<g>
				<path fill="#1D1D1B" d="M78.2,50c0-2.3,0.4-4.6,0.5-6.9c0-0.1-0.2-0.1-0.2,0C78.2,45.3,78,47.7,78.2,50C78.1,50,78.2,50,78.2,50
					L78.2,50z"/>
			</g>
			<g>
				<path fill="#1D1D1B" d="M81.3,27.1c0.3-1.7,0-3.5-0.2-5.3c0-0.1-0.1-0.1-0.1,0C81.1,23.6,81.2,25.3,81.3,27.1L81.3,27.1
					L81.3,27.1z"/>
			</g>
			<g>
				<path fill="#1D1D1B" d="M78.5,50.2c0,0.3,0.4,0.4,0.7,0.5c0.4,0.1,0.8,0.1,1.2-0.1c0,0,0-0.1,0-0.1c-0.3,0-0.6,0-0.9,0
					c-0.2,0-0.4-0.1-0.6-0.2C78.7,50.3,78.6,50.2,78.5,50.2C78.5,50.2,78.5,50.2,78.5,50.2L78.5,50.2z"/>
			</g>
			<g>
				<path fill="#BDBDBD" d="M2.1-6.4c0.1,0,0.1,0.1,0.1,0.2c0,17,1.2,33.9,1.2,50.9c2.2,1.4,5,1.6,7.6,1.6c3.1,0.1,6.2,0.5,9.3-0.2
					c-0.7-3.5-0.6-7.4-0.6-11c0-5,0.1-10.1,0.3-15.1c0.3-8.8,0.6-17.9,2-26.6c-1.2-0.2-2.4-0.4-3.5-0.7c-0.1,0-0.1-0.2,0-0.2
					c1.7,0.1,3.3,0.4,5,0.6c1.7,0.1,3.4,0,5.1,0.2c0.1,0,0.1,0.2,0,0.2c-1.1,0.2-2.2,0.2-3.4,0.2c0.9,9,0.5,18.3,0.2,27.3
					c-0.2,5-0.4,10-0.8,15c-0.3,3.4-0.4,6.9-1.3,10.2c3,0.8,6.2,0.7,9.3,0.8c2.6,0.1,5.3,0.1,7.6-1.2c0.9-17.3,3-34.6,4.1-52
					c-2.9-1.3-6-2.2-8.9-3.3c-3.7-1.4-7.5-2.7-11.4-3.6c-5.3,0.8-10.5,2.4-15.5,4.2C6.5-8.1,4.4-7,2.1-6.4z M6.1,17.3
					C5.6,13.2,5.8,9,5.8,4.8C5.7,1.2,5.5-2.3,5.7-5.9c0,0,0,0,0.1,0C6.6-3.2,6,0.8,6.1,3.7c0.1,4.5,0.2,9.1,0.1,13.6
					C6.2,17.4,6.1,17.4,6.1,17.3z M6.6,41.7C6,34.6,5.8,27.2,6.1,20.1c0-0.1,0.2-0.1,0.2,0c0.3,7.2,0.3,14.4,0.5,21.6
					C6.9,41.8,6.7,41.8,6.6,41.7z M40.5,6.1c0.2-3.6,0.3-7.1,0.7-10.7c0-0.1,0.1-0.1,0.1,0c0.2,7.1-0.2,14.8-1.3,21.7
					c0,0.1-0.2,0.1-0.2,0C39.7,13.4,40.4,9.7,40.5,6.1z M39.3,20.2c0-0.1,0.2-0.1,0.2,0c-0.7,6.6,0.4,13.5-1.5,20
					c-0.1,0.2-0.4,0.1-0.3-0.1c0.9-4.2,0.8-8.3,1.1-12.5C38.9,25.2,38.7,22.6,39.3,20.2z"/>
				<path fill="#BDBDBD" d="M3.3,44.6c0.1,0,0.1,0.1,0.2,0.1c0-17-1.2-33.9-1.2-50.9c0-0.1-0.1-0.2-0.1-0.2c-0.1,0-0.1,0-0.2,0
					c0,0-0.1,0-0.1,0c0,0,0,0.1,0,0.1C1.3,2.2,1.8,10.6,2,18.9c0.2,8.6,0.3,17.2,0.9,25.8C3,44.9,3.1,45,3.3,45
					c-0.1-0.1-0.1-0.1-0.2-0.2C3,44.7,3.1,44.5,3.3,44.6z"/>
				<path fill="#BDBDBD" d="M20.4,46.5c0-0.1,0-0.2,0-0.3c-3.1,0.6-6.2,0.3-9.3,0.2c-2.6-0.1-5.3-0.2-7.6-1.6c0,0,0,0,0,0
					c0,0.2-0.1,0.2-0.2,0.2c1.7,1.6,4.6,1.7,6.7,1.9c3.3,0.2,7.3,1,10.5-0.2c0.3-0.1,0.2-0.4,0-0.5c0,0.1,0,0.2,0,0.2
					C20.6,46.5,20.4,46.5,20.4,46.5z"/>
				<path fill="#BDBDBD" d="M3.5,44.8C3.5,44.8,3.5,44.7,3.5,44.8c-0.1-0.1-0.1-0.1-0.2-0.1c-0.1-0.1-0.3,0.1-0.2,0.2
					c0.1,0.1,0.1,0.1,0.2,0.2C3.4,45,3.5,44.9,3.5,44.8z"/>
				<path fill="#BDBDBD" d="M20,20.1c-0.2,5-0.3,10.1-0.3,15.1c0,3.6-0.1,7.4,0.6,11c0,0,0,0,0.1,0c0.1,0,0.1,0,0.1,0
					c-0.3-17.6-0.2-35.1,1.8-52.7c-0.1,0-0.2,0-0.3,0C20.6,2.2,20.3,11.3,20,20.1z"/>
				<path fill="#BDBDBD" d="M20.4,46.2C20.4,46.2,20.4,46.2,20.4,46.2c0,0.1,0,0.2,0,0.3c0,0.1,0.2,0.1,0.2,0c0-0.1,0-0.2,0-0.2
					C20.5,46.2,20.5,46.2,20.4,46.2z"/>
				<path fill="#BDBDBD" d="M40.4,45.9c0.1,0,0.1-0.1,0.2-0.1c0.1-0.1,0.3,0.1,0.2,0.2c-0.1,0.1-0.1,0.1-0.2,0.1
					c0.1,0,0.3,0,0.3-0.2c1.1-8.6,1.6-17.4,2.3-26c0.7-8.5,1.6-17.2,1.7-25.7C44.8-6,44.6-6,44.5-6.1C43.4,11.2,41.3,28.5,40.4,45.9
					z"/>
				<path fill="#BDBDBD" d="M40.4,45.9L40.4,45.9c-2.3,1.2-5,1.2-7.6,1.2c-3.1-0.1-6.3,0.1-9.3-0.8c0,0.1,0,0.2-0.1,0.2
					c0,0.1-0.2,0.1-0.1,0c0-0.1,0-0.2,0-0.2c-0.2,0-0.3,0.4,0,0.5c3,1.3,6.7,0.8,10,0.8c2.3,0,5.5,0.1,7.3-1.5
					C40.5,46.1,40.4,46,40.4,45.9z"/>
				<path fill="#BDBDBD" d="M40.6,45.8c-0.1,0-0.1,0.1-0.2,0.1l0,0c0,0.2,0.1,0.2,0.2,0.3c0.1,0,0.1-0.1,0.2-0.1
					C40.9,45.9,40.7,45.7,40.6,45.8z"/>
				<path fill="#BDBDBD" d="M23.4,46.3C23.4,46.3,23.5,46.3,23.4,46.3c0.9-3.3,1.1-6.8,1.3-10.2c0.4-5,0.6-10,0.8-15
					c0.3-9,0.6-18.3-0.2-27.3c-0.1,0-0.2,0-0.3,0c0.8,17.6-0.3,35-1.6,52.5C23.3,46.2,23.4,46.2,23.4,46.3z"/>
				<path fill="#BDBDBD" d="M23.4,46.5c0-0.1,0-0.2,0.1-0.2c0,0,0,0-0.1,0c0,0-0.1,0-0.1,0c0,0.1,0,0.2,0,0.2
					C23.3,46.6,23.4,46.6,23.4,46.5z"/>
				<path fill="#BDBDBD" d="M6.1,3.7C6,0.8,6.6-3.2,5.7-5.9c0,0-0.1,0-0.1,0c-0.1,3.6,0,7.1,0.1,10.7C5.8,9,5.6,13.2,6.1,17.3
					c0,0.1,0.2,0.1,0.2,0C6.3,12.8,6.2,8.2,6.1,3.7z"/>
				<path fill="#BDBDBD" d="M6.1,20.1C5.8,27.2,6,34.6,6.6,41.7c0,0.1,0.2,0.2,0.2,0c-0.2-7.2-0.2-14.4-0.5-21.6
					C6.3,20,6.2,20,6.1,20.1z"/>
				<path fill="#BDBDBD" d="M40,17.1c1.2-7,1.6-14.7,1.3-21.7c0-0.1-0.1-0.1-0.1,0c-0.4,3.5-0.6,7.1-0.7,10.7
					c-0.2,3.7-0.8,7.4-0.8,11.1C39.8,17.3,40,17.3,40,17.1z"/>
				<path fill="#BDBDBD" d="M37.7,40.2c0,0.2,0.2,0.3,0.3,0.1c1.9-6.5,0.8-13.4,1.5-20c0-0.1-0.2-0.2-0.2,0c-0.6,2.4-0.4,5-0.5,7.5
					C38.5,31.9,38.5,36,37.7,40.2z"/>
			</g>
			<g>
				<path fill="#AF64A3" d="M28.9,52.3c0.5,0.7,0.9,1.4,1.3,2c1.1,1.8,2.2,4.5,4.5,5c2.1,0.5,6,0.1,6.2-2.8l-0.7-3.4
					c0,0-0.1,0-0.1,0c0,0,0,0,0,0l0,0c-1.2-0.7-3.1-0.3-4.4-0.1c-1.9,0.3-3.4,1-4.3,2.8c-0.1,0.2-0.5,0-0.4-0.2
					c1.1-2.2,3.2-2.9,5.5-3.1c0.5-0.1,2.4-0.4,3.2,0.1c-0.2-0.5-0.3-1.1-0.5-1.6c-0.3-0.7-0.9-1.2-1.2-1.9c-1.5,0.3-3-0.1-4.5,0.3
					C31.6,49.8,30.4,51,28.9,52.3z"/>
				<path fill="#AF64A3" d="M25.6,48.2c0.1,0.2,0.2,0.4,0.2,0.5c1,0.9,2,2.1,2.9,3.3c1.7-2.6,6.2-4.3,9.2-3.2
					c-0.1-0.2-0.3-0.5-0.4-0.7c0-0.1-0.1-0.2-0.1-0.3c-1.4,0.2-2.9,0.2-4.1,0.2c-2.5,0-5.3,0.3-7.8-0.2C25.5,47.8,25.5,48,25.6,48.2
					z"/>
				<path fill="#AF64A3" d="M33.9,59.3c-2-0.8-2.9-3.2-3.9-4.8c-1.4-2-3-3.9-4.5-5.8c0,0,0-0.1,0-0.1c-0.1-0.1-0.2-0.3-0.2-0.5
					c-0.1,0.2-0.1,0.5-0.2,0.7c0,0,0,0.1-0.1,0.1c1.9,1.9,3.4,4.4,4.9,6.5c1.4,2,2.4,4.5,4.9,5.3c2.4,0.7,4.8-0.2,5.8-2.3
					C39.1,60,35.6,60,33.9,59.3z"/>
				<path fill="#AF64A3" d="M6,47.8c3.1-0.9,7.5,1.1,9,3.9c0.9-1.2,2-2.4,3.1-3.2c0.1-0.2,0.2-0.3,0.3-0.5c0.1-0.2,0.1-0.4,0.1-0.5
					c-2.7,0.3-5.7-0.1-8.3-0.3C9,47,7.8,47,6.5,46.7c0,0.1-0.1,0.2-0.1,0.3C6.3,47.3,6.2,47.6,6,47.8z"/>
				<path fill="#AF64A3" d="M5.7,48c-0.3,0.7-0.9,1.1-1.3,1.8c-0.2,0.5-0.4,1-0.6,1.5c0.9-0.4,3,0.1,3.6,0.2
					c2.2,0.5,4.1,1.2,4.9,3.4c0.1,0.3-0.3,0.5-0.4,0.2c-0.8-1.9-2.4-2.8-4.4-3.2c-1.2-0.3-2.9-0.7-4.1-0.1c0,0,0,0,0,0c0,0,0,0,0,0
					c0,0,0,0-0.1,0l-0.9,3c0,0,0,0,0,0c-0.3,3.8,5.8,4.4,7.9,2.5c1.4-1.3,2.3-2.9,3.4-4.4c0.3-0.4,0.6-0.8,0.9-1.2
					c-1.5-1.6-2.8-3-5-3.5C8.4,48.2,7,48.3,5.7,48z"/>
				<path fill="#AF64A3" d="M18.5,48.5c-1.1,1.2-2.3,2.4-3.4,3.6c0,0,0,0,0,0c-0.7,0.8-1.4,1.7-2,2.5c-1.1,1.6-2.4,3.8-4.5,4.1
					c-1.7,0.3-4.7-0.1-5.8-1.7c1,2.7,4.4,3.8,7.1,2.2c2-1.2,3.1-3.4,4.5-5.2c1.4-1.8,2.9-3.8,4.6-5.4c0,0,0-0.1,0-0.1
					c0-0.2-0.1-0.5-0.1-0.7C18.7,48.1,18.6,48.3,18.5,48.5C18.5,48.5,18.5,48.5,18.5,48.5z"/>
				<path fill="#AF64A3" d="M20.5,46.5c-3.1,0.7-6.2,0.3-9.4,0.2c-2.6-0.1-5.5-0.2-7.7-1.8c-0.1-0.1-0.3,0.1-0.2,0.2
					c0.8,0.8,1.8,1.3,3,1.5c0-0.1,0.1-0.2,0.2-0.3c0,0,0.1,0,0.1,0c0.1,0.1,0.1,0.2,0.1,0.3C7.8,47,9,47,10.1,47.1
					c2.6,0.2,5.6,0.7,8.3,0.3c0-0.1,0-0.2,0-0.3c0-0.2,0.1-0.3,0.2-0.2c0,0,0,0,0,0l0,0c0,0,0.1,0.1,0.1,0.1c0,0,0,0.1,0,0.1
					c0,0.1,0.1,0.1,0.1,0.2c0.6-0.1,1.2-0.2,1.7-0.4C20.9,46.8,20.8,46.4,20.5,46.5z"/>
				<path fill="#AF64A3" d="M6,47.8c0,0-0.1,0.1-0.1,0.1C5.9,48,5.8,48,5.7,48c0,0,0,0,0,0c1.3,0.3,2.7,0.1,4,0.4
					c2.2,0.5,3.5,1.9,5,3.5c0.1-0.1,0.1-0.2,0.2-0.3C13.5,48.9,9.1,46.9,6,47.8z"/>
				<path fill="#AF64A3" d="M15.1,52.1C15.1,52.1,15.1,52.1,15.1,52.1C15.1,52.1,15.1,52.1,15.1,52.1z"/>
				<path fill="#AF64A3" d="M5.7,47.9c0.1,0,0.2-0.1,0.3-0.1c0.2-0.2,0.3-0.5,0.4-0.7c0-0.1,0.1-0.2,0.1-0.3c-0.1,0-0.2,0-0.3-0.1
					c0,0.1-0.1,0.2-0.1,0.3c-0.1,0.3-0.3,0.5-0.4,0.8C5.6,47.8,5.6,47.9,5.7,47.9C5.7,47.9,5.7,47.9,5.7,47.9
					C5.7,47.9,5.7,47.9,5.7,47.9z"/>
				<path fill="#AF64A3" d="M6.5,46.4c0,0-0.1,0-0.1,0c-0.1,0.1-0.1,0.2-0.2,0.3c0.1,0,0.2,0.1,0.3,0.1C6.6,46.6,6.6,46.5,6.5,46.4z
					"/>
				<path fill="#AF64A3" d="M5.8,48C5.8,48,5.7,48,5.8,48c0,0.1,0.1,0,0.2,0c0,0,0.1-0.1,0.1-0.1C5.9,47.8,5.8,47.8,5.8,48
					C5.7,47.9,5.7,47.9,5.8,48C5.7,47.9,5.7,47.9,5.8,48C5.7,47.9,5.8,47.9,5.8,48z"/>
				<path fill="#AF64A3" d="M3.5,51.9C3.5,51.9,3.5,51.9,3.5,51.9C3.5,51.9,3.5,51.9,3.5,51.9C3.5,51.9,3.5,51.8,3.5,51.9L3.5,51.9
					C3.5,52,3.5,52,3.5,51.9z"/>
				<path fill="#AF64A3" d="M3.5,51.7c0.1-0.2,0.2-0.3,0.4-0.4c0.2-0.5,0.3-1.1,0.6-1.5c0.3-0.7,1-1.1,1.3-1.8c0,0,0,0,0,0
					c0,0,0,0,0-0.1c0,0,0,0,0,0c-0.7,0.2-1.2,1-1.6,1.6c-0.3,0.6-0.7,1.4-0.8,2.1c0,0,0,0,0,0C3.4,51.5,3.6,51.6,3.5,51.7z"/>
				<path fill="#AF64A3" d="M5.7,48C5.7,48,5.7,48,5.7,48C5.7,48,5.7,48,5.7,48C5.7,47.9,5.7,47.9,5.7,48C5.7,48,5.7,48,5.7,48
					C5.7,48,5.7,48,5.7,48C5.7,48,5.7,48,5.7,48C5.7,48,5.7,48,5.7,48z"/>
				<path fill="#AF64A3" d="M5.7,47.9C5.7,47.9,5.7,47.9,5.7,47.9C5.7,47.9,5.7,47.9,5.7,47.9C5.7,47.9,5.7,47.9,5.7,47.9z"/>
				<path fill="#AF64A3" d="M5.7,48C5.7,48,5.7,48,5.7,48C5.7,48,5.7,48,5.7,48C5.7,48,5.8,48,5.7,48C5.8,47.9,5.7,47.9,5.7,48
					C5.7,47.9,5.7,47.9,5.7,48C5.7,47.9,5.7,47.9,5.7,48C5.7,47.9,5.7,47.9,5.7,48C5.7,48,5.7,48,5.7,48z"/>
				<path fill="#AF64A3" d="M3.6,51.9c1.1-0.6,2.9-0.2,4.1,0.1c1.9,0.4,3.6,1.2,4.4,3.2c0.1,0.3,0.5,0,0.4-0.2
					c-0.9-2.2-2.8-3-4.9-3.4c-0.6-0.1-2.7-0.6-3.6-0.2C3.8,51.5,3.7,51.7,3.6,51.9C3.6,51.9,3.6,51.9,3.6,51.9z"/>
				<path fill="#AF64A3" d="M3.6,51.9c0.1-0.2,0.2-0.4,0.3-0.6c-0.2,0.1-0.3,0.2-0.4,0.4l0,0L3.6,51.9C3.5,51.8,3.5,51.9,3.6,51.9
					C3.5,51.9,3.5,51.9,3.6,51.9z"/>
				<path fill="#AF64A3" d="M2.5,55l0.9-3c-0.1,0-0.1,0-0.1-0.1c0-0.1,0-0.2,0-0.2C2.6,52.5,2.4,53.9,2.5,55C2.5,55,2.5,55,2.5,55z"
					/>
				<path fill="#AF64A3" d="M3.5,52l0-0.1c0,0,0-0.1,0-0.1c0-0.1-0.1-0.2-0.2-0.1c0,0,0,0,0,0c0,0.1,0,0.2,0,0.2
					C3.3,51.9,3.4,52,3.5,52z"/>
				<path fill="#AF64A3" d="M3.5,51.7C3.5,51.8,3.5,51.8,3.5,51.7L3.5,51.7L3.5,51.7z"/>
				<path fill="#AF64A3" d="M15.1,52.1c1.1-1.2,2.2-2.4,3.4-3.6c0,0,0-0.1,0-0.1c-0.1,0.2-0.3,0.3-0.5,0.3c-0.1,0-0.1,0-0.1-0.1
					c0-0.1,0.1-0.1,0.1-0.2c-1.1,0.8-2.2,2-3.1,3.2c0.1,0.1,0.1,0.2,0.2,0.3C15.2,52,15.2,52.1,15.1,52.1z"/>
				<path fill="#AF64A3" d="M2.5,55.1c-0.1,0.7,0,1.4,0.3,2c1.1,1.5,4.1,1.9,5.8,1.7c2.1-0.3,3.5-2.5,4.5-4.1c0.6-0.9,1.3-1.7,2-2.5
					c0,0-0.1,0-0.2,0c-0.1-0.1-0.1-0.1-0.2-0.2c-0.3,0.4-0.6,0.8-0.9,1.2c-1.1,1.5-2,3.1-3.4,4.4C8.4,59.5,2.2,58.9,2.5,55.1
					c0.1-0.1,0-0.1,0-0.1L2.5,55.1c0-0.1,0-0.1,0-0.2c0,0-0.1,0-0.1,0.1c0,0,0,0,0,0C2.4,55,2.5,55,2.5,55.1z"/>
				<path fill="#AF64A3" d="M15.1,52c0-0.1-0.1-0.2-0.2-0.3c-0.1,0.1-0.1,0.2-0.2,0.3c0.1,0.1,0.1,0.1,0.2,0.2c0.1,0.1,0.1,0,0.2,0
					c0,0,0,0,0,0C15.2,52.1,15.2,52,15.1,52z"/>
				<path fill="#AF64A3" d="M2.5,55C2.5,55,2.5,55,2.5,55c0,0,0,0.1,0,0.1L2.5,55z"/>
				<path fill="#AF64A3" d="M18.9,48.7c-1.7,1.5-3.1,3.6-4.6,5.4c-1.4,1.8-2.5,4-4.5,5.2c-2.6,1.6-6.1,0.5-7.1-2.2
					c-0.4-0.5-0.6-1.2-0.4-2.1c0,0-0.1,0-0.1,0.1c-0.2,1.6-0.2,3,1.3,3.9c1.9,1.2,3.5,1.6,5.6,0.8c2-0.7,2.8-2.3,4-3.9
					c1.8-2.5,4-4.7,5.8-7.2c0,0,0,0,0,0C19,48.8,19,48.8,18.9,48.7z"/>
				<path fill="#AF64A3" d="M2.8,57.1c-0.2-0.6-0.3-1.2-0.3-2c0-0.1-0.1-0.1-0.1-0.1C2.2,55.9,2.4,56.6,2.8,57.1z"/>
				<path fill="#AF64A3" d="M18.4,48c-0.1,0.2-0.2,0.3-0.3,0.5c0.1-0.1,0.2-0.1,0.3-0.2c0.1-0.1,0.2,0,0.2,0.1
					c0.1-0.1,0.2-0.3,0.2-0.5c0-0.2-0.1-0.3-0.1-0.5c-0.1,0-0.2,0-0.2,0C18.4,47.6,18.4,47.8,18.4,48z"/>
				<path fill="#AF64A3" d="M18.8,47.1c0-0.1-0.1-0.1-0.1-0.1C18.7,47,18.8,47.1,18.8,47.1C18.8,47.2,18.8,47.1,18.8,47.1z"/>
				<path fill="#AF64A3" d="M18.6,47C18.6,47,18.6,47,18.6,47c-0.1,0-0.3,0.1-0.2,0.2c0,0.1,0,0.2,0,0.3c0.1,0,0.2,0,0.2,0
					C18.6,47.3,18.6,47.1,18.6,47z"/>
				<path fill="#AF64A3" d="M18.1,48.8c0.2,0,0.4-0.2,0.5-0.3c0-0.1-0.1-0.2-0.2-0.1c-0.1,0.1-0.2,0.1-0.3,0.2
					C18.1,48.6,18,48.6,18.1,48.8C18,48.7,18,48.8,18.1,48.8z"/>
				<path fill="#AF64A3" d="M18.7,47.9c0.1,0.2,0.1,0.5,0.1,0.7c0,0,0,0.1,0,0.1c0,0,0,0,0,0c0,0,0.1,0,0.1,0.1c0,0,0.1,0,0.1-0.1
					c0-0.4-0.1-0.9-0.3-1.3c0,0-0.1,0-0.1,0C18.8,47.6,18.8,47.8,18.7,47.9z"/>
				<path fill="#AF64A3" d="M18.8,47.4C18.8,47.4,18.9,47.4,18.8,47.4c0.1-0.1,0-0.1,0-0.2C18.8,47.3,18.8,47.3,18.8,47.4z"/>
				<path fill="#AF64A3" d="M18.7,47C18.7,47,18.7,47,18.7,47C18.7,47,18.7,47,18.7,47L18.7,47z"/>
				<path fill="#AF64A3" d="M19,48.7C18.9,48.7,18.9,48.7,19,48.7C19,48.8,19,48.8,19,48.7C19.1,48.7,19,48.7,19,48.7z"/>
				<path fill="#AF64A3" d="M18.7,47.9c0-0.2,0.1-0.4,0.1-0.5c-0.1,0-0.1,0-0.2,0C18.7,47.6,18.7,47.8,18.7,47.9z"/>
				<path fill="#AF64A3" d="M18.6,47.4c0.1,0,0.1,0,0.2,0c0-0.1,0-0.1,0-0.2c0-0.1-0.1-0.1-0.1-0.2c0,0,0,0,0,0c0,0,0,0,0,0
					C18.6,47.1,18.6,47.3,18.6,47.4z"/>
				<path fill="#AF64A3" d="M25.2,47.3c0-0.1,0.1-0.1,0.1-0.1l0,0c0,0,0,0,0,0c0.1,0,0.3,0.1,0.2,0.3c0,0.1,0,0.2,0,0.2
					c2.5,0.5,5.3,0.2,7.8,0.2c1.2,0,2.7,0,4.1-0.2c0-0.1,0-0.3,0.1-0.3c0,0,0.1,0,0.1,0c0.1,0.1,0.1,0.2,0.1,0.3
					c1.2-0.2,2.3-0.6,3-1.4c0.1-0.1,0-0.3-0.2-0.2c-2.3,1.4-5.2,1.4-7.8,1.3c-3.2-0.1-6.3,0.1-9.4-0.8c-0.3-0.1-0.4,0.4-0.1,0.5
					c0.5,0.2,1.1,0.4,1.7,0.5C25.1,47.5,25.1,47.4,25.2,47.3C25.2,47.3,25.2,47.3,25.2,47.3z"/>
				<path fill="#AF64A3" d="M28.7,52c0.1,0.1,0.1,0.2,0.2,0.3c1.5-1.4,2.7-2.5,4.7-3c1.5-0.4,3,0,4.5-0.3c0,0,0,0,0,0
					c-0.1,0-0.1,0-0.2-0.1c0,0-0.1-0.1-0.1-0.2C34.9,47.7,30.4,49.4,28.7,52z"/>
				<path fill="#AF64A3" d="M37.5,48c0.1,0.3,0.2,0.5,0.4,0.7c0.1,0,0.2,0.1,0.3,0.1c0,0,0,0,0,0c0,0,0,0,0,0c0,0,0-0.1,0-0.1
					c-0.1-0.2-0.2-0.5-0.3-0.7c0-0.1-0.1-0.3-0.1-0.4c-0.1,0-0.2,0-0.3,0.1C37.5,47.8,37.5,48,37.5,48z"/>
				<path fill="#AF64A3" d="M37.5,47.4c-0.1,0.1-0.1,0.2-0.1,0.3c0.1,0,0.2,0,0.3-0.1c0-0.1-0.1-0.2-0.1-0.3
					C37.6,47.4,37.6,47.3,37.5,47.4z"/>
				<path fill="#AF64A3" d="M38.2,49C38.1,49,38.1,49,38.2,49C38.1,48.9,38.2,48.9,38.2,49C38.2,48.9,38.2,48.9,38.2,49
					c0.1-0.1,0.1-0.1,0-0.1c-0.1,0-0.2-0.1-0.3-0.1c0,0.1,0.1,0.1,0.1,0.2C38,49,38.1,49,38.2,49z"/>
				<path fill="#AF64A3" d="M38.2,49C38.2,49,38.2,49,38.2,49c0.2,0.7,0.8,1.2,1.1,1.9c0.2,0.5,0.3,1.1,0.5,1.6
					c0.2,0.1,0.3,0.2,0.3,0.4c0-0.1,0.1-0.2,0.2-0.1c0,0,0,0,0,0c0-0.7-0.4-1.5-0.6-2.1C39.4,50.1,38.9,49.1,38.2,49
					C38.2,48.9,38.2,48.9,38.2,49C38.2,49,38.2,49,38.2,49z"/>
				<path fill="#AF64A3" d="M40.1,53.1C40.1,53.1,40.1,53.1,40.1,53.1C40.1,53.1,40.1,53.1,40.1,53.1L40.1,53.1
					C40.1,53,40.1,53.1,40.1,53.1z"/>
				<path fill="#AF64A3" d="M38.2,49C38.2,49,38.2,49,38.2,49L38.2,49C38.2,49,38.2,49,38.2,49C38.2,49,38.2,49,38.2,49
					C38.2,49,38.2,49,38.2,49C38.2,49,38.2,49,38.2,49C38.2,49,38.2,49,38.2,49z"/>
				<path fill="#AF64A3" d="M38.2,49C38.2,48.9,38.2,48.9,38.2,49C38.2,48.9,38.2,48.9,38.2,49C38.2,48.9,38.2,48.9,38.2,49z"/>
				<path fill="#AF64A3" d="M38.1,49C38.1,49,38.1,49,38.1,49L38.1,49C38.2,49,38.2,49,38.1,49C38.2,49,38.2,49,38.1,49
					c0.1,0,0.1,0,0.1,0C38.2,48.9,38.2,48.9,38.1,49C38.2,48.9,38.2,48.9,38.1,49C38.2,48.9,38.1,48.9,38.1,49z"/>
				<path fill="#AF64A3" d="M36.6,52.4c-2.3,0.2-4.4,0.9-5.5,3.1c-0.1,0.2,0.2,0.5,0.4,0.2c0.9-1.8,2.4-2.5,4.3-2.8
					c1.3-0.2,3.2-0.6,4.4,0.1l0,0c-0.1-0.2-0.2-0.4-0.3-0.6C39,52,37.1,52.3,36.6,52.4z"/>
				<path fill="#AF64A3" d="M40.1,53l0-0.1c0,0,0,0,0,0c0-0.2-0.2-0.3-0.3-0.4C39.9,52.7,40,52.9,40.1,53C40.1,53.1,40.1,53,40.1,53
					z"/>
				<path fill="#AF64A3" d="M40.2,53.1l0.7,3.4c0-0.1,0-0.2,0-0.3c0-0.1,0-0.1,0.1-0.1c0.3-1.1,0-2.5-0.6-3.4c0,0.1,0,0.2,0,0.2
					C40.3,53.1,40.2,53.1,40.2,53.1z"/>
				<path fill="#AF64A3" d="M40.1,52.9c0,0,0,0.1,0,0.1l0,0l0,0.1c0.1,0,0.1,0,0.1-0.1c0-0.1,0-0.2,0-0.2c0,0,0,0,0,0
					C40.2,52.7,40.1,52.8,40.1,52.9z"/>
				<path fill="#AF64A3" d="M40.1,53L40.1,53c0,0,0-0.1,0-0.1c0,0,0,0,0,0L40.1,53z"/>
				<path fill="#AF64A3" d="M40.9,56.5c-0.2,2.9-4,3.2-6.2,2.8c-2.3-0.5-3.4-3.2-4.5-5c-0.4-0.6-0.8-1.3-1.3-2
					c-0.1,0.1-0.1,0.1-0.2,0.2c-0.1,0.1-0.3,0-0.2-0.2c0.1-0.1,0.1-0.2,0.2-0.4c-0.9-1.2-1.9-2.4-2.9-3.3c0,0.1,0.1,0.1,0.1,0.2
					c0,0.1,0,0.1-0.1,0.1c-0.2,0-0.3-0.2-0.5-0.3c0,0,0,0.1,0,0.1c1.6,1.9,3.2,3.7,4.5,5.8c1.1,1.6,2,4,3.9,4.8
					c1.7,0.7,5.2,0.6,6.6-0.9c0.3-0.6,0.4-1.3,0.4-2c0-0.1,0.1-0.1,0.1-0.1c0,0,0,0,0,0c0-0.1-0.1-0.1-0.1-0.1
					C40.9,56.3,40.9,56.4,40.9,56.5L40.9,56.5z"/>
				<path fill="#AF64A3" d="M28.5,52.4c-0.1,0.1,0.1,0.3,0.2,0.2c0.1-0.1,0.1-0.1,0.2-0.2c-0.1-0.1-0.1-0.2-0.2-0.3
					C28.6,52.1,28.6,52.2,28.5,52.4z"/>
				<path fill="#AF64A3" d="M40.9,56.3c0,0.1,0,0.2,0,0.3l0,0C40.9,56.4,40.9,56.3,40.9,56.3C40.9,56.2,40.9,56.2,40.9,56.3z"/>
				<path fill="#AF64A3" d="M41.1,56.3C41.1,56.3,41.1,56.3,41.1,56.3c0.1,0.8-0.1,1.5-0.6,2c-1,2.1-3.4,3-5.8,2.3
					c-2.6-0.8-3.6-3.3-4.9-5.3c-1.5-2.2-3-4.7-4.9-6.5c0,0-0.1,0-0.1,0l0,0c1.4,2.3,3.2,4.4,4.7,6.6c1.4,1.9,2,4.1,4.4,5.1
					c1.8,0.8,3.1,0.7,4.9,0C40.9,59.8,41.2,58.3,41.1,56.3z"/>
				<path fill="#AF64A3" d="M40.9,56.3c0,0.8-0.2,1.4-0.4,2c0.5-0.5,0.7-1.2,0.6-2.1C41,56.2,40.9,56.3,40.9,56.3z"/>
				<path fill="#AF64A3" d="M25.6,48.5c0.1,0.1,0.2,0.1,0.2,0.2c-0.1-0.2-0.2-0.3-0.2-0.5c-0.1-0.2-0.1-0.4,0-0.6
					c-0.1,0-0.1,0-0.2,0c0,0.2-0.1,0.3-0.1,0.5c0,0.2,0.1,0.4,0.2,0.5C25.4,48.5,25.5,48.4,25.6,48.5z"/>
				<path fill="#AF64A3" d="M25.2,47.3C25.2,47.3,25.2,47.3,25.2,47.3c0,0,0.1-0.1,0.1-0.1C25.3,47.2,25.2,47.2,25.2,47.3z"/>
				<path fill="#AF64A3" d="M25.3,47.6c0.1,0,0.1,0,0.2,0c0-0.1,0-0.2,0-0.2c0-0.2-0.1-0.3-0.2-0.3c0,0,0,0,0,0
					C25.4,47.3,25.3,47.5,25.3,47.6z"/>
				<path fill="#AF64A3" d="M25.4,48.6c0.1,0.2,0.2,0.3,0.5,0.3c0.1,0,0.1,0,0.1-0.1c0-0.1-0.1-0.1-0.1-0.2
					c-0.1-0.1-0.2-0.1-0.2-0.2C25.5,48.4,25.4,48.5,25.4,48.6z"/>
				<path fill="#AF64A3" d="M24.9,48.9C24.9,48.9,24.9,48.9,24.9,48.9C25,48.9,25,48.9,24.9,48.9c0.1-0.3,0.2-0.5,0.3-0.7
					c0-0.2,0-0.4,0-0.5c0,0-0.1,0-0.1,0c-0.2,0.4-0.3,0.8-0.3,1.2c0,0.1,0,0.1,0.1,0.1C24.8,48.9,24.9,48.8,24.9,48.9z"/>
				<path fill="#AF64A3" d="M25.2,47.4c0,0.1-0.1,0.1-0.1,0.2c0,0,0.1,0,0.1,0C25.2,47.5,25.2,47.4,25.2,47.4z"/>
				<path fill="#AF64A3" d="M25.3,47.1L25.3,47.1C25.3,47.1,25.3,47.1,25.3,47.1C25.3,47.1,25.3,47.1,25.3,47.1z"/>
				<path fill="#AF64A3" d="M25,48.9C24.9,48.9,24.9,48.9,25,48.9c-0.1-0.1-0.2,0-0.1,0C24.9,48.9,24.9,48.9,25,48.9z"/>
				<path fill="#AF64A3" d="M25.2,47.6c0,0.2,0,0.4,0,0.5c0.1-0.2,0.1-0.3,0.1-0.5C25.3,47.6,25.2,47.6,25.2,47.6z"/>
				<path fill="#AF64A3" d="M25.4,47.2C25.4,47.2,25.4,47.1,25.4,47.2C25.3,47.1,25.3,47.1,25.4,47.2c-0.1,0-0.1,0.1-0.2,0.2
					c0,0.1,0,0.1,0,0.2c0.1,0,0.1,0,0.2,0C25.3,47.5,25.4,47.3,25.4,47.2z"/>
			</g>
			<path fill="#D19867" d="M40.1,52.9c-0.3-1-2.9-0.6-3.6-0.5c-2.1,0.4-3.2,0.8-5,2.7c-0.2,0.2,0,0.5,0.1,0.3c0,0,0,0,0-0.1
				c0.1,0.2,0.2,0.3,0.3,0.4c0.2,0.2,0.2,0.5,0.3,0.8c0.1,0.3,0.2,0.9,0.4,1.1c0,0,0.1,0,0.1,0c0.2,0.5,0.8,1,1.2,1.1
				c0.3,0.1,0.5,0,0.8-0.2c0.1,0.2,0.4,0.3,0.6,0.4c0.4,0.1,0.7,0,1-0.3c0,0,0.1-0.1,0.1-0.1c0,0,0,0,0,0c0.6,0.2,1.3,0,1.6-0.6
				c0,0,0,0,0,0c0,0,0,0,0,0c0,0,0,0,0,0c0,0,0,0.1,0,0.1c0.4,0.2,1,0,1.3-0.3c0.7,0.1,1.2-0.5,1.4-1.1c0.4-1.1,0.1-2.8-0.6-3.8
				C40.2,52.7,40.1,52.8,40.1,52.9z"/>
			<path fill="#D19867" d="M7.4,51.6c-0.7-0.1-3.6-0.9-3.9,0.2c0-0.1-0.1-0.2-0.2-0.1c-0.8,0.9-1,2.4-0.8,3.5
				c0.1,0.7,0.6,1.5,1.4,1.4C4.1,57,4.7,57.2,5.1,57c0,0,0,0,0,0c0,0,0,0,0,0c0.3,0.5,0.8,0.8,1.5,0.6c0,0,0,0,0,0
				c0,0,0,0.1,0.1,0.1C7,58,7.3,58.1,7.7,58.1c0.2,0,0.5-0.2,0.7-0.4C8.6,57.9,8.8,58,9.1,58c0.5,0,1.1-0.5,1.4-1c0,0,0.1,0,0.1,0
				c0.3-0.2,0.4-0.7,0.5-1.1c0-0.1,0.1-0.2,0.1-0.3l0.1-0.1l0.5-0.7c0,0,0,0,0,0c0.1,0.3,0.5,0,0.4-0.2C11.2,52.4,9.6,52,7.4,51.6z"
				/>
			<path fill="#D19867" d="M17.9,47c0-0.1-0.2-0.1-0.2,0c-0.1,0.2-0.1,0.3-0.1,0.5l-11-0.8c0-0.1,0-0.2-0.1-0.2c0,0-0.1,0-0.1,0
				c-0.1,0.1-0.1,0.1-0.1,0.2l-0.3,0c0.1,0,0.2,0,0.3,0.1c-0.1,0.1-0.1,0.2-0.1,0.3c-0.1,0.3-0.3,0.5-0.4,0.8c0,0.1,0,0.1,0,0.2
				c0,0,0,0.1,0,0.1c1.3,0.3,2.7,0.1,4.1,0.4c2.3,0.5,3.6,2,5.2,3.7c0.1,0.1,0.3,0,0.2-0.1c-0.2-0.3-0.4-0.7-0.6-1
				c0.8-0.7,1.7-1.4,2.5-2.1c0.4-0.3,0.8-0.9,0.9-1.4c0,0,0.1,0,0.1,0l-0.1,0C18,47.3,18,47.2,17.9,47z"/>
			<path fill="#D19867" d="M38.2,49.1C38.2,49.1,38.2,49,38.2,49.1c0.1-0.1,0.1-0.2,0.1-0.2c-0.1-0.2-0.2-0.5-0.3-0.7
				c-0.1-0.1-0.1-0.3-0.1-0.4c0.1,0,0.2,0,0.3,0l-0.3,0c0-0.1-0.1-0.2-0.1-0.2c0,0-0.1,0-0.1,0c-0.1,0-0.1,0.1-0.1,0.2l-11,0.1
				c0-0.1-0.1-0.3-0.1-0.4c0-0.1-0.1-0.1-0.2,0C26,47.4,26,47.5,26,47.7l-0.4,0c0.1,0,0.3,0,0.5,0.1c0,0.5,0.4,0.9,0.7,1.3
				c0.4,0.4,0.9,0.8,1.3,1.2c0.4,0.4,0.9,0.8,1.3,1.2c-0.1,0.2-0.1,0.2-0.1,0.4c-0.1,0.1-0.2,0.4-0.1,0.3c1.6-1.5,2.5-2.1,4.6-2.7
				C35.2,48.9,36.7,49.4,38.2,49.1z"/>
			<path fill="#904E79" d="M33.1,53.4c-0.2,0-0.4-0.1-0.6-0.2c-0.3-0.3-0.6-0.7-0.9-1c-0.2-0.4-0.1-1.5-0.1-1.5c0-0.1,0-0.1,0-0.2
				c0,0,0-0.1,0-0.1c0-0.2-0.2-0.3-0.3-0.1c-0.1,0.1-0.1,0.2-0.1,0.3l0-0.1c-0.6,0.3-1.3,0.7-1.7,1.3c-0.2,0.1-0.2,0.3-0.3,0.4
				c-0.4,0.2-0.2,0.2-0.2,0.6c0,0.3,0.4,0.9,0.6,1.1c0.5,0.5,1,1.4,1.3,2c0.1,0.2,0.5,0,0.5-0.3c0-0.7,1.1-1.5,1.7-1.7
				C33.4,53.6,33.4,53.4,33.1,53.4z"/>
			<g>
				<path fill="#1D1D1B" d="M1.9-5.9c-0.5,8.3,0,16.8,0.2,25.1C2.4,27.8,2.4,36.5,3,45c0,0.3,0.5,0.4,0.5,0c0-17-1.2-33.9-1.2-50.9
					C2.4-6.1,1.9-6.2,1.9-5.9L1.9-5.9z"/>
			</g>
			<g>
				<path fill="#1D1D1B" d="M3.2,45.1c1.6,1.8,4.7,1.8,6.9,2c3.3,0.2,7.3,1,10.5-0.2c0.3-0.1,0.2-0.6-0.1-0.5
					c-3.1,0.7-6.2,0.3-9.4,0.2c-2.6-0.1-5.5-0.2-7.7-1.8C3.2,44.8,3.1,45,3.2,45.1L3.2,45.1z"/>
			</g>
			<g>
				<path fill="#1D1D1B" d="M20.6,46.7C20.4,29,20.4,11.4,22.4-6.3c0-0.2-0.3-0.2-0.3,0c-1.5,8.8-1.7,17.9-2,26.8
					c-0.2,5-0.3,10.1-0.3,15.1c0,3.7-0.1,7.6,0.6,11.2C20.5,46.8,20.6,46.8,20.6,46.7L20.6,46.7z"/>
			</g>
			<g>
				<path fill="#1D1D1B" d="M5.7,48c1.3,0.3,2.7,0.1,4.1,0.4c2.3,0.5,3.6,2,5.2,3.7c0.1,0.1,0.3,0,0.2-0.1c-1.3-3-6.2-5.3-9.4-4.1
					C5.6,47.9,5.6,48,5.7,48L5.7,48z"/>
			</g>
			<g>
				<path fill="#1D1D1B" d="M5.7,48C5.7,48,5.7,48,5.7,48c0.1,0,0.2,0,0.2-0.1c0.2-0.3,0.4-0.6,0.5-0.9c0.1-0.2,0.2-0.5,0-0.7
					c0,0-0.1,0-0.1,0c-0.2,0.1-0.2,0.4-0.3,0.6c-0.1,0.3-0.3,0.5-0.4,0.8C5.6,47.9,5.6,47.9,5.7,48C5.7,48,5.7,48,5.7,48L5.7,48z"/>
			</g>
			<g>
				<path fill="#1D1D1B" d="M5.7,47.9c-0.8,0.1-1.3,1-1.6,1.7c-0.4,0.6-0.8,1.6-0.7,2.3C3.3,52,3.5,52,3.5,52
					c0.5-0.6,0.6-1.5,0.9-2.1C4.8,49.2,5.5,48.7,5.7,47.9C5.8,47.9,5.7,47.9,5.7,47.9L5.7,47.9z"/>
			</g>
			<g>
				<path fill="#1D1D1B" d="M3.6,51.9c1.1-0.6,2.9-0.2,4.1,0.1c1.9,0.4,3.6,1.2,4.4,3.2c0.1,0.3,0.5,0,0.4-0.2
					c-0.9-2.2-2.8-3-4.9-3.4C6.7,51.4,3.6,50.6,3.6,51.9C3.5,51.9,3.5,52,3.6,51.9L3.6,51.9z"/>
			</g>
			<g>
				<path fill="#1D1D1B" d="M11.8,54.6c-0.4,0.1-0.7,0.5-0.9,0.9c-0.1,0.2-0.2,0.4-0.3,0.6c-0.1,0.2-0.3,0.5-0.3,0.7
					c0,0.1,0.1,0.1,0.2,0.1c0.3-0.2,0.4-0.7,0.5-1.1c0.1-0.2,0.2-0.4,0.3-0.6C11.5,55,11.7,54.8,11.8,54.6
					C11.8,54.6,11.8,54.6,11.8,54.6L11.8,54.6z"/>
			</g>
			<g>
				<path fill="#1D1D1B" d="M10.4,56.8C10,57,9.7,57.5,9.2,57.5c-0.4,0-0.6-0.2-0.8-0.5c-0.2-0.3-0.2-0.7-0.1-1.1
					c0-0.2,0.1-0.3,0.2-0.5c0.1-0.2,0.3-0.2,0.3-0.4c0-0.1,0-0.1-0.1-0.1c-0.5-0.1-0.8,0.6-0.8,1c-0.1,0.5,0,1,0.2,1.4
					c0.2,0.4,0.6,0.7,1.1,0.6C9.7,57.9,10.4,57.4,10.4,56.8C10.5,56.8,10.5,56.7,10.4,56.8L10.4,56.8z"/>
			</g>
			<g>
				<path fill="#1D1D1B" d="M8.5,57.3c-0.3,0.1-0.5,0.3-0.8,0.3c-0.3,0.1-0.5-0.1-0.7-0.3c-0.2-0.2-0.3-0.5-0.3-0.8
					c0-0.3,0.3-0.6,0.2-0.9c0-0.1-0.1-0.1-0.1-0.1c-0.4,0.1-0.5,0.7-0.5,1.1c0,0.4,0.1,0.8,0.4,1.1C7,58,7.3,58.1,7.7,58.1
					C8.1,58,8.5,57.8,8.5,57.3C8.5,57.3,8.5,57.3,8.5,57.3L8.5,57.3z"/>
			</g>
			<g>
				<path fill="#1D1D1B" d="M6.7,57.5c-0.1-0.1-0.2-0.1-0.4-0.2c-0.3-0.1-0.6-0.1-0.8-0.4c-0.2-0.3-0.2-0.6-0.2-0.9
					c0.1-0.3,0.3-0.5,0.5-0.8c0-0.1,0-0.1-0.1-0.1c-0.7,0.1-0.9,1.1-0.6,1.7C5.4,57.5,6,57.8,6.7,57.5C6.7,57.6,6.7,57.6,6.7,57.5
					L6.7,57.5z"/>
			</g>
			<g>
				<path fill="#1D1D1B" d="M5.1,56.9c-0.4-0.2-0.8-0.2-1-0.6C3.9,56.1,4,55.8,4,55.5c0.1-0.3,0.2-0.4,0.2-0.7
					c0-0.1-0.1-0.1-0.1-0.1C3.5,55,3.5,56,3.8,56.5C4,56.9,4.7,57.2,5.1,56.9C5.2,57,5.2,56.9,5.1,56.9L5.1,56.9z"/>
			</g>
			<g>
				<path fill="#1D1D1B" d="M4.1,56.4c-2.3,0-1.2-3.5-0.6-4.6c0.1-0.1-0.1-0.3-0.2-0.1c-0.8,0.9-1,2.4-0.8,3.5
					C2.6,56,3.3,56.9,4.1,56.4C4.2,56.5,4.2,56.4,4.1,56.4L4.1,56.4z"/>
			</g>
			<g>
				<path fill="#1D1D1B" d="M14.4,51.1c0.9-0.7,1.8-1.5,2.7-2.2c0.5-0.4,1.2-1.3,0.8-2c0-0.1-0.2-0.1-0.2,0
					c-0.1,0.5-0.2,0.9-0.6,1.3c-0.2,0.3-0.6,0.5-0.9,0.8c-0.7,0.6-1.5,1.2-2,2C14.3,51.1,14.3,51.2,14.4,51.1L14.4,51.1z"/>
			</g>
			<g>
				<path fill="#1D1D1B" d="M2.4,55.1c-0.7,3.3,3.9,4.1,6.2,3.8c2.1-0.3,3.5-2.5,4.5-4.1c1.5-2.3,3.5-4.2,5.4-6.2
					c0.1-0.1,0-0.3-0.2-0.2c-1.6,1.1-3.3,3.2-4.5,4.8c-1.1,1.5-2,3.1-3.4,4.4c-2.1,2-8.2,1.3-7.9-2.5C2.6,55,2.4,55,2.4,55.1
					L2.4,55.1z"/>
			</g>
			<g>
				<path fill="#1D1D1B" d="M2.3,55.2c-0.2,1.6-0.2,3,1.3,3.9c1.9,1.2,3.5,1.6,5.6,0.8c2-0.7,2.8-2.3,4-3.9c1.8-2.5,4-4.7,5.8-7.2
					c0-0.1,0-0.1-0.1-0.1c-1.7,1.5-3.2,3.6-4.6,5.4c-1.4,1.8-2.5,4-4.5,5.2c-3.2,1.9-7.6,0-7.3-4.2C2.5,55,2.3,55,2.3,55.2L2.3,55.2
					z"/>
			</g>
			<g>
				<path fill="#1D1D1B" d="M18.1,48.8c0.7-0.1,0.8-1.1,0.7-1.6c0-0.3-0.4-0.2-0.4,0.1c0.1,0.3,0,0.5,0,0.8
					C18.3,48.3,18.1,48.5,18.1,48.8C18,48.7,18,48.8,18.1,48.8L18.1,48.8z"/>
			</g>
			<g>
				<path fill="#1D1D1B" d="M18.6,47c0,0.6,0.2,1.1,0.2,1.7c0,0.2,0.3,0.2,0.3,0C19.1,48.1,19,47.5,18.6,47C18.7,47,18.6,47,18.6,47
					L18.6,47z"/>
			</g>
			<g>
				<path fill="#1D1D1B" d="M38.2,49C38.2,49,38.2,49,38.2,49c0.1-0.1,0.1-0.1,0-0.2c-0.1-0.2-0.2-0.5-0.3-0.7
					c-0.1-0.2-0.1-0.5-0.3-0.7c0,0-0.1,0-0.1,0c-0.2,0.1-0.1,0.5,0,0.7c0.1,0.3,0.3,0.6,0.4,0.9C38,49,38.1,49.1,38.2,49
					C38.2,49,38.2,49,38.2,49L38.2,49z"/>
			</g>
			<g>
				<path fill="#1D1D1B" d="M38.1,49c0.2,0.7,0.9,1.3,1.2,1.9c0.3,0.7,0.3,1.6,0.8,2.2c0.1,0.1,0.2,0,0.2,0c0.1-0.8-0.3-1.7-0.6-2.4
					C39.4,50.1,38.9,49.1,38.1,49C38.2,48.9,38.1,49,38.1,49L38.1,49z"/>
			</g>
			<g>
				<path fill="#1D1D1B" d="M40.9,56.4c0,3.5-3.2,5.3-6.2,4.4c-2.6-0.8-3.6-3.3-4.9-5.3c-1.5-2.2-3-4.7-4.9-6.6c0,0-0.1,0-0.1,0.1
					c1.4,2.3,3.2,4.4,4.7,6.6c1.4,1.9,2,4.1,4.4,5.1c1.8,0.8,3.1,0.7,4.9,0c2-0.8,2.4-2.3,2.3-4.3C41.1,56.3,40.9,56.2,40.9,56.4
					L40.9,56.4z"/>
			</g>
			<g>
				<path fill="#1D1D1B" d="M25.9,48.9c-0.1-0.2-0.2-0.4-0.3-0.7c-0.1-0.3-0.1-0.5,0-0.8c0.1-0.2-0.3-0.4-0.4-0.1
					C25.1,47.8,25.1,48.8,25.9,48.9C25.9,49,25.9,49,25.9,48.9L25.9,48.9z"/>
			</g>
			<g>
				<path fill="#1D1D1B" d="M25.3,47.2c-0.3,0.5-0.5,1.1-0.6,1.7c0,0.2,0.3,0.2,0.3,0C25.1,48.3,25.4,47.8,25.3,47.2
					C25.4,47.2,25.3,47.2,25.3,47.2L25.3,47.2z"/>
			</g>
			<g>
				<path fill="#1D1D1B" d="M5.7-5.6C5.6-2,5.8,1.5,5.9,5.1c0.1,4.2-0.1,8.4,0.3,12.5c0,0.1,0.2,0.1,0.2,0c0-4.5,0-9.1-0.1-13.6
					C6.1,1.1,6.7-2.9,5.7-5.6C5.8-5.6,5.7-5.6,5.7-5.6L5.7-5.6z"/>
			</g>
			<g>
				<path fill="#1D1D1B" d="M6.2,20.4C5.9,27.5,6,34.9,6.7,42c0,0.1,0.2,0.2,0.2,0c-0.2-7.2-0.2-14.4-0.5-21.6
					C6.4,20.3,6.2,20.3,6.2,20.4L6.2,20.4z"/>
			</g>
			<g>
				<path fill="#1D1D1B" d="M41.4-4.3c-0.4,3.5-0.6,7.1-0.7,10.7c-0.2,3.7-0.8,7.4-0.8,11.1c0,0.1,0.2,0.1,0.2,0
					C41.2,10.5,41.7,2.7,41.4-4.3C41.4-4.4,41.4-4.4,41.4-4.3L41.4-4.3z"/>
			</g>
			<g>
				<path fill="#1D1D1B" d="M39.4,20.5c-0.6,2.4-0.4,5-0.5,7.5c-0.3,4.2-0.2,8.3-1.1,12.5c0,0.2,0.2,0.3,0.3,0.1
					c1.9-6.5,0.8-13.4,1.5-20C39.6,20.4,39.4,20.4,39.4,20.5L39.4,20.5z"/>
			</g>
			<path opacity="0.5" fill="#A1877A" d="M11.1-42.1c3.4-2.3,1.8-7.9,7-12.7c3.8-3.5,4.4-9.2,4.4-14.8c-1.8-0.5-3.5-1.3-4.8-2.2
				c-3.7-2.6-7-5.9-9.4-9.7C5.6-85.8,5-90.7,2.5-95c0-0.1-0.1-0.1-0.1-0.2c-1.6,0.2-3.1,0.9-4.7,0.8c2.9,4.9,5.1,2.3,5.1,2.3
				C6.5-69.6,22-69.8,22-69.8l-0.2,1.3l-0.6,0C-6.7-59.5-8.1-48.9-8.1-48.9l1,0.7C-13-28.4-1.2-20.7-1.2-20.7l-2.8,16l6-1.2
				c0,0,0.7,48.9,1.2,50.7c0.3,1.3,3,1.2,3.4,1.9c-0.4,0.9-2,1.6-3,5.1c-3.3,11,9.7,4.2,9.7,4.2c1.9-2.1,5.4-11.8,2.4-17.4
				C12.5,33-0.5-2,10-6.4C20.4-10.8,2.2-35.9,11.1-42.1z"/>
			<g opacity="0.1">
				<g>
					<path fill="#F4F4F4" d="M5.7,0.2C6,3.8,6,7.3,5.9,10.8c0,1.3,1.9,1.3,2,0C8,7.3,7.9,3.8,7.7,0.2C7.6-1,5.6-1,5.7,0.2L5.7,0.2z"
						/>
				</g>
			</g>
			<g opacity="0.1">
				<g>
					<path fill="#F4F4F4" d="M6.1,24.5C6,29.1,6.2,33.7,6.5,38.3c0.1,1.3,2.1,1.3,2,0C8.2,33.7,8,29.1,8.1,24.5
						C8.1,23.2,6.1,23.2,6.1,24.5L6.1,24.5z"/>
				</g>
			</g>
			<path fill="#9A908A" d="M28-6.3c-0.2,0.1-0.3,0.2-0.4,0.3c-0.1-0.1-0.2-0.2-0.3-0.1c-0.1-0.1-0.2-0.2-0.4-0.1c0,0,0,0,0,0
				c0,0,0,0,0,0c0-0.3-0.4-0.2-0.4,0c0,0.1,0,0.1,0,0.2c0,0,0,0-0.1,0c-0.2,0-0.3,0-0.5,0.1c-0.1,0-0.1,0-0.2,0c0,0,0,0,0,0
				c-0.1,0-0.1,0-0.2,0c0,0-0.1,0-0.1,0.1c0,0-0.1,0-0.1,0c-0.1,0-0.1,0-0.2,0.1c0,0-0.1,0-0.1,0c-0.1,0-0.1,0.1-0.1,0.2
				c0,0.1,0,0.1,0.1,0.2c-0.1,0.5,0.2,1.4,0.3,1.9c0,0.7,0.1,1.4,0.1,2.1c0,0,0,0,0,0.1c0,0.6,0,1.1,0.1,1.6c0,1.1,0.1,2.1,0.2,3.2
				c0,0.1,0,0.2,0,0.3c0,0,0,0,0,0.1c0,0.1,0,0.1,0,0.2c-0.1,0.8,0,1.7,0,2.5c-0.1-0.1-0.3-0.1-0.3,0.1c0,0,0,0,0,0.1l0,0l0,0
				c-0.4,1.7,0.3,3.4,0.4,5.1c0,0.1,0.1,0.1,0.1,0.2c0,0.3,0,0.5,0,0.7c0,0.1,0,0.1,0,0.2c0,0.3-0.1,0.7-0.1,1c0,0.2,0,0.3,0,0.5
				c-0.1,0.7-0.2,1.5-0.2,2.2c0-0.3-0.1-0.7,0-1c0-0.2-0.3-0.2-0.3,0c0,0.8,0,1.6,0.3,2.3c0,1-0.2,2-0.3,3c-0.1,1-0.3,2.2,0.2,3.1
				c0,0.1,0.1,0,0.2,0c0.1-1,0-2,0.2-3c0.1-0.9,0.3-1.7,0.3-2.6c0,0,0,0,0,0c0.3-1.5,0.3-3.1,0.3-4.6c0-0.1,0-0.3,0-0.4
				c0-0.3,0-0.7,0-1c0-0.2,0-0.4,0.1-0.6c0.3-2.9,0.7-5.7,0.7-8.6c0-1-0.1-1.9-0.1-2.9c0.3-1.7,0.3-3.4,0.5-5.1
				c0.2-0.4,0.4-0.9,0.7-1.2C28.2-6.2,28.1-6.3,28-6.3z"/>
			<g>
				<path fill="#1D1D1B" d="M77-73.2c0.2,2.3,0,4.5-0.1,6.7c-0.2,2.6,0.1,5.3,0.2,7.9c0.2,5.7-0.6,11.4-0.5,17.2
					c0.1,5.1,0,10.2-0.3,15.2c-0.3,5.1,0.7,10.4,0.7,15.6c0,4.8-0.3,9.2,0.4,14c0.8,5.6,0.2,11.2,0.3,16.9c0,4.8,0.3,9.6,0.2,14.4
					c-0.1,5.3-0.7,10.6-0.5,15.9c0,0.2,0.3,0.2,0.3,0c0-4.9,0.4-9.9,0.5-14.8c0.1-5.2,0-10.3-0.1-15.5c-0.2-4.9,0.4-9.7,0-14.6
					c-0.2-2.7-0.8-5.4-1-8.1c-0.2-2.7,0.3-5.5,0.3-8.1c0.1-4.9-0.7-9.7-0.7-14.5C76.5-30.5,77-36,76.9-41.4
					c-0.1-5.7,0.6-11.4,0.5-17.2c0-2.6-0.3-5.2-0.2-7.9c0.1-2.3,0.3-4.5,0.1-6.8C77.3-73.4,77-73.3,77-73.2L77-73.2z"/>
			</g>
			<g>
				<path fill="#1D1D1B" d="M23.5,46.8c0.9-3.3,1.1-7,1.3-10.5c0.4-5,0.6-10,0.8-15c0.3-9.2,0.7-18.5-0.3-27.7c0-0.2-0.3-0.1-0.3,0
					c0.9,17.8-0.2,35.4-1.6,53.1C23.4,46.9,23.5,46.9,23.5,46.8L23.5,46.8z"/>
			</g>
			<path fill="#9A908A" d="M44.3,2.9c0.1-0.8,0-1.5,0-2.3c0,0,0,0,0,0c0.3-1.2,0.2-2.4,0.2-3.6c0-0.1,0-0.2-0.1-0.2
				c0-0.2,0.1-0.4,0.1-0.6c0.1-0.4,0.2-0.8,0.2-1.2c0.1-0.8-0.4-1.1-1.1-1.2c0-0.1,0-0.1-0.1-0.1c-0.4-0.2-0.8-0.4-1.3-0.4
				c0,0,0,0,0,0c-0.4-0.2-0.7-0.3-1.1-0.5c0,0,0,0,0,0c0-0.1,0-0.2-0.1-0.2c0,0,0,0-0.1,0l0,0l0,0c-0.4-0.2-0.8-0.4-1.3-0.5
				c-0.1,0-0.2,0-0.2,0.1c-0.1,0-0.3-0.1-0.4-0.1c-0.1,0-0.2,0-0.3,0.1c0,0,0,0-0.1-0.1c-0.5-0.3-1-0.5-1.5-0.7c-0.1,0-0.1,0-0.2,0
				c-0.4-0.2-0.9-0.4-1.4-0.4c0,0-0.1,0-0.1,0c-0.1,0-0.2-0.1-0.3-0.1c0,0-0.1-0.1-0.1-0.1c-0.3-0.2-0.6-0.3-1-0.3c0,0,0,0,0,0
				c-0.3-0.2-0.6-0.5-1-0.6c-0.2-0.1-0.3,0-0.3,0.1c-0.1,0-0.2,0-0.2,0.1c-0.3-0.2-0.6-0.4-1-0.6c-0.6-0.4-1.4-0.7-2.1-1
				c-0.3-0.2-0.6,0.3-0.3,0.5c0.1,0,0.2,0.1,0.3,0.1c0,0,0,0,0.1,0.1c0,0,0,0.1,0,0.1c0.1,0,0.1,0.1,0.2,0.1c0,0,0.1,0,0.1,0.1
				c0,0,0,0.1,0.1,0.1c1.8,0.9,3.5,1.8,5.5,2.4c2.3,0.7,5.3,1.1,6.7,3.3c1.8,2.8,0.2,6.6,1.6,9.6c0.2,0.3,0.6,0.1,0.5-0.3
				c0,0,0,0,0,0c0.1,0,0.2-0.1,0.2-0.3C44.4,3.6,44.4,3.2,44.3,2.9z"/>
			<g>
				<path fill="#1D1D1B" d="M44.6-5.9c-1.1,17.4-3.2,34.7-4.1,52.1c0,0.3,0.5,0.3,0.5,0c1.1-8.6,1.6-17.4,2.3-26
					C44,11.5,45,2.8,45-5.9C45-6.2,44.6-6.2,44.6-5.9L44.6-5.9z"/>
			</g>
			<path fill="#AB764D" d="M36.4,52.7c-1.8-0.1-3.7,1-4.7,2.5c0,0.1,0,0.2,0.1,0.2c0,0,0.1,0,0.1,0c0,0,0,0,0.1,0
				c0.2,0.2,0.3,0.3,0.5,0.6c0.2,0.3,0.2,0.7,0.3,1.1c0.2,0.6,0.8,1.3,1.5,1.3c0.1,0,0.1-0.1,0-0.1c-0.9-0.4-1.1-1.3-1.4-2.1
				c-0.1-0.3-0.4-1-0.9-0.9c0,0,0,0,0,0c0,0,0.6-0.7,0.7-0.8c0.4-0.3,0.8-0.6,1.3-0.8c0.8-0.4,1.6-0.6,2.4-0.7
				C36.5,52.8,36.5,52.7,36.4,52.7z"/>
			<path fill="#AB764D" d="M35.5,56.2c0-0.1-0.1,0-0.1,0c0.1,0.4,0.2,0.7,0.1,1c-0.1,0.4-0.3,0.7-0.5,1c-0.1,0.2,0.2,0.4,0.3,0.2
				c0.2-0.4,0.5-0.7,0.5-1.1C35.9,56.8,35.7,56.6,35.5,56.2z"/>
			<path fill="#AB764D" d="M37,56.9c0-0.1-0.1-0.1-0.2,0c-0.2,0.4,0.1,0.9-0.2,1.3c-0.1,0.2,0.2,0.4,0.3,0.2
				C37.2,57.9,37,57.4,37,56.9z"/>
			<path fill="#AB764D" d="M38.4,56.5c0,0-0.1-0.1-0.1-0.1c0,0-0.1,0-0.1,0c-0.1,0.2,0,0.4,0.1,0.6c0,0.3-0.1,0.5-0.1,0.8
				c-0.1,0.3,0.4,0.4,0.4,0.1C38.5,57.4,38.7,56.9,38.4,56.5z"/>
			<path fill="#AB764D" d="M39.7,56.2c-0.1,0-0.2,0.1-0.2,0.3c0.1,0.1,0.1,0.2,0.1,0.4c0,0.2-0.1,0.3-0.2,0.4
				c-0.1,0.2,0.2,0.4,0.4,0.2C40.2,57.2,40.3,56.1,39.7,56.2z"/>
			<path fill="#E3C2A4" d="M39.8,53.5c-0.1-0.1-0.3,0-0.2,0.1c0.2,0.4,0.4,0.8,0.5,1.2c0.1,0.5,0.1,1,0.3,1.5c0,0.1,0.2,0.1,0.2,0
				C40.6,55.4,40.5,54.1,39.8,53.5z"/>
			<path fill="#E3C2A4" d="M39,56.5c-0.1-0.1-0.3,0-0.2,0.1c0.1,0.1,0.1,0.2,0.2,0.4c0,0.2,0,0.3,0,0.5c0,0.1,0.1,0.1,0.1,0.1
				C39.4,57.2,39.2,56.7,39,56.5z"/>
			<path fill="#E3C2A4" d="M37.7,57c-0.1-0.2-0.5,0-0.4,0.2c0.1,0.2,0,0.3,0.1,0.5c0,0,0.1,0.1,0.1,0C37.8,57.6,37.8,57.3,37.7,57z"
				/>
			<path fill="#E3C2A4" d="M36,57.4c0,0.2-0.1,0.3-0.1,0.4c0,0.2,0.3,0.3,0.4,0.1c0.1-0.2,0.1-0.3,0.1-0.5
				C36.4,57.2,36,57.2,36,57.4z"/>
			<path fill="#E3C2A4" d="M34.3,56.6c-0.1,0-0.1,0.2,0,0.2c0.2,0.1,0.4,0.1,0.4,0.3c0,0.2-0.1,0.4-0.2,0.6c0,0,0,0.1,0.1,0.1
				c0.4-0.1,0.6-0.4,0.5-0.8C35,56.7,34.6,56.5,34.3,56.6z"/>
			<path fill="#AB764D" d="M33.1,47.6c-1.8,0-3.7,0.2-5.5,0.2c0,0,0,0,0,0c0,0,0,0,0,0c0,0,0,0,0,0c0,0-0.1,0-0.1,0c0,0-0.1,0-0.1,0
				c-0.2,0-0.4,0-0.7,0c0-0.1-0.1-0.1-0.1-0.1c0,0,0,0.1-0.1,0.1c0,0-0.1,0-0.1,0c-0.1,0-0.1,0.1,0,0.1c0,0,0,0,0,0
				c-0.1,0.4,0.5,0.9,0.8,1.1c0.1,0.1,0.2,0.2,0.3,0.2c0,0,0,0,0,0.1c0.1,0.1,0.1,0.2,0.2,0.2c0,0.1,0,0.1,0.1,0.1
				c0.1,0.1,0.1,0.1,0.2,0.2c0.1,0.1,0.3,0.4,0.5,0.4l0,0c0,0,0.1,0.1,0.1,0.1c0.2,0.4,0.4,0.8,0.7,1.1c0.2,0.2,0.4,0,0.3-0.2
				c-0.4-0.7-0.7-1.3-1.3-1.8c-0.2-0.2-1.2-0.8-1.5-1.3c2.1,0.2,4.3,0,6.4-0.3C33.2,47.8,33.2,47.6,33.1,47.6z"/>
			<g>
				<path fill="#1D1D1B" d="M40.1,53c-0.1-1.2-2.9-0.7-3.6-0.6c-2.3,0.2-4.4,0.9-5.5,3.1c-0.1,0.2,0.2,0.5,0.4,0.2
					c0.9-1.8,2.4-2.5,4.3-2.8C37,52.7,38.9,52.3,40.1,53C40.1,53.1,40.2,53.1,40.1,53L40.1,53z"/>
			</g>
			<g>
				<path fill="#1D1D1B" d="M31.7,55.2c0.1,0.2,0.2,0.3,0.4,0.5c0.2,0.2,0.2,0.5,0.3,0.8c0.1,0.3,0.2,0.9,0.4,1.1
					c0.1,0.1,0.2,0,0.2-0.1c0-0.2-0.1-0.4-0.2-0.6c-0.1-0.2-0.2-0.5-0.3-0.7C32.3,55.8,32.1,55.3,31.7,55.2
					C31.7,55.2,31.7,55.2,31.7,55.2L31.7,55.2z"/>
			</g>
			<g>
				<path fill="#1D1D1B" d="M32.8,57.5c0.1,0.5,0.8,1.1,1.3,1.2c0.5,0.1,0.9-0.2,1.1-0.5c0.3-0.4,0.4-0.9,0.4-1.4
					c0-0.4-0.3-1.2-0.8-1.1c-0.1,0-0.1,0.1-0.1,0.1c0,0.2,0.1,0.3,0.2,0.4c0.1,0.2,0.2,0.3,0.2,0.5c0.1,0.4,0,0.8-0.2,1.1
					c-0.2,0.3-0.4,0.5-0.8,0.5C33.6,58.3,33.3,57.7,32.8,57.5C32.9,57.4,32.8,57.5,32.8,57.5L32.8,57.5z"/>
			</g>
			<g>
				<path fill="#1D1D1B" d="M34.8,58.2c0,0.4,0.4,0.7,0.7,0.8c0.4,0.1,0.7,0,1-0.3c0.3-0.3,0.5-0.7,0.5-1c0.1-0.4,0-1.1-0.4-1.2
					c-0.1,0-0.1,0-0.1,0.1c-0.1,0.3,0.1,0.6,0.1,0.9c0,0.3-0.1,0.7-0.3,0.9c-0.2,0.2-0.4,0.3-0.6,0.3C35.3,58.5,35.1,58.2,34.8,58.2
					C34.8,58.1,34.8,58.1,34.8,58.2L34.8,58.2z"/>
			</g>
			<g>
				<path fill="#1D1D1B" d="M36.6,58.5c0.6,0.2,1.2,0,1.6-0.6c0.3-0.5,0.3-1.7-0.5-1.8c-0.1,0-0.1,0-0.1,0.1
					c0.1,0.3,0.3,0.5,0.4,0.8c0.1,0.3-0.1,0.7-0.2,0.9C37.5,58.5,36.8,58.1,36.6,58.5C36.6,58.5,36.6,58.5,36.6,58.5L36.6,58.5z"/>
			</g>
			<g>
				<path fill="#1D1D1B" d="M38.2,58c0.5,0.3,1.1,0,1.4-0.4c0.3-0.4,0.4-1.5-0.2-1.8c-0.1,0-0.1,0-0.1,0.1c-0.1,0.2,0,0.4,0.1,0.6
					c0.1,0.3,0.1,0.6-0.1,0.8C39.1,57.8,38.6,57.8,38.2,58C38.1,58,38.1,58,38.2,58L38.2,58z"/>
			</g>
			<g>
				<path fill="#1D1D1B" d="M39.2,57.6c0.8,0.4,1.4-0.3,1.7-1c0.4-1.1,0.1-2.8-0.6-3.8c-0.1-0.1-0.2,0-0.2,0.1
					C40.6,54.1,41.5,57.6,39.2,57.6C39.1,57.5,39.1,57.6,39.2,57.6L39.2,57.6z"/>
			</g>
			<g>
				<path fill="#1D1D1B" d="M40.9,56.3c0.1,3.2-4,3.5-6.2,3c-2.3-0.5-3.4-3.2-4.5-5c-1.1-1.9-2.9-4.5-4.7-5.8
					c-0.1-0.1-0.3,0.1-0.2,0.2c1.6,1.9,3.2,3.7,4.5,5.8c1.1,1.6,2,4,3.9,4.8c2.3,0.9,7.8,0.5,7.2-3.1C41.1,56.2,40.9,56.2,40.9,56.3
					L40.9,56.3z"/>
			</g>
			<g>
				<path fill="#1D1D1B" d="M38.2,48.9c-3.1-1.4-8.2,0.5-9.7,3.5c-0.1,0.1,0.1,0.3,0.2,0.2c1.6-1.5,2.8-2.7,5-3.2
					c1.5-0.4,3,0,4.5-0.3C38.3,49,38.3,48.9,38.2,48.9L38.2,48.9z"/>
			</g>
			<g>
				<path fill="#1D1D1B" d="M40.7,46.1c-2.3,1.4-5.2,1.4-7.8,1.3c-3.2-0.1-6.3,0.1-9.4-0.8c-0.3-0.1-0.4,0.4-0.1,0.5
					c3,1.3,6.7,0.8,10,0.8c2.3,0,5.7,0.1,7.5-1.6C40.9,46.2,40.8,46,40.7,46.1L40.7,46.1z"/>
			</g>
			<g>
				<path fill="#1D1D1B" d="M29.4,51.5c-0.4-0.7-1-1.3-1.6-1.9c-0.3-0.3-0.6-0.5-0.9-0.8c-0.4-0.5-0.5-1-0.6-1.5
					c0-0.1-0.1-0.1-0.2,0c-0.4,0.6,0.1,1.3,0.5,1.8c0.4,0.4,0.9,0.8,1.3,1.2c0.5,0.4,0.9,0.9,1.4,1.4C29.4,51.6,29.5,51.6,29.4,51.5
					L29.4,51.5z"/>
			</g>
			<path fill="#D7D7D7" d="M37.8,31.1c0-3.4-0.2-6.9-0.4-10.3c0-0.2-0.3-0.2-0.3,0c-0.3,3,0,6.2,0,9.2c0.1,3.4-0.2,6.8-0.9,10.1
				c0,0.1,0.1,0.2,0.2,0.1C37.7,37.4,37.8,34.2,37.8,31.1z"/>
			<path fill="#D7D7D7" d="M19.4,17.9c0-3.6-0.3-7.3-0.3-10.9c0-0.2-0.2-0.2-0.3-0.1c-0.1-0.1-0.3,0-0.3,0.1
				c-0.2,3.5-0.1,6.9,0,10.4c0,1.7,0,3.4,0,5.2c-0.1,1.7-0.4,3.4-0.4,5.1c0,0.1,0.2,0.1,0.2,0c0,0,0-0.1,0-0.1c0,0,0,0.1,0,0.1
				c0,0.1,0.2,0.1,0.2,0C19.6,24.6,19.4,21.1,19.4,17.9z"/>
			<path fill="#CFA1C7" d="M38.6,50.5c-0.1-0.4-0.3-0.7-0.7-0.9c-0.2-0.1-0.3,0.1-0.2,0.3c0.2,0.4,0.3,0.7,0.4,1.1
				c0.1,0.3,0.2,0.7,0.5,0.5C38.9,51.4,38.7,50.7,38.6,50.5z"/>
		</g>
	</g>
</g>
<g>
	<g>
		<rect x="13" y="25.5" fill="#F5F5F5" width="5.4" height="1.5"/>
	</g>
</g>
</svg>
