<?xml version="1.0" encoding="utf-8"?>
<!-- Generator: Adobe Illustrator 18.1.0, SVG Export Plug-In . SVG Version: 6.00 Build 0)  -->
<svg version="1.0" id="Capa_1_copia" xmlns="http://www.w3.org/2000/svg" xmlns:xlink="http://www.w3.org/1999/xlink" x="0px"
	 y="0px" viewBox="0 0 85 91" enable-background="new 0 0 85 91" xml:space="preserve">
<rect x="-340" fill="#575756" width="1280" height="35"/>
<g>
	<rect x="-85" y="35" fill="#8BBE37" width="85" height="56"/>
</g>
<g>
	<rect y="35" fill="#F9C91E" width="85" height="56"/>
	<g>
		<path fill="#E61B73" d="M33.7,78.9c-0.1-0.4-0.2-0.7-0.4-1c0.5-2,0-4.7-0.6-6.2c0-0.1,0-0.2,0-0.2c0-1.7,0.5-3.3,0.3-5.1
			c-0.1-0.4-0.6-0.7-1-0.6c-0.4,0-0.8,0-1.1,0c-0.4-0.1-0.8,0.1-1,0.4c-0.7-0.3-1.7-0.2-2.6-0.2c-0.1,0-0.2,0-0.3,0L26.8,66
			c-0.7-0.9-2.1,0.2-1.5,1.2c0.2,0.3,0.3,0.6,0.4,0.9c-0.3,0.7-0.5,1.4-0.5,2.1c0,0.3,0.1,0.4,0.3,0.5c0,0.1,0.1,0.2,0.1,0.3
			c-0.3,2-0.4,4.1-0.5,6.2c0,0.4,0,1,0.1,1.5c-0.7,0.3-0.6,1.5,0.3,1.6c0.1,0,0.5,0,0.5,0v0c0,0-0.2,0-0.2,0c0.7,0.1,1.2,0.1,1.8,0
			c0.1,0,0.1,0.1,0.1,0.1c1.2,0.2,2.3,0.1,3.5-0.1c0.4,0.4,1.1,0.3,1.5-0.2C33.3,80.1,33.8,79.5,33.7,78.9z"/>
		<path fill="#881E80" d="M45.1,62.6c0.1-1,0.2-1.9,0.2-2.9c0,0,0,0,0-0.1v-0.1c0-0.1,0-0.2,0-0.2c0,0,0,0,0,0c0,0,0,0,0,0
			c-0.1-0.3-0.2-0.5-0.4-0.7c-0.2-0.2-0.5-0.4-0.8-0.3c-1.1,0.1-2.1,0.1-3.1,0.3c0,0-0.1,0-0.1,0c-0.8-0.5-2.8-1-1.7-0.5
			c-0.7-0.3-1.7-0.1-1.9,0.8c-0.5,3.4-0.5,7.1-0.2,10.5c0,0.1-0.1,0.2-0.1,0.3c-0.1,1-0.1,2,0,3.1c0,0.3,0.2,0.6,0.4,0.7
			c0,0.3,0,0.5,0,0.8c-0.1,0.1-0.1,0.2-0.2,0.3c-0.4,1-0.4,2.1-0.2,3.1c-0.1,0.5-0.2,0.9-0.3,1.2c-0.2,0.4-0.1,0.8,0.2,1.1
			c0.1,0.2,0.3,0.3,0.7,0.4c1.6,0.1,3.1-0.1,4.7,0.2l0,0c0.1,0,0.2,0,0.3,0c0.1,0,0.1,0,0.2,0c0.4,0.7,1.5,0.8,1.9,0
			c1.2-2,0.5-6.1,0.4-8.4c0.3-2.1,0.4-4.3,0.6-6.5C45.6,64.9,45.5,63.7,45.1,62.6z"/>
		<path fill="#3A99D4" d="M57.4,65c0,0,0,1,0,1h0c0,0,0-1.3-0.1-1.5c0-0.1-0.1-0.7-0.1-0.7c-0.1-4.1,0.3-8.3,0.5-12.5
			c0-1.2-1.7-1.6-2.2-0.6c-0.3-0.1-0.6-0.1-0.9,0.1c-1-0.1-2.1-0.2-3.1-0.3c-0.2-0.1-0.3-0.3-0.6-0.4c-0.3-0.2-0.6-0.1-0.9,0
			c-0.1,0-0.2,0.1-0.3,0.2c-0.1,0.1-0.1,0.1-0.2,0.2c-0.4,0.4-0.3,0.9,0,1.2c0,0.2,0,0.3,0,0.5c0,0,0,0.8,0,0.9
			c0,0.1-0.3,1.1-0.3,1.1H49v-1.6c0,0.9,0.1,1.8,0.2,2.6l0.1,0c-0.1,1.4,0.1,2.6,0.3,3.9c-0.4,1.4-0.6,2.9-0.2,4.2
			c0,0,0.1,0.1,0.1,0.1c-0.2,1.4-0.3,2.9-0.2,4.3c0,0,0,0.1,0,0.1c0.4,3.6-1,8.1,0.1,11.5c0,0,0,0,0,0c-0.3,0-0.6,0.3-0.5,0.6
			l0.1,0.5c0.1,0.5,0.6,0.8,1,0.4c0.1-0.1,0.1-0.1,0.2-0.2c0.7,0.1,1.5,0,2.2-0.1c0.7,0.3,1.4,0.4,2.2,0.4c0.2,0,0.4,0,0.5-0.1
			c0.4,0.3,0.9,0.4,1.4,0.1c0.1,0,0.1-0.1,0.2-0.1c0.5-0.3,0.7-0.7,0.6-1.2c0-0.1,0-0.2,0-0.3c0-0.3-0.1-0.5-0.3-0.7
			c0-0.9-0.1-1.8-0.1-2.7c-0.1-1.3,0.4-2.4,0-3.7c0,0,0,0.4,0,0.4C57.6,69.9,57.8,67.6,57.4,65z"/>
		<path d="M67.5,80.6c-0.1-0.1-0.1-0.1-0.2-0.2l0,0l0,0c-0.6-0.4-1.2-0.7-1.8-0.9l0,0l0,0c-0.1,0-0.2-0.1-0.3-0.1
			c-0.2-0.1-0.5,0.1-0.5,0.3c0,0.1-0.1,0.2-0.1,0.3l0,0h0c0,0,0,0.2,0,0.3c-1.6-0.2-3.3-0.4-5.2-0.4c-0.5,0-1,0-1.4,0
			c0.2-0.8,0.1-1.7,0.1-2.5c0-0.2,0-0.5-0.1-0.7c-0.1-1.9,0-3.9,0-5.8c0-1,0.1-2,0.1-3c0-2.8,0.2-5.7,0.3-8.5
			c0.1-3.1,0.3-6.3,0.3-9.4c0-0.4-0.3-0.5-0.6-0.5c-0.4-0.2-0.9-0.3-1.5-0.3c-0.5,0-1,0.2-1.5,0.3c-0.4,0-0.8,0.3-1.2,0.3h-0.1
			c-0.4,0-0.9-0.3-1.4-0.3c-0.5-0.1-1-0.2-1.5-0.2c-0.6,0-1.1,0.1-1.5,0.3c-0.1,0-0.3,0-0.4,0.1c-0.1,0.1-0.1,0.2-0.1,0.4
			c0.3,3.7,0.1,7.5,0,11.2c-0.1,1.5-0.1,3-0.1,4.5c0,2.3,0,4.6,0,6.8l0,0.9c0,0.7,0,1.3,0.1,2c0.1,1.6,0.2,3.2,0,4.7
			c-1.1,0-2.1,0-3.2,0c0.8-7.5,0.6-15.3,0.4-21.3c0.1,0,0.1-0.1,0.2-0.1c0.1-0.1,0.1-0.3,0-0.5c-0.2-0.4-0.9-0.7-2.1-0.7
			c-0.5,0-0.9,0.2-1.3,0.2c-0.2,0-0.4,0.2-0.5,0.2h-0.1c-0.3,0-0.6-0.1-1-0.1c-0.4,0-0.8-0.1-1.1-0.1c-0.9,0-2.1,0-3.1,0.4
			c0,0,0,0-0.1,0c-0.1,0-0.2,0-0.3,0.1c-0.1,0.1-0.2,0.2-0.2,0.3c0,0.1,0,0.1,0.1,0.1c-0.4,3.7-0.3,7.5-0.2,11.2
			c0.1,3.4,0.2,6.7-0.1,10.1c-0.5,0-1-0.1-1.5-0.1c-0.2,0-0.4,0-0.6,0c0-2,0-3.4,0-5.1c0-3,0.1-6.1-0.1-9.1c0-0.1,0.1-0.2,0-0.3
			c-0.2-0.4-0.8-0.6-1.6-0.6c-0.5,0-1.1,0.1-1.6,0.2c-0.3,0-0.5,0.1-0.7,0.1c-0.6,0-1.2,0-1.9-0.1c-0.5,0-1.1-0.1-1.6-0.1
			c-0.9,0-1.5,0.1-2.1,0.5c-0.1,0.1-0.2,0.2-0.2,0.3c0,0.1,0.1,0.2,0.2,0.3c0,0,0,0,0,0c-0.1,1.3-0.1,2.7,0,4c0,1,0.1,2,0,2.9
			c0,0.6,0,1.2-0.1,1.8c-0.1,1.8-0.2,3.6,0.1,5.4c-0.5,0-1-0.1-1.6-0.1c-0.9-0.1,0.8-0.2-0.2-0.2c-1.1,0-2,0.1-2.7,0.3
			c0.2-1,0.2-2.1,0.1-3.2c0-0.2,0-0.5,0-0.7c0-1.3,0-2.6,0-3.9c0-1.1,0-2.1,0-3.2c0-2.3-0.1-4.6-0.1-6.9c-0.1-2.6-0.1-1.1-0.2-3.7
			c0-1.4,0-3.8,0.1-5.2c0.1-2.8,0.2-0.4-0.2-6.4c0,0,0,0,0,0c0.2,0,0.4,1,0.6,1c0.1,0,0.2,0.4,0.3,0.4c0.1,0,0.1,0.2,0.2,0.1
			c0,0,0,0.1,0,0.1c0.2,0,0.3,0,0.4-0.2c0.1-0.1,0.1-0.2,0-0.4c-0.4-0.9-0.7-1.6-1.2-2.3l0,0.1h0c0,0-0.1-0.3-0.1-0.3
			c-0.2-0.3-0.6-0.2-0.8,0.1L19.3,46h-0.1l0-0.1l-0.1,0c-0.3,0.7-0.7,1.3-1,2c0,0.1,0,0.1,0,0.2c-0.1,0.1-0.1,0.2-0.1,0.3
			c0,0.1,0,0.1,0.1,0.2c0.1,0.1,0.1,0.1,0.2,0.1l0.3,0c0.1,0,0.2,0,0.2,0c-0.3,2.3-0.2,4.7-0.1,7c0,1.5,0.1,0.3,0,1.8
			c-0.2,5.7,0,7.2,0.2,12.8c0.1,3.4,0.2,6.8,0.2,10.3c-0.1,0.1-0.1,0.2-0.1,0.3c0.1,0.2,0.2,0.3,0.4,0.3c1.6,0,0.4,0,2.3,0
			c2.3,0,4.6-0.1,6.9-0.1c3.2,0,6.3-0.1,9.4-0.1h0.7c1.6,0,3.2,0.2,4.7,0.2c0.4,0,0.9,0.1,1.3,0.1c0,0,0,0.1,0.1,0.1c0,0,0,0,0,0
			c1.1,0,2.2,0,3.4,0c1.1,0,2,0,2.9,0c1.2,0,2.4-0.1,3.6-0.2c1.6-0.1,3.3-0.2,5-0.2c1.7,0,3.2,0.1,4.5,0.3c0,0,0.1,0,0.1,0
			c0,0.1,0,0.2,0.1,0.3c-0.1,0.1-0.1,0.3,0,0.5c0.1,0.2,0.2,0.3,0.4,0.3c0.1,0,0.1,0,0.2,0c0.6-0.2,1.3-0.5,2-0.9l-0.1,0v0
			c0,0,0.2-0.1,0.3-0.1c0.1-0.1,0.2-0.2,0.3-0.3C67.6,80.8,67.6,80.7,67.5,80.6z M65.2,80.4c0.4,0.1,0.7,0.3,1,0.5
			c-0.3,0.1-0.7,0.3-1,0.4c0-0.1,0-0.2,0-0.3C65.2,80.8,65.2,80.6,65.2,80.4z M49.6,77.5c0-0.2,0-0.3,0-0.5c0-1.6,0-3.1,0-4.7
			c0-1.4,0-2.7,0-4.1c0-2.3,0.1-4.6,0.2-6.9c0.1-3.5,0.3-7.2,0.1-10.7c0.6,0,1.3,0.1,1.9,0.2c0.6,0.1,1.3,0.1,1.9,0.2l0.1,0
			c0.5,0,1.2,0.1,1.8,0.1c0.8,0,1.4-0.1,1.9-0.2c0,2.5-0.1,5.1-0.3,7.6c-0.1,2.5-0.3,5.1-0.3,7.6c0,2.8-0.1,5.6-0.1,8.4
			c0,0.6,0.1,1.3,0.2,2.1c0.2,1.3,0.3,2.7,0.1,3.7c-1.1,0-2.3,0.1-3.4,0.2l-0.3,0c-1.2,0.1-2.6,0.1-4.1,0.1
			C49.6,79.4,49.6,78.4,49.6,77.5z M25.5,75.4c0-0.8,0-1.7,0-2.5l0-0.4c0.1-2,0.2-4.3-0.1-6.3c0.9,0.1,1.8,0.2,2.9,0.2
			c0.4,0,0.8,0,1.2,0c0.4,0,0.8,0,1.2-0.1c0.4,0,0.9-0.1,1.3-0.1c0.2,0,0.3,0,0.5,0c0.1,0,0.3,0,0.4,0c0,0,0.1,0,0.1,0
			c-0.4,3.7-0.3,7.5-0.2,11.3c0,0.9,0.1,1.8,0.1,2.7c-2.5,0-5.1,0-7.7,0C25.5,78.5,25.5,76.9,25.5,75.4z M37.4,73.1
			c0-0.8-0.1-1.6-0.1-2.3c0-0.9,0-1.8-0.1-2.7c-0.1-3-0.2-6.1,0.1-9c0.2,0,0.4,0,0.6,0c0.8,0,1.7-0.1,2.5-0.2
			c0.8-0.1,1.7-0.2,2.5-0.2c0.6,0,1.2,0.1,1.7,0.2c0.1,3.2,0,6.4-0.2,9.6c-0.2,3.9-0.4,7.9,0,11.8c-0.2,0-0.4,0-0.7,0
			c-1.5,0-3.1-0.1-4.6-0.1c-0.8,0-1.6,0-2.4,0C37.6,77.9,37.5,75.4,37.4,73.1z M19.6,47.8c-0.2,0-0.3,0-0.5,0
			c0.2-0.4,0.5-0.7,0.6-1.1c0.1,0.3,0.2,0.5,0.4,0.8c0,0.1,0.1,0.2,0.2,0.3C20.1,47.8,19.9,47.8,19.6,47.8z"/>
	</g>
</g>
<g>
	<g>
		<path fill="#F5F5F5" d="M12.7,22.5c0,0.3-0.1,0.5-0.3,0.8s-0.4,0.4-0.7,0.5S11.2,24,11,24s-0.6,0.1-0.8,0.1c-0.3,0-0.7-0.1-1-0.2
			s-0.6-0.3-0.9-0.6s-0.5-0.5-0.7-0.8s-0.3-0.6-0.3-1c0-0.2,0.1-0.5,0.2-0.7s0.3-0.4,0.5-0.6s0.4-0.3,0.6-0.5s0.4-0.2,0.6-0.3
			c0-0.2,0-0.4,0-0.5s0-0.4,0-0.6c0-0.1,0-0.3,0-0.4s0-0.3,0.1-0.5s0.1-0.3,0.2-0.4s0.2-0.2,0.4-0.2c0.3,0,0.6,0.2,0.6,0.5
			c0.1,0.2,0.1,0.4,0.1,0.7s0,0.5,0,0.7c0,0.1,0,0.2,0,0.4s0,0.3,0,0.5s0,0.3,0,0.5s-0.1,0.3-0.1,0.3c-0.1,0.1-0.2,0.2-0.4,0.3
			S9.9,20.9,9.7,21s-0.3,0.2-0.5,0.4s-0.2,0.3-0.2,0.5c0,0.1,0,0.3,0.1,0.4s0.1,0.2,0.2,0.3s0.2,0.1,0.3,0.2s0.2,0.1,0.4,0.1
			c0.3,0,0.5,0,0.7-0.1s0.3-0.2,0.4-0.3s0.2-0.2,0.3-0.3s0.2-0.1,0.4-0.1c0.2,0,0.3,0.1,0.5,0.2S12.7,22.3,12.7,22.5z M11,15.7
			c0,0.1,0,0.2-0.1,0.3s-0.2,0.2-0.3,0.3s-0.2,0.1-0.3,0.2s-0.2,0.1-0.3,0.1c-0.2,0-0.3,0-0.5-0.1s-0.2-0.2-0.2-0.4
			c0-0.1,0-0.2,0.1-0.3s0.1-0.2,0.2-0.2s0.2-0.1,0.3-0.1s0.2,0,0.4,0c0.2,0,0.3,0,0.5,0.1S11,15.5,11,15.7z"/>
		<path fill="#F5F5F5" d="M18.8,18c0,0.1,0,0.3-0.1,0.5s-0.1,0.3-0.2,0.5s-0.2,0.3-0.3,0.4s-0.3,0.1-0.5,0.1c-0.3,0-0.5,0-0.6-0.1
			S17,19,17,18.9s-0.1-0.3-0.1-0.5s0-0.3,0-0.5s0-0.3-0.1-0.4s-0.1-0.1-0.3-0.1c-0.2,0-0.3,0.1-0.4,0.2s-0.2,0.3-0.3,0.4
			s-0.2,0.4-0.2,0.6s-0.1,0.5-0.1,0.7s-0.1,0.4-0.1,0.6s0,0.4,0,0.5c0,0.2,0,0.4,0,0.6s0,0.4,0.1,0.7s0.2,0.4,0.3,0.5
			s0.3,0.2,0.5,0.2c0.2,0,0.3,0,0.5-0.1s0.3-0.1,0.4-0.1s0.3-0.1,0.5-0.1s0.3-0.1,0.5-0.1c0.2,0,0.3,0.1,0.4,0.2s0.2,0.3,0.2,0.5
			c0,0.2-0.1,0.5-0.2,0.7s-0.3,0.4-0.6,0.6s-0.5,0.3-0.8,0.4s-0.5,0.1-0.7,0.1c-0.6,0-1-0.1-1.4-0.4s-0.7-0.6-0.9-1
			s-0.4-0.9-0.5-1.3s-0.2-1-0.2-1.5c0-0.3,0-0.7,0.1-1.1s0.2-0.8,0.3-1.2s0.3-0.8,0.5-1.1s0.4-0.7,0.7-1s0.5-0.5,0.9-0.7
			s0.7-0.3,1.1-0.3c0.4,0,0.7,0.1,1,0.3s0.5,0.4,0.6,0.7s0.3,0.6,0.3,1S18.8,17.7,18.8,18z"/>
		<path fill="#F5F5F5" d="M21.9,24.3c-0.4,0-0.7-0.1-1-0.3s-0.5-0.5-0.8-0.8s-0.4-0.7-0.5-1.1s-0.2-0.8-0.2-1.2
			c0-0.4,0.1-0.8,0.2-1.3s0.3-0.8,0.5-1.2s0.5-0.7,0.8-0.9s0.7-0.3,1.2-0.3c0.4,0,0.8,0.1,1.1,0.4s0.6,0.5,0.7,0.9s0.3,0.7,0.4,1.2
			s0.1,0.8,0.1,1.2c0,0.4-0.1,0.8-0.2,1.3s-0.3,0.8-0.5,1.1S23.3,23.8,23,24S22.3,24.3,21.9,24.3z M22,19c-0.1,0-0.2,0.1-0.3,0.2
			s-0.2,0.3-0.2,0.5s-0.1,0.4-0.1,0.6s0,0.4,0,0.5c0,0.2,0,0.4,0.1,0.6s0.1,0.4,0.1,0.6s0.1,0.3,0.2,0.5s0.2,0.2,0.3,0.2
			c0.1,0,0.2-0.1,0.3-0.2s0.2-0.3,0.2-0.4s0.1-0.4,0.1-0.6s0-0.4,0-0.6c0-0.2,0-0.4,0-0.6s-0.1-0.4-0.1-0.6s-0.1-0.3-0.2-0.4
			S22.1,19,22,19z M23.3,15.2c0,0.1,0,0.2-0.1,0.3s-0.1,0.2-0.2,0.2s-0.1,0.1-0.2,0.2S22.7,16,22.7,16c-0.1,0-0.1,0.1-0.2,0.1
			s-0.1,0.1-0.2,0.1s-0.1,0.1-0.2,0.1s-0.1,0-0.2,0c-0.1,0-0.1,0-0.2-0.1s-0.1-0.1-0.1-0.2c0-0.1,0-0.3,0.1-0.4s0.2-0.3,0.3-0.5
			s0.3-0.3,0.4-0.4s0.3-0.2,0.4-0.2c0.1,0,0.2,0,0.3,0.1S23.3,15.1,23.3,15.2z"/>
		<path fill="#F5F5F5" d="M32.5,20.1c0,0.1,0,0.3,0,0.6s0,0.5,0,0.8s0,0.6-0.1,0.9s-0.1,0.6-0.2,0.8s-0.2,0.4-0.3,0.6
			s-0.3,0.2-0.5,0.2c-0.2,0-0.3-0.1-0.4-0.2s-0.2-0.3-0.2-0.5s-0.1-0.4-0.1-0.6s0-0.4,0-0.5c0-0.4,0-0.7,0-1s0-0.7,0-1
			c0,0,0-0.1,0-0.2s0-0.2,0-0.3s0-0.2-0.1-0.3s-0.1-0.1-0.2-0.1c-0.1,0-0.3,0.1-0.3,0.2S30.1,19.8,30,20s-0.1,0.4-0.1,0.6
			s0,0.3,0,0.4c0,0.1,0,0.3,0,0.5s0,0.4,0,0.7s-0.1,0.5-0.1,0.7s-0.1,0.5-0.2,0.7s-0.2,0.4-0.3,0.5s-0.2,0.2-0.4,0.2
			c-0.2,0-0.3-0.1-0.4-0.2s-0.2-0.4-0.2-0.6s-0.1-0.4-0.1-0.7s0-0.4,0-0.5c0-0.1,0-0.3,0-0.4s0-0.3,0-0.4c0-0.1,0-0.1,0-0.3
			s0-0.3,0-0.4s0-0.3,0-0.5s0-0.3-0.1-0.5S28,19.6,28,19.6s-0.1-0.1-0.2-0.1c-0.1,0-0.2,0.1-0.3,0.2s-0.2,0.3-0.2,0.5
			s-0.1,0.3-0.1,0.5s-0.1,0.3-0.1,0.4V21c0,0.4,0,0.7,0.1,1.1s0.1,0.7,0.1,1.1c0,0.2-0.1,0.4-0.2,0.6s-0.3,0.3-0.6,0.3
			c-0.2,0-0.3-0.1-0.4-0.2s-0.2-0.3-0.3-0.5s-0.1-0.5-0.2-0.7s-0.1-0.5-0.1-0.8s0-0.5,0-0.7s0-0.4,0-0.5c0-0.1,0-0.3,0-0.5
			s0-0.5,0-0.7s0-0.5,0.1-0.8s0.1-0.5,0.2-0.8s0.2-0.4,0.3-0.6s0.3-0.2,0.4-0.2c0.2,0,0.4,0.1,0.5,0.2s0.2,0.3,0.2,0.5
			c0,0,0,0.1,0,0.1s0,0.1,0,0.1c0.1-0.1,0.2-0.3,0.3-0.4s0.3-0.2,0.4-0.4s0.3-0.2,0.5-0.3s0.3-0.1,0.5-0.1c0.2,0,0.3,0,0.4,0.1
			s0.2,0.2,0.3,0.3s0.2,0.3,0.2,0.4s0.1,0.3,0.1,0.4c0.1-0.1,0.2-0.3,0.3-0.4s0.2-0.3,0.4-0.4s0.3-0.2,0.4-0.3s0.3-0.1,0.5-0.1
			c0.2,0,0.3,0.1,0.4,0.2s0.2,0.3,0.3,0.5s0.2,0.4,0.2,0.6s0.1,0.5,0.1,0.7s0.1,0.4,0.1,0.6S32.5,20,32.5,20.1z"/>
		<path fill="#F5F5F5" d="M35.9,24.3c-0.4,0-0.7-0.1-1-0.3s-0.5-0.5-0.8-0.8s-0.4-0.7-0.5-1.1s-0.2-0.8-0.2-1.2
			c0-0.4,0.1-0.8,0.2-1.3s0.3-0.8,0.5-1.2s0.5-0.7,0.8-0.9s0.7-0.3,1.2-0.3c0.4,0,0.8,0.1,1.1,0.4s0.6,0.5,0.7,0.9s0.3,0.7,0.4,1.2
			s0.1,0.8,0.1,1.2c0,0.4-0.1,0.8-0.2,1.3s-0.3,0.8-0.5,1.1S37.3,23.8,37,24S36.3,24.3,35.9,24.3z M36,19c-0.1,0-0.2,0.1-0.3,0.2
			s-0.2,0.3-0.2,0.5s-0.1,0.4-0.1,0.6s0,0.4,0,0.5c0,0.2,0,0.4,0.1,0.6s0.1,0.4,0.1,0.6s0.1,0.3,0.2,0.5s0.2,0.2,0.3,0.2
			c0.1,0,0.2-0.1,0.3-0.2s0.2-0.3,0.2-0.4s0.1-0.4,0.1-0.6s0-0.4,0-0.6c0-0.2,0-0.4,0-0.6s-0.1-0.4-0.1-0.6s-0.1-0.3-0.2-0.4
			S36.1,19,36,19z"/>
		<path fill="#F5F5F5" d="M47.6,19.8c-0.2,0.5-0.4,1.1-0.7,1.7s-0.5,1.1-0.8,1.6c-0.2,0.3-0.4,0.6-0.6,0.8s-0.5,0.3-0.7,0.3
			c-0.2,0-0.4-0.1-0.6-0.3s-0.4-0.5-0.6-0.8s-0.3-0.6-0.5-0.9s-0.2-0.6-0.3-0.8c-0.1-0.2-0.1-0.4-0.2-0.7s-0.1-0.5-0.2-0.7
			s-0.1-0.5-0.2-0.7s-0.1-0.5-0.1-0.7c0-0.3,0.1-0.6,0.2-0.8s0.3-0.3,0.6-0.3c0.1,0,0.2,0,0.3,0.1s0.2,0.2,0.3,0.3s0.2,0.3,0.2,0.5
			s0.2,0.4,0.2,0.6c0.1,0.2,0.1,0.4,0.2,0.6s0.1,0.4,0.2,0.6s0.1,0.4,0.2,0.6s0.2,0.4,0.3,0.6c0.1-0.1,0.1-0.3,0.2-0.5
			s0.1-0.4,0.2-0.6s0.2-0.4,0.3-0.6s0.2-0.4,0.3-0.6c0.2-0.4,0.4-0.8,0.7-1.1s0.5-0.4,0.7-0.4c0.2,0,0.4,0.1,0.5,0.2S48,18,48,18.2
			s0,0.4-0.1,0.7S47.7,19.5,47.6,19.8z"/>
		<path fill="#F5F5F5" d="M53.7,22.3c0,0.1,0,0.3,0,0.6s0,0.4-0.1,0.7s-0.1,0.4-0.3,0.6s-0.3,0.2-0.5,0.2c-0.3,0-0.5-0.1-0.7-0.3
			S52,23.6,52,23.3c-0.2,0.2-0.5,0.4-0.8,0.5s-0.6,0.2-1,0.2c-0.2,0-0.4-0.1-0.6-0.2s-0.4-0.2-0.5-0.4s-0.3-0.4-0.4-0.6
			s-0.1-0.4-0.1-0.6c0-0.4,0.1-0.7,0.3-1s0.5-0.5,0.8-0.7s0.7-0.4,1.1-0.5s0.7-0.2,1-0.2c0,0,0-0.1,0-0.1s0-0.1,0-0.1
			c0-0.2-0.1-0.4-0.2-0.6s-0.3-0.2-0.6-0.2c-0.2,0-0.4,0-0.5,0.1s-0.3,0.1-0.4,0.2s-0.2,0.2-0.4,0.2s-0.3,0.1-0.4,0.1
			c-0.2,0-0.3-0.1-0.4-0.2s-0.2-0.2-0.2-0.4c0-0.3,0.1-0.5,0.2-0.7s0.3-0.4,0.6-0.5s0.5-0.3,0.8-0.3s0.5-0.1,0.7-0.1
			c0.2,0,0.4,0,0.6,0.1s0.4,0.1,0.6,0.2s0.4,0.2,0.5,0.4s0.3,0.3,0.4,0.5c0.1,0.3,0.3,0.6,0.3,0.9s0.2,0.7,0.2,1s0.1,0.7,0.1,1
			S53.7,22,53.7,22.3z M51.8,21.9l0-0.8c0,0,0,0,0,0s0,0,0,0c-0.1,0-0.2,0-0.4,0.1s-0.3,0.1-0.4,0.2s-0.3,0.2-0.4,0.3
			s-0.1,0.2-0.1,0.3c0,0.1,0,0.2,0.1,0.2s0.2,0.1,0.3,0.1c0.2,0,0.4,0,0.6-0.1S51.7,22,51.8,21.9z"/>
		<path fill="#F5F5F5" d="M61.9,20.1c0,0.1,0,0.3,0,0.6s0,0.5,0,0.8s0,0.6-0.1,0.9s-0.1,0.6-0.2,0.8s-0.2,0.4-0.3,0.6
			s-0.3,0.2-0.5,0.2c-0.2,0-0.3-0.1-0.4-0.2s-0.2-0.3-0.2-0.5s-0.1-0.4-0.1-0.6s0-0.4,0-0.5c0-0.4,0-0.7,0-1s0-0.7,0-1
			c0,0,0-0.1,0-0.2s0-0.2,0-0.3s0-0.2-0.1-0.3s-0.1-0.1-0.2-0.1c-0.1,0-0.3,0.1-0.3,0.2s-0.2,0.3-0.2,0.5s-0.1,0.4-0.1,0.6
			s0,0.3,0,0.4c0,0.1,0,0.3,0,0.5s0,0.4,0,0.7s-0.1,0.5-0.1,0.7s-0.1,0.5-0.2,0.7s-0.2,0.4-0.3,0.5s-0.2,0.2-0.4,0.2
			c-0.2,0-0.3-0.1-0.4-0.2s-0.2-0.4-0.2-0.6s-0.1-0.4-0.1-0.7s0-0.4,0-0.5c0-0.1,0-0.3,0-0.4s0-0.3,0-0.4c0-0.1,0-0.1,0-0.3
			s0-0.3,0-0.4s0-0.3,0-0.5s0-0.3-0.1-0.5s-0.1-0.2-0.1-0.3s-0.1-0.1-0.2-0.1c-0.1,0-0.2,0.1-0.3,0.2s-0.2,0.3-0.2,0.5
			s-0.1,0.3-0.1,0.5s-0.1,0.3-0.1,0.4V21c0,0.4,0,0.7,0.1,1.1s0.1,0.7,0.1,1.1c0,0.2-0.1,0.4-0.2,0.6s-0.3,0.3-0.6,0.3
			c-0.2,0-0.3-0.1-0.4-0.2s-0.2-0.3-0.3-0.5s-0.1-0.5-0.2-0.7s-0.1-0.5-0.1-0.8s0-0.5,0-0.7s0-0.4,0-0.5c0-0.1,0-0.3,0-0.5
			s0-0.5,0-0.7s0-0.5,0.1-0.8s0.1-0.5,0.2-0.8s0.2-0.4,0.3-0.6s0.3-0.2,0.4-0.2c0.2,0,0.4,0.1,0.5,0.2s0.2,0.3,0.2,0.5
			c0,0,0,0.1,0,0.1s0,0.1,0,0.1c0.1-0.1,0.2-0.3,0.3-0.4s0.3-0.2,0.4-0.4s0.3-0.2,0.5-0.3s0.3-0.1,0.5-0.1c0.2,0,0.3,0,0.4,0.1
			s0.2,0.2,0.3,0.3s0.2,0.3,0.2,0.4s0.1,0.3,0.1,0.4c0.1-0.1,0.2-0.3,0.3-0.4s0.2-0.3,0.4-0.4s0.3-0.2,0.4-0.3s0.3-0.1,0.5-0.1
			c0.2,0,0.3,0.1,0.4,0.2s0.2,0.3,0.3,0.5s0.2,0.4,0.2,0.6s0.1,0.5,0.1,0.7s0.1,0.4,0.1,0.6S61.9,20,61.9,20.1z"/>
		<path fill="#F5F5F5" d="M65.3,24.3c-0.4,0-0.7-0.1-1-0.3s-0.5-0.5-0.8-0.8s-0.4-0.7-0.5-1.1s-0.2-0.8-0.2-1.2
			c0-0.4,0.1-0.8,0.2-1.3s0.3-0.8,0.5-1.2s0.5-0.7,0.8-0.9s0.7-0.3,1.2-0.3c0.4,0,0.8,0.1,1.1,0.4s0.6,0.5,0.7,0.9s0.3,0.7,0.4,1.2
			s0.1,0.8,0.1,1.2c0,0.4-0.1,0.8-0.2,1.3s-0.3,0.8-0.5,1.1s-0.5,0.6-0.8,0.8S65.7,24.3,65.3,24.3z M65.4,19c-0.1,0-0.2,0.1-0.3,0.2
			s-0.2,0.3-0.2,0.5s-0.1,0.4-0.1,0.6s0,0.4,0,0.5c0,0.2,0,0.4,0.1,0.6s0.1,0.4,0.1,0.6s0.1,0.3,0.2,0.5s0.2,0.2,0.3,0.2
			c0.1,0,0.2-0.1,0.3-0.2s0.2-0.3,0.2-0.4s0.1-0.4,0.1-0.6s0-0.4,0-0.6c0-0.2,0-0.4,0-0.6s-0.1-0.4-0.1-0.6s-0.1-0.3-0.2-0.4
			S65.5,19,65.4,19z"/>
		<path fill="#F5F5F5" d="M72.2,17.5c0,0.2-0.1,0.4-0.2,0.5s-0.3,0.2-0.5,0.3s-0.4,0.2-0.5,0.3s-0.2,0.3-0.2,0.6
			c0,0.1,0,0.3,0.1,0.4s0.1,0.2,0.2,0.3s0.2,0.2,0.3,0.3s0.2,0.2,0.3,0.3s0.2,0.2,0.2,0.4s0.1,0.3,0.1,0.6c0,0.3-0.1,0.7-0.3,1
			s-0.4,0.6-0.6,0.8s-0.6,0.4-0.9,0.6s-0.7,0.2-1,0.2c-0.1,0-0.3,0-0.4,0s-0.3-0.1-0.4-0.1s-0.2-0.1-0.3-0.2s-0.1-0.2-0.1-0.4
			c0-0.2,0-0.4,0.1-0.5s0.2-0.2,0.3-0.3s0.3-0.1,0.4-0.2s0.3-0.1,0.4-0.1s0.2-0.1,0.3-0.2s0.1-0.2,0.1-0.4c0-0.2-0.1-0.3-0.2-0.5
			s-0.3-0.4-0.4-0.6s-0.3-0.4-0.4-0.6s-0.2-0.5-0.2-0.8c0-0.3,0.1-0.6,0.2-0.9s0.3-0.5,0.6-0.7s0.5-0.4,0.8-0.5s0.6-0.2,0.9-0.2
			c0.1,0,0.2,0,0.4,0s0.2,0.1,0.3,0.1s0.2,0.1,0.2,0.2S72.2,17.4,72.2,17.5z"/>
		<path fill="#F5F5F5" d="M78.3,17.6c0,0.2-0.1,0.5-0.2,0.7s-0.3,0.4-0.5,0.6s-0.4,0.3-0.6,0.5s-0.4,0.2-0.6,0.3
			c0,0.4,0.1,0.8,0.1,1.2c0,0.1,0,0.3,0,0.4s0,0.3-0.1,0.5s-0.1,0.3-0.2,0.4s-0.2,0.2-0.4,0.2c-0.3,0-0.5-0.2-0.6-0.5
			c0-0.1-0.1-0.3-0.1-0.5s0-0.4-0.1-0.6s0-0.4,0-0.6s0-0.4,0-0.5c0-0.1,0-0.2,0-0.4s0-0.3,0.1-0.4c0.1-0.1,0.2-0.2,0.4-0.3
			s0.3-0.2,0.5-0.3s0.3-0.2,0.5-0.4s0.2-0.3,0.2-0.5c0-0.1,0-0.3-0.1-0.4s-0.1-0.2-0.2-0.3s-0.2-0.1-0.3-0.2s-0.2-0.1-0.4-0.1
			c-0.3,0-0.5,0-0.7,0.1s-0.3,0.2-0.4,0.3s-0.2,0.2-0.3,0.3s-0.2,0.1-0.4,0.1c-0.2,0-0.4-0.1-0.5-0.2s-0.2-0.3-0.2-0.5
			c0-0.3,0.1-0.6,0.3-0.8s0.4-0.4,0.7-0.5s0.5-0.2,0.8-0.3s0.6-0.1,0.8-0.1c0.3,0,0.6,0.1,1,0.2s0.6,0.3,0.9,0.5s0.5,0.5,0.7,0.8
			S78.3,17.3,78.3,17.6z M76.5,23.3c0,0.1,0,0.2-0.1,0.3s-0.1,0.2-0.2,0.2S76,24,75.9,24.1s-0.2,0-0.3,0c-0.2,0-0.3,0-0.5-0.1
			s-0.2-0.2-0.2-0.4c0-0.1,0-0.2,0.1-0.3s0.2-0.2,0.3-0.3s0.2-0.1,0.3-0.2s0.2-0.1,0.3-0.1c0.2,0,0.3,0,0.5,0.1S76.5,23.1,76.5,23.3
			z"/>
	</g>
</g>
<rect y="6" fill="#3E3E3D" width="1" height="24"/>
<rect x="85" y="6" fill="#3E3E3D" width="1" height="24"/>
<g>
	<defs>
		<circle id="SVGID_98_" cx="111" cy="-99.1" r="35.7"/>
	</defs>
	<use xlink:href="#SVGID_98_"  overflow="visible" fill="#E74F1B"/>
	<clipPath id="SVGID_1_">
		<use xlink:href="#SVGID_98_"  overflow="visible"/>
	</clipPath>
	<g clip-path="url(#SVGID_1_)">
		<g>
			<g>
			</g>
			<path opacity="0.5" fill="#A1877A" d="M96.1-42.1c3.4-2.3,1.8-7.9,7-12.7c3.8-3.5,4.4-9.2,4.4-14.8c-1.8-0.5-3.5-1.3-4.8-2.2
				c-3.7-2.6-7-5.9-9.4-9.7c-2.7-4.2-3.3-9.2-5.8-13.4c0-0.1-0.1-0.1-0.1-0.2c-1.6,0.2-3.1,0.9-4.7,0.8c2.9,4.9,5.1,2.3,5.1,2.3
				C91.5-69.6,107-69.8,107-69.8l-0.2,1.3l-0.6,0c-27.9,8.9-29.3,19.5-29.3,19.5l1,0.7c-5.8,19.8,5.9,27.5,5.9,27.5l-2.8,16l6-1.2
				c0,0,0.7,48.9,1.2,50.7c0.3,1.3,3,1.2,3.4,1.9c-0.4,0.9-2,1.6-3,5.1c-3.3,11,9.7,4.2,9.7,4.2c1.9-2.1,5.4-11.8,2.4-17.4
				C97.5,33,84.5-2,95-6.4C105.4-10.8,87.2-35.9,96.1-42.1z"/>
		</g>
	</g>
</g>
<g>
	<g>
		<rect x="42.3" y="25.5" fill="#F5F5F5" width="5.4" height="1.5"/>
	</g>
</g>
</svg>
