<?xml version="1.0" encoding="utf-8"?>
<!-- Generator: Adobe Illustrator 18.1.0, SVG Export Plug-In . SVG Version: 6.00 Build 0)  -->
<svg version="1.0" id="Capa_1_copia" xmlns="http://www.w3.org/2000/svg" xmlns:xlink="http://www.w3.org/1999/xlink" x="0px"
	 y="0px" viewBox="0 0 85 91" enable-background="new 0 0 85 91" xml:space="preserve">
<rect fill="#575756" width="1280" height="35"/>
<g>
	<rect y="35" fill="#E61B73" width="85" height="56"/>
	<g>
		<path fill="#3E2723" d="M58.6,58.9c0-0.1,0.1-0.2,0.1-0.3c0-0.5-0.1-0.9-0.3-1.3c0-0.7-0.2-1.3-0.3-2c0-0.2,0-0.4-0.1-0.6
			c-0.2-1.1-0.2-2.2-0.5-3.3c-0.3-1.3-1.1-2.8-2-3.8c-0.1-0.1-0.2-0.2-0.3-0.2c-0.2-0.4-0.5-0.7-0.9-1c0,0,0,0,0,0c0,0,0,0,0,0
			c-0.1,0-0.1-0.1-0.1-0.1c-0.1-0.1-0.3-0.3-0.8-0.6c-0.5-0.4-1.1-0.4-1.1-0.7l-0.6-0.3c-0.5,0-0.2-0.1-0.8-0.1
			c-0.1,0-0.7-0.2-1.5-0.5c-0.8-0.2-2.1-0.2-2.9-0.2c0,0,0-0.1,0-0.1c-0.8-0.2-1.8-0.3-2.5,0.3c-0.5,0-1,0-1.4,0.3
			c-0.3,0.1-0.7,0.1-1,0.2c-0.1,0-0.2,0.1-0.3,0.1c-1,0.1-2,0.3-2.9,0.3c-0.1,0-0.1,0-0.2,0c-0.2-0.1-0.5,0-0.7,0
			c-0.6-0.1-0.8-0.2-1.4,0c-0.2,0.1-0.3-0.1-0.5,0c-0.3,0-0.5,0-0.8,0c-0.3,0-0.5,0-0.8,0c-0.3-0.1-0.6-0.1-0.9,0.1
			c-0.8,0.1-1.6,0.3-2.3,0.6c0,0-0.1,0-0.1,0.1c-0.2,0-0.4,0-0.7,0.2c-0.7,0.4-1.2,0.9-1.7,1.5c-0.7,0.4-1.2,1.1-1.4,1.9
			c-0.3,0.4-0.5,0.8-0.7,1.2c-0.8,0.9-1.2,2-1.7,3.2c-0.1,0.3,0,0.6,0.2,0.7c0,0.1,0,0.2,0,0.3c0,0.1,0,0.2,0.1,0.3
			c0,0.2,0,0.4-0.1,0.7c0,0,0,0.3,0,0.4c-0.1,0.4-0.2,3-0.2,3h0c0,0,0,0.1,0,0.1c0,0.1,0,0.2,0,0.2c-0.1,0.2-0.1,0.4-0.1,0.7
			c0,0,0,0.1,0,0.1c0,0.1,0,0.2,0,0.3c0,0.2,0,0.4,0,0.5c-0.1,0.1-0.1,0.3-0.1,0.5c0,0.3-0.1,0.4,0,0.7c0,0.1,0.1,0.1,0.1,0.1
			c0,0.1,0,0,0,0.1c0,0-0.1,0-0.1,0.1c0,0,0.1,0.1,0.1,0.1c0,0-0.1,0.2,0,0.2c0,0.1,0.1,0.4,0.2,0.4c0.1,0,0.1,0.4,0.2,0.4
			c0,0,0.5-0.2,0.5-0.2c0.1,0,0.2-0.1,0.3-0.2c0,0,0.1,0.1,0.1,0.1c0.1,0.1,0.1,0,0.2,0c0.2,0,0.4,0.1,0.6,0.1
			c1,0.9,1.8-0.4,2.2-1.7c0-0.1,0-0.3,0-0.4c0.8-0.9,0.8-2.4,0.8-3.4c0-0.1,0.2-0.4,0.1-0.5c0.1-0.4-0.1-0.7,0-1
			c0.1,0,0.2,0,0.3-0.1c0.5-0.4,0.9-0.8,1.3-1.3c0,0,0,0,0,0c0.6-0.2,0.8-0.1,1.4-0.1c0.1,0.1,0.5-0.1,0.7-0.1
			c0.6,0.1,1.2,0.2,1.8,0.2c0,0,0.7,0.4,0.7,0.4c2.2,0.6,3.7-0.4,4.8-0.6c0.3-0.3,0.9-0.3,0.9-0.3c-0.1-0.3,0.7-0.3,0.7-0.3l0-0.2
			c0,0,0.1-0.2,0.1-0.2c0.6-0.1,0.9,0,1.5-0.2c0.1,0.1,0.4,0.1,0.6,0c0.2-0.1,0.4-0.3,0.5-0.3c0.1,0,0.1,0.1,0.2,0.1
			c0.1,0.1,0.3,0,0.4,0c0.4,0,0.8-0.1,1.2-0.2c0.3,0,0.5,0.1,0.8,0.1c0,0,0.3-0.1,0.4-0.1c0.4,0,0.5,0.1,0.9,0.1
			c0.1,0.1,0.1,0,0.2,0c0.4,0.1,0.7,0.2,1.1,0.4c0.2,0,0.4,0.1,0.5,0.1c0.1,0,0.3,0.1,0.4,0.1c0.1,0.1,0.1,0.1,0.2,0.2
			c0,0.1,0.3,0.1,0.4,0.2c0.4,0.3,0.7,0.1,1.1,0.4c0,0,0,0,0,0c0.2,0.1,0.4,0.3,0.6,0.4c0.1,0.1-0.1,0.2,0,0.2c0.1,0,0.2,0,0.2,0
			c0,0,0,0.1,0,0.1c0,0,0.2,0,0.2,0.1c0,0,0.1,0.1,0.1,0.1c0.2,0.2,0.2,0.4,0.3,0.6c0.2,0.4,0.3,0.3,0.5,0.7c0,0.1,0.2,0.5,0.2,0.6
			c0.1,0.1,0.1,0.4,0.1,0.6c0,0.1,0.1,0.2,0.1,0.2c0,0.1-0.1,0.1,0,0.2c0,0.1,0.2,0.1,0.2,0.2c0.1,0.2,0.1,0.4,0.2,0.6
			c0,0.1,0.3,1.1,0.3,0.7c0.2,0.3,0.2,0.4,0.4,0.6c0.2,0.2,0.5,0.2,0.8,0.1c0.2,0,0.6-0.1,0.8-0.3c0,0,0-0.2,0-0.2
			c0.1,0-0.2-0.1-0.1-0.1c0,0,0,0,0,0C58.8,59.8,58.8,59.4,58.6,58.9z"/>
		<path fill="#DDA680" d="M38,83c-0.4-0.2-0.8-0.3-1.1-0.6c-0.2-0.1-0.5,0-0.6-0.1c-1.1-0.4-2.8-1.6-3.5-2.2
			c-2.7-2.5-4.5-6.1-4.8-9.8c-0.1-0.2-0.1-0.2-0.2-0.4c-0.3,0-0.6-0.1-1-0.1c-0.3,0-0.5,0.1-0.7,0c-0.2-0.1-0.3-0.1-0.5-0.3
			c-0.1-0.1-0.3-0.1-0.4-0.2c-0.1,0,0-0.3-0.1-0.3c-0.2,0-0.3,0-0.4-0.2c-0.1-0.1-0.1-0.2-0.2-0.4c0,0,0-0.1,0-0.1
			c-0.1,0-0.2-0.1-0.3-0.2c-0.2-0.3-0.3-0.5-0.4-0.8c0-0.1,0-0.1,0-0.2c-0.4-0.9-0.1-2.1,0.5-2.8c0.7-0.8,2.1-1.1,2.9-0.4
			c0.1,0,0.6-0.2,0.7-0.2c0.6-0.9,1.1-2,1.6-3c0-0.4,0.1-0.8,0.1-1.2c-0.1-1.6,0.8-3.5,2.1-4c0.1-0.1,0.3-0.1,0.4-0.1c0,0,0,0,0.1,0
			c1.1-0.5,2.4-0.1,3.5,0.1c0.8,0.1,1.6,0.1,2.3,0.2c0.1-0.1,0.2-0.1,0.3-0.2c0.4-0.1,0.6-0.1,1-0.1c0.9-0.2,1.9-0.4,2.8-0.7
			c1.5-1.2,5.6-2,7.8-1c0.1,0,0.2-0.1,0.3,0c0.3,0,0.5,0.1,0.8,0.2c0.1,0,0.2,0,0.3,0c0.6,0.2,1.2,0.4,1.6,0.8c0,0,0.1,0,0.1,0
			c0.1,0,0.1,0.1,0.2,0.2c0,0,0.1,0.1,0.1,0.1c0,0,0,0,0.1,0c0.5,0.2,0.8,0.4,1.1,0.8c0,0,0,0,0,0c0.7,0.7,0.9,1.2,1.2,2.2
			c0.1,0.5,0.5,1.1,0.7,1.7c0.1,0.2,0.2,0.4,0.2,0.6c0.3,0.5,0.5,0.9,1.2,0.8c0.1,0,0.3-0.1,0.4-0.1c0.5-0.4,0.9-0.4,1.3-0.2
			c0.1,0,0.2,0,0.3,0c0.4,0.1,0.8,0.4,0.8,0.8c0,0.1,0.2,0.3,0.3,0.5c0.1,0.1,0.1,0.3,0.1,0.4c0.1,0.2,0.1,0.4,0.2,0.6
			c0.1,0.4,0.1,0.9-0.1,1.3c0,1.4-0.7,2.7-2.3,2.9c-0.1,0-0.2,0.1-0.3,0.1c-0.5,0.2-0.9,0.1-1.2-0.2c0,0.2-0.1,0.4-0.1,0.7
			c0.1,1.6-0.3,3.3-0.7,4.8c-0.5,1.9-1.4,3.7-2.5,5.3c0,0,0,0,0,0c0,0,0,0,0,0c-0.4,0.6-0.5,0.7-0.9,1.3c0,0-0.1,0-0.1,0l-0.1,0.3
			c-0.1,0-0.3,0.2-0.4,0.3c-0.3,0.3-0.6,1.2-0.9,1.1c-0.7,0.7-1.5,0.9-2.5,1.3c0,0-0.1,0.2-0.1,0.2c0,0-0.1-0.2-0.2-0.2
			c0,0-0.1,0.1-0.1,0.1h0c0,0,0,0,0,0c-0.5,0.4-1,0.8-1.6,1c0,0,0.1,0,0.1,0.1c0.1,0.1,0.1,0.1,0.1,0.2C47.1,83.2,41,84.5,38,83z"/>
		<path fill="#A1887F" d="M50.1,73.8c0-0.2-0.2-0.4-0.4-0.4c-0.1,0-0.2,0-0.3,0.1c0,0-0.1,0-0.1,0c0,0,0,0,0,0
			c-0.2-0.2-0.5-0.1-0.6,0.1c0,0-0.1,0-0.1,0c0,0-0.1,0-0.1,0c0,0,0,0-0.1,0c-0.1,0-0.1-0.1-0.2-0.1c-0.3-0.2-0.6-0.1-0.7,0.2
			c-0.2,0-0.7-0.1-0.9-0.1c0,0-0.5,0-0.5,0v0c0,0,0.3,0,0.2,0c-0.1,0,0,0.1-0.1,0.2c0,0,0,0,0,0c-0.8-0.2-1.7,0.2-2.6,0.2
			c-1.3,0-2.6-0.2-3.9,0c-1.1-0.1-2.3-0.1-3.3-0.3c-0.1-0.1-0.3,0.1-0.5,0.1c-0.2,0-0.4-0.1-0.4,0.1c0,0.1,0,0.2,0,0.4c0,0,0,0,0,0
			c0,0,0,0.1,0,0.1c-0.1,0.1-0.1,0.2,0,0.3c0,0.1,0.1,0.2,0.1,0.3c0,0.1-0.1,0.2-0.1,0.4c0,0,0.1,0.1,0.1,0.1
			c-0.2,0.9,0.5,1.4,0.6,2.2c0,0.4,0.2,1,0.6,0.7c0.4-0.2,0.9-0.4,1.4-0.5c0.1,0.1,0.4-0.1,0.5-0.1c0.4,0,0.8-0.2,1.1-0.1
			c1.2,0.1,2.3,0.3,3.4,0.7c0,0,0,0,0,0c0,0,0,0,0.1,0.1c0.1,0.1,0.2,0.3,0.3,0.4c0.3,0.1,0.5,0.2,0.8,0.3c0,0.1,0,0.2,0.1,0.2
			c0.2,0.2,0.4,0.4,0.6,0.6c0,0,0,0,0.1,0c0.1,0.1,0.1,0.1,0.1,0.2c0,0.3,0.2,0.8,0.4,0.7c0.2-0.1,0.5-0.1,0.6-0.2
			c0.1,0,0.3-0.2,0.5-0.4c0.1-0.1,0.2,0,0.4,0c0.1,0,0.3-0.2,0.3-0.2c0.1-0.1,0.1-0.1,0.2-0.2c1-0.6,2.1-2.3,2.2-3.7
			c0-0.1,0.1-0.1,0.1-0.2c0,0,0-0.1,0-0.1C50,75.3,50.1,74.4,50.1,73.8z"/>
		<path fill="#CA6373" d="M45.1,80.4c-0.1-0.1-0.3-0.3-0.4-0.4c0-0.1-0.1-0.1-0.1-0.1c0,0-0.2,0-0.2-0.1C44,79.3,43,78.2,40,78v0
			c0,0-0.1,0-0.1,0c-0.1,0-0.2,0-0.3,0.1c-0.5,0-1,0-1.5,0c-0.1,0-0.2,0-0.3,0.1c0,0-0.1,0-0.1,0c-0.1,0-0.2,0-0.3,0.1
			c0,0,0,0-0.1,0c-0.1,0-0.2,0-0.2,0c-0.1,0-0.2,0-0.3,0c-0.3,0-0.6,0.4-0.4,0.6c0,0.1,0.2,0.3,0.4,0.4c0.2,0.1,0.1,0.3,0.3,0.4
			c0,0.1,0.1,0.1,0.2,0.2c0.3,0.3,0.5,0.5,0.9,0.7c0.1,0,0.3,0.2,0.4,0.2c0,0,0.2,0.1,0.2,0.1c0.3,0.2,0.3,0.1,0.6,0.2
			c0.1,0,0.4,0.1,0.4,0.1c0.5,0.1,0.9,0.3,1.4,0.4c1.1,0.3,2-0.1,3.2-0.4c0,0,0.1,0,0.1-0.1C45.1,81.1,45.4,80.7,45.1,80.4z"/>
		<g>
			<g>
				<path d="M27.3,67.5c0.7,4.8,1.5,8.8,5,12.3c3,3,7.3,4.7,11.5,4.3c8.9-0.9,15.5-10.3,13.7-18.9C57.3,64.9,57,65,57,65.2
					c-0.2,4.3-0.4,8.1-2.9,11.9c-2.4,3.6-7.1,5.9-11.3,6.4c-4,0.4-8-2-10.8-4.6c-3.2-3.1-3.7-7.3-4.5-11.4
					C27.5,67.3,27.3,67.3,27.3,67.5L27.3,67.5z"/>
			</g>
			<g>
				<path d="M26.8,63.4c-2.2-0.9-3.6,1.3-3.3,3.3c0.3,1.9,2.3,4.3,4.4,3.3c0.2-0.1,0.1-0.3-0.1-0.3c-1.6,0.2-2.7-0.4-3.5-1.8
					c-1.1-1.8-0.1-5.1,2.5-4.2C26.9,63.7,26.9,63.4,26.8,63.4L26.8,63.4z"/>
			</g>
			<g>
				<path d="M25.6,65.4c-1,0.4-0.7,2.6,0.5,2.4c0.1,0,0.1-0.1,0-0.2c-0.2-0.3-0.5-0.5-0.6-0.9c-0.1-0.5,0.1-0.7,0.3-1.1
					C25.9,65.5,25.8,65.3,25.6,65.4L25.6,65.4z"/>
			</g>
			<g>
				<path d="M58,60.9c2.5-1.1,3.5,1.8,3,3.6c-0.4,1.6-1.8,2.5-3.4,2.5c-0.2,0-0.2,0.3,0,0.3c1.9,0.7,3.9-1.6,4-3.4
					c0.1-2-1.2-4.6-3.6-3.3C57.7,60.8,57.8,61,58,60.9L58,60.9z"/>
			</g>
			<g>
				<path d="M59,62.9c0.3,0.3,0.4,0.5,0.4,1c0,0.4-0.3,0.7-0.5,1c0,0.1,0,0.2,0.1,0.2c1.2,0.1,1.3-2.2,0.2-2.5
					C59,62.5,58.9,62.7,59,62.9L59,62.9z"/>
			</g>
			<g>
				<path d="M26.5,63.4c1.9,2.1,3.2-2.8,3.2-4c0.2-5.7,4.3-3.8,7.9-3.7c2.4,0.1,4.7-1.2,6.9-2c0.2-0.1,0.1-0.4-0.1-0.4
					c-2.4,0.4-4.4,1.7-6.8,1.9c-1.9,0.2-3.5-0.8-5.4-0.5c-1.2,0.2-2,1.1-2.5,2.1c-0.2,0.4-0.9,8.1-2.9,6.3
					C26.6,63.2,26.4,63.3,26.5,63.4L26.5,63.4z"/>
			</g>
			<g>
				<path d="M42.7,54.2c4.4-1,11.8-1.4,13,4.4c0.2,1,0.8,3.1,2.2,2.4c0.2-0.1,0-0.4-0.2-0.3c-1.2,0.6-2-3.4-2.4-4.1
					c-0.7-1.3-2.1-2.1-3.4-2.7C49.4,52.6,45.1,52.8,42.7,54.2C42.6,54.1,42.6,54.2,42.7,54.2L42.7,54.2z"/>
			</g>
			<g>
				<path d="M24.9,63.7c-0.8-2.1-0.1-4.4-0.1-6.6c0-3.4,1.2-7.1,3.8-9.5c0.1-0.1,0-0.3-0.2-0.2c-0.8,0.6-1.6,1.1-2,2.1
					c-0.6,1.5-1.7,3-1.9,4.6c-0.2,2,0,4-0.2,5.9C24.2,61.4,24.1,62.5,24.9,63.7C24.9,63.8,24.9,63.7,24.9,63.7L24.9,63.7z"/>
			</g>
			<g>
				<path d="M28,48.1c3-2.9,6.5-3.1,10.4-2.9c2.7,0.1,5.2-1.2,7.8-1.2c0.2,0,0.2-0.2,0-0.3c-1.2-0.4-2.2,0-3.4,0.3
					c-2.6,0.7-5,0.6-7.7,0.5C32.9,44.5,29,46,28,48.1C27.9,48.1,27.9,48.1,28,48.1L28,48.1z"/>
			</g>
			<g>
				<path d="M45,43.9c3.1,0.6,5.8,0.5,8.6,2.2c3.3,2,4,6.6,4.5,10.2c0,0.1,0.2,0.1,0.2,0c0.1-3.4-1.1-7.7-3.8-9.9
					C51.8,44,48.4,43.9,45,43.9C44.9,43.8,44.9,43.9,45,43.9L45,43.9z"/>
			</g>
			<g>
				<path d="M58.1,55.2c-0.4,0.3,0,1.1,0,1.5c0.3,1.3,0,2.6,0.3,3.9c0,0.1,0.2,0.1,0.2,0c0.1-1,0.1-2.2,0-3.2
					c-0.1-0.4-0.2-0.8-0.3-1.3C58.3,55.8,58.3,55.5,58.1,55.2C58.1,55.2,58.1,55.2,58.1,55.2L58.1,55.2z"/>
			</g>
			<g>
				<path d="M41.7,68.4c0.4,0.4,1,0.4,1.4,0.7c0.7,0.6-0.3,1.4-0.8,1.7c-0.1,0.1-0.1,0.3,0.1,0.3c0.7,0,1.4-1,1.3-1.7
					c-0.1-0.8-1.3-1.3-2-1.3C41.7,68.2,41.6,68.3,41.7,68.4L41.7,68.4z"/>
			</g>
			<g>
				<path d="M35.3,73.8c4.8,0.9,10.2,0.6,15-0.3c0.1,0,0.1-0.2,0-0.2c-5,0.2-10,0.9-14.9,0.3C35.2,73.6,35.1,73.8,35.3,73.8
					L35.3,73.8z"/>
			</g>
			<g>
				<path d="M35.2,73.7c-0.9,4.5,2.2,7.4,6.3,7.9c5.3,0.6,8.6-3.1,8.8-8c0-0.3-0.4-0.3-0.4,0c-0.3,2.2-0.4,4-2,5.7
					c-1.4,1.5-3.5,1.9-5.5,2c-4.2,0.2-7.6-3.2-6.9-7.5C35.5,73.6,35.2,73.5,35.2,73.7L35.2,73.7z"/>
			</g>
			<g>
				<path d="M36.5,78.7c2.4-1.2,7.2-0.6,8.5,2.1c0.1,0.2,0.5,0,0.3-0.2c-1.4-2.8-6.5-3.6-9.1-2.1C36.2,78.5,36.3,78.8,36.5,78.7
					L36.5,78.7z"/>
			</g>
			<ellipse fill="#DB9286" cx="33.4" cy="70.6" rx="2.9" ry="1.6"/>
			<ellipse fill="#DB9286" cx="50.9" cy="69.7" rx="2.9" ry="1.6"/>
			<path d="M35.3,65.4c-0.5,0.1-0.9,0.1-1.3,0.6c-0.6,0.7-0.5,1.8,0.5,2.1c0.8,0.3,1.9,0,2.2-0.8c0.3-0.8-0.5-1.7-1.2-1.9
				c-0.3-0.1-0.7,0-0.9,0.1"/>
			<path fill="#FFFFFF" d="M35.5,65.6c-0.6,0.1-1.7,1-0.7,1.7C36.6,68.5,37.3,65.9,35.5,65.6"/>
			<g>
				<path d="M32.3,63.2c0.5,0,0.9-0.4,1.2-0.6c0.5-0.3,1-0.7,1.6-1c0.2-0.1,0.1-0.5-0.2-0.4c-0.7,0.2-1.2,0.4-1.8,0.8
					c-0.4,0.3-0.8,0.6-1,1.1C32.1,63.1,32.2,63.2,32.3,63.2L32.3,63.2z"/>
			</g>
			<path d="M49.9,64.5c-0.5,0.1-0.9,0.1-1.3,0.6c-0.6,0.7-0.5,1.8,0.5,2.1c0.8,0.3,1.9,0,2.2-0.8c0.3-0.8-0.5-1.7-1.2-1.9
				c-0.3-0.1-0.7,0-0.9,0.1"/>
			<path fill="#FFFFFF" d="M50.1,64.8c-0.5,0.1-1.6,0.9-0.6,1.5C51.1,67.5,51.8,65.1,50.1,64.8"/>
			<g>
				<path d="M53,61.9c-0.2-0.4-0.7-0.8-1.1-1c-0.6-0.3-1.2-0.5-1.9-0.6c-0.2,0-0.4,0.3-0.1,0.4c0.6,0.3,1.1,0.6,1.7,0.9
					c0.4,0.2,0.8,0.5,1.3,0.5C52.9,62,53,61.9,53,61.9L53,61.9z"/>
			</g>
		</g>
	</g>
</g>
<g>
	<rect x="85" y="35" fill="#881E80" width="85" height="56"/>
</g>
<g>
	<g>
		<path fill="#F5F5F5" d="M22,18c0,0.1,0,0.3-0.1,0.5s-0.1,0.3-0.2,0.5s-0.2,0.3-0.3,0.4s-0.3,0.1-0.5,0.1c-0.3,0-0.5,0-0.6-0.1
			s-0.2-0.2-0.3-0.4s-0.1-0.3-0.1-0.5s0-0.3,0-0.5s0-0.3-0.1-0.4s-0.1-0.1-0.3-0.1c-0.2,0-0.3,0.1-0.4,0.2S19.1,17.9,19,18
			s-0.2,0.4-0.2,0.6s-0.1,0.5-0.1,0.7s-0.1,0.4-0.1,0.6s0,0.4,0,0.5c0,0.2,0,0.4,0,0.6s0,0.4,0.1,0.7s0.2,0.4,0.3,0.5
			s0.3,0.2,0.5,0.2c0.2,0,0.3,0,0.5-0.1s0.3-0.1,0.4-0.1s0.3-0.1,0.5-0.1s0.3-0.1,0.5-0.1c0.2,0,0.3,0.1,0.4,0.2s0.2,0.3,0.2,0.5
			c0,0.2-0.1,0.5-0.2,0.7s-0.3,0.4-0.6,0.6s-0.5,0.3-0.8,0.4s-0.5,0.1-0.7,0.1c-0.6,0-1-0.1-1.4-0.4s-0.7-0.6-0.9-1
			s-0.4-0.9-0.5-1.3s-0.2-1-0.2-1.5c0-0.3,0-0.7,0.1-1.1s0.2-0.8,0.3-1.2s0.3-0.8,0.5-1.1s0.4-0.7,0.7-1s0.5-0.5,0.9-0.7
			S19.6,15,20,15c0.4,0,0.7,0.1,1,0.3s0.5,0.4,0.6,0.7s0.3,0.6,0.3,1S22,17.7,22,18z"/>
		<path fill="#F5F5F5" d="M25.1,24.3c-0.4,0-0.7-0.1-1-0.3s-0.5-0.5-0.8-0.8s-0.4-0.7-0.5-1.1s-0.2-0.8-0.2-1.2
			c0-0.4,0.1-0.8,0.2-1.3s0.3-0.8,0.5-1.2s0.5-0.7,0.8-0.9s0.7-0.3,1.2-0.3c0.4,0,0.8,0.1,1.1,0.4s0.6,0.5,0.7,0.9s0.3,0.7,0.4,1.2
			s0.1,0.8,0.1,1.2c0,0.4-0.1,0.8-0.2,1.3s-0.3,0.8-0.5,1.1s-0.5,0.6-0.8,0.8S25.5,24.3,25.1,24.3z M25.2,19c-0.1,0-0.2,0.1-0.3,0.2
			s-0.2,0.3-0.2,0.5s-0.1,0.4-0.1,0.6s0,0.4,0,0.5c0,0.2,0,0.4,0.1,0.6s0.1,0.4,0.1,0.6s0.1,0.3,0.2,0.5s0.2,0.2,0.3,0.2
			c0.1,0,0.2-0.1,0.3-0.2s0.2-0.3,0.2-0.4s0.1-0.4,0.1-0.6s0-0.4,0-0.6c0-0.2,0-0.4,0-0.6s-0.1-0.4-0.1-0.6s-0.1-0.3-0.2-0.4
			S25.3,19,25.2,19z"/>
		<path fill="#F5F5F5" d="M31.9,24.3c-0.1,0-0.2-0.1-0.3-0.2s-0.1-0.3-0.2-0.4s-0.1-0.3-0.1-0.5s0-0.3,0-0.4c0-0.2,0-0.5,0-0.7
			s0.1-0.5,0.1-0.7s0.1-0.5,0.1-0.7s0-0.5,0-0.7c0-0.1,0-0.2,0-0.3s0-0.2-0.1-0.3s-0.1-0.2-0.1-0.2s-0.1-0.1-0.2-0.1
			c-0.1,0-0.1,0.1-0.2,0.2s-0.2,0.2-0.2,0.4s-0.1,0.3-0.2,0.4s-0.1,0.3-0.1,0.3c0,0.2,0,0.3,0,0.5s0,0.4,0,0.5v0.7
			c0,0.1,0,0.3,0,0.4s0,0.3-0.1,0.4c0,0.1-0.1,0.3-0.1,0.4s-0.1,0.2-0.2,0.3s-0.2,0.2-0.3,0.2s-0.2,0.1-0.4,0.1
			c-0.2,0-0.3-0.1-0.4-0.2s-0.2-0.2-0.2-0.4s-0.1-0.3-0.1-0.5s0-0.4-0.1-0.6s0-0.4,0-0.5s0-0.3,0-0.4v-0.6c0-0.3,0-0.6,0-0.9
			s0-0.6,0-0.9c0-0.2,0-0.4,0-0.6s0-0.5,0.1-0.7s0.1-0.4,0.3-0.6s0.3-0.2,0.6-0.2c0.1,0,0.2,0,0.3,0.1s0.2,0.2,0.2,0.3
			s0.1,0.2,0.2,0.3s0.1,0.2,0.1,0.3c0.1-0.1,0.2-0.2,0.3-0.3s0.2-0.2,0.4-0.3s0.3-0.1,0.4-0.2s0.4-0.1,0.6-0.1
			c0.4,0,0.7,0.1,0.9,0.3s0.4,0.4,0.5,0.7s0.2,0.6,0.2,0.9s0,0.6,0,0.9c0,0.1,0,0.3,0,0.6s-0.1,0.6-0.1,0.9s-0.1,0.6-0.2,1
			s-0.2,0.6-0.3,0.9s-0.3,0.5-0.4,0.7S32.1,24.3,31.9,24.3z"/>
		<path fill="#F5F5F5" d="M36.8,24.3c-0.4,0-0.7-0.1-1-0.3s-0.5-0.5-0.8-0.8s-0.4-0.7-0.5-1.1s-0.2-0.8-0.2-1.2
			c0-0.4,0.1-0.8,0.2-1.3s0.3-0.8,0.5-1.2s0.5-0.7,0.8-0.9s0.7-0.3,1.2-0.3c0.4,0,0.8,0.1,1.1,0.4s0.6,0.5,0.7,0.9s0.3,0.7,0.4,1.2
			s0.1,0.8,0.1,1.2c0,0.4-0.1,0.8-0.2,1.3s-0.3,0.8-0.5,1.1s-0.5,0.6-0.8,0.8S37.2,24.3,36.8,24.3z M36.9,19c-0.1,0-0.2,0.1-0.3,0.2
			s-0.2,0.3-0.2,0.5s-0.1,0.4-0.1,0.6s0,0.4,0,0.5c0,0.2,0,0.4,0.1,0.6s0.1,0.4,0.1,0.6s0.1,0.3,0.2,0.5s0.2,0.2,0.3,0.2
			c0.1,0,0.2-0.1,0.3-0.2s0.2-0.3,0.2-0.4s0.1-0.4,0.1-0.6s0-0.4,0-0.6c0-0.2,0-0.4,0-0.6s-0.1-0.4-0.1-0.6s-0.1-0.3-0.2-0.4
			S37,19,36.9,19z M38.2,15.2c0,0.1,0,0.2-0.1,0.3s-0.1,0.2-0.2,0.2s-0.1,0.1-0.2,0.2S37.6,16,37.6,16c-0.1,0-0.1,0.1-0.2,0.1
			s-0.1,0.1-0.2,0.1s-0.1,0.1-0.2,0.1s-0.1,0-0.2,0c-0.1,0-0.1,0-0.2-0.1s-0.1-0.1-0.1-0.2c0-0.1,0-0.3,0.1-0.4s0.2-0.3,0.3-0.5
			s0.3-0.3,0.4-0.4s0.3-0.2,0.4-0.2c0.1,0,0.2,0,0.3,0.1S38.2,15.1,38.2,15.2z"/>
		<path fill="#F5F5F5" d="M44.6,19.5c0,0,0,0.1,0,0.1s0,0.1,0,0.1c-0.1,0.2-0.2,0.3-0.3,0.5s-0.3,0.2-0.5,0.2
			c-0.3,0-0.5-0.2-0.6-0.5c0,0,0-0.1,0-0.1s0-0.1,0-0.2v-0.3c0-0.1,0-0.2-0.1-0.3s-0.1-0.1-0.2-0.1c-0.1,0-0.3,0.1-0.4,0.3
			s-0.2,0.4-0.3,0.6s-0.2,0.5-0.2,0.7s-0.1,0.4-0.1,0.6c0,0.1,0,0.3,0,0.4s0,0.3,0.1,0.5s0.1,0.3,0.2,0.4s0.2,0.2,0.3,0.2
			s0.3,0,0.4-0.1s0.2-0.2,0.3-0.3c0.1-0.1,0.2-0.2,0.3-0.3s0.3-0.2,0.4-0.2c0.2,0,0.3,0.1,0.5,0.2s0.2,0.3,0.2,0.5
			c0,0.3-0.1,0.5-0.2,0.7s-0.3,0.4-0.5,0.6s-0.4,0.3-0.7,0.4s-0.5,0.1-0.7,0.1c-0.4,0-0.8-0.1-1.1-0.3s-0.5-0.5-0.7-0.8
			s-0.3-0.7-0.4-1.1s-0.1-0.7-0.1-1.1c0-0.4,0.1-0.8,0.2-1.3s0.3-0.9,0.5-1.3s0.5-0.7,0.9-1s0.8-0.4,1.3-0.4c0.3,0,0.6,0.1,0.8,0.2
			s0.4,0.3,0.6,0.5s0.3,0.5,0.3,0.7s0.1,0.5,0.1,0.8c0,0,0,0.1,0,0.1S44.6,19.4,44.6,19.5z"/>
		<path fill="#F5F5F5" d="M50.6,21.9c0,0.3-0.1,0.5-0.3,0.8s-0.4,0.5-0.6,0.7s-0.5,0.4-0.8,0.5S48.3,24,48.1,24
			c-0.4,0-0.8-0.1-1.1-0.3s-0.6-0.5-0.8-0.8s-0.4-0.7-0.5-1.1s-0.2-0.8-0.2-1.1c0-0.4,0.1-0.8,0.2-1.3s0.3-0.9,0.5-1.2
			s0.5-0.7,0.8-0.9s0.7-0.4,1.2-0.4c0.3,0,0.5,0,0.8,0.1s0.5,0.2,0.6,0.4s0.3,0.4,0.4,0.6s0.2,0.5,0.2,0.8c0,0.4-0.1,0.7-0.2,1
			s-0.4,0.6-0.6,0.8s-0.6,0.4-0.9,0.6s-0.7,0.2-1,0.2c0,0.2,0.1,0.4,0.3,0.5s0.3,0.2,0.5,0.2c0.2,0,0.3,0,0.5-0.1s0.3-0.2,0.4-0.3
			s0.3-0.2,0.4-0.3s0.3-0.1,0.4-0.1c0.2,0,0.3,0.1,0.4,0.2S50.6,21.7,50.6,21.9z M48.7,19c0-0.1,0-0.2-0.1-0.3s-0.1-0.2-0.3-0.2
			c-0.2,0-0.3,0-0.4,0.1s-0.2,0.2-0.3,0.3s-0.1,0.3-0.2,0.4s-0.1,0.3-0.1,0.4c0.1,0,0.2-0.1,0.4-0.1s0.3-0.1,0.4-0.2
			s0.3-0.2,0.4-0.3S48.7,19.1,48.7,19z"/>
		<path fill="#F5F5F5" d="M54.7,24.3c-0.1,0-0.2-0.1-0.3-0.2s-0.1-0.3-0.2-0.4s-0.1-0.3-0.1-0.5s0-0.3,0-0.4c0-0.2,0-0.5,0-0.7
			s0.1-0.5,0.1-0.7s0.1-0.5,0.1-0.7s0-0.5,0-0.7c0-0.1,0-0.2,0-0.3s0-0.2-0.1-0.3s-0.1-0.2-0.1-0.2s-0.1-0.1-0.2-0.1
			c-0.1,0-0.1,0.1-0.2,0.2s-0.2,0.2-0.2,0.4s-0.1,0.3-0.2,0.4s-0.1,0.3-0.1,0.3c0,0.2,0,0.3,0,0.5s0,0.4,0,0.5v0.7
			c0,0.1,0,0.3,0,0.4s0,0.3-0.1,0.4c0,0.1-0.1,0.3-0.1,0.4s-0.1,0.2-0.2,0.3s-0.2,0.2-0.3,0.2s-0.2,0.1-0.4,0.1
			c-0.2,0-0.3-0.1-0.4-0.2s-0.2-0.2-0.2-0.4s-0.1-0.3-0.1-0.5s0-0.4-0.1-0.6s0-0.4,0-0.5s0-0.3,0-0.4v-0.6c0-0.3,0-0.6,0-0.9
			s0-0.6,0-0.9c0-0.2,0-0.4,0-0.6s0-0.5,0.1-0.7s0.1-0.4,0.3-0.6s0.3-0.2,0.6-0.2c0.1,0,0.2,0,0.3,0.1s0.2,0.2,0.2,0.3
			s0.1,0.2,0.2,0.3S53,18,53,18c0.1-0.1,0.2-0.2,0.3-0.3s0.2-0.2,0.4-0.3s0.3-0.1,0.4-0.2s0.4-0.1,0.6-0.1c0.4,0,0.7,0.1,0.9,0.3
			s0.4,0.4,0.5,0.7s0.2,0.6,0.2,0.9s0,0.6,0,0.9c0,0.1,0,0.3,0,0.6s-0.1,0.6-0.1,0.9s-0.1,0.6-0.2,1s-0.2,0.6-0.3,0.9
			s-0.3,0.5-0.4,0.7S54.9,24.3,54.7,24.3z"/>
		<path fill="#F5F5F5" d="M59.6,24.3c-0.4,0-0.7-0.1-1-0.3s-0.5-0.5-0.8-0.8s-0.4-0.7-0.5-1.1s-0.2-0.8-0.2-1.2
			c0-0.4,0.1-0.8,0.2-1.3s0.3-0.8,0.5-1.2s0.5-0.7,0.8-0.9s0.7-0.3,1.2-0.3c0.4,0,0.8,0.1,1.1,0.4s0.6,0.5,0.7,0.9s0.3,0.7,0.4,1.2
			s0.1,0.8,0.1,1.2c0,0.4-0.1,0.8-0.2,1.3s-0.3,0.8-0.5,1.1S61,23.8,60.7,24S60,24.3,59.6,24.3z M59.7,19c-0.1,0-0.2,0.1-0.3,0.2
			s-0.2,0.3-0.2,0.5S59.1,20,59,20.2s0,0.4,0,0.5c0,0.2,0,0.4,0.1,0.6s0.1,0.4,0.1,0.6s0.1,0.3,0.2,0.5s0.2,0.2,0.3,0.2
			c0.1,0,0.2-0.1,0.3-0.2s0.2-0.3,0.2-0.4s0.1-0.4,0.1-0.6s0-0.4,0-0.6c0-0.2,0-0.4,0-0.6s-0.1-0.4-0.1-0.6s-0.1-0.3-0.2-0.4
			S59.8,19,59.7,19z"/>
		<path fill="#F5F5F5" d="M66.5,17.5c0,0.2-0.1,0.4-0.2,0.5s-0.3,0.2-0.5,0.3s-0.4,0.2-0.5,0.3S65,19,65,19.3c0,0.1,0,0.3,0.1,0.4
			s0.1,0.2,0.2,0.3s0.2,0.2,0.3,0.3s0.2,0.2,0.3,0.3s0.2,0.2,0.2,0.4s0.1,0.3,0.1,0.6c0,0.3-0.1,0.7-0.3,1s-0.4,0.6-0.6,0.8
			s-0.6,0.4-0.9,0.6s-0.7,0.2-1,0.2c-0.1,0-0.3,0-0.4,0S63,24,62.9,23.9s-0.2-0.1-0.3-0.2s-0.1-0.2-0.1-0.4c0-0.2,0-0.4,0.1-0.5
			s0.2-0.2,0.3-0.3s0.3-0.1,0.4-0.2s0.3-0.1,0.4-0.1s0.2-0.1,0.3-0.2s0.1-0.2,0.1-0.4c0-0.2-0.1-0.3-0.2-0.5s-0.3-0.4-0.4-0.6
			s-0.3-0.4-0.4-0.6S63,19.4,63,19.1c0-0.3,0.1-0.6,0.2-0.9s0.3-0.5,0.6-0.7s0.5-0.4,0.8-0.5s0.6-0.2,0.9-0.2c0.1,0,0.2,0,0.4,0
			s0.2,0.1,0.3,0.1s0.2,0.1,0.2,0.2S66.5,17.4,66.5,17.5z"/>
	</g>
</g>
<rect x="85" y="6" fill="#3E3E3D" width="1" height="24"/>
<g>
	<g>
		<rect x="16.6" y="25.5" fill="#F5F5F5" width="5.4" height="1.5"/>
	</g>
</g>
</svg>
