<?xml version="1.0" encoding="utf-8"?>
<!-- Generator: Adobe Illustrator 18.1.0, SVG Export Plug-In . SVG Version: 6.00 Build 0)  -->
<svg version="1.0" id="Capa_1_copia" xmlns="http://www.w3.org/2000/svg" xmlns:xlink="http://www.w3.org/1999/xlink" x="0px"
	 y="0px" viewBox="0 0 85 91" enable-background="new 0 0 85 91" xml:space="preserve">
<rect x="-170" fill="#575756" width="1280" height="35"/>
<g>
	<rect x="85" y="35" fill="#8BBE37" width="85" height="56"/>
</g>
<g>
	<rect x="-85" y="35" fill="#881E80" width="85" height="56"/>
</g>
<g>
	<rect y="35" fill="#3A99D4" width="85" height="56"/>
	<g>
		<path fill="#FDEFBA" d="M63.9,49.9c-0.1,0.1-0.2,0.1-0.3,0.1c-0.2-0.1-0.4-0.1-0.6,0c-0.3-0.3-0.6-0.5-1-0.5c-0.4,0-0.7,0.2-1,0.4
			c-0.3-0.2-0.7-0.4-1.1-0.2c-0.6,0.2-1.4-0.4-1.9-0.6c-0.4-0.2-0.9-0.2-1.4-0.2c-0.1-0.1-0.3-0.2-0.5-0.3c-1.6-0.5-2-0.4-4-0.8
			c-0.5-0.1-1,0.1-1.3,0.5c-2.6-0.5-5.3-0.8-8-0.9c-0.2,0-0.4,0.1-0.6,0.2c-3.8-0.6-11.2-1.6-13.3-0.2c-2-0.1-4.1,0-5.8,0.8
			c-1,0-2.1,0.1-3.2,0.4c0,0-0.1,0-0.1,0.1c-0.1,0-0.3,0-0.4,0c-0.9,0-1,1.1-0.2,1.5c0.1,0.1,0.3,0.2,0.5,0.3
			c0.3,0.1,0.5,0.3,0.7,0.4c0,0.1,0.1,0.2,0.2,0.2c0,0,0,0,0,0c0,0,0,0,0,0c0.1,0.1,0.1,0.2,0.2,0.3c0,0.2,0,0.4,0.2,0.6
			c0.6,0.7,1.6,1.7,2.6,2.4c0.4,0.5,0.8,1,1.3,1.4c0.3,0.4,0.8,0.7,1.2,1c0.8,1.4,2.7,2.6,3.8,3.5c1.9,1.6,4.5,3.3,6.2,5.1
			c0.2,0.2,0.4,0.4,0.7,0.5c0.1,0.1,0.3,0.2,0.4,0.2c0.4,0.4,0.9,0.7,1.7,0.8c0.6,0.1,1.1,0.4,1.6,0.2c0.2,0.1,0.4,0.2,0.7,0.2
			c0.1,0.6,0.9,0.7,1.6,0.4c4.5-1.3,9.3-5.3,13-9.3c0.3,0.2,0.7,0.2,1.1-0.1c0.4-0.3,0.8-0.6,1.1-0.9c0.6-0.6,1.2-1.1,1.7-1.8
			c0.4-0.4,0.9-0.8,1.4-1.2c0.7-0.5,1.4-1.1,1.9-1.9c0.1,0,0.2-0.1,0.3-0.2c0,0,0.1-0.1,0.1-0.1c0.1,0,0.2,0,0.3-0.1
			c0.2-0.1,0.5-0.3,0.7-0.4c0.3-0.1,0.7-0.3,0.9-0.5C65.8,50.6,64.8,49.4,63.9,49.9z"/>
		<path fill="#FCE68D" d="M64.8,51.2c-0.1,0.2-0.3,0.5-0.4,0.7c-1.1,0.7-1.1,0.7-1.8,1.8c0,0,0,0,0,0c0,0-0.1,0-0.1,0
			c-1.9,0.4-3.2,1.8-4.3,3.3c-0.1,0.1-0.2,0.3-0.2,0.5c-0.3,0.2-0.6,0.5-1,0.8c-2.2,1.4-4.2,3-6,4.9c-1.3,0.9-2.6,1.4-3.7,2.4
			c-0.2-0.1-0.3,0.3-0.6,0.3c-2.1,0.7-4,1.5-6.2,1.7c-3-1.3-5.8-3.2-8.6-4.8c-0.1-0.1-0.2-0.1-0.3-0.1c0,0,0-0.1-0.1-0.1
			c-1.2-1.1-2.3-2.1-3.6-2.9c-0.1-0.1-0.1-0.1-0.2-0.2c-0.2-0.1-0.3-0.2-0.5-0.2c-0.1,0-0.2-0.1-0.2-0.1c0,0,0-0.1,0-0.1
			c-2.2-2.5-4.4-5.2-7-7.3c-0.4-0.5-0.7-1-1.1-1.6c-0.3-0.4-1-0.2-0.8,0.3l0.3,0.6c0.1,0,0.1,0,0.2-0.1c0.1,0.1,0.2,0.2,0.3,0.3
			c-0.1,0-0.2,0-0.3,0c-0.1-0.1-0.2-0.2-0.3-0.3c0.1,0.1,0.1,0.2,0.2,0.3c-0.1,0.1-0.3,0.2-0.3,0.4c0,0.6,0,0.7,0.2,1.4
			c0,0,0,0.1,0.1,0.1c0,0,0,0,0,0c-0.1,0.1-0.2,0.3-0.2,0.6c0.1,1.2,0.2,2.3,0.3,3.5c0,0.8-0.1,1.7-0.1,2.5
			c-0.1,1.2-0.1,2.4,0.1,3.7c-0.2,0.6-0.2,1.2,0.1,1.7c-0.1,0.3-0.1,0.6-0.1,0.9c0.1,0.8,0.2,1.4,0.2,1.9c0.1,2.5-0.1,4.7,0.9,6.8
			c0,0.5,0.2,1,0.5,1.4c0.6,0.9,1.3,1.7,2.3,2.3c0.3,0.2,0.6,0.4,0.9,0.4c2.4,1.2,6.1,0.4,9,0.6c0.2,0,0.4,0,0.6-0.1
			c0,0,0.1,0,0.1,0c1.5,0.2,3,0.3,4.6,0.3c0,0,0.1,0,0.1,0c4.5,0.4,9.3,0.8,13.9,0.4c0.2,0.2,0.4,0.3,0.8,0.3
			c2.6,0.1,5.1,0.3,7.7-0.4c0.3-0.1,0.5-0.2,0.6-0.5c1.7-0.4,3-1.3,3.8-3.2c1.1-2.6,2-7.7,0.6-10.5c0-0.6,0-1.2,0-1.8
			c0.1-0.2,0.2-0.4,0.3-0.6c0.1-1,0.1-1.8-0.2-2.6c0.1-0.1,0.1-0.3,0.1-0.5c-0.1-1.4-0.2-2.9-0.3-4.3c0.2-1.6,0.5-3.1,0.8-4.7
			C66,51,65.1,50.6,64.8,51.2z"/>
		<g>
			<path d="M65.9,65.2c-0.1-0.9-0.1-1.7-0.1-2.6c-0.1-1.8,0-3.7,0.1-5.5c0.1-2.2,0.3-4.5,0.1-6.8c0-0.1,0.1-0.1,0.1-0.2
				c0-0.2-0.1-0.4-0.3-0.5c-7.5-1.4-14.4-2.3-20.9-2.7c-7-0.4-12.4-0.4-17.5,0c-0.5,0-1,0.1-1.5,0.1c-2.7,0.1-5.8,0.3-7.8,1.9
				c0,0-0.1,0.1-0.1,0.1c0,0,0,0,0,0c-0.1,0.1-0.1,0.1-0.1,0.2c0.3,3.2,0.1,6.6-0.1,9.9c-0.3,5.2-0.6,10.5,0.9,15.4
				c1.1,3.8,4,4.7,6.9,5.1c3.7,0.5,7.5,0.6,11.2,0.7c2,0.1,4.1,0.1,6.1,0.3c1,0.1,2,0.1,3,0.2c2.7,0.2,5.5,0.4,8.3,0.4
				c1.9,0,3.6-0.1,5.1-0.3c3-0.4,5.1-2.1,6-4.7C66.4,72.8,66.1,68.9,65.9,65.2z M34.3,47.6c3.9,0,7.7,0.2,11.7,0.5
				c4,0.3,8.1,0.8,12,1.4c2.2,0.3,4.5,0.6,6.8,0.9c-2.5,2.5-5.2,4.8-7.8,7c-1,0.8-2,1.7-3,2.5c-3.4,3-9.9,6.9-12.4,7.1
				c-4.3-1.1-9.2-4.6-12.7-7.5l-0.3-0.2c-2-1.7-3.8-3.7-5.5-5.7c-1.3-1.5-2.7-3-4.1-4.4c2.8-1.3,6.3-1.4,9.5-1.5c0.7,0,1.4,0,2-0.1
				C31.6,47.7,32.9,47.6,34.3,47.6z M51.6,62.9c4.7-3.4,9.4-7.4,13.6-11.6c0,1.4-0.1,2.9-0.2,4.3c-0.1,1.3-0.2,2.6-0.2,3.9
				c0,1.8,0,3.7,0.1,5.4c0.1,2.5,0.2,5.1,0,7.6c-0.1,1.7-0.3,3.5-1.3,5.1c-1.5,2.6-5.4,2.6-7.5,2.6c-0.3,0-0.6,0-0.9,0
				c-3.8,0-7.6-0.2-11.3-0.5l-1-0.1c-4.3-0.3-8.7-0.5-12.9-0.7L28.7,79c-2.4-0.1-4.8-0.2-6.9-1.3c-2.5-1.3-2.9-5.8-3-7.8
				c-0.2-3-0.1-6.1,0-9.1c0.1-3.5,0.2-7.1-0.2-10.6c3,4.2,7.1,8,10.1,10.4l0.3,0.2c3.2,2.7,7.6,6.3,11.8,7.1c0,0,0.3,0.2,1.1,0.2
				C41.8,68.1,44.7,67.9,51.6,62.9z"/>
			<path d="M22.6,76.3c0.1,0,0.1,0,0.2-0.1c1.3-1.1,2.5-2.3,3.8-3.4c2.2-2,4.6-4.1,6.9-6.1c0.1-0.1,0.1-0.2,0.1-0.3
				c-0.1-0.2-0.3-0.3-0.5-0.2c-1.6,0.8-3,2.2-4.3,3.4c-0.3,0.3-0.5,0.5-0.8,0.8c-0.6,0.5-1.1,1-1.7,1.5c-1.3,1.2-2.7,2.4-3.9,3.9
				c-0.1,0.1-0.1,0.2,0,0.3C22.4,76.2,22.5,76.3,22.6,76.3z"/>
			<path d="M61.5,76.3c-0.1,0-0.1,0-0.2-0.1c-1.3-1.1-2.5-2.3-3.8-3.4c-2.2-2-4.6-4.1-6.9-6.1c-0.1-0.1-0.1-0.2-0.1-0.3
				c0.1-0.2,0.3-0.3,0.5-0.2c1.6,0.8,3,2.2,4.3,3.4c0.3,0.3,0.5,0.5,0.8,0.8c0.6,0.5,1.1,1,1.7,1.5c1.3,1.2,2.7,2.4,3.9,3.9
				c0.1,0.1,0.1,0.2,0,0.3C61.7,76.2,61.6,76.3,61.5,76.3z"/>
		</g>
	</g>
</g>
<g>
	<g>
		<path fill="#F5F5F5" d="M17.4,18c0,0.1,0,0.3-0.1,0.5s-0.1,0.3-0.2,0.5s-0.2,0.3-0.3,0.4s-0.3,0.1-0.5,0.1c-0.3,0-0.5,0-0.6-0.1
			s-0.2-0.2-0.3-0.4s-0.1-0.3-0.1-0.5s0-0.3,0-0.5s0-0.3-0.1-0.4s-0.1-0.1-0.3-0.1c-0.2,0-0.3,0.1-0.4,0.2s-0.2,0.3-0.3,0.4
			s-0.2,0.4-0.2,0.6S14,19.1,14,19.3s-0.1,0.4-0.1,0.6s0,0.4,0,0.5c0,0.2,0,0.4,0,0.6s0,0.4,0.1,0.7s0.2,0.4,0.3,0.5
			s0.3,0.2,0.5,0.2c0.2,0,0.3,0,0.5-0.1s0.3-0.1,0.4-0.1s0.3-0.1,0.5-0.1s0.3-0.1,0.5-0.1c0.2,0,0.3,0.1,0.4,0.2s0.2,0.3,0.2,0.5
			c0,0.2-0.1,0.5-0.2,0.7s-0.3,0.4-0.6,0.6s-0.5,0.3-0.8,0.4s-0.5,0.1-0.7,0.1c-0.6,0-1-0.1-1.4-0.4s-0.7-0.6-0.9-1
			s-0.4-0.9-0.5-1.3s-0.2-1-0.2-1.5c0-0.3,0-0.7,0.1-1.1s0.2-0.8,0.3-1.2s0.3-0.8,0.5-1.1s0.4-0.7,0.7-1s0.5-0.5,0.9-0.7
			S15,15,15.4,15c0.4,0,0.7,0.1,1,0.3s0.5,0.4,0.6,0.7s0.3,0.6,0.3,1S17.4,17.7,17.4,18z"/>
		<path fill="#F5F5F5" d="M20.5,24.3c-0.4,0-0.7-0.1-1-0.3s-0.5-0.5-0.8-0.8s-0.4-0.7-0.5-1.1s-0.2-0.8-0.2-1.2
			c0-0.4,0.1-0.8,0.2-1.3s0.3-0.8,0.5-1.2s0.5-0.7,0.8-0.9s0.7-0.3,1.2-0.3c0.4,0,0.8,0.1,1.1,0.4s0.6,0.5,0.7,0.9s0.3,0.7,0.4,1.2
			s0.1,0.8,0.1,1.2c0,0.4-0.1,0.8-0.2,1.3s-0.3,0.8-0.5,1.1s-0.5,0.6-0.8,0.8S20.9,24.3,20.5,24.3z M20.6,19c-0.1,0-0.2,0.1-0.3,0.2
			s-0.2,0.3-0.2,0.5S20,20,19.9,20.2s0,0.4,0,0.5c0,0.2,0,0.4,0.1,0.6s0.1,0.4,0.1,0.6s0.1,0.3,0.2,0.5s0.2,0.2,0.3,0.2
			c0.1,0,0.2-0.1,0.3-0.2s0.2-0.3,0.2-0.4s0.1-0.4,0.1-0.6s0-0.4,0-0.6c0-0.2,0-0.4,0-0.6s-0.1-0.4-0.1-0.6s-0.1-0.3-0.2-0.4
			S20.7,19,20.6,19z"/>
		<path fill="#F5F5F5" d="M27.3,24.3c-0.1,0-0.2-0.1-0.3-0.2s-0.1-0.3-0.2-0.4s-0.1-0.3-0.1-0.5s0-0.3,0-0.4c0-0.2,0-0.5,0-0.7
			s0.1-0.5,0.1-0.7s0.1-0.5,0.1-0.7s0-0.5,0-0.7c0-0.1,0-0.2,0-0.3s0-0.2-0.1-0.3s-0.1-0.2-0.1-0.2s-0.1-0.1-0.2-0.1
			c-0.1,0-0.1,0.1-0.2,0.2s-0.2,0.2-0.2,0.4s-0.1,0.3-0.2,0.4s-0.1,0.3-0.1,0.3c0,0.2,0,0.3,0,0.5s0,0.4,0,0.5v0.7
			c0,0.1,0,0.3,0,0.4s0,0.3-0.1,0.4c0,0.1-0.1,0.3-0.1,0.4s-0.1,0.2-0.2,0.3s-0.2,0.2-0.3,0.2s-0.2,0.1-0.4,0.1
			c-0.2,0-0.3-0.1-0.4-0.2s-0.2-0.2-0.2-0.4S24.1,23.2,24,23s0-0.4-0.1-0.6s0-0.4,0-0.5s0-0.3,0-0.4v-0.6c0-0.3,0-0.6,0-0.9
			s0-0.6,0-0.9c0-0.2,0-0.4,0-0.6s0-0.5,0.1-0.7s0.1-0.4,0.3-0.6s0.3-0.2,0.6-0.2c0.1,0,0.2,0,0.3,0.1s0.2,0.2,0.2,0.3
			s0.1,0.2,0.2,0.3s0.1,0.2,0.1,0.3c0.1-0.1,0.2-0.2,0.3-0.3s0.2-0.2,0.4-0.3s0.3-0.1,0.4-0.2s0.4-0.1,0.6-0.1
			c0.4,0,0.7,0.1,0.9,0.3s0.4,0.4,0.5,0.7s0.2,0.6,0.2,0.9s0,0.6,0,0.9c0,0.1,0,0.3,0,0.6s-0.1,0.6-0.1,0.9s-0.1,0.6-0.2,1
			s-0.2,0.6-0.3,0.9S28,23.9,27.8,24S27.5,24.3,27.3,24.3z"/>
		<path fill="#F5F5F5" d="M32.7,24.4c-0.6,0-1-0.1-1.3-0.2s-0.5-0.3-0.7-0.6s-0.2-0.6-0.3-1s0-0.8,0-1.3c0-0.4,0-0.7,0-1.1
			s0.1-0.8,0.1-1.2c-0.1,0-0.2,0-0.3,0s-0.1,0-0.2,0c-0.2,0-0.5-0.1-0.7-0.2s-0.3-0.3-0.3-0.5c0-0.1,0.1-0.3,0.2-0.4
			s0.2-0.2,0.4-0.3s0.3-0.1,0.5-0.2s0.4-0.1,0.5-0.1c0-0.2,0-0.5,0-0.7s0.1-0.5,0.2-0.7s0.2-0.4,0.3-0.6s0.3-0.2,0.5-0.2
			c0.1,0,0.2,0,0.3,0.1s0.2,0.2,0.2,0.3s0.1,0.2,0.1,0.4s0,0.3,0,0.4c0,0.2,0,0.3,0,0.5s-0.1,0.4-0.1,0.6c0.1,0,0.2,0,0.3,0
			s0.1,0,0.1,0c0.1,0,0.3,0,0.4,0s0.3,0.1,0.4,0.1s0.2,0.1,0.3,0.2s0.1,0.2,0.1,0.3c0,0.1-0.1,0.3-0.2,0.4s-0.3,0.2-0.4,0.3
			s-0.4,0.1-0.6,0.2S32.6,19,32.4,19c0,0.3-0.1,0.6-0.1,0.9s0,0.5-0.1,0.8c0,0.1,0,0.3,0,0.4s0,0.3,0,0.4c0,0.1,0,0.2,0,0.4
			s0,0.3,0.1,0.4s0.1,0.2,0.2,0.3s0.2,0.1,0.4,0.1c0.1,0,0.2,0,0.3,0s0.2,0,0.4,0c0.2,0,0.3,0.1,0.4,0.2s0.1,0.3,0.1,0.5
			c0,0.2,0,0.3-0.1,0.4s-0.2,0.2-0.4,0.3s-0.3,0.1-0.5,0.2S32.8,24.4,32.7,24.4z"/>
		<path fill="#F5F5F5" d="M39.8,22.3c0,0.1,0,0.3,0,0.6s0,0.4-0.1,0.7s-0.1,0.4-0.3,0.6s-0.3,0.2-0.5,0.2c-0.3,0-0.5-0.1-0.7-0.3
			S38,23.6,38,23.3c-0.2,0.2-0.5,0.4-0.8,0.5s-0.6,0.2-1,0.2c-0.2,0-0.4-0.1-0.6-0.2s-0.4-0.2-0.5-0.4s-0.3-0.4-0.4-0.6
			s-0.1-0.4-0.1-0.6c0-0.4,0.1-0.7,0.3-1s0.5-0.5,0.8-0.7s0.7-0.4,1.1-0.5s0.7-0.2,1-0.2c0,0,0-0.1,0-0.1s0-0.1,0-0.1
			c0-0.2-0.1-0.4-0.2-0.6s-0.3-0.2-0.6-0.2c-0.2,0-0.4,0-0.5,0.1s-0.3,0.1-0.4,0.2s-0.2,0.2-0.4,0.2s-0.3,0.1-0.4,0.1
			c-0.2,0-0.3-0.1-0.4-0.2s-0.2-0.2-0.2-0.4c0-0.3,0.1-0.5,0.2-0.7s0.3-0.4,0.6-0.5s0.5-0.3,0.8-0.3s0.5-0.1,0.7-0.1
			c0.2,0,0.4,0,0.6,0.1s0.4,0.1,0.6,0.2s0.4,0.2,0.5,0.4s0.3,0.3,0.4,0.5c0.1,0.3,0.3,0.6,0.3,0.9s0.2,0.7,0.2,1s0.1,0.7,0.1,1
			S39.8,22,39.8,22.3z M37.9,21.9l0-0.8c0,0,0,0,0,0s0,0,0,0c-0.1,0-0.2,0-0.4,0.1s-0.3,0.1-0.4,0.2s-0.3,0.2-0.4,0.3
			s-0.1,0.2-0.1,0.3c0,0.1,0,0.2,0.1,0.2s0.2,0.1,0.3,0.1c0.2,0,0.4,0,0.6-0.1S37.7,22,37.9,21.9z M38.5,15.1c0,0.1,0,0.2-0.1,0.3
			s-0.1,0.2-0.2,0.2s-0.1,0.1-0.2,0.2s-0.1,0.1-0.2,0.2c-0.1,0-0.1,0.1-0.2,0.1s-0.1,0.1-0.2,0.1s-0.1,0.1-0.2,0.1s-0.1,0-0.2,0
			c-0.1,0-0.1,0-0.2-0.1s-0.1-0.1-0.1-0.2c0-0.1,0-0.3,0.1-0.4s0.2-0.3,0.3-0.5s0.3-0.3,0.4-0.4s0.3-0.2,0.4-0.2
			c0.1,0,0.2,0,0.3,0.1S38.5,15,38.5,15.1z"/>
		<path fill="#F5F5F5" d="M45.2,19.5c0,0,0,0.1,0,0.1s0,0.1,0,0.1c-0.1,0.2-0.2,0.3-0.3,0.5s-0.3,0.2-0.5,0.2
			c-0.3,0-0.5-0.2-0.6-0.5c0,0,0-0.1,0-0.1s0-0.1,0-0.2v-0.3c0-0.1,0-0.2-0.1-0.3s-0.1-0.1-0.2-0.1c-0.1,0-0.3,0.1-0.4,0.3
			s-0.2,0.4-0.3,0.6s-0.2,0.5-0.2,0.7s-0.1,0.4-0.1,0.6c0,0.1,0,0.3,0,0.4s0,0.3,0.1,0.5s0.1,0.3,0.2,0.4s0.2,0.2,0.3,0.2
			s0.3,0,0.4-0.1s0.2-0.2,0.3-0.3c0.1-0.1,0.2-0.2,0.3-0.3s0.3-0.2,0.4-0.2c0.2,0,0.3,0.1,0.5,0.2s0.2,0.3,0.2,0.5
			c0,0.3-0.1,0.5-0.2,0.7s-0.3,0.4-0.5,0.6s-0.4,0.3-0.7,0.4s-0.5,0.1-0.7,0.1c-0.4,0-0.8-0.1-1.1-0.3s-0.5-0.5-0.7-0.8
			s-0.3-0.7-0.4-1.1s-0.1-0.7-0.1-1.1c0-0.4,0.1-0.8,0.2-1.3s0.3-0.9,0.5-1.3s0.5-0.7,0.9-1s0.8-0.4,1.3-0.4c0.3,0,0.6,0.1,0.8,0.2
			s0.4,0.3,0.6,0.5s0.3,0.5,0.3,0.7s0.1,0.5,0.1,0.8c0,0,0,0.1,0,0.1S45.2,19.4,45.2,19.5z"/>
		<path fill="#F5F5F5" d="M48.9,24.4c-0.6,0-1-0.1-1.3-0.2s-0.5-0.3-0.7-0.6s-0.2-0.6-0.3-1s0-0.8,0-1.3c0-0.4,0-0.7,0-1.1
			s0.1-0.8,0.1-1.2c-0.1,0-0.2,0-0.3,0s-0.1,0-0.2,0c-0.2,0-0.5-0.1-0.7-0.2s-0.3-0.3-0.3-0.5c0-0.1,0.1-0.3,0.2-0.4
			s0.2-0.2,0.4-0.3s0.3-0.1,0.5-0.2s0.4-0.1,0.5-0.1c0-0.2,0-0.5,0-0.7s0.1-0.5,0.2-0.7s0.2-0.4,0.3-0.6s0.3-0.2,0.5-0.2
			c0.1,0,0.2,0,0.3,0.1s0.2,0.2,0.2,0.3s0.1,0.2,0.1,0.4s0,0.3,0,0.4c0,0.2,0,0.3,0,0.5s-0.1,0.4-0.1,0.6c0.1,0,0.2,0,0.3,0
			s0.1,0,0.1,0c0.1,0,0.3,0,0.4,0s0.3,0.1,0.4,0.1s0.2,0.1,0.3,0.2s0.1,0.2,0.1,0.3c0,0.1-0.1,0.3-0.2,0.4s-0.3,0.2-0.4,0.3
			s-0.4,0.1-0.6,0.2S48.9,19,48.7,19c0,0.3-0.1,0.6-0.1,0.9s0,0.5-0.1,0.8c0,0.1,0,0.3,0,0.4s0,0.3,0,0.4c0,0.1,0,0.2,0,0.4
			s0,0.3,0.1,0.4s0.1,0.2,0.2,0.3s0.2,0.1,0.4,0.1c0.1,0,0.2,0,0.3,0s0.2,0,0.4,0c0.2,0,0.3,0.1,0.4,0.2s0.1,0.3,0.1,0.5
			c0,0.2,0,0.3-0.1,0.4s-0.2,0.2-0.4,0.3s-0.3,0.1-0.5,0.2S49.1,24.4,48.9,24.4z"/>
		<path fill="#F5F5F5" d="M56,22.3c0,0.1,0,0.3,0,0.6s0,0.4-0.1,0.7s-0.1,0.4-0.3,0.6s-0.3,0.2-0.5,0.2c-0.3,0-0.5-0.1-0.7-0.3
			s-0.2-0.4-0.2-0.7c-0.2,0.2-0.5,0.4-0.8,0.5s-0.6,0.2-1,0.2c-0.2,0-0.4-0.1-0.6-0.2s-0.4-0.2-0.5-0.4s-0.3-0.4-0.4-0.6
			s-0.1-0.4-0.1-0.6c0-0.4,0.1-0.7,0.3-1s0.5-0.5,0.8-0.7s0.7-0.4,1.1-0.5s0.7-0.2,1-0.2c0,0,0-0.1,0-0.1s0-0.1,0-0.1
			c0-0.2-0.1-0.4-0.2-0.6s-0.3-0.2-0.6-0.2c-0.2,0-0.4,0-0.5,0.1s-0.3,0.1-0.4,0.2s-0.2,0.2-0.4,0.2s-0.3,0.1-0.4,0.1
			c-0.2,0-0.3-0.1-0.4-0.2S51,19,51,18.8c0-0.3,0.1-0.5,0.2-0.7s0.3-0.4,0.6-0.5s0.5-0.3,0.8-0.3s0.5-0.1,0.7-0.1
			c0.2,0,0.4,0,0.6,0.1s0.4,0.1,0.6,0.2s0.4,0.2,0.5,0.4s0.3,0.3,0.4,0.5c0.1,0.3,0.3,0.6,0.3,0.9s0.2,0.7,0.2,1s0.1,0.7,0.1,1
			S56,22,56,22.3z M54.2,21.9l0-0.8c0,0,0,0,0,0s0,0,0,0c-0.1,0-0.2,0-0.4,0.1s-0.3,0.1-0.4,0.2s-0.3,0.2-0.4,0.3s-0.1,0.2-0.1,0.3
			c0,0.1,0,0.2,0.1,0.2s0.2,0.1,0.3,0.1c0.2,0,0.4,0,0.6-0.1S54,22,54.2,21.9z"/>
		<path fill="#F5F5F5" d="M60.4,24.3c-0.1,0-0.2-0.1-0.3-0.2s-0.1-0.3-0.2-0.4s-0.1-0.3-0.1-0.5s0-0.3,0-0.4c0-0.2,0-0.5,0-0.7
			s0.1-0.5,0.1-0.7s0.1-0.5,0.1-0.7s0-0.5,0-0.7c0-0.1,0-0.2,0-0.3s0-0.2-0.1-0.3s-0.1-0.2-0.1-0.2s-0.1-0.1-0.2-0.1
			c-0.1,0-0.1,0.1-0.2,0.2s-0.2,0.2-0.2,0.4s-0.1,0.3-0.2,0.4s-0.1,0.3-0.1,0.3c0,0.2,0,0.3,0,0.5s0,0.4,0,0.5v0.7
			c0,0.1,0,0.3,0,0.4s0,0.3-0.1,0.4c0,0.1-0.1,0.3-0.1,0.4s-0.1,0.2-0.2,0.3s-0.2,0.2-0.3,0.2s-0.2,0.1-0.4,0.1
			c-0.2,0-0.3-0.1-0.4-0.2s-0.2-0.2-0.2-0.4s-0.1-0.3-0.1-0.5s0-0.4-0.1-0.6s0-0.4,0-0.5s0-0.3,0-0.4v-0.6c0-0.3,0-0.6,0-0.9
			s0-0.6,0-0.9c0-0.2,0-0.4,0-0.6s0-0.5,0.1-0.7s0.1-0.4,0.3-0.6s0.3-0.2,0.6-0.2c0.1,0,0.2,0,0.3,0.1s0.2,0.2,0.2,0.3
			s0.1,0.2,0.2,0.3s0.1,0.2,0.1,0.3c0.1-0.1,0.2-0.2,0.3-0.3s0.2-0.2,0.4-0.3s0.3-0.1,0.4-0.2s0.4-0.1,0.6-0.1
			c0.4,0,0.7,0.1,0.9,0.3s0.4,0.4,0.5,0.7s0.2,0.6,0.2,0.9s0,0.6,0,0.9c0,0.1,0,0.3,0,0.6s-0.1,0.6-0.1,0.9s-0.1,0.6-0.2,1
			s-0.2,0.6-0.3,0.9S61.1,23.9,61,24S60.6,24.3,60.4,24.3z"/>
		<path fill="#F5F5F5" d="M65.3,24.3c-0.4,0-0.7-0.1-1-0.3s-0.5-0.5-0.8-0.8s-0.4-0.7-0.5-1.1s-0.2-0.8-0.2-1.2
			c0-0.4,0.1-0.8,0.2-1.3s0.3-0.8,0.5-1.2s0.5-0.7,0.8-0.9s0.7-0.3,1.2-0.3c0.4,0,0.8,0.1,1.1,0.4s0.6,0.5,0.7,0.9s0.3,0.7,0.4,1.2
			s0.1,0.8,0.1,1.2c0,0.4-0.1,0.8-0.2,1.3s-0.3,0.8-0.5,1.1s-0.5,0.6-0.8,0.8S65.7,24.3,65.3,24.3z M65.4,19c-0.1,0-0.2,0.1-0.3,0.2
			s-0.2,0.3-0.2,0.5s-0.1,0.4-0.1,0.6s0,0.4,0,0.5c0,0.2,0,0.4,0.1,0.6s0.1,0.4,0.1,0.6s0.1,0.3,0.2,0.5s0.2,0.2,0.3,0.2
			c0.1,0,0.2-0.1,0.3-0.2s0.2-0.3,0.2-0.4s0.1-0.4,0.1-0.6s0-0.4,0-0.6c0-0.2,0-0.4,0-0.6s-0.1-0.4-0.1-0.6s-0.1-0.3-0.2-0.4
			S65.5,19,65.4,19z"/>
		<path fill="#F5F5F5" d="M72.2,17.5c0,0.2-0.1,0.4-0.2,0.5s-0.3,0.2-0.5,0.3s-0.4,0.2-0.5,0.3s-0.2,0.3-0.2,0.6
			c0,0.1,0,0.3,0.1,0.4s0.1,0.2,0.2,0.3s0.2,0.2,0.3,0.3s0.2,0.2,0.3,0.3s0.2,0.2,0.2,0.4s0.1,0.3,0.1,0.6c0,0.3-0.1,0.7-0.3,1
			s-0.4,0.6-0.6,0.8s-0.6,0.4-0.9,0.6s-0.7,0.2-1,0.2c-0.1,0-0.3,0-0.4,0s-0.3-0.1-0.4-0.1s-0.2-0.1-0.3-0.2s-0.1-0.2-0.1-0.4
			c0-0.2,0-0.4,0.1-0.5s0.2-0.2,0.3-0.3s0.3-0.1,0.4-0.2s0.3-0.1,0.4-0.1s0.2-0.1,0.3-0.2s0.1-0.2,0.1-0.4c0-0.2-0.1-0.3-0.2-0.5
			s-0.3-0.4-0.4-0.6s-0.3-0.4-0.4-0.6s-0.2-0.5-0.2-0.8c0-0.3,0.1-0.6,0.2-0.9s0.3-0.5,0.6-0.7s0.5-0.4,0.8-0.5s0.6-0.2,0.9-0.2
			c0.1,0,0.2,0,0.4,0s0.2,0.1,0.3,0.1s0.2,0.1,0.2,0.2S72.2,17.4,72.2,17.5z"/>
	</g>
</g>
<rect y="6" fill="#3E3E3D" width="1" height="24"/>
<rect x="85" y="6" fill="#3E3E3D" width="1" height="24"/>
<g>
	<g>
		<rect x="17.9" y="25.5" fill="#F5F5F5" width="5.4" height="1.5"/>
	</g>
</g>
</svg>
