<?xml version="1.0" encoding="utf-8"?>
<!-- Generator: Adobe Illustrator 18.1.0, SVG Export Plug-In . SVG Version: 6.00 Build 0)  -->
<svg version="1.0" id="Capa_1_copia" xmlns="http://www.w3.org/2000/svg" xmlns:xlink="http://www.w3.org/1999/xlink" x="0px"
	 y="0px" viewBox="0 0 85.1 90.9" enable-background="new 0 0 85.1 90.9" xml:space="preserve">
<rect x="-680" fill="#575756" width="1280" height="35"/>
<g>
	<rect x="-85" y="34.9" fill="#FCE68D" width="85" height="56"/>
</g>
<g>
	<rect x="0.1" y="34.9" fill="#CD1626" width="85" height="56"/>
	<g>
		<path fill="#F29313" d="M57.5,70.2c-0.8-1.5-1.9-2.8-3-4c0,0,0,0,0,0c-0.1-0.1-0.2-0.3-0.4-0.4c-0.6-0.5-1.2-0.6-1.8-0.4
			c-0.7-0.9-1.3-1.7-2-2.6c-1-1.3-2-2.7-3.4-3.7c-0.1-0.1-0.1-0.2-0.2-0.2c-0.2-0.3-0.5-0.4-0.8-0.4c-0.3-0.5-0.5-0.9-0.6-1.5
			c-0.3-1.1-2-1.1-2.1,0.1c0,0.3,0,0.7,0,1c0,0,0,0.1,0,0.1C43,58.5,43,58.7,43,58.9c-0.3,0.3-1.3,0.1-1.7,0c-0.2-0.1-0.4,0-0.6,0.1
			c0,0-0.1,0-0.1,0c0,0-0.1,0-0.1,0c0,0,0,0,0,0c-0.3,0-0.6,0.4-0.4,0.6c-0.1,0.5-0.1,0.9,0,1.5c0,0.1,0.1,0.2,0.2,0.3c0,0,0,0,0,0
			c-0.1,0.1-0.2,0.3-0.2,0.5c0,0.2,0,0.4,0,0.5c-0.3,0-0.5,0.1-0.6,0.2c-0.5-0.1-1-0.3-1.6-0.3c-0.7-0.1-1.1,0.6-0.9,1.2
			c0.1,0.2,0.1,0.3,0.1,0.4c0,0,0,0,0,0.1c0,0.3,0,0.5,0.1,0.8c0,0.1,0.1,0.1,0.1,0.2c0,0.1,0,0.2,0.1,0.3c0,0.1,0.1,0.1,0.1,0.1
			c-0.3,0.1-0.6,0-1-0.2c-0.2-0.1-0.5-0.2-0.7-0.4c-0.7-0.5-1.4,0.6-0.8,1.1c0.3,0.3,0.8,0.5,1.3,0.6c0,0.3,0.1,0.6,0.4,0.8
			c0.1,0,0.2,0.1,0.2,0.1c0,0,0,0,0,0c0,0,0,0,0.1,0c0.2,0.1,0.4,0.2,0.6,0.3c0.2,0.1,0.3,0.1,0.5,0c0.1,0,0.1,0,0.2,0
			c0,0.5,0.1,1,0.5,1.4c0.1,0.1,0.2,0.1,0.3,0.2c1.3,2.3,3.6,4.6,5.9,6.4c0,0.3,0.1,0.5,0.3,0.8c0.6,0.7,1.3,1.4,2.1,1.9
			c0.3,0.3,0.6,0.5,1,0.7c1.3,0.6,2.7-0.1,3.7-0.9c0.7-0.6,1.2-1.4,1.7-2.1c1.2-0.7,2.5-1.7,2.8-3.1C57.5,72.6,58.2,71.5,57.5,70.2z
			"/>
		<path fill="#37474F" d="M29.9,49.5c0-0.2-0.1-0.3-0.2-0.5c0,0,0,0,0,0c-0.5-0.6-1.2-0.5-1.6-0.1c0,0,0,0,0-0.1
			c-0.1,0.1-0.2,0.1-0.4,0.1c-0.8,0.3-1.1,1.8-0.3,2.2c0.1,0.1,0.1-0.1,0.2,0c-0.1,0.8,0.1,1.2,0.4,1.2c0,0.2,0.2,0.1,0.2,0.3
			c0.2,0.6,0.8,0.2,1.5-0.1c0.5-0.2,0.7-0.5,0.9-1c0,0,0.1,0,0.1-0.1c0.2-0.2,0.3-0.4,0.5-0.6C31.4,50.3,30.7,49.2,29.9,49.5z"/>
		<path fill="#FCCC81" d="M43.1,56.6c0.5-1.3-0.9-1.9-2.1-2.2c0,0,0,0,0,0c0,0,0,0,0,0c0,0-0.1,0-0.1,0l0,0c-0.2,0-0.5,0.1-0.6,0.2
			c-2-1.4-4.2-2.3-6.4-3.3c-0.1-0.1-0.3-0.1-0.4-0.1c-0.1-0.2-0.1-0.3-0.2-0.4c0,0,0-0.1-0.1-0.1c0,0,0,0,0,0
			c-0.6-0.8-1.9-0.6-2.1,0.5c0,0.1,0,0.2-0.1,0.3c0,0.1,0,0.1,0,0.1c0,0,0,0.1,0,0.1c-0.1,0.1-0.2,0.1-0.2,0.2c-0.1,0-0.2,0.1-0.4,0
			c-0.8,0.5-2.3,1.3-1.1,2.1c0.2,0.1,0.2,0.2,0.4,0.2c0,0.1,0,0.2,0,0.3c0.3,2.2,1.7,4.2,2.7,6.1c0.1,0.3,0.3,0.5,0.6,0.6
			c0.1,0.2,0.2,0.4,0.3,0.6c-0.1,0.1-0.2,0.2-0.2,0.4c0,0.9,0.3,1.5,1.1,2c0.4,0.2,0.9,0.3,1.3,0c0,0,0,0,0,0
			c0.8,0.2,1.7-0.4,1.5-1.3c-0.1-0.4-0.2-0.7-0.3-1.1c0,0,0.1,0,0.1-0.1c0.1-0.1,0.3-0.3,0.5-0.4c0.1,0,0.1,0,0.2,0.1
			c0.3,0.1,0.7,0.2,1,0.4c1.6,0.6,1.8-0.6,1.4-1.5c0-0.1-0.1-0.2-0.1-0.3l0,0c0,0,0,0,0,0c-0.2-0.3,0.2-0.5,0-0.9
			c0.6,0,0.6,0.1,0.8-0.4c0.4,0.1,0.5-0.1,0.9-0.2c-0.1,0.9,0.9,0.1,1,0.2c0.6,0.2,1-1,0.7-1.5C43.1,57,43.1,56.7,43.1,56.6z"/>
		<path fill="#ED6F11" d="M52.9,76.2c-1.2-1.4-2.5-2.7-3.8-3.9c-0.3-0.3-0.6-0.6-0.9-0.9c-2.4-3.2-5-6.3-7.9-9
			c-0.4-0.4-0.8-0.3-1.1,0c-0.6-0.4-1.2-0.5-1.8,0c-0.3,0.2-0.2,0.5,0,0.7c0,0,0,0,0,0c0,0,0.1,0,0.1,0.1c-0.2,0.4-0.3,0.9-0.2,1.3
			c-0.1,0.1-0.2,0.1-0.3,0.2c-0.6-0.1-1.1-0.1-1.6,0.3c-0.2,0.2-0.2,0.4-0.2,0.6l0,0c0,0,0,0.1,0,0.1c0,0.1,0,0.1,0.1,0.2
			c0.2,0.5,0.5,0.9,1,1.3c0,0.1,0,0.1,0.1,0.2c0.5,0.6,1,1,1.8,1.3c0,0,0.1,0,0.1,0c0.9,1.4,1.8,2.7,3.1,3.9c0.3,0.3,0.6,0.4,1,0.4
			c1.4,1.3,2.9,2.7,4.1,4.2c0.3,0.4,0.7,0.5,1.1,0.5c0.5,0.3,0.9,0.7,1.3,1.2c0.8,1,2.1,0.5,2.5-0.4c0.4,0,0.7-0.2,0.9-0.5
			C52.9,77.9,53.6,77,52.9,76.2z"/>
		<path fill="#D79E5C" d="M39,61.6L39,61.6c0-0.1-0.1-0.1-0.1-0.1c0,0-0.1-0.1-0.1-0.1c-0.3-0.2-0.7-0.5-1-0.7
			c-0.2-0.4-0.4-0.5-0.9-1c-0.2-0.2-0.4-0.4-0.6-0.6c-0.6-0.7-1.3-1.4-1.9-2.1c-0.7-0.8-1.5-1.6-2.3-2.4c0,0,0-0.1-0.1-0.1
			c-0.2-0.3-0.4-0.4-0.6-0.6c-0.2-0.2-0.4-0.4-0.6-0.6c-0.1-0.1-0.2-0.1-0.2-0.1c-0.1-0.1-0.2-0.3-0.4-0.4c-0.3-0.3-0.6-0.2-0.9,0.1
			c-0.5,0-0.8,0.6-0.4,1.1c0,0,0,0,0,0c0.1,0.1,0.2,0.3,0.3,0.4c0.1,0.1,0.2,0.1,0.3,0.2c-0.2,0.4-0.3,1,0.1,1.5
			c0.6,0.9,1.3,1.7,2.2,2.4c-0.5,0.4-0.7,1.2-0.2,2c0.4,0.5,0.7,1,1.2,1.5c0.1,0.1,0.3,0.2,0.5,0.3l0,0c-0.2,0.3-0.3,0.6-0.1,1
			c0,0,0,0,0,0c0,0.1,0.1,0.1,0.1,0.2c0,0,0,0,0,0.1c0,0,0,0,0,0c0.1,0.2,0.3,0.4,0.4,0.6c0.1,0.3,0.2,0.6,0.6,0.7l0.3,0.1
			c0.1,0.1,0.3,0.1,0.4,0.1c0.8,0.8,2.4,0.2,2.2-1.1c0,0,0,0,0.1,0c-0.1-0.6-0.2-1.2-0.3-1.8c0.1,0,0.3,0,0.4,0
			c0.3,0.1,0.7,0.3,1,0.4C39.1,62.8,39.3,62,39,61.6z"/>
		<g>
			<g>
				<path fill="#1D1E1C" d="M33.6,65.1c1.4,2.7,4.3,5.1,6.4,7.3c2.3,2.5,4.6,4.9,7.3,7.1c0.7,0.6,1.6-0.6,0.9-1.2
					c-2.8-2.3-5.2-4.9-7.6-7.5c-1.9-2-4-5.1-6.8-5.8C33.7,65,33.6,65.1,33.6,65.1L33.6,65.1z"/>
			</g>
			<g>
				<path fill="#1D1E1C" d="M47.4,79c1.3,3.5,12.1-4.8,10.7-8.8c-0.2-0.6-0.9-0.4-1.1,0c-0.4,0.9-0.6,1.8-1.1,2.7
					c-0.7,1.1-1.5,2.1-2.5,3c-0.9,0.9-1.9,1.6-3.1,2.2c-0.9,0.4-2,0.2-2.8,0.7C47.4,78.8,47.4,78.9,47.4,79L47.4,79z"/>
			</g>
			<g>
				<path fill="#1D1E1C" d="M58.2,70.3c-1.1-3.1-4.9-5.5-7.1-7.8c-2.3-2.3-4.6-6.6-7.9-7.4c-0.3-0.1-0.5,0.2-0.3,0.5
					c1,1.5,2.4,2.5,3.6,3.8c1.2,1.3,2.4,2.7,3.6,4c2.3,2.5,5,5.2,7.7,7.3C58,70.8,58.3,70.5,58.2,70.3L58.2,70.3z"/>
			</g>
			<g>
				<path fill="#1D1E1C" d="M33.8,65.2c0.1,0.1,0.3,0.2,0.5,0.2c0.8-0.1,1.6,0,2.4,0c0.2,0,0.4-0.1,0.5-0.2c0.1-0.2,0.2-0.3,0-0.5
					c-0.1-0.2-0.2-0.3-0.4-0.3c-1-0.1-1.8-0.1-2.7,0.2c-0.1,0-0.2,0.2-0.2,0.3C33.7,65.1,33.7,65.2,33.8,65.2L33.8,65.2z"/>
			</g>
			<g>
				<path fill="#1D1E1C" d="M37.3,65.1c-0.1-1-0.1-2-0.2-3c0-0.5-0.9-0.4-0.8,0.1c0.1,1,0.2,2,0.5,2.9
					C36.9,65.5,37.4,65.4,37.3,65.1L37.3,65.1z"/>
			</g>
			<g>
				<path fill="#1D1E1C" d="M36.7,62.1c1,0.2,2,0.8,3.1,0.5c0.3-0.1,0.3-0.5,0.1-0.6c-0.9-0.6-2.1-0.6-3.1-0.4
					C36.3,61.7,36.4,62.1,36.7,62.1L36.7,62.1z"/>
			</g>
			<g>
				<path fill="#1D1E1C" d="M40.1,62.3c0-1.2,0.2-2.7-0.3-3.8c-0.1-0.2-0.4-0.2-0.5,0c-0.3,1.2,0.1,2.6,0.3,3.8
					C39.7,62.6,40.1,62.6,40.1,62.3L40.1,62.3z"/>
			</g>
			<g>
				<path fill="#1D1E1C" d="M39.5,59c1.1,0.1,2.3,0.4,3.4,0.2c0.4-0.1,0.4-0.7,0-0.7c-1.1-0.2-2.3-0.3-3.4,0
					C39.2,58.4,39.2,58.9,39.5,59L39.5,59z"/>
			</g>
			<g>
				<path fill="#1D1E1C" d="M43,59c0.5-1.1,0.4-2.4,0.4-3.5c0-0.5-0.7-0.6-0.7-0.1c0,1.2-0.1,2.4,0.2,3.6C42.8,59.1,42.9,59.1,43,59
					L43,59z"/>
			</g>
			<g>
				<path fill="#1D1E1C" d="M34.1,65.1c-0.3-1.9-1.7-4-2.4-5.8c-1.2-3-2.8-5.9-4.4-8.7c-0.2-0.3-0.7-0.2-0.6,0.2
					c0.7,3.2,2.7,5.9,4,9c0.7,1.6,1.4,4.9,3.3,5.4C34,65.2,34.1,65.1,34.1,65.1L34.1,65.1z"/>
			</g>
			<g>
				<path fill="#1D1E1C" d="M27.3,51c-0.1-1,0.1-1.9,1.3-2.1c0.6-0.1,0.5-1-0.2-1c-1.5,0.1-2.8,2.1-1.5,3.3
					C27.1,51.4,27.3,51.2,27.3,51L27.3,51z"/>
			</g>
			<g>
				<path fill="#1D1E1C" d="M28,48.6c5.2,2.7,9.9,5.9,15.6,7.7c0.6,0.2,1-0.6,0.5-0.9c-2.2-1.7-5-2.5-7.5-3.6
					c-2.8-1.2-5.4-2.9-8.3-3.8C27.9,47.9,27.7,48.4,28,48.6L28,48.6z"/>
			</g>
			<g>
				<path fill="#1D1E1C" d="M28.6,53.3c1.6,0.2,2.9-1.4,3.2-2.8c0.2-0.7-1-0.9-1.1-0.1c-0.2,0.9-1.1,2.1-2.1,2.3
					C28.2,52.6,28.2,53.2,28.6,53.3L28.6,53.3z"/>
			</g>
		</g>
	</g>
</g>
<g>
	<g>
		<path fill="#F5F5F5" d="M32.8,22.1c0,0.1,0,0.3-0.1,0.4c-0.1,0.1-0.3,0.3-0.6,0.5s-0.6,0.3-1,0.5s-0.7,0.3-1,0.4s-0.6,0.2-0.7,0.2
			c-0.1,0-0.2,0-0.4-0.1s-0.3-0.1-0.4-0.2s-0.3-0.2-0.4-0.3s-0.2-0.2-0.3-0.3c0-0.1-0.1-0.2-0.1-0.3s-0.1-0.4-0.1-0.6s0-0.5-0.1-0.7
			s0-0.5,0-0.7s0-0.4,0-0.6s0-0.3,0-0.4c0-0.3,0-0.6,0-1s0.1-0.8,0.1-1.1s0.1-0.7,0.2-1.1s0.2-0.6,0.4-0.9c0.1-0.1,0.2-0.1,0.3-0.2
			s0.4-0.2,0.6-0.2s0.5-0.1,0.7-0.2s0.5-0.1,0.7-0.2s0.5-0.1,0.7-0.1s0.3,0,0.4,0c0.1,0,0.2,0,0.3,0.1s0.2,0.1,0.3,0.2
			s0.1,0.2,0.2,0.3s0.1,0.2,0.1,0.3c0,0.1,0,0.2,0,0.3s-0.1,0.1-0.1,0.2c-0.1,0.1-0.2,0.2-0.5,0.4s-0.5,0.3-0.8,0.4
			s-0.6,0.3-0.8,0.4s-0.5,0.2-0.6,0.2c0,0.2-0.1,0.4-0.1,0.5s-0.1,0.4-0.1,0.6c0.2-0.1,0.5-0.2,0.8-0.4s0.6-0.2,0.9-0.2
			c0.6,0,0.8,0.3,0.8,0.8c0,0.1,0,0.2-0.1,0.4s-0.1,0.2-0.2,0.3s-0.2,0.1-0.3,0.2s-0.2,0.1-0.3,0.2c-0.2,0.1-0.5,0.2-0.8,0.3
			s-0.5,0.2-0.8,0.3c0,0.1,0,0.1,0,0.2s0,0.1,0,0.2c0,0.1,0,0.2,0,0.3s0,0.2,0,0.3c0.1,0,0.2-0.1,0.5-0.2s0.4-0.1,0.7-0.2
			s0.4-0.1,0.7-0.2s0.4-0.1,0.5-0.1c0.1,0,0.2,0,0.3,0.1s0.2,0.1,0.3,0.2s0.1,0.2,0.2,0.3S32.8,22,32.8,22.1z"/>
		<path fill="#F5F5F5" d="M38.7,16.2c0,0.6,0,1.1-0.1,1.7s-0.1,1.1-0.1,1.7c0,0.5,0,0.9,0,1.4s0,0.9,0,1.4c0,0.1,0,0.3,0,0.5
			s0,0.3-0.1,0.5s-0.1,0.3-0.2,0.4s-0.2,0.2-0.4,0.2c-0.2,0-0.4-0.1-0.6-0.3s-0.2-0.4-0.3-0.6c-0.1,0.3-0.4,0.5-0.6,0.7
			s-0.6,0.3-0.9,0.3c-0.4,0-0.7-0.1-0.9-0.4s-0.5-0.5-0.6-0.9s-0.3-0.7-0.4-1.1s-0.1-0.7-0.1-1c0-0.2,0-0.4,0-0.7s0.1-0.5,0.1-0.8
			s0.1-0.5,0.2-0.8s0.2-0.5,0.4-0.7s0.3-0.4,0.5-0.5s0.4-0.2,0.7-0.2c0.3,0,0.6,0.1,0.8,0.2s0.5,0.4,0.6,0.6l0.1-1.9
			c0-0.1,0-0.3,0-0.5s0-0.4,0.1-0.6s0.1-0.3,0.2-0.5s0.3-0.2,0.5-0.2c0.2,0,0.4,0.1,0.5,0.2s0.2,0.2,0.3,0.4s0.1,0.3,0.1,0.5
			S38.7,16.1,38.7,16.2z M36.8,21.4c0-0.2,0-0.4,0-0.5s0-0.3,0-0.5c0-0.1-0.1-0.2-0.2-0.3s-0.1-0.2-0.2-0.3s-0.2-0.2-0.3-0.3
			s-0.2-0.1-0.4-0.1c-0.1,0-0.3,0-0.3,0.1s-0.1,0.2-0.2,0.3s-0.1,0.3-0.1,0.4s0,0.3,0,0.4c0,0.1,0,0.2,0,0.4s0,0.4,0.1,0.6
			s0.1,0.4,0.2,0.5s0.2,0.2,0.3,0.2c0.1,0,0.2,0,0.3-0.1s0.2-0.1,0.3-0.2s0.2-0.1,0.3-0.2S36.7,21.6,36.8,21.4L36.8,21.4z"/>
		<path fill="#F5F5F5" d="M41.9,19.8c0,0.1,0,0.2,0,0.3s0,0.2,0,0.3c0,0.1,0,0.3,0,0.5s0,0.5,0,0.7s0,0.5-0.1,0.8s-0.1,0.5-0.2,0.7
			s-0.2,0.4-0.3,0.5S41,24,40.8,24c-0.1,0-0.3-0.1-0.4-0.2s-0.2-0.3-0.3-0.5S40,22.9,40,22.6s-0.1-0.5-0.1-0.7s0-0.4,0-0.6
			s0-0.3,0-0.4c0-0.1,0-0.3,0-0.5s0-0.5,0-0.7s0-0.5,0.1-0.8s0.1-0.5,0.2-0.8s0.2-0.4,0.3-0.6s0.3-0.2,0.5-0.2
			c0.2,0,0.4,0.1,0.5,0.3s0.2,0.5,0.2,0.7s0.1,0.6,0.1,0.8S41.9,19.6,41.9,19.8z M41.8,15.8c0,0.1,0,0.2-0.1,0.3s-0.1,0.2-0.2,0.2
			s-0.2,0.1-0.3,0.2s-0.2,0.1-0.3,0.1c-0.2,0-0.3,0-0.4-0.1s-0.2-0.2-0.2-0.4c0-0.1,0-0.2,0.1-0.3s0.1-0.2,0.2-0.2s0.2-0.1,0.3-0.1
			s0.2,0,0.3,0c0.1,0,0.3,0,0.4,0.1S41.8,15.6,41.8,15.8z"/>
		<path fill="#F5F5F5" d="M45.8,24.4c-0.6,0-1-0.1-1.3-0.2s-0.5-0.3-0.7-0.6s-0.2-0.6-0.3-1s0-0.8,0-1.3c0-0.4,0-0.7,0-1.1
			s0.1-0.8,0.1-1.2c-0.1,0-0.2,0-0.3,0s-0.1,0-0.2,0c-0.2,0-0.5-0.1-0.7-0.2s-0.3-0.3-0.3-0.5c0-0.1,0.1-0.3,0.2-0.4
			s0.2-0.2,0.4-0.3s0.3-0.1,0.5-0.2s0.4-0.1,0.5-0.1c0-0.2,0-0.5,0-0.7s0.1-0.5,0.2-0.7s0.2-0.4,0.3-0.6s0.3-0.2,0.5-0.2
			c0.1,0,0.2,0,0.3,0.1s0.2,0.2,0.2,0.3s0.1,0.2,0.1,0.4s0,0.3,0,0.4c0,0.2,0,0.3,0,0.5s-0.1,0.4-0.1,0.6c0.1,0,0.2,0,0.3,0
			s0.1,0,0.1,0c0.1,0,0.3,0,0.4,0s0.3,0.1,0.4,0.1s0.2,0.1,0.3,0.2s0.1,0.2,0.1,0.3c0,0.1-0.1,0.3-0.2,0.4s-0.3,0.2-0.4,0.3
			s-0.4,0.1-0.6,0.2S45.7,19,45.5,19c0,0.3-0.1,0.6-0.1,0.9s0,0.5-0.1,0.8c0,0.1,0,0.3,0,0.4s0,0.3,0,0.4c0,0.1,0,0.2,0,0.4
			s0,0.3,0.1,0.4s0.1,0.2,0.2,0.3s0.2,0.1,0.4,0.1c0.1,0,0.2,0,0.3,0s0.2,0,0.4,0c0.2,0,0.3,0.1,0.4,0.2s0.1,0.3,0.1,0.5
			c0,0.2,0,0.3-0.1,0.4s-0.2,0.2-0.4,0.3s-0.3,0.1-0.5,0.2S45.9,24.4,45.8,24.4z"/>
		<path fill="#F5F5F5" d="M50.1,24.3c-0.4,0-0.7-0.1-1-0.3s-0.5-0.5-0.8-0.8s-0.4-0.7-0.5-1.1s-0.2-0.8-0.2-1.2
			c0-0.4,0.1-0.8,0.2-1.3s0.3-0.8,0.5-1.2s0.5-0.7,0.8-0.9s0.7-0.3,1.2-0.3c0.4,0,0.8,0.1,1.1,0.4s0.6,0.5,0.7,0.9s0.3,0.7,0.4,1.2
			s0.1,0.8,0.1,1.2c0,0.4-0.1,0.8-0.2,1.3s-0.3,0.8-0.5,1.1s-0.5,0.6-0.8,0.8S50.6,24.3,50.1,24.3z M50.2,19c-0.1,0-0.2,0.1-0.3,0.2
			s-0.2,0.3-0.2,0.5s-0.1,0.4-0.1,0.6s0,0.4,0,0.5c0,0.2,0,0.4,0.1,0.6s0.1,0.4,0.1,0.6s0.1,0.3,0.2,0.5s0.2,0.2,0.3,0.2
			c0.1,0,0.2-0.1,0.3-0.2s0.2-0.3,0.2-0.4s0.1-0.4,0.1-0.6s0-0.4,0-0.6c0-0.2,0-0.4,0-0.6s-0.1-0.4-0.1-0.6s-0.1-0.3-0.2-0.4
			S50.4,19,50.2,19z"/>
		<path fill="#F5F5F5" d="M57.7,19.6c-0.1,0-0.2,0-0.3,0s-0.2-0.1-0.2-0.1c-0.1,0-0.1-0.1-0.2-0.1s-0.1,0-0.2,0
			c-0.2,0-0.3,0.1-0.4,0.1s-0.2,0.2-0.3,0.3s-0.2,0.2-0.3,0.4s-0.1,0.3-0.2,0.4c0,0.1,0,0.2-0.1,0.4s0,0.4,0,0.6c0,0.2,0,0.4,0,0.6
			s0,0.4,0,0.5c0,0.1,0,0.3-0.1,0.4s-0.1,0.3-0.1,0.5S55.1,23.9,55,24s-0.2,0.2-0.4,0.2c-0.1,0-0.2,0-0.3-0.1s-0.2-0.2-0.2-0.3
			s-0.1-0.3-0.2-0.5s-0.1-0.3-0.1-0.5c0-0.2,0-0.4-0.1-0.6s0-0.4,0-0.5s0-0.3,0-0.5s0-0.3,0-0.3c0-0.3,0-0.5,0-0.8s0-0.6,0-0.8
			c0-0.2,0-0.4,0-0.6s0.1-0.4,0.1-0.6s0.2-0.3,0.3-0.5s0.3-0.2,0.6-0.2c0.1,0,0.2,0,0.3,0.1s0.2,0.2,0.2,0.3s0.1,0.3,0.1,0.4
			s0.1,0.3,0.1,0.4c0.2-0.3,0.4-0.6,0.6-0.7s0.5-0.3,0.9-0.3c0.2,0,0.4,0,0.6,0.1s0.4,0.1,0.5,0.2s0.3,0.2,0.4,0.4s0.2,0.3,0.2,0.6
			c0,0.2-0.1,0.4-0.2,0.6S57.9,19.6,57.7,19.6z"/>
	</g>
</g>
<rect y="6" fill="#3E3E3D" width="1" height="24"/>
<rect x="85" y="6" fill="#3E3E3D" width="1" height="24"/>
<g>
	<g>
		<rect x="33.6" y="25.5" fill="#F5F5F5" width="5.4" height="1.5"/>
	</g>
</g>
</svg>
