<?xml version="1.0" encoding="utf-8"?>
<!-- Generator: Adobe Illustrator 18.1.0, SVG Export Plug-In . SVG Version: 6.00 Build 0)  -->
<svg version="1.0" id="Capa_1_copia" xmlns="http://www.w3.org/2000/svg" xmlns:xlink="http://www.w3.org/1999/xlink" x="0px"
	 y="0px" viewBox="0 0 85 90.9" enable-background="new 0 0 85 90.9" xml:space="preserve">
<rect x="-510" fill="#575756" width="1280" height="35"/>
<g>
	<rect x="-85" y="34.9" fill="#CD1626" width="85" height="56"/>
</g>
<g>
	<rect x="0" y="34.9" fill="#FF6D00" width="85" height="56"/>
	<g>
		<path fill="#AECF84" d="M58.3,69c0-0.4,0-0.7,0-1.1c0.1-1.1,0-2.2-0.2-3.3c0-0.1-0.1-0.3-0.1-0.4c0.4-1.5,0.6-3.7-0.3-4.7
			c0,0-0.1-0.1-0.1-0.1c0.7-1.9,1-4.3-0.7-5.5c-0.2-0.1-0.3-0.2-0.5-0.2c-0.1-0.1-0.1-0.1-0.2-0.2c-0.1-0.1-0.1-0.2-0.2-0.3
			c-0.4-0.5-0.8-0.9-1.2-1.4c-0.2-0.3-0.5-0.4-0.8-0.4c-0.2-0.3-0.5-0.7-0.7-1c-0.1-0.2-0.3-0.4-0.5-0.7c-0.1-0.2-0.3-0.3-0.5-0.3
			c-0.1-0.1-0.3-0.3-0.4-0.4c-0.1-0.1-0.1-0.1-0.2-0.2c-0.1-0.1-0.2-0.3-0.3-0.4c0-0.1-0.1-0.2-0.1-0.3c0-0.3-0.1-0.5-0.3-0.8
			c-0.1-0.1-0.2-0.2-0.3-0.3c-0.1-0.1-0.2-0.2-0.3-0.2c0.1-0.5-0.2-1.1-0.8-1.2c-0.1,0-0.3,0-0.4-0.1c-0.3-0.1-0.6,0-0.9,0.1
			c-1.2,0.1-2.3-0.3-3.5-0.4c-1.6-0.1-3.1-0.3-4.7-0.4c-0.1,0-0.1,0-0.1,0c-0.6-0.2-1.2-0.3-1.7-0.3c-0.3,0-0.5,0.1-0.7,0.2
			c-0.1,0-0.2,0-0.3,0c-1-0.3-2.4-0.6-3.4-0.2c-0.3,0-0.6,0.1-0.9,0.2c-0.6-0.1-1.1,0-1.5,0.3c-0.1,0.1-0.2,0.3-0.1,0.5c0,0,0,0,0,0
			c0,0.1,0,0.2,0.1,0.2c0,0.1,0,0.1,0,0.2c0.2,0.5,0.2,1,0.3,1.5c-0.1,0.1-0.2,0.3-0.2,0.5c0,0.5,0.1,0.9,0.2,1.4
			c0.1,0.2,0.2,0.3,0.3,0.4c-0.5,4.9,1,9.8,0.5,14.7c-0.1,0.6-0.2,1.2-0.2,1.8h0c0,0.3,0.1,0.6,0.2,0.9c-0.3,0.8-0.5,1.6-0.6,2.5
			c-0.1,0.6,0,1.3,0,1.9c0,0.1,0,0.2-0.1,0.3c-0.1,0.4-0.2,0.8-0.3,1.2c-0.1,0.3,0,0.6,0.2,0.7c0,0.2-0.1,0.5-0.1,0.7
			c0,0.2,0,0.3,0.1,0.4c0,0.1,0,0.1-0.1,0.2c-0.3,0.5,0.5,0.9,0.8,0.5c0,0,0,0,0,0c1.8,0,3.4,0.1,5.2,0.2c0.1,0,0.1,0.1,0.2,0.1
			c0.6,0.2,1.2,0.3,1.9,0.4c0.2,0,0.4,0,0.6,0c0.9,0.2,1.8,0.4,2.7,0.5c0.7,0.1,1.5,0,2.2-0.1c0.2,0.1,0.3,0.2,0.6,0.3
			c1.5,0.6,3.3,0.3,4.8-0.4c0,0,0.1,0,0.1,0c0.4,0,0.8-0.1,1.1-0.2c0.2,0,0.4-0.1,0.6-0.1c0,0,0,0,0,0v0c0.1,0,0.1,0,0.2,0
			c0,0,0,0,0,0c0,0,0,0,0.1,0c1.3,0,2.4,0,3.8,0.2c0.3,0,0.5,0,0.7-0.2c0.4,0.1,0.9,0,1-0.5c0.6-1.9,0.5-3.7,0.6-5.7
			C58.8,69.6,58.6,69.2,58.3,69z"/>
		<path fill="#80B343" d="M55,78.5c-0.2-0.3-0.2-0.5-0.2-0.8c0-0.1,0-0.2,0-0.3c0,0,0-0.1,0-0.1c0.2-0.8-0.9-1.1-1.2-0.4
			c-0.2-0.1-0.5-0.1-0.7,0c-0.2,0-0.4,0.1-0.5,0.2c-0.1,0-0.1,0-0.2,0c0,0-0.1,0-0.1,0c-1.3-0.1-2.7-0.3-3.9,0.3l0,0
			c-0.6-0.1-1.2-0.1-1.7-0.1c-0.5-0.1-1.1-0.2-1.7-0.3c-0.2,0-0.4,0.1-0.5,0.2c0,0-0.1-0.1-0.2-0.1c-1.3-0.7-3-0.6-4.4-0.9
			c-0.3-0.1-0.5,0-0.7,0.1c-0.7-0.2-1.4-0.2-2-0.5c-0.2-0.1-0.4,0-0.5,0.1c-1.5-0.6-3-0.2-4.6-0.1c-0.1,0-0.3,0-0.4,0.1
			c0.3-1.5,0.1-3,0.4-4.5c0.2-1.2,0.4-2.3,0.2-3.5c0,0,0-0.1-0.1-0.1c0-0.4,0-0.7,0-1.1c0-1.1,0.2-2.2,0.3-3.3
			c0.1-0.5-0.1-0.8-0.3-1c0-0.2,0-0.4,0-0.6c0-0.2,0-0.4,0.1-0.5c0.1-0.4,0-0.8-0.2-1c0-0.2,0-0.4,0-0.6c0.1-0.7,0.2-1.3,0.2-2
			c0-0.1,0-0.3-0.1-0.4c0.2-0.7,0-1.4-0.1-2.2c0-0.4-0.1-0.8-0.1-1.2c0.2-1,0.1-2.1-0.1-3.1c0-0.1-0.1-0.2-0.1-0.2
			c0-0.6,0-1.1,0-1.7c0-0.4-0.5-0.4-0.6-0.1c-0.1-0.1-0.3-0.2-0.5-0.1c0,0-0.1,0-0.1-0.1c-0.1-0.1-0.3,0-0.4,0
			c-0.3-0.1-0.6-0.2-0.9-0.2c-0.4,0-0.7,0.5-0.5,0.8c0.4,0.6,0.2,1.4,0.6,2c0,0,0,0,0,0.1c0,0.5,0,0.9,0.1,1.4
			c0,0.3,0.2,0.4,0.3,0.6c0.1,0.4,0.1,0.7,0.1,1.1c-0.2,0.1-0.3,0.4-0.3,0.6c0,0.7,0.1,1.3,0.1,2c-0.1,0.2-0.2,0.5-0.2,0.8
			c0,0.1,0,0.2,0,0.3c-0.1,0.2-0.2,0.4-0.2,0.7c0,0.6-0.1,1.1-0.2,1.7c0,0.4,0.1,0.7,0.3,0.9C29,61.9,29,62.8,29,63.6
			c0,0.3,0.2,0.6,0.4,0.7c0,0.6,0,1.1,0.1,1.7c-0.5,1.1-0.2,2.3-0.3,3.5c-0.1,2.3-0.4,4.5-0.3,6.9c0,0.3,0.1,0.5,0.3,0.6
			c-0.1,0.1-0.2,0.3-0.2,0.5c-0.1,0.4,0.4,0.7,0.7,0.4c0.1-0.1,0.2-0.3,0.3-0.4c0,0,0,0,0,0c0.4-0.1,0.8-0.2,1.2-0.2
			c0.1,0,0.2,0,0.2,0c0.1,0.1,0.3,0.2,0.5,0.2c1,0,1.9-0.2,2.9-0.3c0.4,0,0.7,0,1.1,0.1c0.1,0.2,0.2,0.3,0.5,0.4
			c0.7,0.1,1.3,0.2,2,0.4c0.3,0.1,0.5,0,0.6-0.1c1.1,0.2,2.2,0.5,3.2,0.9c0.4,0.2,0.8,0,0.9-0.4c0.1,0,0.3,0,0.4-0.1
			c1.1,0.3,2.2,0.3,3.3,0.5c0.2,0,0.3,0,0.4,0c0.4,0,0.7,0,1.1,0c1,0,2,0.3,3,0c0.4,0.2,0.7,0.4,1.2,0.3c0.1,0,0.1,0,0.2,0
			c0,0,0.1,0,0.1,0c0.2,0.1,0.4,0,0.6-0.2c0.1,0,0.2,0.1,0.3,0.1c0.2,0.1,0.4,0.2,0.6,0.3C54.9,80,55.5,79.1,55,78.5z"/>
		<path fill="#5B8D25" d="M51.3,80.6c0.2-0.2,0.2-0.5,0.1-0.9c-0.1-0.2-0.3-0.3-0.5-0.3c-0.1-0.1-0.2-0.1-0.4,0c-0.7,0-1.4,0-2.2,0
			c-0.1,0-0.2,0-0.2,0.1c-0.6,0-1.2-0.1-1.8-0.1c-0.5-0.1-1-0.1-1.4-0.2c0,0,0,0,0,0c-0.4,0-0.7-0.1-1.1-0.1
			c-0.5-0.2-1.1-0.3-1.6-0.2c-0.3,0-0.6-0.1-0.9-0.1c-0.4-0.1-0.8-0.2-1.3-0.3c-0.1-0.2-0.2-0.3-0.4-0.4c-1.9-0.7-3.8-0.7-5.8-1v0
			c-0.2,0-0.4,0.1-0.5,0.3c-0.6-0.1-1.2-0.2-1.8-0.1c-0.8,0-1.4,0.2-2.2,0.7c-0.1,0.1-0.1,0.1-0.2,0.2c0,0-0.1,0-0.1,0.1
			c0-0.1,0-0.2,0-0.3c-0.1-0.1-0.1-0.2-0.2-0.4c0-0.1,0-0.1-0.1-0.1c0,0,0,0,0,0c0.1-0.5,0-1.1-0.1-1.5c0,0,0,0,0,0
			c0-0.1,0-0.1,0.1-0.2c0-0.3,0-0.6,0-0.9c0-0.1,0-0.2,0.1-0.3c0.1-0.1,0.2-0.2,0.2-0.3c0.2-1.1,0.1-2.3,0.1-3.4
			c0-0.8,0.3-2-0.2-2.7c0,0,0,0,0,0c0-0.1,0-0.2,0-0.2c0.6-1.8,0.3-4.4-0.2-5.9c0-0.4,0.1-0.7,0.1-1.1c0.1-0.1,0.1-0.2,0.1-0.3
			c0-0.5,0.1-0.9,0.1-1.4c0-0.1,0-0.2-0.1-0.3c0.1-0.3,0.1-0.6,0.1-0.9c0.3-1.1,0.2-2.2,0.2-3.3c0-0.2-0.1-0.3-0.2-0.4c0,0,0,0,0,0
			c0-0.2,0-0.3,0-0.5c0.1-0.8,0.1-1.5,0.1-2.3c0-0.2-0.1-0.3-0.2-0.4c0-0.3-0.1-0.5-0.2-0.8c-0.1-0.2-0.5-0.2-0.6,0.1c0,0,0,0,0,0
			c-0.1-0.1-0.2-0.1-0.4-0.2c-0.1,0-0.2,0-0.2,0.1c-0.2-0.1-0.3-0.1-0.5-0.2c-0.1-0.1-0.2,0-0.3,0.1c-0.1,0-0.2,0.1-0.1,0.3
			c0.1,0.1,0.1,0.2,0.2,0.2c0,0,0,0,0.1,0.1c0,0,0,0,0,0c0,0.1,0,0.1,0,0.2c0.2,1,0.3,2,0.2,3c0,0.2,0.1,0.3,0.2,0.4
			c0,0.9-0.1,1.9-0.3,2.8c0,0.1,0,0.2,0,0.3c0,0.4-0.1,0.8-0.1,1.2l0,0c0,0.1,0.1,0.2,0.1,0.3c-0.1,0.4-0.2,0.8-0.3,1.3
			c0,0.1,0,0.3,0.1,0.4c0,0.1,0,0.2-0.1,0.3c-0.1,0.2-0.1,0.4-0.2,0.6c-0.1,0.2,0,0.3,0,0.4c-0.1,0.4-0.1,0.8-0.2,1.2
			c0,0.1,0,0.3,0,0.4c-0.1,0.4-0.2,0.9-0.2,1.4c0,0.2,0.1,0.3,0.2,0.4c0,0.4-0.1,0.7-0.2,1.1c-0.1,0.3,0.1,0.5,0.2,0.6
			c0,0.6,0,1.1,0,1.7c0,0.4,0,0.9,0,1.3c0,0.3,0.2,0.4,0.3,0.5c0,0.5,0,1,0.1,1.5c-0.1,0.6,0,1.2,0.1,1.9c-0.1,0.1-0.1,0.2-0.1,0.3
			c-0.1,0.6-0.1,1.1,0,1.6c0,0.1,0,0.3,0,0.4c-0.3,0-0.5,0.2-0.5,0.5c0.1,0.5,0.1,1,0.3,1.6c0,0,0,0.1,0,0.1c-0.1,0-0.1,0.1-0.2,0.2
			c-0.1,0.3-0.1,0.5,0,0.7c0,0,0,0,0,0.1c0,0,0,0,0,0c-0.1,0.1-0.1,0.2,0,0.3c0,0,0,0.1,0,0.1c-0.1,0.2,0,0.4,0.2,0.5
			c0.2,0.2,0.5,0.2,0.6-0.1c0,0,0-0.1,0.1-0.1c0.1,0,0.2,0,0.3,0c0.4-0.1,0.6-0.2,1-0.4c0,0,0,0,0,0l0,0c0,0,0.1,0,0.1-0.1
			c0,0,0,0,0,0c0.7-0.2,1.3-0.3,2-0.4c0.1,0,0.2-0.1,0.3-0.1c1.1,0.1,2.3,0,3.4,0c0.1,0,0.2,0,0.3-0.1c0,0,0.1,0,0.1,0
			c0.1,0.1,0.3,0.3,0.5,0.3c1.9,0.2,3.7,0.7,5.7,0.8c0,0,0,0,0,0c0.1,0,0.1,0,0.2,0l0,0c0,0,0,0,0,0c0.8,0.1,1.7,0.2,2.5,0.2
			c0.6,0.2,1.3,0.2,1.8,0.3c0,0,0,0,0,0c0.1,0.1,0.2,0.1,0.3,0.2c0.2,0,0.7,0.1,1.2,0.1c1,0.2,2,0.2,3-0.1c0,0,0.1,0,0.1-0.1
			c0.1,0,0.1,0,0.2-0.1c0,0.1,0.1,0.1,0.1,0.2c0.1,0.2,0.4,0.2,0.5,0c0.2,0,0.4-0.3,0.3-0.5C51.3,80.8,51.3,80.7,51.3,80.6z"/>
		<path fill="#7DB523" d="M57.8,49.8c0-0.4,0-0.9,0-1.4c0.1-0.1,0.1-0.2,0.1-0.3c0-0.7,0-1.3-0.1-2c0-0.3-0.2-0.5-0.4-0.6
			c-0.3-0.1-0.5-0.1-0.7,0c-0.8-0.3-1.6-0.3-2.5-0.1c0,0-0.1,0-0.1,0c-0.1,0-0.2-0.1-0.2-0.1c-0.2-0.1-0.3,0-0.4,0.1
			c-0.1,0-0.3,0-0.4,0c-0.2,0-0.3,0.1-0.4,0.2c-0.1-0.1-0.2-0.2-0.3-0.3c-0.2-0.3-0.6,0.1-0.4,0.4c0.3,0.3,0.6,0.6,1,0.9
			c0,0,0,0,0,0c0,0.1,0.1,0.3,0.2,0.4c0.2,0.2,0.4,0.4,0.7,0.5c0.2,0.2,0.3,0.4,0.5,0.5c0,0,0.1,0.1,0.1,0.1c0,0,0,0,0,0
			c0,0,0.1,0.1,0.1,0.1l0,0c0,0,0.1,0.1,0.1,0.1c0,0,0,0.1,0.1,0.1c0,0.1,0,0.2,0.1,0.4c0,0,0.1,0.1,0.1,0.1l0,0
			c0.4,0.4,0.6,1,0.9,1.4c0.1,0.2,0.3,0.3,0.5,0.2c0.1,0.1,0.2,0.3,0.3,0.4c0,0,0,0,0,0c0,0.1,0.1,0.1,0.1,0.2c0,0,0,0.1,0.1,0.1
			c0.1,0.1,0.1,0.2,0.2,0.3c0.1,0.4,0.9,0.4,0.8-0.1c0-0.5-0.1-1-0.2-1.4C57.8,50,57.8,49.9,57.8,49.8z"/>
		<g>
			<path d="M31,45.2c1.4,10.2,1.2,20.5,0.4,30.7c0,0.4,0.6,0.4,0.6,0c0.5-5.6,1-11.2,0.5-16.9c-0.4-4.5-0.1-9.5-1.3-13.9
				C31.1,45,30.9,45.1,31,45.2L31,45.2z"/>
		</g>
		<g>
			<path d="M31.7,76.2c3.6-1.3,8.7,0.3,12.3,0.9c4.6,0.8,9.1-0.6,13.7-0.4c0.4,0,0.5-0.6,0.1-0.7c-2.1-0.3-4-0.1-6.1,0.1
				c-3.7,0.5-6.9,0.2-10.6-0.4c-2.7-0.4-7.3-1.8-9.6,0C31.4,75.9,31.5,76.3,31.7,76.2L31.7,76.2z"/>
		</g>
		<g>
			<path d="M31.3,45.3c3.1-0.1,6.1-0.4,9.2-0.2c3,0.1,5.9,0.7,8.9,0.6c0.4,0,0.4-0.6,0-0.6c-6-0.2-12.2-1.6-18.1-0.2
				C31,44.9,31,45.3,31.3,45.3L31.3,45.3z"/>
		</g>
		<g>
			<path d="M57.6,54.6c-0.3,2.4-0.2,4.9-0.2,7.2c0,2.4,0,4.8,0.1,7.1c0.1,2.5,0.8,4.9,0.2,7.4c-0.1,0.5,0.6,0.7,0.8,0.2
				c0.9-3.7-0.2-8.1-0.2-11.9c0-3.3,0.2-6.8-0.3-10.1C58,54.3,57.6,54.3,57.6,54.6L57.6,54.6z"/>
		</g>
		<g>
			<path d="M28.6,48.4c1-0.3,1.8,0,2.8,0c0.3,0,0.3-0.3,0.1-0.4c-0.9-0.4-2-0.3-3,0C28.3,48.1,28.4,48.5,28.6,48.4L28.6,48.4z"/>
		</g>
		<g>
			<path d="M28.2,48.3c1.6,4.9,0.5,9.9,0.6,14.9c0,2.8,0.2,5.7,0.2,8.5c0,2.3-0.6,4.3,0,6.5c0,0.2,0.3,0.1,0.3,0
				c-0.1-2.7,0.3-5.4,0.4-8.2c0-3.3-0.3-6.5-0.2-9.8c0.1-4.1,1-8.2-0.9-12C28.4,48,28.1,48.1,28.2,48.3L28.2,48.3z"/>
		</g>
		<g>
			<path d="M29.3,78.1c3.3-1.3,7.6,0,11,0.6c4.9,0.8,10.1,1.4,15,0.9c0.3,0,0.3-0.5,0-0.5c-6.1-0.3-12-0.6-18.1-1.5
				c-1.7-0.3-7-1.6-8,0.5C29.1,78,29.2,78.2,29.3,78.1L29.3,78.1z"/>
		</g>
		<g>
			<path d="M54.5,76.8c-0.1,0.9,0.1,1.9,0.6,2.6c0.2,0.3,0.7,0,0.5-0.3c-0.4-0.8-0.6-1.5-0.7-2.4C54.9,76.5,54.5,76.6,54.5,76.8
				L54.5,76.8z"/>
		</g>
		<g>
			<path d="M26.4,50.5c0.4,0,0.9,0,1.3-0.1c0.4,0,0.8,0,1.1-0.1c0.1,0,0.1-0.2,0-0.3c-0.4-0.1-0.8-0.1-1.1-0.1c-0.4,0-0.9,0-1.3,0.2
				C26.2,50.2,26.2,50.5,26.4,50.5L26.4,50.5z"/>
		</g>
		<g>
			<path d="M26.3,50.4c1.8,4.6-0.2,11.3-0.1,16.2c0.1,2.7,0.3,5.4,0.4,8.2c0,2.1-0.5,4-0.2,6.1c0,0.3,0.5,0.2,0.5-0.1
				c-0.2-2.5,0.3-5.1,0.2-7.7c-0.1-3.3-0.4-6.6-0.4-9.9c0.1-4,1.7-9.2-0.2-13C26.5,50.1,26.2,50.2,26.3,50.4L26.3,50.4z"/>
		</g>
		<g>
			<path d="M26.9,81.1c3.5-1.9,7.7-1.3,11.5-0.6c4.3,0.8,8.8,1.2,13.2,1c0.3,0,0.3-0.5,0-0.5c-5.1-0.3-10-0.9-15-1.5
				c-3.3-0.4-7-0.8-9.9,1.2C26.3,80.8,26.6,81.3,26.9,81.1L26.9,81.1z"/>
		</g>
		<g>
			<path d="M51.7,81.4c0.1-0.3,0.1-0.4,0.1-0.7c0-0.4,0.1-0.8,0-1.2c0-0.2-0.2-0.3-0.4-0.1c-0.4,0.5-0.2,1.5,0.1,2
				C51.6,81.5,51.7,81.5,51.7,81.4L51.7,81.4z"/>
		</g>
		<g>
			<path d="M49.4,45.4c0.9,1.7,1.7,3.2,3.1,4.5c1.7,1.7,3,3.6,5.2,4.9c0.1,0.1,0.3-0.1,0.2-0.2c-0.6-0.9-1.5-1.5-2.4-2.2
				c-1-0.8-1.7-1.9-2.6-2.9c-0.9-1-1.6-1.9-2.3-3.1c-0.2-0.5-0.5-1-1.1-1.2C49.5,45.1,49.4,45.3,49.4,45.4L49.4,45.4z"/>
		</g>
		<g>
			<path d="M51.5,45.7c0.7,1.2,1.9,1.9,2.8,3c1,1.3,2.2,2.7,3.5,3.7c0.1,0.1,0.3,0,0.2-0.2c-0.6-1.4-2.1-2.4-3-3.5
				c-1-1.2-2.2-2.1-3.2-3.2C51.7,45.3,51.4,45.5,51.5,45.7L51.5,45.7z"/>
		</g>
		<g>
			<path d="M51.7,45.6c1,0.2,2,0.1,3.1,0.1c1,0,2.1,0.3,3.1,0c0.1,0,0.1-0.2,0-0.2c-0.8-0.4-1.8-0.3-2.7-0.3c-1.2,0-2.4,0-3.5,0.2
				C51.6,45.3,51.6,45.6,51.7,45.6L51.7,45.6z"/>
		</g>
		<g>
			<path d="M58,52.2c0.4-2.1,0-4.3,0.1-6.4c0-0.3-0.4-0.3-0.4,0c0.1,2.1,0.2,4.3,0.2,6.4C57.8,52.3,57.9,52.3,58,52.2L58,52.2z"/>
		</g>
		<g>
			<path d="M36.2,50.8c2.1,0.2,4.2,0.1,6.3,0.1c2,0.1,4,0.2,6-0.1c0.1,0,0.1-0.2,0-0.2c-2.2-0.2-4.5-0.1-6.8-0.2
				C39.8,50.4,37.9,50.3,36.2,50.8C36.1,50.7,36.1,50.8,36.2,50.8L36.2,50.8z"/>
		</g>
		<g>
			<path d="M36.3,55.6c4.6,1.4,10.2,0.8,14.9,0.1c0.2,0,0.1-0.2,0-0.3c-4.9-0.6-9.8,0.7-14.8-0.2C36.1,55.2,36.1,55.5,36.3,55.6
				L36.3,55.6z"/>
		</g>
		<g>
			<path d="M37.1,61.1c5-0.9,9.6,0.2,14.5,0.4c0.2,0,0.3-0.4,0.1-0.4c-2.1-0.9-4.7-0.9-7-0.9c-2.6-0.1-5.2,0-7.7,0.6
				C36.8,60.8,36.9,61.1,37.1,61.1L37.1,61.1z"/>
		</g>
		<g>
			<path d="M36.3,66.4c2.5-0.8,5.1-0.6,7.7-0.4c2.5,0.2,5.2,1,7.6,0.8c0.1,0,0.2-0.2,0.1-0.3c-2.2-1-5.3-0.9-7.7-1.1
				c-2.3-0.1-5.7-0.6-7.8,0.8C36.2,66.3,36.2,66.5,36.3,66.4L36.3,66.4z"/>
		</g>
		<g>
			<path d="M36.5,70.8c2.7-0.2,5.3-0.5,8-0.5c2.7,0,5.4,0.5,8.2,0.4c0.2,0,0.3-0.3,0.1-0.4c-4.8-1.3-11.6-1.3-16.3,0.3
				C36.4,70.7,36.4,70.8,36.5,70.8L36.5,70.8z"/>
		</g>
	</g>
</g>
<g>
	<g>
		<path fill="#F5F5F5" d="M38.8,16c0,0.1,0,0.3-0.1,0.4s-0.2,0.2-0.3,0.3s-0.2,0.2-0.4,0.2S37.8,17,37.7,17c0,0.9,0,1.7-0.1,2.6
			s-0.1,1.7-0.2,2.5h0.1c0.1,0,0.2,0,0.4,0s0.2,0.1,0.3,0.1s0.2,0.1,0.2,0.2s0.1,0.2,0.1,0.4c0,0.2-0.1,0.3-0.2,0.5
			s-0.3,0.2-0.4,0.3s-0.4,0.2-0.6,0.2s-0.5,0.1-0.7,0.1s-0.4,0.1-0.6,0.1s-0.4,0-0.5,0c-0.1,0-0.2,0-0.3,0s-0.3,0-0.4-0.1
			s-0.2-0.1-0.3-0.2s-0.1-0.2-0.1-0.3c0-0.2,0-0.3,0.1-0.4s0.2-0.2,0.3-0.3s0.2-0.2,0.4-0.2s0.3-0.1,0.4-0.1
			c0.1-0.4,0.1-0.9,0.2-1.3s0.1-0.9,0.1-1.3c0-0.4,0-0.9,0-1.3s0-0.9,0-1.3c-0.1,0-0.1,0-0.2,0s-0.1,0-0.1,0c-0.1,0-0.2,0-0.4,0
			s-0.2-0.1-0.4-0.1s-0.2-0.1-0.3-0.2s-0.1-0.2-0.1-0.3c0-0.3,0.1-0.5,0.3-0.7s0.5-0.3,0.8-0.4s0.6-0.2,0.9-0.2s0.6-0.1,0.8-0.1
			c0.1,0,0.3,0,0.4,0s0.4,0.1,0.5,0.1s0.3,0.1,0.5,0.2S38.8,15.8,38.8,16z"/>
		<path fill="#F5F5F5" d="M44.5,22.1c0,0.1,0,0.3-0.1,0.4c-0.1,0.1-0.3,0.3-0.6,0.5s-0.6,0.3-1,0.5s-0.7,0.3-1,0.4s-0.6,0.2-0.7,0.2
			c-0.1,0-0.2,0-0.4-0.1s-0.3-0.1-0.4-0.2s-0.3-0.2-0.4-0.3s-0.2-0.2-0.3-0.3c0-0.1-0.1-0.2-0.1-0.3s-0.1-0.4-0.1-0.6s0-0.5-0.1-0.7
			s0-0.5,0-0.7s0-0.4,0-0.6s0-0.3,0-0.4c0-0.3,0-0.6,0-1s0.1-0.8,0.1-1.1s0.1-0.7,0.2-1.1s0.2-0.6,0.4-0.9c0.1-0.1,0.2-0.1,0.3-0.2
			s0.4-0.2,0.6-0.2s0.5-0.1,0.7-0.2s0.5-0.1,0.7-0.2s0.5-0.1,0.7-0.1s0.3,0,0.4,0c0.1,0,0.2,0,0.3,0.1s0.2,0.1,0.3,0.2
			s0.1,0.2,0.2,0.3s0.1,0.2,0.1,0.3c0,0.1,0,0.2,0,0.3s-0.1,0.1-0.1,0.2c-0.1,0.1-0.2,0.2-0.5,0.4S43.3,17,43,17.1s-0.6,0.3-0.8,0.4
			s-0.5,0.2-0.6,0.2c0,0.2-0.1,0.4-0.1,0.5s-0.1,0.4-0.1,0.6c0.2-0.1,0.5-0.2,0.8-0.4s0.6-0.2,0.9-0.2c0.6,0,0.8,0.3,0.8,0.8
			c0,0.1,0,0.2-0.1,0.4s-0.1,0.2-0.2,0.3s-0.2,0.1-0.3,0.2s-0.2,0.1-0.3,0.2c-0.2,0.1-0.5,0.2-0.8,0.3s-0.5,0.2-0.8,0.3
			c0,0.1,0,0.1,0,0.2s0,0.1,0,0.2c0,0.1,0,0.2,0,0.3s0,0.2,0,0.3c0.1,0,0.2-0.1,0.5-0.2s0.4-0.1,0.7-0.2s0.4-0.1,0.7-0.2
			s0.4-0.1,0.5-0.1c0.1,0,0.2,0,0.3,0.1s0.2,0.1,0.3,0.2s0.1,0.2,0.2,0.3S44.5,22,44.5,22.1z"/>
		<path fill="#F5F5F5" d="M50.8,17.7c0,0.4-0.1,0.8-0.3,1.2s-0.4,0.8-0.7,1.1s-0.7,0.6-1,0.8s-0.8,0.3-1.2,0.3c0,0.1,0,0.3,0,0.5
			s0,0.4,0,0.7s-0.1,0.5-0.1,0.7s-0.1,0.4-0.2,0.6S47,24,46.9,24.2s-0.3,0.2-0.5,0.2c-0.2,0-0.4-0.1-0.5-0.2s-0.2-0.3-0.3-0.5
			s-0.1-0.4-0.1-0.6s0-0.4,0-0.6c0-0.2,0-0.4,0-0.7s0-0.4,0-0.7c0-0.1,0-0.3,0-0.6s0-0.6,0-0.9s0-0.7,0-1.1s0-0.7,0-1.1
			s0-0.6,0.1-0.8s0-0.4,0.1-0.4c0,0,0,0,0.1-0.1s0.1-0.1,0.1-0.1s0.1-0.1,0.1-0.1s0.1,0,0.1,0c0.4-0.2,0.8-0.4,1.2-0.5
			s0.9-0.2,1.3-0.2c0.4,0,0.7,0.1,1,0.2s0.5,0.3,0.8,0.6s0.4,0.5,0.5,0.8S50.8,17.3,50.8,17.7z M48.8,17.9c0-0.2,0-0.3-0.1-0.4
			s-0.2-0.2-0.4-0.2c-0.1,0-0.3,0-0.4,0.1s-0.3,0.1-0.4,0.2c0,0.3,0,0.5,0.1,0.8s0,0.5,0,0.8c0.1-0.1,0.3-0.1,0.4-0.2
			s0.3-0.2,0.4-0.3s0.2-0.2,0.3-0.3S48.8,18.1,48.8,17.9z"/>
	</g>
</g>
<rect x="0" y="6" fill="#3E3E3D" width="1" height="24"/>
<rect x="85" y="6" fill="#3E3E3D" width="1" height="24"/>
<g>
	<defs>
		<circle id="SVGID_94_" cx="47.5" cy="-150.1" r="35.7"/>
	</defs>
	<use xlink:href="#SVGID_94_"  overflow="visible" fill="#F8B032"/>
	<clipPath id="SVGID_1_">
		<use xlink:href="#SVGID_94_"  overflow="visible"/>
	</clipPath>
	<g clip-path="url(#SVGID_1_)">
		<g>
			<path fill="#C79B66" d="M80.4-60.7c0-0.1-0.2-0.1-0.2,0c0,0.1,0,0.2,0,0.3l0-0.3l-62.8,2.1c0-0.1,0-0.1,0-0.2
				c0-0.1-0.2-0.1-0.2,0c0,0.1,0,0.1,0,0.2l0,0l0,0.5C17-52,18-45.9,18.7-39.9c0.7,5.7,1.3,11.2,2.6,16.8c2.1,9.6,5.1,19.1,6.5,28.9
				c0.2,1.1,8.8,1.1,15.6,1.9c8.4,1,7.1,2.5,7.6,2.4c1.6-0.4,2.6-2,5.5-2.7c1.1-0.3,4.8-0.6,8.6-1.2C68.6,5.6,72,4.7,72,4.7
				c0.2,0.1,0.5,0,0.6-0.3c1.7-9.7,3.6-19.3,5.3-28.9c0.9-5.3,1.3-10.7,1.7-16.1C80-47.2,80.9-54.1,80.4-60.7z"/>
			<path fill="#C39057" d="M17.1-58C17-52,18-45.9,18.7-39.9c0.7,5.7,1.3,11.2,2.6,16.8c2.1,9.6,5.1,19.1,6.5,28.9
				c0.2,1.1,8.8,1.1,15.6,1.9c8.4,1,7.1,2.5,7.6,2.4c0,0-12.5-7-20.4-19.1C24-19.2,17.1-58,17.1-58z"/>
			<path fill="#7F4F25" d="M77.8,10.4c-1.7-2-3.7-3.7-5.5-5.6c0-0.1-0.1-0.3-0.3-0.3c-2.3,0.4-4.7,1.1-7,1.5
				c-2.6,0.5-5.2,0.4-7.8,0.7c-2.5,0.4-4.4,1.9-6.4,3.3c-0.2,0.1,0.1-0.6-0.2-0.8c-3.4-1.9-7.8-2.1-11.5-2.5c-2.3-0.2-4.7-0.3-7-0.5
				c-0.6,0-2.8,0.2-3.8-0.2c0-0.1,0-0.2,0.1-0.2c0,0,0-0.1-0.1,0C28.3,5.9,28.2,6,28.1,6C28,6,27.9,5.9,27.8,5.8
				c-0.1-0.1-0.2,0-0.2,0.1C27.7,6,27.9,6.1,28,6.2c-1.6,1.9-3.4,3.8-5,5.7c-1.3,1.5-2.5,3.7-1.6,5.7c0,0,0,0.1,0.1,0.1
				c0.4,1,1.4,1.7,2.5,2.3c2.1,1.2,5.1,2.4,7.5,1.3c0.1,0,0.1-0.1,0.1-0.1c1.8-0.6,3.5-1.8,5.2-2.6c2.1-0.9,4.2-1.9,6.1-3.1
				c0.1,0,0.1-0.1,0.1-0.2c0.5-0.5,0.9-1.4,1.5-1.9c0.4,0.2,0.8,0.4,1.2,0.5c0,0,0,0,0.1,0c0,0,0,0,0.1,0c0.1,0,0.1,0,0.1-0.1
				c1.7-0.8,3.2-2,4.8-2.9c1.5,0.8,2.9,1.8,4.5,2.5c0,0,0.1,0.1,0.1,0.1c0,0,0,0,0.1,0c0,0,0,0,0.1,0c0.4-0.2,0.8-0.4,1.2-0.6
				c0.6,0.5,1.1,1.4,1.6,1.9c0,0.1,0,0.1,0.1,0.1c2,1.1,4.1,1.9,6.2,2.7c1.7,0.7,3.6,1.9,5.4,2.4c0,0,0,0.1,0.1,0.1
				c2.3,0.9,5-0.2,7-1.4c1.2-0.7,2.3-1.5,2.7-2.7c0,0,0.1-0.1,0.1-0.1C80.5,13.9,79.1,11.9,77.8,10.4z"/>
			<g>
				<path fill="#1D1E1C" d="M17.1-58.6C16.8-52.4,18-46,18.7-39.8c0.7,5.7,1.3,11.2,2.6,16.8c2.1,9.6,4.4,19.2,6.5,28.9
					c0.1,0.6,1,0.3,0.9-0.3c-2.1-9.4-4.3-18.7-6.5-28c-2.7-11.9-3.1-24.1-4.9-36.1C17.2-58.7,17.1-58.7,17.1-58.6L17.1-58.6z"/>
			</g>
			<g>
				<path fill="#1D1E1C" d="M80.1-60.5c-1.2,12-0.9,24.1-3,36c-1.7,9.6-3.7,19.2-5.4,28.9c-0.1,0.6,0.8,0.8,0.9,0.2
					c1.7-9.7,3.6-19.3,5.3-28.9c0.9-5.3,1.3-10.7,1.7-16.1c0.4-6.6,1.4-13.5,0.8-20C80.3-60.7,80.2-60.7,80.1-60.5L80.1-60.5z"/>
			</g>
			<g>
				<path fill="#1D1E1C" d="M50.9,9.4c2.7-15.4,1.3-31.2,2.3-46.7c0-0.6-0.9-0.5-0.9,0c-0.7,15.6-0.1,31.1-1.6,46.7
					C50.8,9.5,50.9,9.5,50.9,9.4L50.9,9.4z"/>
			</g>
			<g>
				<path fill="#1D1E1C" d="M27.7,5.9C28.4,7.2,34,7,35.1,7c5.1,0.4,10.6,0.6,15.3,2.6c0.3,0.1,0.6-0.3,0.3-0.5
					C47.3,7.2,42.9,7,39.2,6.7c-2.3-0.2-4.7-0.3-7-0.5c-0.8,0-3.8,0.2-4.3-0.4C27.8,5.7,27.7,5.8,27.7,5.9L27.7,5.9z"/>
			</g>
			<g>
				<path fill="#1D1E1C" d="M51.1,10.2c2.8-1.5,4.7-2.9,8-3.2c2.1-0.2,4.2-0.2,6.3-0.6c2.3-0.5,4.6-1.2,6.9-1.6
					c0.3-0.1,0.1-0.5-0.1-0.4c-2.3,0.4-4.7,1.1-7,1.5c-2.6,0.5-5.2,0.4-7.8,0.7C54.8,7,53,8.6,50.9,10
					C50.8,10.1,50.9,10.3,51.1,10.2L51.1,10.2z"/>
			</g>
			<g>
				<path fill="#1D1E1C" d="M69.5,3.6c0.5-0.8,0.6-1.9,0.7-2.8C70.5-1,71-2.9,71.4-4.7c0.9-4.2,1.6-8.4,2-12.6c0-0.2-0.3-0.2-0.4,0
					c-0.6,4.2-1.2,8.4-2.1,12.5c-0.5,2.7-0.7,5.9-1.6,8.4C69.3,3.7,69.4,3.7,69.5,3.6L69.5,3.6z"/>
			</g>
			<g>
				<path fill="#1D1E1C" d="M31.6,3.4c-0.4-3.4-1-6.7-1.4-10.1c-0.5-3.4-0.7-6.8-1.5-10.1c0-0.1-0.2-0.1-0.2,0
					c0.2,6.6,1.6,13.7,3,20.2C31.4,3.5,31.6,3.5,31.6,3.4L31.6,3.4z"/>
			</g>
			<g>
				<path fill="#1D1E1C" d="M28.4,5.8c-1.7,2.1-3.6,4-5.4,6.1c-1.3,1.5-2.5,3.7-1.6,5.7c0.1,0.2,0.4,0.2,0.3-0.1
					c-0.4-3,1.1-4.9,3.1-7C26,9.2,28.1,7.7,28.4,5.8C28.4,5.8,28.4,5.8,28.4,5.8L28.4,5.8z"/>
			</g>
			<g>
				<path fill="#1D1E1C" d="M21.4,15.7c-0.6,2.1,0.8,3.4,2.5,4.4c2.1,1.2,5.1,2.4,7.5,1.3c0.2-0.1,0-0.4-0.1-0.3
					C29,21.5,27,21,25,20.1c-2.1-1-3.1-2-3.4-4.4C21.6,15.6,21.4,15.5,21.4,15.7L21.4,15.7z"/>
			</g>
			<g>
				<path fill="#1D1E1C" d="M31.1,21.3c1.9-0.5,3.8-1.9,5.6-2.7c2.1-0.9,4.2-1.9,6.1-3.1c0.2-0.1,0-0.3-0.2-0.3
					c-1.8,0.8-3.6,1.8-5.4,2.6c-2.1,1-4.2,2.3-6.3,3.2C30.9,21.2,31,21.3,31.1,21.3L31.1,21.3z"/>
			</g>
			<g>
				<path fill="#1D1E1C" d="M42.8,15.4c0.7-0.7,1.2-2.4,2.4-2.3c0.2,0,0.2-0.3,0-0.3c-1.3-0.1-1.8,1.7-2.6,2.5
					C42.6,15.4,42.7,15.5,42.8,15.4L42.8,15.4z"/>
			</g>
			<g>
				<path fill="#1D1E1C" d="M45.2,13.2c0.1,0.1,0.2,0.2,0.2,0.3c0.1,0.1,0,0.3,0.1,0.4c0.1,0.1,0.3,0.1,0.3,0
					c0.1-0.3-0.3-1.3-0.7-0.9C45.1,13.1,45.1,13.1,45.2,13.2L45.2,13.2z"/>
			</g>
			<g>
				<path fill="#1D1E1C" d="M45.8,14c1.7-0.8,3.2-2,4.9-3c0.1-0.1,0-0.3-0.1-0.3c-0.9,0.3-1.6,1-2.4,1.6c-0.8,0.5-1.8,0.8-2.4,1.6
					C45.6,13.9,45.7,14,45.8,14L45.8,14z"/>
			</g>
			<g>
				<path fill="#1D1E1C" d="M50.3,10.9c0.5,0.1,0.9-1.3,0.6-1.6c0,0-0.1-0.1-0.2,0c-0.1,0.1-0.1,0.1-0.1,0.3c0,0.2,0,0.4-0.1,0.6
					c0,0.1-0.1,0.2-0.2,0.4c-0.1,0.1-0.1,0.1-0.2,0.3C50.3,10.9,50.3,10.9,50.3,10.9L50.3,10.9z"/>
			</g>
			<g>
				<path fill="#1D1E1C" d="M44.3,13.4c0.5,0.3,0.9,0.5,1.4,0.6c0.2,0,0.2-0.2,0.1-0.3c-0.5-0.1-0.9-0.3-1.4-0.5
					C44.2,13.3,44.2,13.4,44.3,13.4L44.3,13.4z"/>
			</g>
			<g>
				<path fill="#1D1E1C" d="M72.1,4.5c0.4,1.7,2.3,3,3.5,4.1c2.2,2.1,4,4.1,3.8,7.2c0,0.2,0.3,0.2,0.3,0c0.8-2.1-0.6-4.1-1.9-5.6
					C76.1,8.3,74,6.5,72.1,4.5C72.2,4.5,72.1,4.5,72.1,4.5L72.1,4.5z"/>
			</g>
			<g>
				<path fill="#1D1E1C" d="M79.5,14c-0.2,2.3-0.9,3.2-2.8,4.3c-2.1,1.2-4.2,1.9-6.6,1.5c-0.2,0-0.3,0.2-0.1,0.3
					c2.3,0.9,5-0.2,7-1.4c1.8-1,3.5-2.5,2.7-4.7C79.6,13.9,79.5,13.9,79.5,14L79.5,14z"/>
			</g>
			<g>
				<path fill="#1D1E1C" d="M70.3,19.9c-1.7-0.7-3.2-1.6-4.9-2.3c-2.4-0.9-4.6-2-7-3c-0.2-0.1-0.3,0.2-0.1,0.3
					c2,1.1,4.1,1.9,6.2,2.7c1.9,0.7,3.8,2.1,5.8,2.5C70.3,20.1,70.4,20,70.3,19.9L70.3,19.9z"/>
			</g>
			<g>
				<path fill="#1D1E1C" d="M58.4,14.6c-0.8-0.7-1.4-2.5-2.7-2.3c-0.2,0-0.2,0.3,0,0.3c1.1-0.1,1.8,1.6,2.5,2.2
					C58.3,14.9,58.5,14.7,58.4,14.6L58.4,14.6z"/>
			</g>
			<g>
				<path fill="#1D1E1C" d="M55.8,12.5c-0.4-0.4-0.7,0.6-0.6,0.9c0.1,0.1,0.2,0.2,0.3,0c0.1-0.1,0.1-0.3,0.1-0.4
					c0-0.2,0.1-0.2,0.2-0.3C55.8,12.6,55.8,12.6,55.8,12.5L55.8,12.5z"/>
			</g>
			<g>
				<path fill="#1D1E1C" d="M55.3,13.4c-0.6-0.7-1.5-1-2.3-1.3c-0.8-0.4-1.5-1-2.3-1.3c-0.2,0-0.3,0.2-0.1,0.3
					c1.5,0.8,3,1.9,4.7,2.5C55.3,13.5,55.3,13.4,55.3,13.4L55.3,13.4z"/>
			</g>
			<g>
				<path fill="#1D1E1C" d="M56.6,12.7c-0.5,0.2-0.9,0.4-1.4,0.6c-0.2,0.1-0.1,0.3,0.1,0.3c0.5-0.2,0.9-0.4,1.4-0.7
					C56.7,12.8,56.7,12.7,56.6,12.7L56.6,12.7z"/>
			</g>
			<g>
				<path fill="#1D1E1C" d="M22,15.7c0.6,1,1.8,1.6,2.9,2.1c1.1,0.5,2.6,1.3,3.8,1.2c0.1,0,0.2-0.2,0.1-0.2
					c-2.2-0.9-4.9-1.3-6.5-3.2C22.1,15.3,21.9,15.5,22,15.7L22,15.7z"/>
			</g>
			<g>
				<path fill="#1D1E1C" d="M32.1,17.5c4.2-1.8,8.1-4.6,12-7c0.1-0.1,0-0.2-0.1-0.2c-4.2,1.8-8.1,4.6-12,7
					C32,17.4,32,17.5,32.1,17.5L32.1,17.5z"/>
			</g>
			<g>
				<path fill="#1D1E1C" d="M57,10.1c1.8,0.8,3.5,1.9,5.3,2.7c2.4,1.2,4.8,2.2,7.1,3.6c0.2,0.1,0.4-0.2,0.2-0.3
					c-2.2-1.5-4.7-2.5-7.1-3.6c-1.7-0.8-3.5-2.1-5.4-2.5C57,10,57,10.1,57,10.1L57,10.1z"/>
			</g>
			<g>
				<path fill="#1D1E1C" d="M71.8,17.1c0.6,0.9,2.6-0.1,3.4-0.3c1.1-0.3,3.5-1,3.7-2.4c0-0.1-0.1-0.2-0.2-0.1
					c-0.9,1.1-1.9,1.6-3.3,2.1C74.4,16.7,72.9,17.4,71.8,17.1C71.8,17,71.8,17,71.8,17.1L71.8,17.1z"/>
			</g>
			<path opacity="0.2" fill="#FFFFFF" d="M77.2-50.6c0.1,2.7,0,5.3-0.2,8c-0.5,5.3-0.7,10.6-1.3,15.9c-0.5,5.1-1.7,10.3-2.5,15.4
				c-0.4,2.5-0.7,5-1.4,7.4c-0.4,1.2-0.6,2.4-0.8,3.7c-0.2,1-1.7,5-0.7,3.7c0.5-0.6,0.8,0,1.9-4.8c0.6-2.6,1.3-5.2,1.7-7.9
				c0.7-5,2.2-10,2.7-15c0.2-2.7,0.5-5.4,0.8-8.1c0.3-2.7,0.2-5.5,0.4-8.2c0.2-2.9,0.5-5.7,0.5-8.6c0-1.3,0-2.5-0.1-3.8
				c0-1.3-0.4-4.5-0.5-3.8C77.3-54.9,77.2-52.6,77.2-50.6z"/>
			<path opacity="0.2" fill="#FFFFFF" d="M52.3-42.3c-0.5,0.8-0.4,0.7-0.9,1.5c-0.5,0.7-0.9,1.4-1.3,2.2c-0.7,1.4-0.1,3,0,4.4
				c0.2,4.2,0.1,9.9-0.2,14C49.4-11.5,49.3-4.4,49,4.6c0,0.7,0.8-1.1,1.1-3.8c0.6-8.2,0.4-11.2,0.9-19.4c0.3-4,0.3-9.8,0.1-13.8
				c0-0.9-0.1-1.9-0.1-2.8c-0.1-1.1-0.6-2.2-0.1-3.3c0.4-0.8,0.9-1.6,1.4-2.3c0.5-0.7,0.6-1.6,1-2.4C53.6-43.7,52.6-42.7,52.3-42.3z
				"/>
			<path opacity="0.2" fill="#FFFFFF" d="M78.1,13.5c-0.3-0.6-0.6-1.2-1-1.7c-0.6-0.7-1.4-1.2-2.1-1.9c-1.1-1.3-1.9-2.8-3-4.1
				c-0.4-0.5-1.1,0.3-0.8,0.7c1,1.2,1.8,2.5,2.7,3.8c0.4,0.6,0.9,1,1.4,1.5c0.9,0.7,1.4,1.5,1.9,2.5C77.6,14.8,78.4,14,78.1,13.5z"
				/>
		</g>
	</g>
</g>
<g>
	<g>
		<rect x="39.2" y="25.5" fill="#F5F5F5" width="5.4" height="1.5"/>
	</g>
</g>
</svg>
