<?xml version="1.0" encoding="utf-8"?>
<!-- Generator: Adobe Illustrator 18.1.0, SVG Export Plug-In . SVG Version: 6.00 Build 0)  -->
<svg version="1.0" id="Capa_1_copia" xmlns="http://www.w3.org/2000/svg" xmlns:xlink="http://www.w3.org/1999/xlink" x="0px"
	 y="0px" viewBox="0 0 85 90.9" enable-background="new 0 0 85 90.9" xml:space="preserve">
<rect x="-850.1" fill="#575756" width="1280" height="35"/>
<rect x="-0.1" y="6" fill="#3E3E3D" width="1" height="24"/>
<rect x="84.9" y="6" fill="#3E3E3D" width="1" height="24"/>
<g>
	<rect x="-85" y="34.9" fill="#BDBDBD" width="85" height="56"/>
</g>
<g>
	<g>
		<path fill="#F5F5F5" d="M19.5,16c0,0.1,0,0.3-0.1,0.4s-0.2,0.2-0.3,0.3s-0.2,0.2-0.4,0.2S18.5,17,18.4,17c0,0.9,0,1.7-0.1,2.6
			s-0.1,1.7-0.2,2.5h0.1c0.1,0,0.2,0,0.4,0s0.2,0.1,0.3,0.1s0.2,0.1,0.2,0.2s0.1,0.2,0.1,0.4c0,0.2-0.1,0.3-0.2,0.5
			s-0.3,0.2-0.4,0.3s-0.4,0.2-0.6,0.2s-0.5,0.1-0.7,0.1s-0.4,0.1-0.6,0.1s-0.4,0-0.5,0c-0.1,0-0.2,0-0.3,0s-0.3,0-0.4-0.1
			S15.1,24,15,23.9s-0.1-0.2-0.1-0.3c0-0.2,0-0.3,0.1-0.4s0.2-0.2,0.3-0.3s0.2-0.2,0.4-0.2s0.3-0.1,0.4-0.1c0.1-0.4,0.1-0.9,0.2-1.3
			s0.1-0.9,0.1-1.3c0-0.4,0-0.9,0-1.3s0-0.9,0-1.3c-0.1,0-0.1,0-0.2,0s-0.1,0-0.1,0c-0.1,0-0.2,0-0.4,0s-0.2-0.1-0.4-0.1
			s-0.2-0.1-0.3-0.2S15,16.7,15,16.6c0-0.3,0.1-0.5,0.3-0.7s0.5-0.3,0.8-0.4c0.3-0.1,0.6-0.2,0.9-0.2s0.6-0.1,0.8-0.1
			c0.1,0,0.3,0,0.4,0s0.4,0.1,0.5,0.1s0.3,0.1,0.5,0.2S19.5,15.8,19.5,16z"/>
		<path fill="#F5F5F5" d="M23.4,24.3c-0.1,0-0.2-0.1-0.3-0.2s-0.1-0.3-0.2-0.4s-0.1-0.3-0.1-0.5s0-0.3,0-0.4c0-0.2,0-0.5,0-0.7
			s0.1-0.5,0.1-0.7S23,21,23,20.7s0-0.5,0-0.7c0-0.1,0-0.2,0-0.3s0-0.2-0.1-0.3s-0.1-0.2-0.1-0.2s-0.1-0.1-0.2-0.1
			c-0.1,0-0.1,0.1-0.2,0.2s-0.2,0.2-0.2,0.4s-0.1,0.3-0.2,0.4s-0.1,0.3-0.1,0.3c0,0.2,0,0.3,0,0.5s0,0.4,0,0.5v0.7
			c0,0.1,0,0.3,0,0.4s0,0.3-0.1,0.4c0,0.1-0.1,0.3-0.1,0.4s-0.1,0.2-0.2,0.3s-0.2,0.2-0.3,0.2s-0.2,0.1-0.4,0.1
			c-0.2,0-0.3-0.1-0.4-0.2s-0.2-0.2-0.2-0.4s-0.1-0.3-0.1-0.5s0-0.4-0.1-0.6s0-0.4,0-0.5s0-0.3,0-0.4v-0.6c0-0.3,0-0.6,0-0.9
			s0-0.6,0-0.9c0-0.2,0-0.4,0-0.6s0-0.5,0.1-0.7s0.1-0.4,0.3-0.6s0.3-0.2,0.6-0.2c0.1,0,0.2,0,0.3,0.1s0.2,0.2,0.2,0.3
			s0.1,0.2,0.2,0.3s0.1,0.2,0.1,0.3c0.1-0.1,0.2-0.2,0.3-0.3s0.2-0.2,0.4-0.3s0.3-0.1,0.4-0.2s0.4-0.1,0.6-0.1
			c0.4,0,0.7,0.1,0.9,0.3s0.4,0.4,0.5,0.7s0.2,0.6,0.2,0.9s0,0.6,0,0.9c0,0.1,0,0.3,0,0.6s-0.1,0.6-0.1,0.9s-0.1,0.6-0.2,1
			s-0.2,0.6-0.3,0.9s-0.3,0.5-0.4,0.7S23.6,24.3,23.4,24.3z"/>
		<path fill="#F5F5F5" d="M28.7,24.4c-0.6,0-1-0.1-1.3-0.2s-0.5-0.3-0.7-0.6s-0.2-0.6-0.3-1s0-0.8,0-1.3c0-0.4,0-0.7,0-1.1
			s0.1-0.8,0.1-1.2c-0.1,0-0.2,0-0.3,0s-0.1,0-0.2,0c-0.2,0-0.5-0.1-0.7-0.2s-0.3-0.3-0.3-0.5c0-0.1,0.1-0.3,0.2-0.4
			s0.2-0.2,0.4-0.3s0.3-0.1,0.5-0.2s0.4-0.1,0.5-0.1c0-0.2,0-0.5,0-0.7s0.1-0.5,0.2-0.7s0.2-0.4,0.3-0.6s0.3-0.2,0.5-0.2
			c0.1,0,0.2,0,0.3,0.1s0.2,0.2,0.2,0.3s0.1,0.2,0.1,0.4s0,0.3,0,0.4c0,0.2,0,0.3,0,0.5s-0.1,0.4-0.1,0.6c0.1,0,0.2,0,0.3,0
			s0.1,0,0.1,0c0.1,0,0.3,0,0.4,0s0.3,0.1,0.4,0.1s0.2,0.1,0.3,0.2s0.1,0.2,0.1,0.3c0,0.1-0.1,0.3-0.2,0.4s-0.3,0.2-0.4,0.3
			s-0.4,0.1-0.6,0.2S28.6,19,28.5,19c0,0.3-0.1,0.6-0.1,0.9s0,0.5-0.1,0.8c0,0.1,0,0.3,0,0.4s0,0.3,0,0.4c0,0.1,0,0.2,0,0.4
			s0,0.3,0.1,0.4s0.1,0.2,0.2,0.3s0.2,0.1,0.4,0.1c0.1,0,0.2,0,0.3,0s0.2,0,0.4,0c0.2,0,0.3,0.1,0.4,0.2s0.1,0.3,0.1,0.5
			c0,0.2,0,0.3-0.1,0.4s-0.2,0.2-0.4,0.3s-0.3,0.1-0.5,0.2S28.9,24.4,28.7,24.4z"/>
		<path fill="#F5F5F5" d="M35.8,21.9c0,0.3-0.1,0.5-0.3,0.8s-0.4,0.5-0.6,0.7s-0.5,0.4-0.8,0.5S33.5,24,33.3,24
			c-0.4,0-0.8-0.1-1.1-0.3s-0.6-0.5-0.8-0.8s-0.4-0.7-0.5-1.1s-0.2-0.8-0.2-1.1c0-0.4,0.1-0.8,0.2-1.3s0.3-0.9,0.5-1.2
			s0.5-0.7,0.8-0.9s0.7-0.4,1.2-0.4c0.3,0,0.5,0,0.8,0.1s0.5,0.2,0.6,0.4s0.3,0.4,0.4,0.6s0.2,0.5,0.2,0.8c0,0.4-0.1,0.7-0.2,1
			s-0.4,0.6-0.6,0.8S34,21,33.6,21.2s-0.7,0.2-1,0.2c0,0.2,0.1,0.4,0.3,0.5s0.3,0.2,0.5,0.2c0.2,0,0.3,0,0.5-0.1s0.3-0.2,0.4-0.3
			s0.3-0.2,0.4-0.3s0.3-0.1,0.4-0.1c0.2,0,0.3,0.1,0.4,0.2S35.8,21.7,35.8,21.9z M33.9,19c0-0.1,0-0.2-0.1-0.3s-0.1-0.2-0.3-0.2
			c-0.2,0-0.3,0-0.4,0.1s-0.2,0.2-0.3,0.3s-0.1,0.3-0.2,0.4s-0.1,0.3-0.1,0.4c0.1,0,0.2-0.1,0.4-0.1s0.3-0.1,0.4-0.2
			s0.3-0.2,0.4-0.3S33.9,19.1,33.9,19z"/>
		<path fill="#F5F5F5" d="M40.6,19.6c-0.1,0-0.2,0-0.3,0s-0.2-0.1-0.2-0.1c-0.1,0-0.1-0.1-0.2-0.1s-0.1,0-0.2,0
			c-0.2,0-0.3,0.1-0.4,0.1s-0.2,0.2-0.3,0.3s-0.2,0.2-0.3,0.4s-0.1,0.3-0.2,0.4c0,0.1,0,0.2-0.1,0.4s0,0.4,0,0.6c0,0.2,0,0.4,0,0.6
			s0,0.4,0,0.5c0,0.1,0,0.3-0.1,0.4s-0.1,0.3-0.1,0.5S38.1,23.9,38,24s-0.2,0.2-0.4,0.2c-0.1,0-0.2,0-0.3-0.1s-0.2-0.2-0.2-0.3
			s-0.1-0.3-0.2-0.5s-0.1-0.3-0.1-0.5c0-0.2,0-0.4-0.1-0.6s0-0.4,0-0.5s0-0.3,0-0.5s0-0.3,0-0.3c0-0.3,0-0.5,0-0.8s0-0.6,0-0.8
			c0-0.2,0-0.4,0-0.6s0.1-0.4,0.1-0.6s0.2-0.3,0.3-0.5s0.3-0.2,0.6-0.2c0.1,0,0.2,0,0.3,0.1s0.2,0.2,0.2,0.3s0.1,0.3,0.1,0.4
			s0.1,0.3,0.1,0.4c0.2-0.3,0.4-0.6,0.6-0.7s0.5-0.3,0.9-0.3c0.2,0,0.4,0,0.6,0.1s0.4,0.1,0.5,0.2s0.3,0.2,0.4,0.4s0.2,0.3,0.2,0.6
			c0,0.2-0.1,0.4-0.2,0.6S40.9,19.6,40.6,19.6z"/>
		<path fill="#F5F5F5" d="M47,22.3c0,0.1,0,0.3,0,0.6s0,0.4-0.1,0.7s-0.1,0.4-0.3,0.6s-0.3,0.2-0.5,0.2c-0.3,0-0.5-0.1-0.7-0.3
			s-0.2-0.4-0.2-0.7c-0.2,0.2-0.5,0.4-0.8,0.5s-0.6,0.2-1,0.2c-0.2,0-0.4-0.1-0.6-0.2s-0.4-0.2-0.5-0.4s-0.3-0.4-0.4-0.6
			s-0.1-0.4-0.1-0.6c0-0.4,0.1-0.7,0.3-1s0.5-0.5,0.8-0.7s0.7-0.4,1.1-0.5s0.7-0.2,1-0.2c0,0,0-0.1,0-0.1s0-0.1,0-0.1
			c0-0.2-0.1-0.4-0.2-0.6s-0.3-0.2-0.6-0.2c-0.2,0-0.4,0-0.5,0.1s-0.3,0.1-0.4,0.2s-0.2,0.2-0.4,0.2s-0.3,0.1-0.4,0.1
			c-0.2,0-0.3-0.1-0.4-0.2s-0.2-0.2-0.2-0.4c0-0.3,0.1-0.5,0.2-0.7s0.3-0.4,0.6-0.5s0.5-0.3,0.8-0.3s0.5-0.1,0.7-0.1
			c0.2,0,0.4,0,0.6,0.1s0.4,0.1,0.6,0.2s0.4,0.2,0.5,0.4s0.3,0.3,0.4,0.5c0.1,0.3,0.3,0.6,0.3,0.9s0.2,0.7,0.2,1s0.1,0.7,0.1,1
			S47,22,47,22.3z M45.1,21.9l0-0.8c0,0,0,0,0,0s0,0,0,0c-0.1,0-0.2,0-0.4,0.1s-0.3,0.1-0.4,0.2s-0.3,0.2-0.4,0.3s-0.1,0.2-0.1,0.3
			c0,0.1,0,0.2,0.1,0.2s0.2,0.1,0.3,0.1c0.2,0,0.4,0,0.6-0.1S45,22,45.1,21.9z"/>
		<path fill="#F5F5F5" d="M52.4,19.5c0,0,0,0.1,0,0.1s0,0.1,0,0.1c-0.1,0.2-0.2,0.3-0.3,0.5s-0.3,0.2-0.5,0.2
			c-0.3,0-0.5-0.2-0.6-0.5c0,0,0-0.1,0-0.1s0-0.1,0-0.2v-0.3c0-0.1,0-0.2-0.1-0.3s-0.1-0.1-0.2-0.1c-0.1,0-0.3,0.1-0.4,0.3
			s-0.2,0.4-0.3,0.6s-0.2,0.5-0.2,0.7s-0.1,0.4-0.1,0.6c0,0.1,0,0.3,0,0.4s0,0.3,0.1,0.5s0.1,0.3,0.2,0.4s0.2,0.2,0.3,0.2
			s0.3,0,0.4-0.1s0.2-0.2,0.3-0.3c0.1-0.1,0.2-0.2,0.3-0.3s0.3-0.2,0.4-0.2c0.2,0,0.3,0.1,0.5,0.2s0.2,0.3,0.2,0.5
			c0,0.3-0.1,0.5-0.2,0.7s-0.3,0.4-0.5,0.6s-0.4,0.3-0.7,0.4s-0.5,0.1-0.7,0.1c-0.4,0-0.8-0.1-1.1-0.3s-0.5-0.5-0.7-0.8
			s-0.3-0.7-0.4-1.1s-0.1-0.7-0.1-1.1c0-0.4,0.1-0.8,0.2-1.3s0.3-0.9,0.5-1.3s0.5-0.7,0.9-1s0.8-0.4,1.3-0.4c0.3,0,0.6,0.1,0.8,0.2
			s0.4,0.3,0.6,0.5s0.3,0.5,0.3,0.7s0.1,0.5,0.1,0.8c0,0,0,0.1,0,0.1S52.4,19.4,52.4,19.5z"/>
		<path fill="#F5F5F5" d="M56.1,24.4c-0.6,0-1-0.1-1.3-0.2s-0.5-0.3-0.7-0.6s-0.2-0.6-0.3-1s0-0.8,0-1.3c0-0.4,0-0.7,0-1.1
			s0.1-0.8,0.1-1.2c-0.1,0-0.2,0-0.3,0s-0.1,0-0.2,0c-0.2,0-0.5-0.1-0.7-0.2s-0.3-0.3-0.3-0.5c0-0.1,0.1-0.3,0.2-0.4
			s0.2-0.2,0.4-0.3s0.3-0.1,0.5-0.2s0.4-0.1,0.5-0.1c0-0.2,0-0.5,0-0.7s0.1-0.5,0.2-0.7s0.2-0.4,0.3-0.6s0.3-0.2,0.5-0.2
			c0.1,0,0.2,0,0.3,0.1s0.2,0.2,0.2,0.3s0.1,0.2,0.1,0.4s0,0.3,0,0.4c0,0.2,0,0.3,0,0.5S56,17.2,56,17.4c0.1,0,0.2,0,0.3,0
			s0.1,0,0.1,0c0.1,0,0.3,0,0.4,0s0.3,0.1,0.4,0.1s0.2,0.1,0.3,0.2s0.1,0.2,0.1,0.3c0,0.1-0.1,0.3-0.2,0.4s-0.3,0.2-0.4,0.3
			s-0.4,0.1-0.6,0.2S56.1,19,55.9,19c0,0.3-0.1,0.6-0.1,0.9s0,0.5-0.1,0.8c0,0.1,0,0.3,0,0.4s0,0.3,0,0.4c0,0.1,0,0.2,0,0.4
			s0,0.3,0.1,0.4s0.1,0.2,0.2,0.3s0.2,0.1,0.4,0.1c0.1,0,0.2,0,0.3,0s0.2,0,0.4,0c0.2,0,0.3,0.1,0.4,0.2s0.1,0.3,0.1,0.5
			c0,0.2,0,0.3-0.1,0.4s-0.2,0.2-0.4,0.3s-0.3,0.1-0.5,0.2S56.3,24.4,56.1,24.4z"/>
		<path fill="#F5F5F5" d="M63.4,20.6c0,0.4,0,0.9-0.1,1.3S63,22.7,62.8,23s-0.5,0.6-0.8,0.8s-0.8,0.3-1.3,0.3
			c-0.5,0-0.9-0.1-1.3-0.3s-0.6-0.5-0.8-0.8s-0.3-0.7-0.4-1.1s-0.1-0.8-0.1-1.3c0-0.5,0.1-0.9,0.2-1.4c0-0.1,0.1-0.3,0.1-0.5
			s0.2-0.4,0.3-0.7s0.2-0.4,0.4-0.6s0.3-0.2,0.5-0.2c0.2,0,0.3,0,0.4,0.1s0.2,0.2,0.2,0.3s0.1,0.3,0.1,0.4s0,0.3,0,0.4
			c0,0.2,0,0.4,0,0.5s-0.1,0.3-0.1,0.5c0,0.2-0.1,0.5-0.1,0.7s0,0.5,0,0.7c0,0.1,0,0.2,0,0.4s0,0.3,0.1,0.4s0.1,0.2,0.2,0.3
			s0.2,0.1,0.4,0.1c0.2,0,0.4-0.1,0.5-0.2s0.2-0.2,0.3-0.4s0.1-0.3,0.1-0.5s0-0.4,0-0.5c0-0.3,0-0.7-0.1-1s-0.1-0.7-0.1-1
			c0,0,0-0.1,0-0.2c0-0.1,0-0.2,0.1-0.4s0.1-0.2,0.2-0.3s0.2-0.2,0.3-0.2s0.2-0.1,0.3-0.1c0.2,0,0.3,0.1,0.5,0.2s0.2,0.3,0.3,0.5
			s0.2,0.4,0.2,0.6s0.1,0.5,0.1,0.7s0.1,0.4,0.1,0.7S63.4,20.5,63.4,20.6z M62.3,15.3c0,0.1,0,0.2-0.1,0.3s-0.1,0.2-0.2,0.2
			s-0.1,0.1-0.2,0.2s-0.1,0.1-0.2,0.2c-0.1,0-0.1,0.1-0.2,0.1s-0.1,0.1-0.2,0.1s-0.1,0.1-0.2,0.1s-0.1,0-0.2,0c-0.1,0-0.1,0-0.2-0.1
			s-0.1-0.1-0.1-0.2c0-0.1,0-0.3,0.1-0.4s0.2-0.3,0.3-0.5s0.3-0.3,0.4-0.4s0.3-0.2,0.4-0.2c0.1,0,0.2,0,0.3,0.1S62.3,15.2,62.3,15.3
			z"/>
		<path fill="#F5F5F5" d="M69.5,22.3c0,0.1,0,0.3,0,0.6s0,0.4-0.1,0.7s-0.1,0.4-0.3,0.6s-0.3,0.2-0.5,0.2c-0.3,0-0.5-0.1-0.7-0.3
			s-0.2-0.4-0.2-0.7c-0.2,0.2-0.5,0.4-0.8,0.5s-0.6,0.2-1,0.2c-0.2,0-0.4-0.1-0.6-0.2s-0.4-0.2-0.5-0.4s-0.3-0.4-0.4-0.6
			s-0.1-0.4-0.1-0.6c0-0.4,0.1-0.7,0.3-1s0.5-0.5,0.8-0.7s0.7-0.4,1.1-0.5s0.7-0.2,1-0.2c0,0,0-0.1,0-0.1s0-0.1,0-0.1
			c0-0.2-0.1-0.4-0.2-0.6s-0.3-0.2-0.6-0.2c-0.2,0-0.4,0-0.5,0.1s-0.3,0.1-0.4,0.2s-0.2,0.2-0.4,0.2s-0.3,0.1-0.4,0.1
			c-0.2,0-0.3-0.1-0.4-0.2s-0.2-0.2-0.2-0.4c0-0.3,0.1-0.5,0.2-0.7s0.3-0.4,0.6-0.5s0.5-0.3,0.8-0.3s0.5-0.1,0.7-0.1
			c0.2,0,0.4,0,0.6,0.1s0.4,0.1,0.6,0.2s0.4,0.2,0.5,0.4s0.3,0.3,0.4,0.5c0.1,0.3,0.3,0.6,0.3,0.9s0.2,0.7,0.2,1s0.1,0.7,0.1,1
			S69.5,22,69.5,22.3z M67.6,21.9l0-0.8c0,0,0,0,0,0s0,0,0,0c-0.1,0-0.2,0-0.4,0.1s-0.3,0.1-0.4,0.2s-0.3,0.2-0.4,0.3
			s-0.1,0.2-0.1,0.3c0,0.1,0,0.2,0.1,0.2s0.2,0.1,0.3,0.1c0.2,0,0.4,0,0.6-0.1S67.4,22,67.6,21.9z"/>
	</g>
</g>
<g>
	<rect x="0" y="34.9" fill="#FADD60" width="85" height="56"/>
	<g>
		<path fill="#CCDC87" d="M64.1,53.9c-6.6-2.8-16.6-3.1-22.5,1.7C33.6,62,34.4,71.6,41.1,78c0.9,1.2,0.3,2.5-0.1,3.9
			c0,0.1,0,0.2,0.2,0.3c0,0,0,0,0,0c0,0,0,0,0,0c0,0,0.1,0,0.1,0c0.6-0.1,1.6-0.6,2.2-0.9c0.6-0.3,1.3-0.7,1.8-1.1c0,0,0,0,0,0
			c9.4,3.3,21,2.3,27-6.3C78,65.6,71.9,57.2,64.1,53.9z"/>
		<path fill="#1D1D1B" d="M64.1,53.9c-6.6-2.8-16.6-3.1-22.5,1.7C33.6,62,34.4,71.6,41.1,78c0.9,1.2,0.3,2.5-0.1,3.9
			c0,0.1,0,0.2,0.2,0.3c0,0,0,0,0,0c0,0,0,0,0,0c0,0,0.1,0,0.1,0c0.6-0.1,1.6-0.6,2.2-0.9c0.6-0.3,1.3-0.7,1.8-1.1c0,0,0,0,0,0
			c9.4,3.3,21,2.3,27-6.3C78,65.6,71.9,57.2,64.1,53.9z M71.3,73.3c-5,8.8-17.3,8.8-25.7,6.3c-0.6,0.2-1.4,0.7-1.9,1
			c-0.6,0.3-1.2,0.5-1.7,0.7c0.4-1,0.6-2.3,0-3.2l0,0c-6.7-7.1-8.1-16.3,1-22.3c5.5-3.6,13.5-3.1,19.5-1.2
			C70.8,57.2,76,65,71.3,73.3z"/>
		<g>
			<path fill="#1D1D1B" d="M44.7,68.8c1.3,0,1.3-2,0-2S43.4,68.8,44.7,68.8L44.7,68.8z"/>
		</g>
		<g>
			<path fill="#1D1D1B" d="M54.9,68.9c1.3,0,1.3-2,0-2S53.6,68.9,54.9,68.9L54.9,68.9z"/>
		</g>
		<g>
			<path fill="#1D1D1B" d="M65.3,69c1.3,0,1.3-2,0-2S64,69,65.3,69L65.3,69z"/>
		</g>
	</g>
	<g>
		<path fill="#FFF59D" d="M38.3,68.3c5.1-6,1.7-14.2-3.1-19.3c-5.4-5.7-13.6-5.1-19.3-0.4c-5.3,4.3-7.4,14-2.7,19.5
			c4.6,5.4,14.6,6.7,20.9,3.8c0,0,0,0,0.1-0.1c0.8,0.3,1.6,0.5,2.3,0.7c1,0.2,2.1,0.5,3.1,0.3l0,0c0.2,0,0.3-0.2,0.3-0.4
			c0-0.3-0.2-0.6-0.4-0.8C39.3,71.1,38.4,69,38.3,68.3z"/>
		<path fill="#1D1D1B" d="M38.3,68.3c5.1-6,1.7-14.2-3.1-19.3c-5.4-5.7-13.6-5.1-19.3-0.4c-5.3,4.3-7.4,14-2.7,19.5
			c4.6,5.4,14.6,6.7,20.9,3.8c0,0,0,0,0.1-0.1c0.8,0.3,1.6,0.5,2.3,0.7c1,0.2,2.1,0.5,3.1,0.3l0,0c0.2,0,0.3-0.2,0.3-0.4
			c0-0.3-0.2-0.6-0.4-0.8C39.3,71.1,38.4,69,38.3,68.3z M34,70.9C34,70.9,34,70.9,34,70.9c-0.1-0.1-0.1-0.1-0.2-0.1c0,0-0.1,0-0.1,0
			c-0.1,0-0.2,0-0.3,0.1c-4.8,2.2-12,1.4-16.6-1.1c-7.3-3.9-5.4-14.2-1-19.3c10.9-12.5,30.2,4.9,21.7,17.9v0c0,0,0,0.1,0,0.1
			c0.2,0.8,0.5,1.5,0.8,2.3c0.1,0.4,0.3,1,0.5,1.5C37.6,71.9,35.4,71.5,34,70.9z"/>
		<g>
			<path fill="#1D1D1B" d="M19.7,61c1.2,0,1.2-1.9,0-1.9S18.5,61,19.7,61L19.7,61z"/>
		</g>
		<g>
			<path fill="#1D1D1B" d="M25.9,61.1c1.2,0,1.2-1.9,0-1.9C24.7,59.2,24.7,61.1,25.9,61.1L25.9,61.1z"/>
		</g>
		<g>
			<path fill="#1D1D1B" d="M32.2,61.2c1.2,0,1.2-1.9,0-1.9C31,59.3,31,61.2,32.2,61.2L32.2,61.2z"/>
		</g>
	</g>
</g>
<g>
	<g>
		<rect x="25.4" y="25.5" fill="#F5F5F5" width="5.4" height="1.5"/>
	</g>
</g>
</svg>
