<?xml version="1.0" encoding="utf-8"?>
<!-- Generator: Adobe Illustrator 18.1.0, SVG Export Plug-In . SVG Version: 6.00 Build 0)  -->
<svg version="1.0" id="Capa_1_copia" xmlns="http://www.w3.org/2000/svg" xmlns:xlink="http://www.w3.org/1999/xlink" x="0px"
	 y="0px" viewBox="0 0 85 91" enable-background="new 0 0 85 91" xml:space="preserve">
<rect x="-85" fill="#575756" width="1280" height="35"/>
<g>
	<rect x="-85" y="35" fill="#E61B73" width="85" height="56"/>
</g>
<g>
	<rect y="35" fill="#881E80" width="85" height="56"/>
	<g>
		<path fill="#B2DFDB" d="M57.8,59.6c0-0.3-0.1-0.6-0.3-0.8c0.3-1.1,0.4-2.1,0.2-3c0-0.1,0.1-0.1,0.1-0.2c0.1-0.3,0.1-0.7,0-1
			c-0.1-0.4-0.3-0.7-0.4-1.1c-0.2-0.5-0.5-1.1-1.1-1.3c0-0.2,0-0.4-0.1-0.6c-0.2-0.4-0.4-0.9-0.6-1.3c-0.2-0.6-0.7-0.8-1.1-0.8
			c-0.2-0.2-0.4-0.5-0.6-0.7c-0.8-1-1.9-1.7-3.1-2.1c-0.1-0.1-0.3-0.1-0.4-0.2c-0.2-0.1-0.4-0.1-0.6,0c-1.1-0.7-2.4-1.3-3.4-0.3
			c-0.1,0-0.2,0-0.3,0c-0.1,0-0.2,0-0.2,0c-0.2-0.1-0.4-0.1-0.6-0.2c-0.5-0.2-1-0.2-1.4,0.1c-0.3,0.2-0.6,0.4-0.8,0.6
			c-0.2-0.1-0.4-0.1-0.6,0c-2.4,1.1-4.3,2.4-6,4.5c0,0,0,0.1-0.1,0.1c-0.7,0.8-1.1,1.7-1,2.7c-0.3,0.7-0.5,1.4-0.4,2.1
			c0,0.3,0,0.7,0,1c0,0.1,0,0.2-0.1,0.3c0,0.2-0.1,0.6,0,0.6l0,0c0,0,0,0.1,0,0.1c0,1.1,0,1.9,0.3,3.1c0.2,0.8,0.6,1.4,1.2,2
			c1.7,3,4.7,4.4,7.9,4.6c0.1,0.1,0.3,0.2,0.5,0.3c-0.3-0.1,0.4,0.2,0.4,0.2c0.2,0.1,0.5,0.2,0.8,0.2c0.6,0,1.1-0.2,1.7-0.2
			c0.7-0.1,1.6-0.1,2.3-0.5c0.2,0.1,0.5,0.2,0.8,0.1c1.1-0.5,2.2-1,3.1-1.8c0.5-0.4,1.2-1,1.6-1.7c0,0,0.1-0.1,0.1-0.1
			C56.6,62.9,57.6,61.4,57.8,59.6z"/>
		<path fill="#80C8CE" d="M42.6,68C42.7,68,42.7,68,42.6,68c0.2,0.1,0.3,0.1,0.5,0.1c1.2-1.8,0.7-4.2,0.3-6.4
			c-0.4-2.2-0.7-4.6-0.5-6.8c0.3-2.4,0.9-6.1,2.6-8.4c-0.4,0-0.7,0.1-1,0.2c-0.3,0.1-0.6,0.1-0.9,0.2c-0.1,0-0.2-0.1-0.4,0
			c-0.1,0-0.1,0-0.2,0.1l0,0l-0.6,0.3c-0.2,0.1-0.3,0.1-0.5,0.2c0,0-0.1,0.1-0.1,0.1c-0.5,0.3-1.1,0.5-1.6,0.8
			c-0.1,0.1-0.2,0.1-0.4,0.2c-0.2,0-0.4,0.1-0.6,0.2c-2.4,1.3-3.9,4.9-4.2,7.4C34.9,58,35,60.5,36,62.3c0,0.2-0.1,0.3,0,0.5
			c0.7,1.6,1.7,2.5,3,3.5c0.6,0.5,1.3,0.8,2.1,1.1c0,0.1,0.1,0.3,0.3,0.3C41.8,68,42.2,68.1,42.6,68z"/>
		<path fill="#455A64" d="M59.2,55.3c0-0.1-0.1-0.1-0.1-0.1c0,0,0-0.1,0-0.1c0-0.8-0.2-1.6-0.5-2.4c0.1-0.2,0.1-0.3,0.1-0.5
			c-0.4-1.5-1.1-2.9-2.3-3.9c-0.1-0.1-0.1-0.1-0.2-0.1c-0.3-0.4-0.7-0.8-1.1-1c-1.3-1.7-3.2-2.6-5.4-2.8c-0.2,0-0.4,0-0.5,0.2
			c-0.1,0-0.1,0-0.2,0c0,0-0.1,0-0.1,0c-1.3-0.4-2.8-0.6-4.1-0.2c-1,0.1-1.9,0.3-2.8,0.6c-0.1,0-0.2,0.1-0.3,0.2
			c-0.9,0.3-1.8,0.7-2.6,1.3c0,0,0,0,0,0c-0.1,0-0.2,0-0.3,0.1c-0.4,0.3-0.8,0.6-1.1,0.9c-0.2,0.1-0.3,0.3-0.5,0.4c0,0,0,0,0,0l0,0
			c0,0-0.1,0.1-0.1,0.1c-0.1,0.1-0.1,0.2-0.1,0.2c-0.6,0.5-0.9,0.9-1.3,1.5c0,0,0,0,0,0c-0.2,0.3-0.3,0.6-0.5,0.9
			c-0.3,0.4-0.5,0.9-0.7,1.4c0,0,0,0,0,0c0,0.1,0,0.1-0.1,0.2c0,0,0,0.1,0,0.1c-0.8,2-2.2,5.6-1,7.5c0,0.7,0.2,1.4,0.4,2
			c-0.1,0.2-0.1,0.4,0,0.7c0.4,0.6,0.6,1.2,1,1.8c0.1,0.2,0.2,0.3,0.4,0.5c0,0.1,0,0.1,0,0.2c0.2,0.4,0.5,0.8,0.8,1c0,0,0,0,0,0
			c0.1,0.1,0.2,0.2,0.3,0.2c0.2,0.2,0.5,0.3,0.8,0.5c0,0.1,0,0.3,0.2,0.4c0.7,0.5,1.4,0.9,2.2,1.2c-0.1,0-0.1,0-0.2,0c0,0,0,0,0,0
			C39,68.1,38.6,68,38.3,68c-0.2,0-0.3,0.2-0.4,0.4c-0.1,0.1-0.1,0.3-0.1,0.4c0,0,0,0.1,0,0.1c-0.7,0.1-1.2,0.8-1.2,1.5
			c-0.1,0.2-0.2,0.4-0.4,0.6c-0.1,0.1-0.1,0.2-0.1,0.4c0,0,0,0-0.1,0.1c-0.2,0-0.4,0.1-0.5,0.3c0,0,0,0,0,0
			c-0.2,0.2-0.2,0.4-0.2,0.7c0,0.4,0.2,0.7,0.5,0.8c0.2,0.1,0.4,0.1,0.7,0c0,0.1,0,0.1,0.1,0.2c0.2,0.3,0.5,0.5,0.7,0.5
			c0,0,0.1,0.1,0.1,0.1c1.4,1,1.9-1.6,2.5-2.2c0.1-0.1,0.1-0.3,0.1-0.5c0.4-0.4,0.7-0.8,1.1-1.2c0.3-0.3,0.3-0.7,0-1
			c0.8,0.3,1.7,0.6,2.5,0.8c0.8,0.6,2,0.3,2.9,0c2.4,0.1,4.6-0.4,6.7-1.5c0.1,0,0.3,0.1,0.4,0c0.6-0.1,1-0.5,1.3-0.9
			c0.5-0.6,1.1-1.1,1.7-1.6c0.2-0.1,0.3-0.3,0.3-0.5c0.2-0.2,0.3-0.5,0.4-0.8c0.6-0.8,1.1-1.7,1.6-2.9
			C59.5,59.7,59.9,57.1,59.2,55.3z M57.3,61.8c-0.6,1.7-1.8,2.6-2.9,3.7c-0.2,0.1-0.3,0.2-0.5,0.4c-0.4,0.3-0.7,0.6-1.1,0.9
			c-0.2,0.1-0.4,0.3-0.6,0.4c-1,0.1-2.1,0.4-3,0.8c-0.3,0.1-2.1,0.3-3.4,0.6c-0.6-0.1-1.3-0.1-1.9-0.3c-0.1,0-0.1,0-0.2,0
			c-0.1-0.1-0.2-0.2-0.3-0.2c-0.9-0.2-1.7-0.5-2.5-0.9c0-0.1-0.1-0.1-0.2-0.1c-0.6-0.4-1.2-0.7-1.9-1c-0.1-0.1-0.3-0.2-0.4-0.2
			c-0.1,0-0.1-0.1-0.2-0.1c0,0-0.1,0-0.1,0c-0.1,0-0.2-0.1-0.2-0.1c-0.3-0.5-0.7-1-1.1-1.5c-0.2-0.2-0.3-0.4-0.5-0.6
			c-0.3-0.5-0.6-0.9-1-1.3c0,0,0-0.1,0-0.1c-0.3-1-0.6-2-0.9-3c0.1-0.8,0.1-1.7,0.2-2.5c0.2-1.5,0.4-2.3,1.1-4.4c0,0,0,0.2,0,0.1
			c0.1-0.3,0.3-0.5,0.4-0.8c0,0,0.1,0,0.1,0c0.2-0.3,0.4-0.5,0.6-0.8c0.2-0.2,0.2-0.4,0.2-0.5c0.1,0,0.2,0,0.3-0.1c0,0,0,0,0.1-0.1
			c0.1,0,0.3-0.1,0.4-0.2c0.3-0.3,0.6-0.6,0.8-0.9c0,0,0-0.1,0-0.1c0,0,0,0,0,0c0.3-0.3,0.7-0.6,1.1-0.9c0,0,0.1-0.1,0.1-0.1
			c0.3-0.2,0.6-0.4,0.9-0.6c1-0.3,2-0.6,3-1c0.1,0,0.1-0.1,0.2-0.1c0.3-0.1,0.5-0.1,0.8-0.2c0.7,0,1.4,0,2.1-0.1
			c0.1,0,0.2-0.1,0.3-0.1c0.5,0.1,1.1,0.2,1.6,0.3c0.3,0.1,0.5,0,0.6-0.1c0.8,0.4,1.7,0.6,2.5,0.9c0,0,0,0,0,0
			c0,0.2,0.1,0.3,0.2,0.5c0.4,0.4,1,0.6,1.6,0.8c0.5,0.2,0.9,0.6,1.4,0.9c-0.1,0.2,0,0.3,0.1,0.5c0.2,0.4,0.5,0.8,0.8,1.1
			c0,0,0,0,0,0c0.2,0.5,0.5,0.9,0.9,1.4c0.1,0.2,0.2,0.5,0.3,0.7c0.3,0.8,0.6,1.6,0.7,2.5c0,0.1,0,0.2,0.1,0.2c0,0.1,0,0.1,0,0.2
			c0,0.7,0.1,1.3,0.2,2c0,0.1,0.1,0.2,0.1,0.3C58.1,59.3,57.7,60.7,57.3,61.8z"/>
		<path fill="#E65100" d="M31.8,72.5c-1.4,1.8-3.4,3-3.5,5.4c-0.3,0.4-0.4,0.8-0.5,1.3c0,0.2,0,0.6,0,0.8c-0.2,0.5-0.1,0.9,0,1.6
			c0,0,0,0.1,0,0.1c0,0,0,0,0,0c0,0,0,0.1,0,0.1c0.1,0.3,0.2,0.7,0.5,0.7c0.1,0,0.4,0.1,0.4,0.1c0.6,0.9,0.9,0.7,1.8,1
			c0.1,0.1,0.6,0.1,0.7,0.2c0.2,0,0.3,0.1,0.5,0.1c0.1,0,0.3,0,0.4,0c0.2,0.2,0.4,0.2,0.6,0.1c0.1,0,0.2-0.1,0.2-0.2
			c0.6-0.2,0.8-0.1,1.3-0.5c0.1-0.1,0.4-0.2,0.4-0.3c0,0,0.1-0.5,0.1-0.5c0.2-0.1,0.5,0.1,0.6-0.1c0.4-0.4,0.5-1.2,0.9-1.6
			c0,0,0.1-0.1,0.1-0.1c0-0.1,0.1-0.1,0.1-0.2c0.4-0.5,0.8-1.1,1.2-1.7c0.2-0.2,0.2-0.4,0.1-0.6c1-1.5-0.1,0.3,0.5-1.1
			c0-0.1,0.1-0.1,0.1-0.2c0.6-1.1-0.1,0.3,0.5-0.8c0.4-0.7,1.1-1.6,1.1-2.3c0.2-0.3,0-1.2,0.1-1.6c0.1-0.2,0.1-0.6-0.3-0.2
			c0,0-0.1,0-0.1,0c-0.1-0.1-0.3-0.2-0.5-0.1c0,0-0.1,0-0.1,0c-0.1-0.1-0.2-0.2-0.3-0.2c-0.2,0-0.4-0.1-0.6-0.1c-0.1,0-0.1,0-0.2,0
			c0,0-0.1,0-0.1-0.1c0,0,0,0-0.1,0c-0.1-0.1-0.3-0.1-0.4-0.2c0-0.1,0-0.1-0.1-0.1c-0.1-0.1-0.2-0.1-0.2-0.2
			c-0.5-0.3-0.9-0.7-1.3-1.1c-0.1-0.1-0.1-0.1-0.2,0.1c0,0-0.2,0.1-0.2,0.2c-0.1,0-0.1,0.1-0.2,0.1l-0.2,0c0,0,0,0.1,0,0.1
			c0,0,0,0,0,0c0,0-0.1,0-0.1,0c-0.2,0.2-0.2,0.4-0.5,0.5"/>
		<g>
			<path d="M54.1,45.8c-6-4.5-15.5-1.3-19.4,4.5c-4.8,7.1-1.8,16.1,5.8,19c7.3,2.8,15.9,0.2,18.8-7.3c2.4-6.2-1.2-16.7-8.5-17.7
				c-0.3,0-0.4,0.4-0.1,0.5c7.4,2.2,10.1,11.4,7.5,18c-2.6,6.6-10.4,7.7-16.4,6.3c-8.3-2-10.2-10.1-7.2-17.3
				c2.8-7,13.2-9.4,19.2-5.7C54.1,46.2,54.2,45.9,54.1,45.8L54.1,45.8z"/>
		</g>
		<g>
			<path d="M53,47.3c-5.2-3.9-13.4-1.1-16.7,3.9c-4.1,6.1-1.6,13.9,5,16.4c6.3,2.4,13.7,0.2,16.3-6.3c2.1-5.3-1.1-14.5-7.3-15.3
				c-0.3,0-0.4,0.4-0.1,0.5c6.3,1.9,8.6,9.7,6.4,15.4c-2.2,5.6-8.9,6.6-14,5.4c-7.1-1.7-8.7-8.6-6.2-14.8c2.4-6,11.3-8,16.5-4.9
				C53,47.7,53.2,47.5,53,47.3L53,47.3z"/>
		</g>
		<g>
			<path d="M37.7,65.3c-0.5,0.4-0.9,1-1.1,1.5c-0.1,0.2,0.2,0.4,0.4,0.2c0.4-0.4,0.8-0.9,1.1-1.5C38.1,65.4,37.9,65.1,37.7,65.3
				L37.7,65.3z"/>
		</g>
		<g>
			<path d="M44.2,68c-0.3,0.1-0.4,0.4-0.5,0.7c-0.2,0.4-0.4,0.8-0.5,1.2c0,0.2,0.2,0.4,0.4,0.2c0.3-0.2,0.4-0.5,0.5-0.8
				c0.1-0.4,0.4-0.8,0.2-1.2C44.3,68.1,44.3,68,44.2,68L44.2,68z"/>
		</g>
		<g>
			<path d="M38,67.9c-0.7,0.6-1.2,1.4-1.7,2.2c-0.4,0.6,0.1,0.6,0.3,0.5c0.2-0.1,0.2-0.3,0.3-0.4c0.5-0.7,1-1.3,1.4-2.1
				C38.2,67.9,38.1,67.8,38,67.9L38,67.9z"/>
		</g>
		<g>
			<path d="M41.2,69.7c-0.6,0.5-1,1.2-1.4,1.9c-0.1,0.1,0.2,0.4,0.4,0.2C40.5,71.1,41,70.4,41.2,69.7C41.3,69.7,41.2,69.7,41.2,69.7
				L41.2,69.7z"/>
		</g>
		<g>
			<path d="M35.8,69.9c0,0.7,1.1,1.1,1.7,1.4c0.6,0.3,2.3,1.1,2.9,0.5c0.1-0.1,0.1-0.2,0-0.2c-0.3-0.1-0.5-0.1-0.8-0.1
				c-0.6,0-1.1-0.3-1.6-0.5c-0.5-0.2-1-0.5-1.5-0.9C36.1,70,36.1,69.9,35.8,69.9C35.8,69.9,35.8,69.9,35.8,69.9z"/>
		</g>
		<g>
			<path d="M30.5,73.7c-1.8,2-3.6,5.4-2.8,8.1c0.1,0.2,0.4,0.1,0.3-0.1c-0.7-3.3,1.3-5.6,3.2-7.9c2-2.5,3.4-2.2,4.6-3.8
				c0-0.1-0.2-0.1-0.3-0.1C35.6,69.9,33,71,30.5,73.7z"/>
		</g>
		<g>
			<path d="M40.1,71.9c-0.5,2.4-1.3,3.6-2.6,6.2c-1.3,2.7-1.8,4.9-5,5.7c-0.3,0.1-0.2,0.5,0.1,0.4c2.8-0.5,4.3-3.8,5.7-5.9
				c2.2-3.4,2.4-6.5,2.3-6.7c-0.1-0.1-0.1,0.1-0.2,0.2L40.1,71.9z"/>
		</g>
		<g>
			<path d="M27.8,81.4c-0.3,0.9,1,1.7,1.6,2c0.8,0.5,2.1,1,3.1,0.8c0.2,0,0.2-0.4,0-0.4c-0.9,0-1.7-0.2-2.5-0.6
				C29,82.8,28.5,82.2,27.8,81.4C27.9,81.4,27.8,81.4,27.8,81.4L27.8,81.4z"/>
		</g>
		<g>
			<path d="M33.6,82.2c2.6-2.6,2.3-3.2,3.8-6.5c0.1-0.2-0.2-0.4-0.3-0.2C35.1,78.7,35.7,79,33.6,82.2C33.4,82.1,33.5,82.2,33.6,82.2
				L33.6,82.2z"/>
		</g>
	</g>
</g>
<g>
	<rect x="85" y="35" fill="#3A99D4" width="85" height="56"/>
</g>
<g>
	<g>
		<path fill="#F5F5F5" d="M23.2,16c0,0.1,0,0.3-0.1,0.4s-0.2,0.2-0.3,0.3s-0.2,0.2-0.4,0.2S22.2,17,22.1,17c0,0.9,0,1.7-0.1,2.6
			s-0.1,1.7-0.2,2.5h0.1c0.1,0,0.2,0,0.4,0s0.2,0.1,0.3,0.1s0.2,0.1,0.2,0.2s0.1,0.2,0.1,0.4c0,0.2-0.1,0.3-0.2,0.5
			s-0.3,0.2-0.4,0.3s-0.4,0.2-0.6,0.2s-0.5,0.1-0.7,0.1s-0.4,0.1-0.6,0.1s-0.4,0-0.5,0c-0.1,0-0.2,0-0.3,0s-0.3,0-0.4-0.1
			s-0.2-0.1-0.3-0.2s-0.1-0.2-0.1-0.3c0-0.2,0-0.3,0.1-0.4s0.2-0.2,0.3-0.3s0.2-0.2,0.4-0.2s0.3-0.1,0.4-0.1
			c0.1-0.4,0.1-0.9,0.2-1.3s0.1-0.9,0.1-1.3c0-0.4,0-0.9,0-1.3s0-0.9,0-1.3c-0.1,0-0.1,0-0.2,0s-0.1,0-0.1,0c-0.1,0-0.2,0-0.4,0
			s-0.2-0.1-0.4-0.1S19,17,18.9,16.9s-0.1-0.2-0.1-0.3c0-0.3,0.1-0.5,0.3-0.7s0.5-0.3,0.8-0.4s0.6-0.2,0.9-0.2s0.6-0.1,0.8-0.1
			c0.1,0,0.3,0,0.4,0s0.4,0.1,0.5,0.1s0.3,0.1,0.5,0.2S23.2,15.8,23.2,16z"/>
		<path fill="#F5F5F5" d="M27.1,24.3c-0.1,0-0.2-0.1-0.3-0.2s-0.1-0.3-0.2-0.4s-0.1-0.3-0.1-0.5s0-0.3,0-0.4c0-0.2,0-0.5,0-0.7
			s0.1-0.5,0.1-0.7s0.1-0.5,0.1-0.7s0-0.5,0-0.7c0-0.1,0-0.2,0-0.3s0-0.2-0.1-0.3s-0.1-0.2-0.1-0.2s-0.1-0.1-0.2-0.1
			c-0.1,0-0.1,0.1-0.2,0.2s-0.2,0.2-0.2,0.4s-0.1,0.3-0.2,0.4s-0.1,0.3-0.1,0.3c0,0.2,0,0.3,0,0.5s0,0.4,0,0.5v0.7
			c0,0.1,0,0.3,0,0.4s0,0.3-0.1,0.4c0,0.1-0.1,0.3-0.1,0.4s-0.1,0.2-0.2,0.3S25,23.9,24.9,24s-0.2,0.1-0.4,0.1
			c-0.2,0-0.3-0.1-0.4-0.2s-0.2-0.2-0.2-0.4s-0.1-0.3-0.1-0.5s0-0.4-0.1-0.6s0-0.4,0-0.5s0-0.3,0-0.4v-0.6c0-0.3,0-0.6,0-0.9
			s0-0.6,0-0.9c0-0.2,0-0.4,0-0.6s0-0.5,0.1-0.7s0.1-0.4,0.3-0.6s0.3-0.2,0.6-0.2c0.1,0,0.2,0,0.3,0.1s0.2,0.2,0.2,0.3
			s0.1,0.2,0.2,0.3s0.1,0.2,0.1,0.3c0.1-0.1,0.2-0.2,0.3-0.3s0.2-0.2,0.4-0.3s0.3-0.1,0.4-0.2s0.4-0.1,0.6-0.1
			c0.4,0,0.7,0.1,0.9,0.3s0.4,0.4,0.5,0.7s0.2,0.6,0.2,0.9s0,0.6,0,0.9c0,0.1,0,0.3,0,0.6s-0.1,0.6-0.1,0.9s-0.1,0.6-0.2,1
			s-0.2,0.6-0.3,0.9s-0.3,0.5-0.4,0.7S27.3,24.3,27.1,24.3z"/>
		<path fill="#F5F5F5" d="M34.8,19.8c-0.2,0.5-0.4,1.1-0.7,1.7s-0.5,1.1-0.8,1.6c-0.2,0.3-0.4,0.6-0.6,0.8s-0.5,0.3-0.7,0.3
			c-0.2,0-0.4-0.1-0.6-0.3S31,23.4,30.8,23s-0.3-0.6-0.5-0.9s-0.2-0.6-0.3-0.8c-0.1-0.2-0.1-0.4-0.2-0.7s-0.1-0.5-0.2-0.7
			s-0.1-0.5-0.2-0.7s-0.1-0.5-0.1-0.7c0-0.3,0.1-0.6,0.2-0.8s0.3-0.3,0.6-0.3c0.1,0,0.2,0,0.3,0.1s0.2,0.2,0.3,0.3s0.2,0.3,0.2,0.5
			s0.2,0.4,0.2,0.6c0.1,0.2,0.1,0.4,0.2,0.6s0.1,0.4,0.2,0.6s0.1,0.4,0.2,0.6s0.2,0.4,0.3,0.6c0.1-0.1,0.1-0.3,0.2-0.5
			s0.1-0.4,0.2-0.6s0.2-0.4,0.3-0.6s0.2-0.4,0.3-0.6c0.2-0.4,0.4-0.8,0.7-1.1s0.5-0.4,0.7-0.4c0.2,0,0.4,0.1,0.5,0.2
			s0.1,0.3,0.1,0.5s0,0.4-0.1,0.7S34.9,19.5,34.8,19.8z"/>
		<path fill="#F5F5F5" d="M40.8,21.9c0,0.3-0.1,0.5-0.3,0.8s-0.4,0.5-0.6,0.7s-0.5,0.4-0.8,0.5S38.6,24,38.3,24
			c-0.4,0-0.8-0.1-1.1-0.3s-0.6-0.5-0.8-0.8s-0.4-0.7-0.5-1.1s-0.2-0.8-0.2-1.1c0-0.4,0.1-0.8,0.2-1.3s0.3-0.9,0.5-1.2
			s0.5-0.7,0.8-0.9s0.7-0.4,1.2-0.4c0.3,0,0.5,0,0.8,0.1s0.5,0.2,0.6,0.4s0.3,0.4,0.4,0.6s0.2,0.5,0.2,0.8c0,0.4-0.1,0.7-0.2,1
			s-0.4,0.6-0.6,0.8S39,21,38.7,21.2s-0.7,0.2-1,0.2c0,0.2,0.1,0.4,0.3,0.5s0.3,0.2,0.5,0.2c0.2,0,0.3,0,0.5-0.1s0.3-0.2,0.4-0.3
			s0.3-0.2,0.4-0.3s0.3-0.1,0.4-0.1c0.2,0,0.3,0.1,0.4,0.2S40.8,21.7,40.8,21.9z M38.9,19c0-0.1,0-0.2-0.1-0.3s-0.1-0.2-0.3-0.2
			c-0.2,0-0.3,0-0.4,0.1s-0.2,0.2-0.3,0.3s-0.1,0.3-0.2,0.4s-0.1,0.3-0.1,0.4c0.1,0,0.2-0.1,0.4-0.1s0.3-0.1,0.4-0.2
			s0.3-0.2,0.4-0.3S38.9,19.1,38.9,19z"/>
		<path fill="#F5F5F5" d="M45.1,17.5c0,0.2-0.1,0.4-0.2,0.5s-0.3,0.2-0.5,0.3s-0.4,0.2-0.5,0.3s-0.2,0.3-0.2,0.6
			c0,0.1,0,0.3,0.1,0.4s0.1,0.2,0.2,0.3s0.2,0.2,0.3,0.3s0.2,0.2,0.3,0.3s0.2,0.2,0.2,0.4s0.1,0.3,0.1,0.6c0,0.3-0.1,0.7-0.3,1
			s-0.4,0.6-0.6,0.8s-0.6,0.4-0.9,0.6s-0.7,0.2-1,0.2c-0.1,0-0.3,0-0.4,0s-0.3-0.1-0.4-0.1s-0.2-0.1-0.3-0.2s-0.1-0.2-0.1-0.4
			c0-0.2,0-0.4,0.1-0.5s0.2-0.2,0.3-0.3s0.3-0.1,0.4-0.2s0.3-0.1,0.4-0.1s0.2-0.1,0.3-0.2s0.1-0.2,0.1-0.4c0-0.2-0.1-0.3-0.2-0.5
			s-0.3-0.4-0.4-0.6s-0.3-0.4-0.4-0.6s-0.2-0.5-0.2-0.8c0-0.3,0.1-0.6,0.2-0.9s0.3-0.5,0.6-0.7s0.5-0.4,0.8-0.5s0.6-0.2,0.9-0.2
			c0.1,0,0.2,0,0.4,0s0.2,0.1,0.3,0.1s0.2,0.1,0.2,0.2S45.1,17.4,45.1,17.5z"/>
		<path fill="#F5F5F5" d="M48.6,24.4c-0.6,0-1-0.1-1.3-0.2s-0.5-0.3-0.7-0.6s-0.2-0.6-0.3-1s0-0.8,0-1.3c0-0.4,0-0.7,0-1.1
			s0.1-0.8,0.1-1.2c-0.1,0-0.2,0-0.3,0s-0.1,0-0.2,0c-0.2,0-0.5-0.1-0.7-0.2s-0.3-0.3-0.3-0.5c0-0.1,0.1-0.3,0.2-0.4
			s0.2-0.2,0.4-0.3s0.3-0.1,0.5-0.2s0.4-0.1,0.5-0.1c0-0.2,0-0.5,0-0.7s0.1-0.5,0.2-0.7s0.2-0.4,0.3-0.6s0.3-0.2,0.5-0.2
			c0.1,0,0.2,0,0.3,0.1s0.2,0.2,0.2,0.3s0.1,0.2,0.1,0.4s0,0.3,0,0.4c0,0.2,0,0.3,0,0.5s-0.1,0.4-0.1,0.6c0.1,0,0.2,0,0.3,0
			s0.1,0,0.1,0c0.1,0,0.3,0,0.4,0s0.3,0.1,0.4,0.1s0.2,0.1,0.3,0.2s0.1,0.2,0.1,0.3c0,0.1-0.1,0.3-0.2,0.4s-0.3,0.2-0.4,0.3
			s-0.4,0.1-0.6,0.2S48.6,19,48.4,19c0,0.3-0.1,0.6-0.1,0.9s0,0.5-0.1,0.8c0,0.1,0,0.3,0,0.4s0,0.3,0,0.4c0,0.1,0,0.2,0,0.4
			s0,0.3,0.1,0.4s0.1,0.2,0.2,0.3s0.2,0.1,0.4,0.1c0.1,0,0.2,0,0.3,0s0.2,0,0.4,0c0.2,0,0.3,0.1,0.4,0.2s0.1,0.3,0.1,0.5
			c0,0.2,0,0.3-0.1,0.4s-0.2,0.2-0.4,0.3s-0.3,0.1-0.5,0.2S48.8,24.4,48.6,24.4z"/>
		<path fill="#F5F5F5" d="M52.8,19.8c0,0.1,0,0.2,0,0.3s0,0.2,0,0.3c0,0.1,0,0.3,0,0.5s0,0.5,0,0.7s0,0.5-0.1,0.8s-0.1,0.5-0.2,0.7
			s-0.2,0.4-0.3,0.5S51.9,24,51.7,24c-0.1,0-0.3-0.1-0.4-0.2s-0.2-0.3-0.3-0.5s-0.1-0.4-0.1-0.7s-0.1-0.5-0.1-0.7s0-0.4,0-0.6
			s0-0.3,0-0.4c0-0.1,0-0.3,0-0.5s0-0.5,0-0.7s0-0.5,0.1-0.8s0.1-0.5,0.2-0.8s0.2-0.4,0.3-0.6s0.3-0.2,0.5-0.2
			c0.2,0,0.4,0.1,0.5,0.3s0.2,0.5,0.2,0.7s0.1,0.6,0.1,0.8S52.8,19.6,52.8,19.8z M52.7,15.8c0,0.1,0,0.2-0.1,0.3s-0.1,0.2-0.2,0.2
			s-0.2,0.1-0.3,0.2s-0.2,0.1-0.3,0.1c-0.2,0-0.3,0-0.4-0.1s-0.2-0.2-0.2-0.4c0-0.1,0-0.2,0.1-0.3s0.1-0.2,0.2-0.2s0.2-0.1,0.3-0.1
			s0.2,0,0.3,0c0.1,0,0.3,0,0.4,0.1S52.7,15.6,52.7,15.8z"/>
		<path fill="#F5F5F5" d="M59.3,20c0,0.4,0,0.8,0,1.2s0,0.8-0.1,1.2c0,0.3-0.1,0.7-0.1,1.1s-0.1,0.8-0.2,1.2s-0.2,0.8-0.3,1.1
			s-0.3,0.7-0.6,0.9s-0.5,0.5-0.8,0.7s-0.7,0.2-1.2,0.2c-0.2,0-0.4,0-0.7-0.1s-0.5-0.2-0.7-0.3s-0.4-0.3-0.6-0.5s-0.2-0.4-0.2-0.6
			c0-0.2,0.1-0.3,0.2-0.5s0.3-0.2,0.5-0.2c0.1,0,0.2,0,0.4,0.1s0.2,0.1,0.3,0.1s0.2,0.1,0.3,0.1s0.2,0.1,0.3,0.1
			c0.3,0,0.5-0.1,0.7-0.2s0.4-0.3,0.5-0.6s0.2-0.5,0.3-0.7s0.1-0.5,0.1-0.7c-0.2,0.2-0.3,0.3-0.5,0.4S56.4,24,56.2,24
			c-0.4,0-0.8-0.1-1.1-0.2s-0.5-0.3-0.7-0.6s-0.3-0.5-0.4-0.9s-0.1-0.7-0.1-1.1c0-0.2,0-0.5,0.1-0.8s0.1-0.6,0.2-0.9
			s0.2-0.6,0.4-0.9s0.3-0.6,0.5-0.8s0.4-0.4,0.7-0.6s0.5-0.2,0.8-0.2c0.3,0,0.6,0.1,0.8,0.3s0.4,0.4,0.4,0.7
			c0.1-0.2,0.2-0.3,0.3-0.5s0.3-0.2,0.5-0.2c0.1,0,0.2,0.1,0.3,0.2s0.1,0.3,0.2,0.4s0.1,0.4,0.1,0.6s0,0.4,0,0.6s0,0.4,0,0.5
			S59.3,19.9,59.3,20z M57.5,20.7c0-0.1,0-0.3-0.1-0.5s-0.1-0.4-0.2-0.5s-0.2-0.3-0.3-0.4s-0.2-0.2-0.4-0.2c-0.2,0-0.3,0.1-0.5,0.2
			s-0.3,0.3-0.3,0.5s-0.2,0.4-0.2,0.6s-0.1,0.4-0.1,0.5c0,0.1,0,0.2,0,0.4s0,0.3,0.1,0.5s0.1,0.3,0.2,0.4s0.2,0.2,0.3,0.2
			c0.2,0,0.4-0.1,0.6-0.2s0.3-0.2,0.4-0.4s0.2-0.3,0.2-0.5S57.5,20.9,57.5,20.7z"/>
		<path fill="#F5F5F5" d="M65.5,22.3c0,0.1,0,0.3,0,0.6s0,0.4-0.1,0.7s-0.1,0.4-0.3,0.6s-0.3,0.2-0.5,0.2c-0.3,0-0.5-0.1-0.7-0.3
			s-0.2-0.4-0.2-0.7c-0.2,0.2-0.5,0.4-0.8,0.5s-0.6,0.2-1,0.2c-0.2,0-0.4-0.1-0.6-0.2s-0.4-0.2-0.5-0.4s-0.3-0.4-0.4-0.6
			s-0.1-0.4-0.1-0.6c0-0.4,0.1-0.7,0.3-1s0.5-0.5,0.8-0.7s0.7-0.4,1.1-0.5s0.7-0.2,1-0.2c0,0,0-0.1,0-0.1s0-0.1,0-0.1
			c0-0.2-0.1-0.4-0.2-0.6s-0.3-0.2-0.6-0.2c-0.2,0-0.4,0-0.5,0.1S62,19,61.8,19.1s-0.2,0.2-0.4,0.2s-0.3,0.1-0.4,0.1
			c-0.2,0-0.3-0.1-0.4-0.2s-0.2-0.2-0.2-0.4c0-0.3,0.1-0.5,0.2-0.7s0.3-0.4,0.6-0.5s0.5-0.3,0.8-0.3s0.5-0.1,0.7-0.1
			c0.2,0,0.4,0,0.6,0.1s0.4,0.1,0.6,0.2s0.4,0.2,0.5,0.4s0.3,0.3,0.4,0.5c0.1,0.3,0.3,0.6,0.3,0.9s0.2,0.7,0.2,1s0.1,0.7,0.1,1
			S65.5,22,65.5,22.3z M63.6,21.9l0-0.8c0,0,0,0,0,0s0,0,0,0c-0.1,0-0.2,0-0.4,0.1s-0.3,0.1-0.4,0.2s-0.3,0.2-0.4,0.3
			s-0.1,0.2-0.1,0.3c0,0.1,0,0.2,0.1,0.2s0.2,0.1,0.3,0.1c0.2,0,0.4,0,0.6-0.1S63.5,22,63.6,21.9z"/>
	</g>
</g>
<rect y="6" fill="#3E3E3D" width="1" height="24"/>
<rect x="85" y="6" fill="#3E3E3D" width="1" height="24"/>
<g>
	<g>
		<rect x="18" y="25.5" fill="#F5F5F5" width="5.4" height="1.5"/>
	</g>
</g>
</svg>
