<?xml version="1.0" encoding="utf-8"?>
<!-- Generator: Adobe Illustrator 18.1.0, SVG Export Plug-In . SVG Version: 6.00 Build 0)  -->
<svg version="1.0" id="Capa_1_copia" xmlns="http://www.w3.org/2000/svg" xmlns:xlink="http://www.w3.org/1999/xlink" x="0px"
	 y="0px" viewBox="0 0 85 90.9" enable-background="new 0 0 85 90.9" xml:space="preserve">
<rect x="-595" fill="#575756" width="1280" height="35"/>
<g>
	<rect x="-85" y="34.9" fill="#FF6D00" width="85" height="56"/>
</g>
<g>
	<rect x="0" y="34.9" fill="#FCE68D" width="85" height="56"/>
	<g>
		<path fill="#E6AF99" d="M61.1,61.2c-0.3-1.2-1.2-2.5-2.5-2.4c0,0,0,0.1,0,0.1c-0.5,0.6-0.8,1.3-1.1,2c-0.1,0.3-0.4,0.8-0.4,1.2
			c0,0.1,0.2,0.2,0.1,0.3c0,0-0.1,0-0.1,0c0,0,0,0,0,0c0,0,0,0,0,0c0,0,0,0,0,0c-0.2-0.4-0.3-0.8-0.5-1.2c-0.1-0.3-0.9-2.4-0.9-2.4
			c-0.3-0.7-0.4-1.2-0.5-2c0-1,0-2.2-0.5-3.2c0-0.1,0-0.1,0.1-0.1c0.2-0.6-0.1-1.3-0.6-1.7c-0.4-0.4-0.8-0.5-1.2-0.8
			c0,0-0.1-0.2-0.1-0.2c-0.2-0.4-1.3-0.5-2.9,0.5c-0.1,0.1-0.3,0.2-0.3,0.3c0,0.1-0.2,0.2-0.2,0c-0.2-1.3-2-0.4-2.7-0.2
			c-0.1,0-0.1-0.1-0.1-0.1c0,0,0,0,0-0.1c-1.3-1-2.6,0.8-3.9,0.8c0,0-0.1,0-0.1-0.1c-0.4-0.1-0.8-0.5-1.3-0.6
			c-0.4-0.1-1.3,0.1-1.3,0.1c-0.5-0.1-0.9-0.4-1.5-0.2c-0.5,0.2-0.8,0.5-1.2,0.8c0,0-0.1,0-0.1-0.1c0,0,0,0,0-0.1c0,0,0,0,0,0
			c-0.4-0.1-0.7-0.5-1.2-0.5c-0.6,0-1.1-0.1-1.4,0.6c0,0-0.1,0-0.1,0l0,0c-0.4,0.1-0.8,0.1-1.2,0.3c-0.4,0.2-0.8,0.5-1,0.9
			c-0.4,0.5-0.7,1.8-0.7,1.8c-0.9,0.7-0.9,2-1.2,3.1c-0.1,0.4-0.3,1-0.4,1.3c-0.4,0.7-1.1,2.1-1.1,2.1C29.1,61.5,29,61.8,29,62
			c-0.1,0.3-0.1,0.9-0.3,1.1c0,0,0,0,0,0c0,0.1,0,0.1-0.1,0.1c-0.3-0.5-0.5-1.1-0.6-1.7c-0.1-0.3-0.1-0.7-0.2-1l0,0
			c-0.1-0.4-0.2-0.6-0.5-0.7c-0.1,0-0.2-0.1-0.2-0.1c-1.2,0.1-2.3,1.4-2.5,2.7c-0.3,1.7,0.8,3.1,2.4,3.3c0-0.8,0.2-0.8,0.2,0.1
			c0,0,0.1,3.5,0.3,5.3c0.3,2.2,0.6,5.1,1.9,7c3.2,4.6,10.7,5.7,15.9,5.3c4.2-0.4,9.5-1.7,11.4-6.2c1.9-4.6,1.6-13.1,1.6-12.4
			c0,0,0.5,0.1,0.6,0.1C60.3,64.5,61.6,62.9,61.1,61.2z"/>
		<path fill="#E4A590" d="M45,83.4c-5.2,0.5-12.6-0.7-15.9-5.3c-1.3-1.8-1.6-4.8-1.9-7c-0.2-1.7-0.3-5.2-0.3-5.3
			c0-0.9-0.2-0.9-0.2-0.1c-1.6-0.2-2.6-1.6-2.4-3.3c0.2-1.2,1.2-2.6,2.5-2.7c0.1,0,0.2,0,0.2,0.1c0.2,0.1,0.4,0.4,0.5,0.7l0,0
			c0.1,0.3,0.1,0.7,0.2,1c0.1,0.5,0.4,1.2,0.6,1.7c0,0.1,0.1,0,0.1-0.1c0,0,0,0,0,0c0.3-0.2,0.2-0.8,0.3-1.1
			c0.1-0.2,0.2-0.5,0.3-0.7c0,0,0.7-1.4,1.1-2.1c0.2-0.3,0.3-1,0.4-1.3c0.2-1,0.3-2.4,1.2-3.1c0,0-4.9,12.2-1.9,21.7
			C32.4,84.2,45,83.4,45,83.4z"/>
		<g opacity="0.8">
			<path fill="#DA9085" d="M31,66.9c-0.1,0-0.2,0-0.3,0c-0.9-0.1-1.9,0.2-2.6,0.7c-0.3,0.2-0.4,0.5-0.5,0.8
				c-0.2,0.3-0.1,0.7,0.1,0.9c0,0,0,0.1,0.1,0.1c0.5,0.8,1.4,0.9,2.2,0.9c0.3,0,0.6,0,1,0c0.1,0.1,0.2,0.1,0.3,0.2
				c1.1,0.1,2.9-0.3,3-2C34.3,67,32,66.6,31,66.9z"/>
			<path fill="#DA9085" d="M57.2,67.5c-0.2-0.3-0.4-0.5-0.6-0.7c0,0,0,0,0,0c0.1,0,0.1-0.2,0-0.2c-1.1-0.6-2.4-0.7-3.5-0.3
				c-0.1,0-0.1,0-0.2,0.1c-0.5,0.2-1,0.5-1.4,0.9c-0.3,0.3-0.4,1-0.1,1.4c0.1,0.1,0.2,0.2,0.3,0.3c0.5,1.1,1.6,1.1,2.4,1.1
				c1,0,2.3-0.2,3-1.5C57.4,68.2,57.4,67.7,57.2,67.5z"/>
		</g>
		<path fill="#424242" d="M59.2,58.6c-0.7-1.4-3.7,0.3-4.6,0.8c0,0,0,0,0,0c-1.3-0.3-2.9,0-4.2,0c-1.6,0.1-3.1,0.1-4.7,0.3
			c-0.1,0-0.1,0.1-0.2,0.1c-0.7,0.5-0.6,1.6-0.6,2.4c-0.9-0.4-1.9-0.4-2.8-0.3c-0.5,0.1-1.3,0-1.7,0.3c0-0.8,0.1-1.9-0.6-2.3
			c0-0.1-0.1-0.1-0.2-0.1c-1.4-0.1-2.8,0-4.2,0c-1.5,0-3.3-0.2-4.8,0.2c0,0,0,0,0,0c-0.9-0.5-3.8-2-4.6-0.6c0,0.1,0,0.1,0.1,0.1
			c0,0,0,0,0,0c1.3,0.3,1.8,0.7,2.3,0.9c0.6,0.3,1.2,0.6,1.7,0.9c-0.2,0.6-0.1,1.9-0.1,2.3c0,1.4-0.1,2.9-0.1,4.3
			c0,0.1,0.2,0.2,0.3,0.1c1.5,0.3,3.2,0.1,4.7,0c1.6-0.1,3.3,0,4.9,0c0.1,0,0.2,0,0.2-0.2c0.1-1.5,0.1-3,0.2-4.5
			c1.6,0,3.1-0.2,4.7,0.1c0.1,1.4,0.2,2.9,0.3,4.3c0,0.1,0.1,0.2,0.2,0.2c1.6-0.1,3.3-0.3,4.9-0.3c1.5,0,3.2,0.1,4.7-0.3
			c0.1,0.1,0.3,0,0.3-0.1c0-1.5-0.1-3.1-0.2-4.6c0-0.1-0.1-1.4-0.2-1.9c0.5-0.3,1-0.6,1.6-1c0.5-0.3,1.8-0.9,2.3-1.3
			C59,58.6,59.1,58.7,59.2,58.6C59.2,58.7,59.3,58.7,59.2,58.6z"/>
		<path fill="#603813" d="M59.8,64.5C59.8,64.5,59.8,64.5,59.8,64.5c-0.3,0.2-0.4,0.8-0.4,1.1c-0.1,0.7,0.1,1.4,0.5,2.1
			c-0.3,0.3-0.4,0.7-0.5,1.1c-0.2,0.8-0.9,1.1-1.3,1.7c0,0,0-0.4,0.2-3c0.1-1,0-1.6,0-2.1C58.3,64.7,59.7,64.3,59.8,64.5z"/>
		<path fill="#603813" d="M27.4,72.1c-0.1-0.3-0.4-0.2-0.6-0.4c-0.2-0.3-0.5-0.9-0.6-1.3c-0.1-0.3-0.1-0.9-0.5-0.8
			c0-0.7,0-1.5,0.1-2.2c0.1-0.6,0.1-1.2,0-1.7c0,0,0.9,0,1.1,0.1c0.3,0.1,0,2.5,0.1,2.9C27.2,71.1,27.5,72.1,27.4,72.1z"/>
		<g>
			<path fill="#603813" d="M59.5,56.7c-0.1-0.3-1.3-2-0.7-2.3c0,0,0,0,0,0c0,0.1,0.1,0.1,0.1,0c-0.1-0.7-0.3-1.3-0.8-1.8
				c-0.5-0.6-0.4-1.7-0.2-2.4c0,0,0-0.1,0-0.1c-0.4-1.1-1.6-1.8-1.3-3.1c0,0,0.1-0.1,0-0.1c-0.4-0.4-1-0.6-1.4-0.9
				c-0.3-0.2-0.6-0.4-0.8-0.7c-0.2-0.2-0.2-0.5-0.3-0.8c0,0,0-0.1,0-0.1c-0.3-0.6-1.4-0.4-1.9-0.4c-0.5,0.1-1.1,0.2-1.7,0.2
				c-0.4-0.1-1.1-0.2-1.5-0.2c-0.1-0.1-0.3-0.1-0.3,0c-0.1,0-0.2,0-0.2,0c-1.2-1.5-3.8,0.4-5-1.3c0,0-0.1,0-0.1,0c0,0,0,0,0,0
				c-0.3,0.3-0.6,0.6-1,0.8c-0.4,0.2-0.8,0.4-1.2,0.5c-0.7-0.3-1.5-0.3-2.2-0.2c-0.4,0-1.7,0.7-1.9,0.2c0,0-0.1,0,0,0
				c0,0.1-0.1-0.1-0.1-0.1c-1.5,0.5-2.8,0.6-4.3,0.3c0-0.1,0-0.2-0.1-0.3c0-0.1-0.1,0-0.1,0c0,0.1,0,0.1,0,0.2c0,0,0,0,0,0
				c0,0,0,0,0,0c0,0,0,0,0,0c-0.2,1.8-2.6,2-3.5,3.4c-0.1,0-0.1,0-0.1,0c-0.2,0.4-0.2,0.7-0.4,1.1c-0.2,0.4-0.7,0.7-1,1.1
				c-0.4,0.5-0.2,1.3-0.5,1.9c0,0-0.1,0-0.1,0c-0.2,0.5-0.2,1-0.2,1.5c0,0.3-0.1,0.6,0,0.9c0,0.4,0.3,0.7-0.1,1c0,0,0,0,0,0
				c0-0.1-0.1,0-0.1,0c-0.2,1.5-1.2,3.1-0.5,4.6c0,0,0.1,0,0.1,0l0,0.1l1.5,0c0,0,0,0.1,0,0.1l0,0c0,0,0,0,0-0.1l0.2,0l-0.2,0.1
				c0,0,0,0,0,0c0.4,2.6,1,3.1,1,3.1c0.5-1.3,1-2.5,1.3-3.2l0.1,0l0-0.1c0.5-0.4,0.7-1.3,0.8-1.9c0.2-1,0.3-2.4,1.1-3.1
				c0,0,0-0.1,0-0.1c0.3-0.6,0.3-1.2,0.7-1.7c0.2-0.4,0.6-0.7,0.9-0.9c0.4-0.2,0.8-0.2,1.2-0.3c0,0,0,0,0,0c0,0,0.1,0,0.1,0
				c0.3-0.7,0.8-0.6,1.4-0.6c0.5,0,0.8,0.4,1.2,0.5c0,0,0,0,0,0c0,0,0,0,0,0.1c0,0.1,0,0.1,0.1,0.1c0.4-0.3,0.7-0.7,1.2-0.8
				c0.6-0.2,1,0.2,1.6,0.3c0.1,0,0.1-0.1,0.1-0.1c0,0,0,0,0,0c0.4,0.1,0.8-0.1,1.2-0.1c0.5,0.1,0.8,0.4,1.3,0.6c0,0,0,0.1,0.1,0.1
				c1.3,0,2.6-1.7,3.9-0.8c0,0,0,0,0,0.1c0,0.1,0,0.2,0.1,0.1c0.6-0.2,2.4-1,2.9,0.2c0,0.1,0.2,0.1,0.2,0l0,0c0.5-0.3,1-0.6,1.5-0.8
				c0.1,0,1.6-0.3,1.5,0.2c0,0,0,0,0,0c0.4,0.3,0.8,0.5,1.2,0.9c0.4,0.4,0.8,1.1,0.6,1.7c-0.1,0-0.1,0.1-0.1,0.1
				c0.5,0.9,0.5,2.1,0.5,3.2c0,0.9,0.3,1.5,0.6,2.4c0,0,0,0,0,0l0,0l0,0c0,0,0,0,0,0l0.1,0c0.1,0.4,0.3,0.9,0.6,1.6
				c0.4,0.7,0.5,1,0.6,1.2c0.2-0.5,0.7-2.1,1.3-2.9l1.1,0c0,0,0.1,0,0.1,0l0.1,0l0-0.1l0,0C59.8,58.1,59.7,57.4,59.5,56.7z"/>
			<path fill="#603813" d="M57.1,61.8C57,62,57,62,57,62S57.1,62.1,57.1,61.8z"/>
		</g>
		<g opacity="0.7">
			<path fill="#FFFFFF" d="M39.1,61.2c-1.2-0.2-2.3,0-3.5-0.1c-1.3,0-2.8-0.2-4,0.3c-0.1,0-0.1,0.1-0.1,0.1
				c-0.3,1.8-0.3,3.8-0.1,5.6c0,0.2,0.2,0.2,0.3,0.1c1.1,0.1,2.2,0,3.4,0.1c0.6,0,1.2,0,1.7-0.1c0.8-0.1,1.6,0.2,2.3,0.1
				c0.1,0,0.2-0.2,0.1-0.3c0.2-0.7,0.1-1.6,0.1-2.4c0-1.1,0-2.3-0.2-3.3C39.2,61.3,39.2,61.2,39.1,61.2z"/>
			<path fill="#FFFFFF" d="M53.9,60.7c-1.2-0.4-2.7-0.1-4,0c-1.2,0.1-2.4,0-3.5,0.3c-0.1,0-0.1,0.1-0.1,0.1c-0.2,1-0.2,2.1-0.2,3
				c0,0.8-0.1,1.9,0.1,2.6c-0.1,0.1,0,0.2,0.1,0.3c0.7,0.1,1.4-0.2,2.1-0.2c0.6,0,1.1,0,1.7,0c1.2-0.1,2.5-0.1,3.7-0.3
				c0.1,0.1,0.3,0.1,0.3-0.1c0.2-1.8,0.2-3.8-0.1-5.6C54,60.8,54,60.8,53.9,60.7z"/>
		</g>
		<path fill="#1C1D1B" d="M35.5,63.1c-0.4,0.1-0.7,0.1-1,0.5c-0.4,0.6-0.4,1.5,0.4,1.7c0.6,0.2,1.5,0,1.8-0.7c0.2-0.6-0.4-1.4-1-1.5
			c-0.2,0-0.5,0-0.7,0.1"/>
		<path fill="#FFFFFF" d="M35.7,63.3c-0.3,0.1-0.8,0.5-0.3,0.9C36.3,64.7,36.6,63.4,35.7,63.3"/>
		<g>
			<path fill="#1C1D1B" d="M33.4,58.5c0.3,0.1,0.7,0,1.1,0c0.5-0.1,1-0.2,1.5-0.2c0.2,0,0.2-0.3,0-0.3c-0.5-0.1-1-0.1-1.6,0
				c-0.4,0.1-0.8,0.2-1.1,0.5C33.4,58.4,33.4,58.5,33.4,58.5L33.4,58.5z"/>
		</g>
		<path fill="#1C1D1B" d="M50.1,62.7c-0.4,0.1-0.7,0.1-1,0.5c-0.4,0.6-0.4,1.5,0.4,1.7c0.6,0.2,1.5,0,1.8-0.7c0.2-0.6-0.4-1.4-1-1.5
			c-0.2,0-0.5,0-0.7,0.1"/>
		<path fill="#FFFFFF" d="M50.4,63c-0.3,0.1-0.8,0.5-0.3,0.9C50.9,64.5,51.3,63.1,50.4,63"/>
		<g>
			<path fill="#1C1D1B" d="M52.7,58.1c-0.2-0.3-0.7-0.5-1-0.6c-0.5-0.1-1-0.1-1.5-0.1c-0.2,0-0.2,0.3,0,0.4c0.5,0.1,1,0.2,1.4,0.3
				c0.3,0.1,0.7,0.2,1.1,0.1C52.7,58.2,52.7,58.1,52.7,58.1L52.7,58.1z"/>
		</g>
		<g>
			<path fill="#1C1D1B" stroke="#1C1D1B" stroke-width="0.25" stroke-miterlimit="10" d="M27.2,63.2c-0.6,2.6-0.4,5.4-0.1,8
				c0.3,2.4,0.7,5,1.9,7.1c2.7,4.5,10,5.6,14.7,5.5c4.5-0.1,9.8-1.2,12.5-5.4c1.3-2,1.6-4.6,1.9-6.8c0.5-2.9,0.6-6,0.4-8.9
				c0-0.1-0.2-0.1-0.2,0c-0.3,4.8,0.1,10.1-1.9,14.6c-2,4.4-7,5.7-11.2,6.1c-5.2,0.5-12.6-0.7-15.8-5.3c-1.3-1.8-1.6-4.7-1.9-6.9
				c-0.3-2.6-0.5-5.3,0-7.9C27.4,63.1,27.2,63,27.2,63.2L27.2,63.2z"/>
		</g>
		<g>
			<path fill="#1C1D1B" d="M27.3,59.7c-1.6-0.8-2.9,1.5-3.1,2.9c-0.3,1.7,1.1,3.7,2.9,3.4c0.2,0,0.1-0.2,0-0.3
				c-1.7-0.1-2.8-1.5-2.5-3.3c0.2-1.4,1.3-2.8,2.7-2.6C27.3,59.8,27.4,59.7,27.3,59.7L27.3,59.7z"/>
		</g>
		<g>
			<path fill="#1C1D1B" d="M58.3,58.8c1.5-0.3,2.4,1.1,2.7,2.4c0.5,1.7-0.9,3.2-2.4,3.4c-0.1,0-0.2,0.2,0,0.3
				c1.8,0.3,3.1-1.9,2.8-3.6c-0.2-1.3-1.6-3.6-3.2-2.7C58.2,58.7,58.3,58.8,58.3,58.8L58.3,58.8z"/>
		</g>
		<g>
			<path fill="#1C1D1B" d="M26.2,61.6c-0.6,0.2-0.7,1.7-0.1,2c0,0,0.1,0,0.1-0.1c0-0.1,0-0.3-0.1-0.4C26,63,26,62.8,26,62.6
				C26,62.3,26.1,62,26.2,61.6C26.3,61.7,26.2,61.6,26.2,61.6L26.2,61.6z"/>
		</g>
		<g>
			<path fill="#1C1D1B" d="M59.5,60.5c0.1,0.3,0.3,0.6,0.3,0.9c0,0.4-0.2,0.7-0.3,1.1c0,0.1,0.1,0.2,0.2,0.2c0.6-0.4,0.6-2-0.1-2.3
				C59.5,60.4,59.4,60.5,59.5,60.5L59.5,60.5z"/>
		</g>
		<g>
			<path fill="#1C1D1B" d="M26.3,59.7c1.1-1,3.3,0.2,4.4,0.7c0.2,0.1,0.3-0.2,0.1-0.2C29.9,59.7,27,58.2,26.3,59.7
				C26.2,59.7,26.3,59.7,26.3,59.7L26.3,59.7z"/>
		</g>
		<g>
			<path fill="#1C1D1B" d="M30.6,60.4c2.9,0.5,6.2-0.2,9.1-0.1c0.2,0,0.2-0.4,0-0.4c-1.4-0.1-2.8,0-4.2,0C34,60,32.1,59.8,30.6,60.4
				C30.6,60.3,30.6,60.4,30.6,60.4L30.6,60.4z"/>
		</g>
		<g>
			<path fill="#1C1D1B" d="M39.7,60.1c0.7,0.9,0.4,2.3,0.4,3.4c-0.1,1.5-0.2,3.1-0.2,4.6c0,0.3,0.4,0.2,0.4,0
				c0.1-1.8,0.2-3.7,0.3-5.5c0-0.8,0.2-2.2-0.7-2.6C39.7,60,39.6,60.1,39.7,60.1L39.7,60.1z"/>
		</g>
		<g>
			<path fill="#1C1D1B" d="M27.1,59.8c0.4,0.4,1,0.6,1.5,0.8c0.6,0.3,1.2,0.6,1.8,1c0.2,0.1,0.4-0.2,0.2-0.3
				c-0.6-0.3-1.2-0.6-1.8-0.9c-0.5-0.3-1.1-0.6-1.7-0.6C27.1,59.7,27.1,59.7,27.1,59.8L27.1,59.8z"/>
		</g>
		<g>
			<path fill="#1C1D1B" d="M30.5,61.3c-0.4,0.2-0.2,2.1-0.2,2.5c0,1.4-0.1,2.9-0.1,4.3c0,0.2,0.3,0.2,0.3,0c0.2-1.5,0.1-3.1,0.2-4.7
				C30.6,63.3,30.7,61.2,30.5,61.3L30.5,61.3z"/>
		</g>
		<g>
			<path fill="#1C1D1B" d="M30.3,68.2c1.5,0.4,3.3,0.1,4.8,0.1c1.7-0.1,3.3,0,5,0c0.2,0,0.2-0.4,0-0.4c-1.7,0-3.3,0-5,0
				c-1.5,0-3.3-0.2-4.8,0.1C30.2,68,30.2,68.2,30.3,68.2L30.3,68.2z"/>
		</g>
		<g>
			<path fill="#1C1D1B" d="M39,61.3c-0.2,1.1,0,2.3,0,3.4c0,0.8-0.3,1.8,0.1,2.5c0,0.1,0.1,0.1,0.2,0c0.2-0.7,0.1-1.7,0.1-2.5
				c0-1.1,0-2.3-0.2-3.4C39.2,61.2,39,61.2,39,61.3L39,61.3z"/>
		</g>
		<g>
			<path fill="#1C1D1B" d="M31.6,67.2c1.1,0.1,2.3,0,3.5,0.1c0.6,0,1.2,0,1.7-0.1c0.8-0.1,1.6,0.2,2.3,0.1c0.2,0,0.2-0.3,0-0.3
				c-0.7,0.1-1.4-0.2-2.1-0.1c-0.7,0.1-1.3,0.1-2,0.1c-1,0-2.6-0.4-3.5,0.1C31.5,67.1,31.5,67.2,31.6,67.2L31.6,67.2z"/>
		</g>
		<g>
			<path fill="#1C1D1B" d="M31.5,61.5c-0.3,1.8-0.3,3.9-0.1,5.7c0,0.2,0.3,0.2,0.3,0c-0.2-1.9,0.1-3.8-0.1-5.6
				C31.7,61.4,31.5,61.4,31.5,61.5L31.5,61.5z"/>
		</g>
		<g>
			<path fill="#1C1D1B" d="M59.2,58.6c-0.7-1.4-3.7,0.3-4.6,0.8c-0.2,0.1,0,0.3,0.1,0.2C55.9,59.1,58.1,57.8,59.2,58.6
				C59.2,58.7,59.3,58.7,59.2,58.6L59.2,58.6z"/>
		</g>
		<g>
			<path fill="#1C1D1B" d="M54.9,59.5c-1.4-0.4-3-0.1-4.5,0c-1.6,0.1-3.1,0.1-4.7,0.3c-0.2,0-0.2,0.4,0,0.4
				C48.7,59.9,52,60.3,54.9,59.5C54.9,59.6,54.9,59.6,54.9,59.5L54.9,59.5z"/>
		</g>
		<g>
			<path fill="#1C1D1B" d="M45.7,59.9c-0.9,0.4-0.7,1.8-0.7,2.6c0.1,1.8,0.2,3.7,0.3,5.5c0,0.3,0.4,0.2,0.4,0
				c-0.1-1.4-0.2-2.7-0.2-4.1C45.4,62.7,45,61,45.8,60C45.9,59.9,45.8,59.8,45.7,59.9L45.7,59.9z"/>
		</g>
		<g>
			<path fill="#1C1D1B" d="M58.3,58.7c-0.6,0.1-1.2,0.4-1.7,0.7c-0.6,0.3-1.2,0.7-1.8,1.1c-0.2,0.1,0,0.4,0.2,0.3
				c0.5-0.3,1-0.6,1.6-1c0.6-0.3,1.3-0.6,1.7-1C58.4,58.8,58.4,58.7,58.3,58.7L58.3,58.7z"/>
		</g>
		<g>
			<path fill="#1C1D1B" d="M55,60.5c-0.4,0.3-0.1,2.4-0.1,2.8c0,1.3,0,2.7,0.2,4.1c0,0.2,0.3,0.1,0.3-0.1c0-1.5-0.1-3.1-0.2-4.6
				C55.2,62.6,55.1,60.4,55,60.5L55,60.5z"/>
		</g>
		<g>
			<path fill="#1C1D1B" d="M55.3,67.3c-1.5-0.2-3.3,0.2-4.8,0.2c-1.7,0.1-3.3,0.2-5,0.3c-0.2,0-0.2,0.4,0,0.4c1.7-0.1,3.3-0.3,5-0.3
				c1.5-0.1,3.3,0.1,4.8-0.4C55.4,67.4,55.4,67.3,55.3,67.3L55.3,67.3z"/>
		</g>
		<g>
			<path fill="#1C1D1B" d="M53.9,60.8c-1.2-0.4-2.7-0.1-4,0c-1.2,0.1-2.4,0-3.5,0.3c-0.1,0-0.1,0.2,0,0.2c2.5,0,5-0.2,7.5-0.3
				C54,61,54,60.8,53.9,60.8L53.9,60.8z"/>
		</g>
		<g>
			<path fill="#1C1D1B" d="M46.3,61.1c-0.2,1-0.2,2.1-0.2,3.1c0,0.8-0.1,2,0.2,2.8c0,0.1,0.1,0.1,0.2,0c0.4-0.7,0.1-1.8,0.1-2.5
				c-0.1-1.1,0.2-2.3,0-3.4C46.5,61,46.4,61,46.3,61.1L46.3,61.1z"/>
		</g>
		<g>
			<path fill="#1C1D1B" d="M54,66.4c-0.8-0.4-2.3,0-3.2,0.1c-0.7,0-1.4,0.1-2.1,0.1c-0.8,0-1.6,0.3-2.3,0.2c-0.2,0-0.2,0.3,0,0.3
				c0.7,0.1,1.4-0.2,2.1-0.2c0.6,0,1.1,0,1.7,0c1.2-0.1,2.6-0.1,3.8-0.3C54,66.5,54.1,66.5,54,66.4L54,66.4z"/>
		</g>
		<g>
			<path fill="#1C1D1B" d="M53.8,60.9c-0.2,1.9,0.2,3.7,0,5.6c0,0.2,0.3,0.2,0.3,0c0.2-1.8,0.2-3.9-0.1-5.6
				C54,60.7,53.8,60.8,53.8,60.9L53.8,60.9z"/>
		</g>
		<g>
			<path fill="#1C1D1B" d="M40.4,62.6c1.5-0.5,3.1-0.5,4.6,0c0.1,0,0.2-0.2,0.1-0.2c-0.9-0.4-1.9-0.4-2.9-0.3
				c-0.5,0.1-1.4,0-1.8,0.4C40.3,62.5,40.4,62.6,40.4,62.6L40.4,62.6z"/>
		</g>
		<g>
			<path fill="#1C1D1B" d="M40.3,63.6c1.7,0,3.2-0.2,4.8,0.1c0.1,0,0.2-0.1,0.1-0.2c-1.4-0.7-3.4-0.3-4.9-0.1
				C40.2,63.4,40.2,63.6,40.3,63.6L40.3,63.6z"/>
		</g>
		<g>
			<path fill="#1C1D1B" d="M27.6,59.9C27.6,59.9,27.6,59.9,27.6,59.9c0,0-0.1,0-0.1,0.1c0.2,0.5,0.2,1.1,0.3,1.6
				c0.1,0.5,0.4,1.2,0.6,1.7c0,0.1,0.1,0,0.1,0c0.1-0.6-0.4-1.1-0.5-1.7c-0.1-0.2-0.2-1.6-0.5-1.5C27.6,60,27.7,60,27.6,59.9
				C27.6,59.9,27.6,59.9,27.6,59.9C27.6,59.9,27.6,59.9,27.6,59.9L27.6,59.9z"/>
		</g>
		<g>
			<path fill="#1C1D1B" d="M28.5,63.2c0.3-0.2,0.3-0.8,0.4-1.1c0.1-0.3,0.2-0.6,0.3-0.9c0.1-0.1,0.2-0.3,0.3-0.4c0,0,0-0.1,0-0.1
				C29,60.5,28.5,62.8,28.5,63.2C28.5,63.2,28.5,63.2,28.5,63.2L28.5,63.2z"/>
		</g>
		<path opacity="0.2" fill="#FFFFFF" d="M56.9,63.5c-0.1-0.3-0.2,0.4-0.2,0.6c0.2,1,0.1,1.8,0.1,2.8c0,1,0.1,2-0.1,3.1
			c-0.1,0.5,0.4-0.2,0.4-0.5c0.1-1.1,0-1.8,0-2.8C57.1,65.6,57.2,64.5,56.9,63.5z"/>
		<g>
			<path fill="#1C1D1B" d="M56.2,60.2c0,0,0-0.1,0.1-0.1c-0.1,0-0.1,0-0.2,0c0.1,0.3,0.3,0.6,0.5,0.9c0.2,0.4,0.3,0.9,0.5,1.2
				c0,0.1,0.2,0,0.2,0c0-0.4-0.2-0.7-0.3-1c-0.2-0.4-0.3-0.9-0.7-1.1C56.1,59.9,56,60,56.2,60.2C56.1,60.1,56.1,60.2,56.2,60.2
				C56.1,60.2,56.2,60.2,56.2,60.2L56.2,60.2z"/>
		</g>
		<g>
			<path fill="#1C1D1B" d="M57.2,62.1C57.2,62.1,57.2,62.1,57.2,62.1c-0.1,0-0.2,0.1-0.1,0.2c0,0,0,0,0,0c0,0,0.1,0,0.1,0
				C57.3,62.2,57.3,62.1,57.2,62.1c0-0.4,0.3-0.9,0.4-1.2c0.3-0.7,0.5-1.4,1-2c0.1-0.1-0.1-0.3-0.2-0.2c-0.5,0.6-0.7,1.4-1,2.1
				c-0.1,0.3-0.2,0.5-0.3,0.8c0,0.1-0.1,0.2-0.1,0.3c0,0.1,0,0.3,0.1,0.2C57.1,62.1,57.2,62.2,57.2,62.1
				C57.2,62.2,57.2,62.2,57.2,62.1C57.2,62.1,57.2,62.1,57.2,62.1L57.2,62.1z"/>
		</g>
		<g>
			<path fill="#1C1D1B" d="M29.9,59.8c0.6-0.3,0.8-1.4,0.9-2c0.2-1,0.3-2.4,1.1-3.1c0.1,0,0.1-0.1,0-0.1
				C31.1,54,30.3,59.3,29.9,59.8C29.8,59.8,29.8,59.9,29.9,59.8L29.9,59.8z"/>
		</g>
		<g>
			<path fill="#1C1D1B" d="M31.9,54.7c0.3-0.6,0.3-1.2,0.7-1.8c0.2-0.4,0.6-0.7,0.9-0.9c0.4-0.2,0.8-0.2,1.2-0.3
				c0.1,0,0.1-0.2,0-0.2c-0.8-0.2-1.6,0.4-2.1,1C32.2,53,31.6,54,31.9,54.7C31.9,54.7,31.9,54.7,31.9,54.7L31.9,54.7z"/>
		</g>
		<g>
			<path fill="#1C1D1B" d="M34.8,51.7c0.3-0.7,0.8-0.6,1.4-0.6c0.5,0,0.8,0.4,1.2,0.5c0.1,0,0.1-0.1,0.1-0.1c-0.4-0.5-1-0.7-1.6-0.7
				C35.5,50.8,34.5,51,34.8,51.7C34.7,51.7,34.8,51.7,34.8,51.7L34.8,51.7z"/>
		</g>
		<g>
			<path fill="#1C1D1B" d="M55.8,59c0-0.3,0-0.5-0.2-0.8c-0.3-0.7-0.3-1.4-0.3-2.1c0-0.9,0-2-0.6-2.7c-0.1-0.1-0.2,0-0.1,0.1
				c0.5,0.9,0.5,2.1,0.5,3.2C55.1,57.5,55.4,58.1,55.8,59C55.7,59,55.8,59,55.8,59L55.8,59z"/>
		</g>
		<g>
			<path fill="#1C1D1B" d="M54.7,53.4c0.5-0.5,0.1-1.2-0.2-1.7c-0.3-0.4-1-1.2-1.6-1.1c-0.1,0-0.1,0.1,0,0.1
				c0.4,0.3,0.8,0.4,1.2,0.8C54.5,52,54.9,52.7,54.7,53.4C54.6,53.4,54.7,53.4,54.7,53.4L54.7,53.4z"/>
		</g>
		<g>
			<path fill="#1C1D1B" d="M52.9,50.7c0.3-0.4-0.6-0.5-0.8-0.5c-0.8-0.1-1.8,0.3-2.4,1c-0.1,0.1,0,0.2,0.1,0.1
				c0.5-0.3,1-0.6,1.6-0.8C51.5,50.4,53,50.2,52.9,50.7C52.9,50.7,52.9,50.7,52.9,50.7L52.9,50.7z"/>
		</g>
		<g>
			<path fill="#1C1D1B" d="M49.6,51.3c0-0.6-0.5-0.9-1.1-0.9c-0.5,0-1.6,0.1-1.8,0.6c0,0.1,0,0.2,0.1,0.1c0.6-0.2,2.6-1.1,2.7,0.2
				C49.5,51.4,49.6,51.4,49.6,51.3L49.6,51.3z"/>
		</g>
		<g>
			<path fill="#1C1D1B" d="M46.9,50.9c-0.4-0.6-1-0.6-1.7-0.5c-0.8,0.2-1.8,0.6-2.5,1.1c-0.1,0,0,0.1,0,0.1
				C44.2,51.6,45.5,49.8,46.9,50.9C46.9,51,46.9,51,46.9,50.9L46.9,50.9z"/>
		</g>
		<g>
			<path fill="#1C1D1B" d="M37.5,51.8c0.4-0.3,0.7-0.7,1.2-0.8c0.6-0.2,1,0.2,1.6,0.3c0.1,0,0.1-0.1,0.1-0.1
				C39.5,50.2,37.9,50.7,37.5,51.8C37.4,51.8,37.5,51.8,37.5,51.8L37.5,51.8z"/>
		</g>
		<g>
			<path fill="#1C1D1B" d="M40.2,51.1c0.4,0.1,0.9-0.1,1.3,0c0.5,0.1,0.8,0.4,1.3,0.6c0.1,0,0.2-0.1,0.1-0.2
				C42.1,50.9,41,50.3,40.2,51.1C40.2,51,40.2,51,40.2,51.1L40.2,51.1z"/>
		</g>
		<path fill="#1C1D1B" d="M27.4,72.1c-0.1-0.3-0.4-0.5-0.6-0.7c-0.2-0.3-0.3-0.7-0.4-1c-0.1-0.3-0.1-0.9-0.6-0.8
			c0-0.7,0.1-1.5,0.2-2.2c0.1-0.6,0.1-1.2-0.2-1.7c0,0-0.1,0-0.1,0c0.3,1.3-0.4,2.7,0,3.9c0,0,0,0,0,0c0.3,0.2,0.3,0.4,0.4,0.7
			c0,0.3,0.2,0.6,0.3,0.8c0.2,0.4,0.5,0.9,0.9,1C27.4,72.3,27.5,72.2,27.4,72.1z"/>
		<g>
			<path fill="#1C1D1B" d="M59.6,64.5c-0.3,0.2-0.3,0.8-0.4,1.1c-0.1,0.8,0.2,1.4,0.5,2.1c0,0.1,0.2,0,0.2-0.1
				c-0.2-0.6-0.4-1.2-0.4-1.8C59.4,65.4,59.6,65,59.6,64.5C59.6,64.5,59.6,64.5,59.6,64.5L59.6,64.5z"/>
		</g>
		<g>
			<path fill="#1C1D1B" d="M59.8,67.7c-0.4,0.3-0.4,0.7-0.5,1.1c-0.2,0.8-0.9,1.1-1.3,1.7c-0.1,0.1,0,0.2,0.1,0.1
				c0.5-0.3,0.9-0.7,1.2-1.1c0.3-0.5,0.2-1.2,0.7-1.7C59.9,67.7,59.8,67.6,59.8,67.7L59.8,67.7z"/>
		</g>
		<g>
			<path fill="#1C1D1B" d="M26,59.7c-0.2-1.1,0-1.9,0.4-2.9c0.2-0.5,0.5-1.2,0.2-1.7c0-0.1-0.1,0-0.1,0C26.3,56.7,25.3,58.3,26,59.7
				C26,59.8,26.1,59.8,26,59.7L26,59.7z"/>
		</g>
		<g>
			<path fill="#1C1D1B" d="M26.6,55.2c0.5-0.1,0.5-0.5,0.4-0.9c-0.2-0.9,0.1-1.8,0.1-2.6c0-0.1-0.1-0.1-0.1,0
				c-0.2,0.5-0.2,1-0.2,1.5c0,0.3-0.1,0.6,0,0.9C26.8,54.5,27.1,54.8,26.6,55.2C26.5,55.2,26.6,55.2,26.6,55.2L26.6,55.2z"/>
		</g>
		<g>
			<path fill="#1C1D1B" d="M27.1,51.7c0.6-0.5,0.4-1.4,0.9-2c0.6-0.7,1.1-1.1,1.1-2.1c0-0.1-0.1-0.1-0.1,0c-0.2,0.4-0.2,0.7-0.4,1.1
				c-0.2,0.4-0.7,0.7-1,1.1C27.2,50.3,27.4,51.1,27.1,51.7C27,51.7,27.1,51.7,27.1,51.7L27.1,51.7z"/>
		</g>
		<g>
			<path fill="#1C1D1B" d="M29.1,47.5c0.9-0.7,2-1.2,2.9-1.9c0.5-0.4,1-1.1,0.7-1.8c0-0.1-0.1,0-0.1,0C32.6,45.9,30,46.1,29.1,47.5
				C29.1,47.5,29.1,47.5,29.1,47.5L29.1,47.5z"/>
		</g>
		<g>
			<path fill="#1C1D1B" d="M32.6,44.1c0.6,0.5,1.6,0.4,2.3,0.4c0.7,0,1.7-0.1,2.2-0.6c0,0,0-0.1-0.1-0.1
				C35.5,44.4,34.2,44.4,32.6,44.1C32.6,44.1,32.5,44.1,32.6,44.1L32.6,44.1z"/>
		</g>
		<g>
			<path fill="#1C1D1B" d="M37.2,43.9c0.1,0.4,0.8,0.3,1.1,0.2c0.4-0.1,0.8-0.2,1.2-0.2c0.7,0,1.3,0.2,2,0.2c0.1,0,0.1-0.1,0-0.1
				c-0.7-0.3-1.6-0.4-2.4-0.3C38.8,43.7,37.5,44.4,37.2,43.9C37.2,43.8,37.2,43.9,37.2,43.9L37.2,43.9z"/>
		</g>
		<g>
			<path fill="#1C1D1B" d="M43.6,42.5c0.3,0.7,0.9,0.9,1.6,1c1.2,0.1,2.3-0.1,3.4,0.4c0.1,0,0.1-0.1,0.1-0.1
				C47.5,42.3,44.9,44.2,43.6,42.5C43.6,42.5,43.6,42.5,43.6,42.5L43.6,42.5z"/>
		</g>
		<g>
			<path fill="#1C1D1B" d="M48.7,43.7c0.4,0.7,1.4,0.7,2.1,0.6c1.2-0.1,2.2-0.3,3.3,0.1c0.1,0,0.1-0.1,0.1-0.1
				c-0.3-0.6-1.4-0.4-1.9-0.4C51.2,44,49.7,44.5,48.7,43.7C48.8,43.6,48.7,43.6,48.7,43.7L48.7,43.7z"/>
		</g>
		<g>
			<path fill="#1C1D1B" d="M54.1,44.2c0,1.6,1.5,2,2.6,2.7c0.1,0,0.1-0.1,0.1-0.1c-0.4-0.4-1-0.6-1.4-0.9c-0.3-0.2-0.6-0.4-0.8-0.7
				C54.3,44.9,54.3,44.5,54.1,44.2C54.1,44.1,54.1,44.2,54.1,44.2L54.1,44.2z"/>
		</g>
		<g>
			<path fill="#1C1D1B" d="M56.7,46.8c-1,0.5,0.7,2.9,1.1,3.3c0.1,0.1,0.2,0,0.1-0.1C57.6,48.9,56.4,48.2,56.7,46.8
				C56.8,46.8,56.7,46.8,56.7,46.8L56.7,46.8z"/>
		</g>
		<g>
			<path fill="#1C1D1B" d="M57.9,50c-0.4,0.7-0.2,1.4-0.1,2.1c0,0.2,0.1,0.3,0.2,0.4c0.5,0.6,0.6,1.2,0.9,1.9c0,0.1,0.1,0.1,0.1,0
				c-0.1-0.7-0.3-1.3-0.8-1.8c-0.5-0.7-0.4-1.7-0.2-2.5C58,50,57.9,50,57.9,50L57.9,50z"/>
		</g>
		<g>
			<path fill="#1C1D1B" d="M58.9,54.3c0,0-0.1,0-0.1,0c0,0,0,0-0.1,0c-0.3,0.4-0.1,0.8,0.1,1.2c0.5,1.1,1,1.9,0.7,3.2
				c0,0.1,0.1,0.2,0.2,0c0.2-0.7,0.1-1.4-0.1-2.1C59.4,56.3,58.2,54.6,58.9,54.3C58.9,54.4,58.9,54.3,58.9,54.3L58.9,54.3z"/>
		</g>
		<g>
			<path fill="#1C1D1B" d="M43.3,66.7c1-0.5,1.7,1.2,1.5,2c-0.2,1-1.4,1.5-2.3,1.3c-0.1,0-0.2,0.2-0.1,0.2c1.2,0.5,2.6-0.6,2.7-1.9
				c0.1-0.9-1-2.4-1.9-1.8C43.1,66.6,43.2,66.7,43.3,66.7L43.3,66.7z"/>
		</g>
		<g>
			<path fill="#1C1D1B" d="M47.4,65.1c0,0.6,0.8,0.9,1.2,1c0.1,0,0.1-0.1,0.1-0.1c-0.4-0.2-1-0.4-1.2-0.9
				C47.5,65.1,47.4,65.1,47.4,65.1L47.4,65.1z"/>
		</g>
		<g>
			<path fill="#1C1D1B" d="M37.3,66.5c0.5-0.2,1.1-0.7,1.2-1.3c0,0,0-0.1-0.1,0c-0.2,0.2-0.3,0.5-0.5,0.7
				C37.8,66.1,37.5,66.3,37.3,66.5C37.2,66.5,37.3,66.5,37.3,66.5L37.3,66.5z"/>
		</g>
		<g>
			<path fill="#1C1D1B" d="M31.6,61.6c2.5,0,5-0.1,7.5-0.2c0.1,0,0.2-0.2,0-0.2c-1.2-0.2-2.3,0-3.5-0.1c-1.3,0-2.8-0.2-4,0.3
				C31.4,61.5,31.5,61.6,31.6,61.6L31.6,61.6z"/>
		</g>
		<path opacity="0.2" fill="#FFFFFF" d="M56.4,72.9c-0.2,1.8-2,5.4-4,6.5c-0.7,0.4-1.1,0.6-1.7,1.1c-0.3,0.2-0.7,0.6-0.2,0.4
			c0.4-0.1,0.7-0.3,1.1-0.5c0.5-0.3,1-0.5,1.5-0.9c0.8-0.5,1.6-1.5,2.1-2.4c0.9-1.7,1.7-3.1,1.6-5.2C56.8,71.6,56.5,72.6,56.4,72.9z
			"/>
		<g>
			<path fill="#A03C51" d="M43.5,77.3c-1.4,0.1-2.9-0.3-4.1-0.9c-1.4-0.8-1.6-2.2-2-3.6c0,0,0,0,0,0c3.5,0.4,7.2,0.4,10.7-0.5
				C48.8,75.4,46.2,77.2,43.5,77.3z"/>
		</g>
		<g>
			<g>
				<path fill="#CA6272" d="M46.4,76.4c-0.5-1.2-2.5-1.9-3.7-2c-1.4-0.2-3.5-0.1-4.5,1c0,0,0.8,1.5,4,2
					C44.8,77.7,46.4,76.4,46.4,76.4z"/>
			</g>
		</g>
		<g>
			<g>
				<path fill="#1C1D1B" stroke="#1C1D1B" stroke-width="0.25" stroke-miterlimit="10" d="M37.4,72.8c3.5,0.4,7.3,0.4,10.7-0.5
					c0.1,0,0.1-0.2,0-0.1c-1.5,0.3-3,0.5-4.6,0.6C41.5,72.9,39.5,72.7,37.4,72.8C37.4,72.7,37.4,72.8,37.4,72.8L37.4,72.8z"/>
			</g>
		</g>
		<g>
			<g>
				<path fill="#1C1D1B" stroke="#1C1D1B" stroke-width="0.25" stroke-miterlimit="10" d="M37.3,72.8c0.2,1.4,0.5,2.6,1.7,3.5
					c1.4,1,3.3,1.2,5,1.1c2.7-0.2,5-2.4,4.3-5.2c0-0.1-0.2-0.1-0.2,0c0.7,3.1-1.9,4.8-4.6,5c-1.4,0.1-2.9-0.3-4.1-0.9
					C38,75.6,37.7,74.2,37.3,72.8C37.4,72.8,37.3,72.8,37.3,72.8L37.3,72.8z"/>
			</g>
		</g>
		<g>
			<g>
				<path fill="#1C1D1B" d="M38.2,75.4c2.2-1.4,6.5-1.5,8,1c0,0.1,0.2,0,0.1-0.1c-0.5-1.2-2.5-1.9-3.7-2
					C41.3,74.1,39.2,74.2,38.2,75.4C38.2,75.4,38.2,75.4,38.2,75.4L38.2,75.4z"/>
			</g>
		</g>
	</g>
</g>
<g>
	<g>
		<path fill="#F5F5F5" d="M40.9,22.7c0,0.2-0.1,0.4-0.1,0.6s-0.1,0.4-0.2,0.5s-0.1,0.3-0.2,0.4s-0.2,0.1-0.3,0.1s-0.2-0.1-0.3-0.3
			s-0.2-0.4-0.3-0.8s-0.2-0.7-0.2-1.1S39,21.4,39,21s-0.1-0.8-0.1-1.2s-0.1-0.7-0.1-1c0,0.3-0.1,0.6-0.2,1s-0.1,0.7-0.2,1.1
			s-0.2,0.8-0.3,1.1s-0.2,0.7-0.3,1s-0.2,0.5-0.4,0.7s-0.3,0.3-0.4,0.3c-0.1,0-0.3-0.1-0.4-0.3s-0.3-0.4-0.4-0.7s-0.2-0.6-0.4-1
			s-0.2-0.7-0.3-1.1s-0.2-0.7-0.2-1s-0.1-0.6-0.2-0.8c0,0.2,0,0.3,0,0.5s0,0.3,0,0.4c0,0,0,0.2,0,0.4s0,0.5,0,0.8s-0.1,0.6-0.1,1
			s-0.1,0.7-0.2,1s-0.2,0.5-0.3,0.8s-0.3,0.3-0.5,0.3c-0.2-0.1-0.3-0.2-0.4-0.4s-0.2-0.4-0.3-0.6s-0.1-0.5-0.2-0.7S33,22,33,21.7
			s0-0.5,0-0.7s0-0.4,0-0.5c0-0.2,0-0.5,0-0.9s0.1-0.7,0.1-1.1s0.1-0.8,0.2-1.2s0.2-0.7,0.4-1s0.3-0.6,0.5-0.8s0.4-0.3,0.7-0.3
			c0.1,0,0.2,0.1,0.4,0.2s0.3,0.3,0.4,0.5s0.3,0.5,0.4,0.7s0.2,0.5,0.4,0.8s0.2,0.5,0.3,0.8s0.2,0.5,0.2,0.6
			c0.1-0.2,0.1-0.4,0.2-0.7s0.2-0.5,0.3-0.8s0.2-0.5,0.4-0.8s0.3-0.5,0.4-0.7s0.3-0.4,0.5-0.5s0.3-0.2,0.5-0.2
			c0.3,0,0.5,0.1,0.7,0.3s0.4,0.5,0.5,0.8s0.2,0.7,0.3,1.1s0.1,0.8,0.2,1.2s0.1,0.8,0.1,1.1s0,0.6,0,0.8c0,0.1,0,0.2,0,0.4
			s0,0.3,0,0.5s0,0.4,0,0.6S40.9,22.5,40.9,22.7z"/>
		<path fill="#F5F5F5" d="M48.1,22.2c0,0.2,0,0.3,0,0.6s-0.1,0.4-0.2,0.6s-0.2,0.4-0.3,0.5s-0.3,0.2-0.5,0.2c-0.3,0-0.5-0.1-0.7-0.3
			s-0.2-0.5-0.3-0.8S46,22.5,46,22.1s0-0.5,0-0.7c-0.6,0.1-1.1,0.2-1.7,0.2c0,0.2,0,0.4-0.1,0.7s-0.1,0.5-0.2,0.8s-0.2,0.5-0.4,0.6
			S43.2,24,42.9,24c-0.2,0-0.3-0.1-0.4-0.2s-0.2-0.3-0.2-0.5s-0.1-0.4-0.1-0.6s0-0.4,0-0.5c0-0.4,0-0.9,0.1-1.3s0.2-0.9,0.2-1.3
			c0-0.2,0.1-0.5,0.2-0.8s0.2-0.6,0.3-0.9s0.2-0.6,0.4-1s0.3-0.6,0.5-0.8s0.4-0.5,0.7-0.6s0.5-0.2,0.8-0.2c0.3,0,0.6,0.1,0.8,0.2
			s0.4,0.3,0.6,0.5s0.3,0.5,0.4,0.7s0.2,0.6,0.3,0.8s0.1,0.6,0.2,0.8s0.1,0.5,0.1,0.7c0.1,0.5,0.2,1,0.3,1.5S48.1,21.7,48.1,22.2z
			 M45.8,19.4c0-0.1,0-0.2,0-0.5s0-0.4-0.1-0.6s-0.1-0.4-0.2-0.6s-0.2-0.3-0.3-0.3c-0.1,0-0.2,0.1-0.2,0.2s-0.1,0.2-0.2,0.4
			s-0.1,0.3-0.1,0.5s-0.1,0.4-0.1,0.6s-0.1,0.3-0.1,0.5s0,0.2,0,0.3c0.5,0,0.9-0.1,1.4-0.2V19.4z"/>
		<path fill="#F5F5F5" d="M53.3,16c0,0.1,0,0.3-0.1,0.4s-0.2,0.2-0.3,0.3s-0.2,0.2-0.4,0.2S52.3,17,52.2,17c0,0.9,0,1.7-0.1,2.6
			s-0.1,1.7-0.2,2.5h0.1c0.1,0,0.2,0,0.4,0s0.2,0.1,0.3,0.1s0.2,0.1,0.2,0.2s0.1,0.2,0.1,0.4c0,0.2-0.1,0.3-0.2,0.5
			s-0.3,0.2-0.4,0.3s-0.4,0.2-0.6,0.2s-0.5,0.1-0.7,0.1s-0.4,0.1-0.6,0.1s-0.4,0-0.5,0c-0.1,0-0.2,0-0.3,0s-0.3,0-0.4-0.1
			s-0.2-0.1-0.3-0.2s-0.1-0.2-0.1-0.3c0-0.2,0-0.3,0.1-0.4s0.2-0.2,0.3-0.3s0.2-0.2,0.4-0.2s0.3-0.1,0.4-0.1
			c0.1-0.4,0.1-0.9,0.2-1.3s0.1-0.9,0.1-1.3c0-0.4,0-0.9,0-1.3s0-0.9,0-1.3c-0.1,0-0.1,0-0.2,0s-0.1,0-0.1,0c-0.1,0-0.2,0-0.4,0
			s-0.2-0.1-0.4-0.1S49,17,48.9,16.9s-0.1-0.2-0.1-0.3c0-0.3,0.1-0.5,0.3-0.7s0.5-0.3,0.8-0.4s0.6-0.2,0.9-0.2s0.6-0.1,0.8-0.1
			c0.1,0,0.3,0,0.4,0s0.4,0.1,0.5,0.1s0.3,0.1,0.5,0.2S53.3,15.8,53.3,16z"/>
	</g>
</g>
<rect x="0" y="6" fill="#3E3E3D" width="1" height="24"/>
<rect x="85" y="6" fill="#3E3E3D" width="1" height="24"/>
<g>
	<defs>
		<circle id="SVGID_94_" cx="-37.5" cy="-150.1" r="35.7"/>
	</defs>
	<use xlink:href="#SVGID_94_"  overflow="visible" fill="#F8B032"/>
	<clipPath id="SVGID_1_">
		<use xlink:href="#SVGID_94_"  overflow="visible"/>
	</clipPath>
	<g clip-path="url(#SVGID_1_)">
		<g>
		</g>
	</g>
</g>
<g>
	<g>
		<rect x="34.2" y="25.5" fill="#F5F5F5" width="5.4" height="1.5"/>
	</g>
</g>
</svg>
