<?xml version="1.0" encoding="utf-8"?>
<!-- Generator: Adobe Illustrator 18.1.0, SVG Export Plug-In . SVG Version: 6.00 Build 0)  -->
<svg version="1.0" id="Capa_1_copia" xmlns="http://www.w3.org/2000/svg" xmlns:xlink="http://www.w3.org/1999/xlink" x="0px"
	 y="0px" viewBox="0 0 85 91" enable-background="new 0 0 85 91" xml:space="preserve">
<rect x="-255" fill="#575756" width="1280" height="35"/>
<g>
	<rect y="35" fill="#8BBE37" width="85" height="56"/>
	<g>
		<path fill="#455A64" d="M38.6,78.6c-0.9-0.7-1.7-1.4-2.5-2.2c0,0,0-0.1-0.1-0.1c0-0.1,0-0.2-0.1-0.4c-0.2-0.4-0.4-0.8-0.7-1.1
			c0-0.1,0-0.2,0-0.4c-0.4-1.1-0.8-2-1.4-2.9c-0.1-0.2-0.2-0.4-0.2-0.6c0-0.1,0.1-0.3,0-0.4c-0.1-0.6-0.3-1.3-0.5-1.9
			c0-0.1,0-0.2,0-0.3c-0.2-2.7,0.3-4.8,1-7.1c0.7-0.6,1.2-1.4,1.6-2.3c0.1-0.2,0.1-0.4,0.1-0.5c0.1-0.1,0.2-0.2,0.3-0.3
			c0.1-0.2,0.1-0.3,0.1-0.5c0.8-1.5,0.4-3.8,1.3-5.2c0.2-0.4-0.2-0.9-0.6-0.7c-0.2,0.1-0.4,0.1-0.6,0.2c-0.1-0.1-0.3-0.1-0.4,0
			c-0.1,0.1-0.2,0.1-0.3,0.2c0,0,0,0.1-0.1,0.1c-0.1-0.1-0.2-0.1-0.4-0.1c-1,0.1-2.1,0.3-3.1,0.5c-0.8,0.2-1.6,0.3-2.3,0.8
			c-0.2,0-0.5,0-0.8,0.1c0,0-0.1,0-0.1,0c-0.2,0-0.3,0.1-0.5,0.1c0,0-0.1,0-0.1,0c-0.6,0.2-1.2,0.3-1.8,0.6
			c-0.1,0.1-0.2,0.2-0.3,0.3c-1.5,0-3,0.6-3.9,1.6c-0.1,0-0.2,0-0.3,0.1c-0.1,0.2-0.2,0.3-0.3,0.3c-0.1,0-0.2,0-0.2,0.1
			c-0.4,0.4-0.6,0.9-0.7,1.4c-0.1,0.2-0.1,0.4-0.2,0.6c0,0-0.1,0-0.1,0c-0.2,0.2-0.5,0.3-0.6,0.6c0,0.1,0,0.1,0,0.2
			c0,0.2,0.1,0.4,0.3,0.5c-0.1,0.1-0.1,0.1-0.2,0.2c-0.1,0.2,0.1,0.6,0.4,0.5c0.2,0,0.5,0,0.7-0.1c0.1,0,0.2,0,0.3-0.1
			c0.2,0,0.4,0,0.6,0.1c0.2,0.1,0.4-0.2,0.2-0.3c0,0,0.1,0,0.1,0.1c0,0,0,0,0,0c0,0,0.1,0,0.1,0.1c0.1,0,0.1,0.1,0.2,0.1
			c1,0.4,2,0.4,3,0.3c0.9,0.2,1.8,0.2,2.5,0.2c0.4,4.7,0.1,9.5,0.7,14.2c-0.4,1.2-0.8,2.4-0.4,3.5c0.2,0.4,0.7,0.5,1,0.3
			c0,0,0,0,0,0c0.4,0.1,0.8,0.1,1.2,0.2c0.9,0.3,1.8,0.3,2.6,0.2c0,0,0.1,0,0.1,0c0.7,0,1.4-0.1,2.2-0.1c0.1,0,0.2,0,0.3,0
			c0.1,0,0.1,0,0.2,0c0.6,0,1.2,0,1.8,0.1c0,0,0,0,0,0C38.5,79.6,39,78.9,38.6,78.6z M27.3,57.1c-0.7,0.1-1.5,0.8-2.2,0.7
			c-0.1,0-0.2,0.2-0.3,0.2h-0.3c0,0,0-0.3-0.1-0.3c-0.1,0-0.2-0.1-0.2-0.1c-0.3-0.2-0.6-0.6-0.9-0.8c0,0,0-0.1,0.1-0.1
			c0.3-0.2,0.5-0.4,0.8-0.6c0,0,0-0.1,0.1-0.1c0.1,0,0.1,0.1,0.2,0.1c0.2,0,0.5-0.2,0.7-0.1c0.3,0,0.6,0.1,0.9,0.1
			c0.1,0,0.3,0,0.4-0.1c0.3,0,0.6,0,0.8,0c0.1,0,0.1,0,0.2,0c0.1,0.2,0.2,0.3,0.3,0.4C27.6,56.6,27.5,56.9,27.3,57.1z"/>
		<path fill="#455A64" d="M63.4,54.8c-0.2-0.7-0.8-0.9-1.3-0.8c-0.1-0.1-0.3-0.2-0.4-0.3c-1.2-0.9-2.3-1.5-3.8-1.9
			c-0.2-0.1-0.4,0-0.6,0.1c0,0-0.1,0-0.1,0c0,0-0.1,0-0.1,0c-0.1-0.1-0.2-0.2-0.3-0.3c0,0,0,0,0,0c0,0,0-0.1-0.1-0.1
			C56.4,51,55.8,51.5,56,52c0.1,0.2,0.2,0.3,0.3,0.4c0.1,0.3,0.2,0.5,0.4,0.8c0,0,0,0,0.1,0c0.1,0.3,0.2,0.6,0.2,0.9
			c0.1,0.4,0.1,0.7,0.2,1.1c0,0.6,0.1,1.2,0.2,1.8c-0.1,0.2-0.1,0.4-0.1,0.6c0,0,0,0,0,0.1c0,0.6,0.2,1,0.6,1.4
			c0.1,0.1,0.1,0.1,0.2,0.1c0,0.2,0,0.3,0.2,0.5c0.1,0.1,0.1,0.2,0.2,0.3c0,0,0,0.1,0,0.1c0.6,1.3,1.2,2.5,1.7,3.7
			c0,0.1,0,0.1,0,0.2c0,0.5,0.1,1,0.3,1.4c0.2,1.4,0,3-0.4,4.5c-0.1,0.1-0.2,0.3-0.3,0.5c-0.1,0.3-0.1,0.6-0.2,0.8
			c-0.1,0-0.2,0-0.2,0.1c-0.3,1.5-1.9,3-2.7,4.5c-0.6,0.6-1.1,1.2-1.8,1.8c-0.3,0.3,0,0.7,0.4,0.6c0.3,0,0.6,0,0.9,0
			c0.1,0.1,0.2,0.1,0.3,0c0.1,0,0.2,0,0.3-0.1c0,0,0.1,0,0.1,0c0.6,0.1,0.9-0.1,1.3-0.2c0.1,0.1,0.2,0.1,0.4,0.1
			c0.9-0.2,2,0,2.9-0.2c3.1,0.9,4.4-2.4,4.7-5.3C67.1,66.5,65.5,60.7,63.4,54.8z"/>
		<path fill="#78909C" d="M59.5,63.5c0.1-0.2,0.2-0.4,0.2-0.6c0.2-1.8-1.8-3.7-3.1-4.6c0,0-0.1,0-0.1,0c0-0.1-0.1-0.1-0.1-0.2
			c-0.9-1.4-2.4-2.4-4-2.7c-0.1,0-0.2,0-0.3,0c-1.2-0.7-2.7-1.2-4.1-1c-0.1,0-0.2,0.1-0.3,0.1c-1.1-0.1-2.2-0.2-3.2,0
			c-0.1,0-0.1,0-0.2,0c-0.9,0-1.5,0.2-2.1,0.8c-0.1,0.1-0.1,0.1-0.1,0.2c-1.3-0.2-3.7,0.9-4.3,2c0,0,0,0,0,0c-0.1,0-0.1,0-0.2,0.1
			c-0.9,0.5-1.7,1.3-2.1,2.3c-0.2,0-0.3,0.1-0.5,0.3c-1.7,1.8-1.6,4.5-1,7.1c-0.2,0.1-0.4,0.3-0.4,0.6c0.3,2.2,0.6,4.6,2.1,6.3
			c0.3,0.8,0.8,1.5,1.4,2.1c0,0.2,0,0.4,0.2,0.6c0.9,0.9,2,1.7,3.2,2.4c0.1,0.1,0.1,0.2,0.2,0.2c0.6,0.3,1.1,0.5,1.7,0.8
			c0.1,0,0.2,0,0.3,0c0.1,0,0.2,0.1,0.3,0.1c0.1,0,0.2,0,0.3,0c1.1,0.3,2.3,0.2,3.5,0.2c0,0,0,0,0,0c0.2,0.2,0.4,0.3,0.8,0.3
			c1.7,0,3-1,4.3-1.9c0.7-0.3,1.4-0.6,2.1-1.1c0.2-0.1,0.3-0.3,0.3-0.5c0.8-0.4,1.6-1.2,2-1.8c0.2-0.2,0.4-0.5,0.5-0.8
			c0.3,0.1,0.7,0.1,1-0.3c0.4-0.7,0.7-1.5,0.9-2.2c0-0.1,0-0.2,0-0.3c0.1-0.1,0.1-0.3,0.2-0.5c0-0.6,0.5-1.5,0.7-2
			c0.3-0.9,0.4-1.9,0.6-2.8C60.3,65.6,60.2,64.4,59.5,63.5z M57.4,66.6c0,0.6,0,1.1,0.2,1.6c0,0.3-0.1,0.6-0.1,0.9c0,0,0,0.1,0,0.1
			c-0.3,0.7-0.5,1.3-0.6,2c0,0-0.1,0.1-0.1,0.1c-0.7,0.9-1,2-1.6,3c-0.6,1-1.9,1.3-2.4,2.4c-0.6,0.3-1.2,0.6-1.8,1
			c-0.6,0.2-1.3,0.5-1.9,0.7c-1.2,0.4-2.5,0.2-3.7,0.4c-1.3-0.3-2.5-0.7-3.8-1.3c0-0.1-0.1-0.2-0.2-0.2C40,76.2,38.9,75,38,73.6
			c0-0.1,0-0.1-0.1-0.2c-0.1-0.2-0.2-0.4-0.4-0.6c0-0.1,0-0.3,0-0.5c-0.4-1.3-0.9-2.7-1.3-4.2c0.1-0.1,0.2-0.2,0.1-0.4
			c-0.1-0.3-0.1-0.6-0.2-0.9c0,0,0-0.1-0.1-0.1c0-0.5,0.1-0.9,0.1-1.4c0,0,0,0,0-0.1c0.1-0.9,0.5-1.8,0.7-2.7
			c0.1-0.1,0.1-0.1,0.2-0.2c0.6-1.1,1.2-2.1,1.9-3.2c0,0,0,0,0.1,0c0,0,0.1-0.1,0.1-0.1l0,0c0,0,0,0,0,0c0.1-0.1,0.2-0.1,0.2-0.2
			c0,0,0.1,0,0.1-0.1c0.1-0.1,0.2-0.2,0.3-0.3c0.1,0,0.1,0,0.2-0.1l0.1-0.1c0.1,0,0.1,0,0.2-0.1c0.2-0.1,0.3-0.2,0.5-0.2
			c0.1,0,0.1-0.1,0.2-0.1c0.1,0,0.3,0,0.4-0.1c1.1-0.6,2.4-0.7,3.7-1c0.1,0,0.2-0.1,0.3-0.1c0,0,0,0,0,0c1.1,0.1,2.3,0,3.4,0
			c0.1,0.2,0.2,0.3,0.4,0.4c0.4,0,0.9,0.1,1.3,0.1c0.1,0,0.2,0.1,0.2,0.1c0.1,0.1,0.1,0.1,0.3,0.2c0.9,0.3,1.7,0.8,2.5,1.1
			c0,0.1,0,0.2,0.1,0.3c0,0.1,0.1,0.2,0.2,0.3c0.1,0.1,0.1,0.1,0.2,0.2c0.1,0.1,0.2,0.1,0.3,0.1c0.1,0.1,0.2,0.1,0.4,0.2
			c0.3,0.2,0.6,0.5,0.9,0.9c0.2,0.3,0.4,0.5,0.6,0.7c0,0,0,0.1,0,0.1c0.3,0.4,0.5,0.8,0.7,1.3c0.1,0.2,0.1,0.3,0.2,0.5
			c0,0.1,0,0.2,0,0.4c0.4,0.7,0.6,1.7,0.8,2.6C57.6,66.2,57.5,66.4,57.4,66.6z"/>
		<g>
			<path fill="#757575" d="M25.3,65.7C25.3,65.7,25.3,65.7,25.3,65.7C25.3,65.7,25.3,65.7,25.3,65.7z"/>
			<path fill="#263238" d="M29.1,69.2c-0.1-1,0.2-2.1-0.4-3c0-1.6,0.4-3.6,0-5.1c-0.1-0.4-0.5-0.6-0.9-0.5c-1.3,0.2-2.9-0.6-4.3-0.6
				c-0.1,0-0.1,0-0.2,0c-0.4-0.1-0.6,0-0.9,0.2c0,0-0.1,0-0.1,0c0,0-0.1,0-0.1,0c-0.6,0-1.4-0.1-2,0.1c-0.3,0.1-0.5,0.3-0.5,0.6
				c0,0,0,0.1,0,0.1c0,0.1,0,0.2,0.1,0.2c0,0,0,0,0,0c-0.3,1-0.5,2-0.3,3.1c0,0.2,0.1,0.3,0.2,0.4c0,0.1-0.1,0.1-0.1,0.2
				c-0.6,1.8-0.5,3.6,0,5.2c-0.1,0.1-0.1,0.2-0.2,0.4c-0.3,1.2,0.2,2.3,0.9,3.2c0.4,0.5,0.9,1.2,1.4,1.6c0.2,0.3,0.5,0.5,0.8,0.8
				c0.2,0.1,0.4,0.2,0.6,0.3c1.2,1.1,2.5,2.2,4,1.5c0,0.1,0.1,0.2,0.1,0.4c0.3,0.6,1.1,0.7,1.4,0c0.3-0.7,0.3-1.8,0.1-2.6
				C29.1,73.6,29.3,71.4,29.1,69.2z"/>
		</g>
		<path fill="#263238" d="M57.3,56.7c-0.1-0.2-0.2-0.3-0.3-0.3c0.2-0.2,0.2-0.6,0-0.8c0,0,0-0.1-0.1-0.1c0-0.1,0.1-0.1,0.1-0.2
			c0.1-1.6-1.2-3.7-2.2-4.8c-0.3-0.3-0.9-0.1-0.9,0.3c-0.1,0-0.2,0.1-0.2,0.2c0,0.1-0.1,0.2-0.1,0.2c-0.3,0.1-0.7,0.3-1,0.4
			c-0.1-0.1-0.2-0.2-0.3-0.2c-0.1,0-0.5,0.2-0.8,0.3c-0.3,0-0.5,0-0.5,0c-0.2,0-0.4,0.2-0.5,0.4c-1.8-0.2-3.8,0-5.7,0.3
			c-0.2-0.2-0.4-0.4-0.8-0.3c-1.4,0.2-3.2-0.4-4.4-0.1c0,0-0.1,0-0.1,0c-0.1-0.3-0.3-0.7-0.4-1c-0.1-0.4-0.8-0.5-0.9,0
			c-0.1,0.5-0.1,0.9-0.1,1.4c-0.3,0.5-0.5,0.9-0.5,1.4C37.2,54,37,54.6,36.9,55c-0.2,0.7-0.4,1.4-0.4,2.1c0,0.5,0.6,0.7,0.9,0.4
			c0.2-0.3,0.3-0.6,0.5-0.9c0.1-0.1,0.2-0.2,0.2-0.3c0.1,0,0.1,0.1,0.2,0.1c0.4,0,0.7-0.3,0.8-0.7c0.5-0.2,1-0.5,1.5-0.8
			c0.1,0,0.2,0,0.3,0c3.2-1.2,7.9-1.9,11.3-0.7c-0.1,0.2-0.1,0.5,0.1,0.6c0.7,0.9,1.7,1.2,2.6,1.8c0.3,0.2,0.5,0.2,0.7,0.1
			c0.1,0.1,0.2,0.2,0.3,0.2l0,0c0,0.5,0.3,0.8,0.7,0.8c0,0,0.1,0,0.1,0c0.2,0,0.4-0.1,0.4-0.3C57.4,57.1,57.4,57,57.3,56.7z"/>
		<path fill="#424242" d="M54.6,47.9c-0.6-1.1-2.2-1-3.3-0.9c-0.2,0-0.3,0.1-0.5,0.2c-0.4-0.1-0.9-0.2-1.4-0.2
			c-0.8-0.1-1.6-0.1-2.4,0.1c-0.1,0-0.2,0-0.3,0c-0.2,0-0.4,0.1-0.5,0.2c0,0-0.1,0-0.1,0c-0.1,0-0.1,0.1-0.2,0.1
			c-0.8,0-1.5-0.1-2.3-0.4c-0.5-0.1-0.8,0-1.1,0.2c-0.7,0-1.5,0.1-2,0.3c0,0,0,0-0.1,0.1c-0.2-0.1-0.4-0.1-0.6-0.1
			c-0.3,0-0.7,0.1-0.6,0.5c0,0.2,0,0.4,0,0.6c0,0,0,0.1,0,0.1c0,0.1-0.1,0.2-0.1,0.3c-0.1,0.1-0.2,0.2-0.1,0.4c0,0.1,0,0.2,0,0.3
			C39,49.9,38.9,50,39,50.3c0.3,0.7,0.3,0.8,0.8,1.4c0.1,0.1,0.3,0.2,0.4,0.1c0.2,0.1,0.4,0,0.6-0.1c0,0,0,0,0,0
			c1.5,0.9,3.2,0.7,4.9,0.7c2,0,3.8-0.4,5.6-1.1c0,0,0.1,0.1,0.2,0.1c0.5,0.1,0.9,0,1.3-0.1c0,0,0.1,0,0.1,0c0.2,0.1,0.4,0.2,0.6,0
			C54.2,50.6,55.3,49,54.6,47.9z"/>
		<path fill="#424242" d="M35.5,49c0-0.5-0.6-0.9-1-0.6c-0.2,0.1-0.3,0.2-0.5,0.3c-0.1-0.1-0.3-0.1-0.5-0.2c-0.4,0-0.6,0.1-0.8,0.3
			c-0.3,0-0.7,0-1,0.1c-1.5,0.2-3,0.3-4.4,1c0,0-0.1,0-0.1,0c-0.6,0-0.9,0.1-1.2,0.5c-0.1,0-0.1,0.1-0.2,0.1c0,0.1-0.1,0.2-0.1,0.3
			c-0.1,0.1,0,0.3,0.1,0.4c0,0.3,0,0.7,0,1c0,0.2,0,0.5,0,0.7c0,0,0,0,0,0c0,0,0,0,0,0c0,0,0,0,0,0.1c0,0,0,0.1,0.1,0.1
			c0,0.2,0,0.5,0.1,0.7c0.1,0.2,0.3,0.3,0.5,0.1c0.1,0.1,0.3,0.2,0.5,0.1c0.6-0.1,1-0.5,1.4-0.9c0.1,0,0.2,0,0.2,0
			c2.2-0.6,4.3-1.1,6.6-1.5c0.3,0,0.5-0.4,0.5-0.6C35.7,50.4,35.6,49.7,35.5,49z"/>
		<path fill="#4DB6AC" d="M57.5,65.5c-0.1-2.9-2.5-6.1-4.8-7.3c-0.3-0.1-0.6-0.2-0.8-0.1c-0.9-0.6-1.8-1.3-3-1.2
			c-0.1,0-0.1,0-0.2,0.1c-0.2,0-0.3-0.1-0.5-0.1c-0.8-0.2-1.7-0.1-2.5,0.1c-0.4-0.2-1-0.2-1.5,0c0,0-0.1,0-0.1,0
			c-0.1,0-0.2,0-0.2,0.1c-0.2,0-0.4,0-0.6,0c-0.3,0-0.5,0.1-0.6,0.2c0,0,0,0-0.1,0c-1,0.3-1.8,0.3-2.7,0.8c-0.6,0.3-1,0.8-1.3,1.4
			c-0.6,0.6-1.1,1.3-1.2,2.1c-0.3,0.4-0.6,0.9-0.7,1.5c0,0.2,0,0.3,0,0.5c-0.2,0.5-0.3,1-0.3,1.6c0,0.1,0,0.1,0,0.2l0,0
			c0,1.9-0.1,3.2,0.3,5.1c0.1,0.2,0.2,0.4,0.3,0.5c0,0.1,0.1,0.1,0.1,0.2c0.3,1.5,0.8,2.9,1.7,4c1.1,1.3,2.4,2.4,3.9,2.9
			c0.7,0.3,1.5,1,2.3,1h0c0.1,0,0.3-0.1,0.4,0c0.7,0.2,1.6-0.3,2.4-0.6c0.4,0.1,0.8-0.1,1.1-0.2c0.1,0,0.1,0,0.2-0.1
			c0.1,0,0.2-0.1,0.3-0.1c0,0,0.1,0,0.1-0.1c0,0,0.1,0,0.1-0.1c2.8-1,4.9-3,6.3-5.7C57.2,70.3,58,67.8,57.5,65.5z"/>
		<g>
			<path d="M19.9,58.1c-2.1,6.3-2.9,20.4,6.6,21.1c0.4,0,0.4-0.5,0.1-0.7c-9.9-3.9-6.2-12.2-6.5-20.4C20.1,58,20,58,19.9,58.1
				L19.9,58.1z"/>
		</g>
		<g>
			<path d="M24,78c1.6,1.7,4.4,1.5,6.5,1.7c3.2,0.2,6.5,0.7,9.6-0.1c0.2-0.1,0.1-0.4-0.1-0.4c-2.9-0.3-5.8-0.1-8.6-0.4
				c-2.5-0.2-4.9-0.7-7.3-1C24,77.8,24,77.9,24,78L24,78z"/>
		</g>
		<g>
			<path d="M19.6,62.6c0.7-1.7,0.8-3.7,1.7-5.4c0.9-1.7,3.1-2.1,4.6-3c0.2-0.1,0.1-0.4-0.1-0.3c-1.8,0.4-3.9,1-4.9,2.6
				c-0.9,1.4-2.4,4.5-1.4,6.1C19.4,62.7,19.5,62.7,19.6,62.6L19.6,62.6z"/>
		</g>
		<g>
			<path d="M23.3,55c2.4-0.1,4.5-1.3,6.8-1.8c2.6-0.7,5.3-1,7.9-1.7c0.2,0,0.1-0.3,0-0.3c-5.1,0.3-9.9,1.9-14.7,3.7
				C23.2,54.9,23.2,55,23.3,55L23.3,55z"/>
		</g>
		<g>
			<path d="M23.5,56.9c0,0.6,1.5,0.5,1.9,0.5c0.9,0,2-0.1,2.7-0.7c0.1-0.1,0.1-0.4,0-0.5c-0.7-0.7-2.1-0.6-3-0.6
				c-0.5,0-2.2,0.4-1.6,1.3C23.4,57,23.5,57.1,23.5,56.9c0.2-1.1,3.5-0.8,3.5-0.2c0-0.2,0-0.3,0-0.5c0,0.5-1.6,0.5-2.3,0.5
				C24.5,56.7,23.4,56.5,23.5,56.9L23.5,56.9z"/>
		</g>
		<g>
			<path d="M20.2,60.7c1.3,0.1,2.5-0.1,3.8,0c1.5,0.1,2.9,0.5,4.4,0.5c0.2,0,0.3-0.3,0.1-0.4c-1.4-0.5-3-0.6-4.5-0.7
				c-1.3-0.1-2.7-0.1-3.9,0.5C20.1,60.6,20.1,60.7,20.2,60.7L20.2,60.7z"/>
		</g>
		<g>
			<path d="M28.4,61c-0.3,2.4,0.2,5.1,0.2,7.5c0,2.8,0,5.7,0,8.5c0,0.2,0.3,0.2,0.3,0c0.4-2.8,0.3-5.7,0.3-8.6
				c0-2.5,0.2-5.1-0.6-7.6C28.6,60.9,28.5,60.9,28.4,61L28.4,61z"/>
		</g>
		<g>
			<path d="M25.8,54.1c0-0.7-0.1-1.3-0.1-1.9c0-0.6,0.3-1.2,0.1-1.7c0-0.1-0.1-0.1-0.2,0c-0.5,0.4-0.4,1.3-0.4,1.8
				C25.4,52.8,25.4,53.5,25.8,54.1C25.8,54.1,25.8,54.1,25.8,54.1L25.8,54.1z"/>
		</g>
		<g>
			<path d="M25.8,50.6c1.4-0.2,2.7-0.6,4.1-0.9c1.8-0.3,3.7-0.6,5.5-1c0.1,0,0.1-0.2,0-0.3c-1.7-0.5-3.5,0.1-5.2,0.5
				c-1.5,0.4-3.4,0.3-4.5,1.4C25.6,50.4,25.7,50.6,25.8,50.6L25.8,50.6z"/>
		</g>
		<g>
			<path d="M35.4,48.5c-0.1,0.5,0.1,0.9,0.1,1.4c0,0.6-0.1,1.2,0,1.9c0,0.2,0.3,0.2,0.4,0C36.1,51,36.1,49.1,35.4,48.5
				C35.4,48.5,35.4,48.5,35.4,48.5L35.4,48.5z"/>
		</g>
		<g>
			<path d="M36.3,58.2c1-2.6,1.2-5.4,2.6-7.8c0.1-0.1-0.1-0.3-0.2-0.2c-1.1,0.7-1.4,2.1-1.7,3.3C36.6,54.8,35.7,56.8,36.3,58.2
				C36.2,58.2,36.3,58.2,36.3,58.2L36.3,58.2z"/>
		</g>
		<g>
			<path d="M38.6,50.4c0.1,0.8,0.5,1.5,1.2,1.8c0.1,0,0.2-0.1,0.2-0.2c-0.4-0.5-0.7-1.1-0.9-1.7C39,50,38.6,50.1,38.6,50.4
				L38.6,50.4z"/>
		</g>
		<g>
			<path d="M39.6,52.1c4.1,1.2,9.6,0.2,13.7-0.5c0.2,0,0.1-0.4-0.1-0.4c-2.3-0.2-4.6,0.2-6.8,0.4c-2.3,0.2-4.5,0.1-6.8,0.1
				C39.5,51.7,39.4,52,39.6,52.1L39.6,52.1z"/>
		</g>
		<g>
			<path d="M53.3,51.5c0.7-0.1,1.4-1.1,1.5-1.8c0-0.2-0.2-0.2-0.3-0.1c-0.6,0.4-0.8,1.2-1.3,1.7C53.2,51.3,53.2,51.5,53.3,51.5
				L53.3,51.5z"/>
		</g>
		<g>
			<path d="M54.6,49.5c-0.7,0.5,0.5,1.9,0.8,2.3c1,2,1.4,4.2,1.8,6.3c0,0.2,0.4,0.2,0.4,0c-0.1-1.7-0.5-3.4-0.9-5
				c-0.3-0.9-0.6-1.7-1-2.6c0.1,0.2-0.5-1.3-0.8-0.8C54.9,49.6,54.8,49.4,54.6,49.5L54.6,49.5z"/>
		</g>
		<g>
			<path d="M33.9,61.6c-2.8,6.8,0.6,16.9,8.2,19.2c8,2.4,16.1-2.8,18.1-10.6c1.8-6.8-2.9-16.1-10.6-16.6c-6.5-0.4-13.3,1.4-15.9,8
				c-0.2,0.4,0.5,0.6,0.7,0.3c6.2-11.2,25.1-9.1,25.3,5.2c0.1,8.3-8,14.5-16,13.3c-8.4-1.2-11-11.9-9.4-18.6
				C34.4,61.4,34,61.3,33.9,61.6z"/>
		</g>
		<g>
			<path d="M54.3,78.5c1.5,0.6,3.3,0.4,4.8,0.4c1.6,0,3.3,0,4.8-0.5c0.2-0.1,0.2-0.4-0.1-0.4c-3.2,0-6.4,0.2-9.5,0.2
				C54.1,78.2,54.1,78.5,54.3,78.5L54.3,78.5z"/>
		</g>
		<g>
			<path d="M55.4,51.4c1.3,0.4,2.6,0.7,3.9,1.2c1.6,0.6,2.9,1.7,4.4,2.5c0.2,0.1,0.4-0.1,0.3-0.3c-1.6-2.4-5.8-3.7-8.6-3.5
				C55.3,51.3,55.3,51.4,55.4,51.4L55.4,51.4z"/>
		</g>
		<g>
			<path d="M62.6,54c2.3,3.5,2.8,7.1,3.1,11.1c0.2,3.3,1.8,11.5-2.5,12.8c-0.4,0.1-0.2,0.7,0.2,0.6c4.4-1.1,3.4-6.6,3.3-10.2
				c-0.2-4.7,0.1-11.2-3.7-14.6C62.8,53.6,62.5,53.8,62.6,54L62.6,54z"/>
		</g>
		<g>
			<path d="M38.8,50.5c0.4-0.8,0.6-2,0.6-2.9c0-0.2-0.2-0.2-0.3-0.1c-0.5,0.8-0.6,2-0.6,2.9C38.5,50.6,38.7,50.7,38.8,50.5
				L38.8,50.5z"/>
		</g>
		<g>
			<path d="M39.2,47.7c5-0.3,9.9-0.4,15-0.2c0.4,0,0.4-0.5,0-0.6c-4.9-0.6-10.1-0.5-15,0.5C39.1,47.5,39.1,47.7,39.2,47.7L39.2,47.7
				z"/>
		</g>
		<g>
			<path d="M54.3,47.3c0,0.4,0.1,0.8,0.2,1.3c0.1,0.4,0.1,0.9,0.4,1.2c0.1,0.1,0.2,0.1,0.2,0c0.2-0.7-0.2-1.9-0.6-2.5
				C54.5,47.1,54.3,47.2,54.3,47.3L54.3,47.3z"/>
		</g>
		<g>
			<path d="M41,49.4c1.8,0.3,3.6,0.1,5.4,0c2.1-0.1,4.3,0,6.3-0.4c0.1,0,0.2-0.3,0-0.3c-1.8-0.3-3.6,0-5.4,0.1
				C45.2,48.9,43.1,48.9,41,49.4C41,49.3,41,49.3,41,49.4L41,49.4z"/>
		</g>
		<g>
			<path d="M40.8,57.7c-5.6,3-5.5,10.5-3.1,15.6c2.8,5.9,9,6.7,14.3,3.7c5.4-3.1,7.5-9.9,4.4-15.3C53.3,56.3,46.2,55.3,40.8,57.7
				c-0.3,0-0.1,0.3,0.1,0.3c4.3-1.4,9.4-1.8,13.1,1.4c5.1,4.3,4.3,11.5-0.2,15.8c-4.5,4.4-11.3,4.1-15.1-1
				c-3.5-4.9-3.2-12.9,2.1-16.3C40.9,57.8,40.9,57.7,40.8,57.7z"/>
		</g>
		<g>
			<path d="M46.1,67.4c-0.8,0.4-0.4,1.8,0.5,1.4c0.1-0.1,0.1-0.2,0-0.3c-0.4-0.2-0.6-0.5-0.3-0.9C46.3,67.4,46.2,67.3,46.1,67.4
				L46.1,67.4z"/>
		</g>
		<g>
			<path d="M43.1,73.6c1.4,0.9,3.8,1.1,5.4,0.6c1.8-0.5,2.8-1.6,3.6-3.2c1.6-3.2,1.2-7.8-2.7-9.3c-2.7-1-6.5-0.3-8.3,2.2
				c-2.3,3.2-1.3,7.8,1.9,9.9c0.2,0.1,0.4-0.2,0.3-0.3c-2.6-2.2-3.8-5.6-2-8.8c1.3-2.3,4.5-3.1,6.9-2.7c3.9,0.6,4.9,4.9,3.8,8.1
				c-0.7,2-1.9,3.6-4.2,3.9C46.2,74.1,44.4,74,43.1,73.6C43.1,73.5,43,73.6,43.1,73.6z"/>
		</g>
		<g>
			<path d="M45.3,69.6c0.7,0.6,1.7,0.5,2.3-0.2c0.7-0.8,0.4-1.9-0.2-2.6c-0.7-0.7-1.9-0.8-2.5,0.1C44.4,67.8,44.5,69,45.3,69.6
				c0.2,0.1,0.4-0.1,0.2-0.2c-0.5-0.5-0.6-1.2-0.3-1.9c0.4-0.9,1.3-0.8,1.9-0.3c1.3,1.1-0.2,3-1.6,2.1
				C45.3,69.3,45.2,69.5,45.3,69.6z"/>
		</g>
	</g>
</g>
<g>
	<rect x="85" y="35" fill="#F9C91E" width="85" height="56"/>
</g>
<g>
	<rect x="-85" y="35" fill="#3A99D4" width="85" height="56"/>
</g>
<g>
	<g>
		<path fill="#F5F5F5" d="M23.4,17.8c0,0.5-0.1,1-0.4,1.5s-0.6,0.8-1,1.1c0.1,0.2,0.3,0.4,0.4,0.7s0.3,0.5,0.4,0.8s0.2,0.6,0.3,0.8
			s0.1,0.5,0.1,0.8c0,0.2-0.1,0.5-0.2,0.7s-0.3,0.3-0.6,0.3c-0.2,0-0.5-0.1-0.6-0.4s-0.3-0.5-0.5-0.8s-0.3-0.7-0.4-1
			s-0.2-0.6-0.3-0.8c-0.1,0-0.3,0.1-0.4,0.2s-0.3,0.1-0.4,0.2c0,0.2,0,0.4,0,0.7s-0.1,0.6-0.1,0.9s-0.2,0.6-0.3,0.8
			s-0.3,0.3-0.6,0.3c-0.3,0-0.5-0.1-0.6-0.3s-0.2-0.5-0.3-0.8s-0.1-0.6-0.1-0.9s0-0.5,0-0.7c0-0.4,0-0.7,0-1.1s0-0.7,0-1.1
			c0-0.3,0-0.7,0-1s0-0.7,0-1c0-0.1,0-0.2,0-0.3s0-0.2,0-0.4s0-0.3,0-0.4s0-0.2,0.1-0.3c0.1-0.2,0.3-0.3,0.5-0.5s0.6-0.3,0.9-0.4
			s0.7-0.2,1-0.3S20.8,15,21,15c0.4,0,0.8,0.1,1.1,0.2s0.6,0.3,0.8,0.6s0.4,0.5,0.5,0.9S23.4,17.4,23.4,17.8z M21.2,18
			c0-0.2,0-0.4-0.1-0.5s-0.2-0.2-0.5-0.2c-0.2,0-0.3,0-0.5,0.1s-0.3,0.1-0.4,0.2c0,0.6,0,1.2,0,1.8c0.2-0.1,0.3-0.1,0.5-0.2
			s0.3-0.2,0.5-0.3s0.3-0.3,0.4-0.4S21.2,18.2,21.2,18z"/>
		<path fill="#F5F5F5" d="M29.1,21.9c0,0.3-0.1,0.5-0.3,0.8s-0.4,0.5-0.6,0.7s-0.5,0.4-0.8,0.5S26.8,24,26.6,24
			c-0.4,0-0.8-0.1-1.1-0.3s-0.6-0.5-0.8-0.8s-0.4-0.7-0.5-1.1S24,21.1,24,20.7c0-0.4,0.1-0.8,0.2-1.3s0.3-0.9,0.5-1.2
			s0.5-0.7,0.8-0.9s0.7-0.4,1.2-0.4c0.3,0,0.5,0,0.8,0.1s0.5,0.2,0.6,0.4s0.3,0.4,0.4,0.6s0.2,0.5,0.2,0.8c0,0.4-0.1,0.7-0.2,1
			s-0.4,0.6-0.6,0.8S27.3,21,27,21.2s-0.7,0.2-1,0.2c0,0.2,0.1,0.4,0.3,0.5s0.3,0.2,0.5,0.2c0.2,0,0.3,0,0.5-0.1s0.3-0.2,0.4-0.3
			s0.3-0.2,0.4-0.3s0.3-0.1,0.4-0.1c0.2,0,0.3,0.1,0.4,0.2S29.1,21.7,29.1,21.9z M27.2,19c0-0.1,0-0.2-0.1-0.3s-0.1-0.2-0.3-0.2
			c-0.2,0-0.3,0-0.4,0.1s-0.2,0.2-0.3,0.3s-0.1,0.3-0.2,0.4s-0.1,0.3-0.1,0.4c0.1,0,0.2-0.1,0.4-0.1s0.3-0.1,0.4-0.2
			s0.3-0.2,0.4-0.3S27.2,19.1,27.2,19z"/>
		<path fill="#F5F5F5" d="M34.2,19.5c0,0,0,0.1,0,0.1s0,0.1,0,0.1c-0.1,0.2-0.2,0.3-0.3,0.5s-0.3,0.2-0.5,0.2
			c-0.3,0-0.5-0.2-0.6-0.5c0,0,0-0.1,0-0.1s0-0.1,0-0.2v-0.3c0-0.1,0-0.2-0.1-0.3s-0.1-0.1-0.2-0.1c-0.1,0-0.3,0.1-0.4,0.3
			s-0.2,0.4-0.3,0.6s-0.2,0.5-0.2,0.7s-0.1,0.4-0.1,0.6c0,0.1,0,0.3,0,0.4s0,0.3,0.1,0.5s0.1,0.3,0.2,0.4s0.2,0.2,0.3,0.2
			s0.3,0,0.4-0.1s0.2-0.2,0.3-0.3c0.1-0.1,0.2-0.2,0.3-0.3s0.3-0.2,0.4-0.2c0.2,0,0.3,0.1,0.5,0.2s0.2,0.3,0.2,0.5
			c0,0.3-0.1,0.5-0.2,0.7s-0.3,0.4-0.5,0.6s-0.4,0.3-0.7,0.4s-0.5,0.1-0.7,0.1c-0.4,0-0.8-0.1-1.1-0.3s-0.5-0.5-0.7-0.8
			s-0.3-0.7-0.4-1.1s-0.1-0.7-0.1-1.1c0-0.4,0.1-0.8,0.2-1.3s0.3-0.9,0.5-1.3s0.5-0.7,0.9-1S32,17,32.5,17c0.3,0,0.6,0.1,0.8,0.2
			s0.4,0.3,0.6,0.5s0.3,0.5,0.3,0.7s0.1,0.5,0.1,0.8c0,0,0,0.1,0,0.1S34.3,19.4,34.2,19.5z"/>
		<path fill="#F5F5F5" d="M40.4,20.6c0,0.4,0,0.9-0.1,1.3S40,22.7,39.8,23s-0.5,0.6-0.8,0.8s-0.8,0.3-1.3,0.3
			c-0.5,0-0.9-0.1-1.3-0.3s-0.6-0.5-0.8-0.8s-0.3-0.7-0.4-1.1s-0.1-0.8-0.1-1.3c0-0.5,0.1-0.9,0.2-1.4c0-0.1,0.1-0.3,0.1-0.5
			s0.2-0.4,0.3-0.7s0.2-0.4,0.4-0.6s0.3-0.2,0.5-0.2c0.2,0,0.3,0,0.4,0.1s0.2,0.2,0.2,0.3s0.1,0.3,0.1,0.4s0,0.3,0,0.4
			c0,0.2,0,0.4,0,0.5s-0.1,0.3-0.1,0.5c0,0.2-0.1,0.5-0.1,0.7s0,0.5,0,0.7c0,0.1,0,0.2,0,0.4s0,0.3,0.1,0.4s0.1,0.2,0.2,0.3
			s0.2,0.1,0.4,0.1c0.2,0,0.4-0.1,0.5-0.2s0.2-0.2,0.3-0.4s0.1-0.3,0.1-0.5s0-0.4,0-0.5c0-0.3,0-0.7-0.1-1s-0.1-0.7-0.1-1
			c0,0,0-0.1,0-0.2c0-0.1,0-0.2,0.1-0.4s0.1-0.2,0.2-0.3s0.2-0.2,0.3-0.2s0.2-0.1,0.3-0.1c0.2,0,0.3,0.1,0.5,0.2s0.2,0.3,0.3,0.5
			s0.2,0.4,0.2,0.6s0.1,0.5,0.1,0.7s0.1,0.4,0.1,0.7S40.4,20.5,40.4,20.6z"/>
		<path fill="#F5F5F5" d="M46.4,21.9c0,0.3-0.1,0.5-0.3,0.8s-0.4,0.5-0.6,0.7s-0.5,0.4-0.8,0.5S44.1,24,43.9,24
			c-0.4,0-0.8-0.1-1.1-0.3s-0.6-0.5-0.8-0.8s-0.4-0.7-0.5-1.1s-0.2-0.8-0.2-1.1c0-0.4,0.1-0.8,0.2-1.3s0.3-0.9,0.5-1.2
			s0.5-0.7,0.8-0.9s0.7-0.4,1.2-0.4c0.3,0,0.5,0,0.8,0.1s0.5,0.2,0.6,0.4s0.3,0.4,0.4,0.6s0.2,0.5,0.2,0.8c0,0.4-0.1,0.7-0.2,1
			s-0.4,0.6-0.6,0.8s-0.6,0.4-0.9,0.6s-0.7,0.2-1,0.2c0,0.2,0.1,0.4,0.3,0.5s0.3,0.2,0.5,0.2c0.2,0,0.3,0,0.5-0.1s0.3-0.2,0.4-0.3
			s0.3-0.2,0.4-0.3s0.3-0.1,0.4-0.1c0.2,0,0.3,0.1,0.4,0.2S46.4,21.7,46.4,21.9z M44.5,19c0-0.1,0-0.2-0.1-0.3s-0.1-0.2-0.3-0.2
			c-0.2,0-0.3,0-0.4,0.1s-0.2,0.2-0.3,0.3s-0.1,0.3-0.2,0.4s-0.1,0.3-0.1,0.4c0.1,0,0.2-0.1,0.4-0.1s0.3-0.1,0.4-0.2
			s0.3-0.2,0.4-0.3S44.5,19.1,44.5,19z"/>
		<path fill="#F5F5F5" d="M51.3,19.6c-0.1,0-0.2,0-0.3,0s-0.2-0.1-0.2-0.1c-0.1,0-0.1-0.1-0.2-0.1s-0.1,0-0.2,0
			c-0.2,0-0.3,0.1-0.4,0.1s-0.2,0.2-0.3,0.3s-0.2,0.2-0.3,0.4s-0.1,0.3-0.2,0.4c0,0.1,0,0.2-0.1,0.4s0,0.4,0,0.6c0,0.2,0,0.4,0,0.6
			s0,0.4,0,0.5c0,0.1,0,0.3-0.1,0.4s-0.1,0.3-0.1,0.5s-0.2,0.3-0.3,0.4s-0.2,0.2-0.4,0.2c-0.1,0-0.2,0-0.3-0.1s-0.2-0.2-0.2-0.3
			s-0.1-0.3-0.2-0.5s-0.1-0.3-0.1-0.5c0-0.2,0-0.4-0.1-0.6s0-0.4,0-0.5s0-0.3,0-0.5s0-0.3,0-0.3c0-0.3,0-0.5,0-0.8s0-0.6,0-0.8
			c0-0.2,0-0.4,0-0.6s0.1-0.4,0.1-0.6s0.2-0.3,0.3-0.5s0.3-0.2,0.6-0.2c0.1,0,0.2,0,0.3,0.1s0.2,0.2,0.2,0.3s0.1,0.3,0.1,0.4
			s0.1,0.3,0.1,0.4c0.2-0.3,0.4-0.6,0.6-0.7s0.5-0.3,0.9-0.3c0.2,0,0.4,0,0.6,0.1s0.4,0.1,0.5,0.2s0.3,0.2,0.4,0.4s0.2,0.3,0.2,0.6
			c0,0.2-0.1,0.4-0.2,0.6S51.5,19.6,51.3,19.6z"/>
		<path fill="#F5F5F5" d="M57.7,16.2c0,0.6,0,1.1-0.1,1.7s-0.1,1.1-0.1,1.7c0,0.5,0,0.9,0,1.4s0,0.9,0,1.4c0,0.1,0,0.3,0,0.5
			s0,0.3-0.1,0.5s-0.1,0.3-0.2,0.4s-0.2,0.2-0.4,0.2c-0.2,0-0.4-0.1-0.6-0.3s-0.2-0.4-0.3-0.6c-0.1,0.3-0.4,0.5-0.6,0.7
			s-0.6,0.3-0.9,0.3c-0.4,0-0.7-0.1-0.9-0.4s-0.5-0.5-0.6-0.9s-0.3-0.7-0.4-1.1s-0.1-0.7-0.1-1c0-0.2,0-0.4,0-0.7s0.1-0.5,0.1-0.8
			s0.1-0.5,0.2-0.8s0.2-0.5,0.4-0.7s0.3-0.4,0.5-0.5s0.4-0.2,0.7-0.2c0.3,0,0.6,0.1,0.8,0.2s0.5,0.4,0.6,0.6l0.1-1.9
			c0-0.1,0-0.3,0-0.5s0-0.4,0.1-0.6s0.1-0.3,0.2-0.5s0.3-0.2,0.5-0.2c0.2,0,0.4,0.1,0.5,0.2s0.2,0.2,0.3,0.4s0.1,0.3,0.1,0.5
			S57.7,16.1,57.7,16.2z M55.8,21.4c0-0.2,0-0.4,0-0.5s0-0.3,0-0.5c0-0.1-0.1-0.2-0.2-0.3s-0.1-0.2-0.2-0.3s-0.2-0.2-0.3-0.3
			s-0.2-0.1-0.4-0.1c-0.1,0-0.3,0-0.3,0.1s-0.1,0.2-0.2,0.3s-0.1,0.3-0.1,0.4s0,0.3,0,0.4c0,0.1,0,0.2,0,0.4s0,0.4,0.1,0.6
			s0.1,0.4,0.2,0.5s0.2,0.2,0.3,0.2c0.1,0,0.2,0,0.3-0.1s0.2-0.1,0.3-0.2s0.2-0.1,0.3-0.2S55.7,21.6,55.8,21.4L55.8,21.4z"/>
		<path fill="#F5F5F5" d="M61,24.3c-0.4,0-0.7-0.1-1-0.3s-0.5-0.5-0.8-0.8s-0.4-0.7-0.5-1.1s-0.2-0.8-0.2-1.2c0-0.4,0.1-0.8,0.2-1.3
			s0.3-0.8,0.5-1.2s0.5-0.7,0.8-0.9s0.7-0.3,1.2-0.3c0.4,0,0.8,0.1,1.1,0.4s0.6,0.5,0.7,0.9s0.3,0.7,0.4,1.2s0.1,0.8,0.1,1.2
			c0,0.4-0.1,0.8-0.2,1.3s-0.3,0.8-0.5,1.1s-0.5,0.6-0.8,0.8S61.5,24.3,61,24.3z M61.2,19c-0.1,0-0.2,0.1-0.3,0.2s-0.2,0.3-0.2,0.5
			s-0.1,0.4-0.1,0.6s0,0.4,0,0.5c0,0.2,0,0.4,0.1,0.6s0.1,0.4,0.1,0.6s0.1,0.3,0.2,0.5s0.2,0.2,0.3,0.2c0.1,0,0.2-0.1,0.3-0.2
			s0.2-0.3,0.2-0.4s0.1-0.4,0.1-0.6s0-0.4,0-0.6c0-0.2,0-0.4,0-0.6s-0.1-0.4-0.1-0.6s-0.1-0.3-0.2-0.4S61.3,19,61.2,19z"/>
		<path fill="#F5F5F5" d="M68,17.5c0,0.2-0.1,0.4-0.2,0.5s-0.3,0.2-0.5,0.3s-0.4,0.2-0.5,0.3s-0.2,0.3-0.2,0.6c0,0.1,0,0.3,0.1,0.4
			s0.1,0.2,0.2,0.3s0.2,0.2,0.3,0.3s0.2,0.2,0.3,0.3s0.2,0.2,0.2,0.4s0.1,0.3,0.1,0.6c0,0.3-0.1,0.7-0.3,1s-0.4,0.6-0.6,0.8
			s-0.6,0.4-0.9,0.6s-0.7,0.2-1,0.2c-0.1,0-0.3,0-0.4,0s-0.3-0.1-0.4-0.1s-0.2-0.1-0.3-0.2S64,23.5,64,23.3c0-0.2,0-0.4,0.1-0.5
			s0.2-0.2,0.3-0.3s0.3-0.1,0.4-0.2s0.3-0.1,0.4-0.1s0.2-0.1,0.3-0.2s0.1-0.2,0.1-0.4c0-0.2-0.1-0.3-0.2-0.5s-0.3-0.4-0.4-0.6
			s-0.3-0.4-0.4-0.6s-0.2-0.5-0.2-0.8c0-0.3,0.1-0.6,0.2-0.9s0.3-0.5,0.6-0.7s0.5-0.4,0.8-0.5s0.6-0.2,0.9-0.2c0.1,0,0.2,0,0.4,0
			s0.2,0.1,0.3,0.1s0.2,0.1,0.2,0.2S68,17.4,68,17.5z"/>
	</g>
</g>
<rect y="6" fill="#3E3E3D" width="1" height="24"/>
<rect x="85" y="6" fill="#3E3E3D" width="1" height="24"/>
<g>
	<g>
		<rect x="17.6" y="25.5" fill="#F5F5F5" width="5.4" height="1.5"/>
	</g>
</g>
</svg>
