<?xml version="1.0" encoding="utf-8"?>
<!-- Generator: Adobe Illustrator 18.1.0, SVG Export Plug-In . SVG Version: 6.00 Build 0)  -->
<svg version="1.0" id="Capa_1_copia" xmlns="http://www.w3.org/2000/svg" xmlns:xlink="http://www.w3.org/1999/xlink" x="0px"
	 y="0px" viewBox="0 0 85.1 90.9" enable-background="new 0 0 85.1 90.9" xml:space="preserve">
<rect x="-765.1" fill="#575756" width="1280" height="35"/>
<g>
	<rect x="-85" y="34.9" fill="#CD1626" width="85" height="56"/>
</g>
<rect x="-0.1" y="6" fill="#3E3E3D" width="1" height="24"/>
<rect x="84.9" y="6" fill="#3E3E3D" width="1" height="24"/>
<g>
	<rect x="0.1" y="34.9" fill="#BDBDBD" width="85" height="56"/>
	<g>
		<g>
			<path fill="#ECE4B3" d="M66.8,65.3c-7.9-4.7-8.2-16.8-12.1-24.6c0,0,0,0,0,0c0-0.2-0.1-0.4-0.3-0.4c-1.4,0.5-2.8,0.8-4.2,1.1
				c0,0,0,0,0,0c0,0-0.1,0-0.1,0c-1.5,0.4-4.1,1.6-5.6,1.9c-1.4,0.4-2.7,0.6-4,1.3c-1.2,0.6-4.5,0.8-6.1,1c-1.2,0.1-2.3,0.4-3.2,1.2
				c-0.2,0.2,0.1,0.3,0.3,0.3c2.6,5.9,4.1,12.1,6.2,18.2c1.3,3.8,3.1,7.9,6.6,9.8c0,0,0.1,0,0.1,0c0.1,0,0.1,0,0.2,0
				c3.3,0.2,6.4-1.4,9.2-2.9c4.4-2.3,8.7-4.7,13.1-6.8c0.1,0,0.1-0.1,0.1-0.1C67.1,65.5,67,65.2,66.8,65.3z"/>
			<g>
				<path fill="#1D1D1B" d="M31.2,47.2c2.6,5.9,4.4,12.2,6.5,18.3c1.3,3.8,3.1,7.9,6.6,9.8c0.5,0.3,0.8-0.5,0.3-0.8
					c-4.3-2.4-5.8-8-7.3-12.5c-1.7-5-2.9-10.5-5.9-14.9C31.3,47,31.1,47.1,31.2,47.2L31.2,47.2z"/>
			</g>
			<g>
				<path fill="#1D1D1B" d="M44.6,75.4c3.3,0.2,6.4-1.4,9.2-2.9c4.4-2.3,8.7-4.7,13.2-6.8c0.2-0.1,0.1-0.5-0.1-0.4
					c-7.9,1.6-14.1,8.5-22.3,9.2C43.9,74.5,44,75.4,44.6,75.4L44.6,75.4z"/>
			</g>
			<g>
				<path fill="#1D1D1B" d="M67,65.4c-8.1-4.7-8.3-16.9-12.2-24.7c-0.1-0.3-0.6-0.1-0.4,0.2c3.2,7.6,4.5,20.9,12.5,24.8
					C67,65.8,67.2,65.5,67,65.4L67,65.4z"/>
			</g>
			<g>
				<path fill="#1D1D1B" d="M31.3,47.5c1.4-0.8,3-1.1,4.5-1.3c1.2-0.1,2.8-0.5,4.8-1.2c0.4-0.1,0.9-0.8,0.6-0.7
					c-2,0.8-5.2,1.2-6.8,1.4c-1.2,0.1-2.4,0.5-3.3,1.3C31.1,47,31.2,47.3,31.3,47.5L31.3,47.5z"/>
			</g>
			<g>
				<path fill="#1D1D1B" d="M40.6,45.1c2.7-1.3,5.6-1.4,8.3-2.8c0.2-0.1,0-0.5-0.2-0.4c-1.5,0.4-2.8,1.2-4.3,1.6
					c-1.4,0.4-2.7,0.6-4,1.3C40.3,44.8,40.5,45.1,40.6,45.1L40.6,45.1z"/>
			</g>
			<g>
				<path fill="#1D1D1B" d="M50.8,41.9c1.5-0.1,2.4-0.6,3.7-1.1c0.3-0.1,0.1-0.7-0.2-0.6c-1.4,0.5-4.3,1.1-5.9,1.6
					c-0.2,0.1-0.3,0.6-0.1,0.6C48.4,42.5,49.6,42,50.8,41.9z"/>
			</g>
			<g>
				<path fill="#1D1D1B" d="M38.1,51.7c1.9-1.1,3.8-1.4,5.9-1.8c2.6-0.5,5.2-1.6,7.6-2.8c0.1-0.1,0.1-0.3-0.1-0.3
					c-2.9,0.7-5.5,2.1-8.4,2.7C41.3,49.9,39.1,50.1,38.1,51.7C38,51.7,38,51.8,38.1,51.7L38.1,51.7z"/>
			</g>
			<g>
				<path fill="#1D1D1B" d="M39.5,56.8c4.5-1.3,9.4-2.5,13.7-4.5c0.1-0.1,0.1-0.3-0.1-0.2c-4.6,1.1-9.3,2.8-13.6,4.6
					C39.4,56.7,39.4,56.8,39.5,56.8L39.5,56.8z"/>
			</g>
			<g>
				<path fill="#1D1D1B" d="M40.9,61.4c4.8-1.4,9.7-2.5,14.3-4.4c0.3-0.1,0.1-0.5-0.2-0.5c-4.7,1.6-9.7,2.5-14.2,4.6
					C40.7,61.2,40.8,61.5,40.9,61.4L40.9,61.4z"/>
			</g>
			<path fill="#D9D9D9" d="M36,59.7c0,0,8.9,13.4,21.9,9.6c0,0-6.4,4.7-13.3,6.1c0,0-4.2-2-7.3-11.2S37.6,62.1,36,59.7z"/>
		</g>
		<g>
			<path fill="#EFE7BC" d="M49.7,55.7c-0.1-0.1-0.2-0.1-0.3-0.2c-0.2-0.1-0.3,0-0.5,0c-0.2-0.1-0.4,0-0.5,0.1
				c-0.1-0.1-0.1-0.2-0.3-0.2c-0.7-0.2-1.4-0.2-2.1-0.4c-0.1,0-0.2,0-0.3,0c0,0,0,0-0.1,0c-0.1-0.1-0.2-0.1-0.3-0.1c0,0,0-0.1,0-0.1
				c0-0.1,0-0.3-0.1-0.4c0,0,0,0,0,0c0-0.3,0-0.5,0-0.8c0-0.2-0.1-0.4-0.3-0.5c0-0.1-0.1-0.2-0.2-0.3c0-0.5,0.1-0.9,0.1-1.4
				c0-0.1,0-0.1,0-0.2c0-0.1,0-0.2,0-0.3c-0.1-0.4-0.5-0.5-0.8-0.3c0,0-0.1,0-0.1-0.1c-0.1-0.1-0.3-0.1-0.4,0c-1-0.8-2.3-0.9-3.5-1
				c0,0,0,0-0.1,0c-0.6-0.1-1.1-0.1-1.6-0.2c-0.1,0-0.2,0-0.3,0c-0.7-0.4-1.5-0.3-2.3-0.3c-0.2,0-0.4,0.2-0.4,0.3
				c-0.1-0.3-0.3-0.5-0.7-0.5c-0.5-0.1-1-0.2-1.5-0.2c-0.3,0-0.6,0-0.7,0.1c-0.1,0-0.1,0-0.2,0c-0.3,0-0.6,0.1-0.8,0.2
				c-1.2-0.4-2.4-0.7-3.7-0.5c-0.1,0-0.1,0-0.1,0.1c-0.3-0.2-0.8-0.1-0.8,0.3c0.1,1.1-0.1,2.3,0,3.4c-0.1,0.1-0.2,0.3-0.2,0.4
				c-0.1,1.2-0.2,2.4,0.1,3.6c0,0,0,0,0,0c-0.1,0.6-0.1,1.3-0.3,2c0,0.3,0,0.5,0.1,0.6c-0.1,0.5-0.2,1-0.3,1.5
				c-0.1,0.4-0.2,0.9-0.3,1.3c-0.5,1.3-0.8,2.7-0.4,4.1c0,0,0,0.1,0.1,0.1c0,0.2,0,0.4,0,0.6c0,0.3,0.1,0.5,0.2,0.6
				c-0.4,0.8-0.5,1.7-0.6,2.6c0,0.3,0.1,0.5,0.2,0.6c-0.1,0.5-0.1,1-0.1,1.5c0,0,0,0.1,0,0.1c0,0.1,0,0.2,0,0.3l0,0c0,0,0,0,0,0
				c-0.1,0.6-0.2,1.2-0.2,1.8c0,0.2-0.1,0.4-0.1,0.6c0,0.2,0,0.3,0,0.5c-0.1,0.1-0.1,0.2-0.2,0.4c-0.3,1.4-0.3,3.1,1.4,3.3
				c1.4,0.2,2.9,0.2,4.4,0.1c0.2,0,0.5,0.1,0.7,0.1c0.1,0.1,0.3,0.1,0.4,0.1c2.9,0.2,6.2,0.9,9.1,0.2c0.3,0.1,0.6,0.2,1,0.2
				c1.6,0.5,3.4,0.5,5,0.2c0.6,0.2,1.5-0.2,1.6-1c0.5-3.6,0.6-7.2,0.3-10.7c0.1-0.1,0.1-0.2,0.1-0.3c0.2-2,0.3-4,0.2-6.1
				c0-0.1,0-0.2-0.1-0.3c0-0.2-0.1-0.4-0.1-0.5c0,0,0,0,0,0c0.1-0.5,0.2-0.9,0.2-1.4c0-0.1,0.1-0.2,0.1-0.3c0.1-0.4,0.1-0.7,0.1-1.1
				c0-0.1,0-0.1,0-0.2c0,0,0,0,0-0.1c0-0.1,0-0.1,0-0.2c0-0.1,0-0.1,0-0.2c0,0,0,0,0,0c0-0.1,0.1-0.2,0.1-0.3
				c0.1-0.1,0.1-0.1,0.1-0.2c0,0,0,0,0,0C50.1,56.6,50.1,56,49.7,55.7z"/>
			<path fill="#EFBD7D" d="M49,54.5c-0.5-0.4-0.9-0.8-1.4-1.4c-0.4-0.5-0.8-1-1.2-1.5c-0.1-0.1-0.1-0.1-0.2-0.1
				c-0.1-0.4-0.2-0.8-0.5-1.1c-0.2-0.3-0.6,0-0.6,0.3c0.1,0.4,0.1,0.9,0.1,1.3c0,0-0.1,0.1-0.1,0.2c0,0.2,0,0.3,0.1,0.5
				c-0.1,0.1-0.1,0.2-0.1,0.3c0.1,0.5,0.1,1,0.1,1.6c0,0.2,0.3,0.3,0.4,0.3c0.5-0.1,0.8,0.1,1.3,0.3c0.3,0.1,0.6-0.1,0.6-0.3
				c0,0,0,0,0,0c0.2,0.2,0.4,0.4,0.6,0.6C48.9,56.1,49.7,55.1,49,54.5z"/>
			<g>
				<path fill="#1D1E1C" d="M26.4,48.7c-0.1,9.9-1.8,19.6-2.1,29.5c0,0.2,0.4,0.3,0.4,0c0.7-9.8,2.6-19.6,2.1-29.5
					C26.8,48.5,26.4,48.5,26.4,48.7L26.4,48.7z"/>
			</g>
			<g>
				<path fill="#1D1E1C" d="M24.4,78.6c3.4,1.4,7.2,1.2,10.8,1.5c4.3,0.4,8.6,0.4,13,0.3c0.4,0,0.4-0.6,0-0.6
					c-3.9-0.2-7.7,0-11.6-0.3c-3.9-0.3-8.3,0-12.1-1.3C24.3,78.1,24.2,78.5,24.4,78.6L24.4,78.6z"/>
			</g>
			<g>
				<path fill="#1D1E1C" d="M26.6,48.7c6.1-0.1,12.4,0.9,18.3,2c0.4,0.1,0.6-0.5,0.2-0.6c-5.7-1.2-12.8-2.7-18.6-1.6
					C26.4,48.5,26.4,48.7,26.6,48.7L26.6,48.7z"/>
			</g>
			<g>
				<path fill="#1D1E1C" d="M45,50.3c-0.4,0.7-0.3,1.7-0.3,2.5c0,0.7,0,1.7,0.4,2.3c0.1,0.1,0.2,0,0.2,0c0.2-0.7-0.1-1.5-0.2-2.2
					c-0.1-0.8,0.1-1.6,0-2.5C45.2,50.2,45.1,50.2,45,50.3L45,50.3z"/>
			</g>
			<g>
				<path fill="#1D1E1C" d="M45.3,55c0.4,0.3,1.3,0.2,1.8,0.3c0.9,0.1,1.8,0.5,2.6,0.6c0.2,0,0.3-0.2,0.1-0.3
					c-0.6-0.5-1.5-0.6-2.3-0.7C47,54.8,45.8,54.5,45.3,55C45.2,55,45.2,55,45.3,55L45.3,55z"/>
			</g>
			<g>
				<path fill="#1D1E1C" d="M45.1,50.4c0.8,0.9,1.6,1.9,2.4,2.9c0.6,0.8,1.4,2.4,2.4,2.6c0.1,0,0.2-0.1,0.2-0.2
					c-0.1-0.5-0.4-0.7-0.7-1.1c-0.5-0.6-0.9-1.2-1.3-1.8c-0.7-1-1.7-2.1-2.8-2.5C45.1,50.1,45,50.3,45.1,50.4L45.1,50.4z"/>
			</g>
			<g>
				<path fill="#1D1E1C" d="M49.8,55.4c-1,3-0.6,6.9-0.9,10.1c-0.4,4.8-0.2,9.8-1,14.5c0,0.3,0.5,0.4,0.5,0.1
					c1.6-8,0.9-16.6,1.6-24.7C50.1,55.3,49.8,55.3,49.8,55.4L49.8,55.4z"/>
			</g>
			<g>
				<path fill="#1D1E1C" d="M31.8,54.8c0.8-0.3,1.9,0.3,2.7,0.4c0.9,0.2,1.8,0.1,2.6,0c1.5-0.1,1.5-0.4,3.3,0c1,0.3,1.9,0.5,2.9,0.5
					c0.3,0,0.4-0.2,0.1-0.3c-1.8-0.7-3.9-1.3-5.9-0.9c-1.8,0.4-3.2,0-4.9-0.3c-0.5-0.1-0.8,0.2-1.1,0.4
					C31.4,54.7,31.6,54.8,31.8,54.8L31.8,54.8z"/>
			</g>
			<g>
				<path fill="#1D1E1C" d="M30.2,62.8c0.1,0.3,0.6,0.5,1.1,0.5c0.8,0,1.5-0.1,2.3,0c0.6,0,1.6,0.3,2.1,0.1c1.4-0.4,2.2,0.1,3.7,0
					c1.9-0.2,4.5,0.1,6.6,0.2c0.4,0,0.4-0.3,0.1-0.4c-1.7-0.5-4.1-0.7-5.9-0.8c-0.3,0-0.5,0.1-0.7,0.2c-0.9,0.3-1.9,0.1-2.8-0.1
					c-0.1,0-0.3,0-0.4,0c-1.2,0.4-2.3,0.3-3.7,0.2c-0.6,0-1.7-0.1-2.3,0C30.3,62.7,30.2,62.8,30.2,62.8L30.2,62.8z"/>
			</g>
			<g>
				<path fill="#1D1E1C" d="M30.8,71.5c0.3-0.2,1.2,0.5,1.6,0.5c1.1,0,2.4,0.1,3.4,0.1c3-0.3,7.1,1,9.8,0.1c0.2-0.1,0.1-0.2-0.1-0.3
					c-1.9-0.2-3.7-0.3-5.6-0.5c-1.4-0.2-3.5,0.1-4.8-0.3c-1.2-0.4-2.5,0.4-3.6-0.2c-0.5-0.2-0.8,0.1-1,0.3
					C30.5,71.4,30.7,71.6,30.8,71.5L30.8,71.5z"/>
			</g>
		</g>
		<g>
			<path fill="#FCE68D" d="M56.7,56.3c-0.1,0-0.2-0.1-0.4-0.1c-0.2,0-0.4,0-0.5,0.1c-0.2,0-0.4,0-0.5,0.2c-0.1-0.1-0.2-0.1-0.3-0.1
				c-0.7,0-1.4,0.1-2.2,0c-0.1,0-0.2,0-0.3,0.1c0,0,0,0-0.1,0c-0.1,0-0.2,0-0.3,0c0,0,0-0.1-0.1-0.1c0-0.1-0.1-0.3-0.2-0.4
				c0,0,0,0,0,0c0-0.3-0.1-0.5-0.2-0.8c-0.1-0.2-0.2-0.4-0.4-0.4c-0.1-0.1-0.1-0.2-0.2-0.2c-0.1-0.4-0.1-0.9-0.2-1.4
				c0-0.1,0-0.1,0-0.2c0-0.1,0-0.2-0.1-0.3c-0.1-0.3-0.6-0.4-0.9-0.2c0,0-0.1,0-0.1,0c-0.1-0.1-0.3,0-0.4,0
				c-1.1-0.5-2.4-0.4-3.6-0.2c0,0,0,0-0.1,0c-0.6,0-1.1,0.1-1.6,0.2c-0.1,0-0.2,0.1-0.3,0.1c-0.7-0.2-1.6,0-2.3,0.2
				c-0.2,0.1-0.3,0.2-0.3,0.4c-0.2-0.2-0.4-0.4-0.8-0.4c-0.5,0-1,0-1.5,0.1c-0.3,0-0.5,0.1-0.7,0.3c-0.1,0-0.1,0-0.2,0
				c-0.3,0-0.6,0.2-0.7,0.4c-1.3-0.2-2.5-0.2-3.7,0.3c-0.1,0-0.1,0.1-0.1,0.1c-0.3-0.1-0.8,0-0.7,0.5c0.3,1.1,0.4,2.3,0.8,3.3
				c-0.1,0.1-0.1,0.3-0.1,0.5c0.1,1.2,0.3,2.4,0.8,3.5c0,0,0,0,0,0c0,0.6,0.1,1.3,0.2,2c0,0.3,0.1,0.5,0.3,0.6c0,0.5,0,1,0,1.6
				c0,0.4,0,0.9,0,1.3c-0.2,1.4-0.2,2.8,0.5,4.1c0,0,0.1,0.1,0.1,0.1c0,0.2,0.1,0.4,0.1,0.6c0,0.2,0.2,0.4,0.4,0.6
				c-0.2,0.9-0.2,1.8,0,2.7c0,0.3,0.2,0.4,0.3,0.6c0,0.5,0.1,1,0.2,1.5c0,0,0,0.1,0,0.1c0,0.1,0,0.2,0,0.3l0,0c0,0,0,0,0,0
				c0,0.6,0.1,1.2,0.2,1.8c0,0.2,0,0.4,0,0.7c0,0.2,0,0.3,0.1,0.5c-0.1,0.1-0.1,0.2-0.1,0.4c0,1.4,0.3,3.1,2.1,3
				c1.5-0.1,2.9-0.4,4.4-0.8c0.2,0,0.5,0,0.7-0.1c0.1,0,0.3,0.1,0.4,0c2.9-0.4,6.2-0.5,9-1.7c0.3,0.1,0.7,0.1,1,0
				c1.6,0.2,3.4-0.2,4.9-0.9c0.7,0,1.4-0.5,1.4-1.4c-0.3-3.6-0.9-7.1-1.9-10.6c0-0.1,0.1-0.2,0.1-0.4c-0.2-2-0.5-4-1-6
				c0-0.1-0.1-0.2-0.2-0.3c-0.1-0.2-0.1-0.3-0.2-0.5c0,0,0,0,0,0c0-0.5,0-0.9-0.1-1.4c0-0.1,0-0.2,0-0.3c0-0.4-0.1-0.7-0.1-1.1
				c0-0.1,0-0.1,0-0.2c0,0,0,0,0-0.1c0-0.1,0-0.1,0-0.2c0-0.1,0-0.1-0.1-0.2c0,0,0,0,0,0c0-0.1,0-0.2,0-0.3c0-0.1,0.1-0.2,0.1-0.3
				c0,0,0,0,0-0.1C57.3,57.2,57.3,56.5,56.7,56.3z M44.7,75.9c-0.1,0.5-0.1,1,0,1.6c-0.1,0.1-0.1,0.2-0.2,0.4c0,0-0.1,0-0.1,0
				c-1.3,0.3-2.6,0.2-4,0.3c-0.1,0-0.3,0-0.4,0c-0.1,0-0.2,0-0.3,0.1c-0.1-0.1-0.1-0.3-0.2-0.4c-0.2-0.2-0.4-0.3-0.6-0.3
				c0-0.5-0.1-1-0.1-1.4c0,0,0,0,0-0.1c0-0.3,0-0.6,0-0.9c0.2-0.1,0.4-0.4,0.3-0.7c0-0.4-0.1-0.7-0.2-1.1c0-0.1,0-0.1-0.1-0.2
				c1.8,0.2,3.5-0.3,5.2-0.6c0.1,0,0.2,0,0.4-0.1C44.3,73.7,44.2,74.9,44.7,75.9z"/>
			<path fill="#BDBDBD" d="M55.9,55.4c-0.6-0.3-1.1-0.6-1.6-1.1c-0.5-0.4-1-0.9-1.5-1.2c-0.1,0-0.2-0.1-0.2-0.1
				c-0.2-0.4-0.4-0.7-0.8-0.9c-0.3-0.2-0.6,0.1-0.5,0.4c0.2,0.4,0.3,0.8,0.4,1.3c0,0.1,0,0.1,0,0.2c0,0.2,0.1,0.3,0.2,0.5
				c-0.1,0.1-0.1,0.2,0,0.3c0.2,0.5,0.3,1,0.5,1.5c0.1,0.2,0.3,0.3,0.5,0.2c0.5-0.2,0.8-0.1,1.3,0c0.3,0.1,0.5-0.2,0.5-0.4
				c0,0,0,0,0,0c0.2,0.1,0.4,0.3,0.7,0.4C56.1,57,56.7,55.8,55.9,55.4z"/>
			<g>
				<path fill="#1D1E1C" d="M32.6,54.5c2,9.7,2.4,19.6,4.2,29.3c0,0.2,0.4,0.2,0.4-0.1c-1.4-9.7-1.6-19.8-4.2-29.3
					C32.9,54.2,32.5,54.2,32.6,54.5L32.6,54.5z"/>
			</g>
			<g>
				<path fill="#1D1E1C" d="M36.9,84.1c3.6,0.7,7.3-0.3,10.9-0.8c4.3-0.6,8.5-1.4,12.7-2.4c0.4-0.1,0.3-0.7-0.1-0.6
					c-3.8,0.6-7.6,1.6-11.4,2.2c-3.9,0.6-8.1,1.8-12.1,1.3C36.7,83.7,36.7,84,36.9,84.1L36.9,84.1z"/>
			</g>
			<g>
				<path fill="#1D1E1C" d="M32.7,54.4c5.9-1.4,12.3-1.8,18.3-2c0.4,0,0.5-0.6,0.1-0.6c-5.8,0-13.1,0.1-18.5,2.4
					C32.5,54.3,32.6,54.5,32.7,54.4L32.7,54.4z"/>
			</g>
			<g>
				<path fill="#1D1E1C" d="M51.1,52c-0.3,0.8,0.1,1.7,0.3,2.5c0.2,0.7,0.4,1.7,0.9,2.1c0.1,0.1,0.2,0,0.2-0.1
					c0-0.7-0.4-1.5-0.6-2.1c-0.2-0.8-0.3-1.6-0.5-2.4C51.3,52,51.1,51.9,51.1,52L51.1,52z"/>
			</g>
			<g>
				<path fill="#1D1E1C" d="M52.3,56.6c0.5,0.2,1.3,0,1.8-0.1c0.9-0.1,1.8,0.1,2.7,0c0.2,0,0.2-0.3,0.1-0.3
					c-0.7-0.4-1.6-0.3-2.4-0.2C54,56.1,52.7,56,52.3,56.6C52.2,56.6,52.3,56.6,52.3,56.6L52.3,56.6z"/>
			</g>
			<g>
				<path fill="#1D1E1C" d="M51.2,52.1c1,0.7,2,1.5,2.9,2.3c0.7,0.6,1.9,2,2.9,2c0.1,0,0.2-0.1,0.2-0.2c-0.2-0.5-0.6-0.6-0.9-0.9
					c-0.6-0.5-1.1-1-1.7-1.5c-0.9-0.8-2.1-1.7-3.3-1.9C51.1,51.9,51.1,52,51.2,52.1L51.2,52.1z"/>
			</g>
			<g>
				<path fill="#1D1E1C" d="M56.8,56.1c-0.3,3.2,0.9,6.9,1.3,10.1c0.6,4.8,1.8,9.6,2.1,14.4c0,0.3,0.5,0.3,0.5,0
					c-0.2-8.2-2.7-16.4-3.6-24.5C57.1,55.9,56.8,55.9,56.8,56.1L56.8,56.1z"/>
			</g>
			<g>
				<path fill="#1D1E1C" d="M44.8,58.4c0.4-0.4,1.1,0,1.6,0c0.5,0,1-0.2,1.5-0.3c0.8-0.3,0.8-0.6,1.9-0.4c0.6,0.1,1.2,0.2,1.8,0
					c0.1,0,0.2-0.2,0-0.3c-1.2-0.5-2.5-0.7-3.6,0c-1,0.6-1.8,0.4-2.9,0.4c-0.3,0-0.5,0.3-0.6,0.5C44.5,58.4,44.7,58.5,44.8,58.4
					L44.8,58.4z"/>
			</g>
			<g>
				<path fill="#FEF27B" d="M44.2,75.5c0.1-0.8,0.1-1.6-0.2-2.3c0-0.1-0.1-0.2-0.2-0.2c-0.2-0.2-0.4-0.2-0.6-0.2
					c-0.1,0-0.2,0-0.3,0.1c-0.1,0-0.3,0-0.4,0.1c-0.2,0-0.5,0-0.7,0c-0.1,0-0.3,0.1-0.3,0.2c-0.1,0-0.1,0-0.2,0c0,0,0,0-0.1,0
					c-0.2,0-0.3,0-0.5,0c-0.3-0.1-0.6,0-0.8,0.2c-0.2-0.1-0.4-0.1-0.5-0.1c-0.3-0.1-0.6,0-0.6,0.4c0,0,0,0,0,0.1c0,0.1,0,0.2,0,0.3
					c-0.1,0.1-0.1,0.3,0,0.4c0.1,0.3,0.1,0.5,0.2,0.7c0,0,0,0,0,0c0,0.3,0.1,0.5,0.1,0.8l0,0c-0.1,0.2,0,0.4,0,0.6c0,0,0,0.1,0,0.1
					c0,0.6,0.2,1.2,0.9,1.3c0.4,0,0.8-0.2,1.1-0.3c0.2-0.1,0.4-0.1,0.6-0.2c0.1,0.1,0.2,0.2,0.4,0.2c0.5,0,1-0.1,1.3-0.3
					c0.1,0,0.3,0,0.5,0c0,0,0.1,0,0.1-0.1c0.3-0.1,0.4-0.4,0.4-0.7c0-0.2,0-0.3,0-0.5l0,0c0-0.1,0-0.2,0-0.3
					C44.5,75.8,44.4,75.6,44.2,75.5z"/>
				<g>
					<path fill="#1D1E1C" d="M38.6,73.4c0,1.4,0.3,2.9,0.4,4.3c0.1,1.1,1.5,0.6,2.2,0.5c1-0.2,2-0.1,3-0.4c0.3-0.1,0.6-0.2,0.7-0.4
						c0.2-0.4,0-1.1,0-1.5c-0.1-1-0.4-2-0.4-3.1c0-0.2-0.1-0.3-0.3-0.3c-1.7,0.1-4-0.1-5.5,0.8c-0.2,0.1-0.1,0.4,0.1,0.4
						c1.8-0.3,3.6-0.5,5.5-0.6c-0.1-0.1-0.2-0.2-0.3-0.3c-0.1,1.1,0.2,2.1,0.4,3.2c0.1,0.4,0.3,1.2-0.2,1.4
						c-0.7,0.2-1.5,0.1-2.2,0.2c-0.7,0.1-1.4,0.4-2.1,0.4c-0.5,0-0.4-0.7-0.4-1.1c-0.1-1.1-0.5-2.2-0.5-3.4
						C38.8,73.3,38.6,73.2,38.6,73.4L38.6,73.4z"/>
				</g>
			</g>
			<g>
				<path fill="#FEF27B" d="M43.2,66.8c0.1-0.8,0.1-1.6-0.2-2.3c0-0.1-0.1-0.2-0.2-0.2c-0.2-0.2-0.4-0.2-0.6-0.2
					c-0.1,0-0.2,0-0.3,0.1c-0.1,0-0.3,0-0.4,0.1c-0.2,0-0.5,0-0.7,0c-0.1,0-0.3,0.1-0.3,0.2c-0.1,0-0.1,0-0.2,0c0,0,0,0-0.1,0
					c-0.2,0-0.3,0-0.5,0c-0.3-0.1-0.6,0-0.8,0.2c-0.2-0.1-0.4-0.1-0.5-0.1c-0.3-0.1-0.6,0-0.6,0.4c0,0,0,0,0,0.1c0,0.1,0,0.2,0,0.3
					c-0.1,0.1-0.1,0.3,0,0.4c0.1,0.3,0.1,0.5,0.2,0.7c0,0,0,0,0,0c0,0.3,0.1,0.5,0.1,0.8l0,0c-0.1,0.2,0,0.4,0,0.6c0,0,0,0.1,0,0.1
					c0,0.6,0.2,1.2,0.9,1.3c0.4,0,0.8-0.2,1.1-0.3c0.2-0.1,0.4-0.1,0.6-0.2c0.1,0.1,0.2,0.2,0.4,0.2c0.5,0,1-0.1,1.3-0.3
					c0.1,0,0.3,0,0.5,0c0,0,0.1,0,0.1-0.1c0.3-0.1,0.4-0.4,0.4-0.7c0-0.2,0-0.3,0-0.5l0,0c0-0.1,0-0.2,0-0.3
					C43.4,67,43.3,66.9,43.2,66.8z"/>
				<g>
					<path fill="#1D1E1C" d="M37.5,64.7c0,1.4,0.3,2.9,0.4,4.3c0.1,1.1,1.5,0.6,2.2,0.5c1-0.2,2-0.1,3-0.4c0.3-0.1,0.6-0.2,0.7-0.4
						c0.2-0.4,0-1.1,0-1.5c-0.1-1-0.4-2-0.4-3.1c0-0.2-0.1-0.3-0.3-0.3c-1.7,0.1-4-0.1-5.5,0.8c-0.2,0.1-0.1,0.4,0.1,0.4
						c1.8-0.3,3.6-0.5,5.5-0.6c-0.1-0.1-0.2-0.2-0.3-0.3c-0.1,1.1,0.2,2.1,0.4,3.2c0.1,0.4,0.3,1.2-0.2,1.4
						c-0.7,0.2-1.5,0.1-2.2,0.2c-0.7,0.1-1.4,0.4-2.1,0.4c-0.5,0-0.4-0.7-0.4-1.1c-0.1-1.1-0.5-2.2-0.5-3.4
						C37.7,64.5,37.5,64.5,37.5,64.7L37.5,64.7z"/>
				</g>
			</g>
			<g>
				<path fill="#FEF27B" d="M42.5,59.5c0.1-0.8,0.1-1.6-0.2-2.3c0-0.1-0.1-0.2-0.2-0.2c-0.2-0.2-0.4-0.2-0.6-0.2
					c-0.1,0-0.2,0-0.3,0.1c-0.1,0-0.3,0-0.4,0.1c-0.2,0-0.5,0-0.7,0c-0.1,0-0.3,0.1-0.3,0.2c-0.1,0-0.1,0-0.2,0c0,0,0,0-0.1,0
					c-0.2,0-0.3,0-0.5,0c-0.3-0.1-0.6,0-0.8,0.2c-0.2-0.1-0.4-0.1-0.5-0.1c-0.3-0.1-0.6,0-0.6,0.4c0,0,0,0,0,0.1c0,0.1,0,0.2,0,0.3
					c-0.1,0.1-0.1,0.3,0,0.4c0.1,0.3,0.1,0.5,0.2,0.7c0,0,0,0,0,0c0,0.3,0.1,0.5,0.1,0.8l0,0c-0.1,0.2,0,0.4,0,0.6c0,0,0,0.1,0,0.1
					c0,0.6,0.2,1.2,0.9,1.3c0.4,0,0.8-0.2,1.1-0.3c0.2-0.1,0.4-0.1,0.6-0.2c0.1,0.1,0.2,0.2,0.4,0.2c0.5,0,1-0.1,1.3-0.3
					c0.1,0,0.3,0,0.5,0c0,0,0.1,0,0.1-0.1c0.3-0.1,0.4-0.4,0.4-0.7c0-0.2,0-0.3,0-0.5l0,0c0-0.1,0-0.2,0-0.3
					C42.7,59.7,42.6,59.6,42.5,59.5z"/>
				<g>
					<path fill="#1D1E1C" d="M36.8,57.4c0,1.4,0.3,2.9,0.4,4.3c0.1,1.1,1.5,0.6,2.2,0.5c1-0.2,2-0.1,3-0.4c0.3-0.1,0.6-0.2,0.7-0.4
						c0.2-0.4,0-1.1,0-1.5c-0.1-1-0.4-2-0.4-3.1c0-0.2-0.1-0.3-0.3-0.3c-1.7,0.1-4-0.1-5.5,0.8c-0.2,0.1-0.1,0.4,0.1,0.4
						c1.8-0.3,3.6-0.5,5.5-0.6c-0.1-0.1-0.2-0.2-0.3-0.3c-0.1,1.1,0.2,2.1,0.4,3.2c0.1,0.4,0.3,1.2-0.2,1.4
						c-0.7,0.2-1.5,0.1-2.2,0.2c-0.7,0.1-1.4,0.4-2.1,0.4c-0.5,0-0.4-0.7-0.4-1.1c-0.1-1.1-0.5-2.2-0.5-3.4
						C37.1,57.2,36.8,57.2,36.8,57.4L36.8,57.4z"/>
				</g>
			</g>
			<g>
				<path fill="#1D1E1C" d="M45.8,66.3c0.1,0.2,0.5,0.4,0.7,0.3c0.4-0.1,0.8-0.3,1.3-0.4c0.3,0,1,0,1.2-0.2c0.7-0.6,1.3-0.2,2.1-0.6
					c1-0.5,2.6-0.5,3.8-0.7c0.2,0,0.2-0.4,0-0.4c-1.1-0.2-2.5-0.1-3.5,0.1c-0.2,0-0.3,0.2-0.4,0.3c-0.5,0.4-1,0.3-1.6,0.3
					c-0.1,0-0.2,0-0.2,0.1c-0.6,0.6-1.3,0.6-2.1,0.7c-0.4,0-1,0.2-1.3,0.3C45.8,66.2,45.8,66.2,45.8,66.3L45.8,66.3z"/>
			</g>
			<g>
				<path fill="#1D1E1C" d="M46.7,74.9c0.2-0.2,0.9,0.3,1.1,0.3c0.7-0.1,1.6-0.2,2.2-0.5c1.9-0.7,4.7,0,6.3-1.4
					c0.1-0.1,0-0.3-0.1-0.3c-1.2,0-2.4,0.3-3.6,0.4c-0.9,0.1-2.2,0.6-3.1,0.5c-0.9-0.2-1.5,0.7-2.3,0.4c-0.4-0.2-0.5,0.3-0.6,0.5
					C46.5,74.9,46.7,75,46.7,74.9L46.7,74.9z"/>
			</g>
		</g>
		<g>
			<path fill="#FDEFBA" d="M51.7,62.4c-0.1-0.1-0.2-0.1-0.3-0.2c-0.2-0.1-0.3-0.1-0.5,0c-0.2-0.1-0.4-0.1-0.6,0.1
				c-0.1-0.1-0.1-0.2-0.3-0.2c-0.7-0.2-1.4-0.3-2.1-0.5c-0.1,0-0.2,0-0.3,0c0,0,0,0-0.1,0c-0.1-0.1-0.2-0.1-0.3-0.1c0,0,0-0.1,0-0.1
				c0-0.1,0-0.3-0.1-0.4c0,0,0,0,0,0c0-0.3,0-0.5,0-0.8c0-0.2-0.1-0.4-0.3-0.5c0-0.1-0.1-0.2-0.1-0.3c0-0.5,0.1-0.9,0.2-1.4
				c0-0.1,0-0.1,0.1-0.2c0-0.1,0-0.2,0-0.3c0-0.4-0.5-0.5-0.8-0.4c0,0,0,0-0.1-0.1c-0.1-0.1-0.2-0.1-0.4-0.1c-0.9-0.8-2.3-1-3.5-1.1
				c0,0,0,0-0.1,0c-0.5-0.1-1.1-0.2-1.6-0.2c-0.1,0-0.2,0-0.3,0c-0.6-0.4-1.5-0.4-2.3-0.4c-0.2,0-0.4,0.2-0.4,0.3
				c-0.1-0.3-0.3-0.5-0.7-0.6c-0.5-0.1-1-0.2-1.5-0.3c-0.3-0.1-0.6,0-0.8,0.1c-0.1,0-0.1,0-0.2,0c-0.3-0.1-0.6,0-0.8,0.2
				c-1.2-0.5-2.4-0.8-3.7-0.6c-0.1,0-0.1,0-0.2,0.1c-0.3-0.2-0.8-0.2-0.8,0.3c0,1.1-0.2,2.3-0.1,3.4c-0.1,0.1-0.2,0.3-0.2,0.4
				c-0.2,1.2-0.3,2.4,0,3.6c0,0,0,0,0,0c-0.1,0.6-0.2,1.3-0.3,1.9c-0.1,0.2,0,0.5,0.1,0.6c-0.2,0.5-0.3,1-0.4,1.5
				c-0.1,0.4-0.3,0.8-0.3,1.3c-0.5,1.3-0.9,2.7-0.5,4.1c0,0,0,0.1,0.1,0.1c0,0.2,0,0.4,0,0.6c0,0.3,0.1,0.5,0.2,0.6
				c-0.5,0.8-0.6,1.7-0.7,2.6c0,0.3,0.1,0.5,0.2,0.7c-0.1,0.5-0.2,1-0.2,1.5c0,0,0,0.1,0,0.1c0,0.1,0,0.2-0.1,0.3l0,0c0,0,0,0,0,0
				c-0.1,0.6-0.2,1.2-0.3,1.8c-0.1,0.2-0.1,0.4-0.2,0.6c-0.1,0.2-0.1,0.3,0,0.5c-0.1,0.1-0.2,0.2-0.2,0.4c-0.3,1.4-0.5,3.1,1.3,3.4
				c1.4,0.3,2.9,0.4,4.4,0.3c0.2,0,0.5,0.1,0.7,0.1c0.1,0.1,0.3,0.1,0.4,0.2c2.9,0.3,6.1,1.1,9.1,0.5c0.3,0.1,0.6,0.2,1,0.3
				c1.6,0.6,3.4,0.6,5,0.4c0.6,0.2,1.5-0.1,1.6-1c0.6-3.6,0.9-7.1,0.7-10.7c0.1-0.1,0.1-0.2,0.1-0.3c0.3-2,0.5-4,0.5-6
				c0-0.1,0-0.2-0.1-0.3c0-0.2-0.1-0.4-0.1-0.5c0,0,0,0,0,0c0.1-0.5,0.2-0.9,0.3-1.4c0.1-0.1,0.1-0.2,0.1-0.3
				c0.1-0.4,0.1-0.7,0.1-1.1c0-0.1,0-0.1,0-0.2c0,0,0,0,0-0.1c0-0.1,0-0.1,0-0.2c0-0.1,0-0.1,0-0.2l0,0c0-0.1,0.1-0.2,0.1-0.3
				c0.1-0.1,0.1-0.1,0.1-0.2c0,0,0,0,0,0C52.1,63.4,52.2,62.7,51.7,62.4z"/>
			<path fill="#EFBD7D" d="M51.1,61.3c-0.5-0.5-0.9-0.9-1.3-1.4c-0.4-0.5-0.7-1.1-1.2-1.5c-0.1-0.1-0.1-0.1-0.2-0.1
				c-0.1-0.4-0.2-0.8-0.5-1.1c-0.2-0.3-0.6,0-0.6,0.3c0.1,0.4,0.1,0.9,0.1,1.3c0,0-0.1,0.1-0.1,0.2c0,0.2,0,0.3,0,0.5
				c-0.1,0.1-0.1,0.2-0.1,0.3c0.1,0.5,0,1.1,0.1,1.6c0,0.2,0.3,0.3,0.4,0.3c0.5-0.1,0.8,0.1,1.2,0.3c0.3,0.1,0.6,0,0.6-0.3
				c0,0,0,0,0,0c0.2,0.2,0.4,0.4,0.6,0.6C50.9,62.9,51.8,61.9,51.1,61.3z"/>
			<g>
				<path fill="#1D1E1C" d="M28.7,54.6c-0.5,9.9-2.5,19.5-3.2,29.4c0,0.2,0.3,0.3,0.4,0c1.1-9.8,3.4-19.5,3.2-29.4
					C29.1,54.4,28.8,54.4,28.7,54.6L28.7,54.6z"/>
			</g>
			<g>
				<path fill="#1D1E1C" d="M25.6,84.4c3.3,1.5,7.1,1.5,10.7,1.9c4.3,0.5,8.6,0.7,12.9,0.8c0.4,0,0.4-0.6,0-0.6
					c-3.8-0.4-7.7-0.3-11.6-0.7c-3.9-0.4-8.3-0.3-12-1.7C25.5,83.9,25.4,84.3,25.6,84.4L25.6,84.4z"/>
			</g>
			<g>
				<path fill="#1D1E1C" d="M28.9,54.6c6.1,0.1,12.3,1.3,18.3,2.7c0.4,0.1,0.6-0.5,0.2-0.6c-5.6-1.4-12.7-3.2-18.5-2.3
					C28.7,54.4,28.7,54.6,28.9,54.6L28.9,54.6z"/>
			</g>
			<g>
				<path fill="#1D1E1C" d="M47.2,56.9c-0.4,0.7-0.4,1.7-0.3,2.5c0,0.7-0.1,1.7,0.3,2.3c0.1,0.1,0.2,0,0.2,0
					c0.2-0.7-0.1-1.5-0.1-2.2c0-0.8,0.1-1.6,0.1-2.5C47.5,56.8,47.3,56.7,47.2,56.9L47.2,56.9z"/>
			</g>
			<g>
				<path fill="#1D1E1C" d="M47.3,61.6c0.4,0.3,1.3,0.3,1.8,0.4c0.9,0.1,1.7,0.6,2.6,0.7c0.2,0,0.3-0.2,0.2-0.3
					c-0.6-0.5-1.5-0.7-2.2-0.8C49.1,61.5,47.8,61.1,47.3,61.6C47.3,61.6,47.3,61.6,47.3,61.6L47.3,61.6z"/>
			</g>
			<g>
				<path fill="#1D1E1C" d="M47.3,56.9c0.8,1,1.6,1.9,2.3,3c0.5,0.8,1.3,2.5,2.3,2.7c0.1,0,0.2,0,0.2-0.2c-0.1-0.5-0.4-0.8-0.7-1.1
					c-0.5-0.6-0.9-1.2-1.3-1.8c-0.7-1-1.6-2.1-2.7-2.6C47.3,56.7,47.3,56.9,47.3,56.9L47.3,56.9z"/>
			</g>
			<g>
				<path fill="#1D1E1C" d="M51.8,62.2c-1.1,3-0.9,6.9-1.2,10.1C50,77.1,49.9,82,49,86.8c-0.1,0.3,0.4,0.4,0.5,0.1
					c1.9-7.9,1.5-16.5,2.5-24.6C52.1,62.1,51.9,62,51.8,62.2L51.8,62.2z"/>
			</g>
			<g>
				<path fill="#1D1E1C" d="M33.8,60.8c0.8-0.2,1.9,0.4,2.7,0.5c0.9,0.2,1.8,0.2,2.6,0.1c1.5-0.1,1.6-0.4,3.3,0.2
					c1,0.3,1.8,0.5,2.9,0.6c0.3,0,0.4-0.2,0.2-0.3c-1.7-0.8-3.9-1.4-5.9-1.1c-1.8,0.3-3.2-0.1-4.9-0.5c-0.5-0.1-0.9,0.2-1.1,0.3
					C33.4,60.7,33.7,60.9,33.8,60.8L33.8,60.8z"/>
			</g>
			<g>
				<path fill="#1D1E1C" d="M32,68.8c0.1,0.3,0.6,0.5,1,0.5c0.8,0.1,1.5,0,2.3,0.1c0.6,0.1,1.6,0.3,2.1,0.2c1.4-0.4,2.2,0.2,3.7,0.1
					c1.9-0.2,4.5,0.3,6.6,0.5c0.4,0,0.5-0.3,0.1-0.4c-1.7-0.6-4-0.9-5.9-1c-0.3,0-0.5,0.1-0.7,0.1c-0.9,0.3-1.9,0-2.8-0.2
					c-0.1,0-0.3,0-0.4,0c-1.2,0.4-2.3,0.2-3.7,0c-0.6-0.1-1.7-0.2-2.3-0.1C32,68.7,32,68.8,32,68.8L32,68.8z"/>
			</g>
			<g>
				<path fill="#1D1E1C" d="M32.2,77.5c0.3-0.2,1.2,0.6,1.6,0.6c1.1,0.1,2.4,0.2,3.4,0.2c3-0.1,7,1.3,9.8,0.5
					c0.2-0.1,0.1-0.2-0.1-0.3c-1.8-0.3-3.7-0.4-5.6-0.7c-1.4-0.2-3.5,0-4.7-0.5c-1.2-0.4-2.5,0.3-3.6-0.3c-0.5-0.3-0.8,0.1-1,0.3
					C31.9,77.5,32.1,77.6,32.2,77.5L32.2,77.5z"/>
			</g>
		</g>
	</g>
</g>
<g>
	<g>
		<path fill="#F5F5F5" d="M17.1,15.7c0,0.2-0.1,0.3-0.2,0.5s-0.2,0.2-0.4,0.3c-0.1,0.1-0.3,0.2-0.4,0.3s-0.3,0.2-0.4,0.3
			s-0.2,0.3-0.3,0.4s-0.1,0.3-0.1,0.5c0,0.2,0,0.3,0.1,0.4s0.2,0.3,0.3,0.4s0.2,0.3,0.4,0.4s0.3,0.3,0.4,0.5s0.2,0.4,0.3,0.6
			s0.1,0.5,0.1,0.7c0,0.2,0,0.4-0.1,0.7s-0.2,0.5-0.3,0.7s-0.3,0.5-0.5,0.7s-0.4,0.4-0.6,0.6s-0.4,0.3-0.7,0.4s-0.5,0.2-0.7,0.2
			c-0.2,0-0.5-0.1-0.6-0.2S13,23.9,13,23.6c0-0.2,0-0.3,0.1-0.5s0.2-0.3,0.3-0.4s0.3-0.3,0.4-0.4s0.3-0.3,0.4-0.4s0.2-0.3,0.3-0.4
			s0.1-0.3,0.1-0.5c0-0.2-0.1-0.5-0.2-0.7s-0.3-0.5-0.5-0.7s-0.4-0.5-0.5-0.8s-0.2-0.5-0.2-0.8c0-0.3,0.1-0.7,0.3-1.1s0.4-0.7,0.7-1
			s0.6-0.6,0.9-0.8s0.7-0.3,1-0.3c0.3,0,0.5,0.1,0.7,0.2S17.1,15.4,17.1,15.7z"/>
		<path fill="#F5F5F5" d="M22.8,21.9c0,0.3-0.1,0.5-0.3,0.8s-0.4,0.5-0.6,0.7s-0.5,0.4-0.8,0.5S20.5,24,20.3,24
			c-0.4,0-0.8-0.1-1.1-0.3s-0.6-0.5-0.8-0.8s-0.4-0.7-0.5-1.1s-0.2-0.8-0.2-1.1c0-0.4,0.1-0.8,0.2-1.3s0.3-0.9,0.5-1.2
			s0.5-0.7,0.8-0.9s0.7-0.4,1.2-0.4c0.3,0,0.5,0,0.8,0.1s0.5,0.2,0.6,0.4s0.3,0.4,0.4,0.6s0.2,0.5,0.2,0.8c0,0.4-0.1,0.7-0.2,1
			s-0.4,0.6-0.6,0.8S21,21,20.7,21.2s-0.7,0.2-1,0.2c0,0.2,0.1,0.4,0.3,0.5s0.3,0.2,0.5,0.2c0.2,0,0.3,0,0.5-0.1s0.3-0.2,0.4-0.3
			s0.3-0.2,0.4-0.3s0.3-0.1,0.4-0.1c0.2,0,0.3,0.1,0.4,0.2S22.8,21.7,22.8,21.9z M20.9,19c0-0.1,0-0.2-0.1-0.3s-0.1-0.2-0.3-0.2
			c-0.2,0-0.3,0-0.4,0.1s-0.2,0.2-0.3,0.3s-0.1,0.3-0.2,0.4s-0.1,0.3-0.1,0.4c0.1,0,0.2-0.1,0.4-0.1s0.3-0.1,0.4-0.2
			s0.3-0.2,0.4-0.3S20.9,19.1,20.9,19z"/>
		<path fill="#F5F5F5" d="M28.9,20c0,0.4,0,0.8,0,1.2s0,0.8-0.1,1.2c0,0.3-0.1,0.7-0.1,1.1s-0.1,0.8-0.2,1.2s-0.2,0.8-0.3,1.1
			s-0.3,0.7-0.6,0.9s-0.5,0.5-0.8,0.7s-0.7,0.2-1.2,0.2c-0.2,0-0.4,0-0.7-0.1s-0.5-0.2-0.7-0.3s-0.4-0.3-0.6-0.5s-0.2-0.4-0.2-0.6
			c0-0.2,0.1-0.3,0.2-0.5s0.3-0.2,0.5-0.2c0.1,0,0.2,0,0.4,0.1s0.2,0.1,0.3,0.1s0.2,0.1,0.3,0.1s0.2,0.1,0.3,0.1
			c0.3,0,0.5-0.1,0.7-0.2s0.4-0.3,0.5-0.6s0.2-0.5,0.3-0.7s0.1-0.5,0.1-0.7c-0.2,0.2-0.3,0.3-0.5,0.4S26,24,25.8,24
			c-0.4,0-0.8-0.1-1.1-0.2s-0.5-0.3-0.7-0.6s-0.3-0.5-0.4-0.9s-0.1-0.7-0.1-1.1c0-0.2,0-0.5,0.1-0.8s0.1-0.6,0.2-0.9
			s0.2-0.6,0.4-0.9s0.3-0.6,0.5-0.8s0.4-0.4,0.7-0.6S26,17,26.3,17c0.3,0,0.6,0.1,0.8,0.3s0.4,0.4,0.4,0.7c0.1-0.2,0.2-0.3,0.3-0.5
			s0.3-0.2,0.5-0.2c0.1,0,0.2,0.1,0.3,0.2s0.1,0.3,0.2,0.4s0.1,0.4,0.1,0.6s0,0.4,0,0.6s0,0.4,0,0.5S28.9,19.9,28.9,20z M27.2,20.7
			c0-0.1,0-0.3-0.1-0.5s-0.1-0.4-0.2-0.5s-0.2-0.3-0.3-0.4s-0.2-0.2-0.4-0.2c-0.2,0-0.3,0.1-0.5,0.2s-0.3,0.3-0.3,0.5
			s-0.2,0.4-0.2,0.6s-0.1,0.4-0.1,0.5c0,0.1,0,0.2,0,0.4s0,0.3,0.1,0.5s0.1,0.3,0.2,0.4s0.2,0.2,0.3,0.2c0.2,0,0.4-0.1,0.6-0.2
			s0.3-0.2,0.4-0.4s0.2-0.3,0.2-0.5S27.2,20.9,27.2,20.7z"/>
		<path fill="#F5F5F5" d="M35.3,20.6c0,0.4,0,0.9-0.1,1.3s-0.2,0.8-0.4,1.1s-0.5,0.6-0.8,0.8s-0.8,0.3-1.3,0.3
			c-0.5,0-0.9-0.1-1.3-0.3s-0.6-0.5-0.8-0.8s-0.3-0.7-0.4-1.1S30,21.1,30,20.6c0-0.5,0.1-0.9,0.2-1.4c0-0.1,0.1-0.3,0.1-0.5
			s0.2-0.4,0.3-0.7s0.2-0.4,0.4-0.6s0.3-0.2,0.5-0.2c0.2,0,0.3,0,0.4,0.1s0.2,0.2,0.2,0.3s0.1,0.3,0.1,0.4s0,0.3,0,0.4
			c0,0.2,0,0.4,0,0.5S32,19.4,32,19.6c0,0.2-0.1,0.5-0.1,0.7s0,0.5,0,0.7c0,0.1,0,0.2,0,0.4s0,0.3,0.1,0.4s0.1,0.2,0.2,0.3
			s0.2,0.1,0.4,0.1c0.2,0,0.4-0.1,0.5-0.2s0.2-0.2,0.3-0.4s0.1-0.3,0.1-0.5s0-0.4,0-0.5c0-0.3,0-0.7-0.1-1s-0.1-0.7-0.1-1
			c0,0,0-0.1,0-0.2c0-0.1,0-0.2,0.1-0.4s0.1-0.2,0.2-0.3s0.2-0.2,0.3-0.2s0.2-0.1,0.3-0.1c0.2,0,0.3,0.1,0.5,0.2s0.2,0.3,0.3,0.5
			s0.2,0.4,0.2,0.6s0.1,0.5,0.1,0.7s0.1,0.4,0.1,0.7S35.3,20.5,35.3,20.6z"/>
		<path fill="#F5F5F5" d="M38.4,19.8c0,0.1,0,0.2,0,0.3s0,0.2,0,0.3c0,0.1,0,0.3,0,0.5s0,0.5,0,0.7s0,0.5-0.1,0.8s-0.1,0.5-0.2,0.7
			s-0.2,0.4-0.3,0.5S37.5,24,37.3,24c-0.1,0-0.3-0.1-0.4-0.2s-0.2-0.3-0.3-0.5s-0.1-0.4-0.1-0.7s-0.1-0.5-0.1-0.7s0-0.4,0-0.6
			s0-0.3,0-0.4c0-0.1,0-0.3,0-0.5s0-0.5,0-0.7s0-0.5,0.1-0.8s0.1-0.5,0.2-0.8s0.2-0.4,0.3-0.6s0.3-0.2,0.5-0.2
			c0.2,0,0.4,0.1,0.5,0.3s0.2,0.5,0.2,0.7s0.1,0.6,0.1,0.8S38.4,19.6,38.4,19.8z M38.3,15.8c0,0.1,0,0.2-0.1,0.3S38,16.2,38,16.3
			s-0.2,0.1-0.3,0.2s-0.2,0.1-0.3,0.1c-0.2,0-0.3,0-0.4-0.1s-0.2-0.2-0.2-0.4c0-0.1,0-0.2,0.1-0.3s0.1-0.2,0.2-0.2s0.2-0.1,0.3-0.1
			s0.2,0,0.3,0c0.1,0,0.3,0,0.4,0.1S38.3,15.6,38.3,15.8z"/>
		<path fill="#F5F5F5" d="M46.7,20.1c0,0.1,0,0.3,0,0.6s0,0.5,0,0.8s0,0.6-0.1,0.9s-0.1,0.6-0.2,0.8s-0.2,0.4-0.3,0.6
			s-0.3,0.2-0.5,0.2c-0.2,0-0.3-0.1-0.4-0.2s-0.2-0.3-0.2-0.5S45,22.9,45,22.7s0-0.4,0-0.5c0-0.4,0-0.7,0-1s0-0.7,0-1
			c0,0,0-0.1,0-0.2s0-0.2,0-0.3s0-0.2-0.1-0.3s-0.1-0.1-0.2-0.1c-0.1,0-0.3,0.1-0.3,0.2s-0.2,0.3-0.2,0.5s-0.1,0.4-0.1,0.6
			s0,0.3,0,0.4c0,0.1,0,0.3,0,0.5s0,0.4,0,0.7s-0.1,0.5-0.1,0.7s-0.1,0.5-0.2,0.7s-0.2,0.4-0.3,0.5s-0.2,0.2-0.4,0.2
			c-0.2,0-0.3-0.1-0.4-0.2s-0.2-0.4-0.2-0.6s-0.1-0.4-0.1-0.7s0-0.4,0-0.5c0-0.1,0-0.3,0-0.4s0-0.3,0-0.4c0-0.1,0-0.1,0-0.3
			s0-0.3,0-0.4s0-0.3,0-0.5s0-0.3-0.1-0.5s-0.1-0.2-0.1-0.3S42,19.4,42,19.4c-0.1,0-0.2,0.1-0.3,0.2s-0.2,0.3-0.2,0.5
			s-0.1,0.3-0.1,0.5s-0.1,0.3-0.1,0.4V21c0,0.4,0,0.7,0.1,1.1s0.1,0.7,0.1,1.1c0,0.2-0.1,0.4-0.2,0.6s-0.3,0.3-0.6,0.3
			c-0.2,0-0.3-0.1-0.4-0.2s-0.2-0.3-0.3-0.5s-0.1-0.5-0.2-0.7s-0.1-0.5-0.1-0.8s0-0.5,0-0.7s0-0.4,0-0.5c0-0.1,0-0.3,0-0.5
			s0-0.5,0-0.7s0-0.5,0.1-0.8s0.1-0.5,0.2-0.8s0.2-0.4,0.3-0.6s0.3-0.2,0.4-0.2c0.2,0,0.4,0.1,0.5,0.2s0.2,0.3,0.2,0.5
			c0,0,0,0.1,0,0.1s0,0.1,0,0.1c0.1-0.1,0.2-0.3,0.3-0.4s0.3-0.2,0.4-0.4s0.3-0.2,0.5-0.3s0.3-0.1,0.5-0.1c0.2,0,0.3,0,0.4,0.1
			s0.2,0.2,0.3,0.3s0.2,0.3,0.2,0.4s0.1,0.3,0.1,0.4c0.1-0.1,0.2-0.3,0.3-0.4s0.2-0.3,0.4-0.4s0.3-0.2,0.4-0.3s0.3-0.1,0.5-0.1
			c0.2,0,0.3,0.1,0.4,0.2s0.2,0.3,0.3,0.5s0.2,0.4,0.2,0.6s0.1,0.5,0.1,0.7s0.1,0.4,0.1,0.6S46.7,20,46.7,20.1z"/>
		<path fill="#F5F5F5" d="M49.8,19.8c0,0.1,0,0.2,0,0.3s0,0.2,0,0.3c0,0.1,0,0.3,0,0.5s0,0.5,0,0.7s0,0.5-0.1,0.8s-0.1,0.5-0.2,0.7
			s-0.2,0.4-0.3,0.5S48.9,24,48.7,24c-0.1,0-0.3-0.1-0.4-0.2s-0.2-0.3-0.3-0.5S48,22.9,48,22.6s-0.1-0.5-0.1-0.7s0-0.4,0-0.6
			s0-0.3,0-0.4c0-0.1,0-0.3,0-0.5s0-0.5,0-0.7s0-0.5,0.1-0.8s0.1-0.5,0.2-0.8s0.2-0.4,0.3-0.6s0.3-0.2,0.5-0.2
			c0.2,0,0.4,0.1,0.5,0.3s0.2,0.5,0.2,0.7s0.1,0.6,0.1,0.8S49.8,19.6,49.8,19.8z M49.7,15.8c0,0.1,0,0.2-0.1,0.3s-0.1,0.2-0.2,0.2
			s-0.2,0.1-0.3,0.2s-0.2,0.1-0.3,0.1c-0.2,0-0.3,0-0.4-0.1s-0.2-0.2-0.2-0.4c0-0.1,0-0.2,0.1-0.3s0.1-0.2,0.2-0.2s0.2-0.1,0.3-0.1
			s0.2,0,0.3,0c0.1,0,0.3,0,0.4,0.1S49.7,15.6,49.7,15.8z"/>
		<path fill="#F5F5F5" d="M55.9,21.9c0,0.3-0.1,0.5-0.3,0.8s-0.4,0.5-0.6,0.7s-0.5,0.4-0.8,0.5S53.7,24,53.4,24
			c-0.4,0-0.8-0.1-1.1-0.3s-0.6-0.5-0.8-0.8s-0.4-0.7-0.5-1.1s-0.2-0.8-0.2-1.1c0-0.4,0.1-0.8,0.2-1.3s0.3-0.9,0.5-1.2
			s0.5-0.7,0.8-0.9s0.7-0.4,1.2-0.4c0.3,0,0.5,0,0.8,0.1s0.5,0.2,0.6,0.4s0.3,0.4,0.4,0.6s0.2,0.5,0.2,0.8c0,0.4-0.1,0.7-0.2,1
			s-0.4,0.6-0.6,0.8s-0.6,0.4-0.9,0.6s-0.7,0.2-1,0.2c0,0.2,0.1,0.4,0.3,0.5s0.3,0.2,0.5,0.2c0.2,0,0.3,0,0.5-0.1s0.3-0.2,0.4-0.3
			s0.3-0.2,0.4-0.3s0.3-0.1,0.4-0.1c0.2,0,0.3,0.1,0.4,0.2S55.9,21.7,55.9,21.9z M54,19c0-0.1,0-0.2-0.1-0.3s-0.1-0.2-0.3-0.2
			c-0.2,0-0.3,0-0.4,0.1S53,18.9,53,19s-0.1,0.3-0.2,0.4s-0.1,0.3-0.1,0.4c0.1,0,0.2-0.1,0.4-0.1s0.3-0.1,0.4-0.2s0.3-0.2,0.4-0.3
			S54,19.1,54,19z"/>
		<path fill="#F5F5F5" d="M60.1,24.3c-0.1,0-0.2-0.1-0.3-0.2s-0.1-0.3-0.2-0.4s-0.1-0.3-0.1-0.5s0-0.3,0-0.4c0-0.2,0-0.5,0-0.7
			s0.1-0.5,0.1-0.7s0.1-0.5,0.1-0.7s0-0.5,0-0.7c0-0.1,0-0.2,0-0.3s0-0.2-0.1-0.3s-0.1-0.2-0.1-0.2s-0.1-0.1-0.2-0.1
			c-0.1,0-0.1,0.1-0.2,0.2s-0.2,0.2-0.2,0.4s-0.1,0.3-0.2,0.4s-0.1,0.3-0.1,0.3c0,0.2,0,0.3,0,0.5s0,0.4,0,0.5v0.7
			c0,0.1,0,0.3,0,0.4s0,0.3-0.1,0.4c0,0.1-0.1,0.3-0.1,0.4s-0.1,0.2-0.2,0.3S58,23.9,57.9,24s-0.2,0.1-0.4,0.1
			c-0.2,0-0.3-0.1-0.4-0.2s-0.2-0.2-0.2-0.4s-0.1-0.3-0.1-0.5s0-0.4-0.1-0.6s0-0.4,0-0.5s0-0.3,0-0.4v-0.6c0-0.3,0-0.6,0-0.9
			s0-0.6,0-0.9c0-0.2,0-0.4,0-0.6s0-0.5,0.1-0.7s0.1-0.4,0.3-0.6s0.3-0.2,0.6-0.2c0.1,0,0.2,0,0.3,0.1s0.2,0.2,0.2,0.3
			s0.1,0.2,0.2,0.3s0.1,0.2,0.1,0.3c0.1-0.1,0.2-0.2,0.3-0.3s0.2-0.2,0.4-0.3s0.3-0.1,0.4-0.2s0.4-0.1,0.6-0.1
			c0.4,0,0.7,0.1,0.9,0.3s0.4,0.4,0.5,0.7s0.2,0.6,0.2,0.9s0,0.6,0,0.9c0,0.1,0,0.3,0,0.6s-0.1,0.6-0.1,0.9s-0.1,0.6-0.2,1
			s-0.2,0.6-0.3,0.9s-0.3,0.5-0.4,0.7S60.3,24.3,60.1,24.3z"/>
		<path fill="#F5F5F5" d="M65.5,24.4c-0.6,0-1-0.1-1.3-0.2c-0.3-0.1-0.5-0.3-0.7-0.6s-0.2-0.6-0.3-1s0-0.8,0-1.3c0-0.4,0-0.7,0-1.1
			s0.1-0.8,0.1-1.2c-0.1,0-0.2,0-0.3,0s-0.1,0-0.2,0c-0.2,0-0.5-0.1-0.7-0.2s-0.3-0.3-0.3-0.5c0-0.1,0.1-0.3,0.2-0.4
			s0.2-0.2,0.4-0.3s0.3-0.1,0.5-0.2s0.4-0.1,0.5-0.1c0-0.2,0-0.5,0-0.7s0.1-0.5,0.2-0.7s0.2-0.4,0.3-0.6c0.1-0.2,0.3-0.2,0.5-0.2
			c0.1,0,0.2,0,0.3,0.1s0.2,0.2,0.2,0.3s0.1,0.2,0.1,0.4s0,0.3,0,0.4c0,0.2,0,0.3,0,0.5s-0.1,0.4-0.1,0.6c0.1,0,0.2,0,0.3,0
			s0.1,0,0.1,0c0.1,0,0.3,0,0.4,0s0.3,0.1,0.4,0.1s0.2,0.1,0.3,0.2s0.1,0.2,0.1,0.3c0,0.1-0.1,0.3-0.2,0.4s-0.3,0.2-0.4,0.3
			s-0.4,0.1-0.6,0.2S65.4,19,65.2,19c0,0.3-0.1,0.6-0.1,0.9s0,0.5-0.1,0.8c0,0.1,0,0.3,0,0.4s0,0.3,0,0.4c0,0.1,0,0.2,0,0.4
			s0,0.3,0.1,0.4s0.1,0.2,0.2,0.3s0.2,0.1,0.4,0.1c0.1,0,0.2,0,0.3,0s0.2,0,0.4,0c0.2,0,0.3,0.1,0.4,0.2s0.1,0.3,0.1,0.5
			c0,0.2,0,0.3-0.1,0.4s-0.2,0.2-0.4,0.3s-0.3,0.1-0.5,0.2S65.6,24.4,65.5,24.4z"/>
		<path fill="#F5F5F5" d="M69.8,24.3c-0.4,0-0.7-0.1-1-0.3s-0.5-0.5-0.8-0.8s-0.4-0.7-0.5-1.1s-0.2-0.8-0.2-1.2
			c0-0.4,0.1-0.8,0.2-1.3s0.3-0.8,0.5-1.2s0.5-0.7,0.8-0.9s0.7-0.3,1.2-0.3c0.4,0,0.8,0.1,1.1,0.4s0.6,0.5,0.7,0.9s0.3,0.7,0.4,1.2
			s0.1,0.8,0.1,1.2c0,0.4-0.1,0.8-0.2,1.3s-0.3,0.8-0.5,1.1s-0.5,0.6-0.8,0.8S70.2,24.3,69.8,24.3z M69.9,19c-0.1,0-0.2,0.1-0.3,0.2
			s-0.2,0.3-0.2,0.5s-0.1,0.4-0.1,0.6s0,0.4,0,0.5c0,0.2,0,0.4,0.1,0.6s0.1,0.4,0.1,0.6s0.1,0.3,0.2,0.5s0.2,0.2,0.3,0.2
			c0.1,0,0.2-0.1,0.3-0.2s0.2-0.3,0.2-0.4s0.1-0.4,0.1-0.6s0-0.4,0-0.6c0-0.2,0-0.4,0-0.6s-0.1-0.4-0.1-0.6s-0.1-0.3-0.2-0.4
			S70,19,69.9,19z"/>
	</g>
</g>
<g>
	<g>
		<rect x="12" y="25.5" fill="#F5F5F5" width="5.4" height="1.5"/>
	</g>
</g>
</svg>
