<?xml version="1.0" encoding="utf-8"?>
<!-- Generator: Adobe Illustrator 18.1.0, SVG Export Plug-In . SVG Version: 6.00 Build 0)  -->
<svg version="1.1" id="Capa_1" xmlns="http://www.w3.org/2000/svg" xmlns:xlink="http://www.w3.org/1999/xlink" x="0px" y="0px"
	 viewBox="0 0 302.48 451.06" style="enable-background:new 0 0 302.48 451.06;" xml:space="preserve">
<style type="text/css">
	.st0{opacity:0.72;fill:#424242;}
	.st1{fill:#F5F5F5;}
	.st2{fill:#E0E0E0;}
	.st3{fill:#BDBDBD;}
	.st4{fill:#F57F17;}
	.st5{fill:#616161;}
	.st6{fill:#FDD835;}
	.st7{fill:#FFEE58;}
	.st8{fill:#1D1E1C;}
	.st9{fill:#BA68C8;}
	.st10{fill:#FEF8C5;}
	.st11{fill:#FEF077;}
	.st12{opacity:0.14;fill:#616261;}
	.st13{clip-path:url(#SVGID_2_);}
	.st14{fill:#A2704D;}
	.st15{fill:#8C5D3C;}
	.st16{fill:#1D1D1B;}
	.st17{fill:#EF6D3F;}
	.st18{fill:#DB572E;}
	.st19{opacity:0.3;fill:#F5F5F5;}
	.st20{fill:#5DACBD;}
	.st21{fill:#57A1AD;}
	.st22{fill:#EFE9B4;}
	.st23{fill:#F9F7E1;}
	.st24{fill:#6B432B;}
	.st25{opacity:0.2;fill:#FFFFFF;}
	.st26{fill:#B78767;}
	.st27{opacity:0.3;}
	.st28{fill:#D19384;}
	.st29{fill:#FFFFFF;}
	.st30{fill:#A03C50;}
	.st31{fill:#CB6272;}
	.st32{clip-path:url(#SVGID_4_);}
	.st33{fill:#8E24AA;}
	.st34{clip-path:url(#SVGID_6_);}
	.st35{fill:#4B2504;}
	.st36{fill:#8DCBCF;}
	.st37{clip-path:url(#SVGID_8_);}
	.st38{fill:#7FC4C7;}
	.st39{fill:#C6C5C3;}
	.st40{opacity:0.3;fill:#FFFFFF;enable-background:new    ;}
	.st41{fill:#1F140F;}
	.st42{fill:#7A3481;}
	.st43{clip-path:url(#SVGID_10_);fill:#692872;}
	.st44{fill:#D9A08C;}
	.st45{fill:#E1AC97;}
	.st46{clip-path:url(#SVGID_12_);fill:#692872;}
	.st47{clip-path:url(#SVGID_14_);fill:#692872;}
	.st48{clip-path:url(#SVGID_16_);fill:#692872;}
	.st49{clip-path:url(#SVGID_18_);fill:#D9A08C;}
	.st50{fill:#692872;}
	.st51{clip-path:url(#SVGID_20_);fill:#D9A08C;}
	.st52{clip-path:url(#SVGID_22_);fill:#D9A08C;}
	.st53{clip-path:url(#SVGID_24_);fill:#D9A08C;}
	.st54{fill:#D31876;}
	.st55{fill:#D38E82;}
	.st56{fill:#993B4E;}
	.st57{fill:#C05F6E;}
	.st58{clip-path:url(#SVGID_26_);}
	.st59{clip-path:url(#SVGID_28_);}
	.st60{clip-path:url(#SVGID_30_);fill:#692872;}
	.st61{clip-path:url(#SVGID_32_);fill:#692872;}
	.st62{clip-path:url(#SVGID_34_);fill:#692872;}
	.st63{clip-path:url(#SVGID_36_);fill:#692872;}
	.st64{clip-path:url(#SVGID_38_);fill:#D9A08C;}
	.st65{clip-path:url(#SVGID_40_);fill:#D9A08C;}
	.st66{clip-path:url(#SVGID_42_);fill:#D9A08C;}
	.st67{clip-path:url(#SVGID_44_);fill:#D9A08C;}
	.st68{clip-path:url(#SVGID_46_);}
	.st69{clip-path:url(#SVGID_48_);}
	.st70{clip-path:url(#SVGID_50_);fill:#692872;}
	.st71{clip-path:url(#SVGID_52_);fill:#692872;}
	.st72{clip-path:url(#SVGID_54_);fill:#692872;}
	.st73{clip-path:url(#SVGID_56_);fill:#692872;}
	.st74{clip-path:url(#SVGID_58_);fill:#D9A08C;}
	.st75{clip-path:url(#SVGID_60_);fill:#D9A08C;}
	.st76{clip-path:url(#SVGID_62_);fill:#D9A08C;}
	.st77{clip-path:url(#SVGID_64_);fill:#D9A08C;}
	.st78{fill:#1565C0;}
	.st79{clip-path:url(#SVGID_66_);}
	.st80{fill:#CA8C63;}
	.st81{fill:#B67655;}
	.st82{fill:#3C4C9B;}
	.st83{fill:#29398D;}
	.st84{fill:#DCAE8D;}
	.st85{fill:#7985C1;}
	.st86{fill:#925F36;}
	.st87{fill:#C89E7D;}
	.st88{fill:#7E4E24;}
	.st89{fill:#B71E1E;}
	.st90{opacity:0.3;fill:#FFFFFF;}
	.st91{fill:#98191B;}
	.st92{fill:#E67373;}
	.st93{fill:#701518;}
	.st94{opacity:0.8;fill:#D07475;}
	.st95{clip-path:url(#SVGID_68_);}
	.st96{clip-path:url(#SVGID_70_);}
	.st97{fill:#5D4037;}
	.st98{clip-path:url(#SVGID_72_);}
	.st99{fill:#C79B66;}
	.st100{fill:#7E665F;}
	.st101{fill:#DEC3A2;}
	.st102{fill:#96774D;}
	.st103{fill:#452F28;}
	.st104{fill:#CC9B6B;}
	.st105{fill:#F3B980;}
	.st106{fill:#B68A60;}
	.st107{fill:#1C1C1B;}
	.st108{fill:#FFD600;}
	.st109{fill:#F8B032;}
	.st110{fill:#916036;}
	.st111{fill:#FFEB85;}
	.st112{fill:#BD9E85;}
	.st113{fill:#6E4729;}
	.st114{fill:none;stroke:#E4332A;stroke-miterlimit:10;}
	.st115{fill:#F19004;}
	.st116{fill:#EFEFEF;}
	.st117{fill:#F7D4B2;}
	.st118{fill:#2F1D19;}
	.st119{fill:#1F1412;}
	.st120{fill:#5A4A48;}
	.st121{opacity:0.8;}
	.st122{fill:#DA9085;}
	.st123{fill:#E1F2FC;}
	.st124{fill:#848585;}
	.st125{fill:#CC6273;}
	.st126{fill:#B0B0B0;}
	.st127{fill:#A1877F;}
	.st128{fill:#A13D51;}
	.st129{fill:#E0A0AB;}
	.st130{clip-path:url(#SVGID_74_);}
	.st131{clip-path:url(#SVGID_76_);}
	.st132{clip-path:url(#SVGID_78_);}
</style>
<g>
	<defs>
		<rect id="SVGID_45_" x="0" y="0" width="302.48" height="451.06"/>
	</defs>
	<clipPath id="SVGID_2_">
		<use xlink:href="#SVGID_45_"  style="overflow:visible;"/>
	</clipPath>
	<g class="st13">
		<g>
			<g>
				<path class="st35" d="M71.57,387.04c8.7-13.88,13.87-27.65,16.68-43.77c0.19-1.13,0.34-1.31,0.44-2.45
					c-0.22-0.13-0.85-0.12-1.07-0.25c-19.68,22.47-42.5,40.09-70.16,50.57c11.12-10.81,17.64-27.97,20.53-39.05
					c0,0-1.78,2.82-3.84,4.48c-4.27,3.42-8.53,5.88-13.66,7.81c-0.79,0.29-2.8,0.7-4.09,1.01c1.03-1.89,2.19-4.37,2.96-5.74
					c8.7-15.13,15.88-30.51,20.53-47.43c3.11-11.31,6.54-22.45,7.5-34.2c1.75-21.57,2.52-42.98,2.83-64.62
					c0.03-2.27,0.4-4.75,0.82-6.98c0.88-4.62,1.79-9.32,2.8-13.91c0.15-0.69,0.82-1.89,1.28-2.98c14.5-26,209.1-41.31,206.54,14.06
					c0.13,1.47,0.18,2.66,0.23,3.48c0.63,9.35-0.47,19.11-2.05,28.28c-3.21,18.58-6,36.67-7.65,55.45
					c-1.69,19.3,0.15,37.93,7.28,56.07c1.35,3.43,3.11,7.84,4.58,11.48c-0.57-0.15-1.72-0.65-1.98-0.81
					c-1.64-1.01-3.35-1.85-4.92-2.98c-11.78-7.51-22.26-17.59-31.77-28.83c-1.8-1.97-3.1-2.71-3.48-6.19c0,4.97,0.38,7.4,0.28,11.62
					c-0.29,11.8-3.65,23.54-8.53,34.15c-6.88,15.03-17.48,27.4-28.76,39.28c-0.16,0.18-1.64,0.87-2.14,1.09
					c0.25-0.69,0.97-2.71,1.12-3.02c8.29-17.54,11.05-35.28,10.51-54.51c-0.06-2.02,0.43-4.23,0.73-6.24
					c0.54-3.48,1.28-6.02,1.89-9.46c-0.81,0.68-0.63,0.98-0.88,1.78c-2.23,7.4-3.83,14.59-6.24,21.92
					c-7.01,21.39-18.27,40.51-35.23,55.64c-0.81,0.72-3.6,3.15-3.87,2.91c0,0,2.63-6.85,3.3-9.45c2.16-8.16,3.93-16.01,5.71-24.26
					c1.45-6.68,1.32-13.22,4.96-19.34c0.09-0.15,0.34-0.38,0.23-0.82c-0.47,0.69-0.73,1.09-1.06,1.67
					c-8.17,14.26-16.83,28-26.27,41.45c-4.3,6.13-7.95,12.03-10.61,19.11c0.07,1.35-1.42,1.34-1.67,0.45
					c-0.37-1.8-1.16-4.18-1.54-5.94c-5.08-23.9-5.59-47.81-1.89-71.92c0.62-4.06,2-7.76,3.96-11.46c1.48-2.76,3.11-7.88,2.96-7.56
					c-6.03,13.18-14.03,24.83-23.17,35.97c-9.71,11.84-20.63,22.29-34.13,29.85c-1.1,0.62-3.95,2.35-5.22,3.02
					C66.31,394.7,71.13,387.74,71.57,387.04z"/>
				<path d="M261.32,207.03c0.63,9.35-0.28,18.62-1.86,27.79c-3.21,18.58-6.21,37.17-7.85,55.95c-1.69,19.3,0.21,38.11,7.35,56.25
					c1.35,3.43,2.77,6.84,4.24,10.48c-0.57-0.15-0.92-0.16-1.19-0.32c-1.64-1.01-3.32-1.98-4.89-3.11
					c-11.61-8.39-21.85-18.31-31.49-28.85c-1.8-1.97-3.57-3.95-3.95-7.43c0,4.97,0.09,9.2-0.01,13.41
					c-0.29,11.8-3.73,22.83-8.6,33.46c-6.88,15.03-17.05,27.72-28.35,39.6c-0.16,0.18-0.45,0.21-0.97,0.43
					c0.25-0.69,0.35-1.03,0.5-1.35c8.29-17.54,11.17-36.08,10.62-55.32c-0.06-2.02,0.26-4.08,0.57-6.09
					c0.54-3.48,1.22-6.93,1.83-10.37c-0.81,0.67-1.1,1.45-1.34,2.25c-2.23,7.4-4.28,14.84-6.69,22.17
					c-7.01,21.39-17.99,40.31-34.97,55.44c-0.76,0.69-1.53,1.36-2.33,2.01c1.23-2.48,2.07-5.28,2.55-8
					c2.14-8.1,4.05-16.26,5.83-24.45c1.45-6.68,1.38-13.72,5-19.85c0.09-0.15-0.09-0.44-0.18-0.9c-0.47,0.69-0.91,1.22-1.25,1.8
					c-8.17,14.26-17.24,27.95-26.68,41.41c-4.3,6.13-8.36,12.43-11.02,19.5c-0.04,0.1-0.34,0.1-0.7,0.19
					c-0.37-1.8-0.7-3.57-1.09-5.33c-5.08-23.9-5.49-47.93-1.79-72.05c0.62-4.06,1.72-7.97,3.68-11.67c1.48-2.76,2.45-5.81,3.64-8.73
					c-0.72,0.09-0.98,0.35-1.13,0.68c-6.03,13.18-14.34,24.89-23.48,36.02c-9.71,11.84-20.57,22.44-34.07,29.99
					c-1.1,0.62-2.23,1.19-3.52,1.86c0-0.01,0-0.03,0-0.06c1.44-1.94,2.73-3.96,3.89-6.06c0.1-0.15,0.22-0.28,0.31-0.43
					c8.7-13.88,14.42-28.91,17.26-45.05c0.19-1.13,0.22-2.29,0.31-3.43c-0.22-0.13-0.44-0.26-0.66-0.38
					c-19.72,21.92-42.11,40.19-69.72,51.48c10.79-12.96,18.4-27.26,20.54-44.08c-0.73,1.09-1.23,2.32-1.44,3.58
					c-0.44,2.67-1.91,4.58-3.98,6.22c-4.27,3.42-8.83,6.31-13.98,8.25c-0.79,0.29-1.66,0.41-2.96,0.7c1.03-1.89,1.73-3.27,2.51-4.62
					c8.7-15.13,15.97-30.84,20.62-47.75c3.11-11.31,6.41-22.55,7.37-34.29c1.57-19.43,4.7-59.69,2.58-75.81c-0.47,0-0.6,0-1.07,0
					c0.04,0.47,0.01,18.36-0.01,18.81c-0.7,14.13-1.38,28.25-2.17,42.38c-0.78,14.03-2.55,27.87-6.44,41.44
					c-4.93,17.24-10.74,34.09-19.9,49.61c-1.35,2.29-2.6,4.64-3.79,7.01c-0.84,1.67-1.51,3.42-2.48,5.63
					c8.19-1.76,14.67-5.49,20.88-9.96c-3.51,13.91-11.68,25.02-21.12,36.27c1.53-0.45,2.3-0.65,3.05-0.92
					c8.82-3.39,17.29-7.45,25.27-12.52c13.73-8.7,26.5-18.61,37.74-30.42c2.05-2.16,4.23-4.18,6.34-6.28
					c0.43,1.5,0.28,2.66,0.04,3.79c-2.73,13.41-7.91,25.87-14.42,37.81c-1.91,2.99-3.86,5.94-5.83,8.89
					c-1.06,1.09-2.13,2.16-3.18,3.24c0.87,0.35,1.41,0.26,1.89,0.01c9.85-5,18.96-11.05,27.01-18.68c10.23-9.68,19-20.56,26.9-32.18
					c0.53-0.78,1.16-1.5,1.73-2.25c-1.73,14.42-2.82,28.58-2.16,42.86c0.66,14.28,3.11,28.16,7.95,41.69
					c0.98-5.27,3.23-9.92,5.93-14.37c1.44-2.38,2.92-4.73,4.46-7.03c7.26-10.98,14.54-21.94,21.83-32.88
					c0.32-0.48,0.7-0.91,1.07-1.35c-1.03,7.72-2.47,15.26-4.23,22.73c-1.14,4.89-2.57,9.7-3.93,14.53
					c-0.78,1.75-1.72,3.42-2.48,5.18c-0.04,0.1-0.07,0.22-0.07,0.31c-0.28,0.43-0.56,0.84-0.84,1.26c1.5-0.22,2.64-0.82,3.6-1.64
					c11.06-9.52,20.93-20.07,27.88-33.08c4.68-8.76,8.38-17.93,11.67-27.29c0.34-0.95,0.76-1.86,1.16-2.8
					c0.26,0.06,0.53,0.12,0.79,0.18c-0.34,5.03-0.47,10.08-1.06,15.08c-0.6,5.15-1.41,10.3-2.6,15.35c-1.16,4.92-2.64,9.8-4.5,14.51
					c-1.85,4.71-4.34,9.17-6.56,13.73c13.57-10.98,24.61-24.01,32.84-39.28c7.62-14.15,12.37-29.1,11.61-45.43
					c-0.01-0.25,0.35-0.51,0.6-0.85c7.1,8.11,14.53,15.75,22.85,22.41c4.97,3.99,10.37,7.47,15.63,11.09
					c0.9,0.62,2.04,0.85,3.51,1.44c-0.32-1.01-0.38-1.38-0.53-1.69c-8.14-16.9-12.5-34.72-12.69-53.5
					c-0.15-14.56,2.1-28.92,4.06-43.27c1.28-9.32,3.39-18.53,4.89-27.84c1.48-9.26,2.95-29.58,1.06-38.97
					c-1.01,0-2.23,2.45-2.98,2.45C259.64,197.79,261.29,206.71,261.32,207.03z"/>
				<path d="M59.92,254.37c2.32,19.33-2.01,37.64-8.7,55.57C56.78,291.82,59.95,273.34,59.92,254.37z"/>
				<path d="M96.34,298.2c-6.13,17.65-15.16,33.75-26.93,48.34C80.06,331.35,88.95,315.22,96.34,298.2z"/>
			</g>
			<g>
				<path class="st35" d="M41.96,188.09c-0.1,0.75-0.21,1.51-0.29,2.26c-1.98,15.25-5.21,30.11-10.49,44.59
					c-4.21,11.56-8.75,23.36-11.71,35.33c-2.19,8.83-3.45,18.39-2.93,27.48c0.4,6.98,1.36,11.65,2.08,18.61
					c0.06,0.59,0.97,3.95,1.42,5c0.94-5.59,2.11-11.55,3.02-16.54c3.52-19.13,7.78-36.9,14.84-55.61
					c7.62-20.19,16.2-59.47,16.23-59.62C50.4,190.42,45.85,188.68,41.96,188.09z"/>
				<path d="M37.15,248.34c-6.53,18.33-11.02,37.24-14.54,56.38c-0.91,4.97-1.67,9.98-2.61,15.57c-0.45-1.06-0.87-1.61-0.92-2.22
					c-0.7-6.97-1.58-13.93-1.98-20.91c-0.51-9.11,0.85-18.06,3.04-26.9c2.96-11.97,7.19-23.54,11.4-35.1
					c5.06-13.87,8.58-29.77,10.58-44.34c-0.48,0-0.97,0-1.47,0c-1.17,7.88-2.86,17.34-4.75,25.12c-2.93,12-7.51,23.43-11.49,35.09
					c-5.68,16.68-10.17,33.6-8.29,51.46c0.85,8.03,2.25,16.01,3.45,24.01c0.1,0.66,0.57,1.25,1.16,2.45
					c0.23-3.05,0.34-5.36,0.62-7.63c0.29-2.39,0.73-4.77,1.13-7.16c3.89-23.4,9.63-46.33,17.42-68.75
					c2.89-8.32,5.43-16.76,8.14-25.15c0.25-0.79,3.17-11.65,3.6-13.9c0.79-4.15,1.86-9.33,2.79-13.47c-0.75,0-1.04,0-1.82,0
					C48.99,211.43,43.49,230.53,37.15,248.34z"/>
			</g>
			<g>
				<path class="st35" d="M269.91,189.53c1.07,21.13,1.38,41.95,0.38,63.11c-0.04,1.06,0.38,4.23,0.38,5.3
					c1.06-5,2.76-11.97,3.27-17.01c0.95-9.38,1.78-18.43,2.39-27.84c1.17-17.9,1.04-23.85,1.01-25.94c0-0.1,0.5-4.14,0.15-4.2
					c-0.63-0.12-4.84-2.16-8.17-1.47C269.38,182.51,269.85,188.47,269.91,189.53z"/>
				<path d="M276.82,187.21c-0.31,8.58-0.44,17.17-1,25.74c-0.62,9.41-1.57,18.78-2.52,28.16c-0.51,5.03-1.34,10.02-2.39,15.04
					c0-1.07-0.04-2.13,0-3.2c1-21.16,0.68-42.32-0.4-63.45c-0.03-0.53-0.13-1.85-0.16-2.38c-0.65,0-0.94,0.03-1.51,0.03
					c0.15,1.98,0.37,4.45,0.41,6.16c0.26,10.64,0.72,21.28,0.62,31.92c-0.12,12.33-0.75,24.64-1.17,36.96
					c-0.13,3.93-0.09,7.85,0.75,11.74c5.99-28.91,8.2-58.89,8.86-88.26c-0.48,0-0.92-0.07-1.42-0.07
					C276.88,185.86,276.83,186.93,276.82,187.21z"/>
			</g>
		</g>
		<g>
			<g>
				<path class="st36" d="M204.14,390.62c-0.73-0.37-0.94-0.54-1.16-0.56c-11.06-1-22.1-2.45-33.18-2.83
					c-10.84-0.37-21.75,0.19-32.61,0.66c-3.82,0.16-7.6,1.23-11.4,1.88c-2.45,0.41-3.89,1.58-3.89,4.31c0,1.67-0.51,3.35-0.66,5.02
					c-1.29,15.52-2.83,31.05-3.76,46.6c-1.17,19.91-2.27,39.83-1.32,59.8c0.18,3.83,0.35,7.67,0.51,11.42
					c12.71,0.88,25.22,2.26,35.16-6.49c0-3.8-0.28-7.04,0.06-10.23c0.59-5.63,1.54-11.24,2.35-16.86
					c1.97-13.75,3.96-27.48,5.87-41.25c0.15-1.03-0.32-2.14-0.51-3.21c3.57-1.56,9.66-2.82,12.5-2.07c-2.1,0.65-4.18,1.28-6.44,1.97
					c0.48,3.08,0.94,5.69,1.31,8.32c2.11,14.95,4.3,29.88,6.27,44.84c0.78,5.91,2.89,11.81,0.73,17.76c0.4,0.45,0.59,0.76,0.87,0.98
					c0.45,0.4,0.94,0.75,1.44,1.1c7.5,5.39,16.1,6.08,24.9,5.71c2.76-0.12,5.5-0.37,8.64-0.59
					C211.65,474.68,209.04,432.45,204.14,390.62z M122.65,419.1c1.44-2.77,2.69-4.84,3.58-7.04c0.88-2.17,1.39-4.5,2.14-7
					C130.36,408.21,127.39,415.48,122.65,419.1z M196.83,405.67c0.25-0.13,0.51-0.28,0.76-0.41c0.38,0.6,0.97,1.17,1.09,1.83
					c0.84,4.46,2.66,8.45,5.22,12.19C199.31,415.84,197.42,411.07,196.83,405.67z"/>
				<g>
					<g>
						<defs>
							<path id="SVGID_47_" d="M204.14,390.62c-0.73-0.37-0.94-0.54-1.16-0.56c-11.06-1-22.1-2.45-33.18-2.83
								c-10.84-0.37-21.75,0.19-32.61,0.66c-3.82,0.16-7.6,1.23-11.4,1.88c-2.45,0.41-3.89,1.58-3.89,4.31
								c0,1.67-0.51,3.35-0.66,5.02c-1.29,15.52-2.83,31.05-3.76,46.6c-1.17,19.91-2.27,39.83-1.32,59.8
								c0.18,3.83,0.35,7.67,0.51,11.42c12.71,0.88,25.22,2.26,35.16-6.49c0-3.8-0.28-7.04,0.06-10.23
								c0.59-5.63,1.54-11.24,2.35-16.86c1.97-13.75,3.96-27.48,5.87-41.25c0.15-1.03-0.32-2.14-0.51-3.21
								c3.57-1.56,9.66-2.82,12.5-2.07c-2.1,0.65-4.18,1.28-6.44,1.97c0.48,3.08,0.94,5.69,1.31,8.32
								c2.11,14.95,4.3,29.88,6.27,44.84c0.78,5.91,2.89,11.81,0.73,17.76c0.4,0.45,0.59,0.76,0.87,0.98
								c0.45,0.4,0.94,0.75,1.44,1.1c7.5,5.39,16.1,6.08,24.9,5.71c2.76-0.12,5.5-0.37,8.64-0.59
								C211.65,474.68,209.04,432.45,204.14,390.62z M122.65,419.1c1.44-2.77,2.69-4.84,3.58-7.04c0.88-2.17,1.39-4.5,2.14-7
								C130.36,408.21,127.39,415.48,122.65,419.1z M196.83,405.67c0.25-0.13,0.51-0.28,0.76-0.41c0.38,0.6,0.97,1.17,1.09,1.83
								c0.84,4.46,2.66,8.45,5.22,12.19C199.31,415.84,197.42,411.07,196.83,405.67z"/>
						</defs>
						<clipPath id="SVGID_4_">
							<use xlink:href="#SVGID_47_"  style="overflow:visible;"/>
						</clipPath>
						<g class="st32">
							<path class="st38" d="M123.27,387.1c-4.36,9.19-5.3,19.81-6.18,29.82c-1.01,11.48-1.66,22.96-2.1,34.47
								c-0.43,11.01-0.67,22.01-0.72,33.02c-0.06,11.17-1.31,23.61,1.22,34.53c1.22,5.24,9.96,5.58,10.93,0
								c1.78-10.18,0.41-21.19,0.43-31.52c0.01-11.5,0.23-23.01,0.65-34.51c0.4-10.99,1.01-21.98,1.63-32.97
								c0.59-10.57,1.83-21.76-0.73-32.15C127.83,385.54,124.33,384.88,123.27,387.1z"/>
							<path class="st38" d="M181.91,477.39c-1.78-13.06-9.6-40.73-9.6-40.73l-8.85,2.39c0,0,4.36,26.72,6.21,39.4
								c1.01,6.98,1.8,13.98,2.39,21.01c0.56,6.6,0.21,13.54,1.92,19.96c1.34,4.96,9.48,5.43,10.52,0
								C187.03,506.25,183.71,490.56,181.91,477.39z"/>
						</g>
					</g>
				</g>
			</g>
			<path d="M213.57,521.95c-1.5-1.36-2.32-2.73-2.71-4.26c0.07-0.01,0.15-0.01,0.21-0.03c-0.13-0.57-0.15-1.2-0.1-1.94
				c0.88-14.12,1.45-28.25,1.1-42.41c-1.25-19.41-2.39-38.83-3.82-58.21c-0.57-7.82-1.82-15.58-2.67-23.39
				c-0.22-2.05-1.23-2.98-3.24-3.13c-13-0.97-25.97-2.48-38.99-2.82c-10.46-0.28-20.98,0.73-31.46,1.44
				c-2.95,0.21-5.85,1.31-8.76,2.1c-1.53,0.43-2.33,1.5-2.52,3.15c-0.4,3.48-1.04,6.93-1.39,10.42c-1.88,18.64-3.27,37.3-3.93,56.03
				c-0.63,18.12-1.45,36.23,0.12,54.34c0.12,1.38,0.07,2.61-0.19,3.74c1.42,0.04,2.58,1,3.99,1.56c1.88,0,4.11-0.1,5.78,0.04
				c9.24,0.82,18.05-0.16,25.84-5.8c0.37-0.26,0.87-0.38,1.53-0.66c0.06,0.16,0.12,0.32,0.18,0.5c0.53-0.21,0.95-0.5,1.32-0.85
				c-0.81-3.6-0.87-7.23-0.51-10.87c0.57-5.88,1.58-11.72,2.39-17.58c1.36-9.8,2.71-19.6,4.08-29.42c0.57-4.06,1.13-8.13,1.78-12.18
				c0.16-1,0.22-2.51,1.73-2.2c0.62,0.12,1.23,1.32,1.44,2.13c0.43,1.63,0.59,3.33,0.81,5c1.2,9.1,2.36,18.2,3.61,27.29
				c1.26,9.22,2.83,18.39,3.84,27.62c0.4,3.61,0.48,5.47-0.53,8.92c0,0.01,0.04,0.07,0.13,0.15c-0.28,1.13-0.97,3.62-1.26,4.49
				c-1.51,4.39-1.86,8.95-1.01,13.59c0.51,2.8,1.86,4.97,4.27,6.41c8.7,5.21,17.43,10.37,26.91,14.09c2.58,1.01,5.25,1.76,8.13,1.32
				c7.06-1.07,10.61-4.96,10.96-12.14C220.97,531.75,218.27,526.23,213.57,521.95z M213.97,524.75c1.79,1.58,2.77,3.11,3.54,5.05
				c-3.08-0.94-5.31-1.63-8.29-2.54C211.3,526.25,212.18,525.63,213.97,524.75z M207.45,526.92c0,0-5.69,0.09-8.35,0.67
				c1.8-3.26,5.62-5.21,5.62-5.21s4.7,0.72,7.53,1.83C210.61,525.54,207.45,526.92,207.45,526.92z M206.25,521.11
				c2.83-2.88,3.7-1.47,6.68,2.3C210.26,522.49,208.32,521.83,206.25,521.11z M173.25,491.97c-1.95-14.97-4.15-29.91-6.27-44.84
				c-0.37-2.63-0.82-5.24-1.31-8.32c2.25-0.69,4.34-1.34,6.44-1.97c-2.83-0.75-8.94,0.5-12.5,2.07c0.19,1.07,0.65,2.19,0.51,3.21
				c-1.91,13.75-3.9,27.5-5.87,41.25c-0.81,5.62-1.76,11.23-2.35,16.86c-0.34,3.18-0.06,6.43-0.06,10.23
				c-9.93,8.75-22.45,7.38-35.16,6.49c-0.18-3.76-0.34-7.59-0.51-11.42c-0.95-19.96,0.15-39.88,1.32-59.8
				c0.91-15.55,2.47-31.06,3.76-46.6c0.15-1.69,0.66-3.35,0.66-5.02c0-2.73,1.44-3.9,3.89-4.31c3.8-0.65,7.57-1.72,11.4-1.88
				c10.86-0.45,21.75-1.03,32.61-0.66c11.08,0.38,22.13,1.83,33.18,2.83c0.22,0.01,0.43,0.19,1.16,0.56
				c4.92,41.84,7.53,84.07,5.68,126.3c-3.13,0.22-5.88,0.47-8.64,0.59c-8.82,0.37-17.4-0.32-24.9-5.71c-0.48-0.35-0.98-0.7-1.44-1.1
				c-0.26-0.23-0.47-0.53-0.87-0.98C176.14,503.78,174.03,497.88,173.25,491.97z M212.28,548.7c-4.06,1.09-7.95,0.65-11.59-1.26
				c-8.75-4.58-17.43-9.29-26.08-14.07c-1.04-0.57-2.02-1.83-2.36-2.98c-1.64-5.71-0.72-12.8,1.85-18.67
				c0.1,0.09,0.21,0.18,0.31,0.26c9.64,7.45,20.65,7.48,32.24,6.16c-0.06,0.13,1.2-0.04,2.51-0.23c-0.76,0.34-3.46,2.05-4.78,3.18
				c-3.05-0.35-7.92-1.09-10.9,0.21c0.1,1.29,0.19,1.61,1.28,0.91c3.4-0.84,5.06-0.7,7.82-0.26c-1.83,1.73-3.61,4.11-5.27,6.62
				c3.38,0.07,5.36-0.53,8.92-0.47c-1.28,1.39-3.14,3.39-4.37,4.75c0.38,0.34,0.72,0.65,1.01,0.91c1.51-1.75,2.38-3.02,5.09-5.47
				c2.45,0.56,6.03,1.44,8.41,2.26c1.47,0.5,2.2,1.7,2.54,3.26c0.72,3.42,0.35,6.69-0.85,9.93
				C217.02,546.51,215.04,547.97,212.28,548.7z"/>
			<path d="M203.92,419.28c-4.61-3.43-6.49-8.22-7.07-13.6c0.25-0.13,0.51-0.28,0.76-0.41c0.38,0.6,0.97,1.17,1.09,1.83
				C199.53,411.54,201.34,415.55,203.92,419.28z"/>
			<path d="M122.65,419.1c1.44-2.77,2.69-4.84,3.58-7.04c0.88-2.17,1.39-4.5,2.14-7C130.36,408.21,127.39,415.48,122.65,419.1z"/>
			<path class="st40" d="M156.65,440.93c-6.27,22-10.84,45.74-10.81,68.67c0,2.02,3.07,2.01,3.14,0c0.9-23.21,5.71-45.42,9-68.31
				C158.09,440.45,156.9,440.05,156.65,440.93z"/>
			<path class="st40" d="M204.86,425.4c-0.06-0.29-0.51-0.22-0.51,0.07c-0.13,14.79,1.28,29.61,1.32,44.43
				c0.04,14.85-0.32,29.69-1.28,44.51c-0.18,2.71,4.09,2.71,4.23,0C210.13,485.32,210.95,454.04,204.86,425.4z"/>
		</g>
		<g>
			<g>
				<path class="st42" d="M180.88,293.17c0.38-1.83,1.72-4.46,2.77-6.05c1.66-2.49,4.36-4.08,7.43-4.4c3.65-0.4,7.79,0,11.08,1.89
					c5.58,3.2,10.68,6.22,14.86,11.21c1.16,1.38,3.04,3.48,3.9,5.03c9.79,17.62,19.11,35.17,26.08,54.16
					c1.14,3.14,2.16,6.82,3.27,10.2c0.19,0.44,0.21,0.95,0.1,1.53c0.75,0.1,1.36,0.56,1.82,1.28c1.23,1.94,2.45,3.89,3.42,5.96
					c0.94,2,0.66,2.76-1.88,4.42c-3.43,2.1-17.43,12.87-20.79,15.79c-2.35,2.04-3.4,2.11-5.37-0.29c-1.75-2.13-3.24-4.5-4.65-6.88
					c-1.17-1.98-1.44-2.55-0.6-3.71c-0.35-0.25-0.66-0.56-0.9-0.94c-0.66-1.23-1.48-2.8-1.89-3.65
					c-5.91-12.28-11.55-24.39-17.51-36.66c-3.96-8.16-7.79-15.5-14.1-22.17c-1.07-1.13-2.71-3.27-3.65-4.53
					C179.13,308.44,179.27,301.05,180.88,293.17z"/>
				<g>
					<g>
						<defs>
							<path id="SVGID_49_" d="M180.88,293.17c0.38-1.83,1.72-4.46,2.77-6.05c1.66-2.49,4.36-4.08,7.43-4.4
								c3.65-0.4,7.79,0,11.08,1.89c5.58,3.2,10.68,6.22,14.86,11.21c1.16,1.38,3.04,3.48,3.9,5.03
								c9.79,17.62,19.11,35.17,26.08,54.16c1.14,3.14,2.16,6.82,3.27,10.2c0.19,0.44,0.21,0.95,0.1,1.53
								c0.75,0.1,1.36,0.56,1.82,1.28c1.23,1.94,2.45,3.89,3.42,5.96c0.94,2,0.66,2.76-1.88,4.42c-3.43,2.1-17.43,12.87-20.79,15.79
								c-2.35,2.04-3.4,2.11-5.37-0.29c-1.75-2.13-3.24-4.5-4.65-6.88c-1.17-1.98-1.44-2.55-0.6-3.71c-0.35-0.25-0.66-0.56-0.9-0.94
								c-0.66-1.23-1.48-2.8-1.89-3.65c-5.91-12.28-11.55-24.39-17.51-36.66c-3.96-8.16-7.79-15.5-14.1-22.17
								c-1.07-1.13-2.71-3.27-3.65-4.53C179.13,308.44,179.27,301.05,180.88,293.17z"/>
						</defs>
						<clipPath id="SVGID_6_">
							<use xlink:href="#SVGID_49_"  style="overflow:visible;"/>
						</clipPath>
						<path style="clip-path:url(#SVGID_6_);fill:#692872;" d="M178.42,292.65c-0.01-2.83,4.33-2.83,4.39,0
							c0.26,10.71,3.55,18.33,10.1,26.66c4.71,6,9.02,12.27,12.87,18.86c4.2,7.2,7.82,14.69,11.08,22.35
							c2.29,5.39,5.03,11.12,6.31,16.96c1.5-1.1,3.07-2.1,4.58-2.99c1.31-0.76,4.34-3.3,5.88-2.19c0.51,0.38,0.21,1.12-0.43,1.01
							c-0.43-0.07-2.3,2.25-2.67,2.61c-0.95,0.94-1.91,1.88-2.91,2.77c-1.23,1.12-2.52,2.27-3.89,3.32c0.12,0.1,0.22,0.21,0.31,0.35
							c1.03,1.53,2.13,2.98,3.38,4.33c0.88,0.97,1.58,1.67,2.47,2.02c2.14-1.57,4.73-2.79,6.3-3.79c1.28-0.81,2.6-1.69,3.96-2.58
							c4.53-3.86,9.22-7.45,15.14-9.32c2.82-0.88,4.05,3.39,1.45,4.45c-0.07,0.16-0.18,0.31-0.32,0.45
							c-3.27,3.32-7.91,5.3-11.87,7.72c-1.73,1.06-3.45,2.16-5.17,3.26c-3.02,2.71-6.02,5.47-9.27,7.78
							c-1.72,1.22-3.68-0.47-3.83-2.2c-0.03-0.28-0.01-0.56,0.01-0.84c-1.12-1.36-2.14-2.8-3.05-4.27
							c-1.07-1.72-2.52-3.82-2.17-5.91c-1.38-0.03-2.38-1.88-1.25-3.08c0.23-0.26,0.53-0.5,0.79-0.73
							c-0.03-0.04-0.04-0.07-0.06-0.12c-0.21,0.38-0.85,0.4-1.12,0c-3.83-5.87-5.88-12.96-8.86-19.3
							c-3.02-6.46-6.31-12.8-9.93-18.94c-6.35-10.79-17.21-21.07-20.46-33.27c-0.15-0.54-0.06-1,0.15-1.35
							C178.96,302.16,178.43,297.42,178.42,292.65z"/>
					</g>
				</g>
			</g>
			<path d="M230.29,383.37c1.86,1.97,3.73,3.95,5.58,5.91c0.22-0.21,0.45-0.41,0.68-0.62c-1.85-1.98-3.7-3.95-5.55-5.93
				C230.77,382.94,230.52,383.16,230.29,383.37z"/>
			<path d="M243.05,385.42c0.4-3.15-2-4.87-4.01-6.78c1.34,2.25,2.67,4.48,4.01,6.74C243.04,385.41,243.05,385.42,243.05,385.42z"/>
			<path d="M248,378.22c-1.09-1.6-2.17-3.2-3.27-4.8c-0.22,0.15-0.44,0.29-0.66,0.43c1.07,1.64,2.16,3.27,3.23,4.92
				C247.53,378.59,247.76,378.41,248,378.22z"/>
			<path d="M228.91,390.79c-0.7-0.9-1.41-1.79-2.1-2.7c-0.19,0.15-0.38,0.28-0.57,0.43c0.69,0.94,1.38,1.88,2.07,2.82
				C228.51,391.15,228.72,390.97,228.91,390.79z"/>
			<path class="st40" d="M229.94,319.04c7.12,13.9,14.06,28.72,18.64,43.68c0.15,0.48-0.59,0.81-0.82,0.35
				c-7.16-13.94-13.27-28.61-19.71-42.92C227.47,318.89,229.28,317.76,229.94,319.04z"/>
			<path class="st44" d="M259.27,421.96c-1.91-2.48-4.59-5.65-7.15-8.16C253.15,420.02,255.64,422.99,259.27,421.96z"/>
			<path class="st45" d="M235.48,395.46c0.68-2.11,0.45-1.82,1.06-3.92c5.96-5.15,14.26-10.86,17.7-12.83
				c0.63,1.48,1.23,2.99,1.78,4.53c2.44,6.88,4.53,14.06,6.68,21.03c1.25,4.06,2.3,9,3.46,13.07c-2.35-3.26-3.39-6.09-5.55-10.2
				c0.15,2.73,1.61,4.02,2.55,6.47c0.79,2.08,2.49,3.64,3.46,5.59c0.7,1.42-0.1,2.26-0.97,2.52c-2.04,0.65-4.58,0.87-5.62,0.09
				c-1.26-0.94-2.52-2.52-3.46-3.77c-2.92-3.84-5.8-7.72-8.53-11.7c-2.39-3.51-3.83-3.98-6.82-1.29c-1.01,0.9-2.05,2.05-3.07,2.95
				c-1,0.88-2.11,1.85-3.33,2.32c-0.69,0.26-2.47-0.13-3.11-0.65c-0.35-0.28-0.31-1.92-0.09-2.61
				C232.86,403.22,234.22,399.32,235.48,395.46z"/>
			<path class="st44" d="M240,404.47c1.19-4.28,5.53-3.04,8.01-0.63c2.3,2.25,4.27,5.05,6.34,7.53c3.02,3.65,6.68,9.8,12.05,9.7
				c0.03,0,0.06,0.03,0.04,0.06c-1.79,3.39-6.43,0.62-8.11-0.98c-2.14-2.01-3.74-5.4-5.68-7.6c-1.31-1.5-5.81-10.4-11.17-7.47
				C240.49,405.61,239.68,405.64,240,404.47z"/>
			<path d="M185.63,318.61c7.4,8.06,12.16,17.67,16.86,27.34c5.8,11.94,11.58,23.9,17.3,35.89c0.59,1.23,0.38,2.91,1.07,4.05
				c1.92,3.18,3.98,6.32,6.27,9.26c1.42,1.82,2.95,2.33,4.65,1.58c1.17-0.97,2.13-1.86,3.32-2.98c-0.32,1.17-0.65,2.33-1,3.48
				c-0.97,3.08-1.98,6.15-3.13,9.17c-0.54,1.44-1.1,2.76,0.23,4.02c1.19,1.12,3.05,1.36,4.65,0.37c1.31-0.82,2.42-1.94,3.58-2.98
				c0.69-0.63,1.22-1.45,1.95-2.02c1.78-1.36,3.89-1.19,5.24,0.54c1.6,2.05,3.84,4.06,4.42,6.72c0.69,3.21,1.47,4.96,2.89,7.25
				c1.53,2.42,2.96,2.71,6.05,2.41c0.56-0.06,3.27,2.07,6.56,0.31c2.45-1.32,2.14-1.82,0.38-5.99c0,0-4.58-18.17-7.84-28.09
				c-1.12-3.4-2.38-6.74-3.76-10.02c-0.01-0.04-0.03-0.07-0.04-0.1c1.01-0.57,1.94-1.17,2.13-1.78c0.44-1.89-2.86-8.5-5.85-11.87
				c-0.45-0.51-0.75-1.22-0.94-1.88c-4.11-14.48-10.46-28.04-17.34-41.35c-3.39-6.54-6.79-13.09-10.33-19.55
				c-5.22-9.54-13.57-15.58-23.3-19.8c-2.42-1.04-5.47-1.35-8.11-1.01c-6.34,0.78-10.79,5.97-11.87,13.29
				C178.39,303.56,179.41,311.83,185.63,318.61z M252.55,414.61c2.32,2.6,4.37,4.93,6.5,7.31
				C255.97,422.08,254.1,420.02,252.55,414.61z M235.88,395.64c0.38-1.17,0.75-2.38,1.12-3.58c4.65-4.14,11.42-9.27,16.7-12.36
				c0.12-0.06,0.23-0.13,0.35-0.21c0.53,1.26,1.04,2.52,1.5,3.82c2.44,6.88,4.48,13.91,6.62,20.9c1.25,4.06,2.36,8.17,3.52,12.25
				c-2.35-3.26-3.84-7.13-5.47-10.51c0.15,2.73,3.83,9.8,6.47,14.26c0.43,0.72-2.2,1.83-3.36,1.88c-2.35,0.12-3.2-1.13-4.87-3.08
				c-0.72-0.84-1.54-1.72-2.22-2.58c-2.71-3.51-5.34-7.1-7.92-10.73c-2.22-3.1-4.8-3.48-7.66-0.91c-1.01,0.9-1.78,2.05-2.79,2.96
				c-1,0.88-2.07,1.82-3.29,2.29c-0.69,0.26-1.91-0.12-2.54-0.63c-0.35-0.28-0.19-1.48,0.03-2.19
				C233.3,403.34,234.62,399.51,235.88,395.64z M223.48,381.96c6.97-7.65,16.08-11.7,25.59-15.07c1.34-0.47,2.45,0.03,3.14,1.13
				c1.23,1.94,2.45,3.89,3.42,5.96c0.94,2,0.69,2.3-1.85,3.96c-0.82-2.76-1.58-5.56-4.31-7.15c1.22,2.54,2.45,5.08,3.71,7.72
				c-3.58,2.45-6.85,4.7-10.14,6.93l-0.01-0.01c-3.36,2.92-6.72,5.85-10.08,8.76c-2.35,2.04-3.4,2.11-5.37-0.29
				c-1.75-2.13-3.24-4.5-4.65-6.88C221.4,384.4,221.41,384.23,223.48,381.96z M181.78,292.92c0.38-1.83,1.36-3.62,2.41-5.21
				c1.66-2.49,4.02-4.23,7.09-4.55c3.65-0.4,7.25-0.16,10.54,1.73c5.58,3.2,10.89,6.75,15.07,11.74c1.16,1.38,2.44,2.73,3.3,4.3
				c9.79,17.62,19.35,35.36,26.34,54.37c1.14,3.14,2.1,6.34,3.21,9.73c-10.7,3.6-19.78,9.16-28.01,16.83
				c-0.66-1.23-1.13-2.05-1.54-2.92c-5.91-12.28-11.8-24.58-17.74-36.85c-3.96-8.16-8.17-16.16-14.48-22.83
				c-1.07-1.13-1.82-2.55-2.76-3.82C180.04,308.52,180.16,300.8,181.78,292.92z"/>
		</g>
		<g>
			<g>
				<path class="st42" d="M145.09,293.17c-0.38-1.83-1.72-4.46-2.77-6.05c-1.66-2.49-4.36-4.08-7.43-4.4
					c-3.65-0.4-7.79,0-11.08,1.89c-5.58,3.2-10.68,6.22-14.86,11.21c-1.16,1.38-3.04,3.48-3.9,5.03
					c-9.8,17.62-19.11,35.17-26.09,54.16c-1.14,3.14-2.16,6.82-3.27,10.2c-0.19,0.44-0.21,0.95-0.1,1.53
					c-0.75,0.1-1.36,0.56-1.82,1.28c-1.23,1.94-2.45,3.89-3.42,5.96c-0.94,2-0.66,2.76,1.88,4.42c3.43,2.1,17.43,12.87,20.79,15.79
					c2.35,2.04,3.4,2.11,5.37-0.29c1.75-2.13,3.24-4.5,4.65-6.88c1.17-1.98,1.44-2.55,0.6-3.71c0.35-0.25,0.66-0.56,0.9-0.94
					c0.66-1.23,1.48-2.8,1.89-3.65c5.91-12.28,11.55-24.39,17.51-36.66c3.96-8.16,7.79-15.5,14.1-22.17
					c1.07-1.13,2.71-3.27,3.65-4.53C146.85,308.44,146.72,301.05,145.09,293.17z"/>
				<g>
					<g>
						<defs>
							<path id="SVGID_51_" d="M145.09,293.17c-0.38-1.83-1.72-4.46-2.77-6.05c-1.66-2.49-4.36-4.08-7.43-4.4
								c-3.65-0.4-7.79,0-11.08,1.89c-5.58,3.2-10.68,6.22-14.86,11.21c-1.16,1.38-3.04,3.48-3.9,5.03
								c-9.8,17.62-19.11,35.17-26.09,54.16c-1.14,3.14-2.16,6.82-3.27,10.2c-0.19,0.44-0.21,0.95-0.1,1.53
								c-0.75,0.1-1.36,0.56-1.82,1.28c-1.23,1.94-2.45,3.89-3.42,5.96c-0.94,2-0.66,2.76,1.88,4.42
								c3.43,2.1,17.43,12.87,20.79,15.79c2.35,2.04,3.4,2.11,5.37-0.29c1.75-2.13,3.24-4.5,4.65-6.88c1.17-1.98,1.44-2.55,0.6-3.71
								c0.35-0.25,0.66-0.56,0.9-0.94c0.66-1.23,1.48-2.8,1.89-3.65c5.91-12.28,11.55-24.39,17.51-36.66
								c3.96-8.16,7.79-15.5,14.1-22.17c1.07-1.13,2.71-3.27,3.65-4.53C146.85,308.44,146.72,301.05,145.09,293.17z"/>
						</defs>
						<clipPath id="SVGID_8_">
							<use xlink:href="#SVGID_51_"  style="overflow:visible;"/>
						</clipPath>
						<path style="clip-path:url(#SVGID_8_);fill:#692872;" d="M147.57,292.65c0.01-2.83-4.33-2.83-4.39,0
							c-0.26,10.71-3.55,18.33-10.1,26.66c-4.71,6-9.02,12.27-12.87,18.86c-4.2,7.2-7.82,14.69-11.08,22.35
							c-2.29,5.39-5.03,11.12-6.31,16.96c-1.5-1.1-3.07-2.1-4.58-2.99c-1.31-0.76-4.34-3.3-5.88-2.19
							c-0.51,0.38-0.21,1.12,0.43,1.01c0.43-0.07,2.3,2.25,2.67,2.61c0.95,0.94,1.91,1.88,2.91,2.77c1.23,1.12,2.52,2.27,3.89,3.32
							c-0.12,0.1-0.22,0.21-0.31,0.35c-1.03,1.53-2.13,2.98-3.38,4.33c-0.88,0.97-1.58,1.67-2.47,2.02
							c-2.14-1.57-4.73-2.79-6.3-3.79c-1.28-0.81-2.6-1.69-3.96-2.58c-4.53-3.86-9.22-7.45-15.14-9.32
							c-2.82-0.88-4.05,3.39-1.45,4.45c0.07,0.16,0.18,0.31,0.32,0.45c3.27,3.32,7.91,5.3,11.87,7.72c1.73,1.06,3.45,2.16,5.17,3.26
							c3.02,2.71,6.02,5.47,9.27,7.78c1.72,1.22,3.68-0.47,3.83-2.2c0.03-0.28,0.01-0.56-0.01-0.84c1.12-1.36,2.14-2.8,3.05-4.27
							c1.07-1.72,2.52-3.82,2.17-5.91c1.38-0.03,2.38-1.88,1.25-3.08c-0.23-0.26-0.53-0.5-0.79-0.73c0.03-0.04,0.04-0.07,0.06-0.12
							c0.21,0.38,0.85,0.4,1.12,0c3.83-5.87,5.88-12.96,8.86-19.3c3.02-6.46,6.31-12.8,9.93-18.94
							c6.35-10.79,17.21-21.07,20.46-33.27c0.15-0.54,0.06-1-0.15-1.35C147.03,302.16,147.56,297.42,147.57,292.65z"/>
					</g>
				</g>
			</g>
			<path d="M95.68,383.37c-1.86,1.97-3.73,3.95-5.58,5.91c-0.22-0.21-0.45-0.41-0.67-0.62c1.85-1.98,3.7-3.95,5.55-5.93
				C95.21,382.94,95.45,383.16,95.68,383.37z"/>
			<path d="M82.93,385.42c-0.4-3.15,2-4.87,4.01-6.78c-1.34,2.25-2.67,4.48-4.01,6.74C82.95,385.41,82.93,385.42,82.93,385.42z"/>
			<path d="M77.99,378.22c1.09-1.6,2.17-3.2,3.27-4.8c0.22,0.15,0.44,0.29,0.66,0.43c-1.07,1.64-2.16,3.27-3.23,4.92
				C78.44,378.59,78.21,378.41,77.99,378.22z"/>
			<path d="M97.06,390.79c0.7-0.9,1.41-1.79,2.1-2.7c0.19,0.15,0.38,0.28,0.57,0.43c-0.69,0.94-1.38,1.88-2.07,2.82
				C97.47,391.15,97.27,390.97,97.06,390.79z"/>
			<path class="st40" d="M96.04,319.04c-7.12,13.9-14.06,28.72-18.64,43.68c-0.15,0.48,0.59,0.81,0.82,0.35
				c7.16-13.94,13.27-28.61,19.71-42.92C98.52,318.89,96.7,317.76,96.04,319.04z"/>
			<path class="st44" d="M66.7,421.96c1.91-2.48,4.59-5.65,7.15-8.16C72.82,420.02,70.34,422.99,66.7,421.96z"/>
			<path class="st45" d="M90.5,395.46c-0.68-2.11-0.45-1.82-1.06-3.92c-5.96-5.15-14.26-10.86-17.7-12.83
				c-0.63,1.48-1.23,2.99-1.78,4.53c-2.44,6.88-4.53,14.06-6.68,21.03c-1.25,4.06-2.3,9-3.46,13.07c2.35-3.26,3.39-6.09,5.55-10.2
				c-0.15,2.73-1.61,4.02-2.55,6.47c-0.79,2.08-2.49,3.64-3.46,5.59c-0.7,1.42,0.1,2.26,0.97,2.52c2.04,0.65,4.58,0.87,5.62,0.09
				c1.26-0.94,2.52-2.52,3.46-3.77c2.92-3.84,5.8-7.72,8.53-11.7c2.39-3.51,3.83-3.98,6.82-1.29c1.01,0.9,2.05,2.05,3.07,2.95
				c1,0.88,2.11,1.85,3.33,2.32c0.69,0.26,2.47-0.13,3.11-0.65c0.35-0.28,0.31-1.92,0.09-2.61
				C93.13,403.22,91.75,399.32,90.5,395.46z"/>
			<path class="st44" d="M85.97,404.47c-1.19-4.28-5.53-3.04-8.01-0.63c-2.3,2.25-4.27,5.05-6.34,7.53
				c-3.02,3.65-6.68,9.8-12.05,9.7c-0.03,0-0.06,0.03-0.04,0.06c1.79,3.39,6.43,0.62,8.11-0.98c2.14-2.01,3.74-5.4,5.68-7.6
				c1.31-1.5,5.81-10.4,11.17-7.47C85.5,405.61,86.31,405.64,85.97,404.47z"/>
			<path d="M146.31,294.84c-1.09-7.34-5.53-12.53-11.87-13.29c-2.64-0.32-5.69-0.03-8.11,1.01c-9.71,4.21-18.06,10.26-23.3,19.8
				c-3.54,6.46-6.94,13-10.33,19.55c-6.88,13.32-13.24,26.87-17.34,41.35c-0.19,0.66-0.5,1.36-0.94,1.88
				c-2.99,3.39-6.3,9.99-5.85,11.87c0.19,0.6,1.13,1.2,2.13,1.78c-0.01,0.04-0.03,0.06-0.04,0.1c-1.38,3.27-2.64,6.62-3.76,10.02
				c-3.26,9.92-7.84,28.09-7.84,28.09c-1.76,4.15-2.08,4.67,0.38,5.99c3.29,1.76,6-0.37,6.56-0.31c3.08,0.31,4.52,0.01,6.05-2.41
				c1.44-2.29,2.2-4.04,2.89-7.25c0.57-2.64,2.82-4.67,4.42-6.72c1.35-1.73,3.46-1.91,5.24-0.54c0.73,0.56,1.25,1.39,1.95,2.03
				c1.16,1.04,2.27,2.17,3.58,2.98c1.6,1,3.46,0.73,4.65-0.37c1.34-1.25,0.78-2.57,0.23-4.02c-1.13-3.02-2.16-6.09-3.13-9.17
				c-0.35-1.13-0.67-2.3-1-3.48c1.2,1.1,2.16,2,3.32,2.98c1.7,0.76,3.23,0.23,4.65-1.58c2.3-2.92,4.34-6.06,6.27-9.26
				c0.69-1.14,0.47-2.8,1.07-4.05c5.72-11.99,11.5-23.95,17.3-35.89c4.7-9.68,9.46-19.3,16.86-27.34
				C146.56,311.83,147.6,303.56,146.31,294.84z M66.94,421.92c2.11-2.38,4.18-4.71,6.5-7.31C71.87,420.02,70,422.08,66.94,421.92z
				 M93.91,407.21c0.22,0.69,0.38,1.89,0.03,2.19c-0.65,0.51-1.85,0.91-2.54,0.63c-1.22-0.47-2.29-1.39-3.29-2.29
				c-1.01-0.9-1.79-2.05-2.79-2.96c-2.86-2.57-5.44-2.17-7.66,0.91c-2.58,3.61-5.19,7.2-7.92,10.73c-0.68,0.87-1.5,1.75-2.22,2.58
				c-1.67,1.95-2.52,3.2-4.87,3.08c-1.14-0.06-3.79-1.16-3.36-1.88c2.64-4.46,6.34-11.53,6.47-14.26
				c-1.63,3.38-3.13,7.25-5.47,10.51c1.17-4.08,2.27-8.19,3.52-12.25c2.14-6.98,4.18-14.01,6.62-20.9c0.45-1.29,0.97-2.55,1.5-3.82
				c0.12,0.07,0.23,0.13,0.35,0.21c5.28,3.08,12.05,8.23,16.7,12.36c0.37,1.2,0.73,2.41,1.12,3.58
				C91.35,399.51,92.69,403.34,93.91,407.21z M103.05,387.01c-1.41,2.38-2.91,4.75-4.65,6.88c-1.98,2.41-3.02,2.33-5.37,0.29
				c-3.36-2.92-6.72-5.84-10.08-8.76l-0.01,0.01c-3.27-2.25-6.56-4.48-10.14-6.93c1.26-2.64,2.49-5.18,3.71-7.72
				c-2.71,1.58-3.49,4.39-4.31,7.15c-2.54-1.66-2.79-1.97-1.85-3.96c0.97-2.07,2.19-4.02,3.42-5.96c0.7-1.1,1.8-1.6,3.14-1.13
				c9.49,3.38,18.62,7.41,25.59,15.07C104.58,384.23,104.59,384.4,103.05,387.01z M140.78,315.41c-0.94,1.26-1.69,2.69-2.76,3.82
				c-6.31,6.68-10.52,14.69-14.48,22.83c-5.96,12.27-11.83,24.56-17.74,36.85c-0.41,0.85-0.88,1.69-1.54,2.92
				c-8.22-7.67-17.3-13.24-28.01-16.83c1.12-3.39,2.07-6.59,3.21-9.73c6.97-18.99,16.55-36.73,26.34-54.37
				c0.87-1.57,2.14-2.91,3.3-4.3c4.18-4.99,9.49-8.54,15.07-11.74c3.29-1.89,6.9-2.13,10.54-1.73c3.07,0.34,5.43,2.07,7.09,4.55
				c1.06,1.58,2.04,3.38,2.41,5.21C145.82,300.8,145.94,308.52,140.78,315.41z"/>
		</g>
		<g>
			<g>
				<path class="st42" d="M145.09,293.17c-0.38-1.83-1.72-4.46-2.77-6.05c-1.66-2.49-4.36-4.08-7.43-4.4
					c-3.65-0.4-7.79,0-11.08,1.89c-5.58,3.2-10.68,6.22-14.86,11.21c-1.16,1.38-3.04,3.48-3.9,5.03
					c-9.8,17.62-19.11,35.17-26.09,54.16c-1.14,3.14-2.16,6.82-3.27,10.2c-0.19,0.44-0.21,0.95-0.1,1.53
					c-0.75,0.1-1.36,0.56-1.82,1.28c-1.23,1.94-2.45,3.89-3.42,5.96c-0.94,2-0.66,2.76,1.88,4.42c3.43,2.1,17.43,12.87,20.79,15.79
					c2.35,2.04,3.4,2.11,5.37-0.29c1.75-2.13,3.24-4.5,4.65-6.88c1.17-1.98,1.44-2.55,0.6-3.71c0.35-0.25,0.66-0.56,0.9-0.94
					c0.66-1.23,1.48-2.8,1.89-3.65c5.91-12.28,11.55-24.39,17.51-36.66c3.96-8.16,7.79-15.5,14.1-22.17
					c1.07-1.13,2.71-3.27,3.65-4.53C146.85,308.44,146.72,301.05,145.09,293.17z"/>
				<g>
					<g>
						<defs>
							<path id="SVGID_53_" d="M145.09,293.17c-0.38-1.83-1.72-4.46-2.77-6.05c-1.66-2.49-4.36-4.08-7.43-4.4
								c-3.65-0.4-7.79,0-11.08,1.89c-5.58,3.2-10.68,6.22-14.86,11.21c-1.16,1.38-3.04,3.48-3.9,5.03
								c-9.8,17.62-19.11,35.17-26.09,54.16c-1.14,3.14-2.16,6.82-3.27,10.2c-0.19,0.44-0.21,0.95-0.1,1.53
								c-0.75,0.1-1.36,0.56-1.82,1.28c-1.23,1.94-2.45,3.89-3.42,5.96c-0.94,2-0.66,2.76,1.88,4.42
								c3.43,2.1,17.43,12.87,20.79,15.79c2.35,2.04,3.4,2.11,5.37-0.29c1.75-2.13,3.24-4.5,4.65-6.88c1.17-1.98,1.44-2.55,0.6-3.71
								c0.35-0.25,0.66-0.56,0.9-0.94c0.66-1.23,1.48-2.8,1.89-3.65c5.91-12.28,11.55-24.39,17.51-36.66
								c3.96-8.16,7.79-15.5,14.1-22.17c1.07-1.13,2.71-3.27,3.65-4.53C146.85,308.44,146.72,301.05,145.09,293.17z"/>
						</defs>
						<clipPath id="SVGID_10_">
							<use xlink:href="#SVGID_53_"  style="overflow:visible;"/>
						</clipPath>
						<path class="st43" d="M147.57,292.65c0.01-2.83-4.33-2.83-4.39,0c-0.26,10.71-3.55,18.33-10.1,26.66
							c-4.71,6-9.02,12.27-12.87,18.86c-4.2,7.2-7.82,14.69-11.08,22.35c-2.29,5.39-5.03,11.12-6.31,16.96
							c-1.5-1.1-3.07-2.1-4.58-2.99c-1.31-0.76-4.34-3.3-5.88-2.19c-0.51,0.38-0.21,1.12,0.43,1.01c0.43-0.07,2.3,2.25,2.67,2.61
							c0.95,0.94,1.91,1.88,2.91,2.77c1.23,1.12,2.52,2.27,3.89,3.32c-0.12,0.1-0.22,0.21-0.31,0.35c-1.03,1.53-2.13,2.98-3.38,4.33
							c-0.88,0.97-1.58,1.67-2.47,2.02c-2.14-1.57-4.73-2.79-6.3-3.79c-1.28-0.81-2.6-1.69-3.96-2.58
							c-4.53-3.86-9.22-7.45-15.14-9.32c-2.82-0.88-4.05,3.39-1.45,4.45c0.07,0.16,0.18,0.31,0.32,0.45
							c3.27,3.32,7.91,5.3,11.87,7.72c1.73,1.06,3.45,2.16,5.17,3.26c3.02,2.71,6.02,5.47,9.27,7.78c1.72,1.22,3.68-0.47,3.83-2.2
							c0.03-0.28,0.01-0.56-0.01-0.84c1.12-1.36,2.14-2.8,3.05-4.27c1.07-1.72,2.52-3.82,2.17-5.91c1.38-0.03,2.38-1.88,1.25-3.08
							c-0.23-0.26-0.53-0.5-0.79-0.73c0.03-0.04,0.04-0.07,0.06-0.12c0.21,0.38,0.85,0.4,1.12,0c3.83-5.87,5.88-12.96,8.86-19.3
							c3.02-6.46,6.31-12.8,9.93-18.94c6.35-10.79,17.21-21.07,20.46-33.27c0.15-0.54,0.06-1-0.15-1.35
							C147.03,302.16,147.56,297.42,147.57,292.65z"/>
					</g>
				</g>
			</g>
			<path d="M95.68,383.37c-1.86,1.97-3.73,3.95-5.58,5.91c-0.22-0.21-0.45-0.41-0.67-0.62c1.85-1.98,3.7-3.95,5.55-5.93
				C95.21,382.94,95.45,383.16,95.68,383.37z"/>
			<path d="M82.93,385.42c-0.4-3.15,2-4.87,4.01-6.78c-1.34,2.25-2.67,4.48-4.01,6.74C82.95,385.41,82.93,385.42,82.93,385.42z"/>
			<path d="M77.99,378.22c1.09-1.6,2.17-3.2,3.27-4.8c0.22,0.15,0.44,0.29,0.66,0.43c-1.07,1.64-2.16,3.27-3.23,4.92
				C78.44,378.59,78.21,378.41,77.99,378.22z"/>
			<path d="M97.06,390.79c0.7-0.9,1.41-1.79,2.1-2.7c0.19,0.15,0.38,0.28,0.57,0.43c-0.69,0.94-1.38,1.88-2.07,2.82
				C97.47,391.15,97.27,390.97,97.06,390.79z"/>
			<path class="st40" d="M96.04,319.04c-7.12,13.9-14.06,28.72-18.64,43.68c-0.15,0.48,0.59,0.81,0.82,0.35
				c7.16-13.94,13.27-28.61,19.71-42.92C98.52,318.89,96.7,317.76,96.04,319.04z"/>
			<path class="st44" d="M66.7,421.96c1.91-2.48,4.59-5.65,7.15-8.16C72.82,420.02,70.34,422.99,66.7,421.96z"/>
			<path class="st45" d="M90.5,395.46c-0.68-2.11-0.45-1.82-1.06-3.92c-5.96-5.15-14.26-10.86-17.7-12.83
				c-0.63,1.48-1.23,2.99-1.78,4.53c-2.44,6.88-4.53,14.06-6.68,21.03c-1.25,4.06-2.3,9-3.46,13.07c2.35-3.26,3.39-6.09,5.55-10.2
				c-0.15,2.73-1.61,4.02-2.55,6.47c-0.79,2.08-2.49,3.64-3.46,5.59c-0.7,1.42,0.1,2.26,0.97,2.52c2.04,0.65,4.58,0.87,5.62,0.09
				c1.26-0.94,2.52-2.52,3.46-3.77c2.92-3.84,5.8-7.72,8.53-11.7c2.39-3.51,3.83-3.98,6.82-1.29c1.01,0.9,2.05,2.05,3.07,2.95
				c1,0.88,2.11,1.85,3.33,2.32c0.69,0.26,2.47-0.13,3.11-0.65c0.35-0.28,0.31-1.92,0.09-2.61
				C93.13,403.22,91.75,399.32,90.5,395.46z"/>
			<path class="st44" d="M85.97,404.47c-1.19-4.28-5.53-3.04-8.01-0.63c-2.3,2.25-4.27,5.05-6.34,7.53
				c-3.02,3.65-6.68,9.8-12.05,9.7c-0.03,0-0.06,0.03-0.04,0.06c1.79,3.39,6.43,0.62,8.11-0.98c2.14-2.01,3.74-5.4,5.68-7.6
				c1.31-1.5,5.81-10.4,11.17-7.47C85.5,405.61,86.31,405.64,85.97,404.47z"/>
			<path d="M146.31,294.84c-1.09-7.34-5.53-12.53-11.87-13.29c-2.64-0.32-5.69-0.03-8.11,1.01c-9.71,4.21-18.06,10.26-23.3,19.8
				c-3.54,6.46-6.94,13-10.33,19.55c-6.88,13.32-13.24,26.87-17.34,41.35c-0.19,0.66-0.5,1.36-0.94,1.88
				c-2.99,3.39-6.3,9.99-5.85,11.87c0.19,0.6,1.13,1.2,2.13,1.78c-0.01,0.04-0.03,0.06-0.04,0.1c-1.38,3.27-2.64,6.62-3.76,10.02
				c-3.26,9.92-7.84,28.09-7.84,28.09c-1.76,4.15-2.08,4.67,0.38,5.99c3.29,1.76,6-0.37,6.56-0.31c3.08,0.31,4.52,0.01,6.05-2.41
				c1.44-2.29,2.2-4.04,2.89-7.25c0.57-2.64,2.82-4.67,4.42-6.72c1.35-1.73,3.46-1.91,5.24-0.54c0.73,0.56,1.25,1.39,1.95,2.03
				c1.16,1.04,2.27,2.17,3.58,2.98c1.6,1,3.46,0.73,4.65-0.37c1.34-1.25,0.78-2.57,0.23-4.02c-1.13-3.02-2.16-6.09-3.13-9.17
				c-0.35-1.13-0.67-2.3-1-3.48c1.2,1.1,2.16,2,3.32,2.98c1.7,0.76,3.23,0.23,4.65-1.58c2.3-2.92,4.34-6.06,6.27-9.26
				c0.69-1.14,0.47-2.8,1.07-4.05c5.72-11.99,11.5-23.95,17.3-35.89c4.7-9.68,9.46-19.3,16.86-27.34
				C146.56,311.83,147.6,303.56,146.31,294.84z M66.94,421.92c2.11-2.38,4.18-4.71,6.5-7.31C71.87,420.02,70,422.08,66.94,421.92z
				 M93.91,407.21c0.22,0.69,0.38,1.89,0.03,2.19c-0.65,0.51-1.85,0.91-2.54,0.63c-1.22-0.47-2.29-1.39-3.29-2.29
				c-1.01-0.9-1.79-2.05-2.79-2.96c-2.86-2.57-5.44-2.17-7.66,0.91c-2.58,3.61-5.19,7.2-7.92,10.73c-0.68,0.87-1.5,1.75-2.22,2.58
				c-1.67,1.95-2.52,3.2-4.87,3.08c-1.14-0.06-3.79-1.16-3.36-1.88c2.64-4.46,6.34-11.53,6.47-14.26
				c-1.63,3.38-3.13,7.25-5.47,10.51c1.17-4.08,2.27-8.19,3.52-12.25c2.14-6.98,4.18-14.01,6.62-20.9c0.45-1.29,0.97-2.55,1.5-3.82
				c0.12,0.07,0.23,0.13,0.35,0.21c5.28,3.08,12.05,8.23,16.7,12.36c0.37,1.2,0.73,2.41,1.12,3.58
				C91.35,399.51,92.69,403.34,93.91,407.21z M103.05,387.01c-1.41,2.38-2.91,4.75-4.65,6.88c-1.98,2.41-3.02,2.33-5.37,0.29
				c-3.36-2.92-6.72-5.84-10.08-8.76l-0.01,0.01c-3.27-2.25-6.56-4.48-10.14-6.93c1.26-2.64,2.49-5.18,3.71-7.72
				c-2.71,1.58-3.49,4.39-4.31,7.15c-2.54-1.66-2.79-1.97-1.85-3.96c0.97-2.07,2.19-4.02,3.42-5.96c0.7-1.1,1.8-1.6,3.14-1.13
				c9.49,3.38,18.62,7.41,25.59,15.07C104.58,384.23,104.59,384.4,103.05,387.01z M140.78,315.41c-0.94,1.26-1.69,2.69-2.76,3.82
				c-6.31,6.68-10.52,14.69-14.48,22.83c-5.96,12.27-11.83,24.56-17.74,36.85c-0.41,0.85-0.88,1.69-1.54,2.92
				c-8.22-7.67-17.3-13.24-28.01-16.83c1.12-3.39,2.07-6.59,3.21-9.73c6.97-18.99,16.55-36.73,26.34-54.37
				c0.87-1.57,2.14-2.91,3.3-4.3c4.18-4.99,9.49-8.54,15.07-11.74c3.29-1.89,6.9-2.13,10.54-1.73c3.07,0.34,5.43,2.07,7.09,4.55
				c1.06,1.58,2.04,3.38,2.41,5.21C145.82,300.8,145.94,308.52,140.78,315.41z"/>
		</g>
		<g>
			<g>
				<path class="st42" d="M142.82,258.48c10.3,0.48,31.21-2.63,41.26-0.31c5.14,1.17,6.85,5.99,5.34,13.22
					c-0.75,3.58-1.42,6.16-1.75,6.32l17.11,9.11c5.85,3.6,6.19,3.54,1.97,25.58l5.78,62.06c0.04,2.04-1.25,7.97-4.37,10.95
					L208,396.99c-20.79,7.5-69.88,7.5-90.04,0v-11.56c-4.7-4.23-4.33-9.67-4.24-12.09l5.02-50.6c-1.25-29.29-1.1-31.05,2.35-35.53
					l15.01-8.55c1.41-1.1,0.81-2.39,0.6-5.56C136.18,265.3,137.11,258.22,142.82,258.48z"/>
				<g>
					<g>
						<defs>
							<path id="SVGID_55_" d="M142.82,258.48c10.3,0.48,31.21-2.63,41.26-0.31c5.14,1.17,6.85,5.99,5.34,13.22
								c-0.75,3.58-1.42,6.16-1.75,6.32l17.11,9.11c5.85,3.6,6.19,3.54,1.97,25.58l5.78,62.06c0.04,2.04-1.25,7.97-4.37,10.95
								L208,396.99c-20.79,7.5-69.88,7.5-90.04,0v-11.56c-4.7-4.23-4.33-9.67-4.24-12.09l5.02-50.6
								c-1.25-29.29-1.1-31.05,2.35-35.53l15.01-8.55c1.41-1.1,0.81-2.39,0.6-5.56C136.18,265.3,137.11,258.22,142.82,258.48z"/>
						</defs>
						<clipPath id="SVGID_12_">
							<use xlink:href="#SVGID_55_"  style="overflow:visible;"/>
						</clipPath>
						<path class="st46" d="M200.53,397.51c-13.29,2.05-71.52,5.58-77.57-8.69c4.81,1.23,14.18,2.33,18.42,2.36
							c16.16,0.09,27.48-2.08,27.48-2.08s-20.12-2.64-38.14-9.77c-9.92-3.93-7.57-14.79-7.31-23.68
							c0.48-16.42,0.15-35.82-6.08-51.26c-0.15-0.37-0.81-0.38-0.76,0.1c0.9,12.18,1.39,23.67-0.44,35.83
							c-1.44,9.55-2.95,20.4-2.22,30.2c-0.78,5.94-0.85,12.68,3.73,15.97c-2.44,3.17-1.72,8.07,1.17,10.98
							c5.18,5.21,15.94,5.27,22.76,5.94c19.37,1.89,40.68,2.08,59.24-4.21C203.24,398.37,203.32,397.09,200.53,397.51z"/>
					</g>
				</g>
			</g>
			<path d="M207.25,310.37c0.26,3.46,0.62,6.93,0.79,10.39c0.73,14.38,2.8,28.58,4.84,42.82c0.62,4.27,0.47,8.67,0.35,13
				c-0.09,2.92-1.23,5.61-3.05,8c-0.59,0.78-0.94,1.92-1,2.91c-0.12,2.17,0.07,4.34,0.03,6.52c-0.07,3.27-0.65,4.17-3.77,4.75
				c-7.69,1.45-15.38,3.21-23.16,3.9c-9.36,0.82-18.81,1-28.22,0.85c-11.24-0.18-22.3-2.23-33.27-4.68
				c-3.36-0.75-3.89-1.53-3.96-4.99c-0.03-1.45-0.01-2.91,0.01-4.34c0.04-2.29-0.15-4.27-1.76-6.32c-2.19-2.77-2.85-6.47-2.54-9.99
				c0.62-7.2,1.64-14.38,2.38-21.57c1.17-11.53,2.26-23.07,3.38-34.6c0.25-2.63,0.48-5.24,1.34-7.82c0,4.4,0.35,8.85-0.07,13.21
				c-1.13,11.77-2.69,23.51-3.87,35.28c-0.6,5.99-0.82,12.02-1.17,18.03c-0.04,0.7,0.1,1.45,0.25,2.16
				c0.81,4.01,2.66,6.88,7.25,7.19c3.24,0.22,6.44,0.88,9.68,1.16c8.41,0.75,16.83,1.57,25.25,2.04c4.68,0.26,9.41,0.03,14.1-0.26
				c7.47-0.45,14.92-1.09,22.38-1.75c3.83-0.34,7.65-0.95,11.48-1.36c3.35-0.37,5.37-2.3,5.91-5.43c0.57-3.3,1.12-6.74,0.81-10.04
				c-0.76-8.29-2.17-16.52-3.01-24.8c-1.01-10.08-1.73-20.21-2.52-30.32c-0.1-1.26,0.13-2.55,0.21-3.83
				C206.65,310.41,206.96,310.4,207.25,310.37z M207.53,386.03c-29.88,4.97-59.14,5-88.59,0.06c-0.21,3.89-0.85,7.32,0.25,10.8
				c12.87,3.15,25.77,4.71,38.8,5.24c11.25,0.44,22.44-0.56,33.56-2.19c4.52-0.66,8.98-1.76,13.49-2.55
				c1.75-0.31,2.52-1.17,2.51-2.91C207.5,391.82,207.53,389.19,207.53,386.03z"/>
			<path d="M183.49,257.25c0.92,0.45,1.69,0.78,2.39,1.19c4.34,2.57,5.75,5.75,4.67,10.67c-0.54,2.47-1.22,4.89-1.88,7.56
				c7.1,4.11,14.47,7.6,21.19,12.15c-0.16,0.31-0.34,0.6-0.5,0.91c-6.9-3.71-13.79-7.41-20.81-11.18c-0.73,1.13-1.22,1.89-1.7,2.64
				c-0.19-0.06-0.37-0.12-0.56-0.18c0.31-1.83,0.57-3.67,0.95-5.47c0.5-2.36,1.14-4.7,1.67-7.04c1.06-4.73-0.07-6.85-5.03-9.24
				c-0.5,1.78-0.62,3.35,0.7,4.78c-7.26,6.78-31.92,8.88-42.53,0.44c0.21-1.51,0.38-2.91,0.6-4.56c-3.04,0.16-4.5,1.83-4.89,3.99
				c-0.47,2.55-0.45,5.25-0.25,7.87c0.23,3.07,0.91,6.09,1.47,9.66c-2.42-1.95-2.48-2.05-4.5-1c-4.83,2.48-9.6,5.08-14.38,7.63
				c-1.12,0.6-2.25,1.19-3.58,1.39c2.63-3.04,6.24-4.55,9.57-6.46c3.43-1.97,6.94-3.83,10.52-5.81c-0.35-2.52-0.79-5.02-1-7.51
				c-0.13-1.67-0.1-3.4,0.15-5.05c0.56-3.58,2.93-5.69,6.49-6.94c0-3.08,0.03-6.19,0-9.29c-0.06-5.36,2.27-9.55,6.37-12.78
				c5.56-4.37,11.84-5.46,18.78-4.11c12.38,2.41,16.48,9.79,16.08,20C183.43,253.4,183.49,255.34,183.49,257.25z M144.31,264.44
				c10.62,5.5,29,4.46,37.32-0.28c0-5.37,0.09-10.68-0.03-15.97c-0.15-6.75-3.49-11.25-9.86-13.66c-4.52-1.7-9.23-1.92-13.91-1.38
				c-7.5,0.85-13.82,7.79-13.93,15.28C143.83,253.71,144.15,259.01,144.31,264.44z"/>
			<path d="M145.47,355.96c6.84,3.79,13.85,7,21.59,8.61c7.75,1.61,15.53,2.02,23.4,1.56c-3.29,1.6-6.82,1.95-10.35,1.72
				c-6.5-0.43-12.94-1.38-19.18-3.39C155.25,362.62,150.04,359.95,145.47,355.96z"/>
			<path d="M150.02,280.15c-1.63-3.36-1.92-6.15-1.42-9.07C149.67,273.74,150.34,276.47,150.02,280.15z"/>
			<path d="M144.4,279.29c-2.38-2.69-3.13-5.81-2.44-9.3C142.79,273.08,143.59,276.19,144.4,279.29z"/>
			<path d="M183.84,271.32c-0.5,2.85-0.98,5.69-1.48,8.54c-0.31-0.04-0.6-0.1-0.91-0.15c0.43-2.89,0.85-5.77,1.28-8.66
				C183.11,271.16,183.48,271.23,183.84,271.32z"/>
			<path d="M155.79,273.58c0.15,2.39,0.28,4.78,0.45,7.75C154.39,278.47,154.23,276.44,155.79,273.58z"/>
			<path d="M169.74,280.53c0.26-2.19,0.53-4.37,0.79-6.56C171.39,276.29,171.64,278.55,169.74,280.53z"/>
			<path d="M162.63,281.09c-0.19-2.38-0.82-4.65-0.13-7.4C163.86,277.83,163.87,279.33,162.63,281.09z"/>
			<path d="M176.45,274.58c1.29,1.89,0.92,3.67-0.28,5.39C176.27,278.17,176.36,276.37,176.45,274.58z"/>
			<path d="M167.42,400.04c-0.16-2.54-0.32-5.08-0.51-7.92C168.48,394.04,168.54,394.49,167.42,400.04z"/>
			<path d="M182.49,392.33c0,2.14,0,4.28,0,6.9C181.35,396.93,181.28,395.87,182.49,392.33z"/>
			<path d="M175.22,392.26c1.13,2.17,1.26,4.42,0,6.75C175.22,396.77,175.22,394.51,175.22,392.26z"/>
			<path d="M137.28,397.24c-0.15-2.11-0.51-4.26,0.79-6.24c0,2.05,0,4.12,0,6.18C137.81,397.21,137.55,397.22,137.28,397.24z"/>
			<path d="M144.91,391.51c0,2.42,0,4.86,0,7.79C143.67,396.72,143.67,395.8,144.91,391.51z"/>
			<path d="M132.44,390.41c0,1.85,0,3.68,0,5.53C131.14,394.11,131.62,392.31,132.44,390.41z"/>
			<path d="M203.4,390.19c0,1.69,0,3.38,0,5.06c-0.23,0-0.47,0-0.7,0c0-1.69,0-3.38,0-5.05
				C202.94,390.21,203.17,390.21,203.4,390.19z"/>
			<path d="M120.34,394.45c0-1.64,0-3.27,0-4.92c0.18,0,0.35-0.01,0.51-0.01c0,1.67,0,3.35,0,5
				C120.69,394.49,120.51,394.46,120.34,394.45z"/>
			<path d="M157.61,399.7c0-2.29,0-4.58,0-6.85c0.15,0,0.29,0,0.44,0c0,2.29,0,4.58,0,6.85C157.92,399.7,157.77,399.7,157.61,399.7z
				"/>
			<path d="M150.86,392.39c0,2.23,0,4.45,0,6.68c-0.16,0-0.32,0.01-0.48,0.01c0-2.25,0-4.49,0-6.74
				C150.53,392.35,150.7,392.36,150.86,392.39z"/>
			<path d="M189.38,397.09c-0.12-2.19-0.22-4.36-0.35-6.94C190.55,392.48,190.58,392.79,189.38,397.09z"/>
			<path d="M197.37,390.65c0.12,1.85,0.22,3.7,0.34,5.55C196.6,394.48,196.6,394.48,197.37,390.65z"/>
			<path d="M125.41,390.06c0,1.42,0,2.85,0,4.27c-0.13,0-0.25,0.01-0.38,0.01c0-1.48,0-2.96,0-4.45
				C125.16,389.96,125.28,390,125.41,390.06z"/>
			<g>
				<path class="st45" d="M144.31,264.44c-0.15-5.43-0.48-10.73-0.41-16.02c0.1-7.47,6.43-14.42,13.93-15.28
					c4.68-0.53,9.39-0.32,13.91,1.38c6.37,2.41,9.73,6.91,9.86,13.66c0.1,5.3,0.03,10.59,0.03,15.97
					C173.31,268.91,154.92,269.94,144.31,264.44z"/>
				<g>
					<g>
						<defs>
							<path id="SVGID_57_" d="M144.31,264.44c-0.15-5.43-0.48-10.73-0.41-16.02c0.1-7.47,6.43-14.42,13.93-15.28
								c4.68-0.53,9.39-0.32,13.91,1.38c6.37,2.41,9.73,6.91,9.86,13.66c0.1,5.3,0.03,10.59,0.03,15.97
								C173.31,268.91,154.92,269.94,144.31,264.44z"/>
						</defs>
						<clipPath id="SVGID_14_">
							<use xlink:href="#SVGID_57_"  style="overflow:visible;"/>
						</clipPath>
						<path style="clip-path:url(#SVGID_14_);fill:#D9A08C;" d="M163.05,267.84c-5.46-8.47-9.19-24.09-4.01-33.16
							c0.9-1.56-0.63-4.14-2.57-3.33c-0.59,0.23-1.12,0.48-1.63,0.73c-0.57-0.16-1.22-0.1-1.88,0.29c-3.79,2.32-7.44,5-9.39,8.63
							c-0.88,0.03-1.76,0.6-1.8,1.73c-0.18,4.68-0.26,9.29,0.15,13.88c0.04,2.58,0.23,5.17,0.66,7.76c0.13,0.79,0.7,1.26,1.38,1.42
							c0.79,0.62,2.01,0.56,2.71-0.12c0.22,0.06,0.45,0.06,0.69,0.03c2.16,1.47,5.03,2.57,8.48,4.02c0.15,0.06,0.28,0.1,0.43,0.13
							c0.12,0.07,0.21,0.16,0.32,0.23c0.82,0.48,1.66,0.41,2.35,0.01c0.22,0.06,0.44,0.07,0.68,0.06
							C161.26,271.95,164.47,270.04,163.05,267.84z"/>
					</g>
				</g>
			</g>
			<path class="st50" d="M204.53,395.42c-0.16-0.01-0.34-0.03-0.5-0.03c-0.78-0.06-0.78,1.26,0,1.2c0.16-0.01,0.34-0.03,0.5-0.03
				C205.25,396.49,205.25,395.46,204.53,395.42z"/>
			<path class="st40" d="M209.05,351.29c-1.28-12.55-4.52-24.81-4.97-37.45c-0.01-0.43-0.63-0.43-0.66,0
				c-1.5,21.73,4.62,43.42,0.32,65.02c-0.41,2.08,2.45,3.55,3.58,1.51C211.95,372.1,209.96,360.29,209.05,351.29z"/>
		</g>
		<path class="st35" d="M43.55,121.38c0,2.26,0.26,4.92,0.28,7.09c0.15,12.68,0.72,25.03,0.38,37.7
			c-0.21,7.41-1.88,17.02-2.86,24.36c3.89,0.59,8.44,2.33,12.15,1.53c2.04-11.5,4.26-25.75,5.83-37.32
			c1.47-10.89,2.44-21.29,3.6-32.21c0.19-1.85,0.19-5.28,0.19-7.28C56.87,117.05,49.42,119.69,43.55,121.38z"/>
		<g>
			<path class="st45" d="M275.56,126.47c3.71-1.73,6.69-0.56,9.38,1.41c6.38,4.65,10.02,12.94,8.1,20.62
				c-1.14,4.55-4.14,10.23-6.62,12.37c-0.66-3.11-3.21-5.66-5.39-6.62c-1.13-0.73-1.78-0.82-3.11-0.19
				C277.04,144.7,276.41,135.34,275.56,126.47z"/>
			<g>
				<g>
					<defs>
						<path id="SVGID_59_" d="M275.56,126.47c3.71-1.73,6.69-0.56,9.38,1.41c6.38,4.65,10.02,12.94,8.1,20.62
							c-1.14,4.55-4.14,10.23-6.62,12.37c-0.66-3.11-3.21-5.66-5.39-6.62c-1.13-0.73-1.78-0.82-3.11-0.19
							C277.04,144.7,276.41,135.34,275.56,126.47z"/>
					</defs>
					<clipPath id="SVGID_16_">
						<use xlink:href="#SVGID_59_"  style="overflow:visible;"/>
					</clipPath>
					<path style="clip-path:url(#SVGID_16_);fill:#D9A08C;" d="M294.27,140c0-0.06,0-0.12,0.01-0.18h-0.03
						c-0.03-0.35-0.06-0.69-0.12-1.04c-0.65-4.4-7.75-3.29-7.67,1.04c0.01,0.94-0.01,1.86-0.09,2.77
						c-1.42,7.67-12.36,10.67-10.67,19.34c0.85,4.34,7.15,3.92,8.39,0.29c2.52-1.34,4.52-4.05,5.91-6.46
						c1.39-2.39,2.42-4.95,3.13-7.59C294.18,145.58,294.53,142.88,294.27,140z"/>
				</g>
			</g>
		</g>
		<g>
			<path class="st45" d="M43.27,131.17c0,8.94,0.18,18.77,0.18,27.85c-1.44-0.28-3.14-0.53-4.56-0.84c-3.24-1.23-6.47,4.12-6.87,7
				c-8.97-9.7-8.2-23.74-0.53-31.49C34.99,130.16,39.03,129.29,43.27,131.17z"/>
			<g>
				<g>
					<defs>
						<path id="SVGID_61_" d="M43.27,131.17c0,8.94,0.18,18.77,0.18,27.85c-1.44-0.28-3.14-0.53-4.56-0.84
							c-3.24-1.23-6.47,4.12-6.87,7c-8.97-9.7-8.2-23.74-0.53-31.49C34.99,130.16,39.03,129.29,43.27,131.17z"/>
					</defs>
					<clipPath id="SVGID_18_">
						<use xlink:href="#SVGID_61_"  style="overflow:visible;"/>
					</clipPath>
					<path class="st49" d="M41.3,157.64c-3.62-0.81-6.49-2.48-9.29-4.9c-2.77-2.39-4.18-5.59-6.21-8.54
						c-0.23-0.34-0.81-0.53-1.12-0.15c-3.14,3.93-2.58,9.7-0.63,14.1c2.55,5.74,8.09,9.44,14.18,10.62
						C45.47,170.2,48.61,159.28,41.3,157.64z"/>
				</g>
			</g>
		</g>
		<g>
			<path class="st45" d="M163.42,258.23c-13.43-0.56-24.01-2.02-34.54-4.39c-22.57-5.08-40.16-17.98-55.07-34.88
				c-7.98-9.05-13.05-19.99-17.18-31.28c-0.5-1.36-0.43-3.07-0.22-4.56c2.41-18.08,4.95-36.14,7.31-54.23
				c0.47-3.58,0.48-7.23,0.48-10.86c0-2.11,0.75-3.17,2.73-4.02c12-5.12,23.68-10.9,34.87-17.65c12.87-7.78,24.89-16.71,35.89-26.94
				c4.61-4.28,9.7-6.68,16.1-5.56c0.57,0.1,1.22,0.15,1.76-0.03c4.92-1.63,9.66-0.75,13.94,1.69c3.64,2.07,7,4.71,10.29,7.34
				c4.34,3.48,8.29,7.44,12.74,10.76c18.96,14.12,39.9,23.92,63.3,28c2.33,0.41,3.54,1.36,4.01,3.39
				c1.25,5.27,2.83,10.52,3.43,15.88c1.79,15.72,3.2,31.49,4.67,47.24c0.15,1.63-0.22,3.36-0.62,4.97
				c-2.39,9.51-7.34,17.81-12.34,26.09c-6.78,11.2-16.63,19.34-26.74,27.28c-13.16,10.35-28.28,16.02-44.49,19
				C176.17,256.87,168.47,257.57,163.42,258.23z"/>
			<g>
				<g>
					<defs>
						<path id="SVGID_63_" d="M163.42,258.23c-13.43-0.56-24.01-2.02-34.54-4.39c-22.57-5.08-40.16-17.98-55.07-34.88
							c-7.98-9.05-13.05-19.99-17.18-31.28c-0.5-1.36-0.43-3.07-0.22-4.56c2.41-18.08,4.95-36.14,7.31-54.23
							c0.47-3.58,0.48-7.23,0.48-10.86c0-2.11,0.75-3.17,2.73-4.02c12-5.12,23.68-10.9,34.87-17.65
							c12.87-7.78,24.89-16.71,35.89-26.94c4.61-4.28,9.7-6.68,16.1-5.56c0.57,0.1,1.22,0.15,1.76-0.03
							c4.92-1.63,9.66-0.75,13.94,1.69c3.64,2.07,7,4.71,10.29,7.34c4.34,3.48,8.29,7.44,12.74,10.76
							c18.96,14.12,39.9,23.92,63.3,28c2.33,0.41,3.54,1.36,4.01,3.39c1.25,5.27,2.83,10.52,3.43,15.88
							c1.79,15.72,3.2,31.49,4.67,47.24c0.15,1.63-0.22,3.36-0.62,4.97c-2.39,9.51-7.34,17.81-12.34,26.09
							c-6.78,11.2-16.63,19.34-26.74,27.28c-13.16,10.35-28.28,16.02-44.49,19C176.17,256.87,168.47,257.57,163.42,258.23z"/>
					</defs>
					<clipPath id="SVGID_20_">
						<use xlink:href="#SVGID_63_"  style="overflow:visible;"/>
					</clipPath>
					<path class="st51" d="M147.85,60.92c-18.24,3.13-31.08,14.48-45.5,25.06c-7.56,5.53-15.35,10.7-23.11,15.92
						c-6.21,4.18-17.07,8.61-19.4,15.88c-4.95,15.44-6,27.04-5.52,40.22c-0.84,11.8-0.67,17.46,0.57,29.88
						c1.76,17.52,24.95,42.32,47.1,56.69c0,0-58.78-77.6-12.34-134.53c12.09-5.8,21.67-12.08,25.69-14.86
						c19.65-13.6,26.96-26.71,35.53-28.72C157.92,64.81,154.79,59.74,147.85,60.92z"/>
				</g>
			</g>
		</g>
		<path class="st54" d="M277.55,154.29c4.23-0.32,6.79,1.61,7.32,5.14c0.54,3.67-1.47,6.02-6.56,7.23
			C278.05,162.5,277.8,158.39,277.55,154.29z"/>
		<path class="st54" d="M43.9,164.61c-0.07,0.95,0.03,2.29-0.32,3.49c-0.25,0.84-0.95,1.79-1.72,2.2c-2.35,1.25-4.46,0.32-6.32-1.26
			c-1.92-1.63-2.74-3.6-1.83-6.15c0.84-2.35,2.27-4.02,4.78-4.42C42.11,157.92,44.09,160.09,43.9,164.61z"/>
		<path class="st35" d="M276.32,144.32c-0.56-7.22-1.19-12.81-1.89-20.03c1.64,0.25,3.02,0.25,4.67,0.63
			c3.26,0.31,3.79,0.72,6.81,1.01c-3.52-27.09-3.55-25.21-7.18-36.27c-4.81-14.66-13.21-27.07-23.01-38.89
			c-10.37-12.52-21.34-24.68-35.82-32.78c-14.13-7.91-28.63-12.36-44.84-10.83c-6.13,0.57-11.96,1.64-19.31,8.48
			c-8.42-4.59-17.59-6.35-26.79-5.99c-9.64,0.38-19.21,3.84-27.7,8.44c-7.04,3.8-13.93,8.97-20.15,13.98
			c-9.8,7.89-19.6,16.11-28.22,25.31C41.1,69.98,37.81,85.15,37.63,101.85c-0.04,4.96-0.12,10.29-0.13,15.25c0,3.82,0,7.84,0,11.71
			c1.64,0.16,3.87,0.35,5.41,0.5c0-2.64,0.38-5.24,0.38-8.06c32.87-10.45,45.39-17.24,65.24-30.11
			c10.58-6.85,20.69-15.06,29.98-23.55c4.08-3.73,8-5.27,13.47-4.78c1.2,0.1,2.54,0.43,3.65,0.13c7.03-1.94,12.88,0.25,18.39,4.53
			c3.23,2.52,6.49,4.67,9.57,7.38c11.36,9.95,23.65,18.27,37.29,24.74c16.61,7.89,44.07,13.54,39.43,12.97
			c1.07,4.77,2.38,9.13,3.02,13.73c1.26,8.97,2.38,18.45,3.27,27.45c1.1,10.96,2.38,21.67,3.07,32.62c2.19,0,5.09,0,7.66,0
			C277.83,172.36,277.41,158.29,276.32,144.32z"/>
		<path d="M287.97,127.95c-0.68-0.72-1.13-1.83-1.26-2.83c-0.59-4.18-0.87-8.41-1.54-12.58c-1.72-10.64-3.82-21.22-8.44-31.02
			c-12.68-26.85-31.01-48.88-56.45-64.55C208.35,9.62,195.42,5.5,181.14,5.79c-9.44,0.19-18.24,1.7-25.64,7.94
			c-10.98-5.34-22.41-6.02-34.06-4.08c-9.17,1.53-17.39,5.69-25.36,10.3c-13.06,7.59-24.11,17.74-35.13,27.9
			c-2.85,2.63-5.55,5.4-8.22,8.19c-9.6,10.01-14.63,22.2-15.63,35.8c-0.78,10.58-0.41,21.25-0.56,31.89c-0.01,1.66,0,3.32,0,4.86
			c-11.06,4.15-14.91,17.74-11.52,26.82c1.72,4.62,4.45,8.47,7.59,12.21c2.77,3.32,5.59,5.28,10.18,3.45c0,1.19,0.1,2.14-0.01,3.07
			c-0.73,6.1-1.51,12.21-2.42,18.28c0.48,0,0.97,0,1.47,0c0.09-0.63,0.19-1.28,0.26-1.91c1.06-8.14,2.41-16.3,2.64-24.48
			c0.34-12.66-0.18-25.36-0.31-38.03c-0.03-2.16,0-4.33,0-6.59c5.87-1.69,11.71-3.38,17.95-5.18c0,2,0.16,3.87-0.03,5.72
			c-1.16,10.92-2.19,21.86-3.65,32.75c-1.58,11.72-3.4,23.42-5.47,35.06c-0.25,1.39-0.53,2.79-0.81,4.18c0.78,0,1.07,0,1.82,0
			c0.1-0.45,0.21-0.92,0.31-1.38c0.15-0.69,0.54-1.34,1-2.41c0.53,1.31,0.84,2.08,1.16,2.86c5.62,13.93,13.19,26.44,24.37,36.83
			c14.98,13.91,32.15,23.39,52.09,27.69c12.68,2.73,25.49,3.74,38.48,2.36c13.29-1.42,26.38-4.08,38.31-9.95
			c20.37-10.01,37.93-23.58,49.28-43.92c0.35-0.62,3.45-6.15,3.77-7c1.7-4.3,3.54-8.55,5.63-13.56c0.07,0.87,0.13,1.67,0.21,2.45
			c0.57,0,0.88,0,1.53,0c-0.65-11.52-1.97-23.01-3.13-34.5c-0.9-9.01-1.88-18.02-3.14-26.99c-0.65-4.61-1.98-9.11-3.07-13.88
			c4.65,0.57,9.41,1.16,14.23,0.03c-0.57-0.09-1.14-0.23-1.72-0.26c-18.21-1.32-35.69-5.36-52.3-13.25
			c-13.63-6.49-26.34-14.23-37.7-24.18c-3.08-2.7-6.09-5.53-9.32-8.04c-5.5-4.28-11.62-6.28-18.65-4.34
			c-1.12,0.31-2.41,0.09-3.6-0.01c-5.49-0.47-10.23,1.12-14.31,4.84c-9.29,8.51-19.08,16.36-29.66,23.21
			c-19.81,12.83-40.93,23.04-63.58,29.98c-0.45,0.13-0.94,0.18-1.66,0.31v7.97c-1.54-0.15-2.95-0.29-4.59-0.45
			c0-3.87,0-7.69,0-11.52c0-4.96-0.03-9.9,0.01-14.86c0.16-16.7,4.17-32,15.95-44.59c8.61-9.2,18-17.52,27.82-25.42
			c6.24-5.02,12.75-9.57,19.8-13.37c8.5-4.59,17.54-7.7,27.19-8.09c9.2-0.37,18.34,0.53,26.77,5.11c0.75-0.53,1.42-1.01,2.1-1.5
			c5-3.68,10.65-5.52,16.79-6.09c16.21-1.51,30.93,2.67,45.08,10.57c14.48,8.1,25.64,19.63,36.01,32.15
			c9.8,11.81,17.7,24.77,22.51,39.43c3.64,11.06,5.63,22.48,6.65,34.06c0.01,0.22-0.1,0.45-0.16,0.67
			c-3.01-0.29-6.03-0.57-9.27-0.88c-0.29-1.91-0.63-4.11-0.97-6.3c-0.29,0.01-0.59,0.03-0.9,0.04c0.01,1.67,0.1,3.35,0.26,5.02
			c0.7,7.22,1.51,14.42,2.08,21.64c1.09,13.95,1.41,27.94,0.92,41.92c0.48,0,0.98,0,1.47,0c0.1-4.53,0.16-9.07,0.21-13.6
			c0.01-1.66,0.03-3.33,0.03-4.99c3.4-0.5,5.55-2.32,7.26-4.81c0.6-0.9,1.5-1.58,2.17-2.44
			C295.81,150.76,297.48,138.29,287.97,127.95z M64.21,118.03c0-2.11,0.75-3.17,2.73-4.02c12-5.12,23.68-10.9,34.87-17.65
			c12.87-7.78,24.89-16.71,35.89-26.94c4.61-4.28,9.7-6.68,16.1-5.56c0.57,0.1,1.22,0.15,1.76-0.03c4.92-1.63,9.66-0.75,13.94,1.69
			c3.64,2.07,7,4.71,10.29,7.34c4.34,3.48,8.29,7.44,12.74,10.76c18.96,14.12,39.9,23.92,63.3,28c2.33,0.41,3.54,1.36,4.01,3.39
			c1.25,5.27,2.83,10.52,3.43,15.88c1.79,15.72,3.2,31.49,4.67,47.24c0.15,1.63-0.22,3.36-0.62,4.97
			c-2.39,9.51-7.34,17.81-12.34,26.09c-6.78,11.2-16.63,19.34-26.74,27.28c-13.16,10.35-28.26,16.04-44.49,19
			c-12.72,2.33-31.37,4.09-54.87-1.63c-22.48-5.47-40.16-17.98-55.07-34.88c-7.98-9.05-13.05-19.99-17.18-31.28
			c-0.5-1.36-0.43-3.07-0.22-4.56c2.41-18.08,4.95-36.14,7.31-54.23C64.19,125.31,64.21,121.64,64.21,118.03z M43.25,167.94
			c-0.23,0.79-0.9,1.69-1.61,2.07c-2.22,1.17-4.21,0.29-5.96-1.19c-1.8-1.54-2.6-3.39-1.73-5.8c0.79-2.22,2.16-3.79,4.52-4.17
			c3.42-0.53,5.27,1.51,5.09,5.78C43.5,165.56,43.59,166.81,43.25,167.94z M43.27,131.17v27.15c-1.44-0.28-3.02-0.35-4.45-0.9
			c-3.24-1.23-4.74-4.04-5.3-7.18c-0.56-3.15-0.07-6.25,2-8.92c0.54-0.7,0.97-1.51,1.67-2.63c-7.03,3.36-7.07,14.26-0.56,19.13
			c-2.96,1.2-4.78,4.48-4.65,6.74c-8.97-9.7-8.16-23.13-0.48-30.87C34.99,130.16,39.03,129.29,43.27,131.17z M278.55,166.11
			c-0.23-3.82-0.45-7.57-0.69-11.3c3.86-0.29,6.21,1.48,6.68,4.7C285.04,162.85,283.2,164.99,278.55,166.11z M286.43,159.84
			c-0.19-3.3-1.98-5.39-5.11-6.05c3.98-2.85,6.12-7.95,5.05-13.03c-0.66-3.14-2.42-5.65-6.03-7.29c1.19,1.73,2.1,2.95,2.91,4.23
			c2.89,4.65,2.2,10.52-1.76,14.22c-0.78,0.72-1.98,0.98-3.33,1.63c-0.9-9.38-1.75-18.2-2.6-27.07c3.71-1.73,6.69-0.56,9.38,1.41
			c6.38,4.65,9.36,13.22,7.44,20.9C291.24,153.33,288.91,157.68,286.43,159.84z"/>
		<path d="M250.83,101.25c-14.56-3.3-28.03-9.02-39.81-18.4c3.11,1.8,6.16,3.73,9.33,5.41c3.29,1.75,6.66,3.38,10.07,4.9
			c3.29,1.48,6.65,2.82,9.99,4.15C243.88,98.67,247.35,99.93,250.83,101.25z"/>
		<path d="M95.96,83.6c10.55-9.86,20.16-21,34.94-25.58c-6.28,4.08-12.59,7.7-18.33,12.06c-5.68,4.31-10.77,9.39-16.13,14.15
			C96.3,84.02,96.12,83.82,95.96,83.6z"/>
		<path d="M103.18,28.29c-12.71,7.43-22.79,17.87-33.05,28.79C73.95,48.64,93.61,31.55,103.18,28.29z"/>
		<path class="st40" d="M262.64,184.92c-11.65,20.7-24.55,37.36-43.85,51.48c-2.16,1.58-0.23,5.14,2.14,3.67
			c19.41-11.92,36.61-32.58,42.45-54.84C263.51,184.79,262.88,184.51,262.64,184.92z"/>
		<path class="st40" d="M287.71,131.24c-0.78-1.78-3.46-3.23-5.11-4.12c-1.26-0.69-3.15-2-4.59-1.19c-0.82,0.45-0.43,1.69,0.47,1.72
			c0.28,0.01,1.1,0.82,1.41,1.06c0.75,0.57,1.47,1.17,2.19,1.79c1.26,1.07,2.29,2.48,3.84,3.11
			C287.35,134.18,288.21,132.36,287.71,131.24z"/>
		<path class="st40" d="M39.79,131.36c-3.3-2.41-7.13,1.97-9.24,3.98c-0.16,0.16,0.09,0.4,0.25,0.25c1.88-1.67,5.53-3.89,7.98-2.49
			C39.92,133.75,40.82,132.11,39.79,131.36z"/>
		<path class="st40" d="M168.64,153.84c-0.38-0.12-0.84-0.15-1.25-0.1c-0.45,0.06-0.79,0.31-1.2,0.47
			c-0.19,0.07-0.16,0.32,0.04,0.35c0.53,0.04,1.16,0.63,1.51,1c0.4,0.44,0.66,0.98,1.17,1.28c0.69,0.4,1.64-0.1,1.61-0.92
			C170.51,154.87,169.6,154.12,168.64,153.84z"/>
		<g>
			<path class="st55" d="M98.34,157.85c-15.11,0.94-18.52,3.96-19.72,7.6c-0.87,8.83,7.92,11.97,19.16,11.48
				c7.18-0.32,22.51-1.45,22.95-10.55C121.1,158.68,111.58,157.65,98.34,157.85z"/>
			<path class="st55" d="M250.73,153.37c-7.12-2.89-14.26-3.07-22.39-1.94c-3.23,0.95-7.41,2.82-9.86,4.71
				c-1.69,1.31-2.03,4.96-0.54,6.88c4.17,5.41,12.83,6.74,17.77,6.74c5.47,0,14.34-0.31,18.71-6.81
				C255.31,161.6,255.73,155.39,250.73,153.37z"/>
		</g>
		<path d="M168.23,165.49c0.4-1.28,0.48-1.94,0.78-2.48c0.51-0.94,1.23-1.78,1.7-2.74c1.67-3.46,0.37-6.19-3.33-7.03
			c-0.56-0.13-1.13-0.21-1.89-0.34c0.5-1.63,1.6-1.75,2.82-1.57c2.71,0.4,4.9,2.8,5.17,5.66
			C173.79,160.46,172.13,163.47,168.23,165.49z"/>
		<g id="boca_abierta_1_">
			<path class="st56" d="M114.22,220.39c-5.84-7.12-10.07-16.71-11.21-25.2c38.37-0.16,77.65-1.7,114.88-10.2
				c5,11.96-2.91,36.23-15.11,44.84c-1.39-1.17-3.68-2.82-5.17-4.04c-9.96-8.16-20.78-14.62-33.63-16.76
				c-16.29-2.71-31.06,0.47-45.59,8.19C117.11,217.91,115.8,219.29,114.22,220.39z"/>
			<path class="st57" d="M202.01,229.7c-4.77,3.87-10.24,6.91-15.5,8.69c-9.2,3.11-19.46,4.89-29.22,4.4
				c-16.02-0.78-29.58-6.85-40.43-18.9c-0.63-0.7-1.63-1.67-2.52-2.77c1.44-1.04,3.76-3.38,5.17-4.15
				c7.59-4.21,15.89-6.22,24.43-7.43c18.2-2.58,34.29,2.77,49,13.35C195.67,224.88,198.86,227.4,202.01,229.7z"/>
			<path d="M101.42,193.8c2.58,0,4.49,0.03,6.41,0c12.68-0.25,25.37-0.15,38.02-0.85c14.09-0.79,28.16-1.98,42.17-3.64
				c9.3-1.1,18.49-3.32,27.72-5.03c0.59-0.12,1.16-0.34,1.76-0.4c1.42-0.15,2.26,0.41,2.44,1.95c2.1,18-2.32,33.56-17.02,45.2
				c-8.16,6.46-17.71,9.71-27.85,11.28c-4.99,0.76-10.07,1.47-15.1,1.47c-27.73,0.03-49.05-16.13-56.79-42.79
				C102.55,198.8,102.1,196.57,101.42,193.8z M113.98,219.34c1.6-1.12,2.71-2.07,3.98-2.74c14.53-7.72,29.93-10.58,46.22-7.87
				c12.85,2.14,23.85,8.26,33.79,16.42c1.48,1.2,2.92,2.45,4.31,3.61c12.22-8.61,20.07-31.06,15.07-43.02
				c-37.21,8.5-75.15,10.05-113.52,10.21C105.9,204.46,108.83,212.24,113.98,219.34z M201.42,229.73c-3.15-2.32-5.85-4.33-8.58-6.31
				c-14.7-10.58-30.87-15.58-49.07-13c-8.55,1.22-16.74,3.52-24.33,7.73c-1.41,0.78-2.64,1.89-4.08,2.93c0.9,1.1,1.45,1.88,2.1,2.58
				c10.86,12.05,24.58,17.93,40.6,18.71c9.76,0.47,19.22-1.32,28.42-4.43C191.74,236.16,196.65,233.61,201.42,229.73z"/>
		</g>
		<g id="ojos_abiertos_1_">
			<path d="M215.47,155.48c-5.21-0.04-8.35-3.18-8.32-8.31c0.04-5.36,4.09-9.3,9.45-9.2s9.08,4.08,9.04,9.61
				C225.61,152.27,221.4,155.54,215.47,155.48z M220.15,147.46c1.94,0.09,3.21-1.13,3.2-3.07c-0.01-2.02-1.89-4.17-3.73-4.26
				c-1.8-0.09-3.24,1.2-3.39,3.04C216.04,145.45,217.8,147.37,220.15,147.46z"/>
			<path d="M110.68,157.67c-5.25-0.03-8.06-3.07-8.36-8.25c-0.34-5.5,5.31-9.51,9.39-9.32c5.43,0.26,9.02,3.92,9.01,9.6
				C120.7,154.44,116.61,157.7,110.68,157.67z M118.41,146.66c0.03-2.11-1.69-4.21-3.57-4.33c-1.88-0.13-3.52,1.41-3.55,3.32
				c-0.03,2.19,1.97,4.06,4.27,4.01C117.42,149.6,118.38,148.59,118.41,146.66z"/>
			<path class="st29" d="M220.15,147.46c-2.35-0.1-4.09-2.02-3.92-4.28c0.15-1.83,1.58-3.11,3.39-3.04
				c1.85,0.09,3.71,2.22,3.73,4.26C223.36,146.33,222.08,147.54,220.15,147.46z"/>
			<path class="st29" d="M118.41,146.66c-0.03,1.92-1,2.95-2.85,2.98c-2.3,0.04-4.3-1.83-4.27-4.01c0.03-1.91,1.67-3.45,3.55-3.32
				C116.74,142.45,118.44,144.54,118.41,146.66z"/>
		</g>
		<g id="cejas_1_">
			<path d="M228.13,120.97c-4.26-2.27-13.69-7.25-13.94-7.6c-2.01-1.14-1.54-3.61,1.32-2.64c0.75,0.25,10.17,5.11,14.03,7.32
				C232.78,119.97,231.55,122.42,228.13,120.97z"/>
			<path d="M104.58,117.27c-4.31,2.38-8.67,4.68-13.02,7c-0.43,0.22-0.88,0.53-1.32,0.51c-0.54-0.01-1.29-0.18-1.54-0.54
				c-0.25-0.37-0.18-1.2,0.09-1.61c0.37-0.59,0.98-1.09,1.58-1.42c4.09-2.27,8.19-4.53,12.33-6.69
				C106.09,113.08,107.6,115.44,104.58,117.27z"/>
		</g>
	</g>
</g>
</svg>
