<?xml version="1.0" encoding="utf-8"?>
<!-- Generator: Adobe Illustrator 17.0.0, SVG Export Plug-In . SVG Version: 6.00 Build 0)  -->
<!DOCTYPE svg PUBLIC "-//W3C//DTD SVG 1.1//EN" "http://www.w3.org/Graphics/SVG/1.1/DTD/svg11.dtd">
<svg version="1.1" id="Capa_1" xmlns="http://www.w3.org/2000/svg" xmlns:xlink="http://www.w3.org/1999/xlink" x="0px" y="0px"
	 width="454px" height="274px" viewBox="0 0 454 274" enable-background="new 0 0 454 274" xml:space="preserve">
<g>
	<defs>
		<rect id="SVGID_1_" width="454" height="274"/>
	</defs>
	<use xlink:href="#SVGID_1_"  overflow="visible" fill="#FFEB3B"/>
	<clipPath id="SVGID_2_">
		<use xlink:href="#SVGID_1_"  overflow="visible"/>
	</clipPath>
	<g opacity="0.2" clip-path="url(#SVGID_2_)">
		<path fill="#818181" d="M44.8,37.6c-9.2,5.1-17,14.7-12.6,25.6c0.9,2.1,2.6,3.6,4.3,5c0.6,0.5,1.3,0.9,2,1.2
			c3.2,1.5,1.7,0,1.6,0.6c-0.4,3.8-0.9,7.5-1.3,11.3c-0.1,1.1,1.2,1.5,1.9,0.9c4.5-3.6,9-7.2,13.6-10.8c2.9-2.3,6.8-3.2,10-5.3
			c3.7-2.4,6.4-6,8.4-9.9c2.9-5.7,2-13.9-3.4-17.8C61.7,33.1,52.7,34,44.8,37.6c-1.3,0.6-0.3,2.6,1,2c9.1-4.1,22.9-4.5,26,7.4
			c2.8,11.2-9.5,17.5-17.2,21.3C49,71,43.9,76.7,39.1,80.5c0.6,0.3,1.3,0.6,1.9,0.9c0.5-4,0.9-8,1.4-12.1c0.1-0.5-0.3-1-0.8-1.1
			c-7.3-1.8-9.6-9.2-7.9-15.6c1.6-5.9,7-10.2,12-13C47.1,38.9,46.1,36.9,44.8,37.6z"/>
		<circle fill="#818181" cx="45.2" cy="57.3" r="3.1"/>
		<circle fill="#818181" cx="54.3" cy="52.8" r="3.1"/>
		<circle fill="#818181" cx="62.6" cy="48.6" r="3.1"/>
	</g>
	<g opacity="0.2" clip-path="url(#SVGID_2_)">
		<g>
			<g>
				<path fill="#818181" d="M222.1,88c-0.4-0.5-1.4-1.4-0.9-2.1c0.3-0.5,0.4-1,0-1.5c0,0,0,0,0,0c-0.4-0.5-1.2-0.6-1.7-0.2
					c-3.2,2.4-6.5,4.9-9.7,7.3c-0.5,0.4-0.6,1.2-0.2,1.7c0,0,0,0,0,0c0.3,0.5,0.9,0.6,1.4,0.4c0.8-0.3,1.8,1.2,1.6,1.9
					c-0.2,0.6-0.4,1.3,0.1,1.8c0.4,0.5,1.2,0.6,1.7,0.2c3.2-2.4,6.5-4.9,9.7-7.3c0.5-0.4,0.6-1.2,0.2-1.7c-0.6-0.8-1.6-0.3-2.4-0.7
					c-1.3-0.8-2.8,1.1-1.5,1.9c0.4,0.2,2.6,1.2,1.9,0.3c0.1-0.6,0.2-1.1,0.2-1.7c-3.2,2.4-6.5,4.9-9.7,7.3c0.6,0.1,1.1,0.2,1.7,0.2
					c0.5,0.6,0.6-1.1,0.5-1.4c-0.3-0.7-0.7-1.2-1.1-1.8c-1-1.3-2.2-1.7-3.8-1.3c0.5,0.1,1,0.3,1.4,0.4c0,0,0,0,0,0
					c-0.1,0.6-0.2,1.1-0.2,1.7c3.2-2.4,6.5-4.9,9.7-7.3c-0.6-0.1-1.1-0.2-1.7-0.2c0,0,0,0,0,0c0-0.5,0-1,0-1.5
					c-1.3,2-0.3,3.4,0.9,5.1C221.1,90.7,223.1,89.2,222.1,88z"/>
			</g>
			<g>
				<path fill="#818181" d="M232,74.2c-8.8,8.5-19.7,15.4-29.7,22.5c-0.8,0.6-5.3,4.9-6.6,3.4c-1.9-2.4-3.9-4.8-5.8-7.2
					c-4.1-5.1-7.8-10.4-11.5-15.7c-3.2-4.6,28.3-24.3,33.3-27.8c2.6-1.8,21.9,21.9,20,25.1c-0.8,1.3,1.1,2.9,1.9,1.5
					c2.7-4.6-3.7-10.1-6.1-13.7c-3.6-5.1-8-12.8-13.4-16c-3.3-2-12.5,7.1-14.6,8.6c-7.5,5.3-19.5,11.5-24.3,19.6
					c-1.9,3.3,6.7,12,8.3,14.2c2.5,3.4,7.9,13.8,12.6,14.5c1.7,0.2,3.2-1.2,4.5-2.1c4.6-3.3,9.1-6.6,13.7-9.8
					c6.5-4.6,13.4-9.4,19.2-15C234.6,75.1,233.1,73.1,232,74.2z"/>
			</g>
		</g>
		<g>
			<path fill="#818181" d="M184.7,59.2c2.7-0.1,6.2,1.1,9,1.6c0.5,0.1,1.1-0.2,1.3-0.7c0.9-2.7,1.8-5.3,2.7-8c0.5-1.5-1.8-2.5-2.3-1
				c-0.9,2.7-1.8,5.3-2.7,8c0.4-0.2,0.9-0.5,1.3-0.7c-3-0.6-6.5-1.8-9.6-1.6C182.8,56.9,183.1,59.3,184.7,59.2L184.7,59.2z"/>
		</g>
	</g>
	<g opacity="0.2" clip-path="url(#SVGID_2_)">
		<g>
			<g>
				<path fill="#818181" d="M408.5,206.9c-0.4-0.5-1.5-1.3-1-2c0.3-0.5,0.3-1-0.1-1.5c0,0,0,0,0,0c-0.4-0.5-1.2-0.6-1.7-0.2
					c-3.1,2.6-6.2,5.2-9.4,7.8c-0.5,0.4-0.6,1.2-0.2,1.7c0,0,0,0,0,0c0.4,0.4,0.9,0.5,1.5,0.3c0.8-0.3,1.8,1.1,1.7,1.8
					c-0.1,0.6-0.3,1.3,0.2,1.8c0.4,0.5,1.2,0.6,1.7,0.2c3.1-2.6,6.2-5.2,9.4-7.8c0.5-0.4,0.6-1.2,0.2-1.7c-0.7-0.8-1.7-0.2-2.4-0.6
					c-1.4-0.8-2.8,1.2-1.4,2c0.4,0.2,2.7,1,1.9,0.2c0.1-0.6,0.1-1.2,0.2-1.7c-3.1,2.6-6.2,5.2-9.4,7.8c0.6,0.1,1.2,0.1,1.7,0.2
					c0.5,0.6,0.5-1.2,0.4-1.4c-0.3-0.7-0.7-1.2-1.2-1.8c-1.1-1.3-2.3-1.6-3.9-1.1c0.5,0.1,1,0.2,1.5,0.3c0,0,0,0,0,0
					c-0.1,0.6-0.1,1.2-0.2,1.7c3.1-2.6,6.2-5.2,9.4-7.8c-0.6-0.1-1.2-0.1-1.7-0.2c0,0,0,0,0,0c0-0.5,0-1-0.1-1.5
					c-1.2,2.1-0.2,3.4,1.2,5C407.6,209.7,409.5,208.1,408.5,206.9z"/>
			</g>
			<g>
				<path fill="#818181" d="M417.6,192.7c-8.4,9-18.9,16.4-28.5,24c-0.8,0.6-5.1,5.2-6.4,3.7c-2.1-2.3-4.1-4.6-6.2-6.9
					c-4.3-4.9-8.3-10-12.3-15.1c-3.4-4.4,27-25.7,31.8-29.5c2.5-2,23,20.7,21.2,24.1c-0.7,1.4,1.3,2.8,2,1.4
					c2.5-4.7-4.2-9.9-6.8-13.4c-3.8-4.9-8.6-12.4-14.2-15.3c-3.4-1.8-12.2,7.8-14.2,9.3c-7.2,5.7-18.9,12.5-23.2,20.8
					c-1.8,3.4,7.3,11.6,9,13.7c2.6,3.3,8.6,13.4,13.3,13.8c1.7,0.2,3.2-1.4,4.3-2.3c4.4-3.5,8.8-7,13.2-10.5
					c6.2-5,12.9-10.1,18.4-15.9C420.2,193.4,418.7,191.5,417.6,192.7z"/>
			</g>
		</g>
		<g>
			<path fill="#818181" d="M369.7,180.1c2.7-0.3,6.2,0.8,9,1.2c0.5,0.1,1.1-0.3,1.3-0.8c0.8-2.7,1.5-5.4,2.3-8.1
				c0.4-1.5-1.9-2.4-2.3-0.8c-0.8,2.7-1.5,5.4-2.3,8.1c0.4-0.3,0.8-0.5,1.3-0.8c-3.1-0.5-6.6-1.4-9.7-1.2
				C367.7,177.8,368.1,180.2,369.7,180.1L369.7,180.1z"/>
		</g>
	</g>
	<g opacity="0.2" clip-path="url(#SVGID_2_)">
		<g>
			<path fill="#818181" d="M224.8,237.2c9-8.7,18-17.4,27-26c1.7-1.6,3.3-3.2,5-4.8c1.1-1.1-0.2,0.4-1.1-0.6c0.7,0.8,1.3,1.6,2,2.4
				c4.8,5.8,9.5,11.7,14.3,17.5c0.9,1.1,1.7-1.3-0.7,0.6c-2.2,1.7-4.5,3.5-6.7,5.2c-6.7,5.2-13.4,10.3-20,15.5
				c-2,1.6-4.1,3.2-6.1,4.7c-1.5,1.2,1.1,1.6-1-0.9c-4.1-5.1-8.3-10.1-12.4-15.2c-1-1.2-2.9,0.3-1.9,1.6c4.7,5.7,9.3,11.4,14,17.1
				c0.4,0.5,1.2,0.6,1.7,0.2c11.9-9.2,23.8-18.4,35.7-27.6c0.5-0.4,0.6-1.2,0.2-1.7c-5.7-7-11.4-14-17.2-21
				c-0.4-0.5-1.2-0.6-1.7-0.2c-10.8,10.5-21.7,21-32.5,31.4C222.1,236.4,223.7,238.3,224.8,237.2z"/>
		</g>
		<g>
			<path fill="#818181" d="M241,229.9c1.8,2.3,3.7,4.5,5.5,6.8c0.5,0.6,1.6,0.6,2-0.1c1.9-3.4,3.8-6.8,5.6-10.3
				c0.6-1.1-0.3-2.2-1.5-1.8c-3.7,1.2-7.5,2.3-11.2,3.5c-1.5,0.5-0.5,2.7,1,2.3c3.7-1.2,7.5-2.3,11.2-3.5c-0.5-0.6-1-1.2-1.5-1.8
				c-1.9,3.4-3.8,6.8-5.6,10.3c0.7,0,1.3,0,2-0.1c-1.8-2.3-3.7-4.5-5.5-6.8C241.9,227.2,240,228.7,241,229.9z"/>
		</g>
	</g>
	<g opacity="0.2" clip-path="url(#SVGID_2_)">
		<g>
			<g>
				<path fill="#818181" d="M112.6,167.3c3.8,5.2,7.5,10.3,11.3,15.5c2.4,3.3,4.7,6.5,7.1,9.8c0.8,1.1,1.5,2.1,2.3,3.2
					c1.4,1.9,0.4,0,0.9-0.3c-11.5,8.3-22.9,16.7-34.4,25c1.2-0.8,2.2,1,0.8-0.9c-0.8-1.1-1.5-2.1-2.3-3.2c-2.7-3.7-5.4-7.4-8.1-11.1
					c-2.6-3.6-5.2-7.2-7.8-10.7c-0.7-0.9-1.3-1.8-2-2.7c-1-1.3-1.4,1.5-0.2,0.6c11.4-8.3,22.7-16.5,34.1-24.8c1.3-0.9-0.2-2.9-1.4-2
					c-11.6,8.4-23.1,16.8-34.7,25.3c-0.5,0.4-0.7,1.2-0.3,1.7c7.2,9.9,14.4,19.8,21.6,29.7c0.4,0.5,1.2,0.7,1.7,0.3
					c11.6-8.4,23.1-16.8,34.7-25.3c0.5-0.4,0.7-1.2,0.3-1.7c-7.2-9.9-14.4-19.8-21.6-29.7C113.6,164.6,111.6,166,112.6,167.3z"/>
			</g>
		</g>
		<g>
			<path fill="#818181" d="M78.8,193c9.7,1.2,19.3,2.4,29,3.6c0.7,0.1,1.3-0.3,1.4-1c1.8-9.6,3.6-19.1,5.5-28.7
				c0.3-1.6-2.1-1.9-2.4-0.4c-1.8,9.5-3.6,19.1-5.4,28.6c0.2-1.3,2.2-0.8,0.3-1c-1-0.1-1.9-0.2-2.9-0.4c-3.5-0.4-7.1-0.9-10.6-1.3
				c-4.8-0.6-9.7-1.2-14.5-1.8C77.6,190.4,77.2,192.8,78.8,193L78.8,193z"/>
		</g>
	</g>
	<g opacity="0.2" clip-path="url(#SVGID_2_)">
		<g>
			<path fill="#818181" d="M341.7,45.6c4.8-4.1,9.6-8.3,14.4-12.4c0.8-0.7,1.7-1.5,2.5-2.2c-1,0.9-2.1-0.9-0.8,0.8
				c1.8,2.3,3.6,4.7,5.5,7c5.3,6.7,10.5,13.4,15.8,20.1c1.4,1.9,2.9,3.7,4.3,5.6c0.1,0.1,1-2-0.4-0.8c-1,0.8-1.9,1.7-2.9,2.5
				c-6.2,5.3-12.3,10.6-18.5,15.9c-0.8,0.7-1.6,1.4-2.4,2.1c-0.4,0.3,1.9,1.1,0.8-0.3c-2.1-2.4-4.1-4.8-6.2-7.2
				c-4.7-5.4-9.3-10.8-14-16.3c-0.1-0.1,0,0.5,0.2-1.1c0.3-1.9,0.5-3.7,0.8-5.6c0.4-3,0.8-5.9,1.2-8.9c0.2-1.6-2.2-1.8-2.5-0.2
				c-0.8,5.8-4.4,14.2-0.3,19c6.5,7.5,12.9,15,19.4,22.6c0.4,0.5,1.2,0.6,1.7,0.1c8.3-7.1,16.6-14.3,24.9-21.4
				c0.5-0.5,0.5-1.2,0.1-1.7c-8.9-11.3-17.7-22.7-26.6-34c-0.4-0.5-1.2-0.6-1.7-0.1c-5.7,4.9-11.4,9.8-17.1,14.7
				C338.9,44.8,340.5,46.6,341.7,45.6z"/>
		</g>
		<g>
			<path fill="#818181" d="M348.9,52.1c-2.4-2.7-4.7-5.5-7.1-8.2c-0.7-0.9-2-0.3-2.2,0.7c-0.7,5.4-1.5,10.8-2.2,16.2
				c-0.2,1.1,1.3,1.7,2,1c3.1-2.7,6.2-5.3,9.3-8c1.2-1-0.4-2.9-1.6-1.9c-3.1,2.7-6.2,5.3-9.3,8c0.7,0.3,1.4,0.7,2,1
				c0.7-5.4,1.5-10.8,2.2-16.2c-0.7,0.2-1.4,0.5-2.2,0.7c2.4,2.7,4.7,5.5,7.1,8.2C348,54.9,349.9,53.3,348.9,52.1z"/>
		</g>
	</g>
</g>
</svg>
