<?xml version="1.0" encoding="utf-8"?>
<!-- Generator: Adobe Illustrator 18.1.0, SVG Export Plug-In . SVG Version: 6.00 Build 0)  -->
<svg version="1.1" id="Capa_1" xmlns="http://www.w3.org/2000/svg" xmlns:xlink="http://www.w3.org/1999/xlink" x="0px" y="0px"
	 viewBox="0 0 1280 800" enable-background="new 0 0 1280 800" xml:space="preserve">
<g>
	<defs>
		<rect id="SVGID_1_" x="0" width="1280" height="800"/>
	</defs>
	<clipPath id="SVGID_2_">
		<use xlink:href="#SVGID_1_"  overflow="visible"/>
	</clipPath>
	<rect x="0" clip-path="url(#SVGID_2_)" fill="#9FFFED" width="1280" height="800"/>
	<rect x="-9.7" y="646.1" clip-path="url(#SVGID_2_)" fill="#FF9D7E" width="1297.4" height="197.9"/>
	<rect x="-9.7" y="484.1" clip-path="url(#SVGID_2_)" fill="#81D4FA" width="1297.4" height="163.4"/>
	<g clip-path="url(#SVGID_2_)">
		<path fill="#654025" d="M658.1,452.8H128.9c-6.4,0-11.6-5.2-11.6-11.6v-309c0-6.4,5.2-11.6,11.6-11.6h529.2
			c6.4,0,11.6,5.2,11.6,11.6v309C669.7,447.6,664.5,452.8,658.1,452.8z"/>
		<path fill="#E9F5FD" d="M643.7,439.8H143.2c-6.4,0-11.6-5.2-11.6-11.6V149.2c0-6.4,5.2-11.6,11.6-11.6h500.5
			c6.4,0,11.6,5.2,11.6,11.6v278.9C655.3,434.6,650.1,439.8,643.7,439.8z"/>
	</g>
	<path opacity="0.2" clip-path="url(#SVGID_2_)" fill="#D35E37" d="M572,721.5C572,721.5,571.9,721.4,572,721.5
		c-0.9-0.5-1.8-0.7-2.9-0.8c-0.7,0-1.5-0.1-2.2-0.1c-4-0.8-7.9-1.7-11.8-2.9c-1.8-0.5-3.4-0.2-4.6,0.5c-1.1-1.8-3.2-2.9-5.3-3.1
		l0.3-0.5c0.9-1.6,1-3.3,0.5-4.7c1.2-4.7-3.8-8.4-7.8-7.1c-0.9-0.8-2-1.5-3.4-1.7c-6.1-1.1-13.5,0.1-19.7,0.3
		c-24.9,0.5-49.8,1-74.6,1.5c-1.8-1.5-4.3-2.1-6.7-0.7c-0.1,0-0.1,0.1-0.2,0.1c-1.5-0.6-3.2-0.5-4.8,0.5c-1.5,1-3,1.9-4.5,2.9
		c-1,0.6-1.7,1.4-2.2,2.3c-2.6,2-5.2,4-7.7,6c-1.9,1.5-2.3,3.5-1.7,5.3c-0.2,0.2-0.4,0.3-0.6,0.5c-1.9,1.6-2.2,4-1.3,6.1
		c-1.1,0.7-2.1,1.5-3.2,2.2c-3.8,2.5-3.7,7-0.6,9.8c0.1,1.3,0.6,2.7,1.5,3.6c0,0.4,0,0.8,0,1.3c0.4,2.7,2.9,5.6,5.9,5.2
		c40.3-4.9,81-5.1,121.3-0.8c1.2,0.1,2.3-0.3,3.3-1c14.4,4.4,31.5-1.9,38.4-15.9C579.4,726.1,576.6,722.1,572,721.5z"/>
	<path opacity="0.2" clip-path="url(#SVGID_2_)" fill="#D35E37" d="M307.2,721.5C307.2,721.5,307.2,721.4,307.2,721.5
		c-1.1-0.5-2.2-0.7-3.5-0.8c-0.9,0-1.8-0.1-2.6-0.1c-4.7-0.8-9.4-1.7-14-2.9c-2.2-0.5-4-0.2-5.5,0.5c-1.3-1.8-3.8-2.9-6.4-3.1
		l0.4-0.5c1.1-1.6,1.2-3.3,0.6-4.7c1.5-4.7-4.5-8.4-9.3-7.1c-1.1-0.8-2.4-1.5-4-1.7c-7.3-1.1-16.1,0.1-23.5,0.3
		c-29.6,0.5-59.3,1-88.9,1.5c-2.2-1.5-5.2-2.1-7.9-0.7c-0.1,0-0.1,0.1-0.2,0.1c-1.8-0.6-3.8-0.5-5.7,0.5c-1.8,1-3.6,1.9-5.4,2.9
		c-1.2,0.6-2.1,1.4-2.6,2.3c-3.1,2-6.1,4-9.2,6c-2.3,1.5-2.7,3.5-2.1,5.3c-0.2,0.2-0.5,0.3-0.7,0.5c-2.3,1.6-2.6,4-1.6,6.1
		c-1.3,0.7-2.5,1.5-3.8,2.2c-4.5,2.5-4.4,7-0.8,9.8c0.1,1.3,0.7,2.7,1.8,3.6c0,0.4,0,0.8,0,1.3c0.4,2.7,3.5,5.6,7,5.2
		c48-4.9,96.4-5.1,144.5-0.8c1.4,0.1,2.8-0.3,4-1c17.2,4.4,37.5-1.9,45.7-15.9C316,726.1,312.7,722.1,307.2,721.5z"/>
	<g opacity="0.31" clip-path="url(#SVGID_2_)">
		<g>
			<g>
				<path fill="#B2EBF2" d="M519.8,822.2c-0.4-19.6-0.8-39.2-1.2-58.8c-0.6-31.4-1.2-62.8-1.9-94.3c-0.1-7.2-0.3-14.4-0.4-21.5
					c0-1.9-3-1.9-3,0c0.4,19.6,0.8,39.2,1.2,58.8c0.6,31.4,1.2,62.8,1.9,94.3c0.1,7.2,0.3,14.4,0.4,21.5
					C516.9,824.2,519.9,824.2,519.8,822.2L519.8,822.2z"/>
			</g>
		</g>
		<g>
			<g>
				<path fill="#B2EBF2" d="M668.3,819.1c-9.5-19.5-19-39-28.4-58.5c-15.1-31.1-30.3-62.2-45.4-93.4c-3.5-7.2-7-14.4-10.5-21.6
					c-0.8-1.7-3.4-0.2-2.6,1.5c9.5,19.5,19,39,28.4,58.5c15.1,31.1,30.3,62.2,45.4,93.4c3.5,7.2,7,14.4,10.5,21.6
					C666.5,822.3,669.1,820.8,668.3,819.1L668.3,819.1z"/>
			</g>
		</g>
		<g>
			<g>
				<path fill="#B2EBF2" d="M648.9,647.3c20.6,19.9,41.1,39.8,61.7,59.6c32.6,31.5,65.2,63.1,97.9,94.6c7.5,7.3,15,14.5,22.5,21.8
					c1.4,1.3,3.5-0.8,2.1-2.1c-20.6-19.9-41.1-39.8-61.7-59.6c-32.6-31.5-65.2-63.1-97.9-94.6c-7.5-7.3-15-14.5-22.5-21.8
					C649.7,643.8,647.5,645.9,648.9,647.3L648.9,647.3z"/>
			</g>
		</g>
		<g>
			<g>
				<path fill="#B2EBF2" d="M1001.8,821c-31.1-19.7-62.3-39.4-93.4-59.1c-49.4-31.3-98.9-62.6-148.3-93.9
					c-11.3-7.2-22.7-14.3-34-21.5c-1.6-1-3.1,1.6-1.5,2.6c31.1,19.7,62.3,39.4,93.4,59.1c49.4,31.3,98.9,62.6,148.3,93.9
					c11.3,7.2,22.7,14.3,34,21.5C1001.9,824.6,1003.4,822,1001.8,821L1001.8,821z"/>
			</g>
		</g>
		<g>
			<g>
				<path fill="#B2EBF2" d="M818.3,647.7c11.6,5.8,23.1,11.6,34.7,17.5c27.7,14,55.5,28,83.2,42c33.6,16.9,67.2,33.9,100.7,50.8
					c29.1,14.6,58.1,29.3,87.2,43.9c9.6,4.9,19.3,9.7,28.9,14.6c4.4,2.2,9,5.4,13.7,6.9c0.2,0.1,0.4,0.2,0.6,0.3
					c1.7,0.9,3.2-1.7,1.5-2.6c-11.6-5.8-23.1-11.6-34.7-17.5c-27.7-14-55.5-28-83.2-42c-33.6-16.9-67.2-33.9-100.7-50.8
					c-29.1-14.6-58.1-29.3-87.2-43.9c-9.6-4.9-19.3-9.7-28.9-14.6c-4.4-2.2-9-5.4-13.7-6.9c-0.2-0.1-0.4-0.2-0.6-0.3
					C818.1,644.2,816.6,646.8,818.3,647.7L818.3,647.7z"/>
			</g>
		</g>
		<g>
			<g>
				<path fill="#B2EBF2" d="M924.6,647.7c12.7,5.8,25.4,11.7,38.1,17.5c30.5,14,61,28,91.5,42.1c36.7,16.9,73.5,33.8,110.2,50.7
					c31.9,14.7,63.8,29.3,95.7,44c10.5,4.8,20.9,9.6,31.4,14.4c4.8,2.2,9.9,5.3,15,6.9c0.2,0.1,0.4,0.2,0.6,0.3
					c1.7,0.8,3.3-1.8,1.5-2.6c-12.7-5.8-25.4-11.7-38.1-17.5c-30.5-14-61-28-91.5-42.1c-36.7-16.9-73.5-33.8-110.2-50.7
					c-31.9-14.7-63.8-29.3-95.7-44c-10.5-4.8-20.9-9.6-31.4-14.4c-4.8-2.2-9.9-5.3-15-6.9c-0.2-0.1-0.4-0.2-0.6-0.3
					C924.3,644.3,922.8,646.9,924.6,647.7L924.6,647.7z"/>
			</g>
		</g>
		<g>
			<g>
				<path fill="#B2EBF2" d="M1035,647.7c12.7,5.8,25.4,11.7,38.1,17.5c30.5,14,61,28,91.5,42.1c36.7,16.9,73.5,33.8,110.2,50.7
					c31.9,14.7,63.8,29.3,95.7,44c10.5,4.8,20.9,9.6,31.4,14.4c4.8,2.2,9.9,5.3,15,6.9c0.2,0.1,0.4,0.2,0.6,0.3
					c1.7,0.8,3.3-1.8,1.5-2.6c-12.7-5.8-25.4-11.7-38.1-17.5c-30.5-14-61-28-91.5-42.1c-36.7-16.9-73.5-33.8-110.2-50.7
					c-31.9-14.7-63.8-29.3-95.7-44c-10.5-4.8-20.9-9.6-31.4-14.4c-4.8-2.2-9.9-5.3-15-6.9c-0.2-0.1-0.4-0.2-0.6-0.3
					C1034.7,644.3,1033.2,646.9,1035,647.7L1035,647.7z"/>
			</g>
		</g>
		<g>
			<g>
				<path fill="#B2EBF2" d="M1134.8,647.7c12.7,5.8,25.4,11.7,38.1,17.5c30.5,14,61,28,91.5,42.1c36.7,16.9,73.5,33.8,110.2,50.7
					c31.9,14.7,63.8,29.3,95.7,44c10.5,4.8,20.9,9.6,31.4,14.4c4.8,2.2,9.9,5.3,15,6.9c0.2,0.1,0.4,0.2,0.6,0.3
					c1.7,0.8,3.3-1.8,1.5-2.6c-12.7-5.8-25.4-11.7-38.1-17.5c-30.5-14-61-28-91.5-42.1c-36.7-16.9-73.5-33.8-110.2-50.7
					c-31.9-14.7-63.8-29.3-95.7-44c-10.5-4.8-20.9-9.6-31.4-14.4c-4.8-2.2-9.9-5.3-15-6.9c-0.2-0.1-0.4-0.2-0.6-0.3
					C1134.6,644.3,1133.1,646.9,1134.8,647.7L1134.8,647.7z"/>
			</g>
		</g>
		<g>
			<g>
				<path fill="#B2EBF2" d="M1223.9,647.7c12.7,5.8,25.4,11.7,38.1,17.5c30.5,14,61,28,91.5,42.1c36.7,16.9,73.5,33.8,110.2,50.7
					c31.9,14.7,63.8,29.3,95.7,44c10.5,4.8,20.9,9.6,31.4,14.4c4.8,2.2,9.9,5.3,15,6.9c0.2,0.1,0.4,0.2,0.6,0.3
					c1.7,0.8,3.3-1.8,1.5-2.6c-12.7-5.8-25.4-11.7-38.1-17.5c-30.5-14-61-28-91.5-42.1c-36.7-16.9-73.5-33.8-110.2-50.7
					c-31.9-14.7-63.8-29.3-95.7-44c-10.5-4.8-20.9-9.6-31.4-14.4c-4.8-2.2-9.9-5.3-15-6.9c-0.2-0.1-0.4-0.2-0.6-0.3
					C1223.7,644.3,1222.2,646.9,1223.9,647.7L1223.9,647.7z"/>
			</g>
		</g>
		<g>
			<g>
				<path fill="#B2EBF2" d="M435.5,647.1c-11.3,19.6-22.6,39.2-34,58.8c-18.1,31.4-36.3,62.8-54.4,94.2c-4.1,7.2-8.3,14.3-12.4,21.5
					c-1,1.7,1.6,3.2,2.6,1.5c11.3-19.6,22.6-39.2,34-58.8c18.1-31.4,36.3-62.8,54.4-94.2c4.1-7.2,8.3-14.3,12.4-21.5
					C439.1,646.9,436.5,645.4,435.5,647.1L435.5,647.1z"/>
			</g>
		</g>
		<g>
			<g>
				<path fill="#B2EBF2" d="M156.3,823.3c23.3-19.7,46.6-39.3,69.9-59c37.1-31.3,74.3-62.6,111.4-94c8.5-7.2,17-14.3,25.5-21.5
					c1.5-1.2-0.7-3.4-2.1-2.1c-23.3,19.7-46.6,39.3-69.9,59c-37.1,31.3-74.3,62.6-111.4,94c-8.5,7.2-17,14.3-25.5,21.5
					C152.7,822.4,154.8,824.5,156.3,823.3L156.3,823.3z"/>
			</g>
		</g>
		<g>
			<g>
				<path fill="#B2EBF2" d="M284.2,644.9c-10.6,5.8-21.2,11.7-31.8,17.5c-25.5,14-51,28-76.4,42.1c-30.8,17-61.7,33.9-92.5,50.9
					c-26.6,14.7-53.3,29.3-79.9,44c-8.7,4.8-17.4,9.6-26.1,14.4c-4,2.2-9.1,4.1-12.6,6.9c-0.2,0.1-0.4,0.2-0.6,0.3
					c-1.7,0.9-0.2,3.5,1.5,2.6c10.6-5.8,21.2-11.7,31.8-17.5c25.5-14,51-28,76.4-42.1c30.8-17,61.7-33.9,92.5-50.9
					c26.6-14.7,53.3-29.3,79.9-44c8.7-4.8,17.4-9.6,26.1-14.4c4-2.2,9.1-4.1,12.6-6.9c0.2-0.1,0.4-0.2,0.6-0.3
					C287.4,646.6,285.9,644,284.2,644.9L284.2,644.9z"/>
			</g>
		</g>
		<g>
			<g>
				<path fill="#B2EBF2" d="M192.5,643.2c-24,10-48,20-72,30c-37.9,15.8-75.8,31.6-113.7,47.4c-8.8,3.7-17.6,7.3-26.3,11
					c-1.8,0.7-1,3.6,0.8,2.9c24-10,48-20,72-30c37.9-15.8,75.8-31.6,113.7-47.4c8.8-3.7,17.6-7.3,26.3-11
					C195,645.4,194.3,642.5,192.5,643.2L192.5,643.2z"/>
			</g>
		</g>
		<g>
			<g>
				<path fill="#B2EBF2" d="M103.3,645c-35.8,13.3-71.7,26.5-107.5,39.8c-5.1,1.9-10.2,3.8-15.3,5.7c-1.8,0.7-1,3.6,0.8,2.9
					c35.8-13.3,71.7-26.5,107.5-39.8c5.1-1.9,10.2-3.8,15.3-5.7C105.9,647.2,105.1,644.3,103.3,645L103.3,645z"/>
			</g>
		</g>
		<g>
			<g>
				<path fill="#B2EBF2" d="M-19.1,677.1c11.8,0,23.5,0,35.3,0c31.7,0,63.4,0,95.1,0c47,0,94,0,141,0c57.4,0,114.7,0,172.1,0
					c62.6,0,125.2,0,187.8,0c63.6,0,127.3,0,190.9,0c58.9,0,117.8,0,176.8,0c50,0,99.9,0,149.9,0c35.9,0,71.9,0,107.8,0
					c17,0,34,0.2,50.9,0c0.7,0,1.5,0,2.2,0c1.9,0,1.9-3,0-3c-11.8,0-23.5,0-35.3,0c-31.7,0-63.4,0-95.1,0c-47,0-94,0-141,0
					c-57.4,0-114.7,0-172.1,0c-62.6,0-125.2,0-187.8,0c-63.6,0-127.3,0-190.9,0c-58.9,0-117.8,0-176.8,0c-50,0-99.9,0-149.9,0
					c-35.9,0-71.9,0-107.8,0c-17,0-34-0.2-50.9,0c-0.7,0-1.5,0-2.2,0C-21.1,674.1-21.1,677.1-19.1,677.1L-19.1,677.1z"/>
			</g>
		</g>
		<g>
			<g>
				<path fill="#B2EBF2" d="M-19.1,736.5c11.8,0,23.5,0,35.3,0c31.7,0,63.4,0,95.1,0c47,0,94,0,141,0c57.4,0,114.7,0,172.1,0
					c62.6,0,125.2,0,187.8,0c63.6,0,127.3,0,190.9,0c58.9,0,117.8,0,176.8,0c50,0,99.9,0,149.9,0c35.9,0,71.9,0,107.8,0
					c17,0,34,0.2,50.9,0c0.7,0,1.5,0,2.2,0c1.9,0,1.9-3,0-3c-11.8,0-23.5,0-35.3,0c-31.7,0-63.4,0-95.1,0c-47,0-94,0-141,0
					c-57.4,0-114.7,0-172.1,0c-62.6,0-125.2,0-187.8,0c-63.6,0-127.3,0-190.9,0c-58.9,0-117.8,0-176.8,0c-50,0-99.9,0-149.9,0
					c-35.9,0-71.9,0-107.8,0c-17,0-34-0.2-50.9,0c-0.7,0-1.5,0-2.2,0C-21.1,733.5-21.1,736.5-19.1,736.5L-19.1,736.5z"/>
			</g>
		</g>
		<g>
			<g>
				<path fill="#B2EBF2" d="M-21.5,823.7c11.8,0,23.5,0,35.3,0c31.7,0,63.4,0,95.1,0c47,0,94,0,141,0c57.4,0,114.7,0,172.1,0
					c62.6,0,125.2,0,187.8,0c63.6,0,127.3,0,190.9,0c58.9,0,117.8,0,176.8,0c50,0,99.9,0,149.9,0c35.9,0,71.9,0,107.8,0
					c17,0,34,0.2,50.9,0c0.7,0,1.5,0,2.2,0c1.9,0,1.9-3,0-3c-11.8,0-23.5,0-35.3,0c-31.7,0-63.4,0-95.1,0c-47,0-94,0-141,0
					c-57.4,0-114.7,0-172.1,0c-62.6,0-125.2,0-187.8,0c-63.6,0-127.3,0-190.9,0c-58.9,0-117.8,0-176.8,0c-50,0-99.9,0-149.9,0
					c-35.9,0-71.9,0-107.8,0c-17,0-34-0.2-50.9,0c-0.7,0-1.5,0-2.2,0C-23.4,820.7-23.4,823.7-21.5,823.7L-21.5,823.7z"/>
			</g>
		</g>
	</g>
	<g clip-path="url(#SVGID_2_)">
		<g>
			<g>
				<path fill="#006064" d="M166.5,705.7c1.6-13.1,3.3-26.1,4.9-39.2c1-8,2-15.9,3-23.9c0.2-2,0.4-4,0.7-5.9c0.2-1,0,0.2,0,0
					c0.3-1.2,0.7-2.4,1.2-3.6c1.8-4.4,4.9-9.3,10-9.9c3.8-0.5,7.9,0,11.8,0c10.2,0,20.5,0,30.7,0c3,0,6-0.1,9,0
					c1.2,0-0.5-0.2,0.1-0.1c0.9,0.2,1.8,0.5,2.7,0.9c9.4,4.4,9.5,16.1,10.8,25c2.9,18.9,6.2,37.8,9.6,56.6c0.7,3.8,6.5,2.2,5.8-1.6
					c-3.2-18-6.3-36.1-9.2-54.1c-1.5-9.8-1.7-21.1-9.7-28.2c-3.9-3.4-7.8-4.6-12.8-4.6c-10.1,0-20.1,0-30.2,0
					c-8.5,0-20.3-2.2-27.3,3.6c-9.8,8.2-9.4,22.9-10.8,34.4c-2.1,16.8-4.2,33.7-6.3,50.5C160,709.5,166,709.4,166.5,705.7
					L166.5,705.7z"/>
			</g>
		</g>
		<g>
			<g>
				<path fill="#00838F" d="M116,529c-5.9,0.9-7.4,7-7,12c0.6,6.6,1.5,13.1,2.4,19.7c2.3,16.3,4.5,32.7,8,48.7
					c1.4,6.5,3.7,12.8,7.7,18.2c6,8.1,14.4,11.4,24.2,11.4c16.8,0.1,33.7,0,50.5,0c6.4,0,12.8-0.1,19.2,0c5.2,0.1,13,0,13.2-7
					c0.1-3.9-5.9-3.9-6,0c-0.1,2.4-66.4,1-71.7,1c-7.9,0-15.5,0.2-21.7-5.6c-4.8-4.5-7.7-10.9-9.2-17.2c-3.2-13.1-5-26.7-6.9-40.1
					c-1.1-7.7-2.3-15.5-3.2-23.2c-0.3-2.9-2.6-11.4,2-12.1C121.4,534.2,119.8,528.4,116,529L116,529z"/>
			</g>
		</g>
		<path fill="none" stroke="#FFFF00" stroke-width="0.25" stroke-miterlimit="10" d="M235.2,730.1c0,0,1.2,1,3.5,0.4
			c2.3-0.5,3.3-1.9,3.3-1.9s1.1-0.8,1.3,1c0.1,1.8,0.5,3.7,0.1,4.4c-0.5,0.6-1.6,1.2-3.7,1.6c-2.1,0.4-3.9,0.1-4.1-0.5
			C235.2,734.5,234.4,729.7,235.2,730.1z"/>
		<g>
			<polygon fill="#546E7A" points="169.7,658.3 255.4,658.3 254.9,653.8 170.5,653.8 			"/>
			<polygon fill="#546E7A" points="126.8,684.1 169.3,658.3 170.1,653.8 127.5,679.6 			"/>
			<polygon fill="#455A64" points="130.5,681.8 169.3,658.3 252.6,658.3 230,681.8 			"/>
			<polygon fill="#78909C" points="126.6,683.8 229.8,683.8 228.9,679.3 127.3,679.3 			"/>
			<polygon fill="#78909C" points="229.8,683.8 255.4,658.3 254.9,653.3 229.4,679.3 			"/>
		</g>
		<g>
			<g>
				<path fill="#00838F" d="M122.8,736.8c2-15,4.1-29.9,6.1-44.9c1.2-8.6,2.3-17.1,3.5-25.7c0.6-4.3,1.1-7.7,3.2-11.6
					c2.9-5.4,7-9,13.3-9.1c4.3-0.1,8.7,0,13,0c11.5,0,23.1,0,34.6,0c3.7,0,7.5,0.1,11.2,0c0.5,0,1,0,1.4,0c-1.5-0.1,1.2,0.4,1.8,0.5
					c11.1,3.8,12.3,15.4,13.9,25.4c3.6,21.5,7.7,42.9,11.8,64.4c0.7,3.8,6.5,2.2,5.8-1.6c-3.9-20.1-7.7-40.3-11.2-60.5
					c-1.9-11-2.5-23-12.3-30.2c-4.6-3.4-8.9-4.1-14.3-4.1c-11.4,0-22.8,0-34.3,0c-5.6,0-11.2,0-16.8,0c-4.9,0-9.7-0.2-14.2,2.3
					c-13.2,7.4-13,24.1-14.8,37c-2.6,18.8-5.1,37.6-7.7,56.5C116.5,739,122.3,740.6,122.8,736.8L122.8,736.8z"/>
			</g>
		</g>
		<g>
			<g>
				<path fill="#006064" d="M149.3,554.5c2.1,14.7,4.1,29.7,7.5,44.2c2.3,9.8,7.9,20,17.3,24.6c8.6,4.2,19.6,2.7,28.9,2.7
					c11.4,0,22.8,0,34.1,0c7.1,0,14.2,0,21.4,0c3.9,0,3.9-6,0-6c-15.6,0-31.2,0-46.8,0c-8.4,0-16.9,0.2-25.3,0
					c-12.5-0.3-20.4-9.9-23.4-21.4c-4-14.9-5.7-30.6-7.9-45.8C154.5,549.1,148.8,550.7,149.3,554.5L149.3,554.5z"/>
			</g>
		</g>
		<g>
			<path fill="#5D4037" d="M233,641.3h-83.2c-2.3,0-3-8.4-0.9-9.4l36.3-11.1c2.5-1.1,5.3-1.7,8-1.7l74.1-5.1c2.3,0,2.2,8.1,0.2,9.3
				L241.2,639C238.7,640.5,235.9,641.3,233,641.3z"/>
			<path fill="#6D4C41" d="M233,636h-83.2c-2.3,0-3-3.2-0.9-4.1l36.3-16.3c2.5-1.1,5.3-1.7,8-1.7h73.2c2.3,0,3.2,3.1,1.2,4.3
				l-26.4,15.6C238.7,635.3,235.9,636,233,636z"/>
			<ellipse fill="#4E342E" cx="192.7" cy="617.5" rx="1.8" ry="1"/>
			<ellipse fill="#4E342E" cx="252.6" cy="617.5" rx="1.8" ry="1"/>
			<ellipse fill="#4E342E" cx="168" cy="630" rx="1.8" ry="1"/>
			<ellipse fill="#4E342E" cx="231.3" cy="630" rx="1.8" ry="1"/>
		</g>
		<g>
			<g>
				<path fill="#00838F" d="M245.2,567.5c1.5,12.7,3,25.3,4.4,38c0.9,8.3,1.9,16.5,2.6,24.8c0.2,2.5,0.4,5,0.6,7.6
					c0,0.3,0,1.8,0,1.2c0,0-0.5,2.5-0.7,3.4c-1.7,7-6,12.4-12,16.3c-3.2,2.1-8.5,5.9-12.7,5.7c-3.9-0.3-3.8,5.7,0,6
					c2.9,0.2,6.1-1.3,8.6-2.5c6.6-3.1,12.9-7.4,17.1-13.4c3.6-5,5.9-11.7,5.5-17.9c-1-17.4-3.5-34.8-5.5-52.1
					c-0.7-5.7-1.3-11.5-2-17.2C250.7,563.7,244.7,563.7,245.2,567.5L245.2,567.5z"/>
			</g>
		</g>
		<g>
			<g>
				<path fill="#0097A7" d="M113.4,579.7c3.7,8.9,13.4,7.2,21.1,6.6c12.5-1,24.9-2.2,37.4-3.4c23.2-2.2,46.5-4.2,69.7-6.7
					c3.3-0.4,6.5-1.3,9.7-2.2c7.3-2.1,16.9-4.6,22.1-10.6c2.5-2.9-1.7-7.2-4.2-4.2c-4.4,5.2-13.1,7.2-19.4,9.1
					c-2.3,0.7-4.5,1.2-6.8,1.8c-1.8,0.5,0.6,0-0.7,0.2c-7.2,0.9-14.5,1.4-21.7,2.1c-25.9,2.5-51.8,5-77.7,7.3
					c-4.6,0.4-9.3,0.8-13.9,1.2c-3.6,0.3-8.5,0-9.6-2.6C117.8,574.6,112,576.2,113.4,579.7L113.4,579.7z"/>
			</g>
		</g>
		<g>
			<path fill="#5D4037" d="M119.9,578.1c-1.1,1,4.9,5,21.1,3.2s131.5-14,131.5-14s8.3-1,13.5-2.5s20.2-6.3,20.2-6.3s1.1-3.6-3.4-3.1
				c-5.2,0.6-57.2,8.2-61.8,9.3c-4.1,1-12.2,1-18.4,2.5c-3.9,1-8.7,2.5-12,2.9c-4.5,0.6-75.1,8.5-77.8,8.7
				C130,579.1,119.9,578.1,119.9,578.1z"/>
			<path fill="#6D4C41" d="M119.9,578.1c-1.1,1,4.9,1.8,21.1,0s131.5-14,131.5-14s8.3-1,13.5-2.5s20-4.9,20-4.9s1.3-1.8-3.3-1.3
				c-5.2,0.6-57.2,4.9-61.8,6.1c-4.1,1-13.4,3.2-19.6,4.8c-3.9,1-8.1,1.6-11.3,2.1c-4.5,0.6-74.5,8.3-77.3,8.5
				C130,577.1,119.9,578.1,119.9,578.1z"/>
		</g>
		<g>
			<path fill="#5D4037" d="M158.4,557.5l-45.2,10.4c-1.4,0.3-2.8-0.6-3-2.1l-5-34.8c-0.2-1.4,0.8-2.7,2.3-2.8l45.3-3.6
				c1.3-0.1,2.4,0.8,2.7,2l5,28.1C160.6,556,159.7,557.2,158.4,557.5z"/>
			<path fill="#6D4C41" d="M160.7,557.5l-45.2,10.4c-1.4,0.3-2.8-0.6-3-2.1l-5-34.8c-0.2-1.4,0.8-2.7,2.3-2.8l45.3-3.6
				c1.3-0.1,2.4,0.8,2.7,2l5,28.1C162.8,556,162,557.2,160.7,557.5z"/>
			<ellipse fill="#4E342E" cx="118.9" cy="559.9" rx="1.3" ry="1.3"/>
			<ellipse fill="#4E342E" cx="156.5" cy="553.7" rx="1.3" ry="1.3"/>
			<ellipse fill="#4E342E" cx="113.7" cy="532.4" rx="1.3" ry="1.3"/>
			<ellipse fill="#4E342E" cx="150.3" cy="529" rx="1.3" ry="1.3"/>
		</g>
	</g>
	<g clip-path="url(#SVGID_2_)">
		<g>
			<g>
				<path fill="#006064" d="M436.2,709.7c2-12.5,4-24.9,6-37.4c1.2-7.6,2.5-15.2,3.7-22.7c0.5-3.2,0.9-6.3,2.1-9.3
					c1.6-4,4.5-8.6,9.1-9.4c3.4-0.6,7.2-0.1,10.6,0c9.8,0,19.6,0,29.4,0c3.4,0,6.7,0,10.1,0c0.7,0,1.4-0.1,2,0
					c-1.4-0.1,0.1,0,0.7,0.2c9.1,3.8,10.1,12.9,11.2,21.6c2.3,18.4,4.3,36.9,6.3,55.4c0.4,3.8,6.4,3.8,6,0
					c-1.9-17.6-3.9-35.3-6-52.9c-1.2-9.6-1.6-20.2-9.8-26.7c-3.9-3-7.4-3.7-12-3.6c-9.7,0-19.4,0-29.1,0c-7.8,0-19.5-2.1-26.3,2.6
					c-10,6.9-10.2,21.5-11.9,32.2c-2.6,16.2-5.2,32.4-7.8,48.5C429.8,711.8,435.5,713.5,436.2,709.7L436.2,709.7z"/>
			</g>
		</g>
		<g>
			<polygon fill="#546E7A" points="440.6,663.4 525.4,663.4 524.9,658.9 441.3,658.9 			"/>
			<polygon fill="#455A64" points="430.8,689.1 530.9,689.1 525.4,663.3 440.6,663.3 			"/>
			<polygon fill="#546E7A" points="430.8,689.1 440.6,663.4 441.3,658.9 431.6,684.6 			"/>
			<polygon fill="#78909C" points="530.9,689.1 525.4,663.9 524.9,658.9 530.5,684.6 			"/>
			<polygon fill="#78909C" points="430.8,689.1 530.9,689.1 530,684.6 431.6,684.6 			"/>
		</g>
		<g>
			<g>
				<path fill="#00838F" d="M421.2,535.4c-5.9,0.9-7.4,7-7,12c0.6,6.6,1.5,13.1,2.4,19.7c2.3,16.3,4.5,32.7,8,48.7
					c1.4,6.5,3.7,12.8,7.7,18.2c6,8.1,14.4,11.4,24.2,11.4c16.8,0.1,33.7,0,50.5,0c6.4,0,12.8-0.1,19.2,0c5.2,0.1,13,0,13.2-7
					c0.1-3.9-5.9-3.9-6,0c-0.1,2.4-66.4,1-71.7,1c-7.9,0-15.5,0.2-21.7-5.6c-4.8-4.5-7.7-10.9-9.2-17.2c-3.2-13.1-5-26.7-6.9-40.1
					c-1.1-7.7-2.3-15.5-3.2-23.2c-0.3-2.9-2.6-11.4,2-12.1C426.6,540.6,425,534.8,421.2,535.4L421.2,535.4z"/>
			</g>
		</g>
		<g>
			<g>
				<path fill="#006064" d="M422.9,556.3c2.1,14.7,4.1,29.7,7.5,44.2c2.3,9.8,7.9,20,17.3,24.6c8.6,4.2,19.6,2.7,28.9,2.7
					c11.4,0,22.8,0,34.1,0c7.1,0,14.2,0,21.4,0c3.9,0,3.9-6,0-6c-15.6,0-31.2,0-46.8,0c-8.4,0-16.9,0.2-25.3,0
					c-12.5-0.3-20.4-9.9-23.4-21.4c-4-14.9-5.7-30.6-7.9-45.8C428.1,550.9,422.3,552.5,422.9,556.3L422.9,556.3z"/>
			</g>
		</g>
		<g>
			<g>
				<path fill="#00838F" d="M551.7,573.1c0.7,12.2,1.4,24.3,2.1,36.5c0.4,8,0.9,16.1,1.2,24.1c0.1,2.5,0.2,5,0.2,7.5
					c0,0.6,0,1.1,0,1.7c0.1-1-0.4,2-0.5,2.7c-1.2,6.4-4.4,11-10.4,13.9c-4.8,2.3-10.6,4.4-16,4.7c-3.8,0.2-3.9,6.2,0,6
					c9.7-0.4,22.3-4.8,28.1-12.8c3.5-4.8,4.9-11.2,4.8-17.1c-0.1-16.8-1.5-33.7-2.4-50.5c-0.3-5.6-0.6-11.1-1-16.7
					C557.4,569.2,551.4,569.2,551.7,573.1L551.7,573.1z"/>
			</g>
		</g>
		<g>
			<g>
				<path fill="#0097A7" d="M418.8,582.2c1.3,9.5,10,9.4,17.2,8.7c11.1-1,22.1-2.2,33.1-3.4c23.5-2.5,47-5.1,70.5-7.8
					c7-0.8,18.6-2.2,18.2-11.5c-0.2-3.8-6.2-3.9-6,0c0.1,2.9-3.4,3.9-5.7,4.5c-0.8,0.2-1.7,0.4-2.6,0.6c-1.1,0.2,0.7-0.1,0.2,0
					c-1.7,0.2-3.5,0.4-5.2,0.6c-9,1-18,2-27,3c-22.9,2.5-45.8,5.1-68.8,7.4c-3.8,0.4-7.5,0.8-11.3,1.1c-3.6,0.3-6.5-0.5-7-4.7
					C424.1,576.8,418.3,578.4,418.8,582.2L418.8,582.2z"/>
			</g>
		</g>
		<g>
			<g>
				<path fill="#00838F" d="M425.4,740.4c2.4-14.6,4.8-29.3,7.2-43.9c1.4-8.7,2.9-17.4,4.3-26.1c0.6-3.8,1.1-7.4,2.7-10.9
					c2.2-5.1,5.9-9.9,11.8-10.3c4.1-0.3,8.3,0,12.4,0c11.5,0,23.1,0,34.6,0c3.8,0,7.5,0,11.3,0c0.7,0,1.4-0.1,2.1,0
					c-1.6-0.1,0.5,0.1,1.1,0.4c10.7,3.9,12,15.1,13.3,24.9c2.7,21.4,5.1,42.8,7.5,64.2c0.4,3.8,6.4,3.8,6,0
					c-2.2-20.1-4.5-40.2-7-60.3c-1.3-11-1.7-23.4-11.2-30.9c-4.4-3.5-8.5-4.3-13.8-4.3c-11.2,0-22.5,0-33.7,0c-5.6,0-11.1,0-16.7,0
					c-4.8,0-9.5-0.2-13.8,2.4c-12.2,7.4-12.5,24.9-14.6,37.3c-3.1,18.7-6.1,37.3-9.2,56C419,742.6,424.8,744.2,425.4,740.4
					L425.4,740.4z"/>
			</g>
		</g>
		<g>
			<path fill="#5D4037" d="M537.1,641.8h-82.6c-3.1,0-5-2.9-4.9-6.9l1.8-12.6c0.2-1.3,1.3-2.2,2.5-2.2h76.3c1.8,0,3.9-0.3,4.7,1.3
				l6.4,12.7C542,637.8,541.5,641.8,537.1,641.8z"/>
			<path fill="#6D4C41" d="M537.1,639.6h-82.6c-3.1,0-5.5-2.8-5.1-5.8l2-13.6c0.2-1.3,1.3-2.2,2.5-2.2h76.3c1.8,0,3.5,1,4.3,2.6
				l6.4,12.7C542.5,636.2,540.4,639.6,537.1,639.6z"/>
			<ellipse fill="#4E342E" cx="460.7" cy="635" rx="1.8" ry="1"/>
			<ellipse fill="#4E342E" cx="533.4" cy="635" rx="1.8" ry="1"/>
			<ellipse fill="#4E342E" cx="529.9" cy="622.9" rx="1.8" ry="1"/>
			<ellipse fill="#4E342E" cx="461.9" cy="622.9" rx="1.8" ry="1"/>
		</g>
		<g>
			<path fill="#5D4037" d="M426.4,570.1l6.5-7.2c0.3-0.3,0.4-0.7,0.3-1l-4.2-34.1c-0.1-0.9-1.8-1.1-2.6-0.7l-8,4.2
				c-0.5,0.3-0.7,0.8-0.7,1.3l5.1,37.4C423,571,425.7,570.9,426.4,570.1z"/>
			<path fill="#5D4037" d="M417.8,531.9c0,0,0.2-0.3,0.3-0.5c0.4-0.4,7.9-4.2,8.4-4.5c0.4-0.2,2.1-0.4,2.4,0.8l-8,4.2H417.8z"/>
			<path fill="#6D4C41" d="M426.9,569.7l6.5-6.9c0.3-0.3,0.4-0.7,0.3-1l-4.3-33.2c-0.1-0.9-1.1-1.4-1.9-1l-7,3.7
				c-0.5,0.3-0.7,0.8-0.7,1.3l4.8,36.4C424.9,570,426.2,570.5,426.9,569.7z"/>
			<path fill="#4E342E" d="M426.4,536.6c0,0.1-0.2,0-0.2,0c-0.2-0.1-0.4,0.2-0.4,0.4c-0.1,0.4-0.2,0.9,0.2,1.2
				c0.2,0.2,0.5,0.2,0.7,0.2c0.1,0,0.2,0,0.3-0.1c0,0,0.1-0.1,0.1-0.1c0.1-0.3,0.2-0.5,0.2-0.8c0-0.1,0-0.2,0-0.2
				c0-0.1-0.1-0.1-0.2-0.2c-0.3-0.1-0.6-0.3-0.9-0.4"/>
			<path fill="#4E342E" d="M426.4,559.9c-0.2,0-0.3,0.1-0.4,0.3c-0.2,0.4-0.4,1,0,1.3c0.3,0.3,0.8,0.2,1.1-0.1s0.3-0.8,0.1-1.2
				c-0.2-0.4-0.7-0.6-1-0.4"/>
			<path fill="#4E342E" d="M431.3,555.5c-0.5,0.1-0.8,0.5-0.8,1c0,0.1,0,0.2,0.1,0.2c0.1,0.1,0.1,0.2,0.2,0.2c0.4,0.2,0.9-0.1,1-0.5
				s-0.2-0.9-0.6-0.9"/>
		</g>
		<g>
			<g>
				<path fill="#5D4037" d="M601,561.2L601,561.2c0.3,1.6-5.1,2.5-5.1,2.5l-154.5,19.4c0,0-2.9,0.4-6,0.2c-0.8-0.1-1.1-0.5-1.1-1
					c-0.5,0.4-0.1,1.6,0,2.5c0.1,0.4,0.3,0.9,1.1,1c3.1,0.2,6-0.2,6-0.2l154.5-19.4c0,0,4.8-0.6,5.2-2.7
					C601.1,562.9,601.2,561.4,601,561.2z"/>
				<path fill="#5D4037" d="M514.6,566.8c0,0,0.8,1.4,1.4,2.6c0.6-0.2,0.9-0.5,0.8-1c-0.3-0.9-1.9-3.4-1.9-3.4s-0.6-0.8-0.4-1.1
					c-0.4,0.1-0.3,1.4-0.3,1.7C514.3,566.2,514.6,566.8,514.6,566.8z"/>
				<path fill="#5D4037" d="M516,563.6C516.1,563.6,516.1,563.6,516,563.6C516.1,563.6,516.1,563.6,516,563.6z"/>
			</g>
			<path fill="#6D4C41" d="M434.4,582.3c0,0.4,0.3,0.9,1.1,1c3.1,0.2,6-0.2,6-0.2L596,563.7c0,0,6.3-1.1,5-2.8s-11.3-7.5-13.3-7.3
				c-5.6,0-62.9,7.4-71.4,9.9c-0.4,0.1-1.6,0.1-1.7,0.4c-0.1,0.3,0.4,1.1,0.4,1.1s1.6,2.5,1.9,3.4c0.2,0.5-0.2,0.8-1,1
				c-3,0.9-74.5,11.1-74.5,11.1S434.4,581.6,434.4,582.3z"/>
		</g>
	</g>
	<polygon opacity="0.5" clip-path="url(#SVGID_2_)" fill="#DFDFDF" points="258.6,803.2 0,803.2 0,3.2 255.4,0 413.4,646.9 	"/>
	<polygon opacity="0.5" clip-path="url(#SVGID_2_)" fill="#DFDFDF" points="1280,800 1243,800 1161.1,687.2 1239,0 1280,0 	"/>
	<polygon clip-path="url(#SVGID_2_)" fill="#81C8FA" points="1187.6,161.1 1186.8,149.1 894.8,148.1 894.8,647.5 1187.6,647.5 	"/>
	<rect x="915.8" y="161.6" clip-path="url(#SVGID_2_)" fill="#F8F06F" width="271.8" height="485.9"/>
	<rect x="915.8" y="575.6" clip-path="url(#SVGID_2_)" fill="#7CB342" width="271.8" height="71.9"/>
	<g clip-path="url(#SVGID_2_)">
		<defs>
			<rect id="SVGID_3_" x="915.8" y="161.6" width="271.8" height="485.9"/>
		</defs>
		<clipPath id="SVGID_4_">
			<use xlink:href="#SVGID_3_"  overflow="visible"/>
		</clipPath>
		<path clip-path="url(#SVGID_4_)" fill="#FFFFFF" d="M1529.7,341.6c0,0-4,2-10.4,5.5c-2.5-1.9-4.4-2.8-4.4-2.8
			c-2.2-32.3-39.7-29.7-39.7-29.7s1.9-12.6-12.3-15.3c-14.2-2.7-22,9.1-22,9.1c-16.6-9.7-28.7,5.4-28.7,5.4
			c-16.4-2.4-26.6,9.1-26.6,9.1c-11.8-9.1-28.1-5.4-28.1-5.4c-8-26-35.5-25.2-35.5-25.2s2.4-13.7-11.5-13.4
			c-14,0.3-19.3,14.8-19.3,14.8s-10.2-3-25.2,7c-15,9.9-13.4,25.2-13.4,25.2c-14.5,3.7-18.8,17.2-18.8,17.2
			c-30.1-13.4-41.1,12.9-41.1,12.9c-14.8-4.3-22.5,14.2-22.5,14.2c-23.1,0.3-31.7,22-31.7,22c-25.2,2.1-33,23.2-33,23.2
			c1.4,7,22.1,11.1,51.5,13.2c5.7,5.2,16.7,12.7,31.8,9.1c0,0,12,16.1,25.3,8.4c0,0,17,22.9,43,2.6c0,0,7.4,12.1,22.4,12.2
			c0,0,2.1,15.2,19.1,21.2c17,6,26.2,0.7,26.2,0.7s8.7,12.8,22.3,9.7c13.6-3.1,8-15.8,8-15.8s26.9-5.9,28.3-33.1c0,0,16.7-0.3,26-12
			c0,0,12.7,8.7,28,2.4c0,0,15.3,11.7,29.2-1.7c0,0,10.4,9.6,23.6,3.5c13.2-6,8.3-17.8,8.3-17.8s37-6.6,31.4-38.4
			C1529.6,379.5,1549.7,363.4,1529.7,341.6z"/>
		<g clip-path="url(#SVGID_4_)">
			<rect x="1097.3" y="415" fill="#FF7043" width="175.5" height="186.1"/>
			<polygon fill="#6A3328" points="1275.1,416.6 1096.3,416.6 1064.3,485.3 1301.1,485.3 			"/>
			<rect x="1170" y="553.1" fill="#6A3328" width="33.7" height="48"/>
			<rect x="1112.3" y="500.6" fill="#E5FFF8" width="48" height="36"/>
			<rect x="1211.3" y="500.6" fill="#E5FFF8" width="48" height="36"/>
		</g>
		<g clip-path="url(#SVGID_4_)">
			<rect x="839" y="427.2" fill="#FF7043" width="149.8" height="158.8"/>
			<polygon fill="#6A3328" points="990.8,428.6 838.1,428.6 810.8,487.3 1013,487.3 			"/>
			<rect x="901.1" y="545.1" fill="#6A3328" width="28.8" height="41"/>
			<rect x="851.8" y="500.3" fill="#E5FFF8" width="41" height="30.7"/>
			<rect x="936.3" y="500.3" fill="#E5FFF8" width="41" height="30.7"/>
		</g>
		<path clip-path="url(#SVGID_4_)" fill="#FFFFFF" d="M1138.3,133.1c0,0-4,2-10.4,5.5c-2.5-1.9-4.4-2.8-4.4-2.8
			c-2.2-32.3-39.7-29.7-39.7-29.7s1.9-12.6-12.3-15.3c-14.2-2.7-22,9.1-22,9.1c-16.6-9.7-28.7,5.4-28.7,5.4
			c-16.4-2.4-26.6,9.1-26.6,9.1c-11.8-9.1-28.1-5.4-28.1-5.4c-8-26-35.5-25.2-35.5-25.2s2.4-13.7-11.5-13.4
			c-14,0.3-19.3,14.8-19.3,14.8s-10.2-3-25.2,7c-15,9.9-13.4,25.2-13.4,25.2c-14.5,3.7-18.8,17.2-18.8,17.2
			c-30.1-13.4-41.1,12.9-41.1,12.9c-14.8-4.3-22.5,14.2-22.5,14.2c-23.1,0.3-31.7,22-31.7,22c-25.2,2.1-33,23.2-33,23.2
			c1.4,7,22.1,11.1,51.5,13.2c5.7,5.2,16.7,12.7,31.8,9.1c0,0,12,16.1,25.3,8.4c0,0,17,22.9,43,2.6c0,0,7.4,12.1,22.4,12.2
			c0,0,2.1,15.2,19.1,21.2c17,6,26.2,0.7,26.2,0.7s8.7,12.8,22.3,9.7c13.6-3.1,8-15.8,8-15.8s26.9-5.9,28.3-33.1c0,0,16.7-0.3,26-12
			c0,0,12.7,8.7,28,2.4c0,0,15.3,11.7,29.2-1.7c0,0,10.4,9.6,23.6,3.5c13.2-6,8.3-17.8,8.3-17.8s37-6.6,31.4-38.4
			C1138.1,171,1158.3,154.9,1138.3,133.1z"/>
	</g>
</g>
</svg>
