<?xml version="1.0" encoding="utf-8"?>
<!-- Generator: Adobe Illustrator 18.1.0, SVG Export Plug-In . SVG Version: 6.00 Build 0)  -->
<svg version="1.1" id="Capa_1" xmlns="http://www.w3.org/2000/svg" xmlns:xlink="http://www.w3.org/1999/xlink" x="0px" y="0px"
	 viewBox="0 0 253.3 281.1" enable-background="new 0 0 253.3 281.1" xml:space="preserve">
<g>
	<defs>
		<rect id="SVGID_7_" x="0" y="-0.1" width="253.3" height="281.1"/>
	</defs>
	<clipPath id="SVGID_2_">
		<use xlink:href="#SVGID_7_"  overflow="visible"/>
	</clipPath>
	
		<rect x="0" y="-0.1" clip-path="url(#SVGID_2_)" fill="#8E24AA" stroke="#000000" stroke-miterlimit="10" width="253.3" height="281.1"/>
	
		<rect x="-189.2" y="-4.7" transform="matrix(0.9416 -0.3368 0.3368 0.9416 -60.2186 0.6152)" clip-path="url(#SVGID_2_)" fill="#7B1FA2" width="321.8" height="357.1"/>
	<g clip-path="url(#SVGID_2_)">
		<g>
			<path fill="#DDA485" d="M49.7,372.8c-0.2-1.8-0.3-3.7-0.4-5.5c0.1-0.1,0.1-0.2,0.1-0.3c-1.5-11.4-2.5-22.5-1.5-34.1
				c1.2-14.8,6.9-26.4,13.3-39.4c0,0-0.4-8.6-3.2-17.1c-3.5-10.5-9.6-21.3-9.7-21.2c-6.2,8.5-12.3,15.9-17,25.4
				c-4.5,9.1-8.2,18.2-10.3,28.2c-4.2,19.9-1.3,40.8,2.2,60.6c0,0.2,0.1,0.3,0.2,0.4c0.4,6.8-1.5,16.8,6.2,19.5
				c1.4,2.4,3.3,3.8,5.9,2.7c0,0,0,0,0,0c1.2,1,2.6,1.6,4.1,1.6c0.2,0,0.4-0.2,0.4-0.4c1.2,1.7,3,2.9,5.3,2.1c0.1,0,0.2-0.2,0.3-0.3
				c0.9-0.6,1.1-1.9,0.9-3.2c-0.2-1.5-0.7-3-1.1-4.4c-0.6-1.9-0.6-3.9-0.5-5.9c0.1,0.1,0.1,0.3,0.2,0.4c0.5,0.8,1.2,1.6,1.9,2.2
				c0.6,0.5,1.3,0.8,2,0.7c0.3,0,0.8-0.3,0.9-0.4c2-1,1.4-3.7,1.1-5.5C50.6,376.9,50,374.9,49.7,372.8z"/>
			<path fill="#D69A7F" d="M48.5,255.4c-6.2,8.5-12.3,15.9-17,25.4C27,290,23.3,299,21.2,309c-4.2,19.9-1.3,40.8,2.2,60.6
				c0,0.2,0.1,0.3,0.2,0.4c0.4,6.8-1.5,16.8,6.2,19.5c0,0-6.1-39.7-2.5-71C30.1,293.5,48.5,255.4,48.5,255.4z"/>
			<g>
				<path fill="#DDA485" d="M285.3,137.1c0.1-0.1,0.3-0.2,0.4-0.4c1.5-1.4,2.9-3.6,2.3-5.7c-0.4-1.3-1.8-1.8-3.2-1.8
					c0.2-0.2,0.4-0.4,0.5-0.7c1-1.5,1.1-2.9-0.4-4c-0.5-0.4-1.2-0.7-1.9-0.9c1.6-1.5,2.7-3.5,2.7-5.4c0-2.5-5.5-1.7-6.9-1.8
					c-2.4-0.1-7.8-1-10,0.8c-0.1-0.1-0.3-0.1-0.4,0c-2.5,1.3-4.8,3.1-7,4.8c-1.6,1.2-3.4,2.5-4.7,4.1c-2.7,2.5-4.4,5.7-5.8,9.5
					c-3.5,10.2-5.9,20.5-11,30.1c-10,18.8-19.7,34.9-33.1,51.5c-0.1,0.1,3.4,10.3,8.1,18.5c4.4,7.6,8.9,14.1,9.1,13.8
					c11.4-11.5,22.1-26.3,29.6-40.5c8.4-15.9,17-33.4,19.3-51.4c0,0,0.1,0,0.1,0c3-1.7,5.7-3.7,7.5-6.5c0.7-0.2,1.4-0.4,1.9-0.6
					c1.9-0.9,3.8-2.1,4.3-4.3c0.2-1.2-0.6-2.1-1.6-2.5c0.2-0.2,0.4-0.3,0.7-0.5C288.7,141.2,288.6,138.1,285.3,137.1z"/>
			</g>
			<g>
				<path fill="#D69A7F" d="M254,136.9c0.8-10.7-8.5,20.6-13.6,30.1c-10,18.8-19.7,34.9-33.1,51.5c-0.1,0.1,0.4,3.9,5.2,12.2
					C212.4,230.7,251.3,171.5,254,136.9z"/>
			</g>
			<path fill="#DDA485" d="M198,123.9c-3.8-1.1-22.3-3.9-30.2-9.3c-6.9-4.7-12.7-8.2-18.4-14.2c-4.3-4.6-5.8-6.5-10.2-6.1
				c-4.5-1.3-9.6,0-12.3,4.6c-0.6,0.6-1.2,1.3-1.8,2c-0.8-1.2-1.8-2.2-2.9-3.1c-0.8-0.9-1.8-1.7-2.8-2.3c-4.1-2.4-8.9-0.2-11,3.7
				c-5.6,4.3-9,12-14.3,16.8c-4.3,3.9-9,7.3-13.6,10.9c-1,0.7-2,1.4-3.1,2c-10.5,3.5-15.9,1.1-19.1,1.5c-1.9-0.2-3.7,0.4-5.8,1.1
				c-6.3,2.4-7.1,9.2-6.3,15c1,6.5,5.1,11.5,12,11.7c1.1,0,2.1-0.3,3.1-0.8c0,1.3,0.2,2.7,0.4,4c-0.1,5.2,2,10.7,4,15.7
				c0.2,2.7,1,5.1,2.3,7.3c2.3,6.4,5.5,12.5,10.1,17.2c6.4,6.4,13.4,12.9,22.5,14.9c0.9,0.2,1.7,0.3,2.6,0.4
				c0.8,0.5,1.8,0.9,2.8,1.3c10.3,3.5,19.9,4.3,30.5,2.3c18.5-3.3,36.7-17.6,46.2-33.4c1.3-2.1,2.3-4.4,3.1-6.8
				c0.6-0.9,1.1-1.9,1.6-2.8c0.5-1,0.8-2,0.8-2.9c0.1-0.1,0.1-0.2,0.2-0.3c1-1.7,2.5-8.4,2.8-10c0.2-1.1,0.2-2.1-0.1-3
				c0.2-1.3,0.3-2.7,0.5-4.1c0-0.5,0-1,0-1.4c0.1-0.5,0.1-1,0.2-1.4c0.1-0.8,0-1.5-0.2-2.2c0-0.9-0.1-1.8-0.4-2.7
				c0-0.1,0.1-0.2,0.1-0.3c0.7,0,1.4,0.5,2.1,0.3c0.8-0.2,1.6-0.4,2.3-0.7C206.3,143.1,210.5,127.5,198,123.9z"/>
			<path fill="#D69A7F" d="M106.5,218.2c-1.1-0.4-2-0.8-2.8-1.3c-0.9-0.1-1.7-0.2-2.6-0.4c-9.1-2.1-16-8.5-22.5-14.9
				c-4.6-4.6-7.8-10.8-10.1-17.2c-1.3-2.1-2.1-4.5-2.3-7.3c-2-5-4.1-10.5-4-15.7c-0.2-1.4-0.4-2.7-0.4-4c-1,0.5-2,0.8-3.1,0.8
				c-6.9-0.2-11-5.2-12-11.7c-0.9-5.8-0.1-12.6,6.3-15c2.1-0.8,4-1.4,5.8-1.1c3.2-0.3,8.6,2,19.1-1.5c1.1-0.6,2.2-1.3,3.1-2
				c4.6-3.6,9.3-7,13.6-10.9c5.2-4.8,8.7-12.5,14.3-16.8c2-3.8,6.9-6.1,11-3.7c1.1,0.6,2,1.4,2.8,2.3c1.1,0.8,2.1,1.9,2.9,3.1
				c0.6-0.7,1.2-1.4,1.8-2c2.7-4.6,7.8-5.9,12.3-4.6c4.5-0.4,5.9,1.5,10.2,6.1c0,0-6.4-1.1-12.2,0.3c-4.1,1-7,4.5-11.1,5.1
				c-4.3,0.6-6.6-3-10.3-2c-9.3,2.5-11.8,13.7-25.8,23.1c-11.1,7.5-21.8,10.6-23.7,15.7c-2.5,6.7-0.2,29,9.8,45.5
				C87.6,206.1,106.5,218.2,106.5,218.2z"/>
			<g>
				<path fill="#DB9286" d="M79.5,155.3c-0.4,0-0.9,0-1.3,0.1c-3.7-0.3-7.4,0.3-10.2,1.8c-1,0.5-1.7,1.5-2,2.5
					c-0.8,0.9-0.5,2.2,0.3,2.9c0.1,0.2,0.2,0.3,0.3,0.5c2,2.4,5.6,3,8.5,3.2c1,0.1,2.3,0.1,3.8,0.1c0.4,0.3,0.8,0.5,1.3,0.5
					c4.4,0.5,11.4-0.5,11.8-6.1C92.3,155.9,83.5,154.5,79.5,155.3z"/>
				<path fill="#DB9286" d="M191.7,159.4c-0.7-0.8-1.5-1.6-2.4-2.2c0.1,0,0.1,0,0.2,0c0.3,0,0.4-0.6,0.1-0.8
					c-4.3-2.1-9.3-2.4-13.8-1.4c-0.2,0.1-0.5,0.1-0.8,0.2c-2,0.6-3.9,1.4-5.4,2.6c-1.1,0.8-1.4,3.2-0.4,4.3c0.4,0.4,0.8,0.7,1.1,1
					c2,3.6,6.5,3.8,9.5,3.8c3.8,0.1,9.2-0.5,11.9-4.5C192.3,161.6,192.4,160.2,191.7,159.4z"/>
			</g>
			<path fill="#4C2502" d="M199.9,119.1c-0.9-0.1-1.9-0.2-2.8-0.3c0.4-1.2,0.2-2.6-0.7-3.6c0.5-3.9-0.9-8.9-1.2-11.9
				c-1.1-9.4-3.2-20.6-8.6-28.7c-4.5-6.9-9.1-14.2-16.4-18.3c-3-1.7-6.5-3.6-9.9-4.6c-0.7-0.3-1.4-0.5-2.3-0.5
				c-0.3-0.1-0.7-0.1-1-0.1c-2.7-1.1-5.9-1.6-8.1-1.8c-2.4-0.2-5.1-0.7-7.8-1.1c-3.2-6.2-11.4-9.3-15.8-14.4c-0.8-0.9-1.7-1.2-2.6-1
				c-0.7-0.1-1.4,0-2.1,0.4c-2.7-2.2-5.2-4.5-8.8-5c-1-0.5-2-0.8-3-1c-0.6-0.6-1.3-1-2.3-1.1c-1.6-0.1-3.1,0.1-4.6,0.7
				c-3.6-0.2-7,1.3-9.6,5.4c-3.5,3.2-5.9,9.2-7.5,12.7c-1,2.2-1.6,4.5-2.3,6.8c-1.8,4.4-3.5,8.9-5.1,13.3c-0.1,0.3-0.1,0.5-0.2,0.7
				c-0.2,0.5-0.4,1.1-0.5,1.6c-1.1,1-2.2,2.1-3.2,3.2c-4.8,4.8-10.8,14.9-12,23.6c-0.8,0.3-1.5,0.9-1.8,1.9
				c-1.4,3.9-4.3,6.7-7.4,9.3c-0.8,0.4-1.5,0.9-2.3,1.3c-4.2,2.3-7.8,5.6-11.7,8.4c-2.9,2-6.2,3.9-8.9,6.3c-2.5,1-5,2-7.7,2.5
				c-0.6,0.1-1.1,0.5-1.5,0.9c-0.6,0-1.3,0.3-1.8,0.9c-0.1,0.1-0.1,0.1-0.2,0.2c-0.2,0.2-0.3,0.4-0.4,0.5c-1.8,0.1-3.6,0.3-5.4,0.6
				c-1.4,0.2-1.2,2.4,0.1,2.6c0.1,0.2,0.3,0.4,0.6,0.6c2.6,1.3,6,1.2,8.9,1.2c0.7,0.1,1.3,0.1,2,0c0.7,0,1.5,0,2.2,0
				c2.1,0.5,4.2,0,6.4,0c2.3-0.1,4.5-0.2,6.7-0.5c-4.1,5.3-8.7,12.6-15.3,13.7c-1.1,0.2-1.8,0.9-2.1,1.7c-0.4,0.2-0.9,0.4-1.3,0.6
				c-0.1,0-0.1,0.1-0.2,0.1c-0.6,0.1-1.1,0.2-1.7,0.3c-0.1,0-0.2,0-0.2,0c-0.5,0-0.8,0.1-1.2,0.5c-0.7,0.7-0.5,2.2,0.6,2.4
				c0.5,0.1,1,0.1,1.4,0.1c0.9,0.6,1.8,0.7,2.9,0.7c0.5,0,0.9,0,1.4,0.1c0.3,0.4,0.9,0.8,1.6,0.9c1.6,0.3,3.7,0.4,5.9,0.1
				c1.2,0.6,2.5,0.4,3.9,0.3c0.3,0,1.2-0.2,2.2-0.5c0.3,0.3,0.6,0.4,1.1,0.5c1,0.1,1.8-0.2,2.8-0.4c2.7-0.7,0.5,5.1,0.1,6
				c-1,2.3-2.4,3.9-4.3,5.2c-0.2,0.1-0.3,0.1-0.5,0.2c-2.2,0.9-4.5,1.8-6.4,3.3c-1,0.8,0.1,2.2,1.2,2c0.4-0.1,0.8-0.2,1.2-0.3
				c0.3,0.2,0.8,0.3,1.3,0.1c1.3-0.5,2.5-1,3.6-1.7c0.2,0,0.5,0,0.7,0c2.3-0.6,4.6-0.8,6.8-1.6c0.3-0.1,3.1-1.4,3.3-1.3
				c0.3,0.2,0.8,0.4,1.2,0.4c2.8,0,7.3-1.1,8.1-4.2c0.7-2.7-2.2-3.4-4.1-4.2c-6.4-2.6-8.2-10.6-5.8-16.6c0.2-0.5,0.1-0.9-0.2-1.3
				c0.6-1.1,1.2-2.2,1.9-3.4c0.6-1.1,1.4-2,2.3-2.9c0.8-0.3,1.5-0.7,2.1-1.1c0.5-0.1,1.2-0.3,1.7-0.4c0,0,0.1,0,0.1,0
				c1,0.2,2,0.2,3,0c0.4,0.1,0.7,0.2,1.1,0.2c0.6,0.1,1.3,0.1,2.1-0.2c0.1,0,0.2-0.1,0.3-0.1c0.2,0,0.5,0,0.7,0
				c0.7,0.7,1.7,1.1,2.9,1c19.9-1.3,31.4-17.8,42.1-33.1c2.5-1.5,5.6-3.4,8.5-4c0.8,0,1.6,0,2.4-0.1c1.3,0.2,2.5,0.7,3.4,1.9
				c0.1,1.4,2.8,4.9,3.4,4.6c0.5-0.2,0.7-0.6,0.9-1c0.3-0.2,0.6-0.5,0.9-0.8c1-0.9,1.9-1.9,2.5-3.2c0.6-0.5,1.2-0.9,2-1.3
				c3.3-1.3,10.8,0.5,13.6,1.4c0.1,0.8,0.6,1.5,1.5,2c4.2,2.2,7.9,6.4,11.3,9.6c0.3,0.3,0.6,0.5,1,0.8c0.6,0.7,1.2,1.4,1.8,2.1
				c5.4,5.9,14.1,8.5,22.5,9.8c1.1,0.4,2.1,0.7,3.2,0.9c0.3,0.3,0.6,0.4,1.1,0.4c0.5,0,0.9,0,1.4,0c0.6,0.1,1.3,0.1,1.9,0.1
				c3,0.3,6,0.8,9,0.6C201.8,121.9,201.7,119.2,199.9,119.1z"/>
			<path fill="#869917" d="M138.5,44.4c-1.4-1.5-2.8-2.9-4.4-4.3c-0.3-0.3-3.8-3.5-4.6-2.7c-0.5-1.5-2.5-2.9-3.6-3.8
				c-1.4-1-3.5-2.1-5.1-1c0,0,0,0,0,0c-4.9,0.3-8.7,3.5-12.9,5.6c-3,1.5-7.6,2.9-9.2,6.2c-0.1,0-0.1,0-0.2,0
				c-0.7,0.3-0.7,1.1-0.8,1.8c-0.2,1-0.3,2-0.3,3.1c0,0,0,0,0,0.1c-0.3,0.2-0.6,0.5-0.8,0.7c0,0,0,0,0,0c-0.1,0-0.2,0-0.3,0.1
				c-0.6,0.8-0.7,1.9-0.8,2.9c-0.1,1-0.3,2.3,0.4,3c0.1,0.1,0.3,0.1,0.4-0.1c0.4-0.7,44.2-8.3,44.1-8.7
				C140.2,46.1,139.3,45.2,138.5,44.4z"/>
			<path fill="#A03C50" d="M150.2,179.9l0-0.2l-0.2,0.1c-11.5,3.3-22.5,4.7-33.9,4.1c-0.1,0-0.3,0-0.6,0c-1.9,0-7.8-0.1-10-1.2
				l-0.4-0.2l0.1,0.4c2.4,12.4,6.7,23.8,22.1,23.9l0.2,0c7.2,0,13.5-2.8,17.8-7.8C149.6,193.8,151.4,187.1,150.2,179.9z"/>
			<g>
				<path fill="#CB6272" d="M121.9,206.2c7.8,1.7,18.1-1.7,18-2c-1.5-6.3-7.4-9.4-13.5-10c-4-0.4-13.3-1-16.5,3.1
					C109.9,197.4,114.4,204.6,121.9,206.2z"/>
			</g>
			<path fill="#56B9DB" d="M191.7,123c-0.1,0-0.1,0.1-0.2,0.1l-2.3-1.1c-2.2,0-4,2.2-5.3,3.8c-1.7,2.1-3.1,4.5-5.3,6.3
				c-4-1.6-8.4-1.5-12.7-1.5c-5.6,0-11.2,0-16.6,1.6c-10.5-5.6-27.7-4.5-37.7,1.7c0,0-0.1-0.1-0.1-0.1c-5.4-1.5-11-1.2-16.5-1.2
				c-4.4,0-8.9,0.1-13,1.8c-2.1-0.7-4.2-1.5-6.3-2.2c-1.6-0.6-3.2-1.2-4.9-1.5l-0.1,0l-0.2,0c-0.1,0-0.3-0.1-0.4-0.1
				c-0.3,0-0.5,0-0.8,0c0,0,0,0,0,0l-10.1-0.7c-0.1,0-0.3,0.1-0.2,0.3c0.3,0.4,0.6,0.7,0.9,1l0,0h0c2.1,1.7,5.5,2.6,7.8,3.5
				c3.8,1.5,8.4,3.7,12.6,4c0,2.3-0.2,4.6-0.6,6.9c-0.5,3.4-0.1,6.8-0.4,10.2c0,0.4,0.4,0.4,0.6,0.2c4.5,1.5,9.9,1,14.6,1.4
				c5.3,0.4,10.4,0.2,15.7,0.3c0.1,0.1,0.2,0.1,0.2,0c0.6,0,0.7-0.6,0.5-1c0.9-2.2,0.8-4.6,0.9-7c0.2-3.7,1.6-7.7,0.6-11.4
				c10.8-3.4,24.9-7.6,35.5-1.3c-0.7,2.6,0,5.4,0.4,8c0.5,3.3-0.1,7,1.3,10c-0.4,0.3-0.2,1.1,0.4,1.1c5.3-0.1,10.5,0.1,15.9-0.3
				c4.6-0.3,10.4,0.2,14.8-1.3c0.2,0,0.4-0.1,0.4-0.3c-0.3-3.6-0.2-7.3-0.3-10.9c-0.1-2.2,0.4-5.4-0.5-7.5c2.3-1.7,4.2-4.1,6.1-6.3
				c1.1-1.2,2.2-2.4,3.3-3.7c0.7-0.8,1.7-1.5,2.1-2.5C192,123.1,191.9,122.9,191.7,123z"/>
			<path opacity="0.7" fill="#FFFFFF" d="M108,152.6c1.5-1.8,0.6-13.5,0.4-15c0-0.3-0.3-0.4-0.5-0.4c-4.6-1.4-9.4-1-14.1-0.8
				c-2.9,0.1-7.5-0.8-10.1,0.8c0,0,0,0,0,0c0,0,0,0-0.1,0c-0.1,0,0,0.1,0,0.1c0,0.1-0.1,0.1-0.1,0.2c-0.2,5-0.8,10.1-0.5,15.1
				c0,0.1,0.2,0.2,0.3,0.1c4.6,0.4,9.1,0.6,13.7,0.8c3.7,0.1,7.4,0.6,11-0.3C108.1,153.1,108.2,152.8,108,152.6z"/>
			<path opacity="0.7" fill="#FFFFFF" d="M177.2,136.1c0-0.1-0.1-0.1-0.1-0.2c0,0,0-0.1,0-0.1c0,0,0,0-0.1,0c0,0,0,0,0,0
				c-2.6-1.6-7.2-0.7-10.1-0.8c-4.8-0.1-9.6-0.6-14.3,0.9c-0.5,0.2-0.4,0.8,0,0.9c-0.7,4.9,0.4,10.1-0.4,15
				c-0.1,0.4,0.3,0.6,0.6,0.5c3.6,0.8,7.3,0.1,10.9-0.2c4.5-0.4,9.1-0.4,13.7-0.8c0.1,0.1,0.3,0.1,0.3-0.1
				C178.1,146.2,177.4,141.1,177.2,136.1z"/>
			<path fill="#9FB73B" d="M227.8,253.4c-9.5-11.1-15.4-23.6-20.8-37c-0.2-0.5-1-0.3-0.9,0.2c-0.1-0.1-0.3-0.1-0.5,0
				c-8.1,4.2-15.4,8.7-24.1,11.7c-2.2-3-6.6-5.6-9.2-6.6c-3.2-1.1-6.5-1.9-9.9-1.3c-4.8,0.9-9.8,2.8-14.6,1.5c0-0.9-34.5,2-34.5,3.3
				c0,0.2,0,0.3,0,0.5c-9.3,0.5-27.6-5.6-31.8,6.8c0,0.1,0.1,0.2,0.2,0.3c0,0.2,0,0.3,0.2,0.4c0.7,0.3,1.4,0.7,2,1
				c-6.5-0.3-13.1,3.3-19,5.6c-6.3,2.4-14.1,4.9-18.8,10c-0.3-0.3-0.9,0.1-0.7,0.6c3.2,6.9,7,13.1,9.5,20.4
				c2.8,8.4,5.7,15.9,6.2,24.9c0,0.3,0.3,0.5,0.6,0.5c0,0,0,0.1,0.1,0c1-0.1,2-0.8,2.9-1.2c0.4-0.2,0.9-0.3,1.3-0.5
				c0,2.9,0.5,5.8,1.7,8.5c-0.7,4.1-0.4,8.1-1.1,12.2c-1,5.6-3.1,11-4.2,16.6c-2.4,12.4-3.5,24.8-6.7,37.1c-0.1,0.2-0.2,0.4-0.1,0.6
				c0,0.2,0.2,0.4,0.4,0.4c19.9,16,43.8,6.1,66.9,10.3c0.3,0,0.4-0.1,0.5-0.3c1.5-0.1,3.5-2.4,4.1-3.2c2.1-2.2,3.6-4.9,5.5-7.3
				c0.1,0,3.8,3.7,5.4,5.5c1.9,2.1,4,4.3,6.5,5.6c0.2,0.1,0.3,0,0.5-0.1c3.8,1.5,9.7-0.4,13.5-0.8c7.4-0.8,14.9-2,22.2-3.2
				c10.4-1.8,21.3-5,27.5-14.2c0.2-0.3,0-0.9-0.1-1.1c-5.2-8.8-4.7-19.9-6.7-29.8c-2-9.8-0.1-20.8-3.9-30.2c7.6-6.6,7.4-17.7,4-27.4
				c5.4-2.4,9.9-6.2,14.7-9.6c4.1-2.9,8.6-5.9,11.8-10C228.5,253.6,228.1,253.4,227.8,253.4z"/>
			<path fill="#DDA485" d="M154.1,231.5c-0.1-0.1-0.2-0.2-0.4-0.2c0,0,0,0,0,0c-0.1,0-0.1-0.1-0.2-0.1c-0.1-0.1-0.2-0.1-0.3-0.2
				c-1-0.5-1.8-0.9-2.9-1.2c-1-0.7-1.9-1.4-2.7-2.2c0-2.4-0.4-4.8-0.1-7.1c0.2-1.7-0.4-3.4-2.5-1.7c-1.7,1.5-24.6,3.1-26,2.6
				c-0.7-0.3-4.6-1.6-5.1,0c-0.6,2-0.2,5.8-0.4,8.5c-0.8,0.8-1.9,1.5-2.8,2.3c-2.1,0.4-2.6,1.7-2.3,3.3c-0.2,0.3-0.3,0.8-0.2,1.2
				c0.4,2.2,1.4,4,2.6,5.8c0.6,1.8,1.3,3.6,2.2,5.3c0.7,1.3,1.7,2.4,2.8,3.4c1.9,3.7,4,7.5,6.3,10.9c0,0.1,0.1,0.1,0.1,0.2
				c0.1,0.3,0.3,0.5,0.5,0.6c0.2,0.3,0.4,0.6,0.6,0.9c1.2,1.6,2.3,3.3,3.2,5.1c-0.4,3,1.8,6.1,3.5,8.4c0,0,0,0,0,0.1
				c0.1,0.4,0.2,0.7,0.4,1.1c0.1,0.3,0.3,0.5,0.4,0.7c0.1,1.2,0.1,2.3,0,3.4c-0.1,1.2,1.9,1.8,2.4,0.7c0.4-0.9,0.6-2,0.6-3.1
				c0.2-0.1,0.3-0.3,0.4-0.5c1.1-1.8,1.5-3.7,2.3-5.6c1.1-2.5,2.3-5,3.6-7.5c0.4-0.8,0.8-1.6,1.2-2.4c0.9-1.3,1.8-2.6,2.5-4
				c0.4-0.1,0.7-0.3,0.9-0.8c1.5-3.3,2.9-6.6,4.2-10c0.9-1.6,1.6-3.3,2.2-5c0.1-0.1,0.2-0.2,0.2-0.3c1.2-2.5,1.8-5,2.3-7.7
				c0.1-0.4,0-0.7-0.1-1c0.1-0.6,0.1-1.1,0-1.6C154.6,233.5,155.1,232.4,154.1,231.5z"/>
			<path fill="#1D1D1B" d="M96.4,140.8c-1.8,0.3-3.2,0.5-4.4,2c-1.9,2.5-1.6,6.1,1.7,7.2c2.6,0.9,6.7,0,7.7-2.7
				c0.9-2.7-1.7-6-4.3-6.6c-1-0.2-2.3,0-3.3,0.5"/>
			<path fill="#FFFFFF" d="M97.6,141.7c-1,0.3-3.1,1.7-1.2,3c3.2,2.1,4.5-2.4,1.4-3.1"/>
			<g>
				<path fill="#1D1D1B" d="M82.1,133.1c1.6-0.1,3-1.2,4.3-2c1.9-1,3.7-2.3,5.6-3.3c0.8-0.4,0.2-1.6-0.6-1.4
					c-2.4,0.5-4.3,1.1-6.3,2.4c-1.3,0.8-3,2.1-3.4,3.7C81.6,132.8,81.8,133.1,82.1,133.1L82.1,133.1z"/>
			</g>
			<path fill="#1D1D1B" d="M164.7,139.2c-1.8,0.3-3.2,0.5-4.4,2c-1.9,2.5-1.6,6.1,1.7,7.2c2.6,0.9,6.7,0,7.7-2.7
				c0.9-2.7-1.7-6-4.3-6.6c-1-0.2-2.3,0-3.3,0.5"/>
			<path fill="#FFFFFF" d="M166.1,140.7c-1.1,0.3-3.4,1.9-1.3,3.3c3.5,2.4,5-2.7,1.5-3.4"/>
			<g>
				<path fill="#1D1D1B" d="M177.6,129.9c-0.4-1.6-2.1-2.9-3.4-3.8c-2-1.4-3.9-2-6.2-2.6c-0.8-0.2-1.3,0.9-0.6,1.4
					c1.9,1.1,3.7,2.4,5.5,3.5c1.3,0.8,2.7,1.9,4.3,2.1C177.5,130.5,177.7,130.1,177.6,129.9L177.6,129.9z"/>
			</g>
			<g>
				<path fill="#1D1D1B" d="M59.8,149.4c-0.2,15.4,4.3,32.5,12,45.8c9.4,16.5,28,24,45.7,26.8c21,3.4,40.3-6.8,54.8-21
					c7.6-7.4,13.1-16.3,17.1-26.1c5.2-12.8,3.4-24.3,2-37.5c-0.1-0.6-1-0.7-1,0c0.2,11.2,2.4,20.3-0.5,31.6
					c-2.8,10.9-9.2,20.9-16.7,29.1c-15.5,16.9-37.7,26.6-60.7,21.6c-16.5-3.6-31.8-11.8-40.5-26.9c-7.2-12.6-10.5-29-11.1-43.4
					C60.9,148.7,59.8,148.7,59.8,149.4L59.8,149.4z"/>
			</g>
			<g>
				<path fill="#1D1D1B" d="M58.7,130.2c-5.2-3.1-9.9,1.7-12.1,6.1c-3.1,5.9-2.1,13.5,2.7,18.2c0.5,0.5,1.3-0.1,0.9-0.7
					c-3.1-4.8-4.9-9.3-3.1-14.9c1.6-5.2,5.6-9.1,11.3-7.9C58.9,131.1,59.2,130.5,58.7,130.2L58.7,130.2z"/>
			</g>
			<g>
				<path fill="#1D1D1B" d="M53.8,139.6c-1.8-0.1-2.6,2-2.6,3.5c0,1.4,1,4.2,2.9,3.9c0.2,0,0.4-0.3,0.3-0.5
					c-0.6-1.1-1.5-1.7-1.8-3.1c-0.3-1.5,0.5-2.3,1.5-3.2C54.4,140,54.2,139.6,53.8,139.6L53.8,139.6z"/>
			</g>
			<g>
				<path fill="#1D1D1B" d="M191.1,123.4c5.1-0.3,9,0.7,11.9,5.3c1.2,1.9,1.6,4.3,1.7,6.6c0.2,2.5-1.4,4.1-2,6.4
					c-0.1,0.5,0.5,1,0.9,0.7c4.6-3,3.1-10.5,0.8-14.5c-2.5-4.4-8.8-7.7-13.4-4.6C191,123.3,191,123.4,191.1,123.4L191.1,123.4z"/>
			</g>
			<g>
				<path fill="#1D1D1B" d="M197.8,132c1.2,1.6-0.1,3.8-0.5,5.4c-0.1,0.6,0.6,1,1,0.6c1.2-1,2.7-7-0.1-6.7
					C197.8,131.4,197.5,131.7,197.8,132L197.8,132z"/>
			</g>
			<g>
				<path fill="#1D1D1B" d="M51.4,155.7c1,2.8,6.4,3.6,8.8,2.8c0.4-0.2,0.4-0.9-0.1-0.9c-3,0.2-5.9,0-8.2-2.2
					C51.7,155.2,51.3,155.4,51.4,155.7L51.4,155.7z"/>
			</g>
			<g>
				<path fill="#D8A61A" d="M197.7,141c-0.1,0-0.7,0-0.7,1c0,1,0.6,0.7,0.7,0.7c1.8,0.1,3.5,0.2,4.9,1.6c1.2,1.2,1.6,3.6,0.7,5.1
					c-0.6,1-2.3,1.5-3.4,1.4c-2.2-0.2-2.6-2.8-2.6-2.8c-0.1-0.1-0.3,0-0.3,0.1c0,0,0,0,0,0l-1.5,0.5c0,0,0,0,0,0l-0.6,0.2l0.5,1.5
					l0,0c1.5,4.4,8,4.9,10.7,1C209.8,146.1,203.7,137.9,197.7,141z"/>
				<g>
					<path fill="#1D1D1B" d="M197.4,143c1.9,0.1,3.5,0,4.9,1.5c1.2,1.2,1.5,3.4,0.6,4.9c-0.7,1.1-2.1,1.4-3.3,1.1
						c-1.4-0.3-1.7-1.4-2.5-2.4c-0.1-0.2-0.4-0.2-0.5,0c-0.7,1.6,0.9,3,2.2,3.5c1.7,0.6,3.7,0,4.8-1.3c3.1-3.7-2-9.9-6.3-7.5
						C197.3,142.8,197.3,143,197.4,143L197.4,143z"/>
				</g>
				<path fill="#1D1D1B" d="M197.4,140.9C197.4,140.9,197.4,140.9,197.4,140.9c-0.8,0.3-1,2.3,0.1,2c0.1,0,0.1-0.1,0.1-0.2
					c-0.1-0.3-0.4-0.5-0.3-0.9c0.1-0.3,0.3-0.5,0.5-0.6c2.8,0,5.4,0.6,7.2,3c1.5,2,1.3,4.9-0.2,6.8c-1.2,1.5-3.2,2.2-5.1,1.9
					c-2.3-0.3-3.2-2.2-4.1-4c-0.2-0.4-0.9-0.2-0.9,0.2c0.6,5.7,8.3,6.7,11.4,2.4C209.8,146.1,203.6,137.7,197.4,140.9z"/>
			</g>
			<g>
				<path fill="#1D1D1B" d="M201.1,143.8c-0.7,1.7-2.4,2.8-3.9,3.7c-0.8,0.5-1.5,0.9-2.4,1.2c-1,0.4-2.1,0.3-3.1,0.6
					c-0.3,0.1-0.3,0.5,0,0.6c2,0.8,4.3-0.5,6-1.5c1.7-1.1,3.5-2.3,4-4.4C201.8,143.5,201.2,143.4,201.1,143.8L201.1,143.8z"/>
			</g>
			<g>
				<path fill="#1D1D1B" d="M125.7,101c-2.2-4.7-5-8.1-10.4-8.1c-4.8,0-9.6,7.2-12.5,10.2c-6.1,6.3-10.3,13.8-17,19.6
					c-5.2,4.5-11.1,6.7-17.8,7.4c-6.9,0.8-12.2-1.9-18.3-4.5c-0.3-0.1-0.6,0.3-0.3,0.5c11.3,7.6,24.2,7,35.3-0.8
					c5-3.5,9.3-8.3,13-13.1c4.9-6.4,17.9-27.2,27.4-10.9C125.2,101.9,125.9,101.5,125.7,101L125.7,101z"/>
			</g>
			<g>
				<path fill="#1D1D1B" d="M49.4,126c5.7,1.4,11.9-2.7,16.8-5.3c6.6-3.6,12.1-9.3,15.7-15.9c0.2-0.3-0.3-0.6-0.5-0.3
					c-7.4,9.9-18.7,20.8-32,21.3C49.3,125.8,49.2,126,49.4,126L49.4,126z"/>
			</g>
			<g>
				<path fill="#1D1D1B" d="M125.8,82.3c-2-12.5-19.8-5.7-25.2-0.1c-0.2,0.2,0.1,0.5,0.3,0.4c7.8-5.2,19-11,24.8-0.1
					C125.7,82.5,125.9,82.4,125.8,82.3L125.8,82.3z"/>
			</g>
			<g>
				<path fill="#1D1D1B" d="M126.1,100.8c6.4-11.6,18.1-6.3,25.3,1.4c4.6,4.9,8.7,8.7,14.5,12.2c11.1,6.6,24.1,11,36.8,7.1
					c0.7-0.2,0.4-1.2-0.3-1.1c-12.3,1.9-22.2-0.5-33.1-6.1c-9.2-4.7-14.7-12.2-22.4-18.7c-6.8-5.8-18.5-4.3-21.5,5
					C125.3,100.9,125.9,101.2,126.1,100.8L126.1,100.8z"/>
			</g>
			<g>
				<path fill="#1D1D1B" d="M126,81.9c5.6-9.4,21.2-8.4,26.7,0.4c0.2,0.3,0.7,0,0.5-0.3c-4.4-9.7-23.5-10.9-27.5-0.2
					C125.7,81.9,125.9,82,126,81.9L126,81.9z"/>
			</g>
			<g>
				<path fill="#1D1D1B" d="M169.6,99.5c9.2,10.2,19.2,19.2,33.1,21.7c0.5,0.1,0.7-0.7,0.2-0.8c-6.5-1.8-12.2-3.9-17.8-7.7
					c-5.7-3.9-9.9-9.2-15.2-13.5C169.7,99,169.4,99.3,169.6,99.5L169.6,99.5z"/>
			</g>
			<g>
				<path fill="#1D1D1B" d="M131.7,154.5c4.3,0.2,7.5,4.5,6.4,8.6c-1,3.4-4.9,3.6-7.4,4.9c-0.4,0.2-0.2,0.7,0.2,0.7
					c4.1,0.5,8.1-3,8.6-6.9c0.5-4.1-3.8-8.1-7.7-7.9C131.4,154,131.4,154.5,131.7,154.5L131.7,154.5z"/>
			</g>
			<g>
				<path fill="#1D1D1B" d="M104.5,181.9c0.4,2.1,10.6,2,11.5,2c11.8,0.5,23-0.9,34.3-4.2c0.4-0.1,0.4-0.8-0.1-0.8
					c-3.9,0-7.3,1.2-11.1,2.1c-5.5,1.2-11.1,1.4-16.7,1.6c-4.9,0.1-9.9,0.1-14.8-0.6c-0.8-0.1-2.2-0.6-3.1-0.2
					C104.5,181.7,104.4,181.8,104.5,181.9L104.5,181.9z"/>
			</g>
			<g>
				<path fill="#1D1D1B" d="M104.4,181.8c1.7,15.8,8.4,25.5,25.4,25.6c14.8,0.1,23.2-14.9,21.1-28c-0.1-0.6-1-0.4-0.9,0.3
					c2.3,14.7-7.8,26.8-22.8,26.7c-15.6-0.1-19.7-11.8-22-24.7C105,181.3,104.4,181.4,104.4,181.8L104.4,181.8z"/>
			</g>
			<g>
				<path fill="#1D1D1B" d="M109.7,197.5c3.8-3.4,10.4-3,15.1-2.7c6.7,0.4,11.5,3.6,14.3,9.6c0.3,0.6,1.2,0.2,1.1-0.5
					c-1.5-6.3-7.7-9.9-13.8-10.5C122.4,193.1,111.4,192.3,109.7,197.5C109.6,197.5,109.6,197.6,109.7,197.5L109.7,197.5z"/>
			</g>
			<g>
				<path fill="#1D1D1B" d="M110.8,119.1c10.6-5.1,21.1,1.1,32,0.1c0.2,0,0.2-0.3,0-0.3c-10.1-0.5-22.8-5.8-32.2,0.1
					C110.6,119,110.7,119.2,110.8,119.1L110.8,119.1z"/>
			</g>
			<g>
				<path fill="#1D1D1B" d="M59,130c1.7,2.5,6.1,3.5,8.8,4.5c3.9,1.5,8.5,3.8,12.7,4.1c0.6,0,0.6-0.7,0.1-0.9
					c-3.4-1.4-7.1-2.2-10.6-3.5c-3.6-1.3-7.2-3.4-10.9-4.4C59.1,129.7,58.9,129.9,59,130L59,130z"/>
			</g>
			<g>
				<path fill="#1D1D1B" d="M69.3,130.6c1.6,1,3.5,1.4,5.3,2c2.4,0.9,4.8,1.8,7.2,2.6c0.6,0.2,0.8-0.7,0.3-0.9
					c-2.1-0.7-4.2-1.5-6.3-2.2c-2-0.7-4.2-1.7-6.3-1.7C69.2,130.4,69.2,130.5,69.3,130.6L69.3,130.6z"/>
			</g>
			<g>
				<path fill="#1D1D1B" d="M80.4,138.1c0,2.5-0.2,4.9-0.6,7.4c-0.5,3.4-0.1,6.8-0.4,10.2c0,0.4,0.6,0.5,0.7,0.1
					c1.2-3.6,0.3-7.8,0.8-11.5c0.1-1.1,1.2-5.8-0.4-6.2C80.5,137.9,80.4,138,80.4,138.1L80.4,138.1z"/>
			</g>
			<g>
				<path fill="#1D1D1B" d="M80.1,155.8c4.5,1.5,9.9,1,14.6,1.4c5.3,0.4,10.6,0.2,15.9,0.3c0.8,0,0.8-1.3,0-1.3
					c-9.8-0.2-20.6,0.9-30.3-1.1C79.8,155.1,79.7,155.7,80.1,155.8L80.1,155.8z"/>
			</g>
			<g>
				<path fill="#1D1D1B" d="M81.7,134.9c9.7-1.4,19.8-2.1,29.6-0.3c0.6,0.1,0.8-0.7,0.2-0.9c-5.4-1.5-11-1.2-16.5-1.2
					c-4.5,0-9.3,0.1-13.5,2C81.3,134.6,81.5,134.9,81.7,134.9L81.7,134.9z"/>
			</g>
			<g>
				<path fill="#1D1D1B" d="M110.6,157.5c1.4-2.4,1.2-5.2,1.3-7.9c0.2-3.8,1.7-7.9,0.6-11.6c-0.1-0.4-0.7-0.3-0.7,0.1
					c-0.1,3.1-0.4,6.1-0.8,9.2c-0.4,3.4-0.2,6.7-0.7,10.1C110.2,157.6,110.5,157.7,110.6,157.5L110.6,157.5z"/>
			</g>
			<g>
				<path fill="#1D1D1B" d="M83.2,152.8c4.6,0.4,9.1,0.6,13.7,0.8c3.7,0.1,7.4,0.6,11-0.3c0.4-0.1,0.3-0.7-0.1-0.7
					c-8.2,0.3-16.4-0.7-24.6-0.1C82.9,152.5,82.9,152.8,83.2,152.8L83.2,152.8z"/>
			</g>
			<g>
				<path fill="#1D1D1B" d="M83.2,152.8c0.9-4.9,0.9-10.1,1.2-15.1c0-0.6-0.9-0.6-0.9,0c-0.2,5-0.8,10.1-0.5,15.1
					C82.9,152.9,83.2,152.9,83.2,152.8L83.2,152.8z"/>
			</g>
			<g>
				<path fill="#1D1D1B" d="M83.6,137.5c3.1-0.7,7-0.1,10.1-0.1c4.7,0,9.5-0.6,14,0.9c0.6,0.2,0.8-0.7,0.2-0.9
					c-4.6-1.5-9.5-1-14.3-0.9c-2.9,0.1-7.6-0.8-10.2,0.8C83.4,137.4,83.5,137.5,83.6,137.5L83.6,137.5z"/>
			</g>
			<g>
				<path fill="#1D1D1B" d="M107.4,152.9c2.3,0.6,1.2-13.6,0.9-15.2c-0.1-0.6-1.1-0.4-1,0.3c0.4,2.6,0.4,5.3,0.5,7.9
					c0,2.2,0.2,4.8-0.5,6.9C107.3,152.9,107.4,152.9,107.4,152.9L107.4,152.9z"/>
			</g>
			<g>
				<path fill="#1D1D1B" d="M191.7,122.9c-2,0.4-3.7,3.1-5,4.5c-2.2,2.5-4.7,4.9-6.9,7.5c-0.3,0.4,0.1,1.1,0.6,0.7
					c2.4-1.7,4.2-4.2,6.1-6.3c1.1-1.2,2.2-2.4,3.3-3.7c0.7-0.8,1.7-1.5,2.1-2.5C191.9,123,191.8,122.9,191.7,122.9L191.7,122.9z"/>
			</g>
			<g>
				<path fill="#1D1D1B" d="M189.2,121.9c-2.2,0-4,2.2-5.3,3.8c-1.7,2.1-3.1,4.5-5.3,6.3c-0.5,0.4,0.2,1.1,0.7,0.7
					c1.7-1.4,3-3.3,4.3-5.1c1.7-2.2,3.4-3.9,5.6-5.4C189.3,122.1,189.3,121.9,189.2,121.9L189.2,121.9z"/>
			</g>
			<g>
				<path fill="#1D1D1B" d="M180,135.2c-0.9,2.5-0.2,6.1-0.1,8.6c0.1,3.3-0.5,7.1,0.5,10.3c0.1,0.4,0.8,0.3,0.7-0.1
					c-0.3-3.6-0.2-7.3-0.3-10.9c-0.1-2.4,0.5-5.8-0.7-7.9C180.2,135.1,180,135.2,180,135.2L180,135.2z"/>
			</g>
			<g>
				<path fill="#1D1D1B" d="M180.7,153.8c-4.7,0.9-10,0.5-14.7,0.7c-5.3,0.3-10.6,0.1-15.9,0.3c-0.8,0-0.8,1.3,0,1.3
					c5.3-0.1,10.5,0.1,15.9-0.3c4.7-0.3,10.5,0.2,14.9-1.3C181.3,154.3,181.2,153.7,180.7,153.8L180.7,153.8z"/>
			</g>
			<g>
				<path fill="#1D1D1B" d="M179.1,132.1c-4.2-1.8-8.7-1.6-13.2-1.6c-5.6,0-11.4,0-16.8,1.7c-0.6,0.2-0.3,1,0.2,0.9
					c9.7-1.9,19.8-1.9,29.6-0.5C179.2,132.6,179.4,132.2,179.1,132.1L179.1,132.1z"/>
			</g>
			<g>
				<path fill="#1D1D1B" d="M150.3,155.3c-0.5-3.2-0.2-6.3-0.6-9.4c-0.4-3.2-0.7-6.2-0.8-9.4c0-0.4-0.6-0.5-0.7-0.1
					c-0.9,2.7-0.2,5.7,0.3,8.4c0.5,3.5-0.2,7.4,1.6,10.6C150.1,155.6,150.3,155.5,150.3,155.3L150.3,155.3z"/>
			</g>
			<g>
				<path fill="#1D1D1B" d="M177.5,150.9c-8.3-0.6-16.5,0.8-24.8,0.6c-0.4,0-0.5,0.6-0.1,0.7c3.7,0.9,7.5,0.2,11.2-0.1
					c4.5-0.4,9.1-0.4,13.7-0.8C177.7,151.2,177.7,150.9,177.5,150.9L177.5,150.9z"/>
			</g>
			<g>
				<path fill="#1D1D1B" d="M177.8,151.2c0.3-5-0.4-10.1-0.5-15.1c0-0.6-0.9-0.6-0.9,0c0.2,5,0.2,10.2,1.2,15.1
					C177.5,151.4,177.7,151.4,177.8,151.2L177.8,151.2z"/>
			</g>
			<g>
				<path fill="#1D1D1B" d="M177.1,135.8c-2.6-1.6-7.2-0.7-10.2-0.8c-4.8-0.1-9.6-0.6-14.3,0.9c-0.6,0.2-0.3,1.1,0.2,0.9
					c4.1-1.3,8.2-1,12.4-0.9c3.7,0.1,8.2-0.7,11.7,0.1C177.2,136,177.2,135.9,177.1,135.8L177.1,135.8z"/>
			</g>
			<g>
				<path fill="#1D1D1B" d="M152.8,136c-0.9,5.1,0.3,10.6-0.5,15.7c-0.1,0.5,0.7,0.7,0.8,0.2c0.4-2.8,0.2-5.6,0.2-8.5
					C153.4,141,153.8,138.4,152.8,136C152.8,136,152.8,136,152.8,136L152.8,136z"/>
			</g>
			<g>
				<path fill="#1D1D1B" d="M111.9,134.2c10.6-5,26.4-7.1,37.1-1.3c0.5,0.3,1-0.5,0.5-0.8c-10.5-5.7-27.9-4.6-37.9,1.6
					C111.3,134,111.6,134.4,111.9,134.2L111.9,134.2z"/>
			</g>
			<g>
				<path fill="#1D1D1B" d="M112.2,138.3c10.9-3.4,25.3-7.8,36-1.3c0.6,0.4,1.2-0.6,0.6-1c-10.1-6.4-26.9-3.6-36.8,1.8
					C111.8,138,112,138.4,112.2,138.3L112.2,138.3z"/>
			</g>
			<g>
				<path fill="#1D1D1B" d="M56.4,125c-0.2-10.1,5.5-18.2,6.5-28c0.7-7,3.5-13.3,6.8-19.5c11-20.9,33.3-23.8,54.4-26.4
					c4.9-0.6,9.3-2.4,14.4-2.5c5.2-0.1,12.1,1.5,17.1,2.5c9.1,1.9,20.6,8.5,25.9,16.4c3.7,5.6,6.4,12,9,18.2
					c1.6,3.8,6.6,32.5,5.1,32.5c-0.7,0-0.7,1,0,1c0,0,0.1,0,0.1,0c0.2,0,0.5-0.2,0.5-0.4c2.9-17.6-4.5-37.1-13.6-52
					c-9.4-15.5-36.3-22.5-52.8-18.3c-12.8,3.3-25.1,2.9-37.6,7.6c-9.1,3.4-16,8.7-21.3,16.7c-3.9,6-7.2,13.2-8.8,20.2
					c-1.4,6.2-2.3,11.8-4.5,17.9c-1.8,4.8-2.6,9.1-1.7,14.1C55.9,125.4,56.4,125.3,56.4,125L56.4,125z"/>
			</g>
			<g>
				<path fill="#1D1D1B" d="M129.7,37.8c-0.1,0,4,3.6,4.5,4.1c2,1.8,3.7,3.9,5.6,5.8c0.3,0.3,0.7,0,0.6-0.4c-0.2-1.2-1.2-2.1-2-2.9
					c-1.4-1.5-2.8-2.9-4.4-4.3c-0.4-0.3-4.3-4-4.7-2.5C129.4,37.8,129.6,37.9,129.7,37.8L129.7,37.8z"/>
			</g>
			<g>
				<path fill="#1D1D1B" d="M129.7,37.6c-6.8-0.7-13.2,2.4-19.4,4.9c-4.9,1.9-9.9,3.9-13.7,7.6c-0.4,0.4,0.1,1,0.6,0.7
					c10-6.7,21.1-10.1,32.6-13C129.9,37.8,129.9,37.6,129.7,37.6L129.7,37.6z"/>
			</g>
			<g>
				<path fill="#1D1D1B" d="M96.3,50.1c-0.6,0.8-0.7,1.9-0.8,2.9c-0.1,1-0.3,2.3,0.4,3c0.1,0.1,0.3,0.1,0.4-0.1
					c0.4-0.7,0.2-1.7,0.2-2.6c0-1.1,0.4-2.1,0.2-3.2C96.7,50,96.4,50,96.3,50.1L96.3,50.1z"/>
			</g>
			<g>
				<path fill="#1D1D1B" d="M98.1,49.4c0.1-0.9,0.3-1.7,0.5-2.6c0.1-0.6,0.7-1.6,0.3-2.2c-0.1-0.1-0.2-0.2-0.3-0.1
					c-0.7,0.3-0.7,1.1-0.8,1.8c-0.2,1-0.3,2-0.3,3.1C97.4,49.7,98.1,49.8,98.1,49.4L98.1,49.4z"/>
			</g>
			<g>
				<path fill="#1D1D1B" d="M98.7,44.9c2.9-2.7,6.2-4.2,9.7-5.8c4.4-2.1,7.9-4.8,12.8-5.7c0.5-0.1,0.4-0.8-0.1-0.8
					c-5.1,0.2-8.9,3.5-13.3,5.6c-3.2,1.6-8,3-9.4,6.6C98.5,44.9,98.6,45,98.7,44.9L98.7,44.9z"/>
			</g>
			<g>
				<path fill="#1D1D1B" d="M120.9,32.8c2.1,0,3.6,0.8,5.2,2.1c1.1,0.9,2,2.6,3.3,3.1c0.1,0.1,0.4,0,0.3-0.2
					c-0.2-1.7-2.5-3.3-3.7-4.2c-1.4-1-3.5-2.1-5.1-1C120.7,32.7,120.8,32.8,120.9,32.8L120.9,32.8z"/>
			</g>
			<g>
				<path fill="#1D1D1B" d="M121.2,32.8c-4.9-3-8.4-7.3-14.7-7.8c-5.9-0.5-9.7,1.7-13.8,5.8c-10.8,11-12.2,27.8-20.1,40.4
					c-0.1,0.2,0.2,0.4,0.3,0.2c7.5-8.1,9.3-21,14.4-30.6c4.3-8.2,11-16.4,21.4-13.8c4.4,1.1,8.2,5.7,12.4,6.1
					C121.3,33.2,121.3,32.9,121.2,32.8L121.2,32.8z"/>
			</g>
			<g>
				<path fill="#1D1D1B" d="M63,91.3c-5.2,9.8-15.1,16.6-24,22.9c-9.4,6.8-19.5,11.2-30.7,14.2c-0.6,0.2-0.3,1,0.2,0.9
					c12.3-1.8,23.3-8.8,33.3-16c7.7-5.5,18.8-12.4,21.5-21.9C63.4,91.2,63.1,91.1,63,91.3L63,91.3z"/>
			</g>
			<g>
				<path fill="#1D1D1B" d="M8.3,129c12.1,3.7,28.5,5.5,40.2-0.6c0.3-0.1,0.1-0.6-0.2-0.5c-6.5,1.9-12.9,2.9-19.6,3.1
					c-6.9,0.2-13.6-2.6-20.3-2.2C8.2,128.8,8.2,128.9,8.3,129L8.3,129z"/>
			</g>
			<g>
				<path fill="#1D1D1B" d="M37.8,131.5c-2.9,4.3-5.8,7.6-10.2,10.6c-3.9,2.7-8.2,4.3-12.4,6.5c-0.6,0.3-0.2,1.2,0.4,1
					c7.9-2,21.1-8.9,22.6-17.9C38.3,131.4,37.9,131.2,37.8,131.5L37.8,131.5z"/>
			</g>
			<g>
				<path fill="#1D1D1B" d="M14.9,149c9.1,3.4,18.8,5.2,28.4,2.5c0.3-0.1,0.2-0.5-0.1-0.5c-4.9,0.4-9.7,0.8-14.6,0.5
					c-4.8-0.3-8.9-2.5-13.6-3.1C14.7,148.3,14.6,148.9,14.9,149L14.9,149z"/>
			</g>
			<g>
				<path fill="#1D1D1B" d="M42.1,151.5c-0.6,1.7-0.8,3.4-1.7,5c-0.9,1.8-2.4,3.3-3.8,4.7c-2.7,2.6-5.9,4.4-8.9,6.5
					c-0.5,0.4-0.2,1.4,0.5,1.1c3.8-1.5,7.3-4.3,10.2-7.1c2.4-2.3,5.8-6.7,4.4-10.2C42.6,151.2,42.2,151.2,42.1,151.5L42.1,151.5z"/>
			</g>
			<g>
				<path fill="#1D1D1B" d="M28.1,167.8C28.1,167.8,28.1,167.8,28.1,167.8c-0.2,0.1-0.3,0.2-0.2,0.3c0,0,0,0.1,0,0.1
					c0,0.1,0.2,0.3,0.3,0.3c2.4,0.5,5.4-0.5,7.8-0.9c4.6-0.8,10.9-1.2,14.2-4.8c0.1-0.1,0-0.3-0.2-0.3c-2.6,0.8-5,2-7.6,2.7
					c-2.6,0.7-5.4,1-8,1.5c-1.2,0.2-2.5,0.4-3.7,0.6c-0.4,0.1-2.7,0.1-2.4,0.4C28.2,167.8,28.2,167.8,28.1,167.8L28.1,167.8z"/>
			</g>
			<g>
				<path fill="#1D1D1B" d="M89.2,72.9c-4.6,1.6-6.5,5.6-8.6,9.7c-2.4,4.8-4.5,10.2-5.1,15.5c0,0.3,0.4,0.3,0.5,0.1
					c2.5-8.6,5-20.2,13.4-25C89.4,73.1,89.3,72.9,89.2,72.9L89.2,72.9z"/>
			</g>
			<g>
				<path fill="#1D1D1B" d="M159.6,66.8c9.4,1.4,13.7,10,17.3,17.7c0.1,0.3,0.7,0.1,0.6-0.2c-1.4-5.3-4.2-10.3-8.3-13.9
					C167.7,69.1,161.4,64.6,159.6,66.8C159.5,66.8,159.5,66.8,159.6,66.8L159.6,66.8z"/>
			</g>
			<g>
				<path fill="#1D1D1B" d="M114.9,65c-7-1.6-14.8,5-18.9,9.9c-0.2,0.2,0.1,0.5,0.3,0.3c2.8-2.4,5.5-4.8,8.7-6.7
					c3.2-1.9,6.6-2.1,9.9-3.4C115,65.1,115,65,114.9,65L114.9,65z"/>
			</g>
			<g>
				<path d="M147.6,217.3c-1.2,0.5-0.9,3.3-0.9,4.3c0,1.9-0.1,4.9,1,6.6c0.1,0.2,0.5,0.2,0.5-0.1c0.3-1.9-0.3-4-0.4-5.9
					c-0.1-1.1,0-2.1,0-3.2c0-0.6,0.3-1.1,0-1.6C147.8,217.3,147.7,217.3,147.6,217.3L147.6,217.3z"/>
			</g>
			<g>
				<path d="M147.7,227.2c0,0.8,0.7,1.4,1.3,1.8c0.8,0.7,1.7,1.2,2.7,1.6c0.2,0.1,0.4,0,0.6-0.2c0.9-0.7-1-1.4-1.4-1.6
					c-0.6-0.3-1.1-0.7-1.7-1.1c-0.5-0.3-0.8-0.7-1.4-0.7C147.8,227.1,147.7,227.1,147.7,227.2L147.7,227.2z"/>
			</g>
			<g>
				<path d="M113.5,221.3c-0.3,1.2-0.2,2.6-0.2,3.8c0,1.4-0.5,3.2,0,4.5c0.1,0.3,0.4,0.3,0.6,0.1c0.8-1.1,0.5-2.7,0.6-4
					c0-1.4,0.1-3.1-0.4-4.4C113.9,221.1,113.6,221,113.5,221.3L113.5,221.3z"/>
			</g>
			<g>
				<path d="M113.3,228.5c-0.5,1-1.5,1.5-2.4,2.1c-0.9,0.6-2.2,1-2.7,2c-0.1,0.2,0,0.5,0.3,0.5c1.2,0,6.8-3.5,5-4.7
					C113.5,228.3,113.4,228.4,113.3,228.5L113.3,228.5z"/>
			</g>
			<g>
				<path d="M150.9,227.7c8,6.4-3,25.1-6.5,31.4c-5.5,10-12.4,20-12.4,31.9c0,0.5,0.8,0.7,0.9,0.1c2.5-16.8,13.3-29.6,19.3-45.1
					c1.5-3.9,6.6-17.8-1.2-18.5C150.9,227.4,150.8,227.6,150.9,227.7L150.9,227.7z"/>
			</g>
			<g>
				<path d="M110.5,228.5c-7.6,1.5-0.9,13.2,1,16.8c8.1,14.6,18,28.5,20.5,45.3c0.1,0.5,0.9,0.4,0.9-0.1c0-11.7-6.2-21.8-12-31.5
					c-3.6-6-16.8-24-10.2-30.2C110.8,228.7,110.7,228.5,110.5,228.5L110.5,228.5z"/>
			</g>
			<g>
				<path d="M132.7,297.2c6.8-12.2,17-24.8,30.2-30.3c0.6-0.2,0.3-1.2-0.3-1c-12.6,5.2-25.6,18.2-30.3,31.1
					C132.4,297.2,132.6,297.3,132.7,297.2L132.7,297.2z"/>
			</g>
			<g>
				<path d="M155.4,261.4c0.3,0.3,0.9,0.3,1.3,0.4c0.9,0.3,1.7,0.7,2.4,1.2c0.8,0.5,1.6,1.2,2.3,1.8c0.5,0.5,0.9,1.3,1.6,1.6
					c0.3,0.1,0.7,0,0.7-0.4c0-1.8-7.2-7-8.3-5C155.3,261.3,155.3,261.4,155.4,261.4L155.4,261.4z"/>
			</g>
			<g>
				<path d="M155.4,262.1c7-12.5,14.3-22.8,27.2-29.7c0.7-0.4,0.1-1.4-0.6-1.1c-12.1,6.5-22.8,17.3-27,30.6
					C154.8,262.2,155.2,262.4,155.4,262.1L155.4,262.1z"/>
			</g>
			<g>
				<path d="M146.9,221.9c3.6,2.4,8.2,1,12.2,0.2c8.3-1.6,18.1,1.4,22.3,9.3c0.4,0.8,1.5,0.2,1.4-0.6c-0.6-4-7-8.1-10.5-9.3
					c-3.2-1.1-6.5-1.9-9.9-1.3c-5.1,0.9-10.3,3-15.4,1.4C146.9,221.5,146.8,221.8,146.9,221.9L146.9,221.9z"/>
			</g>
			<g>
				<path d="M121.4,234c1.4,0.2,2.8,0.2,4.2,0.3c1.6,0.1,3.1,0.4,4.7,0.3c0.2,0,0.2-0.2,0-0.3c-2.6-0.9-6.2-0.9-8.9-0.5
					C121.3,233.8,121.3,234,121.4,234L121.4,234z"/>
			</g>
			<g>
				<path d="M129.4,234.5c0.3,0.6,1.1,0.9,1.7,1c0.1,0,0.2-0.2,0.1-0.3C130.9,234.8,130,234.4,129.4,234.5
					C129.4,234.4,129.4,234.4,129.4,234.5L129.4,234.5z"/>
			</g>
			<g>
				<path d="M132.2,235.3c0.5-0.1,0.9-0.4,1.2-0.7c0.1-0.1,0-0.4-0.2-0.3c-0.5,0.2-0.8,0.4-1.2,0.8
					C131.9,235.2,132.1,235.4,132.2,235.3L132.2,235.3z"/>
			</g>
			<g>
				<path d="M133.6,234.4c2.4-1,4.9-0.2,7.4-0.5c0.1,0,0.2-0.3,0-0.3c-2.3-0.3-5.4-0.5-7.5,0.6C133.4,234.3,133.5,234.4,133.6,234.4
					L133.6,234.4z"/>
			</g>
			<g>
				<path d="M81.9,233.1c6.2,3.1,11.7,6.3,16.5,11.4c4.8,5.1,7.5,11.5,11.2,17.2c0.2,0.3,0.8,0.1,0.7-0.3
					c-4.9-12.9-14.6-24.9-28.1-29.1C81.8,232.2,81.5,232.9,81.9,233.1L81.9,233.1z"/>
			</g>
			<g>
				<path d="M108.9,260.2c-1.2,0.5-2.1,1.5-2.8,2.5c-0.8,1-1.6,2-1.8,3.3c0,0.3,0.3,0.5,0.5,0.3c0.8-0.8,1.3-1.7,1.9-2.6
					c0.8-1.1,1.8-1.9,2.6-3C109.6,260.4,109.3,260,108.9,260.2L108.9,260.2z"/>
			</g>
			<g>
				<path d="M104.5,266.4c13.6,5,22.9,17,27.4,30.3c0.1,0.3,0.5,0.2,0.5-0.1c0.2-6.6-4.8-13-8.8-17.7c-4.8-5.7-11.5-11.6-19-13.2
					C104.2,265.6,104,266.2,104.5,266.4L104.5,266.4z"/>
			</g>
			<g>
				<path d="M82,232.6c6.5-12.4,21.3-3.7,31.7-6.4c0.4-0.1,0.3-0.7-0.1-0.7c-9.2,0.6-27.8-5.8-32.1,6.9
					C81.4,232.7,81.8,232.8,82,232.6L82,232.6z"/>
			</g>
			<g>
				<path d="M132.7,288.5c-0.3-7.9,1.8-16.4,0-24.1c-0.1-0.3-0.5-0.2-0.6,0.1c-0.6,5.1,0,10.5-0.1,15.7c0,2.6-0.6,5.9,0.4,8.4
					C132.6,288.6,132.7,288.6,132.7,288.5L132.7,288.5z"/>
			</g>
			<g>
				<path d="M132.7,265c0.1-0.6-0.1-1.2-0.4-1.8c-0.2-0.4-0.3-1.2-0.9-1.3c-0.1,0-0.3,0-0.3,0.1c-0.2,0.4,0,0.7,0.2,1
					c0.4,0.6,0.7,1.3,0.8,1.9C132.3,265.4,132.7,265.3,132.7,265L132.7,265z"/>
			</g>
			<g>
				<path d="M132.6,265c0.6-0.3,0.9-1.2,1.3-1.7c0.3-0.3,1.3-0.4,0.9-1c-0.1-0.2-0.3-0.3-0.5-0.2c-1.1,0.3-2,1.7-2,2.8
					C132.3,265,132.5,265.1,132.6,265L132.6,265z"/>
			</g>
			<g>
				<path d="M85.4,234.2c-7-0.9-14.1,3-20.5,5.4c-6.4,2.4-14.3,4.9-19,10.1c-0.3,0.4,0.1,1.1,0.6,0.7c10.6-7.4,25.9-13.9,38.9-15.6
					C85.8,234.9,85.8,234.3,85.4,234.2L85.4,234.2z"/>
			</g>
			<g>
				<path d="M45.4,250.2c3.2,6.9,7,13.1,9.5,20.4c2.8,8.4,5.7,15.9,6.2,24.9c0,0.6,1,0.7,1,0c-0.1-16.4-8.4-31.8-15.9-45.8
					C46,249.2,45.2,249.7,45.4,250.2L45.4,250.2z"/>
			</g>
			<g>
				<path d="M79,264.7c-5.1,2.1-7.9,9.3-9.7,14.1c-3.1,8.2-5.3,17.7-0.8,25.8c0.2,0.3,0.7,0.1,0.6-0.3c-3.4-13-0.1-29.6,10.1-39.3
					C79.3,264.9,79.2,264.6,79,264.7L79,264.7z"/>
			</g>
			<g>
				<path d="M73.3,271.6c0.6-1.4,1.1-2.8,1.7-4.2c0.5-1.1,1.2-2.2,1.5-3.3c0.1-0.3-0.2-0.4-0.4-0.2c-2,1.9-2.6,5.2-3.1,7.7
					C72.9,271.7,73.2,271.8,73.3,271.6L73.3,271.6z"/>
			</g>
			<g>
				<path d="M194,260.6c8.5,11.9,14.2,30.2,1.3,41c-0.4,0.4,0.1,1.1,0.6,0.8c14-9.5,7.5-31.2-1.6-42
					C194.2,260.2,193.9,260.4,194,260.6L194,260.6z"/>
			</g>
			<g>
				<path d="M198,265.9c0.7-1.8,0-4.5-0.9-6.2c-0.1-0.3-0.6-0.1-0.5,0.2c0.2,1,0.5,1.9,0.7,2.9c0.2,1,0.2,2,0.4,3
					C197.8,266,198,266,198,265.9L198,265.9z"/>
			</g>
			<g>
				<path d="M180.7,228.7c9.1-0.1,18-6.8,25.5-11.4c0.5-0.3,0.1-1.1-0.5-0.9c-8.4,4.4-15.9,9-25,12
					C180.5,228.5,180.5,228.8,180.7,228.7L180.7,228.7z"/>
			</g>
			<g>
				<path d="M201.2,273.8c5.7-2.4,10.3-6.3,15.3-9.9c4.1-2.9,8.6-5.9,11.8-10c0.3-0.4-0.3-0.7-0.6-0.5c-8.4,7.3-17.4,13.8-26.7,19.9
					C200.6,273.5,200.9,273.9,201.2,273.8L201.2,273.8z"/>
			</g>
			<g>
				<path d="M227.9,253.4c-9.5-11.1-15.4-23.6-20.8-37.1c-0.2-0.5-1.1-0.3-0.9,0.2c5.2,12.9,10.6,27.6,21.4,37.1
					C227.8,253.9,228.1,253.6,227.9,253.4L227.9,253.4z"/>
			</g>
			<g>
				<path d="M48.3,255.2c-6.2,8.5-12.3,15.9-17,25.4c-4.5,9.1-8.2,18.2-10.3,28.2c-4.2,19.9-1.3,40.8,2.2,60.6
					c0.1,0.8,1.3,0.4,1.2-0.3c-3.7-20.9-6-41.9-1.6-62.9c2.1-9.8,6.5-18.8,10.9-27.7c4.1-8.4,11-14.8,15.1-23.1
					C48.9,255.2,48.5,255,48.3,255.2L48.3,255.2z"/>
			</g>
			<g>
				<path d="M206.9,218.1c12.7-12.5,22.5-28.2,30.3-44.2c3.5-7.1,7.3-13.6,9.9-21.1c3.7-10.7,5.1-20.7,13.5-28.8
					c0.2-0.2-0.1-0.6-0.3-0.4c-4.8,2.9-7.2,6.8-9,12c-3.5,10.2-5.9,20.5-11,30.1c-10,18.8-20.3,35.5-33.7,52.1
					C206.4,218,206.7,218.3,206.9,218.1L206.9,218.1z"/>
			</g>
			<g>
				<path d="M272.7,157.2c-7,32.6-24.5,67.6-48.3,91.4c-0.5,0.5,0.3,1.2,0.8,0.8c11.4-11.5,21.3-26.3,28.8-40.5
					c8.4-15.9,17-33.5,19.3-51.6C273.3,157,272.8,156.9,272.7,157.2L272.7,157.2z"/>
			</g>
			<path opacity="0.3" fill="#FFFFFF" d="M183.1,175.1c-5,13.2-14.7,21.4-25.5,30.9c-0.4,0.3,0.1,0.9,0.5,0.7
				c12.1-6.1,24-18.7,25.3-31.5C183.5,174.9,183.2,174.9,183.1,175.1z"/>
			<path opacity="0.3" fill="#FFFFFF" d="M267.1,159c-0.8,2.5-1.8,3.3-2.2,5.2c-1,4.3-2.9,8.4-4.2,12.6c-2.8,8.3-6.4,16.2-10.7,23.9
				c-1,1.7,4.9-2.4,6-4.4c2.4-4.6,4.4-9.4,6.2-14.2c1.3-3.5,2.5-7.1,3.7-10.7C266.7,169.2,267.7,157.2,267.1,159z"/>
			<g>
				<path fill="#D8A61A" d="M48.8,161.2c2.7,3.9,9.3,3.4,10.7-1l0,0l0.5-1.5l-0.6-0.2c0,0,0,0,0,0L58,158c0,0,0,0,0,0
					c-0.1-0.1-0.2-0.2-0.3-0.1c0,0-0.4,2.6-2.6,2.8c-1.1,0.1-2.8-0.3-3.4-1.4c-0.9-1.4-0.5-3.8,0.7-5.1c1.4-1.4,3.1-1.5,4.9-1.6
					c0.1,0,0.7,0.3,0.7-0.7c0-1-0.6-1-0.7-1C51.2,147.8,45.2,156,48.8,161.2z"/>
				<g>
					<path fill="#1D1D1B" d="M57.5,152.9c-1.9,0.1-3.5,0-4.9,1.5c-1.2,1.2-1.5,3.4-0.6,4.9c0.7,1.1,2.1,1.4,3.3,1.1
						c1.4-0.3,1.7-1.4,2.5-2.4c0.1-0.2,0.4-0.2,0.5,0c0.7,1.6-0.9,3-2.2,3.5c-1.7,0.6-3.7,0-4.8-1.3c-3.1-3.7,2-9.9,6.3-7.5
						C57.6,152.7,57.6,152.9,57.5,152.9L57.5,152.9z"/>
				</g>
				<path fill="#1D1D1B" d="M57.5,150.8C57.5,150.8,57.5,150.8,57.5,150.8c0.8,0.3,1,2.3-0.1,2c-0.1,0-0.1-0.1-0.1-0.2
					c0.1-0.3,0.4-0.5,0.3-0.9c-0.1-0.3-0.3-0.5-0.5-0.6c-2.8,0-5.4,0.6-7.2,3c-1.5,2-1.3,4.9,0.2,6.8c1.2,1.5,3.2,2.2,5.1,1.9
					c2.3-0.3,3.2-2.2,4.1-4c0.2-0.4,0.9-0.2,0.9,0.2c-0.6,5.7-8.3,6.7-11.4,2.4C45.1,156,51.3,147.6,57.5,150.8z"/>
			</g>
			<path opacity="0.2" fill="#FFFFFF" d="M190.9,99.2c-1.1-5.3-2.2-9.4-4.4-14.3c-2.5-5.3-5.5-10.3-9-14.8c-3-4-6.8-7-10.7-9.9
				c-2.3-1.7-4.6-3.3-6.9-4.9c-1.8-1.2-3.9-1.8-6.1-2.1c-1.1-0.1,4.9,3.4,6.7,4.4c4.4,2.5,13.6,11,16.8,15.1c3,3.9,9.5,16.9,10.5,19
				C189,94.5,191.2,100.6,190.9,99.2z"/>
		</g>
	</g>
</g>
</svg>
