<?xml version="1.0" encoding="utf-8"?>
<!-- Generator: Adobe Illustrator 18.1.0, SVG Export Plug-In . SVG Version: 6.00 Build 0)  -->
<svg version="1.1" id="Capa_1" xmlns="http://www.w3.org/2000/svg" xmlns:xlink="http://www.w3.org/1999/xlink" x="0px" y="0px"
	 viewBox="0 0 253.3 281.1" enable-background="new 0 0 253.3 281.1" xml:space="preserve">
<g>
	<defs>
		<rect id="SVGID_3_" x="-0.7" y="-0.1" width="253.3" height="281.1"/>
	</defs>
	<clipPath id="SVGID_2_">
		<use xlink:href="#SVGID_3_"  overflow="visible"/>
	</clipPath>
	
		<rect x="-0.7" y="-0.1" clip-path="url(#SVGID_2_)" fill="#26C6DA" stroke="#000000" stroke-miterlimit="10" width="253.3" height="281.1"/>
	<polygon clip-path="url(#SVGID_2_)" fill="#00ACC1" points="79.7,0 0,0 0,281 180.3,281 	"/>
	<g clip-path="url(#SVGID_2_)">
		<path fill="#E8B19A" d="M208.5,102.1c-1.3-5.1-4.8-10.4-10.4-10.2c0,0.1,0,0.2-0.1,0.3c-2,2.4-3.4,5-4.6,7.9
			c-0.5,1.2-1.7,3.3-1.5,4.7c0.1,0.4,0.6,0.7,0.3,1c-0.1,0.1-0.3,0.1-0.5,0.1c0,0,0,0,0,0c-0.1,0-0.1-0.1-0.1-0.1c0,0-0.1,0-0.1-0.1
			c-1-1.5-1.4-3.4-2.1-5c-0.5-1.1-3.9-9.9-3.9-9.9c-1.1-2.8-1.9-5-2-8.3c-0.1-4.2,0.1-9.1-2-12.8c-0.1-0.2,0.1-0.5,0.3-0.5
			c0.9-2.6-0.6-5.2-2.4-7c-1.5-1.6-3.2-2.2-5-3.3c-0.1-0.1-0.3-0.9-0.3-0.9c-0.8-1.7-5.3-2.1-12,1.5c-0.6,0.3-1.3,0.7-1.3,1.1
			c0,0.4-0.7,1-0.9-0.1c-0.8-5.3-8.5-2-11.2-1.1c-0.3,0.1-0.6-0.3-0.4-0.6c0.1-0.1,0.1-0.2,0.2-0.2c-5.4-4-10.8,2.7-16.3,2.7
			c-0.2,0-0.3-0.1-0.3-0.3c-1.8-0.6-3.4-2.1-5.3-2.5c-1.8-0.4-5.4,0.3-5.7,0.3c-2.3-0.4-3.8-1.6-6.3-0.9c-2.1,0.6-3.3,1.9-4.9,3.2
			c-0.2,0.2-0.5,0-0.4-0.3c0-0.1,0.1-0.2,0.2-0.3c0,0,0,0,0,0c-1.9-0.6-3-2.1-5.1-2.3c-2.5-0.3-4.8-0.5-6,2.2
			c-0.1,0.1-0.2,0.1-0.3,0c0,0,0,0,0,0c-1.7,0.4-3.3,0.4-4.9,1.2c-1.5,0.9-3.2,2.1-4.2,3.5c-1.5,2.2-2.9,7.2-3,7.4
			c-3.7,2.6-3.9,8.2-4.9,12.3c-0.4,1.5-1.1,4.1-1.8,5.4c-1.6,2.8-4.7,8.5-4.7,8.5c-0.4,0.9-0.8,2-1.1,2.9c-0.4,1.3-0.3,3.6-1.4,4.5
			c0,0.1-0.2,0-0.2,0.1c0,0.2-0.2,0.6-0.3,0.3c-1.1-2-2.2-4.6-2.7-6.8c-0.3-1.4-0.5-2.8-0.8-4.2l0,0c-0.3-1.5-1-2.5-1.9-3.1
			c-0.3-0.2-0.7-0.3-1-0.4c-5.2,0.1-9.5,5.5-10.4,10.5c-1.2,7,3.1,12.8,9.8,13.8c0.2-3.4,1-3.1,0.9,0.4c0,0,0.2,14.3,1.1,21.3
			c1.1,8.9,2.3,20.9,7.7,28.5c13.5,19,44.8,24.7,66.6,23.4c17.7-1,39.9-5.5,48.2-23.8c8.3-18.2,6.9-53.1,7-50.3
			c0.1-0.1,2.2,0.5,2.3,0.4C204.9,115.6,210.4,109.2,208.5,102.1z"/>
		<path fill="#C99D66" d="M200.7,91.7c-3.1-5.6-15.4,0.9-19.2,2.8c-0.1,0-0.1,0.1-0.2,0.1c-5.6-1.3-12.1-0.5-17.8-0.4
			c-6.6,0.1-13.1,0-19.6,0.4c-0.4,0-0.6,0.3-0.7,0.6c-2.9,1.8-2.6,6.4-2.4,9.5c-3.7-1.6-7.8-1.8-11.7-1.5c-1.9,0.2-5.4,0-7.2,1.2
			c0.2-3.1,0.4-7.7-2.4-9.5c-0.1-0.3-0.3-0.5-0.7-0.6c-5.8-0.4-11.6-0.3-17.4-0.4c-6.3-0.1-13.7-1.2-20,0.4c0-0.1-0.1-0.1-0.2-0.1
			c-3.8-2-16.1-8.5-19.2-2.8c-0.1,0.2,0.2,0.4,0.3,0.3c0,0,0.1,0,0.1-0.1c5.5,1.4,7.5,3,9.6,4.1c2.4,1.2,4.8,2.6,7.2,3.9
			c-0.8,2.3-0.3,7.9-0.3,9.2c-0.2,5.8-0.6,11.7-0.7,17.6c0,0.6,0.8,0.9,1.2,0.6c6.2,1.6,13.3,0.8,19.6,0.8c6.9,0,13.7,0.6,20.6,0.6
			c0.4,0.1,1-0.2,1-0.8c0.3-6.1,0.6-12.3,1-18.4c6.6,0.2,12.9-0.4,19.6,1c0.3,5.9,0.7,11.7,1,17.6c0,0.6,0.6,0.8,1,0.8
			c6.9-0.1,13.7-0.6,20.6-0.6c6.3,0,13.4,0.8,19.6-0.8c0.4,0.3,1.2,0,1.2-0.6c-0.1-6.3-0.5-12.6-0.7-18.8c0-0.4-0.2-5.5-0.6-7.8
			c2.2-1.3,4.4-2.5,6.6-3.6c2.3-1.2,7.5-3.2,9.7-5.1c0.3,0.2,0.7,0.4,1,0.6C200.5,92.1,200.8,91.9,200.7,91.7z"/>
		<path fill="#E5A691" d="M140.2,190.2c-21.8,1.2-53.1-4.4-66.6-23.4c-5.4-7.6-6.6-19.6-7.7-28.5c-0.9-7.1-1.1-21.3-1.1-21.3
			c0.2-3.5-0.6-3.7-0.9-0.4c-6.7-1-11.1-6.8-9.8-13.8c0.9-5,5.2-10.4,10.4-10.5c0.3,0.1,0.7,0.2,1,0.4c1,0.5,1.6,1.6,1.9,3.1l0,0
			c0.3,1.4,0.5,2.8,0.8,4.2c0.5,2.2,1.6,4.8,2.7,6.8c0.1,0.2,0.3-0.1,0.3-0.3c0-0.1,0.2,0,0.2-0.1c1.2-0.9,1-3.2,1.4-4.5
			c0.3-0.9,0.7-2.1,1.1-2.9c0,0,3.2-5.7,4.7-8.5c0.7-1.3,1.5-3.9,1.8-5.4c1-4.1,1.3-9.7,4.9-12.3c0,0-20.9,49-8.4,87.6
			C87.3,191.7,140.2,190.2,140.2,190.2z"/>
		<path fill="#F8B133" d="M246,267.2c-6-32.7-36-61.5-65.3-75c0,0-37.2,0.1-49.7-0.7c-11.4-0.7-44.6-5.6-44.6-5.6
			c-31.4,12.8-63.8,40-74.9,72.5c-5.7,16.5-4,34,0.3,50.6c3.7,14,11.7,34.3,25.1,41.9c0,0,1.5,3,4.7,4.3c11.7,4.8,23.4,7.3,34.6,9.9
			c78.5,18.3,141.3-12.4,141.3-12.4c0.1,0.2,0.4-1,0.7-1.2c12.3-6.8,18.8-24.1,23.2-36.6C246.7,299.6,249,283.4,246,267.2z"/>
		<path fill="#EAA22F" d="M53,236.9c-10.5,17.5-12.7,37.9-15.3,57.7c-1,7.6-1,15.3-1,23c0,6.5-0.5,13.9,1.1,20.3c0,0,0,0-0.1,0.1
			c0,0-0.1,0-0.1,0.1c-2.3,4.3-0.9,13.3,2.4,16.8c0.1,0.1,0.2,0.1,0.3,0.1c11,5.1,23.3,7.6,35,10.3c14.7,3.4,29.6,6.5,44.7,6.7
			c16.7,0.3,33.9-1.1,50.3-4.3c9.4-1.8,18.7-4.6,28-7.2c6.7-1.9,13.8-3.6,20-6.9c0.3-0.2,0.3-0.4,0.2-0.7
			c1.2-2-101.2,13.3-139.1-22.1C37.1,291.3,53,236.9,53,236.9z"/>
		<path fill="#E8B19A" d="M163.8,187.4c-8.3,11.1-25.5,10.7-34.1,20.2c-4.8-3.9-9.6-8.6-14.9-11.8c-5.4-3.2-10.4-4.5-13.9-10.3
			C100.8,185.4,163.9,187.2,163.8,187.4z"/>
		<path fill="#FFE2B3" d="M180.7,191c-0.5-2.6-1.1-8.8-4-10.1c-0.1-0.1-7.3,2.2-9.1,3.7c-1,0.8-2.3,2-3.7,3.2
			c-0.1-0.2-0.2-0.4-0.2-0.3c-8.3,11.1-25.5,10.7-34.1,20.2c-4.8-3.9-9.6-8.6-14.9-11.8c-3.8-2.3-7.5-3.6-10.6-6.3
			c-0.3-0.3-0.6-0.6-0.9-0.8c-0.9-0.9-1.7-1.9-2.4-3.2c0,0-0.1,0.3-0.2,0.7c-1.1-1-2.2-1.9-3.2-2.6c-4.8-3.2-8-2.9-8.1-2.8
			c-2.9,1.3-3.4,7.5-4,10.1c-1,4.5-2,8.7-3.6,13c0,0.1,0.1,0.1,0.1,0.1c0,0.3,0.3,0.6,0.6,0.5c4.2-0.4,7.9-2.6,11.5-4.8
			c1.7-1,3.6-2.4,5.6-3.7c5.8,5.1,11.4,10.3,17.1,15.4c3.7,3.3,7.5,7.5,11.9,9.9c0.2,0.1,0.4,0.1,0.6,0.1c3.4,1.4,14.3-8.2,16.6-9.8
			c6.9-4.8,14.6-9.9,20.7-15.6c1.6,1,3.1,2.1,4.5,3c3.8,2.4,8,5.1,12.6,5.5c0.3,0,0.5-0.2,0.6-0.5c0.1,0,0.2,0,0.1-0.1
			C182.7,199.8,181.6,195.6,180.7,191z"/>
		<path fill="#C6C6C5" d="M202.7,115.4C202.7,115.5,202.7,115.4,202.7,115.4c-1.3,0.6-1.5,3.3-1.6,4.5c-0.3,3,0.6,5.7,1.9,8.4
			c-1.4,1.1-1.6,2.7-2.1,4.4c-0.8,3.1-3.6,4.4-5.6,6.5c-0.1,0.2,0-1.7,0.9-12c0.4-3.9,0.2-6.7,0.2-8.7
			C196.4,116.1,202.4,114.8,202.7,115.4z"/>
		<g>
			<path fill="#A03C50" d="M104.9,153c0.5,16.1,15.5,20.2,29.2,20.5c12,0.3,22.7-8.1,24.7-20.1c0.1-0.3-13.8-6.6-27.4-6.7
				C118,146.6,104.9,152.8,104.9,153L104.9,153z"/>
		</g>
		<path fill="#C6C6C5" d="M129.5,136.4c3.4,1.4,7,0.2,9.3-2.4c0,0,0.1,0.1,0.2,0c7.5-4.7,13.9,2.5,17.3,8.4
			c2.8,4.8,5.3,8.8,9.7,12.1c-2.1-0.5-4.3-0.7-6.5-1.2c-2.5-0.7-4.9-1.8-7.2-2.9c-0.4-0.2-0.7,0.3-0.3,0.6c0.4,0.3,0.9,0.6,1.4,0.9
			c-0.5,0.8-0.2,2.1,0.4,2.8c-4.7-0.5-8-2.9-11.5-5.9c-0.3-0.2-0.7,0.1-0.5,0.4c0.3,0.6,0.7,1.1,1.2,1.6c0,0,0,0-0.1,0
			c-0.6,0.8,0.1,2.2,0.7,2.7c-4.7-0.8-8.7-2.5-11.7-6.3c-0.2-0.3-0.6,0-0.6,0.3c-3.1,3.7-7,5.5-11.7,6.2c0.6-0.6,1.2-2,0.7-2.7
			c0,0,0,0-0.1,0c0.5-0.5,0.9-1,1.2-1.6c0.2-0.3-0.2-0.6-0.5-0.4c-3.5,3-6.9,5.5-11.5,5.9c0.6-0.7,0.9-2,0.4-2.8
			c0.5-0.3,0.9-0.5,1.4-0.9c0.3-0.3,0.1-0.8-0.3-0.6c-2.4,1.1-4.7,2.2-7.2,2.9c-2.1,0.6-4.3,0.8-6.5,1.2c3.9-2.9,6.3-6.2,8.8-10.6
			c3.5-6.2,10-15.1,18.2-9.9C124.2,134.4,129,136.2,129.5,136.4z"/>
		<g>
			<path fill="#CB6272" d="M145.6,169.7c-6.9-8.8-26.9-11.1-36-4.9c-0.2,0.1-0.1,0.5,0.2,0.4c0,0,7.6,6.7,16.6,7.6
				C141.6,174.5,145.9,170,145.6,169.7z"/>
		</g>
		<path fill="#C6C6C5" d="M66.8,142.2c-0.6-1.1-1.8-0.7-2.5-1.7c-0.8-1.2-1.9-3.8-2.3-5.2c-0.4-1.4-0.3-3.5-2.1-3.4
			c-0.1-3,0.1-6,0.5-9c0.3-2.5,0.5-4.7-0.1-7c0-0.1,3.7,0.3,4.6,0.7c1.3,0.6,0,10.1,0.2,11.8C65.8,138.1,66.9,142.3,66.8,142.2z"/>
		<g>
			<path fill="#C6C6C5" d="M201.8,84c-0.4-1.4-5.4-8.3-2.8-9.3c0,0,0,0,0,0c0.1,0.3,0.6,0.3,0.6-0.1c-0.3-2.8-1.3-5.4-3.1-7.6
				c-2.2-2.7-1.5-6.8-0.9-10c0.1-0.1,0.2-0.2,0.1-0.4c-1.5-4.5-6.7-7.6-5.2-12.9c0.2,0,0.3-0.3,0.1-0.5c-1.5-1.7-4-2.6-6-3.7
				c-1.4-0.8-2.6-1.7-3.5-3c-0.7-1-0.8-2.2-1.2-3.4c0.1-0.1,0.2-0.2,0.1-0.4c-1.4-2.5-5.7-2-8.1-1.8c-2.1,0.1-4.6,0.6-7,0.7
				c-1.8-0.4-4.5-0.8-6.3-1.1c-0.5-0.3-1.4-0.4-1.2-0.2c-0.5-0.1-0.7-0.2-0.8-0.2c-5-6.3-16,1.3-21-5.9c-0.1-0.1-0.4-0.1-0.3,0.1
				c0,0.1,0.1,0.1,0.1,0.2c-1.4,1.1-2.5,2.4-4.1,3.3c-1.6,0.9-3.4,1.4-5.2,1.8c-2.9-1.3-6.3-1.4-9.4-1.2c-1.7,0.1-7.2,2.5-8.1,0.4
				c-0.1-0.1-0.2,0-0.2,0.1c0.1,0.3-0.3-0.4-0.5-0.3c-6.2,2-11.6,2.1-17.9,0.7c-0.1-0.4-0.2-0.7-0.3-1.1c-0.1-0.2-0.4-0.1-0.4,0.1
				c0,0.3,0,0.5-0.1,0.8c0,0-0.1,0-0.1,0c-0.1,0-0.1,0.1-0.1,0.2c0,0,0.1,0.1,0.1,0.1c-0.8,7.3-10.9,7.9-14.9,13.2
				c-0.3,0-0.4,0-0.4,0c-0.6,1.4-1,2.9-1.7,4.3c-0.7,1.7-2.9,2.9-4.1,4.4c-1.6,2.1-0.9,5.3-2.2,7.6c-0.1,0-0.3,0-0.3,0.1
				c-0.9,1.9-0.9,4-1,6.1c-0.1,1.2-0.3,2.4-0.2,3.6c0.2,1.6,1.3,3-0.6,4.2c0,0,0,0,0,0c-0.2-0.3-0.6-0.1-0.6,0.2
				C62.4,79.7,58,85.9,61,92.1c0.1,0.1,0.3,0,0.2-0.1l0,0.2l6.3,0.3c0,0.2,0,0.3,0,0.3l0.1,0c0-0.1,0-0.1,0-0.2l0.7,0l-0.7,0.2
				c0,0,0,0,0,0c1.7,10.4,4,12.9,4,12.9c2.3-5.4,4.3-9.9,5.6-12.7l0.4,0l0-0.3c2.3-1.4,2.8-5.4,3.4-7.6c1-4.1,1.2-9.8,4.9-12.4
				c0.2-0.1,0.2-0.3,0.1-0.5c1.1-2.3,1.4-4.7,2.9-6.9c1-1.5,2.4-2.6,4-3.5c1.5-0.9,3.2-0.8,4.9-1.2c0,0,0,0,0,0
				c0.1,0.1,0.3,0.1,0.3,0c1.3-2.6,3.5-2.4,6-2.2c2.1,0.2,3.2,1.8,5.1,2.3c0,0,0,0,0,0c-0.1,0.1-0.1,0.2-0.2,0.3
				c-0.1,0.2,0.2,0.4,0.4,0.3c1.6-1.3,2.8-2.7,4.9-3.2c2.5-0.7,4.4,0.9,6.7,1.3c0.2,0,0.4-0.2,0.2-0.4c-0.1-0.1-0.1-0.1-0.2-0.2
				c1.7,0.3,3.4-0.4,5.2-0.1c1.9,0.4,3.5,1.9,5.3,2.5c0,0.1,0.1,0.3,0.3,0.3c5.5,0.1,10.9-6.7,16.3-2.7c-0.1,0.1-0.1,0.2-0.2,0.2
				c-0.2,0.3,0.1,0.7,0.4,0.6c2.7-0.8,10.2-3.8,12,1.2c0.1,0.4,0.8,0.3,0.8-0.1c0,0,0,0,0,0c2.2-1,4-2.4,6.4-3c0.5-0.1,6.8-1,6.3,1
				c0,0.1,0.1,0.1,0.1,0c1.8,1.1,3.5,2.3,5.1,3.8c1.8,1.8,3.3,4.5,2.4,7c-0.2,0-0.4,0.3-0.3,0.5c2.1,3.8,1.9,8.7,2,12.8
				c0.1,3.9,1.2,6.2,2.5,9.8c0,0,0,0,0.1,0v0h0.1c0,0,0,0,0.1,0h0.3c0.4,1.7,1.2,3.9,2.7,6.5c1.5,2.8,2.2,4.3,2.4,5
				c0.7-2.1,3.1-8.6,5.5-11.6h4.7c0.1,0.1,0.3,0.1,0.4,0h0.2v-0.4h0C203.1,89.5,202.7,86.9,201.8,84z"/>
			<path fill="#C6C6C5" d="M191.4,104.4c-0.2,0.4-0.2,0.7-0.2,0.7S191.7,105.5,191.4,104.4z"/>
		</g>
		<g opacity="0.7">
			<path fill="#FFFFFF" d="M116.1,99.4c-4.8-1-9.9-0.5-14.8-0.7c-5.4-0.3-11.7-1.3-16.9,0.6c-0.3,0.1-0.3,0.4-0.3,0.6
				c-1.3,7.2-1.3,15.5-0.4,22.7c0.1,0.6,0.9,0.7,1.1,0.3c4.6,0.5,9.4,0.4,14.1,0.7c2.4,0.1,4.9,0.1,7.3,0c3.3-0.2,6.6,0.9,9.8,0.5
				c0.6-0.1,0.7-0.7,0.5-1c0.8-2.9,0.4-6.6,0.5-9.6c0.2-4.3,0.2-9.2-0.8-13.4C116.5,99.8,116.4,99.5,116.1,99.4z"/>
			<path fill="#FFFFFF" d="M178.4,99.5c-5.2-1.9-11.5-0.9-16.9-0.6c-4.9,0.3-9.9-0.2-14.8,0.7c-0.3,0.1-0.4,0.3-0.3,0.6
				c-0.9,4-0.7,8.3-0.8,12.3c0,3.2-0.3,7.5,0.5,10.7c-0.2,0.4,0,1,0.5,1c3,0.4,5.9-0.8,8.9-0.6c2.3,0.1,4.6,0.2,6.9,0.1
				c5-0.1,10.3-0.2,15.4-0.7c0.2,0.4,1,0.3,1.1-0.3c1-7.2,1-15.5-0.4-22.7C178.7,99.9,178.6,99.6,178.4,99.5z"/>
		</g>
		<g opacity="0.8">
			<path fill="#DB9286" d="M81.9,121.6c-0.5,0-0.9,0-1.4,0.1c-3.9-0.4-7.9,0.4-10.9,2.3c-1.1,0.7-1.8,1.9-2.2,3.2
				c-0.9,1.1-0.5,2.8,0.3,3.7c0.1,0.2,0.2,0.4,0.3,0.6c2.1,3.1,6,3.9,9.1,4.1c1.1,0.1,2.5,0.2,4,0.1c0.4,0.3,0.8,0.6,1.4,0.7
				c4.7,0.6,12.2-0.7,12.6-7.9C95.5,122.4,86.2,120.6,81.9,121.6z"/>
			<path fill="#DB9286" d="M191.9,127.2c-0.8-1.1-1.6-2-2.6-2.8c0.1,0,0.1,0,0.2,0c0.4,0,0.4-0.8,0.1-1c-4.5-2.7-9.9-3.1-14.7-1.8
				c-0.3,0.1-0.6,0.2-0.9,0.3c-2.1,0.7-4.1,1.8-5.8,3.3c-1.1,1-1.5,4-0.4,5.5c0.4,0.5,0.8,0.9,1.2,1.2c2.2,4.7,6.9,4.8,10.2,4.9
				c4.1,0.1,9.8-0.6,12.7-5.7C192.5,130.1,192.6,128.3,191.9,127.2z"/>
		</g>
		<path fill="#1D1D1B" d="M100.9,106.6c-1.7,0.3-3,0.4-4.2,2c-1.8,2.4-1.5,5.9,1.6,6.9c2.5,0.9,6.4,0,7.4-2.6
			c0.9-2.6-1.6-5.8-4.1-6.3c-1-0.2-2.2,0-3.1,0.4"/>
		<path fill="#FFFFFF" d="M101.8,107.4c-1.2,0.3-3.6,2-1.4,3.5c3.7,2.5,5.2-2.8,1.6-3.6"/>
		<g>
			<path fill="#1D1D1B" d="M91.6,90c1.5,0.4,3.1-0.2,4.5-0.5c2-0.4,4.1-1,6.1-1.3c0.8-0.1,0.7-1.4-0.1-1.4c-2.3-0.2-4.2-0.3-6.5,0.3
				c-1.5,0.4-3.3,1-4.2,2.3C91.3,89.5,91.4,89.9,91.6,90L91.6,90z"/>
		</g>
		<path fill="#1D1D1B" d="M162.1,106.9c-1.7,0.3-3,0.4-4.2,2c-1.8,2.4-1.5,5.9,1.6,6.9c2.5,0.9,6.4,0,7.4-2.6
			c0.9-2.6-1.6-5.8-4.1-6.3c-1-0.2-2.2,0-3.1,0.4"/>
		<path fill="#FFFFFF" d="M163.3,108.3c-1.2,0.3-3.6,2-1.4,3.5c3.7,2.5,5.2-2.8,1.6-3.6"/>
		<g>
			<path fill="#1D1D1B" d="M173.2,89.1c-1-1.2-3-1.5-4.5-1.7c-2.3-0.3-4.2,0-6.5,0.5c-0.8,0.2-0.7,1.4,0.1,1.4
				c2.1,0.1,4.2,0.4,6.2,0.5c1.5,0.1,3.1,0.4,4.5-0.1C173.3,89.7,173.3,89.3,173.2,89.1L173.2,89.1z"/>
		</g>
		<g>
			<path fill="#1D1D1B" d="M65.9,105.9c-2.4,10.5-1.7,21.7-0.6,32.3c1,9.7,2.6,20.5,7.8,29c11.3,18.6,41.9,24.1,61.6,24.4
				c18.9,0.3,41.1-3.7,52.5-20.4c5.4-7.9,6.7-18.3,8.3-27.5c2.1-11.8,2.8-24.1,1.7-36.1c-0.1-0.6-0.9-0.6-0.9,0
				c-1.3,19.4,0,40.8-8.5,58.9c-8.3,17.7-29.6,22.4-47.3,23.3c-21.8,1.2-52.7-4.4-66.3-23.5c-5.4-7.6-6.5-19.3-7.7-28.2
				c-1.3-10.5-1.8-21.6,0.1-32.1C66.9,105.6,66,105.4,65.9,105.9L65.9,105.9z"/>
		</g>
		<g>
			<path fill="#1D1D1B" d="M66.5,91.7c-6.8-3.5-12.2,5.9-13.2,11.3c-1.2,6.9,4.5,15.3,12,14.1c0.6-0.1,0.4-1-0.1-1.1
				c-7.1-0.8-11.6-6.4-10.3-13.6c1-5.4,5.5-11,11.4-10.2C66.6,92.3,66.8,91.9,66.5,91.7L66.5,91.7z"/>
		</g>
		<g>
			<path fill="#1D1D1B" d="M196.9,92.3c6.2-0.9,10,4.8,11.4,10.2c1.9,7.1-3.7,12.9-10.3,13.6c-0.6,0.1-0.8,0.9-0.1,1.1
				c7.5,1.3,13.2-7.1,12-14.1c-1-5.5-6.5-14.9-13.2-11.3C196.3,91.9,196.6,92.3,196.9,92.3L196.9,92.3z"/>
		</g>
		<g>
			<path fill="#1D1D1B" d="M61.8,99.5c-2.7,0.6-2.9,6.8-0.7,8c0.2,0.1,0.4,0,0.4-0.2c0-0.6-0.2-1.1-0.3-1.6
				c-0.2-0.7-0.3-1.5-0.3-2.3c0-1.4,0.5-2.4,1.2-3.6C62.2,99.7,62,99.5,61.8,99.5L61.8,99.5z"/>
		</g>
		<g>
			<path fill="#1D1D1B" d="M201.6,99.4c0.4,1.3,1.1,2.4,1.2,3.8c0.1,1.7-0.6,2.9-1.1,4.4c-0.2,0.5,0.4,0.9,0.9,0.7
				c2.6-1.7,2.4-7.9-0.5-9.2C201.8,98.9,201.5,99.1,201.6,99.4L201.6,99.4z"/>
		</g>
		<g>
			<path fill="#1D1D1B" d="M62.4,91.6c4.5-3.7,13.9,1.4,18.3,3.6c0.6,0.3,1.2-0.6,0.6-1c-3.8-2-16.1-8.5-19.2-2.8
				C61.9,91.6,62.2,91.8,62.4,91.6L62.4,91.6z"/>
		</g>
		<g>
			<path fill="#1D1D1B" d="M80.4,94.9c12.3,2.3,25.9,0.1,38.4,1c1,0.1,1-1.4,0-1.5c-5.8-0.4-11.6-0.3-17.4-0.4
				c-6.7-0.1-14.5-1.3-21,0.6C80.2,94.6,80.2,94.9,80.4,94.9L80.4,94.9z"/>
		</g>
		<g>
			<path fill="#1D1D1B" d="M118.5,95.2c3.1,3.7,1.6,9.3,1.5,13.7c-0.3,6.2-0.8,12.4-1,18.7c0,1,1.6,1,1.6,0c0.3-7.5,0.7-15,1.2-22.4
				c0.2-3.3,0.8-8.8-2.9-10.5C118.6,94.5,118.3,94.9,118.5,95.2L118.5,95.2z"/>
		</g>
		<g>
			<path fill="#1D1D1B" d="M65.6,92.1c1.7,1.7,4.3,2.5,6.5,3.5c2.5,1.3,5,2.7,7.5,4.1c0.9,0.5,1.6-0.8,0.8-1.3
				c-2.5-1.4-5-2.8-7.5-4.1c-2.2-1.1-4.6-2.6-7-2.7C65.6,91.6,65.5,91.9,65.6,92.1L65.6,92.1z"/>
		</g>
		<g>
			<path fill="#1D1D1B" d="M79.9,98.6c-1.8,0.9-0.9,8.5-1,10.2c-0.2,5.8-0.6,11.7-0.7,17.6c0,0.8,1.3,1,1.4,0.2
				c0.9-6.2,0.6-12.7,0.8-19C80.5,107,80.7,98.2,79.9,98.6L79.9,98.6z"/>
		</g>
		<g>
			<path fill="#1D1D1B" d="M78.8,126.8c6.3,1.8,13.7,0.9,20.1,0.9c6.9,0,13.9,0.6,20.8,0.6c1,0,1-1.5,0-1.5
				c-6.9,0-13.9-0.6-20.8-0.6c-6.4,0-13.9-1.3-20.1-0.3C78.4,126,78.5,126.7,78.8,126.8L78.8,126.8z"/>
		</g>
		<g>
			<path fill="#1D1D1B" d="M115.5,99.8c-0.9,4.4,0.1,9.2,0,13.7c-0.1,3.1-1.3,7.4,0.3,10.2c0.2,0.3,0.6,0.2,0.7-0.1
				c1-3,0.5-7,0.6-10.1c0.2-4.4,0.2-9.4-0.8-13.7C116.2,99.4,115.6,99.4,115.5,99.8L115.5,99.8z"/>
		</g>
		<g>
			<path fill="#1D1D1B" d="M84.4,122.9c4.8,0.6,9.8,0.5,14.6,0.7c2.4,0.1,4.9,0.1,7.3,0c3.3-0.2,6.6,0.9,9.8,0.5
				c0.8-0.1,0.8-1.4,0-1.3c-3,0.2-5.9-0.9-8.9-0.7c-2.8,0.2-5.5,0.2-8.2,0.1c-4.2-0.1-10.9-1.8-14.7,0.1
				C83.9,122.5,84.1,122.8,84.4,122.9L84.4,122.9z"/>
		</g>
		<g>
			<path fill="#1D1D1B" d="M84.2,99.7c-1.4,7.2-1.4,15.6-0.4,22.9c0.1,0.8,1.3,0.8,1.2,0c-0.8-7.6,0.6-15.3-0.1-22.8
				C84.8,99.4,84.2,99.2,84.2,99.7L84.2,99.7z"/>
		</g>
		<g>
			<path fill="#1D1D1B" d="M200.7,91.6c-3.1-5.6-15.4,0.9-19.2,2.8c-0.6,0.3-0.1,1.3,0.6,1c4.3-2.2,13.7-7.3,18.3-3.6
				C200.5,92,200.8,91.8,200.7,91.6L200.7,91.6z"/>
		</g>
		<g>
			<path fill="#1D1D1B" d="M182.4,94.8c-5.9-1.7-12.7-0.7-18.8-0.6c-6.6,0.1-13.1,0-19.6,0.4c-1,0.1-1,1.6,0,1.5
				c12.6-0.8,26.1,1.3,38.4-1C182.5,95.1,182.5,94.9,182.4,94.8L182.4,94.8z"/>
		</g>
		<g>
			<path fill="#1D1D1B" d="M143.8,94.9c-3.7,1.6-3.1,7.2-2.9,10.5c0.4,7.5,0.9,14.9,1.2,22.4c0,1,1.7,1,1.6,0
				c-0.2-5.6-0.6-11.1-0.9-16.7c-0.2-4.8-1.9-11.7,1.4-15.7C144.4,95.1,144.1,94.8,143.8,94.9L143.8,94.9z"/>
		</g>
		<g>
			<path fill="#1D1D1B" d="M196.9,91.9c-2.5,0.1-4.8,1.6-7,2.7c-2.6,1.3-5,2.7-7.5,4.1c-0.9,0.5-0.1,1.8,0.8,1.3
				c2.2-1.3,4.4-2.5,6.6-3.7c2.4-1.2,5.4-2.1,7.3-4C197.2,92.2,197.1,91.8,196.9,91.9L196.9,91.9z"/>
		</g>
		<g>
			<path fill="#1D1D1B" d="M182.7,98.8c-1.8,1-0.4,9.7-0.4,11.5c0.2,5.4,0,11.1,0.7,16.5c0.1,0.8,1.4,0.6,1.4-0.2
				c-0.1-6.3-0.5-12.6-0.7-18.8C183.7,107.2,183.4,98.4,182.7,98.8L182.7,98.8z"/>
		</g>
		<g>
			<path fill="#1D1D1B" d="M183.9,126.2c-6.3-1-13.8,0.3-20.1,0.3c-6.9,0-13.9,0.6-20.8,0.6c-1,0-1,1.5,0,1.5
				c6.9,0,13.9-0.6,20.8-0.6c6.5,0,13.8,0.9,20.1-0.9C184.3,126.9,184.3,126.2,183.9,126.2L183.9,126.2z"/>
		</g>
		<g>
			<path fill="#1D1D1B" d="M178.3,99.6c-5.2-1.9-11.5-0.9-16.9-0.6c-4.9,0.3-9.9-0.2-14.8,0.7c-0.6,0.1-0.4,1,0.1,1
				c10.5,0.1,20.9-0.1,31.4-0.3C178.7,100.4,178.8,99.7,178.3,99.6L178.3,99.6z"/>
		</g>
		<g>
			<path fill="#1D1D1B" d="M146.4,100.1c-0.9,4-0.8,8.5-0.8,12.6c0,3.4-0.4,8,0.7,11.2c0.1,0.3,0.5,0.4,0.7,0.1
				c1.6-2.7,0.4-7.1,0.3-10.2c-0.2-4.5,0.9-9.2,0-13.7C147.2,99.6,146.5,99.6,146.4,100.1L146.4,100.1z"/>
		</g>
		<g>
			<path fill="#1D1D1B" d="M178.5,122.6c-3.5-1.7-9.6-0.3-13.4-0.1c-2.9,0.1-5.8,0.2-8.7,0c-3.3-0.2-6.6,0.9-9.8,0.6
				c-0.8-0.1-0.8,1.2,0,1.3c3,0.4,5.9-0.8,8.9-0.6c2.3,0.1,4.6,0.2,6.9,0.1c5.2-0.1,10.7-0.2,15.9-0.8
				C178.6,123.1,178.8,122.7,178.5,122.6L178.5,122.6z"/>
		</g>
		<g>
			<path fill="#1D1D1B" d="M177.8,100c-0.7,7.6,0.7,15.2-0.1,22.8c-0.1,0.8,1.1,0.8,1.2,0c1-7.3,1-15.7-0.4-22.9
				C178.5,99.5,177.9,99.6,177.8,100L177.8,100z"/>
		</g>
		<g>
			<path fill="#1D1D1B" d="M121.7,105.3c6.2-1.7,13.2-1.4,19.3,0.4c0.5,0.1,0.8-0.6,0.3-0.8c-3.8-1.7-8.1-2-12.2-1.7
				c-2.1,0.2-6.1-0.1-7.7,1.6C121.2,105,121.4,105.4,121.7,105.3L121.7,105.3z"/>
		</g>
		<g>
			<path fill="#1D1D1B" d="M120.9,109.2c6.9,0.3,13.5-0.5,20.3,1.1c0.4,0.1,0.8-0.5,0.3-0.7c-6-2.9-14.4-1.8-20.7-0.9
				C120.5,108.7,120.6,109.2,120.9,109.2L120.9,109.2z"/>
		</g>
		<g>
			<path fill="#1D1D1B" d="M67.6,92.7C67.7,92.7,67.7,92.7,67.6,92.7c-0.1-0.1-0.5,0.2-0.4,0.4c0.7,2.2,0.9,4.4,1.4,6.6
				c0.5,2.2,1.6,4.8,2.7,6.8c0.1,0.2,0.5,0.1,0.5-0.1c0.2-2.4-1.5-4.7-2.1-6.9c-0.2-0.8-0.7-6.6-1.9-6.2c0.2-0.1,0.3-0.3,0.1-0.5
				c0-0.1-0.1-0.1-0.1-0.2C67.7,92.7,67.7,92.7,67.6,92.7L67.6,92.7z"/>
		</g>
		<g>
			<path fill="#1D1D1B" d="M71.7,106.2c1.3-0.8,1.5-3.2,1.9-4.6c0.4-1.2,0.8-2.5,1.4-3.6c0.3-0.6,1-1,1.1-1.7c0-0.1-0.1-0.2-0.2-0.2
				C73.5,95.4,71.3,104.6,71.7,106.2C71.6,106.2,71.7,106.2,71.7,106.2L71.7,106.2z"/>
		</g>
		<g>
			<path fill="#1D1D1B" d="M187.7,97.6c0.1-0.2,0.2-0.2,0.3-0.4c-0.2,0-0.5-0.1-0.7-0.1c0.4,1.3,1.3,2.6,1.9,3.9
				c0.7,1.6,1.1,3.5,2.1,5c0.2,0.3,0.7,0.2,0.7-0.2c-0.1-1.5-0.7-2.9-1.3-4.3c-0.7-1.6-1.4-3.6-2.8-4.7c-0.3-0.3-0.8,0.1-0.6,0.4
				C187.4,97.4,187.5,97.5,187.7,97.6C187.6,97.6,187.7,97.6,187.7,97.6L187.7,97.6z"/>
		</g>
		<g>
			<path fill="#1D1D1B" d="M191.9,105.5c-0.1,0-0.1,0-0.2,0c-0.4-0.1-0.7,0.5-0.3,0.7c0,0,0,0,0,0c0.1,0.1,0.3,0.1,0.5-0.1
				c0.3-0.3,0.3-0.4,0.2-0.9c-0.2-1.4,0.9-3.3,1.5-4.6c1.2-2.8,2.1-5.7,4.1-8.1c0.5-0.6-0.3-1.4-0.8-0.8c-2.1,2.6-3,5.4-4.3,8.4
				c-0.5,1.1-0.9,2.2-1.2,3.3c-0.1,0.4-0.2,0.9-0.2,1.3c0,0.5-0.2,1.1,0.3,0.8c0.2,0.1,0.4,0.2,0.6,0.3c0-0.1,0-0.1,0-0.2
				C192,105.6,192,105.5,191.9,105.5L191.9,105.5z"/>
		</g>
		<g>
			<path fill="#1D1D1B" d="M77.3,92.7c2.7-1,3.3-5.5,3.9-7.9c1-4.1,1.2-9.8,4.9-12.4c0.2-0.2,0.2-0.4,0-0.6
				c-3.5-2.5-7,18.7-8.9,20.5C77,92.5,77.1,92.8,77.3,92.7L77.3,92.7z"/>
		</g>
		<g>
			<path fill="#1D1D1B" d="M86,72.2c1.2-2.3,1.5-4.9,3-7.1c1-1.5,2.4-2.6,4-3.5c1.5-0.9,3.2-0.8,4.9-1.2c0.4-0.1,0.4-0.7,0-0.8
				c-3.3-0.8-6.9,1.5-9,3.8c-1.8,2-4.1,6-3.1,8.8C85.8,72.3,85.9,72.3,86,72.2L86,72.2z"/>
		</g>
		<g>
			<path fill="#1D1D1B" d="M98.2,60.3c1.3-2.6,3.5-2.4,6-2.2c2.1,0.2,3.2,1.8,5.1,2.3c0.2,0.1,0.5-0.2,0.3-0.4
				c-1.5-2.2-4-2.9-6.5-3.1c-2-0.2-6,0.3-5.3,3.3C97.9,60.5,98.2,60.5,98.2,60.3L98.2,60.3z"/>
		</g>
		<g>
			<path fill="#1D1D1B" d="M186.1,92.5c0.2-1.3-0.1-2.1-0.7-3.3c-1.3-2.9-1.1-5.6-1.2-8.7c-0.1-3.5,0-8.2-2.4-11.1
				c-0.3-0.3-0.8,0.1-0.6,0.4c2.1,3.8,1.9,8.7,2,12.8c0.1,3.9,1.2,6.2,2.5,9.8C185.9,92.7,186.1,92.7,186.1,92.5L186.1,92.5z"/>
		</g>
		<g>
			<path fill="#1D1D1B" d="M181.7,69.8c2-2,0.5-4.9-0.8-6.8c-1.2-1.6-4.2-5-6.6-4.5c-0.2,0.1-0.2,0.4-0.1,0.5c1.8,1.1,3.4,1.8,5,3.3
				c1.9,1.9,3.4,4.6,2.3,7.3C181.4,69.7,181.6,69.9,181.7,69.8L181.7,69.8z"/>
		</g>
		<g>
			<path fill="#1D1D1B" d="M174.2,58.5c1.1-1.6-2.4-2.1-3.3-2.2c-3.6-0.5-7.7,1.1-10.1,3.7c-0.3,0.3,0.1,0.7,0.5,0.6
				c2.3-1,4.1-2.4,6.5-3.1c0.5-0.1,6.8-1,6.3,1C174,58.5,174.1,58.5,174.2,58.5L174.2,58.5z"/>
		</g>
		<g>
			<path fill="#1D1D1B" d="M160.3,60.5c0-2.6-2.2-3.7-4.5-3.9c-2.1-0.2-6.5,0.1-7.7,2.2c-0.2,0.3,0.1,0.7,0.4,0.6
				c2.7-0.8,10.9-4.2,11.2,1.1C159.7,60.9,160.3,60.9,160.3,60.5L160.3,60.5z"/>
		</g>
		<g>
			<path fill="#1D1D1B" d="M149.1,58.8c-1.5-2.5-4.2-2.7-6.9-2.2c-3.3,0.6-7.5,2.3-10.3,4.1c-0.3,0.2-0.2,0.6,0.2,0.6
				c5.7,0.1,11.3-7.2,16.8-2.2C148.9,59.1,149.2,58.9,149.1,58.8L149.1,58.8z"/>
		</g>
		<g>
			<path fill="#1D1D1B" d="M109.6,61.1c1.6-1.3,2.8-2.7,4.9-3.2c2.5-0.7,4.4,0.9,6.7,1.3c0.2,0,0.4-0.2,0.2-0.4
				c-3.2-3.7-10.2-2.2-12.2,2.1C109.1,61,109.4,61.2,109.6,61.1L109.6,61.1z"/>
		</g>
		<g>
			<path fill="#1D1D1B" d="M120.9,58.4c1.8,0.5,3.6-0.4,5.5,0c1.9,0.4,3.5,1.9,5.3,2.5c0.5,0.2,0.8-0.6,0.4-0.8
				c-3.1-1.9-7.7-4.6-11.2-1.9C120.7,58.3,120.7,58.4,120.9,58.4L120.9,58.4z"/>
		</g>
		<path fill="#1D1D1B" d="M66.8,142.3c-0.6-1.1-1.6-1.9-2.3-2.9c-0.8-1.2-1.3-2.7-1.7-4.1c-0.4-1.4-0.6-3.6-2.4-3.4
			c-0.1-3,0.4-5.9,0.8-8.9c0.3-2.5,0.4-4.7-0.8-6.9c-0.1-0.2-0.4-0.1-0.4,0.1c1.3,5.4-1.7,10.8-0.1,16c0,0.1,0.1,0.1,0.1,0.1
			c1.1,0.9,1.4,1.5,1.7,2.9c0.2,1.2,0.7,2.3,1.1,3.4c0.7,1.6,1.9,3.6,3.7,4.2C66.7,142.8,66.9,142.5,66.8,142.3z"/>
		<g>
			<path fill="#1D1D1B" d="M202.1,115.6c-1.2,0.7-1.4,3.4-1.5,4.6c-0.3,3,0.6,5.8,1.9,8.5c0.2,0.4,0.8,0.1,0.7-0.3
				c-0.7-2.5-1.8-4.8-1.8-7.5C201.4,119.2,202,117.3,202.1,115.6C202.2,115.6,202.1,115.5,202.1,115.6L202.1,115.6z"/>
		</g>
		<g>
			<path fill="#1D1D1B" d="M202.7,128.4c-1.6,1-1.8,2.8-2.3,4.5c-0.8,3.1-3.6,4.4-5.6,6.5c-0.3,0.3,0.1,0.7,0.4,0.5
				c1.9-1,3.6-2.7,4.9-4.4c1.4-2,1.1-5,2.9-6.7C203.2,128.6,202.9,128.2,202.7,128.4L202.7,128.4z"/>
		</g>
		<g>
			<path fill="#1D1D1B" d="M61.2,91.8c-1-4.5-0.1-7.7,1.6-11.7c0.9-2.1,1.9-4.8,0.9-7c-0.2-0.3-0.6-0.1-0.6,0.2
				C62.4,79.5,58,85.7,61,91.9C61.1,92,61.3,91.9,61.2,91.8L61.2,91.8z"/>
		</g>
		<g>
			<path fill="#1D1D1B" d="M63.8,73.6c2.1-0.5,2.1-1.8,1.7-3.6c-0.8-3.5,0.6-7.2,0.6-10.7c0-0.3-0.4-0.4-0.6-0.2
				c-0.9,1.9-0.9,4-1,6.1c-0.1,1.2-0.3,2.4-0.2,3.6c0.2,1.7,1.3,3.1-0.7,4.3C63.4,73.3,63.5,73.6,63.8,73.6L63.8,73.6z"/>
		</g>
		<g>
			<path fill="#1D1D1B" d="M65.8,59.3c2.5-1.9,1.7-5.8,3.7-8.2c2.4-2.9,4.8-4.3,4.7-8.5c0-0.2-0.3-0.4-0.5-0.1
				c-0.6,1.4-1,2.9-1.7,4.3c-0.7,1.7-2.9,2.9-4.1,4.4c-1.7,2.2-0.8,5.5-2.4,7.9C65.6,59.3,65.8,59.4,65.8,59.3L65.8,59.3z"/>
		</g>
		<g>
			<path fill="#1D1D1B" d="M74.3,42.6c3.9-2.9,8.4-4.5,12.3-7.3c2.2-1.6,4.3-4.3,3-7.1c-0.1-0.2-0.4-0.1-0.4,0.1
				C89.2,36.6,78.4,37,74.3,42.6C74.2,42.6,74.2,42.7,74.3,42.6L74.3,42.6z"/>
		</g>
		<g>
			<path fill="#1D1D1B" d="M89,29.3c2.6,1.9,6.5,2,9.6,2.1c2.9,0,7.2-0.1,9.4-2.3c0.1-0.2,0-0.4-0.2-0.4c-6.5,2.1-12.2,2.2-18.8,0.5
				C88.9,29.1,88.9,29.2,89,29.3L89,29.3z"/>
		</g>
		<g>
			<path fill="#1D1D1B" d="M108.3,28.9c0.5,1.7,3.2,1.2,4.5,1.1c1.7-0.2,3.4-0.6,5.2-0.7c2.9-0.1,5.6,0.9,8.5,1.1
				c0.3,0,0.4-0.4,0.1-0.5c-3.1-1.5-6.6-1.7-10-1.4c-1.7,0.1-7.2,2.5-8.1,0.4C108.5,28.7,108.3,28.8,108.3,28.9L108.3,28.9z"/>
		</g>
		<g>
			<path fill="#1D1D1B" d="M135.4,24.3c1.1,2.9,3.8,3.9,6.7,4.2c4.9,0.5,9.6-0.2,14.2,2c0.3,0.2,0.6-0.2,0.4-0.5
				c-5-6.3-16,1.3-21-5.9C135.6,24,135.3,24.1,135.4,24.3L135.4,24.3z"/>
		</g>
		<g>
			<path fill="#1D1D1B" d="M156.9,29.6c1.8,3,5.7,2.9,8.8,2.8c5-0.2,9.2-1.1,13.9,0.8c0.2,0.1,0.4-0.2,0.3-0.4
				c-1.4-2.5-5.7-2-8.1-1.8c-4.7,0.3-10.9,2.1-14.8-1.5C157,29.3,156.8,29.4,156.9,29.6L156.9,29.6z"/>
		</g>
		<g>
			<path fill="#1D1D1B" d="M179.2,32.5c0,6.4,6.4,8.4,11,11.2c0.3,0.2,0.5-0.2,0.3-0.4c-1.5-1.7-4-2.6-6-3.7c-1.4-0.8-2.6-1.7-3.5-3
				c-0.8-1.2-0.8-2.8-1.4-4.1C179.5,32.2,179.2,32.3,179.2,32.5L179.2,32.5z"/>
		</g>
		<g>
			<path fill="#1D1D1B" d="M190.3,43.5c-4.1,1.8,3,11.8,4.7,13.4c0.2,0.2,0.7,0,0.6-0.3c-1.5-4.6-6.8-7.7-5.2-13
				C190.5,43.5,190.4,43.4,190.3,43.5L190.3,43.5z"/>
		</g>
		<g>
			<path fill="#1D1D1B" d="M195.1,56.5c-1.6,2.7-1,5.7-0.6,8.6c0.1,0.6,0.4,1.2,0.8,1.7c2,2.4,2.6,4.8,3.7,7.7
				c0.1,0.3,0.6,0.3,0.6-0.1c-0.3-2.8-1.3-5.4-3.1-7.6c-2.3-2.7-1.5-7-0.9-10.2C195.6,56.5,195.2,56.3,195.1,56.5L195.1,56.5z"/>
		</g>
		<g>
			<path fill="#1D1D1B" d="M199.2,74.2c-0.2,0-0.4-0.1-0.6-0.1c-0.1,0-0.2,0-0.3,0.1c-1.1,1.6-0.5,3.4,0.2,5c2,4.5,4.3,7.7,2.9,13.1
				c-0.1,0.4,0.6,0.6,0.7,0.2c0.9-3,0.5-5.7-0.4-8.7c-0.4-1.4-5.6-8.7-2.6-9.4C199.3,74.4,199.2,74.2,199.2,74.2L199.2,74.2z"/>
		</g>
		<g>
			<path fill="#1D1D1B" d="M100.3,177.8c18,6.1,38.9,8,57.5,3.1c0.6-0.2,0.3-1-0.3-0.9c-19.6,3.4-37.9,3-57.1-2.4
				C100.2,177.5,100.2,177.8,100.3,177.8L100.3,177.8z"/>
		</g>
		<g>
			<path fill="#1D1D1B" d="M124.2,134c-3.4-4.1-9.4-2.4-13,0.7c-2.9,2.4-4.6,5.6-6.5,8.8c-2.5,4.4-6,7.5-8.8,11.4
				c-0.2,0.2,0.2,0.5,0.4,0.4c4.4-3,6.9-6.5,9.6-11.1c3.5-6.2,10-15.1,18.2-9.9C124.2,134.4,124.3,134.2,124.2,134L124.2,134z"/>
		</g>
		<g>
			<path fill="#1D1D1B" d="M96.7,155.3c0,0,2.5,0,2.5,0c1.5-0.2,3-0.5,4.5-0.9c2.6-0.7,5.2-1.7,7.3-3.2c0.3-0.3,0.1-0.8-0.3-0.6
				c-2.4,1.1-4.7,2.2-7.2,2.9c-2.3,0.7-4.6,0.8-6.9,1.3c-0.2,0-0.2,0.3-0.1,0.4c0,0,0,0,0,0.1C96.5,155.4,96.7,155.4,96.7,155.3
				L96.7,155.3z"/>
		</g>
		<g>
			<path fill="#1D1D1B" d="M109.2,152c0,1.1-0.5,1.8-0.9,2.7c-0.2,0.4,0.4,0.7,0.7,0.4c0.7-0.7,1.2-2.4,0.6-3.3
				C109.4,151.7,109.2,151.8,109.2,152L109.2,152z"/>
		</g>
		<g>
			<path fill="#1D1D1B" d="M108.5,155.2c1.8,1.3,4.8-0.2,6.5-1c2.2-1,5.1-2.7,6.3-4.9c0.2-0.3-0.2-0.6-0.5-0.4
				c-3.7,3.2-7.2,5.8-12.2,6C108.5,154.9,108.4,155.1,108.5,155.2L108.5,155.2z"/>
		</g>
		<g>
			<path fill="#1D1D1B" d="M119.8,151c0,0.8-0.6,1.6-0.7,2.4c-0.1,0.3,0.3,0.5,0.5,0.3c0.6-0.6,1.2-2,0.7-2.7
				C120,150.7,119.8,150.8,119.8,151L119.8,151z"/>
		</g>
		<g>
			<path fill="#1D1D1B" d="M119.4,153.8c4,1,10.7-2.3,12.4-6.1c0.2-0.4-0.3-0.8-0.6-0.5c-3.1,3.8-7.1,5.6-11.9,6.3
				C119.3,153.7,119.3,153.8,119.4,153.8L119.4,153.8z"/>
		</g>
		<g>
			<path fill="#1D1D1B" d="M139,134.1c7.5-4.7,13.9,2.5,17.3,8.4c3,5.1,5.5,9.3,10.4,12.7c0.2,0.2,0.6-0.2,0.4-0.4
				c-2.9-3.9-6.3-7.1-8.8-11.4c-1.9-3.2-3.6-6.4-6.5-8.8c-3.6-3.1-9.6-4.8-13-0.7C138.7,134,138.8,134.2,139,134.1L139,134.1z"/>
		</g>
		<g>
			<path fill="#1D1D1B" d="M166.5,155.1C166.5,155.1,166.5,155.1,166.5,155.1c0.2-0.2,0.1-0.4-0.1-0.5c-2.3-0.6-4.6-0.7-6.9-1.3
				c-2.5-0.7-4.9-1.8-7.2-2.9c-0.4-0.2-0.7,0.3-0.3,0.6c2.2,1.6,4.7,2.5,7.3,3.2c1.5,0.4,3,0.7,4.5,0.9c0.1,0,2.5,0,2.5,0
				C166.3,155.2,166.4,155.2,166.5,155.1L166.5,155.1z"/>
		</g>
		<g>
			<path fill="#1D1D1B" d="M153.4,151.7c-0.7,0.8-0.2,2.6,0.6,3.3c0.3,0.3,0.9,0,0.7-0.4c-0.4-0.9-0.9-1.6-0.9-2.7
				C153.8,151.6,153.5,151.5,153.4,151.7L153.4,151.7z"/>
		</g>
		<g>
			<path fill="#1D1D1B" d="M154.4,154.7c-5-0.3-8.5-2.8-12.2-6c-0.3-0.2-0.7,0.1-0.5,0.4c1.2,2.2,4.1,3.8,6.3,4.9
				c1.7,0.9,4.7,2.3,6.5,1C154.6,154.9,154.5,154.7,154.4,154.7L154.4,154.7z"/>
		</g>
		<g>
			<path fill="#1D1D1B" d="M142.8,150.7c-0.6,0.8,0.1,2.2,0.7,2.7c0.2,0.2,0.5,0,0.5-0.3c-0.2-0.8-0.7-1.5-0.7-2.4
				C143.2,150.6,142.9,150.5,142.8,150.7L142.8,150.7z"/>
		</g>
		<g>
			<path fill="#1D1D1B" d="M143.6,153.4c-4.8-0.7-8.8-2.5-11.9-6.3c-0.3-0.3-0.8,0.1-0.6,0.5c1.8,3.7,8.4,7,12.4,6.1
				C143.7,153.6,143.7,153.5,143.6,153.4L143.6,153.4z"/>
		</g>
		<g>
			<path fill="#1D1D1B" d="M133.3,122.3c4.4-2,7.1,5,6.3,8.1c-1.1,4.2-6,5.8-9.8,5.2c-0.6-0.1-0.8,0.7-0.2,0.9
				c5.2,2.2,10.9-1.9,11.6-7.2c0.5-3.7-4-9.9-8-7.4C132.8,122,133,122.4,133.3,122.3L133.3,122.3z"/>
		</g>
		<g>
			<path fill="#1D1D1B" d="M104.9,153.4c0.5,16.1,15.5,20.2,29.2,20.5c12,0.3,22.7-8.1,24.7-20.1c0.1-0.6-0.8-0.9-1-0.3
				c-2.6,9.4-8.5,16.4-18.1,18.6c-5.6,1.3-11.7,0.3-17.1-0.8c-10.1-2-15.9-7.7-17.2-18C105.4,153,104.9,153,104.9,153.4L104.9,153.4
				z"/>
		</g>
		<g>
			<path fill="#1D1D1B" d="M109.7,165.2c10.1-4,27.4-3.7,34.9,5.5c0.5,0.7,1.5-0.3,0.9-0.9c-6.9-8.8-26.9-11.1-36-4.9
				C109.4,164.9,109.5,165.3,109.7,165.2L109.7,165.2z"/>
		</g>
		<g>
			<path fill="#1D1D1B" d="M151,116.5c0,2.3,3.2,3.8,5.1,4.4c0.3,0.1,0.5-0.4,0.2-0.5c-1.7-0.8-4.2-1.9-4.9-3.9
				C151.3,116.2,151,116.3,151,116.5L151,116.5z"/>
		</g>
		<g>
			<path fill="#1D1D1B" d="M108.4,120.8c2.3-0.5,4.7-2.7,5.2-5c0-0.1-0.1-0.3-0.3-0.1c-0.8,0.9-1.4,1.8-2.1,2.7
				c-0.8,0.9-1.9,1.6-3,2.2C108.1,120.6,108.2,120.8,108.4,120.8L108.4,120.8z"/>
		</g>
		<g>
			<path fill="#1D1D1B" d="M108.1,193c-3.1-1.3-6.6,1.2-9.1,2.6c-5.4,3.1-10.5,6.9-16.7,7.9c-0.7,0.1-0.5,1.3,0.2,1.2
				c4.2-0.4,7.9-2.6,11.5-4.8c4.1-2.5,9.1-6.9,14.1-6.8C108.2,193.2,108.2,193,108.1,193L108.1,193z"/>
		</g>
		<g>
			<path fill="#1D1D1B" d="M81.9,204.2c2.4-1.2,2.9-6.6,3.4-8.8c1.1-5,2.3-9.5,4.5-14.1c0.1-0.3-0.1-0.5-0.4-0.4
				c-2.9,1.3-3.4,7.5-4,10.1c-1,4.5-2,8.7-3.6,13C81.7,204.2,81.8,204.2,81.9,204.2L81.9,204.2z"/>
		</g>
		<g>
			<path fill="#1D1D1B" d="M158,193.2c4.7-0.1,9.3,3.7,13,6c3.8,2.4,8,5.1,12.6,5.5c0.7,0.1,0.8-1.1,0.2-1.2
				c-5.8-0.9-10.7-4.3-15.6-7.3c-2.7-1.6-6.9-4.7-10.2-3.3C157.8,193,157.8,193.2,158,193.2L158,193.2z"/>
		</g>
		<g>
			<path fill="#1D1D1B" d="M184.3,204.1c-1.6-4.3-2.7-8.5-3.6-13c-0.5-2.6-1.1-8.8-4-10.1c-0.2-0.1-0.5,0.1-0.4,0.4
				c2,4.3,3.2,8.4,4.2,13.1c0.5,2.4,1,8.5,3.6,9.8C184.2,204.2,184.3,204.2,184.3,204.1L184.3,204.1z"/>
		</g>
		<g>
			<path fill="#1D1D1B" d="M100.6,185.7c1.6,5,6.5,7.5,10.9,9.7c6.9,3.3,11.3,10.6,18.4,13.4c0.4,0.2,0.7-0.5,0.4-0.7
				c-5.1-4-10-9-15.5-12.3c-5.4-3.2-10.4-4.5-13.9-10.3C100.9,185.4,100.6,185.5,100.6,185.7L100.6,185.7z"/>
		</g>
		<g>
			<path fill="#1D1D1B" d="M163.8,187.5c-10.6,14.1-35.7,9.5-38.8,30.7c-0.1,0.5,0.6,0.7,0.8,0.2c2.2-5.7,3.8-10.5,9-14.1
				c3.5-2.5,7.9-3.7,11.9-5.3c6.8-2.7,13.8-4.6,17.4-11.3C164.3,187.4,164,187.3,163.8,187.5L163.8,187.5z"/>
		</g>
		<g>
			<path fill="#1D1D1B" d="M99.4,196.1c5.8,5.1,11.6,10.4,17.3,15.6c3.7,3.3,7.5,7.5,11.9,9.9c0.9,0.5,1.7-0.9,0.8-1.4
				c-4.3-2.3-8-6.4-11.6-9.5c-5.9-5.1-11.6-10.3-17.6-15.4C99.7,194.8,98.8,195.6,99.4,196.1L99.4,196.1z"/>
		</g>
		<g>
			<path fill="#1D1D1B" d="M129,221.6c3.2,1.7,14.4-8.1,16.8-9.8c6.9-4.8,14.7-10,20.9-15.7c0.6-0.6-0.3-1.5-0.9-0.9
				c-5.3,4.9-12.1,9.4-17.9,13.7c-3.8,2.8-7.8,5.4-11.7,8c-1.8,1.2-4.7,3.7-6.9,4C128.9,220.9,128.6,221.4,129,221.6L129,221.6z"/>
		</g>
		<g>
			<path fill="#1D1D1B" d="M92.9,200.6c11.7,11.2,22.4,21.2,36.6,29.4c0.7,0.4,1.3-0.7,0.6-1.1c-13.9-8.1-24.8-18.2-36.3-29.2
				C93.2,199.2,92.3,200,92.9,200.6L92.9,200.6z"/>
		</g>
		<g>
			<path fill="#1D1D1B" d="M130.1,230c9.7-2.6,18.6-10.1,26.6-16.1c5.3-4,12.1-8.1,16.2-13.4c0.3-0.5-0.4-0.9-0.8-0.6
				c-12.5,11.5-27.1,22-42.2,29.8C129.7,229.7,129.9,230,130.1,230L130.1,230z"/>
		</g>
		<g>
			<path fill="#1D1D1B" d="M86.8,185.5c-31.9,12.5-63.9,39.7-75.2,72.6c-5.7,16.5-4,34,0.3,50.6c3.7,14,10.6,34,24,41.7
				c0.4,0.2,0.9-0.3,0.5-0.7C14,325.4,3.1,288.7,13.8,256.5c11.5-34.7,44-52.8,73.1-70.7C87,185.7,86.9,185.5,86.8,185.5L86.8,185.5
				z"/>
		</g>
		<g>
			<path fill="#1D1D1B" d="M37.7,338.3c1.2-13.3-0.5-27,0.5-40.4c1.6-21.5,6.6-40.7,15-60.5c0.2-0.6-0.5-1.1-0.9-0.5
				c-10.5,17.5-12.7,37.9-15.3,57.7c-1,7.6-1,15.3-1,23c0,6.7-0.6,14.3,1.2,20.8C37.3,338.6,37.7,338.5,37.7,338.3L37.7,338.3z"/>
		</g>
		<g>
			<path fill="#1D1D1B" d="M180.4,192c26.9,18.8,54.2,37.1,63.2,70.8c4.2,15.7,2.1,31.9-2.4,47.2c-4.7,16-12.4,28.4-23.4,40.6
				c-0.3,0.4,0.1,0.9,0.5,0.7c12.3-6.8,18.8-24.1,23.2-36.6c5.4-15.5,7.7-31.7,4.7-47.9c-6-32.8-36.2-61.7-65.6-75.1
				C180.4,191.7,180.2,191.9,180.4,192L180.4,192z"/>
		</g>
		<g>
			<path fill="#1D1D1B" d="M217.9,338.3c1.8-6.5,1.3-14.1,1.4-20.8c0.1-7.6,0-15.3-0.8-23c-2.1-19.7-4.9-40.4-15.3-57.7
				c-0.3-0.6-1.1-0.1-0.9,0.5c3.9,9.2,7.8,18,10.1,27.8c2.4,10.1,3.6,20.6,4.7,31c1.5,14-1,28.2,0.3,42.1
				C217.4,338.5,217.8,338.6,217.9,338.3L217.9,338.3z"/>
		</g>
		<g>
			<path fill="#1D1D1B" d="M84.5,100.2c10.4,0.1,20.9,0.4,31.4,0.3c0.6,0,0.7-0.9,0.1-1c-4.8-1-9.9-0.5-14.8-0.7
				c-5.4-0.3-11.7-1.3-16.9,0.6C83.9,99.5,83.9,100.2,84.5,100.2L84.5,100.2z"/>
		</g>
		<path opacity="0.2" fill="#FFFFFF" d="M188.6,149c-1,7.2-8.6,21.7-17,25.9c-2.8,1.4-4.7,2.3-7.2,4.1c-1.3,0.9-3,2.4-1,1.8
			c1.7-0.5,3.1-1.1,4.6-1.8c2.2-1,4.3-2.1,6.5-3.3c3.2-1.8,6.9-6.1,8.8-9.3c4-6.8,7-12.4,6.9-20.8
			C190.2,144.1,188.7,147.9,188.6,149z"/>
		<path opacity="0.2" fill="#FFFFFF" d="M190.6,111.1c-0.4-1.2-1,1.6-0.9,2.5c0.7,4,0.2,7.1,0.2,11.2c-0.1,4.2,0.4,8.3-0.3,12.5
			c-0.3,1.9,1.5-0.6,1.7-2c0.6-4.3,0.2-7.1,0.3-11.4C191.6,119.7,192,115.1,190.6,111.1z"/>
		<path opacity="0.2" fill="#FFFFFF" d="M233.4,251.5c-0.5-1.3-5.1-5.6-4.6-4.5c5,11.4,9.4,23.9,8.7,36.6
			c-0.3,6.2-0.3,12.4-1.5,19.2c-1,6.2-1.5,10.7-4.3,17.4c-0.8,1.9,3.4-2.7,3.8-4.2c1.9-7,5.5-8.4,4.7-34.7
			C239.8,268.6,237.9,262.8,233.4,251.5z"/>
		<path opacity="0.2" fill="#FFFFFF" d="M205.8,256.1c-1-4.2-1.7-8.2-3.5-12.1c-2.7-6.2-6.4-5.6-5.5-4.7c2.1,1.9,2.7,5.1,3.7,7.7
			c1.5,4,2.1,7.8,2.9,12c2.8,14.1,2.6,18.3,3.7,27.5c0.2,1.5,2-1.9,2-6.3C209.2,270.4,208.8,269,205.8,256.1z"/>
	</g>
</g>
</svg>
