<?xml version="1.0" encoding="utf-8"?>
<!-- Generator: Adobe Illustrator 18.1.0, SVG Export Plug-In . SVG Version: 6.00 Build 0)  -->
<svg version="1.1" id="Capa_1" xmlns="http://www.w3.org/2000/svg" xmlns:xlink="http://www.w3.org/1999/xlink" x="0px" y="0px"
	 viewBox="0 0 253.3 281.1" enable-background="new 0 0 253.3 281.1" xml:space="preserve">
<g>
	<defs>
		<rect id="SVGID_5_" x="0.7" width="253.3" height="281.1"/>
	</defs>
	<clipPath id="SVGID_2_">
		<use xlink:href="#SVGID_5_"  overflow="visible"/>
	</clipPath>
	<rect x="0.7" clip-path="url(#SVGID_2_)" fill="#FFEE58" stroke="#000000" stroke-miterlimit="10" width="253.3" height="281.1"/>
	<polygon clip-path="url(#SVGID_2_)" fill="#FDD835" points="80,0 0.3,0 0.3,281 180.6,281 	"/>
	<g clip-path="url(#SVGID_2_)">
		<g>
			<g>
				<path fill="#424242" d="M174.7,272.9c-0.1,0.3-0.2,0.6-0.1,0.9c0,0.3,0.1,0.5,0.1,0.8c-0.6,1.5-0.7,2.8-0.5,4.5
					c-2.4,2.4-2.4,8.1-2,10.7c0.1,0.7,0.6,1.2,1.2,1.4c-1.1,1.8-1.4,3.2-1,5.5c0,0.1,0.1,0.2,0.1,0.3c0,0.1,0.1,0.2,0.1,0.3
					c0,0,0,0.1,0.1,0.1c0.1,0.3,0.3,0.6,0.7,0.8c0.2,0.1,0.4,0.2,0.5,0.3c0.1,0.1,0.2,0.1,0.3,0.2c1.8,1.1,3.6,2.1,5.4,3.1
					c1.1,1.9,3.4,3.6,5.5,3.9c0.3,0.2,0.7,0.4,1.1,0.5c0.6,0.2,1.2,0.2,1.8,0.2c1.2,0.1,2.2-0.9,1.9-2c1.8-0.7,3.3-1.6,5-2.7
					c0.2-0.1,0.3-0.3,0.4-0.5c0.4-0.1,0.7-0.2,1.1-0.3c0.3-0.1,0.5-0.3,0.7-0.4c0.1,0,0.3-0.1,0.4-0.1c0.5-0.1,1-0.2,1.5-0.3
					c0.5-0.1,0.8-0.4,1-0.7c0.3-0.2,0.5-0.6,0.5-0.9c0.8-0.3,1.5-0.7,2.1-1.3c0.1,0,0.2,0,0.3-0.1c1.6-0.7,2.7-1.5,3.8-2.7
					c0.2-0.2,0.3-0.5,0.4-0.7c0.6-0.7,0.5-2-0.7-2.5c0-0.1-0.1-0.2-0.1-0.3c-5.4-9-15.2-16.3-25.9-18.6c0,0,0,0-0.1,0c0,0,0,0,0,0
					c-0.1,0-0.2-0.1-0.3-0.1c-0.4-0.1-0.6,0-0.8,0.1c-0.4-0.6-1.2-0.9-1.9-0.8C176,271.2,174.6,271.7,174.7,272.9z"/>
				<g>
					<path fill="#1C1C1B" d="M172.2,297.8c1.6-3.5,1.2-7.6,1.7-11.4c0.6-4.7,2.2-9.7,1.8-14.5c0-0.4-0.6-0.4-0.8-0.2
						c-2.3,3-2.2,7.2-2.6,10.8c-0.6,5-1.1,9.9-0.9,15C171.4,298,172,298.2,172.2,297.8L172.2,297.8z"/>
				</g>
			</g>
		</g>
		<path fill="#8C583C" d="M224.2,140.9c-2.6-3.7-5.6-14.6-6.1-19.1c-0.7-6.1-11.5-33.8-14.5-38.9c-6.6-11.3-22.1-31-30.6-37.4
			c-9-6.7-10.9-10-43.3-13.6C106.9,29.4,86.8,47,86.4,48.3c-0.9-0.5-24.2-6.8-49.7,32.6c-8,12.4-9,32.6-9,34.9
			c-0.6,3.7,1.5,31.4,3.7,41.9c6.4,30.3,26.8,47.2,28.2,49.7c2.1,3.8,4.9,9.2,7.7,13.1c0.9,1.3,10.1,14.1,10.8,14.7
			c5.4,4.5,8.3,7.6,13.8,8.4c3.4,0.5,75.3-1.9,75.3-1.9c0.8,0.8,7.6,7.3,7.8,8.4c0.5,4-14.5,8.5-15.5,14.1c-0.8,4.3,5.7,8.4,7.2,9.6
			c0.9,0.7,3.8,4.4,3.8,5.6c-0.3,5.9-8,7.6-8.1,10.6c-0.3,8.2,9.6,11.1,11.1,16.6c0.6,2.2-6.5,8.1-4.2,10.5
			c7.6,8.2-2.9,19.2,9.8,8.6c6.1-5.1,4.6-1.2,6.2-7.6c0.6-2.4-1.8-6.4-2.4-8.4c-0.8-2.8,1.5-5.7,3.3-6.8c5.7-3.6,16.8-13.6,15.2-18
			c-0.2-2.7-1.9-4.4-1.9-7.1c0-2-1.4-10.2,0.2-14.2c1.5-3.6,7.5-6.2,8.7-10.7c2.6-8.9-7.2-24.2-8.9-29.7c-1.7-5.3,0.1-12.5,2-14.9
			c4.6-5.6,17.5-12.4,20.7-17.1c7.1-10.7,8.3-9.5,8.8-22.5C231.3,155.9,231.5,151.4,224.2,140.9z"/>
		<path opacity="0.5" fill="#7C4832" d="M179.3,237.7c7.2,18.5-11.7,23.2-11.8,27.1c-0.1,6,6.4,11.8,6.7,14.5
			c1.6,4.4-5.4,8.1-5.6,11c-0.7,10,14.9,12.1,5.4,24.9c-3.1,4.2,5.1,10,2.4,12.7c-8.2,8.3,2.7,0.4-7.5-11.3
			c-2.2-2.5,4.3-4.1,4.5-10.8c0-1.1-10.9-10.6-11-14.4c-0.1-5,7.1-6.5,7.4-12.4c0.1-1.2-2.3-4.5-3.3-5.3c-1.4-1.2-7.9-5.6-7.1-9.9
			c1-5.6,15.7-10.4,15.2-14.4c-0.1-1.1-5.9-7.3-6.7-8.1c0,0-72,2.4-75.3,1.9c-5.5-0.8-8.4-4-13.8-8.4c-0.6-0.5-9.9-13.4-10.8-14.7
			c-2.7-3.9-5.6-9.3-7.7-13.1c-1.4-2.5-19.3-10.7-28.2-49.7c-5.4-23.6-2.4-53.8-1.7-57.5c0,0,10.1,68.8,67.3,110.4
			C116.9,224.2,170.8,215.9,179.3,237.7z"/>
		<path fill="#AE191B" d="M174,246.6c-0.5-0.2-0.9-0.4-1.4-0.4c-0.1-0.2-0.3-0.3-0.4-0.5c-0.1-0.1-0.2-0.1-0.2-0.1
			c-4-4.4-11.8-9.5-15.6-10.7c-0.9-0.3-1.9-0.4-2.2-1.5c0-0.6-0.5-1-0.8-1.4c-1.4-1.8-1.2-1.1-3.3-2.1c-2.3-1-1.8-0.3-3.2,2.6
			c-1.8,0.7-5.5,2.9-7.4,3.6c-4.6,1.7-8.8,2.1-13.4,2c-4.5-0.1-12.8-3-12.4-5c-0.2-0.5-0.6-0.8-1.3-0.8c-2.2,0.2-4.7,2.7-6.8,3.3
			c-5.6,1.7-10.8,2.7-15.6,5.5c-3.2,1.9-32,26.9-29.1,27.5c-0.7-0.5,11.1,9.1,14.2,12.1c3.3,3.1,8.9,7,11.8,10.1
			c0.1,0.1-0.4,0.9-0.4,1c-1.9,5.1-1,8,0.6,10.5c2.1,3.4,4.7,4,6.1,4.8c-0.2,1.1,0,2.8-0.2,3.8c-0.5,3.5-1,6.7-2.7,11.4
			c-0.8,2.1-3.1,8.4-3.1,8.4s4.6,2.8,14.9,6.7c0.9,0.3,7.3,1.5,9.7,1.7c1.6,0.1,7.4-0.4,7.9-0.6c1.8-0.6,0.5-6.9,3.2-16.8
			c2.3-8.4,9.8-17.3,10.3-17.6c1.7-1.3,2-2.6,3.6-4c1.5-1.2,10-6.9,15-8.6c0.3-0.1,5.2-1.4,5.6-1.7c1.6-0.5,4.5-0.4,5.9-1.4
			c0.3,0,2.3-2.1,3.1-3c1.2-1.3,3-2.3,3.2-4.1c0.1-1.3,0.7-2.9,0-4.1c-0.7-1.2-1.7-1.7-2.7-2.6c-0.1-0.1-0.3-0.2-0.5-0.3
			c0,0,0.2-0.5,0.2-0.5c-3-2.6-3.8-3.2-6-6c-2.1-2.7-2.7-4.1,0.3-7.3c2.2-2.2,3-2.6,5.4-3.7c0.7-0.2,2.4-1.2,3.1-1.7
			c2.3-1.4,3.9-2.5,5-5C174.8,249.4,175.1,247.2,174,246.6z"/>
		<path fill="#99141B" d="M174.1,246.1c-0.6-1.5-2.9-2.5-4.3-3c-4.9-1.7-7.8-6-12.2-8.4c-1.8-0.9,3.9,11.3,8.5,12.9
			c6,2.1-4.3,6.3-5.8,7.1c-2,1.1-2.9,2.3-4,4.3c-1.5,2.7-2.1,7.5-0.5,10.2c3,5.1,10.8,7.3,8.3,13.5c-0.2,0.1-0.5,0.3-0.7,0.6
			c-2,2.8-7,3.2-10,4.5c-3.4,1.4-6.5,3.4-9.9,4.8c-2.2,0.9-4.5,1.8-6.4,3.3c-2.8,2-4.9,5-7.6,7.3c-3.9,3.4-7.1,10-8.6,14.9
			c-0.8,2.8-1.5,5.6-2.1,8.4c-0.7,3.3,2.2,12.8,2.6,10.9c0.5-2.6,0.1-5.3,0.2-7.9c0.2-3.5,1.6-7.1,2.5-10.5
			c1.8-6.8,6.4-11.6,11-16.4c2.2-2.4,3.9-3.6,6.7-5.4c2.7-1.8,3.7-2.5,6.4-4c3.2-1.7,14.3-4.1,14.3-4.1c3.2-2.4,8.2-5.6,7.5-10.4
			c-0.4-2.7-2.9-4.1-4.7-5.8c-8-7.2-8.4-12.1,6.7-19C175.6,252.2,175.4,249.2,174.1,246.1z"/>
		<path fill="#99141B" d="M116.1,236.7c-3.3-1.1-2.8-1.5-2.6-2.7c-0.2-0.5-0.6-1-1.3-0.8c-7.3,2.2-15.9,4.9-22.4,8.8
			c-3.2,1.9-32,26.9-29.1,27.5c-0.7-0.5,11.1,9.1,14.2,12.1c3.3,3.1,8.9,7,11.8,10.1c0.1,0.1-0.4,0.9-0.4,1c-1.9,5.1-1,8,0.6,10.5
			c2.1,3.4,4.7,4,6.1,4.8c-0.2,1.1,0,2.8-0.2,3.8c-0.5,3.5-1,6.7-2.7,11.4c-0.8,2.1-3.1,8.4-3.1,8.4l22.9,8.1c0,0,1.2-21.4-0.7-32.6
			c-0.1-0.7-15.2,3.1-13.6-9.9C99.5,265.3,116.1,236.7,116.1,236.7z"/>
		<path fill="#CA8C63" d="M136.4,338.9c-0.5-0.4-1.9-0.5-2.3-0.4c-1.1,0.2-5.5,3.7-7.3,2.3c0.1-0.5,0.4-3.2,0.4-3.7
			c-0.1-1.4-1.2-1.5-2.2-0.8c-0.1,0.1-0.3,0.2-0.5,0.4c-5.8,2.5-12.4,3-19,2.3c-0.1,0-0.1-0.1-0.2-0.1c-4.1-1-8-2.7-12-4.4
			c-3.4-1.9-6.8-4.1-10.1-5.4c-0.8-0.3-1.6-0.7-2.4-1.1c-2.2-1.7-4.2-3.5-6.3-5.4c-0.6-1.2-3.4-2.6-4.1-8.8
			c-0.7-6.7,2.1-13.6,6.4-18.5c0.2-0.2,0.2-0.3,0.3-0.5c0.8-1,1.7-2,2.5-2.9c0.1-0.1,0.3-0.4,0.4-0.7c0.2-0.2,0.4-0.3,0.5-0.5
			c0.9-0.8,2.7-3,1.4-4.2c-2.5-2.3-17.4-14.9-18-14.9c0-0.1,0-0.1-0.1-0.2c-0.1-1.9-1.9-0.4-3,1c-0.1,0.1-0.3,0.1-0.4,0.2
			c-0.3,0.2-0.5,0.3-0.7,0.4c-0.1,0.1-0.2,0.1-0.2,0.2c-0.7,0.5-1.5,2.7-1.9,3.5c0,0.1-0.1,0.2-0.1,0.2c-0.4,0.5-0.8,1.1-1.2,1.6
			c-3.7,4.3-7.3,8.5-9.9,14c-1.9,4.1-3.2,8.1-2.2,11.7c-0.2,1.8-0.7,3.6-0.6,5.6c0.1,2.4,0.1,4.9,0.5,7.2c0.1,0.3,0.2,0.5,0.4,0.7
			c1.9,8.9,7.8,17.3,15.9,23.3c1.1,3.5,4.8,4.8,8,6.7c5.6,3.3,12.2,5.7,18.3,8c8.7,3.2,34.2,6.1,35.9,5.9c1.4-0.2,4.7-0.8,5.2-1.1
			c0,0,0,0,0,0c6.9-2.9,6-5.5,6.1-6.4c1.5-1.3,1.4-3.7,2.1-6.3c0.5-1.7,1.3-3.9,0.1-5.4C135.7,341.7,138.1,340.3,136.4,338.9z"/>
		<path fill="#B77656" d="M130,359.1c0,0,0,0.6-0.1,0.6c-0.5,0.3-3.8,1-5.3,1.2c-1.7,0.2-11.2-0.2-36.8-5.6
			c-6.5-1.4-12.9-4.8-18.7-8.1c-3.3-1.9-7.5-5-10.2-7.5c-9.7-8.9-12.2-14-14.1-22.8c-0.2-0.1-0.3-0.3-0.4-0.7
			c-0.5-2.3-0.4-4.8-0.5-7.1c-0.1-1.9,0.4-3.7,0.6-5.5c-1-3.6,0.3-7.4,2.2-11.5c2.6-5.4,6.3-9.5,10.1-13.8c0.4-0.5,0.8-1.1,1.2-1.6
			c0-0.1,0.1-0.2,0.1-0.2c0.4-0.8,1.2-3,2-3.5c0.1,0,0.2-0.1,0.2-0.2c0.2-0.1,0.4-0.3,0.7-0.4c0.1-0.1,0.3-0.2,0.4-0.2
			c1.1-1.4,3-2.8,3.1-1c0,0.1,0,0.1,0.1,0.2c0,0-34.2,33.2-7.9,59.4C94.9,369,137,356.2,130,359.1z"/>
		<path fill="#CA8C63" d="M225.7,299.9c0-0.2-0.1-0.3-0.1-0.4c-0.1-0.3-0.6-3.3-2.8-7.5c-3.4-6.5-11.5-17-19.1-24.7
			c-1.7-1.8-4.7-5.7-4.8-0.7c0,1.2-0.3,5.1,0.4,9.5c0.3,2,2.4,8.1,1.9,10.2c-0.2,0.8-0.7,1.5-1.1,2.3c-1.1,2.4-4.1,5.8-6.4,7.6
			c-0.8,0.7,6.4,3,8.9,13.4c0.1,1.2,0.2,2.4,0.3,3.6c-0.1,0.3-0.2,4-0.3,4.2c-0.3,1.9-0.7,2.4-1.6,4.7c-1.6,2-3,4.2-4.8,6
			c-1.1,1.1-6.1,6.2-11.5,7.4c-6.2,1.5-6.8-0.2-8.8-0.4c-2.5-0.3-3.4,1.4-2.7,2.8c0.3,0.6,1.3,1.8,1.3,2.6c-2,0.6-4.1,0.7-6.8,0.3
			c-1.8-0.3-3,1.3-2.1,2.7c0.4,0.7,0.7,0.4,0.8,3.4c0.1,1.8,1.3,2.2,2.6,3.6c-0.2,0.5,0.3,1.8,0.5,2.3c1.2,2.1,1.4,0.9,3.8,4.6
			c1.1,2,4,2.2,6.4,2.2c0.1,0,0.1,0.1,0.1,0.1c5.1,0.7,10.3-3.3,14.8-6.8c3.6-1.2,14-7.7,15.4-9.5c0.4-0.1,0.8-0.4,1.3-1
			c0.4-0.5,8.4-5.8,12.3-16.6C226.7,317.4,227.6,308.4,225.7,299.9z"/>
		<path fill="#CA8C63" d="M207.9,147.5c-0.8-3.4-6.5-3-13.3-3.7c-1.5-0.2-3.4-1.6-4.6-2c-7.7-2.3-26.8-17.9-45-37.2
			c-0.3-0.3-7-8.3-10.8-10.4c-1.5-1-3-1.9-4.6-2.7c-0.4-0.2-0.8-0.4-1.3-0.6c0,0,0,0,0,0l0,0c-0.6-0.3-1.2-0.6-1.8-0.8
			c-1.1-0.4-2-0.6-2.8-0.5c-1-0.2-2.1-0.3-3.1-0.2c-6,0.3-13.8,10.2-15.8,7.2c-0.3-1.3-1.5-2.3-4.4-3.4c-2.3-0.9-7.7-2.6-10.1-1.5
			c-4.8,2-5.5-0.1-12.5,12.7c-3.5,6.4-7,13.7-11.9,22.3c-2,3.5-6.8,10.7-11.9,11.9c-3.9,0.9-8.1-4.4-10.3-1.7
			c-8.3,10.4-3.2,19.7,5.1,22.5c1.3,0.7,7.3,0.9,7.6-0.4c1.3,1.7,1.2,5.5,1.8,7.5c1.4,4.9,6.1,15.7,6.1,15.7
			c3.9,9.7,20.9,33.4,46.6,38.6c11.2,2.3,14.3,4.4,25.5,2.1c11-2.3,22.2-6.1,29.3-13.1c8-7.9,10.3-10,15.5-20
			c2.6-5.1,6.9-13.9,9.3-19.1c0.3-0.5,1.7-6.7,2.9-8.6c3,1,6.1,0.2,8.2-1.4C206.7,156.8,208.7,151.1,207.9,147.5z"/>
		<path fill="#CA8C63" d="M146,229.6c0.5-1.4,0.5-2.6-0.4-3.2c-0.1-3.8,0.5-7.9-4.1-9.4c-4-1.4-8.1-1.3-12.3-1.1
			c-2.6,0.1-7.5-0.3-9.8,0.9c-3.9,2.2-4.4,7.8-4.9,11.7c-0.1,0.9-0.2,1.8-0.3,2.6c-0.2,1.2-1.9,1.7-1.9,3c0,1.1,1.2,1,2.3,0.7
			c0.1,0.8,0.6,1.4,1.5,1.6c3.5,0.6,6.6,1.9,10.1,2.6c3.4,0.7,7.3-0.5,10.6-1.3c1.6-0.4,3-1.1,4.2-2.1c0.9-0.4,1.8-0.9,2.9-1.5
			c1.4-0.7,2.7-2.7,2.2-4.2C146.1,229.7,146.1,229.7,146,229.6z"/>
		<path fill="#A03C50" d="M157.1,169.3c-5.3-0.2-20,5.9-31.6,7.2c-16.6,1.9-34,0.9-33.9,2c0.9,8,4.7,13.5,7.5,17.5
			c4.3,6,10.7,9.2,17.5,11.3c5.6,1.8,24,3.4,36.6-11.3c2.2-2.5,3.8-9.6,4.2-12.3C158,180.3,158.5,169.4,157.1,169.3z"/>
		<path fill="#CB6272" d="M134.4,193.2c-7.7,1.1-15.5,4.5-17.7,12.3c-0.2,0.5-0.2,1.2,0.2,1.4c4.1,1.7,16.4,0.6,19.7-0.1
			c9.6-2,15.9-10,15.9-10S143.3,191.9,134.4,193.2z"/>
		<path fill="#1D1D1B" d="M92.9,142.3c-2,0.3-3.5,0.4-5,2.1c-2.2,2.7-2,6.7,1.6,8.1c2.8,1.1,7.4,0.3,8.7-2.7c1.1-3-1.6-6.7-4.5-7.5
			c-1.1-0.3-2.5-0.1-3.7,0.4"/>
		<g>
			<path fill="#1D1D1B" d="M83,128.3c1.8,0,3.4-1.2,4.9-2c2.1-1.1,4.2-2.4,6.4-3.4c0.9-0.4,0.3-1.7-0.6-1.6
				c-2.6,0.5-4.8,1.1-7.1,2.4c-1.5,0.9-3.4,2.2-4,3.9C82.5,127.9,82.7,128.3,83,128.3L83,128.3z"/>
		</g>
		<path fill="#1D1D1B" d="M158.4,143.7c-2,0.3-3.5,0.4-5,2.1c-2.2,2.7-2,6.7,1.6,8.1c2.8,1.1,7.4,0.3,8.7-2.7c1.1-3-1.6-6.7-4.5-7.5
			c-1.1-0.3-2.5-0.1-3.7,0.4"/>
		<path fill="#FFFFFF" d="M159.3,145.1c-1.3,0.3-3.9,2-1.6,3.7c3.8,2.8,5.7-2.8,1.9-3.8"/>
		<path fill="#FFFFFF" d="M94.4,144.4c-1.3,0.3-3.9,2-1.6,3.7c3.8,2.8,5.7-2.8,1.9-3.8"/>
		<g>
			<path fill="#1D1D1B" d="M165.6,131.1c-0.4-1.8-2.2-3.3-3.6-4.3c-2.2-1.6-4.3-2.4-6.8-3.2c-0.9-0.3-1.5,1-0.7,1.5
				c2,1.3,4,2.8,6,4.1c1.4,0.9,2.9,2.2,4.6,2.5C165.5,131.7,165.7,131.3,165.6,131.1L165.6,131.1z"/>
		</g>
		<g>
			<path fill="#1D1D1B" d="M207,144.9c-0.1,4,1,7-1.1,10.9c-1.4,2.6-3.8,4-6.5,5c-2.2,0.8-4.4,0.4-6.6,0.8c-0.2,0-0.3,0.4-0.1,0.5
				c4,2.1,10.6-0.7,13.1-4.2c2.4-3.3,4.3-9.6,1.3-13.1C207.2,144.7,207,144.8,207,144.9L207,144.9z"/>
		</g>
		<g>
			<path fill="#1D1D1B" d="M201.4,147.8c1.6,2.1,1.5,4.6-0.5,6.4c-0.4,0.3,0.1,0.9,0.5,0.7c2.8-1.3,2.9-5.9,0.4-7.6
				C201.5,147.1,201.2,147.5,201.4,147.8L201.4,147.8z"/>
		</g>
		<g>
			<path fill="#1D1D1B" d="M46,136c8.8,7.5,15.1-0.5,19.5-8.8c4.5-8.5,9.8-16.6,14.7-24.9C87,90.8,95.8,91,106.1,97.8
				c0.8,0.5,1.7-0.6,1.1-1.3c-4.9-5.6-15.6-8.6-22-3.5c-6.4,5.1-9.8,14-13.9,20.9c-4.7,7.7-12.3,30.4-24.7,21.6
				C46.1,135.2,45.6,135.8,46,136L46,136z"/>
		</g>
		<g>
			<path fill="#1D1D1B" d="M106.6,98.3c4.8-4.9,9.3-7.6,16.3-7.7c7.9-0.2,13.4,6.5,18.7,11.5c7.3,6.9,13.5,14.9,20.9,21.8
				c13.6,12.6,32.5,25.9,52.2,21.8c0.4-0.1,0.3-0.6-0.1-0.7c-17.3-1.4-30.9-5.5-44.2-16.8c-9.3-7.9-17.2-16.9-25.7-25.6
				c-6.2-6.4-12.5-13.1-21.8-13.7c-6.8-0.5-14.1,2.9-16.8,9.2C106.1,98.3,106.5,98.5,106.6,98.3L106.6,98.3z"/>
		</g>
		<g>
			<path fill="#1D1D1B" d="M91.6,178.6c11.2,0.3,22.2,0,33.4-1.3c11.2-1.3,21.5-5.1,32.5-7.2c0.8-0.2,0.5-1.4-0.3-1.3
				c-10,1.5-19.4,5.4-29.5,6.8c-7.5,1.1-15.2,1.4-22.7,2c-4.5,0.3-9-0.7-13.4,0.5C91.3,178.2,91.4,178.6,91.6,178.6L91.6,178.6z"/>
		</g>
		<g>
			<path fill="#1D1D1B" d="M91.2,178.8c3.2,19.6,17.9,30.6,37.6,29.9c8.8-0.3,17-4.3,23.1-10.5c7.1-7.2,6.9-19.5,6-28.7
				c0-0.2-0.3-0.2-0.3,0c-0.9,9.2,0.2,17.9-5,26.2c-5.5,8.6-17,11.7-26.5,12c-18.8,0.7-30.2-12.1-34.1-29.1
				C91.9,178,91.1,178.2,91.2,178.8L91.2,178.8z"/>
		</g>
		<g>
			<path fill="#1D1D1B" d="M119.9,158.1c2.3-1.6,4-3.5,7-3.5c3.8,0,5.9,3.1,8.5,5.1c0.4,0.3,0.8-0.2,0.6-0.6
				c-1.3-2.9-4.9-5.4-8.1-5.7c-3.6-0.3-6.4,1.4-8.3,4.4C119.5,158,119.7,158.2,119.9,158.1L119.9,158.1z"/>
		</g>
		<g>
			<path fill="#1D1D1B" d="M152.8,196.4c-9.7-8.1-35.4-4.6-36.6,10.4c0,0.6,0.9,0.6,0.9,0c2.4-15,25.1-14.4,35.4-10
				C152.8,196.9,153,196.6,152.8,196.4L152.8,196.4z"/>
		</g>
		<g>
			<path fill="#1D1D1B" d="M146.5,221.3c-1.4,1.2-0.9,3.7-0.7,5.2c0.2,1.7,0.5,4.4,1.9,5.6c0.2,0.2,0.6,0,0.7-0.2
				c0.3-1.5-0.5-3.1-0.8-4.5c-0.2-1.1-0.4-2.2-0.5-3.3c-0.1-0.9,0.1-1.8-0.2-2.6C146.9,221.2,146.7,221.1,146.5,221.3L146.5,221.3z"
				/>
		</g>
		<g>
			<path fill="#1D1D1B" d="M114.5,222c-0.2,0.6,0,1.2,0,1.9c0,1.4-0.3,2.8-0.6,4.1c-0.5,2.1-1.3,4.1-2.2,6.1
				c-0.4,0.9,0.9,1.4,1.5,0.7c1.5-2,2-4.8,2.4-7.2c0.2-1.5,0.6-4.7-0.9-5.7C114.7,221.9,114.6,221.9,114.5,222L114.5,222z"/>
		</g>
		<g>
			<path fill="#1D1D1B" d="M112.2,235c11.2,6.6,26.4,5.1,36.4-3c0.9-0.7-0.3-2-1.2-1.3c-10.1,8.2-23.1,7.9-34.6,3
				C112.1,233.4,111.5,234.6,112.2,235L112.2,235z"/>
		</g>
		<g>
			<path fill="#1D1D1B" d="M113.4,232.4c-2.9-0.5-6.4,1.3-8.5,3.2c-0.7,0.6,0.3,1.7,1,1c2.1-2,4.8-2.9,7.6-3.3
				C114,233.2,113.8,232.4,113.4,232.4L113.4,232.4z"/>
		</g>
		<g>
			<path fill="#1D1D1B" d="M104.8,236.1c3.5,8.2,14.2,10.8,22.1,11c10.8,0.2,21.5-3.4,28-12.3c0.4-0.5-0.5-1.1-0.9-0.5
				c-10.4,14-38.2,17.7-48.5,1.4C105.2,235.3,104.6,235.7,104.8,236.1L104.8,236.1z"/>
		</g>
		<g>
			<path fill="#1D1D1B" d="M147.8,229.3c0.4,0.5,1,0.6,1.6,0.8c0.9,0.3,1.7,0.9,2.4,1.4c1,0.8,1.8,1.8,2.4,2.9
				c0.1,0.2,0.3,0.3,0.6,0.3c0.1,0,0.2-0.1,0.2-0.1c0.2-0.1,0.2-0.4,0.1-0.6c-0.7-1.2-1.5-2.2-2.5-3.1
				C151.5,230.1,149.2,228.5,147.8,229.3C147.8,229.3,147.8,229.3,147.8,229.3L147.8,229.3z"/>
		</g>
		<g>
			<path fill="#1D1D1B" d="M105.3,235.4c-6.4-0.3-15,4.7-19.9,8.4c-9,6.9-19,14.5-25.1,24.2c-0.4,0.7,0.6,1.3,1.1,0.7
				c5.2-7.6,11.9-13.1,19.1-18.8c6.9-5.5,15.5-12.9,24.9-13.5C105.8,236.3,105.9,235.5,105.3,235.4L105.3,235.4z"/>
		</g>
		<g>
			<path fill="#1D1D1B" d="M60.7,269.1c4.1,4.3,9.5,7.7,14,11.7c3.9,3.5,7.7,7.1,11.9,10.2c0.6,0.4,1.2-0.5,0.6-1
				c-4.6-3.4-8.7-7.4-12.9-11.2c-4-3.5-8.4-8.2-13.5-10.1C60.7,268.7,60.6,269,60.7,269.1L60.7,269.1z"/>
		</g>
		<g>
			<path fill="#1D1D1B" d="M93.5,269.6c-2.5,5.7-4.1,11.8-6.2,17.6c-1.2,3.4-3.4,7.6-2.7,11.4c1.2,6.1,5.7,9.3,11.8,9.7
				c0.8,0.1,0.8-1.1,0-1.2c-19.5-2.8-4.2-25.8-2.6-37.4C93.9,269.4,93.6,269.4,93.5,269.6L93.5,269.6z"/>
		</g>
		<g>
			<path fill="#1D1D1B" d="M61.8,270.1c-7.6,10-15.2,18.6-17.9,31.3c-2.1,9.8-0.7,21.6,5.5,29.7c15.4,19.9,41,28.5,65.5,29.5
				c0.4,0,0.4-0.6,0-0.6c-22.6-3.3-44.6-8.2-61-25.4c-9.5-10-11.1-22.8-8.3-35.8c2.3-11.2,10.6-19.3,16.9-28.2
				C62.9,270.1,62.1,269.6,61.8,270.1L61.8,270.1z"/>
		</g>
		<g>
			<path fill="#1D1D1B" d="M154.6,234.4c7,3.3,13.5,8.2,19,13.6c0.4,0.4,1.1-0.1,0.8-0.6c-2.7-4-7-6.8-11.1-9.2
				c-2.1-1.3-6-4.5-8.6-4.2C154.5,234,154.4,234.3,154.6,234.4L154.6,234.4z"/>
		</g>
		<g>
			<path fill="#1D1D1B" d="M88,48.4c-15.6-7.5-33.9,10.2-43.6,20.3C28.3,85.6,26,110.2,27.4,132.4c1.4,23.1,6.4,44,21,62.2
				c7.9,9.9,14.4,19.5,20.9,30.4c4.5,7.4,10.5,15.4,19.1,18c1.4,0.4,2-1.7,0.7-2.1c-16.5-5.1-22.8-28.5-33.1-40.9
				c-6.5-7.8-12.9-15.3-17.5-24.4c-4.7-9.3-6.3-20-7.9-30.1c-3.5-21.9-3.6-46.7,7.8-66.4c8.2-14.2,31.3-36.2,49.3-29.7
				C88.2,49.6,88.6,48.6,88,48.4L88,48.4z"/>
		</g>
		<g>
			<path fill="#1D1D1B" d="M88.7,49.3c10.4-13.6,31.8-16.2,47.7-15.4c9.5,0.5,19.1,3.4,27.6,7.6c7.8,3.8,12.7,8.2,18.2,14.8
				c5.7,6.9,11.9,12.8,16.8,20.4c5.6,8.6,9.5,18.6,13,28.2c3.2,8.7,5.5,17.8,8.1,26.7c1.4,4.7,2.4,9.1,6.2,12.4
				c0.4,0.4,1-0.2,0.6-0.6c-5.9-6.8-7.9-20.6-10.4-29.1c-2.7-9.3-5.9-18.1-9.8-26.9c-3.7-8.2-8.5-15.6-14.2-22.5
				c-5.5-6.6-11.3-14.2-17.9-19.7c-21.2-17.5-69.3-20.8-87.3,3.1C86.6,49.3,88,50.1,88.7,49.3L88.7,49.3z"/>
		</g>
		<g>
			<path fill="#1D1D1B" d="M225.1,142.5c11.7,17,4.9,46.9-13,56.8c-7.4,4.1-17.1,12.7-12.9,21.9c0.2,0.4,0.8,0.1,0.7-0.3
				c-3.7-13.1,9.6-16.8,17.1-23.4c5.3-4.6,9.1-9.8,11.7-16.3c4.4-10.9,5.3-30-3.4-38.9C225.3,142.3,225,142.4,225.1,142.5
				L225.1,142.5z"/>
		</g>
		<path fill="#1D1D1B" d="M199.4,269c0.1,0,0.1-0.1,0.1-0.2c-0.3-9.1,11.4-10.4,10.2-19.9c-1.4-11.4-7.6-19.3-10.6-30.2
			c-0.1-0.4-0.6-0.2-0.6,0.1c1.2,10.9,6.6,17.8,9.4,28.1c2.9,10.7-10.6,11-9.3,20.3c-0.8,4.4-0.3,8.7,1.2,13.2
			c4.2,12.3-13.8,18.5-17.3,26.1c-0.1-0.1-0.2-0.2-0.3-0.2c-1.5-0.7-3.3-1.1-4.9-1.6c-1-0.3-2.1-0.4-3.1,0c-0.1,0-0.2,0-0.3,0
			c-0.8-1.9-2.8-4.2-6.8-7.1c-2-1.1-2.6-2.6-3.3-3.9c-2.3-4.1,1.1-6.4,3.5-8.1c1.4-1,3-2.3,3.3-4.1c0.5-3.2-1.1-6.7-4-8.2
			c-2.5-2.4-5-4.5-6.2-8c-1.7-5.1,8.4-8.9,11.4-10.9c3.5-2.2,4.5-4.9,2.6-8.6c-0.1-0.3-0.6-0.1-0.5,0.2c3.1,8.9-11.9,9.7-14.6,16.4
			c-1.9,4.6,4.3,9.9,7.4,12.1c2.4,2.8,4.5,5.9,0.7,9.3c-1.8,1.7-3.6,2.7-5,4.8c-2,3.1,0.9,7,2.7,9.3c0,0,0,0,0.1,0
			c4.1,3.2,6.2,5.6,7,7.5c-0.3,1.5-1.3,2.9-1.1,4.6c0,0.2,0.1,0.3,0.2,0.5c-1.8,2-4.5,3.4-3,5.9c2,3.1,4.1,4.7,4.1,8.7
			c0,2.6-0.5,5-0.1,7.6c0.1,0.5,0.7,0.4,0.8,0c0.2,0,0.3-0.1,0.4-0.2c6.7-10.1,15.2-7.9,10.9-20.7c0.5-1.2,0.2-2.7-0.6-3.9
			c1.8-5.7,15.5-13.4,17.4-19.4c1-3.2,0.8-5.2-0.1-8.4C199.9,276.2,199.3,272.7,199.4,269z M178.2,306.9c0.6,0.2,1.8,0.4,2.2,0.8
			c0.5,0.5,0.4,1.8,0.4,2.5c0,1-0.5,1.4-1.5,1.3c-1.6-0.1-3.1-0.8-4.7-1.3c0-0.3,0.1-0.7,0.1-0.9c0.1-1,0.8-2,1-3
			C176.6,306.4,177.4,306.6,178.2,306.9z M179.2,324.2c-3.6,2.4-4.3,3.7-5.9,6.4c0.5-5.2,0.6-9.2-3-13.5c-1.7-2.1,0-3.7,1.7-5.6
			c0.5,0.3,1.1,0.5,1.6,0.5c2.8,0.1,6.3,2.6,9.1,1.3C183.9,316.8,185.1,320.2,179.2,324.2z"/>
		<g>
			<path fill="#1D1D1B" d="M77.8,56.8c-18.3,0.7-31,21.3-35.9,36.8c-0.1,0.3,0.4,0.5,0.5,0.2c6.2-17,17.4-31.8,35.4-36.5
				C78.1,57.2,78.1,56.7,77.8,56.8L77.8,56.8z"/>
		</g>
		<g>
			<path fill="#1D1D1B" d="M159,51.4c17.5,9.9,26.5,24.9,33.7,43.1c0.1,0.3,0.6,0.1,0.5-0.2c-5.8-17.8-16.1-35.6-34-43.2
				C159,51.1,158.9,51.3,159,51.4L159,51.4z"/>
		</g>
		<path opacity="0.3" fill="#FFFFFF" d="M227.4,169.1c0-0.9-0.1-1.7-0.1-2.2c0-0.1,0-0.1,0-0.2l0,0c0-0.1,0,0,0-0.1l0-0.1
			c0-0.1-0.3-0.2-0.3-0.1c-0.2,0.1-0.2,0.3-0.2,0.2c0,0,0,0.3,0,0.8c0,0.5,0,1.2-0.2,2.1c-0.1,0.9-0.3,2-0.7,3.2
			c-0.2,0.6-0.4,1.2-0.7,1.9c-0.3,0.7-0.6,1.4-0.9,2.1c-0.7,1.4-1.5,2.9-2.5,4.4c-1,1.5-2.1,3-3.4,4.5c-1.2,1.5-2.6,3-4.1,4.5
			c-0.7,0.7-1.5,1.5-2.2,2.2l-1.1,1.1l-0.3,0.3l-0.1,0.1l0,0l-0.1,0.2c0,0,0,0-0.1,0.1c-0.1,0.1-0.1,0.3-0.1,0.5
			c0,0.5,0.3,0.8,0.8,1c0.2,0.1,0.5,0,0.7-0.1c0.1,0,0.2-0.1,0.3-0.2l0.1-0.1c3.2-2.8,6.3-5.8,8.8-8.9c1.2-1.6,2.4-3.2,3.2-4.8
			c0.9-1.6,1.6-3.2,2.1-4.8c0.5-1.5,0.8-3,1-4.3C227.3,171.2,227.4,170,227.4,169.1z M211.6,194.8
			C211.6,194.8,211.6,194.8,211.6,194.8C211.6,194.9,211.6,194.9,211.6,194.8z"/>
		<g>
			<path fill="#1D1D1B" d="M99.2,76.8c-4.6-4.5-11.7-2.3-16.6,0.5c-0.2,0.1,0,0.5,0.2,0.3C87.9,74.9,94,73.3,99.2,76.8
				C99.2,76.9,99.2,76.8,99.2,76.8L99.2,76.8z"/>
		</g>
		<g>
			<path fill="#1D1D1B" d="M103.1,75.2c2.7-2.1,6-3.9,9.6-3.3c0.2,0,0.3-0.3,0.1-0.3c-3.6-0.9-7.3,1-9.8,3.5
				C102.9,75.1,103,75.2,103.1,75.2L103.1,75.2z"/>
		</g>
		<g>
			<path fill="#1D1D1B" d="M200.1,264.1c1.9,2.8,7,7.4,9.4,9.8c7.4,8,12,17.9,15.5,28.1c3.4,10,0.2,21.9-5.3,30.5
				c-6.3,9.9-18,14.9-27.1,21.6c-0.6,0.4,0.1,1.3,0.7,1c17.9-9.6,37.1-24.1,34.7-46.9c-1.8-17.5-15-32.9-27.2-44.3
				C200.4,263.7,200.1,264.1,200.1,264.1z"/>
		</g>
		<g>
			<path fill="#1D1D1B" d="M156.2,238.1c0.8,2.6,1.9,5.2,2.7,7.8c0.8,2.3,1.3,4.7,2.2,7c0.1,0.2,0.4,0.1,0.3-0.1
				c-0.7-4.8-2.4-10.6-5-14.8C156.4,237.8,156.2,237.9,156.2,238.1L156.2,238.1z"/>
		</g>
		<g>
			<path fill="#1D1D1B" d="M103.6,238.1c-2.2,4.6-3.4,9.9-3.6,15c0,0.2,0.3,0.3,0.4,0.1c1.2-5,1.6-10.1,3.6-14.9
				C104.1,238.1,103.7,237.9,103.6,238.1L103.6,238.1z"/>
		</g>
		<path fill="#DDAE8E" d="M182.6,176.8c-7.6,16.9-19.5,26.6-32.8,37.9c-0.5,0.4-0.1,1.2,0.5,0.9c14.3-6.7,29.3-21.9,32.8-38.7
			C183.1,176.7,182.7,176.6,182.6,176.8z"/>
		<path opacity="0.8" fill="#D17575" d="M82.2,153.6c-0.4,0-0.8,0-1.1,0c-3.1-0.5-6.4,0.1-8.8,1.6c-0.9,0.5-1.5,1.5-1.8,2.6
			c-0.7,0.9-0.5,2.3,0.2,3.1c0.1,0.2,0.1,0.3,0.2,0.5c1.6,2.7,4.7,3.4,7.1,3.7c0.9,0.1,2,0.2,3.2,0.2c0.3,0.3,0.6,0.5,1.1,0.6
			c3.8,0.6,9.8-0.2,10.3-6.2C93.1,154.7,85.7,152.9,82.2,153.6z"/>
		<path opacity="0.8" fill="#D17575" d="M174.9,158.3c-0.6-0.7-1.3-1.3-2-1.9c0.1,0,0.1,0,0.2,0c0.3,0,0.3-0.5,0.1-0.6
			c-3.6-1.9-7.9-2.3-11.7-1.6c-0.2,0-0.4,0.1-0.7,0.2c-1.7,0.4-3.4,1-4.7,1.9c-0.9,0.6-1.3,2.5-0.5,3.5c0.3,0.3,0.6,0.6,0.9,0.8
			c1.6,3,5.4,3.3,8,3.4c3.2,0.2,7.8-0.1,10.3-3.2C175.3,160.1,175.4,159,174.9,158.3z"/>
		<path opacity="0.3" fill="#FFFFFF" d="M202.2,239.3c-2-3.3-4.3-6.3-5.6-10c-0.6-1.6-0.9-3.6-2-5c-0.9-1.2-1.5,2-0.9,2.8
			c1.2,1.6,1.5,4.2,2.2,6.1c2.8,6.7,10,12,6,19.8c-0.5,1,0.4,4.2,1.4,2.5C206,250.1,205.2,244.5,202.2,239.3z"/>
		<path opacity="0.3" fill="#FFFFFF" d="M196.8,278.9c-0.8-4.5-0.9-8.5-0.9-13.1c0-1.9-1.6-1.2-1.6,0.3c0,3.6-0.5,6.9,0.1,10.5
			c0.4,2.7,1.4,5.1,0.8,7.9c-0.6,2.7-3.3,5.1-5.2,7c-0.8,0.8-0.2,4.3,1,3.1c2.7-2.7,6-6,6.2-10.1
			C197.3,282.6,197.1,280.9,196.8,278.9z"/>
		<path fill="#B77656" d="M104.9,96.3c-0.3-1.3-1.5-2.3-4.4-3.4c-2.3-0.9-7.7-2.6-10.1-1.5c-4.8,2-5.5-0.1-12.5,12.7
			c-3.5,6.4-7,13.7-11.9,22.3c-2,3.5-6.8,10.7-11.9,11.9c-3.9,0.9-8.1-4.4-10.3-1.7c-8.3,10.4-3.2,19.7,5.1,22.5
			c1.3,0.7,7.3,0.9,7.6-0.4c1.3,1.7,1.2,5.5,1.8,7.5c1.4,4.9,6.1,15.7,6.1,15.7c3.9,9.7,20.9,33.4,46.6,38.6c0,0-15.3-5.8-31-22.5
			c-7.7-8.1-30-47.5-16.5-60.7c17.1-16.7,17-35.2,26.1-39.5C96.9,94.1,104.9,96.3,104.9,96.3z"/>
		<g>
			<path fill="#1D1D1B" d="M55.3,148.9c-0.5,17.2,8.2,37.3,19.3,50.3c12,14.1,31.7,23,49.9,24.8c40.3,4.1,64.3-34.8,70.7-69.6
				c0.2-1-1.4-1.6-1.6-0.5c-2.6,13.7-7.3,26.2-14.4,38.1c-4.6,7.7-10.7,14.3-17.5,20c-9.8,8.2-21,9.8-33.5,10.4
				c-18.2,0.8-38.1-9.9-50.7-22.4c-12.4-12.3-20.7-33.8-21.1-51.1C56.4,148.3,55.3,148.2,55.3,148.9L55.3,148.9z"/>
		</g>
		<g>
			<path fill="#1D1D1B" d="M45.7,135.1c-6.4,2.1-7.6,10.6-6.2,16.4c1.8,7.6,11.1,10.2,17.7,8.6c0.7-0.2,0.5-1.3-0.3-1.1
				c-6.7,1.2-13.7-0.8-16.2-7.7c-1.8-5,0.3-12.8,5.3-14.9C46.7,136,46.3,134.9,45.7,135.1L45.7,135.1z"/>
		</g>
		<g>
			<path fill="#1D1D1B" d="M47.6,144c-2.5,1.4-1.5,6.2,0.9,7.3c0.2,0.1,0.4,0,0.5-0.1c0.6-0.6-0.8-1.6-1.1-2.1
				c-0.8-1.4-0.8-3.2,0.2-4.6C48.3,144.2,47.9,143.8,47.6,144L47.6,144z"/>
		</g>
	</g>
</g>
</svg>
