<?xml version="1.0" encoding="utf-8"?>
<!-- Generator: Adobe Illustrator 18.1.0, SVG Export Plug-In . SVG Version: 6.00 Build 0)  -->
<svg version="1.1" id="Capa_1" xmlns="http://www.w3.org/2000/svg" xmlns:xlink="http://www.w3.org/1999/xlink" x="0px" y="0px"
	 viewBox="0 0 253.3 281.1" enable-background="new 0 0 253.3 281.1" xml:space="preserve">
<g>
	<defs>
		<rect id="SVGID_1_" x="0.7" y="-0.1" width="253.3" height="281.1"/>
	</defs>
	<clipPath id="SVGID_2_">
		<use xlink:href="#SVGID_1_"  overflow="visible"/>
	</clipPath>
	
		<rect x="0.7" y="-0.1" clip-path="url(#SVGID_2_)" fill="#E53935" stroke="#000000" stroke-miterlimit="10" width="253.3" height="281.1"/>
	<polygon clip-path="url(#SVGID_2_)" fill="#D32F2F" points="81,0.1 1.3,0.1 1.3,281.1 181.6,281.1 	"/>
	<g clip-path="url(#SVGID_2_)">
		<path fill="#2F1D1A" d="M59.2,95.8c0,0,1-68.2,42.8-69.5c0,0,25.4,5.3,51.7-3c0,0,11.9-3.3,18.7,4.5c4.1,4.7,11.4,9.7,16.3,24.6
			c3.3,9.8,5.3,23.9,5.3,45.3l-10.4,17.8l-116.3-6.2L59.2,95.8z"/>
		<path fill="#1F1412" d="M70.9,108.4c0.8-2,1.6-3.9,2.8-5.8c0.5-1.7,1-3.4,1.5-5.2c0.3-2.9,0.5-5.9,0.7-8.8
			c-0.3-1.8-0.6-3.5-0.9-5.3c-0.3-1.8,0.5-3.2,1.7-3.9c0.1-0.3,0.2-0.7,0.3-1c0,0,0,0,0,0c0-0.2,0-0.4,0-0.6c0-0.1,0-0.2,0-0.3
			c-0.7-2.8-1.1-5.6-1.3-8.6c-0.1-0.2-0.2-0.4-0.4-0.7c-0.5-1-0.9-2-1.2-3c-1.1-1.1-2.3-2.1-3.3-3.3c-1.5-1.7-3-3.8-4-6
			c-7.4,18.9-7.7,39.9-7.7,39.9l8.2,13.4l2.9,0.2C70.5,109,70.7,108.7,70.9,108.4z"/>
		<path fill="#1F1412" d="M194.1,95.3c-5.4,0-11,1.9-16.2,2.2c-0.5,0-0.9,0-1.3-0.1c-0.8,3.7-1.7,7.5-1.9,11.5
			c-0.1,2.4-0.8,4.3-1.8,5.9l10.9,0.6l10.4-17.8C194.1,96.8,194.1,96,194.1,95.3z"/>
		<g>
			<path fill="#F4B980" d="M68.8,110.9c-0.1,0.2-0.3,0.2-0.4,0.1c-0.9-1.7-0.6-4.2-1.1-6.2c-0.6-2.8-1.7-5.2-3.8-7.2c0,0,0,0,0,0
				c0,0-0.1,0.1-0.2,0c-7.9-3.2-12.3,8.6-11,14.7c1.3,5.9,5.6,11.3,12.2,9c0.2-0.1,0.4,0,0.5,0c0.6-0.8,0.4-6.5,0.3-9.6
				c0-0.5,0-0.5,0,0c1.6,18.2,2.2,38.5,12,54.4c10.4,16.8,31.1,26.3,50.3,25.2c18.5-1,37.7-10.9,48.2-27c8.8-13.6,13-32.5,12.5-48.7
				c0-1,1.3-0.9,1.4,0c0.3,2.5,0.1,5.6-0.1,8.3c5.7-2.1,11-6.7,10.3-13.6c-0.4-4.8-3.6-10.1-8.3-11.2c-4,2-5,6.8-6.8,10.7
				c0,0.1-0.1,0.1-0.1,0.1c0,0,0,0,0,0c0,0.2-0.3,0.2-0.4,0.1c-0.1-0.1-0.1-0.1-0.1-0.2c0,0,0-0.1-0.1-0.1c-0.8-1.1-1-3-1.2-4.2
				c-0.2-1.1-1.1-5.6-0.6-7.1c-0.2,0.1-0.5,0-0.6-0.3c-2-8.4-3.6-16.8-3.6-25.4c0,0-0.1-0.1-0.1-0.1c-0.9-9.3-5.4-13.2-14.5-13.2
				c-4.9,0-9.9,1-14.9,0.9c-18.9,5.1-37.4-3.9-56.3-0.7c0,0.1,0,0.3-0.2,0.3c-8.7,2.6-15.3,10.2-16.7,19.4
				C74.9,84.9,75.7,93,72.5,98c0,0,0,0-0.1,0c0,0,0,0,0,0.1 M59.6,113.5c-3.4-0.3-3.6-6-1.2-7.7c0.1,0,0.2,0,0.2,0.1
				c0.4,0.9-0.6,2-0.8,2.8c-0.5,1.9,0.8,3.1,1.9,4.4C59.9,113.3,59.8,113.5,59.6,113.5z M194.7,107c1.8,1.1,1.8,5.8,0.1,7
				c-0.3,0.2-0.7-0.2-0.6-0.5c0.2-1.1,0.7-2,0.7-3.3c-0.1-1.1-0.5-1.9-0.7-2.9C194.1,107.1,194.4,106.8,194.7,107z"/>
			<path fill="#F4B980" d="M190,119.2c0.3-0.1,0.5-0.2,0.8-0.3c0.1-2.8,0.1-5.5-0.2-8c-0.1-0.9-1.4-1-1.4,0
				c0.5,16.3-3.4,34.8-12.2,48.4c-10.5,16.2-29.1,24.4-47.6,25.4c-19.2,1.1-40.5-6.8-50.9-23.6c-9.9-15.9-10.4-36.2-12-54.4
				c0-0.5-0.8-0.5-0.8,0c0.1,3.2,0.3,6.4,0.5,9.6c0.5,0.2,0.6,1,0.1,1.4c1.1,16.1,3.7,32.3,12.2,46.2c9.8,16.1,30.1,23.5,47.7,24
				c18.9,0.6,37-9.5,49.2-23.8c5.8-6.8,9-15,11.5-23.6c1.4-4.7,2.1-10.4,2.8-15.9c0.2-1.5,0.9-2.9,1-4.3c-0.2,0-0.4,0.1-0.5,0.1
				C189.5,120.5,189.4,119.4,190,119.2z"/>
			<path fill="#F4B980" d="M65.6,120.7c-6.6,2.3-11.8-2.5-13.1-8.4c-1.4-6.1,3.1-17.9,11-14.7c0.1,0,0.1,0,0.2,0
				c-0.1-0.1,0-0.2,0.1-0.2c0,0,0-0.1,0-0.1c-2.3-2.3-5.8-0.3-8,1.3c-3.2,2.3-3.8,6.5-4,10.4c-0.3,7.7,5.5,15.3,13.2,13.1
				c0.1,0,0.7-0.1,0.7-0.2C65.5,121.4,65.6,121.2,65.6,120.7C65.9,120.9,69,119.5,65.6,120.7z"/>
			<path fill="#F4B980" d="M57.9,108.7c0.2-0.8,1.2-2,0.8-2.8c0-0.1-0.2-0.1-0.2-0.1c-2.4,1.7-2.2,7.4,1.2,7.7
				c0.2,0,0.3-0.2,0.2-0.4C58.7,111.9,57.4,110.6,57.9,108.7z"/>
			<path fill="#F4B980" d="M201.3,108.9c-0.5-4.3-6-13.2-11.1-10.4c-0.1,0.1-0.1,0.3,0.1,0.3c0.1,0,0.1,0,0.2,0
				c0.4-0.3,0.8-0.5,1.2-0.7c0.5-0.2,0.9,0.5,0.4,0.7c-0.1,0-0.2,0.1-0.3,0.2c4.7,1.2,7.8,6.4,8.3,11.2c0.6,7-4.6,11.6-10.3,13.6
				c0,0.5,0,0,0,0.5C197.5,123.4,202.2,116.6,201.3,108.9z"/>
			<path fill="#F4B980" d="M189,124.2c-0.6,0.2-0.6,1.3,0.2,1.3c0.2,0,0.4-0.1,0.5-0.1c0-0.5,0.1-1,0.1-1.4
				C189.5,124,189.2,124.1,189,124.2z"/>
			<path fill="#F4B980" d="M194.2,113.5c-0.1,0.3,0.3,0.7,0.6,0.5c1.7-1.2,1.6-5.9-0.1-7c-0.3-0.2-0.6,0.1-0.5,0.4
				c0.2,1,0.6,1.8,0.7,2.9C195,111.5,194.4,112.4,194.2,113.5z"/>
			<path fill="#F4B980" d="M69.1,109.7c0.2-2.1-0.6-4.9-1.2-6.6c-0.7-2.3-2-4.5-4-5.8c-0.1-0.1-0.2,0-0.3,0c0,0.1,0,0.2-0.1,0.2
				c0,0,0,0,0,0c2.1,2,3.2,4.4,3.8,7.2c0.4,1.9,0.1,4.5,1.1,6.2c0.1,0.2,0.3,0.1,0.4-0.1"/>
			<path fill="#F4B980" d="M63.5,97.6c0.1-0.1,0.1-0.1,0.1-0.2C63.5,97.4,63.5,97.5,63.5,97.6z"/>
			<path fill="#F4B980" d="M72.5,98C72.5,98,72.5,98,72.5,98c3.2-5,2.5-13.1,3.3-18.7c1.5-9.2,8-16.9,16.7-19.4
				c0.1,0,0.2-0.2,0.2-0.3c-1,0.2-2,0.4-3,0.6c-0.1,0-0.2-0.1-0.2-0.2c-4.8,1.5-8.8,5.2-11.1,9.9c-3.8,7.7-2.7,16.2-4.8,24.1
				c-0.3,1.3-1,2.5-1.5,3.7c0,0,0,0,0,0.1C72.3,97.7,72.4,97.8,72.5,98z"/>
			<path fill="#F4B980" d="M72.5,98c0-0.2-0.2-0.3-0.4-0.2C72,98,72.3,98.2,72.5,98z"/>
			<path fill="#F4B980" d="M92.7,59.6c18.9-3.2,37.5,5.8,56.3,0.7c-0.6,0-1.2,0-1.8-0.1c-0.1,0-0.1-0.1,0-0.1
				c0.7-0.2,1.4-0.3,2.1-0.5c-5.7,0.4-11.2,1.6-16.9,1.4c-5.5-0.2-11-1.9-16.4-2.5c-8.5-1-18.3-2.3-26.4,1.4c0,0-0.1,0-0.1,0.1
				c0.9-0.3,1.9-0.5,2.9-0.6C92.6,59.4,92.7,59.5,92.7,59.6z"/>
			<path fill="#F4B980" d="M89.7,60.2c1-0.2,2-0.4,3-0.6c0-0.1-0.1-0.2-0.3-0.2c-1,0.1-2,0.3-2.9,0.6C89.5,60.1,89.6,60.2,89.7,60.2
				z"/>
			<path fill="#F4B980" d="M149.6,60.2c-0.2,0-0.3,0.1-0.5,0.1c4.9,0,9.9-0.9,14.9-0.9c9.1,0,13.6,3.9,14.5,13.2
				c0,0.1,0,0.1,0.1,0.1c0-1,0-1.9,0.1-2.9c0-0.1,0.2-0.2,0.2,0c0.1,0.5,0.2,0.9,0.3,1.4c1.4-15.4-18.8-13.8-29.7-11.5
				c0,0,0.1,0,0.1,0C149.8,59.6,149.8,60.1,149.6,60.2z"/>
			<path fill="#F4B980" d="M147.2,60.2c0.6,0,1.2,0.1,1.8,0.1c0.2,0,0.3-0.1,0.5-0.1c0.3-0.1,0.2-0.5-0.1-0.5c-0.1,0-0.1,0-0.1,0
				c-0.8,0.2-1.5,0.3-2.1,0.5C147.1,60.1,147.2,60.2,147.2,60.2z"/>
			<path fill="#F4B980" d="M178.5,72.7c0,8.6,1.6,17,3.6,25.4c0.1,0.3,0.3,0.4,0.6,0.3c0-0.1,0.1-0.2,0.1-0.3c0-0.1,0.1,0,0.2,0
				c0-0.1,0-0.2,0-0.3c-1.2-4.8-2.1-9.6-2.8-14.5c-0.5-3.9-0.4-8.2-1.1-12.1c0,0.5-0.1,0.9-0.2,1.4
				C178.9,72.9,178.6,72.8,178.5,72.7z"/>
			<path fill="#F4B980" d="M178.5,69.8c0,1-0.1,1.9-0.1,2.9c0.1,0.1,0.4,0.2,0.4-0.1c0.1-0.5,0.1-1,0.2-1.4
				c-0.1-0.5-0.2-0.9-0.3-1.4C178.7,69.7,178.5,69.7,178.5,69.8z"/>
			<path fill="#F4B980" d="M182.6,98.4c-0.5,1.5,0.4,6,0.6,7.1c0.2,1.2,0.4,3.1,1.2,4.2c0-0.1-0.1-0.2,0-0.2
				c0.1-0.3,0.3-0.7,0.4-1.1c-0.2-0.6-0.4-1.1-0.5-1.7c-0.4-1.7-1.2-6.8-1.3-8.5c0,0,0,0,0,0C182.9,98.2,182.8,98.3,182.6,98.4z"/>
			<path fill="#F4B980" d="M185,109.8C185,109.8,185,109.8,185,109.8c-0.2,0.1-0.4,0-0.5-0.1c0.1,0.1,0.1,0.1,0.1,0.2
				C184.7,110,184.9,110,185,109.8z"/>
			<path fill="#F4B980" d="M182.8,98.1c-0.1,0.1-0.1,0.2-0.1,0.3c0.1,0,0.2-0.1,0.3-0.3C182.9,98,182.8,98,182.8,98.1z"/>
			<path fill="#F4B980" d="M184.5,109.7C184.4,109.7,184.4,109.7,184.5,109.7C184.4,109.7,184.4,109.7,184.5,109.7z"/>
			<path fill="#F4B980" d="M185.1,109.7c1.7-3.9,2.7-8.6,6.8-10.7c-0.4-0.1-0.9-0.2-1.3-0.2c-3.2,2.1-4.4,6-5.7,9.5
				c0.1,0.5,0.2,1,0.2,1.5C185,109.8,185.1,109.8,185.1,109.7z"/>
			<path fill="#F4B980" d="M192.1,98.9c0.5-0.2,0.1-1-0.4-0.7c-0.4,0.2-0.8,0.4-1.2,0.7c0.5,0,0.9,0.1,1.3,0.2
				C192,99,192,98.9,192.1,98.9z"/>
			<path fill="#F4B980" d="M184.4,109.6C184.4,109.7,184.4,109.7,184.4,109.6c0.2,0.2,0.4,0.3,0.6,0.2c0.1-0.5,0-1-0.2-1.5
				c-0.1,0.4-0.3,0.7-0.4,1.1C184.4,109.5,184.4,109.6,184.4,109.6z"/>
		</g>
		<g>
			<path fill="#FFD600" d="M107.6,204.8C107.6,204.9,107.7,204.9,107.6,204.8c4.9,1.3,8.7,7.9,10.8,11.9c1.7,3.3,4.1,7.6,4.8,11.7
				c1.6-8.8,7.8-18.5,14.5-23.2c-0.6-2.1-0.3-4.6-0.2-6.7c0.1-2.5,0.1-5.1,0.3-7.6c-4,0.8-8.2,1.2-12.4,1.1
				c-5.5-0.2-11.4-1.1-17-2.6C109.1,194.2,108.8,200.1,107.6,204.8z"/>
			<path fill="#FFD600" d="M97.7,193.2c-1.9,2.2-3.6,4.6-5.1,7.1c-1.6,2.6-2.8,5.2-3.9,8.1c-0.1,0.2-0.7,2.1-1.2,3.4
				c2-1.9,5-2.7,7.4-3.9c3.8-1.9,7.8-3.7,12.1-3.4c0.1-2.5,0.5-5.1,0.7-7.6c0.2-2.5,0.2-5.1,0.6-7.6c-1.2-0.3-2.3-0.7-3.5-1.1
				c0,0,0,0,0,0C102.4,189.9,99.7,190.9,97.7,193.2z"/>
			<path fill="#FFD600" d="M62,276.9c0.3-0.9,0.6-1.8,0.7-2.7c0.1-0.4,0.1-0.8,0.2-1.2c-9.1-1.9-17.3-4.9-25.2-10
				c-2.3-1.5-7.7-4.1-8.8-7.4c-1,3.4-1.4,6.8-0.9,10.4c0,0,0,0,0,0c0,0,0,0,0,0c8.8,7.8,21.2,12,32.6,14c0.1,0,0.1,0,0.2,0.1
				c0-0.3,0.1-0.5,0.3-0.8C61.5,278.5,61.8,277.7,62,276.9z M30.7,264.2c-0.1,0.1-0.4,0.1-0.5-0.1c-0.3-0.8-0.1-1.9,0.4-2.6
				c0.3-0.5,1-0.3,1.1,0.3C31.8,262.6,31.3,263.7,30.7,264.2z M35.4,267.9c-0.2,0.1-0.3,0-0.4-0.2c-0.6-0.8,0.3-2.9,1.1-3.3
				c0.1-0.1,0.3,0,0.3,0.1C36.7,265.4,36.4,267.5,35.4,267.9z M41.3,269.4c-0.1,0.4-0.1,0.8-0.2,1.1c-0.2,0.3-0.5,0.7-0.8,0.4
				c-0.9-0.7,0-2.6,0.7-3.1c0.4-0.2,0.8,0.2,0.7,0.5C41.5,268.6,41.3,269,41.3,269.4z M47.3,273.2c-0.3,0.3-1.1,0.1-1-0.4
				c0.1-0.7,0.3-1.5,0.5-2.2c0.1-0.3,0.4-0.3,0.6-0.2C48.1,271.1,48,272.5,47.3,273.2z M53.7,275.8c-1.3-0.4,0-2.3,0.2-2.9
				c0.2-0.4,0.8-0.3,0.9,0.1C55.1,273.7,55,276.2,53.7,275.8z"/>
			<path fill="#FFD600" d="M208.3,216.5c-0.9-0.1-1.7-0.8-2.6-1.2c-1.1-0.5-2.3-0.8-3.4-1.2c-2,14.4-0.8,30.1,5.6,43.2c0,0,0,0,0,0
				c0.9-0.5,1.8-0.8,2.6-1.3c0.8-0.5,1.5-1.1,2.2-1.8c0,0,0,0,0,0C207,244.1,207.3,228,208.3,216.5z M203.6,218.5
				c0.7,0,2-0.1,2.4,0.6c0.1,0.1,0.1,0.3-0.1,0.4c-0.5,0.6-1.8,0.1-2.4-0.1C203,219.3,203.1,218.5,203.6,218.5z M202.9,225.7
				c0.4-0.1,3-0.2,2.7,0.8c-0.3,1-2.5,0.3-2.9-0.3C202.6,226.1,202.6,225.8,202.9,225.7z M203.3,233.7c0.5-0.5,1.7-0.4,2.3-0.4
				c0.6,0,0.6,0.9,0,1c-0.6,0-1.9,0.1-2.3-0.4C203.2,233.9,203.2,233.8,203.3,233.7z M204.7,241.9c-0.3-0.1-0.3-0.5,0-0.7
				c0.5-0.2,1-0.1,1.5-0.2c0.4,0,0.7,0,1,0.3c0.1,0.1,0.1,0.2,0,0.3C206.7,242.2,205.3,242.1,204.7,241.9z M208.6,249.4
				c-0.6,0.1-1.3,0.3-1.8-0.1c-0.2-0.1-0.2-0.4,0-0.6c0.5-0.3,1.1-0.4,1.7-0.4C209,248.3,209.1,249.3,208.6,249.4z"/>
			<path fill="#FFD600" d="M201.5,213.5c-7.4-3.3-15.1-1.8-22.8-3.2c-8.4-1.6-15.8-6-24.3-7.1c1.4,3.1,2.3,6.3,2.1,9.7
				c0.2,0.4-0.2,1-0.7,0.7c-2.9-1.9-5.4-3.7-8.7-5c-2.7-1-5.4-1.8-8.1-2.6c0,0.1-0.1,0.2-0.2,0.3c-8.9,6-11.2,16-15.2,25.3
				c0,0.3,0,0.6-0.1,0.9c-0.1,0.4-0.7,0.4-0.8,0c-1.4-5.3-2.5-10.2-5.2-15.1c-2.7-4.9-5.9-8.2-9.9-11.9c-0.1,0.1-0.2,0.2-0.4,0.2
				c-7.6,0.5-13.5,4.7-20.4,7.4c0,0,0,0,0,0c0,0.2-0.3,0.2-0.3,0c0-3.8,2.3-8.6,4.5-12.5c-9.6-0.1-20.5,6.2-28.3,11.4
				c-6.9,4.6-13.8,10.2-18.9,16.9c-2.8,3.7-17.4,21.7-14.1,26.3c0.1,0.1,0.1,0.2,0,0.3c3,4.4,10.7,7.7,14.9,9.9
				c6,3.1,12.2,4.9,18.8,6.3c0.1,0,0.2,0.1,0.3,0.2c0.2-0.1,0.4,0,0.6,0.3c0.7,1.5-0.3,4.1-0.8,5.5c-0.5,1.2-0.9,2.9-2.2,3.1
				c-0.1,0.2-0.2,0.4-0.4,0.5c1.1,5.5,2,47.9,2.9,51.1c1,3.4,2.9,6.6,3.7,10c5.6,0.9,11.1,3.7,16.5,5.2c8.1,2.2,16.5,3.9,24.8,4.6
				c-0.1-0.2-0.1-0.3-0.1-0.4c-0.2-0.1-0.3-0.7,0,0c0.2,0.1,0.4-0.3,0.6-2c0-0.2,0.2-0.3,0.3-0.3c0,0,0.1-0.1,0.1-0.1
				c0.1,0,0.2,0,0.2,0c6.1-0.2,13.1-1.9,19.5,0c0.1,0,0.2,0.1,0.2,0.2c1.6,0.7,1.3,0.2,1.5,1.9l-0.1,0.1c14.2-0.6,30.6-3.2,43.5-10
				c0-0.2,0.1-0.4,0.2-0.6c9.1-11.5,5.2-32.3,4.6-46.2c-0.5-12.5-1.8-24.8-2.7-37.2c0-0.3,0.4-0.3,0.5-0.1c0.7,2.1,1.3,4.2,1.8,6.4
				c4.6-0.6,9.1-0.7,13.6-1.9c4.5-1.2,9-2.8,13.4-4.2C199.9,245.1,197.4,227.1,201.5,213.5z M66.9,251.8c-0.5,6.3-0.2,14.1-2.6,20.1
				c-0.1,0.1-0.3,0.1-0.2,0c0.7-16.2,3.1-31.6,2.2-48c0-0.2,0.4-0.3,0.4-0.1C68.5,233.1,67.6,242.4,66.9,251.8z M106.1,219
				c-3.4-1.2-1-5.2,1.1-6c-0.1-0.1,0-0.2,0.1-0.3c2-0.8,3.7,1.9,3.6,3.7C110.7,218.9,108.3,219.7,106.1,219z M110.3,230.9
				c-1.6-0.8-1.5-2.9-0.9-4.4c0.3-0.7,1-1.6,1.8-1.8c1.7-1.3,4.1,1.8,4,3.5C115.1,230.5,112.3,231.9,110.3,230.9z M176.8,253
				c-2.6-12.4-2.1-24.5-6.8-36.4c0-0.1,0.1-0.2,0.2-0.1c4.4,3.1,4.8,12.7,5.4,17.5c0.9,6.3,1.2,12.6,1.6,19
				C177.2,253.2,176.9,253.2,176.8,253z"/>
			<path fill="#FFD600" d="M110.6,229.8c1.2,0.7,3.6-0.1,3.4-1.8c-0.1-0.8-0.6-1.6-1.2-2c-0.4-0.2-0.8-0.3-1.3-0.5
				C110.2,225.7,109.3,229.1,110.6,229.8z"/>
			<path fill="#FFD600" d="M108.8,213.8c-1.6-1.5-5.1,3.5-1.9,4.2c1.6,0.4,3.4,0,3.4-2c0-0.8-0.3-1.6-0.9-2.1
				c-0.1-0.1-0.2-0.1-0.3-0.2C109,213.9,108.9,213.9,108.8,213.8z"/>
			<path fill="#FFD600" d="M138.9,198.5c0,2.1,0.2,4.3,0,6.3c5.3,0.7,12.4,2.6,16.5,6.7c-1.5-8.2-5.5-18.2-13.3-21.6
				c-1.1,0.3-2.1,0.6-3.2,0.8C139.2,193.3,139,195.9,138.9,198.5z"/>
			<path fill="#FFD600" d="M108.4,189.1c0-0.1-0.2-0.1-0.2,0c0,0.1,0,0.1,0,0.2c0.1,0,0.2,0.1,0.3,0.1
				C108.5,189.3,108.5,189.2,108.4,189.1z"/>
			<path fill="#FFD600" d="M106.9,204.5c0.1,0,0.1,0,0.2,0c0.2,0,0.4,0.1,0.5,0.3c1.2-4.7,1.5-10.6,0.9-15.5c-0.1,0-0.2-0.1-0.3-0.1
				c-0.4,2.5-0.4,5.1-0.6,7.6C107.5,199.4,107,202,106.9,204.5z"/>
			<path fill="#FFD600" d="M107.6,205.5c4,3.6,7.2,6.9,9.9,11.9c2.7,4.9,3.7,9.8,5.2,15.1c0.1,0.4,0.8,0.4,0.8,0
				c0-0.3,0.1-0.6,0.1-0.9c-0.1,0.3-0.2,0.6-0.4,0.9c-0.1,0.1-0.3,0.1-0.3-0.1c0-1.3,0.1-2.6,0.4-3.9c-0.8-4.1-3.1-8.4-4.8-11.7
				c-2.1-4-6-10.6-10.8-11.9C107.7,205.1,107.7,205.3,107.6,205.5z"/>
			<path fill="#FFD600" d="M123.5,231.6c4-9.3,6.3-19.3,15.2-25.3c0.1-0.1,0.2-0.2,0.2-0.3c-0.1,0-0.1,0-0.2-0.1
				c-0.1,0.4-0.6,0.3-0.8-0.1c-0.1-0.2-0.1-0.3-0.2-0.5c-6.7,4.7-13,14.4-14.5,23.2C123.5,229.5,123.6,230.5,123.5,231.6z"/>
			<path fill="#FFD600" d="M123.2,232.4c0.1-0.3,0.2-0.6,0.4-0.9c0-1,0-2.1-0.3-3.1c-0.2,1.3-0.4,2.6-0.4,3.9
				C122.9,232.5,123.1,232.5,123.2,232.4z"/>
			<path fill="#FFD600" d="M137.8,205.3c0.1,0,0.1-0.1,0.2-0.1c0-0.2,0.2-0.4,0.4-0.3c0.2,0,0.3,0,0.5,0.1c0.2-2.1,0-4.3,0-6.3
				c0.1-2.6,0.2-5.2-0.1-7.8c-0.3,0.1-0.7,0.2-1,0.2c-0.2,2.5-0.2,5.1-0.3,7.6C137.5,200.7,137.2,203.2,137.8,205.3z"/>
			<path fill="#FFD600" d="M138.9,190.4c-0.1-0.6-0.9-0.4-1,0.1c0,0.1,0,0.2,0,0.4c0.3-0.1,0.7-0.1,1-0.2
				C138.9,190.6,138.9,190.5,138.9,190.4z"/>
			<path fill="#FFD600" d="M138.7,205.8c-0.2-0.1-0.3-0.1-0.5-0.2c-0.2-0.1-0.3-0.3-0.3-0.5c-0.1,0-0.1,0.1-0.2,0.1
				c0.1,0.2,0.1,0.3,0.2,0.5C138.1,206.1,138.6,206.2,138.7,205.8z"/>
			<path fill="#FFD600" d="M107.7,204.9C107.7,204.9,107.6,204.9,107.7,204.9C107.6,204.8,107.6,204.9,107.7,204.9
				C107.6,204.9,107.6,204.9,107.7,204.9z"/>
			<path fill="#FFD600" d="M107.1,205.7c0.2,0,0.3-0.1,0.4-0.2c-0.1-0.1-0.2-0.2-0.3-0.3c-0.1,0-0.3-0.1-0.3-0.3c0,0,0,0,0,0
				c0,0,0-0.1,0-0.1c0-0.1,0-0.2,0-0.3c-4.3-0.3-8.3,1.5-12.1,3.4c-2.4,1.2-5.4,2-7.4,3.9c-0.3,0.6-0.5,1.1-0.7,1.1c0,0,0,0,0,0
				c0,0,0,0.1,0,0.1c0,0,0,0,0,0c0,0,0,0,0,0C93.7,210.3,99.5,206.2,107.1,205.7z"/>
			<path fill="#FFD600" d="M107.2,205.2c-0.1-0.1-0.2-0.2-0.3-0.3C107,205.1,107.1,205.2,107.2,205.2z"/>
			<path fill="#FFD600" d="M107,204.8c0.2,0,0.4,0.1,0.6,0.1c0,0,0-0.1,0-0.1c-0.1-0.2-0.2-0.3-0.5-0.3c-0.1,0-0.1,0-0.2,0
				C106.9,204.6,106.9,204.7,107,204.8C106.9,204.8,106.9,204.8,107,204.8z"/>
			<path fill="#FFD600" d="M107.6,204.9c0,0.2-0.2,0.3-0.4,0.2c0.1,0.1,0.2,0.2,0.3,0.3C107.7,205.3,107.7,205.1,107.6,204.9
				C107.6,204.9,107.6,204.9,107.6,204.9C107.6,204.9,107.6,204.9,107.6,204.9z"/>
			<path fill="#FFD600" d="M106.9,204.8C106.9,204.8,106.9,204.8,106.9,204.8c0,0.1,0,0.1,0,0.1
				C106.9,204.9,106.9,204.9,106.9,204.8C106.9,204.8,106.9,204.8,106.9,204.8z"/>
			<path fill="#FFD600" d="M107.6,204.9C107.6,204.9,107.6,204.9,107.6,204.9c-0.2-0.1-0.4-0.1-0.6-0.2c0,0,0,0-0.1,0c0,0,0,0,0,0
				c0,0,0,0,0,0.1c0.1,0.1,0.2,0.2,0.3,0.3C107.4,205.2,107.5,205.1,107.6,204.9z"/>
			<path fill="#FFD600" d="M104.5,187.6c-0.3,0.1-0.5,0.2-0.8,0.2c0.3,0.1,0.7,0.2,1,0.4C105,188,104.8,187.5,104.5,187.6z"/>
			<path fill="#FFD600" d="M92,200.5c-0.3,0-0.7,0-1,0c-2.3,3.9-4.6,8.8-4.5,12.5c0,0.2,0.3,0.2,0.3,0c-0.1,0-0.2-0.1-0.1-0.2
				c0.3-0.4,0.6-0.7,0.9-1c0.6-1.3,1.1-3.2,1.2-3.4c1.1-2.9,2.3-5.5,3.9-8.1c1.5-2.5,3.2-4.9,5.1-7.1c2-2.3,4.7-3.3,7-5c0,0,0,0,0,0
				c-0.3-0.1-0.7-0.2-1-0.4c-4.8,1.3-8,5.3-10.7,9.4c-0.4,0.7-0.9,1.4-1.4,2.3c0.1,0,0.3,0,0.4,0C92.7,199.5,92.7,200.6,92,200.5z"
				/>
			<path fill="#FFD600" d="M86.7,212.9C86.7,212.9,86.7,212.9,86.7,212.9c0.2,0,0.4-0.5,0.7-1.1c-0.3,0.3-0.6,0.6-0.9,1
				c-0.1,0.1,0,0.2,0.1,0.2c0,0,0,0,0,0C86.7,213,86.7,213,86.7,212.9z"/>
			<path fill="#FFD600" d="M138.9,205.9c2.7,0.8,5.4,1.6,8.1,2.6c3.3,1.3,5.8,3.1,8.7,5c0.5,0.3,0.9-0.3,0.7-0.7c0,0.1,0,0.2,0,0.3
				c0,0.4-0.7,0.6-0.8,0.1c-0.1-0.5-0.2-1.1-0.3-1.6c-4-4-11.1-5.9-16.5-6.7c0,0.1,0,0.2,0,0.4C139,205.4,139,205.7,138.9,205.9z"/>
			<path fill="#FFD600" d="M138.8,205.2c0,0.2,0,0.4-0.1,0.5c0,0,0,0,0,0.1c0.1,0,0.1,0,0.2,0.1C139,205.7,139,205.4,138.8,205.2z"
				/>
			<path fill="#FFD600" d="M138.8,205.2c0-0.1,0-0.2,0-0.4c-0.2,0-0.3,0-0.5-0.1c-0.2,0-0.4,0.1-0.4,0.3c0,0,0.1,0,0.1-0.1
				C138.4,204.9,138.7,205,138.8,205.2z"/>
			<path fill="#FFD600" d="M138.3,205.7c0.2,0.1,0.3,0.1,0.5,0.2c0,0,0,0,0-0.1c0-0.2,0-0.4,0.1-0.5c-0.2-0.2-0.5-0.4-0.8-0.2
				c0,0-0.1,0-0.1,0.1C137.9,205.3,138,205.6,138.3,205.7z"/>
			<path fill="#FFD600" d="M155.3,211.5c0.4,0.4,0.7,0.7,1,1.2c0,0,0,0.1,0.1,0.1c0.2-3.4-0.7-6.6-2.1-9.7c-0.2,0-0.4-0.1-0.6-0.1
				c-0.3,0-0.3-0.4,0-0.5c0.1,0,0.3,0,0.4,0c-1.1-2.3-2.4-4.4-3.6-6.6c-1.3-2.3-4.1-5.8-7.1-6.5c-0.4,0.1-0.9,0.3-1.3,0.4
				C149.9,193.3,153.9,203.3,155.3,211.5z"/>
			<path fill="#FFD600" d="M141.7,189.4c-0.1,0-0.1,0.2,0,0.3c0.1,0.1,0.3,0.1,0.4,0.2c0.5-0.1,0.9-0.3,1.3-0.4
				C142.8,189.3,142.2,189.3,141.7,189.4z"/>
			<path fill="#FFD600" d="M156.4,213.1c0-0.1,0-0.2,0-0.3c0,0,0-0.1-0.1-0.1c-0.3-0.4-0.7-0.8-1-1.2c0.1,0.6,0.2,1.1,0.3,1.6
				C155.7,213.7,156.4,213.5,156.4,213.1z"/>
			<path fill="#FFD600" d="M112,225.2c0.1,0,0.3,0,0.4,0c-0.1-0.1-0.1-0.1-0.2-0.2C112.2,225.1,112.1,225.1,112,225.2z"/>
			<path fill="#FFD600" d="M111,225.4c0.2,0.1,0.4,0.1,0.6,0.2c0.2,0,0.3,0,0.5,0.1c0.2,0.1,0.3,0,0.4-0.2c0,0,0,0-0.1-0.1
				c0.1,0.1,0.3,0,0.3-0.2c0-0.1-0.1-0.1-0.1-0.2c0-0.1-0.1-0.1-0.2-0.1c-0.1,0-0.1,0-0.1,0.1c0.1,0.1,0.1,0.1,0.2,0.2
				c-0.1,0-0.3,0-0.4,0c0.1-0.1,0.1-0.1,0.2-0.2c-0.3-0.3-0.7-0.4-1.1-0.3c-0.1,0.1-0.1,0.1-0.2,0.2
				C110.8,225,110.8,225.3,111,225.4z"/>
			<path fill="#FFD600" d="M111.1,224.7c0.4-0.1,0.7,0,1.1,0.3c0,0,0.1,0,0.1-0.1c0.1,0,0.2,0,0.2,0.1c0,0.1,0.1,0.1,0.1,0.2
				c0.1,0.2-0.2,0.2-0.3,0.2c0,0,0,0,0.1,0.1c-0.1,0.2-0.2,0.2-0.4,0.2c-0.2-0.1-0.4-0.1-0.5-0.1c0.4,0.1,0.9,0.2,1.3,0.5
				c0.7,0.4,1.1,1.2,1.2,2c0.2,1.7-2.2,2.5-3.4,1.8c-1.3-0.7-0.5-4.2,0.9-4.3c-0.2-0.1-0.4-0.1-0.6-0.2c-0.2-0.1-0.2-0.3-0.1-0.4
				C111,224.8,111.1,224.8,111.1,224.7c-0.8,0.2-1.5,1.1-1.8,1.8c-0.6,1.5-0.7,3.6,0.9,4.4c2,1,4.8-0.4,4.9-2.7
				C115.2,226.6,112.8,223.4,111.1,224.7z"/>
			<path fill="#FFD600" d="M109,213.7C109,213.7,109,213.7,109,213.7c-0.4-0.9-1.1-1-1.8-0.8c0,0,0,0.1,0.1,0.1
				C107.9,213.3,108.5,213.4,109,213.7z"/>
			<path fill="#FFD600" d="M110.9,216.4c0.1-1.8-1.6-4.5-3.6-3.7c-0.1,0.1-0.1,0.2-0.1,0.3c0.7-0.3,1.4-0.1,1.8,0.7c0,0,0,0.1,0,0.1
				c0.1,0.1,0.2,0.1,0.3,0.2c0.6,0.5,0.8,1.3,0.9,2.1c0.1,2-1.8,2.4-3.4,2c-3.1-0.7,0.4-5.7,1.9-4.2c0.1,0.1,0.2,0,0.2-0.1
				c-0.5-0.3-1.1-0.4-1.7-0.6c-0.1,0-0.1-0.1-0.1-0.1c-2.1,0.7-4.5,4.7-1.1,6C108.3,219.7,110.7,218.9,110.9,216.4z"/>
			<path fill="#FFD600" d="M29.2,254.8C29.2,254.8,29.2,254.8,29.2,254.8c0.1,0.3,0.3,0.5,0.5,0.8c0.1-0.1,0.1-0.2,0-0.3
				c-3.3-4.6,11.2-22.6,14.1-26.3c5.1-6.7,12-12.2,18.9-16.9c7.8-5.2,18.7-11.6,28.3-11.4c0.2-0.4,0.4-0.7,0.6-1.1
				c-9.4-0.4-19.5,5.6-27.4,10.3c-8.1,4.8-16.1,11.4-21.8,19.1c-2.2,3-16.4,21.1-13.9,26.1c0-0.1,0.1-0.2,0.1-0.3
				C28.8,254.3,29.2,254.5,29.2,254.8z"/>
			<path fill="#FFD600" d="M92,200.5c0.7,0,0.7-1,0-1.1c-0.1,0-0.3,0-0.4,0c-0.2,0.3-0.4,0.7-0.6,1.1
				C91.3,200.5,91.7,200.5,92,200.5z"/>
			<path fill="#FFD600" d="M37.7,263c7.9,5.1,16.1,8,25.2,10c0-0.2,0.1-0.4,0.2-0.6c0.1-0.2,0.3-0.4,0.5-0.4
				c-0.1-0.1-0.2-0.1-0.3-0.2c-6.6-1.4-12.8-3.2-18.8-6.3c-4.2-2.2-11.9-5.5-14.9-9.9c-0.1,0.1-0.3,0.2-0.4,0.1
				c-0.1-0.1-0.2-0.1-0.2-0.2c0,0.1,0,0.1,0,0.2C30,258.9,35.4,261.5,37.7,263z"/>
			<path fill="#FFD600" d="M29.2,255.7c0.1,0.1,0.3,0,0.4-0.1c-0.2-0.3-0.3-0.5-0.5-0.8c-0.1,0.2-0.1,0.4-0.2,0.7
				C29,255.5,29.1,255.6,29.2,255.7z"/>
			<path fill="#FFD600" d="M28,266C28,266,28,266,28,266c-0.5-3.6-0.1-7,0.9-10.4c0-0.1-0.1-0.2-0.1-0.3c-0.1-0.1-0.2-0.3-0.3-0.4
				c-1.5,3.5-2.1,7.6-1.4,11.4c0,0.1,0.1,0.2,0.1,0.2C27.2,266.1,27.7,265.7,28,266z"/>
			<path fill="#FFD600" d="M28.8,255.3c0-0.2-0.1-0.4-0.1-0.6c0-0.2,0.2-0.2,0.3-0.1c0,0.1,0.1,0.1,0.1,0.2c0,0,0,0,0,0
				c0.1-0.3-0.3-0.5-0.5-0.2c0,0.1-0.1,0.2-0.1,0.3C28.6,255,28.7,255.2,28.8,255.3z"/>
			<path fill="#FFD600" d="M28.8,255.3c0,0.1,0.1,0.2,0.1,0.3c0-0.1,0-0.1,0-0.2C28.9,255.4,28.9,255.4,28.8,255.3z"/>
			<path fill="#FFD600" d="M29.2,254.8c0-0.1-0.1-0.1-0.1-0.2c-0.1-0.2-0.3-0.1-0.3,0.1c0,0.2,0,0.4,0.1,0.6c0,0,0.1,0.1,0.1,0.1
				C29,255.2,29.1,255,29.2,254.8z"/>
			<path fill="#FFD600" d="M60.5,280.9c0,0.1,0.1,0.2,0.1,0.4c0.2-0.1,0.4-0.3,0.4-0.5c-0.1,0-0.2,0-0.4,0c0,0-0.1,0-0.1-0.1
				c0.1-0.3,0.1-0.5,0.1-0.7c-0.1,0-0.1-0.1-0.2-0.1c-11.4-2-23.8-6.1-32.6-14c0,0,0,0,0,0c0,0.5-0.5,0.7-0.8,0.4
				c0,0.1,0,0.2,0.1,0.3c8.4,8.4,21.4,12.7,32.8,14.6c0-0.2,0.1-0.3,0.1-0.4C60.3,280.8,60.5,280.8,60.5,280.9z"/>
			<path fill="#FFD600" d="M28,266c-0.4-0.3-0.8,0.1-0.8,0.4C27.5,266.7,28.1,266.5,28,266z"/>
			<path fill="#FFD600" d="M63.3,277.7c0.6-1.4,1.6-4,0.8-5.5c-0.1-0.3-0.4-0.3-0.6-0.3c0.4,0.4,0,1.2-0.6,1.1c0,0,0,0,0,0
				c-0.1,0.4-0.1,0.8-0.2,1.2c-0.2,0.9-0.4,1.8-0.7,2.7c-0.3,0.8-0.6,1.6-0.9,2.3c-0.2,0.3-0.2,0.6-0.3,0.8c0.3,0.1,0.4,0.4,0.3,0.7
				C62.4,280.6,62.8,278.9,63.3,277.7z"/>
			<path fill="#FFD600" d="M63.1,272.3c-0.1,0.2-0.1,0.4-0.2,0.6c0,0,0,0,0,0c0.6,0.1,1-0.7,0.6-1.1C63.4,272,63.2,272.1,63.1,272.3
				z"/>
			<path fill="#FFD600" d="M60.8,280.1c0,0.2-0.1,0.4-0.1,0.7c0,0,0,0.1,0.1,0.1c0.1,0,0.2,0,0.4,0
				C61.2,280.5,61.1,280.2,60.8,280.1z"/>
			<path fill="#FFD600" d="M66.2,223.9c0.9,16.3-1.5,31.8-2.2,48c0,0.2,0.2,0.2,0.2,0c2.4-5.9,2.1-13.8,2.6-20.1
				c0.7-9.3,1.6-18.7-0.3-28C66.6,223.6,66.2,223.6,66.2,223.9z"/>
			<path fill="#FFD600" d="M30.6,261.5c-0.5,0.7-0.7,1.8-0.4,2.6c0.1,0.2,0.4,0.2,0.5,0.1c0.6-0.5,1.1-1.6,1-2.4
				C31.7,261.2,31,261,30.6,261.5z"/>
			<path fill="#FFD600" d="M36.1,264.3c-0.8,0.5-1.7,2.5-1.1,3.3c0.1,0.1,0.3,0.3,0.4,0.2c1-0.4,1.3-2.5,1-3.4
				C36.3,264.3,36.2,264.3,36.1,264.3z"/>
			<path fill="#FFD600" d="M40.9,267.7c-0.7,0.5-1.5,2.5-0.7,3.1c0.3,0.3,0.7-0.1,0.8-0.4c0.2-0.3,0.2-0.7,0.2-1.1
				c0.1-0.4,0.2-0.7,0.3-1.1C41.7,267.9,41.2,267.5,40.9,267.7z"/>
			<path fill="#FFD600" d="M46.8,270.6c-0.2,0.7-0.5,1.5-0.5,2.2c-0.1,0.6,0.7,0.8,1,0.4c0.7-0.7,0.8-2,0.1-2.8
				C47.2,270.2,46.8,270.3,46.8,270.6z"/>
			<path fill="#FFD600" d="M54,272.9c-0.3,0.6-1.5,2.6-0.2,2.9c1.2,0.3,1.3-2.1,1.1-2.8C54.8,272.7,54.2,272.5,54,272.9z"/>
			<path fill="#FFD600" d="M178.6,210.3c7.7,1.5,15.4-0.1,22.8,3.2c0.1-0.2,0.1-0.4,0.2-0.6c0.2-0.5,0.7-0.3,0.8,0.1
				c0.1,0,0.2,0,0.3,0c0-0.2-0.1-0.4-0.3-0.6c-6.2-4-14.5-3.1-21.5-3.5c-9.3-0.7-17.4-6.9-26.8-6.3c0.1,0.2,0.2,0.4,0.3,0.6
				C162.8,204.3,170.2,208.7,178.6,210.3z"/>
			<path fill="#FFD600" d="M153.7,203c0.2,0,0.4,0.1,0.6,0.1c-0.1-0.2-0.2-0.4-0.3-0.6c-0.1,0-0.3,0-0.4,0
				C153.4,202.6,153.4,203,153.7,203z"/>
			<path fill="#FFD600" d="M207.5,258.6c-0.2,0.1-0.5,0.2-0.7,0.3c0.4,0,0.9-0.2,1.1-0.7c0,0-0.1,0-0.1,0
				C207.8,258.4,207.7,258.5,207.5,258.6z"/>
			<path fill="#FFD600" d="M202.3,214c-0.1,0-0.3-0.1-0.4-0.1c-0.1-0.1-0.2-0.2-0.3-0.3c-0.1,0-0.1-0.1-0.2-0.1
				c-4,13.6-1.5,31.6,4.4,44.3c0.4-0.1,0.8-0.3,1.2-0.4c0.2-0.1,0.4,0,0.5,0.1c0,0,0,0,0-0.1c0.1-0.1,0.2-0.1,0.3-0.2c0,0,0,0,0,0
				C201.5,244.1,200.3,228.4,202.3,214z"/>
			<path fill="#FFD600" d="M201.9,213.1c0.2-0.1,0.3-0.1,0.5-0.1c0-0.4-0.6-0.6-0.8-0.1c-0.1,0.2-0.1,0.4-0.2,0.6
				c0.1,0,0.1,0.1,0.2,0.1C201.6,213.4,201.7,213.2,201.9,213.1z"/>
			<path fill="#FFD600" d="M206.1,258.4c-0.1-0.2-0.2-0.4-0.3-0.6c-4.5,1.4-8.9,3-13.4,4.2c-4.5,1.2-9.1,1.3-13.6,1.9
				c0.1,0.4,0.2,0.9,0.3,1.3c8.7,1.5,19.9-2.8,27.8-6.3C206.5,258.9,206.3,258.7,206.1,258.4z"/>
			<path fill="#FFD600" d="M207.8,258.2C207.8,258.2,207.8,258.2,207.8,258.2c-0.4,0-0.5-0.5-0.3-0.7c-0.1-0.1-0.3-0.2-0.5-0.1
				c-0.4,0.1-0.8,0.3-1.2,0.4c0.1,0.2,0.2,0.4,0.3,0.6c0.2,0.3,0.4,0.5,0.7,0.5c0.2-0.1,0.5-0.2,0.7-0.3
				C207.7,258.5,207.8,258.4,207.8,258.2z"/>
			<path fill="#FFD600" d="M60.6,281.3c0-0.2-0.1-0.3-0.1-0.4c-0.1-0.1-0.2-0.1-0.3,0c0,0.1-0.1,0.3-0.1,0.4c0,0,0.1,0,0.1,0
				C60.4,281.4,60.5,281.4,60.6,281.3z"/>
			<path fill="#FFD600" d="M202.4,213.6c0,0.2,0,0.3-0.1,0.5c1.1,0.4,2.3,0.7,3.4,1.2c0.8,0.4,1.6,1.1,2.6,1.2c0-0.3,0.1-0.7,0.1-1
				c0-0.1,0-0.1,0.1-0.1c-0.6-0.7-1.6-1.1-2.4-1.5c-1-0.5-2.2-0.9-3.3-0.8C202.7,213.2,202.6,213.4,202.4,213.6z"/>
			<path fill="#FFD600" d="M202.4,213.1c0,0.2,0,0.3-0.1,0.5c0.2-0.1,0.4-0.4,0.4-0.6c-0.1,0-0.2,0-0.3,0
				C202.4,213,202.4,213,202.4,213.1z"/>
			<path fill="#FFD600" d="M201.7,213.6L201.7,213.6c0,0.1,0.1,0.2,0.3,0.3c0.1,0.1,0.3,0.1,0.4,0.1c0-0.2,0-0.3,0.1-0.5
				C202.2,213.7,201.9,213.7,201.7,213.6z"/>
			<path fill="#FFD600" d="M201.7,213.6L201.7,213.6c0.3,0.1,0.5,0.1,0.7,0c0-0.2,0-0.3,0.1-0.5c0,0,0-0.1,0-0.1
				c-0.2,0-0.3,0.1-0.5,0.1C201.7,213.2,201.6,213.4,201.7,213.6z"/>
			<path fill="#FFD600" d="M208.6,216.5c-0.1,0-0.2,0-0.3-0.1c-1,11.5-1.3,27.7,4.4,37.8c0,0,0,0,0,0c0.2-0.2,0.3-0.3,0.5-0.5
				c0.2-0.1,0.3-0.2,0.5-0.1c-1.7-7.2-3.4-13.9-4.1-21.3c-0.5-5.2,1-12.1-0.8-17c-0.1-0.2-0.3-0.2-0.4-0.1c0.2,0.2,0.4,0.5,0.5,0.9
				C208.9,216.3,208.8,216.5,208.6,216.5z"/>
			<path fill="#FFD600" d="M208.3,216.5c0.1,0,0.2,0.1,0.3,0.1c0.2,0,0.3-0.2,0.3-0.4c-0.1-0.3-0.3-0.6-0.5-0.9c0,0,0,0.1-0.1,0.1
				C208.3,215.8,208.3,216.1,208.3,216.5z"/>
			<path fill="#FFD600" d="M213.7,253.6c0,0.1,0,0.1,0,0.2c0.1,0.6-0.7,1-1,0.4c-0.7,0.6-1.3,1.3-2.2,1.8c-0.8,0.5-1.8,0.8-2.6,1.3
				c0.1,0.3,0.1,0.6,0,0.9c2.1-0.2,5.3-1.8,6.1-3.8C214.2,254.1,214,253.7,213.7,253.6z"/>
			<path fill="#FFD600" d="M207.9,257.3c-0.1,0.1-0.2,0.1-0.3,0.2c0,0,0,0,0,0.1c0.2,0.2,0.3,0.4,0.3,0.7c0,0,0.1,0,0.1,0
				C208,257.9,208,257.6,207.9,257.3z"/>
			<path fill="#FFD600" d="M207.8,258.2C207.8,258.2,207.8,258.2,207.8,258.2c0.1-0.2,0-0.5-0.2-0.7
				C207.3,257.8,207.4,258.2,207.8,258.2z"/>
			<path fill="#FFD600" d="M213.2,253.8c-0.2,0.2-0.3,0.3-0.5,0.5c0.3,0.6,1.1,0.2,1-0.4c0-0.1,0-0.1,0-0.2
				C213.5,253.6,213.3,253.6,213.2,253.8z"/>
			<path fill="#FFD600" d="M203.5,219.4c0.6,0.2,1.9,0.7,2.4,0.1c0.1-0.1,0.1-0.2,0.1-0.4c-0.3-0.7-1.7-0.6-2.4-0.6
				C203.1,218.5,203,219.3,203.5,219.4z"/>
			<path fill="#FFD600" d="M205.6,226.5c0.3-1-2.3-0.9-2.7-0.8c-0.3,0-0.3,0.4-0.1,0.5C203.2,226.8,205.4,227.5,205.6,226.5z"/>
			<path fill="#FFD600" d="M205.6,234.3c0.6,0,0.6-0.9,0-1c-0.6,0-1.9-0.1-2.3,0.4c-0.1,0.1-0.1,0.2,0,0.2
				C203.7,234.5,205,234.4,205.6,234.3z"/>
			<path fill="#FFD600" d="M207.1,241.5c0-0.1,0-0.2,0-0.3c-0.3-0.3-0.6-0.3-1-0.3c-0.5,0-1,0-1.5,0.2c-0.3,0.1-0.3,0.5,0,0.7
				C205.3,242.1,206.7,242.2,207.1,241.5z"/>
			<path fill="#FFD600" d="M208.4,248.4c-0.5,0-1.2,0.1-1.7,0.4c-0.2,0.1-0.2,0.4,0,0.6c0.5,0.3,1.3,0.2,1.8,0.1
				C209.1,249.3,209,248.3,208.4,248.4z"/>
			<path fill="#FFD600" d="M177.5,264.1c0.4-0.1,0.9-0.1,1.3-0.2c-0.5-2.2-1-4.3-1.8-6.4c-0.1-0.3-0.5-0.2-0.5,0.1
				c1,12.4,2.2,24.7,2.7,37.2c0.6,13.9,4.4,34.7-4.6,46.2c-0.1,0.2-0.2,0.4-0.2,0.6c0.2-0.1,0.5-0.2,0.7-0.4
				c0.7-0.4,1.3,0.7,0.6,1.1c-0.3,0.1-0.5,0.3-0.8,0.4c0.4,0.3,0.9,0.3,1.2-0.2c8.1-10.5,5.7-25.8,5.1-38.3
				c-0.6-12.3,0.3-26.5-2.2-39c-0.5-0.1-1.1-0.2-1.6-0.3C177.1,264.8,177.1,264.1,177.5,264.1z"/>
			<path fill="#FFD600" d="M177.5,264.1c-0.4,0.1-0.4,0.7,0,0.8c0.5,0.1,1.1,0.3,1.6,0.3c-0.1-0.4-0.2-0.9-0.3-1.3
				C178.3,264,177.9,264,177.5,264.1z"/>
			<path fill="#FFD600" d="M170.2,216.4c-0.1-0.1-0.2,0-0.2,0.1c4.7,11.9,4.2,24.1,6.8,36.4c0,0.2,0.4,0.2,0.4-0.1
				c-0.4-6.4-0.8-12.7-1.6-19C175,229.2,174.6,219.5,170.2,216.4z"/>
		</g>
		<g>
			<path fill="#F4B980" d="M302.3,147.9c0.3-1.7,5.7-12.2,2.8-13.5c-0.7,0.2-1.4,0.2-2.1,0.7c-0.6,0.4-1.2,0.9-1.7,1.5
				c-0.8,0.9-1.5,1.9-2.3,2.8c-0.1,0.4-0.3,0.9-0.6,1.2c-0.2,0.2-0.5,0.1-0.5-0.1c-0.6-1.8,0.5-4.7,0.7-6.5c0.1-0.8,0.2-1.7,0-2.6
				c-0.2-1-0.8-1.4-1.5-1.9c-1.7,0.8-2.8,2.7-3.4,4.6c-0.3,1.1-0.5,2.7-1.3,3.6c0,0,0,0-0.1,0.1c-0.1,0.1-0.1,0.1-0.2,0.2
				c-0.1,0-0.2,0-0.2-0.1c0,0,0-0.1,0-0.1c0,0-0.1,0-0.1-0.1c-0.8-1.8-0.4-4.2-0.2-6c0.1-1,1-4,0-4.7c0,0,0-0.1-0.1-0.1
				c-3.8-0.9-6.2,6.5-7.6,9.1c0,0.1-0.1,0-0.1,0c0-0.1,0-0.1,0-0.2c-0.1,0-0.1-0.1-0.2-0.1c-0.5-1.3,0.1-3.1,0.1-4.5
				c0-2-0.2-4.2-2.2-5.1c0,0,0,0,0,0c-3.3,1.1-4.4,5.6-5.1,8.8c-0.3,1.6-0.6,3.2-0.8,4.9c0,0.3,0,0.6-0.1,0.9c0.6,0.4,1,0.9,1.3,1.4
				c0.1,0.2-0.1,0.4-0.3,0.3c-2-0.6-3.7-2-5.8-2.4c-1.2-0.2-3.6-0.7-4.6,0.5c-1.2,1.4-0.4,3.7,0.4,5.1c1.9,3.5,6,8.3,4.8,12.7
				c0.1,0.1,0.1,0.2,0.1,0.3c-0.1,6.8-4.9,15.9-8.6,21.3c-4.8,7-10.6,13.2-17.4,18.2c-7.3,5.5-15.6,11.9-24.3,14.9
				c-3.3,1.1-8.6,3.5-12.4,2.9c1.5,4.8,0.2,11.5,0.6,16.5c0.7,7.2,2.3,13.9,4,20.8c12.3-1.7,26.6-9.3,36.8-16.1
				c11.1-7.4,20.4-17.2,27.4-28.6c6.7-10.9,11.9-22.6,16.2-34.6c3-8.3,4.8-17.7,8.8-25.6C302.6,148.4,302.3,148.2,302.3,147.9z
				 M286.8,153.5c-2.1-3.6-4.3-6.8-7.8-9.1c-0.2-0.1-0.1-0.4,0.1-0.3c3.7,1.3,7.4,5.2,8.3,9.2C287.6,153.6,287,153.9,286.8,153.5z"
				/>
			<path fill="#F4B980" d="M213.1,253.4c0.1,0,0.3,0,0.4-0.1c-1.6-7-3.3-13.6-4-20.8c-0.5-5,0.9-11.7-0.6-16.5
				c-0.2,0-0.4-0.1-0.6-0.1c-1,11.4-1.4,27.8,4.2,38.2C212.5,253.7,212.7,253.5,213.1,253.4z"/>
			<path fill="#F4B980" d="M208.7,215.5c0.1,0.1,0.1,0.3,0.1,0.4c3.8,0.5,9.1-1.8,12.4-2.9c8.7-3.1,17-9.4,24.3-14.9
				c6.8-5.1,12.6-11.2,17.4-18.2c3.7-5.4,8.6-14.5,8.6-21.3c0-0.1,0-0.2-0.1-0.3c-0.1,0.4-0.3,0.9-0.5,1.3c-0.1,0.1-0.2,0.1-0.3-0.1
				c-0.1-0.5-0.1-1-0.1-1.4c-0.1,0.1-0.2,0.2-0.2,0.3c-3.2,16.6-14.5,30.5-27.4,40.2c-6.2,4.6-12.9,8.9-19.7,12.4
				c-4.9,2.5-10.2,2.8-15.4,4.5c-0.2,0-0.2,0.3,0,0.3c0.1,0,0.2,0.1,0.4,0.1c0-0.1,0-0.2,0-0.2C208.3,215.3,208.6,215.3,208.7,215.5
				z"/>
			<path fill="#F4B980" d="M208.7,215.5c-0.1-0.3-0.5-0.2-0.5,0.1c0,0.1,0,0.2,0,0.2c0.2,0,0.4,0.1,0.6,0.1
				C208.8,215.8,208.8,215.7,208.7,215.5z"/>
			<path fill="#F4B980" d="M304.1,146c-0.4,0.8-0.8,1.5-1.1,2.2c0,0.1-0.1,0.1-0.2,0.1c-4,8-5.8,17.3-8.8,25.6
				c-4.3,12.1-9.6,23.7-16.2,34.6c-7.1,11.5-16.3,21.3-27.4,28.6c-10.3,6.8-24.6,14.4-36.8,16.1c0.1,0.2,0.1,0.4,0.2,0.6
				c0.1,0.6-0.7,1-1,0.4c-0.1-0.1-0.1-0.2-0.2-0.4c-0.1,0.4,0.1,0.8,0.7,0.8c4.8-0.1,10.1-2.9,14.5-4.6c6.6-2.5,13-5.8,19.3-9.2
				c10.5-5.6,19.7-14.3,26.8-23.9c7.6-10.4,13.4-21.8,18.3-33.8c5-12.1,7.8-24.9,12.5-37.1C304.6,146,304.3,145.8,304.1,146z"/>
			<path fill="#F4B980" d="M213.6,254c0-0.2-0.1-0.4-0.2-0.6c-0.1,0-0.3,0-0.4,0.1c-0.4,0-0.6,0.3-0.7,0.6c0.1,0.1,0.1,0.2,0.2,0.4
				C212.9,255,213.8,254.6,213.6,254z"/>
		</g>
		<path fill="#CD6273" d="M140,169.9c-15.7-17.3-37.3-7.7-37.3-7.7c4.5,11.5,14.5,11.3,20.2,12.1C131.2,175.4,140,169.9,140,169.9z"
			/>
		<path fill="#B1B1B1" d="M103.2,161.9c-3.5,1.3-3.4-17.7-3.4-17.7s14.5,2.3,19.4,1.7c0,0,32-0.8,33-1.2c1-0.5,0.1,19.5-12.2,24.5
			C140,169.2,126.4,153.3,103.2,161.9z"/>
		<path fill="#F4B980" d="M107.6,204.8c0,0,7.6,4.3,15.6,24.6c0,0,4.8-16.2,15.3-23.8"/>
		<path fill="#F8B133" d="M128.4,325.6c0.3-4.2,1.1-7.9,2.7-11.8c0.8-2,1.3-3.9,1.6-5.8c-0.4-3.6-1.1-7.1-2.6-10.7
			c-0.6-1.5-1.3-2.9-2.1-4.4c-13-7.3-20.7-20.8-20.3-36c0.1-4.6,0.6-9.2,1.6-13.7c0.8-3.9,2.6-8.1,2.7-12.1c0.3-8.5-1.6-16.6-3-24.9
			c0-0.1,0-0.2,0-0.3c-2.1-1.5-4.4-2.1-7.3-1c-1.6,0.6-6.4,1.8-7.4,3.5c-0.3,0.5-1.1,0.5-1.4,0c0-0.1-0.1-0.1-0.1-0.2
			c-0.3-0.5-0.1-1,0.3-1.3c3.7-2.8,10.1-6.4,15.1-5.2c-0.1-0.3-0.2-0.7-0.2-1.1c0-1.3,0.2-2.6,0.5-3.9c0-0.8,0-1.6,0.1-2.4
			c0-0.5,0.2-1,0.4-1.4c-0.1-0.2-0.1-0.4-0.2-0.6c0-0.1-0.1-0.1-0.1-0.2c-0.7-1.2-0.7-2.2-0.3-3.1c0,0-0.1,0-0.1,0
			c0,0.1,0,0.1,0,0.2c-1.2-0.3-2.3-0.7-3.5-1.1c0.3-0.2,0.1-0.7-0.3-0.6c-0.3,0.1-0.5,0.2-0.8,0.2c-4.8,1.3-8,5.3-10.7,9.4
			c-0.4,0.7-0.9,1.4-1.4,2.3c-9.4-0.4-19.5,5.6-27.4,10.3c-8.1,4.8-16.1,11.4-21.8,19.1c-2.2,3-16.4,21.1-13.9,26.1
			c-1.5,3.5-2.1,7.6-1.4,11.4c0,0.1,0.1,0.2,0.1,0.2c0,0.1,0,0.2,0.1,0.3c5.9,5.9,14.2,9.8,22.5,12.2c-2.8-1.2-7.2-3.1-8.8-4.2
			c-0.3-0.1-0.6-0.2-0.9-0.3c0,0,0,0,0,0c-0.2,0.1-0.5,0.1-0.7,0c0,0,0,0,0,0c-0.2-0.1-0.3-0.3-0.3-0.4c-1-0.5-1.9-1-2.7-1.3
			c-0.4-0.2-0.4-1,0.1-0.9c1.5,0.1,2.8,0.9,4.2,1.1c0.8,0.1,1.6,0.2,2.1,0.6c2.9,0.7,5.7,1.9,8.8,2.2c2.5,0.3,5.3,0.4,7.8,1.1
			c0.4,0,0.8-0.1,1.2,0c0,0,0.1,0,0.1,0c0.5,0,1.1,0,1.6,0c1.4,0,1.4,2.2,0,2.1c-0.2,0-0.5,0-0.7,0c0,0.5-0.3,1-0.8,1.5
			c-0.6,0.4-1.3,0.6-2,0.7c0.5,0.1,0.9,0.2,1.4,0.3c-1,5.6,1.3,48.5,2.1,51.4c0.9,3.2,2,7.8,4.4,10.1c0.1,0.1,0.3,0.1,0.4,0.1
			c12.9,6.3,27.7,9.3,41.8,10.5c0,0,0,0,0.1,0c0.1,0.2,0.5,0.2,0.5-0.1l0.1-3.1c3,0.4,6.2-0.2,9.2-0.5c3.4-0.3,6.8,0,10.2,0.4
			c0,0.1,0.1,0.2,0.1,0.3c-0.1-0.5-0.1-0.9-0.1-1.4c-0.4-0.5-0.7-1-0.9-1.6c-0.6-1.8-0.7-3.9-0.2-5.9c-0.9-3.9-0.6-8.5,0.5-12.8
			C128.3,327.6,128.3,326.6,128.4,325.6z M67.2,248.9c-0.1,0.5-0.8,0.3-0.8-0.1c0-3.9-0.2-7.8-0.4-11.7c-0.7,4.7-0.6,9.7-0.6,14.5
			c0,2.8-0.4,5.5-0.8,8.2c0.2,0,0.4,0.1,0.4,0.4c0.1,1.1,0,2.2-0.2,3.3c0.1,0,0.2,0.1,0.2,0.2c0.2,1.9-0.2,3.8-0.4,5.7
			c-0.1,1.5-0.1,3.1-0.6,4.5c-0.1,0.3-0.5,0.3-0.6,0c-0.4-1.5-0.1-3.1,0.1-4.7c0-0.2,0.1-0.4,0.1-0.7c-0.1,0.4-0.3,0.9-0.4,1.3
			c0,0.5-0.1,1.1,0,1.6c0,0.9-1.3,0.8-1.4,0c-1-7.7,1.8-15.8,2-23.6c0.1-4.9,0.1-9.9,1.9-14.6c-0.1-1.9-0.3-3.8-0.4-5.8
			c0-0.6,0.9-0.7,1-0.1C67.7,234.4,68.6,242,67.2,248.9z"/>
		<path fill="#F4B980" d="M138.2,205.5l0.2-15.2c0,0-12.7,2.8-30-1c0,0-0.1,10.8-0.8,15.6"/>
		<path fill="#F4B980" d="M29.1,268.6c0,0-2.1,27,16.1,42.5c0,0,9.1,12.3,35.9,14.7c0,0,32.4,3.1,46.1-14.4c0,0,4.4-5.9,3-9.9
			c0-0.1-0.1-0.2-0.1-0.3c0,0,1.4-6.1-3-6.7c0,0-2.1-5.8-4.8-5.2c0,0,0.8-4.8-3.4-4.2c0,0-5.1,9.3-8.8,10c0,0,2.6-7.6-1.2-6.8
			c0,0-10.6,13.2-26.8,10.9c0,0-14.6,1-22-17.7C60.2,281.5,36.4,276.2,29.1,268.6z"/>
		<path fill="#F8D5B3" d="M177.9,148.9L177.9,148.9c-0.2-0.4-0.5-0.8-1.2-0.8c-2,0-2.7,3.7-3.2,5.1c-3.2,8.7-8.1,14.3-16.1,19
			c-1.4,0.8-0.4,3.3,1.1,2.6c6.7-2.7,11.7-8,15.2-14.2c1.2-2.1,1.9-4.3,2.7-6.6C177,152.6,178.3,150.5,177.9,148.9z"/>
		<path fill="#F8D5B3" d="M192.7,100.7c-0.4-0.2-0.8,0.4-0.6,0.7c1.7,2.3,4.1,3.7,4.6,6.7c0.2,1,1.9,0.8,1.7-0.2
			C198.2,105,195.4,101.8,192.7,100.7z"/>
		<path fill="#F8D5B3" d="M176.3,70.8c-0.3-1.6-1.4-3-2.6-4c-1.2-1-2.7-1.6-4.1-2.2c-1-0.4-2.7-1.3-3.8-0.9c-0.1,0-0.2,0.1-0.2,0.3
			c0.2,1.8,3.9,2.6,5.2,3.4c1.3,0.7,2.4,1.8,3,3.1c0.5,1.4-0.1,3,0.9,4.2c0.2,0.2,0.5,0.2,0.7,0.1C176.8,74.2,176.6,72.2,176.3,70.8
			z"/>
		<path fill="#F8D5B3" d="M133.4,122.9c-1.2-2.1-4.1-4.2-6.6-4.2c-0.8,0-1,1-0.4,1.4c0.9,0.7,1.9,1.1,2.8,1.7
			c0.9,0.7,1.7,1.5,2.4,2.4C132.5,125.2,134,124,133.4,122.9z"/>
		<path fill="#594A48" d="M181.8,42.6c-1.8-5.3-6-9.1-10.8-11.7c-4.3-2.4-11-4.4-15.8-2.8c-0.7,0.2-0.9,1.5,0,1.6
			c4.8,0.7,9.1,0.6,13.7,2.8c4.9,2.3,8.4,6.2,10.6,11.2C180,45,182.2,44,181.8,42.6z"/>
		<path fill="#594A48" d="M190,78.2c-0.2-1.8-0.1-3.6-0.5-5.3c0-0.2-0.3-0.2-0.4,0c-0.7,1.6-0.3,3.7-0.2,5.4
			c0.2,2.3,0.5,4.7,1.7,6.8c0.1,0.2,0.5,0.1,0.4-0.2C190.6,82.7,190.2,80.5,190,78.2z"/>
		<path fill="#FFEB85" d="M151.5,202.3c-0.7-1.1-1.4-2.2-2-3.4c-0.2-0.5-0.5-0.9-0.7-1.4c-0.1-0.3-0.5-1-0.5-0.6
			c0-0.3-0.4-0.5-0.7-0.3c-1.2,1.3,0.1,3.3,0.7,4.6c0.7,1.3,2.1,4.9,4,4.9C154.3,206.2,151.8,202.8,151.5,202.3z"/>
		<path fill="#FFE666" d="M207,221.5c-0.1-0.4-0.6-0.4-0.8-0.2c0,0-0.1-0.1-0.1-0.1c-0.2,0-0.2,0.3,0,0.3c0,0,0,0,0,0
			c0,0.1-0.1,0.1-0.1,0.1c-0.1,2-1.6,5.2-0.1,6.9c0.1,0.1,0.3,0,0.3-0.1c0.3-1.1,0.4-2.4,0.6-3.6C207,223.8,207.3,222.6,207,221.5z"
			/>
		<path fill="#FFEB85" d="M199.1,241.1c-0.8-4.3-0.5-8.2-0.6-12.5c0-0.6-0.9-0.9-1.1-0.3c-1.6,3.7-1.3,7.9-0.8,11.9
			c0.4,3.3,0.6,7.7,2.8,10.4c0.2,0.2,0.5,0.1,0.6-0.1C201,247.5,199.6,244,199.1,241.1z"/>
		<path fill="#FFEB85" d="M171.7,242.2c0.1-2.6,0-5.3-0.3-7.9c-0.3-2.2-1.1-7.9-4.4-7.5c-0.5,0.1-0.7,0.6-0.2,0.9
			c3.3,2.1,2.8,7.3,2.8,10.6c0,2-1,6.6,0.6,8.2c0.2,0.2,0.7,0.3,0.9,0C172,245.5,171.7,243.5,171.7,242.2z"/>
		<path fill="#FFEB85" d="M176.6,286.4c-0.2-4.6-0.7-9.5-3.4-13.3c-0.4-0.5-1.4-0.2-1.1,0.5c1.8,4.5,1.8,9.3,1.7,14
			c0,5.1,0.2,10.1,0.4,15.2c0.2,7.5,0.5,16-1.8,23.1c-0.3,1,0.8,1.7,1.7,1.3c2.8-1.5,2.8-5.9,2.9-8.6c0.2-4.7,0.3-9.6,0.3-14.3
			C177.2,298.3,176.8,292.3,176.6,286.4z"/>
		<path fill="#F8B133" d="M204.4,236.8c-1.2-4.7-1.8-10.1-0.5-14.6c-0.1-3.3,0.2-6.3,0.9-8.9c-0.7-0.2-1.4-0.4-2.2-0.4
			c0-0.2-0.1-0.4-0.3-0.6c-0.1,0-0.2-0.1-0.2-0.1c-1.4,6.6-1.4,14.6-1.1,21.3c0.3,6.3,2,12.4,1.8,18.6v0c0.1,0.5,0.3,0.9,0.5,1.3
			c0.6,0.8,1.2,1.6,1.7,2.4c0.1,0.1,0.2,0.2,0.3,0.4c0.5,0.5,0.8,1.1,1,1.7c0.3,0.3,0.6,0.5,0.9,0.8c0.3-0.1,0.5-0.3,0.6-0.6
			c1.4-0.1,3.4-0.9,4.7-2.1C208.7,250.1,205.9,242.6,204.4,236.8z"/>
		<path fill="#F8B133" d="M134.3,208.9c-1,1.4-2,2.9-2.9,4.4c3.4-1.3,7.3-2.3,10.6-1.3c2.3-0.1,4.5-0.1,6.7,0.2
			c1.4,0.2,4.3,1.1,7.1,1.7c0.3-0.2,0.6-0.3,1-0.4c-0.7-0.2-1.3-0.7-1.9-1.4c-0.1,0-0.3,0-0.4,0c-1.5-0.1-2.6-1-3.2-2.1
			c-0.4-0.4-0.8-0.9-1.3-1.5c-2.4-1.6-4.5-3.9-5.9-6.2c-0.6-1-0.7-2.1-0.4-3c-0.8-2.3-0.4-4.7,1.1-7c0.2-0.7,0.5-1.2,0.9-1.8
			c-0.7-0.5-1.4-0.8-2.2-1c-0.6-0.1-1.2-0.2-1.8-0.1c-0.1,0-0.1,0.2,0,0.3c0.1,0.1,0.3,0.1,0.4,0.2c-1.1,0.3-2.1,0.6-3.2,0.8
			c0-0.1,0-0.2,0-0.3c0-0.3-0.3-0.4-0.5-0.4c0,0.3,0.1,0.5,0.1,0.8c0,1.1,0,2.2-0.1,3.3c0,0.8-0.2,1.5-0.6,2.1
			c0.1,0.9,0.1,1.8,0,2.8c0,0.4-0.2,0.8-0.3,1.1c0.3,1.8,0.5,3.6,0.7,5.5C138.3,207.9,136.2,209.1,134.3,208.9z"/>
		<path fill="#F8B133" d="M178.1,247.9c-0.7-3.9-0.6-8-0.2-12.1c-0.7-3.7-2-7.5-4-10.6c0.4,4,0.3,8.1,0.1,12.1
			c1.2,3.3,2.4,7.3,2,10.6c0.2,0.6,0.4,1.1,0.5,1.6c0.7,2.9,1,6,1.3,8.9c0.2,1.8,0.7,4.1,0.2,5.9c0.4,0.6,0.8,1.2,1.2,1.8
			c-0.1-0.3-0.1-0.6-0.2-0.9c5.6,1,12.3-0.5,18.4-2.6C189,261.3,179.6,256.4,178.1,247.9z"/>
		<path fill="#2F1D1A" d="M113.1,109.5c-0.8,0.7-1.6,1.4-2.4,2l4.7,0.3C114.5,111.1,113.7,110.3,113.1,109.5z"/>
		<path fill="#B78B60" d="M72.3,102.2c2.3,1.4,4.6,2.9,6.5,4.8c2.5,2.4,2.7,5.4,1.7,7.8c0.2-0.1,0.5-0.2,0.8-0.1
			c0.8-2.8,3.1-5.2,6.7-5.7c0,0,0,0,0.1,0c-0.1,0-0.1,0,0,0c4.3-2.1,10.3-2.4,14.9-2.2c0.6,0,1.1,0,1.7,0.1c0,0,0,0,0.1,0
			c1.1-0.2,2.2-0.4,3.4-0.5c3.3-0.4,6.1,2.2,7.2,5.2c0.8,1.5,1.1,3.4,0.8,5.2c0.5-0.4,1.1-0.9,1.8-1.2c3.2-1.7,6.7-2.9,10.3-3.1
			c4.1-0.3,8.2,1.3,12.3,1.7c0.4-0.3,0.9-0.4,1.5-0.1c0.1,0.1,0.2,0.1,0.3,0.1c0.2,0,0.4,0,0.5,0c0.1,0,0.1-0.1,0.2-0.1
			c0.7-1,1.7-1.9,3.1-2.4c0.1-0.4,0.4-0.8,0.9-0.9c4.7-1.7,9.9-2.7,15-2.8c1.1-0.2,2.1-0.2,3.1-0.2c0.6-0.2,1.8-0.5,2.3-0.7
			c2.3-0.6,4.2-0.2,5.7,0.7c0.8-0.5,1.6-1.1,2.4-1.5c0.2-0.2,0.5-0.5,0.7-0.7c0.9-1.1,1.6-1.7,2.4-2c1.4-1,2.9-1.9,4.7-2.6
			c-0.1-1.1-0.3-2-0.3-2.6c0,0,0,0,0,0c0-0.1,0-0.2,0-0.3c-0.1-0.4-0.2-0.7-0.3-1.1c-5,2.7-10.6,3.9-17.1,4.3
			c-3.7,0.2-7.4,0.3-11.1,0.4c-2,0-4.1,0.1-6.1,0.3c-0.7,0.1-1.3,0.2-2,0.4c-1.1,2.8-3.8,5-7,4.9c-4.9-0.2-9.8,0.1-14.7,0.5
			c-3.5,2.2-8.4,2-10.6-2.4c-2-4.1-19.7-1.4-24-1.8c-5.4-0.5-13.2-2.9-17.1-7.5c-0.3,0.6-0.6,1.2-0.9,1.9c0,0,0,0,0,0.1
			c0,0.2,0.2,0.4,0.4,0.2c0,0,0,0,0,0.1l-0.7,2.6C72,101.2,72.2,101.7,72.3,102.2z"/>
		<path fill="#B78B60" d="M85.7,124.3c2.8,0.9,6.4,0.9,10.1,0.5c-0.1-0.4,0-0.8,0.4-1c0.2-0.1,0.4-0.2,0.6-0.3
			c-2.6,0.2-5.3,0.5-8,0.7c-0.9,0.1-1.8-0.1-2.6-0.4C86.2,124,86,124.2,85.7,124.3z"/>
		<path fill="#B78B60" d="M112.1,123.1c-1.4,1.6-4.6,2.1-6.2,2.3c-0.3,0-0.6-0.1-0.8-0.3c-8.5,2.6-20.1,4.3-24.9-1.3
			c0,0.1,0,0.2,0,0.4c0,0.6,0,1.1,0,1.7c0.3,1.7,1.3,3.2,4.2,3.7c2.5,0.4,4.9,0.6,7.4,0.5c4.3-0.2,8.7-0.2,12.9-0.7
			c3.8-0.4,6.4-1.3,8.7-3.7C112.8,124.8,112.4,123.9,112.1,123.1z"/>
		<path fill="#B78B60" d="M147.1,186.5c-10.4,1.6-21.6,0.8-31.5-2.8c-13-4.7-31.4-14.4-35.2-28.9c-1.4-2.4-2.6-5-3.7-7.7
			c-1.7-2.6-3.1-5.4-4.2-7.8c-2.1-4.8-3.8-9.7-3.7-14.8c-0.2-0.4-0.3-0.8-0.5-1.3c-0.9-0.8-1.7-1.7-2.3-2.7c0,0,0,0,0,0
			c-0.2,0.1-0.4,0.1-0.6,0.2c0.1,0,0.3,0,0.6-0.1c1.3,15.7,3,32.1,11.3,45.4c10.4,16.8,31.1,26.3,50.3,25.2
			c7.2-0.4,14.6-2.2,21.5-5.1C148.5,186.3,147.8,186.4,147.1,186.5z"/>
		<path fill="#B78B60" d="M169.8,123.9c-0.4,0.2-0.8,0.3-1.2,0.4c-3.3,0.5-6.4,0.5-9.7,0.3c-1.1,0-2.2-0.1-3.3-0.1
			c-1.1,0.2-2.3,0.3-3.4,0.4c-2.4,1.1-5,0.6-7-0.6c-0.5-0.2-1-0.5-1.4-0.8c-0.4,0.4-0.7,0.8-1.2,1.2c0,0.6-0.3,0.8-0.7,1.2
			c-0.1,0.1-0.2,0.3-0.3,0.4c-0.2,1.2-0.1,2.3,0,3.4c7.4,2.4,20.1-1.2,28.8-4.3C170,125,169.7,124.5,169.8,123.9z"/>
		<path fill="#B78B60" d="M188.7,122.9c0.3,0.9,0.6,1.7,0.9,2.6c0-0.3,0.1-0.5,0.1-0.8c0-0.1,0-0.2,0.1-0.3
			c6-0.9,10.1-5.2,11.3-10.7c-2.7,1.2-5.5,2-8.8,2.1c-1.2,0-2.2-0.2-3.1-0.6C189.2,117.7,189,120.3,188.7,122.9z M190,119.2
			c0,0.4,0,0.8,0,1.2C189.5,120.2,189.5,119.4,190,119.2z"/>
		<path fill="#B78B60" d="M65.6,120.7c-0.1,0-0.1,0-0.2,0.1c0.2-1,0.2-3,0.2-5.1c-1.4-0.9-2.8-1.7-4.2-2.6c0-0.2,0-0.4-0.1-0.5
			c-0.8-0.8-1.1-2.3-1.2-3.5c0-0.5-0.1-1.1-0.1-1.6c0-0.2-0.2-0.9-0.2-0.8c0-0.2-0.1-0.3-0.2-0.3c0-0.1-0.1-0.2-0.2-0.3
			c0,0-0.1,0-0.1,0c0,0,0,0,0,0c0,0,0,0,0,0c-1.5-0.1-1.9,1.1-2,2.5c0,0.5,0.1,1.3,0.3,2c-2.1-1.6-4-3.3-5.6-5.3
			c-0.2,1.2-0.3,2.4-0.3,3.5c-0.3,7.7,5.5,15.3,13.2,13.1c0.1,0,0.7-0.1,0.7-0.2C65.5,121.4,65.6,121.2,65.6,120.7z"/>
		<path fill="#B78B60" d="M264.2,224.9c-8.8,5.5-17.4,11.1-27,15.2c-8.3,3.5-17.9,6.9-27.4,7.5c0.7,2.3,1.5,4.5,2.6,6.5
			c-0.1,0.4,0.1,0.8,0.7,0.8c4.8-0.1,10.1-2.9,14.5-4.6c6.6-2.5,13-5.8,19.3-9.2c9.3-5,17.7-12.4,24.4-20.8
			C269,222,266.5,223.4,264.2,224.9z"/>
		<path fill="#B78B60" d="M233.4,211.6c6.6-5.5,13.1-11,19.4-16.9c2.4-2.2,4.5-5.1,6.9-7.5c1.3-2.2,2.5-4.4,3.6-6.7
			c2-3.9,3.3-7.4,3.5-11c-5.1,11.7-14,21.6-24,29.1c-6.2,4.6-12.9,8.9-19.7,12.4c-4.9,2.5-10.2,2.8-15.4,4.5c-0.2,0-0.2,0.3,0,0.3
			c0.1,0,0.2,0.1,0.4,0.1c-0.1,1.6-0.3,3.2-0.3,5C216.8,218.8,225.2,215.8,233.4,211.6z"/>
		<path fill="#CD6273" d="M140,169.9c-15.7-17.3-37.3-7.7-37.3-7.7c4.5,11.5,14.5,11.3,20.2,12.1C131.2,175.4,140,169.9,140,169.9z"
			/>
		<path fill="#A1887F" d="M103.2,161.9c-3.5,1.3-3.4-17.7-3.4-17.7s14.5,2.3,19.4,1.7c0,0,32-0.8,33-1.2c1-0.5,0.1,19.5-12.2,24.5
			C140,169.2,126.4,153.3,103.2,161.9z"/>
		<path fill="#B78B60" d="M131.2,194.8c1-1.4,2.2-2.1,3.4-2.2c0.6-0.4,1.1-0.9,1.7-1.4c0.3-0.3,0.7-0.5,1-0.7
			c-3.4,0.6-14.6,2-28.9-1.2c0,0,0,7.7-0.5,13C115.6,200,124.1,198.8,131.2,194.8z"/>
		<path fill="#B78B60" d="M124.1,219.8c-2.2-0.5-3.6-1.9-4.4-3.5c-1.3-0.6-2.5-1.1-3.7-1.5c2.2,3.6,4.6,8.3,7,14.5
			c0,0,1.3-4.3,4-9.6C126.2,220,125.2,220.1,124.1,219.8z"/>
		<path fill="#B78B60" d="M107.1,294c1-0.9,1.9-1.9,2.4-3c0.4-0.8,0.6-1.6,0.8-2.4c-0.1-0.1-0.1-0.1-0.2-0.1c-0.1,0-0.2-0.1-0.3-0.1
			c-0.3-0.1-0.5-0.1-0.9,0c0,0-10.6,13.2-26.8,10.9c0,0-14.6,1-22-17.7c0,0-3.2-0.7-7.5-2c0.2,2.7,1,5.3,2.3,7.7
			c2.1,2.7,4.3,5.2,6.3,7.7c0.3,0.4,0.6,0.7,0.9,1.1c7,6,16.6,9.5,24.8,8.6c0.1,0,0.1,0,0.2,0c4.2-1.6,8.2-3.4,12-5.6
			C101.8,297.5,104.5,295.8,107.1,294z"/>
		<path fill="#B78B60" d="M59.3,319.3c-13.7-9.7-25.3-28.1-22.6-45.6c-3.1-1.5-5.8-3.2-7.6-5c0,0-2.1,27,16.1,42.5
			c0,0,5.4,7.2,19.9,11.7C63.1,321.8,61.1,320.6,59.3,319.3z"/>
		<path fill="#B78B60" d="M195.4,106.9c-0.2-0.5-1-0.5-1,0.1c0,0.1,0,0.3,0,0.4c0,0-0.1-0.1-0.1-0.1c-0.1-0.2-0.3-0.4-0.5-0.5
			c-0.1-0.1-0.3,0-0.4,0.1c-0.3,0.4-0.3,1.1-0.3,1.7c0,0.3,0,0.6,0,0.9c0,0.2,0,0.3,0,0.5c-0.2,1-0.9,1.9-0.8,2.9
			c0,0.2,0.2,0.3,0.4,0.3c0.4-0.1,0.6-0.2,0.9-0.4c0,0.1,0,0.2,0.1,0.3c0.1,0.1,0.2,0.1,0.3,0.1c0.7-0.1,1-0.9,1.1-1.8
			c0.3,0.1,0.5,0,0.7-0.4C196.1,109.7,195.8,108.2,195.4,106.9z"/>
		<path fill="#A13D50" d="M128.6,161.4c-0.3,0.1-0.5,0.1-0.8,0.1c-0.1-0.4-0.4-0.8-0.9-0.8c-0.1,0-0.2,0-0.3,0c-2.1-0.8-4.2-1-6.3-1
			c-1.5-0.2-2.9-0.4-4.4-0.5c-1.5-0.1-3,0.1-4.5,0.5c-3,0.1-5.8,0.7-8.4,2.1c-0.5,0.3-0.5,0.9-0.2,1.2c0.2,0.2,0.5,0.5,0.7,0.7
			c0,0,0,0.1,0,0.1c0.5,2.8,3.4,4.6,5.6,6.2c0.1,0.1,0.3,0.1,0.5,0.1c-0.2,0.6,0.7,1.1,1.1,0.5c1.3-1.8,4-2.9,5.8-4.1
			c3.3-2,6.8-3.4,10.6-4c0,0,0,0,0,0c0.5,0,1.1,0,1.6-0.1C129.5,162.2,129.2,161.2,128.6,161.4z"/>
		<path fill="#E1A1AB" d="M132.6,165.7c-0.4-0.2-0.9,0.2-0.6,0.6c0.4,0.8,1.4,1.3,1.9,2.1c0.2,0.3,0.7,1.6,1.2,1.2
			C136.4,168.6,133.4,166,132.6,165.7z"/>
		<path fill="none" stroke="#E5322A" stroke-miterlimit="10" d="M108.3,189.6"/>
		<g>
			<g>
				<path fill="#1C1C1B" d="M69.3,109.4c1-0.8,1-2.3,1.3-3.4c-0.2,0-0.3,0-0.5,0.1c0,0,0.1,0.1,0.1,0.1c0.1,0.2,0.3,0.2,0.4,0
					c0.9-1.4,1.1-3.6,1.1-5.3c0-0.3-0.5-0.3-0.5,0c0,1.5-0.2,3.7-1.1,5c0.1,0,0.3,0,0.4,0c0,0-0.1-0.1-0.1-0.1
					c-0.1-0.2-0.4-0.2-0.5,0.1c-0.3,1-0.3,2.5-1.2,3.2C68.7,109.3,69,109.6,69.3,109.4L69.3,109.4z"/>
			</g>
		</g>
		<g>
			<g>
				<path fill="#1C1C1B" d="M70.7,103.7c-0.1,0.8-0.5,1.4-0.7,2.2c-0.1,0.3,0.4,0.4,0.5,0.1c0.2-0.8,0.6-1.5,0.7-2.3
					C71.2,103.4,70.7,103.4,70.7,103.7L70.7,103.7z"/>
			</g>
		</g>
		<g>
			<path fill="#F29100" d="M110.6,230.1c1.2,0.7,3.6-0.1,3.4-1.8c-0.1-0.8-0.6-1.6-1.2-2c-0.4-0.2-0.8-0.3-1.3-0.5
				C110.1,225.9,109.3,229.3,110.6,230.1z"/>
			<path fill="#F29100" d="M108.7,214.1c-1.6-1.5-5.1,3.5-1.9,4.2c1.6,0.4,3.4,0,3.4-2c0-0.8-0.3-1.6-0.9-2.1
				c-0.1-0.1-0.2-0.1-0.3-0.2C108.9,214.1,108.8,214.2,108.7,214.1z"/>
			<path fill="#F29100" d="M111.1,225c0.4-0.1,0.7,0,1.1,0.3c0,0,0.1,0,0.1-0.1c0.1,0,0.2,0,0.2,0.1c0,0.1,0.1,0.1,0.1,0.2
				c0.1,0.2-0.2,0.2-0.3,0.2c0,0,0,0,0.1,0.1c-0.1,0.2-0.2,0.2-0.4,0.2c-0.2-0.1-0.4-0.1-0.5-0.1c0.4,0.1,0.9,0.2,1.3,0.5
				c0.7,0.4,1.1,1.2,1.2,2c0.2,1.7-2.2,2.5-3.4,1.8c-1.3-0.7-0.5-4.2,0.9-4.3c-0.2-0.1-0.4-0.1-0.6-0.2c-0.2-0.1-0.2-0.3-0.1-0.4
				C111,225.1,111,225,111.1,225c-0.8,0.2-1.5,1.1-1.8,1.8c-0.6,1.5-0.7,3.6,0.9,4.4c2,1,4.8-0.4,4.9-2.7
				C115.2,226.8,112.8,223.6,111.1,225z"/>
			<path fill="#F29100" d="M110.9,225.6c0.2,0.1,0.4,0.1,0.6,0.2c0.2,0,0.3,0,0.5,0.1c0.2,0.1,0.3,0,0.4-0.2c0,0,0,0-0.1-0.1
				c0.1,0.1,0.3,0,0.3-0.2c0-0.1-0.1-0.1-0.1-0.2c0-0.1-0.1-0.1-0.2-0.1c-0.1,0-0.1,0-0.1,0.1c0.1,0.1,0.1,0.1,0.2,0.2
				c-0.1,0-0.3,0-0.4,0c0.1-0.1,0.1-0.1,0.2-0.2c-0.3-0.3-0.7-0.4-1.1-0.3c-0.1,0.1-0.1,0.1-0.2,0.2
				C110.8,225.3,110.8,225.5,110.9,225.6z"/>
			<path fill="#F29100" d="M112,225.5c0.1,0,0.3,0,0.4,0c-0.1-0.1-0.1-0.1-0.2-0.2C112.1,225.3,112.1,225.4,112,225.5z"/>
			<path fill="#F29100" d="M110.9,216.6c0.1-1.8-1.6-4.5-3.6-3.7c-0.1,0.1-0.1,0.2-0.1,0.3c0.7-0.3,1.4-0.1,1.8,0.7c0,0,0,0.1,0,0.1
				c0.1,0.1,0.2,0.1,0.3,0.2c0.6,0.5,0.8,1.3,0.9,2.1c0.1,2-1.8,2.4-3.4,2c-3.1-0.7,0.4-5.7,1.9-4.2c0.1,0.1,0.2,0,0.2-0.1
				c-0.5-0.3-1.1-0.4-1.7-0.6c-0.1,0-0.1-0.1-0.1-0.1c-2.1,0.7-4.5,4.7-1.1,6C108.2,220,110.7,219.2,110.9,216.6z"/>
			<path fill="#F29100" d="M109,214C109,214,109,213.9,109,214c-0.4-0.9-1.1-1-1.8-0.8c0,0,0,0.1,0.1,0.1
				C107.9,213.6,108.4,213.7,109,214z"/>
		</g>
		<path fill="#1C1C1B" d="M98.7,110.7c-1.5,0.3-2.7,0.4-3.8,1.8c-1.6,2.2-1.3,5.3,1.4,6.3c2.2,0.8,5.7,0,6.5-2.4
			c0.8-2.4-1.4-5.2-3.7-5.7c-0.9-0.2-1.9,0-2.8,0.4"/>
		<path fill="#FFFFFF" d="M99.2,112c-1.3,0.3-4,2.3-1.5,3.9c4.1,2.8,5.8-3.2,1.8-4"/>
		<g>
			<path fill="#1C1C1B" d="M85.9,99.8c1.3-0.1,2.5-1.1,3.6-1.8c1.6-1,3.1-2.1,4.7-3c0.7-0.4,0.2-1.4-0.5-1.2c-2,0.5-3.6,1.1-5.3,2.3
				c-1.1,0.8-2.5,1.9-2.8,3.3C85.4,99.6,85.6,99.8,85.9,99.8L85.9,99.8z"/>
		</g>
		<path fill="#1C1C1B" d="M157.3,109.9c-1.5,0.3-2.7,0.4-3.8,1.8c-1.6,2.2-1.3,5.3,1.4,6.3c2.2,0.8,5.7,0,6.5-2.4
			c0.8-2.4-1.4-5.2-3.7-5.7c-0.9-0.2-1.9,0-2.8,0.4"/>
		<path fill="#FFFFFF" d="M157.8,111.1c-1.3,0.3-3.9,2.2-1.5,3.9c4.1,2.8,5.8-3.2,1.8-4"/>
		<g>
			<path fill="#1C1C1B" d="M171.7,99.2c-0.3-1.4-1.6-2.6-2.6-3.5c-1.6-1.3-3.2-2-5.2-2.6c-0.7-0.2-1.2,0.8-0.6,1.2
				c1.5,1,3,2.3,4.5,3.3c1.1,0.8,2.2,1.8,3.5,2C171.6,99.7,171.7,99.4,171.7,99.2L171.7,99.2z"/>
		</g>
		<g>
			<path fill="#1C1C1B" d="M64.9,110.9c0.9,19.6,2.4,40.2,12.8,57.3c9.8,16.1,30.1,23.5,47.7,24c18.9,0.6,37-9.5,49.2-23.8
				c5.8-6.8,9-15,11.5-23.6c2.5-8.8,4.9-20.6,3.7-29.8c-0.1-0.9-1.4-1-1.4,0c0.5,16.3-3.4,34.8-12.2,48.4
				c-10.5,16.2-29.6,26-48.2,27c-19.2,1.1-39.9-8.4-50.3-25.2c-9.9-15.9-10.4-36.2-12-54.4C65.7,110.4,64.9,110.4,64.9,110.9
				L64.9,110.9z"/>
		</g>
		<g>
			<path fill="#1C1C1B" d="M63.9,96.5c-2.3-2.3-5.8-0.3-8,1.3c-3.2,2.3-4.5,6.5-4.7,10.3c-0.3,7.7,5.7,16.8,14.1,14
				c1-0.3,0.5-1.9-0.4-1.5c-6.6,2.3-10.9-3.1-12.2-9c-1.4-6.1,3.1-17.9,11-14.7C63.9,97,64,96.6,63.9,96.5L63.9,96.5z"/>
		</g>
		<g>
			<path fill="#1C1C1B" d="M58.8,105.1c-2.4,1.7-2.2,7.4,1.2,7.7c0.2,0,0.3-0.2,0.2-0.4c-1-1.3-2.4-2.5-1.9-4.4
				c0.2-0.8,1.2-2,0.8-2.8C59,105,58.8,105,58.8,105.1L58.8,105.1z"/>
		</g>
		<g>
			<path fill="#1C1C1B" d="M190.6,98c5.5,0.3,9.3,6.2,9.8,11.5c0.7,7.3-5.1,12-11.2,13.9c-0.6,0.2-0.6,1.3,0.2,1.3
				c8-0.7,13-8.7,12.2-16.5c-0.5-4.3-6-13.2-11.1-10.4C190.4,97.8,190.5,98,190.6,98L190.6,98z"/>
		</g>
		<g>
			<path fill="#1C1C1B" d="M194.5,106.6c0.2,1,0.6,1.8,0.7,2.9c0.1,1.2-0.5,2.1-0.7,3.3c-0.1,0.3,0.3,0.7,0.6,0.5
				c1.7-1.2,1.6-5.9-0.1-7C194.7,106.1,194.4,106.3,194.5,106.6L194.5,106.6z"/>
		</g>
		<g>
			<path fill="#1C1C1B" d="M62.6,96c0.5,0.2,1.1-0.1,1.6-0.2c0.5,0,1.2,0.2,1.7-0.1c0.1-0.1,0.1-0.2,0.1-0.3c-0.4-1-3.1-0.5-3.5,0.3
				C62.4,95.8,62.5,96,62.6,96L62.6,96z"/>
		</g>
		<g>
			<path fill="#1C1C1B" d="M65.3,95.5c0.2,0.9,4.8,1.6,5.6,1.9c3.5,1.1,7.1,2.5,10.6,3.2c0.1,0,0.2-0.2,0.1-0.2
				c-3.2-2-7.6-2.9-11.2-3.9C70.2,96.2,65.1,94.7,65.3,95.5L65.3,95.5z"/>
		</g>
		<g>
			<path fill="#1C1C1B" d="M62.9,96.2c4.8,4.2,12.3,5.7,17.9,8.7c0.5,0.3,0.9-0.4,0.4-0.7c-2.5-1.6-5.2-2.8-7.9-3.9
				c-3.4-1.4-6.8-3.1-10.3-4.3C63,96,62.9,96.1,62.9,96.2L62.9,96.2z"/>
		</g>
		<g>
			<path fill="#1C1C1B" d="M80.9,100.5c4.7-0.5,9.6,0.4,14.4,0.5c6.7,0.3,13.4,0,20,0.6c0.5,0,0.5-0.8,0-0.9
				c-6.7-0.6-13.4-0.4-20-0.7c-4.8-0.2-9.7-0.9-14.4,0C80.6,100,80.7,100.5,80.9,100.5L80.9,100.5z"/>
		</g>
		<g>
			<path fill="#1C1C1B" d="M115.4,127.6c0.5-5.1,0.6-10.2,0.6-15.4c0-0.6-0.9-0.6-0.9,0c0,2.6-0.1,5.2,0,7.8c0.1,2.5-0.8,5.1,0,7.6
				C115.1,127.9,115.4,127.8,115.4,127.6L115.4,127.6z"/>
		</g>
		<g>
			<path fill="#1C1C1B" d="M115.6,100.8c-0.3,0.7-0.4,1.5-0.5,2.3c-0.1,0.9-0.3,2.2,0,3.1c0.1,0.3,0.5,0.3,0.6,0
				c0.3-0.7,0.2-1.6,0.2-2.3c0-1,0.2-2,0.1-2.9C116,100.7,115.7,100.6,115.6,100.8L115.6,100.8z"/>
		</g>
		<g>
			<path fill="#1C1C1B" d="M189.7,96c-2.7,0.1-5.5,1.2-8.1,1.9c-1.9,0.6-4.1,1.1-5.8,2.2c-0.1,0.1,0,0.3,0.1,0.2
				c2-0.4,4-1.1,5.9-1.6c2.6-0.7,5.6-1.1,7.9-2.5C189.9,96.2,189.8,96,189.7,96L189.7,96z"/>
		</g>
		<g>
			<path fill="#1C1C1B" d="M192,97.2c-2.7,0.9-5.2,2.2-7.9,3.2c-2.7,1-5.4,2.1-7.9,3.7c-0.4,0.3-0.1,1,0.4,0.7
				c2.8-1.5,5.7-2.7,8.7-3.9c2.4-0.9,4.9-1.8,6.8-3.6C192.2,97.3,192.1,97.1,192,97.2L192,97.2z"/>
		</g>
		<g>
			<path fill="#1C1C1B" d="M176.5,99.8c-4.7-0.9-9.7-0.1-14.4,0c-6.7,0.3-13.4,0.1-20,0.7c-0.5,0-0.5,0.9,0,0.9
				c5.8-0.5,11.6-0.4,17.4-0.5c5.6,0,11.4-1.2,17-0.6C176.8,100.3,176.8,99.9,176.5,99.8L176.5,99.8z"/>
		</g>
		<g>
			<path fill="#1C1C1B" d="M142.3,127.5c0.7-2.1,0.1-4.3,0-6.5c-0.2-2.9,0-6,0-8.9c0-0.6-0.9-0.6-0.9,0c0,5.2,0,10.3,0.6,15.4
				C142,127.7,142.3,127.7,142.3,127.5L142.3,127.5z"/>
		</g>
		<g>
			<path fill="#1C1C1B" d="M141.4,100.8c-0.1,0.8,0,1.7,0.1,2.6c0.1,0.9-0.1,1.9,0.2,2.7c0.1,0.3,0.5,0.3,0.6,0
				c0.3-0.8,0.1-1.9,0.1-2.7c-0.1-0.9-0.2-1.9-0.5-2.7C141.8,100.4,141.5,100.6,141.4,100.8L141.4,100.8z"/>
		</g>
		<g>
			<path fill="#1C1C1B" d="M115.6,112.2c8.8-2.9,17.5-2.8,26.2,0.3c0.4,0.1,0.6-0.5,0.3-0.7c-7.4-3.6-19.3-4.2-26.6,0
				C115.2,111.9,115.4,112.2,115.6,112.2L115.6,112.2z"/>
		</g>
		<g>
			<path fill="#1C1C1B" d="M115.7,106.1c8.5-2,17.8-2.8,26.2,0.3c0.4,0.2,0.7-0.6,0.3-0.8c-8-3.6-18.5-2.6-26.7-0.1
				C115.2,105.6,115.4,106.2,115.7,106.1L115.7,106.1z"/>
		</g>
		<g>
			<path fill="#1C1C1B" d="M189.7,96.6c0.7,0.3,1.4,1.1,2.2,1.2c0.2,0,0.2-0.2,0.2-0.3c-0.3-0.7-1.5-1.3-2.3-1.4
				C189.5,96,189.5,96.5,189.7,96.6L189.7,96.6z"/>
		</g>
		<g>
			<path fill="#1C1C1B" d="M99.5,144.2c7.7,2.8,17.8,2.1,25.9,2.2c9.2,0.2,18.2-0.2,27.3-1.6c0.4-0.1,0.3-0.8-0.1-0.8
				c-17.4,0-35.6,3.4-52.9-0.5C99.2,143.4,99,144,99.5,144.2L99.5,144.2z"/>
		</g>
		<g>
			<path fill="#1C1C1B" d="M99.3,143.7c-0.1,8.9,0.2,16.3,5.7,23.5c5.4,7.1,16,8.2,23.9,7.4c13.9-1.5,26.3-15.7,24-30.3
				c-0.1-0.5-1-0.4-0.9,0.1c1,14.1-8,25.3-20.9,28.8c-7.7,2.1-14.7,0.3-21.6-3.5c-9.6-5.2-8.6-16.7-9.6-26
				C99.8,143.4,99.3,143.4,99.3,143.7L99.3,143.7z"/>
		</g>
		<g>
			<path fill="#1C1C1B" d="M102.3,162.5c12.8-5.1,27.4-3.4,36.9,7.3c0.3,0.4,1-0.1,0.7-0.6c-3.5-5.1-10.8-9.5-16.8-10.1
				c-6.4-0.6-15.6-1.4-21,3C102,162.3,102.1,162.5,102.3,162.5L102.3,162.5z"/>
		</g>
		<g>
			<path fill="#1C1C1B" d="M128.7,117.3c4.4,1.1,7.9,3.2,8.4,8.3c0.5,5.2-4.9,7.9-8.4,10.2c-0.6,0.4-0.2,1.3,0.5,1.1
				c5.3-0.9,9.7-6.9,9-12.3c-0.6-4.6-5.1-8.2-9.5-7.5C128.6,117.1,128.6,117.3,128.7,117.3L128.7,117.3z"/>
		</g>
		<g>
			<path fill="#1C1C1B" d="M64,96.9c2.1,2,3,4.3,3.7,7.1c0.4,1.9,0.1,4.5,1.1,6.2c0.1,0.2,0.3,0.1,0.4-0.1c0.8-2.1-0.3-5.7-0.9-7.8
				c-0.7-2.3-2-4.5-4-5.8C64,96.5,63.8,96.8,64,96.9L64,96.9z"/>
		</g>
		<g>
			<path fill="#1C1C1B" d="M69.1,109.9c2.2-2.6,3.1-5.9,3.3-9.2c0-0.5-0.7-0.5-0.7,0c-0.2,3.2-1,6.4-2.8,9
				C68.8,109.9,69,110.1,69.1,109.9L69.1,109.9z"/>
		</g>
		<g>
			<path fill="#1C1C1B" d="M72.8,97.2c3.2-4.9,2.4-13.1,3.3-18.6c1.5-9.2,8-16.9,16.7-19.4c0.3-0.1,0.2-0.6-0.1-0.5
				c-6.4,0.7-10.7,5.2-14.1,10.5c-5.4,8.6-2.5,18.9-6.3,27.8C72.3,97.2,72.7,97.5,72.8,97.2L72.8,97.2z"/>
		</g>
		<g>
			<path fill="#1C1C1B" d="M90,59.4c20.1-4.8,39.8,5.7,59.8,0c0.3-0.1,0.2-0.5-0.1-0.5c-5.7,0.4-11.3,1.6-17.1,1.4
				c-5.5-0.2-11-1.9-16.4-2.5c-8.5-1-18.3-2.3-26.4,1.4C89.8,59.2,89.9,59.5,90,59.4L90,59.4z"/>
		</g>
		<g>
			<path fill="#1C1C1B" d="M147.5,59.5c5.5,0.4,11.1-0.9,16.7-0.9c9.1,0,13.6,3.9,14.5,13.2c0,0.3,0.4,0.4,0.5,0.1
				c3-18.1-21.3-14.9-31.7-12.5C147.5,59.4,147.5,59.5,147.5,59.5L147.5,59.5z"/>
		</g>
		<g>
			<path fill="#1C1C1B" d="M178.8,69.1c-0.4,9.6,1.3,18.9,3.5,28.2c0.1,0.6,1,0.3,0.9-0.2c-1.2-4.8-2.1-9.6-2.8-14.5
				c-0.6-4.4-0.3-9.2-1.4-13.5C179.1,68.9,178.9,68.9,178.8,69.1L178.8,69.1z"/>
		</g>
		<g>
			<path fill="#1C1C1B" d="M183.9,100.9c-0.7,1-0.6,2.5-0.4,3.7c0.2,1.3,0.5,3.5,1.4,4.5c0.1,0.1,0.3,0.1,0.4-0.1
				c0.1-1-0.4-2.2-0.7-3.2c-0.4-1.7-0.4-3.2-0.5-4.9C184.1,100.9,184,100.9,183.9,100.9L183.9,100.9z"/>
		</g>
		<g>
			<path fill="#1C1C1B" d="M185.4,108.9c1.8-4,2.8-8.9,7-10.8c0.5-0.2,0.1-1-0.4-0.7c-4.5,2-5.6,7.1-7.3,11.3
				C184.5,109.1,185.2,109.3,185.4,108.9L185.4,108.9z"/>
		</g>
		<g>
			<path fill="#1C1C1B" d="M59.5,96.4c-0.2-4.5,1.1-9.9,1.7-14.4c1-8.3,3-16.2,5.8-24c6.1-17.4,19.8-30,38.1-30.9
				c0.3,0,0.4-0.5,0.1-0.6C91,23,77,36.4,70.2,47.7c-4.6,7.6-6.9,16.7-8.9,25.3C60,78.3,59.9,83.9,59,89.2c-0.4,2.6-0.9,4.7-0.3,7.3
				C58.8,96.9,59.5,96.8,59.5,96.4L59.5,96.4z"/>
		</g>
		<g>
			<path fill="#1C1C1B" d="M95.7,27.3c12.5-0.1,24.9,2.4,37.4,1c5.4-0.6,10.8-2.2,16.1-3.5c8.9-2.2,15.2-1.7,23.3,2.9
				c0.2,0.1,0.5-0.2,0.3-0.4c-7.9-8.1-19.3-4.9-28.9-2.4c-8.5,2.2-17,3.2-25.8,2.7c-7.6-0.5-14.9-2.4-22.4-0.4
				C95.5,27.1,95.6,27.3,95.7,27.3L95.7,27.3z"/>
		</g>
		<g>
			<path fill="#1C1C1B" d="M165.9,23.9c12.6,8.7,21.1,18.7,24.4,34.3c2.7,12.9,2.5,26.3,2.6,39.4c0,0.7,1.1,0.7,1.1,0
				c-0.2-26.2,0.3-62.1-28.1-73.9C165.9,23.7,165.9,23.8,165.9,23.9L165.9,23.9z"/>
		</g>
		<g>
			<path fill="#1C1C1B" d="M158.4,141.8c1,0,1-1.5,0-1.5C157.4,140.3,157.4,141.8,158.4,141.8L158.4,141.8z"/>
		</g>
		<g>
			<path fill="#1C1C1B" d="M108.2,189.3c-0.4,2.6-0.4,5.2-0.6,7.8c-0.2,2.6-0.7,5.3-0.7,7.9c0,0.4,0.6,0.5,0.7,0.1
				c1.2-4.8,1.6-10.9,0.9-15.8C108.4,189.2,108.2,189.2,108.2,189.3L108.2,189.3z"/>
		</g>
		<g>
			<path fill="#1C1C1B" d="M106.9,205.1c4.3,3.9,7.7,7.3,10.6,12.5c2.7,4.9,3.7,9.8,5.2,15.1c0.1,0.4,0.8,0.4,0.8,0
				c0.7-5.1-2.7-11.3-5-15.7c-2.2-4.2-6.3-11.3-11.5-12C106.9,205,106.8,205.1,106.9,205.1L106.9,205.1z"/>
		</g>
		<g>
			<path fill="#1C1C1B" d="M123.1,232.7c4.2-9.6,6.4-20,15.5-26.2c0.7-0.5,0-1.6-0.7-1.1c-7.8,5.3-15.1,17.5-15.2,27.3
				C122.9,232.7,123,232.8,123.1,232.7L123.1,232.7z"/>
		</g>
		<g>
			<path fill="#1C1C1B" d="M137.8,190.8c-0.2,2.6-0.2,5.3-0.3,8c-0.1,2.3-0.4,5.1,0.4,7.2c0.1,0.4,0.7,0.5,0.8,0
				c0.5-2.3,0.1-4.9,0.2-7.2c0.1-2.7,0.3-5.4-0.1-8.1C138.7,190.1,137.9,190.3,137.8,190.8L137.8,190.8z"/>
		</g>
		<g>
			<path fill="#1C1C1B" d="M86.7,213.3c6.9-2.7,12.8-6.9,20.4-7.4c0.7-0.1,0.7-1.1,0-1.2c-4.4-0.4-8.4,1.5-12.3,3.4
				c-2.8,1.4-6.4,2.2-8.3,4.9C86.5,213.2,86.6,213.4,86.7,213.3L86.7,213.3z"/>
		</g>
		<g>
			<path fill="#1C1C1B" d="M86.7,213.1c0.6,0,1.8-4.2,2-4.5c1.1-2.9,2.3-5.5,3.9-8.1c1.5-2.5,3.2-4.9,5.1-7.1c2-2.3,4.7-3.3,7-5
				c0.3-0.2,0.1-0.7-0.3-0.6c-5.2,1.1-8.6,5.3-11.4,9.6c-2.7,4-6.7,10.9-6.6,15.8c0,0.2,0.3,0.2,0.3,0
				C86.7,213.2,86.7,213.2,86.7,213.1C86.7,213.2,86.7,213.1,86.7,213.1L86.7,213.1z"/>
		</g>
		<g>
			<path fill="#1C1C1B" d="M138.2,205.9c2.9,0.9,5.9,1.7,8.8,2.8c3.3,1.3,5.8,3.1,8.7,5c0.5,0.4,0.9-0.4,0.6-0.8
				c-3.8-5-12.2-7.2-18-7.9C137.8,205,137.8,205.8,138.2,205.9L138.2,205.9z"/>
		</g>
		<g>
			<path fill="#1C1C1B" d="M141.6,189.9c8.6,3.4,12.7,14.9,14,23.5c0.1,0.5,0.8,0.3,0.8-0.1c0.5-6.3-2.9-11.9-5.9-17.1
				c-1.6-2.7-5.3-7.3-8.8-6.6C141.5,189.7,141.5,189.9,141.6,189.9L141.6,189.9z"/>
		</g>
		<g>
			<path fill="#1C1C1B" d="M112.6,225.5c0-0.1-0.1-0.1-0.1-0.2c0-0.1-0.1-0.1-0.2-0.1c-0.2,0-0.2,0.1-0.3,0.2c0.1,0,0.3,0,0.4,0
				c-1.1-1.4-2.6,0.2-3.1,1.3c-0.6,1.5-0.7,3.6,0.9,4.4c2,1,4.8-0.4,4.9-2.7c0-1.7-2.5-5.1-4.2-3.3c-0.1,0.1-0.1,0.4,0.1,0.4
				c0.6,0.3,1.3,0.3,1.8,0.6c0.7,0.4,1.1,1.2,1.2,2c0.2,1.7-2.2,2.5-3.4,1.8c-1.4-0.8-0.2-5,1.5-4.2c0.2,0.1,0.3,0,0.4-0.2
				c0,0,0,0-0.1-0.1C112.5,225.8,112.7,225.7,112.6,225.5L112.6,225.5z"/>
		</g>
		<g>
			<path fill="#1C1C1B" d="M108.9,213.9c-1.5-3-7.4,3.6-2.9,5.3c2.1,0.8,4.6,0,4.8-2.6c0.1-1.8-1.6-4.5-3.6-3.7
				c-0.2,0.1-0.2,0.3,0,0.4c0.7,0.3,1.4,0.3,2,0.8c0.6,0.5,0.8,1.3,0.9,2.1c0.1,2-1.8,2.4-3.4,2c-3.1-0.7,0.4-5.7,1.9-4.2
				C108.8,214.2,109,214.1,108.9,213.9L108.9,213.9z"/>
		</g>
		<g>
			<path fill="#1C1C1B" d="M29.6,255.5c-3.3-4.6,11.2-22.6,14.1-26.3c5.1-6.7,12-12.2,18.9-16.9c8.1-5.4,19.5-12.1,29.4-11.4
				c0.7,0,0.7-1,0-1.1c-9.6-0.6-19.8,5.5-27.8,10.2c-8.1,4.8-16.1,11.4-21.8,19.1c-2.3,3.2-18.2,23.5-13.3,26.9
				C29.4,256.1,29.8,255.7,29.6,255.5L29.6,255.5z"/>
		</g>
		<g>
			<path fill="#1C1C1B" d="M28.7,254.9c0.2,3.7,6.4,6.6,9,8.3c7.9,5.1,16.1,8.1,25.2,10c0.8,0.2,1.1-1.1,0.3-1.2
				c-6.6-1.4-12.8-3.2-18.8-6.3c-4.5-2.3-13-5.9-15.4-10.8C28.9,254.7,28.7,254.8,28.7,254.9L28.7,254.9z"/>
		</g>
		<g>
			<path fill="#1C1C1B" d="M27.3,267c8.4,8.4,21.5,12.7,32.9,14.6c0.9,0.1,1.3-1.2,0.4-1.4c-11.4-2-23.8-6.1-32.6-14
				C27.5,265.9,26.9,266.5,27.3,267L27.3,267z"/>
		</g>
		<g>
			<path fill="#1C1C1B" d="M60.7,281.1c1.6,0.1,2.1-1.8,2.6-3.1c0.6-1.4,1.6-4,0.8-5.5c-0.2-0.5-0.9-0.3-1.1,0.1
				c-0.2,0.6-0.2,1.3-0.3,1.9c-0.2,0.9-0.4,1.8-0.7,2.7c-0.3,0.8-0.6,1.6-0.9,2.3C60.7,280.1,60.8,280.4,60.7,281.1
				C60.6,281.1,60.6,281.1,60.7,281.1L60.7,281.1z"/>
		</g>
		<g>
			<path fill="#1C1C1B" d="M64.3,272.1c2.4-5.9,2.1-13.8,2.6-20.1c0.7-9.3,1.6-18.7-0.3-28c0-0.2-0.4-0.2-0.4,0.1
				c0.9,16.3-1.5,31.8-2.2,48C64,272.2,64.2,272.2,64.3,272.1L64.3,272.1z"/>
		</g>
		<g>
			<path fill="#1C1C1B" d="M36,264.6c-0.8,0.5-1.7,2.5-1.1,3.3c0.1,0.1,0.3,0.3,0.4,0.2c1-0.4,1.3-2.5,1-3.4
				C36.3,264.6,36.1,264.5,36,264.6L36,264.6z"/>
		</g>
		<g>
			<path fill="#1C1C1B" d="M40.8,268c-0.7,0.5-1.5,2.5-0.7,3.1c0.3,0.3,0.7-0.1,0.8-0.4c0.2-0.3,0.2-0.7,0.2-1.1
				c0.1-0.4,0.2-0.7,0.3-1.1C41.6,268.1,41.2,267.7,40.8,268L40.8,268z"/>
		</g>
		<g>
			<path fill="#1C1C1B" d="M46.7,270.8c-0.2,0.7-0.5,1.5-0.5,2.2c-0.1,0.6,0.7,0.8,1,0.4c0.7-0.7,0.8-2,0.1-2.8
				C47.1,270.5,46.8,270.6,46.7,270.8L46.7,270.8z"/>
		</g>
		<g>
			<path fill="#1C1C1B" d="M53.9,273.2c-0.3,0.6-1.5,2.6-0.2,2.9c1.2,0.3,1.3-2.1,1.1-2.8C54.7,272.9,54.1,272.7,53.9,273.2
				L53.9,273.2z"/>
		</g>
		<g>
			<path fill="#1C1C1B" d="M28.3,268C25,292.3,39.6,314,61.2,323c10.2,4.2,23,5.9,33.8,4.1c9.2-1.5,22.1-3.1,29.2-10.1
				c0.6-0.6-0.3-1.4-0.9-0.9c-6.5,5.5-15.1,6.8-23,8.6c-11.4,2.6-23.1,1.7-34.3-1.5c-24.3-6.9-38.1-29.8-36.9-55
				C29.2,267.7,28.4,267.5,28.3,268L28.3,268z"/>
		</g>
		<g>
			<path fill="#1C1C1B" d="M153.6,203.3c8.8,1,16.3,5.6,24.9,7.3c7.8,1.5,15.6-0.1,23,3.3c0.8,0.4,1.5-0.8,0.7-1.3
				c-6.2-4-14.5-3.1-21.5-3.5c-9.4-0.7-17.6-7-27.2-6.3C153.4,202.8,153.4,203.2,153.6,203.3L153.6,203.3z"/>
		</g>
		<g>
			<path fill="#1C1C1B" d="M201.6,213.1c-4.3,13.9-1.7,32.6,4.5,45.5c0.6,1.2,2.4,0.2,1.8-1.1c-6.5-13.5-7.6-29.5-5.5-44.2
				C202.5,212.8,201.7,212.6,201.6,213.1L201.6,213.1z"/>
		</g>
		<g>
			<path fill="#1C1C1B" d="M207,257.7c-4.9,1.5-9.7,3.3-14.6,4.6c-4.9,1.3-9.9,1.3-14.9,2.1c-0.4,0.1-0.4,0.7,0,0.8
				c9.2,2.5,21.8-2.5,30.1-6.3C208.1,258.5,207.6,257.5,207,257.7L207,257.7z"/>
		</g>
		<g>
			<path fill="#1C1C1B" d="M201.9,214.1c1.2,0.5,2.5,0.8,3.8,1.4c0.9,0.5,1.8,1.3,2.9,1.3c0.2,0,0.3-0.2,0.3-0.4
				c-0.3-1.3-1.8-1.9-2.8-2.4c-1.2-0.6-2.8-1.1-4.1-0.7C201.5,213.5,201.5,214,201.9,214.1L201.9,214.1z"/>
		</g>
		<g>
			<path fill="#1C1C1B" d="M208.3,215.7c-1,11.6-1.5,28.4,4.4,38.8c0.3,0.6,1.1,0.2,1-0.4c-1.7-7.2-3.4-14-4.1-21.5
				c-0.5-5.2,1-12.1-0.8-17C208.7,215.3,208.3,215.4,208.3,215.7L208.3,215.7z"/>
		</g>
		<g>
			<path fill="#1C1C1B" d="M207.7,258.5c2.1-0.1,5.4-1.8,6.2-3.8c0.2-0.6-0.4-1.1-0.8-0.7c-0.9,0.8-1.6,1.6-2.7,2.2
				c-0.9,0.6-2,0.9-2.9,1.5C207.2,257.9,207.4,258.5,207.7,258.5L207.7,258.5z"/>
		</g>
		<g>
			<path fill="#1C1C1B" d="M203.4,219.7c0.6,0.2,1.9,0.7,2.4,0.1c0.1-0.1,0.1-0.2,0.1-0.4c-0.3-0.7-1.7-0.6-2.4-0.6
				C203,218.8,202.9,219.5,203.4,219.7L203.4,219.7z"/>
		</g>
		<g>
			<path fill="#1C1C1B" d="M202.7,226.5c0.4,0.5,2.6,1.2,2.9,0.3c0.3-1-2.3-0.9-2.7-0.8C202.6,226,202.6,226.3,202.7,226.5
				L202.7,226.5z"/>
		</g>
		<g>
			<path fill="#1C1C1B" d="M203.2,234.2c0.5,0.5,1.7,0.4,2.3,0.4c0.6,0,0.6-0.9,0-1c-0.6,0-1.9-0.1-2.3,0.4
				C203.2,234,203.2,234.1,203.2,234.2L203.2,234.2z"/>
		</g>
		<g>
			<path fill="#1C1C1B" d="M204.6,242.1c0.6,0.3,2.1,0.4,2.5-0.3c0-0.1,0-0.2,0-0.3c-0.3-0.3-0.6-0.3-1-0.3c-0.5,0-1,0-1.5,0.2
				C204.3,241.6,204.3,242,204.6,242.1L204.6,242.1z"/>
		</g>
		<g>
			<path fill="#1C1C1B" d="M206.7,249.6c0.5,0.3,1.3,0.2,1.8,0.1c0.6-0.1,0.4-1.1-0.1-1c-0.5,0-1.2,0.1-1.7,0.4
				C206.5,249.1,206.5,249.4,206.7,249.6L206.7,249.6z"/>
		</g>
		<g>
			<path fill="#1C1C1B" d="M207.9,215.8c3.8,1.2,9.8-1.5,13.4-2.7c8.7-3.1,17-9.4,24.3-14.9c6.8-5.1,12.6-11.2,17.4-18.2
				c3.7-5.4,8.6-14.5,8.6-21.3c0-0.7-1.1-0.9-1.2-0.2c-3.2,16.6-14.5,30.5-27.4,40.2c-6.2,4.6-12.9,8.9-19.7,12.4
				c-4.9,2.5-10.2,2.8-15.4,4.5C207.7,215.6,207.7,215.8,207.9,215.8L207.9,215.8z"/>
		</g>
		<g>
			<path fill="#1C1C1B" d="M304,146.1c-4.9,8.4-6.7,18.8-10,27.9c-4.3,12.1-9.6,23.7-16.2,34.6c-7.1,11.5-16.3,21.3-27.4,28.6
				c-10.4,6.9-24.9,14.5-37.2,16.2c-0.9,0.1-0.9,1.5,0,1.5c4.8-0.1,10.1-2.9,14.5-4.6c6.6-2.5,13-5.8,19.3-9.2
				c10.5-5.6,19.7-14.3,26.8-23.9c7.6-10.4,13.4-21.8,18.3-33.8c5-12.1,7.8-24.9,12.5-37.1C304.7,146,304.2,145.8,304,146.1
				L304,146.1z"/>
		</g>
		<g>
			<path fill="#1C1C1B" d="M176.5,257.9c1,12.4,2.2,24.7,2.7,37.2c0.6,13.9,4.4,34.7-4.6,46.2c-0.9,1.1,0.7,2.6,1.5,1.6
				c8.1-10.5,5.7-25.8,5.1-38.3c-0.7-14.9,0.8-32.5-4.2-46.7C176.9,257.5,176.4,257.6,176.5,257.9L176.5,257.9z"/>
		</g>
		<g>
			<path fill="#1C1C1B" d="M170,216.8c4.7,11.9,4.2,24.1,6.8,36.4c0,0.2,0.4,0.2,0.4-0.1c-0.4-6.4-0.8-12.7-1.6-19
				c-0.7-4.8-1-14.5-5.4-17.5C170.1,216.6,169.9,216.7,170,216.8L170,216.8z"/>
		</g>
		<path fill="#B6B6B6" d="M114,105c0-0.7,0-1.3-0.2-2c-0.1-0.4-0.8-0.3-0.7,0.1c0,1.1-0.3,2.7,0.5,3.7c0.1,0.1,0.2,0,0.3-0.1
			C114,106.1,114,105.6,114,105z"/>
		<path fill="#B6B6B6" d="M114.5,117.9c0.1-1.3,0.5-4-0.7-5c-0.4-0.3-0.8,0-0.7,0.4c0.2,1.8,0.1,3.6,0,5.5c-0.1,0.9-0.6,3.4,0.4,4.1
			c0.1,0.1,0.2,0,0.3,0C114.8,122.1,114.5,119,114.5,117.9z"/>
		<path fill="#B6B6B6" d="M110.6,125.6c-0.8-0.3-1.8-0.2-2.7-0.1c-1,0-2.1,0.1-3.1,0.1c-0.5,0-0.5,0.7,0,0.7c1,0.1,2.1,0.1,3.1,0
			c0.9,0,1.9,0,2.7-0.3C110.8,125.9,110.8,125.7,110.6,125.6z"/>
		<g opacity="0.8">
			<path fill="#DB9286" d="M83,117.3c-0.4,0-0.9,0-1.3,0.1c-3.6-0.4-7.4,0.4-10.1,2.1c-1,0.6-1.7,1.7-2,2.9
				c-0.8,1.1-0.5,2.6,0.3,3.4c0.1,0.2,0.2,0.4,0.3,0.6c2,2.9,5.5,3.6,8.5,3.8c1,0.1,2.3,0.1,3.7,0.1c0.4,0.3,0.8,0.6,1.3,0.6
				c4.4,0.5,11.3-0.6,11.7-7.3C95.7,118,87,116.4,83,117.3z"/>
			<path fill="#DB9286" d="M185.1,122.5c-0.7-1-1.5-1.9-2.4-2.6c0.1,0,0.1,0,0.2,0c0.3,0,0.4-0.7,0.1-0.9c-4.2-2.5-9.2-2.9-13.6-1.7
				c-0.2,0.1-0.5,0.2-0.8,0.3c-2,0.7-3.8,1.7-5.4,3.1c-1,0.9-1.4,3.8-0.4,5.1c0.4,0.5,0.7,0.8,1.1,1.2c2,4.3,6.4,4.5,9.4,4.6
				c3.8,0.1,9.1-0.6,11.8-5.3C185.7,125.2,185.8,123.5,185.1,122.5z"/>
		</g>
		<path fill="#868686" d="M190.1,96.5c-0.1,0-0.1-0.1-0.2-0.2c-2.3,1.3-5.2,1.7-7.7,2.4c-1.7,0.4-3.4,1.1-5.2,1.4
			c0,0.1-0.1,0.2-0.2,0.2c-0.1,0-0.2,0-0.4,0c-0.1,0-0.1,0-0.2,0c-0.1,0-0.1,0-0.1-0.1c-5.4-0.4-10.9,0.6-16.3,0.6
			c-5.8,0-12,0-17.8,0.5c0.2,0.6,0.2,1.3,0.3,1.9c0,0.8,0.2,1.7,0,2.4c0.1,0.3-0.1,0.7-0.5,0.6c-8.4-3-17.1-2.5-25.7-0.5
			c0,0-0.2,0.2-0.2,0.2c0,0-0.3-0.2-0.4-0.2c-0.1,0.3-0.3,0.2-0.4-0.1c-0.3-0.9,0-1.8,0.1-2.8c0.1-0.5,0.2-1,0.3-1.5
			c-6.7-0.6-13.3-0.3-20-0.6c-4.5-0.2-9.2-0.9-13.7-0.6c0,0-0.1,0.1-0.1,0.1c-0.1,0-0.1,0-0.2,0c-0.1,0-0.2,0-0.4,0
			c-0.1,0-0.2-0.1-0.2-0.2c-3.3-0.7-6.6-2-9.9-3c-0.7-0.2-4.2-0.8-5.3-1.5c-0.4,0.1-1,0-1.4,0c-0.4,0-1.2,0.2-1.6,0.2
			c3.5,1.2,7.2,3.1,10.6,4.5c2.7,1.1,5.1,2.2,7.6,3.8c0.2,0.2,0.2,0.5,0.1,0.7c0.6,3.5,0,7,0,10.6c0,3.8,0.8,7.3,0.2,11.1
			c0,0,0.5,0.1,0.5,0.1c11.3,0.6,22.1,1,33.3,0.5c-0.6-2.3,0.2-4.8,0.1-7.2c-0.1-2.6,0-5.2,0-7.8c0-0.2,0.1-0.3,0.2-0.4
			c0-0.1,0-0.1,0.1-0.1c7.2-4.1,18.5-3.4,25.9,0.1c0.2,0,0.5,0.1,0.5,0.4c0,2.9-0.2,6,0,8.9c0.1,2.1,0.7,4.2,0.2,6.2
			c11.3,0.5,22.6-0.2,33.9-0.8c0,0,0,0,0,0c-0.7-4.3-0.1-8.7-0.2-13c-0.1-3,0-5.8,0.5-8.8c-0.1-0.2-0.1-0.4,0.1-0.6
			c2.5-1.6,5.2-2.7,7.9-3.7c2.4-0.9,4.7-2,7.1-2.9C191.1,97.1,190.6,96.7,190.1,96.5z M111,124l-13,0l-13.2-0.7l0.5-19.2l26.2,0.8
			L111,124z M146.3,123.4l-0.1-18.1l0.1-1l25.8-0.3l0.5,19.2l-15.5,0.5L146.3,123.4z"/>
		<path fill="#B6B6B6" d="M182.8,99.2c-0.8-0.4-2.3,0.4-3.1,0.7c-1.3,0.4-2.6,0.7-3.8,1.3c-0.6,0.3-0.1,1.1,0.4,1
			c1.3-0.2,2.5-0.7,3.7-1.1c0.7-0.2,2.7-0.7,2.9-1.6C183,99.4,182.9,99.2,182.8,99.2z"/>
		<path fill="#B6B6B6" d="M174.9,114.8c-0.1-3,0-5.8-0.5-8.8c-0.1-0.5-0.8-0.3-0.9,0.1c-0.4,4.5,0.1,9.3-0.1,13.8
			c0,0.2,0.3,0.4,0.5,0.2C175.2,118.7,175,116.6,174.9,114.8z"/>
		<path fill="#B6B6B6" d="M140.4,107.2c-2.1-0.8-4.2-1.6-6.5-1.9c-1.3-0.2-2.9-0.4-3.8,0.8c-0.1,0.1,0,0.3,0.1,0.4
			c1.2,0.8,3.2,0.3,4.6,0.6c1.8,0.3,3.5,0.9,5.3,1.2C140.8,108.3,141,107.4,140.4,107.2z"/>
		<path fill="#B6B6B6" d="M169.1,101.3c-1.2-0.4-2.5-0.1-3.7,0c-1.4,0.1-2.9,0.2-4.3,0.4c-0.4,0-0.3,0.6,0.1,0.6
			c1.4,0,2.8-0.1,4.2-0.2c1.2-0.1,2.6,0.1,3.7-0.4C169.3,101.5,169.3,101.3,169.1,101.3z"/>
		<path fill="#B6B6B6" d="M169.7,124.6c-1.7,0-3.4,0.2-5.2,0.3c-2,0.1-4,0-6,0.1c-0.5,0-0.5,0.8,0,0.8c3.5,0.3,7.9,0.5,11.3-0.6
			C170.1,125.1,170.1,124.6,169.7,124.6z"/>
		<path fill="#B6B6B6" d="M80.3,101.1c-0.6-0.5-1.5-0.7-2.2-1c-0.9-0.3-1.8-0.7-2.8-0.5c-0.3,0-0.5,0.4-0.2,0.6
			c0.8,0.4,1.8,0.6,2.6,0.9c0.8,0.3,1.6,0.6,2.4,0.5C80.4,101.5,80.5,101.2,80.3,101.1z"/>
		<g>
			<path fill="#1C1C1B" d="M80.8,104.5c-0.5,2.9,0.1,6.2,0,9.1c-0.1,4.3,0.2,8.7,0.5,13c0,0.2,0.3,0.3,0.4,0.1
				c0.6-3.8,0.1-7.6,0.1-11.4c0-3.7,0.2-7.1-0.4-10.8C81.3,104.2,80.8,104.2,80.8,104.5L80.8,104.5z"/>
		</g>
		<g>
			<path fill="#1C1C1B" d="M81.5,126.9c11,1.9,23,2.9,34,1c0.4-0.1,0.3-0.7-0.1-0.7c-11.4,0.6-22.5,0-33.9-0.6
				C81.4,126.7,81.4,126.9,81.5,126.9L81.5,126.9z"/>
		</g>
		<g>
			<path fill="#1C1C1B" d="M176.1,104.4c-0.5,3.1-0.6,6-0.5,9.1c0.1,4.3-0.5,8.7,0.2,13c0,0.2,0.4,0.2,0.4-0.1
				c0.2-4.3,0.6-8.7,0.5-13c-0.1-3,0.5-6.2,0-9.1C176.6,104.1,176.2,104.1,176.1,104.4L176.1,104.4z"/>
		</g>
		<g>
			<path fill="#1C1C1B" d="M175.9,126.5c-11.4,0.6-22.5,1.2-33.9,0.6c-0.4,0-0.4,0.6-0.1,0.6c11.1,1.9,23,0.9,34-1
				C176.1,126.8,176,126.5,175.9,126.5L175.9,126.5z"/>
		</g>
		<g>
			<path fill="#1C1C1B" d="M171.8,104.2c-0.4,6.3-0.4,13.4,0.6,19.6c0,0.2,0.4,0.2,0.4,0c0.4-2.6-0.1-5.6-0.1-8.2
				c-0.1-3.8-0.2-7.6-0.5-11.4C172.2,104,171.8,104,171.8,104.2L171.8,104.2z"/>
		</g>
		<g>
			<path fill="#1C1C1B" d="M85.2,104.4c-0.3,3.8-0.5,7.6-0.5,11.4c0,2.7-0.5,5.6-0.1,8.2c0,0.2,0.4,0.2,0.4,0c1-6.2,1-13.3,0.6-19.6
				C85.6,104.1,85.2,104.1,85.2,104.4L85.2,104.4z"/>
		</g>
		<g>
			<path fill="#1C1C1B" d="M84.9,123.9c8.8,1.1,17.4,0.8,26.3,0.7c0.7,0,0.7-1.1,0-1.1c-4.4,0.1-8.7,0.7-13.1,0.5
				c-4.4-0.2-8.7-0.6-13.1-0.6C84.6,123.4,84.6,123.9,84.9,123.9L84.9,123.9z"/>
		</g>
		<g>
			<path fill="#1C1C1B" d="M111.4,124.2c0.2-3.2,0.1-6.5,0.1-9.7c0-3.2,0.6-6.4,0.4-9.7c0-0.6-0.9-0.6-0.8,0
				c0.4,6.5-0.7,12.8,0.1,19.4C111.2,124.3,111.4,124.3,111.4,124.2L111.4,124.2z"/>
		</g>
		<g>
			<path fill="#1C1C1B" d="M85.2,104.1c8.5,1,17.3,0.6,25.9,0.9c0.3,0,0.4-0.5,0.1-0.6c-3.6-1.3-7.6-0.8-11.3-0.7
				c-4.9,0.1-9.8-0.3-14.6,0.2C85.1,103.9,85.1,104.1,85.2,104.1L85.2,104.1z"/>
		</g>
		<g>
			<path fill="#1C1C1B" d="M172.2,103.7c-4.8-0.5-9.8-0.2-14.6-0.2c-3.8,0-7.7-0.5-11.3,0.7c-0.3,0.1-0.3,0.6,0.1,0.6
				c8.6-0.2,17.3,0.1,25.9-0.9C172.4,103.9,172.4,103.7,172.2,103.7L172.2,103.7z"/>
		</g>
		<g>
			<path fill="#1C1C1B" d="M146.3,124c0.8-6.5-0.3-12.9,0.1-19.4c0-0.6-0.8-0.6-0.8,0c-0.2,2.9,0.2,5.7,0.4,8.5
				c0.2,3.6-0.1,7.2,0.1,10.9C146,124.2,146.2,124.1,146.3,124L146.3,124z"/>
		</g>
		<g>
			<path fill="#1C1C1B" d="M172.5,123.2c-4.4,0-8.8,0.4-13.1,0.6c-4.4,0.2-8.7-0.4-13.1-0.5c-0.7,0-0.7,1.1,0,1.1
				c8.8,0.2,17.4,0.4,26.3-0.7C172.8,123.7,172.9,123.2,172.5,123.2L172.5,123.2z"/>
		</g>
	</g>
</g>
</svg>
